<?xml version="1.0" encoding="UTF-8" standalone="no"?>
<!-- Created with Inkscape (http://www.inkscape.org/) -->

<svg
   xmlns:dc="http://purl.org/dc/elements/1.1/"
   xmlns:cc="http://creativecommons.org/ns#"
   xmlns:rdf="http://www.w3.org/1999/02/22-rdf-syntax-ns#"
   xmlns:svg="http://www.w3.org/2000/svg"
   xmlns="http://www.w3.org/2000/svg"
   xmlns:xlink="http://www.w3.org/1999/xlink"
   xmlns:sodipodi="http://sodipodi.sourceforge.net/DTD/sodipodi-0.dtd"
   xmlns:inkscape="http://www.inkscape.org/namespaces/inkscape"
   width="256"
   height="256"
   id="svg2"
   sodipodi:version="0.32"
   inkscape:version="0.92.4 (5da689c313, 2019-01-14)"
   sodipodi:docname="dance_cover.svg"
   inkscape:output_extension="org.inkscape.output.svg.inkscape"
   version="1.0">
  <defs
     id="defs4">
    <inkscape:perspective
       sodipodi:type="inkscape:persp3d"
       inkscape:vp_x="0 : 128 : 1"
       inkscape:vp_y="0 : 1000 : 0"
       inkscape:vp_z="256 : 128 : 1"
       inkscape:persp3d-origin="128 : 85.333333 : 1"
       id="perspective17" />
    <linearGradient
       id="linearGradient3751"
       inkscape:collect="always">
      <stop
         id="stop3753"
         offset="0"
         style="stop-color:black;stop-opacity:1;" />
      <stop
         id="stop3755"
         offset="1"
         style="stop-color:black;stop-opacity:0;" />
    </linearGradient>
    <linearGradient
       inkscape:collect="always"
       xlink:href="#linearGradient3751"
       id="linearGradient3484"
       gradientUnits="userSpaceOnUse"
       gradientTransform="matrix(0.336682,0,0,0.336682,-81.3739,-51.8729)"
       x1="665.12128"
       y1="684.16162"
       x2="381.28015"
       y2="449.80624" />
    <inkscape:perspective
       sodipodi:type="inkscape:persp3d"
       inkscape:vp_x="0 : 0.5 : 1"
       inkscape:vp_y="0 : 1000 : 0"
       inkscape:vp_z="1 : 0.5 : 1"
       inkscape:persp3d-origin="0.5 : 0.33333333 : 1"
       id="perspective3827" />
    <inkscape:perspective
       sodipodi:type="inkscape:persp3d"
       inkscape:vp_x="0 : 0.5 : 1"
       inkscape:vp_y="0 : 1000 : 0"
       inkscape:vp_z="1 : 0.5 : 1"
       inkscape:persp3d-origin="0.5 : 0.33333333 : 1"
       id="perspective2830" />
    <linearGradient
       y2="449.80624"
       x2="381.28015"
       y1="684.16162"
       x1="665.12128"
       gradientTransform="matrix(0.336682,0,0,0.336682,-81.3739,-51.8729)"
       gradientUnits="userSpaceOnUse"
       id="linearGradient3484-3"
       xlink:href="#linearGradient3751-8"
       inkscape:collect="always" />
    <linearGradient
       inkscape:collect="always"
       id="linearGradient3751-8">
      <stop
         style="stop-color:black;stop-opacity:1;"
         offset="0"
         id="stop3753-9" />
      <stop
         style="stop-color:black;stop-opacity:0;"
         offset="1"
         id="stop3755-7" />
    </linearGradient>
    <inkscape:perspective
       id="perspective17-2"
       inkscape:persp3d-origin="128 : 85.333333 : 1"
       inkscape:vp_z="256 : 128 : 1"
       inkscape:vp_y="0 : 1000 : 0"
       inkscape:vp_x="0 : 128 : 1"
       sodipodi:type="inkscape:persp3d" />
    <inkscape:path-effect
       vertical="false"
       scale_y_rel="false"
       prop_scale="1"
       bendpath="m 266.25,32.092577 41.87495,0"
       is_visible="true"
       id="path-effect2844"
       effect="bend_path" />
  </defs>
  <sodipodi:namedview
     id="base"
     pagecolor="#ffffff"
     bordercolor="#666666"
     borderopacity="1.0"
     inkscape:pageopacity="0.0"
     inkscape:pageshadow="2"
     inkscape:zoom="1.1191406"
     inkscape:cx="316.49"
     inkscape:cy="166.44129"
     inkscape:document-units="px"
     inkscape:current-layer="layer1"
     inkscape:window-width="1920"
     inkscape:window-height="1017"
     inkscape:window-x="-8"
     inkscape:window-y="-8"
     showguides="true"
     inkscape:guide-bbox="true"
     width="256px"
     height="256px"
     borderlayer="false"
     showgrid="false"
     inkscape:window-maximized="1" />
  <metadata
     id="metadata7">
    <rdf:RDF>
      <cc:Work
         rdf:about="">
        <dc:format>image/svg+xml</dc:format>
        <dc:type
           rdf:resource="http://purl.org/dc/dcmitype/StillImage" />
      </cc:Work>
    </rdf:RDF>
  </metadata>
  <g
     inkscape:label="Capa 1"
     inkscape:groupmode="layer"
     id="layer1">
    <rect
       style="opacity:1;color:#000000;fill:#000000;fill-opacity:0.627451;fill-rule:nonzero;stroke:none;stroke-width:10.014;stroke-linecap:butt;stroke-linejoin:miter;marker:none;marker-start:none;marker-mid:none;marker-end:none;stroke-miterlimit:4;stroke-dasharray:none;stroke-dashoffset:0;stroke-opacity:1;visibility:visible;display:block;overflow:visible"
       id="rect1906"
       width="246.30026"
       height="246.30028"
       x="4.8498545"
       y="4.0691833"
       inkscape:export-filename="/home/jesusda/docs/curro/yo/ultrastar-ng/base/theme-pod/images/no_cover.png"
       inkscape:export-xdpi="89.889648"
       inkscape:export-ydpi="89.889648" />
    <path
       style="font-size:39.83382034px;font-family:Goblin;stroke:none;stroke-opacity:1;fill:#fffeff;fill-opacity:1"
       d="M 58.72672,219.00823 L 44.00299,198.17717 L 44.00299,218.61923 L 40.30747,218.61923 L 40.30747,190.12482 L 41.86348,190.12482 L 56.19821,209.82778 L 56.19821,190.12482 L 59.89373,190.12482 L 59.89373,219.00823 L 58.72672,219.00823 M 64.3867,204.1289 C 64.3867,200.0055 65.41756,196.55635 67.47927,193.78144 C 69.55394,191.00659 72.34827,189.61915 75.86227,189.61912 C 79.8171,189.61915 82.84483,190.89637 84.94547,193.45079 C 87.05902,196.00526 88.11581,199.56463 88.11583,204.1289 C 88.11581,208.8099 87.05902,212.47949 84.94547,215.13766 C 82.83187,217.78288 79.80414,219.10548 75.86227,219.10548 C 72.27047,219.10548 69.45669,217.70508 67.42092,214.90426 C 65.39811,212.10345 64.3867,208.51167 64.3867,204.1289 M 68.47123,204.1289 C 68.47122,207.39653 69.11307,210.12603 70.39679,212.3174 C 71.69345,214.50878 73.51528,215.60447 75.86227,215.60447 C 78.52043,215.60447 80.54324,214.59955 81.9307,212.5897 C 83.33109,210.57986 84.03129,207.7596 84.03131,204.1289 C 84.03129,196.78975 81.30828,193.12017 75.86227,193.12014 C 73.45044,193.12017 71.61565,194.10564 70.35789,196.07656 C 69.10011,198.04752 68.47122,200.73163 68.47123,204.1289 M 122.75647,191.17513 L 121.45332,194.5011 C 120.20849,193.59345 118.25052,193.13962 115.57938,193.13959 C 113.07679,193.13962 111.06695,194.21585 109.54985,196.36831 C 108.0457,198.52081 107.29363,201.29569 107.29364,204.69296 C 107.29363,207.93465 108.06515,210.5669 109.6082,212.5897 C 111.1642,214.59955 113.16756,215.60447 115.61828,215.60447 C 118.28942,215.60447 120.34464,214.6579 121.78397,212.76475 L 123.92348,215.74062 C 121.66725,217.98386 118.7627,219.10548 115.20983,219.10548 C 111.48837,219.10548 108.55789,217.76343 106.41838,215.07931 C 104.27887,212.3952 103.20911,208.85529 103.20912,204.45955 C 103.20911,200.20648 104.35019,196.67305 106.63233,193.85925 C 108.91447,191.04549 111.8644,189.6386 115.48213,189.63857 C 118.58117,189.6386 121.00594,190.15079 122.75647,191.17513 M 127.01605,204.1289 C 127.01604,200.0055 128.0469,196.55635 130.10861,193.78144 C 132.18328,191.00659 134.97761,189.61915 138.49161,189.61912 C 142.44645,189.61915 145.47418,190.89637 147.57481,193.45079 C 149.68836,196.00526 150.74515,199.56463 150.74518,204.1289 C 150.74515,208.8099 149.68836,212.47949 147.57481,215.13766 C 145.46121,217.78288 142.43348,219.10548 138.49161,219.10548 C 134.89981,219.10548 132.08603,217.70508 130.05026,214.90426 C 128.02745,212.10345 127.01604,208.51167 127.01605,204.1289 M 131.10057,204.1289 C 131.10056,207.39653 131.74242,210.12603 133.02613,212.3174 C 134.32279,214.50878 136.14462,215.60447 138.49161,215.60447 C 141.14977,215.60447 143.17258,214.59955 144.56004,212.5897 C 145.96043,210.57986 146.66063,207.7596 146.66065,204.1289 C 146.66063,196.78975 143.93762,193.12017 138.49161,193.12014 C 136.07979,193.12017 134.24499,194.10564 132.98723,196.07656 C 131.72945,198.04752 131.10056,200.73163 131.10057,204.1289 M 165.13826,219.00823 L 163.1738,219.00823 L 152.55404,190.12482 L 156.87197,190.12482 L 164.20466,211.11149 L 171.26505,190.12482 L 175.44682,190.12482 L 165.13826,219.00823 M 182.52665,193.62584 L 182.52665,201.54204 L 191.94051,201.54204 L 191.94051,204.84856 L 182.52665,204.84856 L 182.52665,215.11821 L 195.44153,215.11821 L 195.44153,218.61923 L 178.63663,218.61923 L 178.63663,190.12482 L 195.65548,190.12482 L 195.65548,193.62584 L 182.52665,193.62584 M 215.76689,218.61923 L 208.1619,206.38511 C 207.29312,206.38513 205.91864,206.32029 204.03848,206.19061 L 204.03848,218.61923 L 200.14846,218.61923 L 200.14846,190.12482 C 200.29109,190.12485 201.29601,190.07947 203.16322,189.98867 C 205.04339,189.88497 206.41138,189.8331 207.26719,189.83307 C 214.11362,189.8331 217.53683,192.55611 217.53685,198.00212 C 217.53683,199.79155 216.98575,201.4059 215.88359,202.84519 C 214.7814,204.27155 213.47176,205.15977 211.95467,205.50986 L 220.22097,218.61923 L 215.76689,218.61923 M 204.03848,193.62584 L 204.03848,202.8841 C 204.97207,203.01378 205.87974,203.07861 206.76149,203.0786 C 209.09549,203.07861 210.79413,202.70258 211.85742,201.95049 C 212.92068,201.19844 213.45231,199.85638 213.45233,197.92432 C 213.45231,196.32943 212.88178,195.18188 211.74072,194.48165 C 210.59963,193.78147 208.79726,193.43137 206.33359,193.43134 C 205.94458,193.43137 205.17954,193.4962 204.03848,193.62584"
       id="text1909" />
    <path
       style="fill:#ffffff;fill-opacity:1;stroke:none;stroke-width:1.0678153;stroke-miterlimit:4;stroke-dasharray:none;stroke-opacity:1"
       d="m 193.17567,165.80983 c -3.50721,-1.26179 -2.30073,-4.91453 -2.64086,-7.58277 0.34359,-1.74936 -0.62399,-3.15312 -1.17041,-4.70172 -0.49549,-2.2293 0.2453,-4.52557 1.51293,-6.42982 -0.0854,-5.04454 -1.31773,-9.98464 -2.15921,-14.92674 -0.42886,-3.58523 2.08986,-7.07071 0.64534,-10.57891 -1.11824,-3.30572 -1.08387,-6.72991 -1.03033,-10.15604 0.28473,-4.61795 -1.74131,-9.00879 -1.91287,-13.610874 -3.76754,-1.530774 -3.48769,5.016274 -5.70031,6.801534 -1.47487,4.41657 -5.00063,7.87808 -6.96688,12.05922 -0.82179,2.44769 -1.63453,4.89395 -3.56227,6.81676 -3.00287,3.79689 -2.3563,9.04835 -5.61701,12.75091 -1.83677,3.67684 -4.75924,7.19475 -5.7479,11.08021 -0.56267,1.91898 2.07089,3.39123 0.65713,5.22326 -1.48351,2.84675 -0.67957,6.08746 -1.42341,9.09268 -2.45284,0.0193 -1.74589,2.63022 -3.54067,3.41895 -1.52684,0.72738 -3.72497,0.98028 -5.22234,0.27901 -1.72284,-1.24955 -0.39353,-3.97428 0.42792,-5.56465 1.23351,-1.89031 2.02981,-3.89684 1.97097,-6.13063 0.30938,-1.78647 1.50292,-3.36186 1.42304,-5.25992 -0.34949,-2.10106 1.00566,-3.73887 1.50327,-5.58223 1.17934,-5.51929 3.69004,-10.75012 4.67285,-16.33979 1.85521,-3.77361 4.61244,-7.3203 5.51262,-11.39833 0.34974,-5.0271 2.34847,-9.76547 4.79171,-14.20745 0.66819,-3.083402 3.08784,-5.429649 4.0059,-8.41274 -0.3958,-2.631907 -0.66922,-5.2658 -0.25344,-7.911015 -1.59253,-4.515149 -4.66122,-8.465187 -5.64404,-13.179315 -0.62128,1.674802 -0.28635,4.687728 -0.54966,6.873158 -1.07068,4.323198 -2.53558,8.644563 -3.36334,12.968899 1.32124,2.160571 1.10126,4.658214 0.0799,6.888607 0.58291,1.234877 -0.82696,3.641866 -1.07971,1.280907 0.54864,-3.183306 -1.92372,-1.163385 -0.48725,0.754059 0.92122,1.56591 3.9693,3.79634 -0.0416,1.71274 -1.80354,-0.9397 -2.23636,-3.301688 -2.74082,-5.024246 0.70493,-2.392628 1.49596,-4.726636 1.2856,-7.247127 0.22956,-4.404038 -0.0754,-8.873565 1.43425,-13.120783 0.46027,-5.227128 -0.11554,-10.580255 0.40441,-15.792751 0.19027,-2.268809 2.08166,-4.194998 4.59747,-3.976652 2.86931,0.01709 2.94987,-2.962397 1.04846,-1.63743 1.07566,-1.114714 4.34061,-7.542322 1.98741,-6.237216 -1.18538,-0.294717 0.38883,-2.478762 -1.70197,-3.554009 2.41219,0.801608 0.44459,-1.938555 1.569,-2.766966 -1.43575,-2.375419 6.71904,1.87077 2.0727,-1.073325 -2.95852,-2.780997 2.27298,0.677764 4.11285,0.02136 -1.67657,-1.252697 -5.4204,-4.551904 -3.83008,-4.740822 -1.48887,-1.739813 1.20831,0.206089 0.47715,-1.958416 1.93823,1.246589 5.6179,4.547355 2.53734,0.497581 -1.92535,-2.695272 -1.0298,-2.109106 0.91293,-2.039591 1.00495,3.267856 3.99913,3.081031 1.27549,0.02157 1.84638,0.990249 4.51978,6.062499 3.01212,1.296797 1.75455,1.106983 2.43026,0.646626 3.32647,1.5535 0.3334,-1.978277 0.96781,2.627744 3.03258,0.132409 2.07506,-0.552978 2.737,1.718585 3.86444,2.858627 2.18687,1.243599 4.15857,4.339004 1.48177,6.055943 -1.43188,1.397302 -0.0327,4.23801 0.56366,5.069027 -2.90946,-0.02434 0.36502,4.407963 0.33847,6.741331 -0.605,3.079409 -2.51791,-4.821698 -3.59782,-2.939525 0.31995,1.974497 0.0867,3.94167 -1.04639,1.664874 -1.81995,2.58187 -1.55785,-2.20476 -2.03501,1.06758 0.79939,1.307903 -3.68185,0.948903 -0.40759,2.102357 2.22422,0.35191 5.89215,0.285171 5.9819,3.058415 0.23163,2.250314 -0.19477,4.398994 -1.18974,6.460026 -0.32382,3.16452 -0.23874,6.472035 0.34322,9.546015 2.92504,2.818454 4.44305,6.51972 6.28491,9.964552 1.1402,2.740251 0.42567,5.859193 1.13397,8.580454 1.18976,1.0799 1.06784,3.276271 0.57591,4.565831 -1.77556,1.90788 -0.37217,4.81126 -1.16983,7.11783 -0.89963,5.80157 -1.29184,11.70261 -0.76374,17.54029 1.15521,4.79319 -1.18327,9.56367 -1.20148,14.38144 0.19583,2.38014 -1.61136,4.91537 0.015,7.05518 -2.18629,2.37852 -0.21036,5.66707 -0.19584,8.41704 0.1811,3.31535 3.30457,6.4462 1.75647,9.76356 -1.33441,1.07303 -2.8602,1.48484 -4.63524,0.5488 z M 170.26802,56.320713 c 0.0344,-0.907494 -0.82444,0.989929 0,0 z"
       id="path2875"
       inkscape:connector-curvature="0" />
    <path
       inkscape:connector-curvature="0"
       d="m 187.01093,144.59157 c -0.38396,-1.12281 -2.54671,-2.0976 -3.63339,-2.29702 -0.38073,-0.0954 -2.80948,-0.22684 -3.43989,-0.35051 -1.90267,-0.33746 -3.07065,-0.24572 -3.94596,-0.23287 -0.52068,0.0253 -1.04765,-0.0797 -1.56097,0.0408 -0.62038,0.14583 -0.60926,-0.47145 -2.02234,-1.12151 -0.5299,-0.27175 -1.11566,-0.45163 -1.71216,-0.46861 -0.18477,-0.0131 -0.41418,0.0622 -0.55423,-0.0933 -0.17985,-0.18182 -0.41272,-0.28974 -0.63828,-0.39961 0.0436,-0.37982 0.37797,-0.88093 -1.57068,-1.42294 -0.0448,-0.41834 0.0317,-0.55078 -0.58921,-1.06319 -0.28782,-0.23577 -0.64269,-0.36071 -0.96354,-0.54107 -0.54738,-0.29798 -1.18277,-0.47058 -1.80649,-0.39036 -0.16723,-0.0812 -0.25861,-0.25765 -0.40304,-0.36799 -0.47457,-0.45566 -1.23003,-0.47375 -1.67183,-0.75886 -1.3396,-0.84766 -0.15203,-0.0585 -1.21388,-0.82983 -0.22653,-0.16139 -0.41515,-0.37384 -0.6626,-0.50462 -1.23721,-0.63391 -2.65139,-0.83908 -3.85797,-1.54007 -1.59261,-0.87684 -1.00092,-0.26861 -1.97712,-0.88816 -0.0387,-0.0259 -1.97438,-1.07688 -2.05103,-1.10988 -0.13851,-0.0899 -0.30868,-0.0161 -0.45111,-0.0865 -0.46625,-0.19738 -0.91008,-0.44626 -1.38549,-0.62033 -0.97492,-0.28263 -3.48143,-1.33967 -4.36844,-1.28145 -0.22847,0.009 -0.42296,-0.12785 -0.63442,-0.1867 -0.27662,-0.035 -0.55859,0.0232 -0.83277,-0.0375 -0.57755,-0.0768 -1.12591,-0.28439 -1.69518,-0.39616 -0.32618,-0.0166 -0.60087,-0.23044 -0.92269,-0.25768 -0.16479,-0.0209 -0.29505,0.0943 -0.44045,0.1468 -0.1988,-0.0729 -0.36704,-0.21243 -0.56633,-0.28486 -0.25424,-0.0948 -0.50218,-0.20225 -0.74087,-0.32912 -0.46453,-0.25491 -0.61286,0.24523 -1.01363,0.0443 -0.28531,-0.13854 -0.52503,-0.35051 -0.79043,-0.51966 -0.20855,-0.1434 -0.47202,-0.0365 -0.70246,-0.0895 -0.11568,-0.0447 -0.21289,-0.12392 -0.31354,-0.19155 -1.03583,0.29213 -0.9229,-0.21197 -1.16575,-0.44723 -0.16819,-0.12884 -0.3651,-0.24694 -0.58482,-0.22608 -0.36742,0.0431 -0.66962,-0.52624 -1.47883,-0.10548 -0.16921,0.0656 -0.18719,-0.16427 -0.2494,-0.26492 -0.0646,-0.21925 -0.32425,-0.21438 -0.47449,-0.34323 -0.0388,0.005 -0.0787,0.0107 -0.11323,0.0225 -0.003,-0.022 -0.005,-0.0647 -0.007,-0.0861 -0.35731,0.0588 -0.71852,-0.0199 -1.07826,0.003 -0.36313,-0.0768 -0.69762,-0.2708 -0.9859,-0.50122 -0.20124,-0.16868 -0.48371,-0.14679 -0.70442,-0.27514 -1.86777,-1.03764 0.72284,0.34417 -4.22308,-2.052 -0.46371,-0.25254 -3.62055,-1.83737 -4.51088,-2.10204 -0.36896,-0.11131 -0.71756,-0.28731 -1.0301,-0.51141 -0.48852,-0.35378 -1.67236,-0.63744 -1.72287,-0.65529 -0.032,-0.16144 -0.12845,-1.23495 -0.76226,-1.09091 -0.73296,0.15145 -0.73349,0.35138 -1.32814,0.10307 -0.26541,-0.11132 -0.35584,-0.4113 -0.55566,-0.596 -0.16772,-0.19496 -0.41808,-0.27418 -0.63345,-0.40008 -1.3291,-0.73627 -1.41969,0.0242 -1.91876,-0.59063 -0.17357,-0.25134 -0.39476,-0.47932 -0.67185,-0.614 -0.2241,-0.10889 -0.44092,-0.24113 -0.68592,-0.29608 -0.51235,-0.11033 -1.03984,-0.0622 -1.55418,-0.15164 -1.562,-0.24986 -1.4103,-0.59894 -2.05052,-0.84879 -0.32522,-0.16673 -0.70344,-0.14489 -1.03983,-0.27175 -0.29119,-0.10843 -0.48808,-0.36219 -0.75398,-0.51095 -0.58307,-0.33587 -0.73061,-0.43114 -1.72241,-0.11522 -0.16721,-0.15607 -0.31209,-0.33641 -0.49488,-0.47445 -0.41849,-0.23874 -0.68467,-0.1392 -1.6412,-0.58728 -0.58702,-0.27085 -0.3429,0.0453 -1.14631,-0.65869 -0.17842,-0.1609 -0.40789,-0.24306 -0.61886,-0.34906 -0.1998,-0.10209 -0.42879,-0.0578 -0.64268,-0.0822 -0.40267,-0.0485 -1.04539,0.0465 -1.998517,-0.29019 -1.403814,-0.47782 -1.017712,-0.0974 -2.376221,-0.43705 -0.450171,-0.1147 -0.929036,-0.12638 -1.380157,-0.01 -3.651269,0.90599 -3.491825,0.63557 -6.879822,-0.0457 -1.564885,-0.21306 -1.586779,-0.37092 -2.62518,-0.0253 -0.337847,0.1128 -0.687386,-0.0215 -1.031558,-0.007 -0.86629,0.0377 -1.187678,-0.51133 -2.433117,-0.29753 -0.514655,0.0608 -0.668833,-0.29251 -1.765656,-0.2241 -0.166753,0.0108 -0.315487,-0.0797 -0.47544,-0.10894 -0.309966,-0.0738 -1.603262,-0.075 -1.850253,-0.13805 -0.166261,-0.0336 -0.319905,-0.11131 -0.48614,-0.14097 0,0 -5.70299,0.47293 -6.697062,0.49051 -0.502165,0.0593 -1.00874,0.0123 -1.512356,0.0413 -0.339966,0 -2.045336,0.18394 -2.135105,0.18522 -0.326188,0.0123 -0.654351,-0.0128 -0.977139,0.0452 -0.791104,0.11962 -1.982793,-0.0194 -2.429207,0.0929 -0.67995,0.17306 -1.381607,-0.36893 -1.941635,-0.39619 -0.173053,-0.0248 -0.373833,0.009 -0.516258,-0.1133 -0.246,-0.20224 -0.407385,-0.49243 -0.683037,-0.66215 0.02222,-0.27756 0.06173,-0.55371 0.09141,-0.83031 0.04274,-0.41859 -0.08361,-0.83323 -0.03595,-1.25229 0.113477,-0.35196 0.136829,0.11997 0.127833,-1.08456 0.259591,0 0.51095,-0.0666 0.749131,-0.16673 0.281969,-1.25994 -0.674913,-2.50871 -1.048593,-2.79381 -0.09044,-0.0899 -0.237723,-0.14634 -0.258158,-0.2854 -0.101115,-0.48174 -0.172087,-0.9698 -0.30432,-1.4443 -0.18913,-0.83714 -0.548861,-1.62857 -0.681587,-2.4793 -0.05757,-0.35792 -0.493372,-1.34701 -0.639732,-2.0826 -0.132234,-0.59697 -0.361674,-1.16479 -0.544952,-1.74623 -0.306643,-0.89517 0.350616,-1.41351 0.137117,-2.85311 -0.03019,-0.5061 0.03595,-1.02041 -0.0909,-1.51818 -0.180777,-1.61823 -0.731682,-2.28775 -0.755924,-3.04275 -0.40373,-4.21635 -0.120354,-4.18023 -1.31061,-7.328522 -0.749615,-2.266754 -0.863788,-3.410917 -1.41515,-5.102032 -0.263399,-1.194623 -1.541517,-3.819141 -1.388865,-5.226474 0.03985,-0.275151 -0.03451,-0.54981 -0.01357,-0.825928 0.06826,-0.884071 0.510976,-2.285349 0.308687,-3.31059 -0.07826,-0.470072 -0.06368,-0.959129 -0.233832,-1.410267 -0.139492,-0.394759 -0.07581,-0.82207 -0.194929,-1.220687 -0.136626,-0.403985 -0.03739,-0.835197 -0.06325,-1.252256 -0.02815,-0.342265 0.05596,-0.675736 0.109907,-1.010174 0.07173,-0.395166 0.02764,-0.834331 -0.174053,-2.474936 -0.03451,-0.207572 -0.04672,-0.446262 -0.213431,-0.597964 -0.201263,-0.175995 -0.445287,-0.354424 -0.727255,-0.327672 -0.925254,-0.04994 0.231458,2.091107 -0.556628,3.94744 -0.08799,0.201289 -0.126866,0.417569 -0.180336,0.629567 -0.704243,-0.256268 -0.482545,-0.713672 -0.418595,-1.349038 0.03298,-0.625191 0.339907,-3.542252 0.08115,-4.656737 -0.17942,-0.441437 -1.037663,-0.391775 -1.252289,-0.134633 -0.16192,0.398151 -0.109391,0.840538 -0.194463,1.255681 0.0097,1.226895 -0.273057,1.414871 -0.29947,1.898357 -0.04324,0.381625 0.09141,0.758857 0.02196,1.138524 -0.04129,0.282935 -0.01713,0.56927 -0.02374,0.854147 -0.06707,0.0025 -0.133667,0.0034 -0.200288,0.0042 -0.05334,-0.187061 -0.04723,-0.148311 -0.04223,-1.755448 -0.0059,-0.184703 0.103031,-0.349539 0.09964,-0.533301 0.0051,-0.164269 -0.04469,-0.322771 -0.053,-0.48614 -0.07402,-0.622724 0.200882,-1.495551 -0.07682,-1.817652 -0.192012,-0.217797 -0.46573,-0.368015 -0.75449,-0.401051 -0.217315,-0.03112 -0.380633,0.14486 -0.504617,0.29702 -0.210514,0.281993 -0.226531,0.647067 -0.276117,0.98153 -0.08004,0.570526 -0.306516,0.897917 -0.282936,1.670376 -0.02866,0.713129 0.213906,1.432643 0.04715,2.139472 -0.06266,0 -0.125416,0 -0.188137,0 -0.227396,-0.424632 -0.706643,-2.583411 -0.491991,-3.550739 0.07776,-0.326196 -0.05927,-0.655292 0.0076,-0.982506 0.03417,-1.235654 -0.0619,-1.142229 -0.645609,-1.391799 -0.301055,0.0042 -0.694636,0.800321 -0.822095,1.29896 -0.135634,0.514783 -0.113732,1.052476 -0.232357,1.56971 -0.151643,0.05978 -0.350506,0.0919 -0.434094,0.246457 -0.02578,0.468639 0.02671,0.946503 -0.100606,1.4059 -0.04138,0.32913 -0.378717,0.532335 -0.391851,0.869232 -0.03205,0.986304 0.293695,0.950056 0.486631,1.891047 0.04129,0.19883 0.106941,0.391817 0.19883,0.573129 0.113308,0.215389 0.13906,0.463305 0.250875,0.679636 0.130784,0.331555 0.331046,0.634425 0.422944,0.981539 0.08505,0.305753 0.131742,0.63345 0.315996,0.9008 2.64319,3.907079 1.877455,3.948746 2.189542,6.207953 0.0025,0.0569 0.0089,1.561519 0.285852,2.792857 1.66143,7.387474 0.376673,6.066316 1.004349,14.163612 0.03595,0.48808 0.239173,0.93971 0.33398,1.41563 0.498206,2.50138 0.838443,4.39695 1.035467,4.94839 0.145826,0.40884 0.209997,0.84148 0.231407,1.27364 0.04053,0.76962 0.473014,4.03057 0.473014,4.03057 0.14324,0.55845 -0.02612,1.14684 0.09286,1.47931 -0.197379,0.0113 -0.396701,-0.0108 -0.592605,0.0199 -1.133538,0.2904 -0.883146,1.26501 -1.201236,2.13416 -0.100148,0.21634 -0.320854,0.33884 -0.467647,0.51823 -0.04765,0.26593 0.0025,0.54059 -0.0608,0.80651 -0.08704,0.36801 -0.273201,0.7025 -0.385992,1.0627 -0.09409,0.2139 0.285259,1.05577 0.733564,1.36556 1.261685,0.7687 0.06063,2.00878 -0.148251,3.9931 -0.01993,0.29606 -0.09044,0.60573 0.02145,0.89303 0.04375,0.14391 0.141459,0.26932 0.16721,0.41906 -0.01128,0.40909 -0.401356,0.81262 -0.195904,2.00726 0.290015,0.43832 -0.07784,0.79034 0.355365,1.78071 0.118158,0.26981 0.140976,0.57121 0.273718,0.83617 0.171145,0.36505 0.197838,0.78121 0.122016,1.17304 -0.06707,0.15019 -0.176944,0.27854 -0.269317,0.41468 -1.084418,1.31447 -1.039173,1.60448 -1.350497,2.58091 -0.123466,0.39815 0.07538,0.79044 0.136601,1.18034 0.03604,0.15411 0.0097,0.33449 0.118624,0.46379 0.232866,0.28442 0.526968,0.52064 0.714613,0.84148 0.178878,0.38454 0.494416,0.68061 0.714613,1.04035 -0.0051,0.19252 -0.04859,0.38209 -0.0758,0.57267 -0.03358,0.21488 0.114707,0.39525 0.181312,0.58872 0.05605,0.26906 -0.01866,0.43688 0.01128,1.49339 0.0025,0.1687 0.07436,0.33884 0.01815,0.50608 -0.06317,0.22364 -0.144368,0.49539 -0.383567,0.58728 -0.157502,0.0637 -0.32573,0.1434 -0.50025,0.11328 -0.291677,-0.11425 -0.391333,-0.46816 -0.68937,-0.57901 -0.494602,0.37335 -0.565828,0.505 -1.172068,0.48857 -0.0051,-0.27321 -0.0051,-0.54687 0.01738,-0.81867 0.06266,-0.43703 0.01789,-0.8799 0.03451,-1.31937 0.02374,-0.38894 -0.107449,-0.7618 -0.171628,-1.14049 -0.0569,-0.27757 -0.07733,-0.57947 -0.2567,-0.81233 -0.527502,-0.65044 -0.662059,-0.80807 -1.312577,-0.66846 -0.272744,0.0611 -0.944714,0.66205 -1.205604,1.6213 -0.127866,0.2659 -0.234807,0.54352 -0.363648,0.80842 -0.514342,0.4491 -0.345224,0.97147 -0.468156,1.27661 -0.164345,0.42294 -0.378208,0.82938 -0.476898,1.27467 -0.02773,0.0651 -0.02196,0.19298 -0.12495,0.18131 -1.197437,0.003 -1.186703,0.0985 -1.307209,0.0297 -0.176462,-0.10259 -0.386484,-0.0943 -0.58338,-0.11861 -0.362666,-0.0326 -0.691287,0.15895 -0.968863,0.37092 -0.442175,0.19705 -1.127357,0.0448 -1.977112,0.20906 -0.305804,0.0608 -0.78845,-0.28141 -1.476413,-0.0676 -0.77496,0.20563 -1.316749,1.14978 -1.617872,1.49485 -0.198355,0.31403 -0.569279,0.48175 -0.726772,0.82547 -0.173952,0.54038 0.09506,0.12055 -0.508983,1.28876 -0.09967,0.20129 -0.277118,0.34758 -0.390342,0.54059 -0.732495,1.25765 -1.12851,3.51747 -0.941653,4.99215 0.03527,1.00767 1.32338,2.68527 1.922167,4.49336 0.146792,0.55469 0.56102,0.98057 0.785126,1.5012 0.147793,0.36168 0.345139,0.70442 0.609632,0.99461 0.785796,0.87196 0.637774,2.44913 1.543967,1.92802 0.706311,0.55243 0.976443,0.20637 1.390848,0.12832 0.3753,-0.089 0.469131,-0.57895 0.844422,-0.66453 0.84772,0.0712 0.661525,0.12835 0.981022,0.26155 0.17357,0.0759 0.372866,0.0544 0.544952,0.1356 0.117166,0.0496 0.231924,0.14097 0.367558,0.10745 0.124441,-0.004 0.257642,-0.0948 0.373833,-0.0166 1.14412,0.66112 1.389907,0.0741 2.470569,0.26399 0.27711,0.05 0.525483,0.20174 0.806502,0.23577 0.766888,0.12674 1.868697,-0.30151 2.139964,-0.31748 0.152643,0.0184 0.300437,0.069 0.455997,0.068 0.142451,-0.33008 0.07148,-0.69418 0.142451,-1.0369 0.841759,-0.14445 0.748284,0.10847 1.590153,0.18037 0.846126,0.0514 2.275301,0.83151 2.774855,0.003 0.256675,-0.40155 0.256675,-0.89792 0.284377,-1.35682 0.580437,-0.0316 1.104488,-0.35637 1.482696,-0.78367 0.309195,0.0841 0.636841,0.1133 0.952328,0.0462 0.255734,-0.13565 0.418595,-0.40398 0.68547,-0.52306 0.351558,-0.12255 0.26858,0.0268 1.333979,-0.4701 0.394327,-0.17962 1.02246,-0.77753 1.241122,-0.61449 4.733279,2.58065 3.559066,1.81137 4.77922,2.3636 2.09315,0.93818 2.193832,1.03416 2.680566,1.10937 0.125925,0.0807 0.206113,0.23044 0.361215,0.27226 2.018431,0.75976 3.979373,1.26667 7.434517,1.49683 2.411062,0.21994 1.805611,0.024 2.791899,-0.26444 0.327646,-0.0972 0.654325,-0.22119 0.996581,-0.25034 0.280993,0.24865 0.756738,1.24899 1.64799,1.6057 0.673379,0.36442 1.273615,0.30984 2.559042,1.23528 1.55226,1.10567 3.678962,1.80163 4.467582,2.19442 0.373841,0.14051 0.676702,0.41324 1.042284,0.5707 0.04265,1.43322 0.937261,3.99123 1.091363,5.08454 0.152007,1.62697 0.286462,1.82917 0.241141,2.23233 -0.08411,0.54084 0.08521,1.97377 0.103548,2.81912 -0.149506,0.71847 0.252741,1.47122 -0.07733,2.55998 -0.07487,0.2567 -0.05978,0.52505 -0.07046,0.78949 -0.210132,0.17608 -1.103064,0.26488 -1.640707,0.61595 -0.285521,0.20129 -1.242402,0.17449 -1.878939,0.54546 -0.201543,0.10958 -0.259642,0.0679 -1.497288,0.16091 -0.611023,0.0494 -0.440488,-0.17978 -1.339296,0.50555 -0.303378,0.0749 -0.624207,0.0118 -0.932894,0.037 -0.394912,0.0993 -0.338508,0.69417 -0.252791,0.90325 0.633348,0.71033 1.414871,0.52493 2.131273,0.5328 0.232348,-0.008 0.404442,-0.20954 0.634874,-0.22313 0.763106,-0.074 0.09175,-0.20382 1.783624,-0.0199 0.126434,0.0516 0.233323,0.14 0.350515,0.21003 0.623223,0.45109 7.849431,0.31377 7.88808,0.31739 0.565878,0.005 1.125906,-0.0996 1.683017,-0.18861 0.207572,-0.0194 0.275143,-0.23966 0.427303,-0.34757 0.127842,-0.10257 0.184737,-0.26058 0.242091,-0.40687 0.446287,-0.0263 0.889641,-0.088 1.336412,-0.10454 0.293644,0.0204 0.591147,0.0622 0.884274,0.004 0.164319,-0.0521 0.176461,-0.27417 0.08411,-0.39425 -0.09333,-0.13321 -0.146335,-0.29947 -0.281485,-0.39718 -1.16185,-0.88474 -1.874182,-0.74768 -2.458402,-0.94557 -0.213405,-0.0788 -0.43607,-0.1191 -0.657285,-0.16332 -0.0076,-0.47347 -0.104515,-0.93875 -0.158451,-1.40736 -0.104363,-0.91665 -0.565565,-0.71689 -0.193013,-1.47156 1.413344,-2.5584 -0.252478,-4.68163 0.400076,-8.20889 0.375571,0.18016 1.854468,0.66526 2.400539,0.75449 0.386611,0.0433 0.611556,0.42573 1.591612,0.93921 0.565904,0.2941 1.128839,0.60767 1.746679,0.78218 0.28538,0.0938 0.60381,0.0895 0.86531,0.25425 1.1234,0.68071 1.33295,0.60203 1.66549,0.71073 1.15853,0.36791 0.87605,0.69528 2.24887,0.92755 0.28731,0.11228 0.40887,0.42295 0.63588,0.61105 0.34129,0.28003 0.73553,0.48714 1.13903,0.66311 0.30581,0.16529 0.67039,0.003 0.98879,0.12784 0.35751,0.14043 1.20643,0.12848 1.46668,0.42975 0.16869,0.18714 0.38311,0.3568 0.64607,0.3719 0.37882,0.0979 0.15507,-0.16322 1.2878,0.21439 0.72779,0.24194 1.43223,-0.18054 1.69223,-0.22606 0.26253,0.0237 0.50899,0.14633 0.77394,0.16189 0.41879,-0.0504 0.81029,-0.45421 0.90129,-0.18373 0.25846,0.4964 0.76399,2.86721 2.771,2.56291 0.12639,-0.0612 0.23818,-0.15458 0.37529,-0.19444 0.28149,-0.0617 0.51823,-0.23575 0.78122,-0.34612 0.12155,-0.0243 0.23333,0.0477 0.34323,0.0914 -0.0161,0.13171 -0.0768,0.2557 -0.0885,0.38888 0.0374,0.11816 0.14921,0.19495 0.20268,0.30772 0.11816,0.22461 0.26399,0.44626 0.48078,0.58723 0.45822,0.28051 0.52544,0.53895 1.54642,1.08069 0.29801,0.12104 0.62323,0.15121 0.93289,0.2348 0.5119,0.14391 1.04957,0.11034 1.57556,0.1157 0.44772,-0.0271 1.21985,0.13743 2.68591,-0.4657 0.36474,-0.15832 1.02535,-0.73247 1.50604,-1.74964 0.4209,-1.06717 -0.0502,-2.29677 -0.12783,-2.76856 -0.21437,-0.57218 -0.12202,-1.19735 -0.24792,-1.78658 -0.0404,-0.25425 -0.14925,-0.49486 -0.15461,-0.75398 -0.038,-1.21447 -0.66252,-3.77594 -0.71998,-3.96103 -0.0783,-0.42588 -0.2513,-0.82401 -0.37044,-1.23818 -0.36867,-1.22559 -3.02589,-0.49774 -3.67518,-0.13758 -4.21382,1.56877 -1.60826,0.59809 -5.12875,0.005 -0.26347,-0.0443 -0.52797,0.0131 -0.76661,0.12445 -0.22363,-0.26253 -0.47106,-0.50704 -0.76034,-0.69617 -0.19007,-0.11765 -0.41614,-0.18229 -0.56782,-0.35489 -0.17497,-0.15458 -0.2513,-0.39181 -0.44334,-0.52888 -0.21534,-0.16674 -0.43656,-0.34026 -0.70054,-0.42102 -1.84857,-0.65688 -1.36421,-0.007 -2.42727,-0.53327 -0.28358,-0.14224 -1.32892,-0.47877 -1.69661,-0.88089 -0.4458,-0.39769 -0.93825,-0.7584 -1.49442,-0.98395 -0.23869,-0.10888 -0.44381,-0.27712 -0.68203,-0.38552 -0.62132,-0.32327 -1.34713,-0.23138 -2.02138,-0.24694 -0.18715,-0.0128 -0.28051,-0.19592 -0.37774,-0.32912 -0.16286,-0.25865 -0.48906,-0.35103 -0.64704,-0.61256 -0.41923,-0.64188 -0.77376,-0.52561 -1.18956,-0.60912 -0.51428,-0.30469 -0.77759,-0.97277 -2.1954,-1.59358 -1.97382,-0.79749 -2.476004,-1.25911 -3.467608,-1.44433 -0.420511,-0.0816 -0.804536,-0.27223 -1.206604,-0.41027 -0.0025,-0.0166 -0.0051,-0.0491 -0.0068,-0.0651 0.939304,-0.37552 0.947147,0.18032 3.778762,-2.40735 0.35973,-0.34127 0.79582,-0.59163 1.14192,-0.94843 0.22606,-0.23189 0.49636,-0.41174 0.75207,-0.60818 0.21254,-0.161 0.84477,-0.9601 1.02432,-1.11614 0.2753,-0.22981 0.83977,-1.43342 1.01843,-1.65436 0.12643,-0.15798 0.22749,-0.33347 0.31356,-0.5158 0.0133,-0.0225 0.9718,-1.37601 1.29068,-1.86726 0.2003,-0.26399 0.30192,-0.58921 0.52018,-0.84153 0.25182,-0.3077 0.36218,-0.69809 0.57998,-1.02574 0.16575,-0.07 0.34611,-0.0977 0.5148,-0.16138 0.51966,-0.16435 0.6034,-0.48662 1.36459,-0.48662 0.63489,0.0189 1.2727,-0.0729 1.90469,0.0302 1.53347,0.26621 3.48905,0.13259 4.02327,0.16823 0.3463,0.0754 6.65884,0.54543 7.24976,0.53768 0.55823,-0.008 2.43234,0.5848 3.93385,0.78606 0.43121,0.0622 0.82546,-0.16529 1.24937,-0.18862 0.29065,-0.0639 1.07071,0.13704 3.99554,1.05348 0.74903,0.24585 1.26238,-0.20599 2.24502,0.28437 0.36119,0.16772 0.76762,0.14051 1.15407,0.17894 0.99582,-0.26667 1.11203,0.14883 2.05198,0.23529 0.25619,0.0237 0.48956,-0.10209 0.72583,-0.17986 1.08589,0.76604 1.70079,-0.1982 2.40299,0.43461 0.86634,0.79249 4.66714,1.08794 4.74906,1.08503 0.19399,-0.0136 0.34809,0.12444 0.48469,0.24408 0.62206,0.59193 1.01523,0.59365 1.98782,0.92416 3.02413,1.21383 3.05093,1.04205 4.32177,1.4657 0.32036,0.10497 0.63585,0.25328 0.98102,0.25178 0.30422,-0.0207 0.40253,0.15568 1.25086,0.62374 1.20264,0.70715 2.27786,1.03101 3.00675,1.12442 2.1138,0.27272 1.61846,0.78913 2.63824,1.11471 0.19584,0.0577 1.03012,0.66002 1.18325,0.80406 1.00333,1.07815 1.03307,0.97131 1.79047,1.27026 0.26981,0.10307 0.55954,0.15607 0.81379,0.30045 0.23869,0.11181 0.42002,0.32815 0.68107,0.39764 0.17645,0.0617 0.38208,-0.0262 0.54692,0.0836 0.21051,0.10255 0.34951,0.29705 0.52891,0.44142 0.19832,0.1113 0.42779,0.16575 0.60912,0.31208 0.0797,0.0404 0.15217,0.15165 0.25471,0.10888 0.1094,-0.0418 0.22753,-0.089 0.30529,-0.18182 0.30482,-0.66893 0.3894,-1.41026 0.58338,-2.11423 0.44141,0.12301 1.00146,0.96614 1.83224,1.35634 0.30626,0.17498 0.66165,0.21437 0.99563,0.31355 0.56437,0.15607 1.10159,0.39039 1.65479,0.57949 0.0899,0.034 0.19641,0.0977 0.19932,0.20857 0.0374,0.19687 -0.20905,0.21876 -0.31599,0.32714 -0.11328,0.0734 -0.0909,0.27514 0.0443,0.31017 0.64909,0.20749 0.79736,-0.23703 1.3753,-0.0471 0.21342,0.0772 0.26737,0.37139 0.50556,0.40496 1.50074,0.22964 1.66912,0.51115 2.95962,0.73357 0.48321,0.12589 0.97226,0.23772 1.44381,0.40544 0.36073,0.11376 0.61693,0.42878 0.98591,0.52599 0.26929,0.10161 0.57216,0.0963 0.82692,0.24163 0.40592,0.21245 0.8974,0.24163 1.2625,0.53525 0.16823,0.12038 0.83173,0.43343 1.48858,0.59988 1.45316,0.4111 2.07044,-0.44499 2.31738,-0.66112 0.61303,-0.55663 0.93,-1.3393 1.39668,-2.00678 0.23094,-0.33641 0.29071,-0.75398 0.50949,-1.09573 0.21097,-0.3267 0.24695,-0.72386 0.37333,-1.08408 0.43673,-1.2702 -0.068,-2.30007 -0.18144,-2.6271 z"
       id="path2"
       style="fill:#ffffff;fill-opacity:1;stroke-width:0.03861104" />
  </g>
</svg>
