<?xml version="1.0" encoding="UTF-8" standalone="no"?>
<!-- Created with Inkscape (http://www.inkscape.org/) -->

<svg
   xmlns:dc="http://purl.org/dc/elements/1.1/"
   xmlns:cc="http://creativecommons.org/ns#"
   xmlns:rdf="http://www.w3.org/1999/02/22-rdf-syntax-ns#"
   xmlns:svg="http://www.w3.org/2000/svg"
   xmlns="http://www.w3.org/2000/svg"
   xmlns:xlink="http://www.w3.org/1999/xlink"
   xmlns:sodipodi="http://sodipodi.sourceforge.net/DTD/sodipodi-0.dtd"
   xmlns:inkscape="http://www.inkscape.org/namespaces/inkscape"
   width="128"
   height="128"
   id="svg3048"
   version="1.1"
   inkscape:version="0.92.4 (5da689c313, 2019-01-14)"
   sodipodi:docname="icon.svg"
   inkscape:export-filename="D:\Marwin\Downloads\Performous\themes\performous+\icon128x128.png"
   inkscape:export-xdpi="96"
   inkscape:export-ydpi="96">
  <defs
     id="defs3050">
    <linearGradient
       id="linearGradient3629-3">
      <stop
         style="stop-color:#00cbff;stop-opacity:0.96141481"
         offset="0"
         id="stop3631-1" />
      <stop
         style="stop-color:#0000ce;stop-opacity:1;"
         offset="1"
         id="stop3633-4" />
    </linearGradient>
    <radialGradient
       inkscape:collect="always"
       xlink:href="#linearGradient3629-3-2"
       id="radialGradient3049-9"
       gradientUnits="userSpaceOnUse"
       gradientTransform="matrix(0.07511259,-0.14640373,0.31280336,0.16048423,-266.7139,1057.1493)"
       cx="727.25122"
       cy="757.60583"
       fx="727.25122"
       fy="757.60583"
       r="500" />
    <linearGradient
       id="linearGradient3629-3-2">
      <stop
         style="stop-color:#00cbff;stop-opacity:0;"
         offset="0"
         id="stop3631-1-6" />
      <stop
         style="stop-color:#0000ce;stop-opacity:1;"
         offset="1"
         id="stop3633-4-6" />
    </linearGradient>
  </defs>
  <sodipodi:namedview
     id="base"
     pagecolor="#ffffff"
     bordercolor="#666666"
     borderopacity="1.0"
     inkscape:pageopacity="0.0"
     inkscape:pageshadow="2"
     inkscape:zoom="0.70000001"
     inkscape:cx="-515.28397"
     inkscape:cy="68.96604"
     inkscape:document-units="px"
     inkscape:current-layer="layer1"
     showgrid="false"
     inkscape:window-width="1920"
     inkscape:window-height="1017"
     inkscape:window-x="-8"
     inkscape:window-y="-8"
     inkscape:window-maximized="1"
     inkscape:pagecheckerboard="true" />
  <metadata
     id="metadata3053">
    <rdf:RDF>
      <cc:Work
         rdf:about="">
        <dc:format>image/svg+xml</dc:format>
        <dc:type
           rdf:resource="http://purl.org/dc/dcmitype/StillImage" />
        <dc:title></dc:title>
      </cc:Work>
    </rdf:RDF>
  </metadata>
  <g
     inkscape:label="Capa 1"
     inkscape:groupmode="layer"
     id="layer1"
     transform="translate(0,-924.36218)">
    <path
       inkscape:connector-curvature="0"
       style="fill:#201e20;fill-opacity:0.96141481;stroke:none;stroke-width:1.99999964"
       d="M 28.603349,924.3622 C 12.757091,924.3622 0,937.1194 0,952.96563 v 70.79317 c 0,15.8462 12.757091,28.6034 28.603349,28.6034 H 99.396641 C 115.24288,1052.3622 128,1039.605 128,1023.7588 V 952.96563 C 128,937.1194 115.24288,924.3622 99.396641,924.3622 Z"
       id="rect2855-8" />
    <g
       id="g949"
       transform="matrix(0.37852529,0,0,0.37852529,18.65023,938.90898)"
       style="fill:#ffffff">
      <g
         id="g947"
         style="fill:#ffffff">
        <g
           id="g915"
           style="fill:#ffffff">
          <g
             id="g913"
             style="fill:#ffffff">
            <path
               id="path911"
               d="m 133.7,70.2 c -24.4,-5.3 -33.5,13.3 -43.5,32.3 -10,18.9 -12.6,25.2 -33.6,32.8 -9.9,3.5 -17.9,7.5 -23.7,10.7 -4.8,2 -9.1,4.9 -12.7,8.7 -23,24.8 -3,43.3 21.6,66.1 24.6,22.8 44.6,41.4 67.6,16.6 1.8,-1.9 3.3,-4 4.5,-6.1 v 0 c 8.2,-11.2 8.4,-49.3 38.1,-56.2 31,-7.2 23.6,-30.2 23.6,-30.2 -8.1,8.8 -34.6,22.7 -38.9,5.1 -3,-12.3 4.1,-23.2 8.7,-28.7 0.6,-0.8 1.2,-1.4 1.8,-2 1,-1 1.6,-1.6 1.6,-1.6 l -0.1,-0.1 45,-50.9 c 6.5,-7.2 14.1,-3.6 14.1,-3.6 3.6,-18.1 36.9,-45.6 36.9,-45.6 0,0 2.7,0.4 0.4,-7 -2.3,-7.4 -7.8,2.8 -11.9,3.1 C 229.1,13.8 228.6,7 228.6,7 L 184,42.8 c 2.4,4.9 2.4,8.4 1.8,10.6 l -59.6,60.3 c -9.8,3.1 -14.7,-2 -13.3,-14.7 1.9,-16.6 20.8,-28.8 20.8,-28.8 z"
               inkscape:connector-curvature="0"
               style="fill:#ffffff" />
          </g>
        </g>
        <g
           id="g917"
           style="fill:#ffffff" />
        <g
           id="g919"
           style="fill:#ffffff" />
        <g
           id="g921"
           style="fill:#ffffff" />
        <g
           id="g923"
           style="fill:#ffffff" />
        <g
           id="g925"
           style="fill:#ffffff" />
        <g
           id="g927"
           style="fill:#ffffff" />
        <g
           id="g929"
           style="fill:#ffffff" />
        <g
           id="g931"
           style="fill:#ffffff" />
        <g
           id="g933"
           style="fill:#ffffff" />
        <g
           id="g935"
           style="fill:#ffffff" />
        <g
           id="g937"
           style="fill:#ffffff" />
        <g
           id="g939"
           style="fill:#ffffff" />
        <g
           id="g941"
           style="fill:#ffffff" />
        <g
           id="g943"
           style="fill:#ffffff" />
        <g
           id="g945"
           style="fill:#ffffff" />
      </g>
    </g>
  </g>
</svg>
