<?xml version="1.0" encoding="UTF-8" standalone="no"?>
<svg
   xmlns:dc="http://purl.org/dc/elements/1.1/"
   xmlns:cc="http://creativecommons.org/ns#"
   xmlns:rdf="http://www.w3.org/1999/02/22-rdf-syntax-ns#"
   xmlns:svg="http://www.w3.org/2000/svg"
   xmlns="http://www.w3.org/2000/svg"
   version="1.1"
   id="svg1901"
   height="85"
   width="360">
  <defs
     id="defs1903">
    <filter
       height="1.0815983"
       y="-0.040799172"
       width="1.0128345"
       x="-0.0064172701"
       id="filter821"
       style="color-interpolation-filters:sRGB">
      <feGaussianBlur
         id="feGaussianBlur823"
         stdDeviation="1.1539507" />
    </filter>
  </defs>
  <metadata
     id="metadata1906">
    <rdf:RDF>
      <cc:Work
         rdf:about="">
        <dc:format>image/svg+xml</dc:format>
        <dc:type
           rdf:resource="http://purl.org/dc/dcmitype/StillImage" />
        <dc:title></dc:title>
      </cc:Work>
    </rdf:RDF>
  </metadata>
  <g
     transform="translate(-28.571429,-364.1479)"
     id="layer1">
    <g
       id="g3873"
       transform="matrix(0.98065768,0,0,0.97754687,-1.9638217,255.66295)">
      <path
         transform="matrix(0.77434201,0,0,0.97300278,21.925092,-66.531489)"
         style="font-style:italic;font-variant:normal;font-weight:bold;font-stretch:normal;font-size:69.6492691px;font-family:Goblin;-inkscape-font-specification:'Goblin Bold Italic';fill:#000000;fill-opacity:0;stroke:none;filter:url(#filter821)"
         d="m 74.487864,100.57517 c -5.2e-5,2.78873 -0.646212,5.29401 -1.938481,7.51586 -1.269697,2.19925 -3.10615,4.04703 -5.509366,5.54338 -2.380632,1.45105 -5.044624,2.52798 -7.991981,3.2308 -2.924759,0.70286 -6.155557,1.05428 -9.692404,1.05426 h -4.897214 l -3.02675,13.09325 c -0.09071,0.38543 -0.170061,0.74819 -0.238059,1.08827 -0.04536,0.34009 -0.06804,0.60082 -0.06802,0.78219 -1.9e-5,1.02026 0.419418,1.76844 1.258312,2.24456 0.838854,0.47612 2.482593,0.83888 4.931223,1.08827 l -0.578144,2.48261 H 20.516479 l 0.578143,-2.48261 c 0.566808,-0.0227 1.405682,-0.10202 2.516624,-0.23806 1.133612,-0.1587 1.972486,-0.32875 2.516624,-0.51013 0.884215,-0.29473 1.553047,-0.73684 2.006498,-1.32633 0.476112,-0.58947 0.804859,-1.28097 0.986244,-2.07451 l 7.787931,-33.736365 c 0.113347,-0.476078 0.1927,-0.872842 0.238059,-1.190295 0.04533,-0.317371 0.068,-0.555429 0.06802,-0.714178 -1.5e-5,-0.952192 -0.487468,-1.689041 -1.462362,-2.210548 -0.952249,-0.54409 -2.516635,-0.974863 -4.693164,-1.29232 l 0.578143,-2.482616 h 26.152485 c 5.622686,4.9e-5 9.805719,0.827586 12.549111,2.482616 2.765969,1.655121 4.148977,4.205751 4.149029,7.651896 m -14.215525,5.67941 c 0.498752,-1.70039 0.748147,-3.55951 0.748186,-5.57738 -3.9e-5,-2.44857 -0.657535,-4.273688 -1.972489,-5.475361 -1.315028,-1.224259 -3.457558,-1.83641 -6.427594,-1.836455 h -2.482616 l -4.965231,21.527336 h 2.210548 c 2.44858,2e-5 4.545765,-0.36273 6.29156,-1.08827 1.768406,-0.74816 3.196758,-1.77975 4.285063,-3.09477 1.042888,-1.26961 1.813745,-2.75465 2.312573,-4.4551 m 29.92742,33.56632 c -2.72069,0 -5.112614,-0.37409 -7.175779,-1.12228 -2.040515,-0.72551 -3.729599,-1.74576 -5.067257,-3.06076 -1.314997,-1.31498 -2.301241,-2.84536 -2.958733,-4.59113 -0.657499,-1.74576 -0.986247,-3.6729 -0.986245,-5.78144 -2e-6,-2.67531 0.498788,-5.27129 1.496371,-7.78793 0.997576,-2.5166 2.482609,-4.78382 4.455105,-6.80168 1.859117,-1.92712 4.217033,-3.49151 7.073754,-4.69317 2.85669,-1.2016 6.008135,-1.80241 9.454344,-1.80245 4.058311,4e-5 7.141741,0.6462 9.250291,1.93849 2.13116,1.29235 3.19676,3.23083 3.1968,5.81544 -4e-5,2.4713 -0.91827,4.60249 -2.75469,6.39358 -1.83649,1.76846 -4.33044,3.08345 -7.481853,3.94498 -2.493976,0.7482 -4.625169,1.281 -6.393585,1.5984 -1.745785,0.31742 -3.888314,0.61216 -6.427594,0.88422 0.04533,0.99759 0.181364,2.11987 0.408101,3.36683 0.226708,1.24699 0.566792,2.31258 1.020253,3.19679 0.544119,1.02026 1.314976,1.83646 2.312574,2.44861 0.997561,0.58948 2.267208,0.88422 3.808944,0.88422 2.675306,0 4.942532,-0.51012 6.80169,-1.53038 1.88177,-1.04292 3.67287,-2.68666 5.37333,-4.93122 l 2.48261,2.07451 c -2.04054,2.90206 -4.65918,5.22597 -7.85594,6.97173 -3.174149,1.72309 -6.518308,2.58464 -10.032491,2.58464 m 7.685906,-26.93468 c -2.7e-5,-1.92711 -0.351447,-3.40081 -1.054262,-4.42109 -0.702865,-1.0429 -1.677773,-1.56436 -2.924725,-1.56439 -1.745787,3e-5 -3.400862,1.42838 -4.965231,4.28506 -1.541731,2.83406 -2.527975,6.42762 -2.958734,10.78068 1.33765,-0.15869 2.663977,-0.36274 3.978987,-0.61216 1.314973,-0.24937 2.357897,-0.54411 3.128776,-0.88422 1.700398,-0.74816 2.924701,-1.71173 3.67291,-2.89071 0.74816,-1.17894 1.122252,-2.74333 1.122279,-4.69317 m 50.128435,-1.6324 c -4e-5,1.02028 -0.14741,2.00652 -0.44211,2.95873 -0.29478,0.95226 -0.73689,1.76846 -1.32633,2.44861 -0.65753,0.77088 -1.34904,1.34902 -2.07452,1.73443 -0.72554,0.36278 -1.74579,0.54415 -3.06076,0.54413 -1.70045,2e-5 -3.03811,-0.41941 -4.01299,-1.25831 -0.97493,-0.83885 -1.46239,-1.77975 -1.46236,-2.8227 -3e-5,-0.97488 0.13601,-1.81375 0.4081,-2.51662 0.29471,-0.70282 0.74816,-1.76841 1.36034,-3.19679 -1.51907,0.63485 -2.82273,1.41704 -3.91097,2.34658 -1.0883,0.90692 -2.13122,1.94984 -3.12878,3.12877 l -5.37333,24.07797 H 113.7336 l 4.69316,-20.91518 c 0.13603,-0.6348 0.30607,-1.46234 0.51013,-2.48262 0.22671,-1.02023 0.34007,-1.87044 0.34008,-2.55063 -1e-5,-1.31497 -0.26074,-2.21052 -0.78219,-2.68667 -0.4988,-0.47609 -1.47371,-0.71414 -2.92473,-0.71417 -0.72552,3e-5 -1.4737,0.11339 -2.24455,0.34008 -0.74819,0.22675 -1.39435,0.44214 -1.93849,0.64616 l 0.74819,-3.06076 c 1.83645,-0.74815 3.59355,-1.38297 5.27131,-1.90447 1.67774,-0.5441 3.2648,-0.81617 4.76118,-0.8162 2.67531,3e-5 4.67047,0.53283 5.98548,1.59839 1.33765,1.04296 2.22187,2.51666 2.65266,4.4211 h 0.23806 c 2.24453,-2.38056 4.149,-4.03563 5.71342,-4.96523 1.56436,-0.9522 3.2421,-1.42832 5.03324,-1.42836 1.92711,4e-5 3.44616,0.61219 4.55713,1.83646 1.11091,1.20166 1.66638,2.94743 1.66642,5.2373 m 20.60911,-2.07452 c -1.13364,5.60008 -2.11988,10.46328 -2.95874,14.58962 -0.81622,4.1037 -1.80246,8.40009 -2.95873,12.8892 -0.56682,2.19921 -1.50772,4.35307 -2.8227,6.4616 -1.29233,2.13119 -2.82271,3.96764 -4.59114,5.50937 -1.85913,1.63239 -3.87697,2.90204 -6.0535,3.80894 -2.15387,0.90688 -4.37575,1.36032 -6.66565,1.36034 -2.06318,-2e-5 -3.72959,-0.20407 -4.99924,-0.61215 -1.29231,-0.40812 -2.30123,-0.92958 -3.02675,-1.56439 -0.70283,-0.63484 -1.17895,-1.33768 -1.42836,-2.10852 -0.24938,-0.77087 -0.37408,-1.53039 -0.37409,-2.27857 10e-6,-1.315 0.47613,-2.48262 1.42835,-3.50287 0.92958,-0.99758 2.18789,-1.49637 3.77494,-1.49637 1.22431,0 2.28991,0.31741 3.19679,0.95224 0.88423,0.65749 1.64375,1.43968 2.27857,2.34658 0.63482,0.88421 1.20163,1.87045 1.70042,2.95873 0.47612,1.08826 0.85021,1.93847 1.12228,2.55063 0.95223,-1.04293 1.84779,-2.61865 2.68666,-4.72717 0.83888,-2.08585 1.62107,-4.87454 2.34658,-8.36607 l 6.08751,-28.77114 h -6.59763 l 0.8162,-3.50286 h 6.52962 l 0.57814,-2.61865 c 0.47611,-2.13116 1.33766,-4.217009 2.58464,-6.257555 1.26964,-2.063134 2.80001,-3.899588 4.59114,-5.509366 1.72308,-1.587011 3.7069,-2.87933 5.95148,-3.876961 2.2672,-0.997528 4.53443,-1.496318 6.80168,-1.496371 1.97246,5.3e-5 3.60486,0.192767 4.89722,0.578143 1.31495,0.362809 2.34654,0.872935 3.09477,1.53038 0.68012,0.612202 1.13357,1.303706 1.36033,2.074514 0.24936,0.748233 0.37406,1.496418 0.3741,2.244557 -4e-5,0.498836 -0.10207,1.054306 -0.30608,1.666413 -0.18142,0.612196 -0.47616,1.167666 -0.88422,1.666413 -0.49883,0.56685 -1.03163,1.008959 -1.5984,1.326329 -0.54417,0.317453 -1.34903,0.476159 -2.41459,0.476118 -1.22434,4.1e-5 -2.2786,-0.317371 -3.16279,-0.952236 -0.88425,-0.657454 -1.63243,-1.428311 -2.24456,-2.312574 -0.65752,-0.929518 -1.21299,-1.927098 -1.66641,-2.992742 -0.45347,-1.065549 -0.82756,-1.915759 -1.12228,-2.550632 -0.92959,1.065646 -1.76846,2.618697 -2.51662,4.659155 -0.74821,2.040549 -1.51907,4.85191 -2.31257,8.434095 l -0.85021,3.91097 h 8.60413 l -0.8162,3.50286 h -8.43409 m 47.44176,9.14827 c -4e-5,2.85673 -0.54417,5.58874 -1.6324,8.19603 -1.08831,2.60733 -2.63003,4.87455 -4.62515,6.80169 -2.1539,2.06318 -4.68186,3.66158 -7.58388,4.79519 -2.87941,1.11094 -6.12154,1.66641 -9.72641,1.66641 -4.82921,0 -8.72884,-1.28098 -11.6989,-3.84295 -2.97008,-2.58463 -4.45511,-6.09884 -4.45511,-10.54261 0,-3.0154 0.55547,-5.81543 1.66642,-8.40009 1.13361,-2.58461 2.70933,-4.8405 4.72717,-6.76767 1.99515,-1.88177 4.44375,-3.36681 7.34582,-4.45511 2.90203,-1.11091 6.04214,-1.66638 9.42034,-1.66641 5.1239,3e-5 9.15957,1.25834 12.107,3.77493 2.97003,2.49398 4.45506,5.97418 4.4551,10.44059 M 204.094,114.48462 c -3e-5,-2.65263 -0.45347,-4.60245 -1.36033,-5.84945 -0.88425,-1.24694 -2.17657,-1.87043 -3.87696,-1.87046 -1.74579,3e-5 -3.34419,0.70287 -4.79519,2.10852 -1.45105,1.38304 -2.63001,3.42354 -3.53688,6.12152 -0.79355,2.24457 -1.36035,4.68184 -1.70042,7.31181 -0.3401,2.60733 -0.51014,4.94257 -0.51013,7.00574 -1e-5,2.74335 0.45343,4.73851 1.36034,5.98548 0.90687,1.22431 2.22186,1.83646 3.94498,1.83646 1.8591,0 3.46883,-0.75952 4.82919,-2.27857 1.36032,-1.51904 2.43725,-3.3895 3.2308,-5.61139 0.79351,-2.17653 1.39432,-4.57979 1.80245,-7.20979 0.40807,-2.65264 0.61212,-5.16926 0.61215,-7.54987 m 51.93087,-3.2308 c -4e-5,1.02028 -0.14741,2.00652 -0.44211,2.95873 -0.29478,0.95226 -0.73689,1.76846 -1.32633,2.44861 -0.65753,0.77088 -1.34904,1.34902 -2.07451,1.73443 -0.72555,0.36278 -1.7458,0.54415 -3.06076,0.54413 -1.70045,2e-5 -3.03812,-0.41941 -4.013,-1.25831 -0.97493,-0.83885 -1.46239,-1.77975 -1.46236,-2.8227 -3e-5,-0.97488 0.13601,-1.81375 0.4081,-2.51662 0.29471,-0.70282 0.74816,-1.76841 1.36034,-3.19679 -1.51907,0.63485 -2.82273,1.41704 -3.91097,2.34658 -1.08829,0.90692 -2.13122,1.94984 -3.12878,3.12877 l -5.37333,24.07797 h -11.25679 l 4.69316,-20.91518 c 0.13603,-0.6348 0.30607,-1.46234 0.51013,-2.48262 0.22671,-1.02023 0.34007,-1.87044 0.34008,-2.55063 -1e-5,-1.31497 -0.26074,-2.21052 -0.78219,-2.68667 -0.4988,-0.47609 -1.47371,-0.71414 -2.92473,-0.71417 -0.72551,3e-5 -1.4737,0.11339 -2.24455,0.34008 -0.74819,0.22675 -1.39435,0.44214 -1.93848,0.64616 l 0.74818,-3.06076 c 1.83645,-0.74815 3.59356,-1.38297 5.27131,-1.90447 1.67774,-0.5441 3.2648,-0.81617 4.76118,-0.8162 2.67532,3e-5 4.67048,0.53283 5.98548,1.59839 1.33765,1.04296 2.22187,2.51666 2.65266,4.4211 h 0.23806 c 2.24453,-2.38056 4.14901,-4.03563 5.71342,-4.96523 1.56436,-0.9522 3.24211,-1.42832 5.03325,-1.42836 1.92711,4e-5 3.44615,0.61219 4.55713,1.83646 1.1109,1.20166 1.66637,2.94743 1.66641,5.2373 m 68.32294,22.24151 -0.74819,3.06076 c -2.24462,0.88422 -4.03573,1.56439 -5.37333,2.04051 -1.33773,0.45344 -2.89078,0.68017 -4.65915,0.68017 -2.69806,0 -4.79525,-0.66884 -6.29156,-2.0065 -1.49643,-1.36033 -2.24461,-3.03808 -2.24456,-5.03325 -5e-5,-0.54413 0.0226,-1.23563 0.068,-2.07451 0.068,-0.86154 0.26068,-1.92714 0.57814,-3.1968 l 2.44861,-9.04624 c 0.24934,-0.97489 0.43072,-1.84777 0.54413,-2.61865 0.13598,-0.7935 0.204,-1.43966 0.20405,-1.93848 -5e-5,-1.08824 -0.27212,-1.93845 -0.8162,-2.55063 -0.54419,-0.61212 -1.42841,-0.9182 -2.65266,-0.91823 -0.86159,3e-5 -1.9612,0.38546 -3.29882,1.15629 -1.31503,0.77088 -2.6527,1.80247 -4.01299,3.09477 l -5.61139,24.55408 H 281.2251 l 4.76118,-20.74514 c 0.24936,-1.13359 0.43074,-2.05182 0.54413,-2.75468 0.136,-0.70282 0.20402,-1.31497 0.20405,-1.83646 -3e-5,-1.08824 -0.2721,-1.93845 -0.8162,-2.55063 -0.54416,-0.61212 -1.43972,-0.9182 -2.68667,-0.91823 -0.70286,3e-5 -1.67777,0.28343 -2.92472,0.85021 -1.247,0.56684 -2.81139,1.70045 -4.69317,3.40085 l -5.61139,24.55408 h -11.25679 l 4.8292,-20.91518 c 0.13603,-0.6348 0.30607,-1.47368 0.51013,-2.51663 0.22671,-1.0429 0.34007,-1.88177 0.34008,-2.51662 -1e-5,-1.29229 -0.2494,-2.17651 -0.74818,-2.65266 -0.4988,-0.49876 -1.48505,-0.74815 -2.95874,-0.74818 -0.72552,3e-5 -1.4737,0.11339 -2.24455,0.34008 -0.74819,0.22675 -1.39435,0.44214 -1.93849,0.64616 l 0.74819,-3.06076 c 1.83645,-0.74815 3.59355,-1.38297 5.27131,-1.90447 1.67774,-0.5441 3.2648,-0.81617 4.76118,-0.8162 2.766,3e-5 4.76116,0.56684 5.98548,1.70042 1.22429,1.11097 2.08583,2.55066 2.58464,4.31907 h 0.23806 c 2.26721,-2.08582 4.45508,-3.67288 6.56363,-4.76118 2.10849,-1.08824 4.53442,-1.63237 7.2778,-1.63241 2.33521,4e-5 4.25102,0.62353 5.74743,1.87047 1.49633,1.24701 2.32387,2.78872 2.48261,4.62515 h 0.23806 c 2.42589,-2.08582 4.68178,-3.68422 6.76768,-4.79519 2.0858,-1.13358 4.46639,-1.70039 7.14177,-1.70043 2.51657,4e-5 4.48905,0.69154 5.91747,2.07452 1.42829,1.38304 2.14247,3.06079 2.14253,5.03325 -6e-5,0.52149 -0.0454,1.25834 -0.13603,2.21055 -0.0681,0.92958 -0.24946,1.92716 -0.54414,2.99274 l -2.58464,9.55637 c -0.22678,0.79354 -0.43083,1.70043 -0.61215,2.72067 -0.18144,1.02026 -0.27213,1.79112 -0.27207,2.31257 -6e-5,1.315 0.28334,2.21056 0.85021,2.68667 0.58942,0.47612 1.60967,0.71418 3.06076,0.71418 0.6801,0 1.45096,-0.11336 2.31257,-0.34009 0.86148,-0.24939 1.48497,-0.46477 1.87047,-0.64616 m 42.98666,-15.16776 c -4e-5,2.85673 -0.54417,5.58874 -1.6324,8.19603 -1.08831,2.60733 -2.63003,4.87455 -4.62515,6.80169 -2.1539,2.06318 -4.68186,3.66158 -7.58388,4.79519 -2.87941,1.11094 -6.12154,1.66641 -9.72641,1.66641 -4.82921,0 -8.72884,-1.28098 -11.6989,-3.84295 -2.97008,-2.58463 -4.45511,-6.09884 -4.45511,-10.54261 0,-3.0154 0.55547,-5.81543 1.66642,-8.40009 1.13361,-2.58461 2.70933,-4.8405 4.72717,-6.76767 1.99515,-1.88177 4.44375,-3.36681 7.34582,-4.45511 2.90203,-1.11091 6.04214,-1.66638 9.42034,-1.66641 5.1239,3e-5 9.15957,1.25834 12.107,3.77493 2.97003,2.49398 4.45506,5.97418 4.4551,10.44059 m -11.97097,-3.84295 c -3e-5,-2.65263 -0.45347,-4.60245 -1.36033,-5.84945 -0.88425,-1.24694 -2.17657,-1.87043 -3.87696,-1.87046 -1.74579,3e-5 -3.34419,0.70287 -4.79519,2.10852 -1.45105,1.38304 -2.63001,3.42354 -3.53688,6.12152 -0.79355,2.24457 -1.36035,4.68184 -1.70042,7.31181 -0.3401,2.60733 -0.51014,4.94257 -0.51013,7.00574 -1e-5,2.74335 0.45343,4.73851 1.36034,5.98548 0.90687,1.22431 2.22187,1.83646 3.94498,1.83646 1.8591,0 3.46883,-0.75952 4.82919,-2.27857 1.36032,-1.51904 2.43725,-3.3895 3.23081,-5.61139 0.7935,-2.17653 1.39431,-4.57979 1.80244,-7.20979 0.40807,-2.65264 0.61212,-5.16926 0.61215,-7.54987 m 41.62631,18.80666 h -0.23805 c -2.38062,2.17655 -4.64785,3.78628 -6.80169,4.8292 -2.15389,1.04293 -4.64784,1.56439 -7.48186,1.56439 -2.51663,0 -4.46644,-0.69151 -5.84945,-2.07452 -1.36034,-1.383 -2.04051,-3.06075 -2.0405,-5.03324 -10e-6,-0.70284 0.034,-1.41701 0.10202,-2.14254 0.0907,-0.7255 0.30607,-1.74575 0.64616,-3.06075 l 2.55064,-9.55637 c 0.15869,-0.63481 0.34007,-1.49635 0.54413,-2.58464 0.22671,-1.11092 0.34008,-1.92712 0.34009,-2.44861 -10e-6,-1.24695 -0.26075,-2.11983 -0.7822,-2.61865 -0.4988,-0.52143 -1.48504,-0.78217 -2.95873,-0.78219 -0.72552,2e-5 -1.47371,0.11339 -2.24456,0.34008 -0.74819,0.22675 -1.39435,0.44214 -1.93848,0.64616 l 0.74819,-3.06076 c 1.83645,-0.74815 3.59355,-1.38298 5.2713,-1.90447 1.67774,-0.5441 3.2648,-0.81617 4.76118,-0.8162 2.69799,3e-5 4.7725,0.6802 6.22355,2.0405 1.47368,1.3377 2.21052,3.00411 2.21054,4.99924 -2e-5,0.40813 -0.0454,1.15631 -0.13603,2.24456 -0.0907,1.08829 -0.27209,2.09721 -0.54413,3.02675 l -2.48262,9.04624 c -0.22674,0.79354 -0.40812,1.65509 -0.54413,2.58464 -0.13605,0.9069 -0.20407,1.5644 -0.20406,1.97249 -10e-6,1.06561 0.24938,1.91582 0.74819,2.55063 0.49877,0.61216 1.36032,0.91824 2.58464,0.91823 0.8842,1e-5 2.05182,-0.36275 3.50287,-1.08827 1.47367,-0.74818 2.9247,-1.80244 4.35308,-3.16278 l 5.61139,-24.55409 10.84869,-0.47612 0.4081,0.47612 -4.8292,20.91519 c -0.15874,0.6575 -0.35146,1.53039 -0.57814,2.61864 -0.20409,1.08828 -0.30611,1.89315 -0.30608,2.4146 -3e-5,1.315 0.28337,2.21056 0.85022,2.68667 0.58943,0.47612 1.60969,0.71418 3.06075,0.71418 0.68013,0 1.45099,-0.11336 2.31258,-0.34009 0.8615,-0.24939 1.48499,-0.46477 1.87046,-0.64616 l -0.74818,3.06076 c -2.2446,0.88422 -4.03571,1.56439 -5.37334,2.04051 -1.3377,0.45344 -2.89075,0.68016 -4.65915,0.68017 -2.49399,-1e-5 -4.48915,-0.55548 -5.98549,-1.66642 -1.4964,-1.13361 -2.43729,-2.58463 -2.8227,-4.35308 m 35.23273,6.52962 c -2.85672,0 -5.22597,-0.23806 -7.10776,-0.71418 -1.85913,-0.45344 -3.33283,-1.04292 -4.42109,-1.76843 -1.11095,-0.72551 -1.87047,-1.49637 -2.27857,-2.31258 -0.4081,-0.83887 -0.61215,-1.62106 -0.61215,-2.34658 0,-1.31498 0.48745,-2.45993 1.46236,-3.43485 0.99758,-0.99757 2.31257,-1.49636 3.94498,-1.49637 1.36033,10e-6 2.49394,0.35143 3.40084,1.05426 0.92956,0.70285 1.70041,1.58707 2.31258,2.65266 0.56679,0.97491 1.04291,2.05184 1.42835,3.2308 0.38542,1.17896 0.65748,2.05184 0.8162,2.61865 2.56196,0 4.50043,-0.54414 5.81545,-1.63241 1.31497,-1.11093 1.97246,-2.61864 1.97248,-4.52312 -2e-5,-0.83886 -0.20407,-1.5417 -0.61215,-2.10852 -0.38545,-0.5668 -0.90691,-1.06559 -1.56439,-1.49637 -0.65751,-0.40809 -1.49638,-0.80486 -2.51662,-1.1903 -1.02027,-0.38541 -2.02918,-0.74817 -3.02675,-1.08827 -2.74336,-0.92955 -4.9199,-2.21053 -6.52962,-3.84295 -1.58706,-1.65506 -2.38059,-3.7069 -2.38059,-6.15553 0,-1.451 0.32874,-2.81133 0.98625,-4.08101 0.68016,-1.29229 1.73442,-2.48258 3.16278,-3.57088 1.40567,-1.0429 3.18544,-1.87043 5.33932,-2.48262 2.15385,-0.63479 4.67048,-0.9522 7.54988,-0.95224 1.72307,4e-5 3.32146,0.10206 4.79518,0.30608 1.47368,0.20409 2.84535,0.57818 4.11502,1.12228 1.2016,0.54417 2.13117,1.25834 2.7887,2.14253 0.68013,0.86158 1.02021,1.91584 1.02025,3.16278 -4e-5,1.24701 -0.47615,2.32394 -1.42835,3.23081 -0.9296,0.88424 -2.1539,1.32635 -3.67292,1.32632 -1.31502,3e-5 -2.41462,-0.34006 -3.29881,-1.02025 -0.86158,-0.68014 -1.56442,-1.48501 -2.10853,-2.4146 -0.54415,-0.95221 -0.97493,-1.92711 -1.29232,-2.92472 -0.31743,-1.02022 -0.57816,-1.87043 -0.78219,-2.55063 -1.58708,0.0907 -3.03811,0.66886 -4.35308,1.73443 -1.29234,1.04295 -1.9385,2.34661 -1.93848,3.91096 -2e-5,0.95227 0.14735,1.70045 0.44211,2.24456 0.31739,0.54416 0.73683,0.99761 1.25831,1.36034 0.58946,0.40812 1.32631,0.79355 2.21055,1.15629 0.90687,0.3401 2.02915,0.73687 3.36683,1.19029 3.08341,1.08829 5.40732,2.39195 6.97173,3.91097 1.56436,1.51906 2.34655,3.52555 2.34658,6.01949 -3e-5,1.63242 -0.38546,3.1968 -1.15628,4.69317 -0.74822,1.49637 -1.82515,2.74335 -3.2308,3.74092 -1.56442,1.08827 -3.36686,1.90448 -5.40734,2.44861 -2.04053,0.56681 -4.63651,0.85021 -7.78794,0.85021"
         id="text3236" />
      <g
         id="flowRoot828"
         style="font-style:normal;font-variant:normal;font-weight:normal;font-stretch:normal;font-size:40px;line-height:1.25;font-family:arciform;-inkscape-font-specification:arciform;letter-spacing:0px;word-spacing:0px;fill:#ffffff;fill-opacity:1;stroke:none"
         transform="matrix(1.8425831,0,0,1.8484468,537.47682,248.73517)"
         aria-label="performous">
        <path
           id="path836"
           style=""
           d="m -261.70023,-40.453281 c 5.56,0 10.04,-4.48 10.04,-10.04 0,-5.52 -4.48,-10.04 -10.04,-10.04 -5.52,0 -10.04,4.52 -10.04,10.04 0,0 0,0.04 0,0.04 v 17.92 c 0,1.08 0.88,1.96 2,1.96 1.08,0 1.96,-0.88 1.96,-1.96 v -9.96 c 1.68,1.28 3.8,2.04 6.08,2.04 z m 0,-16.12 c 3.36,0 6.08,2.76 6.08,6.08 0,3.36 -2.72,6.08 -6.08,6.08 -3.36,0 -6.08,-2.72 -6.08,-6.04 v -0.04 c 0,0 0,0 0,0 0,-3.36 2.72,-6.08 6.08,-6.08 z" />
        <path
           id="path838"
           style=""
           d="m -239.25711,-60.693281 c -5.56,0 -10.04,4.48 -10.04,10.04 0,5.52 4.48,10.04 10.04,10.04 1.48,0 3.52,0.04 6.16,-1.72 0.92,-0.6 1.44,-1.64 0.96,-2.64 -0.48,-0.96 -1.72,-1.52 -2.64,-0.92 -1.92,1.24 -3.56,1.32 -4.48,1.32 -2.68,0 -4.92,-1.72 -5.76,-4.12 h 13.8 c 1.12,0 2,-0.88 2,-1.96 0,-6.52 -5.2,-10.04 -10.04,-10.04 z m 0,3.96 c 2.4,0 4.96,1.28 5.8,4.08 h -11.56 c 0.84,-2.36 3.08,-4.08 5.76,-4.08 z" />
        <path
           id="path840"
           style=""
           d="m -216.73836,-60.653281 c -5.52,0 -10.04,4.48 -10.04,10.04 v 8.04 c 0,1.08 0.88,2 2,2 1.08,0 1.96,-0.92 1.96,-2 v -8.04 c 0,-3.36 2.72,-6.08 6.08,-6.08 1.12,0 2,-0.92 2,-2 0,-1.08 -0.88,-1.96 -2,-1.96 z" />
        <path
           id="path842"
           style=""
           d="m -200.71773,-60.693281 h -3.52 c 0,-1.8 0.56,-3.36 1.76,-4.56 0.68,-0.68 1.44,-1.16 2.28,-1.44 1.04,-0.36 1.56,-1.52 1.2,-2.52 -0.36,-1.04 -1.52,-1.6 -2.52,-1.2 -1.44,0.48 -2.68,1.28 -3.76,2.36 -1.92,1.92 -2.96,4.52 -2.92,7.36 h -2.2 c -1.08,0 -1.96,0.88 -1.96,1.96 0,1.12 0.88,2 1.96,2 h 2.2 v 14.12 c 0,1.12 0.88,2 1.96,2 1.12,0 2,-0.88 2,-2 v -14.12 h 3.52 c 1.12,0 2,-0.88 2,-2 0,-1.08 -0.88,-1.96 -2,-1.96 z" />
        <path
           id="path844"
           style=""
           d="m -188.84773,-40.613281 c 5.56,0 10.04,-4.52 10.04,-10.04 0,-5.56 -4.48,-10.04 -10.04,-10.04 -5.52,0 -10.04,4.48 -10.04,10.04 0,5.52 4.52,10.04 10.04,10.04 z m 0,-16.12 c 3.36,0 6.08,2.72 6.08,6.08 0,3.32 -2.72,6.08 -6.08,6.08 -3.36,0 -6.08,-2.76 -6.08,-6.08 0,-3.36 2.72,-6.08 6.08,-6.08 z" />
        <path
           id="path846"
           style=""
           d="m -166.34773,-60.653281 c -5.52,0 -10.04,4.48 -10.04,10.04 v 8.04 c 0,1.08 0.88,2 2,2 1.08,0 1.96,-0.92 1.96,-2 v -8.04 c 0,-3.36 2.72,-6.08 6.08,-6.08 1.12,0 2,-0.92 2,-2 0,-1.08 -0.88,-1.96 -2,-1.96 z" />
        <path
           id="path848"
           style=""
           d="m -135.52773,-52.613281 c 0,-4.4 -3.6,-8 -8.04,-8 -2.4,0 -4.56,1.04 -6.04,2.76 -1.48,-1.72 -3.64,-2.76 -6.04,-2.76 -4.44,0 -8.04,3.6 -8.04,8 v 10.08 c 0,1.12 0.88,2 2,2 1.08,0 1.96,-0.88 1.96,-2 v -10.08 c 0,-2.24 1.84,-4.04 4.08,-4.04 2.24,0 4.04,1.8 4.04,4.04 v 10.08 c 0,1.12 0.92,2 2,2 1.08,0 1.96,-0.88 1.96,-2 v -10.08 c 0,-2.24 1.84,-4.04 4.08,-4.04 2.24,0 4.08,1.8 4.08,4.04 0,0.08 0,0.12 0,0.16 0,0.08 0,0.12 0,0.2 v 9.72 c 0,1.12 0.88,2 1.96,2 1.08,0 2,-0.88 2,-2 v -9.72 c 0,-0.08 0,-0.12 -0.04,-0.2 0.04,-0.04 0.04,-0.08 0.04,-0.16 z" />
        <path
           id="path850"
           style=""
           d="m -123.22273,-40.613281 c 5.56,0 10.04,-4.52 10.04,-10.04 0,-5.56 -4.48,-10.04 -10.04,-10.04 -5.52,0 -10.04,4.48 -10.04,10.04 0,5.52 4.52,10.04 10.04,10.04 z m 0,-16.12 c 3.36,0 6.08,2.72 6.08,6.08 0,3.32 -2.72,6.08 -6.08,6.08 -3.36,0 -6.08,-2.76 -6.08,-6.08 0,-3.36 2.72,-6.08 6.08,-6.08 z" />
        <path
           id="path852"
           style=""
           d="m -96.635234,-60.653281 c -1.12,0 -2,0.88 -2,1.96 v 10 c 0,2.28 -1.839996,4.16 -4.159996,4.16 -2.28,0 -4.12,-1.88 -4.12,-4.16 v -10 c 0,-1.08 -0.88,-1.96 -2,-1.96 -1.08,0 -1.96,0.88 -1.96,1.96 v 10.04 c 0,0 0,0.04 0,0.04 0.04,4.44 3.64,8.04 8.08,8.04 4.479996,0 8.079996,-3.6 8.119996,-8.04 0,0 0,-0.04 0,-0.04 v -10.04 c 0,-1.08 -0.88,-1.96 -1.96,-1.96 z" />
        <path
           id="path854"
           style=""
           d="m -81.970859,-50.853281 c -1.12,-1.12 -2.64,-1.76 -4.24,-1.76 -1.12,0 -2.04,-0.92 -2.04,-2.04 0,-1.12 0.92,-2.04 2.04,-2.04 0.96,0 1.64,0.44 1.88,1.08 0.36,1 1.28,1.72 2.36,1.48 1.08,-0.2 1.72,-1.28 1.52,-2.36 -0.4,-2.24 -2.96,-4.16 -5.76,-4.16 -3.32,0 -6,2.68 -6,6 0,1.6 0.6,3.12 1.76,4.24 1.12,1.12 2.64,1.76 4.24,1.76 1.12,0 2.04,0.92 2.04,2.04 0,1.16 -0.92,2.08 -2.04,2.08 -0.96,0 -1.44,-0.16 -2,-1.2 -0.52,-1 -1.28,-1.76 -2.36,-1.56 -1.04,0.24 -1.88,1.32 -1.52,2.36 0.76,2.32 3.04,4.36 5.88,4.36 3.32,0 6,-2.72 6,-6.04 0,-1.6 -0.6,-3.08 -1.76,-4.24 z" />
      </g>
      <path
         transform="matrix(1.0197238,0,0,1.0229689,31.137523,110.97672)"
         d="M 195.96461,25.068293 169.58359,6.1804507 148.67741,30.992547 l -1.68118,-32.401885 -32.43367,-0.8750203 24.28461,-21.5166477 -19.53794,-25.903228 31.9636,5.571064 8.07025,-31.425777 15.57335,28.463651 29.60138,-13.284075 -12.54396,29.922528 28.84207,14.860807 -31.2154,8.8491309 z"
         id="path898"
         style="opacity:0;fill:#ffffff;fill-opacity:0;fill-rule:nonzero;stroke:none;stroke-width:1.16799998;stroke-miterlimit:4;stroke-dasharray:none;stroke-dashoffset:0;stroke-opacity:0.47058824" />
    </g>
  </g>
</svg>
