<?xml version="1.0" encoding="UTF-8" standalone="no"?>
<!-- Created with Sodipodi ("http://www.sodipodi.com/") -->

<svg
   xmlns:dc="http://purl.org/dc/elements/1.1/"
   xmlns:cc="http://creativecommons.org/ns#"
   xmlns:rdf="http://www.w3.org/1999/02/22-rdf-syntax-ns#"
   xmlns:svg="http://www.w3.org/2000/svg"
   xmlns="http://www.w3.org/2000/svg"
   xmlns:sodipodi="http://sodipodi.sourceforge.net/DTD/sodipodi-0.dtd"
   xmlns:inkscape="http://www.inkscape.org/namespaces/inkscape"
   version="1.0"
   x="0"
   y="0"
   width="800.000000"
   height="600.000000"
   id="svg559"
   sodipodi:version="0.32"
   inkscape:version="0.92.4 (5da689c313, 2019-01-14)"
   sodipodi:docname="songs_order.svg"
   inkscape:output_extension="org.inkscape.output.svg.inkscape">
  <metadata
     id="metadata35">
    <rdf:RDF>
      <cc:Work
         rdf:about="">
        <dc:format>image/svg+xml</dc:format>
        <dc:type
           rdf:resource="http://purl.org/dc/dcmitype/StillImage" />
        <dc:title />
      </cc:Work>
    </rdf:RDF>
  </metadata>
  <sodipodi:namedview
     inkscape:window-height="1017"
     inkscape:window-width="1920"
     inkscape:pageshadow="2"
     inkscape:pageopacity="0.0"
     guidetolerance="10.0"
     gridtolerance="10.0"
     objecttolerance="10.0"
     borderopacity="1.0"
     bordercolor="#666666"
     pagecolor="#ffffff"
     id="base"
     inkscape:zoom="0.63"
     inkscape:cx="196.5162"
     inkscape:cy="220.13488"
     inkscape:window-x="-8"
     inkscape:window-y="-8"
     inkscape:current-layer="svg559"
     showgrid="false"
     inkscape:window-maximized="1"
     inkscape:pagecheckerboard="true" />
  <defs
     id="defs561">
    <inkscape:perspective
       sodipodi:type="inkscape:persp3d"
       inkscape:vp_x="0 : 300 : 1"
       inkscape:vp_y="0 : 1000 : 0"
       inkscape:vp_z="800 : 300 : 1"
       inkscape:persp3d-origin="400 : 200 : 1"
       id="perspective8" />
  </defs>
  <rect
     style="opacity:1;fill:#000000;fill-opacity:0.47058824;fill-rule:nonzero;stroke:none;stroke-width:1.23576558;stroke-miterlimit:4;stroke-dasharray:none;stroke-dashoffset:0;stroke-opacity:0.47058824"
     id="rect814"
     width="282.53967"
     height="29.761904"
     x="276.98413"
     y="522.31744"
     ry="6.6631136" />
  <text
     xml:space="preserve"
     style="font-style:normal;font-variant:normal;font-weight:bold;font-stretch:normal;font-size:24px;line-height:0%;font-family:FreeSans;-inkscape-font-specification:'FreeSans, Bold';font-variant-ligatures:normal;font-variant-caps:normal;font-variant-numeric:normal;font-feature-settings:normal;text-align:center;writing-mode:lr;text-anchor:middle;fill:#ffffff;fill-opacity:1;stroke:none;stroke-width:0.56311333;stroke-linecap:butt;stroke-linejoin:miter;stroke-miterlimit:4;stroke-dasharray:none;stroke-opacity:0.58823529;"
     x="417.19531"
     y="546.09729"
     id="text1990"><tspan
       sodipodi:role="line"
       id="tspan1992"
       x="417.19531"
       y="546.09729"
       style="font-style:normal;font-variant:normal;font-weight:bold;font-stretch:normal;font-size:24px;line-height:1.25;font-family:FreeSans;-inkscape-font-specification:'FreeSans, Bold';font-variant-ligatures:normal;font-variant-caps:normal;font-variant-numeric:normal;font-feature-settings:normal;text-align:center;writing-mode:lr;text-anchor:middle;stroke:none;stroke-width:0.56311333;stroke-miterlimit:4;stroke-dasharray:none;stroke-opacity:0.58823529;">Order by</tspan></text>
  <g
     transform="matrix(0.08566771,0,0,0.10584527,280.74651,523.55498)"
     id="g14"
     style="fill:#ffffff">
    <g
       id="g12"
       style="fill:#ffffff">
      <g
         id="g10"
         style="fill:#ffffff">
        <path
           style="fill:#ffffff"
           inkscape:connector-curvature="0"
           d="m 22.2,44.4 c -4.8,1.2 -8.8,4.8 -10.9,9.5 -1.1,2.1 -1.3,3.2 -1.3,6.7 0,3.8 0.1,4.5 1.5,7.2 1.8,3.6 4.7,6.5 8.4,8.2 l 2.6,1.2 H 128 233.5 l 2.6,-1.2 c 3.6,-1.7 6.6,-4.5 8.4,-8.2 1.3,-2.7 1.5,-3.4 1.5,-7.2 0,-3.8 -0.1,-4.5 -1.5,-7.2 -1.8,-3.6 -4.7,-6.5 -8.4,-8.2 L 233.5,44 128.9,43.9 C 47,43.9 23.9,44 22.2,44.4 Z"
           id="path4" />
        <path
           style="fill:#ffffff"
           inkscape:connector-curvature="0"
           d="m 22.2,111.8 c -4.8,1.2 -8.8,4.8 -10.9,9.5 -1.1,2.2 -1.2,3.2 -1.2,6.7 0,3.8 0.1,4.5 1.5,7.2 1.8,3.6 4.7,6.5 8.4,8.2 l 2.6,1.2 H 128 233.5 l 2.6,-1.2 c 3.6,-1.7 6.6,-4.5 8.4,-8.2 1.3,-2.7 1.5,-3.4 1.5,-7.2 0,-3.8 -0.1,-4.5 -1.5,-7.2 -1.8,-3.6 -4.7,-6.5 -8.4,-8.2 l -2.6,-1.2 -104.6,-0.1 c -81.9,0 -105,0.1 -106.7,0.5 z"
           id="path6" />
        <path
           style="fill:#ffffff"
           inkscape:connector-curvature="0"
           d="m 22.2,179.3 c -4.7,1.2 -8.8,4.8 -11,9.5 -1,2.2 -1.2,3.2 -1.2,6.7 0,3.8 0.1,4.5 1.5,7.2 1.8,3.6 4.7,6.5 8.4,8.2 l 2.6,1.2 H 128 233.5 l 2.6,-1.2 c 3.6,-1.7 6.6,-4.5 8.4,-8.2 1.3,-2.7 1.5,-3.4 1.5,-7.2 0,-3.8 -0.1,-4.5 -1.5,-7.2 -1.8,-3.6 -4.7,-6.5 -8.4,-8.2 l -2.6,-1.2 -104.6,-0.1 c -81.9,-0.1 -105,0 -106.7,0.5 z"
           id="path8" />
      </g>
    </g>
  </g>
</svg>
