# Fret object

v  0.0000007153 -0.0000004768 0.1034815758
v  0.0000007153 0.1913409233 0.1948112249
v  -0.0732226372 0.1767761707 0.1948112249
v  -0.1352984905 0.1352984905 0.1948112249
v  -0.1767761707 0.0732226372 0.1948112249
v  -0.1913411617 -0.0000004768 0.1948112100
v  -0.1767761707 -0.0732238293 0.1948112100
v  -0.1352984905 -0.1352996826 0.1948112100
v  -0.0732226372 -0.1767773628 0.1948112100
v  0.0000007153 -0.1913423538 0.1948112100
v  0.0732238293 -0.1767773628 0.1948112100
v  0.1352996826 -0.1352996826 0.1948112100
v  0.1767773628 -0.0732238293 0.1948112100
v  0.1913423538 -0.0000004768 0.1948112100
v  0.1767771244 0.0732231140 0.1948112249
v  0.1352994442 0.1352984905 0.1948112249
v  0.0732238293 0.1767761707 0.1948112249
v  0.0000007153 0.4169557095 0.0748493001
v  -0.1595616341 0.3852167130 0.0748493001
v  -0.2948319912 0.2948322296 0.0748493001
v  -0.3852165937 0.1595618725 0.0748492777
v  -0.4169555902 -0.0000004768 0.0748492777
v  -0.3852168322 -0.1595625877 0.0748492777
v  -0.2948321104 -0.2948329449 0.0748492628
v  -0.1595616341 -0.3852181435 0.0748492628
v  0.0000007153 -0.4169569016 0.0748492628
v  0.1595630646 -0.3852181435 0.0748492628
v  0.2948334217 -0.2948329449 0.0748492628
v  0.3852181435 -0.1595625877 0.0748492777
v  0.4169569016 -0.0000002384 0.0748492777
v  0.3852179050 0.1595621109 0.0748492777
v  0.2948329449 0.2948324680 0.0748493001
v  0.1595623493 0.3852169514 0.0748493001
v  0.0000007153 0.5018217564 0.0753878132
v  -0.1920385361 0.4636228085 0.0753878132
v  -0.3548412323 0.3548414707 0.0753877982
v  -0.4636226892 0.1920385361 0.0753878206
v  -0.5018217564 -0.0000004768 0.0753878132
v  -0.4636226892 -0.1920394897 0.0753877982
v  -0.3548414707 -0.3548424244 0.0753878206
v  -0.1920385361 -0.4636240005 0.0753878132
v  0.0000007153 -0.5018227100 0.0753878132
v  0.1920397282 -0.4636240005 0.0753878132
v  0.3548426628 -0.3548424244 0.0753878206
v  0.4636240005 -0.1920394897 0.0753877982
v  0.5018229485 -0.0000002384 0.0753878132
v  0.4636237621 0.1920390129 0.0753878206
v  0.3548421860 0.3548417091 0.0753877982
v  0.1920392513 0.4636230469 0.0753878132
v  0.0000007153 0.4999995232 -0.0000000219
v  -0.1913411617 0.4619390965 -0.0000000219
v  -0.3535528183 0.3535528183 -0.0000000219
v  -0.4619390965 0.1913414001 -0.0000000219
v  -0.4999994040 -0.0000004768 -0.0000000219
v  -0.4619392157 -0.1913421154 -0.0000000219
v  -0.3535528183 -0.3535537720 -0.0000000219
v  -0.1913411617 -0.4619402885 -0.0000000219
v  0.0000007153 -0.5000004768 -0.0000000219
v  0.1913425922 -0.4619402885 -0.0000000219
v  0.3535540104 -0.3535537720 -0.0000000219
v  0.4619402885 -0.1913421154 -0.0000000219
v  0.5000007153 -0.0000002384 -0.0000000219
v  0.4619402885 0.1913416386 -0.0000000219
v  0.3535537720 0.3535532951 -0.0000000219
v  0.1913418770 0.4619393349 -0.0000000219
v  0.0000007153 0.3260121346 0.1965681016
v  -0.1247589588 0.3011956215 0.1965681165
v  -0.2305250168 0.2305250168 0.1965681165
v  -0.3011956215 0.1247589588 0.1965681165
v  -0.3260117769 -0.0000004768 0.1965681016
v  -0.3011956215 -0.1247601509 0.1965681016
v  -0.2305250168 -0.2305259705 0.1965681016
v  -0.1247589588 -0.3011968136 0.1965681016
v  0.0000007153 -0.3260130882 0.1965681016
v  0.1247603893 -0.3011968136 0.1965681016
v  0.2305262089 -0.2305259705 0.1965681016
v  0.3011968136 -0.1247601509 0.1965681016
v  0.3260130882 -0.0000002384 0.1965681016
v  0.3011968136 0.1247591972 0.1965681165
v  0.2305259705 0.2305252552 0.1965681165
v  0.1247599125 0.3011956215 0.1965681165
v  0.0000007153 0.1181845665 0.1019219384
v  -0.0452268124 0.1091883183 0.1019219384
v  -0.0835688114 0.0835690498 0.1019219384
v  -0.1091883183 0.0452270508 0.1019219384
v  -0.1181845665 -0.0000004768 0.1019219384
v  -0.1091883183 -0.0452280045 0.1019219384
v  -0.0835690498 -0.0835697651 0.1019219384
v  -0.0452268124 -0.1091892719 0.1019219384
v  0.0000007153 -0.1181857586 0.1019219384
v  0.0452282429 -0.1091892719 0.1019219384
v  0.0835702419 -0.0835697651 0.1019219384
v  0.1091895103 -0.0452280045 0.1019219384
v  0.1181857586 -0.0000004768 0.1019219384
v  0.1091895103 0.0452270508 0.1019219384
v  0.0835702419 0.0835690498 0.1019219384
v  0.0452280045 0.1091883183 0.1019219384
# 97 vertices

vt  0.0000000000 1.0000000000 0.0000000000
vt  0.0625000000 1.0000000000 0.0000000000
vt  0.1250000000 1.0000000000 0.0000000000
vt  0.1875000000 1.0000000000 0.0000000000
vt  0.2500000000 1.0000000000 0.0000000000
vt  0.3125000000 1.0000000000 0.0000000000
vt  0.3750000000 1.0000000000 0.0000000000
vt  0.4374999702 1.0000000000 0.0000000000
vt  0.4999999702 1.0000000000 0.0000000000
vt  0.5624999404 1.0000000000 0.0000000000
vt  0.6249999404 1.0000000000 0.0000000000
vt  0.6874999404 1.0000000000 0.0000000000
vt  0.7500000000 1.0000000000 0.0000000000
vt  0.8125000000 1.0000000000 0.0000000000
vt  0.8750000000 1.0000000000 0.0000000000
vt  0.9375000596 1.0000000000 0.0000000000
vt  0.0000000000 0.8750000000 0.0000000000
vt  0.0625000000 0.8750000000 0.0000000000
vt  0.1250000000 0.8750000000 0.0000000000
vt  0.1875000000 0.8750000000 0.0000000000
vt  0.2500000000 0.8750000000 0.0000000000
vt  0.3125000000 0.8750000000 0.0000000000
vt  0.3750000000 0.8750000000 0.0000000000
vt  0.4374999702 0.8750000000 0.0000000000
vt  0.4999999702 0.8750000000 0.0000000000
vt  0.5624999404 0.8750000000 0.0000000000
vt  0.6249999404 0.8750000000 0.0000000000
vt  0.6874999404 0.8750000000 0.0000000000
vt  0.7500000000 0.8750000000 0.0000000000
vt  0.8125000000 0.8750000000 0.0000000000
vt  0.8750000000 0.8750000000 0.0000000000
vt  0.9375000596 0.8750000000 0.0000000000
vt  1.0000001192 0.8750000000 0.0000000000
vt  0.0000000000 0.7500000000 0.0000000000
vt  0.0625000000 0.7500000000 0.0000000000
vt  0.1250000000 0.7500000000 0.0000000000
vt  0.1875000000 0.7500000000 0.0000000000
vt  0.2500000000 0.7500000000 0.0000000000
vt  0.3125000000 0.7500000000 0.0000000000
vt  0.3750000000 0.7500000000 0.0000000000
vt  0.4374999702 0.7500000000 0.0000000000
vt  0.4999999702 0.7500000000 0.0000000000
vt  0.5624999404 0.7500000000 0.0000000000
vt  0.6249999404 0.7500000000 0.0000000000
vt  0.6874999404 0.7500000000 0.0000000000
vt  0.7500000000 0.7500000000 0.0000000000
vt  0.8125000000 0.7500000000 0.0000000000
vt  0.8750000000 0.7500000000 0.0000000000
vt  0.9375000596 0.7500000000 0.0000000000
vt  1.0000001192 0.7500000000 0.0000000000
vt  0.0000000000 0.6250000000 0.0000000000
vt  0.0625000000 0.6250000000 0.0000000000
vt  0.1250000000 0.6250000000 0.0000000000
vt  0.1875000000 0.6250000000 0.0000000000
vt  0.2500000000 0.6250000000 0.0000000000
vt  0.3125000000 0.6250000000 0.0000000000
vt  0.3750000000 0.6250000000 0.0000000000
vt  0.4374999702 0.6250000000 0.0000000000
vt  0.4999999702 0.6250000000 0.0000000000
vt  0.5624999404 0.6250000000 0.0000000000
vt  0.6249999404 0.6250000000 0.0000000000
vt  0.6874999404 0.6250000000 0.0000000000
vt  0.7500000000 0.6250000000 0.0000000000
vt  0.8125000000 0.6250000000 0.0000000000
vt  0.8750000000 0.6250000000 0.0000000000
vt  0.9375000596 0.6250000000 0.0000000000
vt  1.0000001192 0.6250000000 0.0000000000
vt  0.0000000000 0.5000000000 0.0000000000
vt  0.0625000000 0.5000000000 0.0000000000
vt  0.1250000000 0.5000000000 0.0000000000
vt  0.1875000000 0.5000000000 0.0000000000
vt  0.2500000000 0.5000000000 0.0000000000
vt  0.3125000000 0.5000000000 0.0000000000
vt  0.3750000000 0.5000000000 0.0000000000
vt  0.4374999702 0.5000000000 0.0000000000
vt  0.4999999702 0.5000000000 0.0000000000
vt  0.5624999404 0.5000000000 0.0000000000
vt  0.6249999404 0.5000000000 0.0000000000
vt  0.6874999404 0.5000000000 0.0000000000
vt  0.7500000000 0.5000000000 0.0000000000
vt  0.8125000000 0.5000000000 0.0000000000
vt  0.8750000000 0.5000000000 0.0000000000
vt  0.9375000596 0.5000000000 0.0000000000
vt  1.0000001192 0.5000000000 0.0000000000
vt  0.0000000000 0.8003866673 0.0000000000
vt  1.0000001192 0.8003866673 0.0000000000
vt  0.0625000000 0.8003866673 0.0000000000
vt  0.1250000000 0.8003866673 0.0000000000
vt  0.1875000000 0.8003866673 0.0000000000
vt  0.2500000000 0.8003866673 0.0000000000
vt  0.3125000000 0.8003866673 0.0000000000
vt  0.3750000000 0.8003866673 0.0000000000
vt  0.4374999702 0.8003866673 0.0000000000
vt  0.4999999404 0.8003866673 0.0000000000
vt  0.5624999404 0.8003866673 0.0000000000
vt  0.6249999404 0.8003866673 0.0000000000
vt  0.6874999404 0.8003866673 0.0000000000
vt  0.7500000000 0.8003866673 0.0000000000
vt  0.8125000000 0.8003866673 0.0000000000
vt  0.8750000000 0.8003866673 0.0000000000
vt  0.9375000000 0.8003866673 0.0000000000
vt  0.0000000000 0.9227918386 0.0000000000
vt  0.9761041403 0.9227918386 0.0000000000
vt  0.0386040956 0.9227918386 0.0000000000
vt  0.0625000000 0.9227918386 0.0000000000
vt  0.1011040956 0.9227918386 0.0000000000
vt  0.1250000000 0.9227918386 0.0000000000
vt  0.1636040956 0.9227918386 0.0000000000
vt  0.1875000000 0.9227918386 0.0000000000
vt  0.2261041105 0.9227918386 0.0000000000
vt  0.2500000000 0.9227918386 0.0000000000
vt  0.2886041105 0.9227918386 0.0000000000
vt  0.3125000000 0.9227918386 0.0000000000
vt  0.3511041105 0.9227918386 0.0000000000
vt  0.3750000000 0.9227918386 0.0000000000
vt  0.4136040807 0.9227918386 0.0000000000
vt  0.4375000000 0.9227918386 0.0000000000
vt  0.4761040807 0.9227918386 0.0000000000
vt  0.4999999702 0.9227918386 0.0000000000
vt  0.5386040211 0.9227918386 0.0000000000
vt  0.5624999404 0.9227918386 0.0000000000
vt  0.6011040807 0.9227918386 0.0000000000
vt  0.6250000000 0.9227918386 0.0000000000
vt  0.6636040211 0.9227918386 0.0000000000
vt  0.6874999404 0.9227918386 0.0000000000
vt  0.7261040807 0.9227918386 0.0000000000
vt  0.7500000000 0.9227918386 0.0000000000
vt  0.7886041403 0.9227918386 0.0000000000
vt  0.8125000000 0.9227918386 0.0000000000
vt  0.8511041403 0.9227918386 0.0000000000
vt  0.8750000596 0.9227918386 0.0000000000
vt  0.9136041403 0.9227918386 0.0000000000
vt  0.9375000596 0.9227918386 0.0000000000
# 133 texture vertices

vn  -0.0000000000 0.0000000000 0.0049999999
vn  -0.0000028757 -0.0017635220 0.0046786731
vn  0.0007066720 -0.0020869889 0.0044883285
vn  0.0014515370 -0.0016576933 0.0044883285
vn  0.0019754181 -0.0009760293 0.0044883280
vn  0.0021985578 -0.0001457730 0.0044883285
vn  0.0020869875 0.0007066733 0.0044883289
vn  0.0016576921 0.0014515356 0.0044883294
vn  0.0009760302 0.0019754157 0.0044883289
vn  0.0001457728 0.0021985557 0.0044883294
vn  -0.0007066744 0.0020869870 0.0044883289
vn  -0.0014515381 0.0016576906 0.0044883294
vn  -0.0019754176 0.0009760263 0.0044883289
vn  -0.0021985576 0.0001457721 0.0044883285
vn  -0.0020869880 -0.0007066759 0.0044883280
vn  -0.0016576921 -0.0014515409 0.0044883275
vn  -0.0009586700 -0.0023090527 0.0043300376
vn  -0.0001465860 0.0022108043 0.0044822828
vn  -0.0009814642 0.0019864195 0.0044822833
vn  -0.0016669232 0.0014596214 0.0044822842
vn  -0.0020986111 0.0007106090 0.0044822837
vn  -0.0022108022 -0.0001465845 0.0044822837
vn  -0.0019864189 -0.0009814636 0.0044822837
vn  -0.0014596224 -0.0016669215 0.0044822842
vn  -0.0007106106 -0.0020986074 0.0044822851
vn  0.0001465854 -0.0022107996 0.0044822847
vn  0.0009814652 -0.0019864158 0.0044822851
vn  0.0016669242 -0.0014596203 0.0044822842
vn  0.0020986102 -0.0007106088 0.0044822837
vn  0.0022108031 0.0001465878 0.0044822828
vn  0.0019864168 0.0009814652 0.0044822842
vn  0.0014596184 0.0016669260 0.0044822842
vn  0.0007106091 0.0020986123 0.0044822828
vn  -0.0002369510 0.0035277342 0.0035353845
vn  -0.0015689185 0.0031685242 0.0035353852
vn  -0.0026620319 0.0023269332 0.0035353878
vn  -0.0033498774 0.0011310925 0.0035353852
vn  -0.0035277323 -0.0002369506 0.0035353862
vn  -0.0031685228 -0.0015689180 0.0035353866
vn  -0.0023269376 -0.0026620333 0.0035353838
vn  -0.0011310905 -0.0033498767 0.0035353869
vn  0.0002369506 -0.0035277312 0.0035353878
vn  0.0015689199 -0.0031685233 0.0035353857
vn  0.0026620345 -0.0023269334 0.0035353857
vn  0.0033498770 -0.0011310903 0.0035353866
vn  0.0035277291 0.0002369521 0.0035353894
vn  0.0031685173 0.0015689186 0.0035353911
vn  0.0023269299 0.0026620331 0.0035353892
vn  0.0011310893 0.0033498772 0.0035353869
vn  0.0003306963 0.0049875951 -0.0001205623
vn  -0.0016031442 0.0047344896 -0.0001205678
vn  -0.0032929236 0.0037606009 -0.0001205578
vn  -0.0044813841 0.0022141954 -0.0001205606
vn  -0.0049875947 0.0003306992 -0.0001205657
vn  -0.0047344891 -0.0016031456 -0.0001205591
vn  -0.0037606030 -0.0032929210 -0.0001205673
vn  -0.0022141968 -0.0044813831 -0.0001205682
vn  -0.0003306971 -0.0049875951 -0.0001205590
vn  0.0016031456 -0.0047344891 -0.0001205619
vn  0.0032929259 -0.0037605988 -0.0001205654
vn  0.0044813845 -0.0022141943 -0.0001205644
vn  0.0049875951 -0.0003306971 -0.0001205590
vn  0.0047344887 0.0016031479 -0.0001205495
vn  0.0037605981 0.0032929268 -0.0001205502
vn  0.0022141906 0.0044813864 -0.0001205544
vn  0.0001504593 0.0021956100 0.0044896165
vn  -0.0007012178 0.0020860573 0.0044896165
vn  -0.0014461377 0.0016589203 0.0044896179
vn  -0.0019708998 0.0009792279 0.0044896174
vn  -0.0021956093 0.0001504589 0.0044896170
vn  -0.0020860566 -0.0007012160 0.0044896174
vn  -0.0016589210 -0.0014461380 0.0044896174
vn  -0.0009792309 -0.0019708970 0.0044896184
vn  -0.0001504590 -0.0021956067 0.0044896184
vn  0.0007012172 -0.0020860541 0.0044896184
vn  0.0014461398 -0.0016589186 0.0044896179
vn  0.0019708981 -0.0009792292 0.0044896184
vn  0.0021956095 -0.0001504569 0.0044896170
vn  0.0020860555 0.0007012184 0.0044896174
vn  0.0016589173 0.0014461395 0.0044896184
vn  0.0009792269 0.0019709002 0.0044896174
vn  -0.0000000008 -0.0028467039 0.0041105081
vn  0.0011438610 -0.0023107007 0.0042839516
vn  0.0019410575 -0.0016970717 0.0042839516
vn  0.0024427446 -0.0008250771 0.0042839521
vn  0.0025725444 0.0001725262 0.0042839525
vn  0.0023106989 0.0011438609 0.0042839530
vn  0.0016970710 0.0019410556 0.0042839530
vn  0.0008250794 0.0024427420 0.0042839530
vn  -0.0001725269 0.0025725428 0.0042839535
vn  -0.0011438631 0.0023106975 0.0042839530
vn  -0.0019410589 0.0016970657 0.0042839535
vn  -0.0024427441 0.0008250753 0.0042839525
vn  -0.0025725455 -0.0001725254 0.0042839516
vn  -0.0023106996 -0.0011438649 0.0042839516
vn  -0.0016970672 -0.0019410617 0.0042839516
vn  -0.0008189199 -0.0019770572 0.0045189173
# 97 vertex normals

g Fret
f 1/1/1 82/102/82 83/104/83
f 1/2/1 83/105/83 84/106/84
f 1/3/1 84/107/84 85/108/85
f 1/4/1 85/109/85 86/110/86
f 1/5/1 86/111/86 87/112/87
f 1/6/1 87/113/87 88/114/88
f 1/7/1 88/115/88 89/116/89
f 1/8/1 89/117/89 90/118/90
f 1/9/1 90/119/90 91/120/91
f 1/10/1 91/121/91 92/122/92
f 1/11/1 92/123/92 93/124/93
f 1/12/1 93/125/93 94/126/94
f 1/13/1 94/127/94 95/128/95
f 1/14/1 95/129/95 96/130/96
f 1/15/1 96/131/96 97/132/97
f 1/16/1 97/133/97 82/103/82
f 66/85/66 67/87/67 3/18/3
f 3/18/3 2/17/2 66/85/66
f 67/87/67 68/88/68 4/19/4
f 4/19/4 3/18/3 67/87/67
f 68/88/68 69/89/69 5/20/5
f 5/20/5 4/19/4 68/88/68
f 69/89/69 70/90/70 6/21/6
f 6/21/6 5/20/5 69/89/69
f 70/90/70 71/91/71 7/22/7
f 7/22/7 6/21/6 70/90/70
f 71/91/71 72/92/72 8/23/8
f 8/23/8 7/22/7 71/91/71
f 72/92/72 73/93/73 9/24/9
f 9/24/9 8/23/8 72/92/72
f 73/93/73 74/94/74 10/25/10
f 10/25/10 9/24/9 73/93/73
f 74/94/74 75/95/75 11/26/11
f 11/26/11 10/25/10 74/94/74
f 75/95/75 76/96/76 12/27/12
f 12/27/12 11/26/11 75/95/75
f 76/96/76 77/97/77 13/28/13
f 13/28/13 12/27/12 76/96/76
f 77/97/77 78/98/78 14/29/14
f 14/29/14 13/28/13 77/97/77
f 78/98/78 79/99/79 15/30/15
f 15/30/15 14/29/14 78/98/78
f 79/99/79 80/100/80 16/31/16
f 16/31/16 15/30/15 79/99/79
f 80/100/80 81/101/81 17/32/17
f 17/32/17 16/31/16 80/100/80
f 81/101/81 66/86/66 2/33/2
f 2/33/2 17/32/17 81/101/81
f 35/52/35 19/35/19 18/34/18
f 18/34/18 34/51/34 35/52/35
f 36/53/36 20/36/20 19/35/19
f 19/35/19 35/52/35 36/53/36
f 37/54/37 21/37/21 20/36/20
f 20/36/20 36/53/36 37/54/37
f 38/55/38 22/38/22 21/37/21
f 21/37/21 37/54/37 38/55/38
f 39/56/39 23/39/23 22/38/22
f 22/38/22 38/55/38 39/56/39
f 40/57/40 24/40/24 23/39/23
f 23/39/23 39/56/39 40/57/40
f 41/58/41 25/41/25 24/40/24
f 24/40/24 40/57/40 41/58/41
f 42/59/42 26/42/26 25/41/25
f 25/41/25 41/58/41 42/59/42
f 43/60/43 27/43/27 26/42/26
f 26/42/26 42/59/42 43/60/43
f 44/61/44 28/44/28 27/43/27
f 27/43/27 43/60/43 44/61/44
f 45/62/45 29/45/29 28/44/28
f 28/44/28 44/61/44 45/62/45
f 46/63/46 30/46/30 29/45/29
f 29/45/29 45/62/45 46/63/46
f 47/64/47 31/47/31 30/46/30
f 30/46/30 46/63/46 47/64/47
f 48/65/48 32/48/32 31/47/31
f 31/47/31 47/64/47 48/65/48
f 49/66/49 33/49/33 32/48/32
f 32/48/32 48/65/48 49/66/49
f 34/67/34 18/50/18 33/49/33
f 33/49/33 49/66/49 34/67/34
f 51/69/51 35/52/35 34/51/34
f 34/51/34 50/68/50 51/69/51
f 52/70/52 36/53/36 35/52/35
f 35/52/35 51/69/51 52/70/52
f 53/71/53 37/54/37 36/53/36
f 36/53/36 52/70/52 53/71/53
f 54/72/54 38/55/38 37/54/37
f 37/54/37 53/71/53 54/72/54
f 55/73/55 39/56/39 38/55/38
f 38/55/38 54/72/54 55/73/55
f 56/74/56 40/57/40 39/56/39
f 39/56/39 55/73/55 56/74/56
f 57/75/57 41/58/41 40/57/40
f 40/57/40 56/74/56 57/75/57
f 58/76/58 42/59/42 41/58/41
f 41/58/41 57/75/57 58/76/58
f 59/77/59 43/60/43 42/59/42
f 42/59/42 58/76/58 59/77/59
f 60/78/60 44/61/44 43/60/43
f 43/60/43 59/77/59 60/78/60
f 61/79/61 45/62/45 44/61/44
f 44/61/44 60/78/60 61/79/61
f 62/80/62 46/63/46 45/62/45
f 45/62/45 61/79/61 62/80/62
f 63/81/63 47/64/47 46/63/46
f 46/63/46 62/80/62 63/81/63
f 64/82/64 48/65/48 47/64/47
f 47/64/47 63/81/63 64/82/64
f 65/83/65 49/66/49 48/65/48
f 48/65/48 64/82/64 65/83/65
f 50/84/50 34/67/34 49/66/49
f 49/66/49 65/83/65 50/84/50
f 18/34/18 19/35/19 67/87/67
f 67/87/67 66/85/66 18/34/18
f 19/35/19 20/36/20 68/88/68
f 68/88/68 67/87/67 19/35/19
f 20/36/20 21/37/21 69/89/69
f 69/89/69 68/88/68 20/36/20
f 21/37/21 22/38/22 70/90/70
f 70/90/70 69/89/69 21/37/21
f 22/38/22 23/39/23 71/91/71
f 71/91/71 70/90/70 22/38/22
f 23/39/23 24/40/24 72/92/72
f 72/92/72 71/91/71 23/39/23
f 24/40/24 25/41/25 73/93/73
f 73/93/73 72/92/72 24/40/24
f 25/41/25 26/42/26 74/94/74
f 74/94/74 73/93/73 25/41/25
f 26/42/26 27/43/27 75/95/75
f 75/95/75 74/94/74 26/42/26
f 27/43/27 28/44/28 76/96/76
f 76/96/76 75/95/75 27/43/27
f 28/44/28 29/45/29 77/97/77
f 77/97/77 76/96/76 28/44/28
f 29/45/29 30/46/30 78/98/78
f 78/98/78 77/97/77 29/45/29
f 30/46/30 31/47/31 79/99/79
f 79/99/79 78/98/78 30/46/30
f 31/47/31 32/48/32 80/100/80
f 80/100/80 79/99/79 31/47/31
f 32/48/32 33/49/33 81/101/81
f 81/101/81 80/100/80 32/48/32
f 33/49/33 18/50/18 66/86/66
f 66/86/66 81/101/81 33/49/33
f 3/18/3 83/104/83 82/102/82
f 82/102/82 2/17/2 3/18/3
f 83/105/83 3/18/3 4/19/4
f 4/19/4 84/106/84 83/105/83
f 84/107/84 4/19/4 5/20/5
f 5/20/5 85/108/85 84/107/84
f 85/109/85 5/20/5 6/21/6
f 6/21/6 86/110/86 85/109/85
f 86/111/86 6/21/6 7/22/7
f 7/22/7 87/112/87 86/111/86
f 87/113/87 7/22/7 8/23/8
f 8/23/8 88/114/88 87/113/87
f 88/115/88 8/23/8 9/24/9
f 9/24/9 89/116/89 88/115/88
f 89/117/89 9/24/9 10/25/10
f 10/25/10 90/118/90 89/117/89
f 90/119/90 10/25/10 11/26/11
f 11/26/11 91/120/91 90/119/90
f 91/121/91 11/26/11 12/27/12
f 12/27/12 92/122/92 91/121/91
f 92/123/92 12/27/12 13/28/13
f 13/28/13 93/124/93 92/123/92
f 93/125/93 13/28/13 14/29/14
f 14/29/14 94/126/94 93/125/93
f 94/127/94 14/29/14 15/30/15
f 15/30/15 95/128/95 94/127/94
f 95/129/95 15/30/15 16/31/16
f 16/31/16 96/130/96 95/129/95
f 96/131/96 16/31/16 17/32/17
f 17/32/17 97/132/97 96/131/96
f 82/103/82 97/133/97 17/32/17
f 17/32/17 2/33/2 82/103/82
# 176 faces

g
