<?xml version="1.0" encoding="UTF-8" standalone="no"?>
<svg
   xmlns:dc="http://purl.org/dc/elements/1.1/"
   xmlns:cc="http://creativecommons.org/ns#"
   xmlns:rdf="http://www.w3.org/1999/02/22-rdf-syntax-ns#"
   xmlns:svg="http://www.w3.org/2000/svg"
   xmlns="http://www.w3.org/2000/svg"
   xmlns:xlink="http://www.w3.org/1999/xlink"
   version="1.1"
   id="Layer_1"
   x="0px"
   y="0px"
   width="256px"
   height="128px"
   viewBox="0 0 256 128"
   enable-background="new 0 0 256 128"
   xml:space="preserve"><metadata
   id="metadata4892"><rdf:RDF><cc:Work
	   rdf:about=""><dc:format>image/svg+xml</dc:format><dc:type
		 rdf:resource="http://purl.org/dc/dcmitype/StillImage" /><dc:title></dc:title></cc:Work></rdf:RDF></metadata>
<defs
   id="defs4832"><linearGradient
	 id="lgrad"
	 x1="50%"
	 y1="100%"
	 x2="50%"
	 y2="0%">
		<stop
   offset="0%"
   style="stop-color:rgb(181,7,7);stop-opacity:1"
   id="stop4753" />
		<stop
   offset="12%"
   style="stop-color:rgb(250,141,95);stop-opacity:1"
   id="stop4755" />
		<stop
   offset="25%"
   style="stop-color:rgb(247,176,94);stop-opacity:1"
   id="stop4757" />
		<stop
   offset="37%"
   style="stop-color:rgb(255,231,191);stop-opacity:1"
   id="stop4759" />
		<stop
   offset="50%"
   style="stop-color:rgb(255,253,209);stop-opacity:1"
   id="stop4761" />
		<stop
   offset="67%"
   style="stop-color:rgb(255,231,191);stop-opacity:1"
   id="stop4763" />
		<stop
   offset="75%"
   style="stop-color:rgb(247,176,94);stop-opacity:1"
   id="stop4765" />
		<stop
   offset="87%"
   style="stop-color:rgb(250,141,95);stop-opacity:1"
   id="stop4767" />
		<stop
   offset="100%"
   style="stop-color:rgb(181,7,7);stop-opacity:1"
   id="stop4769" />
	</linearGradient><rect
	 width="125%"
	 height="105%"
	 y="-4%"
	 x="0"
	 id="gradientRect"
	 style="fill:url(#lgrad)" /><filter
	 id="gradient-Glow"
	 width="100%"
	 height="118%"
	 y="-4%"
	 x="0">
	<!--     Thicken out the original shape     -->
	<feMorphology
   in="SourceAlpha"
   operator="dilate"
   radius="2.75"
   y="-6%"
   height="110%"
   result="thickenR"
   id="feMorphology4813" />
 <feGaussianBlur
   in="thickenR"
   result="blurredR"
   stdDeviation="2"
   height="100%"
   id="feGaussianBlur4815" />
 <feFlood
   result="floodR"
   height="110%"
   y="-5%"
   flood-color="#ffffff"
   id="feFlood4817" />
 <feComposite
   in="floodR"
   in2="blurredR"
   operator="in"
   result="filledBlur"
   id="feComposite4819" />
 <feImage
   xlink:href="#gradientRect"
   result="gRectangle"
   id="feImage4821" />
<feComposite
   in="gRectangle"
   in2="filledBlur"
   operator="in"
   result="finalBlur"
   id="feComposite4823" />

	<feMerge
   id="feMerge4829">
		 <feMergeNode
   in="finalBlur"
   id="feMergeNode4825" />
		<feMergeNode
   in="SourceGraphic"
   id="feMergeNode4827" />
	</feMerge>
</filter></defs>

<g
   id="g4887"
   style="filter:url(#gradient-Glow)"
   height="100%"
   width="100%">
	<linearGradient
   id="SVGID_1_"
   gradientUnits="userSpaceOnUse"
   x1="128"
   y1="110.8332"
   x2="128"
   y2="17.1668">
		<stop
   offset="0"
   style="stop-color:#DE902D"
   id="stop4834" />
		<stop
   offset="0.0477"
   style="stop-color:#E39B30"
   id="stop4836" />
		<stop
   offset="0.0657"
   style="stop-color:#E5A032"
   id="stop4838" />
		<stop
   offset="0.086"
   style="stop-color:#E7B657"
   id="stop4840" />
		<stop
   offset="0.1109"
   style="stop-color:#E8CE7F"
   id="stop4842" />
		<stop
   offset="0.1307"
   style="stop-color:#EADD97"
   id="stop4844" />
		<stop
   offset="0.1429"
   style="stop-color:#EAE2A0"
   id="stop4846" />
		<stop
   offset="0.1729"
   style="stop-color:#EFE8B5"
   id="stop4848" />
		<stop
   offset="0.2161"
   style="stop-color:#F5EECD"
   id="stop4850" />
		<stop
   offset="0.2621"
   style="stop-color:#F9F2DE"
   id="stop4852" />
		<stop
   offset="0.3124"
   style="stop-color:#FBF5E8"
   id="stop4854" />
		<stop
   offset="0.375"
   style="stop-color:#FCF6EB"
   id="stop4856" />
		<stop
   offset="0.5"
   style="stop-color:#FFFFFF"
   id="stop4858" />
		<stop
   offset="0.625"
   style="stop-color:#FCF6EB"
   id="stop4860" />
		<stop
   offset="0.6847"
   style="stop-color:#FBF5E8"
   id="stop4862" />
		<stop
   offset="0.7326"
   style="stop-color:#F8F2DE"
   id="stop4864" />
		<stop
   offset="0.7764"
   style="stop-color:#F4EDCD"
   id="stop4866" />
		<stop
   offset="0.8175"
   style="stop-color:#EDE5B5"
   id="stop4868" />
		<stop
   offset="0.8334"
   style="stop-color:#EAE2AA"
   id="stop4870" />
		<stop
   offset="0.8475"
   style="stop-color:#EADDA1"
   id="stop4872" />
		<stop
   offset="0.8704"
   style="stop-color:#E9D089"
   id="stop4874" />
		<stop
   offset="0.8994"
   style="stop-color:#E7BA61"
   id="stop4876" />
		<stop
   offset="0.9286"
   style="stop-color:#E5A032"
   id="stop4878" />
		<stop
   offset="0.9751"
   style="stop-color:#E1972F"
   id="stop4880" />
		<stop
   offset="1"
   style="stop-color:#DE902D"
   id="stop4882" />
	</linearGradient>
	<polygon
   points="255.323,30.664 254.986,44.243 254.655,30.509 254.049,31.861 253.985,29.98 253.655,40.334 253.326,29.318 252.996,44.167 252.665,28.264 252.332,34.626 252,24.389 251.662,32.486 251.323,19.711 250.986,39.033 250.655,22.365 250.322,41.602 249.988,21.672 249.655,29.983 249.326,28.513 248.996,32.58 248.665,26.596 248.332,31.202 248,22.134 247.662,42.67 247.323,18.165 246.986,33.903 246.655,19.785 246.322,44.894 245.988,30.132 245.655,37.241 245.326,18.318 244.996,42.165 244.665,20.93 244.332,43.983 244,23.461 243.662,41.633 243.323,24.214 242.986,37.002 242.655,23.651 242.322,43.29 241.988,33.505 241.655,37.775 241.326,28.232 240.996,39.716 240.665,22.462 240.332,45.094 240,33.245 239.662,43.604 239.323,21.829 238.986,35.009 238.655,32.227 238.322,44.742 237.988,27.945 237.655,38.634 237.326,23.633 236.996,36.761 236.665,26.541 236.332,30.745 236,28.956 235.662,44.622 235.323,21.838 234.986,32.984 234.655,33.485 233.988,17.167 233.655,39.096 233.326,30.255 232.996,40.213 232.665,22.931 232.332,32.978 232,17.791 231.662,31.361 231.323,22.924 230.986,31.795 230.655,20.223 230.322,41.648 229.988,31.603 229.655,42.778 229.326,20.643 228.996,33.087 228.665,18.068 228.332,42.382 228,25.545 227.662,33.087 227.323,25.732 226.986,35.6 226.655,26.712 226.322,39.397 225.988,21.531 225.655,47.006 225.326,19.768 224.996,43.042 224.665,20.636 224.332,45.243 224,26.177 223.662,35.36 223.323,32.358 222.986,39.299 222.655,32.474 222.322,37.838 221.988,20.726 221.655,43.755 221.326,29.55 220.996,40.636 220,25.092 219.662,36.621 219.323,31.214 218.986,37.94 218.655,29.726 217.655,34.854 217.326,18.577 216.996,36.402 216.665,34.096 216.332,34.11 216,22.22 215.662,37.372 215.323,21.915 214.986,37.297 214.655,18.874 214.322,43.116 213.988,26.044 213.655,37.116 213.326,27.689 212.996,41.494 212.665,25.557 212.332,42.352 212,26.352 211.662,33.239 211.323,17.865 210.986,43.99 210.655,30.494 210.322,44.039 209.988,22.022 209.655,38.988 209.326,32.14 208.996,34.926 208.665,22.733 208.332,35.297 208,27.827 207.662,42.634 207.323,28.807 206.986,30.604 206.655,22.571 206.322,44.951 205.988,29.041 205.655,31.941 205.326,17.935 204.996,37.122 204.665,26.413 204.332,39.473 204,22.9 203.662,41.265 203.323,20.22 202.986,41.42 202.655,23.071 202.322,37.141 201.988,28.245 201.655,31.788 201.326,27.764 200.996,34.396 200.665,29.269 200.332,43.773 200,22.641 199.662,36.833 199.323,24.155 198.986,35.376 198.655,18.713 198.322,37.607 197.988,26.697 197.655,40.703 197.326,23.117 196.996,32.803 196.665,21.888 196.332,43.972 196,26.435 195.662,37.047 195.323,24.705 194.322,41.234 193.988,22.215 193.655,37.028 193.326,26.91 192.996,43.155 192.665,26.161 192.332,42.454 192,27.82 191.662,33.749 191.323,28.36 190.986,34.253 190.655,30.241 190.322,37.337 189.988,26.317 189.655,38.959 189.326,22.237 188.996,39.324 188.665,29.669 188.332,33.745 188,21.495 187.662,39.162 187.323,27.664 186.986,37.672 186.655,27.611 186.322,37.75 185.988,26.412 185.655,35.367 185.326,25.624 184.996,31.839 184.665,18.295 184.332,38.603 184,26.881 183.662,37.645 183.323,23.834 182.986,36.228 182.655,22.125 182.322,32.691 181.988,18.341 181.655,41.446 181.326,26.986 180.996,36.219 180.665,28.496 180.332,43.667 180,20.772 179.662,36.95 179.323,21.228 178.986,36.935 178.655,34.002 178.322,33.683 177.988,28.816 177.655,36.871 177.326,20.537 176.996,40.634 176.665,26.594 176.332,34.763 176,23.297 175.662,30.006 175.323,25.693 174.986,42.605 174.655,27.545 174.322,39.229 173.988,18.542 173.655,44.131 173.326,22.943 172.996,31.649 172.665,31.553 172.332,39.067 172,27.511 171.662,45.4 171.323,22.459 170.986,35.787 170.655,17.57 170.322,34.801 169.326,21.775 168.7,33.428 168.662,31.997 168.332,33.558 168,26.8 167.662,37.513 167.323,21.095 166.986,40.987 166.655,31.319 166.322,36.522 165.988,25.465 165.655,31.285 165.326,24.891 164.996,41.439 164.665,33.496 164.332,44.597 164,27.65 163.662,33.686 163.323,22.652 162.986,36.968 162.655,26.854 161.988,30.999 161.655,30.606 160.996,32.047 160.665,20.676 160.332,45.202 160,21.617 159.662,34.396 159.323,21.433 158.986,36.685 158.655,20.237 158.322,30.368 157.988,23.057 157.655,38.916 157.315,30.467 156.996,32.985 156.665,17.959 156.332,46.168 156,23.505 155.662,40.958 155.323,26.855 154.986,35.795 154.655,22.067 154.322,44.58 153.988,33.135 153.655,34.477 153.326,17.552 152.996,43.61 152.665,28.968 152.332,39.938 152,24.055 151.662,34.324 151.323,25.158 150.986,31.34 150.657,31.216 150.322,42.403 149.988,22.896 149.326,33.424 148.665,23.264 148.332,46.262 148,25.486 146.986,43.461 146.655,27.879 146.322,40.407 145.988,18.91 145.655,32.85 145.326,25.668 144.996,35.351 144.665,29.499 143.662,39.707 143.323,22.581 142.986,35.835 142.655,24.293 142.322,38.064 141.988,26.587 141.655,45.414 141.326,30.436 140.996,33.519 140.665,28.541 140.332,44.827 140,23.028 139.662,30.912 139.323,19.387 138.986,36.773 138.655,24.95 138.322,38.878 137.988,32.368 137.655,33.06 137.326,21.805 136.996,41.494 136.665,19.232 136.332,33.802 136,22.833 135.662,41.95 135.323,32.695 134.986,35.4 134.655,20.562 134.322,36.539 133.988,22.884 133.655,43.679 133.326,32.01 132.996,33.644 132.665,19.442 132.332,44.51 132,23.691 131.662,42.743 131.323,32.35 130.986,36.518 130.655,28.734 130.322,32.56 129.988,22.936 129.655,41.474 129.326,20.582 128.996,34.829 128.665,30.444 128.332,33.341 128,27.488 127.662,41.618 127.323,26.296 126.986,37.245 126.655,34.316 126.322,42.432 125.988,24.507 125.655,39.664 125.326,27.664 124.996,39.421 124.665,27.227 124.332,34.256 124,26.371 123.662,36.313 123.323,21.54 122.986,41.829 122.655,22.984 122.322,39.762 121.988,32.075 121.655,34.004 121.326,26.995 120.996,32.118 120.665,24.965 120.332,42.619 120,26.728 119.662,35.175 119.323,30.963 118.986,37.932 118.655,26.387 118.322,32.075 117.988,30.54 117.655,44.925 117.326,23.384 116.996,35.672 116.665,18.031 116.332,44.624 116,31.509 115.662,31.291 115.323,23.116 114.986,34.564 114.655,23.185 114.322,46.582 113.988,29.753 113.655,32.195 113.326,23.147 112.332,45.204 112,29.135 111.662,30.59 111.323,20.317 110.986,31.746 110.655,23.113 110.322,34.587 109.988,31.662 109.655,33.749 109.326,31.06 108.996,46.658 108.665,18.613 108.332,44.307 108,27.823 107.662,44.112 107.323,24.175 106.986,34.619 106.655,30.84 106.322,35.191 105.988,29.805 105.655,42.575 105.326,25.415 104.996,35.688 104.665,20.733 104.332,35.136 104,31.052 103.662,33.651 103.323,21.274 102.986,38.54 102.655,29.076 102.322,29.256 101.655,40.023 101.326,30.885 100.996,40.701 100.665,21.41 100.332,45.53 100,25.997 99.662,35.008 99.323,31.149 98.986,33.87 98.655,33.716 98.322,39.149 97.988,18.897 97.655,37.55 97.326,34.608 96.996,41.178 96.665,17.41 96.332,40.65 96,21.814 95.662,45.078 95.323,29.92 94.986,40.809 94.322,29.309 93.988,29.573 93.655,41.081 93.326,32.078 92.996,32.888 92.665,29.04 92.332,42.977 92,24.207 91.662,36.463 91.323,32.215 90.986,34.843 90.655,26.02 90.322,39.921 89.988,24.077 89.655,36.904 89.326,27.258 88.996,45.985 88.665,21.769 88.332,44.603 88,20.135 87.662,31.034 87.323,29.394 86.986,43.56 86.655,23.307 86.322,39.328 85.988,20.152 85.655,41.909 85.326,19.489 84.996,37.082 84.665,24.813 84.332,39.792 84,26.018 83.662,32.086 83.323,21.018 82.986,45.553 82.655,19.033 82.322,30.306 81.988,20.96 81.655,36.332 81.326,26.725 80.996,30.637 80.665,28.494 80.332,44.769 80,26.553 79.662,31.234 79.323,26.288 78.986,29.455 78.655,19.647 78.322,36.583 77.988,29.614 77.655,32.139 77.326,19.3 76.996,34.152 76.665,25.344 76.332,31.606 76,22.136 75.662,37.684 75.323,30.354 74.986,39.625 74.655,32.819 74.322,34.603 73.988,30.171 73.654,34.605 73.326,29.031 72.996,33.503 72.665,23.079 72.332,42.845 72,22.819 71.662,39.665 71.323,21.579 70.986,42.583 70.655,32.476 70.322,34.023 69.988,24.859 69.655,44.065 69.326,24.86 68.996,37.258 68.665,27.152 68.332,37.522 68,26.365 67.662,37.902 67.323,18.736 66.986,40.074 66.655,29.74 66.322,42.984 65.988,30.507 65.655,37.974 65.326,28.861 64.996,44.617 64.665,29.036 64.331,31.726 64,21.809 63.662,33.296 63.323,31.229 62.986,38.025 62.655,31.773 62.322,32.291 61.988,22.931 61.655,39.205 61.326,30.796 60.996,31.186 60.332,36.762 60,30.759 59.662,35.711 59.323,20.046 58.986,37.449 58.655,25.27 58.322,34.364 57.988,21.937 57.655,44.994 57.326,27.072 56.996,37.505 56.665,31.021 56.332,34.601 56,17.261 55.662,37.78 55.323,22.826 54.986,45.024 54.655,18.909 54.322,38.048 53.988,32.648 53.655,39.026 53.326,27.003 52.996,29.953 52.665,17.49 52.332,31.66 52,18.529 51.662,36.429 50.655,23.781 50.322,37.126 49.988,29.98 49.655,40.142 49.326,27.419 48.996,39.448 48.665,22.038 48.332,30.774 48,30.549 47.662,34.786 47.323,28.249 46.986,37.324 46.655,29.173 46.322,42.588 45.988,20.132 45.655,33.134 45.326,30.479 44.996,31.518 44.665,28.767 44.332,44.363 44,24.338 43.662,42.143 43.323,19.508 42.986,42.032 42.655,26.903 42.322,41.431 41.988,26.982 41.655,43.7 41.326,32.918 40.996,44.648 40.665,24.039 40.332,31.767 40,31.537 39.662,40.796 39.323,30.219 38.986,43.551 38.655,31.419 38.322,37.029 37.988,24.166 37.655,39.144 37.326,29.229 36.996,36.098 36.665,28.265 36.332,32.692 36,30.827 35.662,43.416 35.323,19.845 34.322,38.741 33.988,23.569 33.655,36.847 33.326,33.666 32.996,37.527 32.665,21.86 32.332,41.435 32,25.056 31.662,32.931 31.323,22.599 30.986,36.475 30.655,27.635 30.322,36.043 29.988,24.687 29.655,31.212 29.326,26.769 28.996,42.865 28.665,26.769 28.332,39.376 28,18.94 27.662,32.201 27.323,21.322 26.986,39.529 26.655,26.781 26.322,42.419 25.988,21.093 25.655,45.437 25.326,20.941 24.996,36.8 24.665,20.819 24.332,42.159 24,24.542 23.662,38.136 23.323,30.992 22.986,42.969 22.655,31.567 22.322,42.957 21.988,33.816 21.655,37.328 21.326,18.463 20.996,34.4 20.665,26.573 20.332,31.653 20,25.1 19.662,35.528 19.323,19.207 18.986,38.913 18.655,23.448 18.322,32.051 17.988,19.133 17.655,36.942 17.326,27.054 16.996,32.552 16.665,22.629 16.332,44.327 16,24.828 15.662,38.235 15.323,20.499 14.986,33.266 14.655,23.854 14.322,41.89 13.988,25.242 13.655,33.555 13.326,30.197 12.996,41.542 12.665,26.278 12.332,31.998 12,25.057 11.662,41.762 11.323,27.147 10.986,44.03 10.655,26.467 10.322,45.335 9.988,28.409 9.655,30.837 9.326,28.094 8.996,40.693 8.665,25.222 8.332,36.072 8,31.273 7.662,32.501 7.323,18.761 6.986,39.026 6.655,33.108 6.322,41.829 5.988,20.277 5.655,35.917 5.34,30.057 4.996,46.163 4.665,25.591 4.332,39.403 4,18.089 3.662,34.293 3.323,21.07 2.986,35.441 2.655,24.512 2.322,33.051 1.988,25.501 1.655,40.22 1.326,33.103 0.996,42.314 0.665,24.848 0.332,32.749 0,30.272 0,96.712 0.338,91.588 0.677,106.341 1.021,95.303 1.345,95.007 1.678,91.153 2.012,108.232 2.345,90.445 2.674,101.025 3.004,85.614 3.335,105.227 3.668,88.479 4.07,101.661 4.338,93.553 4.677,105.554 5.678,90.091 6.012,107.818 6.345,88.682 6.674,104.247 7.004,94.071 7.335,109.508 7.668,86.446 8,103.373 8.338,89.773 8.677,99.846 9.014,88.753 9.345,107.623 9.678,86.064 10.012,96.627 10.345,93.937 10.674,101.821 11.004,89.092 11.335,96.833 11.668,85.652 12,97.16 12.677,97.864 13.014,93.274 13.345,102.073 13.678,94.741 14.012,105.568 14.345,81.589 14.674,94.288 15.004,89.473 15.335,104.173 15.668,83.986 16,110.016 16.338,93.716 16.677,98.688 17.014,96.763 17.345,109.637 17.678,91.03 18.012,99.413 18.345,82.902 18.674,108.514 19.668,86.725 20,97.392 20.338,80.92 20.677,96.385 21.014,89.319 21.345,106.539 21.678,85.256 22.674,104.596 23.004,82.064 23.335,101.579 23.668,83.617 24,103.911 24.338,93.635 24.677,95.307 25.014,89.394 25.345,98.727 25.678,94.576 26.012,106.528 26.345,84.494 26.674,106.137 27.004,91.223 27.335,107.971 27.668,81.168 28,101.205 28.338,92.105 28.677,99.514 29.014,87.107 29.345,102.247 29.678,80.992 30.012,96.571 30.345,85.62 30.674,107.454 31.004,92.157 31.335,93.917 31.668,91.422 32,98.129 32.338,95.989 32.677,103.379 33.014,93.892 33.345,101.315 34.345,90.441 34.674,99.767 35.004,92.797 35.335,95.505 35.668,92.599 36,104.598 36.338,97.822 36.677,99.164 37.014,87.737 37.345,106.882 37.678,95.852 38.012,97.972 38.345,86.347 38.674,99.425 39.004,95.113 39.335,110.62 39.668,93.793 40,101.579 40.338,82.789 40.677,108.811 41.014,85.953 42.012,107.003 42.345,93.45 42.674,102.454 43.004,86.368 43.335,100.366 43.668,89.421 44,109.713 44.338,83.979 44.677,98.667 45.014,86.922 45.345,103.161 45.678,87.921 46.012,110.833 46.345,88.659 46.674,95.772 47.004,84.333 47.335,101.785 47.668,81.158 48,105.743 48.338,82.707 48.677,95.312 49.014,81.614 49.678,96.738 50.345,83.466 50.674,108.859 51.004,83.505 51.335,101.716 51.668,92.507 52,101.171 52.338,84.19 52.677,104.475 53.014,95.151 53.345,99.134 53.678,96.596 54.012,103.754 54.345,96.889 54.674,108.645 55.004,89.153 55.335,96.369 55.668,81.668 56.677,102.422 57.014,91.963 57.345,107.343 57.678,93.156 58.012,106.344 58.345,84.924 58.674,105.463 59.004,91.213 59.335,104.271 59.668,95.622 60,100.966 60.338,97.501 60.677,102.082 61.014,87.855 61.345,106.802 61.678,92.145 62.012,96.536 62.345,87.298 62.674,97.247 63.004,95.699 63.335,96.003 63.668,95.138 64,98.239 64.338,81.362 64.677,103.95 65.014,94.079 65.345,102.008 65.678,83.323 66.012,94.212 66.345,84.849 66.674,101.556 67.004,82.019 67.335,109.236 67.668,81.465 68,107.388 68.338,93.617 68.677,98.25 69.014,81.069 69.345,96.831 69.678,83.384 70.012,109.493 70.345,87.301 70.674,109.38 71.004,91.38 71.335,98.717 71.668,82.056 72,95.055 72.338,87.267 72.677,110.251 73.014,90.904 73.345,101.461 73.678,90.25 74.012,105.912 74.345,93.159 74.674,95.184 75.004,83.573 75.335,106.017 75.668,89.225 76,102.95 76.338,83.588 76.677,106.883 77.014,86.577 77.345,106.665 77.678,96.303 78.012,108.199 78.345,90.053 78.674,102.117 79.004,93.176 79.335,98.342 79.668,92.465 80,103.791 80.338,85.552 80.677,96.759 81.014,92.987 81.345,105.746 81.678,94.692 82.012,96.517 82.345,84.71 82.674,109.123 83.004,96.375 83.335,98.228 83.668,88.044 84,95.764 84.338,95.721 84.677,99.192 85.014,85.122 85.345,97.334 85.678,84.097 86.012,100.363 86.345,84.014 86.674,96.871 87.004,95.095 87.335,108.227 87.668,97.021 88,105.237 88.338,84.38 88.677,101.281 89.014,96.683 89.345,101.583 89.678,92.747 90.01,95.582 90.345,85.351 90.674,104.04 91.004,88.616 91.335,98.099 91.668,90.107 92,95.883 92.338,88.325 92.677,95.154 93.014,84.003 93.345,101.27 93.678,84.937 94.012,95.945 94.345,93.888 94.674,94.83 95.004,83.359 95.335,107.853 95.668,89.274 96,105.51 96.338,94.256 96.677,102.439 97.014,83.975 97.345,96.917 97.678,84.858 98.012,94.435 98.345,93.202 98.674,106.949 99.004,82.223 99.335,102.401 99.668,84.154 100,101.607 100.338,81.293 100.677,108.264 101.014,82.6 101.345,97.618 101.678,87.319 102.019,100.579 102.345,86.111 102.674,97.564 103.004,91.3 103.335,95.441 103.668,85.483 103.993,100.238 104.338,93.546 104.677,108.856 105.014,95.859 105.345,106.793 105.678,94.135 106.012,96.886 106.345,83.025 106.674,108.582 107.004,84.53 107.335,94.966 107.668,90.799 108,106.987 108.338,89.613 108.677,107.937 109.014,95.677 109.345,101.846 109.678,84.962 110.012,97.733 110.345,94.601 110.674,109.54 111.004,94.018 111.335,108.549 111.668,82.039 112,96.515 112.338,88.356 112.677,100.782 113.014,87.313 113.345,100.812 113.678,94.889 114.012,104.735 114.345,95.837 114.674,96.649 115.004,84.967 115.335,106.56 115.668,96.038 116,104.351 116.338,88.906 116.677,106.411 117.014,87.325 117.345,104.665 117.678,92.42 118.012,106.486 118.345,91.515 118.674,105.935 119.004,92.168 119.335,94.835 119.668,89.577 120,107.289 120.338,96.983 120.677,98.494 121.014,81.936 121.345,102.705 121.678,91.001 122.012,103.335 122.345,90.746 122.674,103.473 123.004,89.174 123.335,106.845 123.668,88.073 124,107.605 124.338,83.823 125.345,103.443 125.678,86.703 126.012,104.896 126.345,94.937 126.674,98.34 127.004,95.55 127.335,96.009 127.668,92.675 128,103.831 128.338,91.111 128.677,101.225 129.014,93.22 129.345,97.66 129.678,94.967 130.012,97.561 130.345,87.35 130.674,97.525 131.004,94.921 131.335,106.654 131.668,88.295 132,109.653 132.338,86.246 132.677,93.827 133.013,92.855 133.345,98.893 133.678,93.763 134.012,96.719 134.345,91.999 134.674,107.967 135.004,86.37 135.335,110.479 135.668,84.392 136,105.83 136.338,93.107 136.677,97.367 137.014,91.934 137.345,100.732 137.678,82.613 138.012,105.802 138.345,88.437 138.674,98.79 139.004,83.813 140,108.399 140.338,86.224 140.677,109.599 141.014,92.623 141.345,95.325 141.678,83.157 142.012,104.542 142.345,83.385 142.674,105.006 143.004,87.214 143.335,103.568 143.668,91.847 144,101.314 145.014,93.452 145.345,101.172 145.677,89.487 146.012,102.008 146.345,90.622 146.674,105.02 147.004,84.299 147.335,99.814 148,93.479 148.338,93.766 148.677,95.373 149.014,83.609 149.345,102.314 149.678,91.094 150.012,95.614 150.345,85.857 150.674,97.371 151.004,84.178 151.335,107.501 151.668,88.958 152,101.118 152.338,85.712 152.677,107.22 153.014,90.844 153.345,101.518 153.678,94.818 154.012,102.172 154.345,86.444 154.674,101.523 155.004,92.088 155.335,96.675 155.668,82.949 156,95.743 156.338,85.878 156.677,98.109 157.014,90.492 157.345,103.365 157.678,86.221 158.012,100.332 159.004,89.868 159.335,104.841 159.668,83.348 160.007,97.894 160.338,92.685 160.677,106.528 161.014,86.711 161.345,106.607 161.678,84.728 162.012,105.952 162.345,90.372 162.674,106.085 163.004,93.877 163.33,98.389 163.668,83.082 164,105.401 164.338,87.633 164.677,94.685 165.014,84.325 165.345,107.67 165.678,87.261 166.012,106.068 166.345,83.736 166.674,109.45 167.004,93.133 167.335,99.593 167.668,84.146 168,96.67 168.338,92.085 168.677,98.969 169.014,89.879 169.345,97.212 169.678,93.391 170.012,99.197 170.345,96.651 170.674,99.783 171.004,82.544 171.335,104.692 171.668,81.788 172,105.714 172.338,82.634 172.677,94.593 173.014,88.537 173.345,97.564 173.678,84.288 174.012,107.494 174.345,81.032 174.674,97.822 175.004,92.755 175.335,100.808 175.668,83.319 176,110.543 176.338,91.783 176.677,108.71 177.014,86.331 177.345,98.026 177.678,87.209 178.012,103.431 178.345,83.674 178.674,108.486 179.004,88.557 179.335,105.021 179.668,88.388 180,102.122 180.338,94.08 180.677,94.656 181.014,91.679 181.345,99.212 181.678,90.49 182.012,108.259 182.345,95.116 182.674,94.747 183.004,89.588 183.335,103.906 183.668,92.06 184,101.028 184.338,92.916 184.677,102.481 185.014,91.399 185.345,100.783 185.678,91.463 186.012,109.791 186.345,87.801 186.674,97.092 187.004,87.307 187.335,106.18 187.668,87.797 188,110.831 188.338,89.83 188.677,107.732 189.014,83.811 189.345,100.327 189.678,92.33 190.012,97.332 190.345,96.102 190.674,103.728 191.004,90.928 191.335,106.295 191.668,95.929 192,96.973 192.338,87.005 192.677,104.933 193.014,94.09 193.345,106.491 193.678,94.944 194.012,107.738 194.345,89.914 194.674,98.41 195.004,96.398 195.335,102.445 195.668,87.733 196,98.158 196.338,95.057 196.677,107.045 197.014,85.212 197.345,97.804 197.678,88.211 198.012,96.209 198.345,86.337 198.674,106.302 199.335,93.671 199.668,96.651 200.338,90.071 200.677,103.699 201.014,93.9 201.345,103.617 201.678,84.066 202.012,105.649 202.345,82.968 202.674,96.59 203.004,91.091 203.335,102.479 203.668,86.944 204,104.005 204.338,97.303 204.677,104.979 205.014,93.407 205.345,96.685 205.678,86.024 206.012,100.107 206.345,89.827 206.674,106.542 207.004,97.907 207.335,103.02 207.668,95.719 208,110.014 208.338,97.348 208.677,98.875 209.014,97.512 209.345,102.209 209.678,84.667 210.012,96.352 210.345,90.744 210.674,106.339 211.004,85.378 211.335,105.669 211.668,87.702 212,96.829 212.338,88.283 212.677,105.092 213.014,93.384 213.345,102.727 213.678,94.432 214.012,109.804 214.345,85.753 214.674,93.89 215.004,86.02 215.335,101.068 215.668,96.918 216,104.392 216.338,83.111 216.677,100.137 217.014,87.026 217.345,96.716 217.678,82.429 218.012,93.514 218.345,85.561 218.674,101.034 219.004,87.121 219.335,98.821 219.668,90.639 220,107.075 220.338,87.177 220.677,104.637 221.014,91.275 221.345,105.575 221.678,83.419 222.012,96.745 222.345,92.678 222.674,98.039 223.004,90.619 223.335,107.748 223.668,95.336 224,97.706 224.338,84.441 224.677,108.066 225.014,82.957 225.345,102.385 225.678,93.989 226.012,110.687 226.345,90.555 226.674,104.602 227.004,94.744 227.335,97.958 227.668,86.034 228,103.775 228.338,90.375 228.677,107.477 229.014,93.406 229.345,102.49 229.678,83.862 230.012,97.623 230.345,94.37 230.674,104.379 231.004,89.938 231.335,95.857 231.668,95.681 232,105.052 232.338,85.09 232.677,103.155 233.014,96.252 233.344,102.996 233.678,84.66 234.012,94.401 234.345,87.436 234.674,104.689 235.004,97.483 235.335,106.168 235.668,82.947 236,99.095 236.338,89.36 236.677,104.984 237.014,97.583 237.345,105.855 237.678,84.47 238.012,95.539 238.345,94.693 238.674,95.795 239.004,88.367 239.335,109.115 239.668,82.79 240,94.785 240.338,94.264 241.345,97.236 241.678,86.926 242.012,106.256 242.345,84.466 242.674,107.121 243.004,92.851 243.335,102.608 243.668,82.005 244,95.37 244.338,91.741 244.677,102.468 245.014,82.525 245.345,105.997 245.678,92.085 246.012,96.083 246.345,85.845 246.674,97.168 247.004,91.938 247.335,104.049 248.338,82.851 248.677,106.8 249.014,82.712 249.345,107.871 249.678,86.568 250.012,108.882 251.004,84.185 251.335,94.692 251.668,91.446 252,106.123 252.338,91.757 252.677,110.465 253.014,86.656 253.345,97.199 253.678,97.212 254.012,97.853 254.345,84.743 254.674,106.615 255.004,95.059 255.335,110.031 256,27.219 255.662,41.457 "
   id="polygon4885"
   style="fill:url(#SVGID_1_)" />
</g>
</svg>