<?xml version="1.0" encoding="UTF-8" standalone="no"?>
<!-- Created with Sodipodi ("http://www.sodipodi.com/") -->

<svg
   xmlns:dc="http://purl.org/dc/elements/1.1/"
   xmlns:cc="http://creativecommons.org/ns#"
   xmlns:rdf="http://www.w3.org/1999/02/22-rdf-syntax-ns#"
   xmlns:svg="http://www.w3.org/2000/svg"
   xmlns="http://www.w3.org/2000/svg"
   xmlns:xlink="http://www.w3.org/1999/xlink"
   xmlns:sodipodi="http://sodipodi.sourceforge.net/DTD/sodipodi-0.dtd"
   xmlns:inkscape="http://www.inkscape.org/namespaces/inkscape"
   version="1.0"
   x="0"
   y="0"
   width="1000"
   height="800"
   id="svg559"
   sodipodi:version="0.32"
   inkscape:version="0.48.1 r9760"
   sodipodi:docname="guitar_bg.svg"
   inkscape:output_extension="org.inkscape.output.svg.inkscape">
  <metadata
     id="metadata35">
    <rdf:RDF>
      <cc:Work
         rdf:about="">
        <dc:format>image/svg+xml</dc:format>
        <dc:type
           rdf:resource="http://purl.org/dc/dcmitype/StillImage" />
        <dc:title />
      </cc:Work>
    </rdf:RDF>
  </metadata>
  <sodipodi:namedview
     inkscape:window-height="1026"
     inkscape:window-width="1626"
     inkscape:pageshadow="2"
     inkscape:pageopacity="0.0"
     guidetolerance="10.0"
     gridtolerance="10.0"
     objecttolerance="10.0"
     borderopacity="1.0"
     bordercolor="#666666"
     pagecolor="#ffffff"
     id="base"
     inkscape:zoom="0.61522535"
     inkscape:cx="416.18137"
     inkscape:cy="566.15726"
     inkscape:window-x="54"
     inkscape:window-y="24"
     inkscape:current-layer="svg559"
     showgrid="false"
     showguides="true"
     inkscape:guide-bbox="true"
     inkscape:window-maximized="1" />
  <defs
     id="defs561">
    <linearGradient
       id="linearGradient3893">
      <stop
         id="stop3895"
         offset="0"
         style="stop-color:#32e4ff;stop-opacity:1;" />
      <stop
         id="stop3897"
         offset="1"
         style="stop-color:#0000ff;stop-opacity:0;" />
    </linearGradient>
    <linearGradient
       id="linearGradient3835">
      <stop
         style="stop-color:#3232ff;stop-opacity:1;"
         offset="0"
         id="stop3837" />
      <stop
         style="stop-color:#0000ff;stop-opacity:0;"
         offset="1"
         id="stop3839" />
    </linearGradient>
    <linearGradient
       id="linearGradient3819">
      <stop
         style="stop-color:#879fbe;stop-opacity:1;"
         offset="0"
         id="stop3821" />
      <stop
         style="stop-color:#1f2c66;stop-opacity:0;"
         offset="1"
         id="stop3823" />
    </linearGradient>
    <linearGradient
       id="linearGradient3941">
      <stop
         style="stop-color:#ffffff;stop-opacity:0.27388534;"
         offset="0"
         id="stop3943" />
      <stop
         style="stop-color:#ffffff;stop-opacity:0;"
         offset="1"
         id="stop3945" />
    </linearGradient>
    <linearGradient
       id="linearGradient3856">
      <stop
         style="stop-color:#101010;stop-opacity:1;"
         offset="0"
         id="stop3858" />
      <stop
         style="stop-color:#181818;stop-opacity:0.22929937;"
         offset="1"
         id="stop3860" />
    </linearGradient>
    <radialGradient
       inkscape:collect="always"
       xlink:href="#linearGradient3819"
       id="radialGradient3825"
       cx="166.40443"
       cy="669.5387"
       fx="166.40443"
       fy="669.5387"
       r="532.3253"
       gradientTransform="matrix(0.78201664,-0.74648279,0.29264917,0.30657977,-130.20775,573.81603)"
       gradientUnits="userSpaceOnUse" />
    <linearGradient
       y2="449.80624"
       x2="381.28015"
       y1="684.16162"
       x1="665.12128"
       gradientTransform="matrix(0.336682,0,0,0.336682,-81.3739,-51.8729)"
       gradientUnits="userSpaceOnUse"
       id="linearGradient3484"
       xlink:href="#linearGradient3751-2"
       inkscape:collect="always" />
    <linearGradient
       inkscape:collect="always"
       id="linearGradient3751-2">
      <stop
         style="stop-color:black;stop-opacity:1;"
         offset="0"
         id="stop3753-4" />
      <stop
         style="stop-color:black;stop-opacity:0;"
         offset="1"
         id="stop3755-7" />
    </linearGradient>
    <inkscape:perspective
       id="perspective17"
       inkscape:persp3d-origin="128 : 85.333333 : 1"
       inkscape:vp_z="256 : 128 : 1"
       inkscape:vp_y="0 : 1000 : 0"
       inkscape:vp_x="0 : 128 : 1"
       sodipodi:type="inkscape:persp3d" />
    <filter
       inkscape:collect="always"
       id="filter3798"
       x="-0.40963855"
       width="1.8192771"
       y="-0.40963855"
       height="1.8192771">
      <feGaussianBlur
         inkscape:collect="always"
         stdDeviation="0.97100936"
         id="feGaussianBlur3800" />
    </filter>
    <linearGradient
       inkscape:collect="always"
       xlink:href="#linearGradient3835"
       id="linearGradient3841"
       x1="128.72675"
       y1="140.27541"
       x2="275.84305"
       y2="381.63806"
       gradientUnits="userSpaceOnUse" />
    <filter
       inkscape:collect="always"
       id="filter3853"
       x="-0.10079435"
       width="1.2015887"
       y="-0.083886182"
       height="1.1677724">
      <feGaussianBlur
         inkscape:collect="always"
         stdDeviation="15.837691"
         id="feGaussianBlur3855" />
    </filter>
    <filter
       inkscape:collect="always"
       id="filter3869"
       x="-0.11588358"
       width="1.2317672"
       y="-0.11544256"
       height="1.2308851">
      <feGaussianBlur
         inkscape:collect="always"
         stdDeviation="6.5926282"
         id="feGaussianBlur3871" />
    </filter>
    <linearGradient
       inkscape:collect="always"
       xlink:href="#linearGradient3893"
       id="linearGradient3883"
       gradientUnits="userSpaceOnUse"
       x1="128.72675"
       y1="140.27541"
       x2="275.84305"
       y2="381.63806" />
    <linearGradient
       inkscape:collect="always"
       xlink:href="#linearGradient3835"
       id="linearGradient3891"
       gradientUnits="userSpaceOnUse"
       x1="128.72675"
       y1="140.27541"
       x2="275.84305"
       y2="381.63806" />
    <filter
       inkscape:collect="always"
       id="filter3928">
      <feGaussianBlur
         inkscape:collect="always"
         stdDeviation="1.7001047"
         id="feGaussianBlur3930" />
    </filter>
  </defs>
  <rect
     style="fill:#000000;fill-opacity:1;stroke:none"
     id="rect3045"
     width="1000"
     height="800"
     x="0"
     y="0" />
  <path
     style="fill:url(#radialGradient3825);fill-opacity:1;stroke:none"
     d="m 991.50663,629.33083 c -349.19022,2.16226 -664.78717,9.39214 -1051.647196,4.87626 L -19.505049,206.72145 993.13206,218.09939 z"
     id="path3049"
     inkscape:connector-curvature="0"
     sodipodi:nodetypes="ccccc" />
  <path
     style="fill:#000000;stroke:none"
     d="m 328.61326,487.17719 c -4.61194,0.0867 -9.8807,2.94925 -15.3125,6.5 l -12.6875,4.28125 1.6875,2.96875 -3.4375,1.21875 -10.625,-1.4375 -8.0625,2 -6.875,2.875 -0.59375,4.03125 -4,0.28125 -4.59375,8.90625 -7.78125,8.34375 -7.75,11.21875 0,4.59375 c 5.26196,5.58425 11.64703,8.33074 18.0625,11.03125 l -1.6875,5.0625 -2.59375,4.59375 -1.71875,1.71875 -3.15625,5.75 -12.625,18.96875 -10.0625,3.71875 -11.78125,9.5 -20.40625,12.625 -6.625,1.71875 0.59375,3.46875 -4.59375,1.4375 0.84375,1.71875 -2.5625,0.84375 -3.1875,4.3125 0.875,4.03125 1.15625,0.28125 0.28125,6.03125 5.46875,9.5 8.03125,2.59375 4.875,-0.3125 -0.5625,-7.15625 -2.59375,-10.0625 4.03125,0.84375 1.15625,-2.875 3.15625,1.4375 4.875,-8.90625 5.1875,-3.15625 c 5.26231,-8.75861 18.76992,-10.91561 28.15625,-16.375 l 7.46875,-5.75 21.84375,-15.21875 49.125,-3.15625 c 0,0 -2.3547,2.16711 -3.75,6.875 -1.3953,4.7079 -1.71875,21.5625 -1.71875,21.5625 l -2.5625,6.59375 1.40625,2.875 -2,2.3125 0.59375,2.28125 -1.4375,3.1875 0.28125,3.71875 -0.59375,5.46875 8.625,1.4375 2.3125,-1.4375 7.46875,3.71875 14.9375,-0.28125 -2,-4.59375 -12.09375,-7.1875 0,-2.59375 -2,-2.5625 1.71875,-2.03125 -1.4375,-3.4375 8.34375,-38.5 c 0.94593,-7.73436 -0.20293,-11.31414 -2.3125,-12.9375 l -38.78125,-5.46875 -2.84375,-7.0625 3.40625,0.1875 10.65625,-21.84375 3.15625,16.65625 19.53125,10.0625 4.59375,2.875 11.78125,-0.875 -1.15625,-12.0625 -5.75,0.875 -7.46875,-0.59375 -11.78125,-9.1875 0.59375,-11.1875 2.59375,-2.3125 -1.75,-2.875 3.46875,-4.3125 -0.0937,-0.0937 2.46875,-2.9375 0.5625,5.5 1.34375,-3.65625 0.3125,4.625 3.25,-6.8125 0.59375,-10.03125 c -2.6929,-13.56437 -7.53912,-18.04891 -13.46875,-17.9375 z m -54.15625,42.5625 -1.75,10.90625 -5.15625,-4.3125 c 0.86201,-1.14935 6.90625,-6.59375 6.90625,-6.59375 z"
     id="path4578"
     inkscape:connector-curvature="0" />
  <path
     inkscape:connector-curvature="0"
     style="fill:#000000"
     d="m 264.91227,575.73428 c 0.071,-0.35846 0.36271,-0.52061 0.65112,-0.36203 0.0918,0.0502 0.20348,0.0816 0.24849,0.0692 0.0785,-0.0215 0.32619,-0.29475 0.35457,-0.39111 0.008,-0.0256 -0.0953,-0.51469 -0.2285,-1.08727 -0.3006,-1.29241 -0.54092,-2.49555 -0.75379,-3.77388 -0.33595,-2.01745 -0.66866,-4.72144 -0.71966,-5.84883 -0.1262,-2.78875 0.35456,-5.49842 1.39238,-7.84818 0.40581,-0.91888 1.38106,-2.64528 1.84559,-3.26728 1.47791,-1.97878 3.32708,-3.19784 6.1754,-4.0711 1.71848,-0.52684 4.53478,-1.03952 6.15466,-1.12035 2.99302,-0.14934 6.47781,0.10482 12.08871,0.88168 3.17233,0.43922 4.10123,0.53488 5.37859,0.55385 3.33447,0.0495 6.29701,-0.8781 9.69948,-3.03714 1.89151,-1.20028 6.10899,-3.77874 6.61197,-4.04244 4.39734,-2.30533 8.02695,-3.24677 10.95526,-2.84157 0.58397,0.0807 1.65442,0.346 2.16243,0.53573 0.95089,0.35509 1.7235,0.9342 2.15481,1.61518 0.16167,0.25519 0.20638,0.36455 0.28772,0.70381 0.093,0.38746 0.098,0.3978 0.14075,0.29302 0.0246,-0.0597 0.0411,-0.1222 0.037,-0.13879 -0.0239,-0.0983 0.0898,-0.0156 0.29352,0.21394 l 0.2332,0.26262 0.1372,-0.0689 c 0.33072,-0.16606 0.54038,-0.11427 0.67792,0.16743 0.0774,0.15869 0.0653,0.2962 -0.0622,0.70423 -0.12616,0.40347 -0.22011,0.52104 -0.47152,0.58982 -0.22715,0.0622 -0.36708,0.004 -0.45981,-0.19096 -0.1291,-0.27137 -0.29945,-0.28708 -0.6591,-0.0609 -0.0989,0.0622 -0.18579,0.11489 -0.19339,0.11723 -0.008,0.002 0.006,-0.0673 0.0296,-0.15472 l 0.0433,-0.15894 -0.15251,0.16754 c -0.35822,0.39342 -0.62378,0.52701 -1.9495,0.98072 -1.16116,0.39737 -2.15816,0.78781 -2.94334,1.15264 -0.31385,0.14583 -0.73401,0.33793 -0.93368,0.42688 -0.43533,0.19393 -0.64966,0.32921 -0.96181,0.60705 -0.45231,0.40257 -0.8087,0.87432 -1.22448,1.62089 -0.68513,1.23018 -1.04222,2.59874 -1.02273,3.91942 0.004,0.32462 0.0335,0.48667 0.18449,1.0429 0.20614,0.75914 0.30247,0.9498 0.73297,1.45025 0.31933,0.37125 0.65542,0.63797 1.09723,0.87082 0.41206,0.21714 1.15891,0.46287 1.29431,0.42581 0.0565,-0.0155 2.11893,-0.52207 4.58321,-1.12582 11.72507,-2.87267 19.45683,-4.78552 31.10332,-7.69504 2.09857,-0.52425 6.93401,-1.74656 10.28665,-2.60024 2.19001,-0.55765 6.85359,-1.77274 11.52783,-3.00354 l 2.26062,-0.59523 0.14436,-0.26524 c 0.19206,-0.3528 0.35845,-0.73019 0.50008,-1.1343 0.17397,-0.4964 0.34819,-0.79136 0.55667,-0.94173 0.40503,-0.29229 0.84329,-0.38471 1.62039,-0.34173 0.56882,0.0315 1.65524,0.0145 1.67845,-0.0263 0.0394,-0.0684 0.031,-0.5044 -0.0111,-0.58642 -0.026,-0.0508 -0.13502,-0.11567 -0.26232,-0.15594 -0.19072,-0.0604 -0.22492,-0.0883 -0.27376,-0.2226 -0.0616,-0.16966 -0.051,-0.54845 0.0294,-1.0461 0.0631,-0.39063 0.0854,-0.40591 0.72054,-0.49472 0.49271,-0.0689 0.71236,-0.0641 1.03508,0.0229 0.26987,0.0727 0.40144,0.17281 0.48782,0.37122 0.0869,0.19959 0.13089,0.74299 0.08,0.98826 -0.0491,0.23711 -0.23335,0.45494 -0.43001,0.50875 -0.1658,0.0453 -0.1672,0.0518 -0.10041,0.44296 0.0359,0.2099 0.0381,0.21268 0.17474,0.21771 0.56659,0.0208 2.23627,0.0419 2.24202,0.0283 0.004,-0.009 0.0114,-0.11812 0.0166,-0.24183 0.0116,-0.27668 -0.0599,-0.39162 -0.27167,-0.43675 -0.0825,-0.0176 -0.1797,-0.0546 -0.21595,-0.0823 -0.15591,-0.11902 -0.17315,-0.51121 -0.0529,-1.20695 l 0.0613,-0.35508 0.45235,-0.0964 c 0.77236,-0.16462 1.38557,-0.0831 1.63026,0.21694 0.12454,0.15273 0.13679,0.18814 0.17715,0.51252 0.0485,0.38952 0.0318,0.60927 -0.0595,0.78673 -0.0805,0.15614 -0.32129,0.35331 -0.43322,0.35457 -0.10604,8.3e-4 -0.11451,0.051 -0.0637,0.37353 l 0.0377,0.23911 1.11539,0.0379 c 0.61344,0.0209 1.12415,0.03 1.13492,0.0204 0.0454,-0.0402 0.0426,-0.46976 -0.003,-0.55168 -0.0276,-0.049 -0.11035,-0.10196 -0.18393,-0.11767 -0.21404,-0.0457 -0.32839,-0.13005 -0.36691,-0.27087 -0.0448,-0.16367 -0.0153,-0.69415 0.06,-1.07773 l 0.0577,-0.29453 0.28046,-0.0719 c 0.64121,-0.16425 0.97999,-0.17559 1.43101,-0.0477 0.21492,0.0609 0.28576,0.10471 0.38181,0.23587 0.10328,0.14113 0.12331,0.20329 0.16134,0.50131 0.0591,0.46349 -0.003,0.77059 -0.19625,0.96828 -0.10703,0.10958 -0.18401,0.1555 -0.27113,0.16157 -0.13446,0.009 -0.13597,0.0183 -0.0733,0.44214 l 0.0305,0.20605 1.19618,0.0554 c 0.65786,0.0305 1.19965,0.0463 1.2039,0.035 0.0314,-0.0823 0.013,-0.54163 -0.0241,-0.60554 -0.0254,-0.0437 -0.14638,-0.1099 -0.2689,-0.1472 -0.19089,-0.058 -0.23019,-0.0879 -0.27442,-0.20898 -0.06,-0.16417 -0.0465,-0.55215 0.0359,-1.03984 0.07,-0.41438 0.0824,-0.42326 0.71713,-0.5142 0.71044,-0.10184 1.23245,-0.007 1.44624,0.26357 0.0869,0.1099 0.11087,0.18538 0.15492,0.48831 0.0677,0.46647 0.0287,0.71367 -0.1471,0.93292 -0.10836,0.13508 -0.17148,0.17862 -0.28891,0.19911 -0.1691,0.0295 -0.1687,0.0276 -0.0962,0.48473 l 0.0391,0.24656 1.14827,0.0699 c 0.63157,0.0384 1.15619,0.0635 1.16582,0.0558 0.0246,-0.0198 0.0415,-0.62545 0.0197,-0.70848 -0.01,-0.0374 -0.0727,-0.0878 -0.13967,-0.11185 -0.34203,-0.12265 -0.40726,-0.16617 -0.44254,-0.29525 -0.0414,-0.15135 -0.0185,-0.59768 0.0548,-1.06462 l 0.0519,-0.33119 0.47446,-0.10272 c 0.50882,-0.11024 0.84274,-0.10991 1.25487,8.1e-4 0.24822,0.0668 0.36332,0.15589 0.45167,0.34972 0.0827,0.18141 0.14145,0.7397 0.099,0.94137 -0.0658,0.31282 -0.29664,0.57988 -0.50502,0.58431 -0.11298,0.002 -0.10891,-0.0257 -0.0738,0.51303 0.0112,0.17142 0.0263,0.31426 0.0334,0.31739 0.008,0.003 0.32115,0.003 0.69767,5.1e-4 0.37657,-0.002 0.90567,5.1e-4 1.17585,0.008 0.27011,0.007 0.49294,0.007 0.49506,-8.3e-4 0.0216,-0.0763 0.01,-0.52267 -0.0166,-0.61202 -0.0273,-0.0929 -0.0767,-0.12908 -0.25204,-0.18455 -0.36286,-0.11477 -0.39829,-0.25255 -0.28567,-1.11191 0.0717,-0.54686 0.0782,-0.55478 0.52116,-0.62713 0.15046,-0.0245 0.35241,-0.0578 0.44879,-0.0738 0.36895,-0.0613 0.96415,0.0591 1.14779,0.23232 0.12841,0.12114 0.21169,0.37997 0.24351,0.75688 0.0419,0.4952 -0.12807,0.84824 -0.45074,0.93652 l -0.16899,0.0462 0.055,0.38517 c 0.0303,0.21184 0.0624,0.38893 0.0716,0.39352 0.009,0.004 0.18366,0.0416 0.38787,0.0823 0.62379,0.12438 0.98687,0.26186 1.33464,0.50534 0.95873,0.67124 1.53448,1.61252 1.62513,2.65694 0.0159,0.18427 0.0249,0.45195 0.0199,0.59485 -0.0113,0.31438 -0.14146,0.99581 -0.25753,1.34737 -0.22429,0.67938 -0.71864,1.27856 -1.38784,1.68222 -0.66209,0.39932 -1.60961,0.76476 -2.08118,0.80254 -0.98595,0.0791 -2.15906,-0.17804 -2.82258,-0.61866 -0.1986,-0.1319 -0.52776,-0.44317 -0.86279,-0.81589 -0.41919,-0.46632 -0.84691,-0.61356 -1.4458,-0.49766 -0.39501,0.0764 -0.58681,0.16807 -2.88198,1.37683 -2.38208,1.25451 -3.85461,2.01 -5.0232,2.57702 -0.8092,0.3927 -0.88545,0.42203 -1.66446,0.64029 -0.58724,0.1645 -0.85455,0.22363 -0.95237,0.21059 -0.1003,-0.0134 -0.21882,-0.0993 -0.45141,-0.32675 -0.46309,-0.45301 -1.13964,-1.02674 -1.49888,-1.27108 -0.3919,-0.2666 -0.73995,-0.43305 -1.27451,-0.60956 -0.79366,-0.26211 -0.94903,-0.28279 -1.59396,-0.21213 -0.32051,0.0351 -0.74375,0.075 -0.94043,0.0887 -0.37248,0.0259 -2.17975,0.5254 -34.60073,9.56517 -2.77176,0.77284 -9.21739,2.56695 -14.32367,3.9869 -5.10627,1.41996 -10.45742,2.91253 -11.89149,3.31681 -1.43404,0.40428 -3.47384,0.97236 -4.53282,1.26242 l -1.92549,0.52735 -0.0185,0.11428 c -0.01,0.0629 -0.0711,0.18085 -0.13556,0.26221 -0.63283,0.79946 -0.71923,2.62181 -0.20022,4.22258 0.61162,1.88628 1.73469,3.23072 3.26753,3.91166 0.39632,0.17615 0.95232,0.25828 2.18531,0.32319 0.6959,0.0366 2.1257,0.016 2.79745,-0.0404 0.82509,-0.0693 1.28709,0.011 1.82584,0.31648 0.62056,0.35203 0.94952,0.8014 1.10976,1.51586 0.1496,0.66704 0.0572,1.15628 -0.355,1.87976 -0.14331,0.25171 -0.3595,0.56792 -0.48024,0.70273 -0.48789,0.54473 -1.88813,1.44011 -3.1499,2.01426 -0.60232,0.27407 -2.48175,0.78779 -3.19152,0.87238 -1.44453,0.17212 -2.31791,0.17556 -6.01779,0.0237 -0.2266,-0.009 -0.8281,-0.0921 -1.33667,-0.18395 -1.4107,-0.25483 -2.23675,-0.33051 -3.34244,-0.3062 -1.78229,0.0391 -3.41868,0.44982 -5.01539,1.25852 -1.10212,0.55821 -2.05544,1.23702 -3.14007,2.23586 -0.35788,0.32959 -0.81064,0.71997 -1.00609,0.86745 -0.46494,0.35085 -0.98389,0.77193 -2.39064,1.93979 -2.25058,1.8684 -3.35305,2.70792 -4.75028,3.61728 -2.56729,1.67089 -5.08147,2.76984 -7.67934,3.35661 -1.77774,0.40151 -2.97247,0.5669 -4.21322,0.58321 -2.30882,0.0303 -4.05216,-0.4225 -6.3925,-1.66034 -1.00125,-0.5296 -1.05189,-0.56426 -1.80496,-1.23662 -1.70735,-1.52446 -2.51837,-2.45552 -3.42333,-3.93014 -1.12503,-1.83323 -2.12461,-4.23349 -2.8174,-6.76546 -0.21152,-0.77304 -0.67216,-2.40999 -1.02364,-3.6377 l -0.63908,-2.23217 -0.29397,-0.0789 -0.29398,-0.0789 -0.11975,0.18727 c -0.132,0.20634 -0.24578,0.25931 -0.4593,0.21374 -0.24362,-0.0519 -0.34888,-0.19287 -0.46393,-0.62133 -0.0737,-0.27445 -0.0935,-0.42226 -0.0712,-0.53413 z"
     id="path3250"
     sodipodi:nodetypes="csssssssssssssssssssscccsssssscccssssssssssssscccssssssssssssssssssscccsssscccsssscccssssscccsssssssssscccsssscccsssssssssssssssscccssssssssssssssssssssssscccssssssssssssssssssssssssscccccssc" />
  <g
     id="g3873">
    <path
       sodipodi:nodetypes="ccccccccccccccc"
       inkscape:connector-curvature="0"
       id="path3830"
       d="M 85.773653,-14.509381 110.11884,117.56622 -21.956757,93.221026 104.59118,138.17142 17.465985,240.3977 119.69226,153.27249 136.81622,201.49244 174.8009,438.61004 355.15225,353.63547 156.08067,150.66156 272.37306,172.09003 145.80159,127.13964 232.92679,24.936883 130.72404,112.06209 z"
       style="fill:url(#linearGradient3841);stroke:none;fill-opacity:1;filter:url(#filter3853)" />
    <path
       transform="matrix(0.77069935,-0.20064204,0.20064204,0.77069935,-10.783852,70.628776)"
       d="m 206.14358,80.732563 -51.41214,35.406577 51.41214,35.40657 -56.36906,-26.82094 -4.95692,62.22752 -4.95692,-62.22752 -56.369069,26.82094 51.412149,-35.40657 -51.412149,-35.406577 56.369069,26.820937 4.95692,-62.227511 4.95692,62.227511 z"
       inkscape:randomized="0"
       inkscape:rounded="0"
       inkscape:flatsided="false"
       sodipodi:arg2="3.7025504e-17"
       sodipodi:arg1="-0.52359878"
       sodipodi:r2="9.9138403"
       sodipodi:r1="70.813148"
       sodipodi:cy="116.13914"
       sodipodi:cx="144.8176"
       sodipodi:sides="6"
       id="path3843"
       style="fill:#ffffff;fill-opacity:1;stroke:none;filter:url(#filter3869)"
       sodipodi:type="star" />
  </g>
  <g
     id="g3877"
     transform="matrix(0.56401321,0.82576576,-0.82576576,0.56401321,517.83463,-60.061071)">
    <path
       style="fill:url(#linearGradient3883);fill-opacity:1.0;stroke:none;filter:url(#filter3853)"
       d="M 85.773653,-14.509381 110.11884,117.56622 -21.956757,93.221026 104.59118,138.17142 17.465985,240.3977 119.69226,153.27249 136.81622,201.49244 174.8009,438.61004 355.15225,353.63547 156.08067,150.66156 272.37306,172.09003 145.80159,127.13964 232.92679,24.936883 130.72404,112.06209 z"
       id="path3879"
       inkscape:connector-curvature="0"
       sodipodi:nodetypes="ccccccccccccccc" />
    <path
       sodipodi:type="star"
       style="fill:#ffffff;fill-opacity:1;stroke:none;filter:url(#filter3869)"
       id="path3881"
       sodipodi:sides="6"
       sodipodi:cx="144.8176"
       sodipodi:cy="116.13914"
       sodipodi:r1="70.813148"
       sodipodi:r2="9.9138403"
       sodipodi:arg1="-0.52359878"
       sodipodi:arg2="3.7025504e-17"
       inkscape:flatsided="false"
       inkscape:rounded="0"
       inkscape:randomized="0"
       d="m 206.14358,80.732563 -51.41214,35.406577 51.41214,35.40657 -56.36906,-26.82094 -4.95692,62.22752 -4.95692,-62.22752 -56.369069,26.82094 51.412149,-35.40657 -51.412149,-35.406577 56.369069,26.820937 4.95692,-62.227511 4.95692,62.227511 z"
       transform="matrix(0.77069935,-0.20064204,0.20064204,0.77069935,-10.783852,70.628776)" />
  </g>
  <g
     transform="matrix(0.66878841,0.7434528,-0.7434528,0.66878841,675.2038,-81.671637)"
     id="g3885">
    <path
       sodipodi:nodetypes="ccccccccccccccc"
       inkscape:connector-curvature="0"
       id="path3887"
       d="M 85.773653,-14.509381 110.11884,117.56622 -21.956757,93.221026 104.59118,138.17142 17.465985,240.3977 119.69226,153.27249 136.81622,201.49244 174.8009,438.61004 355.15225,353.63547 156.08067,150.66156 272.37306,172.09003 145.80159,127.13964 232.92679,24.936883 130.72404,112.06209 z"
       style="fill:url(#linearGradient3891);fill-opacity:1;stroke:none;filter:url(#filter3853)" />
    <path
       transform="matrix(0.77069935,-0.20064204,0.20064204,0.77069935,-10.783852,70.628776)"
       d="m 206.14358,80.732563 -51.41214,35.406577 51.41214,35.40657 -56.36906,-26.82094 -4.95692,62.22752 -4.95692,-62.22752 -56.369069,26.82094 51.412149,-35.40657 -51.412149,-35.406577 56.369069,26.820937 4.95692,-62.227511 4.95692,62.227511 z"
       inkscape:randomized="0"
       inkscape:rounded="0"
       inkscape:flatsided="false"
       sodipodi:arg2="3.7025504e-17"
       sodipodi:arg1="-0.52359878"
       sodipodi:r2="9.9138403"
       sodipodi:r1="70.813148"
       sodipodi:cy="116.13914"
       sodipodi:cx="144.8176"
       sodipodi:sides="6"
       id="path3889"
       style="fill:#ffffff;fill-opacity:1;stroke:none;filter:url(#filter3869)"
       sodipodi:type="star" />
  </g>
  <path
     id="path3909"
     style="fill:none;stroke:#ffffff;stroke-width:1px;stroke-linecap:butt;stroke-linejoin:miter;stroke-opacity:1;filter:url(#filter3928)"
     d="m 196.53816,617.25399 6.89608,-0.86201 23.27425,-14.9415 7.75809,-7.47075 10.34411,-3.44803 12.35547,-18.96421 m 62.92669,-29.59566 c -3.1607,-0.28734 -3.1607,-0.86201 -17.24018,8.62009 m -27.5714,3.20511 c -2.82349,1.46124 -5.03089,4.06574 -5.75964,8.00102 -1.43668,7.75808 -1.14934,8.04542 -1.14934,8.04542 m 59.76599,-29.59566 11.20612,8.90743 4.31005,1.14935 3.1607,-1.43669 1.43668,1.43669 4.02271,-2.01136 1.14935,0.57467 m 1.72402,0.86201 28.15897,-7.75808 1.43669,-2.87337 22.69958,0.57468 0,0 0,0 m -105.70025,-42.2813 12.67288,-3.94525 c 9.52652,-6.98529 21.01821,-8.04159 24.07848,2.73133 l 2.53459,6.67656 m -65.76049,1.47627 13.21748,-3.73537 8.62009,2.29869" />
</svg>
