<?xml version="1.0" encoding="UTF-8" standalone="no"?>
<!-- Created with Sodipodi ("http://www.sodipodi.com/") -->
<svg
   xmlns:dc="http://purl.org/dc/elements/1.1/"
   xmlns:cc="http://creativecommons.org/ns#"
   xmlns:rdf="http://www.w3.org/1999/02/22-rdf-syntax-ns#"
   xmlns:svg="http://www.w3.org/2000/svg"
   xmlns="http://www.w3.org/2000/svg"
   xmlns:xlink="http://www.w3.org/1999/xlink"
   xmlns:sodipodi="http://sodipodi.sourceforge.net/DTD/sodipodi-0.dtd"
   xmlns:inkscape="http://www.inkscape.org/namespaces/inkscape"
   version="1.0"
   x="0"
   y="0"
   width="800.000000"
   height="600.000000"
   id="svg559"
   sodipodi:version="0.32"
   inkscape:version="0.46"
   sodipodi:docname="score_bg.svg"
   sodipodi:docbase="/home/yoda/UltraStar/sf/UltraStar-ng/themes/lima"
   inkscape:output_extension="org.inkscape.output.svg.inkscape">
  <metadata
     id="metadata35">
    <rdf:RDF>
      <cc:Work
         rdf:about="">
        <dc:format>image/svg+xml</dc:format>
        <dc:type
           rdf:resource="http://purl.org/dc/dcmitype/StillImage" />
      </cc:Work>
    </rdf:RDF>
  </metadata>
  <sodipodi:namedview
     inkscape:window-height="722"
     inkscape:window-width="1267"
     inkscape:pageshadow="2"
     inkscape:pageopacity="0.0"
     guidetolerance="10.0"
     gridtolerance="10.0"
     objecttolerance="10.0"
     borderopacity="1.0"
     bordercolor="#666666"
     pagecolor="#ffffff"
     id="base"
     inkscape:zoom="1.26"
     inkscape:cx="434.85221"
     inkscape:cy="222.02822"
     inkscape:window-x="8"
     inkscape:window-y="49"
     inkscape:current-layer="svg559"
     showgrid="false" />
  <defs
     id="defs561">
    <inkscape:perspective
       sodipodi:type="inkscape:persp3d"
       inkscape:vp_x="0 : 300 : 1"
       inkscape:vp_y="0 : 1000 : 0"
       inkscape:vp_z="800 : 300 : 1"
       inkscape:persp3d-origin="400 : 200 : 1"
       id="perspective23" />
    <linearGradient
       gradientTransform="matrix(2.073717,0,0,2.3130972,-698.19011,-588.32884)"
       y2="363"
       x2="490"
       y1="472"
       x1="698.49146"
       gradientUnits="userSpaceOnUse"
       id="linearGradient2577"
       xlink:href="#linearGradient2561"
       inkscape:collect="always" />
    <linearGradient
       y2="363"
       x2="490"
       y1="472"
       x1="698.49146"
       gradientUnits="userSpaceOnUse"
       id="linearGradient2573"
       xlink:href="#linearGradient2561"
       inkscape:collect="always" />
    <linearGradient
       gradientUnits="userSpaceOnUse"
       y2="363"
       x2="490"
       y1="472"
       x1="698.49146"
       id="linearGradient2567"
       xlink:href="#linearGradient2561"
       inkscape:collect="always" />
    <inkscape:perspective
       sodipodi:type="inkscape:persp3d"
       inkscape:vp_x="0 : 526.18109 : 1"
       inkscape:vp_y="0 : 1000 : 0"
       inkscape:vp_z="744.09448 : 526.18109 : 1"
       inkscape:persp3d-origin="372.04724 : 350.78739 : 1"
       id="perspective2613" />
    <inkscape:perspective
       sodipodi:type="inkscape:persp3d"
       inkscape:vp_x="0 : 526.18109 : 1"
       inkscape:vp_y="0 : 1000 : 0"
       inkscape:vp_z="744.09448 : 526.18109 : 1"
       inkscape:persp3d-origin="372.04724 : 350.78739 : 1"
       id="perspective2515" />
    <linearGradient
       y2="260.4765"
       x2="358.07056"
       y1="260.4765"
       x1="44.868057"
       gradientTransform="matrix(1,0,0,0.820512,30.865771,169.0347)"
       gradientUnits="userSpaceOnUse"
       id="linearGradient2245"
       xlink:href="#linearGradient6499"
       inkscape:collect="always" />
    <linearGradient
       y2="260.4765"
       x2="358.07056"
       y1="260.4765"
       x1="44.868057"
       gradientTransform="matrix(1,0,0,0.820512,30.865771,97.46637)"
       gradientUnits="userSpaceOnUse"
       id="linearGradient2243"
       xlink:href="#linearGradient6499"
       inkscape:collect="always" />
    <linearGradient
       y2="260.4765"
       x2="358.07056"
       y1="260.4765"
       x1="44.868057"
       gradientTransform="matrix(1,0,0,0.820512,30.865771,235.2241)"
       gradientUnits="userSpaceOnUse"
       id="linearGradient2241"
       xlink:href="#linearGradient6499"
       inkscape:collect="always" />
    <linearGradient
       y2="260.4765"
       x2="358.07056"
       y1="260.4765"
       x1="44.868057"
       gradientTransform="matrix(1,0,0,0.820512,30.865771,235.2241)"
       gradientUnits="userSpaceOnUse"
       id="linearGradient2268"
       xlink:href="#linearGradient6499"
       inkscape:collect="always" />
    <linearGradient
       y2="260.4765"
       x2="358.07056"
       y1="260.4765"
       x1="44.868057"
       gradientTransform="matrix(1,0,0,0.820512,30.865771,169.0347)"
       gradientUnits="userSpaceOnUse"
       id="linearGradient2257"
       xlink:href="#linearGradient6499"
       inkscape:collect="always" />
    <linearGradient
       y2="260.4765"
       x2="358.07056"
       y1="260.4765"
       x1="44.868057"
       gradientTransform="matrix(1,0,0,0.820512,30.865771,97.46637)"
       gradientUnits="userSpaceOnUse"
       id="linearGradient2246"
       xlink:href="#linearGradient6499"
       inkscape:collect="always" />
    <linearGradient
       y2="260.4765"
       x2="358.07056"
       y1="260.4765"
       x1="44.868057"
       gradientTransform="matrix(1,0,0,0.820512,30.865771,26.07382)"
       gradientUnits="userSpaceOnUse"
       id="linearGradient2234"
       xlink:href="#linearGradient6499"
       inkscape:collect="always" />
    <linearGradient
       y2="260.4765"
       x2="358.07056"
       y1="260.4765"
       x1="44.868057"
       gradientTransform="matrix(1,0,0,0.820512,49.94643,155.9343)"
       gradientUnits="userSpaceOnUse"
       id="linearGradient6449"
       xlink:href="#linearGradient6499"
       inkscape:collect="always" />
    <linearGradient
       y2="260.4765"
       x2="358.07056"
       y1="260.4765"
       x1="44.868057"
       gradientTransform="matrix(1,0,0,0.820512,49.94643,155.9343)"
       gradientUnits="userSpaceOnUse"
       id="linearGradient6427"
       xlink:href="#linearGradient6499"
       inkscape:collect="always" />
    <linearGradient
       y2="260.4765"
       x2="358.07056"
       y1="260.4765"
       x1="44.868057"
       gradientTransform="matrix(1,0,0,0.820512,49.94643,155.9343)"
       gradientUnits="userSpaceOnUse"
       id="linearGradient6425"
       xlink:href="#linearGradient6499"
       inkscape:collect="always" />
    <linearGradient
       y2="260.4765"
       x2="358.07056"
       y1="260.4765"
       x1="44.868057"
       gradientTransform="matrix(1,0,0,0.820512,49.94643,155.9343)"
       gradientUnits="userSpaceOnUse"
       id="linearGradient6423"
       xlink:href="#linearGradient6499"
       inkscape:collect="always" />
    <linearGradient
       y2="260.4765"
       x2="358.07056"
       y1="260.4765"
       x1="44.868057"
       gradientTransform="matrix(1,0,0,0.820512,49.94643,155.9343)"
       gradientUnits="userSpaceOnUse"
       id="linearGradient6391"
       xlink:href="#linearGradient6499"
       inkscape:collect="always" />
    <linearGradient
       y2="260.4765"
       x2="358.07056"
       y1="260.4765"
       x1="47.094612"
       gradientTransform="matrix(1,0,0,0.820512,49.94643,82.66873)"
       gradientUnits="userSpaceOnUse"
       id="linearGradient7346"
       xlink:href="#linearGradient6499"
       inkscape:collect="always" />
    <linearGradient
       y2="260.4765"
       x2="358.07056"
       y1="260.4765"
       x1="44.868057"
       gradientTransform="matrix(1,0,0,0.820512,49.94643,155.9343)"
       gradientUnits="userSpaceOnUse"
       id="linearGradient7335"
       xlink:href="#linearGradient6499"
       inkscape:collect="always" />
    <linearGradient
       y2="260.4765"
       x2="358.07056"
       y1="260.4765"
       x1="44.868057"
       gradientTransform="matrix(1,0,0,0.820512,12.9075,130.1193)"
       gradientUnits="userSpaceOnUse"
       id="linearGradient7256"
       xlink:href="#linearGradient6499"
       inkscape:collect="always" />
    <linearGradient
       gradientTransform="matrix(1,0,0,0.820512,12.9075,56.85372)"
       gradientUnits="userSpaceOnUse"
       y2="260.4765"
       x2="358.07056"
       y1="260.4765"
       x1="47.094612"
       id="linearGradient7248"
       xlink:href="#linearGradient6499"
       inkscape:collect="always" />
    <linearGradient
       y2="219.56401"
       x2="372.94315"
       y1="100.34026"
       x1="370.92285"
       gradientTransform="matrix(0.755727,0,0,0.755727,667.33502,314.78829)"
       gradientUnits="userSpaceOnUse"
       id="linearGradient3474"
       xlink:href="#linearGradient6499"
       inkscape:collect="always" />
    <linearGradient
       inkscape:collect="always"
       id="linearGradient6499">
      <stop
         style="stop-color:white;stop-opacity:1;"
         offset="0"
         id="stop6501" />
      <stop
         style="stop-color:white;stop-opacity:0;"
         offset="1"
         id="stop6503" />
    </linearGradient>
    <inkscape:perspective
       id="perspective63"
       inkscape:persp3d-origin="400 : 200 : 1"
       inkscape:vp_z="800 : 300 : 1"
       inkscape:vp_y="0 : 1000 : 0"
       inkscape:vp_x="0 : 300 : 1"
       sodipodi:type="inkscape:persp3d" />
    <linearGradient
       id="linearGradient2561"
       inkscape:collect="always">
      <stop
         id="stop2563"
         offset="0"
         style="stop-color:#0088aa;stop-opacity:1;" />
      <stop
         id="stop2565"
         offset="1"
         style="stop-color:#0088aa;stop-opacity:0;" />
    </linearGradient>
  </defs>
  <rect
     style="color:black;fill:#00aad4;fill-opacity:1;fill-rule:nonzero;stroke:none;stroke-width:3;stroke-linecap:round;stroke-linejoin:miter;marker:none;marker-start:none;marker-mid:none;marker-end:none;stroke-miterlimit:4;stroke-dasharray:none;stroke-dashoffset:0;stroke-opacity:1;visibility:visible;display:block;overflow:visible"
     id="rect2828"
     width="804.80463"
     height="602.76892"
     x="-3.480546"
     y="0.51224983" />
  <path
     sodipodi:type="star"
     style="opacity:0.22790701;color:black;fill:white;fill-opacity:1;fill-rule:nonzero;stroke:white;stroke-width:1.70000005;stroke-linecap:round;stroke-linejoin:round;marker:none;marker-start:none;marker-mid:none;marker-end:none;stroke-miterlimit:4;stroke-dasharray:none;stroke-dashoffset:0;stroke-opacity:1;visibility:visible;display:block;overflow:visible"
     id="path5574"
     sodipodi:sides="5"
     sodipodi:cx="141.42136"
     sodipodi:cy="350.13498"
     sodipodi:r1="78.688225"
     sodipodi:r2="45.665279"
     sodipodi:arg1="1.0612041"
     sodipodi:arg2="1.6895226"
     inkscape:flatsided="false"
     inkscape:rounded="0"
     inkscape:randomized="0"
     d="M 179.80715,418.82535 L 136.01242,395.47879 L 87.954791,407.86853 L 96.625376,359.00278 L 69.991407,317.1259 L 119.14486,310.27177 L 150.74179,272.0007 L 172.4497,316.63036 L 218.61165,334.85441 L 182.87443,369.29119 L 179.80715,418.82535 z "
     transform="matrix(0.494335,-0.204386,0.204386,0.494335,-40.85519,390.7709)" />
  <path
     transform="matrix(0.430025,1.278809e-2,-1.278809e-2,0.430025,3.473491,325.8555)"
     d="M 179.80715,418.82535 L 136.01242,395.47879 L 87.954791,407.86853 L 96.625376,359.00278 L 69.991407,317.1259 L 119.14486,310.27177 L 150.74179,272.0007 L 172.4497,316.63036 L 218.61165,334.85441 L 182.87443,369.29119 L 179.80715,418.82535 z "
     inkscape:randomized="0"
     inkscape:rounded="0"
     inkscape:flatsided="false"
     sodipodi:arg2="1.6895226"
     sodipodi:arg1="1.0612041"
     sodipodi:r2="45.665279"
     sodipodi:r1="78.688225"
     sodipodi:cy="350.13498"
     sodipodi:cx="141.42136"
     sodipodi:sides="5"
     id="path5576"
     style="opacity:0.22790701;color:black;fill:white;fill-opacity:1;fill-rule:nonzero;stroke:white;stroke-width:1.70000005;stroke-linecap:round;stroke-linejoin:round;marker:none;marker-start:none;marker-mid:none;marker-end:none;stroke-miterlimit:4;stroke-dasharray:none;stroke-dashoffset:0;stroke-opacity:1;visibility:visible;display:block;overflow:visible"
     sodipodi:type="star" />
  <path
     sodipodi:type="star"
     style="opacity:0.22790701;color:black;fill:white;fill-opacity:1;fill-rule:nonzero;stroke:white;stroke-width:1.70000005;stroke-linecap:round;stroke-linejoin:round;marker:none;marker-start:none;marker-mid:none;marker-end:none;stroke-miterlimit:4;stroke-dasharray:none;stroke-dashoffset:0;stroke-opacity:1;visibility:visible;display:block;overflow:visible"
     id="path5578"
     sodipodi:sides="5"
     sodipodi:cx="141.42136"
     sodipodi:cy="350.13498"
     sodipodi:r1="78.688225"
     sodipodi:r2="45.665279"
     sodipodi:arg1="1.0612041"
     sodipodi:arg2="1.6895226"
     inkscape:flatsided="false"
     inkscape:rounded="0"
     inkscape:randomized="0"
     d="M 179.80715,418.82535 L 136.01242,395.47879 L 87.954791,407.86853 L 96.625376,359.00278 L 69.991407,317.1259 L 119.14486,310.27177 L 150.74179,272.0007 L 172.4497,316.63036 L 218.61165,334.85441 L 182.87443,369.29119 L 179.80715,418.82535 z "
     transform="matrix(0.308608,-0.157328,0.157328,0.308608,10.40351,345.4728)" />
  <path
     transform="matrix(0.218514,5.453603e-2,-5.453603e-2,0.218514,55.30272,306.0341)"
     d="M 179.80715,418.82535 L 136.01242,395.47879 L 87.954791,407.86853 L 96.625376,359.00278 L 69.991407,317.1259 L 119.14486,310.27177 L 150.74179,272.0007 L 172.4497,316.63036 L 218.61165,334.85441 L 182.87443,369.29119 L 179.80715,418.82535 z "
     inkscape:randomized="0"
     inkscape:rounded="0"
     inkscape:flatsided="false"
     sodipodi:arg2="1.6895226"
     sodipodi:arg1="1.0612041"
     sodipodi:r2="45.665279"
     sodipodi:r1="78.688225"
     sodipodi:cy="350.13498"
     sodipodi:cx="141.42136"
     sodipodi:sides="5"
     id="path5580"
     style="opacity:0.22790701;color:black;fill:white;fill-opacity:1;fill-rule:nonzero;stroke:white;stroke-width:1.70000005;stroke-linecap:round;stroke-linejoin:round;marker:none;marker-start:none;marker-mid:none;marker-end:none;stroke-miterlimit:4;stroke-dasharray:none;stroke-dashoffset:0;stroke-opacity:1;visibility:visible;display:block;overflow:visible"
     sodipodi:type="star" />
  <path
     sodipodi:type="star"
     style="opacity:0.22790701;color:black;fill:white;fill-opacity:1;fill-rule:nonzero;stroke:white;stroke-width:1.70000005;stroke-linecap:round;stroke-linejoin:round;marker:none;marker-start:none;marker-mid:none;marker-end:none;stroke-miterlimit:4;stroke-dasharray:none;stroke-dashoffset:0;stroke-opacity:1;visibility:visible;display:block;overflow:visible"
     id="path5582"
     sodipodi:sides="5"
     sodipodi:cx="141.42136"
     sodipodi:cy="350.13498"
     sodipodi:r1="78.688225"
     sodipodi:r2="45.665279"
     sodipodi:arg1="1.0612041"
     sodipodi:arg2="1.6895226"
     inkscape:flatsided="false"
     inkscape:rounded="0"
     inkscape:randomized="0"
     d="M 179.80715,418.82535 L 136.01242,395.47879 L 87.954791,407.86853 L 96.625376,359.00278 L 69.991407,317.1259 L 119.14486,310.27177 L 150.74179,272.0007 L 172.4497,316.63036 L 218.61165,334.85441 L 182.87443,369.29119 L 179.80715,418.82535 z "
     transform="matrix(0.164046,9.96525e-3,-9.96525e-3,0.164046,79.55929,302.6636)" />
  <path
     transform="matrix(0.76534,5.189341e-2,-5.189341e-2,0.76534,-45.40995,328.4406)"
     d="M 179.80715,418.82535 L 136.01242,395.47879 L 87.954791,407.86853 L 96.625376,359.00278 L 69.991407,317.1259 L 119.14486,310.27177 L 150.74179,272.0007 L 172.4497,316.63036 L 218.61165,334.85441 L 182.87443,369.29119 L 179.80715,418.82535 z "
     inkscape:randomized="0"
     inkscape:rounded="0"
     inkscape:flatsided="false"
     sodipodi:arg2="1.6895226"
     sodipodi:arg1="1.0612041"
     sodipodi:r2="45.665279"
     sodipodi:r1="78.688225"
     sodipodi:cy="350.13498"
     sodipodi:cx="141.42136"
     sodipodi:sides="5"
     id="path6523"
     style="opacity:0.22790701;color:black;fill:white;fill-opacity:1;fill-rule:nonzero;stroke:white;stroke-width:1.70000005;stroke-linecap:round;stroke-linejoin:round;marker:none;marker-start:none;marker-mid:none;marker-end:none;stroke-miterlimit:4;stroke-dasharray:none;stroke-dashoffset:0;stroke-opacity:1;visibility:visible;display:block;overflow:visible"
     sodipodi:type="star" />
  <text
     xml:space="preserve"
     style="font-size:48;font-style:normal;font-weight:normal;fill:#000000;fill-opacity:1;stroke:none;stroke-width:1px;stroke-linecap:butt;stroke-linejoin:miter;stroke-opacity:1;font-family:Trebuchet MS"
     x="105.2536"
     y="261.2139"
     id="text6525"><tspan
       sodipodi:role="line"
       id="tspan6527"
       x="105.2536"
       y="261.2139">Score:</tspan></text>
  <rect
     style="opacity:1;fill:#000000;fill-opacity:0.14025975;stroke:#323232;stroke-width:2;stroke-linecap:square;stroke-linejoin:round;stroke-miterlimit:4;stroke-dasharray:none;stroke-dashoffset:0;stroke-opacity:1"
     id="rect2174"
     width="120.25723"
     height="298.035"
     x="108.52218"
     y="279.1571" />
  <g
     id="g2480"
     transform="translate(-41.8224,94.477307)">
    <path
       id="path2559"
       d="M 304.12429,231.51955 C 271.99198,231.51955 300.97433,267.6829 369.19968,317.24871 C 363.6201,317.36967 359.01402,317.90582 355.5977,318.83897 L 352.23044,316.67044 C 353.97406,315.49159 351.6354,312.36426 345.97534,308.71917 C 338.74311,304.06158 328.82748,300.33417 323.68834,300.33419 C 318.54915,300.33419 320.14442,304.06156 327.37671,308.71917 C 332.69667,312.14523 339.60449,315.13244 344.89491,316.45359 L 351.18047,320.50151 C 346.39832,323.23959 347.16292,327.47119 354.41145,332.13928 C 366.20072,339.7316 391.17219,345.94539 412.36761,346.88527 C 414.76852,348.45464 417.07383,349.99956 419.53375,351.58375 C 471.51427,385.05936 526.71549,415.38492 573.6193,437.16835 C 565.09686,440.97476 569.39858,450.35073 586.41797,461.3113 C 608.67103,475.64232 644.20438,487.26133 665.72473,487.26136 C 679.63072,487.26136 684.17986,482.34864 679.74088,475.04531 C 698.61697,483.04403 719.92651,488.56248 734.62246,488.56248 C 755.82157,488.56248 755.46303,477.23575 733.76629,463.26297 C 718.06506,453.15134 695.46137,444.40314 676.15227,440.34886 C 656.28683,418.38389 616.08849,386.72694 561.51858,351.58375 C 561.06458,351.29137 560.62614,351.00823 560.17168,350.71634 C 576.65595,349.43997 580.45608,342.7875 567.96237,334.74151 C 554.85339,326.29928 528.5007,319.31988 507.50215,318.54983 C 421.00906,268.31558 336.53783,231.51957 304.12429,231.51955 z"
       style="fill:url(#linearGradient2577);fill-opacity:1" />
    <path
       sodipodi:nodetypes="cssc"
       id="path3759"
       d="M 634.72499,320.97981 C 596.97788,310.29776 581.33688,349.37132 589.1299,372.71556 C 598.24975,400.03436 601.05424,433.53083 584.63084,458.16916 C 572.86252,475.82398 518.43796,482.43392 519.1246,507.24694"
       style="fill:none;fill-opacity:0.75;fill-rule:evenodd;stroke:#ffffff;stroke-width:1.98980319;stroke-linecap:round;stroke-linejoin:round;stroke-miterlimit:4;stroke-dasharray:none;stroke-opacity:1" />
    <path
       id="path2436"
       d="M 695.41252,231.37498 C 663.28021,231.37498 636.10852,267.53834 627.36868,317.10415 C 621.60128,317.2251 616.16266,317.76125 611.29737,318.6944 L 611.29737,316.52587 C 614.87146,315.34702 617.38892,312.21969 617.38892,308.5746 C 617.38892,303.91702 613.26116,300.1896 608.12199,300.18962 C 602.98282,300.18962 598.79025,303.91699 598.79027,308.5746 C 598.79027,312.00067 601.0596,314.98787 604.29858,316.30902 L 604.29858,320.35694 C 595.26476,323.09502 589.45854,327.32662 589.45854,331.99471 C 589.45854,339.58703 604.7813,345.80082 624.51732,346.7407 C 624.48132,348.31007 624.38771,349.85499 624.38771,351.43918 C 624.38771,384.91479 632.49976,415.24035 645.57851,437.02378 C 631.14554,440.83019 620.88835,450.20617 620.88831,461.16673 C 620.88831,475.49776 638.3798,487.11677 659.90011,487.11679 C 673.80611,487.11679 685.98364,482.20407 692.88518,474.90074 C 699.34097,482.89946 712.08151,488.41791 726.77749,488.41791 C 747.97658,488.41791 765.20608,477.09118 765.20606,463.11841 C 765.20606,453.00677 756.18651,444.25857 743.17281,440.20429 C 757.41433,418.23932 766.3725,386.58237 766.37252,351.43918 C 766.37252,351.14681 766.37377,350.86366 766.37252,350.57177 C 784.83872,349.2954 798.96872,342.64294 798.96876,334.59694 C 798.96876,326.15472 783.45358,319.17532 763.65077,318.40526 C 755.16083,268.17101 727.826,231.375 695.41252,231.37498 z"
       style="fill:#241c1c;fill-opacity:1" />
  </g>
</svg>
