<?xml version="1.0" encoding="UTF-8" standalone="no"?>
<!-- Created with Sodipodi ("http://www.sodipodi.com/") -->

<svg
   xmlns:dc="http://purl.org/dc/elements/1.1/"
   xmlns:cc="http://creativecommons.org/ns#"
   xmlns:rdf="http://www.w3.org/1999/02/22-rdf-syntax-ns#"
   xmlns:svg="http://www.w3.org/2000/svg"
   xmlns="http://www.w3.org/2000/svg"
   xmlns:xlink="http://www.w3.org/1999/xlink"
   xmlns:sodipodi="http://sodipodi.sourceforge.net/DTD/sodipodi-0.dtd"
   xmlns:inkscape="http://www.inkscape.org/namespaces/inkscape"
   version="1.0"
   x="0"
   y="0"
   width="1000"
   height="800"
   id="svg559"
   sodipodi:version="0.32"
   inkscape:version="0.48.0 r9654"
   sodipodi:docname="blue_band.svg"
   inkscape:output_extension="org.inkscape.output.svg.inkscape">
  <metadata
     id="metadata35">
    <rdf:RDF>
      <cc:Work
         rdf:about="">
        <dc:format>image/svg+xml</dc:format>
        <dc:type
           rdf:resource="http://purl.org/dc/dcmitype/StillImage" />
      </cc:Work>
    </rdf:RDF>
  </metadata>
  <sodipodi:namedview
     inkscape:window-height="1026"
     inkscape:window-width="1920"
     inkscape:pageshadow="2"
     inkscape:pageopacity="0.0"
     guidetolerance="10.0"
     gridtolerance="10.0"
     objecttolerance="10.0"
     borderopacity="1.0"
     bordercolor="#666666"
     pagecolor="#ffffff"
     id="base"
     inkscape:zoom="0.87006002"
     inkscape:cx="551.04461"
     inkscape:cy="380.19238"
     inkscape:window-x="0"
     inkscape:window-y="0"
     inkscape:current-layer="g5712"
     showgrid="false"
     showguides="true"
     inkscape:guide-bbox="true"
     inkscape:window-maximized="1"
     borderlayer="true" />
  <defs
     id="defs561">
    <linearGradient
       id="linearGradient5859">
      <stop
         style="stop-color:#3011ff;stop-opacity:0.03045685;"
         offset="0"
         id="stop5861" />
      <stop
         id="stop5867"
         offset="0.5"
         style="stop-color:#2f0ed4;stop-opacity:0.13197969;" />
      <stop
         style="stop-color:#3700f8;stop-opacity:0.05076142;"
         offset="1"
         id="stop5863" />
    </linearGradient>
    <filter
       id="filter5083"
       inkscape:collect="always">
      <feGaussianBlur
         id="feGaussianBlur5085"
         stdDeviation="2.8444007"
         inkscape:collect="always" />
    </filter>
    <filter
       inkscape:collect="always"
       id="filter5839">
      <feGaussianBlur
         inkscape:collect="always"
         stdDeviation="4.1497249"
         id="feGaussianBlur5841" />
    </filter>
    <radialGradient
       inkscape:collect="always"
       xlink:href="#linearGradient5859"
       id="radialGradient5865"
       cx="862.00952"
       cy="-39.022575"
       fx="862.00952"
       fy="-39.022575"
       r="156.0404"
       gradientUnits="userSpaceOnUse"
       gradientTransform="matrix(0.99999689,-0.00249522,0.00249523,1,0.10005383,2.1509078)" />
  </defs>
  <text
     xml:space="preserve"
     style="font-size:21.12607765px;font-style:normal;font-weight:normal;fill:#000000;fill-opacity:1;stroke:none;font-family:Bitstream Vera Sans"
     x="225.09085"
     y="770.20593"
     id="text2508-0"
     transform="scale(1.181198,0.84659815)"><tspan
       sodipodi:role="line"
       id="tspan2510-6"
       x="225.09085"
       y="770.20593" /></text>
  <g
     id="g3955"
     transform="matrix(1.0023828,0,0,0.71843624,16.811257,63.593811)"
     style="opacity:0.6;filter:url(#filter5083)" />
  <g
     id="g4892"
     transform="matrix(0.99958974,0,0,0.71843624,-0.03697497,106.10154)">
    <g
       transform="matrix(1.2468256,0,0,1.1986102,1.2039301,52.246604)"
       id="g2836" />
    <g
       transform="matrix(1.2468256,0,0,1.1986102,0.760128,231.91957)"
       id="g2209" />
    <g
       transform="matrix(5.0734563,0,0,5.3232265,22.200477,397.25206)"
       id="g2411">
      <g
         transform="translate(-230.9546,-533.6597)"
         style="fill:#000000;fill-opacity:1"
         id="g2883" />
      <g
         transform="translate(-230.9546,-533.6597)"
         style="fill:#000000;fill-opacity:1"
         id="g2887" />
      <g
         transform="translate(-230.9546,-533.6597)"
         style="fill:#000000;fill-opacity:1"
         id="g2891" />
    </g>
    <g
       inkscape:label="Calque 1"
       id="layer1-4"
       transform="matrix(1.2842911,0,0,1.3475176,-322.83945,-416.05452)" />
  </g>
  <g
     id="g3873"
     transform="matrix(0.98299439,0,0,0.7023051,37.837667,110.80445)" />
  <rect
     style="fill:#000000;fill-opacity:1;fill-rule:evenodd;stroke:#000000;stroke-width:1.17483747;stroke-opacity:1"
     id="rect3853"
     width="1008.9509"
     height="810.11407"
     x="-2.2112732"
     y="-1.0067407" />
  <text
     xml:space="preserve"
     style="font-size:24.89476013px;font-style:normal;font-weight:normal;fill:#000000;fill-opacity:1;stroke:none;font-family:Bitstream Vera Sans"
     x="266.96185"
     y="736.90112"
     id="text2508"><tspan
       sodipodi:role="line"
       id="tspan2510"
       x="266.96185"
       y="736.90112" /></text>
  <g
     id="g5712"
     transform="translate(-5.9229528,166.37207)">
    <path
       id="path5714"
       d="m 89,134 c 0,-0.667 0,-1.333 0,-2 2.134,-0.467 1.905,1.429 2,3 -0.81,-0.19 -0.997,-1.003 -2,-1 z"
       clip-rule="evenodd"
       inkscape:connector-curvature="0"
       style="fill-rule:evenodd" />
    <path
       id="path5716"
       d="m 101,137 c -2.974,0.212 -3.526,-3.566 -2,-5 3.462,-0.701 3.586,3.506 2,5 z"
       clip-rule="evenodd"
       inkscape:connector-curvature="0"
       style="fill-rule:evenodd" />
    <path
       id="path5718"
       d="m 98,137 c -1.464,-0.87 -3.169,-1.497 -3,-4 1.464,0.87 3.169,1.497 3,4 z"
       clip-rule="evenodd"
       inkscape:connector-curvature="0"
       style="fill-rule:evenodd" />
    <path
       id="path5720"
       d="m 89,134 c 0.55,2.217 -1.91,1.424 -2,3 -2.491,-0.407 -0.06,-3.877 2,-3 z"
       clip-rule="evenodd"
       inkscape:connector-curvature="0"
       style="fill-rule:evenodd" />
    <path
       id="path5722"
       d="m 101,137 c 3.131,-0.464 4.464,0.869 4,4 -1.333,0 -2.667,0 -4,0 0,-1.333 0,-2.667 0,-4 z"
       clip-rule="evenodd"
       inkscape:connector-curvature="0"
       style="fill-rule:evenodd" />
    <path
       id="path5724"
       d="m 91,138 c 3.952,0.319 -0.741,3.095 2,4 -1.697,3.502 -2.569,-1.954 -2,-4 z"
       clip-rule="evenodd"
       inkscape:connector-curvature="0"
       style="fill-rule:evenodd" />
    <path
       id="path5726"
       d="m 427,158 c 0.345,-1.206 2.661,-0.809 3,0 0.907,2.163 -3.662,2.317 -3,0 z"
       clip-rule="evenodd"
       inkscape:connector-curvature="0"
       style="fill-rule:evenodd" />
    <path
       id="path5728"
       d="m 414,161 c 2.917,-1.47 2.917,4.47 0,3 0,-1 0,-2 0,-3 z"
       clip-rule="evenodd"
       inkscape:connector-curvature="0"
       style="fill-rule:evenodd" />
    <path
       id="path5730"
       d="m 99,216 c 1.519,2.481 3.929,4.071 4,8 -3.245,-0.756 -4.344,-3.656 -4,-8 z"
       clip-rule="evenodd"
       inkscape:connector-curvature="0"
       style="fill-rule:evenodd" />
    <path
       id="path5732"
       d="m 95,223 c 1.342,0.658 1.862,2.138 2,4 -1.759,-0.241 -2.279,-1.721 -2,-4 z"
       clip-rule="evenodd"
       inkscape:connector-curvature="0"
       style="fill-rule:evenodd" />
    <path
       id="path5734"
       d="m 251,228 c -1.742,-0.924 -5.367,0.034 -5,-3 1.481,-1.497 5.169,-0.093 5,3 z"
       clip-rule="evenodd"
       inkscape:connector-curvature="0"
       style="fill-rule:evenodd" />
    <path
       id="path5736"
       d="m 250,233 c -0.318,-1.766 5.603,-1.785 4,1 -1.794,0.127 -2.109,-1.224 -4,-1 z"
       clip-rule="evenodd"
       inkscape:connector-curvature="0"
       style="fill-rule:evenodd" />
    <path
       id="path5738"
       d="m 242,261 c 1.975,0.691 2.666,2.667 3,5 -1.278,1.367 -4.722,1.367 -6,0 -0.424,-2.09 0.686,-2.647 1,-4 2.59,1.366 3.143,3.23 2,-1 z"
       clip-rule="evenodd"
       inkscape:connector-curvature="0"
       style="fill-rule:evenodd" />
    <path
       id="path5740"
       d="m 231,265 c 2.398,-2.502 4.72,3.898 3,-2 4.581,-1.656 3.16,4.855 2,6 -3.418,0.418 -5.698,-0.302 -5,-4 z"
       clip-rule="evenodd"
       inkscape:connector-curvature="0"
       style="fill-rule:evenodd" />
    <path
       id="path5742"
       d="m 378,295 c 4.754,3.094 -0.701,10.583 0,16 -2.341,-3.715 1.356,-9.946 0,-16 z"
       clip-rule="evenodd"
       inkscape:connector-curvature="0"
       style="fill-rule:evenodd" />
    <path
       id="path5744"
       d="m 135,303 c -0.733,1.78 -1.818,0.145 -3,0 0.733,-1.78 1.818,-0.145 3,0 z"
       clip-rule="evenodd"
       inkscape:connector-curvature="0"
       style="fill-rule:evenodd" />
    <path
       sodipodi:type="star"
       style="fill:url(#radialGradient5865);fill-opacity:1;fill-rule:evenodd;stroke:none"
       id="path5855"
       sodipodi:sides="16"
       sodipodi:cx="862.00952"
       sodipodi:cy="-39.022575"
       sodipodi:r1="173.08147"
       sodipodi:r2="59.541275"
       sodipodi:arg1="0.6267365"
       sodipodi:arg2="1.2882254"
       inkscape:flatsided="false"
       inkscape:rounded="0"
       inkscape:randomized="0"
       d="M 1002.1961,62.490506 878.61115,18.157398 952.6777,108.41038 855.4656,20.158 889.35584,131.88492 833.3163,13.148895 821.87076,129.34035 815.53528,-1.8028426 760.49644,101.16404 804.82955,-22.420947 714.57657,51.645599 802.82895,-45.5665 691.10202,-11.676254 809.83805,-67.715799 693.6466,-79.161336 824.78979,-85.496815 721.8229,-140.53566 l 123.58499,44.333111 -74.06654,-90.252981 97.2121,88.252379 -33.89025,-111.726919 56.03954,118.736024 11.44554,-116.191454 6.33548,131.143192 55.03884,-102.966892 -44.3331,123.584997 90.253,-74.066547 -88.2524,97.212099 L 1032.917,-66.368897 914.18099,-10.329352 1030.3724,1.1161856 899.22925,7.451664 z"
       transform="matrix(3.4159314,0,0,2.8005976,-2458.2158,330.87392)"
       inkscape:transform-center-x="37.629367"
       inkscape:transform-center-y="-11.399679" />
    <path
       id="path5746"
       d="m 344.72097,0.94398594 c -2.91745,3.67813996 -8.50391,4.68726496 -6.59559,13.19117806 10.60571,3.27581 4.56415,-10.0912511 13.19118,-8.7941191 -2.96362,8.3104431 0.88161,10.6760611 -4.39706,17.5882381 -5.66781,-0.529845 3.01858,-3.783669 0,-8.794119 -14.96979,5.102788 3.8936,38.705116 -26.38236,35.176476 -8.54128,16.381245 -0.4375,29.636181 8.79412,39.573536 4.99286,7.888324 -5.84589,6.07014 -8.79412,10.992648 -3.77048,6.294386 -0.0484,18.496226 -10.99265,19.786766 2.89107,10.81897 1.68628,21.93913 0,32.97795 -6.93856,-1.07508 -7.763,3.96175 -15.3897,2.19853 9.15907,4.08486 12.08971,20.94539 10.99265,28.58088 -3.04717,-5.90965 -6.22844,-3.23184 -8.79412,2.19853 -3.91559,-1.61152 -0.31659,-3.99692 0,-6.59559 -6.37574,0.39574 -5.29846,10.44962 2.19853,8.79412 -1.61153,2.05343 -3.99693,3.33077 -6.59559,4.39706 19.76698,18.34014 22.99442,53.22201 41.77206,72.55148 28.35884,-20.74093 23.38576,-74.81596 41.77207,-105.52942 -6.95835,-11.36201 -29.60541,-7.0353 -37.37501,-17.58824 0,-49.236074 39.56254,-15.56999 54.96324,-2.19853 27.35411,-10.59691 58.0302,7.87513 61.55884,35.17647 3.94196,-0.27921 4.6367,2.691 8.79412,2.19853 2.093,-18.09609 1.91931,-54.4224 15.3897,-68.15442 14.31243,-2.32604 35.67115,-22.429397 46.16913,-2.19853 5.29626,0.8992 4.7796,-4.01451 10.99265,-2.19853 5.74695,8.90845 10.11543,19.19976 19.78676,24.18383 4.51578,29.4537 11.77531,65.10946 -8.79412,81.3456 0,3.66495 0,7.3277 0,10.99265 6.27901,6.95615 20.9102,17.13754 17.58824,26.38235 5.3468,9.30858 15.01594,14.29704 17.58822,26.38236 -10.1682,-0.0923 -7.06168,-13.4594 -13.19118,-17.58824 -2.61185,18.02355 7.28153,42.53496 13.19118,59.36031 0.94976,-6.14489 -0.67495,-28.58968 0,-41.77207 8.27746,1.98308 8.32143,12.19744 8.79412,21.9853 12.01056,17.30243 14.91922,43.70896 21.98529,65.95588 17.44754,-17.72894 28.18735,-42.16559 48.36766,-57.16176 1.45103,-18.33574 -2.91086,-42.48439 2.19853,-57.16178 -2.20073,-3.02737 -3.62318,0.93878 -6.59559,-4.39705 -2.61625,-15.2644 7.59812,-23.77051 2.19853,-35.17648 -16.63188,-3.5858 -31.63245,6.78906 -50.56619,0 -3.59459,-7.27054 -2.21391,-16.79897 2.19853,-21.9853 27.23759,-1.58734 40.20012,11.09818 68.15443,8.79412 -0.98275,9.2778 -9.4339,11.08499 -6.59559,24.18383 0.32978,4.06728 7.44642,1.3499 8.79412,4.39706 2.96581,24.45644 -5.27867,48.62708 0,68.15442 9.32836,-6.85941 22.68882,-7.42883 26.38235,-21.9853 4.88294,-19.24593 -11.13775,-44.80823 -2.19853,-65.95589 7.20678,-17.0518 25.28749,-14.07059 46.16913,-24.18383 8.04442,3.8892 15.07092,9.26241 21.98529,8.79412 4.0475,10.23416 10.18139,24.04972 2.19853,37.37501 0.68155,2.9834 5.50512,1.82478 8.79412,2.19853 -2.93064,19.78676 -12.74707,32.68994 -17.58824,50.56618 1.91712,5.41058 9.73509,4.92251 8.79412,13.19118 23.68696,3.42751 21.67091,32.56022 35.17648,46.16912 -4.66968,17.86085 10.05388,16.32848 8.79412,30.77941 34.21132,-17.81908 62.68008,-41.38292 96.73535,-59.36029 3.5264,-12.95594 -3.2583,-22.56791 4.397,-30.77942 7.9785,7.76521 10.764,0.14291 17.5883,-4.39706 8.4203,4.3377 18.1268,-1.30812 26.3823,-8.79412 11.085,5.03903 20.4134,11.83029 26.3824,21.9853 -2.2249,5.8371 -3.6166,12.50744 -10.9927,13.19118 2.049,-5.28087 8.8359,-5.81951 6.5956,-15.38971 -2.8647,-6.06354 -11.883,-4.39486 -17.5882,-2.19853 0,-4.39706 0,-8.79412 0,-13.19118 -4.595,-0.92998 -5.8195,1.50819 -8.7942,2.19853 -3.1812,8.31264 6.0416,4.21898 4.3971,10.99265 -7.5146,0.91899 -12.5272,-0.66396 -10.9926,-8.79412 -4.8566,0.27482 -0.9344,9.32616 -2.1986,13.19118 -6.213,-1.81599 -5.6964,3.09773 -10.9926,2.19853 0,-3.66495 0,-7.3277 0,-10.99265 -11.982,-1.03111 -2.5767,12.78005 -6.5956,15.38971 -9.5702,-2.2403 -10.1088,4.54656 -15.3897,6.59559 1.706,1.95669 2.3634,4.96428 2.1985,8.79412 -26.5318,20.55844 -67.93895,43.40336 -98.93382,63.75735 -10.4738,6.8792 -27.68829,13.96067 -28.58089,28.58089 -5.29626,-0.8992 -4.7796,4.01451 -10.99265,2.19853 -0.8992,5.29626 4.01452,4.7796 2.19853,10.99265 -9.7219,0.34956 -15.96352,10.39684 -21.98529,2.19853 2.00945,17.0452 16.97264,21.13446 24.18382,32.97794 1.9501,-5.3776 10.71344,-3.94196 13.19118,-8.79412 5.11378,3.2978 3.35496,5.37541 2.19853,10.99265 3.85402,-2.00945 7.63989,-4.08706 6.59559,-10.99265 -5.681,-6.94735 -13.77599,2.19853 -19.78677,2.19853 -8.10598,-1.42025 -11.53129,-7.52337 -13.19118,-15.3897 29.83405,-20.00003 56.29116,-43.3748 87.94119,-61.55884 1.59394,-5.00165 1.96109,-11.23009 4.39706,-15.3897 3.55063,-0.61779 3.78587,2.07761 6.59559,2.19852 4.22338,-2.8273 -5.18853,-4.54436 0,-10.99264 13.87052,-1.25756 10.3155,-7.37387 21.98531,-8.79412 3.9178,4.87634 8.6578,8.93042 6.5956,19.78676 4.0013,-2.73497 4.3992,-20.37597 -4.3971,-17.58823 15.9591,3.39673 28.0686,-25.97343 46.1691,-13.19117 7.1607,-6.76268 13.9981,-13.85074 19.7868,-21.9853 9.2932,-1.71925 19.2218,2.92844 4.3971,2.19853 -8.3698,7.0199 -15.2402,15.53921 -21.9853,24.18382 -18.4061,-7.80917 -42.7592,3.79906 -39.5736,30.77941 -11.3818,4.74003 -12.4502,19.79557 -17.5882,30.77942 -27.38269,15.8536 -49.87365,36.60112 -94.53678,35.17648 -3.5814,4.4806 -4.61911,11.5027 -8.79412,15.3897 9.5658,0.0396 12.25681,-6.79785 24.18383,-4.39706 7.93889,18.71829 -12.14688,25.05665 -24.18383,30.77942 3.80126,20.38257 20.26385,28.10381 24.18383,48.36765 1.60932,2.05343 3.99693,3.33078 6.59559,4.39706 9.61857,24.8236 19.87471,49.01183 28.58088,74.75001 -9.43828,-6.68353 -8.63142,-23.6122 -17.58823,-30.77941 -1.13005,-28.18295 -20.36059,-38.26761 -26.38236,-61.55883 -2.15896,-2.97242 -5.86568,-4.39267 -8.79412,-6.59559 0,-2.93064 0,-5.86348 0,-8.79412 -0.32978,-4.06728 -7.44642,-1.3499 -8.79412,-4.39706 1.76322,-7.6267 -3.27361,-8.45115 -2.19853,-15.38971 -15.35013,-1.42685 -19.05905,8.78972 -17.58824,24.18383 0.57162,8.2225 18.21262,-0.62439 17.58824,8.79412 -4.00352,-3.35936 -17.98177,-3.35936 -21.98529,0 -0.97395,11.23448 15.55239,4.96867 24.18382,6.59559 10.33529,2.73716 -27.77622,5.03903 -28.58088,-2.19853 -10.23636,24.6631 20.44852,27.48821 24.18382,39.57353 6.2812,-1.14543 -3.54842,-3.25162 -4.39706,-4.39706 4.58394,-6.54942 8.95461,5.5293 15.38971,4.39706 -2.40079,0.80246 -9.19865,9.62516 0,8.79412 -15.20723,3.44729 -24.61254,-17.86745 -35.17647,-26.38236 -2.61186,13.44841 13.72322,24.75105 21.98529,37.37501 8.05102,12.29857 20.35179,26.50327 21.9853,46.16912 1.89513,6.16688 11.44555,4.67628 15.38971,8.79412 -3.18347,0.55183 -20.21988,0.27262 -10.99265,10.99265 -2.75696,-3.17688 -47.03974,-11.31803 -52.76471,2.19853 -1.9523,-46.78471 -9.09092,-90.83226 0,-131.91178 -7.34969,12.44148 -28.50394,24.41027 -46.16913,13.19117 -1.29053,-7.71903 10.39245,-7.23096 4.39706,-13.19117 -11.98858,-3.46928 -2.32824,9.12609 -6.59559,8.79412 -10.70244,1.17401 -10.28912,-8.76554 -17.58824,-10.99265 -5.06321,11.27845 7.0419,15.02915 8.79412,21.98529 0.57602,2.28208 -4.34429,3.92658 -4.39706,6.59559 -0.17808,9.00298 9.66254,16.26033 10.99265,28.58089 -2.55469,-0.35836 -3.91118,0.48587 -4.39706,2.19853 5.41278,20.23747 11.16853,40.12976 8.79412,68.15442 -12.45907,0 -24.91594,0 -37.375,0 -5.06102,-32.31399 -0.78268,-73.96733 -2.19853,-109.92649 -6.54063,31.56649 2.12817,78.34461 -4.39706,109.92649 -9.31957,1.67308 -26.03719,-4.05189 -28.58089,4.39706 -17.23647,-9.88019 -54.05965,-0.17149 -74.74999,-6.59559 -2.57667,0.35396 -1.85556,4.00792 -2.19853,6.59559 -11.25647,-1.58074 -39.36687,-7.55415 -41.77206,2.19853 -8.89525,-13.82216 -42.11064,-3.32638 -61.55883,-6.59559 -2.57668,0.35396 -1.85336,4.00792 -2.19853,6.59559 -0.18908,-3.91998 -18.35553,-6.80225 -13.19118,-2.19853 -6.36035,6.21304 -10.27593,-8.6688 -13.19118,-13.19118 -11.42796,-16.42082 -23.65398,-32.04137 -32.97795,-50.56618 -10.753,-11.23009 -22.24692,-21.72367 -26.38235,-39.57354 -14.02003,-3.02298 -34.64004,7.12544 -50.56619,2.19853 -4.99066,2.33704 -0.83764,13.81996 -2.19853,19.78677 7.42664,-2.83171 6.01518,-14.5059 15.38971,-15.38971 -0.64637,4.4828 -5.94922,4.31132 -6.59559,8.79412 1.97428,5.94483 5.30725,-4.6367 6.59559,-6.59559 9.00958,8.44675 -10.40124,7.06168 -6.59559,17.58824 10.85414,-5.26768 17.2035,-15.04014 26.38236,-21.9853 -4.05629,15.26879 -29.19428,20.66838 -37.37501,35.17648 11.03662,9.82743 27.60694,-9.62956 48.36766,-4.39706 -11.57306,7.63549 -34.6972,16.51755 -48.36766,8.79412 -3.64076,2.22271 -2.3876,9.33715 -4.39705,13.19118 4.97307,7.48379 13.54074,11.37739 21.98529,15.3897 2.49533,-0.41772 1.22019,-2.20512 0,-2.19853 6.15589,-1.68847 24.85438,2.93944 32.97795,6.59559 6.59559,0 13.19118,0 19.78677,0 6.99792,3.02958 -7.76961,2.17435 -10.99265,2.19853 -12.45907,0 -24.91594,0 -37.37501,0 -7.9191,-6.73629 -19.34706,-9.96593 -26.38235,-17.58823 -8.57867,10.87612 5.81071,17.56625 8.79411,24.18382 -4.01231,5.27867 -6.50764,-9.46907 -13.19117,-8.79412 -7.9257,5.26548 -4.39706,21.9853 -10.99265,28.58089 -12.15787,-3.22305 1.0399,-13.12962 2.19853,-17.58824 3.95295,-15.20063 6.96714,-35.23583 10.99265,-50.56618 14.40916,-3.51545 4.08486,-18.11369 6.59558,-32.97795 -6.34275,-6.11411 -19.19096,-5.72497 -30.77941,-6.59559 -5.06102,-0.80246 -2.1018,-9.62516 -8.79412,-8.79412 -3.26262,0.96076 0.86842,2.81192 0,6.59559 -5.18633,-12.06113 -13.93208,0.16269 -24.18383,-4.39706 -0.70133,-5.09839 0.35397,-8.44015 2.19853,-10.99264 -7.70365,0.98274 -4.49819,9.46027 -6.59559,10.99264 -12.51843,1.52578 -18.26098,-3.72431 -30.77941,-2.19853 -5.81292,7.16281 -1.81819,12.32716 -10.99265,17.58824 7.76301,1.76322 7.39585,11.65881 8.79412,19.78677 -3.16589,-0.49907 -0.76729,-6.56041 -4.39706,-6.59559 1.71485,11.42796 9.68452,31.75556 0,43.97059 0.96076,3.26262 2.81412,-0.86841 6.59559,0 -1.69947,13.42643 2.88007,20.56945 2.19853,32.97795 -6.87041,-2.40959 -7.0287,-2.2491 -6.59559,6.59559 -6.45928,-21.34772 -10.31331,-71.35768 -8.79412,-112.12502 -16.18558,2.13697 -17.58164,19.06126 -26.38236,28.58089 6.36035,14.57405 0.52545,29.16789 4.39706,43.97059 8.43796,0.37815 4.75322,-11.37079 13.19118,-10.99264 0.34737,16.11302 -16.93308,22.55691 -8.79412,39.57353 4.68507,-3.37474 6.35375,-9.76807 8.79412,-15.38971 3.77927,7.52337 -7.30352,19.01948 -8.79412,28.58089 -20.04839,-8.19832 -63.00768,-5.5359 -83.544148,0 33.032928,-58.57323 77.876338,-105.33596 109.926508,-164.88973 -13.23955,2.71738 -17.75753,17.45193 -24.18383,26.38236 -7.05288,9.80104 -17.0452,18.25219 -19.78677,30.77941 -29.4559,29.9066 -46.01744,72.70318 -76.948558,101.13237 0,-10.26054 0,-20.51888 0,-30.77942 8.16094,-1.36528 22.627268,3.57481 24.183828,-4.39706 -3.76169,-5.03023 -16.781378,-0.80686 -24.183828,-2.19852 0,-6.59559 0,-13.19118 0,-19.78677 13.92329,0 27.848778,0 41.772088,0 -6.14491,-9.24482 -28.589698,-2.18974 -41.772088,-4.39706 0,-4.39706 0,-8.79412 0,-13.19118 16.121818,0 32.245838,0 48.367678,0 23.28463,-19.21955 34.40039,-50.61015 46.16912,-81.3456 -58.36659,-28.18955 -122.579048,-42.89991 -164.889748,-90.13972 1.71925,-45.18418 30.04731,-63.75735 41.77206,-98.93383 23.39016,-21.31474 35.71952,-53.68809 46.169128,-87.94119 -9.616368,-2.8427 -13.604498,-11.31363 -21.985298,-15.38971 -0.7387,-8.0664 3.37694,-11.28065 8.79412,-13.19117 -3.4341,-3.16149 -7.65088,-5.5403 -8.79412,-10.99265 6.98913,-14.78951 -2.82511,-22.81854 2.19853,-39.57354 1.76762,1.16302 3.57041,2.29307 6.59559,2.19853 0,-4.39706 0,-8.79412 0,-13.191176 -2.70419,0.960756 -4.51578,2.814116 -4.39706,6.595586 -6.67254,-10.416631 14.47732,-11.845675 13.19118,-24.183824 4.641098,2.921846 6.498848,-1.083875 13.191178,2.19853 -1.24437,-2.053427 -6.11191,-3.330772 -2.19853,-4.39706 -0.24404,-5.382001 -7.26834,-0.466088 -6.59559,2.19853 -6.791258,-4.091464 7.65528,-12.072127 10.99265,-6.595589 9.32836,-3.862817 5.6832,-20.699158 19.78679,-19.786768 2.2447,-11.366399 0.80026,-14.292642 0,-26.382357 6.59778,-2.196331 9.14808,-8.440155 15.3897,-10.992648 0.0484,-5.179736 -3.78806,-6.472472 -2.19852,-13.1911791 6.91877,-4.39705896 12.12049,-4.014515 15.3897,-15.3897079 4.7972,-0.400132 6.99572,1.7983979 6.59559,6.5955899 6.21085,-25.3028789 32.01939,-31.0058649 50.56619,-43.9705949 18.19723,1.343302 32.99333,-0.716721 43.97059,-6.595589 6.37354,2.420581 14.86866,2.719581 15.38971,10.992649 2.09959,-3.763883 7.29692,-4.430038 8.79412,-8.794119 10.32209,4.3355 25.7162,3.596794 28.58088,15.389708 9.18986,-7.039692 14.54328,4.957684 21.9853,6.595589 1.4906,15.838208 0.23085,20.9673779 6.59559,30.77941594 z M 335.92685,31.723402 c -9.42729,12.058936 5.48533,8.114773 0,0 l 0,0 z M 300.75038,277.95873 c -4.82138,-29.62079 -7.97847,-60.90807 -19.78677,-83.54413 -7.46621,0.13851 -12.07872,-2.57887 -15.38971,-6.59559 -5.70079,2.82072 1.69287,13.14501 -2.19853,13.19118 -8.35881,1.76322 -2.79433,-10.39685 -4.39706,-15.38971 11.23888,-7.81577 6.2768,-31.83031 17.58824,-39.57353 7.86414,3.12851 15.7041,6.2812 26.38236,6.59559 0.46389,-2.46675 2.44036,-3.42311 4.39705,-4.39706 -0.80466,-10.14842 -2.70639,-12.65254 0,-21.9853 -5.61724,-3.77268 -7.69485,2.51952 -10.99264,-2.19853 -0.93878,-11.19711 0.97175,-19.54933 6.59559,-24.183826 0.37375,3.288996 -0.78488,8.112576 2.19853,8.794116 -0.36936,-4.76641 7.79818,-0.99593 10.99264,-2.19853 2.17435,-11.597241 2.35023,-8.314836 -4.39706,-10.992645 3.75949,-6.595589 8.00265,-2.442567 15.38971,-2.19853 -2.36562,-14.059598 -21.99849,-19.06565 -13.19118,-37.375006 -4.15742,-0.492471 -4.84995,2.477743 -8.79411,2.19853 -3.18348,8.312641 6.04155,4.218978 4.39705,10.992648 -6.92536,-1.061889 -4.97747,6.747288 -13.19117,4.39706 -2.58767,-3.275809 -5.51831,-6.20645 -8.79412,-8.794119 6.96274,-1.831375 11.17512,-6.413111 15.38971,-10.992649 -7.41125,-2.10839 -15.01816,6.734097 -19.78677,0 5.2237,-3.570412 12.64154,-4.946692 17.58824,-8.794119 -12.54262,3.939766 -22.24913,-2.941632 -28.58089,6.59559 6.60218,-0.820052 -3.34616,16.17898 -13.19118,13.191178 2.88667,6.824236 -0.5958,6.274604 0,15.389708 2.58767,0.345169 6.23943,-0.378147 6.59559,2.19853 -10.27373,0.246236 1.56096,4.029905 2.19853,6.59559 -2.80313,4.526772 -3.50666,11.150944 -10.99265,10.992648 -0.32758,-2.928441 8.93922,-6.635163 2.19853,-8.794119 -0.70133,2.545898 -6.80445,10.355075 -8.79412,4.39706 -2.71738,-7.114443 7.11444,-1.679677 4.39706,-8.794119 -8.01584,-7.37387 -20.94539,-9.834024 -24.18383,-21.985298 -4.39705,0 -8.79411,0 -13.19117,0 -0.63318,16.754996 1.95229,30.293542 13.19117,35.176476 -0.11872,-3.781471 1.69287,-5.634832 4.39706,-6.595589 7.14523,14.840075 13.06806,30.902535 17.58824,48.367655 -5.2347,5.74695 -7.71464,18.45885 -17.58824,13.19118 0.9014,14.09257 -15.58977,10.79258 -24.18382,15.3897 8.75454,16.1614 35.5898,14.24428 43.97059,30.77942 -12.54921,-7.99165 -33.75842,-18.97771 -43.97059,-21.9853 27.96749,35.05776 64.01898,62.03152 90.13972,98.93384 z M 258.97831,86.686646 c -7.48819,-11.592848 -4.54656,4.188199 0,0 l 0,0 z m -17.58824,37.375004 c -2.27548,6.18886 -1.06189,17.42555 2.19853,24.18383 7.50578,-7.36508 7.28593,-18.37751 -2.19853,-24.18383 z m 103.3309,149.50002 c -1.70606,-0.49247 -4.3377,-0.0594 -4.39706,-2.19853 9.38113,-4.34429 24.70488,-19.34486 15.38971,-28.58088 -7.09686,9.75927 -14.9522,18.75785 -19.78677,30.77941 4.09366,-2.10179 7.34749,6.5846 8.79412,0 z m 35.17648,-118.7206 c 2.56128,0.36935 2.3876,3.47587 2.19853,6.59559 -6.91658,-2.51952 -5.34243,3.45169 -8.79412,4.39706 -0.65517,21.34772 -14.71037,40.9608 -10.99265,59.3603 2.27548,-3.02738 8.71717,-13.03289 10.99265,-8.79412 1.6445,6.77367 -7.58053,2.68001 -4.39706,10.99265 6.59778,5.95362 10.99484,-3.62538 13.19118,-8.79412 -3.26702,-2.59647 -9.82304,-1.90173 -8.79412,-8.79412 9.82303,-16.98144 14.08598,-37.2387 19.78676,-48.36765 6.25262,2.40299 17.32222,16.38564 24.18383,4.39706 -6.18446,-3.34177 -13.12742,-5.92724 -15.38971,-13.19118 -13.32529,1.82038 -14.96759,2.25349 -21.98529,2.19853 z m 15.3897,-4.39706 c 0.32319,-10.15061 -11.19051,-13.73202 -13.19117,-4.39706 4.4762,0.65296 5.85688,4.40365 8.79411,6.59559 0.48588,-1.71266 1.84017,-2.55689 4.39706,-2.19853 z m 151.69855,76.94854 c 0.4485,6.8792 -1.484,16.1394 2.19853,19.78676 7.17601,0.57822 6.35376,-6.83962 10.99265,-8.79411 -5.39739,-2.66462 -5.87887,-10.24515 -13.19118,-10.99265 z m 70.35293,164.88972 c -13.08784,-27.94991 -11.11796,-70.95974 -30.77941,-92.33824 1.57414,14.31243 7.60471,24.05191 -2.19853,32.97794 7.1716,19.94286 13.69684,40.53429 21.98529,59.3603 -10.11983,6.03716 -20.43973,23.48909 -13.19117,39.57353 21.64012,-8.40717 47.71029,-12.38211 68.15442,-21.98529 -8.83809,0.20446 -17.65859,-9.22943 -35.17648,-6.59559 2.87348,-9.46907 -6.23942,-6.95175 -8.79412,-10.99265 z M 758.04454,187.81901 c -12.52503,-5.94482 -31.76216,4.00572 -43.9706,8.79412 -0.28581,15.48205 -13.83535,25.65464 -6.59559,41.77207 6.65495,-2.57448 11.77972,-6.67254 19.78677,-2.19853 2.05782,-24.09809 21.19383,-22.23813 32.97795,-32.97795 9.33715,2.51072 10.19897,1.06849 13.19117,-6.59559 -3.91338,-1.31472 -9.13049,6.44389 -10.99264,0 5.09619,1.91712 5.05441,-11.18612 2.19852,-4.39706 -7.87293,10.15281 -2.47334,-2.44037 -6.59558,-4.39706 z m 134.11031,175.88237 c -3.02958,-2.8339 -2.17655,-9.55041 -2.19853,-15.3897 -5.45235,2.85369 -10.66947,-4.90492 -10.99265,0 4.84116,1.75442 8.77653,4.41464 8.79412,10.99264 -0.3034,4.09367 -1.44663,7.34749 -4.39706,8.79412 -4.4828,-1.38067 -0.61779,-11.10917 -8.79412,-8.79412 -1.13004,10.93989 2.15236,31.82812 -8.79412,26.38236 3.20546,15.19624 16.41203,-1.71705 24.18383,-2.19853 -0.7431,-16.86492 12.6591,-19.5867 8.7941,-39.57353 -2.7987,-0.44631 -10.76838,-6.39113 -10.99263,-2.19853 8.66883,-1.23338 8.59623,17.6388 4.39706,21.98529 z M 744.85336,493.41464 c -0.0594,5.24349 -9.83842,11.91383 -6.59559,13.19118 3.06915,-2.23371 11.58625,-10.16601 6.59559,-13.19118 z m -43.9706,0 c -15.68871,-1.89953 -17.9466,-17.22988 -28.58088,-24.18383 4.83456,10.69585 15.5524,36.00312 28.58088,24.18383 z m -30.77941,-15.38971 c 0,23.45172 0,46.90123 0,70.35295 7.3277,0 14.65759,0 21.98529,0 -7.40025,-23.37917 -6.44389,-55.11494 -21.98529,-70.35295 z M 89.691502,176.82636 c -0.92558,-4.20359 -0.79587,-9.46247 -6.59559,-8.79412 -0.61998,5.74916 0.80246,9.45588 6.59559,8.79412 z m -2.19853,-46.16912 c -0.97395,-4.15522 2.99,-13.25054 -4.39706,-10.99265 -0.32318,5.45235 -0.40893,10.66947 4.39706,10.99265 z M 151.25035,5.3410449 c -0.69033,2.9724126 -3.1285,4.1991922 -2.19853,8.7941191 6.12291,3.522045 6.07894,-9.4954501 2.19853,-8.7941191 z M 322.73567,-27.6369 c 2.90206,-6.083332 -8.69298,-7.547553 -2.19853,-4.39706 -0.16489,3.08014 0.49028,8.407178 2.19853,4.39706 z m -54.96324,59.360302 c 2.85369,-2.921846 2.89766,-8.180729 -2.19853,-8.794119 0.37375,3.289001 -0.78487,8.112575 2.19853,8.794119 z m 39.57353,-6.595589 c 5.31165,11.307038 5.68101,-7.569538 0,0 l 0,0 z m -13.19117,2.19853 c -7.40685,-6.676935 -6.66595,8.127964 0,0 l 0,0 z m -162.6912,39.573535 c 0.52545,-3.137302 3.61878,-3.70892 4.39706,-6.59559 -4.15742,0.492471 -4.85216,-2.477743 -8.79412,-2.198529 -0.61339,5.010449 0.52984,8.264273 4.39706,8.794119 z m 6.59559,2.198529 c 3.78147,0.118721 5.63483,-1.692868 6.59559,-4.397059 -3.78148,-0.118721 -5.63484,1.692868 -6.59559,4.397059 z m 347.36769,85.742663 c 1.88634,-8.3742 14.64001,-5.88107 19.78677,-10.99265 1.95669,5.3732 5.12477,9.53282 4.39706,17.58824 -8.74575,-3.24284 -15.11269,4.67407 -26.38236,0 -4.88513,12.30956 2.56569,19.29869 10.99265,24.18382 6.10532,-10.0165 11.17952,-21.06631 26.38236,-21.98529 1.65769,9.84721 16.48897,3.11971 19.78677,15.3897 14.71915,-20.50568 -4.74443,-37.64322 -10.99265,-59.3603 -12.4129,3.71112 -6.1317,26.11194 -26.38236,21.9853 0.31879,-2.59866 3.91338,-4.98407 0,-6.59559 -4.02771,7.0265 -21.78083,11.85007 -17.58824,19.78677 z M 91.890032,128.45871 c 6.41311,3.23184 6.41311,-9.82743 0,-6.59559 0,2.19853 0,4.39706 0,6.59559 z m 281.411828,13.19118 c 5.50292,0.37155 6.88139,-3.37694 8.79412,-6.59559 -3.82984,0.16489 -6.83743,-0.49027 -8.79412,-2.19853 0,2.93064 0,5.86348 0,8.79412 z m 48.36765,10.99265 c 0.8948,-4.23657 8.5237,-1.73684 6.59559,-8.79412 -12.32056,4.88513 -12.91636,-13.32089 -21.9853,-4.39706 7.98506,2.61185 -9.04035,9.52623 0,13.19118 -0.73211,-13.45281 14.94781,-9.08653 15.38971,0 z m -274.81621,8.79412 c 1.46641,0 2.93064,0 4.39705,0 0,-1.46642 0,-2.93064 0,-4.39706 -1.46641,0 -2.93064,0 -4.39705,0 0,1.46642 0,2.93064 0,4.39706 z m 2.19852,-8.79412 c -2.34143,-2.5437 -10.12642,-0.80686 -13.19117,2.19853 4.36848,0.0286 2.79433,5.99978 8.79412,4.39706 0.52544,-3.13731 3.61878,-3.70892 4.39705,-6.59559 z m 21.9853,4.39706 c 2.20513,-0.007 2.61625,1.78081 4.39706,2.19853 -0.007,-2.20513 1.78081,-2.61625 2.19853,-4.39706 -2.20512,0.007 -2.61625,-1.78081 -4.39706,-2.19853 0.007,2.20512 -1.78081,2.61625 -2.19853,4.39706 z m 19.78677,-2.19853 c -7.40685,-6.67694 -6.66594,8.12796 0,0 l 0,0 z m 230.84562,6.59559 c 6.76707,-1.53898 4.22557,-1.53898 10.99265,0 0.11872,-3.78148 -1.69287,-5.63484 -4.39706,-6.59559 -0.24404,4.15302 -7.26834,1.52578 -6.59559,6.59559 z m -285.80886,35.17647 c 3.21864,1.91272 6.96714,3.2912 6.59559,8.79412 -11.24109,-3.54403 -13.12962,16.00969 -24.18385,10.99265 -2.51952,9.1151 4.6257,8.56547 4.39706,15.38971 -2.20513,-0.007 -2.61625,1.78081 -4.39706,2.19853 -3.13731,-0.52545 -3.70892,-3.61878 -6.59559,-4.39706 -3.50666,1.62251 0.50126,10.7618 -6.59559,8.79412 -2.40519,9.73289 3.72431,10.93328 4.39706,17.58823 -5.52491,1.805 -10.216568,4.43884 -13.191178,8.79412 12.127088,1.83797 -2.28867,18.29617 -6.59559,10.99265 3.64736,5.14676 6.32737,11.26087 10.992648,15.38971 0.68374,-6.64616 -2.440368,-17.09797 4.39706,-17.58824 2.76355,0.9014 4.49379,2.83391 4.39706,6.59559 -3.16588,-2.46015 -5.36441,-2.37001 -6.59559,2.19853 3.82984,-0.16489 6.83743,0.49247 8.79412,2.19853 3.5924,-12.29198 -0.77608,-19.15799 8.79412,-24.18383 -4.26955,-10.39904 4.23436,-7.15401 -2.19853,-15.3897 9.75709,-1.96989 7.13423,-16.31749 17.58826,-17.58824 -4.30912,1.06189 -7.08147,-10.07806 -2.19853,-10.99265 5.06981,-0.67275 2.44256,6.35155 6.59559,6.59559 6.17786,-5.96022 1.73683,-5.47214 0,-13.19118 4.64109,-1.95449 6.49885,-6.69232 13.19117,-6.59559 1.63791,-6.76707 -6.03496,-4.22557 -4.39706,-10.99265 7.1782,0.58261 4.66089,-8.53029 10.99265,-8.79412 3.21865,-0.0374 6.96714,9.2712 6.59559,0 6.78906,-2.20732 -6.31417,-2.07981 -4.39706,-6.59559 -0.76289,-6.52963 8.21371,-15.18524 0,-19.78676 0.28361,3.94636 -2.18314,5.14456 -6.59559,4.39706 4.58614,11.28725 -6.09432,6.60438 -8.79411,8.79411 -5.53151,4.48501 -3.81226,11.73356 -6.59559,15.38971 5.17973,0.0484 6.47247,-3.78806 13.19117,-2.19853 0,1.46642 0,2.93064 0,4.39706 -6.19106,2.60306 -12.56899,5.01925 -17.58823,8.79412 z m 316.58828,-28.58089 c -3.70672,-1.59833 -10.09785,-11.6522 -15.38971,-4.39705 5.32923,-0.0264 9.06893,12.68331 15.38971,4.39705 z m 96.7353,10.99265 c 6.26362,0.299 8.40278,-11.13775 2.19853,-10.99265 0.70133,5.0984 -0.35176,8.44016 -2.19853,10.99265 z m -160.49267,6.59559 c 2.58767,0.34517 6.23943,-0.37814 6.59559,2.19853 -7.1738,-0.57821 -6.35155,6.83963 -10.99264,8.79412 2.05122,2.34583 8.11037,0.68374 6.59558,6.59559 -5.35561,-1.42025 -11.30923,-4.44103 -10.99264,4.39706 5.51611,5.25668 7.36287,-5.55568 15.3897,-4.39706 -0.033,5.8283 1.22019,12.94494 -4.39706,13.19118 2.11719,-6.53843 -10.80137,-2.01605 -10.99264,-2.19853 2.57887,3.2846 9.13489,2.58987 8.79411,8.79412 -6.09652,16.55493 -18.9909,28.46216 -21.98529,37.375 0.64637,-1.95449 5.94922,-9.62516 6.59559,-4.39706 -2.9966,2.79873 -3.39453,10.7684 2.19853,10.99265 0.40892,-3.25602 5.31384,-2.01605 8.79412,-2.19853 1.58513,-8.6732 3.49566,-17.02321 6.59558,-24.18382 -4.23656,38.2698 -7.31231,77.69823 -19.78676,107.72795 4.85435,0.27481 0.93437,9.32616 2.19853,13.19117 -8.74575,11.04102 -7.76741,31.80833 -17.58824,41.77207 1.17401,-6.36694 -8.56767,3.37254 -2.19853,2.19853 5.15555,-1.06629 0.43531,23.08456 -6.59559,24.18382 -5.86348,0 -11.72476,0 -17.58824,0 11.74675,25.62827 17.33981,57.41021 26.38236,85.74266 7.25075,3.7419 15.82721,6.16028 15.38971,17.58824 25.5601,-7.41784 42.93948,-23.01641 63.75736,-35.17647 1.27734,-8.60505 -1.89074,-12.76687 -4.39706,-17.58824 8.25768,-3.46708 9.40091,-14.0508 10.99265,-24.18383 -21.18723,0.077 -33.38907,-13.50337 -26.38236,-35.17647 -9.40531,-8.91724 -16.37245,-20.27045 -24.18383,-30.77942 5.61945,-57.1156 8.95901,-133.18912 46.16913,-160.49266 9.42729,-6.91658 40.54528,-1.91053 35.17647,-19.78677 -17.84326,9.73509 -23.75071,-11.39058 -35.17647,-15.38971 -18.74467,2.50852 -18.86778,23.63639 -37.37501,26.38236 0.38694,9.18106 -6.81544,10.77279 -8.79412,17.58824 4.16182,-24.41907 27.79821,-29.36357 39.57354,-46.16913 -4.38607,-2.20952 -3.46928,-9.7219 -10.99265,-8.79412 -3.00759,3.86062 -10.66507,8.86228 -15.38971,4.39706 2.02045,5.5293 4.21898,15.07972 -4.39706,15.38971 -2.46675,-0.46389 -3.42311,-2.44037 -4.39706,-4.39706 0.81566,-15.66452 8.69739,-10.6101 13.19118,-21.9853 -7.89052,-1.29493 -10.63648,2.5547 -15.38971,4.39706 0.61339,-3.30219 9.45368,-9.25801 4.39706,-10.99265 -3.39453,4.66748 -6.32517,9.79665 -8.79412,15.38971 z m -270.41917,-4.39706 c 5.06981,-0.67275 2.44256,6.35156 6.59559,6.59559 -1.02452,-8.65561 4.60814,-11.41696 -2.19853,-15.38971 2.51951,6.91658 -3.4517,5.34243 -4.39706,8.79412 z m 360.55889,0 c -0.65296,-1.94789 -4.40365,-11.17073 -6.59559,-4.39706 4.51578,-1.91711 4.38827,11.18612 6.59559,4.39706 z m -37.375,6.59559 c -3.21865,0.0374 -6.96714,-9.2712 -6.59559,0 6.43729,1.97428 6.75388,1.97428 13.19118,0 1.96109,11.23009 12.95373,13.42862 21.98529,17.58824 -4.09366,0.3034 -7.34748,1.44663 -8.79411,4.39706 9.4163,1.35649 8.9634,-7.15841 17.58823,-6.59559 1.37628,-6.67913 -1.95889,-19.79336 -6.59559,-13.19118 4.80599,0.32319 4.72025,5.5403 4.39706,10.99265 -2.80972,0.12092 -3.04496,2.81852 -6.59559,2.19853 -0.70133,-5.16215 -3.47367,-8.25108 -2.19853,-15.38971 -6.37793,-1.68407 -12.64594,-3.47807 -15.3897,-8.79412 1.22018,0.007 2.49533,-1.78081 0,-2.19853 -5.03684,2.29087 -6.10972,8.54789 -10.99265,10.99265 z m 90.13972,2.19853 c -1.06629,-2.59866 -2.34364,-4.98406 -4.39706,-6.59559 -4.53997,7.06608 -12.63715,7.187 -21.9853,4.39706 0.73431,5.12917 2.25349,9.47347 6.59559,10.99265 2.66901,-6.85941 11.63682,-7.41784 17.58824,-10.99265 -0.0945,2.33704 1.0355,5.58427 2.19853,2.19853 z m -334.17652,4.39706 c 3.11532,8.89086 -1.22898,10.02969 4.39706,10.99265 -0.46389,2.46675 -2.44037,3.42311 -4.39706,4.39706 -2.34583,-2.05123 -0.68374,-8.11038 -6.59559,-6.59559 4.76421,6.37794 -4.00132,12.64594 4.39706,15.38971 -0.1583,-7.486 6.46587,-8.18952 10.99265,-10.99265 -0.91899,-8.75894 -3.35716,-17.31782 -4.39706,-15.38971 -0.48588,1.71266 -1.84017,2.55689 -4.39706,2.19853 z m 248.43386,0 c 11.23668,15.73268 -3.2978,-4.61911 0,0 l 0,0 z m -320.98536,6.59559 c 0.598,-2.9922 -1.36089,-8.58306 -2.19853,-4.39706 -0.598,2.9922 1.36089,8.58306 2.19853,4.39706 z m 2.19855,2.19853 c 1.46642,0 2.93064,0 4.39706,0 0,-1.46642 0,-2.93064 0,-4.39706 -1.46642,0 -2.93064,0 -4.39706,0 0,1.46642 0,2.93064 0,4.39706 z m 384.7427,30.77942 c -2.60746,15.79643 5.84149,20.53866 8.79412,30.77941 8.06201,0 16.12182,0 24.18382,0 3.68034,-4.7796 3.52864,-19.80875 -2.19853,-21.98529 -0.50126,3.89579 2.21612,11.01023 -4.39705,8.79411 -2.11719,-16.77478 2.9768,-26.33838 4.39705,-39.57353 -9.31517,9.04475 -40.59804,14.74994 -48.36765,0 0.98055,12.21063 13.47919,12.90317 17.58824,21.9853 z m -32.97795,-24.18383 c 0,1.46642 0,2.93064 0,4.39706 -1.3411,0.12532 -2.60306,0.32758 -2.19853,2.19853 9.46467,1.52798 10.12863,11.85667 17.58824,15.38971 1.84457,-2.5525 2.89986,-5.89426 2.19853,-10.99265 -8.88646,-0.64197 -8.34122,-10.71124 -17.58824,-10.99265 z m 263.82355,10.99265 c -3.00979,5.78433 -9.25581,8.33462 -10.99265,15.38971 12.05454,-6.77807 26.42193,-5.39959 39.57353,-6.59559 -2.56568,-6.96055 -1.74563,-17.30903 -8.79411,-19.78677 -1.15643,8.71497 -16.04707,18.47644 -19.78677,10.99265 z m -485.87505,19.78677 c 2.56129,0.36935 2.3876,3.47587 2.19853,6.59558 -2.93064,0 -5.86348,0 -8.79412,0 -1.20259,-3.19446 2.56788,-11.362 -2.19853,-10.99264 -5.50951,4.64769 -8.16094,-12.2634 -15.38971,-13.19118 1.18061,7.7762 -1.86435,11.32682 -6.59558,13.19118 -0.52545,-3.13731 -3.61878,-3.70892 -4.39706,-6.59559 2.93064,0 5.86347,0 8.79411,0 -0.70133,-5.09839 0.35397,-8.44016 2.19853,-10.99265 -8.17633,-2.31505 -4.31131,7.41564 -8.79411,8.79412 0.11872,-3.78147 -1.69287,-5.63483 -4.39706,-6.59559 -0.24624,5.61724 -4.02991,7.69485 -6.59559,10.99265 -0.49247,-4.15742 2.47774,-4.85216 2.19853,-8.79412 -6.1317,3.49786 -17.97079,13.27912 -8.79412,13.19118 -1.40266,4.46081 -10.27813,1.44883 -10.99265,6.59559 6.41311,4.53776 8.27526,7.08586 17.58824,4.39705 -9.7307,10.94209 10.06706,17.30243 2.19853,26.38236 10.07586,-8.12137 12.7075,2.93724 19.78676,0 -4.9247,-4.60372 -8.0708,-10.98385 -10.99264,-17.58824 7.49039,0.87722 3.62317,6.76928 8.79411,0 0,2.93064 0,5.86348 0,8.79412 8.76994,1.207 6.61978,1.207 15.38971,0 -0.66835,-5.12917 -4.69386,-9.47346 2.19853,-10.99265 3.52644,3.19667 14.67519,10.07367 8.79412,15.38971 -0.24843,-2.6822 -0.65736,-5.20612 -4.39706,-4.39706 -3.44509,3.70672 2.82072,10.10005 4.39706,15.38971 0.49247,-1.70606 0.0594,-4.3377 2.19853,-4.39706 0.16489,3.82984 -0.49027,6.83743 -2.19853,8.79412 2.19853,0 4.39706,0 6.59559,0 -0.22425,-2.46675 3.19666,-3.42311 0,-4.39706 -0.12532,1.3411 -0.32758,2.60306 -2.19853,2.19853 4.73343,-12.01716 2.74596,-17.60363 2.19853,-26.38236 -3.78147,-0.86842 -5.63483,3.26262 -6.59559,0 5.39519,-1.3433 1.56755,-23.20768 -2.19853,-15.3897 z m 411.12504,0 c -2.10619,-6.68793 4.70925,-22.29749 -4.39706,-21.9853 2.10619,6.68793 -4.70925,22.29749 4.39706,21.9853 z m -208.8603,-10.99265 c 5.8283,1.91052 13.34067,-5.36881 8.79411,-6.59559 -0.598,4.53337 -9.73509,0.52325 -8.79411,6.59559 z m -255.02945,-2.19853 c -12.52942,-3.81885 -8.01804,7.51237 0,0 l 0,0 z m 474.8824,8.79412 c 0.2902,-2.88887 0.33197,-15.90637 -2.19853,-8.79412 -0.29021,2.88887 -0.33198,15.90636 2.19853,8.79412 z M 368.9048,231.78961 c 13.10763,11.03881 -4.91152,-4.13764 0,0 l 0,0 z m 54.96324,21.98529 c 13.74741,-3.84083 14.22009,-20.95638 28.58089,-24.18382 -16.22515,1.36309 -21.13667,14.03981 -28.58089,24.18382 z m 21.9853,15.38971 c -1.6555,-7.22437 -14.12775,-15.07312 -19.78677,-10.99265 9.06014,1.2004 12.8658,7.65309 19.78677,10.99265 z m 15.38971,19.78677 c -10.75301,-12.69651 -20.66399,-26.23945 -41.77207,-28.58089 -2.89326,9.90218 -8.79412,18.23681 -10.99265,24.18383 -5.70958,15.43368 -6.41091,48.8799 -8.79412,72.55147 -0.98274,9.75708 -5.14236,21.32354 -4.39706,26.38236 2.62065,17.7993 22.52174,38.23683 39.57354,37.37501 13.97166,11.43015 45.38645,22.20515 65.95589,13.19117 2.60746,-6.92097 4.30692,-14.74553 8.79412,-19.78676 1.78301,12.04134 -6.5736,13.94527 -6.59559,24.18382 13.06806,-10.40784 16.64727,6.19546 26.38236,2.19853 -5.71618,-8.01584 2.36122,-21.01574 4.39706,-28.58088 -6.38234,-2.41179 -15.60297,-1.98528 -21.9853,-4.39706 -5.31605,5.01045 -14.36959,17.7861 -24.18383,10.99265 4.00572,-5.72498 21.32574,-1.05969 21.9853,-15.38971 -2.79873,-5.26328 -7.1716,-8.95022 -15.38971,-8.79412 -9.68013,10.10664 -19.30749,20.26605 -32.97794,26.38236 -5.80632,-0.055 -13.77599,2.05122 -10.99265,-6.59559 14.71036,9.73948 32.10952,-10.39465 39.57353,-21.9853 -11.16193,-3.37035 -14.96319,-10.72443 -21.9853,-13.19118 5.56009,-12.22822 -3.48906,-13.10983 -8.79411,-19.78677 7.57173,-16.53294 1.83797,-44.80163 2.19853,-70.35294 z m -41.77207,131.91178 c -2.27768,5.78433 -2.63164,13.49237 -2.19853,21.98529 5.50952,1.21139 14.47952,10.26934 17.58824,6.59559 -7.11225,-2.53051 5.90525,-2.48873 8.79412,-2.19853 1.69067,-8.28626 -2.68221,-10.50897 -2.19853,-17.58824 -11.28066,1.02012 -13.50997,-7.00891 -21.9853,-8.79411 z m 41.77207,19.78676 c 6.1207,0.67495 16.46918,9.73289 19.78676,0 -2.78114,-2.51951 -17.3354,-4.41684 -19.78676,0 z M 531.596,429.65727 c -5.70079,17.55087 6.61317,-14.66859 0,0 l 0,0 z m -50.56619,-43.97059 c 23.41434,5.89866 41.89299,16.73521 61.55883,26.38236 -2.11058,-36.73084 -1.85116,-75.82949 -13.19117,-103.33089 -1.30813,4.55315 2.71738,14.44213 -2.19853,15.3897 0.066,-9.94614 -10.1792,-0.69254 -13.19118,0 0.62658,13.29671 -2.6866,30.53538 6.59559,35.17647 17.01222,-2.35682 4.46521,-20.6354 10.99265,-32.97794 1.1938,9.79885 2.15895,19.82634 4.39706,28.58088 -15.77226,7.51018 -27.88616,13.12523 -46.16913,4.39706 6.59559,0 13.19118,0 19.78677,0 0.97834,-12.7031 -0.92338,-22.52833 -2.19853,-32.97794 -8.80291,0.32098 -15.90197,-8.87546 -24.18383,-2.19853 -0.39134,11.44335 6.69233,26.93858 2.19853,35.17647 -2.34143,-15.2468 -5.5271,-29.64717 -4.39706,-48.36764 -11.43455,4.68726 -10.65847,21.58515 -17.58823,30.77941 9.89118,2.9878 1.58733,23.95737 8.79411,19.78676 1.2048,-2.11938 21.56758,13.20437 26.38236,21.9853 -6.279,-6.91218 -18.23241,-8.14995 -24.18383,-15.38971 0.16489,3.82984 -0.49027,6.83743 -2.19853,8.79412 7.37167,-1.51039 8.03783,3.68913 8.79412,8.79412 z m 4.39706,-76.94853 c 1.87755,-4.47841 -1.91492,-13.65947 -4.39706,-6.59559 5.17534,2.15236 1.96989,12.68771 6.59559,15.38971 -1.31032,-13.54515 11.09378,1.07728 17.58824,0 1.98087,-12.98232 5.77334,-1.48841 10.99265,0 0.48587,-1.71266 1.84237,-2.55689 4.39706,-2.19853 6.2812,-28.79195 -20.39576,-17.73334 -32.97795,-19.78677 8.11038,-3.61438 20.68157,-2.77015 30.77942,-4.39706 -8.80291,-18.46765 -26.45931,-33.03071 -30.77942,-61.55883 -20.91681,-4.06069 -21.69289,12.01716 -41.77206,8.79412 -1.85116,6.94295 -6.94296,10.64528 -8.79412,17.58823 8.53029,8.32584 21.73246,11.97759 24.18383,26.38236 8.65341,3.52204 0.76508,-9.49325 6.59558,-8.79412 3.8936,18.96232 -10.42542,35.39193 2.19853,43.9706 4.02112,-9.90438 5.79093,-22.05565 15.38971,-26.38236 -1.27075,5.87447 6.50325,13.73641 0,17.58824 z M 362.30921,238.3852 c 1.46642,0 2.93064,0 4.39706,0 0,-1.46642 0,-2.93064 0,-4.39706 -1.46642,0 -2.93064,0 -4.39706,0 0,1.46642 0,2.93064 0,4.39706 z m 158.29414,43.97059 c 0.8926,-22.8779 -18.76445,-25.20614 -17.58824,-48.36765 -16.38784,11.30923 17.39037,35.90638 4.39706,37.375 7.31231,0.7475 7.79379,8.32803 13.19118,10.99265 z m -384.7427,-39.57353 c 1.46642,0 2.93064,0 4.39706,0 0,-1.46642 0,-2.93064 0,-4.39706 -1.46642,0 -2.93064,0 -4.39706,0 0,1.46642 0,2.93064 0,4.39706 z m 587.00741,17.58823 c 2.46015,10.52217 -5.42157,10.70025 -6.59559,17.58824 9.22063,16.8957 6.19766,22.22714 6.59559,43.9706 8.03563,6.12949 36.87814,7.96306 41.77206,-2.19853 0.56942,-13.02849 -4.53116,-20.38477 -8.79411,-28.58089 0.32318,5.45235 0.41112,10.66946 -4.39706,10.99265 -5.991,-6.63736 1.52138,-13.09884 2.19853,-19.78677 -5.5403,-1.7896 -8.75015,-5.90525 -13.19118,-8.79412 8.74135,-0.56062 28.04005,9.16127 26.38235,-6.59559 -7.21117,3.68034 -12.97572,0.22425 -13.19117,-8.79412 2.93064,0 5.86347,0 8.79412,0 -0.26823,-5.59306 -3.19887,-8.52589 -8.79412,-8.79412 0.61339,5.01045 -0.52985,8.26428 -4.39706,8.79412 -3.71992,-8.00704 -8.73696,-14.71476 -17.58824,-17.58823 -6.94735,-1.08388 -0.81566,10.9091 -8.79412,8.79411 1.89293,-5.5249 2.88007,-11.77972 -6.59559,-10.99264 0.0506,10.43202 6.77147,17.57944 10.99265,17.58823 1.7918,7.73663 6.03716,13.0153 10.99265,17.58824 -10.30231,0.77608 -9.93296,-9.1217 -15.38971,-13.19118 z m 41.77206,-10.99265 c 4.88294,-0.91458 2.11059,-12.05453 -2.19852,-10.99264 -1.69727,1.50379 -5.72498,13.09884 2.19852,10.99264 z m -457.29416,6.59559 c 7.3387,4.09147 9.25581,-7.90371 4.39706,-8.79412 1.60273,5.99979 -4.36847,4.42565 -4.39706,8.79412 z M 197.41948,253.7749 c 1.46642,0 2.93064,0 4.39706,0 0,-1.46642 0,-2.93064 0,-4.39706 -1.46642,0 -2.93064,0 -4.39706,0 0,1.46642 0,2.93064 0,4.39706 z m 474.8824,39.57354 c 10.44301,-8.55448 0.41992,-27.93452 2.19853,-41.77207 -0.48588,-1.71265 -1.84017,-2.55689 -4.39706,-2.19853 1.44003,13.94968 -2.89767,33.67708 2.19853,43.9706 z M 274.36802,264.76755 c -6.8836,-3.02517 9.31077,-10.95967 -2.19853,-13.19118 0.8948,5.86788 -5.69859,19.61309 2.19853,13.19118 z m 389.13974,213.25738 c -0.8992,7.9279 4.01451,3.01198 2.19853,-2.19853 0,-4.39706 0,-8.79412 0,-13.19118 8.24448,-11.3642 1.40706,-23.04499 0,-32.97795 -7.37387,-52.0304 5.41937,-120.60913 2.19853,-173.68384 -0.48588,-1.71265 -1.84237,-2.55689 -4.39706,-2.19853 1.02671,75.36999 -1.56096,155.25797 0,224.25003 z M 564.57394,284.55432 c -3.16368,-7.09685 -4.20798,-16.31089 -6.59559,-24.18383 -2.82071,-6.82423 -2.82071,6.23723 0,6.59559 -3.04496,6.99133 1.73464,22.44479 6.59559,28.58089 0,-3.66495 0,-7.3277 0,-10.99265 z M 193.02242,275.7602 c 1.29273,-6.25921 8.13896,-11.16193 -2.19853,-13.19118 1.26415,3.86502 -2.65582,12.91636 2.19853,13.19118 z m 129.71325,-4.39706 c -1.32131,-4.53996 -3.39892,-8.32583 -10.99265,-6.59559 -0.51005,5.11598 12.40631,7.83117 10.99265,6.59559 z M 91.890032,352.70873 c 26.388948,30.77283 58.999768,55.32381 101.132388,70.35296 6.06574,-11.5203 -1.55436,-21.00036 -4.39706,-30.77942 -11.16633,-38.40392 -28.8601,-73.80903 -46.16912,-107.72795 -0.48588,-1.71265 -1.84017,-2.55469 -4.39706,-2.19853 -10.37926,28.45997 -36.25378,41.42689 -46.169148,70.35294 z M 329.33126,286.75285 c -12.67672,7.84435 -19.03927,21.99849 -28.58088,32.97795 -1.87095,-9.30638 11.87206,-14.363 6.59558,-19.78677 -5.86567,12.10071 -14.54547,18.87657 -13.19117,32.97794 -18.37531,14.60263 -25.81954,40.13636 -43.9706,54.96324 0.14291,12.59977 -11.72696,13.19118 -10.99265,26.38236 4.61032,3.96614 11.59725,-3.02298 10.99265,-10.99265 8.87547,-4.6345 14.48392,-16.83634 17.58824,-24.18383 1.08168,-2.55909 7.07267,-3.97714 8.79412,-6.59559 3.68034,-5.60185 5.43037,-15.38091 8.79412,-19.78677 1.02231,-1.3389 5.72497,-0.96295 6.59559,-2.19852 2.57008,-3.65176 1.7852,-9.13929 4.39706,-13.19118 1.03111,-1.60053 5.47434,-0.81786 6.59559,-2.19853 1.09266,-1.34111 -0.98055,-5.15556 0,-6.59559 6.23063,-9.17006 18.87437,-16.80336 19.78676,-28.58088 6.63077,-1.52578 13.69245,-14.02882 10.99265,-17.58824 -1.95669,1.88414 -16.49117,0.20666 -10.99265,6.59559 0.24404,-1.74783 7.26834,-6.66374 6.59559,-2.19853 z m 595.80156,4.39706 c 0.6134,-5.01045 -0.5299,-8.26427 -4.3971,-8.79412 0.5013,3.89579 -2.2161,11.01024 4.3971,8.79412 z M 74.301792,319.7308 c 0.25723,2.24909 -9.48445,4.44761 -2.19853,6.59558 0.70133,-5.16214 6.80445,-4.9203 8.79412,-8.79411 -2.58767,-0.34297 -6.23943,0.37814 -6.59559,-2.19853 0,-2.19853 0,-4.39706 0,-6.59559 2.93064,0 5.86348,0 8.79412,0 0.3034,4.09366 1.44663,7.34748 4.39706,8.79412 4.41025,-4.47621 0.57382,-5.85689 -2.19853,-8.79412 6.24602,0.51006 10.04948,-24.48503 2.19853,-17.58824 2.56129,0.36935 2.3876,3.47587 2.19853,6.59559 -11.29605,3.31538 -33.92111,9.70431 -24.18383,15.38971 0.31879,6.18226 -5.3842,6.34056 -10.99265,6.59559 -0.22425,-2.46675 3.19667,-3.42312 0,-4.39706 -0.46388,2.65582 -2.44036,1.35209 -4.39705,0 -0.70573,8.76773 8.26207,7.85973 10.99264,13.19117 -1.53017,-7.39365 4.52018,-7.20458 6.59559,-10.99264 2.58767,0.34297 6.23943,-0.37815 6.59559,2.19853 z m 0,-24.18383 c 1.46642,0 2.93064,0 4.39706,0 0,-1.46642 0,-2.93064 0,-4.39706 -1.46642,0 -2.93064,0 -4.39706,0 0,1.46642 0,2.93064 0,4.39706 z m 303.397128,13.19118 c -5.03244,-0.97835 8.33902,-13.30111 0,-17.58824 3.20106,8.61824 -10.46061,21.9831 0,17.58824 z m 147.30149,-13.19118 c 7.84875,19.06345 -5.25669,-12.76686 0,0 l 0,0 z m -263.82357,10.99265 c 1.46642,0 2.93064,0 4.39706,0 0,-1.46642 0,-2.93064 0,-4.39706 -1.46642,0 -2.93064,0 -4.39706,0 0,1.46642 0,2.93064 0,4.39706 z m 266.0221,2.19853 c -3.62978,-0.0352 -1.23118,-6.09653 -4.39706,-6.59559 -1.88414,4.485 3.46048,12.1139 4.39706,6.59559 z m 35.17647,0 c -2.77454,-10.57933 -1.13444,-1.14983 0,4.39706 3.23184,15.80522 1.71046,2.12378 0,-4.39706 z m -349.56622,8.79412 c -6.91658,2.51951 -5.34243,-3.4517 -8.79412,-4.39706 -5.3798,5.18413 3.2824,4.08926 2.19853,10.99264 -2.80972,0.12092 -3.04497,2.81631 -6.59559,2.19853 -0.0374,-3.21865 9.2712,-6.96933 0,-6.59558 -3.62977,0.0352 -1.23118,6.09651 -4.39706,6.59558 -0.24624,-5.61724 -4.02991,-7.69485 -6.59559,-10.99264 0.32318,5.45235 0.40893,10.66945 -4.39706,10.99264 -0.34517,-2.58767 0.37815,-6.24162 -2.19853,-6.59558 -5.15555,5.88545 4.3421,10.4518 -6.59559,6.59558 8.71058,7.53216 5.13577,6.69672 6.59559,15.38971 -0.40013,-4.7972 1.7984,-6.99573 6.59559,-6.59559 0.25503,5.60845 0.41332,11.31363 6.59559,10.99265 1.6379,-6.76708 -6.03496,-4.22558 -4.39706,-10.99265 4.68946,-4.83677 13.89471,-5.15995 21.9853,-6.59559 -0.0945,3.02737 1.0355,4.82577 2.19853,6.59559 0.67275,5.06981 -6.35156,2.44256 -6.59559,6.59559 3.82984,-0.16489 6.83742,0.49247 8.79412,2.19853 -0.40014,-4.7972 1.79839,-6.99573 6.59559,-6.59559 -2.44257,9.45148 -1.02892,2.81192 2.19853,6.59559 -0.61339,5.09619 -5.87228,5.05442 -8.79412,2.19853 -2.74817,9.82962 6.22623,19.30089 -4.39706,19.78676 1.71265,0.48588 2.55689,1.84237 2.19853,4.39706 3.82984,0.16489 6.83742,-0.49247 8.79412,-2.19853 4.43003,7.9367 -0.21986,10.64309 -2.19853,17.58824 9.83842,-1.0465 11.00144,6.5868 10.99264,15.38971 -2.92844,5.39079 -6.63516,-3.96175 -8.79411,2.19853 2.97241,0.69034 4.19919,3.1307 8.79411,2.19853 5.94043,-8.25328 1.11466,-14.21789 0,-19.78677 -3.27141,-16.33947 8.6732,-16.40103 6.59559,-24.18383 -2.00286,5.32484 -8.83589,5.81951 -15.3897,6.59559 -7.0287,-10.35507 13.91669,-8.71937 15.3897,-17.58823 -5.12917,0.66835 -9.47346,4.69386 -10.99265,-2.19853 0.52545,-3.13731 3.61878,-3.70892 4.39706,-6.59559 -8.43356,-6.22184 -19.4372,-9.8758 -19.78676,-24.18382 z m 17.58823,17.58823 c 0.11873,-3.78367 -1.69286,-5.63483 -4.39705,-6.59559 0.20886,3.45389 -0.29461,7.6223 4.39705,6.59559 z m 349.56621,-8.79412 c -1.70606,-4.88953 -1.26855,-11.92262 -6.59559,-13.19117 1.33231,3.97054 4.66748,17.08476 6.59559,13.19117 z m -2.19853,28.58088 c -0.58921,-15.53481 0.93657,-33.1824 -10.99265,-37.37499 0.69913,15.42268 -2.87565,35.1193 10.99265,37.37499 z M 322.73567,326.32638 c -11.23668,16.0031 5.5359,-1.9523 0,0 l 0,0 z m 50.56619,8.79412 c -0.37375,-3.289 0.78487,-8.11258 -2.19853,-8.79412 -2.85369,2.92184 -2.89767,8.18073 2.19853,8.79412 z m 356.16179,10.99265 c -0.37595,-3.289 0.78487,-8.11258 -2.19853,-8.79412 -2.85589,2.92184 -2.89766,8.18073 2.19853,8.79412 z m 6.59559,4.39706 c -2.08421,-5.47654 7.84875,-13.26373 -2.19853,-13.19118 1.26415,3.86501 -2.65802,12.91636 2.19853,13.19118 z M 41.323852,348.31168 c 3.02517,0.0945 4.82797,-1.03551 6.59559,-2.19853 0.34516,2.58767 -0.37815,6.24162 2.19853,6.59558 1.85555,-10.18358 11.33561,-1.30812 13.19117,-8.79411 -2.90645,-0.0264 -2.00945,-3.85403 -4.39706,-4.39706 -0.57161,8.2225 -18.21262,-0.62439 -17.58823,8.79412 z m 707.926568,-2.19853 c 1.51259,-5.90965 -4.54436,-4.24976 -6.59559,-6.59559 -0.40013,4.79719 1.79839,6.99572 6.59559,6.59559 z M 72.103262,343.91462 c -10.50677,-6.11192 -5.32484,7.21117 0,0 l 0,0 z m -37.375,15.3897 c 4.35309,-1.4906 6.98912,-9.98572 0,-10.99264 2.85369,5.45235 -4.90492,10.66946 0,10.99264 z m 285.808878,-4.39706 c 0.598,-2.99219 -1.36089,-8.58086 -2.19853,-4.39705 -0.598,2.99219 1.36089,8.58086 2.19853,4.39705 z m -248.433878,4.39706 c 0,-2.93064 0,-5.86347 0,-8.79411 -4.55535,1.30812 -14.44214,-2.71739 -15.38971,2.19852 6.68354,4.59053 8.75675,1.03991 15.38971,6.59559 z m 503.463308,26.38236 c -3.48027,-8.97879 1.37628,-26.29441 -6.59559,-30.77942 0.86622,14.12336 -5.81069,25.91407 6.59559,30.77942 z m 4.39706,-2.19853 c 5.29626,0.8992 4.7796,-4.01451 10.99265,-2.19853 0.75189,-11.74454 -4.67188,-17.31342 -8.79412,-24.18383 -8.30385,6.12951 -0.7475,14.85987 -2.19853,26.38236 z M 83.095912,359.30432 c -2.93064,0 -5.86348,0 -8.79412,0 -3.48906,10.22097 11.35981,7.6311 8.79412,0 z m 2.19853,17.58824 c 1.44663,-2.95043 4.70046,-4.09366 8.79412,-4.39706 -0.12092,2.80972 -2.81852,3.04497 -2.19853,6.59559 5.74916,0.61999 9.455878,-0.80246 8.794118,-6.59559 -8.075198,-0.71892 -7.771798,-9.81643 -15.389708,-10.99265 4.98187,8.61164 -3.2868,5.61285 -6.59559,10.99265 2.58767,0.34297 6.23943,-0.37814 6.59559,2.19853 -1.22018,-0.007 -2.49533,1.78081 0,2.19853 z M 197.41948,365.89991 c 1.46642,0 2.93064,0 4.39706,0 0,-1.46642 0,-2.93064 0,-4.39706 -1.46642,0 -2.93064,0 -4.39706,0 0,1.46642 0,2.93064 0,4.39706 z m 565.02212,8.79412 c 9.61197,-5.93603 11.052,3.53084 21.98529,2.19853 -0.55183,-6.41311 4.13983,-7.58493 6.59559,-10.99265 -7.79818,-6.93856 -25.10501,-1.31252 -28.58088,8.79412 z m -30.77942,-6.59559 c -0.69034,-3.30439 -2.16555,-0.52325 -2.19853,0 -1.29274,21.64233 3.63417,6.8792 2.19853,0 z m 10.99265,8.79412 c 6.34276,-12.74048 -5.42597,-5.78653 0,0 l 0,0 z m -479.27946,30.77942 c -4.88513,5.80851 -17.16172,13.22635 -13.19118,19.78677 11.61264,-15.51723 30.55077,-35.38974 30.77942,-54.96325 -5.42158,12.14248 -11.47193,27.90374 -17.58824,35.17648 z m -50.56618,-26.38236 c 0.64636,-7.65968 5.94922,0.18468 6.59559,-4.39706 -1.70167,-4.58393 -13.21976,1.62032 -6.59559,4.39706 z m -92.33827,10.99265 c -4.29593,4.13983 -15.13468,-15.48864 -21.985298,-8.79412 3.267008,2.59646 9.823028,1.90173 8.794118,8.79412 -2.05123,-1.3433 -8.110378,-5.11598 -6.59559,2.19853 7.51457,-0.91899 12.52722,0.66396 10.99265,8.79412 13.80017,3.05595 30.02754,3.68473 32.97797,17.58824 2.93064,0 5.86347,0 8.79411,0 3.10653,-12.18645 -20.03959,-6.39113 -10.99264,-17.58824 -12.8724,1.26635 -16.83637,-2.9878 -21.98532,-4.39706 0.23964,-2.93944 4.12004,-12.1205 0,-6.59559 z m 584.8089,6.59559 c 11.08719,-0.63757 16.41642,-7.0353 21.9853,-13.19118 -6.76707,1.53897 -4.22557,1.53897 -10.99265,0 -0.7475,7.31231 -8.32803,7.79379 -10.99265,13.19118 z m 30.77942,-4.39706 c 5.69639,2.36562 8.17413,7.94768 15.38971,8.79412 10.23635,-4.31572 17.26065,-11.60164 26.38235,-6.59559 -8.80511,-13.79358 -28.04444,-7.73443 -41.77206,-2.19853 z m -523.25005,-4.39706 c -6.67694,7.40685 8.12796,6.66594 0,0 l 0,0 z m 26.38235,4.39706 c -6.67693,7.40685 8.12797,6.66594 0,0 l 0,0 z m 492.47064,19.78677 c 3.36155,10.34848 0.77168,-4.50039 0,-8.79412 -3.82984,0.16489 -6.83743,-0.49247 -8.79412,-2.19853 -2.87348,9.46907 6.23943,6.95175 8.79412,10.99265 z m 8.79412,-2.19853 c 1.46642,0 2.93064,0 4.39706,0 0,-2.93064 0,-5.86348 0,-8.79412 -1.46642,0 -2.93064,0 -4.39706,0 0,2.93064 0,5.86348 0,8.79412 z m -505.66182,43.97059 c 9.17227,-1.08607 11.41697,-9.10411 15.38971,-15.38971 -6.52304,-12.86359 -10.41004,-27.03532 -21.9853,-28.58088 -11.69397,-1.56096 -30.01432,20.74972 -46.16912,19.78676 -4.4828,-0.26602 -3.52644,-5.969 -10.99265,-2.19853 14.24208,6.60659 5.66561,12.85261 4.39706,26.38236 2.74597,7.51458 10.26494,10.25394 21.9853,8.79412 3.04716,-1.3477 0.32978,-8.46434 4.39706,-8.79412 9.76367,3.42971 9.90657,16.47578 19.78677,19.78677 7.763,-15.3963 -14.64661,-22.37224 -10.99265,-32.97795 4.50039,7.22437 11.77093,11.67859 13.19118,21.9853 10.54195,3.94856 7.08586,-6.10532 10.99264,-8.79412 z m 490.27211,-30.77941 c -13.69464,-9.33496 -33.51219,7.44422 -50.56618,8.79411 0,5.86348 0,11.72476 0,17.58824 7.774,-3.95076 7.57613,-15.87558 21.98529,-13.19118 0.34297,-2.58767 -0.37814,-6.24162 2.19853,-6.59559 12.30078,1.9435 30.64091,4.82578 32.97795,-8.79411 -3.76388,-2.0996 -4.43004,-7.29473 -8.79412,-8.79412 -1.81599,6.21304 3.09773,5.69639 2.19853,10.99265 z m -556.228,4.39705 c -4.4828,-1.38067 -0.61778,-11.10917 -8.79412,-8.79411 0,2.93064 0,5.86347 0,8.79411 5.01045,-3.01858 8.26428,5.66781 8.79412,0 z m 360.55888,17.58824 c 9.58119,1.41146 14.61802,7.36728 21.98529,10.99265 -0.0264,2.90426 -3.85402,2.00946 -4.39706,4.39706 7.95428,0.18028 13.9145,18.00816 19.78675,6.59559 -3.15267,-3.4429 -11.46091,-1.73024 -10.99263,-8.79412 6.07454,2.71958 11.16851,6.41971 19.78675,6.59559 3.21865,-2.79213 14.43115,-8.8227 8.79412,-13.19118 -1.85776,3.12411 -11.33342,-4.64109 -13.19118,-8.79412 4.4916,-4.69386 8.69958,0.61779 13.19118,2.19853 1.97428,-3.887 5.30725,-6.41751 6.59559,-10.99265 -6.71431,2.48654 -17.98837,-0.11212 -17.58824,-10.99264 -9.46465,-3.72651 -20.73651,-5.64583 -35.17645,-4.39706 0.35176,12.07652 -5.31385,18.13787 -8.79412,26.38235 z m -200.06621,-6.59559 c -3.87381,-1.98967 -3.63197,-8.09278 -8.79412,-8.79412 -0.67934,8.00925 0.34957,14.30804 2.19853,19.78677 -1.70606,0.49247 -4.3377,0.0594 -4.39706,2.19853 5.06981,4.36188 2.44257,-0.55183 6.59559,-2.19853 2.20513,-0.007 2.61625,1.78081 4.39706,2.19853 3.00319,-9.59878 -8.51271,-4.67847 -6.59559,-13.19118 3.78147,-0.86842 5.63483,3.26262 6.59559,0 z m 367.15444,6.59559 c 4.69826,7.0265 11.2235,12.22823 19.78677,15.38971 0.86842,-3.78367 -3.26262,-5.63483 0,-6.59559 7.05728,-1.92811 4.55755,5.70299 8.79412,6.59559 5.57327,-5.36881 -4.6345,-4.68507 -2.19853,-13.19118 4.0321,-0.11432 7.44422,11.26747 10.99265,4.39706 -3.26702,-1.86215 -3.18127,-7.07926 -4.39706,-10.99265 3.1373,0.52545 3.70892,3.61878 6.59559,4.39706 1.6379,-6.76707 -6.03497,-4.22557 -4.39706,-10.99265 -15.16326,3.20546 -31.71379,-5.80851 -35.17648,10.99265 z m -206.66177,-2.19853 c 4.52897,1.92811 9.8736,-5.70298 4.39706,-6.59559 -0.52545,3.13731 -3.61878,3.70892 -4.39706,6.59559 z m -219.85297,0 c 1.46642,0 2.93064,0 4.39706,0 0,-1.46642 0,-2.93064 0,-4.39706 -1.46642,0 -2.93064,0 -4.39706,0 0,1.46642 0,2.93064 0,4.39706 z m 382.54415,-4.39706 c -9.22723,7.6267 -27.57396,6.1361 -35.17648,15.38971 13.54954,0.99154 27.28815,12.96473 39.57354,2.19853 -1.80939,-5.51831 4.27394,-18.92934 -4.39706,-17.58824 z m -400.13239,15.38971 c 0.24404,-4.15302 7.26834,-1.52578 6.59559,-6.59559 -3.1373,-0.52545 -3.70892,-3.61878 -6.59559,-4.39706 -1.26635,1.33231 -5.14456,10.42763 0,10.99265 z m 342.97062,4.39706 c 1.59613,21.12128 24.84998,20.58483 30.77941,37.37501 -6.31637,13.21976 -29.34817,0.95856 -39.57353,6.59559 -0.37595,11.78192 11.02343,29.71093 15.38971,43.97059 19.05465,0 38.10711,0 57.16177,0 3.41871,-27.58715 0.79147,-61.73691 0,-87.94119 -19.70982,15.71949 -51.2939,-7.60471 -63.75736,0 z m 103.33089,4.39706 c 2.77455,-2.57887 1.76322,-9.13489 -4.39706,-8.79412 -0.61339,5.01045 0.52985,8.26427 4.39706,8.79412 z m -373.75003,2.19853 c 2.85369,-2.92185 2.89766,-8.18073 -2.19853,-8.79412 -2.85589,2.92185 -2.89766,8.18073 2.19853,8.79412 z m 13.19118,-2.19853 c 0.11872,-3.78367 -1.69287,-5.63483 -4.39706,-6.59559 -0.11872,3.78367 1.69287,5.63483 4.39706,6.59559 z m 367.15444,8.79412 c 0.61339,-5.01045 -0.52984,-8.26427 -4.39706,-8.79412 -0.61339,5.01045 0.52985,8.26427 4.39706,8.79412 z m -446.30151,0 c 1.46642,0 2.93064,0 4.39706,0 0,-1.46642 0,-2.93064 0,-4.39706 -1.46642,0 -2.93064,0 -4.39706,0 0,1.46642 0,2.93064 0,4.39706 z m 74.75001,2.19853 c -2.23151,-5.66781 -10.166,-8.42257 -13.19118,-2.19853 7.91031,-3.99033 12.39971,6.30978 13.19118,2.19853 z m 136.30884,6.59559 c -0.23084,-5.63263 -1.24436,-10.48259 -4.39706,-13.19118 -3.74189,3.70672 1.27735,9.88019 4.39706,13.19118 z M 245.78713,471.42934 c -2.31505,12.76027 9.52843,0.91679 0,0 l 0,0 z m -8.79412,6.59559 c 1.46642,0 2.93064,0 4.39706,0 0,-1.46642 0,-2.93064 0,-4.39706 -1.46642,0 -2.93064,0 -4.39706,0 0,1.46642 0,2.93064 0,4.39706 z m 270.41916,30.77941 c -3.24283,5.55129 -7.76741,9.82084 -8.79412,17.58824 3.25382,7.73883 12.48325,9.50205 17.58824,15.38971 52.86802,5.2325 66.67479,-28.59408 74.74999,-68.15442 -19.49876,10.54635 -52.37336,7.71904 -65.95587,24.18383 21.16085,4.94889 40.8135,-12.28319 50.56616,-4.39706 -4.35529,8.15215 -29.24482,7.33209 -26.38234,15.3897 5.34903,-1.84896 20.85084,-7.33209 21.98528,0 -15.91294,9.68453 -51.09381,11.2279 -63.75734,0 z m 26.38236,-32.97794 c -1.76762,13.3099 10.07806,1.46642 0,0 l 0,0 z m -325.3824,6.59559 c 1.69067,8.28626 -2.68221,10.50897 -2.19853,17.58824 8.17633,-2.31506 4.31131,7.41344 8.79412,8.79411 5.9712,-6.61757 -4.81039,-9.80983 -2.19853,-19.78676 5.09839,0.70133 8.44015,-0.35177 10.99265,-2.19853 1.02891,-6.89239 -5.52711,-6.19766 -8.79412,-8.79412 0.37155,8.69079 -3.37695,-0.70353 -6.59559,4.39706 z m 532.04417,6.59559 c 1.46642,-4.37728 7.58273,-9.38992 0,-10.99265 2.86029,5.45895 -6.45049,9.1239 0,10.99265 z m -499.06623,-6.59559 c 3.46269,5.74036 -4.99506,16.69563 8.79412,15.38971 -3.95515,-8.2357 3.42531,-14.13875 -4.39706,-17.58824 -0.48587,1.71265 -1.84017,2.55689 -4.39706,2.19853 z m 15.38971,6.59559 c 5.35782,-2.5459 -2.45356,-10.35508 -4.39706,-4.39706 2.90646,0.0264 2.00946,3.85402 4.39706,4.39706 z m 503.46329,6.59559 c -2.08421,-5.47654 7.84875,-13.26373 -2.19853,-13.19118 1.26415,3.86501 -2.65803,12.91636 2.19853,13.19118 z m -92.33825,6.59559 c -0.26163,-3.65616 1.20039,-19.91209 -2.19853,-13.19118 0.26162,3.65615 -1.2004,19.91208 2.19853,13.19118 z m -171.4853,-8.79412 c 1.46642,0 2.93064,0 4.39706,0 0,-1.46642 0,-2.93064 0,-4.39706 -1.46642,0 -2.93064,0 -4.39706,0 0,1.46642 0,2.93064 0,4.39706 z m 8.79412,-2.19853 c 0,2.19853 0,4.39706 0,6.59559 4.14863,-2.44697 10.10224,-3.08894 10.99265,-8.79412 -5.29626,-0.8992 -4.77961,4.01451 -10.99265,2.19853 z m -266.0221,4.39706 c -5.09839,0.70133 -8.44015,-0.35397 -10.99265,-2.19853 -3.39013,6.63736 11.3752,5.78433 10.99265,2.19853 z m 237.44121,8.79412 c -0.66175,-5.79313 3.04497,-7.21558 8.79412,-6.59559 -0.31659,2.59866 -3.91558,4.98406 0,6.59559 2.82072,-2.88667 2.82072,-8.10598 0,-10.99265 -5.29626,-0.8992 -4.7796,4.01451 -10.99265,2.19853 -0.12531,-1.34111 -0.32758,-2.60306 -2.19853,-2.19853 -0.32978,5.45895 1.13664,9.1239 4.39706,10.99265 z m 46.16913,0 c -3.1373,-0.52545 -3.70892,-3.61878 -6.59559,-4.39706 -1.92811,4.52897 5.70298,9.87139 6.59559,4.39706 z m -263.82357,0 c -2.31505,12.76026 9.52843,0.91678 0,0 l 0,0 z m 472.68387,4.39705 c -7.52337,-2.18753 -6.60658,0.92778 -10.99265,-4.39705 -0.9014,2.76355 -2.8339,4.49379 -6.59559,4.39705 0.17588,-3.42091 -6.39112,-1.52358 -2.19853,0 2.78334,2.51952 17.33541,4.41685 19.78677,0 z m -463.88975,2.19853 c 3.78147,0.11873 5.63483,-1.69286 6.59559,-4.39705 -3.45389,0.21105 -7.6223,-0.29461 -6.59559,4.39705 z m 70.35295,0 c 1.46642,0 2.93064,0 4.39706,0 0,-1.46641 0,-2.93064 0,-4.39705 -1.46642,0 -2.93064,0 -4.39706,0 0,1.46641 0,2.93064 0,4.39705 z m 8.79412,4.39706 c 5.46774,2.07322 0.64197,-12.58438 0,-4.39706 0.19787,3.5946 -3.66275,9.56361 0,4.39706 z m 81.3456,-6.59559 c -9.96813,15.81843 -49.83407,18.50943 -46.16912,39.57354 18.32034,0 36.64289,0 54.96324,0 -8.16974,-9.32396 4.9313,-32.68774 -8.79412,-39.57354 z m 63.75736,19.78677 c 0,-1.46642 0,-2.93064 0,-4.39706 1.3411,-0.12531 2.60306,-0.32758 2.19853,-2.19853 -6.44609,2.52831 -8.16534,-10.54634 -10.99265,-4.39706 3.77708,2.81852 2.72398,10.4672 8.79412,10.99265 z m -13.19118,-8.79412 c 3.52425,12.57339 11.02783,5.06981 0,0 l 0,0 z m -149.50002,4.39706 c 1.46642,0 2.93064,0 4.39706,0 0,-1.46642 0,-2.93064 0,-4.39706 -1.46642,0 -2.93064,0 -4.39706,0 0,1.46642 0,2.93064 0,4.39706 z m 147.30149,-2.19853 c -3.19446,1.2026 -11.362,-2.57008 -10.99265,2.19853 3.19447,-1.20259 11.36201,2.57008 10.99265,-2.19853 z m -312.19122,21.9853 c 3.55503,-4.57514 18.96892,-18.03454 10.99265,-19.78677 -0.42212,8.45555 -14.22009,14.98078 -10.99265,19.78677 z m 309.99269,-4.39706 c 0.52545,-3.1373 3.61878,-3.70892 4.39706,-6.59559 -4.52897,-1.92811 -9.87359,5.70299 -4.39706,6.59559 z m 13.19118,0 c 5.46775,2.07321 0.64197,-12.58438 0,-4.39706 0.19787,3.5946 -3.66275,9.56361 0,4.39706 z m 266.02208,8.79412 c 6.41311,3.23184 6.41311,-9.82743 0,-6.59559 0,2.19853 0,4.39706 0,6.59559 z m -598.00007,6.59559 c -1.11905,-4.36408 12.12929,-5.03024 4.39706,-8.79412 0.62878,3.87601 -10.35287,6.80885 -4.39706,8.79412 z m 13.19118,8.79412 c -2.8339,-3.02958 -9.55041,-2.17435 -15.38971,-2.19853 -2.70419,7.30791 14.86207,5.3776 15.38971,2.19853 z m 230.84562,-2.19853 c -17.42994,1.0443 43.45174,9.79445 41.77207,2.19853 -9.64935,-3.71772 -39.68127,-2.32385 -41.77207,-2.19853 z m 233.04413,4.39706 c 9.24482,0.066 25.4238,3.24503 26.38236,-4.39706 -16.85613,0 -33.71006,0 -50.56619,0 0.65517,7.71024 15.2556,4.3333 24.18383,4.39706 z m 61.55883,0 c -0.26822,-9.25801 -16.87151,-2.18314 -24.18382,-4.39706 0.26822,9.26021 16.87151,2.18314 24.18382,4.39706 z m 76.94854,-2.19853 c -3.19666,-3.39893 -11.25427,-1.93691 -17.58823,-2.19853 -2.23151,7.53436 16.51535,5.2369 17.58823,2.19853 z m -637.57359,24.18382 c 2.91525,7.21558 34.45975,7.21558 37.375,0 -7.70145,-3.95735 -29.55703,-3.23623 -37.375,0 z m 309.99269,-2.19852 c -10.99265,0 -21.9853,0 -32.97795,0 -0.71672,10.33968 33.69467,10.33968 32.97795,0 z m 76.94854,4.39705 c 0.27481,4.85656 9.32616,0.93438 13.19118,2.19853 3.44509,-7.55634 -14.71916,-10.43422 -13.19118,-2.19853 z m 101.13234,2.19853 c 12.05674,-2.60086 34.72358,5.40839 39.57354,-4.39706 -10.30671,-3.65615 -35.86242,-3.65615 -46.16913,0 3.46489,0.20007 1.72145,5.60845 6.59559,4.39706 z m 48.36766,-2.19853 c 4.21678,2.63824 27.85317,5.95142 28.58088,-2.19853 -4.21678,-2.63823 -27.85317,-5.95142 -28.58088,2.19853 z m 83.54413,0 c 6.75828,3.01419 31.73797,5.41498 35.17647,-2.19853 -6.68573,-2.10179 -32.1447,-6.43069 -35.17647,2.19853 z"
       clip-rule="evenodd"
       inkscape:connector-curvature="0"
       style="fill:#3700f8;fill-opacity:1;fill-rule:evenodd;filter:url(#filter5839);opacity:1" />
    <path
       id="path5748"
       d="m 136,303 c 3.021,1.312 4.707,3.96 7,6 -3.397,-0.733 -9.837,-2.185 -7,-6 z"
       clip-rule="evenodd"
       inkscape:connector-curvature="0"
       style="fill-rule:evenodd" />
    <path
       id="path5750"
       d="m 354,277 c 0.911,-2.117 4.019,1.887 7,1 -1.645,2.85 -5.426,-0.479 -7,-1 z"
       clip-rule="evenodd"
       inkscape:connector-curvature="0"
       style="fill-rule:evenodd" />
    <path
       id="path5752"
       d="m 370,303 c 3.943,0.567 -2.763,6.119 -4,8 -2.068,-2.135 4.56,-4.058 4,-8 z"
       clip-rule="evenodd"
       inkscape:connector-curvature="0"
       style="fill-rule:evenodd" />
    <path
       id="path5754"
       d="m 239,91 c -0.529,0.804 -1.043,1.624 -1,3 -3.453,-0.787 -4.398,0.935 -5,3 -2.531,-2.135 -6.746,-2.587 -7,-7 3.762,-0.528 9.351,-2.396 13,1 z"
       clip-rule="evenodd"
       inkscape:connector-curvature="0"
       style="fill-rule:evenodd" />
    <path
       id="path5756"
       d="m 229,267 c -0.804,-0.529 -1.623,-1.043 -3,-1 0.016,-2.651 -0.555,-5.889 2,-6 4.8,-0.469 2.879,5.813 1,7 z"
       clip-rule="evenodd"
       inkscape:connector-curvature="0"
       style="fill-rule:evenodd" />
  </g>
</svg>
