<?xml version="1.0" encoding="UTF-8" standalone="no"?>
<!-- Created with Inkscape (http://www.inkscape.org/) -->

<svg
   xmlns:dc="http://purl.org/dc/elements/1.1/"
   xmlns:cc="http://creativecommons.org/ns#"
   xmlns:rdf="http://www.w3.org/1999/02/22-rdf-syntax-ns#"
   xmlns:svg="http://www.w3.org/2000/svg"
   xmlns="http://www.w3.org/2000/svg"
   xmlns:xlink="http://www.w3.org/1999/xlink"
   xmlns:sodipodi="http://sodipodi.sourceforge.net/DTD/sodipodi-0.dtd"
   xmlns:inkscape="http://www.inkscape.org/namespaces/inkscape"
   width="256"
   height="256"
   id="svg2"
   sodipodi:version="0.32"
   inkscape:version="0.92.4 (5da689c313, 2019-01-14)"
   sodipodi:docname="band_cover.svg"
   inkscape:output_extension="org.inkscape.output.svg.inkscape"
   version="1.0">
  <defs
     id="defs4">
    <inkscape:perspective
       sodipodi:type="inkscape:persp3d"
       inkscape:vp_x="0 : 128 : 1"
       inkscape:vp_y="0 : 1000 : 0"
       inkscape:vp_z="256 : 128 : 1"
       inkscape:persp3d-origin="128 : 85.333333 : 1"
       id="perspective17" />
    <linearGradient
       id="linearGradient3751"
       inkscape:collect="always">
      <stop
         id="stop3753"
         offset="0"
         style="stop-color:black;stop-opacity:1;" />
      <stop
         id="stop3755"
         offset="1"
         style="stop-color:black;stop-opacity:0;" />
    </linearGradient>
    <linearGradient
       inkscape:collect="always"
       xlink:href="#linearGradient3751"
       id="linearGradient3484"
       gradientUnits="userSpaceOnUse"
       gradientTransform="matrix(0.336682,0,0,0.336682,-81.3739,-51.8729)"
       x1="665.12128"
       y1="684.16162"
       x2="381.28015"
       y2="449.80624" />
  </defs>
  <sodipodi:namedview
     id="base"
     pagecolor="#ffffff"
     bordercolor="#666666"
     borderopacity="1.0"
     inkscape:pageopacity="0.0"
     inkscape:pageshadow="2"
     inkscape:zoom="1.1191406"
     inkscape:cx="-42.786625"
     inkscape:cy="70.174855"
     inkscape:document-units="px"
     inkscape:current-layer="layer1"
     inkscape:window-width="1920"
     inkscape:window-height="1017"
     inkscape:window-x="-8"
     inkscape:window-y="-8"
     showguides="true"
     inkscape:guide-bbox="true"
     width="256px"
     height="256px"
     borderlayer="false"
     showgrid="false"
     inkscape:window-maximized="1" />
  <metadata
     id="metadata7">
    <rdf:RDF>
      <cc:Work
         rdf:about="">
        <dc:format>image/svg+xml</dc:format>
        <dc:type
           rdf:resource="http://purl.org/dc/dcmitype/StillImage" />
      </cc:Work>
    </rdf:RDF>
  </metadata>
  <g
     inkscape:label="Capa 1"
     inkscape:groupmode="layer"
     id="layer1">
    <rect
       style="opacity:1;color:#000000;fill:#000000;fill-opacity:0.627451;fill-rule:nonzero;stroke:none;stroke-width:10.014;stroke-linecap:butt;stroke-linejoin:miter;marker:none;marker-start:none;marker-mid:none;marker-end:none;stroke-miterlimit:4;stroke-dasharray:none;stroke-dashoffset:0;stroke-opacity:1;visibility:visible;display:block;overflow:visible"
       id="rect1906"
       width="246.30026"
       height="246.30028"
       x="4.8498545"
       y="4.0691833"
       inkscape:export-filename="/home/jesusda/docs/curro/yo/ultrastar-ng/base/theme-pod/images/no_cover.png"
       inkscape:export-xdpi="89.889648"
       inkscape:export-ydpi="89.889648" />
    <path
       style="opacity:1;fill:#ffffff;fill-opacity:1;stroke-width:0.8326692"
       d="m 110.567,151.77892 c -5.07879,-0.23917 -10.05744,-2.02047 -14.09374,-5.04256 -1.26065,-0.94388 -3.0951,-2.66999 -4.04397,-3.80512 -2.89054,-3.45798 -4.62451,-7.32168 -5.23967,-11.67527 l -0.0626,-0.44307 -0.54075,0.0152 -0.54072,0.0151 -0.49328,1.4174 -0.49326,1.41741 0.0108,1.94676 0.0108,1.94677 0.92208,0.22907 c 0.95974,0.23844 1.3026,0.38176 1.39421,0.58281 0.0298,0.0654 0.0714,0.3626 0.0925,0.66057 l 0.0384,0.54176 -0.15006,0.057 c -0.0825,0.0314 -0.2962,0.05 -0.47481,0.0414 l -0.32474,-0.0157 -0.0762,-0.30087 c -0.0616,-0.24319 -0.0975,-0.30119 -0.18721,-0.30263 -0.18668,-0.003 -1.82819,-0.42443 -2.03462,-0.52239 -0.22437,-0.10647 -0.3496,-0.31419 -0.3496,-0.57987 0,-0.10269 -0.0199,-0.199 -0.0442,-0.21402 -0.0628,-0.0388 -0.27672,0.0241 -0.27672,0.0812 0,0.0262 -0.77414,2.26788 -1.72031,4.98139 -1.45345,4.16831 -1.72164,4.98345 -1.72888,5.25457 -0.007,0.26805 -0.0765,0.48358 -0.42051,1.30804 -0.51611,1.23673 -0.6147,1.40571 -0.92699,1.58872 -0.44384,0.26011 -1.09787,0.16753 -1.55678,-0.22034 -0.22494,-0.19013 -0.34849,-0.42755 -0.30168,-0.57974 0.0493,-0.16029 1.7212,-4.24531 1.79052,-4.37483 0.0453,-0.0847 0.0751,-0.0928 0.16463,-0.0449 0.0601,0.0321 0.11532,0.0505 0.12266,0.0408 0.007,-0.01 0.68048,-1.94033 1.49586,-4.2902 l 1.4825,-4.2725 -0.10979,-0.11685 c -0.0604,-0.0643 -0.10978,-0.16767 -0.10978,-0.22975 0,-0.1228 0.36207,-1.17903 0.43831,-1.27865 0.0258,-0.0337 0.12426,-0.0759 0.21881,-0.0938 l 0.17193,-0.0325 0.62997,-1.80501 0.62997,-1.80504 -0.002,-1.6982 -0.002,-1.69819 h -0.53487 -0.53487 l -0.005,0.41451 c -0.008,0.64162 -0.0273,0.67894 -0.35616,0.69807 -0.26327,0.0153 -0.279,0.009 -0.31875,-0.13372 -0.0545,-0.19506 -0.0545,-2.40452 0,-2.59957 0.0397,-0.14244 0.0555,-0.14903 0.31875,-0.13373 0.32887,0.0191 0.34791,0.0565 0.35616,0.69807 l 0.005,0.41453 h 0.53487 0.53487 v -2.27942 -2.27941 l -0.33429,0.0329 c -1.29388,0.12733 -2.26891,0.16239 -4.57311,0.16446 l -2.58072,0.002 -1e-5,6.68381 v 6.68383 l 0.12811,0.10898 c 0.11397,0.0969 0.13153,0.16657 0.15903,0.63048 0.0259,0.43767 0.0182,0.5215 -0.0479,0.5215 -0.0662,0 -0.0788,0.14101 -0.0788,0.88386 v 0.88385 l -0.14709,0.0568 c -0.20862,0.0806 -1.23059,0.0362 -1.43077,-0.0621 l -0.16046,-0.0789 -0.0149,-0.76903 c -0.0118,-0.60756 0.001,-0.78712 0.0617,-0.85514 0.0471,-0.053 0.0905,-0.27154 0.11268,-0.5675 0.0435,-0.57963 0.0654,-0.66859 0.16504,-0.66859 0.0661,0 0.0766,-0.92829 0.0766,-6.7615 v -6.76149 l -0.38778,-0.0303 c -1.762161,-0.13753 -3.14336,-0.25526 -3.283048,-0.27983 l -0.167442,-0.0295 -0.04045,2.3448 c -0.02225,1.28963 -0.03488,3.86114 -0.02809,5.71445 0.01283,3.49643 -0.0065,4.09502 -0.135708,4.20225 -0.04839,0.0401 -0.07596,0.16743 -0.07596,0.35067 v 0.28763 l -0.28081,-8.3e-4 c -0.154443,-4.4e-4 -0.310119,-0.0194 -0.345957,-0.0422 -0.108488,-0.069 -0.128064,-0.97565 -0.153561,-7.11007 l -0.02426,-5.8427 -0.119205,-0.0255 c -0.06556,-0.014 -0.347856,-0.0523 -0.627316,-0.085 -0.789287,-0.0925 -3.084673,-0.46374 -4.091736,-0.66167 l -0.909275,-0.17872 -0.176934,0.16717 c -0.168807,0.15948 -0.197109,0.16711 -0.615109,0.16611 -0.840813,-0.002 -1.516266,-0.32564 -1.614654,-0.7736 -0.01949,-0.0887 -0.06397,-0.16137 -0.09883,-0.16137 -0.03486,0 -0.508311,-0.13501 -1.05211,-0.30002 -0.5438,-0.16501 -1.030853,-0.31223 -1.082337,-0.32716 -0.08869,-0.0257 -0.09354,0.24207 -0.09254,5.10046 l 0.0011,5.12758 2.098301,3.00048 c 6.579027,9.40773 7.882563,11.25096 7.966662,11.26508 0.0891,0.0149 2.386022,3.24142 2.434483,3.41969 0.06551,0.24101 -0.286854,0.47382 -0.71582,0.47295 -0.32072,-6.4e-4 -0.732183,-0.1866 -0.960717,-0.43418 -0.271151,-0.29376 -1.208478,-1.66026 -1.29774,-1.89196 -0.04534,-0.11768 -1.25166,-1.88675 -2.680695,-3.93127 -1.429044,-2.04452 -3.54812,-5.07585 -4.709044,-6.73627 l -2.110792,-3.01894 -0.02844,2.48407 c -0.02182,1.90591 -0.04488,2.51674 -0.0991,2.62442 -0.112261,0.22292 -0.3971,0.34393 -1.40647,0.59749 -0.818922,0.20571 -0.954755,0.22711 -1.021044,0.16083 -0.06628,-0.0663 -0.08559,-0.0334 -0.145159,0.24729 -0.03779,0.17808 -0.10196,0.35135 -0.142603,0.38509 -0.04743,0.0394 -0.199807,0.0512 -0.425386,0.0331 l -0.351503,-0.0282 0.03743,0.75641 c 0.02059,0.41602 0.05376,0.96951 0.07372,1.22998 0.03611,0.47114 0.0356,0.47389 -0.0996,0.53118 -0.07475,0.0316 -0.312342,0.0593 -0.527987,0.0613 -0.313575,0.003 -0.405709,-0.0149 -0.460099,-0.0893 -0.08584,-0.1174 -0.161447,-1.20414 -0.08978,-1.29048 0.03348,-0.0404 0.0065,-0.62562 -0.07694,-1.66603 -0.0707,-0.88211 -0.129064,-1.67604 -0.12968,-1.76429 l -0.0012,-0.16046 -0.387907,0.0187 c -0.48986,0.0237 -1.272802,-0.0808 -1.574195,-0.21002 l -0.231097,-0.0991 -0.0013,-0.33619 -0.0013,-0.3362 -2.010837,-1.44414 c -1.105968,-0.79428 -2.137745,-1.53445 -2.292838,-1.64483 l -0.282,-0.2007 -4.188944,5.36216 c -2.303937,2.94919 -4.537323,5.80744 -4.963116,6.35166 -0.425777,0.54424 -0.878058,1.10281 -1.005049,1.24128 -0.141737,0.15454 -0.230899,0.30271 -0.230899,0.38368 0,0.13534 -0.07068,0.23823 -0.834692,1.21521 -0.457319,0.58479 -0.717095,0.84618 -0.971909,0.97795 -0.196776,0.10176 -0.6049,0.15914 -0.810595,0.11395 -0.222397,-0.0489 -0.485121,-0.27655 -0.484663,-0.42007 2.16e-4,-0.0685 0.480625,-0.73582 1.180725,-1.63997 1.277622,-1.64997 1.381115,-1.77455 1.442599,-1.73655 0.02243,0.0139 3.484871,-4.38172 7.694313,-9.76797 l 7.65353,-9.79317 v -0.36481 c 0,-0.33172 0.01311,-0.37583 0.141761,-0.47703 0.07796,-0.0614 0.234413,-0.12633 0.347656,-0.14444 l 0.20591,-0.0329 -5.99e-4,-6.23772 -5.91e-4,-6.23775 -0.28021,-0.10697 -0.28021,-0.10697 -0.01441,-1.19672 c -0.0093,-0.76856 0.0054,-1.22061 0.04102,-1.26351 0.03049,-0.0367 0.199441,-0.10721 0.375451,-0.15659 l 0.320003,-0.0898 -0.0012,-11.32303 -0.0012,-11.32304 -0.17267,-0.0802 c -0.168732,-0.0784 -0.175261,-0.0946 -0.285839,-0.71043 -0.06225,-0.34661 -0.123643,-0.64069 -0.136458,-0.65349 -0.01281,-0.0128 -1.426352,2.29884 -3.141218,5.13698 -1.714865,2.83814 -3.169147,5.19613 -3.231739,5.23996 -0.195077,0.13665 -0.503864,0.10197 -0.682464,-0.0766 -0.329445,-0.32943 -0.483972,-0.0316 3.05319,-5.88419 L 52.105516,83.897 51.93675,83.7048 c -0.57324,-0.65298 -0.632068,-1.76667 -0.143091,-2.71095 0.423637,-0.81812 1.032491,-1.35732 1.883929,-1.66845 0.120529,-0.044 0.458159,-0.0958 0.750285,-0.11509 l 0.531134,-0.035 4.376826,-7.24243 c 2.407247,-3.983348 4.365901,-7.253348 4.352562,-7.266687 -0.01334,-0.01334 -0.862021,-0.235812 -1.885963,-0.494381 -6.710231,-1.694457 -12.349673,-3.65809 -16.624023,-5.788391 -2.844723,-1.417794 -4.655329,-2.642143 -5.708181,-3.85993 -0.920107,-1.064259 -1.090621,-2.057434 -0.49299,-2.871551 0.592727,-0.807448 2.202685,-1.452808 4.462849,-1.788948 2.466476,-0.366808 6.424536,-0.405652 10.429906,-0.10236 10.307145,0.780486 23.395777,3.712972 32.412927,7.262082 5.71131,2.247941 9.31152,4.484057 10.29267,6.392876 0.69489,1.351939 -0.0842,2.501896 -2.1903,3.232805 -0.99881,0.346632 -2.73228,0.678967 -3.99727,0.766355 -0.28682,0.01981 -0.5215,0.05199 -0.5215,0.0715 0,0.01952 0.12637,0.06755 0.28081,0.10674 0.48212,0.122344 2.43315,0.776797 3.35629,1.125843 6.09027,2.302705 10.99849,5.671868 11.68242,8.019162 0.17258,0.592386 0.13516,0.793734 -0.42349,2.278235 -0.27945,0.74262 -0.5079,1.37105 -0.50767,1.3965 2.7e-4,0.0254 0.81258,0.34791 1.8052,0.71659 l 1.8047,0.67031 0.0174,-0.18826 c 0.0216,-0.23384 0.0926,-0.32334 0.25663,-0.32334 0.12707,0 0.12717,-6e-4 0.12717,-0.6622 v -0.66221 l -0.41452,-0.0465 -0.41452,-0.0465 -0.016,-0.24712 c -0.0205,-0.31592 -0.0313,-0.31302 1.16598,-0.31302 1.19726,0 1.18647,-0.003 1.16596,0.31302 l -0.016,0.24712 -0.44283,0.0477 -0.44287,0.0476 0.015,0.64725 0.0149,0.64723 0.16048,0.0275 c 0.14729,0.0252 0.16175,0.0472 0.17628,0.26787 0.0156,0.23542 0.0211,0.24209 0.26746,0.32065 l 0.25157,0.0802 v 0.58763 0.58764 l -0.14709,0.0705 -0.14709,0.0705 v 1.14872 c 0,1.04512 0.008,1.15186 0.0936,1.1835 0.0514,0.0191 0.29817,0.16717 0.54822,0.32898 1.04161,0.674 0.94205,0.63458 1.46129,0.57891 0.28862,-0.0309 0.5936,-0.0299 0.82039,0.003 0.41004,0.0589 0.37905,0.0719 1.34274,-0.56234 0.27251,-0.17935 0.5433,-0.34128 0.60174,-0.35982 0.10164,-0.0323 0.10626,-0.0832 0.10626,-1.17044 v -1.13671 l -0.17383,-0.0765 -0.17383,-0.0765 -0.0157,-0.48137 c -0.0216,-0.66253 -0.004,-0.70991 0.28432,-0.78716 0.23623,-0.0632 0.23953,-0.0672 0.23953,-0.29214 0,-0.21243 0.0119,-0.23116 0.17384,-0.27302 l 0.17383,-0.045 0.0149,-0.64436 0.015,-0.64437 -0.44284,-0.0476 -0.44287,-0.0477 -0.016,-0.24685 c -0.0155,-0.23902 -0.0106,-0.24792 0.15377,-0.2808 0.22059,-0.0441 1.85732,-0.0441 2.07791,0 0.16439,0.0329 0.16928,0.0418 0.15377,0.2808 l -0.016,0.24685 -0.44129,0.0475 -0.44125,0.0475 v 0.63615 c 0,0.55918 0.0113,0.63965 0.0936,0.66507 0.20551,0.0635 0.25518,0.12107 0.2808,0.32556 l 0.0268,0.21325 1.8409,-0.68679 c 1.01254,-0.37773 1.84801,-0.69386 1.85664,-0.70248 0.009,-0.009 -0.2742,-0.7848 -0.6285,-1.72485 -0.59246,-1.57185 -0.64411,-1.738001 -0.64276,-2.068038 0.002,-0.660548 0.39213,-1.377834 1.21003,-2.228655 1.26038,-1.31108 3.02785,-2.528159 5.53665,-3.812501 3.21993,-1.648394 7.3717,-3.04672 10.59037,-3.566847 1.38909,-0.224487 1.68035,-0.247827 3.07547,-0.246503 1.24446,0.0012 1.44379,0.01376 1.89613,0.119679 0.53487,0.125251 1.0888,0.357574 1.37739,0.577698 0.24345,0.185718 0.39106,0.463489 0.73575,1.384745 0.25043,0.669242 0.33555,0.836425 0.51741,1.016248 0.11969,0.118372 0.24935,0.276463 0.28819,0.35132 0.10515,0.20283 0.22588,0.712615 0.29692,1.253783 0.0563,0.42925 0.34814,1.238412 2.73069,7.572551 2.10343,5.59189 2.66767,7.14387 2.66767,7.33742 v 0.24545 l 0.92519,0.0178 c 1.01624,0.0195 1.13238,0.0522 1.313,0.36971 l 0.0885,0.15553 0.73264,3.4e-4 0.73268,3.4e-4 0.0162,-0.28005 c 0.0154,-0.26666 0.0267,-0.28584 0.23583,-0.40094 0.21196,-0.11664 0.22089,-0.13246 0.25408,-0.44993 0.0382,-0.3652 0.0842,-0.44775 0.27675,-0.49608 l 0.13105,-0.0329 0.0139,-2.68481 0.0138,-2.68481 0.19292,-0.0456 c 0.10823,-0.0256 0.27262,-0.025 0.37443,0.001 l 0.18146,0.047 0.0139,2.67802 0.0138,2.67803 0.15822,0.0655 c 0.17546,0.0727 0.19143,0.1088 0.24082,0.54379 0.03,0.26371 0.0513,0.3068 0.16618,0.33565 0.22838,0.0573 0.34311,0.21947 0.34311,0.48501 v 0.24069 h 1.06813 c 4.77572,0 11.73664,0.45417 14.44299,0.94235 1.25945,0.22718 2.08454,0.51044 2.17527,0.74678 0.0565,0.14748 -0.0341,0.32135 -0.22424,0.43002 l -0.1922,0.10984 0.19332,0.14747 c 0.42071,0.32089 0.13219,0.64827 -0.80219,0.91012 -1.54189,0.43213 -4.97623,0.80838 -9.27992,1.01666 -2.10151,0.1017 -4.97726,0.18989 -6.18788,0.18975 l -0.91942,-1.1e-4 -0.0166,0.20057 c -0.015,0.18078 -0.043,0.2141 -0.28354,0.33759 l -0.26691,0.13703 -0.0754,0.45133 c -0.0572,0.34278 -0.08,1.23122 -0.0949,3.69398 l -0.0196,3.24263 0.139,0.0911 c 0.0764,0.0501 0.18462,0.19149 0.24035,0.31422 0.0968,0.21316 0.10134,0.42104 0.10245,4.64563 l 8.3e-4,4.4225 0.22269,0.15063 c 0.38492,0.26034 0.44304,0.44318 0.46441,1.46104 0.0237,1.12621 -0.0245,1.3625 -0.34351,1.6861 -0.16251,0.16486 -0.23702,0.28601 -0.23782,0.38682 -0.002,0.21621 -0.18365,0.57987 -0.342,0.68363 l -0.1382,0.0906 v 6.08286 6.08286 l 0.21308,0.0639 c 0.27379,0.082 0.32176,0.18048 0.32176,0.65972 v 0.39273 l 4.23192,6.04256 c 2.32753,3.32341 5.28784,7.55004 6.57846,9.3925 1.29058,1.84246 2.38888,3.36123 2.44057,3.37501 0.13857,0.037 2.31371,3.17095 2.31371,3.33367 0,0.20362 -0.2742,0.34436 -0.66859,0.34316 -0.38181,-8.3e-4 -0.6784,-0.124 -0.91707,-0.37987 -0.25885,-0.27749 -1.2014,-1.65464 -1.27662,-1.86519 -0.0367,-0.10296 -0.67495,-1.05369 -1.41815,-2.11273 -0.74323,-1.05904 -1.98945,-2.84015 -2.76935,-3.95801 -5.17929,-7.42371 -4.83015,-6.93751 -4.92401,-6.8567 -0.0828,0.0713 -2.26289,1.86075 -2.29607,1.88464 -0.009,0.006 0.14352,0.16412 0.33809,0.35093 0.19453,0.18682 0.32793,0.34827 0.29644,0.35877 -0.0402,0.0134 -0.0573,1.54397 -0.0573,5.12576 0,3.39083 0.018,5.09557 0.0535,5.07362 0.0295,-0.0182 0.0535,-0.15198 0.0535,-0.29733 0,-0.14536 0.0181,-0.26334 0.0401,-0.26219 0.0221,8.3e-4 0.24469,0.10343 0.49475,0.22731 0.52294,0.25907 0.61489,0.39023 0.71201,1.01587 0.0465,0.29893 0.0429,0.37519 -0.0203,0.43361 -0.0421,0.039 -1.13462,0.31601 -2.42776,0.61561 -1.29311,0.2996 -2.36104,0.55462 -2.37315,0.5667 -0.0121,0.0121 0.0651,0.12373 0.17161,0.24811 0.10647,0.12437 0.19355,0.28022 0.19355,0.34633 0,0.1896 -0.23994,0.34192 -0.53861,0.34192 -0.35316,0 -0.49155,-0.0635 -0.82439,-0.37828 l -0.28724,-0.27168 -0.77297,0.17715 c -0.54981,0.126 -0.76545,0.19666 -0.747,0.24475 0.0142,0.0371 3.7e-4,0.0676 -0.0309,0.0676 -0.0313,0 -0.67772,-0.44131 -1.43649,-0.9807 -3.46781,-2.46513 -5.27328,-3.72807 -5.29644,-3.70493 -0.0138,0.0138 0.003,0.11018 0.0373,0.21415 0.0555,0.1681 0.0736,0.18196 0.16445,0.12526 0.0657,-0.0411 0.11854,-0.0451 0.14837,-0.0116 0.0776,0.0874 1.8284,4.37828 1.8284,4.48111 0,0.15099 -0.136,0.37453 -0.30235,0.49691 -0.79664,0.58615 -1.65692,0.45583 -2.03563,-0.30837 -0.0632,-0.12738 -0.28499,-0.6477 -0.49301,-1.1563 -0.30315,-0.74109 -0.3781,-0.98007 -0.3776,-1.20345 4.8e-4,-0.21973 -0.14955,-0.71359 -0.7087,-2.33267 l -0.70932,-2.05394 -0.38495,-0.28611 c -0.21169,-0.15736 -0.39681,-0.2861 -0.41134,-0.2861 -0.0146,0 -0.61451,0.75269 -1.33323,1.67264 -0.71872,0.91994 -1.34341,1.70305 -1.38822,1.74022 -0.0448,0.0371 -0.097,0.15077 -0.11612,0.25243 -0.0231,0.12315 -0.25103,0.463 -0.68308,1.01835 -0.68838,0.88487 -0.94281,1.09939 -1.39458,1.17572 -0.40421,0.0683 -0.93254,-0.1989 -0.88275,-0.4464 0.008,-0.0421 0.55696,-0.77094 1.21884,-1.61962 0.81987,-1.0512 1.23755,-1.54535 1.31044,-1.55022 0.0589,-0.004 0.006,-0.0349 -0.1182,-0.0688 -0.3331,-0.0911 -0.34051,-0.10822 -0.28199,-0.65128 0.099,-0.91905 0.26648,-3.18039 0.26648,-3.59828 v -0.42068 l -1.45753,-1.20599 c -1.08999,-0.90188 -1.47305,-1.19076 -1.51903,-1.14558 -0.14969,0.14696 -7.2927,10.41306 -7.36401,10.58377 -0.0963,0.2304 -0.7851,1.22957 -1.01273,1.46897 -0.22374,0.23529 -0.4597,0.33636 -0.78535,0.33636 -0.22345,0 -0.30069,-0.0256 -0.41125,-0.1361 -0.0748,-0.0749 -0.12321,-0.16954 -0.10754,-0.21041 0.0657,-0.17132 1.83169,-2.6469 1.88881,-2.64778 0.0343,-5.4e-4 0.30895,-0.35598 0.61039,-0.78989 0.30138,-0.43391 0.63396,-0.90818 0.73908,-1.05393 0.22751,-0.31546 0.17539,-0.28962 -0.4224,0.20944 -2.6026,2.17273 -5.94985,3.90829 -9.33341,4.83939 -1.96308,0.54019 -3.68031,0.80967 -5.8033,0.91069 -1.24041,0.059 -1.2061,0.059 -2.51391,-0.002 z m 45.99856,-7.16285 c 0,-0.67661 -0.0117,-1.2302 -0.0258,-1.2302 -0.0539,0 -3.47004,0.8037 -3.48663,0.82027 -0.0182,0.0182 3.40255,1.63055 3.47233,1.63662 0.0221,0.002 0.0401,-0.55008 0.0401,-1.22669 z m -16.83008,-1.1767 0.77596,-0.98951 -0.13239,-0.10697 c -0.12245,-0.099 -0.13115,-0.13652 -0.11628,-0.50247 l 0.0161,-0.39551 0.55028,-0.13102 c 0.62093,-0.14786 0.5837,-0.0794 0.36462,-0.67061 l -0.11446,-0.30895 -0.22355,0.16441 c -0.19979,0.14695 -0.22528,0.19085 -0.23979,0.41326 -0.0138,0.21223 -0.0399,0.26265 -0.1774,0.34267 -0.20137,0.11721 -0.84986,0.22099 -1.23124,0.19703 l -0.28819,-0.0181 -0.0291,0.26744 c -0.0935,0.85988 -0.18151,2.3988 -0.15268,2.66884 l 0.0337,0.31541 0.0942,-0.12821 c 0.0518,-0.0705 0.44337,-0.5735 0.8702,-1.11772 z m 11.42791,-3.65202 v -1.08465 l 0.34786,-0.34478 c 0.30762,-0.30488 0.40201,-0.3635 0.81569,-0.50657 l 0.46782,-0.16181 0.0157,-0.24078 0.0157,-0.24079 -0.41688,-0.29764 c -0.22932,-0.16371 -1.19702,-0.85911 -2.1505,-1.54532 -1.20646,-0.86831 -1.75428,-1.23313 -1.80175,-1.19988 -0.0375,0.0263 -0.4252,0.50509 -0.86151,1.06403 -1.43464,1.8379 -2.21994,2.85232 -2.22779,2.87773 -0.015,0.0486 1.84973,2.39872 1.92673,2.42828 0.0578,0.0222 2.66416,0.25007 3.77522,0.33009 0.0863,0.006 0.0936,-0.078 0.0936,-1.07791 z m -5.87076,0.61685 c 0.29922,0.024 0.57227,0.0367 0.60676,0.0283 0.0572,-0.0138 -1.05937,-1.49959 -1.14441,-1.52283 -0.0306,-0.008 -1.34175,1.6453 -1.38912,1.75189 -0.008,0.0188 0.29934,-0.0412 0.68379,-0.13335 0.65174,-0.15625 0.73572,-0.16463 1.24298,-0.12404 z m -7.14253,-1.09442 c 0.13735,-0.15298 0.34223,-3.08207 0.32454,-4.6389 l -0.0143,-1.25723 -1.43848,2.05505 c -0.79118,1.13027 -1.44102,2.08274 -1.44412,2.1166 -0.003,0.0338 0.54792,0.52364 1.22453,1.08842 1.17997,0.98495 1.23091,1.02077 1.24803,0.87714 0.01,-0.0823 0.0548,-0.19084 0.0998,-0.24108 z m 2.05009,-0.004 c 0.027,-1.10245 0.0175,-1.53588 -0.0336,-1.53587 -0.037,0 -0.071,0.21242 -0.0918,0.57499 -0.0182,0.31624 -0.0495,0.70416 -0.0697,0.86205 -0.036,0.28176 -0.0346,0.28593 0.0785,0.22544 0.0633,-0.0339 0.11587,-0.0909 0.11671,-0.12661 z m 2.83756,-1.17483 c 0.37932,-0.27212 0.68393,-0.51992 0.67698,-0.55068 -0.014,-0.0615 -3.15716,-4.09165 -3.17625,-4.07256 -0.0172,0.0171 0.64149,1.86965 0.69293,1.94902 0.0238,0.0367 0.0991,0.0668 0.16729,0.0668 0.17396,0 0.21197,0.062 0.45599,0.74317 0.21893,0.6112 0.22096,0.64351 0.052,0.83468 -0.0911,0.10309 -0.0857,0.13281 0.1478,0.81568 0.1333,0.38979 0.25386,0.7087 0.26799,0.7087 0.0141,0 0.33594,-0.22264 0.71522,-0.49476 z m 4.52371,-4.69346 c 1.52807,-1.95627 3.32467,-4.25788 3.99244,-5.1147 l 1.21413,-1.55786 v -0.34774 c 0,-0.39359 0.0341,-0.4418 0.38606,-0.54573 l 0.22901,-0.0676 0.0136,-6.05339 0.0137,-6.05339 -0.21419,-0.20374 c -0.1915,-0.18217 -0.21418,-0.23074 -0.21418,-0.45889 0,-0.23306 -0.022,-0.27718 -0.25404,-0.50938 -0.13974,-0.13983 -0.31748,-0.3296 -0.395,-0.42172 -0.11874,-0.14108 -0.17815,-0.16748 -0.37709,-0.16748 -0.27811,0 -0.36441,0.069 -0.36472,0.2915 -2.7e-4,0.21512 -0.16978,0.48532 -0.36918,0.58844 -0.22442,0.11604 -0.58386,0.10452 -0.79717,-0.0255 -0.28858,-0.17594 -0.34904,-0.39415 -0.37389,-1.34917 l -0.0219,-0.84242 h -0.19803 c -0.15738,0 -0.30734,0.0752 -0.72985,0.36624 -0.29247,0.20141 -0.57988,0.37819 -0.63871,0.39282 -0.0589,0.0146 -1.27717,0.8358 -2.70743,1.82478 -2.34213,1.61955 -2.59805,1.81068 -2.57637,1.92414 0.0186,0.0968 -0.0209,0.16029 -0.16999,0.27404 -0.16274,0.12412 -0.35801,0.47614 -1.20785,2.1777 l -1.01372,2.02965 v 0.556 c 0,0.62622 -0.0255,0.67935 -0.37679,0.7846 l -0.21155,0.0634 v 3.41468 3.41469 h 0.39324 0.3932 l 0.0307,-0.46801 c 0.0429,-0.65308 0.049,-0.66366 0.37598,-0.64441 0.24959,0.0147 0.27393,0.0283 0.31516,0.1764 0.0562,0.20199 0.0565,2.23532 3.8e-4,2.48713 -0.0404,0.18097 -0.0509,0.18773 -0.31389,0.20314 -0.32584,0.0191 -0.32197,0.0256 -0.37149,-0.63025 l -0.0364,-0.48216 h -0.39344 -0.39348 v 1.44311 1.44313 l 0.14709,0.035 c 0.25818,0.0614 0.33428,0.17025 0.33428,0.47857 v 0.28094 l 1.96564,2.5159 c 1.82543,2.33645 1.97174,2.50942 2.05158,2.4252 0.0473,-0.0499 1.33616,-1.69128 2.86423,-3.64755 z m 5.35298,2.12961 c 0.0365,-0.0439 0.16281,-0.10873 0.2808,-0.14409 l 0.2146,-0.0643 v -3.52797 c 0,-2.78634 -0.0141,-3.52813 -0.0669,-3.52871 -0.0367,-4e-4 -0.11608,-0.0139 -0.17623,-0.0301 -0.0924,-0.0248 -0.42331,0.37224 -2.13451,2.5615 -1.11386,1.42499 -2.02242,2.60734 -2.01905,2.62744 0.003,0.0201 0.85557,0.64781 1.89383,1.39488 l 1.88773,1.35832 0.0267,-0.28359 c 0.0147,-0.15598 0.0565,-0.31951 0.093,-0.36339 z m -95.92003,0.29912 c 0.425302,-0.17208 0.804699,-0.46859 1.258388,-0.98345 0.318953,-0.36197 0.378647,-0.45994 0.378647,-0.62156 v -0.19183 l -0.254055,0.2096 c -0.13973,0.11528 -0.68731,0.56619 -1.21683,1.00203 -0.529511,0.43582 -0.985813,0.81328 -1.013983,0.83879 -0.0685,0.062 0.45463,-0.0945 0.847833,-0.25358 z m 100.55911,-1.13832 c 0.79511,-0.6582 1.45079,-1.22382 1.45706,-1.25694 0.0142,-0.0749 -3.52526,-5.12711 -3.61214,-5.15607 -0.1121,-0.0374 -0.0757,1.88704 0.0701,3.70521 0.0731,0.91195 0.16149,2.05305 0.19642,2.53577 0.053,0.73324 0.0796,0.89143 0.16112,0.96127 0.067,0.0575 0.0976,0.15729 0.0976,0.31895 0,0.21543 0.007,0.22913 0.0921,0.16195 0.0506,-0.0404 0.74262,-0.61194 1.53773,-1.27014 z m -104.498652,-0.3009 0.28021,-0.10697 5.92e-4,-3.69727 5.99e-4,-3.69727 -0.17113,-0.0342 c -0.108788,-0.0217 -0.195319,-0.01 -0.237544,0.0334 -0.03654,0.0372 -1.00717,1.2711 -2.15697,2.74198 -1.88179,2.40728 -2.081073,2.68082 -1.995525,2.73919 0.05227,0.0356 0.961517,0.68847 2.020555,1.45066 l 1.925515,1.38577 0.02674,-0.35416 0.02675,-0.35417 z m 4.383796,-0.55354 1.182207,-0.98143 -0.13834,-0.30225 c -0.122919,-0.26856 -0.138923,-0.37379 -0.143602,-0.94409 l -0.0052,-0.64184 -1.434089,-2.04586 c -0.788755,-1.12523 -1.455856,-2.04587 -1.482451,-2.04587 -0.117798,0 -0.04531,2.1086 0.164602,4.78778 0.194894,2.4877 0.222098,2.72783 0.32091,2.83301 0.06875,0.0732 0.107973,0.18793 0.107973,0.31593 v 0.20102 l 0.122927,-0.0975 c 0.0676,-0.0536 0.654919,-0.53914 1.305134,-1.07892 z m 1.192781,-9.09605 v -4.48812 l -0.609197,-0.29294 c -0.684337,-0.32906 -1.165962,-0.63891 -1.548698,-0.99632 -0.29648,-0.27687 -0.444271,-0.53523 -0.496646,-0.86819 -0.02009,-0.12772 -0.06691,-0.28036 -0.104042,-0.33919 -0.166975,-0.26461 -0.193046,-0.55929 -0.132619,-1.49884 l 0.05921,-0.92045 -0.134434,-0.26764 c -0.07392,-0.14719 -0.169257,-0.39714 -0.211823,-0.55542 -0.0691,-0.25693 -0.07777,0.2493 -0.08092,4.72245 l -0.0035,5.01023 0.200574,0.0646 c 0.32066,0.10328 0.3343,0.12855 0.3343,0.61934 v 0.4486 l 1.347874,1.925 c 0.741334,1.05876 1.355095,1.92502 1.363913,1.92502 0.0088,0 0.01603,-2.01967 0.01603,-4.48813 z m 79.001985,0.57353 c 0.13226,-0.0978 0.15833,-0.15446 0.15833,-0.3445 0,-0.1251 0.0241,-0.24235 0.0534,-0.26053 0.0337,-0.0208 0.0535,-0.63348 0.0535,-1.66124 0,-1.0498 -0.019,-1.62819 -0.0535,-1.62819 -0.0294,0 -0.0534,-0.0288 -0.0534,-0.0639 0,-0.0351 -0.0614,-0.12802 -0.13648,-0.20634 -0.075,-0.0784 -0.19687,-0.32033 -0.27076,-0.5378 -0.1385,-0.40761 -1.68227,-3.80613 -1.71434,-3.77404 -0.0334,0.0334 0.51758,4.65938 0.59674,5.01 0.0432,0.19121 0.13972,0.87718 0.21456,1.52437 0.0748,0.64719 0.15876,1.34518 0.18657,1.55111 0.0277,0.20592 0.0513,0.4045 0.0522,0.44126 8.3e-4,0.047 0.11365,0.0669 0.37834,0.0669 0.30343,0 0.4073,-0.0227 0.53485,-0.11704 z m 3.42061,-8.17268 c 0.20613,-0.41146 0.37481,-0.76992 0.37481,-0.79658 0,-0.14268 -0.19818,-0.069 -0.6482,0.24109 -0.27598,0.19016 -0.51087,0.37193 -0.522,0.40392 -0.0165,0.0476 0.36395,0.88393 0.40765,0.89606 0.007,0.002 0.18164,-0.33303 0.38774,-0.74449 z m -0.33724,-1.85759 c -0.009,-0.12975 0.0727,-0.20186 0.78715,-0.6951 0.69115,-0.47715 0.8228,-0.54855 0.9899,-0.53692 0.17396,0.0121 0.41492,-0.14001 2.47593,-1.56294 1.25576,-0.86699 2.27426,-1.58528 2.26334,-1.5962 -0.0109,-0.0109 -0.44884,0.0187 -0.97319,0.0659 -1.22633,0.11028 -3.39594,0.24459 -3.95617,0.2449 -0.41846,2.3e-4 -0.43677,0.005 -0.46863,0.13249 -0.0182,0.0727 -0.0768,0.17502 -0.13,0.22731 -0.0533,0.0523 -0.40306,0.87357 -0.77731,1.82505 -0.5454,1.38661 -0.66778,1.74522 -0.61674,1.80676 0.0485,0.0584 0.049,0.10915 0.002,0.21145 -0.0337,0.074 -0.0614,0.18281 -0.0614,0.24166 0,0.0986 0.0187,0.0942 0.23735,-0.0563 0.19062,-0.13114 0.2354,-0.19183 0.22734,-0.30807 z m -2.22972,-0.3041 c 0,-0.1048 0.2814,-0.19431 0.72204,-0.22967 l 0.37441,-0.0301 0.61134,-1.55759 c 0.33619,-0.85667 0.64091,-1.6298 0.67708,-1.71805 l 0.0658,-0.16047 h -2.98445 -2.98442 l -0.0614,0.16961 c -0.051,0.14066 -0.039,0.26699 0.0703,0.74035 0.0724,0.31392 0.13947,0.57786 0.14901,0.58653 0.12721,0.11554 0.87337,0.61638 0.91888,0.61677 0.29302,0.003 1.43846,0.79649 1.84094,1.2761 0.13907,0.16568 0.27686,0.31891 0.30629,0.34052 0.0927,0.0681 0.29419,0.0448 0.29419,-0.0341 z m -82.847665,-1.97833 c 0.200199,-0.60068 0.682964,-1.61769 0.933298,-1.96614 l 0.186517,-0.25963 h -0.267336 c -0.23169,0 -0.267345,0.0143 -0.267345,0.10697 0,0.0588 -0.04814,0.15511 -0.106973,0.21395 -0.05884,0.0588 -0.106973,0.14976 -0.106973,0.20205 0,0.17028 -0.150988,0.31626 -0.398874,0.38566 l -0.242973,0.068 0.0062,1.15639 c 0.0047,0.87611 0.01785,1.08655 0.0541,0.86828 0.02632,-0.15848 0.120953,-0.50748 0.210307,-0.77556 z m 96.520375,-2.63218 c 0.0626,-0.0168 0.14159,-0.0916 0.17558,-0.16613 0.049,-0.10768 0.0476,-0.13017 -0.007,-0.10927 -0.0377,0.0145 -0.207,0.0573 -0.37614,0.0952 -0.29636,0.0663 -0.34837,0.10012 -0.27191,0.1766 0.0434,0.0434 0.32328,0.0455 0.47935,0.004 z m -95.291655,-0.27552 c 9.99e-4,-0.0515 0.261458,-2.39221 0.57888,-5.20159 l 0.577123,-5.10798 -0.126157,-0.37441 c -0.182963,-0.54296 -0.372828,-1.32417 -0.446419,-1.83682 -0.107831,-0.75111 -0.01108,-1.13921 0.37545,-1.50609 l 0.197226,-0.18721 0.08488,-0.97349 c 0.07639,-0.87619 0.09978,-1.00087 0.234022,-1.2475 0.08202,-0.1507 0.213014,-0.31949 0.291085,-0.37509 0.123942,-0.0883 0.146433,-0.15054 0.177225,-0.49082 0.02724,-0.30092 0.0689,-0.43848 0.182871,-0.60368 0.512599,-0.74305 2.30596,-1.32446 5.01654,-1.62638 1.714524,-0.19097 2.765802,-0.23953 5.117343,-0.23635 1.257606,0.002 2.286552,-0.0152 2.286552,-0.0376 0,-0.0224 0.0577,-0.0962 0.128206,-0.16409 l 0.128197,-0.12338 -0.120154,-0.16304 c -0.426593,-0.57886 -0.637391,-1.17062 -0.607274,-1.70482 0.01988,-0.35259 0.261225,-1.01991 2.974649,-8.22488 2.60339,-6.912796 2.95958,-7.894347 3.00847,-8.290439 0.0959,-0.777164 0.24471,-1.170159 0.55483,-1.465531 0.13311,-0.126791 0.26225,-0.410764 0.61539,-1.353213 0.24581,-0.656018 0.51564,-1.287606 0.59963,-1.403563 0.084,-0.115941 0.15271,-0.2195 0.15271,-0.230125 0,-0.01062 -0.2106,-0.0354 -0.46801,-0.05506 -0.70927,-0.05417 -3.28844,-0.383993 -4.88066,-0.624127 -2.427729,-0.366133 -4.943605,-0.827756 -7.612784,-1.396819 -0.553959,-0.118098 -1.013983,-0.206644 -1.022285,-0.196751 -0.01633,0.01945 -8.340464,13.798048 -8.529838,14.119088 l -0.114784,0.19457 0.278012,0.0996 c 0.947061,0.3393 1.379774,1.44623 1.032501,2.64128 -0.177833,0.612 -0.81455,1.471 -1.333877,1.79954 -0.129206,0.0817 -0.246021,0.19746 -0.259577,0.25712 -0.01355,0.0597 -0.103301,0.54772 -0.199424,1.08456 l -0.17476,0.97606 -0.177817,0.0643 -0.177808,0.0643 v 11.32741 11.32742 l 0.147083,0.0321 c 0.538911,0.11767 0.655219,0.22671 0.655219,0.61435 0,0.21431 0.02268,0.31561 0.07518,0.33575 0.04135,0.0159 0.0914,0.10269 0.111228,0.19293 0.03526,0.16057 0.04278,0.16407 0.352702,0.16407 0.265264,0 0.316956,-0.0152 0.318421,-0.0936 z m 34.720725,-4.15338 c 1.98761,-2.99923 4.99371,-5.60865 8.42663,-7.31468 0.5142,-0.25552 0.5495,-0.28339 0.5495,-0.4335 0,-0.22585 0.17184,-0.47736 0.4223,-0.61814 0.29082,-0.16346 1.86673,-0.75389 2.65318,-0.99408 1.49671,-0.45708 3.33107,-0.83492 4.94754,-1.01908 1.27503,-0.14526 1.67323,-0.0923 1.86689,0.24819 0.066,0.11613 0.1248,0.1502 0.25953,0.15046 l 0.17417,3.4e-4 -0.0137,-4.13184 -0.0137,-4.13185 -0.44904,-0.15053 c -0.24699,-0.0828 -0.5659,-0.16437 -0.7087,-0.18127 l -0.25967,-0.0308 v 1.883 c 0,1.14334 -0.0208,1.92195 -0.053,1.98217 -0.12669,0.23672 -1.03721,0.31789 -1.42753,0.12726 l -0.2042,-0.0998 -0.0268,-2.01962 -0.0267,-2.01963 -0.17384,-0.10568 -0.17383,-0.10569 V 86.4048 c 0,-0.63776 0.0257,-0.71109 0.28081,-0.80157 0.0852,-0.0302 0.0936,-0.13595 0.0936,-1.17671 v -1.14351 l -0.20057,-0.0874 c -0.11031,-0.0481 -0.93483,-0.3594 -1.83223,-0.69183 l -1.63163,-0.60443 0.0183,0.19236 c 0.0212,0.22227 -0.20923,0.95575 -0.37214,1.18452 -0.12592,0.17683 -0.36061,0.31145 -0.54297,0.31145 -0.11982,0 -0.28208,0.41202 -2.81736,7.15384 -1.59823,4.25003 -2.75189,7.2435 -2.84218,7.37473 -0.55386,0.80512 -2.4214,1.24938 -4.64854,1.10581 -0.45597,-0.0294 -0.83296,-0.0511 -0.83776,-0.0482 -0.005,0.003 -0.0256,0.39031 -0.0462,0.861 l -0.0375,0.85579 0.16358,0.20422 c 0.3487,0.43537 0.35948,0.92952 0.0411,1.88177 -0.20538,0.61416 -0.72657,1.74723 -0.99991,2.17379 -0.13838,0.21597 -0.16918,0.33782 -0.23649,0.93602 -0.0425,0.37826 -0.0904,0.79605 -0.10631,0.92842 l -0.0289,0.2407 0.17502,-0.28895 c 0.0963,-0.15892 0.38394,-0.6042 0.63928,-0.98951 z m 36.17412,-6.53086 c 3.34037,-0.67383 9.71328,-1.10599 15.05652,-1.02101 4.81637,0.0766 8.55113,0.42586 10.2828,0.96164 l 0.41451,0.12825 -3e-4,-3.10979 c -1.3e-4,-1.71039 -0.0222,-3.19404 -0.0489,-3.297 -0.0267,-0.10296 -0.0641,-0.32358 -0.0832,-0.49026 -0.0332,-0.29051 -0.0431,-0.30647 -0.24065,-0.38549 -0.23111,-0.0925 -0.37574,-0.2644 -0.37574,-0.44657 v -0.12182 l -1.0029,-6.7e-4 c -1.11736,-7.5e-4 -3.5053,-0.0697 -5.73645,-0.16569 l -1.47088,-0.0633 -0.66855,0.38533 c -0.88535,0.51024 -2.59563,1.34965 -3.6906,1.81131 -3.10761,1.31023 -6.22429,2.20088 -9.14624,2.61369 -0.87161,0.12313 -3.30848,0.13844 -3.87777,0.0244 -0.86417,-0.17318 -1.5564,-0.51472 -1.82513,-0.90048 -0.0771,-0.11066 -1.15791,-2.90896 -2.40176,-6.21845 -1.80409,-4.79989 -2.28162,-6.02038 -2.3603,-6.0327 -0.26511,-0.0415 -0.33735,-0.0757 -0.48998,-0.23183 -0.0936,-0.0957 -0.22635,-0.33733 -0.30713,-0.55885 l -0.14234,-0.3903 -0.40865,0.15216 c -0.22477,0.0837 -0.92613,0.34455 -1.55861,0.57969 -0.63249,0.23515 -1.25225,0.46857 -1.3773,0.51872 l -0.2273,0.0912 v 1.14056 c 0,1.09245 0.004,1.14197 0.10665,1.1744 0.23808,0.0756 0.26775,0.16398 0.26775,0.79793 0,0.63277 -0.0261,0.7066 -0.28081,0.79696 -0.0869,0.0308 -0.0936,0.17704 -0.0936,2.03939 v 2.00619 l -0.12784,0.0838 c -0.19046,0.1248 -0.65561,0.18244 -1.01224,0.12543 -0.56438,-0.0902 -0.51802,0.10004 -0.51802,-2.12584 v -1.94688 l -0.2866,0.0296 c -0.15762,0.0163 -0.48856,0.0984 -0.73545,0.1826 l -0.44883,0.15301 -0.0137,4.12321 -0.0136,4.12322 0.35127,0.0282 c 0.32881,0.0264 0.37065,0.0165 0.65334,-0.15369 0.52237,-0.31454 0.73949,-0.34039 1.73538,-0.20665 1.02673,0.13789 1.35686,0.22582 1.54168,0.41066 0.0901,0.0901 0.1764,0.22692 0.19183,0.3041 0.0266,0.1328 0.066,0.14862 0.73275,0.29406 2.48794,0.54269 5.12183,1.5803 7.25362,2.85753 l 0.61192,0.36663 0.43106,-0.12655 c 0.23709,-0.0696 0.84023,-0.20908 1.34035,-0.30997 z m 30.08625,42.78962 v -0.82905 h 0.18128 c 0.0997,0 0.23088,0.0421 0.2915,0.0936 0.21951,0.18643 0.42213,1.1222 0.28846,1.33226 -0.0318,0.05 -0.60366,0.23222 -0.72884,0.23222 -0.0178,0 -0.0324,-0.37307 -0.0324,-0.82904 z"
       id="path2384"
       sodipodi:nodetypes="csscccccccccsccccccsssssssssssssscccsscccccccccssssccccccccccccssccccccsssccccccsscccscccscccssssscccsssssscccssssscccsssssscccccccccccssssssssscccscccccccscccccssssscccsscccssssssssssssssssscccscccccscccccccscccccccsssssscccccsscccccccsscccccscccssssssssssssssccccccccssccccccccccsscccsscccsscccccccccscccsssccccccccsssssssssssssssssssssssscccsssssssssssscccssssssssssscccssssssssssssccsssccccccccccsscccccccccccccccssssssccsssscccccsssccssssccssssssssccccccccccssssssscccsssssccccccccccssssccccccccccscccccsssscccccscccssccsssssssccccccssscccccccccccssscccccccssscccsccccccsccsssssssssssssccssssccsssssssssssssccccccccccssssscccccssscccsccsssscccccscccssssssscccssssssssssscccssscccccccssssccssssssccccccccscccccccsccccccsssssscccssscccccscccsssccccccssssssscccscccssscccsccccccccssssscccccccsssc"
       inkscape:connector-curvature="0" />
    <path
       style="opacity:1;fill:#ffffff;fill-opacity:1;stroke:none;stroke-width:0.73285693;stroke-opacity:1"
       d="m 236.11627,149.17352 c -0.0178,-0.0316 -0.0457,-0.0338 -0.0619,-0.005 -0.0162,0.029 -0.1592,0.21191 -0.31743,0.40651 -0.15824,0.19461 -0.31645,0.40838 -0.35104,0.47544 -0.0351,0.0667 -0.13429,0.18108 -0.22041,0.25419 -0.13694,0.11625 -0.13823,0.1294 -0.0103,0.10491 0.19972,-0.0382 0.15233,0.0241 -0.3011,0.39563 -0.51743,0.42404 -1.41342,0.99884 -1.8901,1.21256 -0.53688,0.24068 -2.66136,0.82878 -3.1455,0.87069 -0.22075,0.0191 -0.4262,0.045 -0.45661,0.0576 -0.21093,0.087 -3.35838,0.12697 -5.16005,0.0656 -1.49415,-0.0509 -2.63228,-0.14895 -4.7643,-0.41034 -0.65718,-0.0806 -1.26008,-0.11768 -1.33976,-0.0824 -0.1237,0.0547 -0.13071,0.0999 -0.0477,0.30931 0.0534,0.13487 0.13388,0.26572 0.17879,0.29071 0.12626,0.0703 0.0301,0.1755 -0.22876,0.25037 -0.25101,0.0726 -1.04957,-0.0152 -1.27671,-0.14034 -0.11898,-0.0656 -0.11649,-0.10088 0.019,-0.26708 0.0855,-0.10557 0.21196,-0.24718 0.28028,-0.31521 0.0982,-0.0978 0.098,-0.13806 -0.001,-0.1929 -0.0691,-0.0379 -0.13892,-0.11102 -0.15588,-0.16134 -0.0179,-0.0544 -0.51883,-0.19129 -1.22089,-0.33371 -2.37112,-0.48105 -5.19533,-1.2926 -7.63028,-2.19258 -1.2013,-0.44403 -3.64719,-1.79117 -4.38115,-2.41306 -2.93445,-2.48638 -4.82481,-6.08604 -5.21832,-9.93696 -0.0451,-0.44094 -0.0858,-2.07305 -0.0532,-2.13216 0.0108,-0.02 0.0461,-0.32775 0.0781,-0.6841 0.0641,-0.71446 0.36217,-2.12142 0.63879,-3.01552 0.55438,-1.79187 1.54773,-3.94349 3.75348,-8.13019 1.44369,-2.74028 1.73002,-3.32573 1.95744,-4.00236 0.45305,-1.34799 0.58728,-2.40787 0.47351,-3.73893 -0.0862,-1.00851 -0.17504,-1.38104 -0.94175,-3.94883 -1.17592,-3.93818 -1.56414,-6.10832 -1.65259,-9.23724 -0.0213,-0.75389 0.13355,-2.45591 0.30643,-3.36817 0.26048,-1.37445 0.59758,-2.30356 1.29122,-3.55883 1.00905,-1.82607 1.72527,-2.45894 2.86874,-2.53477 0.18283,-0.0121 0.35563,-0.0642 0.38406,-0.11576 0.0287,-0.0513 0.14427,-0.10492 0.25749,-0.11859 l 0.20587,-0.0249 -0.13094,-0.36236 c -0.077,-0.21314 -0.0954,-0.39231 -0.0448,-0.43501 0.10728,-0.0905 0.48205,0.0244 0.53749,0.16467 0.0267,0.0675 0.0641,0.0829 0.10653,0.0437 0.0814,-0.0751 0.76688,0.14427 0.79914,0.25569 0.013,0.0448 -0.0988,0.1645 -0.24849,0.26591 -0.33959,0.23013 -0.39936,0.33433 -0.2417,0.42124 0.0681,0.0372 0.13078,0.15853 0.1397,0.26913 0.009,0.11062 0.12361,0.31146 0.25487,0.44632 0.37254,0.38288 0.72739,1.06527 0.83846,1.61258 0.0558,0.27485 0.13406,1.05575 0.17397,1.73531 0.12624,2.14978 0.36694,3.77711 0.69771,4.71694 0.32996,0.9376 0.3829,1.05607 0.66143,1.48058 0.24659,0.37585 0.33856,0.45728 0.80337,0.7116 0.44222,0.24188 0.59751,0.28971 0.98574,0.30327 0.76287,0.0266 1.13041,-0.12945 1.65967,-0.7047 0.22304,-0.24235 0.2504,-0.30508 0.24023,-0.55078 -0.007,-0.16082 0.053,-0.41928 0.0465,-0.53583 0.0133,-0.69489 0.0549,-1.67944 0.13503,-2.52191 -0.0121,-0.8155 0.0545,-1.69099 0.14749,-2.57214 0.0315,-1.39457 0.034,-3.03696 0.0852,-4.51481 0.0743,-1.588975 0.11098,-2.855685 0.17831,-4.372685 0.0233,-1.0023 0.12232,-2.25745 0.15295,-3.35002 0.0161,-1.06184 0.0768,-2.321147 0.15193,-3.441385 -0.051,-1.253608 -1.4e-4,-2.561067 0.10684,-3.829741 0.0188,-0.618299 0.0371,-1.311155 0.054,-1.976673 0.0445,-1.365887 0.0257,-1.192828 0.0734,-1.965449 -0.0202,-1.246642 0.11063,-2.780962 0.17146,-4.115004 -0.019,-1.447882 0.0522,-3.59274 0.14968,-4.787985 0.0165,-0.117028 0.0646,-1.110845 0.10684,-2.208442 0.0503,-1.307204 0.10187,-2.006019 0.10401,-2.118367 -0.002,-1.453577 0.11549,-3.482471 0.26324,-4.913403 -0.0317,-1.592632 0.0784,-3.49276 0.16435,-5.184766 -0.017,-0.908971 0.0424,-1.917587 0.0747,-2.861028 0.0575,-1.471328 0.0841,-2.699189 0.0592,-2.728568 0.0167,-0.315411 0.0722,-0.420773 -0.0349,-0.716624 -0.11209,-0.365733 -0.51971,-0.853728 -0.9951,-1.191309 -0.17444,-0.124505 -0.70283,-0.366799 -1.22648,-0.563684 -1.65528,-0.622402 -1.77088,-0.921821 -1.2129,-3.141436 l 0.16348,-0.650247 -0.21207,-0.02118 c -0.54087,-0.05405 -1.02751,0.150971 -1.40066,0.590068 -0.17962,0.211344 -0.75802,0.413677 -1.08219,0.378557 -0.14327,-0.01561 -0.42043,-0.116372 -0.61584,-0.224058 -0.30311,-0.167089 -0.37672,-0.248381 -0.50138,-0.553906 -0.0804,-0.196919 -0.14208,-0.423669 -0.13716,-0.503865 0.005,-0.08017 -0.0771,-0.338253 -0.18235,-0.57345 -0.13375,-0.299027 -0.17447,-0.520161 -0.13541,-0.735212 0.0731,-0.402308 0.3833,-0.852995 0.688,-0.999547 0.13374,-0.06432 0.30354,-0.187004 0.37735,-0.272635 0.0738,-0.08559 0.18828,-0.218963 0.25439,-0.29633 0.1742,-0.203863 0.63822,-0.361537 1.02722,-0.349095 0.27329,0.0087 0.39999,0.05608 0.66462,0.248233 0.33043,0.23993 0.41913,0.393413 0.67022,1.160844 0.11686,0.357085 0.3597,0.645809 0.70296,0.835805 l 0.2046,0.113185 0.0624,-0.328561 c 0.0343,-0.180714 0.23987,-1.036393 0.4568,-1.901528 0.21692,-0.865102 0.38926,-1.590648 0.38298,-1.612327 -0.0132,-0.04546 -0.23774,-0.02451 -0.63929,0.05973 -0.31908,0.06692 -0.47638,0.172084 -0.92268,0.616866 -0.35584,0.354646 -0.6763,0.451974 -1.23208,0.374256 -0.68227,-0.0954 -1.04039,-0.535935 -1.10845,-1.363528 -0.0324,-0.23185 -0.1686,-0.358313 -0.29867,-0.563913 -0.18058,-0.269316 -0.15786,-0.591427 0.071,-1.005647 0.14021,-0.253801 0.27377,-0.393427 0.49746,-0.52002 0.16816,-0.09517 0.35217,-0.255064 0.40889,-0.355316 0.26572,-0.469645 1.00026,-0.703841 1.59397,-0.508227 0.4413,0.145414 0.6392,0.369684 0.84752,0.96034 0.18965,0.537706 0.20726,0.56064 0.63715,0.830283 l 0.4421,0.277292 0.0716,-0.20565 c 0.0394,-0.113121 0.18573,-0.661568 0.32523,-1.21877 0.1395,-0.557185 0.33238,-1.32686 0.42863,-1.710375 0.0962,-0.383504 0.16801,-0.721302 0.15953,-0.750648 -0.0281,-0.09713 -0.69712,-0.07716 -0.89311,0.02664 -0.10587,0.05606 -0.33101,0.248516 -0.5003,0.427691 -0.34852,0.368847 -0.61227,0.481118 -1.09734,0.46709 -0.34069,-0.0098 -0.67811,-0.188512 -0.78212,-0.283409 -0.17225,-0.157049 -0.32436,-0.325413 -0.44439,-0.443216 -0.0514,-0.05041 -0.11733,-0.158758 -0.12807,-0.414605 -0.0113,-0.268363 -0.0617,-0.42489 -0.15405,-0.477579 -0.1778,-0.101475 -0.28947,-0.495352 -0.2566,-0.9049 0.0316,-0.393035 0.23519,-0.666843 0.65478,-0.880415 0.16148,-0.0822 0.33244,-0.219907 0.37992,-0.306028 0.20075,-0.364256 0.57332,-0.542549 1.1954,-0.572047 0.27704,-0.01312 0.39653,0.02496 0.7032,0.224109 0.33061,0.214687 0.38532,0.286675 0.51866,0.686589 0.082,0.245663 0.22648,0.543979 0.32095,0.66292 0.20096,0.253028 0.84114,0.631468 0.83424,0.493234 -0.002,-0.0499 0.19909,-0.870651 0.44794,-1.824026 0.5709,-2.187105 0.54576,-2.066253 0.44163,-2.123654 -0.25808,-0.142223 -1.23269,0.312411 -1.42754,0.665929 -0.10919,0.198114 -0.87926,0.425076 -1.26108,0.37168 -0.24712,-0.03455 -0.36885,-0.08794 -0.46862,-0.205491 -0.0741,-0.08737 -0.20035,-0.175398 -0.28053,-0.195547 -0.17546,-0.04435 -0.37325,-0.513575 -0.36397,-0.863157 0.004,-0.137968 -0.0472,-0.272021 -0.11789,-0.311001 -0.21244,-0.117169 -0.33956,-0.594786 -0.26515,-0.996719 0.0816,-0.440603 0.35534,-0.784118 0.6874,-0.862509 0.13735,-0.03241 0.24248,-0.129417 0.34828,-0.321356 0.30629,-0.555742 1.24053,-0.763012 1.85576,-0.411713 0.32473,0.185422 0.42435,0.322387 0.60362,0.830232 0.16077,0.45532 0.42041,0.785053 0.76979,0.977607 l 0.32118,0.177028 0.12567,-0.379084 c 0.28877,-0.871115 1.10701,-1.852506 1.85282,-2.222259 0.48148,-0.238713 1.29138,-0.447718 1.37065,-0.353725 0.0468,0.05549 0.0731,0.05234 0.0702,-0.0091 -0.007,-0.139619 1.10217,-0.06073 1.62688,0.11572 0.97539,0.328015 1.77771,0.991645 2.22543,1.840784 0.56344,1.068619 0.53879,2.687337 -0.0573,3.760862 -0.37343,0.672531 -0.61985,0.938917 -1.35112,1.4606 -0.7975,0.568942 -0.85399,0.628483 -0.91733,0.967023 -0.12194,0.651745 0.10931,2.375248 0.44444,3.312325 0.2328,0.650961 0.90308,2.910602 1.026,3.458879 0.16956,0.75627 0.26204,1.350035 0.37043,2.378185 0.1382,1.310925 0.14812,1.793903 0.0409,1.9885 -0.0466,0.08448 -0.39339,0.331901 -0.77068,0.549811 -1.1598,0.669831 -1.78648,1.375375 -2.15374,2.424785 -0.1738,0.496643 -0.35702,1.898349 -0.31308,2.395121 -0.29275,1.442937 -0.0171,2.575661 0.0487,4.033931 0.0201,1.102955 0.0222,1.520453 0.0133,2.636198 -0.003,0.327344 0.003,0.945089 0.0116,1.37278 0.0202,1.199652 0.006,2.399456 0.0225,3.599163 -0.26883,2.447603 0.005,4.592751 0.0237,6.780895 -0.21333,1.647213 -0.002,2.710501 0.0177,3.731056 -0.34251,2.512312 0.0453,3.899637 0.0424,6.229692 -0.19318,1.582266 0.0166,2.63085 0.008,4.394162 -0.0522,1.131904 -0.019,1.136909 0.0179,1.790295 0.003,0.201448 0.0104,0.637685 0.0158,0.969414 0.021,1.304135 -0.0247,1.60467 -0.028,2.18291 0.0266,0.839508 0.10785,2.32833 0.0578,3.44607 -0.006,0.51482 -0.0143,1.45217 -0.0113,1.80798 -0.29949,6.324405 0.11783,13.137685 -0.004,20.162665 -0.13721,0.85431 -0.0779,1.84878 0.25607,2.67482 0.72809,1.80437 2.63843,2.3858 4.59371,1.39814 0.54598,-0.2758 1.09506,-0.86542 1.52335,-1.63582 0.44901,-0.80769 0.57776,-1.20748 0.84074,-2.61098 0.2384,-1.2722 0.43924,-1.774 0.86927,-2.17171 0.33267,-0.30765 1.04938,-0.56816 1.52819,-0.55549 0.36807,0.01 1.0147,0.29878 1.38205,0.61773 0.55415,0.48118 1.32875,1.72205 1.65229,2.64698 0.27855,0.79626 0.54604,2.38057 0.656,3.8854 0.21858,2.99135 -0.73372,7.42513 -2.52574,11.7593 -0.77449,1.8732 -0.92638,2.38703 -1.03058,3.48626 -0.0943,0.99527 0.0163,1.93725 0.37588,3.20151 0.29234,1.02777 0.8677,2.27959 1.47563,3.21049 0.11464,0.17548 0.20602,0.34665 0.20315,0.38028 -0.003,0.0336 0.0214,0.0758 0.0539,0.0937 0.0572,0.0317 0.36578,0.53528 1.27316,2.07894 0.2399,0.40808 0.46133,0.75584 0.4921,0.77281 0.0306,0.0173 0.0432,0.054 0.0276,0.0822 -0.0156,0.0282 0.0368,0.15975 0.11648,0.29225 0.33726,0.56096 0.93073,1.87309 1.22882,2.71684 0.35698,1.01045 0.54094,1.89748 0.64317,3.10115 0.18199,2.14305 -0.0907,3.58214 -1.03519,5.46338 -0.30765,0.61274 -0.57392,1.08819 -0.5917,1.05654 z M 210.06845,37.347107 c -0.005,-0.07326 -0.0256,-0.103747 -0.0454,-0.06782 -0.0199,0.03599 -0.0319,0.125458 -0.0268,0.198744 0.005,0.07327 0.0256,0.103741 0.0455,0.06772 0.0199,-0.03599 0.0319,-0.12546 0.0268,-0.19873 z"
       id="path2398"
       sodipodi:nodetypes="csssssssssssssssssssssssssssssssssssscccssssssssssssssssccccccccccccsccccccsscccssssssssssssscccsssssccssssscccssssssssssssssssssssssssssssssscccssssssssssssssccscccccccscccccsssssssssssssssssssssccsssc"
       inkscape:connector-curvature="0" />
    <path
       style="opacity:1;fill:#ffffff;fill-opacity:1;stroke-width:0.77294523"
       d="m 178.63655,182.12475 c -0.31147,-0.14623 -0.39346,-0.44958 -0.18309,-0.67717 0.0667,-0.0724 0.12069,-0.16744 0.11964,-0.21137 -0.002,-0.0766 -0.19533,-0.36496 -0.27695,-0.41276 -0.0218,-0.0123 -0.49198,-0.0297 -1.04543,-0.0379 -1.24923,-0.0186 -2.40322,-0.072 -3.61969,-0.16751 -1.91983,-0.15079 -4.46628,-0.46031 -5.50809,-0.66953 -2.57705,-0.51747 -4.94413,-1.57166 -6.85589,-3.05323 -0.74762,-0.57933 -2.10395,-1.86228 -2.56694,-2.42792 -1.47289,-1.79956 -2.16729,-3.76598 -2.31899,-6.56699 -0.0915,-1.68993 0.0791,-4.37987 0.37276,-5.87849 0.54269,-2.76898 1.56568,-5.89578 3.54877,-10.84687 1.12121,-2.79928 1.41939,-3.62643 1.72657,-4.78941 0.8019,-3.03586 0.62644,-5.95361 -0.57447,-9.55277 -0.66763,-2.00085 -2.06691,-6.43995 -2.19375,-6.95943 -1.10885,-4.54148 -1.14556,-8.07193 -0.11082,-10.65593 0.20636,-0.5153 0.69159,-1.43334 0.98023,-1.85451 0.54024,-0.78842 1.24479,-1.363 1.96495,-1.60262 0.26989,-0.0898 0.37996,-0.10587 0.70844,-0.10322 0.37517,0.003 0.38575,7.6e-4 0.2997,-0.0621 -0.0487,-0.0363 -0.10237,-0.0652 -0.11841,-0.0654 -0.0952,-5.7e-4 0.006,-0.0855 0.26209,-0.2197 l 0.29291,-0.15351 -0.0318,-0.14099 c -0.0767,-0.33989 0.0182,-0.51974 0.30682,-0.58149 0.16263,-0.0348 0.28552,0.008 0.62944,0.2166 0.34005,0.20687 0.42618,0.31939 0.432,0.56473 0.005,0.22167 -0.0796,0.33635 -0.2788,0.37687 -0.27728,0.0564 -0.33029,0.20852 -0.20512,0.58852 0.0344,0.10442 0.0628,0.19585 0.0633,0.20332 7.9e-4,0.007 -0.0602,-0.0205 -0.13468,-0.0621 l -0.13545,-0.0756 0.11847,0.17743 c 0.27824,0.41661 0.34006,0.6896 0.45384,2.00403 0.0997,1.15126 0.23021,2.15093 0.38544,2.95124 0.062,0.31989 0.14224,0.74742 0.17822,0.95008 0.0785,0.44181 0.15343,0.66838 0.33649,1.01666 0.26525,0.50468 0.61548,0.9374 1.20336,1.48677 0.9687,0.90521 2.13829,1.54208 3.34958,1.82394 0.29775,0.0693 0.45233,0.0798 0.9949,0.0681 0.74049,-0.0161 0.93658,-0.0609 1.49159,-0.34072 0.41172,-0.20758 0.73171,-0.45417 1.04475,-0.80509 0.29195,-0.32726 0.68593,-0.95401 0.6828,-1.08615 -0.001,-0.0551 0.004,-2.05478 0.0112,-4.4437 0.0354,-11.36647 0.0419,-18.86597 0.0258,-30.168985 -0.003,-2.036672 -0.0226,-6.732779 -0.042,-9.990198 -0.0126,-2.127823 -0.0648,-6.665215 -0.12891,-11.215934 l -0.031,-2.200861 -0.20967,-0.192069 c -0.27883,-0.255521 -0.58591,-0.493267 -0.92309,-0.714347 -0.41417,-0.27158 -0.64415,-0.497751 -0.73427,-0.722383 -0.17518,-0.436444 -0.16019,-0.857912 0.0554,-1.558286 0.15781,-0.512672 0.38883,-1.509313 0.35688,-1.539755 -0.0535,-0.05163 -0.45388,-0.142814 -0.53834,-0.123167 -0.0523,0.01217 -0.13632,0.09717 -0.20202,0.204326 -0.0985,0.160574 -0.13165,0.18553 -0.26554,0.199662 -0.16902,0.01782 -0.51276,-0.07786 -0.94928,-0.264221 -0.34267,-0.146298 -0.35157,-0.170142 -0.28859,-0.770703 0.0488,-0.46589 0.10313,-0.665502 0.25578,-0.940697 0.12762,-0.230113 0.24901,-0.327619 0.44992,-0.36154 0.20211,-0.03414 0.70867,0.04898 0.92124,0.151154 0.20553,0.09874 0.36281,0.316446 0.36734,0.508395 0.004,0.161792 0.009,0.164545 0.38197,0.192326 0.19993,0.01488 0.203,0.01345 0.23859,-0.110284 0.14754,-0.513054 0.54567,-2.034068 0.53458,-2.042394 -0.008,-0.0057 -0.10537,-0.03719 -0.2172,-0.07007 -0.25017,-0.07345 -0.37147,-0.03411 -0.46075,0.14916 -0.0348,0.0714 -0.0907,0.151802 -0.12423,0.178651 -0.14411,0.115493 -0.50644,0.04224 -1.11495,-0.225498 l -0.31053,-0.136666 0.0145,-0.435253 c 0.0248,-0.743154 0.23853,-1.285002 0.56817,-1.440537 0.16782,-0.07915 0.20297,-0.08231 0.50856,-0.0456 0.36695,0.04408 0.56399,0.109138 0.70543,0.232862 0.12423,0.10926 0.24996,0.373776 0.22571,0.476348 -0.023,0.09717 0.0207,0.116226 0.3269,0.142928 l 0.22705,0.01984 0.2877,-1.010664 c 0.15824,-0.555856 0.28254,-1.02047 0.27622,-1.032474 -0.0265,-0.05056 -0.4196,-0.145509 -0.50494,-0.121919 -0.0511,0.01413 -0.11824,0.07774 -0.14928,0.141387 -0.0903,0.18524 -0.19337,0.27056 -0.33077,0.273823 -0.15973,0.0038 -0.63781,-0.143515 -0.97127,-0.299307 l -0.25604,-0.119573 -0.002,-0.272588 c -0.005,-0.623229 0.0619,-0.935385 0.28103,-1.318537 0.10441,-0.182576 0.16053,-0.237391 0.30218,-0.29538 0.15241,-0.06239 0.21375,-0.06657 0.49472,-0.03369 0.43697,0.05113 0.70348,0.177702 0.8403,0.399054 0.0759,0.122656 0.10037,0.203416 0.0861,0.284425 -0.0219,0.125012 -0.0141,0.128425 0.3874,0.167346 l 0.1952,0.01892 0.32206,-1.080521 c 0.17712,-0.594244 0.3145,-1.085764 0.30524,-1.092176 -0.0678,-0.04768 -0.49199,-0.13483 -0.55882,-0.115401 -0.0457,0.01328 -0.13371,0.108797 -0.19553,0.212345 -0.0963,0.16128 -0.13256,0.190416 -0.25321,0.203358 -0.16364,0.01761 -0.51513,-0.08272 -0.94208,-0.268749 -0.36277,-0.158056 -0.36807,-0.171398 -0.30716,-0.772008 0.0682,-0.672307 0.27357,-1.127752 0.56902,-1.2618 0.12016,-0.05452 0.19456,-0.05925 0.48139,-0.03076 0.44163,0.04395 0.65868,0.135679 0.81915,0.346108 0.0988,0.129689 0.12428,0.197281 0.11639,0.309195 -0.0114,0.161238 -0.013,0.160441 0.42112,0.197913 l 0.2342,0.02018 0.32439,-1.033466 c 0.17842,-0.568422 0.32037,-1.042137 0.31545,-1.052712 -0.0125,-0.02696 -0.56214,-0.179839 -0.64295,-0.178797 -0.0365,4.54e-4 -0.0967,0.04643 -0.13393,0.102231 -0.18972,0.284707 -0.24428,0.33443 -0.37023,0.337403 -0.14769,0.0035 -0.55036,-0.118734 -0.96044,-0.29164 l -0.29084,-0.122631 0.0137,-0.456891 c 0.0147,-0.489996 0.0907,-0.795069 0.28568,-1.146503 0.11739,-0.21168 0.22492,-0.2966 0.42208,-0.333391 0.18454,-0.03445 0.70803,0.03859 0.88268,0.123197 0.27091,0.131168 0.46261,0.402649 0.41935,0.594088 -0.0235,0.103803 -0.0482,0.09373 0.45209,0.183845 0.1592,0.02869 0.29313,0.04734 0.2976,0.04154 0.005,-0.0063 0.0759,-0.292696 0.15877,-0.637415 0.0829,-0.344766 0.20597,-0.827504 0.27363,-1.072831 0.0676,-0.245264 0.11783,-0.448979 0.1115,-0.452602 -0.0649,-0.03716 -0.47544,-0.127444 -0.56304,-0.123742 -0.0911,0.0039 -0.13536,0.04079 -0.22583,0.188446 -0.1872,0.305551 -0.32117,0.306647 -1.0809,0.0087 -0.48348,-0.189569 -0.48922,-0.197382 -0.45483,-0.618554 0.0117,-0.14306 0.0271,-0.335147 0.0344,-0.426858 0.0276,-0.351083 0.2728,-0.867656 0.47275,-0.996166 0.13981,-0.08987 0.39525,-0.107227 0.74689,-0.05076 0.46203,0.07409 0.7461,0.309495 0.75352,0.624441 l 0.004,0.164903 0.36445,0.03712 c 0.20046,0.0204 0.36958,0.03119 0.37584,0.0239 0.007,-0.0076 0.0797,-0.158362 0.16327,-0.335745 0.2552,-0.541814 0.46322,-0.842413 0.76463,-1.104963 0.83094,-0.723795 1.82176,-1.03634 2.79673,-0.882186 0.17199,0.02725 0.41866,0.0798 0.54808,0.116855 0.28474,0.08158 0.87789,0.355231 1.17282,0.541067 0.56991,0.359152 1.00532,0.946833 1.22233,1.649951 0.21468,0.695643 0.33361,1.644434 0.26115,2.083939 -0.15147,0.918928 -0.65263,1.932591 -1.20584,2.438958 -0.16559,0.15154 -0.52472,0.381711 -0.94134,0.603304 -0.52126,0.277256 -0.75286,0.634703 -0.78285,1.208273 -0.0198,0.378314 0.0204,0.574381 0.60423,2.94604 0.60588,2.461452 0.96212,3.97852 1.21513,5.17506 0.17522,0.828576 0.18473,0.904909 0.20741,1.666314 0.0171,0.573967 0.0105,0.831644 -0.0237,0.918083 -0.035,0.08858 -0.14044,0.177416 -0.40102,0.338365 -0.51906,0.320392 -1.19687,0.808448 -1.50167,1.081278 -0.33255,0.297649 -0.56363,0.577923 -0.84622,1.026362 -0.41961,0.665794 -0.47376,0.803086 -0.55553,1.408467 -0.0406,0.300861 -0.10022,0.696667 -0.13238,0.879515 -0.0609,0.346237 -0.0145,2.111111 0.88959,33.789367 0.0773,2.70825 0.2542,9.00552 0.39313,13.99396 0.13891,4.98842 0.28861,10.21711 0.33265,11.61933 0.044,1.40218 0.10031,3.39511 0.12506,4.42865 l 0.045,1.87921 0.10025,0.0428 c 0.0551,0.0236 0.14913,0.10609 0.20887,0.18338 0.58696,0.75968 2.23267,1.25215 3.81325,1.1411 1.8625,-0.1309 3.34593,-0.85212 4.31601,-2.09835 0.25061,-0.32241 0.45211,-0.81163 0.79121,-1.92365 0.19136,-0.62761 0.49695,-1.93887 0.59787,-2.56552 0.12397,-0.7697 0.30197,-1.17372 0.7035,-1.59668 0.46253,-0.48718 0.9478,-0.68586 1.63705,-0.67017 0.6435,0.0147 1.06962,0.2101 1.63722,0.75095 0.19747,0.1881 0.4374,0.45737 0.53318,0.59831 0.38708,0.56946 0.88757,2.05219 1.12593,3.33552 0.11378,0.61259 0.15677,2.44662 0.073,3.11443 -0.17049,1.35909 -0.36553,2.158 -1.34386,5.50456 -0.0599,0.20495 -0.27203,0.73584 -0.4714,1.17974 -0.55298,1.2313 -0.80956,1.969 -1.03824,2.98491 -0.36862,1.63758 -0.3647,3.22613 0.012,4.86875 0.26002,1.1338 0.66401,2.15899 1.33067,3.3768 0.21998,0.40184 0.47396,0.90415 0.5644,1.11623 0.2151,0.50448 0.48215,1.07427 1.23016,2.62478 1.1967,2.48059 1.7137,3.67855 2.22766,5.1617 0.94435,2.7252 1.3781,5.27208 1.3248,7.7792 -0.0365,1.71565 -0.15642,2.84495 -0.42306,3.98247 -0.4962,2.11674 -1.30557,3.60709 -2.96778,5.46486 -0.71118,0.79479 -0.75434,0.83321 -1.53963,1.36882 -1.7805,1.2143 -2.81535,1.74416 -4.36824,2.23653 -1.93052,0.6121 -4.35075,0.98088 -6.82172,1.03943 -0.75442,0.0179 -2.35483,0.0674 -3.55648,0.10999 l -2.18483,0.0775 -0.13876,0.25076 -0.13876,0.25075 0.14394,0.15195 c 0.1586,0.16748 0.1812,0.28344 0.0911,0.46824 -0.1028,0.21078 -0.25551,0.27497 -0.67307,0.28295 -0.26752,0.005 -0.40707,-0.0104 -0.50426,-0.0561 z"
       id="path3250"
       sodipodi:nodetypes="csssssssssssssssssssscccsssssscccssssssssssssscccssssssssssssssssssscccsssscccsssscccssssscccsssssssssscccsssscccsssssssssssssssscccssssssssssssssssssssssscccssssssssssssssssssssssssscccccssc"
       inkscape:connector-curvature="0" />
    <path
       style="font-size:39.83382034px;font-family:Goblin;stroke:none;stroke-opacity:1;fill:#ffffff;fill-opacity:1"
       d="M 58.72672,219.00823 L 44.00299,198.17717 L 44.00299,218.61923 L 40.30747,218.61923 L 40.30747,190.12482 L 41.86348,190.12482 L 56.19821,209.82778 L 56.19821,190.12482 L 59.89373,190.12482 L 59.89373,219.00823 L 58.72672,219.00823 M 64.3867,204.1289 C 64.3867,200.0055 65.41756,196.55635 67.47927,193.78144 C 69.55394,191.00659 72.34827,189.61915 75.86227,189.61912 C 79.8171,189.61915 82.84483,190.89637 84.94547,193.45079 C 87.05902,196.00526 88.11581,199.56463 88.11583,204.1289 C 88.11581,208.8099 87.05902,212.47949 84.94547,215.13766 C 82.83187,217.78288 79.80414,219.10548 75.86227,219.10548 C 72.27047,219.10548 69.45669,217.70508 67.42092,214.90426 C 65.39811,212.10345 64.3867,208.51167 64.3867,204.1289 M 68.47123,204.1289 C 68.47122,207.39653 69.11307,210.12603 70.39679,212.3174 C 71.69345,214.50878 73.51528,215.60447 75.86227,215.60447 C 78.52043,215.60447 80.54324,214.59955 81.9307,212.5897 C 83.33109,210.57986 84.03129,207.7596 84.03131,204.1289 C 84.03129,196.78975 81.30828,193.12017 75.86227,193.12014 C 73.45044,193.12017 71.61565,194.10564 70.35789,196.07656 C 69.10011,198.04752 68.47122,200.73163 68.47123,204.1289 M 122.75647,191.17513 L 121.45332,194.5011 C 120.20849,193.59345 118.25052,193.13962 115.57938,193.13959 C 113.07679,193.13962 111.06695,194.21585 109.54985,196.36831 C 108.0457,198.52081 107.29363,201.29569 107.29364,204.69296 C 107.29363,207.93465 108.06515,210.5669 109.6082,212.5897 C 111.1642,214.59955 113.16756,215.60447 115.61828,215.60447 C 118.28942,215.60447 120.34464,214.6579 121.78397,212.76475 L 123.92348,215.74062 C 121.66725,217.98386 118.7627,219.10548 115.20983,219.10548 C 111.48837,219.10548 108.55789,217.76343 106.41838,215.07931 C 104.27887,212.3952 103.20911,208.85529 103.20912,204.45955 C 103.20911,200.20648 104.35019,196.67305 106.63233,193.85925 C 108.91447,191.04549 111.8644,189.6386 115.48213,189.63857 C 118.58117,189.6386 121.00594,190.15079 122.75647,191.17513 M 127.01605,204.1289 C 127.01604,200.0055 128.0469,196.55635 130.10861,193.78144 C 132.18328,191.00659 134.97761,189.61915 138.49161,189.61912 C 142.44645,189.61915 145.47418,190.89637 147.57481,193.45079 C 149.68836,196.00526 150.74515,199.56463 150.74518,204.1289 C 150.74515,208.8099 149.68836,212.47949 147.57481,215.13766 C 145.46121,217.78288 142.43348,219.10548 138.49161,219.10548 C 134.89981,219.10548 132.08603,217.70508 130.05026,214.90426 C 128.02745,212.10345 127.01604,208.51167 127.01605,204.1289 M 131.10057,204.1289 C 131.10056,207.39653 131.74242,210.12603 133.02613,212.3174 C 134.32279,214.50878 136.14462,215.60447 138.49161,215.60447 C 141.14977,215.60447 143.17258,214.59955 144.56004,212.5897 C 145.96043,210.57986 146.66063,207.7596 146.66065,204.1289 C 146.66063,196.78975 143.93762,193.12017 138.49161,193.12014 C 136.07979,193.12017 134.24499,194.10564 132.98723,196.07656 C 131.72945,198.04752 131.10056,200.73163 131.10057,204.1289 M 165.13826,219.00823 L 163.1738,219.00823 L 152.55404,190.12482 L 156.87197,190.12482 L 164.20466,211.11149 L 171.26505,190.12482 L 175.44682,190.12482 L 165.13826,219.00823 M 182.52665,193.62584 L 182.52665,201.54204 L 191.94051,201.54204 L 191.94051,204.84856 L 182.52665,204.84856 L 182.52665,215.11821 L 195.44153,215.11821 L 195.44153,218.61923 L 178.63663,218.61923 L 178.63663,190.12482 L 195.65548,190.12482 L 195.65548,193.62584 L 182.52665,193.62584 M 215.76689,218.61923 L 208.1619,206.38511 C 207.29312,206.38513 205.91864,206.32029 204.03848,206.19061 L 204.03848,218.61923 L 200.14846,218.61923 L 200.14846,190.12482 C 200.29109,190.12485 201.29601,190.07947 203.16322,189.98867 C 205.04339,189.88497 206.41138,189.8331 207.26719,189.83307 C 214.11362,189.8331 217.53683,192.55611 217.53685,198.00212 C 217.53683,199.79155 216.98575,201.4059 215.88359,202.84519 C 214.7814,204.27155 213.47176,205.15977 211.95467,205.50986 L 220.22097,218.61923 L 215.76689,218.61923 M 204.03848,193.62584 L 204.03848,202.8841 C 204.97207,203.01378 205.87974,203.07861 206.76149,203.0786 C 209.09549,203.07861 210.79413,202.70258 211.85742,201.95049 C 212.92068,201.19844 213.45231,199.85638 213.45233,197.92432 C 213.45231,196.32943 212.88178,195.18188 211.74072,194.48165 C 210.59963,193.78147 208.79726,193.43137 206.33359,193.43134 C 205.94458,193.43137 205.17954,193.4962 204.03848,193.62584"
       id="text1909" />
  </g>
</svg>
