<?xml version="1.0" encoding="UTF-8" standalone="no"?>
<svg
   xmlns:dc="http://purl.org/dc/elements/1.1/"
   xmlns:cc="http://creativecommons.org/ns#"
   xmlns:rdf="http://www.w3.org/1999/02/22-rdf-syntax-ns#"
   xmlns:svg="http://www.w3.org/2000/svg"
   xmlns="http://www.w3.org/2000/svg"
   xmlns:sodipodi="http://sodipodi.sourceforge.net/DTD/sodipodi-0.dtd"
   xmlns:inkscape="http://www.inkscape.org/namespaces/inkscape"
   xml:space="preserve"
   version="1.0"
   id="layer1"
   width="128"
   height="128"
   viewBox="0 0 19.2 19.2"
   inkscape:version="0.92.4 (5da689c313, 2019-01-14)"
   sodipodi:docname="icon_pdev.svg"><defs
   id="defs19">


</defs><sodipodi:namedview
   pagecolor="#ffffff"
   bordercolor="#666666"
   borderopacity="1"
   objecttolerance="10"
   gridtolerance="10"
   guidetolerance="10"
   inkscape:pageopacity="0"
   inkscape:pageshadow="2"
   inkscape:window-width="1920"
   inkscape:window-height="1017"
   id="namedview17"
   showgrid="false"
   inkscape:zoom="1.6461446"
   inkscape:cx="-55.73348"
   inkscape:cy="136.56382"
   inkscape:window-x="-8"
   inkscape:window-y="-8"
   inkscape:window-maximized="1"
   inkscape:current-layer="layer1"
   inkscape:pagecheckerboard="true" /><metadata
   id="metadata1"><rdf:RDF><cc:Work
       rdf:about=""><dc:format>image/svg+xml</dc:format><dc:type
         rdf:resource="http://purl.org/dc/dcmitype/StillImage" /><dc:title></dc:title></cc:Work></rdf:RDF></metadata>
<g
   transform="matrix(0.05845944,0,0,0.05845944,1.9509626,2.1076487)"
   id="g12"
   style="fill:#ffffff"><g
     id="g10"
     style="fill:#ffffff"><path
       style="fill:#ffffff"
       inkscape:connector-curvature="0"
       d="m 114.1,66.9 c 0,7.7 6.2,13.9 13.9,13.9 7.7,0 13.9,-6.2 13.9,-13.9 0,0 0,0 0,0 0,-7.7 -6.2,-13.9 -13.9,-13.9 -7.7,0 -13.9,6.2 -13.9,13.9 z"
       id="path4" /><path
       style="fill:#ffffff"
       inkscape:connector-curvature="0"
       d="m 105.3,172.2 c 0,12.6 10.2,22.8 22.7,22.8 12.6,0 22.8,-10.2 22.8,-22.7 v 0 c 0,-12.6 -10.2,-22.8 -22.7,-22.8 -12.6,0 -22.8,10.2 -22.8,22.7 0,0 0,0 0,0 z"
       id="path6" /><path
       style="fill:#ffffff"
       inkscape:connector-curvature="0"
       d="M 201.8,10 H 54.2 c -0.8,0 -1.4,0.7 -1.4,1.6 v 232.8 c 0,0.9 0.7,1.6 1.4,1.6 h 147.5 c 0.8,0 1.4,-0.7 1.4,-1.6 V 11.6 C 203.2,10.7 202.5,10 201.8,10 Z M 128,33.3 c 18.6,0 33.6,15 33.6,33.6 0,18.6 -15,33.6 -33.6,33.6 -18.6,0 -33.6,-15 -33.6,-33.6 0,-18.6 15,-33.6 33.6,-33.6 z m 0,191.2 c -28.9,0 -52.3,-23.4 -52.3,-52.3 0,-28.9 23.4,-52.3 52.3,-52.3 28.9,0 52.3,23.4 52.3,52.3 0,28.9 -23.4,52.3 -52.3,52.3 z"
       id="path8" /></g></g></svg>