<?xml version="1.0" encoding="UTF-8" standalone="no"?>
<!-- Created with Sodipodi ("http://www.sodipodi.com/") -->

<svg
   xmlns:dc="http://purl.org/dc/elements/1.1/"
   xmlns:cc="http://creativecommons.org/ns#"
   xmlns:rdf="http://www.w3.org/1999/02/22-rdf-syntax-ns#"
   xmlns:svg="http://www.w3.org/2000/svg"
   xmlns="http://www.w3.org/2000/svg"
   xmlns:xlink="http://www.w3.org/1999/xlink"
   xmlns:sodipodi="http://sodipodi.sourceforge.net/DTD/sodipodi-0.dtd"
   xmlns:inkscape="http://www.inkscape.org/namespaces/inkscape"
   version="1.0"
   x="0"
   y="0"
   width="1000"
   height="800"
   id="svg559"
   sodipodi:version="0.32"
   inkscape:version="0.92.4 (5da689c313, 2019-01-14)"
   sodipodi:docname="intro_configure.svg"
   inkscape:output_extension="org.inkscape.output.svg.inkscape">
  <metadata
     id="metadata35">
    <rdf:RDF>
      <cc:Work
         rdf:about="">
        <dc:format>image/svg+xml</dc:format>
        <dc:type
           rdf:resource="http://purl.org/dc/dcmitype/StillImage" />
        <dc:title />
      </cc:Work>
    </rdf:RDF>
  </metadata>
  <sodipodi:namedview
     inkscape:window-height="1017"
     inkscape:window-width="1920"
     inkscape:pageshadow="2"
     inkscape:pageopacity="0.0"
     guidetolerance="10.0"
     gridtolerance="10.0"
     objecttolerance="10.0"
     borderopacity="1.0"
     bordercolor="#666666"
     pagecolor="#ffffff"
     id="base"
     inkscape:zoom="0.61522535"
     inkscape:cx="-16.737919"
     inkscape:cy="394.54411"
     inkscape:window-x="-8"
     inkscape:window-y="-8"
     inkscape:current-layer="svg559"
     showgrid="false"
     showguides="true"
     inkscape:guide-bbox="true"
     inkscape:window-maximized="1"
     inkscape:pagecheckerboard="true" />
  <defs
     id="defs561">
    <linearGradient
       id="linearGradient4557">
      <stop
         style="stop-color:#ffffff;stop-opacity:1;"
         offset="0"
         id="stop4559" />
      <stop
         style="stop-color:#0300da;stop-opacity:1;"
         offset="1"
         id="stop4561" />
    </linearGradient>
    <linearGradient
       id="linearGradient3945">
      <stop
         style="stop-color:#ffffff;stop-opacity:1;"
         offset="0"
         id="stop3947" />
      <stop
         style="stop-color:#ffffff;stop-opacity:0;"
         offset="1"
         id="stop3949" />
    </linearGradient>
    <inkscape:perspective
       sodipodi:type="inkscape:persp3d"
       inkscape:vp_x="0 : 400 : 1"
       inkscape:vp_y="0 : 1000 : 0"
       inkscape:vp_z="1000 : 400 : 1"
       inkscape:persp3d-origin="500 : 266.66667 : 1"
       id="perspective62" />
    <linearGradient
       id="linearGradient6053">
      <stop
         style="stop-color:#000000;stop-opacity:1;"
         offset="0"
         id="stop6055" />
      <stop
         style="stop-color:#5f5f5f;stop-opacity:1;"
         offset="1"
         id="stop6057" />
    </linearGradient>
    <linearGradient
       id="linearGradient6499"
       inkscape:collect="always">
      <stop
         id="stop6501"
         offset="0"
         style="stop-color:white;stop-opacity:1;" />
      <stop
         id="stop6503"
         offset="1"
         style="stop-color:white;stop-opacity:0;" />
    </linearGradient>
    <linearGradient
       inkscape:collect="always"
       xlink:href="#linearGradient6499"
       id="linearGradient3245"
       gradientUnits="userSpaceOnUse"
       gradientTransform="matrix(0.8327515,0,0,-0.6476426,-48.09403,12.672202)"
       x1="311.95688"
       y1="-116.67703"
       x2="311.95688"
       y2="-276.41519" />
    <linearGradient
       inkscape:collect="always"
       xlink:href="#linearGradient6499"
       id="linearGradient4108"
       gradientUnits="userSpaceOnUse"
       gradientTransform="matrix(1.3544445,0,0,1.7332213,31.621862,51.58815)"
       x1="44.868057"
       y1="260.4765"
       x2="358.07056"
       y2="260.4765" />
    <linearGradient
       inkscape:collect="always"
       xlink:href="#linearGradient6499"
       id="linearGradient4121"
       gradientUnits="userSpaceOnUse"
       gradientTransform="matrix(1.2483528,0,0,1.0242885,40.754503,133.62899)"
       x1="44.868057"
       y1="260.4765"
       x2="358.07056"
       y2="260.4765" />
    <linearGradient
       inkscape:collect="always"
       xlink:href="#linearGradient6499"
       id="linearGradient4127"
       gradientUnits="userSpaceOnUse"
       gradientTransform="matrix(1.2483528,0,0,1.0242885,40.754503,340.11416)"
       x1="44.868057"
       y1="260.4765"
       x2="358.07056"
       y2="260.4765" />
    <linearGradient
       inkscape:collect="always"
       xlink:href="#linearGradient6499"
       id="linearGradient4133"
       gradientUnits="userSpaceOnUse"
       gradientTransform="matrix(1.2483528,0,0,1.0242885,39.887975,233.1463)"
       x1="44.868057"
       y1="260.4765"
       x2="358.07056"
       y2="260.4765" />
    <inkscape:perspective
       id="perspective2871"
       inkscape:persp3d-origin="0.5 : 0.33333333 : 1"
       inkscape:vp_z="1 : 0.5 : 1"
       inkscape:vp_y="0 : 1000 : 0"
       inkscape:vp_x="0 : 0.5 : 1"
       sodipodi:type="inkscape:persp3d" />
    <linearGradient
       id="linearGradient3751">
      <stop
         id="stop3753"
         offset="0"
         style="stop-color:black;stop-opacity:1;" />
      <stop
         id="stop3755"
         offset="1"
         style="stop-color:black;stop-opacity:0;" />
    </linearGradient>
    <inkscape:perspective
       id="perspective2871-4"
       inkscape:persp3d-origin="0.5 : 0.33333333 : 1"
       inkscape:vp_z="1 : 0.5 : 1"
       inkscape:vp_y="0 : 1000 : 0"
       inkscape:vp_x="0 : 0.5 : 1"
       sodipodi:type="inkscape:persp3d" />
    <linearGradient
       inkscape:collect="always"
       xlink:href="#linearGradient6499-1"
       id="linearGradient4108-1"
       gradientUnits="userSpaceOnUse"
       gradientTransform="matrix(1.3544445,0,0,1.7332213,31.621862,-148.41185)"
       x1="44.868057"
       y1="260.4765"
       x2="358.07056"
       y2="260.4765" />
    <linearGradient
       id="linearGradient6499-1">
      <stop
         id="stop6501-3"
         offset="0"
         style="stop-color:#000000;stop-opacity:1;" />
      <stop
         id="stop6503-0"
         offset="1"
         style="stop-color:white;stop-opacity:0;" />
    </linearGradient>
    <inkscape:perspective
       id="perspective2849"
       inkscape:persp3d-origin="0.5 : 0.33333333 : 1"
       inkscape:vp_z="1 : 0.5 : 1"
       inkscape:vp_y="0 : 1000 : 0"
       inkscape:vp_x="0 : 0.5 : 1"
       sodipodi:type="inkscape:persp3d" />
    <inkscape:perspective
       id="perspective2854"
       inkscape:persp3d-origin="0.5 : 0.33333333 : 1"
       inkscape:vp_z="1 : 0.5 : 1"
       inkscape:vp_y="0 : 1000 : 0"
       inkscape:vp_x="0 : 0.5 : 1"
       sodipodi:type="inkscape:persp3d" />
    <linearGradient
       y2="260.4765"
       x2="358.07056"
       y1="260.4765"
       x1="44.868057"
       gradientTransform="matrix(1.3544445,0,0,1.8513768,-45.940851,-180.28458)"
       gradientUnits="userSpaceOnUse"
       id="linearGradient2880"
       xlink:href="#linearGradient6499-1-4"
       inkscape:collect="always" />
    <linearGradient
       id="linearGradient6499-1-4">
      <stop
         id="stop6501-3-4"
         offset="0"
         style="stop-color:#ffffff;stop-opacity:1;" />
      <stop
         id="stop6503-0-4"
         offset="1"
         style="stop-color:white;stop-opacity:0;" />
    </linearGradient>
    <linearGradient
       y2="260.4765"
       x2="358.07056"
       y1="260.4765"
       x1="44.868057"
       gradientTransform="matrix(1.3544445,0,0,1.8513768,-45.940837,-180.2845)"
       gradientUnits="userSpaceOnUse"
       id="linearGradient2863"
       xlink:href="#linearGradient6499-1-4"
       inkscape:collect="always" />
    <inkscape:perspective
       id="perspective4038"
       inkscape:persp3d-origin="0.5 : 0.33333333 : 1"
       inkscape:vp_z="1 : 0.5 : 1"
       inkscape:vp_y="0 : 1000 : 0"
       inkscape:vp_x="0 : 0.5 : 1"
       sodipodi:type="inkscape:persp3d" />
  </defs>
  <text
     xml:space="preserve"
     style="font-style:normal;font-weight:normal;line-height:0%;font-family:Goblin;fill:#000000;fill-opacity:1;stroke:none;stroke-width:1px;stroke-linecap:butt;stroke-linejoin:miter;stroke-opacity:1"
     x="266.96185"
     y="759.88806"
     id="text2508"><tspan
       sodipodi:role="line"
       id="tspan2510"
       x="266.96185"
       y="759.88806"
       style="font-size:24.89476013px;line-height:1.25"> </tspan></text>
  <g
     id="g3955"
     transform="translate(-24.96631,-76.016045)" />
  <g
     transform="matrix(0.86219306,0,0,0.86219306,464.99509,296.67811)"
     id="g26"
     style="fill:#ffffff">
    <g
       id="g24"
       style="fill:#ffffff">
      <g
         id="g22"
         style="fill:#ffffff">
        <path
           style="fill:#ffffff"
           inkscape:connector-curvature="0"
           d="m 39.3,21 c -0.7,0.3 -1.9,1.1 -2.5,1.7 -2.6,2.4 -2.7,3.1 -2.7,17.2 V 53 H 47.5 60.9 L 60.7,39.4 C 60.5,26.6 60.5,25.7 59.4,24.3 56.9,20.9 56.1,20.7 48,20.6 43.9,20.5 40.1,20.7 39.3,21 Z"
           id="path4" />
        <path
           style="fill:#ffffff"
           inkscape:connector-curvature="0"
           d="m 119.1,21.6 c -1.4,0.7 -2.8,1.9 -3.4,3 -1,1.8 -1,2.7 -1.2,63.3 l -0.1,61.5 H 128 141.6 L 141.5,88 c -0.2,-60.6 -0.2,-61.5 -1.2,-63.3 -0.6,-1.1 -2,-2.3 -3.4,-3 -2,-1 -3.1,-1.2 -8.9,-1.2 -5.8,0 -6.9,0.1 -8.9,1.1 z"
           id="path6" />
        <path
           style="fill:#ffffff"
           inkscape:connector-curvature="0"
           d="m 200.1,21.2 c -1.9,0.9 -3.7,2.7 -4.4,4.7 -0.4,0.9 -0.6,6.5 -0.6,14.3 V 53 h 13.4 13.4 V 39.7 c 0,-12.9 -0.1,-13.3 -1.2,-15 -2.5,-3.6 -3.4,-3.9 -11.6,-4 -5.4,-0.2 -7.8,0 -9,0.5 z"
           id="path8" />
        <path
           style="fill:#ffffff"
           inkscape:connector-curvature="0"
           d="m 14.2,59.2 c -1,0.5 -2.4,1.7 -3,2.7 -1.2,1.7 -1.2,1.8 -1,18 0.2,18.4 0.1,18 4.4,20.2 2.1,1 2.9,1 33.7,0.9 31.1,-0.2 31.5,-0.2 33,-1.3 0.8,-0.6 2,-1.9 2.7,-2.8 1.2,-1.7 1.2,-2 1.2,-17.3 C 85.2,64.5 85.1,64 84,62 81.6,57.9 83.2,58 47.7,58 17.8,58.2 15.9,58.3 14.2,59.2 Z"
           id="path10" />
        <path
           style="fill:#ffffff"
           inkscape:connector-curvature="0"
           d="m 175.3,59.1 c -0.9,0.5 -2.3,1.6 -2.9,2.5 -1.1,1.6 -1.2,2 -1.3,17.6 -0.2,16 -0.2,16.1 1,17.8 0.7,0.9 1.9,2.3 2.7,2.8 1.5,1.1 1.9,1.1 33,1.3 30.8,0.1 31.6,0.1 33.7,-0.9 4.3,-2.2 4.2,-1.8 4.4,-20.2 0.2,-16.3 0.2,-16.3 -1,-18 -0.7,-1 -2,-2.2 -3,-2.7 -1.7,-0.9 -3.7,-1 -33.3,-1 -28,-0.1 -31.8,0 -33.3,0.8 z"
           id="path12" />
        <path
           style="fill:#ffffff"
           inkscape:connector-curvature="0"
           d="m 34.1,168.1 v 61.5 l 1.2,1.7 c 2.5,3.7 3.2,3.9 12.2,3.9 8.8,0 9.5,-0.2 12,-3.6 1.1,-1.4 1.1,-1.7 1.3,-63.3 l 0.1,-61.8 H 47.5 34.1 Z"
           id="path14" />
        <path
           style="fill:#ffffff"
           inkscape:connector-curvature="0"
           d="m 195.3,168.3 c 0.2,61.6 0.2,61.9 1.3,63.3 2.5,3.4 3.2,3.6 12,3.6 9,0 9.7,-0.3 12.2,-3.9 l 1.2,-1.7 v -61.5 -61.6 h -13.4 -13.4 z"
           id="path16" />
        <path
           style="fill:#ffffff"
           inkscape:connector-curvature="0"
           d="m 96.3,155.1 c -2,0.5 -4.4,2.8 -5.2,5 -0.7,1.9 -0.8,4.3 -0.7,17.3 0.2,14.3 0.2,15.1 1.3,16.5 0.6,0.8 1.9,2 2.8,2.6 l 1.7,1.2 h 31.8 31.8 l 1.7,-1.2 c 0.9,-0.6 2.3,-1.8 2.8,-2.6 1.1,-1.4 1.1,-2.2 1.3,-16.5 0.2,-17 -0.1,-18.4 -3.5,-21 l -1.8,-1.4 -31.5,-0.1 c -17.3,0 -32,0.1 -32.5,0.2 z"
           id="path18" />
        <path
           style="fill:#ffffff"
           inkscape:connector-curvature="0"
           d="m 114.6,203.8 c -0.2,0.4 -0.2,6.3 -0.1,13.2 0.2,14.4 0.4,15.3 4.6,17.4 2,1.1 3.1,1.2 8.9,1.2 5.8,0 6.9,-0.2 8.9,-1.2 4.3,-2.2 4.5,-2.8 4.5,-17.9 v -13.1 l -13.3,-0.2 c -11,-0.2 -13.3,-0.1 -13.5,0.6 z"
           id="path20" />
      </g>
    </g>
  </g>
</svg>
