<?xml version="1.0" encoding="UTF-8" standalone="no"?>
<!-- Created with Inkscape (http://www.inkscape.org/) -->

<svg
   xmlns:dc="http://purl.org/dc/elements/1.1/"
   xmlns:cc="http://creativecommons.org/ns#"
   xmlns:rdf="http://www.w3.org/1999/02/22-rdf-syntax-ns#"
   xmlns:svg="http://www.w3.org/2000/svg"
   xmlns="http://www.w3.org/2000/svg"
   xmlns:xlink="http://www.w3.org/1999/xlink"
   xmlns:sodipodi="http://sodipodi.sourceforge.net/DTD/sodipodi-0.dtd"
   xmlns:inkscape="http://www.inkscape.org/namespaces/inkscape"
   width="128"
   height="64"
   id="svg1901"
   sodipodi:version="0.32"
   inkscape:version="0.92.4 (5da689c313, 2019-01-14)"
   sodipodi:docname="notebargold.svg"
   inkscape:export-filename="notebar.png"
   inkscape:export-xdpi="90"
   inkscape:export-ydpi="90"
   version="1.0"
   inkscape:output_extension="org.inkscape.output.svg.inkscape">
  <defs
     id="defs1903">
    <linearGradient
       id="linearGradient3207">
      <stop
         style="stop-color:#f7f4c1;stop-opacity:0.78431374"
         offset="0"
         id="stop3209" />
      <stop
         id="stop3211"
         offset="0.44999999"
         style="stop-color:#e4d91c;stop-opacity:0.78431374" />
      <stop
         style="stop-color:#cd8800;stop-opacity:0.78431374"
         offset="1"
         id="stop3213" />
    </linearGradient>
    <filter
       inkscape:collect="always"
       id="filter3314">
      <feGaussianBlur
         inkscape:collect="always"
         stdDeviation="0.2676702"
         id="feGaussianBlur3316" />
    </filter>
    <linearGradient
       gradientTransform="matrix(1.0432362,0,0,1.0929825,-13.835593,-50.244212)"
       gradientUnits="userSpaceOnUse"
       y2="555.01825"
       x2="319.99997"
       y1="525.70605"
       x1="319.99997"
       id="linearGradient2394"
       xlink:href="#linearGradient2388"
       inkscape:collect="always" />
    <linearGradient
       id="linearGradient2388">
      <stop
         id="stop2390"
         offset="0"
         style="stop-color:#84c0d8;stop-opacity:1;" />
      <stop
         id="stop2392"
         offset="1"
         style="stop-color:#449ec4;stop-opacity:1;" />
    </linearGradient>
    <inkscape:perspective
       id="perspective3325"
       inkscape:persp3d-origin="64 : 21.333333 : 1"
       inkscape:vp_z="128 : 32 : 1"
       inkscape:vp_y="0 : 1000 : 0"
       inkscape:vp_x="0 : 32 : 1"
       sodipodi:type="inkscape:persp3d" />
    <linearGradient
       inkscape:collect="always"
       xlink:href="#linearGradient2388"
       id="linearGradient3341"
       gradientUnits="userSpaceOnUse"
       gradientTransform="matrix(1.0432362,0,0,1.0929825,27.678613,-33.716309)"
       x1="319.99997"
       y1="525.70605"
       x2="319.99997"
       y2="555.01825" />
    <linearGradient
       inkscape:collect="always"
       xlink:href="#linearGradient3207"
       id="linearGradient2394-1"
       x1="319.99997"
       y1="540.94647"
       x2="319.99997"
       y2="551.60919"
       gradientUnits="userSpaceOnUse"
       gradientTransform="matrix(1.0432362,0,0,1.0929825,-13.417271,-49.935483)" />
    <linearGradient
       id="linearGradient2388-4">
      <stop
         style="stop-color:#ffffff;stop-opacity:0.78504676"
         offset="0"
         id="stop2390-6" />
      <stop
         style="stop-color:#bebebe;stop-opacity:0.78431374"
         offset="1"
         id="stop2392-5" />
    </linearGradient>
  </defs>
  <sodipodi:namedview
     id="base"
     pagecolor="#ffffff"
     bordercolor="#666666"
     borderopacity="1.0"
     inkscape:pageopacity="0.0"
     inkscape:pageshadow="2"
     inkscape:zoom="9.125"
     inkscape:cx="52.308373"
     inkscape:cy="32.064425"
     inkscape:document-units="px"
     inkscape:current-layer="layer1"
     gridtolerance="10000"
     inkscape:window-width="1920"
     inkscape:window-height="1017"
     inkscape:window-x="-8"
     inkscape:window-y="-8"
     showgrid="false"
     inkscape:snap-global="false"
     inkscape:window-maximized="1">
    <inkscape:grid
       type="xygrid"
       id="grid3154"
       visible="true"
       enabled="true" />
  </sodipodi:namedview>
  <metadata
     id="metadata1906">
    <rdf:RDF>
      <cc:Work
         rdf:about="">
        <dc:format>image/svg+xml</dc:format>
        <dc:type
           rdf:resource="http://purl.org/dc/dcmitype/StillImage" />
        <dc:title />
      </cc:Work>
    </rdf:RDF>
  </metadata>
  <g
     inkscape:label="Taso 1"
     inkscape:groupmode="layer"
     id="layer1"
     style="opacity:1"
     transform="translate(-255.99998,-508.36216)">
    <rect
       style="opacity:1;fill:url(#linearGradient2394-1);fill-opacity:1;stroke:#cb7722;stroke-width:1;stroke-miterlimit:4;stroke-dasharray:none;stroke-opacity:0.62700963"
       id="rect2382"
       width="62"
       height="30"
       x="289.21915"
       y="525.47174"
       rx="12"
       ry="12" />
    <rect
       ry="10.974788"
       rx="11.419086"
       y="526.75323"
       x="290.71985"
       height="27.436968"
       width="58.998611"
       id="rect867"
       style="opacity:1;fill:none;fill-opacity:1;stroke:#ffffff;stroke-width:0.93289441;stroke-miterlimit:4;stroke-dasharray:none;stroke-opacity:0.50980395" />
  </g>
  <g
     inkscape:groupmode="layer"
     id="layer2"
     inkscape:label="stars"
     style="display:none">
    <g
       id="g3241"
       transform="translate(-254.43583,-507.84078)"
       style="opacity:0.66000001;filter:url(#filter3314)">
      <path
         sodipodi:type="star"
         style="opacity:1;fill:#fff49f;fill-opacity:1;fill-rule:nonzero;stroke:none;stroke-width:1.5;marker:none;marker-start:none;marker-mid:none;marker-end:none;stroke-opacity:1;visibility:visible;display:inline;overflow:visible;enable-background:accumulate"
         id="path3221"
         sodipodi:sides="5"
         sodipodi:cx="21.637474"
         sodipodi:cy="12.382892"
         sodipodi:r1="14.288825"
         sodipodi:r2="7.1444125"
         sodipodi:arg1="0.76604574"
         sodipodi:arg2="1.3943643"
         inkscape:flatsided="false"
         inkscape:rounded="0.25"
         inkscape:randomized="0.1"
         d="M 31.160812,22.085001 C 29.756913,23.955488 25.54813,19.829732 23.293627,20.053134 C 21.039124,20.276535 17.245375,25.474203 14.971975,24.782986 C 12.698575,24.091769 15.245115,18.647267 14.313005,16.532585 C 13.380895,14.417902 6.9803643,12.208497 6.9519812,9.7565543 C 6.9235982,7.3046114 14.655317,7.8280513 16.440248,6.299865 C 18.225179,4.7716787 18.354583,-1.2069278 20.54349,-1.8373023 C 22.732398,-2.4676768 22.903473,5.8960807 24.965768,7.0572723 C 27.028062,8.2184639 33.821244,4.297162 34.602091,6.4464993 C 35.382938,8.5958367 28.742383,9.9662008 28.138106,12.336218 C 27.533828,14.706235 32.564711,20.214514 31.160812,22.085001 z"
         transform="matrix(0.2517608,-0.3589923,0.3352142,0.2696192,284.77989,529.17981)" />
      <path
         sodipodi:type="star"
         style="opacity:1;fill:#fff49f;fill-opacity:1;fill-rule:nonzero;stroke:none;stroke-width:1.5;marker:none;marker-start:none;marker-mid:none;marker-end:none;stroke-opacity:1;visibility:visible;display:inline;overflow:visible;enable-background:accumulate"
         id="path3223"
         sodipodi:sides="5"
         sodipodi:cx="21.637474"
         sodipodi:cy="12.382892"
         sodipodi:r1="14.288825"
         sodipodi:r2="7.1444125"
         sodipodi:arg1="0.76604574"
         sodipodi:arg2="1.3943643"
         inkscape:flatsided="false"
         inkscape:rounded="0.25"
         inkscape:randomized="0.1"
         d="M 31.160812,22.085001 C 29.756913,23.955488 25.54813,19.829732 23.293627,20.053134 C 21.039124,20.276535 17.245375,25.474203 14.971975,24.782986 C 12.698575,24.091769 15.245115,18.647267 14.313005,16.532585 C 13.380895,14.417902 6.9803643,12.208497 6.9519812,9.7565543 C 6.9235982,7.3046114 14.655317,7.8280513 16.440248,6.299865 C 18.225179,4.7716787 18.354583,-1.2069278 20.54349,-1.8373023 C 22.732398,-2.4676768 22.903473,5.8960807 24.965768,7.0572723 C 27.028062,8.2184639 33.821244,4.297162 34.602091,6.4464993 C 35.382938,8.5958367 28.742383,9.9662008 28.138106,12.336218 C 27.533828,14.706235 32.564711,20.214514 31.160812,22.085001 z"
         transform="matrix(-0.4226537,0.1006544,-0.1006544,-0.4226537,343.62899,527.82816)" />
      <path
         sodipodi:type="star"
         style="opacity:1;fill:#fff49f;fill-opacity:1;fill-rule:nonzero;stroke:none;stroke-width:1.5;marker:none;marker-start:none;marker-mid:none;marker-end:none;stroke-opacity:1;visibility:visible;display:inline;overflow:visible;enable-background:accumulate"
         id="path3225"
         sodipodi:sides="5"
         sodipodi:cx="21.637474"
         sodipodi:cy="12.382892"
         sodipodi:r1="14.288825"
         sodipodi:r2="7.1444125"
         sodipodi:arg1="0.76604574"
         sodipodi:arg2="1.3943643"
         inkscape:flatsided="false"
         inkscape:rounded="0.25"
         inkscape:randomized="0.1"
         d="M 31.160812,22.085001 C 29.756913,23.955488 25.54813,19.829732 23.293627,20.053134 C 21.039124,20.276535 17.245375,25.474203 14.971975,24.782986 C 12.698575,24.091769 15.245115,18.647267 14.313005,16.532585 C 13.380895,14.417902 6.9803643,12.208497 6.9519812,9.7565543 C 6.9235982,7.3046114 14.655317,7.8280513 16.440248,6.299865 C 18.225179,4.7716787 18.354583,-1.2069278 20.54349,-1.8373023 C 22.732398,-2.4676768 22.903473,5.8960807 24.965768,7.0572723 C 27.028062,8.2184639 33.821244,4.297162 34.602091,6.4464993 C 35.382938,8.5958367 28.742383,9.9662008 28.138106,12.336218 C 27.533828,14.706235 32.564711,20.214514 31.160812,22.085001 z"
         transform="matrix(6.0995116e-2,-0.4715566,0.2973004,9.6746097e-2,343.8725,559.8055)" />
      <path
         sodipodi:type="star"
         style="opacity:1;fill:#fff49f;fill-opacity:1;fill-rule:nonzero;stroke:none;stroke-width:1.5;marker:none;marker-start:none;marker-mid:none;marker-end:none;stroke-opacity:1;visibility:visible;display:inline;overflow:visible;enable-background:accumulate"
         id="path3227"
         sodipodi:sides="5"
         sodipodi:cx="21.637474"
         sodipodi:cy="12.382892"
         sodipodi:r1="14.288825"
         sodipodi:r2="7.1444125"
         sodipodi:arg1="0.76604574"
         sodipodi:arg2="1.3943643"
         inkscape:flatsided="false"
         inkscape:rounded="0.25"
         inkscape:randomized="0.1"
         d="M 31.160812,22.085001 C 29.756913,23.955488 25.54813,19.829732 23.293627,20.053134 C 21.039124,20.276535 17.245375,25.474203 14.971975,24.782986 C 12.698575,24.091769 15.245115,18.647267 14.313005,16.532585 C 13.380895,14.417902 6.9803643,12.208497 6.9519812,9.7565543 C 6.9235982,7.3046114 14.655317,7.8280513 16.440248,6.299865 C 18.225179,4.7716787 18.354583,-1.2069278 20.54349,-1.8373023 C 22.732398,-2.4676768 22.903473,5.8960807 24.965768,7.0572723 C 27.028062,8.2184639 33.821244,4.297162 34.602091,6.4464993 C 35.382938,8.5958367 28.742383,9.9662008 28.138106,12.336218 C 27.533828,14.706235 32.564711,20.214514 31.160812,22.085001 z"
         transform="matrix(-2.3552595e-2,-0.4523683,0.3372133,-3.1595577e-2,319.91763,565.39226)" />
      <path
         sodipodi:type="star"
         style="opacity:1;fill:#fff49f;fill-opacity:1;fill-rule:nonzero;stroke:none;stroke-width:1.5;marker:none;marker-start:none;marker-mid:none;marker-end:none;stroke-opacity:1;visibility:visible;display:inline;overflow:visible;enable-background:accumulate"
         id="path3229"
         sodipodi:sides="5"
         sodipodi:cx="21.637474"
         sodipodi:cy="12.382892"
         sodipodi:r1="14.288825"
         sodipodi:r2="7.1444125"
         sodipodi:arg1="0.76604574"
         sodipodi:arg2="1.3943643"
         inkscape:flatsided="false"
         inkscape:rounded="0.25"
         inkscape:randomized="0.1"
         d="M 31.160812,22.085001 C 29.756913,23.955488 25.54813,19.829732 23.293627,20.053134 C 21.039124,20.276535 17.245375,25.474203 14.971975,24.782986 C 12.698575,24.091769 15.245115,18.647267 14.313005,16.532585 C 13.380895,14.417902 6.9803643,12.208497 6.9519812,9.7565543 C 6.9235982,7.3046114 14.655317,7.8280513 16.440248,6.299865 C 18.225179,4.7716787 18.354583,-1.2069278 20.54349,-1.8373023 C 22.732398,-2.4676768 22.903473,5.8960807 24.965768,7.0572723 C 27.028062,8.2184639 33.821244,4.297162 34.602091,6.4464993 C 35.382938,8.5958367 28.742383,9.9662008 28.138106,12.336218 C 27.533828,14.706235 32.564711,20.214514 31.160812,22.085001 z"
         transform="matrix(-0.4077357,-0.170593,0.1500638,-0.4635153,297.97321,561.11569)" />
      <path
         sodipodi:type="star"
         style="opacity:1;fill:#fff49f;fill-opacity:1;fill-rule:nonzero;stroke:none;stroke-width:1.5;marker:none;marker-start:none;marker-mid:none;marker-end:none;stroke-opacity:1;visibility:visible;display:inline;overflow:visible;enable-background:accumulate"
         id="path3231"
         sodipodi:sides="5"
         sodipodi:cx="21.637474"
         sodipodi:cy="12.382892"
         sodipodi:r1="14.288825"
         sodipodi:r2="7.1444125"
         sodipodi:arg1="0.76604574"
         sodipodi:arg2="1.3943643"
         inkscape:flatsided="false"
         inkscape:rounded="0.25"
         inkscape:randomized="0.1"
         d="M 31.160812,22.085001 C 29.756913,23.955488 25.54813,19.829732 23.293627,20.053134 C 21.039124,20.276535 17.245375,25.474203 14.971975,24.782986 C 12.698575,24.091769 15.245115,18.647267 14.313005,16.532585 C 13.380895,14.417902 6.9803643,12.208497 6.9519812,9.7565543 C 6.9235982,7.3046114 14.655317,7.8280513 16.440248,6.299865 C 18.225179,4.7716787 18.354583,-1.2069278 20.54349,-1.8373023 C 22.732398,-2.4676768 22.903473,5.8960807 24.965768,7.0572723 C 27.028062,8.2184639 33.821244,4.297162 34.602091,6.4464993 C 35.382938,8.5958367 28.742383,9.9662008 28.138106,12.336218 C 27.533828,14.706235 32.564711,20.214514 31.160812,22.085001 z"
         transform="matrix(-0.1402938,0.4111997,-0.4111997,-0.1402938,312.90301,550.0936)" />
      <path
         transform="matrix(-0.3760896,0.1189566,-0.1233495,-0.3626959,356.26327,529.09824)"
         d="M 31.160812,22.085001 C 29.756913,23.955488 25.54813,19.829732 23.293627,20.053134 C 21.039124,20.276535 17.245375,25.474203 14.971975,24.782986 C 12.698575,24.091769 15.245115,18.647267 14.313005,16.532585 C 13.380895,14.417902 6.9803643,12.208497 6.9519812,9.7565543 C 6.9235982,7.3046114 14.655317,7.8280513 16.440248,6.299865 C 18.225179,4.7716787 18.354583,-1.2069278 20.54349,-1.8373023 C 22.732398,-2.4676768 22.903473,5.8960807 24.965768,7.0572723 C 27.028062,8.2184639 33.821244,4.297162 34.602091,6.4464993 C 35.382938,8.5958367 28.742383,9.9662008 28.138106,12.336218 C 27.533828,14.706235 32.564711,20.214514 31.160812,22.085001 z"
         inkscape:randomized="0.1"
         inkscape:rounded="0.25"
         inkscape:flatsided="false"
         sodipodi:arg2="1.3943643"
         sodipodi:arg1="0.76604574"
         sodipodi:r2="7.1444125"
         sodipodi:r1="14.288825"
         sodipodi:cy="12.382892"
         sodipodi:cx="21.637474"
         sodipodi:sides="5"
         id="path3318"
         style="opacity:1;fill:#fff49f;fill-opacity:1;fill-rule:nonzero;stroke:none;stroke-width:1.5;marker:none;marker-start:none;marker-mid:none;marker-end:none;stroke-opacity:1;visibility:visible;display:inline;overflow:visible;enable-background:accumulate"
         sodipodi:type="star" />
      <path
         transform="matrix(-0.4128364,0.1354017,-0.1354017,-0.4128364,329.3917,550.03765)"
         d="M 31.160812,22.085001 C 29.756913,23.955488 25.54813,19.829732 23.293627,20.053134 C 21.039124,20.276535 17.245375,25.474203 14.971975,24.782986 C 12.698575,24.091769 15.245115,18.647267 14.313005,16.532585 C 13.380895,14.417902 6.9803643,12.208497 6.9519812,9.7565543 C 6.9235982,7.3046114 14.655317,7.8280513 16.440248,6.299865 C 18.225179,4.7716787 18.354583,-1.2069278 20.54349,-1.8373023 C 22.732398,-2.4676768 22.903473,5.8960807 24.965768,7.0572723 C 27.028062,8.2184639 33.821244,4.297162 34.602091,6.4464993 C 35.382938,8.5958367 28.742383,9.9662008 28.138106,12.336218 C 27.533828,14.706235 32.564711,20.214514 31.160812,22.085001 z"
         inkscape:randomized="0.1"
         inkscape:rounded="0.25"
         inkscape:flatsided="false"
         sodipodi:arg2="1.3943643"
         sodipodi:arg1="0.76604574"
         sodipodi:r2="7.1444125"
         sodipodi:r1="14.288825"
         sodipodi:cy="12.382892"
         sodipodi:cx="21.637474"
         sodipodi:sides="5"
         id="path3320"
         style="opacity:1;fill:#fff49f;fill-opacity:1;fill-rule:nonzero;stroke:none;stroke-width:1.5;marker:none;marker-start:none;marker-mid:none;marker-end:none;stroke-opacity:1;visibility:visible;display:inline;overflow:visible;enable-background:accumulate"
         sodipodi:type="star" />
      <path
         transform="matrix(-0.2934093,0.1234417,-9.6232117e-2,-0.3763705,308.24363,537.32112)"
         d="M 31.160812,22.085001 C 29.756913,23.955488 25.54813,19.829732 23.293627,20.053134 C 21.039124,20.276535 17.245375,25.474203 14.971975,24.782986 C 12.698575,24.091769 15.245115,18.647267 14.313005,16.532585 C 13.380895,14.417902 6.9803643,12.208497 6.9519812,9.7565543 C 6.9235982,7.3046114 14.655317,7.8280513 16.440248,6.299865 C 18.225179,4.7716787 18.354583,-1.2069278 20.54349,-1.8373023 C 22.732398,-2.4676768 22.903473,5.8960807 24.965768,7.0572723 C 27.028062,8.2184639 33.821244,4.297162 34.602091,6.4464993 C 35.382938,8.5958367 28.742383,9.9662008 28.138106,12.336218 C 27.533828,14.706235 32.564711,20.214514 31.160812,22.085001 z"
         inkscape:randomized="0.1"
         inkscape:rounded="0.25"
         inkscape:flatsided="false"
         sodipodi:arg2="1.3943643"
         sodipodi:arg1="0.76604574"
         sodipodi:r2="7.1444125"
         sodipodi:r1="14.288825"
         sodipodi:cy="12.382892"
         sodipodi:cx="21.637474"
         sodipodi:sides="5"
         id="path3322"
         style="opacity:1;fill:#fff49f;fill-opacity:1;fill-rule:nonzero;stroke:none;stroke-width:1.5;marker:none;marker-start:none;marker-mid:none;marker-end:none;stroke-opacity:1;visibility:visible;display:inline;overflow:visible;enable-background:accumulate"
         sodipodi:type="star" />
      <path
         sodipodi:type="star"
         style="opacity:1;fill:#fff49f;fill-opacity:1;fill-rule:nonzero;stroke:none;stroke-width:1.5;marker:none;marker-start:none;marker-mid:none;marker-end:none;stroke-opacity:1;visibility:visible;display:inline;overflow:visible;enable-background:accumulate"
         id="path3233"
         sodipodi:sides="5"
         sodipodi:cx="21.637474"
         sodipodi:cy="12.382892"
         sodipodi:r1="14.288825"
         sodipodi:r2="7.1444125"
         sodipodi:arg1="0.76604574"
         sodipodi:arg2="1.3943643"
         inkscape:flatsided="false"
         inkscape:rounded="0.25"
         inkscape:randomized="0.1"
         d="M 31.160812,22.085001 C 29.756913,23.955488 25.54813,19.829732 23.293627,20.053134 C 21.039124,20.276535 17.245375,25.474203 14.971975,24.782986 C 12.698575,24.091769 15.245115,18.647267 14.313005,16.532585 C 13.380895,14.417902 6.9803643,12.208497 6.9519812,9.7565543 C 6.9235982,7.3046114 14.655317,7.8280513 16.440248,6.299865 C 18.225179,4.7716787 18.354583,-1.2069278 20.54349,-1.8373023 C 22.732398,-2.4676768 22.903473,5.8960807 24.965768,7.0572723 C 27.028062,8.2184639 33.821244,4.297162 34.602091,6.4464993 C 35.382938,8.5958367 28.742383,9.9662008 28.138106,12.336218 C 27.533828,14.706235 32.564711,20.214514 31.160812,22.085001 z"
         transform="matrix(-0.2980027,0.1533418,-9.773864e-2,-0.4675352,353.52012,542.52182)" />
      <path
         sodipodi:type="star"
         style="opacity:1;fill:#fff49f;fill-opacity:1;fill-rule:nonzero;stroke:none;stroke-width:1.5;marker:none;marker-start:none;marker-mid:none;marker-end:none;stroke-opacity:1;visibility:visible;display:inline;overflow:visible;enable-background:accumulate"
         id="path3235"
         sodipodi:sides="5"
         sodipodi:cx="21.637474"
         sodipodi:cy="12.382892"
         sodipodi:r1="14.288825"
         sodipodi:r2="7.1444125"
         sodipodi:arg1="0.76604574"
         sodipodi:arg2="1.3943643"
         inkscape:flatsided="false"
         inkscape:rounded="0.25"
         inkscape:randomized="0.1"
         d="M 31.160812,22.085001 C 29.756913,23.955488 25.54813,19.829732 23.293627,20.053134 C 21.039124,20.276535 17.245375,25.474203 14.971975,24.782986 C 12.698575,24.091769 15.245115,18.647267 14.313005,16.532585 C 13.380895,14.417902 6.9803643,12.208497 6.9519812,9.7565543 C 6.9235982,7.3046114 14.655317,7.8280513 16.440248,6.299865 C 18.225179,4.7716787 18.354583,-1.2069278 20.54349,-1.8373023 C 22.732398,-2.4676768 22.903473,5.8960807 24.965768,7.0572723 C 27.028062,8.2184639 33.821244,4.297162 34.602091,6.4464993 C 35.382938,8.5958367 28.742383,9.9662008 28.138106,12.336218 C 27.533828,14.706235 32.564711,20.214514 31.160812,22.085001 z"
         transform="matrix(0.3282993,0.1583936,-0.128532,0.4045725,281.33727,530.5045)" />
      <path
         sodipodi:type="star"
         style="opacity:1;fill:#fff49f;fill-opacity:1;fill-rule:nonzero;stroke:none;stroke-width:1.5;marker:none;marker-start:none;marker-mid:none;marker-end:none;stroke-opacity:1;visibility:visible;display:inline;overflow:visible;enable-background:accumulate"
         id="path3237"
         sodipodi:sides="5"
         sodipodi:cx="21.637474"
         sodipodi:cy="12.382892"
         sodipodi:r1="14.288825"
         sodipodi:r2="7.1444125"
         sodipodi:arg1="0.76604574"
         sodipodi:arg2="1.3943643"
         inkscape:flatsided="false"
         inkscape:rounded="0.25"
         inkscape:randomized="0.1"
         d="M 31.160812,22.085001 C 29.756913,23.955488 25.54813,19.829732 23.293627,20.053134 C 21.039124,20.276535 17.245375,25.474203 14.971975,24.782986 C 12.698575,24.091769 15.245115,18.647267 14.313005,16.532585 C 13.380895,14.417902 6.9803643,12.208497 6.9519812,9.7565543 C 6.9235982,7.3046114 14.655317,7.8280513 16.440248,6.299865 C 18.225179,4.7716787 18.354583,-1.2069278 20.54349,-1.8373023 C 22.732398,-2.4676768 22.903473,5.8960807 24.965768,7.0572723 C 27.028062,8.2184639 33.821244,4.297162 34.602091,6.4464993 C 35.382938,8.5958367 28.742383,9.9662008 28.138106,12.336218 C 27.533828,14.706235 32.564711,20.214514 31.160812,22.085001 z"
         transform="matrix(-0.2767973,0.3022505,-0.4685346,-0.1785613,332.55143,518.72922)" />
      <path
         sodipodi:type="star"
         style="opacity:1;fill:#fff49f;fill-opacity:1;fill-rule:nonzero;stroke:none;stroke-width:1.5;marker:none;marker-start:none;marker-mid:none;marker-end:none;stroke-opacity:1;visibility:visible;display:inline;overflow:visible;enable-background:accumulate"
         id="path3239"
         sodipodi:sides="5"
         sodipodi:cx="21.637474"
         sodipodi:cy="12.382892"
         sodipodi:r1="14.288825"
         sodipodi:r2="7.1444125"
         sodipodi:arg1="0.76604574"
         sodipodi:arg2="1.3943643"
         inkscape:flatsided="false"
         inkscape:rounded="0.25"
         inkscape:randomized="0.1"
         d="M 31.160812,22.085001 C 29.756913,23.955488 25.54813,19.829732 23.293627,20.053134 C 21.039124,20.276535 17.245375,25.474203 14.971975,24.782986 C 12.698575,24.091769 15.245115,18.647267 14.313005,16.532585 C 13.380895,14.417902 6.9803643,12.208497 6.9519812,9.7565543 C 6.9235982,7.3046114 14.655317,7.8280513 16.440248,6.299865 C 18.225179,4.7716787 18.354583,-1.2069278 20.54349,-1.8373023 C 22.732398,-2.4676768 22.903473,5.8960807 24.965768,7.0572723 C 27.028062,8.2184639 33.821244,4.297162 34.602091,6.4464993 C 35.382938,8.5958367 28.742383,9.9662008 28.138106,12.336218 C 27.533828,14.706235 32.564711,20.214514 31.160812,22.085001 z"
         transform="matrix(0.4040586,0.1597003,-0.1597003,0.4040586,302.40603,518.8671)" />
      <path
         transform="matrix(0.4344738,0,0,0.4344738,328.72436,551.50037)"
         d="M 31.160812,22.085001 C 29.756913,23.955488 25.54813,19.829732 23.293627,20.053134 C 21.039124,20.276535 17.245375,25.474203 14.971975,24.782986 C 12.698575,24.091769 15.245115,18.647267 14.313005,16.532585 C 13.380895,14.417902 6.9803643,12.208497 6.9519812,9.7565543 C 6.9235982,7.3046114 14.655317,7.8280513 16.440248,6.299865 C 18.225179,4.7716787 18.354583,-1.2069278 20.54349,-1.8373023 C 22.732398,-2.4676768 22.903473,5.8960807 24.965768,7.0572723 C 27.028062,8.2184639 33.821244,4.297162 34.602091,6.4464993 C 35.382938,8.5958367 28.742383,9.9662008 28.138106,12.336218 C 27.533828,14.706235 32.564711,20.214514 31.160812,22.085001 z"
         inkscape:randomized="0.1"
         inkscape:rounded="0.25"
         inkscape:flatsided="false"
         sodipodi:arg2="1.3943643"
         sodipodi:arg1="0.76604574"
         sodipodi:r2="7.1444125"
         sodipodi:r1="14.288825"
         sodipodi:cy="12.382892"
         sodipodi:cx="21.637474"
         sodipodi:sides="5"
         id="path3219"
         style="opacity:1;fill:#fff49f;fill-opacity:1;fill-rule:nonzero;stroke:none;stroke-width:1.5;marker:none;marker-start:none;marker-mid:none;marker-end:none;stroke-opacity:1;visibility:visible;display:inline;overflow:visible;enable-background:accumulate"
         sodipodi:type="star" />
    </g>
  </g>
</svg>
