<?xml version="1.0" encoding="UTF-8" standalone="no"?>
<svg
   xmlns:dc="http://purl.org/dc/elements/1.1/"
   xmlns:cc="http://creativecommons.org/ns#"
   xmlns:rdf="http://www.w3.org/1999/02/22-rdf-syntax-ns#"
   xmlns:svg="http://www.w3.org/2000/svg"
   xmlns="http://www.w3.org/2000/svg"
   xmlns:sodipodi="http://sodipodi.sourceforge.net/DTD/sodipodi-0.dtd"
   xmlns:inkscape="http://www.inkscape.org/namespaces/inkscape"
   id="Layer_1"
   data-name="Layer 1"
   viewBox="0 0 122.55 122.88"
   version="1.1"
   sodipodi:docname="female-young-0.svg"
   inkscape:version="0.92.5 (2060ec1f9f, 2020-04-08)">
  <metadata
     id="metadata13">
    <rdf:RDF>
      <cc:Work
         rdf:about="">
        <dc:format>image/svg+xml</dc:format>
        <dc:type
           rdf:resource="http://purl.org/dc/dcmitype/StillImage" />
        <dc:title>lady</dc:title>
      </cc:Work>
    </rdf:RDF>
  </metadata>
  <sodipodi:namedview
     pagecolor="#ffffff"
     bordercolor="#666666"
     borderopacity="1"
     objecttolerance="10"
     gridtolerance="10"
     guidetolerance="10"
     inkscape:pageopacity="0"
     inkscape:pageshadow="2"
     inkscape:window-width="1466"
     inkscape:window-height="992"
     id="namedview11"
     showgrid="false"
     inkscape:zoom="3.8411459"
     inkscape:cx="61.275002"
     inkscape:cy="61.439999"
     inkscape:window-x="0"
     inkscape:window-y="0"
     inkscape:window-maximized="0"
     inkscape:current-layer="Layer_1" />
  <defs
     id="defs4">
    <style
       id="style2">.cls-1{fill-rule:evenodd;}</style>
  </defs>
  <title
     id="title6">lady</title>
  <path
     class="cls-1"
     d="M28,86.8c10.87,10.56,21.81,16.46,32.81,16.79s22.32-4.94,33.86-16.72c-1.67-.4-3.46-.78-5.35-1.16l-.27,0c-1.63-.33-3.93-.79-6.3-1.45a22.36,22.36,0,0,1-3.44-1.11,20.44,20.44,0,0,1-3.42-1.63,4.57,4.57,0,0,1-1.45-1.89,7.2,7.2,0,0,1-1.46-4.14c-.24-.85-.43-1.58-.56-2-7.39,4.84-15.57,5-22.92.07,0,2-1.12,7.45-3.15,8.68C43,84.16,37.8,85,34,85.64c-.91.15-1.75.29-2.49.43-1.22.24-2.39.48-3.52.73Zm28.47-21a1.27,1.27,0,1,1,.86-2.38,11.07,11.07,0,0,0,8-.1,1.27,1.27,0,0,1,1.63.74,1.26,1.26,0,0,1-.73,1.63,13.65,13.65,0,0,1-9.75.11Zm-.6-26.68c1.94.73,2.34,2.35,1.26,3-1.27.72-2.87-.34-4.12-.74-3.24-1-7.09-1.15-9.89.59a15.78,15.78,0,0,0-2.27,1.8A7.8,7.8,0,0,1,42.18,41c2.81-3.54,9.88-3.75,13.64-1.82Zm10.92,0c-1.94.73-2.35,2.35-1.27,3,1.28.72,2.88-.34,4.12-.74,3.24-1,7.09-1.15,9.89.59a15.83,15.83,0,0,1,2.28,1.8A8.14,8.14,0,0,0,80.38,41c-2.82-3.54-9.89-3.75-13.64-1.82Zm-21.48,7a.83.83,0,0,1-.55-.58.94.94,0,0,1,.5-1.15,13.36,13.36,0,0,1,9.66,0,.93.93,0,0,1,.52,1.13.77.77,0,0,1-1,.59c-.53-.19-1.07-.35-1.59-.48a3,3,0,0,1,.07.6,2.24,2.24,0,1,1-4.47,0,2.2,2.2,0,0,1,.17-.86,11.58,11.58,0,0,0-2.41.58,1.39,1.39,0,0,1-.91.17Zm25.06-.55a2.39,2.39,0,0,0-.1.66,2.24,2.24,0,1,0,4.47,0,2.11,2.11,0,0,0-.23-1,13.68,13.68,0,0,1,3,.64.79.79,0,0,0,1-.63.94.94,0,0,0-.55-1.12A15.39,15.39,0,0,0,73,43.35a14.86,14.86,0,0,0-4.77.79.94.94,0,0,0-.55,1.13.79.79,0,0,0,1,.61,14.36,14.36,0,0,1,1.58-.43c.15,0,.11-.07.06.11ZM10.79,77.86C22,77,26.06,65.35,27.43,53.33c2.1-18.41-.81-42.09,21.35-51C66.37-4.83,89.12,4.75,91.6,30.09c-.1,17.22,4.74,46.52,20.15,47.77-1.13,3.2-6.48,5.58-12.86,6.65,7.5,2,12.87,4.56,16.62,8.69,5.12,5.65,7,14,7,28a1.67,1.67,0,0,1-1.67,1.67H1.67A1.67,1.67,0,0,1,0,121.21c0-13.6,1.81-22,6.64-27.69,3.5-4.13,8.48-6.7,15.41-8.68-5.56-1.25-10.13-3.8-11.26-7ZM76,68.06a47.45,47.45,0,0,0,8.64-13,52,52,0,0,0,0-21.23C77.8,30.71,73.32,23.72,71,13.23,68.28,33.21,43.75,32.35,37.58,36c0,9.08-1.19,15.43,2.81,23.71h0a49.78,49.78,0,0,0,2.78,5,25,25,0,0,0,2.73,3.81c8.24,8.88,22.33,7.77,30.12-.48Zm23,20C86.14,101.81,73.34,108,60.65,107.58s-25.09-7.31-37.24-19.66C16.88,89.73,12.27,92,9.18,95.67c-4.06,4.79-5.69,12.09-5.83,23.87H119.2c-.14-12.07-1.86-19.37-6.16-24.1-3.1-3.41-7.64-5.62-14-7.43Z"
     id="path8" />
  <path
     style="fill:#000080;fill-opacity:1;stroke-width:0.26033899"
     d="m 3.6664036,115.29112 c 0.4322627,-10.88289 2.950854,-17.800402 7.9382934,-21.80315 1.918487,-1.539711 5.814565,-3.497515 9.109148,-4.577404 l 2.610626,-0.855703 2.684205,2.552235 c 5.320392,5.058813 11.077549,9.276221 16.329107,11.961892 6.603308,3.37697 11.651973,4.77746 18.130168,5.02928 12.360704,0.48047 24.010444,-4.9649 36.07582,-16.862713 l 2.628166,-2.591665 2.688343,0.899575 c 10.81516,3.61898 15.28162,9.381449 16.65337,21.485623 0.20351,1.79579 0.42887,4.52447 0.50079,6.06372 l 0.13076,2.79864 H 61.32437 3.5035402 Z"
     id="path820"
     inkscape:connector-curvature="0" />
  <path
     style="fill:#ffccaa;fill-opacity:1;stroke-width:0.26033899"
     d="M 57.604222,103.22999 C 48.647788,101.99419 39.781452,97.289136 30.183977,88.679036 27.93754,86.66371 27.645663,86.890989 33.886624,85.795857 41.842583,84.399786 45.90414,83.123771 47.166282,81.6238 c 0.809196,-0.961674 1.660547,-3.226613 2.130042,-5.666771 0.202157,-1.050698 0.367559,-1.944539 0.367559,-1.986314 0,-0.04178 1.025085,0.43975 2.277966,1.070057 5.856174,2.946155 11.911766,2.940308 17.898305,-0.01728 1.288678,-0.636658 2.423868,-1.0773 2.522643,-0.979204 0.09878,0.0981 0.35738,1.034023 0.57468,2.07984 0.438817,2.111926 1.606471,4.37717 2.754006,5.342757 1.726568,1.452811 7.293524,3.157696 16.005234,4.901616 l 2.851816,0.57088 -2.070799,1.920545 c -8.476806,7.861737 -16.267611,12.321274 -24.459953,14.001134 -2.535616,0.51993 -7.933271,0.71116 -10.413559,0.36893 z"
     id="path822"
     inkscape:connector-curvature="0" />
  <path
     style="fill:#ffccaa;fill-opacity:1;stroke-width:0.26033899"
     d="M 57.169679,74.364681 C 52.342759,73.479073 48.029358,71.034164 45.413201,67.700909 43.729705,65.55596 41.191267,61.22662 40.00842,58.482985 37.953391,53.716301 37.377823,49.520884 37.622222,41.089551 l 0.147012,-5.071652 1.065969,-0.466331 c 0.586282,-0.256482 3.701901,-1.112228 6.923595,-1.901657 9.043483,-2.215973 13.205202,-3.81575 17.081341,-6.566116 3.664987,-2.600541 6.911841,-7.266149 7.69488,-11.057257 0.176273,-0.85343 0.38971,-1.551691 0.474304,-1.551691 0.0846,0 0.363324,0.79078 0.619399,1.757288 2.108693,7.958876 6.671251,14.561543 11.787977,17.058873 1.001607,0.488856 1.100486,0.63341 1.357813,1.985037 0.948925,4.984258 1.01609,12.496147 0.156191,17.468632 -0.326918,1.890449 -0.695413,2.980824 -1.563857,4.627442 -2.530403,4.797789 -6.567545,10.11369 -9.435455,12.424128 -1.859078,1.497704 -6.151419,3.629493 -8.38683,4.165312 -2.03614,0.488057 -6.690791,0.712105 -8.374882,0.403122 z m 6.914581,-7.950799 c 2.310542,-0.489505 3.022335,-0.952409 3.022335,-1.965534 0,-1.188166 -0.871951,-1.479306 -2.805562,-0.936762 -1.933616,0.542547 -4.044849,0.543778 -6.195238,0.0036 -1.595105,-0.400677 -1.716428,-0.398454 -2.2013,0.04035 -0.700646,0.634077 -0.651588,1.582687 0.107574,2.080109 0.765631,0.50166 3.532043,1.120361 5.106729,1.142104 0.644339,0.0089 1.978795,-0.154849 2.965462,-0.363883 z M 52.190022,48.163606 c 0.33328,-0.210002 0.646739,-0.751315 0.748176,-1.292023 0.170383,-0.908219 0.197767,-0.926674 1.139079,-0.767641 1.097999,0.185507 1.72262,-0.292316 1.460738,-1.117434 -0.48182,-1.518079 -6.245859,-2.087255 -9.583962,-0.946377 -1.098672,0.3755 -1.23661,0.507945 -1.23661,1.187359 0,1.012735 0.496356,1.162245 2.225488,0.67035 l 1.419257,-0.403742 v 0.778674 c 0,1.095423 0.42869,1.770672 1.387278,2.185168 0.870329,0.376333 1.495936,0.300885 2.440556,-0.294334 z m 21.258391,0.317502 c 0.94866,-0.396377 1.622211,-1.628423 1.385373,-2.534095 -0.136105,-0.520473 -0.08026,-0.541266 0.945434,-0.352057 2.078919,0.383495 2.643516,0.311433 2.737188,-0.349354 0.04679,-0.330052 -0.05008,-0.762936 -0.215258,-0.961968 -0.734278,-0.884749 -5.876471,-1.264716 -8.666333,-0.640374 -1.664035,0.372394 -2.087757,0.718366 -1.962443,1.602342 0.07671,0.541133 0.206563,0.593891 1.321678,0.536967 1.201485,-0.06133 1.23661,-0.04199 1.23661,0.680823 0,0.907196 0.843738,2.040831 1.632308,2.193151 0.319316,0.06168 0.613624,0.128097 0.65402,0.147596 0.04039,0.0195 0.459535,-0.125866 0.931423,-0.323031 z M 44.457104,41.446647 c 0.978859,-0.455366 1.642488,-0.541078 4.035254,-0.521167 2.500026,0.0208 3.17141,0.129032 5.286356,0.852165 2.137102,0.730706 2.505297,0.788895 3.124068,0.493725 0.941719,-0.449228 1.080131,-1.594696 0.293829,-2.431677 -0.317679,-0.338154 -1.351722,-0.882427 -2.297875,-1.209497 -2.486757,-0.859631 -7.277018,-0.841756 -9.499421,0.03545 -1.847591,0.729262 -3.327571,2.009339 -4.051067,3.503882 -0.803588,1.659989 -0.661378,1.816492 0.70072,0.771153 0.680136,-0.521972 1.763797,-1.194284 2.408136,-1.494031 z m 37.095805,1.309151 C 80.277,39.70212 76.914847,37.915061 72.433156,37.908445 c -4.644788,-0.0069 -8.448596,1.960004 -7.438965,3.846516 0.455052,0.85027 1.535391,0.852197 4.064946,0.0073 4.621873,-1.543834 8.171163,-1.243309 11.194576,0.947866 0.859119,0.622634 1.592861,1.102952 1.630537,1.067369 0.03768,-0.03558 -0.111428,-0.495324 -0.331341,-1.021651 z"
     id="path824"
     inkscape:connector-curvature="0" />
</svg>
