<?xml version="1.0" encoding="UTF-8" standalone="no"?>
<svg
   xmlns:dc="http://purl.org/dc/elements/1.1/"
   xmlns:cc="http://creativecommons.org/ns#"
   xmlns:rdf="http://www.w3.org/1999/02/22-rdf-syntax-ns#"
   xmlns:svg="http://www.w3.org/2000/svg"
   xmlns="http://www.w3.org/2000/svg"
   xmlns:sodipodi="http://sodipodi.sourceforge.net/DTD/sodipodi-0.dtd"
   xmlns:inkscape="http://www.inkscape.org/namespaces/inkscape"
   id="Layer_1"
   data-name="Layer 1"
   viewBox="0 0 115.65 122.88"
   version="1.1"
   sodipodi:docname="male-young-4.svg"
   inkscape:version="0.92.5 (2060ec1f9f, 2020-04-08)">
  <metadata
     id="metadata13">
    <rdf:RDF>
      <cc:Work
         rdf:about="">
        <dc:format>image/svg+xml</dc:format>
        <dc:type
           rdf:resource="http://purl.org/dc/dcmitype/StillImage" />
        <dc:title>young</dc:title>
      </cc:Work>
    </rdf:RDF>
  </metadata>
  <sodipodi:namedview
     pagecolor="#ffffff"
     bordercolor="#666666"
     borderopacity="1"
     objecttolerance="10"
     gridtolerance="10"
     guidetolerance="10"
     inkscape:pageopacity="0"
     inkscape:pageshadow="2"
     inkscape:window-width="1657"
     inkscape:window-height="1027"
     id="namedview11"
     showgrid="false"
     inkscape:zoom="5.4322006"
     inkscape:cx="56.628864"
     inkscape:cy="61.439999"
     inkscape:window-x="0"
     inkscape:window-y="0"
     inkscape:window-maximized="0"
     inkscape:current-layer="Layer_1" />
  <defs
     id="defs4">
    <style
       id="style2">.cls-1{fill-rule:evenodd;}</style>
  </defs>
  <title
     id="title6">young</title>
  <path
     class="cls-1"
     d="M 32.246198,28.979411 C 51.539772,13.965685 64.447148,17.072244 77.540799,23.228822 85.926863,32.576845 86.519277,32.908251 83.17,47.74 c 0,0.22 -1.46,0.08 -1.54,0.3 0.500912,-0.155644 1.017293,-0.256238 1.54,-0.3 0.936468,-0.08659 1.87851,0.09004 2.72,0.51 0.913122,0.484563 1.596513,1.311826 1.9,2.3 0.356342,1.314116 0.325087,2.703241 -0.09,4 l -0.06,0.17 -2,5.73 c -0.216143,0.834935 -0.675601,1.586776 -1.32,2.16 -0.815389,0.585669 -1.827294,0.829674 -2.82,0.68 l -0.58,-0.06 c -0.13,6.57 -3.34,9.59 -7.53,13.53 3.31,11.14 11.76,12.87 20,14.57 11.28,2.31 22.25,3.09 22.25,24.81 v 5.19 c 0,0.87813 -0.71187,1.59 -1.59,1.59 H 1.59 C 0.69600606,122.92028 -0.02249046,122.18371 0,121.29 V 116.6 C 0,93.91 11.69,93.71 23.57,92 32.18,90.78 40.92,89.54 44.15,78.45 L 44,78.33 42.4,77 v 0 C 38.29,73.46 34.86,70.49 34.21,63.28 H 33.8 c -0.848651,0.0012 -1.682876,-0.219455 -2.42,-0.64 -1.216775,-0.758575 -2.15389,-1.892238 -2.67,-3.23 -0.63045,-1.550849 -0.992286,-3.197708 -1.07,-4.87 v 0 -2.44 c 0,-0.94 0.07,-1.64 0.13,-2.09 0.01521,-0.135117 0.05237,-0.266848 0.11,-0.39 0.86,-2.41 2.18,-3.19 3.92,-3.14 l -1.15,-0.76 c -0.62,-7.78 -0.640874,-3.055341 0.123498,-9.471178 z M 36.62,92.23 c 6.467912,3.966953 13.956332,5.952045 21.54,5.71 7.889858,-0.137279 15.534258,-2.765916 21.84,-7.51 -4.310428,-2.38454 -7.555504,-6.3158 -9.08,-11 -1.586308,1.404373 -3.421151,2.499853 -5.41,3.23 -3.86975,1.88607 -8.308501,2.24317 -12.43,1 -1.959418,-0.409429 -3.835739,-1.146434 -5.55,-2.18 -0.28,-0.17 -0.56,-0.36 -0.84,-0.55 -2.15,6.14 -5.78,9.41 -10.08,11.32 z m 46.58,-0.34 -0.17,0.17 c -7.024271,5.694833 -15.758256,8.86442 -24.8,9 C 49.18035,101.35804 40.279285,98.704565 32.87,93.5 29.951171,94.244021 26.988744,94.805112 24,95.18 13.5,96.66 3.18,96.66 3.18,116.6 v 3.1 h 109.29 v -3.6 c 0,-19.14 -9.71,-19.67 -19.7,-21.71 -3.251488,-0.57714 -6.451669,-1.413133 -9.57,-2.5 z m -14.958612,-14.785475 0.139563,-6.726711 1.868612,-4.22175 c 4.07,-3.82 6.139562,1.653936 7.400437,-5.206064 -0.02337,-0.35405 0.07161,-0.705826 0.27,-1 0.48018,-0.72947 1.461088,-0.931027 2.19,-0.45 0.264994,0.179668 0.550309,0.327361 0.85,0.44 0.217266,0.08578 0.446807,0.136417 0.68,0.15 0.229306,0.02527 0.460694,0.02527 0.69,0 0.128635,-0.234067 0.229325,-0.482436 0.3,-0.74 l 2,-5.71 c 0.238117,-0.681134 0.283111,-1.414875 0.13,-2.12 -0.05054,-0.202324 -0.185195,-0.373374 -0.37,-0.47 -0.313607,-0.139526 -0.660133,-0.18804 -1,-0.14 -1.028257,0.128759 -2.002605,0.53301 -2.82,1.17 -0.347887,0.280412 -0.799864,0.397051 -1.24,0.32 -0.866653,-0.142637 -1.450633,-0.964701 -1.3,-1.83 1.5,-8.72 0.81,-14.4 -1,-18.27 -1.509673,-3.032725 -3.967275,-5.490327 -7,-7 -6.25,4.78 -10.64,5.33 -15,5.87 -3.63,0.45 -7.25,0.9 -12,4.21 -2.103405,1.358604 -3.710241,3.361886 -4.58,5.71 -0.781861,2.528851 -0.851066,5.22436 -0.2,7.79 0.372719,1.251568 -0.847553,2.38931 -2.07,1.93 l -0.23,-0.08 c -0.43,-0.16 -0.85,-0.32 -1.21,-0.44 -1.88,-0.66 -3.21,-1 -3.72,0.21 0,0.39 -0.07,1 -0.08,1.57 v 2.22 0 c 0.06284,1.294381 0.343436,2.568906 0.83,3.77 0.247116,0.701035 0.70461,1.308699 1.31,1.74 0.277791,0.146239 0.586107,0.225031 0.9,0.23 0.441649,-0.01053 0.879479,-0.08462 1.3,-0.22 0.1514,-0.05155 0.31007,-0.07856 0.47,-0.08 0.872719,-0.02237 1.598185,0.667267 1.62,1.54 0.538175,5.6873 3.892262,-0.03072 7.19,4.209715 l 1.4727,2.945399 0.599562,8.495323 C 48.875735,79.01085 50.995428,79.66697 53.91,80.62 c 2.037788,0.411001 2.149505,-4.972256 4.209574,-5.250854 1.388609,-0.18638 4.733556,4.929211 6.050426,4.450854 1.982299,-0.973739 2.504074,-1.159453 4.071388,-2.715475 l 0.13365,-3.969487 z M 67.75,46.74 c 2.345635,-0.0089 3.528395,2.824452 1.873134,4.486031 C 67.967873,52.88761 65.130017,51.715652 65.13,49.37 c -10e-6,-1.448613 1.171398,-2.624492 2.62,-2.63 z M 55.11,62.43 c -0.229374,-0.198341 -0.372783,-0.477989 -0.4,-0.78 -0.02993,-0.305279 0.0678,-0.609334 0.27,-0.84 0.403658,-0.501008 1.141686,-0.568924 1.63,-0.15 0.169689,0.141847 0.362495,0.253472 0.57,0.33 0.198448,0.076 0.407739,0.11988 0.62,0.13 0.218206,-0.0071 0.434037,-0.04759 0.64,-0.12 0.206657,-0.08473 0.401583,-0.195636 0.58,-0.33 v 0 c 0.4913,-0.379665 1.19361,-0.309434 1.6,0.16 v 0.05 c 0.18484,0.234955 0.270922,0.532655 0.24,0.83 -0.03235,0.305 -0.183175,0.585101 -0.42,0.78 -0.388799,0.317779 -0.828257,0.567932 -1.3,0.74 -0.45993,0.174473 -0.948096,0.262615 -1.44,0.26 -0.478654,-0.01772 -0.951349,-0.112261 -1.4,-0.28 -0.456304,-0.168036 -0.879437,-0.415146 -1.25,-0.73 z M 47.88,46.74 c 2.343243,0 3.516318,2.832874 1.859596,4.489596 C 48.082874,52.886318 45.25,51.713243 45.25,49.37 c 0,-1.452509 1.177491,-2.63 2.63,-2.63 z m 1.42,19.58 h 16 c 1.49,0 1.88,0.73 1.38,1.82 -4.29,9.68 -18.43,4.91 -18.61,-0.13 -0.116683,-0.790347 0.406573,-1.533458 1.19,-1.69 z M 73.74,45.45 c 0.37212,0.508951 0.265069,1.222627 -0.24,1.6 -0.501682,0.379063 -1.216302,0.27569 -1.59,-0.23 C 71.223589,45.791253 70.191146,45.042643 69,44.71 67.86197,44.484569 66.683413,44.585093 65.6,45 c -1.446666,0.48 -2.166666,-1.69 -0.72,-2.17 1.473378,-0.56062 3.076178,-0.688983 4.62,-0.37 1.72554,0.46307 3.229098,1.526908 4.24,3 z m -27.59,-3 c 1.543822,-0.318983 3.146622,-0.19062 4.62,0.37 1.453333,0.48 0.733333,2.66 -0.72,2.18 -1.074136,-0.423186 -2.246806,-0.530739 -3.38,-0.31 -1.198509,0.328346 -2.238655,1.077393 -2.93,2.11 -0.373698,0.50569 -1.088318,0.609063 -1.59,0.23 -0.505069,-0.377373 -0.61212,-1.091049 -0.24,-1.6 1.006399,-1.477523 2.51178,-2.542651 4.24,-3 z m 5.1,27.27 -0.72,-1.88 h 13.94 l -0.63,1.88 z"
     id="path8"
     inkscape:connector-curvature="0"
     style="fill-rule:evenodd"
     sodipodi:nodetypes="cccccccccccccccsssccscccccccccccscccccccccccccccccccccsccscccccccccccccccccccccccccccccccccccccccccccccccssssccccccccccccccccccsssscsccccccccccccccccccccccccccc" />
  <path
     style="fill:#000080;fill-opacity:1;stroke-width:0.18408746"
     d="m 3.3131965,115.71819 c 0.1575014,-5.65959 0.7524146,-8.64791 2.3912816,-12.01171 0.6095522,-1.25112 1.0794012,-1.88316 2.3441498,-3.15338 2.8853421,-2.897812 5.5109411,-3.815972 14.6340771,-5.117466 2.936195,-0.418873 6.415448,-0.998389 7.731674,-1.287814 l 2.393136,-0.526226 1.748831,1.101564 c 4.651633,2.929996 10.412815,5.083777 15.938252,5.958412 2.555231,0.40447 8.155293,0.54739 10.855271,0.27702 7.482985,-0.7493 14.712359,-3.52342 20.440246,-7.843498 l 1.49012,-1.123876 0.719972,0.255058 c 1.807171,0.64021 5.66903,1.604021 9.464125,2.361979 9.091208,1.815701 11.782978,2.909139 14.523128,5.899527 2.87691,3.13965 4.16751,7.59108 4.38323,15.11836 l 0.11212,3.91186 H 57.844849 3.2068943 Z"
     id="path820"
     inkscape:connector-curvature="0" />
  <path
     style="fill:#ffccaa;fill-opacity:1;stroke-width:0.18408746"
     d="M 51.860567,97.535117 C 47.27234,96.898566 42.256561,95.285532 38.620562,93.27724 c -1.853363,-1.023679 -1.838829,-0.93596 -0.300345,-1.812703 3.578136,-2.039088 6.41928,-5.299978 7.892227,-9.05821 l 0.518807,-1.323738 0.881512,0.5424 c 1.714825,1.055142 4.470396,2.011858 7.43619,2.581796 1.455601,0.279724 4.875145,0.219023 6.503846,-0.11545 2.122932,-0.43597 5.707556,-1.973575 7.688188,-3.297805 l 1.701346,-1.137503 0.321647,0.933957 c 1.089203,3.16269 4.128595,6.951992 7.191297,8.965601 0.661373,0.434828 1.202496,0.850606 1.202496,0.923951 0,0.200103 -2.823154,2.026984 -4.602186,2.978104 -3.722727,1.990273 -8.513176,3.516876 -12.798793,4.078671 -2.593441,0.339971 -7.941561,0.339356 -10.396227,-0.0012 z"
     id="path822"
     inkscape:connector-curvature="0" />
  <path
     style="fill:#ffccaa;fill-opacity:1;stroke-width:0.18408746"
     d="M 54.805966,80.707682 C 52.858104,80.348059 49.639692,78.771831 47.663145,77.20946 46.00234,75.896668 48.07,68.01 44.235058,65.249658 c -3.05761,-2.200829 -6.414505,0.369472 -6.70473,-2.832722 -0.13725,-1.514351 -0.233602,-1.877633 -0.602227,-2.270629 -0.42508,-0.453181 -0.488517,-0.463924 -2.023748,-0.342748 l -1.58491,0.125098 -0.64504,-0.664176 c -1.074065,-1.105928 -1.479528,-2.634032 -1.574175,-5.932716 -0.07718,-2.689725 -0.06555,-2.802554 0.32941,-3.197514 0.513881,-0.513882 1.291842,-0.434608 3.606875,0.367536 1.891924,0.655541 2.630004,0.56256 3.124456,-0.393607 0.256968,-0.496918 0.256656,-0.713388 -0.0032,-2.226154 -0.363186,-2.114298 -0.362389,-3.201708 0.0038,-5.134182 0.679081,-3.584046 -1.359038,-14.37458 2.724292,-16.724235 2.891282,-1.663719 7.280481,-4.24108 11.527007,-4.800868 6.716241,-0.885351 15.611518,1.121284 15.611518,1.121284 l 4.133279,3.102419 v 0 c 0,0 1.626473,2.544123 2.55999,3.612571 2.182441,2.49789 3.330657,5.301762 3.845219,9.38978 0.275021,2.184947 0.131749,7.278546 -0.276984,9.847359 -0.383704,2.411524 -0.365612,3.157479 0.0884,3.644809 0.682346,0.732414 1.193161,0.710168 2.793268,-0.121642 1.140155,-0.592706 1.667589,-0.761855 2.375586,-0.761855 0.822926,0 0.928661,0.04847 1.10446,0.506241 0.106926,0.278432 0.148555,0.793636 0.09251,1.144897 -0.178856,1.120963 -2.394963,7.225 -2.660005,7.326706 -0.140265,0.05382 -0.680535,-0.08926 -1.2006,-0.317972 -0.520064,-0.228711 -1.132609,-0.45806 -1.361211,-0.509667 -0.567077,-0.128016 -1.425805,0.255803 -1.664916,0.744155 -0.108273,0.221132 -0.235363,1.478968 -0.282425,2.795194 -0.0925,2.587139 -5.941027,2.41182 -7.146727,4.034368 -2.930238,3.943316 1.402994,8.788692 -2.537238,10.975604 C 64.17,79.82 65.055534,79.613129 62.122969,80.342732 60.440236,80.761384 59.546955,75.632674 58.119574,75.369146 Z m 5.706712,-7.227092 c 2.394895,-0.56328 4.802142,-2.446202 5.876789,-4.596761 0.667045,-1.334875 0.704394,-1.812753 0.178856,-2.288463 -0.369405,-0.33438 -0.789507,-0.350685 -9.036137,-0.350685 h -8.648721 l -0.444367,0.516505 c -1.271595,1.478028 0.221641,4.035083 3.248375,5.562608 2.812866,1.419589 5.956132,1.831604 8.825205,1.156796 z M 59.617549,63.108435 c 0.965951,-0.48964 1.263537,-0.831601 1.260485,-1.44845 -0.0033,-0.678992 -0.132609,-0.900725 -0.698973,-1.199113 -0.357137,-0.188155 -0.543266,-0.162957 -1.156214,0.15653 -0.915579,0.477226 -1.576904,0.480877 -2.283962,0.01261 -0.303745,-0.201162 -0.686059,-0.366295 -0.84959,-0.366962 -0.506446,-0.0021 -1.267416,0.727549 -1.267416,1.215193 0,0.881451 0.5612,1.386753 2.209049,1.989017 0.488158,0.178414 2.148551,-0.03539 2.786621,-0.358827 z M 49.40181,51.586968 c 0.795453,-0.482779 1.23637,-1.47129 1.119348,-2.50951 -0.111316,-0.987583 -0.581144,-1.680265 -1.434989,-2.115652 -1.759169,-0.897022 -3.85275,0.398004 -3.85275,2.383194 0,1.341743 0.533895,2.10279 1.793108,2.556003 0.796286,0.286598 1.549788,0.186977 2.375283,-0.314035 z m 19.881446,0 c 0.795453,-0.482779 1.23637,-1.47129 1.119347,-2.50951 -0.111316,-0.987583 -0.581144,-1.680265 -1.434987,-2.115652 -1.759171,-0.897022 -3.852752,0.398004 -3.852752,2.383194 0,1.341743 0.533896,2.10279 1.793108,2.556003 0.796286,0.286598 1.54979,0.186977 2.375284,-0.314035 z M 44.105699,46.479345 c 1.600048,-1.660084 3.118216,-2.121606 5.233737,-1.591053 1.145797,0.287355 1.281379,0.288705 1.696224,0.01688 0.592164,-0.388001 0.761248,-1.092042 0.396105,-1.649319 -0.683312,-1.04286 -4.490503,-1.353117 -6.382434,-0.520113 -1.69037,0.744258 -3.497661,2.494551 -3.497661,3.387351 0,0.470447 0.809818,1.252625 1.296887,1.252625 0.229404,0 0.753068,-0.373385 1.257142,-0.896371 z m 29.436227,0.609803 c 0.290394,-0.2034 0.409136,-0.473734 0.409136,-0.931457 0,-0.893192 -1.47557,-2.4449 -3.072547,-3.23109 -3.307322,-1.628189 -8.517649,-0.11006 -6.411865,1.868219 l 0.45631,0.428681 1.371384,-0.322956 c 2.22755,-0.524579 3.526552,-0.137272 5.164617,1.539866 0.963568,0.986549 1.404573,1.1239 2.082965,0.648737 z"
     id="path824"
     inkscape:connector-curvature="0"
     sodipodi:nodetypes="cssscscscsscscssccsssscsscccscccsssccssssccssccccccssccscsssssscssscsccsssccssscscc" />
  <path
     style="fill:#800000;fill-opacity:1;stroke-width:0.18408746"
     d="m 3.353954,117.45779 c 0,-4.67367 0.5816723,-9.04024 1.5452826,-11.60032 0.9328663,-2.4784 1.7165735,-3.70573 3.3973193,-5.32039 3.0395601,-2.920059 4.9102511,-3.556431 15.0308871,-5.113206 2.632451,-0.404929 5.836602,-0.952308 7.120337,-1.216399 l 2.334062,-0.480165 1.643501,1.016629 c 4.582677,2.834728 10.107639,4.940243 15.596184,5.943571 2.666664,0.48748 11.544734,0.49707 14.06438,0.0152 7.093186,-1.35655 12.946854,-3.876288 18.118659,-7.799257 l 1.07366,-0.814404 1.135389,0.368685 c 1.972604,0.640545 4.477134,1.254164 9.873986,2.419164 5.303622,1.144874 8.234059,1.979099 9.877459,2.811874 2.49153,1.262553 4.55102,3.406888 5.86802,6.109758 1.42416,2.92277 2.03897,6.2502 2.23644,12.10375 l 0.12265,3.63573 H 57.87306 3.353954 Z"
     id="path2555"
     inkscape:connector-curvature="0" />
  <path
     style="fill:#800080;fill-opacity:1;stroke-width:0.18408746"
     d="m 3.3577455,118.29541 c 0.00679,-2.22552 0.3536527,-6.71027 0.6579366,-8.50679 0.7236971,-4.27278 1.8066522,-6.54841 4.3073527,-9.05107 3.0273432,-3.029729 4.2673892,-3.456714 15.4598062,-5.323273 3.692904,-0.615865 7.211429,-1.235711 7.818945,-1.377435 l 1.104576,-0.25768 1.753601,1.046572 c 5.584668,3.333 12.088609,5.618286 17.401036,6.114186 2.599113,0.24262 8.084923,0.24281 10.641559,3.7e-4 6.317517,-0.59908 14.443441,-3.928792 20.079716,-8.227943 l 0.715022,-0.545392 1.671293,0.523979 c 0.919211,0.288188 3.703928,0.98315 6.18826,1.544361 11.227691,2.536337 12.556571,2.963204 14.949211,4.80203 2.66821,2.050615 4.47841,5.201275 5.29569,9.217135 0.40386,1.98446 0.66509,4.65522 0.84707,8.66029 l 0.1192,2.62325 H 57.860986 3.353954 Z"
     id="path2557"
     inkscape:connector-curvature="0" />
  <path
     style="fill:#116691;fill-opacity:1;stroke-width:0.18408746"
     d="m 3.353954,118.84453 c 0,-1.55438 0.4014305,-6.70046 0.6611962,-8.47611 0.6678394,-4.56506 1.7087818,-6.82408 4.3960923,-9.54022 3.1256135,-3.159153 3.9057285,-3.413841 17.6775125,-5.771252 2.429954,-0.415952 4.913668,-0.859021 5.519365,-0.984597 l 1.101265,-0.228321 2.21231,1.284286 c 4.228133,2.454509 9.241575,4.413401 13.733419,5.366034 2.027727,0.43004 2.830978,0.49578 7.123165,0.58305 3.215726,0.0654 5.530262,0.023 6.90328,-0.12636 6.078325,-0.66129 13.564322,-3.644094 19.05381,-7.592026 l 1.5249,-1.096679 2.43298,0.657643 c 1.338138,0.361704 4.793901,1.20577 7.679472,1.875702 9.914459,2.301804 11.236889,2.819416 13.806559,5.40404 1.84321,1.85392 2.59805,3.06526 3.42357,5.49402 0.92308,2.71575 1.25131,5.08823 1.64155,11.86532 l 0.11395,1.97894 H 57.856153 3.353954 Z"
     id="path2578"
     inkscape:connector-curvature="0" />
</svg>
