<?xml version="1.0" encoding="UTF-8" standalone="no"?>
<svg
   xmlns:dc="http://purl.org/dc/elements/1.1/"
   xmlns:cc="http://creativecommons.org/ns#"
   xmlns:rdf="http://www.w3.org/1999/02/22-rdf-syntax-ns#"
   xmlns:svg="http://www.w3.org/2000/svg"
   xmlns="http://www.w3.org/2000/svg"
   xmlns:sodipodi="http://sodipodi.sourceforge.net/DTD/sodipodi-0.dtd"
   xmlns:inkscape="http://www.inkscape.org/namespaces/inkscape"
   id="Layer_1"
   data-name="Layer 1"
   viewBox="0 0 115.65 122.88"
   version="1.1"
   sodipodi:docname="male-young-0.svg"
   inkscape:version="0.92.5 (2060ec1f9f, 2020-04-08)">
  <metadata
     id="metadata13">
    <rdf:RDF>
      <cc:Work
         rdf:about="">
        <dc:format>image/svg+xml</dc:format>
        <dc:type
           rdf:resource="http://purl.org/dc/dcmitype/StillImage" />
        <dc:title>young</dc:title>
      </cc:Work>
    </rdf:RDF>
  </metadata>
  <sodipodi:namedview
     pagecolor="#ffffff"
     bordercolor="#666666"
     borderopacity="1"
     objecttolerance="10"
     gridtolerance="10"
     guidetolerance="10"
     inkscape:pageopacity="0"
     inkscape:pageshadow="2"
     inkscape:window-width="1657"
     inkscape:window-height="1027"
     id="namedview11"
     showgrid="false"
     inkscape:zoom="5.4322006"
     inkscape:cx="57.825001"
     inkscape:cy="61.439999"
     inkscape:window-x="0"
     inkscape:window-y="0"
     inkscape:window-maximized="0"
     inkscape:current-layer="Layer_1" />
  <defs
     id="defs4">
    <style
       id="style2">.cls-1{fill-rule:evenodd;}</style>
  </defs>
  <title
     id="title6">young</title>
  <path
     class="cls-1"
     d="M23.41,21.8C39.39,2,57.82-8.7,71.65,8.87,88.32,9.75,95,36.23,81.71,47.38c0,.22,0,.44-.08.66a7.22,7.22,0,0,1,1.54-.3,5.05,5.05,0,0,1,2.72.51,3.9,3.9,0,0,1,1.9,2.3,7.06,7.06,0,0,1-.09,4l-.06.17-2,5.73a4.35,4.35,0,0,1-1.32,2.16,3.85,3.85,0,0,1-2.82.68l-.58-.06c-.13,6.57-3.34,9.59-7.53,13.53,3.31,11.14,11.76,12.87,20,14.57,11.28,2.31,22.25,3.09,22.25,24.81v5.19a1.59,1.59,0,0,1-1.59,1.59H1.59A1.59,1.59,0,0,1,0,121.29V116.6C0,93.91,11.69,93.71,23.57,92c8.61-1.22,17.35-2.46,20.58-13.55L44,78.33,42.4,77l0,0c-4.11-3.54-7.54-6.51-8.19-13.72H33.8a4.87,4.87,0,0,1-2.42-.64,6.61,6.61,0,0,1-2.67-3.23,14.75,14.75,0,0,1-1.07-4.87v0c0-.51,0-1.5,0-2.44s.07-1.64.13-2.09a1.25,1.25,0,0,1,.11-.39c.86-2.41,2.18-3.19,3.92-3.14l-1.15-.76c-.62-7.78,1.2-21.28-7.24-23.83ZM36.62,92.23a38.83,38.83,0,0,0,21.54,5.71A37.41,37.41,0,0,0,80,90.43a19.45,19.45,0,0,1-9.08-11,17,17,0,0,1-5.41,3.23,17.1,17.1,0,0,1-12.43,1,17.8,17.8,0,0,1-5.55-2.18c-.28-.17-.56-.36-.84-.55-2.15,6.14-5.78,9.41-10.08,11.32Zm46.58-.34-.17.17a40.34,40.34,0,0,1-24.8,9,41.73,41.73,0,0,1-25.36-7.56A72.38,72.38,0,0,1,24,95.18C13.5,96.66,3.18,96.66,3.18,116.6v3.1H112.47v-3.6c0-19.14-9.71-19.67-19.7-21.71a62,62,0,0,1-9.57-2.5ZM70.4,75.16l.19-.18.58-.54c4.07-3.82,7.06-6.63,6.48-13.49a1.6,1.6,0,0,1,.27-1,1.58,1.58,0,0,1,2.19-.45,4.06,4.06,0,0,0,.85.44,2.2,2.2,0,0,0,.68.15,3.15,3.15,0,0,0,.69,0,3.41,3.41,0,0,0,.3-.74l2-5.71a3.91,3.91,0,0,0,.13-2.12.73.73,0,0,0-.37-.47,1.83,1.83,0,0,0-1-.14,5.75,5.75,0,0,0-2.82,1.17,1.55,1.55,0,0,1-1.24.32,1.58,1.58,0,0,1-1.3-1.83c1.5-8.72.81-14.4-1-18.27a15.57,15.57,0,0,0-7-7c-6.25,4.78-10.64,5.33-15,5.87-3.63.45-7.25.9-12,4.21a11.59,11.59,0,0,0-4.58,5.71,14.39,14.39,0,0,0-.2,7.79,1.58,1.58,0,0,1-2.07,1.93l-.23-.08c-.43-.16-.85-.32-1.21-.44-1.88-.66-3.21-1-3.72.21,0,.39-.07,1-.08,1.57,0,.86,0,1.75,0,2.22v0a11.53,11.53,0,0,0,.83,3.77,3.61,3.61,0,0,0,1.31,1.74,2,2,0,0,0,.9.23,4.6,4.6,0,0,0,1.3-.22,1.5,1.5,0,0,1,.47-.08,1.58,1.58,0,0,1,1.62,1.54c.17,7.16,3.34,9.91,7.19,13.23l0,0L46.08,76a21.11,21.11,0,0,0,7.83,4.62,18.66,18.66,0,0,0,6.19.2,19.53,19.53,0,0,0,4.07-1A20.33,20.33,0,0,0,69.53,76l.87-.83ZM67.75,46.74a2.63,2.63,0,1,1-2.62,2.63,2.63,2.63,0,0,1,2.62-2.63ZM55.11,62.43a1.17,1.17,0,0,1-.4-.78,1.11,1.11,0,0,1,.27-.84,1.14,1.14,0,0,1,1.63-.15,1.93,1.93,0,0,0,.57.33,2,2,0,0,0,.62.13,2.14,2.14,0,0,0,.64-.12,2.61,2.61,0,0,0,.58-.33l0,0a1.17,1.17,0,0,1,1.6.16l0,.05a1.15,1.15,0,0,1,.24.83,1.17,1.17,0,0,1-.42.78,4.48,4.48,0,0,1-1.3.74,4,4,0,0,1-1.44.26,4.47,4.47,0,0,1-1.4-.28,4.14,4.14,0,0,1-1.25-.73ZM47.88,46.74a2.63,2.63,0,1,1-2.63,2.63,2.63,2.63,0,0,1,2.63-2.63ZM49.3,66.32h16c1.49,0,1.88.73,1.38,1.82-4.29,9.68-18.43,4.91-18.61-.13a1.5,1.5,0,0,1,1.19-1.69ZM73.74,45.45a1.15,1.15,0,0,1-.24,1.6,1.13,1.13,0,0,1-1.59-.23A5.17,5.17,0,0,0,69,44.71,6.16,6.16,0,0,0,65.6,45a1.14,1.14,0,1,1-.72-2.17,8.28,8.28,0,0,1,4.62-.37,7.5,7.5,0,0,1,4.24,3Zm-27.59-3a8.28,8.28,0,0,1,4.62.37A1.14,1.14,0,1,1,50.05,45a6.06,6.06,0,0,0-3.38-.31,5.17,5.17,0,0,0-2.93,2.11,1.13,1.13,0,0,1-1.59.23,1.15,1.15,0,0,1-.24-1.6,7.43,7.43,0,0,1,4.24-3Zm5.1,27.27-.72-1.88H64.47l-.63,1.88Z"
     id="path8" />
  <path
     style="fill:#000080;fill-opacity:1;stroke-width:0.18408746"
     d="m 3.3131965,115.71819 c 0.1575014,-5.65959 0.7524146,-8.64791 2.3912816,-12.01171 0.6095522,-1.25112 1.0794012,-1.88316 2.3441498,-3.15338 2.8853421,-2.897812 5.5109411,-3.815972 14.6340771,-5.117466 2.936195,-0.418873 6.415448,-0.998389 7.731674,-1.287814 l 2.393136,-0.526226 1.748831,1.101564 c 4.651633,2.929996 10.412815,5.083777 15.938252,5.958412 2.555231,0.40447 8.155293,0.54739 10.855271,0.27702 7.482985,-0.7493 14.712359,-3.52342 20.440246,-7.843498 l 1.49012,-1.123876 0.719972,0.255058 c 1.807171,0.64021 5.66903,1.604021 9.464125,2.361979 9.091208,1.815701 11.782978,2.909139 14.523128,5.899527 2.87691,3.13965 4.16751,7.59108 4.38323,15.11836 l 0.11212,3.91186 H 57.844849 3.2068943 Z"
     id="path820"
     inkscape:connector-curvature="0" />
  <path
     style="fill:#ffccaa;fill-opacity:1;stroke-width:0.18408746"
     d="M 51.860567,97.535117 C 47.27234,96.898566 42.256561,95.285532 38.620562,93.27724 c -1.853363,-1.023679 -1.838829,-0.93596 -0.300345,-1.812703 3.578136,-2.039088 6.41928,-5.299978 7.892227,-9.05821 l 0.518807,-1.323738 0.881512,0.5424 c 1.714825,1.055142 4.470396,2.011858 7.43619,2.581796 1.455601,0.279724 4.875145,0.219023 6.503846,-0.11545 2.122932,-0.43597 5.707556,-1.973575 7.688188,-3.297805 l 1.701346,-1.137503 0.321647,0.933957 c 1.089203,3.16269 4.128595,6.951992 7.191297,8.965601 0.661373,0.434828 1.202496,0.850606 1.202496,0.923951 0,0.200103 -2.823154,2.026984 -4.602186,2.978104 -3.722727,1.990273 -8.513176,3.516876 -12.798793,4.078671 -2.593441,0.339971 -7.941561,0.339356 -10.396227,-0.0012 z"
     id="path822"
     inkscape:connector-curvature="0" />
  <path
     style="fill:#ffccaa;fill-opacity:1;stroke-width:0.18408746"
     d="M 54.805966,80.707682 C 52.858104,80.348059 49.639692,78.771831 47.663145,77.20946 46.00234,75.896668 41.183024,71.278534 40.369221,70.220019 38.708598,68.060043 37.820553,65.61913 37.530328,62.416936 c -0.13725,-1.514351 -0.233602,-1.877633 -0.602227,-2.270629 -0.42508,-0.453181 -0.488517,-0.463924 -2.023748,-0.342748 l -1.58491,0.125098 -0.64504,-0.664176 c -1.074065,-1.105928 -1.479528,-2.634032 -1.574175,-5.932716 -0.07718,-2.689725 -0.06555,-2.802554 0.32941,-3.197514 0.513881,-0.513882 1.291842,-0.434608 3.606875,0.367536 1.891924,0.655541 2.630004,0.56256 3.124456,-0.393607 0.256968,-0.496918 0.256656,-0.713388 -0.0032,-2.226154 -0.363186,-2.114298 -0.362389,-3.201708 0.0038,-5.134182 0.679081,-3.584046 2.690886,-6.090644 6.774216,-8.440299 2.891282,-1.663719 5.255519,-2.400206 9.502045,-2.959994 6.716241,-0.885351 9.643701,-1.885913 13.954731,-4.769514 l 1.695537,-1.134126 0.965042,0.554795 c 1.10999,0.638125 2.730998,1.991861 3.664515,3.060309 2.182441,2.49789 3.330657,5.301762 3.845219,9.38978 0.275021,2.184947 0.131749,7.278546 -0.276984,9.847359 -0.383704,2.411524 -0.365612,3.157479 0.0884,3.644809 0.682346,0.732414 1.193161,0.710168 2.793268,-0.121642 1.140155,-0.592706 1.667589,-0.761855 2.375586,-0.761855 0.822926,0 0.928661,0.04847 1.10446,0.506241 0.106926,0.278432 0.148555,0.793636 0.09251,1.144897 -0.178856,1.120963 -2.394963,7.225 -2.660005,7.326706 -0.140265,0.05382 -0.680535,-0.08926 -1.2006,-0.317972 -0.520064,-0.228711 -1.132609,-0.45806 -1.361211,-0.509667 -0.567077,-0.128016 -1.425805,0.255803 -1.664916,0.744155 -0.108273,0.221132 -0.235363,1.478968 -0.282425,2.795194 -0.0925,2.587139 -0.34667,3.701625 -1.255928,5.507068 -0.860338,1.708306 -1.948932,2.9865 -5.114463,6.005242 -4.359042,4.156906 -6.145032,5.353799 -9.077597,6.083402 -1.682733,0.418652 -5.889588,0.628478 -7.316969,0.36495 z m 5.706712,-7.227092 c 2.394895,-0.56328 4.802142,-2.446202 5.876789,-4.596761 0.667045,-1.334875 0.704394,-1.812753 0.178856,-2.288463 -0.369405,-0.33438 -0.789507,-0.350685 -9.036137,-0.350685 h -8.648721 l -0.444367,0.516505 c -1.271595,1.478028 0.221641,4.035083 3.248375,5.562608 2.812866,1.419589 5.956132,1.831604 8.825205,1.156796 z M 59.617549,63.108435 c 0.965951,-0.48964 1.263537,-0.831601 1.260485,-1.44845 -0.0033,-0.678992 -0.132609,-0.900725 -0.698973,-1.199113 -0.357137,-0.188155 -0.543266,-0.162957 -1.156214,0.15653 -0.915579,0.477226 -1.576904,0.480877 -2.283962,0.01261 -0.303745,-0.201162 -0.686059,-0.366295 -0.84959,-0.366962 -0.506446,-0.0021 -1.267416,0.727549 -1.267416,1.215193 0,0.881451 0.5612,1.386753 2.209049,1.989017 0.488158,0.178414 2.148551,-0.03539 2.786621,-0.358827 z M 49.40181,51.586968 c 0.795453,-0.482779 1.23637,-1.47129 1.119348,-2.50951 -0.111316,-0.987583 -0.581144,-1.680265 -1.434989,-2.115652 -1.759169,-0.897022 -3.85275,0.398004 -3.85275,2.383194 0,1.341743 0.533895,2.10279 1.793108,2.556003 0.796286,0.286598 1.549788,0.186977 2.375283,-0.314035 z m 19.881446,0 c 0.795453,-0.482779 1.23637,-1.47129 1.119347,-2.50951 -0.111316,-0.987583 -0.581144,-1.680265 -1.434987,-2.115652 -1.759171,-0.897022 -3.852752,0.398004 -3.852752,2.383194 0,1.341743 0.533896,2.10279 1.793108,2.556003 0.796286,0.286598 1.54979,0.186977 2.375284,-0.314035 z M 44.105699,46.479345 c 1.600048,-1.660084 3.118216,-2.121606 5.233737,-1.591053 1.145797,0.287355 1.281379,0.288705 1.696224,0.01688 0.592164,-0.388001 0.761248,-1.092042 0.396105,-1.649319 -0.683312,-1.04286 -4.490503,-1.353117 -6.382434,-0.520113 -1.69037,0.744258 -3.497661,2.494551 -3.497661,3.387351 0,0.470447 0.809818,1.252625 1.296887,1.252625 0.229404,0 0.753068,-0.373385 1.257142,-0.896371 z m 29.436227,0.609803 c 0.290394,-0.2034 0.409136,-0.473734 0.409136,-0.931457 0,-0.893192 -1.47557,-2.4449 -3.072547,-3.23109 -3.307322,-1.628189 -8.517649,-0.11006 -6.411865,1.868219 l 0.45631,0.428681 1.371384,-0.322956 c 2.22755,-0.524579 3.526552,-0.137272 5.164617,1.539866 0.963568,0.986549 1.404573,1.1239 2.082965,0.648737 z"
     id="path824"
     inkscape:connector-curvature="0" />
</svg>
