<?xml version="1.0" encoding="UTF-8" standalone="no"?>
<svg
   xmlns:dc="http://purl.org/dc/elements/1.1/"
   xmlns:cc="http://creativecommons.org/ns#"
   xmlns:rdf="http://www.w3.org/1999/02/22-rdf-syntax-ns#"
   xmlns:svg="http://www.w3.org/2000/svg"
   xmlns="http://www.w3.org/2000/svg"
   xmlns:sodipodi="http://sodipodi.sourceforge.net/DTD/sodipodi-0.dtd"
   xmlns:inkscape="http://www.inkscape.org/namespaces/inkscape"
   id="Layer_1"
   data-name="Layer 1"
   viewBox="0 0 115.65 122.88"
   version="1.1"
   sodipodi:docname="male-young-2.svg"
   inkscape:version="0.92.5 (2060ec1f9f, 2020-04-08)">
  <metadata
     id="metadata13">
    <rdf:RDF>
      <cc:Work
         rdf:about="">
        <dc:format>image/svg+xml</dc:format>
        <dc:type
           rdf:resource="http://purl.org/dc/dcmitype/StillImage" />
        <dc:title>young</dc:title>
      </cc:Work>
    </rdf:RDF>
  </metadata>
  <sodipodi:namedview
     pagecolor="#ffffff"
     bordercolor="#666666"
     borderopacity="1"
     objecttolerance="10"
     gridtolerance="10"
     guidetolerance="10"
     inkscape:pageopacity="0"
     inkscape:pageshadow="2"
     inkscape:window-width="1657"
     inkscape:window-height="1027"
     id="namedview11"
     showgrid="false"
     inkscape:zoom="5.4322006"
     inkscape:cx="53.130771"
     inkscape:cy="61.439999"
     inkscape:window-x="0"
     inkscape:window-y="0"
     inkscape:window-maximized="0"
     inkscape:current-layer="Layer_1" />
  <defs
     id="defs4">
    <style
       id="style2">.cls-1{fill-rule:evenodd;}</style>
  </defs>
  <title
     id="title6">young</title>
  <path
     class="cls-1"
     d="M 36.296122,22.53635 C 65.898594,13.413422 48.063365,17.992681 77.356711,21.940209 91.633574,47.672016 83.757966,31.803726 83.17,47.74 c 0,0.22 -1.46,0.08 -1.54,0.3 0.500912,-0.155644 1.017293,-0.256238 1.54,-0.3 0.936468,-0.08659 1.87851,0.09004 2.72,0.51 0.913122,0.484563 1.596513,1.311826 1.9,2.3 0.356342,1.314116 0.325087,2.703241 -0.09,4 l -0.06,0.17 -2,5.73 c -0.216143,0.834935 -0.675601,1.586776 -1.32,2.16 -0.815389,0.585669 -1.827294,0.829674 -2.82,0.68 l -0.58,-0.06 c -0.13,6.57 -3.34,9.59 -7.53,13.53 3.31,11.14 11.76,12.87 20,14.57 11.28,2.31 22.25,3.09 22.25,24.81 v 5.19 c 0,0.87813 -0.71187,1.59 -1.59,1.59 H 1.59 C 0.69600606,122.92028 -0.02249046,122.18371 0,121.29 V 116.6 C 0,93.91 11.69,93.71 23.57,92 32.18,90.78 40.92,89.54 44.15,78.45 L 44,78.33 42.4,77 v 0 C 38.29,73.46 34.86,70.49 34.21,63.28 H 33.8 c -0.848651,0.0012 -1.682876,-0.219455 -2.42,-0.64 -1.216775,-0.758575 -2.15389,-1.892238 -2.67,-3.23 -0.63045,-1.550849 -0.992286,-3.197708 -1.07,-4.87 v 0 -2.44 c 0,-0.94 0.07,-1.64 0.13,-2.09 0.01521,-0.135117 0.05237,-0.266848 0.11,-0.39 0.86,-2.41 2.18,-3.19 3.92,-3.14 L 30.65,45.72 C 30.03,37.94 23.566065,43.679183 36.296122,22.53635 Z M 36.62,92.23 c 6.467912,3.966953 13.956332,5.952045 21.54,5.71 7.889858,-0.137279 15.534258,-2.765916 21.84,-7.51 -4.310428,-2.38454 -7.555504,-6.3158 -9.08,-11 -1.586308,1.404373 -3.421151,2.499853 -5.41,3.23 -3.86975,1.88607 -8.308501,2.24317 -12.43,1 -1.959418,-0.409429 -3.835739,-1.146434 -5.55,-2.18 -0.28,-0.17 -0.56,-0.36 -0.84,-0.55 -2.15,6.14 -5.78,9.41 -10.08,11.32 z m 46.58,-0.34 -0.17,0.17 c -7.024271,5.694833 -15.758256,8.86442 -24.8,9 C 49.18035,101.35804 40.279285,98.704565 32.87,93.5 29.951171,94.244021 26.988744,94.805112 24,95.18 13.5,96.66 3.18,96.66 3.18,116.6 v 3.1 h 109.29 v -3.6 c 0,-19.14 -9.71,-19.67 -19.7,-21.71 -3.251488,-0.57714 -6.451669,-1.413133 -9.57,-2.5 z m -12.8,-16.73 0.19,-0.18 0.58,-0.54 c 4.07,-3.82 7.06,-6.63 6.48,-13.49 -0.02337,-0.35405 0.07161,-0.705826 0.27,-1 0.48018,-0.72947 1.461088,-0.931027 2.19,-0.45 0.264994,0.179668 0.550309,0.327361 0.85,0.44 0.217266,0.08578 0.446807,0.136417 0.68,0.15 0.229306,0.02527 0.460694,0.02527 0.69,0 0.128635,-0.234067 0.229325,-0.482436 0.3,-0.74 l 2,-5.71 c 0.238117,-0.681134 0.283111,-1.414875 0.13,-2.12 -0.05054,-0.202324 -0.185195,-0.373374 -0.37,-0.47 -0.313607,-0.139526 -0.660133,-0.18804 -1,-0.14 -1.028257,0.128759 -2.002605,0.53301 -2.82,1.17 -0.347887,0.280412 -0.799864,0.397051 -1.24,0.32 -0.866653,-0.142637 -1.450633,-0.964701 -1.3,-1.83 C 79.53,41.85 77.551388,38.931312 74.268688,35.613574 69.719923,32.623322 70.853675,33.436821 67.820951,31.927148 60.282338,30.81635 52.210589,37.625323 47.850589,38.165323 44.220589,38.615323 47.78,32.07 43.03,35.38 c -2.103405,1.358604 -3.710241,3.361886 -4.58,5.71 -0.781861,2.528851 -0.851066,5.22436 -0.2,7.79 0.372719,1.251568 -0.847553,2.38931 -2.07,1.93 l -0.23,-0.08 c -0.43,-0.16 -0.85,-0.32 -1.21,-0.44 -1.88,-0.66 -3.21,-1 -3.72,0.21 0,0.39 -0.07,1 -0.08,1.57 v 2.22 0 c 0.06284,1.294381 0.343436,2.568906 0.83,3.77 0.247116,0.701035 0.70461,1.308699 1.31,1.74 0.277791,0.146239 0.586107,0.225031 0.9,0.23 0.441649,-0.01053 0.879479,-0.08462 1.3,-0.22 0.1514,-0.05155 0.31007,-0.07856 0.47,-0.08 0.872719,-0.02237 1.598185,0.667267 1.62,1.54 0.17,7.16 3.34,9.91 7.19,13.23 v 0 l 1.52,1.5 c 2.243472,2.090413 4.915428,3.66697 7.83,4.62 2.037788,0.411001 4.129931,0.478598 6.19,0.2 1.388609,-0.18638 2.75313,-0.521643 4.07,-1 1.982299,-0.973739 3.792686,-2.263978 5.36,-3.82 L 70.4,75.17 Z M 67.75,46.74 c 2.345635,-0.0089 3.528395,2.824452 1.873134,4.486031 C 67.967873,52.88761 65.130017,51.715652 65.13,49.37 c -10e-6,-1.448613 1.171398,-2.624492 2.62,-2.63 z M 55.11,62.43 c -0.229374,-0.198341 -0.372783,-0.477989 -0.4,-0.78 -0.02993,-0.305279 0.0678,-0.609334 0.27,-0.84 0.403658,-0.501008 1.141686,-0.568924 1.63,-0.15 0.169689,0.141847 0.362495,0.253472 0.57,0.33 0.198448,0.076 0.407739,0.11988 0.62,0.13 0.218206,-0.0071 0.434037,-0.04759 0.64,-0.12 0.206657,-0.08473 0.401583,-0.195636 0.58,-0.33 v 0 c 0.4913,-0.379665 1.19361,-0.309434 1.6,0.16 v 0.05 c 0.18484,0.234955 0.270922,0.532655 0.24,0.83 -0.03235,0.305 -0.183175,0.585101 -0.42,0.78 -0.388799,0.317779 -0.828257,0.567932 -1.3,0.74 -0.45993,0.174473 -0.948096,0.262615 -1.44,0.26 -0.478654,-0.01772 -0.951349,-0.112261 -1.4,-0.28 -0.456304,-0.168036 -0.879437,-0.415146 -1.25,-0.73 z M 47.88,46.74 c 2.343243,0 3.516318,2.832874 1.859596,4.489596 C 48.082874,52.886318 45.25,51.713243 45.25,49.37 c 0,-1.452509 1.177491,-2.63 2.63,-2.63 z m 1.42,19.58 h 16 c 1.49,0 1.88,0.73 1.38,1.82 -4.29,9.68 -18.43,4.91 -18.61,-0.13 -0.116683,-0.790347 0.406573,-1.533458 1.19,-1.69 z M 73.74,45.45 c 0.37212,0.508951 0.265069,1.222627 -0.24,1.6 -0.501682,0.379063 -1.216302,0.27569 -1.59,-0.23 C 71.223589,45.791253 70.191146,45.042643 69,44.71 67.86197,44.484569 66.683413,44.585093 65.6,45 c -1.446666,0.48 -2.166666,-1.69 -0.72,-2.17 1.473378,-0.56062 3.076178,-0.688983 4.62,-0.37 1.72554,0.46307 3.229098,1.526908 4.24,3 z m -27.59,-3 c 1.543822,-0.318983 3.146622,-0.19062 4.62,0.37 1.453333,0.48 0.733333,2.66 -0.72,2.18 -1.074136,-0.423186 -2.246806,-0.530739 -3.38,-0.31 -1.198509,0.328346 -2.238655,1.077393 -2.93,2.11 -0.373698,0.50569 -1.088318,0.609063 -1.59,0.23 -0.505069,-0.377373 -0.61212,-1.091049 -0.24,-1.6 1.006399,-1.477523 2.51178,-2.542651 4.24,-3 z m 5.1,27.27 -0.72,-1.88 h 13.94 l -0.63,1.88 z"
     id="path8"
     inkscape:connector-curvature="0"
     style="fill-rule:evenodd"
     sodipodi:nodetypes="cccccccccccccccsssccscccccccccccscccccccccccccccccccccsccsccccccccccccccccccccccccccccccccccccccccccccccssssccccccccccccccccccssssccscccccccccccccccccccccccccc" />
  <path
     style="fill:#000080;fill-opacity:1;stroke-width:0.18408746"
     d="m 3.3131965,115.71819 c 0.1575014,-5.65959 0.7524146,-8.64791 2.3912816,-12.01171 0.6095522,-1.25112 1.0794012,-1.88316 2.3441498,-3.15338 2.8853421,-2.897812 5.5109411,-3.815972 14.6340771,-5.117466 2.936195,-0.418873 6.415448,-0.998389 7.731674,-1.287814 l 2.393136,-0.526226 1.748831,1.101564 c 4.651633,2.929996 10.412815,5.083777 15.938252,5.958412 2.555231,0.40447 8.155293,0.54739 10.855271,0.27702 7.482985,-0.7493 14.712359,-3.52342 20.440246,-7.843498 l 1.49012,-1.123876 0.719972,0.255058 c 1.807171,0.64021 5.66903,1.604021 9.464125,2.361979 9.091208,1.815701 11.782978,2.909139 14.523128,5.899527 2.87691,3.13965 4.16751,7.59108 4.38323,15.11836 l 0.11212,3.91186 H 57.844849 3.2068943 Z"
     id="path820"
     inkscape:connector-curvature="0" />
  <path
     style="fill:#ffccaa;fill-opacity:1;stroke-width:0.18408746"
     d="M 51.860567,97.535117 C 47.27234,96.898566 42.256561,95.285532 38.620562,93.27724 c -1.853363,-1.023679 -1.838829,-0.93596 -0.300345,-1.812703 3.578136,-2.039088 6.41928,-5.299978 7.892227,-9.05821 l 0.518807,-1.323738 0.881512,0.5424 c 1.714825,1.055142 4.470396,2.011858 7.43619,2.581796 1.455601,0.279724 4.875145,0.219023 6.503846,-0.11545 2.122932,-0.43597 5.707556,-1.973575 7.688188,-3.297805 l 1.701346,-1.137503 0.321647,0.933957 c 1.089203,3.16269 4.128595,6.951992 7.191297,8.965601 0.661373,0.434828 1.202496,0.850606 1.202496,0.923951 0,0.200103 -2.823154,2.026984 -4.602186,2.978104 -3.722727,1.990273 -8.513176,3.516876 -12.798793,4.078671 -2.593441,0.339971 -7.941561,0.339356 -10.396227,-0.0012 z"
     id="path822"
     inkscape:connector-curvature="0" />
  <path
     style="fill:#008000;fill-opacity:1;stroke-width:0.18408746"
     d="M 54.805966,80.707682 C 52.858104,80.348059 49.639692,78.771831 47.663145,77.20946 46.00234,75.896668 41.183024,71.278534 40.369221,70.220019 38.708598,68.060043 37.820553,65.61913 37.530328,62.416936 c -0.13725,-1.514351 -0.233602,-1.877633 -0.602227,-2.270629 -0.42508,-0.453181 -0.488517,-0.463924 -2.023748,-0.342748 l -1.58491,0.125098 -0.64504,-0.664176 c -1.074065,-1.105928 -1.479528,-2.634032 -1.574175,-5.932716 -0.07718,-2.689725 -0.06555,-2.802554 0.32941,-3.197514 0.513881,-0.513882 1.291842,-0.434608 3.606875,0.367536 1.891924,0.655541 2.630004,0.56256 3.124456,-0.393607 0.256968,-0.496918 0.256656,-0.713388 -0.0032,-2.226154 -0.363186,-2.114298 -0.362389,-3.201708 0.0038,-5.134182 0.679081,-3.584046 2.690886,-6.090644 6.774216,-8.440299 2.891282,-1.663719 -1.003455,4.042855 3.243071,3.483067 6.716241,-0.885351 14.875169,-6.610389 14.875169,-6.610389 l 6.665898,1.443099 4.462704,2.763844 c 1.088499,0.67413 1.81056,1.807774 2.744077,2.876222 2.182441,2.49789 0.01708,-2.798086 0.531645,1.289932 0.275021,2.184947 1.236274,6.174021 0.827541,8.742834 -0.383704,2.411524 -0.365612,3.157479 0.0884,3.644809 0.682346,0.732414 1.193161,0.710168 2.793268,-0.121642 1.140155,-0.592706 1.667589,-0.761855 2.375586,-0.761855 0.822926,0 0.928661,0.04847 1.10446,0.506241 0.106926,0.278432 0.148555,0.793636 0.09251,1.144897 -0.178856,1.120963 -2.394963,7.225 -2.660005,7.326706 -0.140265,0.05382 -0.680535,-0.08926 -1.2006,-0.317972 -0.520064,-0.228711 -1.132609,-0.45806 -1.361211,-0.509667 -0.567077,-0.128016 -1.425805,0.255803 -1.664916,0.744155 -0.108273,0.221132 -0.235363,1.478968 -0.282425,2.795194 -0.0925,2.587139 -0.34667,3.701625 -1.255928,5.507068 -0.860338,1.708306 -1.948932,2.9865 -5.114463,6.005242 -4.359042,4.156906 -6.145032,5.353799 -9.077597,6.083402 -1.682733,0.418652 -5.889588,0.628478 -7.316969,0.36495 z m 5.706712,-7.227092 c 2.394895,-0.56328 4.802142,-2.446202 5.876789,-4.596761 0.667045,-1.334875 0.704394,-1.812753 0.178856,-2.288463 -0.369405,-0.33438 -0.789507,-0.350685 -9.036137,-0.350685 h -8.648721 l -0.444367,0.516505 c -1.271595,1.478028 0.221641,4.035083 3.248375,5.562608 2.812866,1.419589 5.956132,1.831604 8.825205,1.156796 z M 59.617549,63.108435 c 0.965951,-0.48964 1.263537,-0.831601 1.260485,-1.44845 -0.0033,-0.678992 -0.132609,-0.900725 -0.698973,-1.199113 -0.357137,-0.188155 -0.543266,-0.162957 -1.156214,0.15653 -0.915579,0.477226 -1.576904,0.480877 -2.283962,0.01261 -0.303745,-0.201162 -0.686059,-0.366295 -0.84959,-0.366962 -0.506446,-0.0021 -1.267416,0.727549 -1.267416,1.215193 0,0.881451 0.5612,1.386753 2.209049,1.989017 0.488158,0.178414 2.148551,-0.03539 2.786621,-0.358827 z M 49.40181,51.586968 c 0.795453,-0.482779 1.23637,-1.47129 1.119348,-2.50951 -0.111316,-0.987583 -0.581144,-1.680265 -1.434989,-2.115652 -1.759169,-0.897022 -3.85275,0.398004 -3.85275,2.383194 0,1.341743 0.533895,2.10279 1.793108,2.556003 0.796286,0.286598 1.549788,0.186977 2.375283,-0.314035 z m 19.881446,0 c 0.795453,-0.482779 1.23637,-1.47129 1.119347,-2.50951 -0.111316,-0.987583 -0.581144,-1.680265 -1.434987,-2.115652 -1.759171,-0.897022 -3.852752,0.398004 -3.852752,2.383194 0,1.341743 0.533896,2.10279 1.793108,2.556003 0.796286,0.286598 1.54979,0.186977 2.375284,-0.314035 z M 44.105699,46.479345 c 1.600048,-1.660084 3.118216,-2.121606 5.233737,-1.591053 1.145797,0.287355 1.281379,0.288705 1.696224,0.01688 0.592164,-0.388001 0.761248,-1.092042 0.396105,-1.649319 -0.683312,-1.04286 -4.490503,-1.353117 -6.382434,-0.520113 -1.69037,0.744258 -3.497661,2.494551 -3.497661,3.387351 0,0.470447 0.809818,1.252625 1.296887,1.252625 0.229404,0 0.753068,-0.373385 1.257142,-0.896371 z m 29.436227,0.609803 c 0.290394,-0.2034 0.409136,-0.473734 0.409136,-0.931457 0,-0.893192 -1.47557,-2.4449 -3.072547,-3.23109 -3.307322,-1.628189 -8.517649,-0.11006 -6.411865,1.868219 l 0.45631,0.428681 1.371384,-0.322956 c 2.22755,-0.524579 3.526552,-0.137272 5.164617,1.539866 0.963568,0.986549 1.404573,1.1239 2.082965,0.648737 z"
     id="path824"
     inkscape:connector-curvature="0"
     sodipodi:nodetypes="cssscscscsscscssccsssscsscccscccsssccssssccssccccccssccscsssssscssscsccsssccssscscc" />
  <path
     style="fill:#d38d5f;fill-opacity:1;stroke-width:0.18408746"
     d="m 53.333267,80.230451 c -1.900909,-0.66159 -4.147433,-1.916328 -5.845006,-3.264575 -0.784547,-0.623103 -2.800852,-2.503304 -4.480679,-4.178224 -2.514813,-2.507468 -3.1702,-3.272895 -3.71086,-4.333921 -0.863859,-1.695293 -1.362374,-3.417334 -1.702003,-5.879306 -0.383685,-2.781332 -0.539867,-2.942922 -2.712323,-2.806257 l -1.606869,0.101082 -0.638211,-0.745605 c -0.922836,-1.078125 -1.204012,-2.104032 -1.431398,-5.222617 -0.248116,-3.402897 -0.131598,-3.823443 1.083873,-3.91202 0.458768,-0.03343 1.391114,0.138255 2.314931,0.426286 2.079525,0.648363 3.027135,0.585714 3.502774,-0.231573 0.334592,-0.574927 0.336547,-0.680012 0.05149,-2.76799 -0.332432,-2.434998 -0.197343,-4.189726 0.477307,-6.199918 1.018564,-3.034917 3.452764,-5.437899 7.617544,-7.519848 2.628858,-1.314151 -2.595869,4.89593 1.831808,4.38385 4.445679,-0.514161 13.389954,-7.224273 18.962136,-5.98479 2.528403,0.562421 2.623791,0.601865 5.035414,2.08221 1.615005,0.991351 2.771417,1.849939 3.371363,2.503098 1.767332,1.924089 1.764687,1.918283 2.280763,5.003302 0.516579,3.088023 0.622981,5.369439 0.377083,8.085219 l -0.158347,1.748831 0.508785,0.50624 c 0.279833,0.278433 0.673453,0.506241 0.87471,0.506241 0.201259,0 1.02031,-0.295462 1.820113,-0.656585 1.71053,-0.772326 2.528276,-0.939233 3.100712,-0.632874 0.382639,0.204782 0.408984,0.316674 0.318952,1.354624 -0.08631,0.995097 -1.186744,4.369708 -2.215389,6.793781 l -0.293655,0.692016 -1.227173,-0.461907 c -1.426521,-0.536941 -1.746502,-0.56092 -2.472838,-0.185317 -0.625197,0.323301 -0.656476,0.457197 -0.915842,3.920466 -0.314565,4.200316 -1.202778,5.800163 -5.649624,10.17608 -3.446378,3.391407 -5.28106,4.882506 -7.10057,5.77084 -2.102065,1.026284 -3.162893,1.234303 -6.766786,1.326906 -3.106192,0.07981 -3.270961,0.06557 -4.602185,-0.397745 z m 7.756622,-6.906808 c 2.228639,-0.750773 4.512954,-2.708017 5.410426,-4.635755 0.554417,-1.190865 0.569004,-1.638999 0.06811,-2.092522 -0.367196,-0.332471 -0.83427,-0.353741 -8.993149,-0.40951 l -8.605837,-0.05882 -0.487356,0.579191 c -1.583218,1.881548 0.704294,4.84483 4.930108,6.386546 2.317993,0.845679 5.563015,0.94326 7.677695,0.230875 z M 58.8522,63.376387 c 1.232879,-0.284076 2.028653,-0.962742 2.028653,-1.730111 0,-0.983881 -0.885625,-1.613065 -1.675493,-1.190339 -0.941022,0.503621 -1.49009,0.543513 -2.335226,0.16967 -0.452296,-0.200072 -0.951456,-0.363768 -1.109245,-0.363768 -0.465244,0 -1.13901,0.760428 -1.13901,1.285516 0,0.641872 0.290681,0.992892 1.288612,1.556098 0.891711,0.503261 1.640567,0.572739 2.941709,0.272934 z M 49.09265,51.747794 c 1.061333,-0.544223 1.528898,-1.394774 1.424294,-2.590937 -0.231435,-2.646494 -3.513995,-3.43565 -4.927184,-1.184538 -0.294565,0.469222 -0.361951,0.829132 -0.309223,1.651572 0.07762,1.210722 0.402373,1.679755 1.517625,2.191881 0.961695,0.441611 1.321486,0.430952 2.294488,-0.06798 z m 19.881446,0 c 1.061332,-0.544223 1.528897,-1.394774 1.424293,-2.590937 -0.231434,-2.646494 -3.513995,-3.43565 -4.927183,-1.184538 -0.294566,0.469222 -0.361951,0.829132 -0.309223,1.651572 0.07762,1.210722 0.402373,1.679755 1.517624,2.191881 0.961695,0.441611 1.321487,0.430952 2.294489,-0.06798 z M 44.237879,46.424765 c 1.570939,-1.374693 2.402221,-1.697345 4.017748,-1.559438 0.717116,0.06122 1.56816,0.16274 1.891207,0.225611 0.474537,0.09235 0.677862,0.02381 1.058503,-0.356831 1.412513,-1.412511 -0.601417,-2.668561 -3.966393,-2.473766 -1.038176,0.0601 -1.679618,0.212554 -2.42153,0.575538 -1.712082,0.837644 -3.265744,2.42782 -3.265744,3.342495 0,0.40517 0.828071,1.197343 1.251602,1.197343 0.191345,0 0.836919,-0.427929 1.434607,-0.950952 z m 29.304047,0.664382 c 1.128872,-0.790692 -0.287915,-2.99299 -2.684654,-4.173112 -1.147804,-0.565163 -1.344796,-0.602723 -3.161095,-0.602723 -1.726195,0 -2.027164,0.05034 -2.7654,0.462529 -1.040341,0.58087 -1.210107,1.318168 -0.464744,2.018401 0.453512,0.426053 0.516958,0.435304 1.538467,0.224315 2.426412,-0.501168 3.606553,-0.19386 5.426071,1.412944 1.142103,1.008582 1.466198,1.109531 2.111355,0.657646 z"
     id="path845"
     inkscape:connector-curvature="0"
     sodipodi:nodetypes="cssssccsscssssssssssscsscccccscssscccscsccsccsssssscscsscccccscccccsccscssssssscssss" />
  <path
     style="fill:#d38d5f;fill-opacity:1;stroke-width:0.18408746"
     d="m 53.701442,97.638475 c -3.424264,-0.253157 -6.789541,-1.02881 -10.65343,-2.455478 -2.252154,-0.831566 -5.566652,-2.480286 -5.679395,-2.825085 -0.038,-0.116201 0.442408,-0.52199 1.067565,-0.901754 3.122691,-1.896934 5.594146,-4.546901 7.175527,-7.693812 0.500677,-0.996334 0.910322,-1.923388 0.910322,-2.060119 0,-0.492941 0.363508,-0.450023 1.506435,0.177857 1.57023,0.862626 3.337789,1.50887 5.66486,2.071152 1.775162,0.428927 2.192735,0.461815 4.886433,0.384861 2.735555,-0.07815 3.069996,-0.1272 4.69423,-0.688458 2.07994,-0.718729 4.911051,-2.095811 6.431617,-3.128408 1.184855,-0.80462 1.300057,-0.852055 1.300057,-0.535311 0,0.453694 1.649681,3.628214 2.433065,4.682005 1.323692,1.780603 2.949641,3.42158 4.550167,4.592229 0.816636,0.597298 1.484791,1.153598 1.484791,1.236223 0,0.291275 -3.696465,2.567579 -5.7474,3.53928 -3.531197,1.673027 -7.180902,2.795176 -10.790211,3.317589 -2.286048,0.330884 -6.761334,0.470081 -9.234633,0.287229 z"
     id="path847"
     inkscape:connector-curvature="0" />
  <path
     style="fill:#008000;fill-opacity:1;stroke-width:0.18408746"
     d="m 3.3175604,118.11132 c 0.0016,-2.66864 0.3813973,-7.49625 0.7205045,-9.15835 0.4101847,-2.01047 1.3878918,-4.66539 2.2393449,-6.08083 0.3459504,-0.57511 1.315081,-1.69686 2.1536241,-2.4928 2.7985791,-2.656374 5.0633101,-3.428748 14.2365191,-4.855283 2.974903,-0.46263 6.465446,-1.052593 7.756764,-1.311029 l 2.34785,-0.469883 1.978206,1.186939 c 3.682259,2.209386 7.170716,3.715958 11.091937,4.790313 4.267471,1.169223 5.410929,1.302643 11.227932,1.310093 4.686567,0.006 5.4747,-0.0372 7.38479,-0.4046 6.181563,-1.189062 12.249332,-3.701813 16.605565,-6.876599 0.726919,-0.529772 1.528769,-1.110905 1.781889,-1.291405 0.448572,-0.319877 0.516126,-0.311858 2.669268,0.316874 2.01714,0.589018 3.813433,1.00942 11.413422,2.671187 5.584964,1.221173 8.165214,2.355574 10.400184,4.572413 0.7691,0.76286 1.71067,1.9039 2.09237,2.53564 1.87525,3.10363 2.76541,7.61666 2.92336,14.82121 l 0.0474,2.16327 -54.535906,-2.4e-4 -54.5359091,-2.4e-4 8.56e-4,-1.42668 z"
     id="path887"
     inkscape:connector-curvature="0" />
</svg>
