/* XPM */
static char *performous[] = {
/* columns rows colors chars-per-pixel */
"64 64 123 2",
"   c #000000",
".  c #070708",
"X  c #0B0B0C",
"o  c #0E0E11",
"O  c #121214",
"+  c #171718",
"@  c #1B1B1D",
"#  c #1B1B21",
"$  c #222224",
"%  c #25252C",
"&  c #2A2A2C",
"*  c #2D2D32",
"=  c #2F2F38",
"-  c #333334",
";  c #35353A",
":  c #3A3A3B",
">  c #363642",
",  c #3C3C43",
"<  c #3E3E4A",
"1  c #424244",
"2  c #45454C",
"3  c #48484A",
"4  c #464653",
"5  c #4C4B54",
"6  c #4E4E5B",
"7  c #515156",
"8  c #54545B",
"9  c #5A595F",
"0  c #575764",
"q  c #5B5B63",
"w  c #5F5E73",
"e  c #626265",
"r  c #62616B",
"t  c #68676D",
"y  c #656571",
"u  c #696974",
"i  c #676778",
"p  c #6D6D7D",
"a  c #71717C",
"s  c #6F6E8A",
"d  c #747487",
"f  c #7B7B84",
"g  c #76768F",
"h  c #7D7D8A",
"j  c #777795",
"k  c #787799",
"l  c #7D7C9D",
"z  c #828286",
"x  c #858592",
"c  c #8A8A94",
"v  c #84849C",
"b  c #8D8D9A",
"n  c #929297",
"m  c #96969A",
"M  c #8585A5",
"N  c #8D8DA4",
"B  c #8F8FAB",
"V  c #9393A2",
"C  c #9C9CA4",
"Z  c #9696AD",
"A  c #9C9CAA",
"S  c #8C8CB4",
"D  c #9392B7",
"F  c #9595BA",
"G  c #9B9ABD",
"H  c #A2A2AE",
"J  c #ACACB4",
"K  c #A7A7B9",
"L  c #ACACB9",
"P  c #B2B2BC",
"I  c #9C9BC4",
"U  c #9E9EC9",
"Y  c #A09FCB",
"T  c #ADADC7",
"R  c #A2A2CD",
"E  c #A8A7CF",
"W  c #ACABCC",
"Q  c #B3B3C6",
"!  c #BABAC6",
"~  c #B2B2CC",
"^  c #BCBCCC",
"/  c #A5A4D2",
"(  c #A8A7D4",
")  c #ABABD5",
"_  c #ADACDA",
"`  c #B0AFDB",
"'  c #B3B3D3",
"]  c #BCBCD2",
"[  c #B3B2DC",
"{  c #BABADD",
"}  c #ACACE1",
"|  c #ADADED",
" . c #B0AFED",
".. c #B5B4E4",
"X. c #B8B7E5",
"o. c #BBBAE4",
"O. c #B5B4ED",
"+. c #B8B7EE",
"@. c #BCBBEE",
"#. c #C0BFE7",
"$. c #C0BFEF",
"%. c #C4C3D4",
"&. c #C8C7D7",
"*. c #CBCBD4",
"=. c #C5C5D9",
"-. c #CECDDA",
";. c #C3C3E3",
":. c #CCCCE4",
">. c #C4C4EF",
",. c #C8C7EF",
"<. c #C9C8ED",
"1. c #D9D9E5",
"2. c #D7D6EB",
"3. c #C8C7F0",
"4. c #CCCBF0",
"5. c #D0CFF0",
"6. c #D4D3F1",
"7. c #D8D7F1",
"8. c #DBDBF2",
"9. c #E0DFF2",
"0. c #E4E4EF",
"q. c #E3E3F3",
"w. c #E9E9F3",
/* pixels */
">.>.>.>.>.,.,.,.3.3.4.4.4.4.5.5.5.6.6.6.4.6.6.6.7.6.7.7.7.7.7.7.q.Q , 5 b 7.7.6.7.6.6.6.5.7.6.6.5.5.5.5.5.4.4.4.4.>.>.>.4.>.>.>.",
"@.>.$.>.>.,.,.3.4.4.4.4.4.5.5.5.5.5.6.6.6.6.6.7.7.7.7.7.7.7.7.=.a .     # %.7.7.7.7.7.7.7.6.6.6.6.5.5.5.5.4.5.4.4.4.4.4.>.>.4.>.",
"$.>.>.>.,.,.3.3.3.4.4.4.4.5.5.6.6.6.6.6.6.6.7.7.8.7.7.8.2.V 2 :           f 8.7.7.8.7.7.7.7.6.6.6.6.6.5.4.5.6.4.4.4.4.>.4.>.>.>.",
">.>.>.>.3.3.3.4.4.4.4.4.5.5.6.5.6.6.6.7.7.7.7.7.7.8.8.v $   . - X a q O o b 8.8.8.7.7.7.7.7.7.6.6.6.6.6.6.6.4.4.4.4.4.4.4.4.>.>.",
">.>.,.,.,.>.3.4.4.4.5.4.5.5.6.6.6.7.7.6.7.7.8.8.8.8.h .     o 1 L 8.8.c   u 8.8.8.8.8.8.8.6.7.6.7.6.6.6.6.6.6.4.5.5.4.4.>.>.4.>.",
">.>.,.3.3.3.4.4.4.4.5.5.5.6.6.6.6.6.7.7.7.8.8.8.8.K         5 1.8.9.9.Q X * 9.8.9.8.8.8.8.8.8.7.7.6.6.6.6.6.6.4.5.4.4.4.4.4.4.>.",
">.>.>.3.3.3.4.4.5.5.5.6.6.6.6.6.7.7.7.7.8.8.8.8.8.A       @ 9.q.q.9.9.9.] %.9.9.9.8.8.8.8.8.8.8.7.7.7.6.6.6.6.6.5.5.5.4.4.3.4.>.",
">.>.>.3.4.4.4.4.4.5.4.5.6.7.6.6.7.7.7.7.8.8.8.8.8.8.#     o *.w.q.q.q.9.q.q.9.9.9.9.9.8.8.8.8.8.8.7.7.7.6.6.6.4.5.5.4.4.4.4.4.3.",
">.>.>.4.4.4.4.4.5.5.4.6.6.6.7.6.7.7.8.8.8.8.8.9.8.8.r       8 w.q.q.q.q.q.q.q.q.:.0.8.9.8.8.8.8.8.8.8.6.6.6.6.6.5.5.5.4.4.4.4.4.",
">.>.4.>.4.4.4.5.5.5.6.6.6.6.7.7.7.8.8.8.8.8.q.8.q.q.P .       J q.q.q.q.q.q.q.f + b ^ 9.2.q.9.8.8.6.8.8.8.6.8.6.6.6.5.5.4.4.4.4.",
">.4.4.4.4.4.4.5.5.6.6.6.6.7.7.7.8.8.8.8.9.9.9.9.q.q.q.3       : 1 -.q.q.c : &       X ^ C V q.8.8.8.8.6.8.6.6.6.5.5.5.4.4.4.4.4.",
">.4.>.4.4.4.4.5.5.6.6.6.6.6.7.7.8.8.8.8.9.8.9.q.q.q.q.P .     :   o , 1.q             $ * & 8.8.8.8.8.8.8.6.6.6.6.6.6.5.5.4.4.3.",
">.4.>.4.4.5.4.5.6.6.6.7.7.7.8.7.8.8.9.9.9.9.q.q.q.q.q.q.t     -       e f                 @ A 9.8.8.8.8.8.6.6.6.6.6.5.6.5.5.4.4.",
"4.>.4.4.4.4.5.5.5.6.6.6.6.7.7.8.8.8.8.9.9.q.q.q.q.w.q.w.0.-   -         O                 X A q.q.8.8.8.8.8.8.6.6.6.6.4.5.4.4.4.",
">.>.>.4.5.4.5.5.6.6.6.6.6.8.8.8.8.8.9.9.9.q.q.q.w.q.w.w.! .   -                           . a 8.q.8.8.8.8.6.8.6.6.6.6.6.6.5.4.4.",
"4.4.4.4.4.4.5.5.5.6.6.6.8.6.7.8.8.8.9.9.9.q.q.q.q.w.q.w.1     -                           . n q.8.q.8.8.8.8.6.8.6.6.6.6.4.4.6.4.",
">.4.4.4.4.5.5.5.6.6.6.6.8.8.8.8.8.8.q.8.q.q.q.q.q.w.w.n     & .                             c 9.q.q.8.8.8.8.8.6.6.6.6.6.5.5.4.4.",
"3.3.3.4.4.4.5.5.6.6.6.6.8.6.8.8.8.q.8.q.q.q.q.w.w.w.q.%   $ -                             . c 9.q.8.q.8.8.8.6.8.6.8.6.6.5.5.6.4.",
"3.3.4.4.4.5.5.6.6.6.6.6.8.8.8.8.8.8.q.8.q.q.q.w.w.w.n   : &                             + @ J q.q.8.8.8.8.8.8.7.6.6.6.6.6.5.4.4.",
"3.4.4.4.4.5.5.5.6.6.6.8.6.8.6.8.8.q.q.q.q.q.q.q.w.w.3 1 .                             + 7 P ! q.q.q.q.8.8.8.7.7.7.6.6.6.4.5.6.4.",
"3.3.4.4.4.5.5.6.6.6.6.6.8.8.8.8.8.9.8.q.q.w.q.w.w.P &                                 + P w.q.q.q.8.8.q.8.8.8.7.6.6.6.6.6.6.4.4.",
"3.4.4.4.5.5.4.5.6.6.6.8.6.6.8.8.8.8.q.q.q.q.q.w.w.e                                     + q &.q.q.q.q.8.8.8.7.7.8.6.6.6.6.4.6.4.",
"3.4.4.4.4.4.6.6.6.6.6.6.8.6.8.8.q.8.q.8.q.q.q.w.J                                           & %.8.q.8.q.8.8.8.7.6.6.6.6.6.6.4.4.",
"3.3.4.4.4.4.6.4.6.6.6.6.8.8.8.8.8.q.q.q.q.q.q.2.$                             & &             $ 6 ^ 8.8.8.8.8.6.6.8.6.6.5.4.6.4.",
"3.3.4.4.4.5.6.5.6.6.6.6.6.8.8.8.8.q.8.q.9.0.q.8                           X H w.1.e #             . 9 %.8.8.8.7.7.6.6.6.5.5.5.4.",
"3.3.4.4.4.5.4.6.6.6.6.6.6.8.8.8.8.8.8.q.9.q.f                             m w.w.w.w.w.J 5             o =.8.7.7.8.6.6.5.6.5.5.5.",
"3.3.3.4.4.5.4.6.5.6.6.6.8.8.6.8.8.q.9.9.q.H .                           : w.w.w.w.q.w.q.w.L @           0 %.8.7.T 5 & 5.6.5.4.4.",
">.3.3.4.4.4.4.5.5.6.6.8.6.6.8.8.8.8.8.9.q.t                             z w.w.w.w.w.w.w.q.q.H , $         o u p X X h 5.5.5.5.4.",
"3.3.3.4.4.4.4.6.5.6.6.6.6.8.8.8.8.8.8.q.T @                         + c w.w.w.w.w.q.w.q.q.q.q.q.q.H 3 .           X 0 A Z ;.4.4.",
">.3.3.4.4.4.4.5.4.6.5.6.6.6.6.8.8.8.8.q.z .                         7 w.w.w.w.w.w.q.q.q.q.q.q.8.8.8.8.^ r +             % G 4.4.",
"3.3.3.4.4.4.4.5.5.6.5.6.6.8.6.8.8.8.8.8.8.b .                     X *.w.q.w.w.0.q.q.q.q.q.8.8.q.8.8.8.8.7.:.h , .   .   o i 4.4.",
">.3.3.3.4.4.4.4.5.6.6.6.6.6.8.6.6.8.8.8.8.%.. .                   7 w.q.w.w.w.0.q.q.q.q.q.q.q.9.8.8.8.8.8.7.7.7.] 2 o 6 , ] 4.4.",
">.>.>.4.3.4.4.4.5.5.6.6.6.6.6.7.7.7.8.8.8.c                       7 w.q.q.q.q.q.q.q.9.q.9.9.9.8.8.8.8.8.8.6.6.6.6.6.s 4 4.5.4.4.",
">.>.,.3.4.4.4.4.4.5.5.5.6.6.7.7.7.7.7.7.8.x                       : q.q.q.q.q.q.q.q.9.9.9.9.8.8.8.8.6.8.8.6.6.6.6.6.6.4.4.4.4.4.",
">.>.3.>.3.4.4.4.4.5.5.6.5.6.6.6.7.7.7.8.8.b                       8 q.q.q.q.q.9.9.9.9.9.8.9.8.8.8.8.8.6.6.6.6.6.6.4.6.6.4.4.4.4.",
">.>.>.3.3.3.4.4.4.5.5.5.6.5.6.6.7.7.7.7.7.V                     @ &.8.q.8.q.q.8.9.9.9.8.8.8.8.8.6.8.8.6.6.6.6.6.4.6.4.4.4.4.4.3.",
">.>.>.3.3.3.4.3.4.4.5.5.5.6.5.6.6.6.7.7.8.A                     x 9.9.9.9.9.8.q.8.8.9.8.8.8.8.7.8.6.6.6.6.6.6.6.5.5.4.4.4.4.3.3.",
">.>.>.>.3.3.3.4.4.4.4.4.5.5.6.6.6.6.6.7.8.Q                     A 9.8.q.8.9.8.8.8.8.8.8.8.8.7.7.8.6.8.6.6.6.6.4.5.5.4.4.4.4.4.3.",
"$.>.>.>.>.3.3.3.4.4.4.5.5.5.5.6.6.6.6.7.6.6.O                 ; 8.8.8.8.8.8.8.8.8.8.8.7.7.7.7.7.6.6.6.6.6.6.4.6.5.4.4.4.4.3.3.3.",
"$.$.>.>.>.3.3.3.3.4.4.4.4.5.5.5.5.6.6.6.6.6.-                 2 8.8.8.8.8.8.8.8.8.8.7.8.8.6.7.7.6.6.6.6.6.5.6.4.4.5.4.4.3.3.3.3.",
"$.$.$.>.>.>.>.,.3.4.4.4.4.4.5.5.5.5.6.6.6.6.6 .               y 8.8.7.8.7.8.7.7.7.7.7.7.7.7.6.6.6.6.6.5.5.6.5.4.4.4.4.4.3.3.>.>.",
"..@.>.>.>.>.>.,.3.3.3.4.4.4.4.5.5.5.6.6.4.6.p               + ] 7.7.7.7.7.7.7.7.7.7.7.7.6.6.6.6.6.5.6.6.5.5.4.4.4.4.4.3.3.3.,.>.",
"_ ` [ o.$.>.>.,.3.4.3.4.4.4.4.4.5.5.5.5.5.6.N               @ :.7.7.7.7.7.7.7.7.7.7.6.6.6.6.6.6.5.6.6.4.4.4.4.4.4.4.3.3.,.,.>.>.",
"_ ) ) ) ` o.$.>.>.3.>.4.3.4.4.4.4.4.5.5.5.5.~ .             8 6.6.6.7.6.7.6.6.6.6.6.6.6.6.6.6.4.6.4.5.5.5.4.4.4.4.4.3.3.>.>.>.>.",
"_ ) ) ) ) ` o.o.>.,.,.>.4.4.,.4.4.5.4.5.5.5.5.#             5 6.6.6.6.6.6.6.6.6.6.5.6.6.6.4.6.6.4.6.4.4.4.4.4.4.3.3.>.3.>.3.>.>.",
"( ( ) ) ` ' ) ) E ) ) { { o.#.<.4.<.4.4.4.5.5.,             5 ;.6.6.5.6.6.6.6.6.6.6.6.5.5.5.4.6.4.4.4.4.4.3.3.3.3.,.,.>.>.>.>.$.",
"( ( ) _ $.$.$.#.o.o.o.{ ` W W W W ' { #.,.5.4.d               % T 6.5.6.5.6.5.5.4.6.4.6.4.6.4.4.4.4.4.4.4.4.4.3.,.>.>.>.>.>.>.$.",
"( ( / / ` $.$.$.>.>.>.>.>.3.,.#.o.o.{ ' ~ W W ' %               O N 5.5.5.5.5.5.4.5.5.4.4.4.4.4.4.4.4.4.3.4.>.,.,.>.>.>.$.>.$.$.",
"/ / / / / ..$.$.>.$.$.>.>.>.>.3.,.>.4.4.4.4.4.,.v                 X ~ 5.4.5.5.4.4.4.4.4.4.4.4.4.4.3.3.4.4.>.>.>.>.>.>.$.$.>.$.$.",
"/ / / / / / / [ $.$.>.>.>.>.>.>.,.4.>.3.4.>.3.4.4.=               . q 5.4.4.4.4.4.4.4.4.4.4.3.4.3.4.3.>.>.>.>.>.>.>.>.$.$.$.$.@.",
"/ / / / Y / R R / #.$.$.$.>.>.>.>.>.>.>.>.3.4.4.,.B                 o ' 4.4.4.4.4.4.4.4.3.3.4.3.3.3.>.>.3.>.>.>.>.>.$.$.$.$.$.@.",
"} / / Y Y U R R R R [ $.$.$.>.>.>.>.>.>.>.3.>.3.3.3.6               . < { 4.4.4.4.4.3.3.4.3.3.3.3.3.<.>.>.>.$.>.>.>.$.$.$.$.@.@.",
"| O.O.} / Y U R U U U R X.>.$.>.>.>.>.>.,.>.>.,.,.,.{ @                 > >.<.,.3.3.3.3.>.3.>.3.>.>.$.$.>.$.>.$.$.$.$.$.@.@.@.@.",
"O.O.O.+.+. ._ R U U I U U / ..$.@.>.>.>.>.>.>.>.>.,.,.g               X , V ,.,.3.>.>.3.>.>.>.>.>.>.>.>.$.>.$.$.$.$.@.@.@.@.@.@.",
" .O.O.O.O.+.+.+...( Y U I I I R / [ o.$.$.>.,.>.>.>.>._ .               . X _ >.3.>.>.>.>.>.>.>.>.>.$.>.$.$.$.$.@.@.@.@.@.@.@.@.",
"O. .O.O.+.+.+.+.+.@.@.X.[ / I I I G G G I R ` @.>.>.>.>.>               X < >.>.>.>.>.>.>.>.$.>.>.$.$.$.$.$.$.$.$.@.@.@.@.O.@.O.",
" . . . .O.O.O.O.+.+.@.@.@.@.@..._ / I F G F F F I ( [ X.w               4 o.>.>.$.>.>.>.@.>.$.$.$.$.@.$.@.@.@.@.@.@.@.@.O.@.O.O.",
" . .O.O.O.O.O.O.+.+.+.+.+.@.@.@.$.@.@...) U F F D D D l o             # X.>.>.$.>.>.@.>.$.$.>.>.$.$.$.$.@.@.@.@.@.@.@.O.@.O.@.O.",
" . . .O.O.O.O.O.O.+.+.+.O.@.@.@.@.@.@.@.@.@.o._ G D M %               s $.$.$.$.>.@.$.>.$.$.@.@.@.@.@.@.@.@.@.@.@.O.@.@.O.O.O.O.",
" . .| O.| O.O.O.O.O.O.+.O.O.@.O.+.@.@.@.@.@.$...j > X               O o.$.$.$.@.$.$.@.@.@.@.@.$.@.@.@.@.@.@.@.@.O.@.O.O.O.O.O.O.",
"| | | | | O.O.O.O.O.O.O.+.@.O.+.+.+.+.@.@.@.@.( # # $ % * o         > $.@.@.$.@.@.@.@.@.@.@.@.@.@.@.@.@.@.O.@.O.@.O.O.O.O.O. . .",
"| |  .| | O.|  .O.| O.O.O.O.O.O.+.+.+.+.+.+.+.@.+.+.@.@.U .       . j @.@.$.@.@.@.@.@.@.@.+.@.@.@.@.@.O.@.O.O.O.O.O.O.O.O.O.O. .",
"| | | | | | | O.| O.O.O.O.O.O.O.O.+.+.+.+.+.+.+.+.@.@.@.I #     X k @.@.@.@.@.@.@.@.@.@.@.@.@.+.O.@.O.@.@.O.O.O.O.O.O.O. .O. . .",
"| | | | | | | | | | | O.O.O.O.O.O.O.O.O.+.+.+.+.+.+.+.+.+.} S l F +.+.@.+.+.@.@.@.+.O.@.+.O.+.O.@.O.O.O.O.O.O.O.O. . .O. . .|  ."
};
