/* XPM */
static char * performous_xpm[] = {
"32 32 97 2",
"  	c None",
". 	c #6C66F6",
"+ 	c #655EF6",
"@ 	c #1209BF",
"# 	c #2016F4",
"$ 	c #3930F4",
"% 	c #130ACA",
"& 	c #070153",
"* 	c #01003E",
"= 	c #080258",
"- 	c #130AD0",
"; 	c #1F1F1F",
"> 	c #0A056F",
", 	c #150BE9",
"' 	c #4F43F5",
") 	c #0A0563",
"! 	c #5850F6",
"~ 	c #09035B",
"{ 	c #3127F5",
"] 	c #655AF6",
"^ 	c #1008B0",
"/ 	c #1709CF",
"( 	c #473FF5",
"_ 	c #4138F4",
": 	c #090569",
"< 	c #1008B6",
"[ 	c #5149F5",
"} 	c #0F058B",
"| 	c #0D0791",
"1 	c #271DF5",
"2 	c #1307B3",
"3 	c #090464",
"4 	c #110799",
"5 	c #1C12F4",
"6 	c #150AEC",
"7 	c #080460",
"8 	c #150BDF",
"9 	c #5D56F6",
"0 	c #090355",
"a 	c #0A0369",
"b 	c #190AE0",
"c 	c #100042",
"d 	c #160BF1",
"e 	c #6A63F7",
"f 	c #0B0575",
"g 	c #1309D3",
"h 	c #150BE7",
"i 	c #564EF6",
"j 	c #050446",
"k 	c #1709D3",
"l 	c #2313F5",
"m 	c #0B0583",
"n 	c #1109B7",
"o 	c #5C55F5",
"p 	c #0E079B",
"q 	c #4A3DF5",
"r 	c #0B0672",
"s 	c #0E06A8",
"t 	c #5A52F6",
"u 	c #1E0DF5",
"v 	c #1209C9",
"w 	c #160BED",
"x 	c #6358F6",
"y 	c #2F25F5",
"z 	c #04024A",
"A 	c #0F08A8",
"B 	c #060452",
"C 	c #2717F5",
"D 	c #09046C",
"E 	c #0A0571",
"F 	c #090250",
"G 	c #07004E",
"H 	c #0A0458",
"I 	c #0B067A",
"J 	c #0F08A2",
"K 	c #190ADE",
"L 	c #0E0797",
"M 	c #2B21F5",
"N 	c #4F47F5",
"O 	c #675CF6",
"P 	c #625AF6",
"Q 	c #524AF6",
"R 	c #554DF5",
"S 	c #4D45F5",
"T 	c #6A5FF7",
"U 	c #291FF5",
"V 	c #09045E",
"W 	c #0D047A",
"X 	c #463DF5",
"Y 	c #4639F5",
"Z 	c #443CF4",
"` 	c #0B046E",
" .	c #3B32F4",
"..	c #362CF4",
"+.	c #1108B4",
"@.	c #1108C4",
"#.	c #0C0686",
". . . . . . . . . . . . . . . + @ # . . . . . . . . . . . . . . ",
". . . . . . . . . . . . . $ % & * = . . . . . . . . . . . . . . ",
". . . . . . . . . . . . - ; > , ' ) ! . . . . . . . . . . . . . ",
". . . . . . . . . . . . ~ ; { . . # ] . . . . . . . . . . . . . ",
". . . . . . . . . . . . ^ ; / . . . . ( . . . . . . . . . . . . ",
". . . . . . . . . . . . _ * : < [ , } * | 1 [ . . . . . . . . . ",
". . . . . . . . . . . . . 2 3 ; & 4 ; ; ; ; 5 . . . . . . . . . ",
". . . . . . . . . . . . . 6 7 ; ; ; ; ; ; ; 8 . . . . . . . . . ",
". . . . . . . . . . . . 9 0 a ; ; ; ; ; ; ; b . . . . . . . . . ",
". . . . . . . . . . . . b : c ; ; ; ; ; ; & d . . . . . . . . . ",
". . . . . . . . . . . e f ; ; ; ; ; ; ; * g . . . . . . . . . . ",
". . . . . . . . . . . h ; ; ; ; ; ; ; ; ; ; 4 i . . . . . . . . ",
". . . . . . . . . . _ j ; ; ; ; ; ; k l m c ; j n o . . . . . . ",
". . . . . . . . . + ) ; ; ; ; ; ; p . . . q r ; ; s t u v . . . ",
". . . . . . . . . w ; ; ; ; ; ; > ' . . . . x y s j z ; A u . . ",
". . . . . . . . . ' B ; ; ; ; ; C . . . . . . . . ! k D c E + . ",
". . . . . . . . . . F ; ; ; ; ; o . . . . . . . . . . e g q . . ",
". . . . . . . . . . G ; ; ; ; z o . . . . . . . . . . . . . . . ",
". . . . . . . . . . H ; ; ; ; / . . . . . . . . . . . . . . . . ",
". . . . . . . . . . I ; ; ; ; _ . . . . . . . . . . . . . . . . ",
". . . . . . . . . . J ; ; ; & ] . . . . . . . . . . . . . . . . ",
"t + . . . . . . . . K ; ; ; L . . . . . . . . . . . . . . . . . ",
"[ [ o ] + . . . . . M ; ; ; @ . . . . . . . . . . . . . . . . . ",
"N ] O P 9 i Q Q i 9 R & ; ; G l . . . . . . . . . . . . . . . . ",
"S Q + . . . . . . T ] g ; ; ; * U . . . . . . . . . . . . . . . ",
"' ( q Q e . . . . . . ] V ; ; ; W e . . . . . . . . . . . . . . ",
"P R q X q t . . . . . . 1 ; ; ; ; 2 . . . . . . . . . . . . . . ",
". . e 9 [ Y Z N ! P . . . ` ; ; ; G  .. . . . . . . . . . . . . ",
". . . . . . ] R q $ ..Y [ 4 ; ; ; +.. . . . . . . . . . . . . . ",
". . . . . . . . . . o $ @.* ; ; ~ ] . . . . . . . . . . . . . . ",
". . . . . . . . . . e @ 4 #.; ; ^ . . . . . . . . . . . . . . . ",
". . . . . . . . . . . . . M ` #.! . . . . . . . . . . . . . . . "};
