/* XPM */
static char * performous_xpm[] = {
"32 32 524 2",
"  	c None",
". 	c #1B18DC",
"+ 	c #221FDC",
"@ 	c #2926DD",
"# 	c #2F2DDE",
"$ 	c #3533DF",
"% 	c #3B39DF",
"& 	c #413EE0",
"* 	c #4644E0",
"= 	c #4A48E1",
"- 	c #4F4DE1",
"; 	c #5351E2",
"> 	c #5654E2",
", 	c #5957E3",
"' 	c #5C5AE3",
") 	c #5F5DE5",
"! 	c #6866EB",
"~ 	c #4C4B8E",
"{ 	c #0D0D1C",
"] 	c #41409D",
"^ 	c #5F5DE4",
"/ 	c #5D5BE3",
"( 	c #5B59E3",
"_ 	c #5856E2",
": 	c #5452E2",
"< 	c #514FE2",
"[ 	c #4D4BE2",
"} 	c #4846E1",
"| 	c #4341E0",
"1 	c #3E3CE0",
"2 	c #3836DF",
"3 	c #3230DE",
"4 	c #2C29DE",
"5 	c #2927DD",
"6 	c #302DDE",
"7 	c #3634DF",
"8 	c #3D3BDF",
"9 	c #4947E1",
"0 	c #4E4CE2",
"a 	c #5756E3",
"b 	c #605EE4",
"c 	c #6361E3",
"d 	c #625FDB",
"e 	c #2C2B62",
"f 	c #222225",
"g 	c #050510",
"h 	c #080812",
"i 	c #1D1D3F",
"j 	c #6B69EB",
"k 	c #6665E4",
"l 	c #6462E4",
"m 	c #615FE3",
"n 	c #5E5CE3",
"o 	c #5958E3",
"p 	c #5553E2",
"q 	c #504EE2",
"r 	c #4B49E1",
"s 	c #4543E1",
"t 	c #3F3DE0",
"u 	c #3936DF",
"v 	c #2826DD",
"w 	c #3735DF",
"x 	c #3E3BE0",
"y 	c #4442E1",
"z 	c #4B48E1",
"A 	c #5654E3",
"B 	c #6967E5",
"C 	c #6A68E1",
"D 	c #080811",
"E 	c #000000",
"F 	c #3C3C58",
"G 	c #716FE5",
"H 	c #6B6AD7",
"I 	c #040409",
"J 	c #7775F0",
"K 	c #6F6EE5",
"L 	c #6D6BE5",
"M 	c #6A68E4",
"N 	c #6664E4",
"O 	c #625FE4",
"P 	c #5C5BE3",
"Q 	c #5755E2",
"R 	c #5250E2",
"S 	c #4C4AE1",
"T 	c #4644E1",
"U 	c #403DE0",
"V 	c #2F2CDE",
"W 	c #3D3BE0",
"X 	c #4542E1",
"Y 	c #6867E5",
"Z 	c #6E6CE5",
"` 	c #7270E6",
" .	c #7170DE",
"..	c #9594FA",
"+.	c #7A79E6",
"@.	c #7D7CE8",
"#.	c #7977E2",
"$.	c #7B79E7",
"%.	c #7877E7",
"&.	c #7674E6",
"*.	c #7271E6",
"=.	c #6D6DE5",
"-.	c #5251E2",
";.	c #4D4BE1",
">.	c #3532DF",
",.	c #3C3AE0",
"'.	c #4442E0",
").	c #5F5EE4",
"!.	c #6B6AE5",
"~.	c #716FE6",
"{.	c #7574E6",
"].	c #7A78E7",
"^.	c #8180ED",
"/.	c #23223F",
"(.	c #55547D",
"_.	c #8988F0",
":.	c #8684E7",
"<.	c #8A89F0",
"[.	c #7C7BDB",
"}.	c #545397",
"|.	c #7E7CE6",
"1.	c #7C79E9",
"2.	c #7170E6",
"3.	c #6C6AE5",
"4.	c #5350E2",
"5.	c #3A38DF",
"6.	c #4240E0",
"7.	c #6765E4",
"8.	c #6D6CE5",
"9.	c #7372E6",
"0.	c #7978E6",
"a.	c #7E7DE7",
"b.	c #8382E8",
"c.	c #8785E8",
"d.	c #7170BE",
"e.	c #1C1C19",
"f.	c #23233D",
"g.	c #7B7BC9",
"h.	c #222238",
"i.	c #1F1F36",
"j.	c #323158",
"k.	c #8482F2",
"l.	c #7977E6",
"m.	c #7371E6",
"n.	c #5856E3",
"o.	c #403EE0",
"p.	c #7573E6",
"q.	c #7B7AE7",
"r.	c #817FE7",
"s.	c #8C8AE8",
"t.	c #8F8FE9",
"u.	c #9795EF",
"v.	c #3F3E61",
"w.	c #1C1C1B",
"x.	c #0A090F",
"y.	c #191927",
"z.	c #7675CD",
"A.	c #807EE7",
"B.	c #7A78E6",
"C.	c #7472E6",
"D.	c #6C6BE5",
"E.	c #6564E4",
"F.	c #4E4CE1",
"G.	c #4542E0",
"H.	c #5D5CE3",
"I.	c #7473E6",
"J.	c #7C7AE7",
"K.	c #8281E7",
"L.	c #8987E8",
"M.	c #8E8DE9",
"N.	c #9493E9",
"O.	c #9997EA",
"P.	c #A3A2F4",
"Q.	c #28273A",
"R.	c #1B1B1B",
"S.	c #7171BC",
"T.	c #8786E8",
"U.	c #6B69E5",
"V.	c #6361E4",
"W.	c #7371E5",
"X.	c #7A79E7",
"Y.	c #8988E8",
"Z.	c #908FE9",
"`.	c #9695EA",
" +	c #9C9BEA",
".+	c #A1A0EA",
"++	c #7877AB",
"@+	c #1D1D1D",
"#+	c #7B7AC2",
"$+	c #8D8CE9",
"%+	c #8685E8",
"&+	c #7F7DE7",
"*+	c #7876E6",
"=+	c #706EE5",
"-+	c #6866E4",
";+	c #5755E3",
">+	c #6866E5",
",+	c #7877E6",
"'+	c #8887E8",
")+	c #9796EA",
"!+	c #9D9CEA",
"~+	c #A4A3EB",
"{+	c #B0AFF6",
"]+	c #34343D",
"^+	c #202020",
"/+	c #020203",
"(+	c #313148",
"_+	c #8C8BD5",
":+	c #9392E9",
"<+	c #8C8AE9",
"[+	c #8483E8",
"}+	c #7C7AE6",
"|+	c #5A58E3",
"1+	c #6362E4",
"2+	c #6D6AE5",
"3+	c #7E7CE7",
"4+	c #8684E8",
"5+	c #8E8DE8",
"6+	c #A5A4EB",
"7+	c #ABAAEB",
"8+	c #9B9BC7",
"9+	c #64638E",
"0+	c #A4A3F0",
"a+	c #9897EA",
"b+	c #9190E9",
"c+	c #7777E6",
"d+	c #6766E4",
"e+	c #8280E7",
"f+	c #8B8AE8",
"g+	c #9B9AEA",
"h+	c #A4A2EB",
"i+	c #ABAAEC",
"j+	c #B9B9F6",
"k+	c #222128",
"l+	c #000001",
"m+	c #2B2B3E",
"n+	c #8382C3",
"o+	c #9998F0",
"p+	c #8C8BE8",
"q+	c #8482E8",
"r+	c #7B7AE6",
"s+	c #6A67E5",
"t+	c #605EE3",
"u+	c #6160E3",
"v+	c #6A69E5",
"w+	c #7D7BE7",
"x+	c #8F8EE9",
"y+	c #A09FEB",
"z+	c #A9A8EB",
"A+	c #B5B4F2",
"B+	c #56556F",
"C+	c #18181D",
"D+	c #C8C7F0",
"E+	c #A9A9D1",
"F+	c #54556C",
"G+	c #040406",
"H+	c #2B2B44",
"I+	c #9492EF",
"J+	c #8785E7",
"K+	c #817FED",
"L+	c #7876EC",
"M+	c #6260E4",
"N+	c #7775E6",
"O+	c #7F7EE7",
"P+	c #9291E9",
"Q+	c #ADACEC",
"R+	c #9896C6",
"S+	c #9999AD",
"T+	c #CDCDEF",
"U+	c #C7C5EF",
"V+	c #C0BFF0",
"W+	c #B9B9F2",
"X+	c #252533",
"Y+	c #2C2C47",
"Z+	c #706FBF",
"`+	c #20203A",
" @	c #504F9D",
".@	c #6F6DE8",
"+@	c #9494EA",
"@@	c #9E9DEB",
"#@	c #A7A6EC",
"$@	c #373747",
"%@	c #76767F",
"&@	c #E0E0F8",
"*@	c #D3D3F0",
"=@	c #CACAF0",
"-@	c #C2C1EF",
";@	c #B8B8ED",
">@	c #B5B4F4",
",@	c #A5A4EA",
"'@	c #575682",
")@	c #0B0B12",
"!@	c #20203E",
"~@	c #474594",
"{@	c #6564E6",
"]@	c #9F9EEB",
"^@	c #B2B1EC",
"/@	c #B6B6E6",
"(@	c #0D0D0D",
"_@	c #F0F0FB",
":@	c #DFDFF1",
"<@	c #D6D6F1",
"[@	c #CDCCF0",
"}@	c #C3C3EF",
"|@	c #BAB9EE",
"1@	c #B0B0ED",
"2@	c #9B9AF4",
"3@	c #6767AD",
"4@	c #23223E",
"5@	c #0A0A14",
"6@	c #282955",
"7@	c #6765E9",
"8@	c #5E5DE3",
"9@	c #8E8CE9",
"0@	c #A1A0EB",
"a@	c #AAA9EC",
"b@	c #B4B3ED",
"c@	c #9E9DC7",
"d@	c #191919",
"e@	c #F4F3FE",
"f@	c #E0DFF2",
"g@	c #B0AFED",
"h@	c #9D9CEB",
"i@	c #9492E9",
"j@	c #8A89E8",
"k@	c #8685F1",
"l@	c #52529F",
"m@	c #7472F1",
"n@	c #AAA9EB",
"o@	c #B3B2ED",
"p@	c #A4A3CE",
"q@	c #464649",
"r@	c #E9E8F8",
"s@	c #DCDCF1",
"t@	c #C1C1EE",
"u@	c #B8B7ED",
"v@	c #AEADEC",
"w@	c #A6A5EB",
"x@	c #807FE7",
"y@	c #6766E5",
"z@	c #8D8BE9",
"A@	c #9694EA",
"B@	c #A8A7EC",
"C@	c #B1B0ED",
"D@	c #ADADDE",
"E@	c #C3C3D4",
"F@	c #DCDBF1",
"G@	c #D6D5F1",
"H@	c #CECEF0",
"I@	c #C7C6EF",
"J@	c #BDBDEE",
"K@	c #B5B4ED",
"L@	c #ACABEC",
"M@	c #A3A2EB",
"N@	c #9999EA",
"O@	c #918FE9",
"P@	c #6160E4",
"Q@	c #8180E7",
"R@	c #9D9BEA",
"S@	c #C2C1FB",
"T@	c #050505",
"U@	c #141417",
"V@	c #E2E1FE",
"W@	c #C8C7EF",
"X@	c #C1C0EE",
"Y@	c #B9B8EE",
"Z@	c #9795EA",
"`@	c #8D8CE8",
" #	c #8483E7",
".#	c #605DE3",
"+#	c #5957E0",
"@#	c #6563E5",
"##	c #9A99EA",
"$#	c #A1A1EB",
"%#	c #B8B8F5",
"&#	c #22212C",
"*#	c #444450",
"=#	c #D0D0F4",
"-#	c #CAC9EF",
";#	c #C6C6EF",
">#	c #9391E9",
",#	c #8989E8",
"'#	c #6F6DE5",
")#	c #504FCD",
"!#	c #5A58D0",
"~#	c #6765DD",
"{#	c #7C7BE7",
"]#	c #8584E7",
"^#	c #AFAEEF",
"/#	c #404056",
"(#	c #7B7A97",
"_#	c #C2C2EF",
":#	c #BEBCEE",
"<#	c #B8B8EE",
"[#	c #8584E8",
"}#	c #7D7CE7",
"|#	c #6360E4",
"1#	c #4E4CCC",
"2#	c #5553CC",
"3#	c #5D5CCE",
"4#	c #6765D1",
"5#	c #6F6ED5",
"6#	c #7B7ADD",
"7#	c #8584E2",
"8#	c #9998EC",
"9#	c #A09FEC",
"0#	c #68678F",
"a#	c #8382A9",
"b#	c #BAB9EF",
"c#	c #B8B6ED",
"d#	c #B4B4ED",
"e#	c #B1AFED",
"f#	c #9896EA",
"g#	c #5653E3",
"h#	c #4A49CA",
"i#	c #514FC9",
"j#	c #6362E3",
"k#	c #6D6BE6",
"l#	c #7371E3",
"m#	c #7876DF",
"n#	c #7C7ADA",
"o#	c #7D7CD1",
"p#	c #8281CF",
"q#	c #8A89D3",
"r#	c #9191D7",
"s#	c #8E8DCB",
"t#	c #7877A2",
"u#	c #B0B0EF",
"v#	c #ABABEC",
"w#	c #8381E7",
"x#	c #4645C9",
"y#	c #4D4BC8",
"z#	c #5553CA",
"A#	c #6362DB",
"B#	c #706EE6",
"C#	c #8C8BE9",
"D#	c #9391EA",
"E#	c #9E9DED",
"F#	c #4A496C",
"G#	c #9190CF",
"H#	c #A2A1EB",
"I#	c #4442CB",
"J#	c #4846C4",
"K#	c #4E4DC4",
"L#	c #5453C2",
"M#	c #5E5CCA",
"N#	c #706FE4",
"O#	c #7E7EE7",
"P#	c #8583E7",
"Q#	c #8B89E8",
"R#	c #9594E6",
"S#	c #050508",
"T#	c #2C2B41",
"U#	c #9E9DF2",
"V#	c #9695E9",
"W#	c #6E6DE5",
"X#	c #4745E2",
"Y#	c #4D4BDE",
"Z#	c #504ED2",
"`#	c #514FC4",
" $	c #5552BF",
".$	c #5957BE",
"+$	c #6866D2",
"@$	c #7F7DE8",
"#$	c #6564A2",
"$$	c #525287",
"%$	c #8F8EEB",
"&$	c #615FE4",
"*$	c #413FE0",
"=$	c #5856E4",
"-$	c #5C5ADD",
";$	c #5C5BD1",
">$	c #5C5BC4",
",$	c #5B5ABA",
"'$	c #6462C2",
")$	c #6D6CCC",
"!$	c #7674D5",
"~$	c #817FE4",
"{$	c #8786EA",
"]$	c #8E8CF2",
"^$	c #020204",
"/$	c #8785EC",
"($	c #3D3ADF",
"_$	c #3C3ADF",
":$	c #4441E0",
"<$	c #6A68E5",
"[$	c #6967DA",
"}$	c #6665CC",
"|$	c #6160BB",
"1$	c #5C5BAE",
"2$	c #6361B6",
"3$	c #6F6ECA",
"4$	c #0E0E1A",
"5$	c #6F6ECC",
"6$	c #7B79E6",
"7$	c #3734DF",
"8$	c #6764E4",
"9$	c #706EE7",
"0$	c #706EE2",
"a$	c #4A4992",
"b$	c #17172D",
"c$	c #2F2E5A",
"d$	c #7674E9",
"e$	c #6261E4",
"f$	c #3F3CE0",
"g$	c #3835DF",
"h$	c #302EDE",
"i$	c #5F5DE3",
"j$	c #6967E4",
"k$	c #373576",
"l$	c #413F89",
"m$	c #212045",
"n$	c #5250AC",
"o$	c #312FDE",
"p$	c #2A27DD",
"q$	c #2A28DD",
"r$	c #524FE2",
"s$	c #6462E5",
"t$	c #4746A5",
"u$	c #20204C",
"v$	c #3F3D90",
"w$	c #6564E9",
"x$	c #4D4AE1",
"y$	c #2320DD",
". + @ # $ % & * = - ; > , ' ) ! ~ { ] ^ / ( _ : < [ } | 1 2 3 4 ",
"+ 5 6 7 8 | 9 0 ; a ' b c d e f g h i j k l m n o p q r s t u 3 ",
"v 6 w x y z q A ' b l B C D E F G H I J K L M N O P Q R S T U 2 ",
"V 7 W X r R _ n l Y Z `  .E E ..+.@.#.$.%.&.*.=.M l ^ , -.;.s 1 ",
">.,.'.r R , ).N !.~.{.].^./.E (._.:.<.[.}.|.1.{.2.3.N ).o 4.S '.",
"5.6.= R , b 7.8.9.0.a.b.c.d.E e.f.g.h.E E i.j.k.l.m.L N b n.< 9 ",
"o.} q _ ).7.Z p.q.r.c.s.t.u.v.w.E x.y.E E E E z.A.B.C.D.E.n A F.",
"G.[ > H.E.L I.J.K.L.M.N.O.P.Q.R.E E E E E E E S.T.r.0.*.U.V.( R ",
"9 R ( V.U.W.X.K.Y.Z.`. +.+++E @+E E E E E E E #+$+%+&+*+=+-+).Q ",
"F.;+b >+=+,+r.'+Z.)+!+~+{+]+^+E E E E E E /+(+_+:+<+[+}+I.!.l |+",
"R ( 1+2+{.3+4+5+`.!+6+7+8+E E E E E E E E E 9+0+a+b+Y.r.c+K k H.",
"p n d+G l.e+f+:+g+h+i+j+k+E E E E E E E l+E E m+n+o+p+q+r+*.s+t+",
"_ u+v+C.w+4+x+a+y+z+A+B+E E E E E E C+D+E+F+G+E E H+I+J+K+L+!.M+",
"|+l 8.N+O+Y.P+g+~+Q+R+E E E E E E E S+T+U+V+W+X+E E Y+Z+`+ @.@1+",
"' E.K ,+e+s.+@@@#@A+$@E E E E E E %@&@*@=@-@;@>@,@'@)@E E !@~@{@",
"/ 7.~.X.q+$+`.]@z+^@/@E E E E E (@_@:@<@[@}@|@1@#@@@2@3@4@5@6@7@",
"8@>+2.$.[+9@)+0@a@b@c@E E E E E d@e@f@<@[@}@|@g@#@h@i@j@k@l@m@l ",
"8@>+2.$.[+$+)+y+n@o@p@E E E E E q@r@s@*@=@t@u@v@w@ +:+Y.x@&.L 1+",
"n y@~.X.q+z@A@]@B@C@D@E E E E E E@F@G@H@I@J@K@L@M@N@O@c.a.p.U.P@",
"P N =+,+Q@f+N.R@w@v@S@T@E E E U@V@*@H@W@X@Y@1@B@y+Z@`@ #r+*.B .#",
"+#@#Z N+O+'+b+##$#a@%#&#E E E *#=#-#;#X@|@o@i+h+g+>#,#Q@,+'#N P ",
")#!#~#C.{#]#9@`.!+6+^#/#E E E (#_#X@:#<#o@Q+6+@@`.5+[#}#C.3.|#o ",
"1#2#3#4#5#6#7#O@8#9#6+0#E E E a#b#c#d#e#i+6+]@f#Z.L.r.,+=+d+n g#",
"h#i#j#k#l#m#n#o#p#q#r#s#E E E E t#u#v#B@M@@@f#b+j@w#$.W.U.V.|+< ",
"x#y#z#A#B#N+a.4+C#D#8#E#F#E E E E G#H#]@g+`.Z.j@b.{#p.8.N n p ;.",
"I#J#K#L#M#N#%.O#P#Q#Z.N.R#S#E E E T#U#V#P+`@'+w#{#&.W#d+b _ q } ",
"X#Y#Z#`# $.$+$%.@$b.T.<+x+#$E E E E $$%$j@[#r.$.p.W#-+&$|+R = 6.",
"*$9 < =$-$;$>$,$'$)$!$~${$]$^$E E E E /$x@w+*+W.8.d+&$|+; S y ($",
"_$:$r R n.n @#<$[$}$|$1$2$3$4$E E E 5$6$,+I.=+U.N b |+; S s 1 7$",
"7 1 X r < ;+/ M+8$U.9$0$a$b$E E E c$d$` '#3.d+e$n _ R S s f$g$h$",
"h$g$x X = q p |+i$V.N j$k$l$m$E E n$!.B N |#n |+p q = y 1 g$o$p$",
"q$o$w W | } ;.r$A , / i$P@s$t$u$v$w$u+i$P o g#< x$} 6.($w h$p$y$"};
