/* XPM */
static char *performous[] = {
/* columns rows colors chars-per-pixel */
"32 32 133 2",
"   c #000000",
".  c #060609",
"X  c #0A0A0B",
"o  c #0E0E12",
"O  c #121215",
"+  c #15151A",
"@  c #1C1C1C",
"#  c #171722",
"$  c #1C1C22",
"%  c #222224",
"&  c #232328",
"*  c #232335",
"=  c #2C2C32",
"-  c #27273A",
";  c #2E2E39",
":  c #323235",
">  c #34343E",
",  c #39393B",
"<  c #2F2F41",
"1  c #343446",
"2  c #3C3C44",
"3  c #3E3E4A",
"4  c #333351",
"5  c #393950",
"6  c #3A3958",
"7  c #424247",
"8  c #46464A",
"9  c #4B4B4D",
"0  c #444450",
"q  c #4B4B53",
"w  c #4C4B5F",
"e  c #545457",
"r  c #474664",
"t  c #4B4B63",
"y  c #48486F",
"u  c #5A5A63",
"i  c #5B5A69",
"p  c #4E4E78",
"a  c #5E5E78",
"s  c #626268",
"d  c #666678",
"f  c #555486",
"g  c #5D5D82",
"h  c #5B5A88",
"j  c #676783",
"k  c #66658D",
"l  c #6C6C8B",
"z  c #787880",
"x  c #7A7A8F",
"c  c #6E6E95",
"v  c #65649C",
"b  c #77779E",
"n  c #79789E",
"m  c #7776B0",
"M  c #7D7CB6",
"N  c #7E7CE7",
"B  c #807EE7",
"V  c #858593",
"C  c #85859C",
"Z  c #969698",
"A  c #908FAC",
"S  c #8787B6",
"D  c #8281BE",
"F  c #9393B3",
"G  c #9C9BB7",
"H  c #9291BE",
"J  c #9D9DB8",
"K  c #A3A3AB",
"L  c #A8A8AD",
"P  c #A4A4B3",
"I  c #A2A2BB",
"U  c #8685C2",
"Y  c #8A89C6",
"T  c #8D8CCB",
"R  c #8E8DD0",
"E  c #908FD3",
"W  c #9493D2",
"Q  c #9897D5",
"!  c #9C9BD5",
"~  c #9594DA",
"^  c #9897D9",
"/  c #A7A6C7",
"(  c #A8A7C7",
")  c #ABABC2",
"_  c #B0B0C6",
"`  c #B4B3CC",
"'  c #A3A2D7",
"]  c #ABAAD6",
"[  c #A4A3DB",
"{  c #A8A8DC",
"}  c #BDBCD3",
"|  c #B6B5DA",
" . c #BFBED8",
".. c #8483E8",
"X. c #8887E8",
"o. c #8C8BE9",
"O. c #908FE9",
"+. c #9594E2",
"@. c #9B9AE3",
"#. c #9493EA",
"$. c #9897EA",
"%. c #9C9BEB",
"&. c #A19FEB",
"*. c #A4A3E4",
"=. c #ABAAE4",
"-. c #A4A3EB",
";. c #A8A7EC",
":. c #ACABEC",
">. c #B0AFED",
",. c #B1B1E4",
"<. c #B4B3ED",
"1. c #B8B7EE",
"2. c #BCBBEE",
"3. c #C0BFE6",
"4. c #C0BFEF",
"5. c #C5C5D5",
"6. c #C4C4DC",
"7. c #CBCBDF",
"8. c #C3C3E3",
"9. c #CACAE7",
"0. c #C4C3EF",
"q. c #D7D6E8",
"w. c #C8C7F0",
"e. c #CCCBF0",
"r. c #D0CFF0",
"t. c #D4D3F1",
"y. c #D8D7F1",
"u. c #DBDBF2",
"i. c #E0DFF2",
"p. c #E2E2EE",
"a. c #E3E3F3",
"s. c #EBEBF3",
"d. c #F1F1F4",
/* pixels */
"2.0.0.0.w.w.e.t.r.t.t.t.t.t.t.9.V = x w.0.0.0.2.2.1.<.:.:.:.-.-.",
"2.0.0.w.e.t.t.t.y.t.y.y.u.} u : % + 3 e.w.e.0.2.2.2.<.<.:.:.-.-.",
"4.0.w.e.r.t.t.t.u.u.u.u.7.%   u 6.) % e.e.w.0.0.2.2.2.<.:.:.;.-.",
"0.w.w.e.r.t.t.u.u.u.i.a.5.X X q.u.y. .t.e.w.w.0.2.2.2.<.<.:.;.;.",
"w.w.e.e.t.t.u.u.u.a.a.a.s.8 X d u.u.y.` x 6.0.0.0.2.1.1.<.<.:.;.",
"w.w.e.t.t.t.u.a.a.p.a.s.s.L . @ 7 P 3 X   > 8 0.0.2.2.1.<.:.:.;.",
"w.w.e.t.t.q.u.a.p.s.s.s.s.s.e %   + %       . G 0.4.2.1.<.<.:.;.",
"w.w.e.t.t.u.u.a.s.p.s.d.d.d.7 %             . C 0.4.2.1.1.:.:.:.",
"w.e.r.r.t.u.i.i.a.s.s.d.d.Z O %               A w.4.2.2.<.>.:.:.",
"0.w.e.t.t.u.i.i.a.s.s.d.d.9 @             . 1 ( 0.0.2.1.<.<.:.;.",
"0.w.e.t.t.u.u.i.a.a.s.s.L o               . d 3.0.0.2.1.<.<.:.:.",
"0.w.e.r.t.t.u.i.i.a.a.p.,             X X     > A 2.2.1.<.>.:.;.",
"0.w.e.e.r.t.y.u.i.i.a.s             & } I i +     2 ,.<.<.:.:.;.",
"4.0.w.e.r.t.t.y.u.i.P               C t.r.e.| ; X   1 n 1 k :.;.",
"4.0.w.w.e.r.t.t.t.u.q             i q.w.w.w.w.0.] a +     < h ;.",
"2.4.0.w.e.e.r.r.t.t._           + 9.e.e.w.w.0.4.2.2.<.b 1 + 5 -.",
"2.2.4.0.0.e.e.r.r.t.J           % t.w.w.w.0.4.4.2.1.<.>.>.c -.-.",
"2.2.2.0.0.0.0.e.e.r.J           3 w.w.w.0.0.2.2.1.<.>.>.:.;.-.&.",
"<.1.2.2.0.0.0.0.0.e.(           F 0.0.0.4.2.2.1.<.<.>.:.:.-.-.&.",
"<.<.1.2.2.2.4.0.0.0.0.o       $ w.0.0.0.2.2.1.1.<.>.:.:.-.-.&.%.",
":.>.1.1.2.2.2.4.2.0.0.;       3 4.2.2.2.2.1.<.<.>.>.:.:.-.&.%.%.",
"! ' =.<.<.2.1.2.2.2.2.w       j 2.2.2.1.<.<.<.>.:.:.-.-.-.&.%.$.",
"Q Q ! ' [ =.,.<.1.2.2.j       l 2.1.1.<.<.>.>.:.:.-.-.-.&.%.$.$.",
"W Q *.:.:.=.*.' ' [ { H X     X c <.>.>.>.:.:.;.;.;.&.&.%.$.$.#.",
"E E Q &.=.:.:.>.>.<.>.<.t       . S :.:.:.;.;.;.&.&.&.%.$.$.#.#.",
"E T T T W *.:.:.:.:.:.:.! O       < =.-.;.;.-.-.&.%.%.$.$.#.O.O.",
"%.@.~ T Y Y ^ -.;.;.;.:.:.k         y -.-.&.-.%.%.%.$.$.#.O.O.o.",
"$.%.$.%.+.~ T U Y W ^ -.;.@.o       O $.-.%.%.%.$.$.#.#.O.o.o.X.",
"#.#.$.$.%.%.%.%.^ R U M D D #     X m %.%.%.$.$.#.#.O.O.O.o.X...",
"O.#.#.#.$.$.%.%.%.%.%.+.h *       6 %.$.$.$.$.O.O.O.O.o.X.X.....",
"o.O.O.#.#.#.#.$.#.#.%.+.y p -     v #.#.O.O.O.O.O.o.o.X.X.....N ",
"X.X.o.o.O.O.O.#.#.#.#.#.#.#.v 4 f #.#.#.O.O.O.o.o.X.X.....N N N "
};
