/* XPM */
static char * ultrastar_ng_xpm[] = {
"32 32 140 2",
"  	c None",
". 	c #81D000",
"+ 	c #86C61F",
"@ 	c #456216",
"# 	c #5D9700",
"$ 	c #68A800",
"% 	c #4C6B19",
"& 	c #0C1204",
"* 	c #020400",
"= 	c #0E1700",
"- 	c #477200",
"; 	c #000100",
"> 	c #21241C",
", 	c #528500",
"' 	c #71B700",
") 	c #131F00",
"! 	c #77C000",
"~ 	c #101A00",
"{ 	c #000000",
"] 	c #6C9E1C",
"^ 	c #5D9600",
"/ 	c #7CC800",
"( 	c #385A00",
"_ 	c #4E6D1C",
": 	c #70B500",
"< 	c #6CAE00",
"[ 	c #1E201C",
"} 	c #3A5E00",
"| 	c #74BB00",
"1 	c #538600",
"2 	c #263D00",
"3 	c #030400",
"4 	c #2A4400",
"5 	c #609B00",
"6 	c #74BA00",
"7 	c #395C00",
"8 	c #1C1C1C",
"9 	c #0B1200",
"0 	c #2E4A00",
"a 	c #5B9200",
"b 	c #538700",
"c 	c #1A1A1A",
"d 	c #4E8000",
"e 	c #7AC400",
"f 	c #0D1600",
"g 	c #1E1E1E",
"h 	c #4D7D00",
"i 	c #517D0B",
"j 	c #202020",
"k 	c #050505",
"l 	c #568B00",
"m 	c #84CD0C",
"n 	c #222A16",
"o 	c #020300",
"p 	c #487400",
"q 	c #80CF00",
"r 	c #568112",
"s 	c #76BF00",
"t 	c #070B00",
"u 	c #010200",
"v 	c #487500",
"w 	c #5B9300",
"x 	c #223800",
"y 	c #040600",
"z 	c #060A00",
"A 	c #3C6100",
"B 	c #79C300",
"C 	c #7ECC00",
"D 	c #2E4C00",
"E 	c #6FB300",
"F 	c #1C2D00",
"G 	c #335300",
"H 	c #78C200",
"I 	c #599000",
"J 	c #446E00",
"K 	c #548800",
"L 	c #192900",
"M 	c #71B600",
"N 	c #7BC600",
"O 	c #64A100",
"P 	c #080C00",
"Q 	c #345300",
"R 	c #598F00",
"S 	c #72B700",
"T 	c #0C1400",
"U 	c #5E9800",
"V 	c #182700",
"W 	c #1A2A00",
"X 	c #0A1000",
"Y 	c #78C300",
"Z 	c #80CE00",
"` 	c #6EB200",
" .	c #090F00",
"..	c #070C00",
"+.	c #0F1800",
"@.	c #467200",
"#.	c #1F3200",
"$.	c #6BAE00",
"%.	c #325100",
"&.	c #7ECB00",
"*.	c #4C7C00",
"=.	c #2B4600",
"-.	c #629E00",
";.	c #406600",
">.	c #73B900",
",.	c #7DCA00",
"'.	c #7BC700",
").	c #79C400",
"!.	c #74BC00",
"~.	c #76BE00",
"{.	c #080E00",
"].	c #72B800",
"^.	c #7FCC00",
"/.	c #477400",
"(.	c #609C00",
"_.	c #6FB400",
":.	c #111C00",
"<.	c #1E3000",
"[.	c #7CC700",
"}.	c #75BD00",
"|.	c #6DB100",
"1.	c #80D000",
"2.	c #010100",
"3.	c #73BA00",
"4.	c #6CAF00",
"5.	c #6DB000",
"6.	c #182800",
"7.	c #090E00",
"8.	c #69AA00",
"9.	c #68A700",
"0.	c #66A600",
"a.	c #3A5D00",
"b.	c #68A900",
"c.	c #406800",
"d.	c #7DC900",
"e.	c #3E6500",
"f.	c #2C4800",
"g.	c #243B00",
"h.	c #629F00",
"i.	c #253C00",
". . . . . . . . . . . . . . . + @ # . . . . . . . . . . . . . . ",
". . . . . . . . . . . . . $ % & * = . . . . . . . . . . . . . . ",
". . . . . . . . . . . . - ; > , ' ) ! . . . . . . . . . . . . . ",
". . . . . . . . . . . . ~ { ] . . ^ / . . . . . . . . . . . . . ",
". . . . . . . . . . . . ( { _ . . . . : . . . . . . . . . . . . ",
". . . . . . . . . . . . < * [ } | 1 2 3 4 5 6 . . . . . . . . . ",
". . . . . . . . . . . . . 7 8 { 9 0 { { { { a . . . . . . . . . ",
". . . . . . . . . . . . . b c { { { { { { { d . . . . . . . . . ",
". . . . . . . . . . . . e f g { { { { { { { h . . . . . . . . . ",
". . . . . . . . . . . . i j k { { { { { { 9 l . . . . . . . . . ",
". . . . . . . . . . . m n { { { { { { { o p q . . . . . . . . . ",
". . . . . . . . . . . r { { { { { { { { { { 0 s . . . . . . . . ",
". . . . . . . . . . < t { { { { { u v w x y { z A B . . . . . . ",
". . . . . . . . . C ) { { { { { { D . . . E F { { G H I J . . . ",
". . . . . . . . . K { { { { { { L M . . . . N O G z P { Q R . . ",
". . . . . . . . . S T { { { { { U . . . . . . . . ! v V y W C . ",
". . . . . . . . . . X { { { { u Y . . . . . . . . . . Z p ` . . ",
". . . . . . . . . .  .{ { { { ..B . . . . . . . . . . . . . . . ",
". . . . . . . . . . +.{ { { { @.. . . . . . . . . . . . . . . . ",
". . . . . . . . . . #.{ { { { $.. . . . . . . . . . . . . . . . ",
". . . . . . . . . . %.{ { { 9 / . . . . . . . . . . . . . . . . ",
"H &.. . . . . . . . *.{ { { =.. . . . . . . . . . . . . . . . . ",
"| 6 B / C . . . . . -.{ { { ;.. . . . . . . . . . . . . . . . . ",
">./ ,.'.).s !.!.s e ~.9 { { {.w . . . . . . . . . . . . . . . . ",
"].!.&.. . . . . . ^./ /.{ { { o (.. . . . . . . . . . . . . . . ",
"' : _.!.Z . . . . . . / :.{ { { <.Z . . . . . . . . . . . . . . ",
"[.}.E |.` H 1.. . . . . 5 2.{ { { 7 1.. . . . . . . . . . . . . ",
". . Z ).3.4.5.>.! [.q . . 6.{ { { 7.8.. . . . . . . . . . . . . ",
". . . . . . / ~.` 9.0.4.3.0 { { { a.q . . . . . . . . . . . . . ",
". . . . . . . . . q B b.c.* { { ~ d.. . . . . . . . . . . . . . ",
". . . . . . . . . . Z e.f.g.{ { ( . . . . . . . . . . . . . . . ",
". . . . . . . . . . . . . h.6.i.! . . . . . . . . . . . . . . . "};
