# Blender v2.68 (sub 4) OBJ File: 'arrow.blend'
# www.blender.org
mtllib arrow.mtl
o Plane
v 1.000000 -1.001035 -0.164651
v -1.000000 0.998965 -0.164651
v 0.000000 0.998965 -0.164651
v -1.000000 -0.001035 -0.164651
v 1.000000 -1.001035 -0.090754
v -0.500000 0.998965 -0.164651
v -1.000000 -0.651035 -0.164651
v 0.500000 -1.001035 -0.164651
v 0.650000 0.998965 -0.164651
v -1.000000 0.498965 -0.164651
v 1.000000 -0.501035 -0.164651
v 0.000000 0.498965 -0.164651
v 0.000000 -0.501035 -0.164651
v -0.500000 -0.001035 -0.164651
v 0.500000 -0.001035 -0.164651
v 0.650000 0.498965 -0.164651
v -0.500000 -0.651035 -0.164651
v -1.000000 0.998965 -0.090754
v 0.000000 0.998965 -0.090754
v -1.000000 -0.001035 -0.090754
v -0.500000 0.998965 -0.090754
v -1.000000 -0.651035 -0.090754
v 0.500000 -1.001035 -0.090754
v 0.650000 0.998965 -0.090754
v -1.000000 0.498965 -0.090754
v 1.000000 -0.501035 -0.090754
v 0.000000 0.498965 -0.090754
v 0.000000 -0.501035 -0.090754
v -0.500000 -0.001035 -0.090754
v 0.500000 -0.001035 -0.090754
v 0.650000 0.498965 -0.090754
v -0.500000 0.498965 0.024010
v -0.500000 -0.651035 -0.090754
v -0.750000 -1.001035 -0.164651
v -0.750000 0.998965 -0.164651
v -0.750000 0.998965 -0.090754
v -0.750000 -1.001035 -0.090754
v -0.750000 -0.001035 0.023003
v -0.750000 0.498965 0.023003
v -0.750000 -0.651035 0.023003
v 1.000000 0.748965 -0.164651
v -1.000000 0.748965 -0.164651
v 1.000000 0.748965 -0.090754
v -1.000000 0.748965 -0.090754
v 0.000000 0.748965 0.023003
v 0.650000 0.748965 0.023003
v -0.500000 0.748965 0.023003
v -0.750000 0.748965 0.023003
v 0.750000 -1.001035 -0.090754
v 1.000000 -0.751035 -0.090754
v 0.250000 -0.001035 0.024010
v 0.250000 -0.751035 -0.090754
v 0.000000 0.248965 0.024010
v 0.000000 -0.251035 0.024010
v -0.250000 -0.001035 0.024010
v 0.750000 -0.251035 -0.090754
v 0.250000 0.248965 -0.090754
v -0.500000 0.248965 0.024010
v -0.250000 0.498965 0.024010
v -0.250000 -0.251035 -0.090754
v 0.500000 -0.251035 0.024010
v 0.500000 -0.751035 0.024010
v 0.250000 -0.501035 0.024010
v 0.750000 -0.501035 0.024010
v 0.750000 -0.751035 0.024010
vt 0.625096 0.437338
vt 0.749955 0.437346
vt 0.750286 0.499449
vt 0.912272 0.437357
vt 0.912603 0.499460
vt 0.875112 0.000021
vt 0.874786 0.062780
vt 0.812687 0.062446
vt 0.875128 0.249739
vt 0.874795 0.187639
vt 0.937554 0.187314
vt 0.562666 0.437334
vt 0.625427 0.499441
vt 0.625089 0.374911
vt 0.562662 0.374904
vt 0.625084 0.312482
vt 0.562643 0.087728
vt 0.625399 0.087406
vt 0.625410 0.249723
vt 0.999975 0.062459
vt 0.999979 0.124888
vt 0.937220 0.125214
vt 0.937541 0.000025
vt 0.937216 0.062784
vt 0.519186 0.561893
vt 0.519378 0.624327
vt 0.500923 0.624383
vt 0.540246 0.586923
vt 0.539748 0.749250
vt 0.521293 0.749194
vt 0.560118 0.874061
vt 0.541663 0.874117
vt 0.541472 0.811684
vt 0.598176 0.499460
vt 0.598674 0.661787
vt 0.580220 0.661844
vt 0.559352 0.624327
vt 0.540897 0.624383
vt 0.540705 0.561950
vt 0.539365 0.874117
vt 0.520910 0.874061
vt 0.578955 0.624327
vt 0.560501 0.624383
vt 0.560309 0.561950
vt 0.519761 0.749194
vt 0.501306 0.749250
vt 0.912594 0.374601
vt 1.000000 0.437036
vt 0.580488 0.749250
vt 0.520259 0.911521
vt 0.501804 0.911577
vt 0.579722 0.874061
vt 0.561267 0.874117
vt 0.561075 0.811684
vt 0.539173 0.936551
vt 0.538982 0.998984
vt 0.520527 0.998927
vt 0.579338 0.749194
vt 0.560884 0.749250
vt 0.560692 0.686817
vt 0.617665 0.586867
vt 0.618163 0.749194
vt 0.599708 0.749250
vt 0.559735 0.749194
vt 0.541280 0.749250
vt 0.541089 0.686817
vt 0.500563 0.437003
vt 0.562997 0.499437
vt 0.500551 0.249714
vt 0.562654 0.250045
vt 0.500540 0.087397
vt 0.520719 0.936494
vt 0.521791 0.586867
vt 0.522059 0.499460
vt 0.687518 0.374916
vt 0.750278 0.374590
vt 0.518995 0.499460
vt 0.500732 0.561950
vt 0.500559 0.374573
vt 0.562964 0.000000
vt 0.599210 0.586923
vt 0.598942 0.499517
vt 0.520527 0.998928
vt 0.812361 0.125205
vt 0.750261 0.124872
vt 0.812369 0.250065
vt 0.749935 0.187631
vt 0.749944 0.312490
vt 0.812703 0.312165
vt 0.687510 0.250056
vt 0.687836 0.187297
vt 0.999971 0.000029
vt 0.579722 0.499517
vt 0.558969 0.499460
vt 0.540514 0.499517
vt 0.578572 0.499460
vt 0.560118 0.499517
vt 0.500567 0.499433
vt 0.617397 0.499460
vt 0.500540 0.499517
vt 0.598942 0.749194
vt 0.502072 0.998984
vn 0.000000 0.414166 0.910201
vn -0.385032 -0.385032 0.838749
vn 0.385032 0.385032 0.838749
vn -0.004029 0.000000 0.999992
vn 0.414166 0.000000 0.910201
vn 0.417197 0.000000 0.908816
vn 0.000000 -0.417197 0.908816
vn -1.000000 0.000000 -0.000000
vn -0.000000 1.000000 0.000000
vn 0.000000 -1.000000 0.000000
vn -0.707107 -0.707107 -0.000000
vn 1.000000 -0.000000 0.000000
vn 0.283680 -0.397151 0.872810
vn 0.581238 -0.813733 0.000000
vn 0.707107 0.707107 -0.000000
vn -0.382646 0.382646 0.840931
vn -0.414166 0.000000 0.910201
vn 0.581238 0.813733 0.000000
vn 0.000000 0.004029 0.999992
vn 0.000000 -0.414166 0.910201
vn -0.004029 0.004029 0.999984
vn 0.283680 0.397152 0.872810
vn 0.397151 -0.283680 0.872810
vn 0.813733 -0.581238 0.000000
vn -0.813733 -0.581238 0.000000
vn -0.397151 -0.283680 0.872810
vn -0.000000 0.000000 1.000000
vn 0.385032 -0.385032 0.838749
vn 0.382148 -0.385532 0.839838
vn 0.385532 -0.382148 0.839838
usemtl Material
s off
f 47/1/1 45/2/1 19/3/1
f 45/2/1 46/4/1 24/5/1
f 23/6/2 62/7/2 52/8/2
f 30/9/3 61/10/3 56/11/3
f 48/12/1 47/1/1 21/13/1
f 32/14/4 39/15/4 58/16/4
f 40/17/5 33/18/5 29/19/5
f 50/20/6 26/21/6 64/22/6
f 23/6/7 49/23/7 65/24/7
f 42/25/8 10/26/8 25/27/8
f 9/28/9 3/29/9 19/30/9
f 1/31/10 5/32/10 49/33/10
f 12/34/10 16/35/10 31/36/10
f 13/37/11 28/38/11 60/39/11
f 3/29/9 6/40/9 21/41/9
f 11/42/12 26/43/12 50/44/12
f 10/26/8 4/45/8 20/46/8
f 31/47/13 43/48/13 46/4/13
f 31/36/14 16/35/14 43/49/14
f 4/45/8 7/50/8 22/51/8
f 12/52/15 27/53/15 57/54/15
f 35/55/9 2/56/9 18/57/9
f 15/58/15 30/59/15 56/60/15
f 17/61/12 14/62/12 29/63/12
f 8/64/11 23/65/11 52/66/11
f 44/67/16 48/12/16 36/68/16
f 20/69/17 38/70/17 39/15/17
f 22/71/17 40/17/17 38/70/17
f 6/40/9 35/55/9 36/72/9
f 24/73/18 43/74/18 9/28/18
f 32/14/19 59/75/19 47/1/19
f 27/76/20 31/47/20 46/4/20
f 39/15/21 32/14/21 47/1/21
f 2/77/8 42/25/8 44/78/8
f 46/4/22 43/48/22 24/5/22
f 25/79/17 39/15/17 48/12/17
f 40/17/23 37/80/23 33/18/23
f 33/81/24 37/82/24 17/61/24
f 22/51/25 7/50/25 34/83/25
f 40/17/26 22/71/26 37/80/26
f 52/8/2 63/84/2 28/85/2
f 52/8/2 62/7/2 63/84/2
f 65/24/27 64/22/27 62/7/27
f 56/11/3 64/22/3 26/21/3
f 56/11/3 61/10/3 64/22/3
f 61/10/27 63/84/27 62/7/27
f 63/84/27 61/10/27 51/86/27
f 28/85/2 63/84/2 54/87/2
f 30/9/3 51/86/3 61/10/3
f 53/88/3 57/89/3 27/76/3
f 53/88/3 51/86/3 57/89/3
f 51/86/3 30/9/3 57/89/3
f 54/87/27 51/86/27 53/88/27
f 55/90/27 53/88/27 59/75/27
f 32/14/27 58/16/27 59/75/27
f 54/87/2 60/91/2 28/85/2
f 54/87/2 55/90/2 60/91/2
f 55/90/2 29/19/2 60/91/2
f 27/76/3 59/75/3 53/88/3
f 29/19/2 55/90/2 58/16/2
f 49/23/27 5/92/27 50/20/27
f 58/16/4 39/15/4 38/70/4
f 45/2/19 47/1/19 59/75/19
f 21/13/1 47/1/1 19/3/1
f 19/3/1 45/2/1 24/5/1
f 36/68/1 48/12/1 21/13/1
f 38/70/5 40/17/5 29/19/5
f 65/24/6 50/20/6 64/22/6
f 62/7/7 23/6/7 65/24/7
f 44/78/8 42/25/8 25/27/8
f 24/73/9 9/28/9 19/30/9
f 8/64/10 1/31/10 49/33/10
f 23/65/10 8/64/10 49/33/10
f 27/93/10 12/34/10 31/36/10
f 14/94/11 13/37/11 60/39/11
f 29/95/11 14/94/11 60/39/11
f 19/30/9 3/29/9 21/41/9
f 1/96/12 11/42/12 50/44/12
f 5/97/12 1/96/12 50/44/12
f 25/27/8 10/26/8 20/46/8
f 20/46/8 4/45/8 22/51/8
f 15/58/15 12/52/15 57/54/15
f 30/59/15 15/58/15 57/54/15
f 36/72/9 35/55/9 18/57/9
f 11/42/15 15/58/15 56/60/15
f 26/43/15 11/42/15 56/60/15
f 33/81/12 17/61/12 29/63/12
f 13/37/11 8/64/11 52/66/11
f 28/38/11 13/37/11 52/66/11
f 18/98/27 44/67/27 36/68/27
f 25/79/17 20/69/17 39/15/17
f 20/69/17 22/71/17 38/70/17
f 21/41/9 6/40/9 36/72/9
f 37/82/24 34/99/24 17/61/24
f 45/2/20 27/76/20 46/4/20
f 48/12/27 39/15/27 47/1/27
f 18/100/8 2/77/8 44/78/8
f 44/67/17 25/79/17 48/12/17
f 16/35/14 41/101/14 43/49/14
f 37/102/25 22/51/25 34/83/25
f 64/22/27 61/10/27 62/7/27
f 54/87/27 63/84/27 51/86/27
f 55/90/27 54/87/27 53/88/27
f 58/16/27 55/90/27 59/75/27
f 65/24/28 49/23/28 50/20/28
f 29/19/29 58/16/29 38/70/29
f 27/76/30 45/2/30 59/75/30
f 43/74/18 41/95/18 9/28/18
