# Blender v2.68 (sub 4) OBJ File: 'arrowoutline.blend'
# www.blender.org
mtllib arrowoutline.mtl
o Plane.001
v 1.020250 -1.018005 -0.037248
v -0.979750 0.981995 -0.037248
v 0.020250 0.981995 -0.037248
v -0.979750 -0.018005 -0.037248
v -0.479750 0.981995 -0.037248
v -0.979750 -0.668005 -0.037248
v 0.520250 -1.018005 -0.037248
v 0.670250 0.981995 -0.037248
v -0.979750 0.481995 -0.037248
v 1.020250 -0.518005 -0.037248
v 0.020250 0.481995 -0.037248
v 0.020250 -0.518005 -0.037248
v -0.479750 -0.018005 -0.037248
v 0.520250 -0.018005 -0.037248
v 0.670250 0.481995 -0.037248
v -0.479750 -0.668005 -0.037248
v -0.729750 0.981995 -0.037248
v -0.729750 -1.018005 -0.037248
v 1.020250 0.731995 -0.037248
v -0.979750 0.731995 -0.037248
v 0.770250 -1.018005 -0.037248
v 1.020250 -0.768005 -0.037248
v 0.270250 -0.768005 -0.037248
v 0.770250 -0.268005 -0.037248
v 0.270250 0.231995 -0.037248
v -0.229750 -0.268005 -0.037248
v 1.110100 -1.107855 -0.037248
v -1.069945 1.072190 -0.037248
v 0.020077 1.072190 -0.037248
v -1.069945 -0.017832 -0.037248
v -0.524934 1.072190 -0.037248
v -1.069945 -0.726347 -0.037248
v 0.484505 -1.107855 -0.037248
v 0.671635 1.072612 -0.037248
v -1.069945 0.527179 -0.037248
v 1.111366 -0.491120 -0.037248
v 0.187572 0.422125 -0.037248
v -0.017894 -0.588158 -0.037248
v -0.384863 -0.217392 -0.037248
v 0.596731 0.019717 -0.037248
v 0.665307 0.421704 -0.037248
v -0.381487 -0.666859 -0.037248
v -0.797440 1.072190 -0.037248
v -0.738373 -1.141607 -0.037248
v 1.120226 0.730071 -0.037248
v -1.069945 0.799685 -0.037248
v 0.837594 -1.107855 -0.037248
v 1.110100 -0.835349 -0.037248
v 0.246174 -0.852225 -0.037248
v 0.858689 -0.239710 -0.037248
v 0.316631 0.295598 -0.037248
v -0.278586 -0.323246 -0.037248
v 1.020250 -1.018005 0.042305
v -0.979750 0.981995 0.042305
v 0.020250 0.981995 0.042305
v -0.979750 -0.018005 0.042305
v -0.479750 0.981995 0.042305
v -0.979750 -0.668005 0.042305
v 0.520250 -1.018005 0.042305
v 0.670250 0.981995 0.042305
v -0.979750 0.481995 0.042305
v 1.020250 -0.518005 0.042305
v 0.020250 0.481995 0.042305
v 0.020250 -0.518005 0.042305
v -0.479750 -0.018005 0.042305
v 0.520250 -0.018005 0.042305
v 0.670250 0.481995 0.042305
v -0.479750 -0.668005 0.042305
v -0.729750 0.981995 0.042305
v -0.729750 -1.018005 0.042305
v 1.020250 0.731995 0.042305
v -0.979750 0.731995 0.042305
v 0.770250 -1.018005 0.042305
v 1.020250 -0.768005 0.042305
v 0.270250 -0.768005 0.042305
v 0.770250 -0.268005 0.042305
v 0.270250 0.231995 0.042305
v -0.229750 -0.268005 0.042305
v 1.110100 -1.107855 0.042305
v -1.069945 1.072190 0.042305
v 0.020077 1.072190 0.042305
v -1.069945 -0.017832 0.042305
v -0.524934 1.072190 0.042305
v -1.069945 -0.726347 0.042305
v 0.484505 -1.107855 0.042305
v 0.671635 1.072612 0.042305
v -1.069945 0.527179 0.042305
v 1.111366 -0.491120 0.042305
v 0.187572 0.422125 0.042305
v -0.017894 -0.588158 0.042305
v -0.384863 -0.217392 0.042305
v 0.596731 0.019717 0.042305
v 0.665307 0.421704 0.042305
v -0.381487 -0.666859 0.042305
v -0.797440 1.072190 0.042305
v -0.738373 -1.141607 0.042305
v 1.120226 0.730071 0.042305
v -1.069945 0.799685 0.042305
v 0.837594 -1.107855 0.042305
v 1.110100 -0.835349 0.042305
v 0.246174 -0.852225 0.042305
v 0.858689 -0.239710 0.042305
v 0.316631 0.295598 0.042305
v -0.278586 -0.323246 0.042305
vn 0.000000 -0.000000 -1.000000
vn -0.000000 0.000000 1.000000
vn 1.000000 0.000000 0.000000
vn -0.705699 -0.708512 -0.000000
vn -0.000647 1.000000 0.000000
vn -0.707107 -0.707107 -0.000000
vn 0.999993 -0.003677 0.000000
vn 0.707107 0.707107 0.000000
vn 0.561093 -0.827753 0.000000
vn -1.000000 0.000000 0.000000
vn -0.813734 0.581238 0.000000
vn -0.000000 1.000000 0.000000
vn -0.731420 -0.681927 -0.000000
vn -0.000000 -1.000000 -0.000000
vn 0.813734 0.581238 0.000000
vn 0.703665 0.710531 -0.000000
vn 0.606893 0.794784 0.000000
vn 0.705330 0.708880 0.000000
vn 0.701721 0.712452 0.000000
vn 0.700069 0.714076 0.000000
vn -0.581238 0.813733 0.000000
vn -0.712760 -0.701408 -0.000000
vn 0.799333 -0.600888 0.000000
vn -0.000883 -1.000000 -0.000000
vn -0.781452 -0.623965 -0.000000
vn 0.999972 0.007509 0.000000
vn -0.581238 -0.813733 -0.000000
vn 0.813733 0.581238 0.000000
vn 0.703665 0.710532 0.000000
vn -0.581238 0.813734 0.000000
usemtl glass
s off
f 6//1 18//1 32//1
f 23//1 49//1 38//1
f 20//1 9//1 35//1
f 8//1 3//1 29//1
f 5//1 31//1 29//1
f 17//1 43//1 31//1
f 25//1 51//1 14//1
f 20//1 46//1 2//1
f 13//1 26//1 39//1
f 23//1 7//1 49//1
f 17//1 2//1 43//1
f 15//1 41//1 37//1
f 21//1 47//1 33//1
f 24//1 50//1 10//1
f 16//1 42//1 18//1
f 9//1 4//1 30//1
f 8//1 34//1 19//1
f 6//1 32//1 30//1
f 26//1 12//1 52//1
f 22//1 48//1 1//1
f 15//1 19//1 41//1
f 24//1 14//1 40//1
f 21//1 1//1 47//1
f 16//1 13//1 39//1
f 22//1 10//1 36//1
f 25//1 11//1 37//1
f 58//2 84//2 70//2
f 75//2 64//2 90//2
f 72//2 98//2 87//2
f 60//2 86//2 81//2
f 57//2 55//2 81//2
f 69//2 57//2 83//2
f 77//2 66//2 103//2
f 72//2 54//2 98//2
f 104//2 78//2 91//2
f 75//2 101//2 59//2
f 69//2 95//2 54//2
f 67//2 63//2 89//2
f 73//2 59//2 85//2
f 76//2 62//2 102//2
f 68//2 70//2 94//2
f 61//2 87//2 82//2
f 60//2 71//2 86//2
f 58//2 56//2 82//2
f 78//2 104//2 64//2
f 74//2 53//2 100//2
f 67//2 93//2 71//2
f 76//2 102//2 92//2
f 73//2 99//2 53//2
f 68//2 94//2 91//2
f 74//2 100//2 88//2
f 77//2 103//2 89//2
f 20//3 2//3 54//3
f 39//4 52//4 104//4
f 20//3 72//3 61//3
f 29//5 81//5 86//5
f 25//6 77//6 63//6
f 36//7 88//7 100//7
f 26//8 78//8 64//8
f 45//9 97//9 93//9
f 22//10 1//10 53//10
f 16//11 18//11 70//11
f 30//10 82//10 87//10
f 15//12 11//12 63//12
f 33//13 85//13 101//13
f 28//12 80//12 95//12
f 5//14 3//14 55//14
f 31//12 43//12 95//12
f 6//15 58//15 70//15
f 38//6 49//6 101//6
f 16//10 68//10 65//10
f 40//16 92//16 102//16
f 27//14 79//14 99//14
f 6//3 4//3 56//3
f 45//17 34//17 86//17
f 21//12 7//12 59//12
f 36//18 50//18 102//18
f 40//19 51//19 92//19
f 26//8 13//8 65//8
f 28//10 46//10 98//10
f 8//14 60//14 55//14
f 35//10 87//10 98//10
f 22//10 74//10 62//10
f 37//20 89//20 103//20
f 15//21 67//21 71//21
f 38//22 90//22 104//22
f 27//3 48//3 100//3
f 9//3 61//3 56//3
f 44//23 42//23 96//23
f 23//8 75//8 59//8
f 17//14 69//14 54//14
f 37//24 41//24 93//24
f 17//14 5//14 57//14
f 29//12 31//12 83//12
f 23//8 12//8 75//8
f 44//25 96//25 84//25
f 24//6 76//6 66//6
f 21//12 73//12 53//12
f 39//26 91//26 94//26
f 8//27 19//27 71//27
f 30//10 32//10 84//10
f 24//6 10//6 62//6
f 33//14 47//14 99//14
f 25//6 14//6 66//6
f 18//1 44//1 32//1
f 12//1 23//1 38//1
f 46//1 20//1 35//1
f 34//1 8//1 29//1
f 3//1 5//1 29//1
f 5//1 17//1 31//1
f 51//1 40//1 14//1
f 46//1 28//1 2//1
f 42//23 94//23 96//23
f 7//1 33//1 49//1
f 2//1 28//1 43//1
f 11//1 15//1 37//1
f 7//1 21//1 33//1
f 50//1 36//1 10//1
f 42//1 44//1 18//1
f 35//1 9//1 30//1
f 34//1 45//1 19//1
f 4//1 6//1 30//1
f 12//1 38//1 52//1
f 48//1 27//1 1//1
f 19//1 45//1 41//1
f 50//1 24//1 40//1
f 1//1 27//1 47//1
f 42//1 16//1 39//1
f 48//1 22//1 36//1
f 51//1 25//1 37//1
f 84//2 96//2 70//2
f 101//2 75//2 90//2
f 61//2 72//2 87//2
f 55//2 60//2 81//2
f 83//2 57//2 81//2
f 95//2 69//2 83//2
f 66//2 92//2 103//2
f 54//2 80//2 98//2
f 26//1 52//1 39//1
f 101//2 85//2 59//2
f 95//2 80//2 54//2
f 93//2 67//2 89//2
f 99//2 73//2 85//2
f 62//2 88//2 102//2
f 70//2 96//2 94//2
f 56//2 61//2 82//2
f 71//2 97//2 86//2
f 84//2 58//2 82//2
f 104//2 90//2 64//2
f 53//2 79//2 100//2
f 93//2 97//2 71//2
f 66//2 76//2 92//2
f 99//2 79//2 53//2
f 65//2 68//2 91//2
f 62//2 74//2 88//2
f 63//2 77//2 89//2
f 72//3 20//3 54//3
f 91//4 39//4 104//4
f 9//3 20//3 61//3
f 34//5 29//5 86//5
f 11//6 25//6 63//6
f 48//7 36//7 100//7
f 12//8 26//8 64//8
f 41//9 45//9 93//9
f 74//10 22//10 53//10
f 68//11 16//11 70//11
f 35//10 30//10 87//10
f 67//12 15//12 63//12
f 49//13 33//13 101//13
f 43//12 28//12 95//12
f 57//14 5//14 55//14
f 83//12 31//12 95//12
f 18//28 6//28 70//28
f 90//6 38//6 101//6
f 13//10 16//10 65//10
f 50//29 40//29 102//29
f 47//14 27//14 99//14
f 58//3 6//3 56//3
f 97//17 45//17 86//17
f 73//12 21//12 59//12
f 88//18 36//18 102//18
f 12//8 64//8 75//8
f 78//8 26//8 65//8
f 80//10 28//10 98//10
f 3//14 8//14 55//14
f 46//10 35//10 98//10
f 10//10 22//10 62//10
f 51//20 37//20 103//20
f 19//30 15//30 71//30
f 52//22 38//22 104//22
f 79//3 27//3 100//3
f 4//3 9//3 56//3
f 51//19 103//19 92//19
f 7//8 23//8 59//8
f 2//14 17//14 54//14
f 89//24 37//24 93//24
f 69//14 17//14 57//14
f 81//12 29//12 83//12
f 32//25 44//25 84//25
f 14//6 24//6 66//6
f 1//12 21//12 53//12
f 42//26 39//26 94//26
f 60//27 8//27 71//27
f 82//10 30//10 84//10
f 76//6 24//6 62//6
f 85//14 33//14 99//14
f 77//6 25//6 66//6
f 78//2 65//2 91//2
