<?xml version="1.0" encoding="UTF-8" standalone="no"?>
<svg
   xmlns:dc="http://purl.org/dc/elements/1.1/"
   xmlns:cc="http://creativecommons.org/ns#"
   xmlns:rdf="http://www.w3.org/1999/02/22-rdf-syntax-ns#"
   xmlns:svg="http://www.w3.org/2000/svg"
   xmlns="http://www.w3.org/2000/svg"
   xmlns:xlink="http://www.w3.org/1999/xlink"
   xmlns:sodipodi="http://sodipodi.sourceforge.net/DTD/sodipodi-0.dtd"
   xmlns:inkscape="http://www.inkscape.org/namespaces/inkscape"
   width="291.42856"
   height="256.31427"
   id="svg2"
   sodipodi:version="0.32"
   inkscape:version="1.0.1 (c497b03c, 2020-09-10)"
   sodipodi:docname="band_cover.svg"
   inkscape:output_extension="org.inkscape.output.svg.inkscape"
   version="1.0">
  <defs
     id="defs4">
    <inkscape:perspective
       sodipodi:type="inkscape:persp3d"
       inkscape:vp_x="0 : 128.31427 : 1"
       inkscape:vp_y="0 : 1000 : 0"
       inkscape:vp_z="256 : 128.31427 : 1"
       inkscape:persp3d-origin="128 : 85.647603 : 1"
       id="perspective17" />
    <linearGradient
       id="linearGradient3751"
       inkscape:collect="always">
      <stop
         id="stop3753"
         offset="0"
         style="stop-color:black;stop-opacity:1;" />
      <stop
         id="stop3755"
         offset="1"
         style="stop-color:black;stop-opacity:0;" />
    </linearGradient>
    <linearGradient
       inkscape:collect="always"
       xlink:href="#linearGradient3751"
       id="linearGradient3484"
       gradientUnits="userSpaceOnUse"
       gradientTransform="matrix(0.336682,0,0,0.336682,-81.3739,-51.8729)"
       x1="665.12128"
       y1="684.16162"
       x2="381.28015"
       y2="449.80624" />
  </defs>
  <sodipodi:namedview
     id="base"
     pagecolor="#ffffff"
     bordercolor="#666666"
     borderopacity="1.0"
     inkscape:pageopacity="0.0"
     inkscape:pageshadow="2"
     inkscape:zoom="1.1191406"
     inkscape:cx="-40.901028"
     inkscape:cy="71.112672"
     inkscape:document-units="px"
     inkscape:current-layer="layer1"
     inkscape:window-width="1144"
     inkscape:window-height="785"
     inkscape:window-x="136"
     inkscape:window-y="23"
     showguides="true"
     inkscape:guide-bbox="true"
     width="256px"
     height="256px"
     borderlayer="false"
     showgrid="false"
     inkscape:document-rotation="0"
     inkscape:window-maximized="0" />
  <metadata
     id="metadata7">
    <rdf:RDF>
      <cc:Work
         rdf:about="">
        <dc:format>image/svg+xml</dc:format>
        <dc:type
           rdf:resource="http://purl.org/dc/dcmitype/StillImage" />
      </cc:Work>
    </rdf:RDF>
  </metadata>
  <g
     inkscape:label="Capa 1"
     inkscape:groupmode="layer"
     id="layer1"
     transform="translate(16.285721,0.93781662)">
    <rect
       style="color:#000000;display:block;overflow:visible;visibility:visible;opacity:1;fill:#ffffff;fill-opacity:0.313131;fill-rule:nonzero;stroke:#7f7f7f;stroke-width:10.014;stroke-linecap:butt;stroke-linejoin:miter;stroke-miterlimit:4;stroke-dasharray:none;stroke-dashoffset:0;stroke-opacity:1;marker:none;marker-start:none;marker-mid:none;marker-end:none"
       id="rect1906"
       width="246.30026"
       height="246.30028"
       x="4.8498545"
       y="4.0691833"
       inkscape:export-filename="/home/jesusda/docs/curro/yo/ultrastar-ng/base/theme-pod/images/no_cover.png"
       inkscape:export-xdpi="89.889648"
       inkscape:export-ydpi="89.889648" />
    <path
       style="opacity:1;fill:#171717;fill-opacity:1"
       d="m 169.41447,135.01629 c -6.0994,-0.28723 -12.07855,-2.4265 -16.92597,-6.0559 -1.51399,-1.13356 -3.71709,-3.20654 -4.85664,-4.56979 -3.47141,-4.15288 -5.55383,-8.79302 -6.29262,-14.0215 l -0.0752,-0.5321 -0.64941,0.0182 -0.64939,0.0182 -0.5924,1.70224 -0.59239,1.70224 0.013,2.33798 0.013,2.33798 1.10738,0.27511 c 1.15261,0.28635 1.56437,0.45848 1.67439,0.69993 0.0358,0.0785 0.0858,0.43546 0.11113,0.79331 l 0.0461,0.65064 -0.18022,0.0685 c -0.0991,0.0377 -0.35572,0.0601 -0.57023,0.0497 l -0.39,-0.0188 -0.0915,-0.36133 c -0.074,-0.29206 -0.11705,-0.36172 -0.22483,-0.36345 -0.22419,-0.004 -2.19557,-0.50972 -2.44349,-0.62737 -0.26945,-0.12786 -0.41985,-0.37732 -0.41985,-0.6964 0,-0.12332 -0.0239,-0.23899 -0.0531,-0.25703 -0.0753,-0.0466 -0.33233,0.0289 -0.33233,0.0975 0,0.0315 -0.92971,2.72363 -2.06602,5.98244 -1.74553,5.00596 -2.06762,5.9849 -2.07631,6.31051 -0.009,0.32191 -0.0918,0.58076 -0.50502,1.5709 -0.61982,1.48526 -0.73822,1.68819 -1.11327,1.90798 -0.53303,0.31238 -1.31849,0.2012 -1.86962,-0.26462 -0.27015,-0.22833 -0.41853,-0.51346 -0.36231,-0.69624 0.0592,-0.1925 2.06709,-5.09843 2.15034,-5.25398 0.0544,-0.10172 0.0901,-0.11145 0.19771,-0.0539 0.0722,0.0386 0.1385,0.0607 0.14731,0.049 0.009,-0.0117 0.81723,-2.33025 1.79646,-5.15235 l 1.78042,-5.13109 -0.13185,-0.14033 c -0.0725,-0.0772 -0.13184,-0.20136 -0.13184,-0.27592 0,-0.14748 0.43483,-1.41596 0.52639,-1.5356 0.031,-0.0405 0.14923,-0.0911 0.26278,-0.1126 l 0.20648,-0.039 0.75657,-2.16774 0.75657,-2.16777 -0.002,-2.03947 -0.002,-2.03946 h -0.64236 -0.64235 l -0.006,0.49782 c -0.01,0.77055 -0.0328,0.81537 -0.42774,0.83835 -0.31618,0.0184 -0.33506,0.0105 -0.3828,-0.16059 -0.0654,-0.23426 -0.0654,-2.88773 0,-3.12198 0.0477,-0.17106 0.0666,-0.17898 0.3828,-0.1606 0.39496,0.023 0.41783,0.0678 0.42774,0.83835 l 0.006,0.49783 h 0.64235 0.64236 v -2.73748 -2.73748 l -0.40147,0.0395 c -1.5539,0.15292 -2.72486,0.19503 -5.49211,0.19751 l -3.09934,0.003 -1e-5,8.02698 v 8.02699 l 0.15386,0.13088 c 0.13687,0.11643 0.15796,0.20004 0.19099,0.75718 0.0311,0.52562 0.0219,0.6263 -0.0575,0.6263 -0.0795,0 -0.0946,0.16934 -0.0946,1.06148 v 1.06146 l -0.17665,0.0683 c -0.25054,0.0968 -1.47789,0.0435 -1.71829,-0.0746 l -0.19271,-0.0947 -0.0179,-0.92357 c -0.0141,-0.72965 0.001,-0.94529 0.0741,-1.02699 0.0566,-0.0636 0.10867,-0.3261 0.13532,-0.68154 0.0522,-0.69611 0.0786,-0.80294 0.19821,-0.80294 0.0794,0 0.092,-1.11484 0.092,-8.12028 v -8.12026 l -0.46571,-0.0363 c -2.11628,-0.16517 -3.77504,-0.30656 -3.9428,-0.33606 l -0.20109,-0.0354 -0.0486,2.81601 c -0.0267,1.54879 -0.0419,4.63706 -0.0337,6.86281 0.0154,4.19906 -0.008,4.91794 -0.16298,5.04672 -0.0581,0.0482 -0.0912,0.20108 -0.0912,0.42114 v 0.34543 l -0.33724,-9.9e-4 c -0.18548,-5.3e-4 -0.37244,-0.0233 -0.41548,-0.0507 -0.13029,-0.0828 -0.1538,-1.17171 -0.18442,-8.53889 l -0.0291,-7.01683 -0.14316,-0.0306 c -0.0787,-0.0168 -0.41776,-0.0628 -0.75338,-0.10213 -0.9479,-0.11115 -3.70456,-0.556928 -4.914,-0.794638 l -1.092,-0.21463 -0.21249,0.20076 c -0.20273,0.19153 -0.23672,0.20069 -0.73872,0.1995 -1.00978,-0.0024 -1.82097,-0.39109 -1.93913,-0.92907 -0.0234,-0.10657 -0.0768,-0.19379 -0.11869,-0.19379 -0.0419,0 -0.61046,-0.16214 -1.26354,-0.36031 -0.65308,-0.19818 -1.23801,-0.37498 -1.29984,-0.39291 -0.10651,-0.03087 -0.11234,0.29072 -0.11114,6.125428 l 10e-4,6.15801 2.51997,3.60345 c 7.90113,11.29828 9.46662,13.51192 9.56762,13.52887 0.107,0.0179 2.86551,3.89281 2.92371,4.10691 0.0787,0.28944 -0.3445,0.56903 -0.85967,0.56799 -0.38517,-7.7e-4 -0.87932,-0.2241 -1.15378,-0.52144 -0.32564,-0.35279 -1.45133,-1.9939 -1.55853,-2.27216 -0.0545,-0.14132 -1.50319,-2.2659 -3.2194,-4.72128 -1.71622,-2.45539 -4.26114,-6.09588 -5.65536,-8.08998 l -2.53497,-3.62561 -0.0342,2.98326 c -0.0262,2.28892 -0.0539,3.0225 -0.11902,3.15181 -0.13482,0.26772 -0.4769,0.41305 -1.68911,0.71756 -0.98349,0.24705 -1.14662,0.27275 -1.22623,0.19315 -0.0796,-0.0796 -0.10279,-0.0401 -0.17433,0.29699 -0.0454,0.21386 -0.12245,0.42196 -0.17126,0.46248 -0.057,0.0473 -0.23996,0.0615 -0.51087,0.0398 l -0.42214,-0.0339 0.045,0.90842 c 0.0247,0.49962 0.0646,1.16434 0.0885,1.47715 0.0434,0.56582 0.0427,0.56913 -0.11961,0.63793 -0.0898,0.038 -0.37511,0.0712 -0.63409,0.0736 -0.37659,0.004 -0.48724,-0.0179 -0.55256,-0.10725 -0.10309,-0.14099 -0.19389,-1.44612 -0.10782,-1.54982 0.0402,-0.0485 0.008,-0.75134 -0.0924,-2.00083 -0.0849,-1.05937 -0.155,-2.01285 -0.15574,-2.11883 l -0.001,-0.19271 -0.46586,0.0225 c -0.5883,0.0284 -1.52858,-0.0971 -1.89054,-0.25223 l -0.277538,-0.11897 -0.0016,-0.40375 -0.0016,-0.40376 -2.41493,-1.73435 c -1.32822,-0.95389 -2.56734,-1.84281 -2.7536,-1.97537 l -0.33867,-0.24103 -5.030742,6.43973 c -2.76693,3.54185 -5.44913,6.97448 -5.96049,7.62807 -0.51134,0.6536 -1.05451,1.32442 -1.20702,1.49072 -0.17022,0.1856 -0.2773,0.36354 -0.2773,0.46078 0,0.16254 -0.08488,0.28611 -1.00243,1.45942 -0.54922,0.70231 -0.8612,1.01623 -1.16722,1.17448 -0.23632,0.12221 -0.72646,0.19111 -0.97349,0.13685 -0.26709,-0.0587 -0.58261,-0.33213 -0.58206,-0.50449 2.6e-4,-0.0823 0.57721,-0.88369 1.418,-1.96953 1.53437,-1.98155 1.65866,-2.13117 1.7325,-2.08553 0.02694,0.0167 4.18518,-5.26226 9.24054,-11.73091 l 9.191562,-11.76118 v -0.43899 c 0,-0.39837 0.01574,-0.45135 0.170248,-0.57289 0.0936,-0.0737 0.28152,-0.15171 0.41752,-0.17346 l 0.24729,-0.0395 -7.2e-4,-7.491238 -7.1e-4,-7.49126 -0.33652,-0.12847 -0.33652,-0.12847 -0.01731,-1.43721 c -0.01111,-0.92301 0.0065,-1.4659 0.04927,-1.51742 0.0366,-0.04412 0.23952,-0.12875 0.4509,-0.18806 l 0.38431,-0.10784 -10e-4,-13.598476 -0.001,-13.59848 -0.20737,-0.09636 c -0.20264,-0.09415 -0.21048,-0.11364 -0.34328,-0.8532 -0.0748,-0.41626 -0.14849,-0.76944 -0.16388,-0.78481 -0.0154,-0.01538 -1.712988,2.7608 -3.772468,6.16929 -2.05948,3.40848 -3.80601,6.24033 -3.88118,6.29297 -0.23428,0.16411 -0.60512,0.12246 -0.81961,-0.09203 -0.39565,-0.39564 -0.58123,-0.03797 3.66675,-7.06666 l 3.85451,-6.377684 -0.20268,-0.23083 c -0.68854,-0.78422 -0.75919,-2.12171 -0.17195,-3.25575 0.50877,-0.98252 1.239978,-1.63008 2.262518,-2.00373 0.14475,-0.0529 0.55023,-0.11509 0.90106,-0.13822 l 0.63787,-0.04204 5.25638,-8.69785 c 2.891,-4.78383 5.24326,-8.71096 5.22724,-8.72698 -0.016,-0.01602 -1.03525,-0.2832 -2.26496,-0.59373 -8.0587,-2.03497 -14.831428,-4.39321 -19.96474,-6.95161 -3.41639,-1.70271 -5.59085,-3.1731 -6.85528,-4.63561 -1.10501,-1.27813 -1.30979,-2.47089 -0.59206,-3.44861 0.71184,-0.96971 2.64533,-1.74476 5.35969,-2.14845 2.962132,-0.44052 7.715592,-0.48717 12.52587,-0.12293 12.37844,0.93733 28.09733,4.45912 38.92654,8.72145 6.85903,2.69968 11.18273,5.38516 12.36105,7.67757 0.83453,1.62362 -0.10114,3.00467 -2.63045,3.88246 -1.19953,0.41629 -3.28136,0.81541 -4.80056,0.92036 -0.34445,0.02379 -0.62629,0.06244 -0.62629,0.08587 0,0.02344 0.15176,0.08113 0.33724,0.12819 0.579,0.14693 2.92211,0.9329 4.03076,1.35209 7.31415,2.76545 13.20871,6.81167 14.03008,9.63067 0.20727,0.71143 0.16232,0.95324 -0.50859,2.73606 -0.33561,0.89186 -0.60997,1.64657 -0.60969,1.67714 3.3e-4,0.03055 0.97588,0.41782 2.16797,0.86059 l 2.16736,0.80502 0.0208,-0.2261 c 0.0259,-0.28083 0.11122,-0.38831 0.3082,-0.38831 0.15261,0 0.15273,-7.3e-4 0.15273,-0.79528 v -0.79528 l -0.49782,-0.05584 -0.49782,-0.05584 -0.0192,-0.29679 c -0.0246,-0.3794 -0.0376,-0.37592 1.40029,-0.37592 1.43785,0 1.4249,-0.0035 1.40027,0.37592 l -0.0192,0.29679 -0.53182,0.05722 -0.53187,0.05722 0.018,0.77731 0.018,0.7773 0.19273,0.03299 c 0.17689,0.03028 0.19426,0.05663 0.21171,0.3217 0.0187,0.28273 0.0254,0.29074 0.3212,0.38509 l 0.30213,0.09635 v 0.70572 0.70572 l -0.17665,0.08467 -0.17665,0.08466 v 1.379574 c 0,1.25514 0.0102,1.38333 0.11243,1.42133 0.0618,0.02298 0.35809,0.20076 0.6584,0.39509 1.25092,0.80945 1.13135,0.7621 1.75494,0.69525 0.34662,-0.03716 0.71289,-0.03597 0.98526,0.0032 0.49243,0.0708 0.45522,0.08638 1.61257,-0.67535 0.32727,-0.21539 0.65248,-0.40986 0.72266,-0.43213 0.12207,-0.03875 0.12762,-0.09995 0.12762,-1.40565 v -1.365134 l -0.20877,-0.09189 -0.20876,-0.09189 -0.0189,-0.57811 c -0.026,-0.79567 -0.005,-0.85257 0.34145,-0.94535 0.28371,-0.07589 0.28767,-0.08069 0.28767,-0.35084 0,-0.25512 0.0143,-0.27761 0.20877,-0.32789 l 0.20876,-0.05401 0.0179,-0.77385 0.018,-0.77386 -0.53183,-0.05722 -0.53187,-0.05722 -0.0192,-0.29645 c -0.0186,-0.28706 -0.0128,-0.29774 0.18467,-0.33723 0.26492,-0.05298 2.23056,-0.05298 2.49548,0 0.19743,0.03949 0.2033,0.05017 0.18467,0.33723 l -0.0192,0.29645 -0.52997,0.05703 -0.52992,0.05703 v 0.76399 c 0,0.67155 0.0136,0.76819 0.1124,0.79872 0.24682,0.07627 0.30646,0.1454 0.33723,0.39098 l 0.0322,0.25611 2.21084,-0.82481 c 1.21602,-0.45364 2.21939,-0.83329 2.22975,-0.84365 0.0104,-0.01036 -0.3293,-0.94251 -0.7548,-2.07147 -0.71152,-1.88772 -0.77355,-2.08726 -0.77193,-2.48362 0.003,-0.79329 0.47093,-1.65472 1.4532,-2.67652 1.51366,-1.57455 3.63631,-3.03621 6.64928,-4.57865 3.86699,-1.97965 8.85309,-3.65898 12.71857,-4.28363 1.66824,-0.2696 2.01803,-0.29763 3.69351,-0.29604 1.49455,0.0014 1.73393,0.01653 2.27717,0.14373 0.64236,0.15042 1.3076,0.42943 1.65419,0.69379 0.29237,0.22304 0.46964,0.55663 0.8836,1.66302 0.30076,0.80373 0.40299,1.00451 0.62139,1.22047 0.14374,0.14216 0.29946,0.33202 0.3461,0.42192 0.12629,0.24359 0.27128,0.85582 0.35659,1.50574 0.0676,0.51551 0.4181,1.48728 3.27944,9.09431 2.52613,6.715624 3.20376,8.579484 3.20376,8.811924 v 0.29478 l 1.11111,0.02136 c 1.22047,0.02346 1.35995,0.06274 1.57686,0.444 l 0.10624,0.18679 0.87987,4.1e-4 0.87992,4e-4 0.0194,-0.33633 c 0.0185,-0.32024 0.0321,-0.34328 0.28323,-0.48151 0.25455,-0.14008 0.26528,-0.15908 0.30513,-0.54034 0.0459,-0.43859 0.10118,-0.53773 0.33237,-0.59577 l 0.15739,-0.03949 0.0167,-3.224344 0.0166,-3.22435 0.23169,-0.05479 c 0.12997,-0.03073 0.3274,-0.03 0.44967,0.0017 l 0.21792,0.05646 0.0167,3.21619 0.0166,3.216204 0.19001,0.07869 c 0.21072,0.08728 0.2299,0.13066 0.28922,0.65307 0.0359,0.3167 0.0616,0.36845 0.19957,0.4031 0.27427,0.06884 0.41206,0.26357 0.41206,0.58247 v 0.28906 h 1.28278 c 5.73544,0 14.0952,0.54544 17.34541,1.13172 1.51255,0.27284 2.50345,0.61302 2.61241,0.89685 0.0679,0.17712 -0.0409,0.38593 -0.2693,0.51644 l -0.23083,0.13192 0.23217,0.1771 c 0.50526,0.38538 0.15876,0.77854 -0.9634,1.09302 -1.85174,0.51897 -5.97623,0.97082 -11.14478,1.22096 -2.52382,0.12214 -5.97748,0.22805 -7.43138,0.22788 l -1.10418,-1.3e-4 -0.0199,0.24088 c -0.018,0.21711 -0.0516,0.25712 -0.34052,0.40543 l -0.32055,0.16456 -0.0905,0.54203 c -0.0687,0.41167 -0.0961,1.47865 -0.11398,4.43631 l -0.0235,3.89426 0.16693,0.10939 c 0.0918,0.06015 0.22172,0.22997 0.28865,0.37737 0.11621,0.256 0.12171,0.50565 0.12304,5.5792 l 0.001,5.311236 0.26744,0.18089 c 0.46227,0.31266 0.53207,0.53225 0.55774,1.75465 0.0284,1.35253 -0.0294,1.6363 -0.41255,2.02494 -0.19516,0.19799 -0.28464,0.34348 -0.28561,0.46455 -0.002,0.25966 -0.22055,0.6964 -0.41072,0.82101 l -0.16597,0.10874 v 7.30526 7.305248 l 0.25589,0.0767 c 0.32881,0.0985 0.38643,0.21674 0.38643,0.79229 v 0.47165 l 5.08235,7.25686 c 2.79526,3.99127 6.35047,9.06727 7.90045,11.27999 1.54993,2.21272 2.86894,4.03669 2.93102,4.05324 0.16641,0.0444 2.77866,3.80818 2.77866,4.0036 0,0.24454 -0.3293,0.41356 -0.80294,0.41212 -0.45854,-0.001 -0.81473,-0.14892 -1.10136,-0.45621 -0.31087,-0.33326 -1.44283,-1.98715 -1.53317,-2.24002 -0.0441,-0.12365 -0.81059,-1.26543 -1.70314,-2.53729 -0.89259,-1.27186 -2.38924,-3.4109 -3.32587,-4.7534 -6.22011,-8.91556 -5.8008,-8.33165 -5.91352,-8.2346 -0.0994,0.0856 -2.71764,2.23468 -2.75749,2.26337 -0.0103,0.007 0.17237,0.1971 0.40603,0.42145 0.23363,0.22436 0.39384,0.41825 0.35602,0.43086 -0.0483,0.0161 -0.0688,1.85425 -0.0688,6.15582 0,4.07225 0.0216,6.11956 0.0642,6.0932 0.0353,-0.0218 0.0643,-0.18252 0.0643,-0.35708 0,-0.17457 0.0217,-0.31626 0.0482,-0.31488 0.0265,10e-4 0.29387,0.12422 0.59418,0.27299 0.62803,0.31114 0.73845,0.46865 0.85509,1.22002 0.0558,0.359 0.0515,0.45059 -0.0244,0.52075 -0.0506,0.0468 -1.36263,0.37951 -2.91564,0.73932 -1.55297,0.3598 -2.83551,0.66607 -2.85005,0.68058 -0.0145,0.0145 0.0782,0.1486 0.2061,0.29797 0.12786,0.14936 0.23244,0.33653 0.23244,0.41593 0,0.2277 -0.28816,0.41063 -0.64685,0.41063 -0.42413,0 -0.59033,-0.0763 -0.99005,-0.4543 l -0.34497,-0.32627 -0.9283,0.21274 c -0.6603,0.15132 -0.91927,0.23618 -0.89712,0.29394 0.0171,0.0446 4.5e-4,0.0812 -0.0371,0.0812 -0.0376,0 -0.81392,-0.53 -1.72517,-1.17778 -4.16469,-2.96052 -6.33298,-4.47726 -6.36079,-4.44947 -0.0166,0.0166 0.004,0.13233 0.0448,0.25719 0.0666,0.20188 0.0884,0.21852 0.1975,0.15043 0.0789,-0.0493 0.14236,-0.0542 0.17819,-0.0139 0.0932,0.10494 2.19583,5.25812 2.19583,5.38161 0,0.18134 -0.16334,0.4498 -0.36311,0.59677 -0.95673,0.70394 -1.98989,0.54744 -2.44471,-0.37034 -0.0759,-0.15297 -0.34226,-0.77786 -0.59208,-1.38866 -0.36407,-0.89002 -0.45408,-1.17702 -0.45348,-1.44529 5.7e-4,-0.26389 -0.17961,-0.85699 -0.85112,-2.80144 l -0.85186,-2.46669 -0.46231,-0.34361 c -0.25423,-0.18898 -0.47655,-0.34359 -0.49401,-0.34359 -0.0175,0 -0.738,0.90394 -1.60115,2.00876 -0.86315,1.10481 -1.61338,2.04529 -1.66719,2.08993 -0.0538,0.0446 -0.11653,0.18107 -0.13945,0.30316 -0.0277,0.1479 -0.30148,0.55605 -0.82035,1.22299 -0.82672,1.0627 -1.13228,1.32033 -1.67484,1.412 -0.48543,0.082 -1.11993,-0.23887 -1.06014,-0.53611 0.0102,-0.0506 0.66889,-0.92587 1.46378,-1.9451 0.98462,-1.26244 1.48624,-1.85589 1.57378,-1.86175 0.0707,-0.005 0.007,-0.0419 -0.14196,-0.0826 -0.40003,-0.10943 -0.40894,-0.12996 -0.33865,-0.78215 0.11891,-1.10374 0.32003,-3.81952 0.32003,-4.32138 v -0.50523 l -1.75044,-1.44834 c -1.30902,-1.08312 -1.76906,-1.43005 -1.82429,-1.37579 -0.17977,0.17649 -8.75821,12.50564 -8.84385,12.71065 -0.11564,0.27671 -0.94288,1.47667 -1.21625,1.76418 -0.2687,0.28257 -0.55208,0.40395 -0.94317,0.40395 -0.26836,0 -0.36112,-0.0307 -0.49389,-0.16345 -0.0899,-0.0899 -0.14798,-0.20361 -0.12916,-0.2527 0.0789,-0.20574 2.19979,-3.17881 2.26838,-3.17987 0.0412,-6.4e-4 0.37104,-0.42751 0.73306,-0.94862 0.36194,-0.52111 0.76136,-1.09068 0.8876,-1.26572 0.27323,-0.37886 0.21064,-0.34783 -0.50728,0.25153 -3.12562,2.60935 -7.14552,4.69368 -11.20903,5.81189 -2.35758,0.64875 -4.4199,0.97239 -6.96952,1.0937 -1.48968,0.0709 -1.44847,0.0709 -3.01909,-0.003 z m 55.24231,-8.60228 c 0,-0.81258 -0.014,-1.47741 -0.031,-1.47741 -0.0647,0 -4.16737,0.9652 -4.18729,0.9851 -0.0219,0.0219 4.08631,1.95822 4.17012,1.96552 0.0265,0.002 0.0482,-0.66063 0.0482,-1.47321 z m -20.21221,-1.41317 0.9319,-1.18835 -0.159,-0.12847 c -0.14706,-0.11888 -0.1575,-0.16396 -0.13965,-0.60345 l 0.0193,-0.47498 0.66087,-0.15735 c 0.7457,-0.17758 0.70099,-0.0953 0.43789,-0.80538 l -0.13746,-0.37104 -0.26848,0.19745 c -0.23994,0.17648 -0.27055,0.22921 -0.28797,0.49631 -0.0165,0.25488 -0.0479,0.31543 -0.21305,0.41154 -0.24184,0.14076 -1.02065,0.26539 -1.47867,0.23662 l -0.3461,-0.0217 -0.0349,0.32118 c -0.11227,1.03268 -0.21799,2.88086 -0.18337,3.20516 l 0.0405,0.3788 0.11313,-0.15398 c 0.0622,-0.0847 0.53247,-0.68874 1.04507,-1.34233 z m 13.72443,-4.38591 v -1.30262 l 0.41777,-0.41407 c 0.36943,-0.36615 0.48279,-0.43654 0.9796,-0.60837 l 0.56183,-0.19432 0.0189,-0.28917 0.0189,-0.28918 -0.50065,-0.35745 c -0.27541,-0.19661 -1.43758,-1.03175 -2.58266,-1.85586 -1.44891,-1.04281 -2.10682,-1.48094 -2.16383,-1.44101 -0.045,0.0316 -0.51065,0.60659 -1.03463,1.27785 -1.72294,2.20725 -2.66606,3.42552 -2.67549,3.45603 -0.018,0.0584 2.22145,2.88077 2.31393,2.91627 0.0694,0.0266 3.19954,0.30032 4.53387,0.39642 0.10366,0.007 0.11244,-0.0937 0.11244,-1.29452 z m -7.05053,0.74081 c 0.35935,0.0288 0.68727,0.0441 0.72869,0.034 0.0687,-0.0166 -1.27226,-1.80095 -1.37438,-1.82886 -0.0367,-0.01 -1.61139,1.97594 -1.66828,2.10395 -0.01,0.0226 0.3595,-0.0495 0.8212,-0.16015 0.78271,-0.18765 0.88357,-0.19771 1.49277,-0.14897 z m -8.57787,-1.31435 c 0.16495,-0.18373 0.411,-3.70144 0.38975,-5.57112 l -0.0172,-1.50989 -1.72756,2.46803 c -0.95017,1.35741 -1.7306,2.50128 -1.73432,2.54195 -0.004,0.0406 0.65803,0.62887 1.47061,1.30714 1.41709,1.18289 1.47827,1.2259 1.49883,1.05341 0.0118,-0.0989 0.0658,-0.22919 0.1199,-0.28952 z m 2.46207,-0.005 c 0.0324,-1.324 0.021,-1.84453 -0.0404,-1.84451 -0.0445,0 -0.0853,0.2551 -0.11025,0.69053 -0.0218,0.37979 -0.0595,0.84567 -0.0837,1.03529 -0.0432,0.33838 -0.0415,0.34339 0.0943,0.27074 0.076,-0.0407 0.13916,-0.10913 0.14017,-0.15205 z m 3.40779,-1.41092 c 0.45554,-0.3268 0.82137,-0.6244 0.81302,-0.66135 -0.0168,-0.0738 -3.79162,-4.91389 -3.81454,-4.89097 -0.0206,0.0206 0.7704,2.24538 0.83218,2.34069 0.0286,0.0441 0.11896,0.0802 0.20091,0.0802 0.20892,0 0.25456,0.0744 0.54762,0.89252 0.26293,0.73403 0.26536,0.77283 0.0625,1.00242 -0.10937,0.1238 -0.10293,0.15949 0.1775,0.97959 0.16009,0.46812 0.30488,0.85112 0.32185,0.85112 0.0169,0 0.40344,-0.26738 0.85894,-0.59418 z m 5.43278,-5.63664 c 1.83514,-2.3494 3.99278,-5.11354 4.79475,-6.14254 l 1.45811,-1.87092 v -0.41763 c 0,-0.47268 0.0409,-0.53058 0.46364,-0.65539 l 0.27504,-0.0812 0.0163,-7.269858 0.0164,-7.26987 -0.25723,-0.24468 c -0.22999,-0.21877 -0.25723,-0.27711 -0.25723,-0.55111 0,-0.27989 -0.0264,-0.33287 -0.30509,-0.61174 -0.16782,-0.16793 -0.38128,-0.39583 -0.47437,-0.50646 -0.14261,-0.16944 -0.21395,-0.20114 -0.45287,-0.20114 -0.334,0 -0.43765,0.08287 -0.43802,0.35008 -3.2e-4,0.25835 -0.2039,0.58285 -0.44336,0.70669 -0.26953,0.13936 -0.7012,0.12553 -0.95737,-0.03065 -0.34658,-0.21129 -0.41919,-0.47335 -0.44903,-1.62029 l -0.0263,-1.01171 h -0.23783 c -0.189,0 -0.3691,0.09036 -0.87651,0.43983 -0.35125,0.24189 -0.69642,0.4542 -0.76707,0.47177 -0.0707,0.01758 -1.53382,1.00375 -3.2515,2.19148 -2.8128,1.94501 -3.12015,2.17454 -3.09411,2.31081 0.0223,0.11623 -0.0251,0.1925 -0.20416,0.3291 -0.19544,0.14907 -0.42995,0.57183 -1.45057,2.61533 l -1.21743,2.43752 v 0.66773 c 0,0.75207 -0.0307,0.81587 -0.45251,0.94228 l -0.25407,0.07611 v 4.100888 4.10089 h 0.47227 0.47222 l 0.0369,-0.56206 c 0.0515,-0.78432 0.0589,-0.79703 0.45154,-0.77391 0.29974,0.0177 0.32897,0.034 0.37849,0.21185 0.0675,0.24258 0.0679,2.68452 4.5e-4,2.98694 -0.0485,0.21733 -0.0611,0.22545 -0.37696,0.24396 -0.39132,0.0229 -0.38667,0.0307 -0.44615,-0.7569 l -0.0437,-0.57906 h -0.4725 -0.47256 v 1.73312 1.73313 l 0.17665,0.042 c 0.31007,0.0737 0.40146,0.20446 0.40146,0.57474 v 0.3374 l 2.36065,3.02149 c 2.19226,2.80597 2.36797,3.0137 2.46386,2.91256 0.0568,-0.0599 1.60467,-2.03115 3.43981,-4.38055 z m 6.4287,2.55756 c 0.0438,-0.0527 0.19552,-0.13057 0.33723,-0.17304 l 0.25772,-0.0772 v -4.23694 c 0,-3.34627 -0.0169,-4.23713 -0.0803,-4.23783 -0.0441,-4.8e-4 -0.1394,-0.0167 -0.21164,-0.0362 -0.11098,-0.0298 -0.50838,0.44705 -2.56346,3.07626 -1.33769,1.71135 -2.42884,3.1313 -2.42479,3.15544 0.004,0.0241 1.0275,0.77799 2.27441,1.67519 l 2.26708,1.63129 0.0321,-0.34059 c 0.0177,-0.18732 0.0679,-0.38371 0.11163,-0.43641 z m -115.19585,0.35924 c 0.51077,-0.20666 0.96641,-0.56276 1.51127,-1.18109 0.38305,-0.43471 0.45474,-0.55237 0.45474,-0.74646 v -0.23038 l -0.30511,0.25172 c -0.16781,0.13845 -0.82543,0.67997 -1.46136,1.20339 -0.63592,0.52341 -1.18392,0.97672 -1.21775,1.00735 -0.0823,0.0745 0.54599,-0.11345 1.01821,-0.30453 z m 120.76718,-1.36708 c 0.9549,-0.79047 1.74234,-1.46975 1.74987,-1.50953 0.017,-0.0899 -4.23369,-6.15744 -4.33803,-6.19222 -0.13462,-0.0449 -0.0909,2.26625 0.0842,4.4498 0.0878,1.09521 0.19395,2.46562 0.23589,3.04535 0.0637,0.88059 0.0956,1.07057 0.1935,1.15445 0.0805,0.069 0.11726,0.18889 0.11726,0.38304 0,0.25872 0.009,0.27518 0.11058,0.19449 0.0608,-0.0485 0.89185,-0.73491 1.84675,-1.52538 z m -125.4984,-0.36137 0.33652,-0.12846 7.1e-4,-4.44026 7.2e-4,-4.44027 -0.20552,-0.0411 c -0.13065,-0.0261 -0.23457,-0.0115 -0.28528,0.0401 -0.0439,0.0447 -1.209568,1.52654 -2.590428,3.29301 -2.25995,2.89104 -2.49928,3.21954 -2.39654,3.28965 0.06277,0.0428 1.15474,0.82682 2.4266,1.74217 l 2.31246,1.66426 0.03212,-0.42533 0.03212,-0.42535 z m 5.26475,-0.66477 1.41978,-1.17866 -0.16614,-0.36299 c -0.14762,-0.32253 -0.16684,-0.4489 -0.17246,-1.13381 l -0.006,-0.77082 -1.72228,-2.45699 c -0.94726,-1.35136 -1.74842,-2.457 -1.78036,-2.457 -0.14147,0 -0.0544,2.53233 0.19768,5.74991 0.23406,2.98763 0.26673,3.27601 0.3854,3.40233 0.0826,0.0879 0.12967,0.22569 0.12967,0.37942 v 0.24141 l 0.14763,-0.11707 c 0.0812,-0.0644 0.78653,-0.64748 1.56741,-1.29573 z m 1.43248,-10.92397 v -5.390038 l -0.73162,-0.35181 c -0.82186,-0.39518 -1.40027,-0.7673 -1.85992,-1.19654 -0.35606,-0.33251 -0.53355,-0.64278 -0.59645,-1.04265 -0.0241,-0.15339 -0.0804,-0.3367 -0.12495,-0.40736 -0.20053,-0.31778 -0.23184,-0.67168 -0.15927,-1.80004 l 0.0711,-1.10542 -0.16145,-0.32142 c -0.0888,-0.17678 -0.20327,-0.47695 -0.25439,-0.66704 -0.083,-0.30856 -0.0934,0.2994 -0.0972,5.67146 l -0.004,6.017068 0.24088,0.0776 c 0.3851,0.12403 0.40148,0.15438 0.40148,0.7438 v 0.53875 l 1.61874,2.31184 c 0.89031,1.27152 1.62741,2.31186 1.638,2.31186 0.0106,0 0.0192,-2.42553 0.0192,-5.39005 z m 94.878,0.68879 c 0.15884,-0.11741 0.19014,-0.18551 0.19014,-0.41373 0,-0.15025 0.0289,-0.29106 0.0642,-0.31289 0.0405,-0.025 0.0643,-0.76078 0.0643,-1.99508 0,-1.260758 -0.0228,-1.955378 -0.0643,-1.955378 -0.0353,0 -0.0642,-0.03456 -0.0642,-0.07678 0,-0.04223 -0.0737,-0.15374 -0.1639,-0.2478 -0.0901,-0.09406 -0.23643,-0.3847 -0.32517,-0.64587 -0.16634,-0.48953 -2.02034,-4.571 -2.05885,-4.53247 -0.0401,0.04013 0.62159,5.59572 0.71666,6.0168 0.0519,0.22964 0.16779,1.053458 0.25767,1.830698 0.0899,0.77725 0.19067,1.61551 0.22407,1.86282 0.0333,0.2473 0.0616,0.48579 0.0627,0.52994 0.002,0.0564 0.13649,0.0803 0.45437,0.0803 0.36441,0 0.48915,-0.0273 0.64233,-0.14056 z m 4.108,-9.815038 c 0.24756,-0.49415 0.45013,-0.92464 0.45013,-0.95666 0,-0.17136 -0.238,-0.08286 -0.77845,0.28954 -0.33145,0.22837 -0.61354,0.44667 -0.6269,0.48509 -0.0198,0.05712 0.43708,1.06156 0.48956,1.07613 0.009,0.0024 0.21815,-0.39996 0.46566,-0.8941 z m -0.40501,-2.23089 c -0.0108,-0.15583 0.0873,-0.24243 0.94534,-0.83479 0.83004,-0.57303 0.98815,-0.65878 1.18882,-0.64481 0.20892,0.01454 0.4983,-0.16815 2.97349,-1.87702 1.50811,-1.04122 2.73129,-1.90386 2.71817,-1.91697 -0.0131,-0.01311 -0.53903,0.02249 -1.16876,0.07911 -1.47276,0.13244 -4.07837,0.29374 -4.75119,0.29411 -0.50255,2.8e-4 -0.52454,0.0065 -0.5628,0.15911 -0.0219,0.08734 -0.0922,0.21019 -0.15612,0.27299 -0.064,0.0628 -0.48406,1.04912 -0.93352,2.19181 -0.655,1.66526 -0.80198,2.09593 -0.74068,2.16984 0.0582,0.07006 0.0589,0.13108 0.003,0.25394 -0.0405,0.08893 -0.0737,0.21955 -0.0737,0.29023 0,0.1184 0.0225,0.11308 0.28505,-0.06758 0.22893,-0.15749 0.2827,-0.23037 0.27302,-0.36997 z m -2.6778,-0.36521 c 0,-0.12586 0.33796,-0.23336 0.86715,-0.27583 l 0.44964,-0.03608 0.7342,-1.8706 c 0.40375,-1.02882 0.7697,-1.95731 0.81314,-2.0633 l 0.079,-0.19271 h -3.5842 -3.58416 l -0.0737,0.20369 c -0.0612,0.16893 -0.0468,0.32064 0.0844,0.88913 0.0869,0.377 0.1675,0.69398 0.17896,0.7044 0.15277,0.13876 1.04888,0.74024 1.10354,0.74071 0.3519,0.003 1.72752,0.95655 2.21088,1.53254 0.16702,0.19897 0.3325,0.383 0.36785,0.40895 0.11134,0.08181 0.35331,0.0538 0.35331,-0.0409 z m -99.49649,-2.3757 c 0.24043,-0.72139 0.82021,-1.94277 1.12085,-2.36125 l 0.224,-0.3118 h -0.32106 c -0.27825,0 -0.32107,0.01714 -0.32107,0.12847 0,0.07066 -0.0578,0.18628 -0.12847,0.25694 -0.0707,0.07067 -0.12847,0.17985 -0.12847,0.24265 0,0.2045 -0.18133,0.37982 -0.47903,0.46317 l -0.2918,0.0817 0.008,1.38877 c 0.006,1.05217 0.0214,1.3049 0.065,1.04276 0.0316,-0.19032 0.14526,-0.60945 0.25257,-0.93141 z m 115.91683,-3.16113 c 0.0751,-0.02018 0.17005,-0.10996 0.21087,-0.19952 0.0589,-0.12931 0.0572,-0.15633 -0.008,-0.13122 -0.0453,0.01739 -0.2486,0.06881 -0.45173,0.11427 -0.35591,0.07963 -0.41838,0.12023 -0.32655,0.21208 0.0521,0.05211 0.38825,0.05467 0.57568,0.0044 z m -114.44119,-0.33091 c 10e-4,-0.06183 0.314,-2.87294 0.69521,-6.246886 l 0.6931,-6.13446 -0.15151,-0.44965 c -0.21973,-0.65208 -0.44775,-1.59028 -0.53613,-2.20594 -0.1295,-0.90206 -0.0133,-1.36815 0.4509,-1.80876 l 0.23686,-0.22483 0.10194,-1.16912 c 0.0917,-1.05226 0.11983,-1.202 0.28105,-1.49819 0.0985,-0.18099 0.25582,-0.3837 0.34958,-0.45047 0.14885,-0.10599 0.17586,-0.18079 0.21284,-0.58945 0.0327,-0.36139 0.0828,-0.5266 0.21962,-0.72499 0.61561,-0.89238 2.76936,-1.59063 6.02465,-1.95322 2.05907,-0.22935 3.32161,-0.28766 6.14571,-0.28385 1.51033,0.002 2.74605,-0.01829 2.74605,-0.04516 0,-0.02688 0.0693,-0.11555 0.15397,-0.19706 l 0.15396,-0.14818 -0.1443,-0.1958 c -0.51232,-0.69518 -0.76548,-1.40586 -0.72931,-2.04741 0.0239,-0.42345 0.31372,-1.22487 3.57242,-9.877734 3.12656,-8.30197 3.55433,-9.48077 3.61305,-9.95646 0.11521,-0.93334 0.29388,-1.40531 0.66633,-1.76004 0.15986,-0.15227 0.31495,-0.49331 0.73905,-1.62515 0.29521,-0.78785 0.61927,-1.54636 0.72013,-1.68562 0.10087,-0.13924 0.1834,-0.26361 0.1834,-0.27637 0,-0.01276 -0.25292,-0.04252 -0.56206,-0.06613 -0.8518,-0.06506 -3.94928,-0.46116 -5.86146,-0.74955 -2.9156,-0.43971 -5.93706,-0.9941 -9.14263,-1.67752 -0.66528,-0.14183 -1.21775,-0.24817 -1.22772,-0.23629 -0.0196,0.02336 -10.01654,16.57087 -10.24397,16.95642 l -0.13785,0.23367 0.33388,0.11962 c 1.13738,0.40749 1.65705,1.73686 1.23999,3.17207 -0.21357,0.73498 -0.97824,1.7666 -1.60193,2.16117 -0.15517,0.09817 -0.29546,0.237134 -0.31174,0.308784 -0.0163,0.07166 -0.12406,0.65779 -0.2395,1.30251 l -0.20988,1.17221 -0.21355,0.07722 -0.21354,0.07722 v 13.60373 13.603746 l 0.17664,0.03855 c 0.64721,0.14131 0.78689,0.27226 0.78689,0.7378 0,0.25738 0.0272,0.37904 0.0903,0.40323 0.0497,0.01906 0.10977,0.12332 0.13358,0.2317 0.0423,0.19284 0.0514,0.19704 0.42358,0.19704 0.31857,0 0.38065,-0.01825 0.38241,-0.1124 z m 41.6981,-4.988026 c 2.38704,-3.60195 5.99723,-6.73575 10.12002,-8.78462 0.61754,-0.30687 0.65993,-0.34034 0.65993,-0.52062 0,-0.27123 0.20637,-0.57329 0.50717,-0.74235 0.34926,-0.19631 2.24186,-0.9054 3.18635,-1.19385 1.79749,-0.54894 4.00047,-1.00271 5.94178,-1.22387 1.53126,-0.17445 2.00948,-0.11087 2.24206,0.29806 0.0793,0.13947 0.14988,0.18039 0.31168,0.1807 l 0.20917,4.1e-4 -0.0165,-4.96217 -0.0164,-4.96217 -0.53928,-0.18078 c -0.29663,-0.09942 -0.67962,-0.1974 -0.85112,-0.2177 l -0.31185,-0.03694 v 2.2614 c 0,1.3731 -0.025,2.30818 -0.0637,2.3805 -0.15215,0.28429 -1.24565,0.38178 -1.7144,0.15284 l -0.24524,-0.1198 -0.0322,-2.42548 -0.0321,-2.42549 -0.20877,-0.12692 -0.20876,-0.12692 v -0.72969 c 0,-0.76593 0.0308,-0.85399 0.33724,-0.96265 0.10231,-0.03629 0.11239,-0.16327 0.11239,-1.41318 v -1.373314 l -0.24087,-0.10497 c -0.13248,-0.05774 -1.12269,-0.43162 -2.20043,-0.83086 l -1.95952,-0.72589 0.022,0.23102 c 0.0255,0.26694 -0.25128,1.14781 -0.44692,1.42256 -0.15123,0.21236 -0.43308,0.37403 -0.65208,0.37403 -0.14391,0 -0.33877,0.494824 -3.38354,8.591464 -1.9194,5.1041 -3.3049,8.69913 -3.41333,8.85673 -0.66516,0.96691 -2.908,1.50045 -5.5827,1.32803 -0.5476,-0.0353 -1.00035,-0.06136 -1.00611,-0.05792 -0.006,0.0034 -0.0307,0.46875 -0.0555,1.03403 l -0.045,1.02776 0.19646,0.24526 c 0.41877,0.52286 0.43172,1.11632 0.0493,2.25992 -0.24665,0.73759 -0.87257,2.09835 -1.20084,2.61064 -0.16619,0.25936 -0.20318,0.4057 -0.28402,1.12411 -0.0511,0.45427 -0.10858,0.95602 -0.12767,1.114996 l -0.0347,0.28906 0.21019,-0.347016 c 0.11561,-0.19085 0.4611,-0.72562 0.76775,-1.18835 z m 43.44357,-7.84329 c 4.01164,-0.80924 11.66523,-1.32824 18.08223,-1.22619 5.78426,0.09201 10.26955,0.51145 12.34921,1.15489 l 0.49781,0.15403 -3.6e-4,-3.73473 c -1.6e-4,-2.0541 -0.0266,-3.8359 -0.0587,-3.95955 -0.0321,-0.12365 -0.0771,-0.38861 -0.0999,-0.58878 -0.0399,-0.3489 -0.0518,-0.36806 -0.28901,-0.46296 -0.27756,-0.11104 -0.45125,-0.31753 -0.45125,-0.53631 v -0.1463 l -1.20444,-8.1e-4 c -1.3419,-9e-4 -4.20972,-0.08374 -6.88923,-0.19899 l -1.76647,-0.07598 -0.8029,0.46277 c -1.06326,0.61278 -3.11723,1.62087 -4.43225,2.1753 -3.7321,1.57354 -7.4751,2.64317 -10.98424,3.13893 -1.04677,0.14788 -3.97334,0.16626 -4.65704,0.02925 -1.03783,-0.20798 -1.86916,-0.61815 -2.1919,-1.08144 -0.0926,-0.13289 -1.3906,-3.49353 -2.88441,-7.46809 -2.16663,-5.76446 -2.74013,-7.230214 -2.83462,-7.245014 -0.31838,-0.04988 -0.40514,-0.09094 -0.58844,-0.27841 -0.11236,-0.1149 -0.27184,-0.40512 -0.36885,-0.67116 l -0.17095,-0.46873 -0.49077,0.18273 c -0.26994,0.10051 -1.11224,0.41379 -1.87182,0.69619 -0.75959,0.2824 -1.5039,0.56273 -1.65408,0.62296 l -0.27298,0.10951 v 1.369764 c 0,1.31198 0.005,1.37146 0.12808,1.4104 0.28593,0.09075 0.32156,0.19694 0.32156,0.95828 0,0.75993 -0.0313,0.8486 -0.33724,0.95711 -0.10434,0.03702 -0.1124,0.21262 -0.1124,2.44923 v 2.40935 l -0.15353,0.10059 c -0.22873,0.14988 -0.78736,0.2191 -1.21566,0.15063 -0.67779,-0.10833 -0.62211,0.12014 -0.62211,-2.55304 v -2.33812 l -0.3442,0.03553 c -0.18929,0.01953 -0.58674,0.11821 -0.88324,0.21929 l -0.53903,0.18376 -0.0164,4.9518 -0.0164,4.95181 0.42186,0.03386 c 0.39489,0.0317 0.44514,0.01987 0.78464,-0.18457 0.62734,-0.37775 0.88809,-0.4088 2.08411,-0.24818 1.23306,0.1656 1.62954,0.2712 1.8515,0.49318 0.10815,0.10816 0.21184,0.27252 0.23038,0.36522 0.0319,0.15948 0.0792,0.17848 0.88,0.35315 2.98791,0.65174 6.1511,1.89787 8.71128,3.43177 l 0.73489,0.44031 0.51769,-0.15198 c 0.28473,-0.08359 1.00908,-0.2511 1.6097,-0.37226 z m 36.1323,51.388494 v -0.99565 h 0.21771 c 0.11977,0 0.27727,0.0506 0.35007,0.11242 0.26363,0.2239 0.50697,1.34772 0.34643,1.59999 -0.0382,0.0601 -0.72497,0.27888 -0.8753,0.27888 -0.0214,0 -0.0389,-0.44804 -0.0389,-0.99564 z"
       id="path2384"
       sodipodi:nodetypes="csscccccccccsccccccsssssssssssssscccsscccccccccssssccccccccccccssccccccsssccccccsscccscccscccssssscccsssssscccssssscccsssssscccccccccccssssssssscccscccccccscccccssssscccsscccssssssssssssssssscccscccccscccccccscccccccsssssscccccsscccccccsscccccscccssssssssssssssccccccccssccccccccccsscccsscccsscccccccccscccsssccccccccsssssssssssssssssssssssscccsssssssssssscccssssssssssscccssssssssssssccsssccccccccccsscccccccccccccccssssssccsssscccccsssccssssccssssssssccccccccccssssssscccsssssccccccccccssssccccccccccscccccsssscccccscccssccsssssssccccccssscccccccccccssscccccccssscccsccccccsccsssssssssssssccssssccsssssssssssssccccccccccssssscccccssscccsccsssscccccscccssssssscccssssssssssscccssscccccccssssccssssssccccccccscccccccsccccccsssssscccssscccccscccsssccccccssssssscccscccssscccsccccccccssssscccccccsssc" />
    <path
       style="opacity:1;fill:#000000;stroke:none;stroke-opacity:1"
       d="m 29.392548,172.30403 c 0.02061,-0.045 6e-4,-0.0775 -0.04449,-0.0721 -0.04508,0.005 -0.36162,-0.005 -0.70338,-0.0237 -0.34176,-0.0183 -0.70464,-0.0211 -0.8064,-0.006 -0.10178,0.0149 -0.30761,-0.003 -0.45741,-0.039 -0.23823,-0.0577 -0.25378,-0.0486 -0.12406,0.0729 0.20255,0.18963 0.09585,0.18736 -0.67825,-0.0145 -0.88333,-0.23029 -2.23697,-0.75715 -2.85554,-1.1114 -0.69666,-0.399 -3.05151,-2.27042 -3.48655,-2.77087 -0.19837,-0.22815 -0.39193,-0.43402 -0.43016,-0.4575 -0.26535,-0.16285 -2.83703,-3.60297 -4.21614,-5.63985 -1.14372,-1.68923 -1.94955,-3.02352 -3.37331,-5.58546 -0.43885,-0.78971 -0.8821,-1.48459 -0.98495,-1.54421 -0.15971,-0.0925 -0.21515,-0.064 -0.37957,0.19574 -0.10592,0.16724 -0.18562,0.36108 -0.17712,0.4307 0.0239,0.19571 -0.16942,0.17418 -0.45992,-0.0513 -0.2817004,-0.21858 -0.8261404,-1.17003 -0.8704504,-1.52115 -0.02319,-0.18392 0.01779,-0.20952 0.3099,-0.19353 0.18513,0.0101 0.4429004,0.0354 0.5728104,0.056 0.18673,0.0298 0.23105,-0.003 0.21171,-0.15642 -0.01348,-0.10673 0.01031,-0.24241 0.05285,-0.30154 0.04562,-0.0634 -0.20562,-0.72598 -0.6122904,-1.61485 -1.37345,-3.00211 -2.74615,-6.76947 -3.70869,-10.17842 -0.47486,-1.68182 -0.95288,-5.46194 -0.85623,-6.77104 0.38642,-5.23396 2.83948,-10.2101 6.7717604,-13.73671 0.45026,-0.40382 2.21805,-1.75944 2.30943,-1.77097 0.03074,-0.004 0.3986,-0.21232 0.81741,-0.46322 0.83967,-0.503 2.63116,-1.30406 3.83967,-1.71691 2.42197,-0.82737 5.59332,-1.45939 11.98339,-2.38817 4.1824,-0.60792 5.05821,-0.7622 5.98729,-1.05468 1.8509,-0.58271 3.12795,-1.28577 4.505,-2.48019 1.04336,-0.90499 1.38299,-1.30215 3.60003,-4.21006 3.40024,-4.45981 5.48254,-6.63084 8.86332,-9.241108 0.81458,-0.62892 2.81657,-1.8249 3.96181,-2.36676 1.72546,-0.8164 3.02114,-1.19064 4.96298,-1.43347 2.82483,-0.35326 4.09817,-0.07133 5.10009,1.12921 0.16021,0.19195 0.35645,0.34075 0.43612,0.33072 0.07969,-0.01007 0.23161,0.07492 0.33762,0.18884 l 0.19274,0.20713 0.2946,-0.43545 c 0.17331,-0.25608 0.35614,-0.42032 0.44394,-0.39873 0.18595,0.04568 0.36024,0.55136 0.24997,0.7252 -0.05306,0.08361 -0.03992,0.13721 0.03741,0.15259 0.14815,0.02945 0.45669,0.96187 0.35967,1.08692 -0.03904,0.05032 -0.26085,0.02303 -0.49289,-0.06062 -0.5266,-0.18983 -0.68954,-0.1721 -0.6588,0.07166 0.01326,0.10499 -0.06988,0.27159 -0.18472,0.37024 -0.11484,0.09866 -0.24433,0.38648 -0.28771,0.63959 -0.12317,0.71845 -0.59106,1.657905 -1.10565,2.219968 -0.25843,0.28226 -1.05704,0.99571 -1.77467,1.58547 -2.27024,1.86565 -3.8722,3.43803 -4.64339,4.55765 -0.76937,1.11696 -0.85755,1.2705 -1.10219,1.91868 -0.2166,0.57386 -0.23258,0.74071 -0.13988,1.45772 0.08823,0.68209 0.16022,0.89182 0.45704,1.33099 0.58327,0.86296 1.05058,1.1431 2.11022,1.26502 0.44647,0.0514 0.53765,0.0312 0.80054,-0.17727 0.17209,-0.13643 0.50506,-0.2783 0.62845,-0.37901 0.77729,-0.54334 1.89685,-1.28809 2.89058,-1.87627 0.88997,-0.66819 1.90925,-1.29784 2.95601,-1.90285 1.5638,-1.08513 3.37765,-2.40131 5.04912,-3.53165 1.81258,-1.19407 3.23947,-2.17082 4.96708,-3.31477 1.12442,-0.77924 2.58862,-1.677923 3.81853,-2.521518 1.18431,-0.83499 2.622337,-1.77929 3.918523,-2.59601 1.34201,-1.06296 2.82523,-2.05683 4.310721,-2.95761 0.6972,-0.47578 1.476276,-1.01196 2.223989,-1.52785 1.5426,-1.04773 1.33656,-0.92954 2.22719,-1.49741 1.35905,-1.02342 3.15677,-2.11121 4.677319,-3.11541 1.58206,-1.18366 4.00539,-2.82758 5.40225,-3.67989 0.1424,-0.07572 1.27737,-0.82077 2.52213,-1.65563 1.48247,-0.99428 2.29482,-1.49856 2.42049,-1.58642 1.60226,-1.16909 3.93457,-2.669198 5.6318,-3.655318 1.73149,-1.31399 3.91611,-2.71842 5.85177,-3.98233 0.98915,-0.74867 2.14952,-1.49314 3.21621,-2.2152 1.66932,-1.11814 3.0453,-2.07475 3.05771,-2.12583 0.36135,-0.23489 0.52218,-0.25823 0.76253,-0.614 0.31346,-0.41736 0.52447,-1.25893 0.51512,-2.05447 -0.003,-0.29242 -0.15976,-1.06991 -0.36307,-1.8057 -0.64265,-2.32591 -0.40517,-2.69389 2.49158,-3.8608 l 0.84862,-0.34184 -0.14693,-0.25096 c -0.37472,-0.64009 -0.99169,-1.0123 -1.77576,-1.07134 -0.3774,-0.02844 -1.0651,-0.50403 -1.28668,-0.88986 -0.0979,-0.17059 -0.20925,-0.55727 -0.24737,-0.85932 -0.0591,-0.46857 -0.0285,-0.61506 0.20842,-0.99793 0.15271,-0.24679 0.3533,-0.49697 0.44572,-0.55595 0.0924,-0.05897 0.31121,-0.35672 0.48619,-0.66167 0.22247,-0.38769 0.43372,-0.61019 0.70233,-0.7398 0.50251,-0.24245 1.24883,-0.26215 1.6552,-0.04369 0.17835,0.09589 0.45006,0.18469 0.6038,0.19735 0.15369,0.01268 0.39275,0.03186 0.53119,0.04267 0.36479,0.02847 0.91137,0.41374 1.21003,0.85288 0.20983,0.3085 0.25934,0.48629 0.25988,0.93254 6.7e-4,0.55721 -0.0975,0.77831 -0.74241,1.6716 -0.30009,0.41568 -0.42359,0.91544 -0.35753,1.4467 l 0.0394,0.3166 0.41255,-0.19505 c 0.22692,-0.10727 1.33597,-0.56766 2.46457,-1.0231 1.12857,-0.45542 2.06739,-0.84794 2.08627,-0.87228 0.0396,-0.05105 -0.16389,-0.28196 -0.57928,-0.65729 -0.33007,-0.29827 -0.57241,-0.38735 -1.42148,-0.52251 -0.67701,-0.10777 -1.04172,-0.38313 -1.40231,-1.05868 -0.44265,-0.82929 -0.24425,-1.57813 0.61409,-2.31781 0.22977,-0.22191 0.25989,-0.47375 0.38225,-0.78234 0.15209,-0.41549 0.52569,-0.6491 1.16642,-0.7293 0.39258,-0.04914 0.65387,-0.01392 0.97316,0.13119 0.24003,0.10909 0.5642,0.18369 0.72034,0.16575 0.73149,-0.08402 1.57974,0.53826 1.84072,1.35032 0.19396,0.60361 0.10551,1.00203 -0.37883,1.70618 -0.4409,0.64103 -0.45206,0.67887 -0.4043,1.36966 l 0.0491,0.7104 0.28435,-0.08618 c 0.15641,-0.04741 0.87898,-0.32638 1.60571,-0.61994 0.72671,-0.29356 1.7307,-0.69887 2.23108,-0.90067 0.50036,-0.20181 0.93066,-0.39389 0.95622,-0.42682 0.0846,-0.10898 -0.47471,-0.83101 -0.7466,-0.96387 -0.14687,-0.07177 -0.53999,-0.1656 -0.8736,-0.20847 -0.68679,-0.08829 -1.02245,-0.28909 -1.3965,-0.83547 -0.26274,-0.38376 -0.3366,-0.89948 -0.31544,-1.09043 0.035,-0.31614 0.0985,-0.61915 0.1321,-0.84617 0.0144,-0.0972 0.0809,-0.25693 0.35455,-0.47423 0.28701,-0.22793 0.41915,-0.40932 0.40314,-0.55347 -0.0308,-0.27764 0.314,-0.71714 0.79221,-1.00976 0.45894,-0.28082 0.92452,-0.27606 1.49709,0.01533 0.22036,0.11214 0.50957,0.19015 0.64271,0.17337 0.56306,-0.07105 1.05893,0.19678 1.59104,0.85937 0.23696,0.29509 0.2909,0.45749 0.31747,0.95573 0.0286,0.53713 -0.007,0.6553 -0.34092,1.12355 -0.20514,0.28777 -0.41824,0.68669 -0.47359,0.88643 -0.11772,0.42489 -0.0212,1.43504 0.12579,1.31642 0.053,-0.04278 1.12037,-0.47955 2.37196,-0.97063 2.87126,-1.12655 2.71775,-1.05723 2.69744,-1.21821 -0.0503,-0.39892 -1.33455,-1.109 -1.88103,-1.04007 -0.30625,0.03864 -1.17504,-0.62863 -1.42275,-1.09273 -0.16033,-0.30037 -0.19919,-0.47753 -0.14963,-0.682 0.0368,-0.15195 0.0326,-0.36187 -0.009,-0.46651 -0.0919,-0.22918 0.26684,-0.82419 0.65994,-1.09469 0.15513,-0.10678 0.26221,-0.27049 0.24842,-0.3798 -0.0414,-0.32846 0.38348,-0.85225 0.88664,-1.09293 0.55157,-0.26385 1.1504,-0.23768 1.50353,0.06569 0.14606,0.1255 0.33751,0.16358 0.6342,0.12615 0.85907,-0.10838 1.83796,0.7558 1.94448,1.71663 0.0562,0.50714 -0.0149,0.72704 -0.43116,1.33263 -0.3732,0.54301 -0.52846,1.09423 -0.46031,1.63429 l 0.0626,0.49649 0.51912,-0.16579 c 1.19291,-0.38098 2.93266,-0.26641 3.93949,0.25942 0.65,0.33947 1.53097,1.0651 1.49093,1.22803 -0.0236,0.09623 0.001,0.12271 0.0665,0.07019 0.14844,-0.1198 0.9521,1.16714 1.17882,1.88769 0.42143,1.33946 0.33363,2.7575 -0.2436,3.93332 -0.72641,1.47974 -2.53197,2.75246 -4.19495,2.95697 -1.04181,0.12812 -1.53357,0.07019 -2.69634,-0.3176 -1.26809,-0.42291 -1.37914,-0.43741 -1.80348,-0.23542 -0.81692,0.38886 -2.53256,2.02804 -3.29721,3.15027 -0.53119,0.77958 -2.48572,3.33364 -2.99187,3.90954 -0.69814,0.79438 -1.27891,1.37323 -2.32611,2.31846 -1.33522,1.20521 -1.86007,1.60401 -2.16088,1.64196 -0.13061,0.01648 -0.68205,-0.16744 -1.22543,-0.40867 -1.67035,-0.74158 -2.95195,-0.86633 -4.40457,-0.42876 -0.68746,0.2071 -2.38094,1.13062 -2.89369,1.57803 -1.82694,0.83579 -2.85518,2.04952 -4.41107,3.29321 -1.20065,0.90787 -1.65955,1.24546 -2.89757,2.13164 -0.36322,0.26001 -1.04051,0.76186 -1.50513,1.115218 -1.30722,0.98566 -2.64241,1.93326 -3.95246,2.91517 -2.91605,1.66899 -5.06307,3.6932 -7.46161,5.47154 -1.9885,1.08745 -2.99217,2.17397 -4.10182,3.0158 -3.04661,1.63966 -4.26565,3.18158 -6.8385,5.04951 -1.90068,1.05753 -2.889029,2.13099 -4.840989,3.53782 -1.29059,0.851445 -1.26947,0.892065 -1.96068,1.457428 -0.21958,0.16542 -0.69512,0.52359 -1.0568,0.79587 -1.421843,1.07045 -1.790083,1.2614 -2.430629,1.72213 -0.9048,0.70348 -2.481961,1.98876 -3.755221,2.83119 -0.57236,0.40734 -1.613466,1.15045 -2.003656,1.4394 -7.217517,4.74843 -14.398727,10.68023 -22.246797,16.18679 -1.05265,0.53469 -2.1021,1.39876 -2.74519,2.43052 -1.40587,2.25222 -0.5132,4.82661 2.14658,6.19052 0.74271,0.38083 1.83411,0.51308 3.02794,0.3669 1.25163,-0.15328 1.79606,-0.3323 3.55557,-1.16926 1.59493,-0.75865 2.3098,-0.94005 3.09387,-0.78504 0.60655,0.11993 1.46951,0.7014 1.84004,1.23981 0.28482,0.41387 0.48525,1.35933 0.42839,2.02072 -0.0858,0.99775 -0.83269,2.84877 -1.59324,3.94846 -0.65475,0.94673 -2.18773,2.51411 -3.75954,3.84388 -3.12449,2.64333 -8.78055,5.15333 -15.00105,6.65697 -2.68844,0.64987 -3.37727,0.89494 -4.67361,1.66273 -1.17372,0.6952 -2.1241,1.57365 -3.23003,2.98564 -0.89905,1.14786 -1.81801,2.78787 -2.35678,4.2061 -0.10159,0.26739 -0.21697,0.50567 -0.25637,0.5295 -0.03944,0.0238 -0.06652,0.0845 -0.06016,0.13475 0.01117,0.0886 -0.29677,0.83338 -1.27104,3.07404 -0.25755,0.59236 -0.46337,1.11591 -0.45738,1.16348 0.006,0.0476 -0.02481,0.091 -0.0685,0.0965 -0.04368,0.006 -0.14665,0.16893 -0.22885,0.3632 -0.34801,0.82253 -1.31896,2.53096 -2.0104,3.53739 -0.82803,1.20526 -1.65886,2.12054 -2.90464,3.19993 -2.21805,1.92175 -4.02463,2.77659 -6.85846,3.24536 -0.92303,0.15267 -1.66138,0.24074 -1.64074,0.1957 z M 131.84053,53.765784 c 0.0767,-0.06451 0.0939,-0.11158 0.0383,-0.10456 -0.0557,0.007 -0.16402,0.06557 -0.24074,0.13008 -0.0767,0.06453 -0.0939,0.11156 -0.0382,0.10454 0.0557,-0.007 0.16403,-0.06555 0.24073,-0.13006 z"
       id="path2398"
       sodipodi:nodetypes="csssssssssssssssssssssssssssssssssssscccssssssssssssssssccccccccccccsccccccsscccssssssssssssscccsssssccssssscccssssssssssssssssssssssssssssssscccssssssssssssssccscccccccscccccsssssssssssssssssssssccsssc" />
    <path
       style="opacity:1;fill:#000000"
       d="m 109.70227,165.77288 c -0.1032,-0.43302 0.13753,-0.76059 0.53741,-0.7313 0.12706,0.009 0.26672,-0.0129 0.31032,-0.0494 0.076,-0.0636 0.2117,-0.49193 0.19423,-0.61304 -0.005,-0.032 -0.36673,-0.52164 -0.80473,-1.08819 -0.98864,-1.27877 -1.86523,-2.48928 -2.74958,-3.79698 -1.39567,-2.06383 -3.13609,-4.88958 -3.76459,-6.11226 -1.55471,-3.02441 -2.39713,-6.26923 -2.43999,-9.39807 -0.0168,-1.22353 0.18731,-3.63029 0.38617,-4.55483 0.63275,-2.9413 2.06211,-5.22959 4.77346,-7.64188 1.63585,-1.45539 4.4947,-3.45209 6.24765,-4.36351 3.23891,-1.68399 7.22715,-3.17063 13.83521,-5.15715 3.7361,-1.12315 4.81336,-1.48852 6.23763,-2.11563 3.71794,-1.63698 6.52821,-4.16745 9.20088,-8.28486 1.48579,-2.28897 4.84824,-7.28441 5.27148,-7.83165 3.70024,-4.784202 7.24224,-7.668412 10.69083,-8.705432 0.68773,-0.2068 2.00778,-0.45624 2.66664,-0.50388 1.23326,-0.08922 2.38273,0.16014 3.2059,0.69545 0.30852,0.2006 0.41352,0.29902 0.67574,0.63346 0.29956,0.38193 0.31031,0.39086 0.30454,0.2531 -0.003,-0.07851 -0.0165,-0.15616 -0.0294,-0.1725 -0.0762,-0.0968 0.0915,-0.06276 0.43362,0.08803 l 0.39151,0.17253 0.11699,-0.14591 c 0.282,-0.35169 0.54047,-0.40072 0.83571,-0.15854 0.16637,0.13644 0.22268,0.29488 0.28846,0.81146 0.065,0.51084 0.0206,0.68872 -0.22293,0.89246 -0.22002,0.18407 -0.40446,0.19072 -0.6061,0.02182 -0.28068,-0.23503 -0.4773,-0.16599 -0.76079,0.26709 -0.0779,0.11896 -0.14747,0.22152 -0.15469,0.22796 -0.007,0.0064 -0.0278,-0.07742 -0.0458,-0.18633 l -0.0327,-0.19799 -0.0839,0.26293 c -0.19709,0.61745 -0.42341,0.90014 -1.66141,2.075252 -1.08432,1.02923 -1.99036,1.96748 -2.67482,2.76991 -0.27359,0.32074 -0.64143,0.74666 -0.81743,0.94649 -0.38371,0.43564 -0.55245,0.69421 -0.75717,1.16028 -0.29666,0.67534 -0.45199,1.37861 -0.53367,2.41638 -0.13458,1.70999 0.16433,3.40681 0.85601,4.85953 0.17003,0.35708 0.28399,0.522 0.73347,1.06138 0.61346,0.73612 0.81688,0.8984 1.54756,1.23421 0.54202,0.24913 1.04954,0.37398 1.65699,0.40769 0.56652,0.0314 1.5183,-0.0754 1.64946,-0.18515 0.0547,-0.0458 2.08174,-1.65327 4.50452,-3.57224 11.52761,-9.13046 19.11974,-15.171832 30.54161,-24.303232 2.05811,-1.645364 6.79304,-5.452442 10.07283,-8.098942 2.14244,-1.72874 6.69068,-5.44062 11.24277,-9.175324 l 2.20155,-1.80618 0.0253,-0.367 c 0.0337,-0.48815 0.0265,-0.99053 -0.0217,-1.50993 -0.0592,-0.63801 -0.0159,-1.05307 0.13867,-1.32539 0.30026,-0.52918 0.73873,-0.85391 1.62115,-1.20059 0.64591,-0.25378 1.84048,-0.8238 1.84551,-0.88067 0.009,-0.09579 -0.22155,-0.57434 -0.30953,-0.64394 -0.0545,-0.04307 -0.20823,-0.05955 -0.36963,-0.0396 -0.24186,0.02986 -0.29386,0.01643 -0.41613,-0.10763 -0.15434,-0.15661 -0.33474,-0.58152 -0.49823,-1.17342 -0.12828,-0.46465 -0.11136,-0.49288 0.54696,-0.91348 0.51071,-0.3263 0.75643,-0.43235 1.15793,-0.49985 0.33572,-0.05646 0.53226,-0.01232 0.7286,0.16361 0.19752,0.17693 0.52194,0.75643 0.59,1.05388 0.0658,0.28756 -0.0276,0.62223 -0.21809,0.78161 -0.16061,0.13433 -0.15891,0.14217 0.11352,0.54152 0.14618,0.21426 0.1501,0.21621 0.30398,0.15244 0.63801,-0.26449 2.49783,-1.08831 2.49731,-1.10624 -4e-4,-0.01226 -0.0473,-0.1366 -0.10431,-0.27624 -0.1275,-0.31232 -0.26506,-0.40331 -0.52247,-0.34584 -0.10032,0.02241 -0.22671,0.03067 -0.28092,0.0184 -0.23305,-0.05266 -0.45114,-0.47828 -0.671,-1.3098 l -0.11221,-0.42437 0.45205,-0.3363 c 0.77185,-0.57419 1.49235,-0.79496 1.91553,-0.5869 0.21542,0.10594 0.24696,0.13895 0.45624,0.47771 0.25134,0.40678 0.34441,0.65858 0.33331,0.90145 -0.01,0.21379 -0.17655,0.5543 -0.29987,0.61249 -0.11685,0.05513 -0.10091,0.11464 0.11901,0.44597 l 0.16303,0.2457 1.25446,-0.52398 c 0.68994,-0.28818 1.26021,-0.53711 1.26727,-0.55318 0.0299,-0.06761 -0.19118,-0.54184 -0.28387,-0.60915 -0.0554,-0.0403 -0.174,-0.05693 -0.26342,-0.037 -0.26022,0.05802 -0.42965,0.02256 -0.54376,-0.11381 -0.13265,-0.15852 -0.36916,-0.76098 -0.48046,-1.22396 l -0.0855,-0.35546 0.27413,-0.22189 c 0.62678,-0.50725 0.99621,-0.6917 1.56054,-0.779 0.26891,-0.04161 0.36962,-0.02905 0.54252,0.0675 0.18602,0.10387 0.23971,0.16256 0.43304,0.47333 0.30065,0.48329 0.38753,0.85498 0.27394,1.17191 -0.0629,0.1757 -0.12488,0.26558 -0.21829,0.31649 -0.14415,0.07863 -0.14128,0.08932 0.14311,0.52687 l 0.13828,0.21274 1.35283,-0.54556 c 0.74402,-0.30003 1.35205,-0.55743 1.35107,-0.57197 -0.007,-0.10708 -0.26036,-0.60646 -0.3339,-0.6584 -0.0503,-0.03557 -0.2179,-0.04753 -0.3725,-0.02656 -0.24082,0.03264 -0.29954,0.01944 -0.40993,-0.09217 -0.14977,-0.15135 -0.33174,-0.58785 -0.48784,-1.1698 -0.13266,-0.49446 -0.12345,-0.51058 0.5333,-0.93331 0.73514,-0.47319 1.36152,-0.6327 1.73539,-0.44191 0.15206,0.0776 0.21685,0.14905 0.41933,0.46219 0.31169,0.48223 0.39393,0.77578 0.31045,1.10782 -0.0515,0.20458 -0.0993,0.28482 -0.21894,0.36709 -0.1723,0.11851 -0.17282,0.1162 0.13939,0.58564 l 0.16845,0.2532 1.30711,-0.50525 c 0.71894,-0.27789 1.31266,-0.5163 1.31939,-0.52981 0.0172,-0.03436 -0.27139,-0.71372 -0.33762,-0.79464 -0.0298,-0.03655 -0.12502,-0.06041 -0.21143,-0.05304 -0.44102,0.03766 -0.53533,0.02256 -0.6399,-0.10245 -0.12267,-0.1466 -0.32371,-0.65253 -0.47949,-1.20683 l -0.11052,-0.39313 0.47329,-0.35456 c 0.50757,-0.38026 0.87752,-0.54936 1.39025,-0.63557 0.30882,-0.05194 0.48145,-0.01166 0.67766,0.15814 0.18367,0.15891 0.53194,0.74741 0.58719,0.99233 0.0858,0.37985 -0.0343,0.79271 -0.26283,0.90333 -0.1239,0.05996 -0.1337,0.02682 0.17858,0.60562 0.0993,0.18419 0.1885,0.33472 0.19797,0.33457 0.01,-1.8e-4 0.35735,-0.15922 0.77289,-0.35341 0.41561,-0.19421 1.00326,-0.45896 1.306,-0.58835 0.30267,-0.12937 0.54924,-0.24287 0.54781,-0.25219 -0.0147,-0.09563 -0.25448,-0.58376 -0.32887,-0.6694 -0.0774,-0.08904 -0.15043,-0.10404 -0.37276,-0.07649 -0.46009,0.05701 -0.56923,-0.07762 -0.88053,-1.08646 -0.19811,-0.64199 -0.19484,-0.6541 0.25898,-0.95895 0.15414,-0.10357 0.36094,-0.24283 0.45956,-0.30946 0.37747,-0.25515 1.09777,-0.42372 1.38902,-0.32508 0.20366,0.06897 0.42723,0.31339 0.65369,0.71467 0.29764,0.52716 0.28856,1.00438 -0.024,1.26587 l -0.16368,0.13694 0.25636,0.39864 c 0.14102,0.21924 0.26649,0.39903 0.2789,0.3995 0.0124,4.3e-4 0.2245,-0.04706 0.47133,-0.10559 0.75394,-0.17876 1.22579,-0.21073 1.73447,-0.11753 1.40234,0.25694 2.51755,1.00726 3.14786,2.11792 0.11116,0.19597 0.25689,0.48789 0.32377,0.64871 0.14709,0.35385 0.34859,1.1746 0.39843,1.62283 0.0963,0.86619 -0.14716,1.7806 -0.68347,2.56716 -0.53063,0.77817 -1.39457,1.66363 -1.89764,1.94476 -1.05179,0.58782 -2.48143,0.89827 -3.43982,0.74696 -0.28686,-0.04532 -0.80933,-0.22302 -1.36948,-0.4658 -0.70085,-0.30375 -1.24924,-0.24979 -1.85368,0.18242 -0.39869,0.28505 -0.56459,0.48388 -2.49312,2.98706 -2.00156,2.59795 -3.24903,4.18176 -4.25549,5.40265 -0.69693,0.84546 -0.76649,0.91664 -1.51848,1.55361 -0.56688,0.480144 -0.83291,0.681244 -0.94787,0.716434 -0.11783,0.03604 -0.29274,0.0011 -0.6657,-0.13282 -0.74271,-0.26674 -1.78307,-0.558864 -2.30488,-0.647194 -0.5693,-0.09637 -1.03919,-0.10415 -1.72076,-0.02842 -1.01195,0.11242 -1.19451,0.16835 -1.87288,0.573824 -0.33716,0.2015 -0.78563,0.46042 -0.99653,0.57535 -0.39941,0.21758 -2.14741,1.68782 -33.46601,28.148874 -2.67751,2.26222 -8.90555,7.51953 -13.84013,11.68292 -4.93456,4.16338 -10.1035,8.53142 -11.48656,9.70677 -1.38303,1.17532 -3.35381,2.83942 -4.37943,3.69794 l -1.86485,1.56099 0.0375,0.13595 c 0.0206,0.0748 0.0129,0.23641 -0.0171,0.35918 -0.2952,1.20644 0.53374,3.26848 1.92073,4.77794 1.6344,1.77867 3.56032,2.69778 5.60339,2.67416 0.52828,-0.006 1.1857,-0.19714 2.58414,-0.75086 0.78926,-0.31253 2.36224,-1.06083 3.07759,-1.46408 0.87864,-0.4953 1.43092,-0.64104 2.18263,-0.57591 0.86586,0.075 1.45819,0.40575 1.99815,1.11569 0.50411,0.66283 0.65003,1.25152 0.56061,2.26189 -0.031,0.35148 -0.10999,0.81136 -0.17531,1.02192 -0.26394,0.85082 -1.36036,2.55287 -2.46643,3.82893 -0.52798,0.60912 -2.34873,2.13164 -3.09187,2.58544 -1.51243,0.92355 -2.47794,1.3705 -6.65249,3.07955 -0.25566,0.10467 -0.9638,0.31819 -1.57365,0.47448 -1.6916,0.43354 -2.64481,0.76886 -3.857,1.35678 -1.95394,0.94769 -3.55785,2.23272 -4.91583,3.93848 -0.93734,1.1774 -1.6487,2.41284 -2.34309,4.06936 -0.22912,0.5466 -0.53247,1.20863 -0.6741,1.47115 -0.33689,0.62445 -0.69796,1.35409 -1.66334,3.36122 -1.54445,3.21109 -2.33945,4.7002 -3.42543,6.41621 -1.99542,3.15306 -4.22221,5.64576 -6.80155,7.61368 -1.76506,1.34666 -3.00428,2.136 -4.37009,2.7836 -2.54156,1.20502 -4.702,1.58808 -7.9219,1.40466 -1.37758,-0.0785 -1.45125,-0.0912 -2.62639,-0.45372 -2.66432,-0.82201 -4.03491,-1.44163 -5.78531,-2.61557 -2.17608,-1.45942 -4.50092,-3.61047 -6.55284,-6.06304 -0.62648,-0.74878 -1.96719,-2.32794 -2.97934,-3.50925 l -1.84033,-2.1478 -0.36559,0.0618 -0.36558,0.0618 -0.0376,0.26815 c -0.0415,0.29551 -0.14062,0.41189 -0.40022,0.46978 -0.29614,0.066 -0.48423,-0.0367 -0.82904,-0.45274 -0.22088,-0.26654 -0.31771,-0.42023 -0.3499,-0.55537 z"
       id="path3250"
       sodipodi:nodetypes="csssssssssssssssssssscccsssssscccssssssssssssscccssssssssssssssssssscccsssscccsssscccssssscccsssssssssscccsssscccsssssssssssssssscccssssssssssssssssssssssscccssssssssssssssssssssssssscccccssc" />
    <rect
       style="color:#000000;display:block;overflow:visible;visibility:visible;opacity:1;fill:#0000ff;fill-opacity:0.226087;fill-rule:nonzero;stroke:none;stroke-width:10.6;stroke-linecap:butt;stroke-linejoin:miter;stroke-miterlimit:4;stroke-dasharray:none;stroke-dashoffset:0;stroke-opacity:1;marker:none;marker-start:none;marker-mid:none;marker-end:none"
       id="rect1913"
       width="291.42856"
       height="45.714287"
       x="-16.285721"
       y="181.50516" />
    <path
       style="font-size:39.8338px;font-family:Goblin;fill:#000000;fill-opacity:1;stroke:none;stroke-opacity:1"
       d="M 58.72672,219.00823 44.00299,198.17717 v 20.44206 h -3.69552 v -28.49441 h 1.55601 l 14.33473,19.70296 v -19.70296 h 3.69552 v 28.88341 H 58.72672 M 64.3867,204.1289 c 0,-4.1234 1.03086,-7.57255 3.09257,-10.34746 2.07467,-2.77485 4.869,-4.16229 8.383,-4.16232 3.95483,3e-5 6.98256,1.27725 9.0832,3.83167 2.11355,2.55447 3.17034,6.11384 3.17036,10.67811 -2e-5,4.681 -1.05681,8.35059 -3.17036,11.00876 -2.1136,2.64522 -5.14133,3.96782 -9.0832,3.96782 -3.5918,0 -6.40558,-1.4004 -8.44135,-4.20122 -2.02281,-2.80081 -3.03422,-6.39259 -3.03422,-10.77536 m 4.08453,0 c -1e-5,3.26763 0.64184,5.99713 1.92556,8.1885 1.29666,2.19138 3.11849,3.28707 5.46548,3.28707 2.65816,0 4.68097,-1.00492 6.06843,-3.01477 1.40039,-2.00984 2.10059,-4.8301 2.10061,-8.4608 -2e-5,-7.33915 -2.72303,-11.00873 -8.16904,-11.00876 -2.41183,3e-5 -4.24662,0.9855 -5.50438,2.95642 -1.25778,1.97096 -1.88667,4.65507 -1.88666,8.05234 m 54.28524,-12.95377 -1.30315,3.32597 c -1.24483,-0.90765 -3.2028,-1.36148 -5.87394,-1.36151 -2.50259,3e-5 -4.51243,1.07626 -6.02953,3.22872 -1.50415,2.1525 -2.25622,4.92738 -2.25621,8.32465 -1e-5,3.24169 0.77151,5.87394 2.31456,7.89674 1.556,2.00985 3.55936,3.01477 6.01008,3.01477 2.67114,0 4.72636,-0.94657 6.16569,-2.83972 l 2.13951,2.97587 c -2.25623,2.24324 -5.16078,3.36486 -8.71365,3.36486 -3.72146,0 -6.65194,-1.34205 -8.79145,-4.02617 -2.13951,-2.68411 -3.20927,-6.22402 -3.20926,-10.61976 -1e-5,-4.25307 1.14107,-7.7865 3.42321,-10.6003 2.28214,-2.81376 5.23207,-4.22065 8.8498,-4.22068 3.09904,3e-5 5.52381,0.51222 7.27434,1.53656 m 4.25958,12.95377 c -1e-5,-4.1234 1.03085,-7.57255 3.09256,-10.34746 2.07467,-2.77485 4.869,-4.16229 8.383,-4.16232 3.95484,3e-5 6.98257,1.27725 9.0832,3.83167 2.11355,2.55447 3.17034,6.11384 3.17037,10.67811 -3e-5,4.681 -1.05682,8.35059 -3.17037,11.00876 -2.1136,2.64522 -5.14133,3.96782 -9.0832,3.96782 -3.5918,0 -6.40558,-1.4004 -8.44135,-4.20122 -2.02281,-2.80081 -3.03422,-6.39259 -3.03421,-10.77536 m 4.08452,0 c -1e-5,3.26763 0.64185,5.99713 1.92556,8.1885 1.29666,2.19138 3.11849,3.28707 5.46548,3.28707 2.65816,0 4.68097,-1.00492 6.06843,-3.01477 1.40039,-2.00984 2.10059,-4.8301 2.10061,-8.4608 -2e-5,-7.33915 -2.72303,-11.00873 -8.16904,-11.00876 -2.41182,3e-5 -4.24662,0.9855 -5.50438,2.95642 -1.25778,1.97096 -1.88667,4.65507 -1.88666,8.05234 m 34.03769,14.87933 h -1.96446 l -10.61976,-28.88341 h 4.31793 l 7.33269,20.98667 7.06039,-20.98667 h 4.18177 l -10.30856,28.88341 m 17.38839,-25.38239 v 7.9162 h 9.41386 v 3.30652 h -9.41386 v 10.26965 h 12.91488 v 3.50102 h -16.8049 v -28.49441 h 17.01885 v 3.50102 h -13.12883 m 33.24024,24.99339 -7.60499,-12.23412 c -0.86878,2e-5 -2.24326,-0.0648 -4.12342,-0.1945 v 12.42862 h -3.89002 v -28.49441 c 0.14263,3e-5 1.14755,-0.0454 3.01476,-0.13615 1.88017,-0.1037 3.24816,-0.15557 4.10397,-0.1556 6.84643,3e-5 10.26964,2.72304 10.26966,8.16905 -2e-5,1.78943 -0.5511,3.40378 -1.65326,4.84307 -1.10219,1.42636 -2.41183,2.31458 -3.92892,2.66467 l 8.2663,13.10937 h -4.45408 m -11.72841,-24.99339 v 9.25826 c 0.93359,0.12968 1.84126,0.19451 2.72301,0.1945 2.334,1e-5 4.03264,-0.37602 5.09593,-1.12811 1.06326,-0.75205 1.59489,-2.09411 1.59491,-4.02617 -2e-5,-1.59489 -0.57055,-2.74244 -1.71161,-3.44267 -1.14109,-0.70018 -2.94346,-1.05028 -5.40713,-1.05031 -0.38901,3e-5 -1.15405,0.0649 -2.29511,0.1945"
       id="text1909" />
  </g>
</svg>
