<?xml version="1.0" encoding="UTF-8" standalone="no"?>
<!-- Created with Inkscape (http://www.inkscape.org/) -->
<svg
   xmlns:dc="http://purl.org/dc/elements/1.1/"
   xmlns:cc="http://creativecommons.org/ns#"
   xmlns:rdf="http://www.w3.org/1999/02/22-rdf-syntax-ns#"
   xmlns:svg="http://www.w3.org/2000/svg"
   xmlns="http://www.w3.org/2000/svg"
   xmlns:xlink="http://www.w3.org/1999/xlink"
   xmlns:sodipodi="http://sodipodi.sourceforge.net/DTD/sodipodi-0.dtd"
   xmlns:inkscape="http://www.inkscape.org/namespaces/inkscape"
   width="256"
   height="256"
   id="svg2"
   sodipodi:version="0.32"
   inkscape:version="0.46"
   sodipodi:docbase="/home/yoda/UltraStar/sf/svn/UltraStar-ng/themes/lima"
   sodipodi:docname="band_cover.svg"
   inkscape:output_extension="org.inkscape.output.svg.inkscape"
   version="1.0">
  <defs
     id="defs4">
    <inkscape:perspective
       sodipodi:type="inkscape:persp3d"
       inkscape:vp_x="0 : 128 : 1"
       inkscape:vp_y="0 : 1000 : 0"
       inkscape:vp_z="256 : 128 : 1"
       inkscape:persp3d-origin="128 : 85.333333 : 1"
       id="perspective17" />
    <linearGradient
       id="linearGradient3751"
       inkscape:collect="always">
      <stop
         id="stop3753"
         offset="0"
         style="stop-color:black;stop-opacity:1;" />
      <stop
         id="stop3755"
         offset="1"
         style="stop-color:black;stop-opacity:0;" />
    </linearGradient>
    <linearGradient
       inkscape:collect="always"
       xlink:href="#linearGradient3751"
       id="linearGradient3484"
       gradientUnits="userSpaceOnUse"
       gradientTransform="matrix(0.336682,0,0,0.336682,-81.3739,-51.8729)"
       x1="665.12128"
       y1="684.16162"
       x2="381.28015"
       y2="449.80624" />
  </defs>
  <sodipodi:namedview
     id="base"
     pagecolor="#ffffff"
     bordercolor="#666666"
     borderopacity="1.0"
     inkscape:pageopacity="0.0"
     inkscape:pageshadow="2"
     inkscape:zoom="1.1191406"
     inkscape:cx="-57.186749"
     inkscape:cy="70.174855"
     inkscape:document-units="px"
     inkscape:current-layer="layer1"
     inkscape:window-width="1144"
     inkscape:window-height="785"
     inkscape:window-x="136"
     inkscape:window-y="25"
     showguides="true"
     inkscape:guide-bbox="true"
     width="256px"
     height="256px"
     borderlayer="false"
     showgrid="false" />
  <metadata
     id="metadata7">
    <rdf:RDF>
      <cc:Work
         rdf:about="">
        <dc:format>image/svg+xml</dc:format>
        <dc:type
           rdf:resource="http://purl.org/dc/dcmitype/StillImage" />
      </cc:Work>
    </rdf:RDF>
  </metadata>
  <g
     inkscape:label="Capa 1"
     inkscape:groupmode="layer"
     id="layer1">
    <rect
       style="opacity:1;color:#000000;fill:#ffffff;fill-opacity:0.31313129000000001;fill-rule:nonzero;stroke:#7f7f7f;stroke-width:10.01399999999999935;stroke-linecap:butt;stroke-linejoin:miter;marker:none;marker-start:none;marker-mid:none;marker-end:none;stroke-miterlimit:4;stroke-dasharray:none;stroke-dashoffset:0;stroke-opacity:1;visibility:visible;display:block;overflow:visible"
       id="rect1906"
       width="246.30026"
       height="246.30028"
       x="4.8498545"
       y="4.0691833"
       inkscape:export-filename="/home/jesusda/docs/curro/yo/ultrastar-ng/base/theme-pod/images/no_cover.png"
       inkscape:export-xdpi="89.889648"
       inkscape:export-ydpi="89.889648" />
    <path
       style="opacity:1;fill:#171717;fill-opacity:1"
       d="M 169.41447,135.01629 C 163.31507,134.72906 157.33592,132.58979 152.4885,128.96039 C 150.97451,127.82683 148.77141,125.75385 147.63186,124.3906 C 144.16045,120.23772 142.07803,115.59758 141.33924,110.3691 L 141.26406,109.837 L 140.61465,109.85523 L 139.96526,109.87344 L 139.37286,111.57568 L 138.78047,113.27792 L 138.79345,115.6159 L 138.80642,117.95388 L 139.9138,118.22899 C 141.06641,118.51534 141.47817,118.68747 141.58819,118.92892 C 141.62394,119.00739 141.67395,119.36438 141.69932,119.72223 L 141.74545,120.37287 L 141.56523,120.44139 C 141.46612,120.47908 141.20951,120.50144 140.995,120.49108 L 140.605,120.47226 L 140.51352,120.11093 C 140.43956,119.81887 140.39647,119.74921 140.28869,119.74748 C 140.0645,119.74392 138.09312,119.23776 137.8452,119.12011 C 137.57575,118.99225 137.42535,118.74279 137.42535,118.42371 C 137.42535,118.30039 137.40146,118.18472 137.37227,118.16668 C 137.29692,118.12011 137.03994,118.19554 137.03994,118.26423 C 137.03994,118.29576 136.11023,120.98786 134.97392,124.24667 C 133.22839,129.25263 132.9063,130.23157 132.89761,130.55718 C 132.889,130.87909 132.80578,131.13794 132.39259,132.12808 C 131.77277,133.61334 131.65437,133.81627 131.27932,134.03606 C 130.74629,134.34844 129.96083,134.23726 129.4097,133.77144 C 129.13955,133.54311 128.99117,133.25798 129.04739,133.0752 C 129.10659,132.8827 131.11448,127.97677 131.19773,127.82122 C 131.25217,127.7195 131.28788,127.70977 131.39544,127.76734 C 131.46764,127.80598 131.53394,127.82803 131.54275,127.81633 C 131.55157,127.80463 132.35998,125.48608 133.33921,122.66398 L 135.11963,117.53289 L 134.98778,117.39256 C 134.91527,117.31536 134.85594,117.1912 134.85594,117.11664 C 134.85594,116.96916 135.29077,115.70068 135.38233,115.58104 C 135.4133,115.54057 135.53156,115.48991 135.64511,115.46844 L 135.85159,115.42942 L 136.60816,113.26168 L 137.36473,111.09391 L 137.36293,109.05444 L 137.36112,107.01498 L 136.71876,107.01498 L 136.07641,107.01498 L 136.07001,107.5128 C 136.0601,108.28335 136.03723,108.32817 135.64227,108.35115 C 135.32609,108.36954 135.30721,108.36162 135.25947,108.19056 C 135.19407,107.9563 135.19407,105.30283 135.25947,105.06858 C 135.30721,104.89752 135.32609,104.8896 135.64227,104.90798 C 136.03723,104.93096 136.0601,104.97578 136.07001,105.74633 L 136.07641,106.24416 L 136.71876,106.24416 L 137.36112,106.24416 L 137.36112,103.50668 L 137.36112,100.7692 L 136.95965,100.80871 C 135.40575,100.96163 134.23479,101.00374 131.46754,101.00622 L 128.3682,101.00899 L 128.36819,109.03597 L 128.36819,117.06296 L 128.52205,117.19384 C 128.65892,117.31027 128.68001,117.39388 128.71304,117.95102 C 128.74419,118.47664 128.73495,118.57732 128.65552,118.57732 C 128.57599,118.57732 128.5609,118.74666 128.5609,119.6388 L 128.5609,120.70026 L 128.38425,120.76851 C 128.13371,120.86531 126.90636,120.81199 126.66596,120.69387 L 126.47325,120.59918 L 126.45538,119.67561 C 126.44125,118.94596 126.45681,118.73032 126.52946,118.64862 C 126.58601,118.58504 126.63813,118.32252 126.66478,117.96708 C 126.71699,117.27097 126.74336,117.16414 126.86299,117.16414 C 126.94238,117.16414 126.95502,116.0493 126.95502,109.04386 L 126.95502,100.9236 L 126.48931,100.88725 C 124.37303,100.72208 122.71427,100.58069 122.54651,100.55119 L 122.34542,100.5158 L 122.29684,103.33181 C 122.27012,104.8806 122.25495,107.96887 122.26311,110.19462 C 122.27852,114.39368 122.2553,115.11256 122.10013,115.24134 C 122.04201,115.28957 122.00891,115.44242 122.00891,115.66248 L 122.00891,116.00791 L 121.67167,116.00692 C 121.48619,116.00639 121.29923,115.98357 121.25619,115.95622 C 121.1259,115.87344 121.10239,114.78451 121.07177,107.41733 L 121.04263,100.4005 L 120.89947,100.36993 C 120.82073,100.35311 120.48171,100.30716 120.14609,100.2678 C 119.19819,100.15665 116.44153,99.710872 115.23209,99.473162 L 114.14009,99.258532 L 113.9276,99.459292 C 113.72487,99.650822 113.69088,99.659982 113.18888,99.658792 C 112.1791,99.656352 111.36791,99.267702 111.24975,98.729722 C 111.22634,98.623152 111.17293,98.535932 111.13106,98.535932 C 111.0892,98.535932 110.5206,98.373792 109.86752,98.175622 C 109.21444,97.977442 108.62951,97.800642 108.56768,97.782712 C 108.46117,97.751842 108.45534,98.073432 108.45654,103.90814 L 108.4578,110.06615 L 110.97777,113.6696 C 118.8789,124.96788 120.44439,127.18152 120.54539,127.19847 C 120.65239,127.21641 123.4109,131.09128 123.4691,131.30538 C 123.54777,131.59482 123.1246,131.87441 122.60943,131.87337 C 122.22426,131.8726 121.73011,131.64927 121.45565,131.35193 C 121.13001,130.99914 120.00432,129.35803 119.89712,129.07977 C 119.84267,128.93845 118.39393,126.81387 116.67772,124.35849 C 114.9615,121.9031 112.41658,118.26261 111.02236,116.26851 L 108.48739,112.6429 L 108.45323,115.62616 C 108.42703,117.91508 108.39933,118.64866 108.33421,118.77797 C 108.19939,119.04569 107.85731,119.19102 106.6451,119.49553 C 105.66161,119.74258 105.49848,119.76828 105.41887,119.68868 C 105.33927,119.60907 105.31608,119.64858 105.24454,119.98567 C 105.19916,120.19953 105.12209,120.40763 105.07328,120.44815 C 105.01632,120.49541 104.83332,120.50966 104.56241,120.48791 L 104.14027,120.45402 L 104.18522,121.36244 C 104.20995,121.86206 104.24978,122.52678 104.27375,122.83959 C 104.31711,123.40541 104.3165,123.40872 104.15414,123.47752 C 104.06437,123.51556 103.77903,123.54868 103.52005,123.55111 C 103.14346,123.55465 103.03281,123.53318 102.96749,123.44386 C 102.8644,123.30287 102.7736,121.99774 102.85967,121.89404 C 102.89988,121.84559 102.86742,121.1427 102.76727,119.89321 C 102.68236,118.83384 102.61227,117.88036 102.61153,117.77438 L 102.61017,117.58167 L 102.14431,117.60414 C 101.55601,117.63251 100.61573,117.50707 100.25377,117.35191 L 99.976232,117.23294 L 99.974672,116.82919 L 99.973112,116.42543 L 97.558182,114.69108 C 96.229962,113.73719 94.990842,112.84827 94.804582,112.71571 L 94.465912,112.47468 L 89.43517,118.91441 C 86.66824,122.45626 83.98604,125.88889 83.47468,126.54248 C 82.96334,127.19608 82.42017,127.8669 82.26766,128.0332 C 82.09744,128.2188 81.99036,128.39674 81.99036,128.49398 C 81.99036,128.65652 81.90548,128.78009 80.98793,129.9534 C 80.43871,130.65571 80.12673,130.96963 79.82071,131.12788 C 79.58439,131.25009 79.09425,131.31899 78.84722,131.26473 C 78.58013,131.20606 78.26461,130.9326 78.26516,130.76024 C 78.26542,130.6779 78.84237,129.87655 79.68316,128.79071 C 81.21753,126.80916 81.34182,126.65954 81.41566,126.70518 C 81.4426,126.72184 85.60084,121.44292 90.6562,114.97427 L 99.847762,103.21309 L 99.847762,102.7741 C 99.847762,102.37573 99.863502,102.32275 100.01801,102.20121 C 100.11164,102.12756 100.29953,102.0495 100.43553,102.02775 L 100.68282,101.98821 L 100.6821,94.496972 L 100.68139,87.005712 L 100.34487,86.877242 L 100.00835,86.748772 L 99.991042,85.311562 C 99.979932,84.388552 99.997552,83.845662 100.04031,83.794142 C 100.07693,83.750022 100.27983,83.665392 100.49121,83.606082 L 100.87552,83.498242 L 100.87413,69.899766 L 100.87274,56.301286 L 100.66537,56.204926 C 100.46273,56.110776 100.45489,56.091286 100.32209,55.351726 C 100.24733,54.935466 100.1736,54.582286 100.15821,54.566916 C 100.14283,54.551536 98.445222,57.327716 96.385742,60.736206 C 94.326262,64.144686 92.579732,66.976536 92.504562,67.029176 C 92.270282,67.193286 91.899442,67.151636 91.684952,66.937146 C 91.289302,66.541506 91.103722,66.899176 95.351702,59.870486 L 99.206212,53.492802 L 99.003532,53.261972 C 98.314992,52.477752 98.244342,51.140262 98.831582,50.006222 C 99.340352,49.023702 100.07156,48.376142 101.0941,48.002492 C 101.23885,47.949592 101.64433,47.887402 101.99516,47.864272 L 102.63303,47.822232 L 107.88941,39.124382 C 110.78041,34.340552 113.13267,30.413422 113.11665,30.397402 C 113.10063,30.381382 112.0814,30.114202 110.85169,29.803672 C 102.79299,27.768702 96.020262,25.410462 90.88695,22.852062 C 87.47056,21.149352 85.2961,19.678962 84.03167,18.216452 C 82.92666,16.938322 82.72188,15.745562 83.43961,14.767842 C 84.15145,13.798132 86.08494,13.023082 88.7993,12.619392 C 91.761432,12.178872 96.514892,12.132222 101.32517,12.496462 C 113.70361,13.433792 129.4225,16.955582 140.25171,21.217912 C 147.11074,23.917592 151.43444,26.603072 152.61276,28.895482 C 153.44729,30.519102 152.51162,31.900152 149.98231,32.777942 C 148.78278,33.194232 146.70095,33.593352 145.18175,33.698302 C 144.8373,33.722092 144.55546,33.760742 144.55546,33.784172 C 144.55546,33.807612 144.70722,33.865302 144.8927,33.912362 C 145.4717,34.059292 147.81481,34.845262 148.92346,35.264452 C 156.23761,38.029902 162.13217,42.076122 162.95354,44.895122 C 163.16081,45.606552 163.11586,45.848362 162.44495,47.631182 C 162.10934,48.523042 161.83498,49.277752 161.83526,49.308322 C 161.83559,49.338872 162.81114,49.726142 164.00323,50.168912 L 166.17059,50.973932 L 166.19144,50.747832 C 166.21735,50.467002 166.30266,50.359522 166.49964,50.359522 C 166.65225,50.359522 166.65237,50.358792 166.65237,49.564242 L 166.65237,48.768962 L 166.15455,48.713122 L 165.65673,48.657282 L 165.6375,48.360492 C 165.61288,47.981092 165.59992,47.984572 167.03779,47.984572 C 168.47564,47.984572 168.46269,47.981092 168.43806,48.360492 L 168.41883,48.657282 L 167.88701,48.714502 L 167.35514,48.771722 L 167.37311,49.549032 L 167.39106,50.326332 L 167.58379,50.359322 C 167.76068,50.389602 167.77805,50.415952 167.7955,50.681022 C 167.81417,50.963752 167.82085,50.971762 168.1167,51.066112 L 168.41883,51.162462 L 168.41883,51.868182 L 168.41883,52.573902 L 168.24218,52.658572 L 168.06553,52.743232 L 168.06553,54.122806 C 168.06553,55.377946 168.07569,55.506136 168.17796,55.544136 C 168.23979,55.567116 168.53605,55.744896 168.83636,55.939226 C 170.08728,56.748676 169.96771,56.701326 170.5913,56.634476 C 170.93792,56.597316 171.30419,56.598506 171.57656,56.637676 C 172.06899,56.708476 172.03178,56.724056 173.18913,55.962326 C 173.5164,55.746936 173.84161,55.552466 173.91179,55.530196 C 174.03386,55.491446 174.03941,55.430246 174.03941,54.124546 L 174.03941,52.759412 L 173.83064,52.667522 L 173.62188,52.575632 L 173.60301,51.997522 C 173.57702,51.201852 173.59754,51.144952 173.94446,51.052172 C 174.22817,50.976282 174.23213,50.971482 174.23213,50.701332 C 174.23213,50.446212 174.24643,50.423722 174.4409,50.373442 L 174.64966,50.319432 L 174.6676,49.545582 L 174.68558,48.771722 L 174.15375,48.714502 L 173.62188,48.657282 L 173.60265,48.360832 C 173.58406,48.073772 173.5899,48.063092 173.78732,48.023602 C 174.05224,47.970622 176.01788,47.970622 176.2828,48.023602 C 176.48023,48.063092 176.4861,48.073772 176.46747,48.360832 L 176.44824,48.657282 L 175.91827,48.714312 L 175.38835,48.771342 L 175.38835,49.535332 C 175.38835,50.206882 175.40195,50.303522 175.50075,50.334052 C 175.74757,50.410322 175.80721,50.479452 175.83798,50.725032 L 175.87013,50.981142 L 178.08097,50.156332 C 179.29699,49.702692 180.30036,49.323042 180.31072,49.312682 C 180.32109,49.302322 179.98142,48.370172 179.55592,47.241212 C 178.8444,45.353492 178.78237,45.153952 178.78399,44.757592 C 178.78719,43.964302 179.25492,43.102872 180.23719,42.081072 C 181.75085,40.506522 183.8735,39.044862 186.88647,37.502422 C 190.75346,35.522772 195.73956,33.843442 199.60504,33.218792 C 201.27328,32.949192 201.62307,32.921162 203.29855,32.922752 C 204.7931,32.924172 205.03248,32.939282 205.57572,33.066482 C 206.21808,33.216902 206.88332,33.495912 207.22991,33.760272 C 207.52228,33.983312 207.69955,34.316902 208.11351,35.423292 C 208.41427,36.227022 208.5165,36.427802 208.7349,36.643762 C 208.87864,36.785922 209.03436,36.975782 209.081,37.065682 C 209.20729,37.309272 209.35228,37.921502 209.43759,38.571422 C 209.50521,39.086932 209.85569,40.058702 212.71703,47.665732 C 215.24316,54.381356 215.92079,56.245216 215.92079,56.477656 L 215.92079,56.772436 L 217.0319,56.793796 C 218.25237,56.817256 218.39185,56.856536 218.60876,57.237796 L 218.715,57.424586 L 219.59487,57.424996 L 220.47479,57.425396 L 220.49418,57.089066 C 220.51265,56.768826 220.52625,56.745786 220.77741,56.607556 C 221.03196,56.467476 221.04269,56.448476 221.08254,56.067216 C 221.12841,55.628626 221.18372,55.529486 221.41491,55.471446 L 221.5723,55.431956 L 221.58898,52.207612 L 221.60561,48.983262 L 221.8373,48.928472 C 221.96727,48.897742 222.1647,48.898472 222.28697,48.930152 L 222.50489,48.986612 L 222.52157,52.202802 L 222.53817,55.419006 L 222.72818,55.497696 C 222.9389,55.584976 222.95808,55.628356 223.0174,56.150766 C 223.05335,56.467466 223.07898,56.519216 223.21697,56.553866 C 223.49124,56.622706 223.62903,56.817436 223.62903,57.136336 L 223.62903,57.425396 L 224.91181,57.425396 C 230.64725,57.425396 239.00701,57.970836 242.25722,58.557116 C 243.76977,58.829956 244.76067,59.170136 244.86963,59.453966 C 244.93757,59.631086 244.8287,59.839896 244.60033,59.970406 L 244.3695,60.102326 L 244.60167,60.279426 C 245.10693,60.664806 244.76043,61.057966 243.63827,61.372446 C 241.78653,61.891416 237.66204,62.343266 232.49349,62.593406 C 229.96967,62.715546 226.51601,62.821456 225.06211,62.821286 L 223.95793,62.821156 L 223.93801,63.062036 C 223.92003,63.279146 223.88642,63.319156 223.59749,63.467466 L 223.27694,63.632026 L 223.18645,64.174056 C 223.11773,64.585726 223.09032,65.652706 223.07247,68.610366 L 223.04895,72.504626 L 223.21588,72.614016 C 223.30771,72.674166 223.4376,72.843986 223.50453,72.991386 C 223.62074,73.247386 223.62624,73.497036 223.62757,78.570586 L 223.62903,83.881822 L 223.89647,84.062712 C 224.35874,84.375372 224.42854,84.594962 224.45421,85.817362 C 224.48259,87.169892 224.42477,87.453662 224.04166,87.842302 C 223.8465,88.040292 223.75702,88.185782 223.75605,88.306852 C 223.75399,88.566512 223.5355,89.003252 223.34533,89.127862 L 223.17936,89.236602 L 223.17936,96.541862 L 223.17936,103.84711 L 223.43525,103.92378 C 223.76406,104.02229 223.82168,104.14052 223.82168,104.71607 L 223.82168,105.18772 L 228.90403,112.44458 C 231.69929,116.43585 235.2545,121.51185 236.80448,123.72457 C 238.35441,125.93729 239.67342,127.76126 239.7355,127.77781 C 239.90191,127.82218 242.51416,131.58599 242.51416,131.78141 C 242.51416,132.02595 242.18486,132.19497 241.71122,132.19353 C 241.25268,132.19213 240.89649,132.04461 240.60986,131.73732 C 240.29899,131.40406 239.16703,129.75017 239.07669,129.4973 C 239.03256,129.37365 238.2661,128.23187 237.37355,126.96001 C 236.48096,125.68815 234.98431,123.54911 234.04768,122.20661 C 227.82757,113.29105 228.24688,113.87496 228.13416,113.97201 C 228.03472,114.05765 225.41652,116.20669 225.37667,116.23538 C 225.36635,116.24282 225.54904,116.43248 225.7827,116.65683 C 226.01633,116.88119 226.17654,117.07508 226.13872,117.08769 C 226.09046,117.10377 226.06993,118.94194 226.06993,123.24351 C 226.06993,127.31576 226.09151,129.36307 226.13415,129.33671 C 226.1695,129.31488 226.19841,129.15419 226.19841,128.97963 C 226.19841,128.80506 226.22011,128.66337 226.24659,128.66475 C 226.27307,128.66612 226.54046,128.78897 226.84077,128.93774 C 227.4688,129.24888 227.57922,129.40639 227.69586,130.15776 C 227.75162,130.51676 227.74732,130.60835 227.67145,130.67851 C 227.62088,130.72533 226.30882,131.05802 224.75581,131.41783 C 223.20284,131.77763 221.9203,132.0839 221.90576,132.09841 C 221.89127,132.11293 221.98399,132.24701 222.11186,132.39638 C 222.23972,132.54574 222.3443,132.73291 222.3443,132.81231 C 222.3443,133.04001 222.05614,133.22294 221.69745,133.22294 C 221.27332,133.22294 221.10712,133.14667 220.7074,132.76864 L 220.36243,132.44237 L 219.43413,132.65511 C 218.77383,132.80643 218.51486,132.89129 218.53701,132.94905 C 218.55414,132.9937 218.53746,133.03023 218.49988,133.03023 C 218.46231,133.03023 217.68596,132.50023 216.77471,131.85245 C 212.61002,128.89193 210.44173,127.37519 210.41392,127.40298 C 210.39731,127.41958 210.41747,127.53531 210.4587,127.66017 C 210.5253,127.86205 210.54713,127.87869 210.6562,127.8106 C 210.73512,127.76131 210.79856,127.75635 210.83439,127.79667 C 210.9276,127.90161 213.03022,133.05479 213.03022,133.17828 C 213.03022,133.35962 212.86688,133.62808 212.66711,133.77505 C 211.71038,134.47899 210.67722,134.32249 210.2224,133.40471 C 210.14652,133.25174 209.88014,132.62685 209.63032,132.01605 C 209.26625,131.12603 209.17624,130.83903 209.17684,130.57076 C 209.17741,130.30687 208.99723,129.71377 208.32572,127.76932 L 207.47386,125.30263 L 207.01155,124.95902 C 206.75732,124.77004 206.535,124.61543 206.51754,124.61543 C 206.50005,124.61543 205.77954,125.51937 204.91639,126.62419 C 204.05324,127.729 203.30301,128.66948 203.2492,128.71412 C 203.19539,128.75877 203.13267,128.89519 203.10975,129.01728 C 203.08202,129.16518 202.80827,129.57333 202.2894,130.24027 C 201.46268,131.30297 201.15712,131.5606 200.61456,131.65227 C 200.12913,131.73427 199.49463,131.4134 199.55442,131.11616 C 199.56459,131.06559 200.22331,130.19029 201.0182,129.17106 C 202.00282,127.90862 202.50444,127.31517 202.59198,127.30931 C 202.66268,127.30457 202.59874,127.26739 202.45002,127.2267 C 202.04999,127.11727 202.04108,127.09674 202.11137,126.44455 C 202.23028,125.34081 202.4314,122.62503 202.4314,122.12317 L 202.4314,121.61794 L 200.68096,120.1696 C 199.37194,119.08648 198.9119,118.73955 198.85667,118.79381 C 198.6769,118.9703 190.09846,131.29945 190.01282,131.50446 C 189.89718,131.78117 189.06994,132.98113 188.79657,133.26864 C 188.52787,133.55121 188.24449,133.67259 187.8534,133.67259 C 187.58504,133.67259 187.49228,133.64189 187.35951,133.50914 C 187.26962,133.41925 187.21153,133.30553 187.23035,133.25644 C 187.30927,133.0507 189.43014,130.07763 189.49873,130.07657 C 189.53991,130.07593 189.86977,129.64906 190.23179,129.12795 C 190.59373,128.60684 190.99315,128.03727 191.11939,127.86223 C 191.39262,127.48337 191.33003,127.5144 190.61211,128.11376 C 187.48649,130.72311 183.46659,132.80744 179.40308,133.92565 C 177.0455,134.5744 174.98318,134.89804 172.43356,135.01935 C 170.94388,135.09022 170.98509,135.09026 169.41447,135.01629 z M 224.65678,126.41401 C 224.65678,125.60143 224.6428,124.9366 224.62576,124.9366 C 224.56102,124.9366 220.45839,125.9018 220.43847,125.9217 C 220.41661,125.94359 224.52478,127.87992 224.60859,127.88722 C 224.63511,127.88953 224.65678,127.22659 224.65678,126.41401 z M 204.44457,125.00084 L 205.37647,123.81249 L 205.21747,123.68402 C 205.07041,123.56514 205.05997,123.52006 205.07782,123.08057 L 205.09713,122.60559 L 205.758,122.44824 C 206.5037,122.27066 206.45899,122.3529 206.19589,121.64286 L 206.05843,121.27182 L 205.78995,121.46927 C 205.55001,121.64575 205.5194,121.69848 205.50198,121.96558 C 205.48543,122.22046 205.45409,122.28101 205.28893,122.37712 C 205.04709,122.51788 204.26828,122.64251 203.81026,122.61374 L 203.46416,122.59201 L 203.42925,122.91319 C 203.31698,123.94587 203.21126,125.79405 203.24588,126.11835 L 203.28637,126.49715 L 203.3995,126.34317 C 203.46173,126.25848 203.93197,125.65443 204.44457,125.00084 z M 218.169,120.61493 L 218.169,119.31231 L 218.58677,118.89824 C 218.9562,118.53209 219.06956,118.4617 219.56637,118.28987 L 220.1282,118.09555 L 220.14711,117.80638 L 220.16602,117.5172 L 219.66537,117.15975 C 219.38996,116.96314 218.22779,116.128 217.08271,115.30389 C 215.6338,114.26108 214.97589,113.82295 214.91888,113.86288 C 214.87386,113.89444 214.40823,114.46947 213.88425,115.14073 C 212.16131,117.34798 211.21819,118.56625 211.20876,118.59676 C 211.19078,118.65515 213.43021,121.47753 213.52269,121.51303 C 213.59208,121.53965 216.72223,121.81335 218.05656,121.90945 C 218.16022,121.91692 218.169,121.81578 218.169,120.61493 z M 211.11847,121.35574 C 211.47782,121.38449 211.80574,121.3998 211.84716,121.38977 C 211.91582,121.37315 210.5749,119.58882 210.47278,119.56091 C 210.4361,119.55089 208.86139,121.53685 208.8045,121.66486 C 208.79446,121.68747 209.164,121.6154 209.6257,121.50471 C 210.40841,121.31706 210.50927,121.307 211.11847,121.35574 z M 202.5406,120.04139 C 202.70555,119.85766 202.9516,116.33995 202.93035,114.47027 L 202.91314,112.96038 L 201.18558,115.42841 C 200.23541,116.78582 199.45498,117.92969 199.45126,117.97036 C 199.44749,118.01101 200.10929,118.59923 200.92187,119.2775 C 202.33896,120.46039 202.40014,120.5034 202.4207,120.33091 C 202.43249,120.232 202.48646,120.10172 202.5406,120.04139 z M 205.00267,120.03641 C 205.03511,118.71241 205.02365,118.19188 204.96222,118.1919 C 204.91769,118.1919 204.87691,118.447 204.85197,118.88243 C 204.83015,119.26222 204.79249,119.7281 204.76824,119.91772 C 204.725,120.2561 204.72674,120.26111 204.8625,120.18846 C 204.93854,120.14775 205.00166,120.07933 205.00267,120.03641 z M 208.41046,118.62549 C 208.866,118.29869 209.23183,118.00109 209.22348,117.96414 C 209.20668,117.89033 205.43186,113.05025 205.40894,113.07317 C 205.38838,113.09376 206.17934,115.31855 206.24112,115.41386 C 206.2697,115.45795 206.36008,115.49402 206.44203,115.49402 C 206.65095,115.49402 206.69659,115.56839 206.98965,116.38654 C 207.25258,117.12057 207.25501,117.15937 207.05217,117.38896 C 206.9428,117.51276 206.94924,117.54845 207.22967,118.36855 C 207.38976,118.83667 207.53455,119.21967 207.55152,119.21967 C 207.5684,119.21967 207.95496,118.95229 208.41046,118.62549 z M 213.84324,112.98885 C 215.67838,110.63945 217.83602,107.87531 218.63799,106.84631 L 220.0961,104.97539 L 220.0961,104.55776 C 220.0961,104.08508 220.13703,104.02718 220.55974,103.90237 L 220.83478,103.82116 L 220.8511,96.551302 L 220.86746,89.281432 L 220.61023,89.036752 C 220.38024,88.817982 220.353,88.759642 220.353,88.485642 C 220.353,88.205752 220.32656,88.152772 220.04791,87.873902 C 219.88009,87.705972 219.66663,87.478072 219.57354,87.367442 C 219.43093,87.198002 219.35959,87.166302 219.12067,87.166302 C 218.78667,87.166302 218.68302,87.249172 218.68265,87.516382 C 218.68233,87.774732 218.47875,88.099232 218.23929,88.223072 C 217.96976,88.362432 217.53809,88.348602 217.28192,88.192422 C 216.93534,87.981132 216.86273,87.719072 216.83289,86.572132 L 216.80657,85.560422 L 216.56874,85.560422 C 216.37974,85.560422 216.19964,85.650782 215.69223,86.000252 C 215.34098,86.242142 214.99581,86.454452 214.92516,86.472022 C 214.85446,86.489602 213.39134,87.475772 211.67366,88.663502 C 208.86086,90.608512 208.55351,90.838042 208.57955,90.974312 C 208.60181,91.090542 208.55444,91.166812 208.37539,91.303412 C 208.17995,91.452482 207.94544,91.875242 206.92482,93.918742 L 205.70739,96.356262 L 205.70739,97.023992 C 205.70739,97.776062 205.67674,97.839862 205.25488,97.966272 L 205.00081,98.042382 L 205.00081,102.14327 L 205.00081,106.24416 L 205.47308,106.24416 L 205.9453,106.24416 L 205.98223,105.6821 C 206.03373,104.89778 206.04115,104.88507 206.43377,104.90819 C 206.73351,104.92585 206.76274,104.94222 206.81226,105.12004 C 206.8798,105.36262 206.8802,107.80456 206.81271,108.10698 C 206.76424,108.32431 206.75165,108.33243 206.43575,108.35094 C 206.04443,108.37385 206.04908,108.38168 205.9896,107.59404 L 205.94587,107.01498 L 205.47337,107.01498 L 205.00081,107.01498 L 205.00081,108.7481 L 205.00081,110.48123 L 205.17746,110.52321 C 205.48753,110.59688 205.57892,110.72767 205.57892,111.09795 L 205.57892,111.43535 L 207.93957,114.45684 C 210.13183,117.26281 210.30754,117.47054 210.40343,117.3694 C 210.46019,117.3095 212.0081,115.33825 213.84324,112.98885 z M 220.27194,115.54641 C 220.31571,115.49371 220.46746,115.41584 220.60917,115.37337 L 220.86689,115.29616 L 220.86689,111.05922 C 220.86689,107.71295 220.85,106.82209 220.7866,106.82139 C 220.74246,106.82091 220.6472,106.80464 220.57496,106.78523 C 220.46398,106.75541 220.06658,107.23228 218.0115,109.86149 C 216.67381,111.57284 215.58266,112.99279 215.58671,113.01693 C 215.59072,113.04108 216.61421,113.79492 217.86112,114.69212 L 220.1282,116.32341 L 220.16031,115.98282 C 220.17796,115.7955 220.22821,115.59911 220.27194,115.54641 z M 105.07609,115.90565 C 105.58686,115.69899 106.0425,115.34289 106.58736,114.72456 C 106.97041,114.28985 107.0421,114.17219 107.0421,113.9781 L 107.0421,113.74772 L 106.73699,113.99944 C 106.56918,114.13789 105.91156,114.67941 105.27563,115.20283 C 104.63971,115.72624 104.09171,116.17955 104.05788,116.21018 C 103.97561,116.28463 104.60387,116.09673 105.07609,115.90565 z M 225.84327,114.53857 C 226.79817,113.7481 227.58561,113.06882 227.59314,113.02904 C 227.61015,112.93913 223.35945,106.8716 223.25511,106.83682 C 223.12049,106.79194 223.16421,109.10307 223.33929,111.28662 C 223.42711,112.38183 223.53324,113.75224 223.57518,114.33197 C 223.63891,115.21256 223.67074,115.40254 223.76868,115.48642 C 223.84921,115.55537 223.88594,115.67531 223.88594,115.86946 C 223.88594,116.12818 223.89529,116.14464 223.99652,116.06395 C 224.05733,116.01546 224.88837,115.32904 225.84327,114.53857 z M 100.34487,114.1772 L 100.68139,114.04874 L 100.6821,109.60848 L 100.68282,105.16821 L 100.4773,105.12711 C 100.34665,105.10098 100.24273,105.11561 100.19202,105.16726 C 100.14814,105.21195 98.982452,106.6938 97.601592,108.46027 C 95.341642,111.35131 95.102312,111.67981 95.205052,111.74992 C 95.267822,111.79276 96.359792,112.57674 97.631652,113.49209 L 99.944112,115.15635 L 99.976232,114.73102 L 100.00835,114.30567 L 100.34487,114.1772 z M 105.60962,113.51243 L 107.0294,112.33377 L 106.86326,111.97078 C 106.71564,111.64825 106.69642,111.52188 106.6908,110.83697 L 106.68447,110.06615 L 104.96219,107.60916 C 104.01493,106.2578 103.21377,105.15216 103.18183,105.15216 C 103.04036,105.15216 103.12742,107.68449 103.37951,110.90207 C 103.61357,113.8897 103.64624,114.17808 103.76491,114.3044 C 103.84748,114.3923 103.89458,114.53009 103.89458,114.68382 L 103.89458,114.92523 L 104.04221,114.80816 C 104.1234,114.74377 104.82874,114.16068 105.60962,113.51243 z M 107.0421,102.58846 L 107.0421,97.198422 L 106.31048,96.846612 C 105.48862,96.451432 104.91021,96.079312 104.45056,95.650072 C 104.0945,95.317562 103.91701,95.007292 103.85411,94.607422 C 103.82998,94.454032 103.77375,94.270722 103.72916,94.200062 C 103.52863,93.882282 103.49732,93.528382 103.56989,92.400022 L 103.641,91.294602 L 103.47955,90.973182 C 103.39077,90.796402 103.27628,90.496232 103.22516,90.306142 C 103.14217,89.997582 103.13176,90.605542 103.12798,95.977602 L 103.12375,101.99467 L 103.36463,102.07226 C 103.74973,102.19629 103.76611,102.22664 103.76611,102.81606 L 103.76611,103.35481 L 105.38485,105.66665 C 106.27516,106.93817 107.01226,107.97851 107.02285,107.97851 C 107.03344,107.97851 107.0421,105.55298 107.0421,102.58846 z M 201.9201,103.27725 C 202.07894,103.15984 202.11024,103.09174 202.11024,102.86352 C 202.11024,102.71327 202.13911,102.57246 202.17445,102.55063 C 202.21498,102.52558 202.23871,101.78985 202.23871,100.55555 C 202.23871,99.294792 202.21587,98.600172 202.17445,98.600172 C 202.13911,98.600172 202.11024,98.565612 202.11024,98.523392 C 202.11024,98.481162 202.0365,98.369652 201.94634,98.275592 C 201.85624,98.181532 201.70991,97.890892 201.62117,97.629722 C 201.45483,97.140192 199.60083,93.058722 199.56232,93.097252 C 199.5222,93.137382 200.18391,98.692972 200.27898,99.114052 C 200.33085,99.343692 200.44677,100.16751 200.53665,100.94475 C 200.62654,101.722 200.72732,102.56026 200.76072,102.80757 C 200.79401,103.05487 200.82227,103.29336 200.8234,103.33751 C 200.8249,103.39394 200.95989,103.41781 201.27777,103.41781 C 201.64218,103.41781 201.76692,103.39053 201.9201,103.27725 z M 206.0281,93.462212 C 206.27566,92.968062 206.47823,92.537572 206.47823,92.505552 C 206.47823,92.334192 206.24023,92.422692 205.69978,92.795092 C 205.36833,93.023462 205.08624,93.241762 205.07288,93.280182 C 205.05304,93.337302 205.50996,94.341742 205.56244,94.356312 C 205.57102,94.358692 205.78059,93.956352 206.0281,93.462212 z M 205.62309,91.231322 C 205.61228,91.075492 205.71035,90.988892 206.56843,90.396532 C 207.39847,89.823502 207.55658,89.737752 207.75725,89.751722 C 207.96617,89.766262 208.25555,89.583572 210.73074,87.874702 C 212.23885,86.833482 213.46203,85.970842 213.44891,85.957732 C 213.4358,85.944622 212.90988,85.980222 212.28015,86.036842 C 210.80739,86.169282 208.20178,86.330582 207.52896,86.330952 C 207.02641,86.331232 207.00442,86.337432 206.96616,86.490062 C 206.94422,86.577402 206.87397,86.700252 206.81004,86.763052 C 206.74606,86.825852 206.32598,87.812172 205.87652,88.954862 C 205.22152,90.620122 205.07454,91.050792 205.13584,91.124702 C 205.19403,91.194762 205.19472,91.255782 205.13872,91.378642 C 205.09818,91.467572 205.06502,91.598192 205.06502,91.668872 C 205.06502,91.787272 205.0875,91.781952 205.35007,91.601292 C 205.579,91.443802 205.63277,91.370922 205.62309,91.231322 z M 202.94529,90.866112 C 202.94529,90.740252 203.28325,90.632752 203.81244,90.590282 L 204.26208,90.554202 L 204.99628,88.683602 C 205.40003,87.654782 205.76598,86.726292 205.80942,86.620302 L 205.88842,86.427592 L 202.30422,86.427592 L 198.72006,86.427592 L 198.64637,86.631282 C 198.58519,86.800212 198.5996,86.951922 198.73075,87.520412 C 198.81768,87.897412 198.89825,88.214392 198.90971,88.224812 C 199.06248,88.363572 199.95859,88.965052 200.01325,88.965522 C 200.36515,88.968512 201.74077,89.922072 202.22413,90.498062 C 202.39115,90.697032 202.55663,90.881062 202.59198,90.907012 C 202.70332,90.988822 202.94529,90.960812 202.94529,90.866112 z M 103.4488,88.490412 C 103.68923,87.769022 104.26901,86.547642 104.56965,86.129162 L 104.79365,85.817362 L 104.47259,85.817362 C 104.19434,85.817362 104.15152,85.834502 104.15152,85.945832 C 104.15152,86.016492 104.09371,86.132112 104.02305,86.202772 C 103.95239,86.273442 103.89458,86.382622 103.89458,86.445422 C 103.89458,86.649922 103.71325,86.825242 103.41555,86.908592 L 103.12375,86.990292 L 103.13126,88.379062 C 103.13695,89.431232 103.1527,89.683962 103.19623,89.421822 C 103.22784,89.231502 103.34149,88.812372 103.4488,88.490412 z M 219.36563,85.329282 C 219.44078,85.309102 219.53568,85.219322 219.5765,85.129762 C 219.63541,85.000452 219.63371,84.973432 219.56823,84.998542 C 219.52293,85.015932 219.31963,85.067352 219.1165,85.112812 C 218.76059,85.192442 218.69812,85.233042 218.78995,85.324892 C 218.84206,85.377002 219.1782,85.379562 219.36563,85.329282 z M 104.92444,84.998372 C 104.9256,84.936542 105.23844,82.125432 105.61965,78.751486 L 106.31275,72.617026 L 106.16124,72.167376 C 105.94151,71.515296 105.71349,70.577096 105.62511,69.961436 C 105.49561,69.059376 105.6118,68.593286 106.07601,68.152676 L 106.31287,67.927846 L 106.41481,66.758726 C 106.50655,65.706466 106.53464,65.556726 106.69586,65.260536 C 106.79436,65.079546 106.95168,64.876836 107.04544,64.810066 C 107.19429,64.704076 107.2213,64.629276 107.25828,64.220616 C 107.29099,63.859226 107.34103,63.694016 107.4779,63.495626 C 108.09351,62.603246 110.24726,61.904996 113.50255,61.542406 C 115.56162,61.313056 116.82416,61.254746 119.64826,61.258556 C 121.15859,61.260596 122.39431,61.240266 122.39431,61.213396 C 122.39431,61.186516 122.4636,61.097846 122.54828,61.016336 L 122.70224,60.868156 L 122.55794,60.672356 C 122.04562,59.977176 121.79246,59.266496 121.82863,58.624946 C 121.85251,58.201496 122.14235,57.400076 125.40105,48.747212 C 128.52761,40.445242 128.95538,39.266442 129.0141,38.790752 C 129.12931,37.857412 129.30798,37.385442 129.68043,37.030712 C 129.84029,36.878442 129.99538,36.537402 130.41948,35.405562 C 130.71469,34.617712 131.03875,33.859202 131.13961,33.719942 C 131.24048,33.580702 131.32301,33.456332 131.32301,33.443572 C 131.32301,33.430812 131.07009,33.401052 130.76095,33.377442 C 129.90915,33.312382 126.81167,32.916282 124.89949,32.627892 C 121.98389,32.188182 118.96243,31.633792 115.75686,30.950372 C 115.09158,30.808542 114.53911,30.702202 114.52914,30.714082 C 114.50953,30.737442 104.5126,47.284952 104.28517,47.670502 L 104.14732,47.904172 L 104.4812,48.023792 C 105.61858,48.431282 106.13825,49.760652 105.72119,51.195862 C 105.50762,51.930842 104.74295,52.962462 104.11926,53.357032 C 103.96409,53.455202 103.8238,53.594166 103.80752,53.665816 C 103.79124,53.737476 103.68346,54.323606 103.56802,54.968326 L 103.35814,56.140536 L 103.14459,56.217756 L 102.93105,56.294976 L 102.93105,69.898706 L 102.93105,83.502452 L 103.10769,83.541002 C 103.7549,83.682312 103.89458,83.813262 103.89458,84.278802 C 103.89458,84.536182 103.92182,84.657842 103.98487,84.682032 C 104.03453,84.701092 104.09464,84.805352 104.11845,84.913732 C 104.1608,85.106572 104.16983,85.110772 104.54203,85.110772 C 104.8606,85.110772 104.92268,85.092522 104.92444,84.998372 z M 146.62254,80.010346 C 149.00958,76.408396 152.61977,73.274596 156.74256,71.225726 C 157.3601,70.918856 157.40249,70.885386 157.40249,70.705106 C 157.40249,70.433876 157.60886,70.131816 157.90966,69.962756 C 158.25892,69.766446 160.15152,69.057356 161.09601,68.768906 C 162.8935,68.219966 165.09648,67.766196 167.03779,67.545036 C 168.56905,67.370586 169.04727,67.434166 169.27985,67.843096 C 169.35916,67.982566 169.42973,68.023486 169.59153,68.023796 L 169.8007,68.024206 L 169.78422,63.062036 L 169.76778,58.099866 L 169.2285,57.919086 C 168.93187,57.819666 168.54888,57.721686 168.37738,57.701386 L 168.06553,57.664446 L 168.06553,59.925846 C 168.06553,61.298946 168.0405,62.234026 168.00179,62.306346 C 167.84964,62.590636 166.75614,62.688126 166.28739,62.459186 L 166.04215,62.339386 L 166.01,59.913906 L 165.9779,57.488416 L 165.76913,57.361496 L 165.56037,57.234576 L 165.56037,56.504886 C 165.56037,55.738956 165.59122,55.650896 165.89761,55.542236 C 165.99992,55.505946 166.01,55.378966 166.01,54.129056 L 166.01,52.755742 L 165.76913,52.650772 C 165.63665,52.593032 164.64644,52.219152 163.5687,51.819912 L 161.60918,51.094022 L 161.6312,51.325042 C 161.65667,51.591982 161.37992,52.472852 161.18428,52.747602 C 161.03305,52.959962 160.7512,53.121632 160.5322,53.121632 C 160.38829,53.121632 160.19343,53.616456 157.14866,61.713096 C 155.22926,66.817196 153.84376,70.412226 153.73533,70.569826 C 153.07017,71.536736 150.82733,72.070276 148.15263,71.897856 C 147.60503,71.862556 147.15228,71.836496 147.14652,71.839936 C 147.14076,71.843376 147.11581,72.308686 147.09107,72.873966 L 147.04608,73.901726 L 147.24254,74.146986 C 147.66131,74.669846 147.67426,75.263306 147.29183,76.406906 C 147.04518,77.144496 146.41926,78.505256 146.09099,79.017546 C 145.9248,79.276906 145.88781,79.423246 145.80697,80.141656 C 145.75584,80.595926 145.69839,81.097676 145.6793,81.256652 L 145.6446,81.545712 L 145.85479,81.198696 C 145.9704,81.007846 146.31589,80.473076 146.62254,80.010346 z M 190.06611,72.167056 C 194.07775,71.357816 201.73134,70.838816 208.14834,70.940866 C 213.9326,71.032876 218.41789,71.452316 220.49755,72.095756 L 220.99536,72.249786 L 220.995,68.515056 C 220.99484,66.460956 220.9684,64.679156 220.93629,64.555506 C 220.90422,64.431856 220.85924,64.166896 220.83636,63.966726 C 220.79648,63.617826 220.78454,63.598666 220.54735,63.503766 C 220.26979,63.392726 220.0961,63.186236 220.0961,62.967456 L 220.0961,62.821156 L 218.89166,62.820346 C 217.54976,62.819446 214.68194,62.736606 212.00243,62.621356 L 210.23596,62.545376 L 209.43306,63.008146 C 208.3698,63.620926 206.31583,64.629016 205.00081,65.183446 C 201.26871,66.756986 197.52571,67.826616 194.01657,68.322376 C 192.9698,68.470256 190.04323,68.488636 189.35953,68.351626 C 188.3217,68.143646 187.49037,67.733476 187.16763,67.270186 C 187.07504,67.137296 185.77703,63.776656 184.28322,59.802096 C 182.11659,54.037636 181.54309,52.571882 181.4486,52.557082 C 181.13022,52.507202 181.04346,52.466142 180.86016,52.278672 C 180.7478,52.163772 180.58832,51.873552 180.49131,51.607512 L 180.32036,51.138782 L 179.82959,51.321512 C 179.55965,51.422022 178.71735,51.735302 177.95777,52.017702 C 177.19818,52.300102 176.45387,52.580432 176.30369,52.640662 L 176.03071,52.750172 L 176.03071,54.119936 C 176.03071,55.431916 176.0361,55.491396 176.15879,55.530336 C 176.44472,55.621086 176.48035,55.727276 176.48035,56.488616 C 176.48035,57.248546 176.44909,57.337216 176.14311,57.445726 C 176.03877,57.482746 176.03071,57.658346 176.03071,59.894956 L 176.03071,62.304306 L 175.87718,62.404896 C 175.64845,62.554776 175.08982,62.623996 174.66152,62.555526 C 173.98373,62.447196 174.03941,62.675666 174.03941,60.002486 L 174.03941,57.664366 L 173.69521,57.699896 C 173.50592,57.719426 173.10847,57.818106 172.81197,57.919186 L 172.27294,58.102946 L 172.2565,63.054746 L 172.24006,68.006556 L 172.66192,68.040416 C 173.05681,68.072116 173.10706,68.060286 173.44656,67.855846 C 174.0739,67.478096 174.33465,67.447046 175.53067,67.607666 C 176.76373,67.773266 177.16021,67.878866 177.38217,68.100846 C 177.49032,68.209006 177.59401,68.373366 177.61255,68.466066 C 177.64446,68.625546 177.69175,68.644546 178.49255,68.819216 C 181.48046,69.470956 184.64365,70.717086 187.20383,72.250986 L 187.93872,72.691296 L 188.45641,72.539316 C 188.74114,72.455726 189.46549,72.288216 190.06611,72.167056 z M 226.19841,123.55555 L 226.19841,122.5599 L 226.41612,122.5599 C 226.53589,122.5599 226.69339,122.61049 226.76619,122.67232 C 227.02982,122.89622 227.27316,124.02004 227.11262,124.27231 C 227.07439,124.3324 226.38765,124.55119 226.23732,124.55119 C 226.2159,124.55119 226.19841,124.10315 226.19841,123.55555 z"
       id="path2384"
       sodipodi:nodetypes="csscccccccccsccccccsssssssssssssscccsscccccccccssssccccccccccccssccccccsssccccccsscccscccscccssssscccsssssscccssssscccsssssscccccccccccssssssssscccscccccccscccccssssscccsscccssssssssssssssssscccscccccscccccccscccccccsssssscccccsscccccccsscccccscccssssssssssssssccccccccssccccccccccsscccsscccsscccccccccscccsssccccccccsssssssssssssssssssssssscccsssssssssssscccssssssssssscccssssssssssssccsssccccccccccsscccccccccccccccssssssccsssscccccsssccssssccssssssssccccccccccssssssscccsssssccccccccccssssccccccccccscccccsssscccccscccssccsssssssccccccssscccccccccccssscccccccssscccsccccccsccsssssssssssssccssssccsssssssssssssccccccccccssssscccccssscccsccsssscccccscccssssssscccssssssssssscccssscccccccssssccssssssccccccccscccccccsccccccsssssscccssscccccscccsssccccccssssssscccscccssscccsccccccccssssscccccccsssc" />
    <path
       style="opacity:1;fill:#000000;stroke:none;stroke-opacity:1"
       d="M 29.392548,172.30403 C 29.413158,172.259 29.393148,172.22657 29.348058,172.23197 C 29.302978,172.23725 28.986438,172.22663 28.644678,172.20826 C 28.302918,172.18996 27.940038,172.18718 27.838278,172.20202 C 27.736498,172.21691 27.530668,172.19938 27.380868,172.16302 C 27.142638,172.10534 27.127088,172.11441 27.256808,172.23591 C 27.459358,172.42554 27.352658,172.42327 26.578558,172.2214 C 25.695228,171.99111 24.341588,171.46425 23.723018,171.11 C 23.026358,170.711 20.671508,168.83958 20.236468,168.33913 C 20.038098,168.11098 19.844538,167.90511 19.806308,167.88163 C 19.540958,167.71878 16.969278,164.27866 15.590168,162.24178 C 14.446448,160.55255 13.640618,159.21826 12.216858,156.65632 C 11.778008,155.86661 11.334758,155.17173 11.231908,155.11211 C 11.072198,155.01957 11.016758,155.04814 10.852338,155.30785 C 10.746418,155.47509 10.666718,155.66893 10.675218,155.73855 C 10.699118,155.93426 10.505798,155.91273 10.215298,155.68728 C 9.9335976,155.4687 9.3891576,154.51725 9.3448476,154.16613 C 9.3216576,153.98221 9.3626376,153.95661 9.6547476,153.9726 C 9.8398776,153.98274 10.097648,154.00796 10.227558,154.02865 C 10.414288,154.05842 10.458608,154.02563 10.439268,153.87223 C 10.425788,153.7655 10.449578,153.62982 10.492118,153.57069 C 10.537738,153.50731 10.286498,152.84471 9.8798276,151.95584 C 8.5063776,148.95373 7.1336776,145.18637 6.1711376,141.77742 C 5.6962776,140.0956 5.2182576,136.31548 5.3149076,135.00638 C 5.7013276,129.77242 8.1543876,124.79628 12.086668,121.26967 C 12.536928,120.86585 14.304718,119.51023 14.396098,119.4987 C 14.426838,119.49482 14.794698,119.28638 15.213508,119.03548 C 16.053178,118.53248 17.844668,117.73142 19.053178,117.31857 C 21.475148,116.4912 24.646498,115.85918 31.036568,114.9304 C 35.218968,114.32248 36.094778,114.1682 37.023858,113.87572 C 38.874758,113.29301 40.151808,112.58995 41.528858,111.39553 C 42.572218,110.49054 42.911848,110.09338 45.128888,107.18547 C 48.529128,102.72566 50.611428,100.55463 53.992208,97.944362 C 54.806788,97.315442 56.808778,96.119462 57.954018,95.577602 C 59.679478,94.761202 60.975158,94.386962 62.916998,94.144132 C 65.741828,93.790872 67.015168,94.072802 68.017088,95.273342 C 68.177298,95.465292 68.373538,95.614092 68.453208,95.604062 C 68.532898,95.593992 68.684818,95.678982 68.790828,95.792902 L 68.983568,96.000032 L 69.278168,95.564582 C 69.451478,95.308502 69.634308,95.144262 69.722108,95.165852 C 69.908058,95.211532 70.082348,95.717212 69.972078,95.891052 C 69.919018,95.974662 69.932158,96.028262 70.009488,96.043642 C 70.157638,96.073092 70.466178,97.005512 70.369158,97.130562 C 70.330118,97.180882 70.108308,97.153592 69.876268,97.069942 C 69.349668,96.880112 69.186728,96.897842 69.217468,97.141602 C 69.230728,97.246592 69.147588,97.413192 69.032748,97.511842 C 68.917908,97.610502 68.788418,97.898322 68.745038,98.151432 C 68.621868,98.869882 68.153978,99.809337 67.639388,100.3714 C 67.380958,100.65366 66.582348,101.36711 65.864718,101.95687 C 63.594478,103.82252 61.992518,105.3949 61.221328,106.51452 C 60.451958,107.63148 60.363778,107.78502 60.119138,108.4332 C 59.902538,109.00706 59.886558,109.17391 59.979258,109.89092 C 60.067488,110.57301 60.139478,110.78274 60.436298,111.22191 C 61.019568,112.08487 61.486878,112.36501 62.546518,112.48693 C 62.992988,112.5383 63.084168,112.5181 63.347058,112.30966 C 63.519148,112.17323 63.852118,112.03136 63.975508,111.93065 C 64.752798,111.38731 65.872358,110.64256 66.866088,110.05438 C 67.756058,109.38619 68.775338,108.75654 69.822098,108.15153 C 71.385898,107.0664 73.199748,105.75022 74.871218,104.61988 C 76.683798,103.42581 78.110688,102.44906 79.838298,101.30511 C 80.962718,100.52587 82.426918,99.627187 83.656828,98.783592 C 84.841138,97.948602 86.279165,97.004302 87.575351,96.187582 C 88.917361,95.124622 90.400581,94.130752 91.886072,93.229972 C 92.583272,92.754192 93.362348,92.218012 94.110061,91.702122 C 95.652661,90.654392 95.446621,90.772582 96.337251,90.204712 C 97.696301,89.181292 99.494021,88.093502 101.01457,87.089302 C 102.59663,85.905642 105.01996,84.261722 106.41682,83.409412 C 106.55922,83.333692 107.69419,82.588642 108.93895,81.753782 C 110.42142,80.759502 111.23377,80.255222 111.35944,80.167362 C 112.9617,78.998272 115.29401,77.498164 116.99124,76.512044 C 118.72273,75.198054 120.90735,73.793624 122.84301,72.529714 C 123.83216,71.781044 124.99253,71.036574 126.05922,70.314514 C 127.72854,69.196374 129.10452,68.239764 129.11693,68.188684 C 129.47828,67.953794 129.63911,67.930454 129.87946,67.574684 C 130.19292,67.157324 130.40393,66.315754 130.39458,65.520214 C 130.39116,65.227794 130.23482,64.450304 130.03151,63.714514 C 129.38886,61.388604 129.62634,61.020624 132.52309,59.853714 L 133.37171,59.511874 L 133.22478,59.260914 C 132.85006,58.620824 132.23309,58.248614 131.44902,58.189574 C 131.07162,58.161134 130.38392,57.685544 130.16234,57.299714 C 130.06442,57.129124 129.95309,56.742444 129.91497,56.440394 C 129.85585,55.971824 129.88645,55.825334 130.12339,55.442464 C 130.2761,55.195674 130.47669,54.945494 130.56911,54.886514 C 130.66154,54.827544 130.88032,54.529794 131.0553,54.224844 C 131.27777,53.837154 131.48902,53.614654 131.75763,53.485044 C 132.26014,53.242594 133.00646,53.222894 133.41283,53.441354 C 133.59118,53.537244 133.86289,53.626044 134.01663,53.638704 C 134.17032,53.651384 134.40938,53.670564 134.54782,53.681374 C 134.91261,53.709844 135.45919,54.095114 135.75785,54.534254 C 135.96768,54.842754 136.01719,55.020544 136.01773,55.466794 C 136.0184,56.024004 135.9202,56.245104 135.27532,57.138394 C 134.97523,57.554074 134.85173,58.053834 134.91779,58.585094 L 134.95715,58.901694 L 135.3697,58.706644 C 135.59662,58.599374 136.70567,58.138984 137.83427,57.683544 C 138.96284,57.228124 139.90166,56.835604 139.92054,56.811264 C 139.96016,56.760214 139.75665,56.529304 139.34126,56.153974 C 139.01119,55.855704 138.76885,55.766624 137.91978,55.631464 C 137.24277,55.523694 136.87806,55.248334 136.51747,54.572784 C 136.07482,53.743494 136.27322,52.994654 137.13156,52.254974 C 137.36133,52.033064 137.39145,51.781224 137.51381,51.472634 C 137.6659,51.057144 138.0395,50.823534 138.68023,50.743334 C 139.07281,50.694194 139.3341,50.729414 139.65339,50.874524 C 139.89342,50.983614 140.21759,51.058214 140.37373,51.040274 C 141.10522,50.956254 141.95347,51.578534 142.21445,52.390594 C 142.40841,52.994204 142.31996,53.392624 141.83562,54.096774 C 141.39472,54.737804 141.38356,54.775644 141.43132,55.466434 L 141.48046,56.176834 L 141.76481,56.090654 C 141.92122,56.043244 142.64379,55.764274 143.37052,55.470714 C 144.09723,55.177154 145.10122,54.771844 145.6016,54.570044 C 146.10196,54.368234 146.53226,54.176154 146.55782,54.143224 C 146.6424,54.034244 146.08311,53.312214 145.81122,53.179354 C 145.66435,53.107584 145.27123,53.013754 144.93762,52.970884 C 144.25083,52.882594 143.91517,52.681794 143.54112,52.135414 C 143.27838,51.751654 143.20452,51.235934 143.22568,51.044984 C 143.26069,50.728844 143.3242,50.425834 143.35778,50.198814 C 143.37216,50.101614 143.43868,49.941884 143.71233,49.724584 C 143.99934,49.496654 144.13148,49.315264 144.11547,49.171114 C 144.08467,48.893474 144.42947,48.453974 144.90768,48.161354 C 145.36662,47.880534 145.8322,47.885294 146.40477,48.176684 C 146.62513,48.288824 146.91434,48.366834 147.04748,48.350054 C 147.61054,48.279004 148.10641,48.546834 148.63852,49.209424 C 148.87548,49.504514 148.92942,49.666914 148.95599,50.165154 C 148.98464,50.702284 148.94879,50.820454 148.61507,51.288704 C 148.40993,51.576474 148.19683,51.975394 148.14148,52.175134 C 148.02376,52.600024 148.12027,53.610174 148.26727,53.491554 C 148.32026,53.448774 149.38764,53.012004 150.63923,52.520924 C 153.51049,51.394374 153.35698,51.463694 153.33667,51.302714 C 153.28636,50.903794 152.00212,50.193714 151.45564,50.262644 C 151.14939,50.301284 150.2806,49.634014 150.03289,49.169914 C 149.87256,48.869544 149.8337,48.692384 149.88326,48.487914 C 149.9201,48.335964 149.91591,48.126044 149.87397,48.021404 C 149.78209,47.792224 150.14081,47.197214 150.53391,46.926714 C 150.68904,46.819934 150.79612,46.656224 150.78233,46.546914 C 150.74089,46.218454 151.16581,45.694664 151.66897,45.453984 C 152.22054,45.190134 152.81937,45.216304 153.1725,45.519674 C 153.31856,45.645174 153.51001,45.683254 153.8067,45.645824 C 154.66577,45.537444 155.64466,46.401624 155.75118,47.362454 C 155.8074,47.869594 155.73624,48.089494 155.32002,48.695084 C 154.94682,49.238094 154.79156,49.789314 154.85971,50.329374 L 154.92232,50.825864 L 155.44144,50.660074 C 156.63435,50.279094 158.3741,50.393664 159.38093,50.919494 C 160.03093,51.258964 160.9119,51.984594 160.87186,52.147524 C 160.84823,52.243754 160.87332,52.270234 160.93838,52.217714 C 161.08682,52.097914 161.89048,53.384854 162.1172,54.105404 C 162.53863,55.444864 162.45083,56.862904 161.8736,58.038724 C 161.14719,59.518464 159.34163,60.791184 157.67865,60.995694 C 156.63684,61.123814 156.14508,61.065884 154.98231,60.678094 C 153.71422,60.255184 153.60317,60.240684 153.17883,60.442674 C 152.36191,60.831534 150.64627,62.470714 149.88162,63.592944 C 149.35043,64.372524 147.3959,66.926584 146.88975,67.502484 C 146.19161,68.296864 145.61084,68.875714 144.56364,69.820944 C 143.22842,71.026154 142.70357,71.424954 142.40276,71.462904 C 142.27215,71.479384 141.72071,71.295464 141.17733,71.054234 C 139.50698,70.312654 138.22538,70.187904 136.77276,70.625474 C 136.0853,70.832574 134.39182,71.756094 133.87907,72.203504 C 132.05213,73.039294 131.02389,74.253024 129.468,75.496714 C 128.26735,76.404584 127.80845,76.742174 126.57043,77.628354 C 126.20721,77.888364 125.52992,78.390214 125.0653,78.743572 C 123.75808,79.729232 122.42289,80.676832 121.11284,81.658742 C 118.19679,83.327732 116.04977,85.351942 113.65123,87.130282 C 111.66273,88.217732 110.65906,89.304252 109.54941,90.146082 C 106.5028,91.785742 105.28376,93.327662 102.71091,95.195592 C 100.81023,96.253122 99.821881,97.326582 97.869921,98.733412 C 96.579331,99.584857 96.600451,99.625477 95.909241,100.19084 C 95.689661,100.35626 95.214121,100.71443 94.852441,100.98671 C 93.430598,102.05716 93.062358,102.24811 92.421812,102.70884 C 91.517012,103.41232 89.939851,104.6976 88.666591,105.54003 C 88.094231,105.94737 87.053125,106.69048 86.662935,106.97943 C 79.445418,111.72786 72.264208,117.65966 64.416138,123.16622 C 63.363488,123.70091 62.314038,124.56498 61.670948,125.59674 C 60.265078,127.84896 61.157748,130.42335 63.817528,131.78726 C 64.560238,132.16809 65.651638,132.30034 66.845468,132.15416 C 68.097098,132.00088 68.641528,131.82186 70.401038,130.9849 C 71.995968,130.22625 72.710838,130.04485 73.494908,130.19986 C 74.101458,130.31979 74.964418,130.90126 75.334948,131.43967 C 75.619768,131.85354 75.820198,132.799 75.763338,133.46039 C 75.677538,134.45814 74.930648,136.30916 74.170098,137.40885 C 73.515348,138.35558 71.982368,139.92296 70.410558,141.25273 C 67.286068,143.89606 61.630008,146.40606 55.409508,147.9097 C 52.721068,148.55957 52.032238,148.80464 50.735898,149.57243 C 49.562178,150.26763 48.611798,151.14608 47.505868,152.55807 C 46.606818,153.70593 45.687858,155.34594 45.149088,156.76417 C 45.047498,157.03156 44.932118,157.26984 44.892718,157.29367 C 44.853278,157.31751 44.826198,157.37814 44.832558,157.42842 C 44.843728,157.51704 44.535788,158.2618 43.561518,160.50246 C 43.303968,161.09482 43.098148,161.61837 43.104138,161.66594 C 43.110138,161.71352 43.079328,161.75691 43.035638,161.76245 C 42.991958,161.76797 42.888988,161.93138 42.806788,162.12565 C 42.458778,162.94818 41.487828,164.65661 40.796388,165.66304 C 39.968358,166.8683 39.137528,167.78358 37.891748,168.86297 C 35.673698,170.78472 33.867118,171.63956 31.033288,172.10833 C 30.110258,172.261 29.371908,172.34907 29.392548,172.30403 z M 131.84053,53.765784 C 131.91727,53.701274 131.93446,53.654204 131.87878,53.661224 C 131.82309,53.668264 131.71476,53.726794 131.63804,53.791304 C 131.56131,53.855834 131.5441,53.902864 131.5998,53.895844 C 131.65548,53.888814 131.76383,53.830294 131.84053,53.765784 z"
       id="path2398"
       sodipodi:nodetypes="csssssssssssssssssssssssssssssssssssscccssssssssssssssssccccccccccccsccccccsscccssssssssssssscccsssssccssssscccssssssssssssssssssssssssssssssscccssssssssssssssccscccccccscccccsssssssssssssssssssssccsssc" />
    <path
       style="opacity:1;fill:#000000"
       d="M 109.70227,165.77288 C 109.59907,165.33986 109.8398,165.01229 110.23968,165.04158 C 110.36674,165.05089 110.5064,165.02864 110.55,164.99216 C 110.62598,164.9286 110.7617,164.50023 110.74423,164.37912 C 110.73964,164.34716 110.3775,163.85748 109.9395,163.29093 C 108.95086,162.01216 108.07427,160.80165 107.18992,159.49395 C 105.79425,157.43012 104.05383,154.60437 103.42533,153.38169 C 101.87062,150.35728 101.0282,147.11246 100.98534,143.98362 C 100.96858,142.76009 101.17265,140.35333 101.37151,139.42879 C 102.00426,136.48749 103.43362,134.1992 106.14497,131.78691 C 107.78082,130.33152 110.63967,128.33482 112.39262,127.4234 C 115.63153,125.73941 119.61977,124.25277 126.22783,122.26625 C 129.96393,121.1431 131.04119,120.77773 132.46546,120.15062 C 136.1834,118.51364 138.99367,115.98317 141.66634,111.86576 C 143.15213,109.57679 146.51458,104.58135 146.93782,104.03411 C 150.63806,99.249908 154.18006,96.365698 157.62865,95.328678 C 158.31638,95.121878 159.63643,94.872438 160.29529,94.824798 C 161.52855,94.735578 162.67802,94.984938 163.50119,95.520248 C 163.80971,95.720848 163.91471,95.819268 164.17693,96.153708 C 164.47649,96.535638 164.48724,96.544568 164.48147,96.406808 C 164.47814,96.328298 164.46495,96.250648 164.45209,96.234308 C 164.37585,96.137508 164.54363,96.171548 164.88571,96.322338 L 165.27722,96.494868 L 165.39421,96.348958 C 165.67621,95.997268 165.93468,95.948238 166.22992,96.190418 C 166.39629,96.326858 166.4526,96.485298 166.51838,97.001878 C 166.58339,97.512718 166.53898,97.690598 166.29545,97.894338 C 166.07543,98.078408 165.89099,98.085058 165.68935,97.916158 C 165.40867,97.681128 165.21205,97.750168 164.92856,98.183248 C 164.85068,98.302208 164.78109,98.404768 164.77387,98.411208 C 164.76666,98.417608 164.74604,98.333788 164.72807,98.224878 L 164.69538,98.026888 L 164.61146,98.289818 C 164.41437,98.907268 164.18805,99.189958 162.95005,100.36507 C 161.86573,101.3943 160.95969,102.33255 160.27523,103.13498 C 160.00164,103.45572 159.6338,103.88164 159.4578,104.08147 C 159.07409,104.51711 158.90535,104.77568 158.70063,105.24175 C 158.40397,105.91709 158.24864,106.62036 158.16696,107.65813 C 158.03238,109.36812 158.33129,111.06494 159.02297,112.51766 C 159.193,112.87474 159.30696,113.03966 159.75644,113.57904 C 160.3699,114.31516 160.57332,114.47744 161.304,114.81325 C 161.84602,115.06238 162.35354,115.18723 162.96099,115.22094 C 163.52751,115.25234 164.47929,115.1455 164.61045,115.03579 C 164.66515,114.99002 166.69219,113.38252 169.11497,111.46355 C 180.64258,102.33309 188.23471,96.291718 199.65658,87.160318 C 201.71469,85.514954 206.44962,81.707876 209.72941,79.061376 C 211.87185,77.332636 216.42009,73.620756 220.97218,69.886052 L 223.17373,68.079872 L 223.19907,67.712872 C 223.23277,67.224722 223.22559,66.722342 223.17732,66.202942 C 223.11808,65.564932 223.16145,65.149872 223.31599,64.877552 C 223.61625,64.348372 224.05472,64.023642 224.93714,63.676962 C 225.58305,63.423182 226.77762,62.853162 226.78265,62.796292 C 226.79121,62.700502 226.5611,62.221952 226.47312,62.152352 C 226.41864,62.109282 226.26489,62.092802 226.10349,62.112752 C 225.86163,62.142612 225.80963,62.129182 225.68736,62.005122 C 225.53302,61.848512 225.35262,61.423602 225.18913,60.831702 C 225.06085,60.367052 225.07777,60.338822 225.73609,59.918222 C 226.2468,59.591922 226.49252,59.485872 226.89402,59.418372 C 227.22974,59.361912 227.42628,59.406052 227.62262,59.581982 C 227.82014,59.758912 228.14456,60.338412 228.21262,60.635862 C 228.2784,60.923422 228.18499,61.258092 227.99453,61.417472 C 227.83392,61.551802 227.83562,61.559642 228.10805,61.958992 C 228.25423,62.173252 228.25815,62.175202 228.41203,62.111432 C 229.05004,61.846942 230.90986,61.023122 230.90934,61.005192 C 230.90894,60.992932 230.86205,60.868592 230.80503,60.728952 C 230.67753,60.416632 230.53997,60.325642 230.28256,60.383112 C 230.18224,60.405522 230.05585,60.413782 230.00164,60.401512 C 229.76859,60.348852 229.5505,59.923232 229.33064,59.091712 L 229.21843,58.667342 L 229.67048,58.331042 C 230.44233,57.756852 231.16283,57.536082 231.58601,57.744142 C 231.80143,57.850082 231.83297,57.883092 232.04225,58.221852 C 232.29359,58.628632 232.38666,58.880432 232.37556,59.123302 C 232.36569,59.337092 232.19901,59.677602 232.07569,59.735792 C 231.95884,59.790922 231.97478,59.850432 232.1947,60.181762 L 232.35773,60.427462 L 233.61219,59.903482 C 234.30213,59.615302 234.8724,59.366372 234.87946,59.350302 C 234.90931,59.282692 234.68828,58.808462 234.59559,58.741152 C 234.54014,58.700852 234.42159,58.684222 234.33217,58.704152 C 234.07195,58.762172 233.90252,58.726712 233.78841,58.590342 C 233.65576,58.431822 233.41925,57.829362 233.30795,57.366382 L 233.22245,57.010922 L 233.49658,56.789032 C 234.12336,56.281782 234.49279,56.097332 235.05712,56.010032 C 235.32603,55.968422 235.42674,55.980982 235.59964,56.077532 C 235.78566,56.181402 235.83935,56.240092 236.03268,56.550862 C 236.33333,57.034152 236.42021,57.405842 236.30662,57.722772 C 236.24372,57.898472 236.18174,57.988352 236.08833,58.039262 C 235.94418,58.117892 235.94705,58.128582 236.23144,58.566132 L 236.36972,58.778872 L 237.72255,58.233312 C 238.46657,57.933282 239.0746,57.675882 239.07362,57.661342 C 239.0665,57.554262 238.81326,57.054882 238.73972,57.002942 C 238.68943,56.967372 238.52182,56.955412 238.36722,56.976382 C 238.1264,57.009022 238.06768,56.995822 237.95729,56.884212 C 237.80752,56.732862 237.62555,56.296362 237.46945,55.714412 C 237.33679,55.219952 237.346,55.203832 238.00275,54.781102 C 238.73789,54.307912 239.36427,54.148402 239.73814,54.339192 C 239.8902,54.416792 239.95499,54.488242 240.15747,54.801382 C 240.46916,55.283612 240.5514,55.577162 240.46792,55.909202 C 240.41645,56.113782 240.36858,56.194022 240.24898,56.276292 C 240.07668,56.394802 240.07616,56.392492 240.38837,56.861932 L 240.55682,57.115132 L 241.86393,56.609882 C 242.58287,56.331992 243.17659,56.093582 243.18332,56.080072 C 243.20056,56.045712 242.91193,55.366352 242.8457,55.285432 C 242.81585,55.248882 242.72068,55.225022 242.63427,55.232392 C 242.19325,55.270052 242.09894,55.254952 241.99437,55.129942 C 241.8717,54.983342 241.67066,54.477412 241.51488,53.923112 L 241.40436,53.529982 L 241.87765,53.175422 C 242.38522,52.795162 242.75517,52.626062 243.2679,52.539852 C 243.57672,52.487912 243.74935,52.528192 243.94556,52.697992 C 244.12923,52.856902 244.4775,53.445402 244.53275,53.690322 C 244.61858,54.070172 244.49846,54.483032 244.26992,54.593652 C 244.14602,54.653612 244.13622,54.620472 244.4485,55.199272 C 244.54784,55.383462 244.637,55.533992 244.64647,55.533842 C 244.65601,55.533662 245.00382,55.374622 245.41936,55.180432 C 245.83497,54.986222 246.42262,54.721472 246.72536,54.592082 C 247.02803,54.462712 247.2746,54.349212 247.27317,54.339892 C 247.25847,54.244262 247.01869,53.756132 246.9443,53.670492 C 246.8669,53.581452 246.79387,53.566452 246.57154,53.594002 C 246.11145,53.651012 246.00231,53.516382 245.69101,52.507542 C 245.4929,51.865552 245.49617,51.853442 245.94999,51.548592 C 246.10413,51.445022 246.31093,51.305762 246.40955,51.239132 C 246.78702,50.983982 247.50732,50.815412 247.79857,50.914052 C 248.00223,50.983022 248.2258,51.227442 248.45226,51.628722 C 248.7499,52.155882 248.74082,52.633102 248.42822,52.894592 L 248.26454,53.031532 L 248.5209,53.430172 C 248.66192,53.649412 248.78739,53.829202 248.7998,53.829672 C 248.81221,53.830102 249.0243,53.782612 249.27113,53.724082 C 250.02507,53.545322 250.49692,53.513352 251.0056,53.606552 C 252.40794,53.863492 253.52315,54.613812 254.15346,55.724472 C 254.26462,55.920442 254.41035,56.212362 254.47723,56.373182 C 254.62432,56.727032 254.82582,57.547782 254.87566,57.996012 C 254.97193,58.862202 254.7285,59.776612 254.19219,60.563172 C 253.66156,61.341342 252.79762,62.226802 252.29455,62.507932 C 251.24276,63.095752 249.81312,63.406202 248.85473,63.254892 C 248.56787,63.209572 248.0454,63.031872 247.48525,62.789092 C 246.7844,62.485342 246.23601,62.539302 245.63157,62.971512 C 245.23288,63.256562 245.06698,63.455392 243.13845,65.958572 C 241.13689,68.556522 239.88942,70.140332 238.88296,71.361222 C 238.18603,72.206682 238.11647,72.277862 237.36448,72.914832 C 236.7976,73.394976 236.53157,73.596076 236.41661,73.631266 C 236.29878,73.667306 236.12387,73.632396 235.75091,73.498446 C 235.0082,73.231706 233.96784,72.939582 233.44603,72.851252 C 232.87673,72.754882 232.40684,72.747102 231.72527,72.822832 C 230.71332,72.935252 230.53076,72.991182 229.85239,73.396656 C 229.51523,73.598156 229.06676,73.857076 228.85586,73.972006 C 228.45645,74.189586 226.70845,75.659826 195.38985,102.12088 C 192.71234,104.3831 186.4843,109.64041 181.54972,113.8038 C 176.61516,117.96718 171.44622,122.33522 170.06316,123.51057 C 168.68013,124.68589 166.70935,126.34999 165.68373,127.20851 L 163.81888,128.7695 L 163.85638,128.90545 C 163.877,128.98023 163.86929,129.14186 163.83926,129.26463 C 163.54406,130.47107 164.373,132.53311 165.75999,134.04257 C 167.39439,135.82124 169.32031,136.74035 171.36338,136.71673 C 171.89166,136.71062 172.54908,136.51959 173.94752,135.96587 C 174.73678,135.65334 176.30976,134.90504 177.02511,134.50179 C 177.90375,134.00649 178.45603,133.86075 179.20774,133.92588 C 180.0736,134.00089 180.66593,134.33163 181.20589,135.04157 C 181.71,135.7044 181.85592,136.29309 181.7665,137.30346 C 181.73548,137.65494 181.65651,138.11482 181.59119,138.32538 C 181.32725,139.1762 180.23083,140.87825 179.12476,142.15431 C 178.59678,142.76343 176.77603,144.28595 176.03289,144.73975 C 174.52046,145.6633 173.55495,146.11025 169.3804,147.8193 C 169.12474,147.92397 168.4166,148.13749 167.80675,148.29378 C 166.11515,148.72732 165.16194,149.06264 163.94975,149.65056 C 161.99581,150.59825 160.3919,151.88328 159.03392,153.58904 C 158.09658,154.76644 157.38522,156.00188 156.69083,157.6584 C 156.46171,158.205 156.15836,158.86703 156.01673,159.12955 C 155.67984,159.754 155.31877,160.48364 154.35339,162.49077 C 152.80894,165.70186 152.01394,167.19097 150.92796,168.90698 C 148.93254,172.06004 146.70575,174.55274 144.12641,176.52066 C 142.36135,177.86732 141.12213,178.65666 139.75632,179.30426 C 137.21476,180.50928 135.05432,180.89234 131.83442,180.70892 C 130.45684,180.63044 130.38317,180.61771 129.20803,180.2552 C 126.54371,179.43319 125.17312,178.81357 123.42272,177.63963 C 121.24664,176.18021 118.9218,174.02916 116.86988,171.57659 C 116.2434,170.82781 114.90269,169.24865 113.89054,168.06734 L 112.05021,165.91954 L 111.68462,165.9813 L 111.31904,166.04306 L 111.28143,166.31121 C 111.23996,166.60672 111.14081,166.7231 110.88121,166.78099 C 110.58507,166.84704 110.39698,166.74434 110.05217,166.32825 C 109.83129,166.06171 109.73446,165.90802 109.70227,165.77288 z"
       id="path3250"
       sodipodi:nodetypes="csssssssssssssssssssscccsssssscccssssssssssssscccssssssssssssssssssscccsssscccsssscccssssscccsssssssssscccsssscccsssssssssssssssscccssssssssssssssssssssssscccssssssssssssssssssssssssscccccssc" />
    <rect
       style="opacity:1;color:#000000;fill:#0000ff;fill-opacity:0.22608696;fill-rule:nonzero;stroke:none;stroke-width:10.60000038000000089;stroke-linecap:butt;stroke-linejoin:miter;marker:none;marker-start:none;marker-mid:none;marker-end:none;stroke-miterlimit:4;stroke-dasharray:none;stroke-dashoffset:0;stroke-opacity:1;visibility:visible;display:block;overflow:visible"
       id="rect1913"
       width="291.42856"
       height="45.714287"
       x="-16.285721"
       y="181.50516" />
    <path
       style="font-size:39.83382034000000260px;font-family:Goblin;stroke:none;stroke-opacity:1;fill:#000000;fill-opacity:1"
       d="M 58.72672,219.00823 L 44.00299,198.17717 L 44.00299,218.61923 L 40.30747,218.61923 L 40.30747,190.12482 L 41.86348,190.12482 L 56.19821,209.82778 L 56.19821,190.12482 L 59.89373,190.12482 L 59.89373,219.00823 L 58.72672,219.00823 M 64.3867,204.1289 C 64.3867,200.0055 65.41756,196.55635 67.47927,193.78144 C 69.55394,191.00659 72.34827,189.61915 75.86227,189.61912 C 79.8171,189.61915 82.84483,190.89637 84.94547,193.45079 C 87.05902,196.00526 88.11581,199.56463 88.11583,204.1289 C 88.11581,208.8099 87.05902,212.47949 84.94547,215.13766 C 82.83187,217.78288 79.80414,219.10548 75.86227,219.10548 C 72.27047,219.10548 69.45669,217.70508 67.42092,214.90426 C 65.39811,212.10345 64.3867,208.51167 64.3867,204.1289 M 68.47123,204.1289 C 68.47122,207.39653 69.11307,210.12603 70.39679,212.3174 C 71.69345,214.50878 73.51528,215.60447 75.86227,215.60447 C 78.52043,215.60447 80.54324,214.59955 81.9307,212.5897 C 83.33109,210.57986 84.03129,207.7596 84.03131,204.1289 C 84.03129,196.78975 81.30828,193.12017 75.86227,193.12014 C 73.45044,193.12017 71.61565,194.10564 70.35789,196.07656 C 69.10011,198.04752 68.47122,200.73163 68.47123,204.1289 M 122.75647,191.17513 L 121.45332,194.5011 C 120.20849,193.59345 118.25052,193.13962 115.57938,193.13959 C 113.07679,193.13962 111.06695,194.21585 109.54985,196.36831 C 108.0457,198.52081 107.29363,201.29569 107.29364,204.69296 C 107.29363,207.93465 108.06515,210.5669 109.6082,212.5897 C 111.1642,214.59955 113.16756,215.60447 115.61828,215.60447 C 118.28942,215.60447 120.34464,214.6579 121.78397,212.76475 L 123.92348,215.74062 C 121.66725,217.98386 118.7627,219.10548 115.20983,219.10548 C 111.48837,219.10548 108.55789,217.76343 106.41838,215.07931 C 104.27887,212.3952 103.20911,208.85529 103.20912,204.45955 C 103.20911,200.20648 104.35019,196.67305 106.63233,193.85925 C 108.91447,191.04549 111.8644,189.6386 115.48213,189.63857 C 118.58117,189.6386 121.00594,190.15079 122.75647,191.17513 M 127.01605,204.1289 C 127.01604,200.0055 128.0469,196.55635 130.10861,193.78144 C 132.18328,191.00659 134.97761,189.61915 138.49161,189.61912 C 142.44645,189.61915 145.47418,190.89637 147.57481,193.45079 C 149.68836,196.00526 150.74515,199.56463 150.74518,204.1289 C 150.74515,208.8099 149.68836,212.47949 147.57481,215.13766 C 145.46121,217.78288 142.43348,219.10548 138.49161,219.10548 C 134.89981,219.10548 132.08603,217.70508 130.05026,214.90426 C 128.02745,212.10345 127.01604,208.51167 127.01605,204.1289 M 131.10057,204.1289 C 131.10056,207.39653 131.74242,210.12603 133.02613,212.3174 C 134.32279,214.50878 136.14462,215.60447 138.49161,215.60447 C 141.14977,215.60447 143.17258,214.59955 144.56004,212.5897 C 145.96043,210.57986 146.66063,207.7596 146.66065,204.1289 C 146.66063,196.78975 143.93762,193.12017 138.49161,193.12014 C 136.07979,193.12017 134.24499,194.10564 132.98723,196.07656 C 131.72945,198.04752 131.10056,200.73163 131.10057,204.1289 M 165.13826,219.00823 L 163.1738,219.00823 L 152.55404,190.12482 L 156.87197,190.12482 L 164.20466,211.11149 L 171.26505,190.12482 L 175.44682,190.12482 L 165.13826,219.00823 M 182.52665,193.62584 L 182.52665,201.54204 L 191.94051,201.54204 L 191.94051,204.84856 L 182.52665,204.84856 L 182.52665,215.11821 L 195.44153,215.11821 L 195.44153,218.61923 L 178.63663,218.61923 L 178.63663,190.12482 L 195.65548,190.12482 L 195.65548,193.62584 L 182.52665,193.62584 M 215.76689,218.61923 L 208.1619,206.38511 C 207.29312,206.38513 205.91864,206.32029 204.03848,206.19061 L 204.03848,218.61923 L 200.14846,218.61923 L 200.14846,190.12482 C 200.29109,190.12485 201.29601,190.07947 203.16322,189.98867 C 205.04339,189.88497 206.41138,189.8331 207.26719,189.83307 C 214.11362,189.8331 217.53683,192.55611 217.53685,198.00212 C 217.53683,199.79155 216.98575,201.4059 215.88359,202.84519 C 214.7814,204.27155 213.47176,205.15977 211.95467,205.50986 L 220.22097,218.61923 L 215.76689,218.61923 M 204.03848,193.62584 L 204.03848,202.8841 C 204.97207,203.01378 205.87974,203.07861 206.76149,203.0786 C 209.09549,203.07861 210.79413,202.70258 211.85742,201.95049 C 212.92068,201.19844 213.45231,199.85638 213.45233,197.92432 C 213.45231,196.32943 212.88178,195.18188 211.74072,194.48165 C 210.59963,193.78147 208.79726,193.43137 206.33359,193.43134 C 205.94458,193.43137 205.17954,193.4962 204.03848,193.62584"
       id="text1909" />
  </g>
</svg>
