<?xml version="1.0" encoding="UTF-8" standalone="no"?>
<svg
   xmlns:dc="http://purl.org/dc/elements/1.1/"
   xmlns:cc="http://creativecommons.org/ns#"
   xmlns:rdf="http://www.w3.org/1999/02/22-rdf-syntax-ns#"
   xmlns:svg="http://www.w3.org/2000/svg"
   xmlns="http://www.w3.org/2000/svg"
   xmlns:xlink="http://www.w3.org/1999/xlink"
   xmlns:sodipodi="http://sodipodi.sourceforge.net/DTD/sodipodi-0.dtd"
   xmlns:inkscape="http://www.inkscape.org/namespaces/inkscape"
   width="59.012131"
   height="59.012165"
   id="svg2463"
   sodipodi:version="0.32"
   inkscape:version="1.0.1 (c497b03c, 2020-09-10)"
   version="1.0"
   sodipodi:docname="button.svg"
   inkscape:output_extension="org.inkscape.output.svg.inkscape">
  <defs
     id="defs2465">
    <linearGradient
       id="linearGradient3262">
      <stop
         style="stop-color:#f5f5f5;stop-opacity:0.22680412;"
         offset="0"
         id="stop3264" />
      <stop
         style="stop-color:#f5f5f5;stop-opacity:0.96078432;"
         offset="1"
         id="stop3266" />
    </linearGradient>
    <linearGradient
       id="linearGradient3751"
       inkscape:collect="always">
      <stop
         id="stop3753"
         offset="0"
         style="stop-color:black;stop-opacity:1;" />
      <stop
         id="stop3755"
         offset="1"
         style="stop-color:black;stop-opacity:0;" />
    </linearGradient>
    <inkscape:perspective
       sodipodi:type="inkscape:persp3d"
       inkscape:vp_x="0 : 521.19326 : 1"
       inkscape:vp_y="0 : 1000 : 0"
       inkscape:vp_z="744.09448 : 521.19326 : 1"
       inkscape:persp3d-origin="372.04724 : 345.79956 : 1"
       id="perspective2471" />
    <linearGradient
       inkscape:collect="always"
       xlink:href="#linearGradient3751"
       id="linearGradient3272"
       gradientUnits="userSpaceOnUse"
       gradientTransform="matrix(0.3868046,0,0,0.3868046,40.335717,481.59837)"
       x1="665.12128"
       y1="684.16162"
       x2="381.28015"
       y2="449.80624" />
    <linearGradient
       inkscape:collect="always"
       xlink:href="#linearGradient3751"
       id="linearGradient2406"
       gradientUnits="userSpaceOnUse"
       gradientTransform="matrix(0.3868046,0,0,0.3868046,43.114888,485.8841)"
       x1="665.12128"
       y1="684.16162"
       x2="381.28015"
       y2="449.80624" />
  </defs>
  <sodipodi:namedview
     id="base"
     pagecolor="#f5f5f5"
     bordercolor="#666666"
     borderopacity="1.0"
     gridtolerance="10000"
     guidetolerance="10"
     objecttolerance="10"
     inkscape:pageopacity="0"
     inkscape:pageshadow="2"
     inkscape:zoom="5.6"
     inkscape:cx="24.622544"
     inkscape:cy="37.261"
     inkscape:document-units="px"
     inkscape:current-layer="layer1"
     showgrid="false"
     inkscape:window-width="1021"
     inkscape:window-height="720"
     inkscape:window-x="87"
     inkscape:window-y="23"
     inkscape:document-rotation="0"
     inkscape:window-maximized="0" />
  <metadata
     id="metadata2468">
    <rdf:RDF>
      <cc:Work
         rdf:about="">
        <dc:format>image/svg+xml</dc:format>
        <dc:type
           rdf:resource="http://purl.org/dc/dcmitype/StillImage" />
      </cc:Work>
    </rdf:RDF>
  </metadata>
  <g
     inkscape:label="Layer 1"
     inkscape:groupmode="layer"
     id="layer1"
     transform="translate(-112.85405,-774.25429)">
    <circle
       style="fill:#f5f5f5;fill-opacity:0.960784;stroke:#000000;stroke-width:17.7513;stroke-miterlimit:3.3;stroke-dasharray:none;stroke-opacity:1"
       id="path2481"
       transform="matrix(0.1690021,0,0,0.1690022,81.519358,662.1236)"
       cx="360"
       cy="838.07648"
       r="165.71428" />
    <path
       style="fill:#000000;fill-opacity:1;fill-rule:evenodd;stroke:#000000;stroke-width:0.0680408px;stroke-linecap:butt;stroke-linejoin:miter;stroke-opacity:1"
       d="m 145.82521,786.11711 h -1.37464 l -0.27492,0.68733 0.27492,0.75603 -0.13746,0.82479 -0.6873,-0.41239 -0.54986,-1.03098 -1.16844,-0.27492 -0.48112,-0.48112 -1.03097,-0.48113 -1.16844,-1.92449 0.0687,-0.89351 2.88672,-2.19942 1.37462,0.61859 0.2062,0.48114 v 0.54984 l 0.34366,0.48112 0.68731,0.2062 0.48112,-0.4124 0.0687,-0.48112 -0.20619,-0.41238 -0.41239,-0.2062 -0.27493,-0.34366 0.61859,-0.27492 -0.13746,-0.68733 v -0.41238 l -0.41238,-0.4124 -0.20621,-0.61859 -0.82477,-0.20618 -0.68732,-0.13747 -1.44337,1.03098 -3.64276,1.44337 -0.82479,0.82478 -0.61859,0.48112 -0.13747,1.0997 0.27495,0.54985 0.68732,1.85576 0.8935,1.7183 0.96224,1.23716 -1.51209,2.47435 -1.7183,3.7115 -1.03098,1.64955 -1.71827,2.13069 -0.0687,0.96224 -0.8935,0.82479 1.37462,1.23717 -0.34365,1.44337 0.13746,3.23037 0.61857,3.71151 0.6186,3.29913 0.6873,1.0997 0.96226,1.99321 1.51209,2.26816 0.41239,1.44335 0.41239,1.03098 -1.23718,1.7183 -2.19941,0.8935 -0.20618,0.68732 4.19262,-0.13745 -0.61858,1.0997 0.75604,0.68732 1.99323,0.20619 1.58082,-1.37463 0.54986,-1.92448 0.8935,-1.64957 1.0997,-0.96224 0.34366,-1.09971 -1.16842,-0.0687 0.75603,-0.75605 -1.51208,0.48113 1.09969,-1.09972 -0.82477,-0.20618 -0.6186,-0.75605 -1.03096,-2.13068 -2.40561,-1.99321 -0.48111,-0.13747 0.48111,-0.41239 -0.0687,-1.16843 0.48113,-1.03099 -0.4124,0.0687 0.75605,-1.3059 v -1.3059 l 0.48113,-0.68732 v -0.89352 l 1.03096,-1.37464 0.0687,-1.16843 -0.2062,-0.96223 0.48113,-1.09972 0.54983,-0.8935 v -0.54986 l 0.61861,-0.0687 0.54984,-0.54985 0.48112,-1.37463 1.09971,-1.23717 1.30589,-0.48112 0.82478,0.68732 1.99322,0.61858 1.58083,0.82478 0.75603,0.96224 1.30591,0.13746 4.1239,1.78703 2.13067,0.75604 1.7183,1.30591 0.41238,-0.13745 v -0.4124 l -0.96223,-0.75606 1.85574,0.48114 0.2062,-0.34367 -0.41239,-0.41238 h 0.68732 l 0.0687,-0.41239 -1.23717,-0.27494 0.96224,-0.27493 v -0.48111 l -0.34366,-0.0687 -1.03098,0.0687 -0.82476,-0.34366 -0.54986,-0.27493 0.82478,-0.68732 0.2062,-0.48111 -0.13747,-0.34366 -0.75604,0.13746 -1.58084,0.82478 -0.20618,0.41239 -0.54986,-0.13746 -1.99322,-1.09971 -0.0687,-0.75605 -1.16843,-0.61858 -1.99321,-1.03099 -0.48111,0.34367 0.0687,-0.48113 -1.09969,-1.03097 -0.96226,-0.27492 -0.8935,-1.03098 -0.27492,-0.34366 0.89351,0.61859 -0.13746,-0.68732 0.68731,0.34365 -0.2062,-1.03097 0.96225,0.8935 -0.41238,-0.61858 0.96223,0.4124 -0.82477,-1.16843 0.61857,0.20618 -0.27492,-1.09969 0.48112,0.41238 -0.68732,-1.03096 0.68732,0.20619 -0.61858,-0.82478 0.82476,-0.0687 -0.8935,-0.54985 0.54985,-0.27492 -0.61857,-0.0687 0.82476,-0.75605 -0.75604,0.0687 0.0687,-0.48112 0.0687,-1.37464 -0.41238,0.96225 -0.48114,-1.37464 0.0687,1.09972 -0.27493,0.0687 h -0.68732 l -0.75604,-1.0997 h -0.75606 l -0.89351,-0.75606 -0.41239,0.41239 z"
       id="path1939" />
  </g>
</svg>
