<?xml version="1.0" encoding="UTF-8" standalone="no"?>
<svg
   xmlns:dc="http://purl.org/dc/elements/1.1/"
   xmlns:cc="http://creativecommons.org/ns#"
   xmlns:rdf="http://www.w3.org/1999/02/22-rdf-syntax-ns#"
   xmlns:svg="http://www.w3.org/2000/svg"
   xmlns="http://www.w3.org/2000/svg"
   xmlns:sodipodi="http://sodipodi.sourceforge.net/DTD/sodipodi-0.dtd"
   xmlns:inkscape="http://www.inkscape.org/namespaces/inkscape"
   version="1.1"
   id="Layer_1"
   x="0px"
   y="0px"
   width="122.88px"
   height="122.88px"
   viewBox="0 0 122.88 122.88"
   enable-background="new 0 0 122.88 122.88"
   xml:space="preserve"
   sodipodi:docname="checkmarkbox_unchecked.svg"
   inkscape:version="0.92.5 (2060ec1f9f, 2020-04-08)"><metadata
	 id="metadata11"><rdf:RDF><cc:Work
		 rdf:about=""><dc:format>image/svg+xml</dc:format><dc:type
		   rdf:resource="http://purl.org/dc/dcmitype/StillImage" /></cc:Work></rdf:RDF></metadata><defs
	 id="defs9" /><sodipodi:namedview
	 pagecolor="#ffffff"
	 bordercolor="#666666"
	 borderopacity="1"
	 objecttolerance="10"
	 gridtolerance="10"
	 guidetolerance="10"
	 inkscape:pageopacity="0"
	 inkscape:pageshadow="2"
	 inkscape:window-width="1866"
	 inkscape:window-height="1140"
	 id="namedview7"
	 showgrid="false"
	 inkscape:zoom="1.920573"
	 inkscape:cx="-37.749152"
	 inkscape:cy="61.439999"
	 inkscape:window-x="1764"
	 inkscape:window-y="285"
	 inkscape:window-maximized="0"
	 inkscape:current-layer="Layer_1" /><g
	 id="g4"
	 style=""><path
	   id="path2"
	   d="M 8.7929688,0 C 6.3719683,0 4.1720781,0.98807823 2.5800781,2.5800781 0.98807823,4.1720781 0,6.3719686 0,8.7929688 V 114.08789 c 0,2.422 0.98807823,4.61894 2.5800781,6.21094 1.592,1.592 3.7918905,2.58008 6.2128907,2.58008 H 114.08789 c 2.422,0 4.62089,-0.98808 6.21289,-2.58008 1.592,-1.592 2.58008,-3.78894 2.58008,-6.21094 V 8.7929688 c 0,-2.421 -0.98808,-4.6208907 -2.58008,-6.2128907 C 118.70878,0.98807823 116.50989,0 114.08789,0 Z m 0,7.1699219 H 114.08789 c 0.442,0 0.84853,0.1835156 1.14453,0.4785156 0.294,0.295 0.47852,0.7015309 0.47852,1.1445313 V 114.08789 c 0,0.443 -0.18352,0.84658 -0.47852,1.14258 -0.296,0.295 -0.70253,0.48047 -1.14453,0.48047 H 8.7929688 c -0.4420001,0 -0.8485313,-0.18447 -1.1445313,-0.48047 -0.295,-0.296 -0.4785156,-0.70058 -0.4785156,-1.14258 V 8.7929688 c 0,-0.4420001 0.1835156,-0.8485313 0.4785156,-1.1445313 0.296,-0.295 0.7025312,-0.4785156 1.1445313,-0.4785156 z M 79.332031,49.09375 c -0.08303,0.04494 -0.165787,0.08695 -0.248047,0.128906 -0.02098,0.04666 -0.02698,0.05476 -0.04883,0.103516 0.109036,-0.064 0.209229,-0.140445 0.296875,-0.232422 z m -0.947265,0.839844 c -0.04816,0.01772 -0.09641,0.0349 -0.144532,0.05273 0.116981,0.0034 0.244463,0.01037 0.363282,0.01563 0.0112,-0.01229 0.02197,-0.02486 0.0332,-0.03711 -0.05803,-0.0055 -0.19917,-0.02216 -0.251953,-0.03125 z m -2.367188,0.177734 c -0.0039,0.0043 -0.004,0.0056 -0.0078,0.0098 0.0019,-3.78e-4 0.004,3.76e-4 0.0059,0 -0.0028,0.0025 0.0061,-0.01431 0.002,-0.0098 z" /></g></svg>