<?xml version="1.0" encoding="UTF-8" standalone="no"?>
<!-- Created with Inkscape (http://www.inkscape.org/) -->

<svg
   xmlns:dc="http://purl.org/dc/elements/1.1/"
   xmlns:cc="http://creativecommons.org/ns#"
   xmlns:rdf="http://www.w3.org/1999/02/22-rdf-syntax-ns#"
   xmlns:svg="http://www.w3.org/2000/svg"
   xmlns="http://www.w3.org/2000/svg"
   xmlns:xlink="http://www.w3.org/1999/xlink"
   xmlns:sodipodi="http://sodipodi.sourceforge.net/DTD/sodipodi-0.dtd"
   xmlns:inkscape="http://www.inkscape.org/namespaces/inkscape"
   width="256"
   height="256"
   id="svg2"
   sodipodi:version="0.32"
   inkscape:version="0.47 r22583"
   sodipodi:docname="dance_cover.svg"
   inkscape:output_extension="org.inkscape.output.svg.inkscape"
   version="1.0">
  <defs
     id="defs4">
    <inkscape:perspective
       sodipodi:type="inkscape:persp3d"
       inkscape:vp_x="0 : 128 : 1"
       inkscape:vp_y="0 : 1000 : 0"
       inkscape:vp_z="256 : 128 : 1"
       inkscape:persp3d-origin="128 : 85.333333 : 1"
       id="perspective17" />
    <linearGradient
       id="linearGradient3751"
       inkscape:collect="always">
      <stop
         id="stop3753"
         offset="0"
         style="stop-color:black;stop-opacity:1;" />
      <stop
         id="stop3755"
         offset="1"
         style="stop-color:black;stop-opacity:0;" />
    </linearGradient>
    <linearGradient
       inkscape:collect="always"
       xlink:href="#linearGradient3751"
       id="linearGradient3484"
       gradientUnits="userSpaceOnUse"
       gradientTransform="matrix(0.336682,0,0,0.336682,-81.3739,-51.8729)"
       x1="665.12128"
       y1="684.16162"
       x2="381.28015"
       y2="449.80624" />
    <inkscape:perspective
       sodipodi:type="inkscape:persp3d"
       inkscape:vp_x="0 : 0.5 : 1"
       inkscape:vp_y="0 : 1000 : 0"
       inkscape:vp_z="1 : 0.5 : 1"
       inkscape:persp3d-origin="0.5 : 0.33333333 : 1"
       id="perspective3827" />
    <inkscape:perspective
       sodipodi:type="inkscape:persp3d"
       inkscape:vp_x="0 : 0.5 : 1"
       inkscape:vp_y="0 : 1000 : 0"
       inkscape:vp_z="1 : 0.5 : 1"
       inkscape:persp3d-origin="0.5 : 0.33333333 : 1"
       id="perspective2830" />
    <linearGradient
       y2="449.80624"
       x2="381.28015"
       y1="684.16162"
       x1="665.12128"
       gradientTransform="matrix(0.336682,0,0,0.336682,-81.3739,-51.8729)"
       gradientUnits="userSpaceOnUse"
       id="linearGradient3484-3"
       xlink:href="#linearGradient3751-8"
       inkscape:collect="always" />
    <linearGradient
       inkscape:collect="always"
       id="linearGradient3751-8">
      <stop
         style="stop-color:black;stop-opacity:1;"
         offset="0"
         id="stop3753-9" />
      <stop
         style="stop-color:black;stop-opacity:0;"
         offset="1"
         id="stop3755-7" />
    </linearGradient>
    <inkscape:perspective
       id="perspective17-2"
       inkscape:persp3d-origin="128 : 85.333333 : 1"
       inkscape:vp_z="256 : 128 : 1"
       inkscape:vp_y="0 : 1000 : 0"
       inkscape:vp_x="0 : 128 : 1"
       sodipodi:type="inkscape:persp3d" />
    <inkscape:path-effect
       vertical="false"
       scale_y_rel="false"
       prop_scale="1"
       bendpath="m 266.25,32.092577 41.87495,0"
       is_visible="true"
       id="path-effect2844"
       effect="bend_path" />
  </defs>
  <sodipodi:namedview
     id="base"
     pagecolor="#ffffff"
     bordercolor="#666666"
     borderopacity="1.0"
     inkscape:pageopacity="0.0"
     inkscape:pageshadow="2"
     inkscape:zoom="1.1191406"
     inkscape:cx="-124.08132"
     inkscape:cy="70.174855"
     inkscape:document-units="px"
     inkscape:current-layer="layer1"
     inkscape:window-width="1144"
     inkscape:window-height="785"
     inkscape:window-x="136"
     inkscape:window-y="25"
     showguides="true"
     inkscape:guide-bbox="true"
     width="256px"
     height="256px"
     borderlayer="false"
     showgrid="false"
     inkscape:window-maximized="0" />
  <metadata
     id="metadata7">
    <rdf:RDF>
      <cc:Work
         rdf:about="">
        <dc:format>image/svg+xml</dc:format>
        <dc:type
           rdf:resource="http://purl.org/dc/dcmitype/StillImage" />
      </cc:Work>
    </rdf:RDF>
  </metadata>
  <g
     inkscape:label="Capa 1"
     inkscape:groupmode="layer"
     id="layer1">
    <rect
       style="opacity:1;color:#000000;fill:#ffffff;fill-opacity:0.31313129000000001;fill-rule:nonzero;stroke:#7f7f7f;stroke-width:10.01399999999999935;stroke-linecap:butt;stroke-linejoin:miter;marker:none;marker-start:none;marker-mid:none;marker-end:none;stroke-miterlimit:4;stroke-dasharray:none;stroke-dashoffset:0;stroke-opacity:1;visibility:visible;display:block;overflow:visible"
       id="rect1906"
       width="246.30026"
       height="246.30028"
       x="4.8498545"
       y="4.0691833"
       inkscape:export-filename="/home/jesusda/docs/curro/yo/ultrastar-ng/base/theme-pod/images/no_cover.png"
       inkscape:export-xdpi="89.889648"
       inkscape:export-ydpi="89.889648" />
    <rect
       style="opacity:1;color:#000000;fill:#0000ff;fill-opacity:0.22608696;fill-rule:nonzero;stroke:none;stroke-width:10.60000038000000089;stroke-linecap:butt;stroke-linejoin:miter;marker:none;marker-start:none;marker-mid:none;marker-end:none;stroke-miterlimit:4;stroke-dasharray:none;stroke-dashoffset:0;stroke-opacity:1;visibility:visible;display:block;overflow:visible"
       id="rect1913"
       width="291.42856"
       height="45.714287"
       x="-16.285721"
       y="181.50516" />
    <path
       style="font-size:39.83382034000000260px;font-family:Goblin;stroke:none;stroke-opacity:1;fill:#000000;fill-opacity:1"
       d="M 58.72672,219.00823 L 44.00299,198.17717 L 44.00299,218.61923 L 40.30747,218.61923 L 40.30747,190.12482 L 41.86348,190.12482 L 56.19821,209.82778 L 56.19821,190.12482 L 59.89373,190.12482 L 59.89373,219.00823 L 58.72672,219.00823 M 64.3867,204.1289 C 64.3867,200.0055 65.41756,196.55635 67.47927,193.78144 C 69.55394,191.00659 72.34827,189.61915 75.86227,189.61912 C 79.8171,189.61915 82.84483,190.89637 84.94547,193.45079 C 87.05902,196.00526 88.11581,199.56463 88.11583,204.1289 C 88.11581,208.8099 87.05902,212.47949 84.94547,215.13766 C 82.83187,217.78288 79.80414,219.10548 75.86227,219.10548 C 72.27047,219.10548 69.45669,217.70508 67.42092,214.90426 C 65.39811,212.10345 64.3867,208.51167 64.3867,204.1289 M 68.47123,204.1289 C 68.47122,207.39653 69.11307,210.12603 70.39679,212.3174 C 71.69345,214.50878 73.51528,215.60447 75.86227,215.60447 C 78.52043,215.60447 80.54324,214.59955 81.9307,212.5897 C 83.33109,210.57986 84.03129,207.7596 84.03131,204.1289 C 84.03129,196.78975 81.30828,193.12017 75.86227,193.12014 C 73.45044,193.12017 71.61565,194.10564 70.35789,196.07656 C 69.10011,198.04752 68.47122,200.73163 68.47123,204.1289 M 122.75647,191.17513 L 121.45332,194.5011 C 120.20849,193.59345 118.25052,193.13962 115.57938,193.13959 C 113.07679,193.13962 111.06695,194.21585 109.54985,196.36831 C 108.0457,198.52081 107.29363,201.29569 107.29364,204.69296 C 107.29363,207.93465 108.06515,210.5669 109.6082,212.5897 C 111.1642,214.59955 113.16756,215.60447 115.61828,215.60447 C 118.28942,215.60447 120.34464,214.6579 121.78397,212.76475 L 123.92348,215.74062 C 121.66725,217.98386 118.7627,219.10548 115.20983,219.10548 C 111.48837,219.10548 108.55789,217.76343 106.41838,215.07931 C 104.27887,212.3952 103.20911,208.85529 103.20912,204.45955 C 103.20911,200.20648 104.35019,196.67305 106.63233,193.85925 C 108.91447,191.04549 111.8644,189.6386 115.48213,189.63857 C 118.58117,189.6386 121.00594,190.15079 122.75647,191.17513 M 127.01605,204.1289 C 127.01604,200.0055 128.0469,196.55635 130.10861,193.78144 C 132.18328,191.00659 134.97761,189.61915 138.49161,189.61912 C 142.44645,189.61915 145.47418,190.89637 147.57481,193.45079 C 149.68836,196.00526 150.74515,199.56463 150.74518,204.1289 C 150.74515,208.8099 149.68836,212.47949 147.57481,215.13766 C 145.46121,217.78288 142.43348,219.10548 138.49161,219.10548 C 134.89981,219.10548 132.08603,217.70508 130.05026,214.90426 C 128.02745,212.10345 127.01604,208.51167 127.01605,204.1289 M 131.10057,204.1289 C 131.10056,207.39653 131.74242,210.12603 133.02613,212.3174 C 134.32279,214.50878 136.14462,215.60447 138.49161,215.60447 C 141.14977,215.60447 143.17258,214.59955 144.56004,212.5897 C 145.96043,210.57986 146.66063,207.7596 146.66065,204.1289 C 146.66063,196.78975 143.93762,193.12017 138.49161,193.12014 C 136.07979,193.12017 134.24499,194.10564 132.98723,196.07656 C 131.72945,198.04752 131.10056,200.73163 131.10057,204.1289 M 165.13826,219.00823 L 163.1738,219.00823 L 152.55404,190.12482 L 156.87197,190.12482 L 164.20466,211.11149 L 171.26505,190.12482 L 175.44682,190.12482 L 165.13826,219.00823 M 182.52665,193.62584 L 182.52665,201.54204 L 191.94051,201.54204 L 191.94051,204.84856 L 182.52665,204.84856 L 182.52665,215.11821 L 195.44153,215.11821 L 195.44153,218.61923 L 178.63663,218.61923 L 178.63663,190.12482 L 195.65548,190.12482 L 195.65548,193.62584 L 182.52665,193.62584 M 215.76689,218.61923 L 208.1619,206.38511 C 207.29312,206.38513 205.91864,206.32029 204.03848,206.19061 L 204.03848,218.61923 L 200.14846,218.61923 L 200.14846,190.12482 C 200.29109,190.12485 201.29601,190.07947 203.16322,189.98867 C 205.04339,189.88497 206.41138,189.8331 207.26719,189.83307 C 214.11362,189.8331 217.53683,192.55611 217.53685,198.00212 C 217.53683,199.79155 216.98575,201.4059 215.88359,202.84519 C 214.7814,204.27155 213.47176,205.15977 211.95467,205.50986 L 220.22097,218.61923 L 215.76689,218.61923 M 204.03848,193.62584 L 204.03848,202.8841 C 204.97207,203.01378 205.87974,203.07861 206.76149,203.0786 C 209.09549,203.07861 210.79413,202.70258 211.85742,201.95049 C 212.92068,201.19844 213.45231,199.85638 213.45233,197.92432 C 213.45231,196.32943 212.88178,195.18188 211.74072,194.48165 C 210.59963,193.78147 208.79726,193.43137 206.33359,193.43134 C 205.94458,193.43137 205.17954,193.4962 204.03848,193.62584"
       id="text1909" />
    <path
       style="fill:#000000;fill-opacity:1;stroke:#000000;stroke-width:1.40280461;stroke-miterlimit:4;stroke-opacity:1;stroke-dasharray:none"
       d="m 150.06592,185.68938 c -4.60748,-1.65764 -3.02251,-6.45629 -3.46934,-9.9616 0.45138,-2.29816 -0.81974,-4.1423 -1.53758,-6.17672 -0.65093,-2.92866 0.32225,-5.94531 1.98756,-8.44695 -0.11225,-6.62708 -1.73113,-13.11696 -2.83659,-19.60947 -0.5634,-4.70997 2.74548,-9.2889 0.84779,-13.89767 -1.46904,-4.34277 -1.42389,-8.84118 -1.35356,-13.34214 0.37405,-6.06667 -2.28758,-11.83498 -2.51296,-17.880806 -4.94948,-2.011 -4.58183,6.589956 -7.48859,8.935276 -1.93755,5.80211 -6.56939,10.34955 -9.15248,15.84237 -1.0796,3.21557 -2.14731,6.42925 -4.67981,8.95528 -3.94492,4.98803 -3.09551,11.88695 -7.37915,16.75106 -2.41299,4.83031 -6.25228,9.45184 -7.5511,14.55623 -0.73919,2.521 2.72056,4.45511 0.86328,6.86187 -1.94891,3.73982 -0.89276,7.99719 -1.86996,11.94519 -3.22233,0.0253 -2.29359,3.45536 -4.651424,4.49153 -2.00584,0.95556 -4.893543,1.2878 -6.860664,0.36653 -2.263319,-1.64154 -0.516986,-5.22107 0.562164,-7.31035 1.620486,-2.48333 2.66659,-5.11934 2.58929,-8.0539 0.40643,-2.34692 1.97441,-4.41653 1.86946,-6.91004 -0.45913,-2.76019 1.32116,-4.91181 1.97487,-7.33345 1.549324,-7.25078 4.847674,-14.12259 6.138794,-21.46583 2.43722,-4.95745 6.05943,-9.61678 7.24202,-14.97415 0.45945,-6.60418 3.08522,-12.82904 6.29493,-18.66454 0.87782,-4.050706 4.05654,-7.133006 5.26261,-11.051936 -0.51996,-3.457574 -0.87916,-6.917758 -0.33294,-10.392816 -2.09213,-5.931618 -6.12352,-11.12084 -7.41466,-17.313859 -0.81618,2.200211 -0.37618,6.158337 -0.7221,9.029368 -1.40657,5.679449 -3.33103,11.356489 -4.41847,17.037433 1.73574,2.838374 1.44674,6.119564 0.10495,9.049664 0.76578,1.62228 -1.08639,4.784376 -1.41843,1.68275 0.72076,-4.18196 -2.52721,-1.52836 -0.6401,0.99062 1.21022,2.057156 5.21453,4.987306 -0.0547,2.250046 -2.36934,-1.2345 -2.93795,-4.337476 -3.60066,-6.600426 0.92607,-3.14323 1.96527,-6.20945 1.68891,-9.520656 0.30158,-5.78565 -0.099,-11.657333 1.8842,-17.236965 0.60466,-6.866955 -0.15179,-13.899436 0.53127,-20.747169 0.24997,-2.980567 2.73471,-5.51103 6.03977,-5.224186 3.76945,0.02245 3.87528,-3.891744 1.37737,-2.151116 1.41312,-1.464416 5.70233,-9.908458 2.61089,-8.193922 -1.55725,-0.387174 0.51082,-3.256386 -2.2359,-4.668954 3.16893,1.053085 0.58407,-2.546707 2.06122,-3.635003 -1.88616,-3.120623 8.8269,2.457658 2.72294,-1.410043 -3.88665,-3.653436 2.98605,0.890388 5.40311,0.02806 -2.20254,-1.645687 -7.12086,-5.979903 -5.03163,-6.228088 -1.95596,-2.285617 1.58737,0.270742 0.62683,-2.5728 2.54629,1.637663 7.38032,5.973928 3.33334,0.65368 -2.52936,-3.540819 -1.35286,-2.770764 1.19933,-2.679441 1.32023,4.29303 5.25372,4.047596 1.67564,0.02833 2.42561,1.300905 5.9377,7.964395 3.95706,1.703622 2.30498,1.454259 3.19267,0.849482 4.37004,2.040856 0.43799,-2.598892 1.27142,3.452105 3.98394,0.173947 2.72604,-0.726455 3.59564,2.25773 5.07677,3.75542 2.87292,1.633735 5.46317,5.700213 1.94662,7.955782 -1.88108,1.835655 -0.0429,5.567535 0.74049,6.659254 -3.8222,-0.03198 0.47953,5.790806 0.44466,8.856186 -0.7948,4.045464 -3.30782,-6.334336 -4.72652,-3.861697 0.42033,2.593926 0.11386,5.178229 -1.37465,2.187169 -2.3909,3.391841 -2.04657,-2.896426 -2.67343,1.402495 1.05017,1.718212 -4.8369,1.246589 -0.53545,2.761898 2.92199,0.462309 7.7406,0.374633 7.85851,4.017885 0.30429,2.95627 -0.25587,5.779022 -1.56298,8.48663 -0.42541,4.157276 -0.31364,8.502407 0.45089,12.54074 3.84267,3.702645 5.8369,8.565052 8.25658,13.090578 1.4979,3.599908 0.55921,7.697308 1.48971,11.272268 1.56301,1.41868 1.40284,4.30409 0.75659,5.998196 -2.33258,2.50641 -0.48893,6.32063 -1.53683,9.3508 -1.18186,7.62161 -1.69711,15.37388 -1.00333,23.04293 1.51761,6.29688 -1.55448,12.56394 -1.57841,18.89311 0.25727,3.12682 -2.11686,6.45739 0.0197,9.2685 -2.87217,3.12469 -0.27636,7.4449 -0.25728,11.05758 0.23791,4.35542 4.34126,8.46847 2.3075,12.82654 -1.75303,1.40965 -3.75749,1.95065 -6.08938,0.72096 z M 119.9718,41.851919 c 0.0452,-1.192188 -1.08308,1.300484 0,0 z"
       id="path2875" />
  </g>
</svg>
