<?xml version="1.0" encoding="UTF-8" standalone="no"?>
<svg
   xmlns:dc="http://purl.org/dc/elements/1.1/"
   xmlns:cc="http://creativecommons.org/ns#"
   xmlns:rdf="http://www.w3.org/1999/02/22-rdf-syntax-ns#"
   xmlns:svg="http://www.w3.org/2000/svg"
   xmlns="http://www.w3.org/2000/svg"
   xmlns:xlink="http://www.w3.org/1999/xlink"
   xmlns:sodipodi="http://sodipodi.sourceforge.net/DTD/sodipodi-0.dtd"
   xmlns:inkscape="http://www.inkscape.org/namespaces/inkscape"
   width="291.42856"
   height="256.31427"
   id="svg2"
   sodipodi:version="0.32"
   inkscape:version="1.0.1 (c497b03c, 2020-09-10)"
   sodipodi:docname="dance_cover.svg"
   inkscape:output_extension="org.inkscape.output.svg.inkscape"
   version="1.0">
  <defs
     id="defs4">
    <inkscape:perspective
       sodipodi:type="inkscape:persp3d"
       inkscape:vp_x="0 : 128.31427 : 1"
       inkscape:vp_y="0 : 1000 : 0"
       inkscape:vp_z="256 : 128.31427 : 1"
       inkscape:persp3d-origin="128 : 85.647603 : 1"
       id="perspective17" />
    <linearGradient
       id="linearGradient3751"
       inkscape:collect="always">
      <stop
         id="stop3753"
         offset="0"
         style="stop-color:black;stop-opacity:1;" />
      <stop
         id="stop3755"
         offset="1"
         style="stop-color:black;stop-opacity:0;" />
    </linearGradient>
    <linearGradient
       inkscape:collect="always"
       xlink:href="#linearGradient3751"
       id="linearGradient3484"
       gradientUnits="userSpaceOnUse"
       gradientTransform="matrix(0.336682,0,0,0.336682,-81.3739,-51.8729)"
       x1="665.12128"
       y1="684.16162"
       x2="381.28015"
       y2="449.80624" />
    <inkscape:perspective
       sodipodi:type="inkscape:persp3d"
       inkscape:vp_x="0 : 0.81427002 : 1"
       inkscape:vp_y="0 : 1000 : 0"
       inkscape:vp_z="1 : 0.81427002 : 1"
       inkscape:persp3d-origin="0.5 : 0.64760335 : 1"
       id="perspective3827" />
    <inkscape:perspective
       sodipodi:type="inkscape:persp3d"
       inkscape:vp_x="0 : 0.81427002 : 1"
       inkscape:vp_y="0 : 1000 : 0"
       inkscape:vp_z="1 : 0.81427002 : 1"
       inkscape:persp3d-origin="0.5 : 0.64760335 : 1"
       id="perspective2830" />
    <linearGradient
       y2="449.80624"
       x2="381.28015"
       y1="684.16162"
       x1="665.12128"
       gradientTransform="matrix(0.336682,0,0,0.336682,-81.3739,-51.8729)"
       gradientUnits="userSpaceOnUse"
       id="linearGradient3484-3"
       xlink:href="#linearGradient3751-8"
       inkscape:collect="always" />
    <linearGradient
       inkscape:collect="always"
       id="linearGradient3751-8">
      <stop
         style="stop-color:black;stop-opacity:1;"
         offset="0"
         id="stop3753-9" />
      <stop
         style="stop-color:black;stop-opacity:0;"
         offset="1"
         id="stop3755-7" />
    </linearGradient>
    <inkscape:perspective
       id="perspective17-2"
       inkscape:persp3d-origin="128 : 85.647603 : 1"
       inkscape:vp_z="256 : 128.31427 : 1"
       inkscape:vp_y="0 : 1000 : 0"
       inkscape:vp_x="0 : 128.31427 : 1"
       sodipodi:type="inkscape:persp3d" />
    <inkscape:path-effect
       vertical="false"
       scale_y_rel="false"
       prop_scale="1"
       bendpath="m 266.25,32.092577 h 41.87495"
       is_visible="true"
       id="path-effect2844"
       effect="bend_path"
       lpeversion="0"
       hide_knot="false" />
  </defs>
  <sodipodi:namedview
     id="base"
     pagecolor="#ffffff"
     bordercolor="#666666"
     borderopacity="1.0"
     inkscape:pageopacity="0.0"
     inkscape:pageshadow="2"
     inkscape:zoom="1.1191406"
     inkscape:cx="-107.7956"
     inkscape:cy="71.112672"
     inkscape:document-units="px"
     inkscape:current-layer="layer1"
     inkscape:window-width="1144"
     inkscape:window-height="785"
     inkscape:window-x="136"
     inkscape:window-y="23"
     showguides="true"
     inkscape:guide-bbox="true"
     width="256px"
     height="256px"
     borderlayer="false"
     showgrid="false"
     inkscape:window-maximized="0"
     inkscape:document-rotation="0" />
  <metadata
     id="metadata7">
    <rdf:RDF>
      <cc:Work
         rdf:about="">
        <dc:format>image/svg+xml</dc:format>
        <dc:type
           rdf:resource="http://purl.org/dc/dcmitype/StillImage" />
      </cc:Work>
    </rdf:RDF>
  </metadata>
  <g
     inkscape:label="Capa 1"
     inkscape:groupmode="layer"
     id="layer1"
     transform="translate(16.285721,0.93781662)">
    <rect
       style="color:#000000;display:block;overflow:visible;visibility:visible;opacity:1;fill:#ffffff;fill-opacity:0.313131;fill-rule:nonzero;stroke:#7f7f7f;stroke-width:10.014;stroke-linecap:butt;stroke-linejoin:miter;stroke-miterlimit:4;stroke-dasharray:none;stroke-dashoffset:0;stroke-opacity:1;marker:none;marker-start:none;marker-mid:none;marker-end:none"
       id="rect1906"
       width="246.30026"
       height="246.30028"
       x="4.8498545"
       y="4.0691833"
       inkscape:export-filename="/home/jesusda/docs/curro/yo/ultrastar-ng/base/theme-pod/images/no_cover.png"
       inkscape:export-xdpi="89.889648"
       inkscape:export-ydpi="89.889648" />
    <rect
       style="color:#000000;display:block;overflow:visible;visibility:visible;opacity:1;fill:#0000ff;fill-opacity:0.226087;fill-rule:nonzero;stroke:none;stroke-width:10.6;stroke-linecap:butt;stroke-linejoin:miter;stroke-miterlimit:4;stroke-dasharray:none;stroke-dashoffset:0;stroke-opacity:1;marker:none;marker-start:none;marker-mid:none;marker-end:none"
       id="rect1913"
       width="291.42856"
       height="45.714287"
       x="-16.285721"
       y="181.50516" />
    <path
       style="font-size:39.8338px;font-family:Goblin;fill:#000000;fill-opacity:1;stroke:none;stroke-opacity:1"
       d="M 58.72672,219.00823 44.00299,198.17717 v 20.44206 h -3.69552 v -28.49441 h 1.55601 l 14.33473,19.70296 v -19.70296 h 3.69552 v 28.88341 H 58.72672 M 64.3867,204.1289 c 0,-4.1234 1.03086,-7.57255 3.09257,-10.34746 2.07467,-2.77485 4.869,-4.16229 8.383,-4.16232 3.95483,3e-5 6.98256,1.27725 9.0832,3.83167 2.11355,2.55447 3.17034,6.11384 3.17036,10.67811 -2e-5,4.681 -1.05681,8.35059 -3.17036,11.00876 -2.1136,2.64522 -5.14133,3.96782 -9.0832,3.96782 -3.5918,0 -6.40558,-1.4004 -8.44135,-4.20122 -2.02281,-2.80081 -3.03422,-6.39259 -3.03422,-10.77536 m 4.08453,0 c -1e-5,3.26763 0.64184,5.99713 1.92556,8.1885 1.29666,2.19138 3.11849,3.28707 5.46548,3.28707 2.65816,0 4.68097,-1.00492 6.06843,-3.01477 1.40039,-2.00984 2.10059,-4.8301 2.10061,-8.4608 -2e-5,-7.33915 -2.72303,-11.00873 -8.16904,-11.00876 -2.41183,3e-5 -4.24662,0.9855 -5.50438,2.95642 -1.25778,1.97096 -1.88667,4.65507 -1.88666,8.05234 m 54.28524,-12.95377 -1.30315,3.32597 c -1.24483,-0.90765 -3.2028,-1.36148 -5.87394,-1.36151 -2.50259,3e-5 -4.51243,1.07626 -6.02953,3.22872 -1.50415,2.1525 -2.25622,4.92738 -2.25621,8.32465 -1e-5,3.24169 0.77151,5.87394 2.31456,7.89674 1.556,2.00985 3.55936,3.01477 6.01008,3.01477 2.67114,0 4.72636,-0.94657 6.16569,-2.83972 l 2.13951,2.97587 c -2.25623,2.24324 -5.16078,3.36486 -8.71365,3.36486 -3.72146,0 -6.65194,-1.34205 -8.79145,-4.02617 -2.13951,-2.68411 -3.20927,-6.22402 -3.20926,-10.61976 -1e-5,-4.25307 1.14107,-7.7865 3.42321,-10.6003 2.28214,-2.81376 5.23207,-4.22065 8.8498,-4.22068 3.09904,3e-5 5.52381,0.51222 7.27434,1.53656 m 4.25958,12.95377 c -1e-5,-4.1234 1.03085,-7.57255 3.09256,-10.34746 2.07467,-2.77485 4.869,-4.16229 8.383,-4.16232 3.95484,3e-5 6.98257,1.27725 9.0832,3.83167 2.11355,2.55447 3.17034,6.11384 3.17037,10.67811 -3e-5,4.681 -1.05682,8.35059 -3.17037,11.00876 -2.1136,2.64522 -5.14133,3.96782 -9.0832,3.96782 -3.5918,0 -6.40558,-1.4004 -8.44135,-4.20122 -2.02281,-2.80081 -3.03422,-6.39259 -3.03421,-10.77536 m 4.08452,0 c -1e-5,3.26763 0.64185,5.99713 1.92556,8.1885 1.29666,2.19138 3.11849,3.28707 5.46548,3.28707 2.65816,0 4.68097,-1.00492 6.06843,-3.01477 1.40039,-2.00984 2.10059,-4.8301 2.10061,-8.4608 -2e-5,-7.33915 -2.72303,-11.00873 -8.16904,-11.00876 -2.41182,3e-5 -4.24662,0.9855 -5.50438,2.95642 -1.25778,1.97096 -1.88667,4.65507 -1.88666,8.05234 m 34.03769,14.87933 h -1.96446 l -10.61976,-28.88341 h 4.31793 l 7.33269,20.98667 7.06039,-20.98667 h 4.18177 l -10.30856,28.88341 m 17.38839,-25.38239 v 7.9162 h 9.41386 v 3.30652 h -9.41386 v 10.26965 h 12.91488 v 3.50102 h -16.8049 v -28.49441 h 17.01885 v 3.50102 h -13.12883 m 33.24024,24.99339 -7.60499,-12.23412 c -0.86878,2e-5 -2.24326,-0.0648 -4.12342,-0.1945 v 12.42862 h -3.89002 v -28.49441 c 0.14263,3e-5 1.14755,-0.0454 3.01476,-0.13615 1.88017,-0.1037 3.24816,-0.15557 4.10397,-0.1556 6.84643,3e-5 10.26964,2.72304 10.26966,8.16905 -2e-5,1.78943 -0.5511,3.40378 -1.65326,4.84307 -1.10219,1.42636 -2.41183,2.31458 -3.92892,2.66467 l 8.2663,13.10937 h -4.45408 m -11.72841,-24.99339 v 9.25826 c 0.93359,0.12968 1.84126,0.19451 2.72301,0.1945 2.334,1e-5 4.03264,-0.37602 5.09593,-1.12811 1.06326,-0.75205 1.59489,-2.09411 1.59491,-4.02617 -2e-5,-1.59489 -0.57055,-2.74244 -1.71161,-3.44267 -1.14109,-0.70018 -2.94346,-1.05028 -5.40713,-1.05031 -0.38901,3e-5 -1.15405,0.0649 -2.29511,0.1945"
       id="text1909" />
    <path
       style="fill:#000000;fill-opacity:1;stroke:#000000;stroke-width:1.4028;stroke-miterlimit:4;stroke-dasharray:none;stroke-opacity:1"
       d="m 150.06592,185.68938 c -4.60748,-1.65764 -3.02251,-6.45629 -3.46934,-9.9616 0.45138,-2.29816 -0.81974,-4.1423 -1.53758,-6.17672 -0.65093,-2.92866 0.32225,-5.94531 1.98756,-8.44695 -0.11225,-6.62708 -1.73113,-13.11696 -2.83659,-19.60947 -0.5634,-4.70997 2.74548,-9.2889 0.84779,-13.89767 -1.46904,-4.34277 -1.42389,-8.84118 -1.35356,-13.34214 0.37405,-6.06667 -2.28758,-11.83498 -2.51296,-17.880806 -4.94948,-2.011 -4.58183,6.589956 -7.48859,8.935276 -1.93755,5.80211 -6.56939,10.34955 -9.15248,15.84237 -1.0796,3.21557 -2.14731,6.42925 -4.67981,8.95528 -3.94492,4.98803 -3.09551,11.88695 -7.37915,16.75106 -2.41299,4.83031 -6.25228,9.45184 -7.5511,14.55623 -0.73919,2.521 2.72056,4.45511 0.86328,6.86187 -1.94891,3.73982 -0.89276,7.99719 -1.86996,11.94519 -3.22233,0.0253 -2.29359,3.45536 -4.651424,4.49153 -2.00584,0.95556 -4.893543,1.2878 -6.860664,0.36653 -2.263319,-1.64154 -0.516986,-5.22107 0.562164,-7.31035 1.620486,-2.48333 2.66659,-5.11934 2.58929,-8.0539 0.40643,-2.34692 1.97441,-4.41653 1.86946,-6.91004 -0.45913,-2.76019 1.32116,-4.91181 1.97487,-7.33345 1.549324,-7.25078 4.847674,-14.12259 6.138794,-21.46583 2.43722,-4.95745 6.05943,-9.61678 7.24202,-14.97415 0.45945,-6.60418 3.08522,-12.82904 6.29493,-18.66454 0.87782,-4.050706 4.05654,-7.133006 5.26261,-11.051936 -0.51996,-3.457574 -0.87916,-6.917758 -0.33294,-10.392816 -2.09213,-5.931618 -6.12352,-11.12084 -7.41466,-17.313859 -0.81618,2.200211 -0.37618,6.158337 -0.7221,9.029368 -1.40657,5.679449 -3.33103,11.356489 -4.41847,17.037433 1.73574,2.838374 1.44674,6.119564 0.10495,9.049664 0.76578,1.62228 -1.08639,4.784376 -1.41843,1.68275 0.72076,-4.18196 -2.52721,-1.52836 -0.6401,0.99062 1.21022,2.057156 5.21453,4.987306 -0.0547,2.250046 -2.36934,-1.2345 -2.93795,-4.337476 -3.60066,-6.600426 0.92607,-3.14323 1.96527,-6.20945 1.68891,-9.520656 0.30158,-5.78565 -0.099,-11.657333 1.8842,-17.236965 0.60466,-6.866955 -0.15179,-13.899436 0.53127,-20.747169 0.24997,-2.980567 2.73471,-5.51103 6.03977,-5.224186 3.76945,0.02245 3.87528,-3.891744 1.37737,-2.151116 1.41312,-1.464416 5.70233,-9.908458 2.61089,-8.193922 -1.55725,-0.387174 0.51082,-3.256386 -2.2359,-4.668954 3.16893,1.053085 0.58407,-2.546707 2.06122,-3.635003 -1.88616,-3.120623 8.8269,2.457658 2.72294,-1.410043 -3.88665,-3.653436 2.98605,0.890388 5.40311,0.02806 -2.20254,-1.645687 -7.12086,-5.979903 -5.03163,-6.228088 -1.95596,-2.285617 1.58737,0.270742 0.62683,-2.5728 2.54629,1.637663 7.38032,5.973928 3.33334,0.65368 -2.52936,-3.540819 -1.35286,-2.770764 1.19933,-2.679441 1.32023,4.29303 5.25372,4.047596 1.67564,0.02833 2.42561,1.300905 5.9377,7.964395 3.95706,1.703622 2.30498,1.454259 3.19267,0.849482 4.37004,2.040856 0.43799,-2.598892 1.27142,3.452105 3.98394,0.173947 2.72604,-0.726455 3.59564,2.25773 5.07677,3.75542 2.87292,1.633735 5.46317,5.700213 1.94662,7.955782 -1.88108,1.835655 -0.0429,5.567535 0.74049,6.659254 -3.8222,-0.03198 0.47953,5.790806 0.44466,8.856186 -0.7948,4.045464 -3.30782,-6.334336 -4.72652,-3.861697 0.42033,2.593926 0.11386,5.178229 -1.37465,2.187169 -2.3909,3.391841 -2.04657,-2.896426 -2.67343,1.402495 1.05017,1.718212 -4.8369,1.246589 -0.53545,2.761898 2.92199,0.462309 7.7406,0.374633 7.85851,4.017885 0.30429,2.95627 -0.25587,5.779022 -1.56298,8.48663 -0.42541,4.157276 -0.31364,8.502407 0.45089,12.54074 3.84267,3.702645 5.8369,8.565052 8.25658,13.090578 1.4979,3.599908 0.55921,7.697308 1.48971,11.272268 1.56301,1.41868 1.40284,4.30409 0.75659,5.998196 -2.33258,2.50641 -0.48893,6.32063 -1.53683,9.3508 -1.18186,7.62161 -1.69711,15.37388 -1.00333,23.04293 1.51761,6.29688 -1.55448,12.56394 -1.57841,18.89311 0.25727,3.12682 -2.11686,6.45739 0.0197,9.2685 -2.87217,3.12469 -0.27636,7.4449 -0.25728,11.05758 0.23791,4.35542 4.34126,8.46847 2.3075,12.82654 -1.75303,1.40965 -3.75749,1.95065 -6.08938,0.72096 z M 119.9718,41.851919 c 0.0452,-1.192188 -1.08308,1.300484 0,0 z"
       id="path2875" />
  </g>
</svg>
