<?xml version="1.0" encoding="UTF-8" standalone="no"?>
<!-- Created with Inkscape (http://www.inkscape.org/) -->

<svg
   xmlns:dc="http://purl.org/dc/elements/1.1/"
   xmlns:cc="http://creativecommons.org/ns#"
   xmlns:rdf="http://www.w3.org/1999/02/22-rdf-syntax-ns#"
   xmlns:svg="http://www.w3.org/2000/svg"
   xmlns="http://www.w3.org/2000/svg"
   xmlns:sodipodi="http://sodipodi.sourceforge.net/DTD/sodipodi-0.dtd"
   xmlns:inkscape="http://www.inkscape.org/namespaces/inkscape"
   id="svg3039"
   version="1.1"
   inkscape:version="0.48.4 r9939"
   width="128"
   height="64"
   sodipodi:docname="HoldStart.svg">
  <metadata
     id="metadata3045">
    <rdf:RDF>
      <cc:Work
         rdf:about="">
        <dc:format>image/svg+xml</dc:format>
        <dc:type
           rdf:resource="http://purl.org/dc/dcmitype/StillImage" />
        <dc:title></dc:title>
      </cc:Work>
    </rdf:RDF>
  </metadata>
  <defs
     id="defs3043" />
  <sodipodi:namedview
     pagecolor="#ffffff"
     bordercolor="#666666"
     borderopacity="1"
     objecttolerance="10"
     gridtolerance="10"
     guidetolerance="10"
     inkscape:pageopacity="0"
     inkscape:pageshadow="2"
     inkscape:window-width="1920"
     inkscape:window-height="1056"
     id="namedview3041"
     showgrid="false"
     inkscape:zoom="6.8554688"
     inkscape:cx="53.617472"
     inkscape:cy="36.571176"
     inkscape:window-x="0"
     inkscape:window-y="24"
     inkscape:window-maximized="1"
     inkscape:current-layer="svg3039" />
  <g
     id="g3106"
     transform="matrix(0.89453686,0,0,0.99542906,6.1739955,0.29273152)">
    <path
       style="fill:#ececec"
       d="m -6.4652438,32.127636 0,-31.91025722 71.2310548,0 71.231059,0 0,31.91025722 0,31.910258 -71.231059,0 -71.2310548,0 0,-31.910258 z"
       id="path3114"
       inkscape:connector-curvature="0" />
    <path
       style="fill:#d2d2d2"
       d="m -0.17561029,60.781427 c -0.88648851,-4.239784 -0.88648851,-53.0677984 0,-57.3075807 C 0.19887862,1.6827891 1.2084526,0.21737878 2.0678875,0.21737878 c 1.2684367,0 1.5626088,6.00732832 1.5626088,31.91025722 0,25.902929 -0.2941721,31.910258 -1.5626088,31.910258 -0.8594349,0 -1.86900888,-1.46541 -2.24349779,-3.256467 z M 10.082367,42.937959 c 0.155239,-11.607175 0.822425,-25.967695 1.482634,-31.912267 l 1.200381,-10.80831322 52.527904,0 52.527904,0 0.65537,13.89640222 c 0.36045,7.643022 0.97618,22.002637 1.36828,31.910258 l 0.71289,18.013855 -55.378804,0.002 -55.3788108,0.002 0.2822518,-21.103951 z m 101.827263,4.539942 c 0.39801,-1.1819 0.11139,-3.502987 -0.63706,-5.15797 -0.88198,-1.950388 -1.09975,-6.004279 -0.61897,-11.522325 l 0.74175,-8.513259 -5.36679,1.823665 c -6.966933,2.367408 -76.659608,2.375476 -83.60877,0.0097 l -5.328307,-1.813985 0,11.667438 c 0,14.060594 2.003786,16.894285 6.14599,8.691465 l 2.720876,-5.388154 37.559125,0 c 37.238866,0 43.313916,0.979414 43.313916,6.983027 0,4.486427 3.8333,6.917353 5.07824,3.220422 z m 13.9915,-15.350265 c 0,-29.9366073 0.13133,-31.91025722 2.12348,-31.91025722 3.08164,0 3.48526,3.69540542 3.48526,31.91025722 0,28.214852 -0.40362,31.910258 -3.48526,31.910258 -1.99215,0 -2.12348,-1.97365 -2.12348,-31.910258 z"
       id="path3112"
       inkscape:connector-curvature="0" />
    <path
       style="fill:#b4b4b4"
       d="m 0.26524959,32.127636 c 0,-26.9921888 0.25932905,-31.91025722 1.68262331,-31.91025722 1.4232943,0 1.6826234,4.91806842 1.6826234,31.91025722 0,26.992189 -0.2593291,31.910258 -1.6826234,31.910258 -1.42329426,0 -1.68262331,-4.918069 -1.68262331,-31.910258 z M 126.58202,60.781427 c -0.3745,-1.791059 -0.68089,-14.685263 -0.68089,-28.653791 0,-26.745937 0.45386,-31.91025722 2.80437,-31.91025722 2.35051,0 2.80437,5.16432022 2.80437,31.91025722 0,26.745937 -0.45386,31.910258 -2.80437,31.910258 -0.79343,0 -1.749,-1.46541 -2.12348,-3.256467 z M 13.22897,51.227457 c -2.260706,-5.923573 -2.362682,-28.087934 -0.154739,-33.632103 1.526523,-3.833116 3.575756,-4.020357 50.198263,-4.586678 56.941586,-0.691666 52.585376,-2.597322 52.461786,22.949805 -0.0586,12.097191 -0.27477,13.787051 -1.22224,9.550876 -0.63312,-2.830748 -1.16416,-9.547343 -1.18008,-14.925765 l -0.0289,-9.77895 -48.715784,0 -48.715788,0 0.32958,14.800621 0.329581,14.800622 39.936711,-0.557567 c 39.994868,-0.558378 58.70044,0.792779 57.56712,4.158236 -0.33273,0.988039 -22.75717,1.796435 -49.832098,1.796435 l -49.227141,0 -1.746231,-4.575532 z"
       id="path3110"
       inkscape:connector-curvature="0" />
    <path
       style="fill:#515151"
       d="m 127.02288,32.127636 c 0,-26.9921888 0.25932,-31.91025722 1.68262,-31.91025722 1.4233,0 1.68262,4.91806842 1.68262,31.91025722 0,26.992189 -0.25932,31.910258 -1.68262,31.910258 -1.4233,0 -1.68262,-4.918069 -1.68262,-31.910258 z"
       id="path3108"
       inkscape:connector-curvature="0" />
  </g>
  <path
     style="fill:#ffffff"
     d="m 129.50682,63.854628 c 0.87086,-0.507148 1.34767,-2.805266 1.73767,-8.375206 0.27889,-3.983018 0.27889,-42.695044 0,-46.6780623 -0.39,-5.56994 -0.86681,-7.86805738 -1.73767,-8.37520619 -0.18028,-0.10498426 0.72802,-0.15057144 3.06222,-0.15369143 l 3.31852,-0.004436 0,31.8723646 0,31.872365 -3.31852,-0.0044 c -2.3342,-0.0031 -3.2425,-0.04871 -3.06222,-0.153692 z"
     id="path3116"
     inkscape:connector-curvature="0" />
  <path
     style="fill:#ffffff"
     d="m -6.4805333,32.140391 0,-31.8723646 4.0310677,0 c 3.9928915,0 4.0277163,0.002636 3.6771855,0.27836372 C 0.74488537,0.92618791 0.15516202,2.0543559 -0.12140288,3.127325 c -0.66193387,2.5680572 -1.00726402,25.143714 -0.6691611,43.74583 0.16382425,9.013456 0.35344323,13.043621 0.67258625,14.295156 0.24137606,0.946569 0.78121937,1.978689 1.31317413,2.510643 l 0.3338015,0.333802 -4.0047657,0 -4.0047655,0 0,-31.872365 z"
     id="path3118"
     inkscape:connector-curvature="0" />
</svg>
