<?xml version="1.0" encoding="UTF-8" standalone="no"?>
<!-- Created with Inkscape (http://www.inkscape.org/) -->

<svg
   xmlns:dc="http://purl.org/dc/elements/1.1/"
   xmlns:cc="http://creativecommons.org/ns#"
   xmlns:rdf="http://www.w3.org/1999/02/22-rdf-syntax-ns#"
   xmlns:svg="http://www.w3.org/2000/svg"
   xmlns="http://www.w3.org/2000/svg"
   xmlns:sodipodi="http://sodipodi.sourceforge.net/DTD/sodipodi-0.dtd"
   xmlns:inkscape="http://www.inkscape.org/namespaces/inkscape"
   id="svg3039"
   version="1.1"
   inkscape:version="0.48.4 r9939"
   width="128"
   height="64"
   sodipodi:docname="Down Hold TopCap Active (res 64x32).png">
  <metadata
     id="metadata3045">
    <rdf:RDF>
      <cc:Work
         rdf:about="">
        <dc:format>image/svg+xml</dc:format>
        <dc:type
           rdf:resource="http://purl.org/dc/dcmitype/StillImage" />
        <dc:title></dc:title>
      </cc:Work>
    </rdf:RDF>
  </metadata>
  <defs
     id="defs3043" />
  <sodipodi:namedview
     pagecolor="#ffffff"
     bordercolor="#666666"
     borderopacity="1"
     objecttolerance="10"
     gridtolerance="10"
     guidetolerance="10"
     inkscape:pageopacity="0"
     inkscape:pageshadow="2"
     inkscape:window-width="1920"
     inkscape:window-height="1056"
     id="namedview3041"
     showgrid="false"
     inkscape:zoom="6.8554688"
     inkscape:cx="53.617472"
     inkscape:cy="36.571176"
     inkscape:window-x="0"
     inkscape:window-y="24"
     inkscape:window-maximized="1"
     inkscape:current-layer="svg3039" />
  <g
     id="g3049">
    <path
       style="fill:#f9f9f9"
       d="m 0,32 0,-32 64,0 64,0 0,32 0,32 -64,0 -64,0 0,-32 z"
       id="path3055"
       inkscape:connector-curvature="0" />
    <path
       style="fill:#d1d1d1"
       d="M 5.6069888,62.418213 C 5.273145,61.548229 5,60.08282 5,59.161747 5,57.147995 61.909337,0 63.914679,0 c 1.77429,0 57.099641,54.569274 58.981391,58.175354 1.21853,2.335101 1.19582,2.875618 -0.17857,4.25 -2.45564,2.455645 -4.69868,1.918741 -5.33797,-1.277724 C 116.9733,59.116499 109.06287,50.553062 89.904592,31.404641 L 63.000131,4.5140211 36.500066,30.999934 C 21.92503,45.567187 10,58.239728 10,59.161136 10,61.848344 8.8883465,64 7.5,64 6.7926877,64 5.9408326,63.288196 5.6069888,62.418213 z M 23.2,59.8 c -1.333774,-1.333774 -1.567213,-4.737689 -0.434687,-6.338416 0.404078,-0.571129 3.979375,-4.058629 7.945104,-7.75 L 37.920834,39 l 25.721401,0 25.721401,0 7.818182,7.818182 C 102.89088,52.52724 105,55.33098 105,57.211193 c 0,1.425417 -0.70612,2.845791 -1.58179,3.181818 C 102.54823,60.726855 84.413229,61 63.118213,61 34.337381,61 24.092009,60.692009 23.2,59.8 z m 12.023655,-5.55 c 1.040287,-0.9625 3.440559,-3.325 5.333938,-5.25 3.235146,-3.289175 3.313002,-3.520432 1.292525,-3.839199 -1.528447,-0.24114 -3.765753,1.276573 -7.73918,5.25 C 29.090348,55.431391 28.766433,56 30.926982,56 c 1.322883,0 3.256386,-0.7875 4.296673,-1.75 z M 97,54.712408 c 0,-0.708175 -2.169846,-3.42481 -4.82188,-6.036966 -3.350912,-3.300525 -5.333809,-4.552929 -6.5,-4.10542 C 84.755154,44.924198 84,45.438854 84,45.713702 c 0,0.274849 2.345402,2.701704 5.212004,5.393011 C 94.391122,55.969126 97,57.176987 97,54.712408 z M 57.3891,30.081612 c -4.675222,-2.024883 -3.470438,-6.691916 2.968518,-11.49929 2.514084,-1.877036 2.949782,-1.920163 5.415706,-0.536076 2.397055,1.345432 7.250744,7.303127 7.211363,8.851637 -0.07868,3.093762 -10.765947,5.275492 -15.595587,3.183729 z"
       id="path3053"
       inkscape:connector-curvature="0" />
    <path
       style="fill:#a7a7a7"
       d="M 6.0153128,62.25 C 6.0237348,61.2875 6.4668441,59.825 7,59 7.735598,57.861743 7.9730673,58.283777 7.9846872,60.75 7.9931093,62.5375 7.55,64 7,64 6.45,64 6.0068907,63.2125 6.0153128,62.25 z m 112.3737972,-1 C 117.96358,59.44684 108.11287,48.791364 89.778748,30.30226 74.201944,14.593783 62.110368,1.6304372 62.47889,1.0341563 63.572721,-0.73569855 67.076349,2.4413243 95.885458,31.326593 120.79885,56.30585 123.21183,59.019849 122.61641,61.392224 121.7565,64.818368 119.21102,64.732728 118.38911,61.25 z M 25.117195,54.876926 C 25.181652,54.119617 28.145301,50.8 31.703082,47.5 l 6.468691,-6 L 63.335886,41.242669 88.5,40.985338 93,45.323447 c 2.475,2.385959 5.150537,5.201758 5.945638,6.25733 0.795102,1.055573 -1.067125,-0.490756 -4.138281,-3.436286 L 89.223436,42.788981 64.361718,42.728629 39.5,42.668276 32.25,49.461064 c -3.9875,3.736033 -7.197262,6.173171 -7.132805,5.415862 z M 59.305764,22.468399 C 62.501493,19.656924 65.189598,19.318598 67,21.5 c 1.504785,1.813155 0.668519,1.934445 -1.971219,0.285901 -1.633354,-1.020046 -2.320777,-0.860213 -4.300883,1 -1.29624,1.217754 -2.777797,2.199878 -3.292349,2.182498 -0.514552,-0.01738 0.327045,-1.142381 1.870215,-2.5 z"
       id="path3051"
       inkscape:connector-curvature="0" />
  </g>
</svg>
