<?xml version="1.0" encoding="UTF-8" standalone="no"?>
<svg
   xmlns:dc="http://purl.org/dc/elements/1.1/"
   xmlns:cc="http://creativecommons.org/ns#"
   xmlns:rdf="http://www.w3.org/1999/02/22-rdf-syntax-ns#"
   xmlns:svg="http://www.w3.org/2000/svg"
   xmlns="http://www.w3.org/2000/svg"
   xmlns:sodipodi="http://sodipodi.sourceforge.net/DTD/sodipodi-0.dtd"
   xmlns:inkscape="http://www.inkscape.org/namespaces/inkscape"
   width="1000"
   height="700"
   id="svg5215"
   sodipodi:version="0.32"
   inkscape:version="0.48.4 r9939"
   inkscape:output_extension="org.inkscape.output.svg.inkscape"
   sodipodi:docname="instrumenthelp.svg"
   version="1.0">
  <metadata
     id="metadata5462">
    <rdf:RDF>
      <cc:Work
         rdf:about="">
        <dc:format>image/svg+xml</dc:format>
        <dc:type
           rdf:resource="http://purl.org/dc/dcmitype/StillImage" />
      </cc:Work>
    </rdf:RDF>
  </metadata>
  <defs
     id="defs5460">
    <inkscape:perspective
       sodipodi:type="inkscape:persp3d"
       inkscape:vp_x="0 : 765.35431 : 1"
       inkscape:vp_y="0 : 1000 : 0"
       inkscape:vp_z="1530.7086 : 765.35431 : 1"
       inkscape:persp3d-origin="765.35431 : 510.23621 : 1"
       id="perspective5464" />
    <inkscape:perspective
       id="perspective3703"
       inkscape:persp3d-origin="0.5 : 0.33333333 : 1"
       inkscape:vp_z="1 : 0.5 : 1"
       inkscape:vp_y="0 : 1000 : 0"
       inkscape:vp_x="0 : 0.5 : 1"
       sodipodi:type="inkscape:persp3d" />
    <inkscape:perspective
       id="perspective3725"
       inkscape:persp3d-origin="0.5 : 0.33333333 : 1"
       inkscape:vp_z="1 : 0.5 : 1"
       inkscape:vp_y="0 : 1000 : 0"
       inkscape:vp_x="0 : 0.5 : 1"
       sodipodi:type="inkscape:persp3d" />
  </defs>
  <sodipodi:namedview
     inkscape:window-height="791"
     inkscape:window-width="1370"
     inkscape:pageshadow="2"
     inkscape:pageopacity="0.0"
     guidetolerance="10.0"
     gridtolerance="10.0"
     objecttolerance="10.0"
     borderopacity="1.0"
     bordercolor="#666666"
     pagecolor="#ffffff"
     id="base"
     showgrid="false"
     showguides="true"
     inkscape:guide-bbox="true"
     inkscape:zoom="2"
     inkscape:cx="503.82147"
     inkscape:cy="476.32724"
     inkscape:window-x="58"
     inkscape:window-y="27"
     inkscape:current-layer="svg5215"
     inkscape:window-maximized="0" />
  <text
     transform="scale(0.89213371,1.1209082)"
     id="text2954"
     y="434.98087"
     x="553.4765"
     style="font-size:48.68118668px;font-style:normal;font-variant:normal;font-weight:bold;font-stretch:normal;text-align:center;text-anchor:middle;fill:#ffffff;fill-opacity:1;stroke:#000000;stroke-width:1.01400006;stroke-linecap:butt;stroke-linejoin:miter;stroke-miterlimit:4;stroke-opacity:1;stroke-dasharray:none;font-family:Goblin;-inkscape-font-specification:Goblin Bold"
     xml:space="preserve"><tspan
       style="text-align:center;text-anchor:middle;stroke:#000000;stroke-width:1.01400006;stroke-miterlimit:4;stroke-dasharray:none"
       y="434.98087"
       x="553.4765"
       sodipodi:role="line"
       id="tspan2905"><tspan
   style="text-align:center;text-anchor:middle;fill:#ff6600;stroke:#000000;stroke-width:1.01400006"
   id="tspan2873">PRESS</tspan> A BUTTON</tspan><tspan
       style="text-align:center;text-anchor:middle;stroke:#000000;stroke-width:1.01400006;stroke-miterlimit:4;stroke-dasharray:none"
       y="434.98087"
       x="553.4765"
       sodipodi:role="line"
       id="tspan2970"><tspan
         style="text-align:center;text-anchor:middle;fill:#ffff00;stroke:#000000;stroke-width:1.01400006"
         id="tspan2911" /></tspan></text>
  <!-- EMR_SETMAPMODE -->
  <!-- EMR_SETWINDOWEXTEX -->
  <!-- EMR_SETVIEWPORTEXTEX -->
  <!-- EMR_SETBKMODE -->
  <!-- EMR_STRETCHDIBITS -->
  <!-- EMR_SETBKCOLOR -->
  <path
     style="fill:#c00000;fill-opacity:1;fill-rule:nonzero;stroke:none"
     id="path5221"
     d="" />
  <!-- EMR_SETBKCOLOR -->
  <path
     style="fill:#c00000;fill-opacity:1;fill-rule:nonzero;stroke:none"
     id="path5239"
     d="" />
  <!-- EMR_SETBKCOLOR -->
  <path
     style="fill:#c00000;fill-opacity:1;fill-rule:nonzero;stroke:none"
     id="path5339"
     d="" />
  <!-- EMR_SETBKCOLOR -->
  <g
     id="g6678"
     transform="matrix(-0.5733385,-0.09492075,0.06423444,-0.8472365,906.86031,1416.0712)"
     style="opacity:0.9">
    <g
       id="g2919"
       transform="translate(-520.43821,59.690285)">
      <path
         style="fill:#5f4343;fill-opacity:1;stroke:none"
         d="m 1520.754,975.60048 c -91.3221,35.38732 -287.6594,165.49742 -363,228.28132 -1.1415,1.1415 -2.2813,2.296 -2.2813,3.4375 1.1416,2.283 1.125,6.8438 1.125,6.8438 0,0 2.2813,2.2812 2.2813,2.2812 57.0762,50.2271 179.2161,126.7028 242,166.6562 2.283,1.1416 5.7317,3.4264 9.1562,-2.2812 110.728,-148.3983 245.4062,-343.5938 245.4062,-343.5938 10e-5,10e-5 1.158,-1.1397 -1.125,-2.2812 -55.9346,-31.9627 -129,-59.34382 -129,-59.34382 0,0 -2.2794,0 -4.5624,0 z m 2.1874,1.0313 c 0.8918,0.056 1.3438,0.5 1.3438,0.5 0,0 65.2787,26.16232 128.0625,58.12502 2.2831,1.1414 1.125,2.2813 1.125,2.2813 0,-10e-5 -240.0129,334.1692 -243.4375,337.5937 -3.4245,4.5662 -4.5772,2.2813 -5.7187,2.2813 -71.9161,-44.5196 -243.1545,-166.138 -245.4375,-169.5626 -1.1416,-1.1414 0,-3.4062 0,-3.4062 93.3121,-67.8759 237.2795,-171.6109 361.9687,-227.31252 0.8561,-0.4281 1.5587,-0.5334 2.0937,-0.5 z"
         id="path5217" />
      <path
         transform="matrix(-1.7225489,0.19298701,-0.13059748,-1.1656764,1755.7005,1552.9114)"
         id="path2917"
         d="M 85.297081,500.8407 C 72.406572,489.9957 55.509153,475.29159 45.767424,466.44204 38.460906,459.80468 26.420394,448.27881 25.88033,447.40497 c -0.296189,-0.47925 15.394509,-26.28264 96.1936,-158.19065 43.14146,-70.43028 64.35284,-104.7607 65.60429,-106.17989 0.50762,-0.57566 1.23583,-0.97101 1.61825,-0.87855 2.3117,0.55891 55.12816,67.08109 97.78919,123.1652 27.00989,35.50843 33.11909,44.00628 32.61418,45.36606 -0.45506,1.2255 -7.48232,7.2277 -34.97522,29.8734 -62.39911,51.39771 -112.6815,87.81472 -154.9143,112.19668 -8.62325,4.97839 -32.299417,17.28648 -33.149573,17.23285 -0.290513,-0.0183 -5.404164,-4.13555 -11.363666,-9.14937 z"
         style="fill:#f9f9f9" />
    </g>
    <path
       id="path5223"
       d="m 726.50097,1255.8195 c -2.28304,3.4246 -12.55678,9.1322 -12.55678,9.1322 0,0 -1.14152,2.2831 -3.42457,1.1415 -2.28304,-1.1415 -17.12287,-12.5567 -17.12287,-12.5567 0,0 -3.42457,14.8398 -3.42457,14.8398 0,0 20.54744,15.9813 20.54744,15.9813 0,0 2.28305,0 4.56609,-1.1415 3.4246,-2.283 20.54748,-14.8398 20.54748,-14.8398 0,0 2.28304,-1.1415 0,-3.4246 -2.28305,-3.4246 -6.84917,-11.4152 -7.9907,-11.4152 -1.14152,0 2.28305,-1.1416 -1.14152,2.283"
       style="fill:#5f4343;fill-opacity:1;stroke:none" />
    <path
       id="path5225"
       d="m 736.77471,1221.5738 c 0,0 -3.42457,15.9813 -3.42457,15.9813 0,0 19.40592,13.6983 19.40592,13.6983 0,0 2.28304,1.1415 4.56609,0 1.14152,-1.1415 18.26439,-13.6983 18.26439,-13.6983 1.14153,-1.1415 0,-2.283 0,-3.4246 -1.14152,-1.1415 -5.70761,-10.2737 -6.84913,-11.4152 0,1.1415 -12.55678,12.5568 -15.98135,11.4152 -3.42457,-2.283 -15.98135,-12.5567 -15.98135,-12.5567"
       style="fill:#5f4343;fill-opacity:1;stroke:none" />
    <path
       id="path5227"
       d="m 760.74672,1206.7339 c 0,0 -3.42457,9.1323 -3.42457,9.1323 0,0 11.41526,6.8491 11.41526,6.8491 0,0 6.84913,12.5568 6.84913,11.4152 -1.14152,-1.1415 1.14153,2.2831 3.42457,1.1416 2.28308,-1.1416 17.12287,-12.5568 18.26443,-14.8399 1.14152,-1.1415 -5.70765,-12.5567 -6.84917,-13.6983 1.14152,2.2831 -10.27374,12.5568 -13.6983,11.4153 -3.42457,-2.283 -15.98135,-11.4153 -15.98135,-11.4153"
       style="fill:#5f4343;fill-opacity:1;stroke:none" />
    <path
       id="path5229"
       d="m 782.43571,1191.8941 c 0,0 -2.28308,7.9907 -2.28308,7.9907 0,0 10.27374,6.8491 10.27374,6.8491 0,0 6.84917,12.5568 6.84917,12.5568 0,0 1.14152,1.1415 3.42457,-1.1415 2.28304,-1.1415 15.98135,-11.4153 15.98135,-11.4153 1.14152,0 1.14152,-2.283 0,-3.4245 0,-2.2831 -3.42457,-7.9907 -4.56613,-10.2738 1.14156,2.2831 -11.41522,10.2738 -13.69827,9.1322 -1.14152,-1.1415 -15.98135,-10.2737 -15.98135,-10.2737"
       style="fill:#5f4343;fill-opacity:1;stroke:none" />
    <path
       id="path5231"
       d="m 802.98315,1177.0543 c 0,0 -2.28304,7.9907 -2.28304,7.9907 0,0 11.41522,7.9906 11.41522,7.9906 0,0 4.56613,10.2738 4.56613,10.2738 0,0 2.28304,1.1415 4.56609,0 1.14152,-1.1416 13.6983,-9.1322 14.83982,-11.4153 1.14153,-1.1415 -3.42457,-10.2737 -4.56609,-13.6983 0,2.2831 -10.27373,11.4153 -13.6983,9.1322 -3.42457,-2.283 -14.83983,-10.2737 -14.83983,-10.2737"
       style="fill:#5f4343;fill-opacity:1;stroke:none" />
    <path
       id="path5233"
       d="m 833.80433,1156.5068 c 0,0 -4.56609,13.6984 -4.56609,13.6984 0,0 18.26439,10.2737 18.26439,10.2737 0,0 3.42457,1.1415 5.70762,0 1.14152,-1.1416 11.41525,-9.1322 11.41525,-9.1322 0,0 0,-1.1415 0,-2.2831 1.14153,1.1416 1.14153,0 2.28305,0 1.14152,0 13.6983,-9.1322 13.6983,-9.1322 0,0 0,-1.1415 0,-2.283 0,1.1415 1.14153,1.1415 2.28305,0 0,0 11.41526,-7.9907 11.41526,-7.9907 0,0 1.14152,-1.1415 0,-2.2831 2.28304,1.1416 2.28304,1.1416 2.28304,0 1.14153,0 11.41523,-7.9906 12.55675,-7.9906 0,-1.1415 0,-2.2831 0,-3.4246 -1.14152,0 -3.42457,-6.8492 -4.56609,-9.1322 1.14152,2.283 -5.70761,7.9907 -7.99066,5.7076 -3.4246,-1.1415 -14.83982,-7.9907 -14.83982,-7.9907 0,0 -1.14153,5.7077 -1.14153,5.7077 0,0 10.27371,5.7076 10.27371,5.7076 0,0 1.14152,2.2831 0,2.2831 -1.14153,1.1415 -5.70762,6.8491 -9.13218,5.7076 -2.28305,-1.1416 -14.83983,-9.1322 -14.83983,-9.1322 0,0 -1.14152,5.7076 -1.14152,5.7076 0,0 10.2737,5.7076 10.2737,5.7076 0,0 1.14156,2.2831 0,3.4246 -1.14152,1.1415 -6.84914,4.5661 -6.84914,4.5661 0,0 -2.28304,1.1415 -4.56609,0 -1.14152,-1.1415 -13.6983,-7.9907 -13.6983,-9.1322 0,-1.1415 -2.28305,6.8492 -2.28305,6.8492 0,0 11.41523,5.7076 11.41523,5.7076 0,0 1.14156,1.1415 0,2.283 -1.14152,1.1415 -7.99066,5.7076 -7.99066,5.7076 0,0 -2.28304,1.1416 -4.56609,0 -2.28304,-2.283 -13.6983,-9.1322 -13.6983,-9.1322"
       style="fill:#5f4343;fill-opacity:1;stroke:none" />
    <path
       id="path5235"
       d="m 904.57886,1109.7043 c 0,0 -4.56609,11.4153 -4.56609,11.4153 0,0 17.12287,7.9906 18.2644,9.1322 0,0 2.28304,0 3.42456,0 1.14153,-1.1416 7.99069,-5.7077 7.99069,-5.7077 0,0 0,-2.283 0,-2.283 1.14153,0 1.14153,0 1.14153,0 0,0 10.2737,-6.8492 10.2737,-6.8492 0,0 0,-1.1415 0,-1.1415 1.14156,0 1.14156,0 2.28308,0 0,-1.1415 9.13218,-6.8491 9.13218,-6.8491 0,0 0,-1.1415 0,-1.1415 -1.14152,-1.1416 1.14152,1.1415 1.14152,0 1.14153,0 7.99069,-5.7077 9.13222,-5.7077 0,-1.1415 -2.28305,-10.2737 -2.28305,-10.2737 0,-1.1415 -4.56612,3.4246 -4.56612,3.4246 0,0 -1.14152,0 -3.42457,0 -2.28305,-1.1416 -11.41526,-6.8492 -11.41526,-6.8492 0,0 -2.28304,3.4246 -2.28304,3.4246 0,0 11.41525,5.7076 11.41525,5.7076 0,0 1.14153,1.1415 0,2.2831 -1.14152,1.1415 -4.56609,3.4245 -4.56609,3.4245 0,0 -2.28304,0 -3.42456,0 -1.14156,-1.1415 -12.55679,-7.9906 -12.55679,-7.9906 0,0 -2.28304,3.4245 -2.28304,3.4245 0,0 11.41523,6.8492 11.41523,6.8492 0,0 1.14152,1.1415 0,2.2831 -1.14153,1.1415 -4.56609,3.4245 -4.56609,3.4245 0,0 -1.14153,1.1415 -3.42457,0 -1.14153,-1.1415 -13.69831,-7.9907 -13.69831,-7.9907 0,0 -1.14152,4.5662 -1.14152,4.5662 0,0 10.27374,4.566 10.27374,4.566 0,0 2.28304,1.1416 0,2.2831 -1.14156,2.283 -4.56613,4.5661 -4.56613,4.5661 0,0 -1.14152,1.1415 -3.42456,0 -1.14153,-1.1415 -13.69831,-7.9907 -13.69831,-7.9907"
       style="fill:#5f4343;fill-opacity:1;stroke:none" />
    <path
       id="path5237"
       d="m 954.80596,1077.7416 c 0,0 -3.42457,6.8492 -3.42457,6.8492 0,0 9.13221,4.5661 9.13221,4.5661 0,0 0,1.1415 0,1.1415 0,0 1.14152,2.283 1.14152,2.283 0,0 5.70762,2.2831 4.56609,2.2831 0,-1.1415 2.28305,1.1415 4.5661,0 1.14152,-1.1415 4.56612,-4.5661 4.56612,-4.5661 0,0 0,0 0,-1.1415 1.14152,0 2.28304,0 2.28304,0 1.14153,0 6.84914,-4.5661 6.84914,-4.5661 0,0 0,-1.1416 0,-2.2831 1.14152,1.1415 2.28304,1.1415 2.28304,0 0,0 5.70765,-4.5661 5.70765,-4.5661 0,-1.1415 0,-9.1322 0,-9.1322 0,0 -3.4246,3.4246 -3.4246,3.4246 0,0 -2.28305,0 -3.42457,0 -1.14152,-1.1415 -11.41522,-6.8492 -11.41522,-6.8492 0,0 -1.14156,3.4246 -1.14156,3.4246 0,0 9.13221,4.5661 9.13221,4.5661 0,0 1.14153,1.1416 0,2.2831 0,0 -3.42456,2.283 -3.42456,2.283 0,0 0,0 -2.28305,0 -2.28304,-1.1415 -11.41526,-6.8491 -11.41526,-6.8491 0,0 -2.28304,3.4246 -2.28304,3.4246 0,0 10.2737,4.566 10.2737,4.566 0,0 2.28308,1.1416 1.14156,2.2831 -1.14156,1.1415 -3.4246,2.283 -3.4246,2.283 0,0 -2.28305,1.1416 -3.42457,0 -2.28305,0 -12.55678,-5.7076 -12.55678,-5.7076"
       style="fill:#5f4343;fill-opacity:1;stroke:none" />
    <path
       id="path5241"
       d="m 989.0625,1102.8438 c 0,1.1414 -12.5625,12.5624 -12.5625,12.5624 2e-5,1e-4 -2.29594,1.1416 -3.4375,0 -2.28306,-2.2829 -13.6875,-8 -13.6875,-8 10e-6,1e-4 -2.28125,4.5938 -2.28125,4.5938 10e-6,0 11.40625,5.6875 11.40625,5.6875 -10e-6,10e-5 1.14152,1.1396 0,2.2813 -10e-6,1.1414 -3.40625,3.4374 -3.40625,3.4374 -2e-5,1e-4 -1.16918,1.1416 -4.59375,0 -2.28305,-1.1414 -13.6875,-6.8437 -13.6875,-6.8437 -10e-6,0 -1.125,3.4063 -1.125,3.4063 0,-1e-4 11.40625,5.7187 11.40625,5.7187 10e-6,0 1.125,1.1545 1.125,3.4375 -1.14153,1.1416 -5.6875,3.4062 -5.6875,3.4062 2e-5,1e-4 0.002,2.2832 -2.28125,0 -2.28305,-1.1414 -14.84375,-8 -14.84375,-8 2e-5,1e-4 -2.28125,4.5938 -2.28125,4.5938 -10e-6,0 11.40625,6.8438 11.40625,6.8438 2e-5,0 2.29778,1.1396 1.15625,2.2812 -2.28304,2.2829 -4.59375,4.5625 -4.59375,4.5625 -2e-5,0 -1.1232,1.1416 -3.40625,0 -3.42459,-1.1415 -14.84375,-8 -14.84375,-8 0,0 -2.28125,4.5625 -2.28125,4.5625 3e-5,0 12.5625,5.7188 12.5625,5.7188 -10e-6,0 1.14153,2.2959 0,3.4374 -1.14153,1.1415 -5.71875,4.5626 -5.71875,4.5626 2e-5,0 -2.26473,1.1414 -3.40625,0 -1.14154,-1.1415 -14.84375,-9.1563 -14.84375,-9.1563 -10e-6,0 -2.28125,5.7187 -2.28125,5.7187 -3e-5,0 12.53125,6.8438 12.53125,6.8438 -10e-6,0 1.14152,1.1398 0,2.2812 -1.14153,1.1415 -4.5625,4.5626 -4.5625,4.5626 0,0 -2.2629,2.2829 -5.6875,0 -4.5661,-1.1415 -14.84375,-7.9688 -14.84375,-7.9688 -2e-5,-10e-5 -2.28125,5.6875 -2.28125,5.6875 -10e-6,0 12.5625,6.875 12.5625,6.875 0,0 1.14152,2.2648 0,3.4063 -1.14152,1.1415 -4.59375,4.5624 -4.59375,4.5624 10e-6,0 -2.26293,2.283 -5.6875,0 -3.42462,-1.1416 -16,-9.125 -16,-9.125 2e-5,0 -1.125,6.8438 -1.125,6.8438 -2e-5,-10e-5 11.40625,6.8438 11.40625,6.8438 -2e-5,0 2.28305,1.1544 0,3.4374 -1.14154,1.1416 -5.71875,4.5626 -5.71875,4.5626 10e-6,0 -3.41915,2.2831 -6.84375,0 -3.42455,-1.1415 -13.6875,-9.125 -13.6875,-9.125 -10e-6,0 -2.28125,6.8437 -2.28125,6.8437 -10e-6,0 11.40625,8 11.40625,8 -3e-5,0 2.29778,1.1398 1.15625,2.2813 -1.14151,2.283 -8,6.8437 -8,6.8437 10e-6,0 -2.29415,2.283 -5.71875,0 -3.42456,-2.2831 -14.84375,-9.125 -14.84375,-9.125 3e-5,0 -2.28125,6.8437 -2.28125,6.8437 10e-6,1e-4 12.5625,8 12.5625,8 2e-5,1e-4 1.14152,1.1232 0,3.4063 -2.28303,1.1414 -7.96875,6.8437 -7.96875,6.8437 3e-5,1e-4 -2.29418,2.2831 -5.71875,0 -2.28302,-1.1414 -15.96875,-10.25 -15.96875,-10.25 -10e-6,1e-4 -2.3125,6.8438 -2.3125,6.8438 -3e-5,0 11.4375,7.9688 11.4375,7.9688 10e-6,-1e-4 2.26652,2.2959 1.125,3.4374 -2.28306,2.2831 -9.125,8 -9.125,8 -2e-5,1e-4 -3.42098,2.2831 -4.5625,0 -2.28306,-1.1415 -18.28125,-11.4374 -18.28125,-11.4374 0,-1e-4 -2.28125,8 -2.28125,8 -2e-5,-1e-4 12.5625,8 12.5625,8 -10e-6,-1e-4 2.28304,2.2794 0,4.5624 -2.28309,2.2831 -10.28125,9.125 -10.28125,9.125 0,1e-4 -3.40446,1.1416 -5.6875,0 -2.28305,-2.283 -16,-12.5624 -16,-12.5624 0,-1e-4 -3.40625,10.2812 -3.40625,10.2812 2e-5,0 12.5625,8 12.5625,8 -2e-5,0 2.26832,2.2794 -1.15625,4.5625 -2.28305,2.283 -9.125,8 -9.125,8 -2e-5,0 -3.41918,2.2665 -6.84375,1.125 -2.28308,-2.2831 -16,-13.6875 -16,-13.6875 10e-6,0 -3.40625,11.4062 -3.40625,11.4062 0,0 10.25,8 10.25,8 2e-5,0 4.58082,2.263 1.15625,5.6876 -3.42463,3.4246 -12.5625,9.1562 -12.5625,9.1562 2e-5,10e-5 -2.27763,2.2683 -6.84375,-1.1562 -4.56606,-3.4246 -14.84375,-12.5626 -14.84375,-12.5626 -2e-5,0 -3.40625,14.8438 -3.40625,14.8438 -3e-5,0 -1.15805,1.1398 1.125,2.2812 1.14154,1.1415 20.5625,16 20.5625,16 10e-6,1e-4 3.40446,1.1268 5.6875,-1.1562 -1.14154,3.4245 0.0147,3.421 1.15625,4.5625 1.14155,1.1416 21.6875,17.125 21.6875,17.125 2e-5,0 3.42098,0 4.5625,-2.2813 2.28303,-1.1415 -1.15804,3.4357 1.125,5.7188 3.42459,2.283 22.84375,17.125 22.84375,17.125 10e-6,0 2.27762,2.2701 6.84375,-3.4375 -2.28309,5.7077 -0.002,6.8419 2.28125,9.125 2.28306,1.1416 21.6875,16 21.6875,16 2e-5,0 4.59013,2.2867 9.15625,-4.5625 -4.56609,9.1322 -1.14152,9.1084 0,10.25 1.14155,0 22.82722,16 23.96875,16 -10e-6,1.1414 2.27945,2.2831 4.5625,0 2.28306,-2.2831 29.6875,-33.125 29.6875,-33.125 0,0 -0.0147,-3.4044 -1.15625,-5.6875 2.28306,1.1417 3.42098,1.1416 4.5625,0 1.14153,-2.2829 14.84375,-19.4063 14.84375,-19.4063 0,1e-4 1.14152,-3.4209 0,-4.5624 2.28304,-1e-4 3.43571,2.2683 5.71875,-1.1563 2.28305,-3.4246 21.6875,-26.25 21.6875,-26.25 -10e-6,0 1.14153,-3.4209 0,-4.5625 2.28304,1.1417 3.42097,-1.1562 4.5625,-1.1562 -10e-6,-1.1415 74.1875,-93.5938 74.1875,-93.5938 0,0 1.1415,-1.1545 0,-3.4375 1.1415,1.1415 2.2959,0.016 3.4375,-1.125 1.1415,-1.1416 10.2813,-13.6875 10.2813,-13.6875 0,0 1.125,-1.171 1.125,-2.3125 1.1415,0 1.1396,0.016 2.2812,-1.125 1.1414,-1.1415 5.7188,-6.8437 5.7188,-6.8437 0,0 1.1414,-1.1546 0,-3.4376 2.283,0 2.2646,0.017 3.4062,-1.125 1.1414,-1.1415 4.5625,-5.7187 4.5625,-5.7187 0,0 2.283,-1.1544 0,-3.4375 2.283,1.1416 3.4522,-1.1398 4.5937,-2.2812 0,0 6.8438,-9.125 6.8438,-9.125 0,0 1.125,-1.1379 1.125,-4.5626 -1.1416,-2.2831 -1.125,-5.7168 -1.125,-8 -1.1415,3.4247 -6.8438,10.2813 -6.8438,10.2813 0,0 -0.013,1.1415 -3.4374,0 -2.2831,0 -13.7023,-3.4209 -14.8438,-4.5625 -10e-5,-1.1415 4.5625,-5.7188 4.5625,-5.7188 0,1e-4 0,-6.8418 0,-9.125 -1.1416,2.2832 -18.25,20.5626 -18.25,20.5626 0,0 -1.138,1.1414 -4.5625,0 -2.2831,-1.1415 -13.7188,-3.4376 -13.7188,-3.4376 10e-5,0 -1.1416,-1.125 0,-1.125 10e-5,-1.1416 16,-17.125 16,-17.125 0,0 -1.1562,-5.7168 -1.1562,-8 0,2.2832 -14.8438,14.8438 -14.8438,14.8438 10e-5,-10e-5 -1.1232,2.2665 -3.4062,1.125 -2.2831,-1.1415 -12.5625,-4.5625 -12.5625,-4.5625 10e-6,0 -1.14152,-1.1397 0,-2.2813 1.14154,-2.2829 12.5625,-11.4062 12.5625,-11.4062 0,0 -1.1396,-5.7023 -2.2812,-6.8438 0,2.2832 -6.875,7.9688 -6.875,7.9688 -10e-5,0 -1.1232,0 -3.4063,0 -2.28303,-1.1415 -12.5625,-5.6875 -12.5625,-5.6875 -10e-6,0 -2.28304,-1.1398 0,-2.2813 1.14151,-1.1414 4.5625,-3.4374 4.5625,-3.4374 10e-6,-1e-4 -1.125,-5.717 -1.125,-8 z m -8.84375,15.4687 c 0.99827,0.019 1.96875,0.5313 1.96875,0.5313 -2e-5,-2e-4 7.9982,3.4044 10.28125,5.6874 2.28303,1.1418 2.28125,2.2813 2.28125,2.2813 10e-6,10e-5 -2.27945,2.2959 -4.5625,3.4375 -1.14154,1.1415 -3.40625,0 -3.40625,0 -3e-5,0 -10.27946,-4.5772 -12.5625,-5.7188 -1.14156,2e-4 0,-2.2812 0,-2.2812 0,0 3.42097,-1.1231 4.5625,-3.4062 0.28538,-0.2855 0.62544,-0.4465 1,-0.5 0.14046,-0.02 0.29489,-0.034 0.4375,-0.031 z m -10.5625,9.1563 c 0.14262,-0.012 0.29537,-0.01 0.4375,0 0.94755,0.056 1.84375,0.5 1.84375,0.5 0,-2e-4 10.26472,4.5772 11.40625,5.7187 1.14149,1.1416 1.15625,2.2813 1.15625,2.2813 10e-6,0 -3.45223,2.2795 -4.59375,4.5624 -1.14149,1.1416 -3.40625,0 -3.40625,0 2e-5,0 -11.42098,-5.7187 -12.5625,-5.7187 -2.28305,-1.1416 0,-3.4063 0,-3.4063 0,0 2.27945,-2.2959 4.5625,-3.4374 0.32105,-0.3211 0.72839,-0.4645 1.15625,-0.5 z m -11.40625,9.125 c 0.14262,-0.012 0.29537,-0.01 0.4375,0 0.94756,0.056 1.8125,0.5 1.8125,0.5 -10e-6,-2e-4 10.29598,4.5772 11.4375,5.7187 2.28308,1.1416 1.125,2.2813 1.125,2.2813 -2e-5,0 -3.42098,3.421 -4.5625,4.5624 -1.14153,2.2832 -3.40625,0 -3.40625,0 -2e-5,0 -12.57723,-5.7187 -13.71875,-5.7187 -1.14155,-1.1416 0,-2.2813 0,-2.2813 -2e-5,2e-4 3.43571,-3.4208 5.71875,-4.5624 0.32107,-0.3211 0.72839,-0.4645 1.15625,-0.5 z m 34.96875,0 c 0.19612,-0.012 0.37856,-0.01 0.5625,0 1.22625,0.056 2.125,0.5 2.125,0.5 -10e-6,-2e-4 7.98165,3.421 11.40625,4.5624 3.4246,1.1417 1.1562,3.4376 1.1563,3.4376 0,0 -2.2793,2.2959 -4.5626,3.4374 -1.1413,1.1416 -3.4375,0 -3.4374,0 0,0 -9.12322,-3.4522 -11.4063,-4.5937 -3.42457,-1.1416 -1.15625,-3.4063 -1.15625,-3.4063 2e-5,0 2.29597,-1.1543 3.4375,-3.4374 0.64211,-0.3211 1.28665,-0.4645 1.875,-0.5 z m -8.71875,9.625 c 10e-6,-2e-4 10.24821,3.4356 12.53125,5.7187 2.28302,1.1415 1.15625,2.2813 1.15625,2.2813 10e-6,0 -1.15446,2.2959 -3.4375,3.4374 -2.28304,2.2831 -4.5625,1.125 -4.5625,1.125 10e-6,0 -11.40445,-4.546 -13.6875,-5.6874 -2.28302,-1.1416 0,-2.2813 0,-2.2813 2e-5,0 2.27946,-2.2959 4.5625,-3.4375 1.14152,-1.1415 3.4375,-1.1562 3.4375,-1.1562 z m -38.8125,0.6562 c 0.14262,-0.012 0.29537,-0.01 0.4375,0 0.94755,0.056 1.84375,0.5 1.84375,0.5 -3e-5,0 10.24821,4.5773 12.53125,5.7188 2.28304,1.1414 1.15625,2.2812 1.15625,2.2812 3e-5,-10e-5 -3.42094,4.546 -4.5625,5.6875 -2.28303,1.1416 -4.5625,0 -4.5625,0 2e-5,0 -11.43571,-5.7023 -13.71875,-6.8437 -1.1415,0 0,-2.2813 0,-2.2813 3e-5,0 4.57723,-3.4209 5.71875,-4.5625 0.32106,-0.3211 0.72839,-0.4644 1.15625,-0.5 z m 97.25,4.5625 c 0.1843,-0.012 0.3702,-0.01 0.5625,0 1.282,0.056 2.625,0.5 2.625,0.5 -10e-5,0 10.2795,3.4375 12.5625,3.4375 1.1416,-10e-5 1.125,2.2812 1.125,2.2812 0,0 -1.1232,2.2794 -3.4063,4.5626 -1.1414,1.1414 -3.4374,0 -3.4374,0 0,0 -10.2629,-3.4211 -13.6876,-4.5626 -2.283,0 -1.1562,-2.2812 -1.1562,-2.2812 0,-10e-5 2.2959,-1.1545 3.4375,-3.4375 0.3211,-0.3211 0.8222,-0.4644 1.375,-0.5 z m -31.9063,1.375 c 0.5708,0 0.8438,0.2813 0.8438,0.2813 0,0 10.2795,3.4209 12.5625,4.5624 2.283,0 2.2813,2.2813 2.2813,2.2813 -2e-4,0 -2.2794,2.2648 -4.5626,3.4063 -2.283,2.2829 -4.5625,0 -4.5624,0 0,0 -11.4208,-3.4063 -12.5626,-3.4063 -2.283,-1.1415 -1.1249,-2.2813 -1.125,-2.2813 10e-5,0 2.2795,-2.296 4.5626,-3.4374 1.1415,-1.1416 1.9918,-1.4063 2.5624,-1.4063 z m -40.0937,3.8125 c 1.04538,-0.067 2.125,1.0312 2.125,1.0312 -2e-5,0 11.43571,4.5626 13.71875,4.5626 2.28302,1.1414 0,3.4062 0,3.4062 -3e-5,0 -2.3107,3.4521 -4.59375,4.5938 -1.14154,1.1413 -3.40625,0 -3.40625,0 -2e-5,-2e-4 -11.40445,-4.5773 -13.6875,-5.7188 -2.28306,-1.1416 0,-2.2812 0,-2.2812 -2e-5,0 2.27946,-3.4211 4.5625,-4.5626 0.35674,-0.7133 0.80608,-1.0005 1.28125,-1.0312 z m -38.15625,0.5 c 0.97939,0.019 1.46875,0.5312 1.46875,0.5312 -2e-5,0 11.4357,4.5461 13.71875,5.6876 2.28301,1.1414 1.125,3.4374 1.125,3.4374 10e-6,0 -3.40446,3.4211 -5.6875,4.5626 -1.14154,2.2829 -4.59375,0 -4.59375,0 3e-5,0 -11.40442,-4.5772 -13.6875,-5.7188 -2.28302,-1.1415 0,-3.4062 0,-3.4062 2e-5,0 3.4357,-2.2796 5.71875,-4.5626 0.57077,-0.2853 1.07193,-0.4464 1.5,-0.5 0.16053,-0.02 0.29759,-0.034 0.4375,-0.031 z m 102.24995,4.5625 c 0.9983,0.019 1.9688,0.5313 1.9688,0.5313 0,0 10.2795,2.2647 12.5625,3.4062 2.2831,1.1416 1.125,3.4375 1.125,3.4375 0,0 -1.1398,1.1545 -2.2813,3.4375 -1.1414,1.1415 -4.5624,1.125 -4.5624,1.125 0,-10e-5 -11.4045,-4.5625 -13.6876,-4.5625 -2.2829,-1.1415 0,-2.2813 0,-2.2813 0,0 2.2648,-3.421 3.4063,-4.5624 0.2854,-0.2855 0.6567,-0.4465 1.0313,-0.5 0.1404,-0.02 0.2948,-0.034 0.4374,-0.031 z m -35.18745,1.1563 c 0.15448,-0.012 0.30375,-0.01 0.43745,0 0.8919,0.056 1.3125,0.5 1.3126,0.5 -10e-5,0 9.1379,2.2958 12.5624,3.4374 3.4246,1.1416 2.2813,3.4376 2.2813,3.4376 0,-2e-4 -2.2794,1.1232 -4.5625,3.4062 -1.1415,2.283 -4.5625,1.1562 -4.5625,1.1562 0,0 -10.27946,-3.4374 -12.5625,-3.4374 -3.42456,-1.1416 0,-3.4063 0,-3.4063 10e-6,0 1.15446,-2.3108 3.4375,-4.5937 0.64212,-0.3211 1.19282,-0.4645 1.65625,-0.5 z m -39.625,4.7812 c 0.85614,0 1.4375,0.3125 1.4375,0.3125 3e-5,0 10.27942,4.546 12.5625,5.6875 3.42456,1.1414 1.125,3.4375 1.125,3.4375 -2e-5,0 -2.27946,2.2794 -4.5625,4.5625 -2.28303,1.1415 -4.5625,0 -4.5625,0 2e-5,0 -12.54598,-5.7188 -13.6875,-5.7188 -2.28303,-1.1415 0,-3.4062 0,-3.4062 2e-5,0 2.27946,-1.1544 4.5625,-3.4375 1.14155,-1.1415 2.26886,-1.4375 3.125,-1.4375 z m -41.1875,0.9375 c 0.19905,-0.012 0.37856,-0.01 0.5625,0 1.22624,0.056 2.09375,0.5 2.09375,0.5 10e-6,0 11.42097,5.7021 12.5625,6.8437 2.28302,1.1416 1.15625,3.4376 1.15625,3.4376 2e-5,0 -4.57722,3.4043 -5.71875,5.6874 -2.28306,1.1416 -4.5625,0 -4.5625,0 2e-5,0 -11.40445,-5.6857 -13.6875,-7.9687 -2.28309,-1.1415 0,-2.2813 0,-2.2813 -10e-6,0 4.54598,-3.4356 5.6875,-5.7187 0.64211,-0.3211 1.30911,-0.4644 1.90625,-0.5 z M 1026,1172.1875 c 0.9988,0 1.875,0.3125 1.875,0.3125 0,0 10.2483,2.2646 12.5312,3.4062 3.4248,1.1416 2.3126,3.4376 2.3126,3.4376 0,0 -6.8733,6.842 -9.1563,9.125 -2.2831,3.4245 -4.5625,1.1562 -4.5625,1.1562 0,0 -10.2629,-3.4523 -13.6875,-4.5938 -2.2831,0 -1.1562,-2.2812 -1.1563,-2.2812 10e-5,10e-5 6.8732,-6.8419 9.1563,-9.125 0.5708,-1.1415 1.6887,-1.4375 2.6875,-1.4375 z m -36.65625,1.1563 c 0.57077,0 0.84375,0.2812 0.84375,0.2812 10e-6,-10e-5 12.5774,4.5773 13.7187,5.7188 2.2832,0 1.1251,2.2812 1.125,2.2812 0,0 -2.2795,3.421 -4.5624,4.5625 -1.14164,2.283 -4.56255,0 -4.56255,0 -10e-6,0 -10.29418,-3.4375 -13.71875,-3.4375 -2.28306,-1.1414 0,-3.4062 0,-3.4062 -2e-5,0 2.31071,-2.2794 4.59375,-4.5626 1.14151,-1.1414 1.99173,-1.4375 2.5625,-1.4374 z m -43.4375,6.625 c 0.18425,-0.012 0.3702,-0.01 0.5625,0 1.28198,0.056 2.625,0.5 2.625,0.5 10e-6,0 11.40445,4.5772 13.6875,5.7187 2.28306,1.1415 0,3.4375 0,3.4375 2e-5,0 -3.42098,3.4044 -4.5625,5.6875 -2.28305,1.1415 -4.5625,0 -4.5625,0 0,0 -12.56071,-5.7021 -14.84375,-6.8437 -2.28302,-1.1416 0,-3.4376 0,-3.4376 3e-5,0 3.43571,-2.2795 5.71875,-4.5624 0.32106,-0.3211 0.82224,-0.4645 1.375,-0.5 z m -41.53125,0.625 c 1.41631,-0.068 2.5,1.0312 2.5,1.0312 -3e-5,0 11.40446,5.7023 13.6875,6.8438 2.28308,1.1415 0,3.4374 0,3.4374 3e-5,2e-4 -2.29418,3.4046 -5.71875,5.6876 -2.28305,2.283 -5.6875,0 -5.6875,0 -10e-6,0 -10.27945,-5.7023 -12.5625,-6.8438 -3.4246,-2.2831 -1.15625,-3.4375 -1.15625,-3.4375 2e-5,0 3.41918,-3.4044 6.84375,-5.6875 0.71344,-0.7135 1.44997,-1.0006 2.09375,-1.0312 z m 72.1875,5.7187 c 1.75353,-0.067 3.34375,1 3.34375,1 3e-5,0 10.27945,2.296 12.5625,3.4375 2.28303,2.283 1.15625,4.5625 1.15625,4.5625 2e-5,0 -2.27942,2.2794 -4.5625,4.5625 -2.28305,1.1415 -5.71875,0 -5.71875,0 -3e-5,0 -10.27946,-3.421 -12.5625,-4.5625 -3.42455,-1.1415 -1.125,-3.4063 -1.125,-3.4063 3e-5,2e-4 3.42094,-2.3106 4.5625,-4.5937 0.71345,-0.7134 1.54669,-0.9693 2.34375,-1 z m 34.1875,2.1563 c 1.1415,0 14.8273,2.2924 15.9688,8 2.2829,6.849 -60.49105,82.1674 -71.9063,87.875 -3.42458,2.283 -5.71875,0 -5.71875,0 10e-6,0 -11.41919,-4.5607 -14.84375,-6.8438 -4.56612,-1.1415 -1.125,-4.5625 -1.125,-4.5625 -10e-6,0 71.9209,-79.8898 73.0625,-81.0313 1.1415,-1.1413 2.2794,-3.4374 4.5625,-3.4374 z m -79.1875,4.0624 c 0.19612,-0.012 0.37856,-0.01 0.5625,0 1.22625,0.056 2.125,0.5 2.125,0.5 -2e-5,0 11.41918,4.5772 14.84375,5.7188 2.28306,2.283 1.15625,3.4062 1.15625,3.4062 -10e-6,0 -4.56071,4.5919 -6.84375,6.875 -1.14154,1.1417 -4.59375,0 -4.59375,0 3e-5,2e-4 -13.67098,-6.875 -14.8125,-6.875 -2.28307,-1.1414 0,-3.4062 0,-3.4062 -2e-5,0 3.40446,-3.4356 5.6875,-5.7188 0.6421,-0.3209 1.28664,-0.4644 1.875,-0.5 z m -43.6875,1.7813 c 1.38259,-0.067 3,1 3,1 10e-6,0 10.27945,4.5608 12.5625,6.8437 3.42459,1.1417 2.28125,3.4376 2.28125,3.4376 -2e-5,-2e-4 -4.56071,4.5606 -6.84375,6.8437 -2.28308,2.2829 -5.71875,0 -5.71875,0 3e-5,-10e-5 -11.41918,-6.8585 -14.84375,-8 -2.28306,-1.1415 0,-3.4063 0,-3.4063 2e-5,2e-4 5.71695,-3.4357 8,-5.7187 0.35673,-0.7135 0.93405,-0.9693 1.5625,-1 z m 75.84375,4.5625 c 1.41631,-0.067 2.5,1 2.5,1 2e-5,0 11.41918,3.421 14.84375,4.5625 2.28305,1.1415 1.125,3.4375 1.125,3.4375 -2e-5,0 -4.54598,4.5773 -5.6875,5.7188 -2.28302,1.1413 -5.71875,0 -5.71875,0 2e-5,-2e-4 -10.2629,-3.4211 -13.6875,-4.5626 -3.42456,-1.1413 -1.15625,-3.4374 -1.15625,-3.4374 -3e-5,-2e-4 4.57723,-3.4358 5.71875,-5.7188 0.71346,-0.7135 1.41872,-0.9693 2.0625,-1 z m -46.78125,6.8438 c 1.41631,-0.068 2.46875,1 2.46875,1 -10e-6,0 12.5607,5.7187 14.84375,5.7187 2.28302,1.1414 0,4.5625 0,4.5625 -2e-5,0 -4.54598,4.5772 -5.6875,5.7188 -2.28304,2.2828 -5.71875,1.125 -5.71875,1.125 0,-2e-4 -11.41915,-5.6858 -14.84375,-7.9688 -3.42456,-1.1416 0,-3.4375 0,-3.4375 10e-6,-10e-5 4.5607,-3.4356 6.84375,-5.7187 0.71345,-0.7136 1.44997,-0.9694 2.09375,-1 z M 870.75,1208 c 1.38259,-0.067 3,1.0312 3,1.0312 0,2e-4 12.56071,6.8273 14.84375,7.9688 1.1415,1.1415 0,3.4375 0,3.4375 -2e-5,-10e-5 -5.71695,5.7022 -8,6.8437 -2.28306,2.2832 -4.5625,1.1563 -4.5625,1.1563 2e-5,0 -13.70223,-8.0148 -14.84375,-9.1563 -2.28307,-1.1413 0,-3.4062 0,-3.4062 10e-6,0 5.71696,-4.5608 8,-6.8438 0.35673,-0.7133 0.93405,-1.0005 1.5625,-1.0312 z m 79.8125,5.0625 c 0.99827,0.019 1.96875,0.5313 1.96875,0.5313 2e-5,-2e-4 13.6857,4.546 15.96875,5.6874 2.28304,1.1417 0,3.4376 0,3.4376 -10e-6,-2e-4 -3.43571,3.4357 -5.71875,5.7187 -2.28303,2.283 -4.5625,1.125 -4.5625,1.125 3e-5,-10e-5 -13.68571,-5.7023 -15.96875,-6.8437 -2.28308,-1.1417 0,-2.2813 0,-2.2813 0,-10e-5 4.56071,-4.5607 6.84375,-6.8437 0.28538,-0.2855 0.65669,-0.4465 1.03125,-0.5 0.14046,-0.02 0.29489,-0.034 0.4375,-0.031 z m -49.34375,7.5 c 1.75353,-0.067 3.375,1 3.375,1 0,-10e-5 11.40445,5.7335 13.6875,6.875 2.28305,2.283 0,4.5625 0,4.5625 10e-6,0 -4.57722,4.5607 -5.71875,6.8438 -2.28307,1.1413 -5.6875,0 -5.6875,0 -3e-5,-2e-4 -13.71696,-6.8586 -16,-8 -2.28304,-2.2833 1.15625,-3.4063 1.15625,-3.4063 -10e-6,0 4.5607,-4.592 6.84375,-6.875 0.71344,-0.7135 1.54669,-0.9693 2.34375,-1 z m -48.125,2.9687 c 0.41302,0.011 0.82193,0.099 1.25,0.3126 3.42459,2.2829 14.84375,9.1562 14.84375,9.1562 0,0 2.29777,1.1231 1.15625,3.4062 -2.28306,2.2832 -8,6.8438 -8,6.8438 -10e-6,0 -1.15262,3.4393 -5.71875,1.1562 -3.42458,-1.1414 -15.96875,-9.125 -15.96875,-9.125 2e-5,2e-4 -1.14152,-1.1545 0,-3.4374 2.28307,-1.1418 9.125,-6.8438 9.125,-6.8438 -2e-5,0 1.52274,-1.5158 3.3125,-1.4688 z m 82.46875,4.5313 c 0.70453,-0.033 1.41155,0.09 2.125,0.375 7.99066,3.4246 17.11028,5.6856 15.96875,7.9687 -1.14152,2.2832 -6.84016,11.4081 -11.40625,9.125 -1.14156,2e-4 -19.40804,-5.7004 -17.125,-9.125 0.99888,-0.9986 5.50577,-8.1096 10.4375,-8.3437 z m -52.625,8.4687 c 1.75353,-0.067 3.375,1.0313 3.375,1.0313 2e-5,0 11.41919,5.7022 14.84375,6.8437 2.28304,1.1417 0,4.5626 0,4.5626 -10e-6,-2e-4 -4.56071,5.7022 -6.84375,6.8437 -2.2831,2.2831 -5.71875,1.1563 -5.71875,1.1563 -2e-5,-2e-4 -13.6857,-6.8585 -15.96875,-8 -2.28303,-1.1417 0,-4.5626 0,-4.5626 10e-6,2e-4 5.68571,-4.5606 7.96875,-6.8437 0.71345,-0.7134 1.54669,-1.0006 2.34375,-1.0313 z m -51,4.5938 c 1.38259,-0.067 3,1 3,1 -10e-6,0 13.71695,6.842 16,9.125 1.14153,1.1415 -1.15625,3.4375 -1.15625,3.4375 -3e-5,0 -6.84195,6.8273 -9.125,7.9687 -2.28302,2.2833 -5.71875,0 -5.71875,0 -10e-6,2e-4 -11.41918,-6.8419 -14.84375,-9.125 -3.42456,-2.2829 0,-4.5624 0,-4.5624 0,-2e-4 7.99817,-5.7023 10.28125,-6.8438 0.35672,-0.7134 0.93405,-0.9693 1.5625,-1 z m 87.90625,3 c 0.99883,0 1.84375,0.2812 1.84375,0.2812 10e-6,2e-4 13.71696,5.7023 16,6.8438 1.1415,1.1415 1.125,4.5625 1.125,4.5625 3e-5,0 -5.68571,5.7023 -7.96875,6.8437 -1.1415,2.2833 -5.71875,0 -5.71875,0 2e-5,2e-4 -13.68567,-5.7022 -15.96875,-6.8437 -2.28305,-1.1415 0,-2.2813 0,-2.2813 -10e-6,2e-4 5.68571,-5.7169 7.96875,-8 0.57077,-1.1414 1.71992,-1.4062 2.71875,-1.4062 z m -55.8125,9.5312 c 1.78725,-0.067 2.875,1.0313 2.875,1.0313 -2e-5,0 13.6857,6.8273 15.96875,7.9687 2.28305,1.1418 0,4.5938 0,4.5938 10e-6,10e-5 -5.68567,5.6857 -7.96875,7.9688 -2.28307,2.283 -5.71875,1.1562 -5.71875,1.1562 0,10e-5 -13.68571,-7.9835 -15.96875,-9.125 -3.42459,-2.283 0,-4.5938 0,-4.5938 -2e-5,2e-4 5.68567,-4.5441 7.96875,-7.9687 1.07018,-0.7135 2.03136,-1.0006 2.84375,-1.0313 z m -53.28125,4.5626 c 1.41633,-0.068 2.5,1.0312 2.5,1.0312 -10e-6,0 13.71692,7.9835 16,9.125 1.14154,2.283 0,4.5625 0,4.5625 2e-5,0 -9.15446,7.9835 -11.4375,9.125 -2.28307,2.283 -4.5625,0 -4.5625,0 -10e-6,0 -14.82723,-9.1085 -15.96875,-10.25 -2.28305,-1.1416 0,-3.4375 0,-3.4375 3e-5,0 9.12321,-6.842 11.40625,-9.125 0.71346,-0.7135 1.41872,-1.0006 2.0625,-1.0312 z m 90.21875,3.9374 c 0.24068,-0.012 0.48465,-0.01 0.71875,0 1.56068,0.056 2.90625,0.5 2.90625,0.5 0,2e-4 12.52945,5.7335 14.8125,6.875 3.42456,1.1416 2.28125,3.4063 2.28125,3.4063 10e-6,0 -4.56071,4.5754 -6.84375,8 -3.42457,3.4245 -7.96875,1.125 -7.96875,1.125 -3e-5,0 -12.5754,-5.7022 -16,-6.8437 -2.28304,-1.1416 0,-4.5626 0,-4.5626 10e-6,0 5.71695,-5.7168 8,-8 0.6421,-0.3209 1.37171,-0.4644 2.09375,-0.5 z m -56.84375,10.9063 c 1.75354,-0.067 3.375,1.0313 3.375,1.0313 10e-6,0 13.70223,6.8419 14.84375,9.125 2.28303,1.1414 1.125,3.4374 1.125,3.4374 -3e-5,0 -9.10848,7.9835 -10.25,9.125 -2.28307,2.2831 -4.5625,0 -4.5625,0 -2e-5,0 -15.99821,-7.9834 -18.28125,-9.125 -2.28308,-2.283 1.15625,-3.4374 1.15625,-3.4374 -2e-5,0 6.82543,-6.842 10.25,-9.125 0.71345,-0.7136 1.54669,-1.0006 2.34375,-1.0313 z m -56.8125,5.0625 c 0.99827,0.019 1.96875,0.5312 1.96875,0.5312 0,0 13.71695,9.1398 16,10.2813 3.42459,2.2831 0,4.5625 0,4.5625 3e-5,10e-5 -19.41918,18.263 -22.84375,21.6875 -3.42462,3.4246 -6.84375,0 -6.84375,0 -10e-6,0 -14.85847,-9.1545 -16,-11.4375 -2.28301,-1.1415 0,-3.4062 0,-3.4062 3e-5,0 25.13973,-20.546 26.28125,-21.6876 0.28538,-0.2853 0.62544,-0.4464 1,-0.5 0.14046,-0.02 0.29489,-0.034 0.4375,-0.031 z m 95.875,2.5312 c 1.14152,0 2,0.2813 2,0.2813 3e-5,0 11.38793,5.7022 14.8125,6.8437 4.5661,2.2832 2.28125,4.5626 2.28125,4.5626 -2e-5,0 -6.84192,7.9982 -9.125,10.2812 -1.14149,2.2832 -5.6875,0 -5.6875,0 0,10e-5 -13.70043,-6.8584 -17.125,-8 -3.42458,-1.1415 0,-4.5625 0,-4.5625 -10e-6,0 6.84196,-5.717 9.125,-8 1.14152,-1.1415 2.57723,-1.4062 3.71875,-1.4063 z m 43.375,3.4063 c 1.14153,0 2,0.2813 2,0.2813 0,0 11.40263,5.7169 15.96875,8 3.42459,2.2829 1.15625,4.5624 1.15625,4.5624 0,0 -13.71695,17.1398 -16,18.2813 -2.28306,2.2831 -6.84375,1.125 -6.84375,1.125 0,0 -11.40263,-4.5606 -15.96875,-6.8437 -4.56612,-1.1416 0,-5.7188 0,-5.7188 -3e-5,10e-5 13.6857,-15.967 15.96875,-18.25 1.14152,-1.1415 2.57722,-1.4375 3.71875,-1.4375 z m -104.75,9.5625 c 1.78726,-0.068 2.875,1 2.875,1 -10e-6,0 14.8107,9.1398 17.09375,10.2812 2.28305,2.2831 0,3.4376 0,3.4376 10e-6,-2e-4 -27.37317,25.0918 -29.65625,27.375 -3.4246,2.2828 -6.84375,1.1562 -6.84375,1.1562 3e-5,0 -14.84195,-9.1544 -17.125,-11.4375 -2.28303,-2.283 1.125,-5.6875 1.125,-5.6875 0,0 26.26293,-21.7004 29.6875,-25.125 1.07019,-0.7135 2.03136,-0.9693 2.84375,-1 z m 40.84375,8.25 c 1.24158,0.023 1.96875,0.75 1.96875,0.75 10e-6,10e-5 13.70043,6.8419 17.125,9.125 3.42459,2.283 1.125,3.4375 1.125,3.4375 10e-6,0 -37.65442,38.8108 -39.9375,41.0937 -3.42458,2.2832 -8,0 -8,0 -10e-6,2e-4 -11.41918,-6.8418 -14.84375,-9.125 -4.56609,-2.2828 -1.125,-5.7187 -1.125,-5.7187 2e-5,-10e-5 37.65445,-34.263 39.9375,-37.6875 1.49827,-1.4982 2.78433,-1.8926 3.75,-1.875 z m 34.5,13.4375 c 1.78725,-0.067 2.84375,1 2.84375,1 10e-6,0 13.70044,5.717 17.125,8 3.42459,1.1415 1.15625,4.5625 1.15625,4.5625 10e-6,0 -6.84192,7.9817 -9.125,11.4062 -2.28305,2.2832 -6.875,-1.125 -6.875,-1.125 -2e-5,2e-4 -13.66918,-5.717 -17.09375,-8 -3.42453,-2.2829 0,-3.4062 0,-3.4062 3e-5,0 5.7004,-8.0129 9.125,-11.4375 1.07017,-0.7134 2.03136,-0.9693 2.84375,-1 z m -20.125,23.0937 c 0.92554,0.023 1.28125,0.75 1.28125,0.75 2e-5,2e-4 14.85665,6.8421 18.28125,9.125 4.56609,3.4248 1.125,6.8438 1.125,6.8438 -10e-6,0 -19.40442,19.4191 -21.6875,22.8438 -2.28302,3.4245 -7.96875,1.125 -7.96875,1.125 2e-5,-2e-4 -12.55891,-7.9671 -17.125,-10.25 -4.56608,-2.2832 0,-5.7188 0,-5.7188 10e-6,0 20.52945,-19.4192 22.8125,-22.8438 1.49826,-1.4981 2.56138,-1.8925 3.28125,-1.875 z"
       style="fill:#5f4343;fill-opacity:1;stroke:none" />
    <path
       id="path5329"
       d="m 996.43321,1078.2021 c 0,0 1.75429,1.8291 1.75429,1.8291 10e-6,1e-4 12.5625,6.8438 12.5625,6.8438 0,0 -0.015,1.1398 -1.1562,2.2812 -1.1416,1e-4 -2.2813,2.2813 -2.2813,2.2813 0,0 -1.1396,1.1415 -2.2813,0 -1.1415,-1.1415 -13.68745,-8 -13.68745,-8 0,0 -1.15625,3.4375 -1.15625,3.4375 10e-6,0 10.2813,5.7188 10.2813,5.7188 0,-1e-4 2.2664,1.1397 1.125,2.2812 -1.1416,1.1415 -3.4063,2.2812 -3.4063,2.2812 10e-6,1e-4 -1.15446,2.2831 -3.4375,0 -2.28304,-1.1414 -12.5625,-5.7187 -12.5625,-5.7187 -2e-5,0 -4.5625,4.5625 -4.5625,4.5625 0,0 11.4375,6.8438 11.4375,6.8438 0,-1e-4 1.125,2.2812 1.125,2.2812 10e-6,0 4.5625,2.2812 4.5625,2.2812 10e-6,1e-4 2.29598,0.017 3.4375,-1.125 10e-6,1.1416 1.13969,2.2813 2.2813,2.2813 2.283,1.1416 8,3.421 8,4.5625 2.2831,2.283 5.6874,3.4375 5.6874,3.4375 10e-5,0 2.2961,1.1415 3.4376,0 0,0 -0.017,1.1398 1.125,2.2813 2.283,1.1415 16,7.9687 16,7.9687 0,10e-5 1.1397,0 2.2812,0 1.1416,-1.1414 4.5625,-5.6875 4.5625,-5.6875 0,0 0,-0.015 0,-1.1562 1.1415,-1e-4 1.1398,0.017 2.2813,-1.125 1.1415,-1e-4 2.2812,-2.2813 2.2812,-2.2813 -10e-5,1.1415 -1.1416,2.2646 0,3.4063 1.1414,1.1414 13.6875,6.8437 13.6875,6.8437 4.5592,-0.3379 0.4467,6.3072 1.5882,5.1657 -10e-5,-10e-5 1.8643,-4.0244 3.0055,-5.1657 2.283,-2.283 3.4063,-1.125 3.4063,-1.125 0,0 10.2795,3.4375 12.5625,3.4375 2.2831,1.1416 0,3.4062 0,3.4062 0,1e-4 0,1.1397 -2.2812,2.2813 -1.1416,2.283 -2.2813,1.1563 -2.2813,1.1563 -1.1415,0 -14.8437,-4.5626 -14.8437,-4.5626 0,0 -3.4376,4.5461 -3.4376,5.6876 1.1415,-1e-4 12.5773,4.5624 13.7188,4.5624 0,2.2832 0,4.5626 0,4.5626 0,-1e-4 4.5625,1.1562 4.5625,1.1562 0,0 1.1397,1.1416 2.2813,0 0,-1.1415 3.4062,-5.7188 3.4062,-5.7188 -10e-5,1e-4 1.1416,-1.1397 0,-2.2812 1.1415,1.1415 2.296,-1.125 3.4375,-1.125 0,-1.1417 3.4375,-4.5625 3.4375,-4.5625 0,0 0,-1.1545 0,-3.4375 1.1415,0 1.1398,1.1415 2.2812,0 0,-1.1416 3.4063,-5.7188 3.4063,-5.7188 0,1e-4 0,0 0,-2.2812 0,-2.283 0,-6.8438 0,-6.8438 0,1e-4 -2.2813,3.4376 -2.2813,3.4376 1e-4,-1e-4 -1.1232,1.1416 -3.4062,0 -1.1415,-1e-4 -9.6865,-1.4962 -11.5258,-2.6746 -1.8392,-1.1784 4.9339,-5.5365 4.9339,-5.5365 -1.5289,-2.2482 -12.18,13.0253 -12.18,13.0253 0,0 3.2725,-2.7532 6.0024,-5.7913 2.0445,-2.2754 11.6133,3.2583 11.6133,3.2583 -1e-4,0 1.1414,1.1398 0,2.2812 -1.1417,1.1416 -1.125,3.4063 -1.125,3.4063 0,10e-5 -1.1545,1.1415 -3.4376,0 -3.4246,10e-5 -12.5624,-3.4063 -12.5624,-3.4063 0,1e-4 -2.2813,-1.1562 -2.2813,-1.1562 0,0 0,-9.125 0,-9.125 0,0 -2.2648,4.5625 -3.4063,4.5625 -2.2831,10e-5 -14.8585,-3.421 -16,-4.5625 -1.1415,0 3.4376,-4.5625 3.4376,-4.5625 0,10e-5 15.0012,5.1873 16.1427,5.1873 1.1415,10e-5 -15.0158,-6.2196 -15.0158,-6.2196 0,10e-5 3.4355,-8.0927 3.4355,-8.0927 0,10e-5 -3.4374,3.4063 -3.4374,3.4063 0,-1e-4 0,1.1414 -2.2813,0 -1.1416,-1.1417 -11.4063,-4.5626 -11.4063,-4.5626 0,1e-4 -1.1562,-1.125 -1.1562,-1.125 0,1e-4 1.1562,-1.1562 1.1562,-1.1562 0,0 -1.1562,-5.6875 -1.1562,-5.6875 0,10e-5 -3.4062,3.4063 -3.4062,3.4063 0,-1e-4 -1.1398,1.1414 -2.2813,0 0,-1.1417 -12.5625,-6.8438 -12.5625,-6.8438 0,0 -1.1562,-4.5625 -1.1562,-4.5625 0,0 -3.4063,2.2813 -3.4063,2.2813 0,-1e-4 -1.1544,1.1414 -3.4375,0 -1.1415,-1.1417 -15.44179,-6.3917 -15.44179,-6.3917 z m 22.28559,10.9541 c 0,2e-4 8.0146,4.5773 9.1562,5.7188 2.283,1.1415 2.2812,2.2812 2.2812,2.2812 0,2e-4 -2.2959,1.1398 -3.4374,2.2813 -1.1417,2.2831 -3.4063,1.125 -3.4063,1.125 0,0 -6.8565,-4.546 -10.2813,-5.6875 -2.2829,-1.1415 -1.1562,-2.2812 -1.1562,-2.2812 0,-2e-4 2.296,-1.1398 3.4375,-2.2813 1.1415,-1.1414 3.4062,-1.1563 3.4063,-1.1563 z m -10.9063,6.3438 c 0.1516,-0.012 0.3037,-0.01 0.4375,0 0.8918,0.056 1.3437,0.5 1.3438,0.5 0,0 9.1397,4.5773 10.2812,5.7188 2.2831,1.1414 1.125,2.2812 1.125,2.2812 0,0 -1.1233,1.1232 -3.4062,3.4062 -1.1415,1.1417 -3.4375,0 -3.4376,0 10e-5,2e-4 -10.2647,-4.5459 -11.4062,-5.6874 -2.283,-2.2832 0,-2.2813 0,-2.2813 0,10e-5 1.1544,-2.296 3.4375,-3.4375 0.6421,-0.3211 1.1703,-0.4644 1.625,-0.5 z m 28.8125,3.9375 c 0.2319,-0.018 0.375,0 0.375,0 0,10e-5 7.9981,3.421 10.2812,4.5625 1.1416,1.1415 1.125,3.4062 1.125,3.4062 0,2e-4 -1.1397,0.015 -2.2812,1.1563 -2.2832,2.2831 -4.5625,1.1563 -4.5625,1.1563 0,-2e-4 -9.1232,-3.4522 -11.4063,-4.5938 -2.2829,-1.1415 0,-2.2812 0,-2.2812 0,-2e-4 2.2648,-1.1398 3.4063,-2.2813 0.8561,-0.8562 2.3669,-1.0715 3.0625,-1.125 z m -9.9062,7.4687 c 0.1396,-0.012 0.2953,-0.01 0.4374,0 0.9477,0.056 1.8438,0.5 1.8438,0.5 0,2e-4 9.1398,3.4522 10.2812,4.5938 2.2832,1.1415 1.125,2.2812 1.125,2.2812 2e-4,2e-4 -2.2646,1.1397 -3.4062,2.2813 -1.1415,2.283 -3.4375,0 -3.4375,0 0,0 -7.9816,-3.421 -11.4063,-4.5625 -2.283,-1.1416 10e-5,-2.2812 0,-2.2812 0,-2e-4 2.2961,-1.1711 3.4376,-2.3126 0.3209,-0.3209 0.7059,-0.4644 1.125,-0.5 z"
       style="fill:#5f4343;fill-opacity:1;stroke:none"
       sodipodi:nodetypes="cccccscccscccccccccccccccccccscssccccccccccccscccccscccsccscscccccsccsccccccccccccccccccccccsccscccssscscccccscscsccsccccccssc" />
    <path
       id="path5341"
       d="m 1032.4375,1053.7812 c 0,0 0,2.2813 0,2.2813 0,0 9.125,4.5625 9.125,4.5625 0,0 1.1563,1.1397 1.1563,2.2812 -1.1415,0 -2.3126,1.125 -2.3126,1.125 1e-4,0 0,0 -2.2812,0 -2.2831,-1.1415 -11.4062,-5.6874 -11.4062,-5.6874 -1e-4,0 -1.125,2.2812 -1.125,2.2812 0,0 9.125,4.5625 9.125,4.5625 0,0 2.2664,1.1397 1.125,2.2813 -1.1416,1.1415 -2.2813,2.2812 -2.2813,2.2812 0,0 -1.1232,1.1415 -3.4063,0 -1.1415,-1.1416 -11.4374,-5.7188 -11.4374,-5.7188 0,0 0,2.2813 0,2.2813 0,0 9.1562,4.5937 9.1562,4.5937 0,1e-4 2.2665,1.1398 1.125,2.2813 -1.1415,1.1416 -2.2812,2.2813 -2.2812,2.2813 -1e-4,-1e-4 -2.2648,0 -3.4063,0 -2.2831,-1.1416 -11.4375,-6.8438 -11.4375,-6.8438 0,0 -3.4062,6.8438 -3.4062,6.8438 0,-1e-4 7.9669,4.546 10.25,5.6874 1.1415,1.1415 4.5937,3.4376 4.5937,3.4376 0,-1e-4 1.125,-1.1563 1.125,-1.1563 0,0 1.1398,-1.1415 2.2813,0 1.1415,1.1416 11.4062,5.7187 11.4062,5.7187 0,1e-4 1.1415,1.1398 0,2.2813 2.283,1.1415 3.4375,1.1563 3.4375,1.1563 0,-1e-4 1.1398,1.1268 2.2813,-1.1563 0,2.2831 0.015,2.2813 1.1562,2.2813 1.1415,1.1414 10.2648,4.5772 11.4062,5.7187 0,10e-5 3.4063,2.2813 3.4063,2.2813 0,-1e-4 0.8733,0.8455 1.8437,-0.4063 -0.2316,0.8449 0.4376,1.5313 0.4376,1.5313 0,-1e-4 14.8437,8 14.8437,8 0,-1e-4 2.4929,-0.8258 3.2187,-1.7813 -0.5808,1.7789 1.3438,1.7813 1.3438,1.7813 -10e-5,-1e-4 10.2812,3.4374 10.2812,3.4374 1e-4,1e-4 2.2813,-0.016 2.2813,1.125 0,2.2832 0,3.4376 0,3.4376 0,-1e-4 2.2813,1.125 2.2813,1.125 -1e-4,-1e-4 1.1397,1.1581 2.2812,-1.125 1.1415,-1.1416 8,-10.2813 8,-10.2813 0,10e-5 1.1562,-1.1398 1.1562,-2.2813 1e-4,1.1416 1.1397,-0.015 2.2813,-1.1562 10e-5,0 2.2813,-3.4062 2.2813,-3.4062 -1e-4,-1e-4 0,-1.1398 0,-2.2813 1.1414,1.1416 2.2812,0 2.2812,0 1.1415,-1.1414 2.2812,-2.296 2.2812,-3.4375 1e-4,-2.283 0,-8 0,-8 1e-4,0 -2.2812,1.1562 -2.2812,1.1562 0,1e-4 0,1.1415 -2.2812,0 -1.1416,1e-4 -29.6876,-9.125 -29.6876,-9.125 0,1e-4 0,-1.1562 0,-1.1562 0,-1.1415 0,-1.125 0,-1.125 0,0 0,-4.5625 0,-4.5625 0,0 -2.2812,1.125 -2.2812,1.125 0,0 -1.1398,1.1563 -2.2812,1.1563 -1.1416,-1.1416 -27.4063,-11.4376 -27.4063,-11.4376 0,0 -1.1416,-1.125 0,-1.125 0,-1.1415 -1.125,0 -1.125,0 0,0 -1.1563,-5.7187 -1.1563,-5.7187 0,0 -2.2812,1.1563 -2.2812,1.1563 -10e-5,0 0,1.1414 -2.2812,0 -1.1415,0 -11.4063,-4.5626 -11.4063,-4.5626 z m 14.5,10.875 c 0.1431,-0.01 0.2767,0.011 0.4063,0.031 1.5143,0.2436 3.0593,0.9756 4.4374,1.75 2.2956,1.2899 8.1091,1.352 7.3438,3.75 -0.4274,1.3393 -3.1814,3.4295 -4.875,2.6875 -2.9708,-1.3016 -5.9217,-3.1706 -9.125,-3.9375 -3.7088,-0.888 -0.3336,-4.153 1.8125,-4.2813 z m -6.75,4.5938 c 0.1067,-0.012 0.2115,-0.01 0.3125,0 2.1854,0.1729 4.5292,1.6622 6.6875,2.7188 1.7885,0.8756 7.0484,1.8489 4.5,4.7812 -2.6942,3.1001 -4.9473,1.0023 -7.4375,-0.25 -2.4903,-1.2523 -7.6472,-1.121 -7.75,-3.4062 -0.061,-1.3642 2.0875,-3.6678 3.6875,-3.8438 z m 24.5313,3.4062 c 3.135,-0.181 5.7528,2.9029 8.8437,3.2813 4.7632,0.5831 1.709,5.6486 -1.0313,5.5 -3.1145,-0.1689 -5.9514,-2.7015 -9.0937,-3.0313 -4.9831,-0.5228 -2.0245,-4.8267 0.8437,-5.7187 0,0 0.4376,-0.031 0.4376,-0.031 z m -31.1876,2.5626 c 0.4059,0.018 0.8322,0.1295 1.1876,0.25 2.8864,0.9782 5.5539,2.8687 8.5,3.7187 4.39,1.2666 0.668,6.2885 -1.7188,5.9063 -3.4682,-0.5554 -6.7382,-3.3346 -10.25,-4.5313 -3.9168,-1.3348 -0.5444,-3.9827 1.1875,-5.0937 0.3026,-0.1942 0.6879,-0.2685 1.0937,-0.25 z m 25,3.375 c 2.7119,-0.1165 5.3251,2.3977 8.1563,2.9062 2.5246,0.4534 5.1522,1.4808 2.8437,4.1562 -2.44,2.828 -5.4778,2.2403 -8.2812,0.5 -2.3712,-1.4719 -7.2155,-1.838 -7.4062,-4.2812 -0.1156,-1.4802 3.0044,-3.2089 4.6874,-3.2812 z M 1081.125,1080 c 1.6161,-0.071 3.4869,0.8546 5.0625,1.75 2.3345,1.3267 7.6074,1.2983 7.4063,3.625 -0.1199,1.3867 -2.2066,3.3749 -4.0938,3.0312 -3.366,-0.6128 -6.5292,-2.4262 -9.9062,-3.0312 -3.6566,-0.6551 -1.6553,-3.9335 0.031,-4.9375 0.4656,-0.2772 0.9613,-0.4138 1.5,-0.4375 z m -30.125,4.0625 c 3.52,-0.2033 6.5985,2.7821 10.0312,3.4687 4.4432,0.8887 2.5162,6.3853 -1.0312,5.5626 -3.5586,-0.8255 -6.8109,-3.3234 -10.5,-3.7813 -4.359,-0.5411 -1.4036,-4.5171 1.0625,-5.2187 0,0 0.4375,-0.031 0.4375,-0.031 z m 24.375,2.3125 c 3.484,0.2314 7.1443,2.2076 10.7188,2.7812 4.2477,0.6818 1.5611,5.693 -1.2188,5.0626 -3.3481,-0.7593 -6.7659,-2.5707 -10.25,-2.6876 -4.6488,-0.1558 -1.3613,-5.2964 0.75,-5.1562 z m 26.25,1.5312 c 0.159,0.01 0.3016,0.047 0.4375,0.094 3.4825,1.1963 8.7418,1.8557 10.4063,4.4062 1.5228,2.3337 -4.192,4.401 -6.9063,3.1563 -2.7477,-1.26 -6.3887,-0.5186 -8.7187,-2.25 -2.275,-1.6904 2.3962,-5.5491 4.7812,-5.4063 z m -31.3438,4.5938 c 0.3405,-0.035 0.6569,6e-4 0.9688,0.094 3.1728,0.9482 6.2433,2.7944 9.5,3.1874 2.8926,0.3491 1.6663,1.7373 0.3438,3.375 -1.7361,2.1499 -4.2301,1.3607 -6.6563,0.625 -2.937,-0.8903 -7.3865,-1.2683 -8.7187,-3.125 -0.6351,-0.885 2.1796,-3.914 4.5624,-4.1562 z m 23.1563,2.0312 c 0,0 0.2264,0.049 0.3125,0.094 0.1066,0.056 0.3125,0.25 0.3125,0.25 2.6649,2.0969 6.6322,1.4252 9.9687,1.9375 3.7146,0.5703 2.9883,4.3818 0.2813,6.0625 -2.4697,1.5334 -3.7411,5.5719 -6.4687,6 -3.4422,0.5403 -7.0547,-2.0774 -10.5938,-2.8125 -4.2034,-0.8731 -2.2665,-3.8985 0.062,-5.5937 2.2838,-1.6622 3.9073,-4.3793 6.125,-5.9376 z"
       style="fill:#5f4343;fill-opacity:1;stroke:none" />
  </g>
  <path
     style="fill:#c00000;fill-opacity:1;fill-rule:nonzero;stroke:none"
     id="path5365"
     d="" />
  <!-- EMR_SETBKCOLOR -->
  <path
     style="fill:#e00a0e;fill-opacity:1;fill-rule:nonzero;stroke:#ffffff;stroke-width:0.03543307px;stroke-linejoin:round;stroke-dasharray:none;stroke-opacity:1"
     id="path5379"
     d="" />
  <path
     style="fill:none;stroke:#ffffff;stroke-width:0.03543307px;stroke-linejoin:round;stroke-dasharray:none;stroke-opacity:1"
     d=""
     id="path5393" />
  <!-- EMR_SETBKCOLOR -->
  <path
     style="fill:none;stroke:#ffffff;stroke-width:1.41732287px;stroke-linejoin:round;stroke-dasharray:none;stroke-opacity:1"
     d=""
     id="path5397" />
  <!-- EMR_SETBKCOLOR -->
  <!-- EMR_SETBKCOLOR -->
  <!-- EMR_SETBKCOLOR -->
  <!-- EMR_SETBKCOLOR -->
  <path
     style="fill:#ffffff;fill-opacity:1;fill-rule:nonzero;stroke:#ffffff;stroke-width:0.88582677px;stroke-linejoin:round;stroke-dasharray:none;stroke-opacity:1"
     id="path5413"
     d="" />
  <path
     style="fill:none;stroke:#ffffff;stroke-width:0.88582677px;stroke-linejoin:round;stroke-dasharray:none;stroke-opacity:1"
     d=""
     id="path5423" />
  <!-- EMR_SETBKCOLOR -->
  <path
     style="fill:none;stroke:none"
     d=""
     id="path5433" />
  <!-- EMR_SETBKCOLOR -->
  <path
     style="fill:#ffffff;fill-opacity:1;fill-rule:nonzero;stroke:#ffffff;stroke-width:0.10629921px;stroke-linejoin:round;stroke-dasharray:none;stroke-opacity:1"
     id="path5439"
     d="" />
  <path
     style="fill:none;stroke:#ffffff;stroke-width:0.10629921px;stroke-linejoin:round;stroke-dasharray:none;stroke-opacity:1"
     d=""
     id="path5445" />
  <!-- EMR_SETBKCOLOR -->
  <path
     style="fill:#ffffff;fill-opacity:1;fill-rule:nonzero;stroke:#ffffff;stroke-width:0.10629921px;stroke-linejoin:round;stroke-dasharray:none;stroke-opacity:1"
     id="path5451"
     d="" />
  <path
     style="fill:none;stroke:#ffffff;stroke-width:0.10629921px;stroke-linejoin:round;stroke-dasharray:none;stroke-opacity:1"
     d=""
     id="path5457" />
  <path
     style="fill:#82dd82;fill-opacity:1;fill-rule:evenodd;stroke:none"
     d="m 562.95051,311.07906 -8.20912,-13.48641 c 0,0 -7.02559,4.4238 -9.38186,7.0364 -0.68696,0.76169 -1.7591,2.93182 -1.7591,2.93182 l 7.62276,10.84778 c 0,0 2.35405,0.55873 3.5182,-0.29319 1.98869,-1.45531 8.20912,-7.0364 8.20912,-7.0364 z"
     id="path2421"
     sodipodi:nodetypes="ccsccsc" />
  <path
     id="path3193"
     d="m 548.12942,320.89154 -8.72397,-11.08723 c 0,0 -4.2646,2.2353 -5.63607,3.72826 -1.54143,1.67797 -3.63889,6.66655 -3.63889,6.66655 l 7.66457,7.02896 c 0,0 2.86994,0.36904 3.96645,-0.094 2.46448,-1.04073 6.36791,-6.24254 6.36791,-6.24254 z"
     style="fill:#dd8282;fill-opacity:1;fill-rule:evenodd;stroke:none"
     inkscape:transform-center-y="6.743208"
     sodipodi:nodetypes="ccsccsc" />
  <path
     sodipodi:nodetypes="ccsccsc"
     id="path3195"
     d="m 534.80495,332.18823 -8.50231,-11.14094 c 0,0 -2.92103,0.31923 -5.2773,2.93183 -0.68696,0.7617 -3.5182,3.81138 -3.5182,3.81138 l 7.62277,9.38185 c 0,0 3.23359,1.1451 4.39774,0.29318 1.98869,-1.45531 5.2773,-5.2773 5.2773,-5.2773 z"
     style="fill:#f2fa66;fill-opacity:1;fill-rule:evenodd;stroke:none" />
  <path
     style="fill:#6766fa;fill-opacity:1;fill-rule:evenodd;stroke:none"
     d="m 522.09443,342.55737 -7.36808,-11.24867 c 0,0 -4.15725,0.48942 -6.22792,2.98144 -0.60369,0.72655 -3.30497,4.84879 -3.30497,4.84879 l 6.69879,10.34711 c 0,0 4.64517,-1.70427 5.6682,-2.51686 1.74764,-1.38816 4.53398,-4.41181 4.53398,-4.41181 z"
     id="path3197"
     sodipodi:nodetypes="ccsccsc" />
  <path
     sodipodi:nodetypes="csscssc"
     id="path3199"
     d="m 502.98724,356.81075 c 0,0 -6.15329,-7.8654 -6.71213,-8.39073 -2.12774,-2.00018 -3.15592,-1.10569 -7.22338,2.25021 -2.15469,1.77774 -1.04936,3.01483 -1.04936,3.01483 0,0 6.29388,9.74911 7.53386,9.96574 1.10444,0.19295 5.51695,-3.97211 6.2754,-4.67985 1.29566,-1.20904 1.17561,-2.1602 1.17561,-2.1602 z"
     style="fill:#faab66;fill-opacity:1;fill-rule:evenodd;stroke:none" />
  <path
     sodipodi:nodetypes="ccsccss"
     id="path3201"
     d="m 554.45074,277.9667 c 0.30244,-1.5732 -10.73457,-16.03165 -10.73457,-16.03165 0,0 -6.34815,5.12268 -8.47722,8.14802 -0.62072,0.88203 -1.58948,3.395 -1.58948,3.395 l 8.96086,12.14692 c 0,0 4.20018,-1.2188 5.25207,-2.20531 1.79694,-1.68523 6.20869,-3.4782 6.58834,-5.45298 z"
     style="fill:#82dd82;fill-opacity:1;fill-rule:evenodd;stroke:none" />
  <path
     sodipodi:nodetypes="ccsccsc"
     inkscape:transform-center-y="7.7231055"
     style="fill:#dd8282;fill-opacity:1;fill-rule:evenodd;stroke:none"
     d="m 537.95297,289.50333 -8.69279,-13.06165 c 0,0 -4.61199,2.34582 -6.13186,3.9831 -1.7082,1.84017 -4.16076,7.4296 -4.16076,7.4296 l 7.76566,8.38254 c 0,0 3.01497,0.55791 4.19552,0.0821 2.65334,-1.06932 7.02423,-6.81574 7.02423,-6.81574 z"
     id="path3203"
     inkscape:transform-center-x="0.41226172" />
  <path
     style="fill:#f2fa66;fill-opacity:1;fill-rule:evenodd;stroke:none"
     d="m 524.85399,302.95511 -9.4194,-12.79725 c 0,0 -3.23609,0.36669 -5.84652,3.3677 -0.76106,0.87493 -3.89769,4.378 -3.89769,4.378 l 8.44498,10.77665 c 0,0 3.58239,1.31534 4.8721,0.33677 2.2032,-1.67167 5.84653,-6.06187 5.84653,-6.06187 z"
     id="path3205"
     sodipodi:nodetypes="ccsccsc" />
  <path
     sodipodi:nodetypes="ccsccsc"
     id="path3207"
     d="m 511.52154,313.52352 -7.7296,-12.27501 c 0,0 -4.36123,0.53408 -6.53349,3.25348 -0.63332,0.79283 -3.46713,5.29118 -3.46713,5.29118 l 7.02747,11.29117 c 0,0 4.87308,-1.85976 5.94631,-2.7465 1.83339,-1.51481 4.75644,-4.81432 4.75644,-4.81432 z"
     style="fill:#6766fa;fill-opacity:1;fill-rule:evenodd;stroke:none" />
  <path
     style="fill:#faab66;fill-opacity:1;fill-rule:evenodd;stroke:none"
     d="m 499.46263,323.17222 c 0,0 -6.82155,-8.16565 -7.44109,-8.71104 -2.35882,-2.07652 -3.49865,-1.1479 -8.00785,2.33611 -2.38869,1.84561 -1.16333,3.12992 -1.16333,3.12992 0,0 6.97742,10.12127 8.35206,10.34616 1.22438,0.20031 6.1161,-4.12373 6.95693,-4.85849 1.43636,-1.25519 1.30328,-2.24266 1.30328,-2.24266 z"
     id="path3209"
     sodipodi:nodetypes="csscssc" />
  <path
     style="fill:#000000;fill-opacity:1;fill-rule:evenodd;stroke:none"
     d="m 399.72127,346.37536 c 0.30246,-1.5732 -9.69801,-6.49532 -9.69801,-6.49532 0,0 -13.17637,16.5185 -13.17637,16.5185 l 4.60732,3.23252 c 0,0 4.20018,3.54936 5.25207,2.56285 1.79694,-1.68523 12.63534,-13.84377 13.01499,-15.81855 z"
     id="path3223"
     sodipodi:nodetypes="ccccss" />
  <path
     sodipodi:nodetypes="ccccss"
     id="path3225"
     d="m 408.42921,360.39904 c 0.26409,-1.25413 -8.26055,-6.62911 -8.26055,-6.62911 -2.73905,1.7119 -12.71136,13.35206 -11.09039,12.33895 l 4.64484,4.02807 c 0,0 3.25278,3.03679 4.17125,2.25037 1.569,-1.34343 10.20336,-10.41403 10.53485,-11.98828 z"
     style="fill:#000000;fill-opacity:1;fill-rule:evenodd;stroke:none" />
  <text
     xml:space="preserve"
     style="font-size:5.19999981px;font-style:normal;font-variant:normal;font-weight:normal;font-stretch:normal;fill:#ffffff;fill-opacity:1;stroke:none;font-family:Goblin;-inkscape-font-specification:Goblin"
     x="16.636446"
     y="-520.85742"
     id="text3227"
     transform="matrix(-0.6328411,0.7742817,-0.7742817,-0.6328411,0,0)"
     inkscape:transform-center-x="160.30374"
     inkscape:transform-center-y="104.4831"><tspan
       sodipodi:role="line"
       id="tspan3229"
       x="16.636446"
       y="-520.85742">PICK</tspan></text>
  <text
     inkscape:transform-center-y="100.81871"
     inkscape:transform-center-x="143.0233"
     transform="matrix(-0.6612382,0.7410299,-0.8090256,-0.6056635,0,0)"
     id="text3231"
     y="-533.45447"
     x="43.743084"
     style="font-size:4.69999981px;font-style:normal;font-variant:normal;font-weight:normal;font-stretch:normal;fill:#ffffff;fill-opacity:1;stroke:none;font-family:Goblin;-inkscape-font-specification:Goblin"
     xml:space="preserve"><tspan
       y="-533.45447"
       x="43.743084"
       id="tspan3233"
       sodipodi:role="line"
       style="font-size:4.69999981px">PICK</tspan></text>
  <text
     xml:space="preserve"
     style="font-size:22px;font-style:normal;font-variant:normal;font-weight:normal;font-stretch:normal;text-align:center;text-anchor:start;opacity:0.95;fill:#ffffff;fill-opacity:0.95;fill-rule:nonzero;stroke:#000000;stroke-width:0.89999998;stroke-linecap:butt;stroke-linejoin:miter;stroke-miterlimit:4;stroke-opacity:1;stroke-dasharray:none;stroke-dashoffset:0;font-family:Goblin;-inkscape-font-specification:Goblin"
     x="548.48071"
     y="373.84677"
     id="text3235"><tspan
       sodipodi:role="line"
       x="548.48071"
       y="373.84677"
       id="tspan3239"
       style="font-size:22px;fill:#ffffff;fill-opacity:1;fill-rule:nonzero;stroke:#000000;stroke-width:0.89999998;stroke-miterlimit:4;stroke-opacity:1;stroke-dasharray:none">Guitar</tspan></text>
  <path
     style="fill:none;stroke:#000000;stroke-width:1.98199999;stroke-linecap:butt;stroke-linejoin:miter;stroke-miterlimit:4;stroke-opacity:1;stroke-dasharray:none;stroke-dashoffset:0"
     d="m 553.04176,309.95795 8.49977,38.14534"
     id="path3259" />
  <text
     xml:space="preserve"
     style="font-size:48.68118668px;font-style:normal;font-variant:normal;font-weight:bold;font-stretch:normal;text-align:center;text-anchor:middle;fill:#ffffff;fill-opacity:1;stroke:#000000;stroke-width:1.01400006;stroke-linecap:butt;stroke-linejoin:miter;stroke-miterlimit:4;stroke-opacity:1;stroke-dasharray:none;font-family:Goblin;-inkscape-font-specification:Goblin Bold"
     x="551.75928"
     y="155.65428"
     id="text3263"
     transform="scale(0.89213371,1.1209082)"><tspan
       sodipodi:role="line"
       id="tspan3265"
       x="551.75928"
       y="155.65428"
       style="text-align:center;text-anchor:middle;stroke-width:1.01400006;stroke-miterlimit:4;stroke-dasharray:none">PICK UP YOUR</tspan><tspan
       sodipodi:role="line"
       x="551.75928"
       y="216.50577"
       id="tspan3267"
       style="text-align:center;text-anchor:middle;stroke-width:1.01400006;stroke-miterlimit:4;stroke-dasharray:none">INSTRUMENTS</tspan></text>
  <text
     xml:space="preserve"
     style="font-size:40px;font-style:normal;font-weight:normal;fill:#000000;fill-opacity:1;stroke:none;font-family:Goblin"
     x="370.25256"
     y="559.18805"
     id="text2867"><tspan
       sodipodi:role="line"
       id="tspan2869"
       x="370.25256"
       y="559.18805" /></text>
  <path
     style="fill:#ff40a9;fill-opacity:1;fill-rule:nonzero;stroke:none;stroke-width:3;stroke-linecap:butt;stroke-linejoin:round;stroke-miterlimit:4;stroke-opacity:1;stroke-dasharray:none"
     d="m 360.74551,386.80657 c -1.19397,-0.89713 -2.54012,-1.74835 -2.99146,-1.8916 -1.08508,-0.34439 -1.03628,-1.15017 0.15341,-2.53328 l 0.97403,-1.13238 2.64981,1.36391 c 2.83946,1.46152 4.51349,2.77696 4.51349,3.54665 0,0.66336 -1.78807,2.27784 -2.52275,2.27784 -0.33313,0 -1.58256,-0.73401 -2.77653,-1.63114 z"
     id="path2875" />
  <path
     style="fill:#ff40a9;fill-opacity:1;fill-rule:nonzero;stroke:none"
     d="m 370.62087,395.43097 c -3.22309,-2.56854 -3.81154,-3.60509 -2.86593,-5.04826 0.35169,-0.53675 0.81425,-0.97591 1.02792,-0.97591 0.21367,0 1.38962,0.81543 2.61322,1.81207 1.2236,0.99664 2.67521,2.04957 3.2258,2.33984 0.55059,0.29028 1.12724,0.72182 1.28145,0.95898 0.54105,0.83211 -1.17766,3.17217 -2.32987,3.17217 -0.0649,0 -1.3936,-1.0165 -2.95259,-2.25889 l 0,0 z"
     id="path3649" />
  <path
     style="fill:#ff40a9;fill-opacity:1;fill-rule:nonzero;stroke:none"
     d="m 380.38571,404.40249 c -3.20987,-2.76047 -3.42843,-3.08387 -2.94444,-4.35688 0.51822,-1.36302 1.52694,-2.12334 2.26217,-1.70511 0.9779,0.55627 6.06626,5.48681 6.06626,5.87812 0,0.61088 -1.68951,2.54236 -2.20437,2.52008 -0.26819,-0.0116 -1.69902,-1.0629 -3.17962,-2.33621 z"
     id="path3651" />
  <path
     style="fill:#ff40a9;fill-opacity:1;fill-rule:nonzero;stroke:none"
     d="m 378.48847,410.78489 c -2.10831,-1.23484 -5.55751,-4.64178 -5.55751,-5.48942 0,-0.80629 1.13781,-2.26304 1.76757,-2.26304 0.13905,0 1.07806,0.69888 2.0867,1.55307 1.00863,0.85419 2.41773,1.87055 3.13133,2.25858 1.55065,0.84318 1.6684,1.93823 0.36561,3.40003 -0.80453,0.90273 -1.04959,0.97661 -1.7937,0.54078 l 0,0 z"
     id="path3653" />
  <path
     style="fill:#ff40a9;fill-opacity:1;fill-rule:nonzero;stroke:none"
     d="m 372.51681,412.71693 c -1.02503,-0.78856 -2.40471,-1.8514 -3.06595,-2.36186 -1.04524,-0.80689 -1.13995,-1.04452 -0.72521,-1.81948 0.9497,-1.77453 1.90248,-1.56269 5.22082,1.16084 1.71931,1.41112 3.12602,2.69654 3.12602,2.85648 0,0.50756 -1.49118,1.66292 -2.10338,1.6297 -0.32374,-0.0176 -1.42727,-0.67712 -2.4523,-1.46568 z"
     id="path3655" />
  <path
     style="fill:#ff40a9;fill-opacity:1;fill-rule:nonzero;stroke:none"
     d="m 367.3399,400.29561 c -0.68335,-0.57774 -1.94134,-1.50522 -2.79553,-2.06107 -0.95393,-0.62075 -1.55308,-1.33544 -1.55308,-1.85257 0,-1.04923 1.91518,-3.02338 2.65692,-2.73874 0.30213,0.11593 1.78479,1.19549 3.29481,2.399 2.92038,2.32761 3.37578,3.39234 1.9881,4.64817 -1.05341,0.95332 -2.13763,0.83413 -3.59122,-0.39479 z"
     id="path3657" />
  <path
     style="fill:#ff40a9;fill-opacity:1;fill-rule:nonzero;stroke:none"
     d="m 361.99013,403.57514 c -1.49942,-1.29601 -2.72621,-2.59019 -2.72621,-2.87598 0,-0.28579 0.41933,-0.999 0.93184,-1.58492 l 0.93185,-1.0653 1.24245,0.83189 c 3.28091,2.19676 4.98041,3.66556 5.08966,4.39878 0.13461,0.90344 -1.29776,2.65189 -2.17251,2.65189 -0.31398,0 -1.79767,-1.06036 -3.29708,-2.35636 z"
     id="path3659" />
  <path
     style="fill:#ff40a9;fill-opacity:1;fill-rule:nonzero;stroke:none"
     d="m 359.02616,392.79149 c -5.76907,-3.32651 -6.087,-3.59781 -5.71355,-4.87564 0.57014,-1.9509 1.14184,-2.01574 3.6465,-0.41353 1.30097,0.83222 2.91087,1.70328 3.57756,1.93569 1.42124,0.49544 1.62273,1.82003 0.4874,3.20406 -0.70702,0.86189 -0.75595,0.86555 -1.99791,0.14942 l 0,0 z"
     id="path3661" />
  <path
     style="fill:#ff40a9;fill-opacity:1;fill-rule:nonzero;stroke:none"
     d="m 353.67286,396.39555 c -1.13892,-0.88756 -2.51443,-1.95668 -3.05669,-2.37582 -1.14288,-0.8834 -0.94747,-2.29548 0.41885,-3.02671 0.69226,-0.37049 1.3598,-0.0858 4.11348,1.75422 1.80791,1.20806 3.28711,2.48402 3.28711,2.83546 0,0.99051 -1.21099,2.48288 -1.99071,2.45325 -0.3857,-0.0147 -1.63312,-0.75284 -2.77204,-1.6404 z"
     id="path3663" />
  <path
     style="fill:#ff40a9;fill-opacity:1;fill-rule:nonzero;stroke:none"
     d="m 360.12694,366.73155 c -0.9816,-0.52048 -2.1175,-1.40631 -3.47163,-2.70734 -1.38142,-1.32726 -1.53551,-1.79814 -0.9278,-2.83513 0.44544,-0.76007 0.80927,-1.86128 0.81159,-2.45641 0.003,-0.71239 1.00881,-0.8234 1.75842,-0.19403 0.12095,0.10155 0.54937,0.30354 0.95203,0.44887 0.86793,0.31326 2.64584,1.35 4.72801,2.75703 l 1.50664,1.01812 -0.85332,0.89702 c -0.46933,0.49335 -1.33562,1.47356 -1.92508,2.17823 -1.22451,1.46382 -1.39325,1.52229 -2.57886,0.89364 z"
     id="path3687" />
  <path
     style="fill:#ff40a9;fill-opacity:1;fill-rule:nonzero;stroke:none"
     d="m 355.4425,370.31734 c -1.36907,-0.95524 -2.75279,-1.86401 -3.07493,-2.01948 -0.32213,-0.15547 -0.70921,-0.41947 -0.86018,-0.58667 -0.2708,-0.29993 -0.26334,-0.32367 0.55691,-1.77235 0.93375,-1.64914 1.25184,-1.86666 2.05215,-1.40335 0.24612,0.14249 1.13936,0.55408 1.98496,0.91465 1.90586,0.81266 4.07231,1.99429 4.68885,2.55742 0.56732,0.51816 0.51857,0.89655 -0.24207,1.87901 -0.60528,0.78178 -2.19575,2.20245 -2.44277,2.18197 -0.0955,-0.008 -1.29384,-0.79596 -2.66292,-1.7512 z"
     id="path3689" />
  <path
     style="fill:#ff40a9;fill-opacity:1;fill-rule:nonzero;stroke:none"
     d="m 366.7167,360.77495 c -0.855,-0.67758 -4.36154,-2.85332 -5.63683,-3.49754 -1.25696,-0.63497 -1.46425,-0.85418 -1.46425,-1.54846 0,-0.74305 1.08272,-2.73437 1.69122,-3.11044 0.26952,-0.16657 0.52806,-0.42268 0.57454,-0.56912 0.0465,-0.14645 0.20971,-0.37957 0.36272,-0.51805 0.26547,-0.24024 0.32735,-0.22328 1.3507,0.37007 1.34197,0.77809 6.97402,4.51025 7.0904,4.69856 0.11054,0.17885 -1.43763,3.30003 -1.87841,3.78695 -0.45545,0.50313 -1.01027,0.87754 -1.28019,0.86391 -0.12302,-0.006 -0.48747,-0.22035 -0.8099,-0.47588 l 0,0 z"
     id="path3691" />
  <path
     style="fill:#ff40a9;fill-opacity:1;fill-rule:nonzero;stroke:none"
     d="m 373.81885,376.09213 c -0.52347,-0.37473 -2.36842,-1.63241 -4.0999,-2.79486 -1.73148,-1.16244 -3.17144,-2.13438 -3.19991,-2.15986 -0.10299,-0.0922 1.21689,-2.41943 1.54918,-2.73161 l 0.34076,-0.32012 1.83388,0.92535 c 2.15593,1.08785 5.34347,3.06246 6.3675,3.94454 0.71332,0.61444 0.71946,0.62707 0.50562,1.04058 -0.36546,0.70672 -1.9907,2.78733 -2.17325,2.78217 -0.0947,-0.003 -0.60041,-0.31146 -1.12388,-0.68619 z"
     id="path3693" />
  <path
     style="fill:none;stroke:#000000;stroke-width:1.98199999;stroke-linecap:butt;stroke-linejoin:miter;stroke-miterlimit:4;stroke-opacity:1;stroke-dasharray:none;stroke-dashoffset:0"
     d="m 306.06196,335.46267 c 1.80316,6.1993 66.96622,37.16213 66.96622,37.16213"
     id="path3253-1"
     inkscape:connector-curvature="0"
     sodipodi:nodetypes="cc" />
  <text
     xml:space="preserve"
     style="font-size:22px;font-style:normal;font-variant:normal;font-weight:normal;font-stretch:normal;opacity:0.95;fill:#ffffff;fill-opacity:0.95;fill-rule:nonzero;stroke:#000000;stroke-width:0.89999998;stroke-linecap:butt;stroke-linejoin:miter;stroke-miterlimit:4;stroke-opacity:1;stroke-dasharray:none;stroke-dashoffset:0;font-family:Goblin;-inkscape-font-specification:Goblin"
     x="233.86311"
     y="327.96237"
     id="text3241-7"><tspan
       sodipodi:role="line"
       x="233.86311"
       y="327.96237"
       id="tspan3245-0"
       style="font-size:22px;fill-rule:nonzero;stroke-width:0.89999998;stroke-miterlimit:4;stroke-dasharray:none">Dance</tspan></text>
  <text
     xml:space="preserve"
     style="font-size:48.68118668px;font-style:normal;font-variant:normal;font-weight:bold;font-stretch:normal;text-align:center;text-anchor:middle;fill:#ffffff;fill-opacity:1;stroke:#000000;stroke-width:1.01400006;stroke-linecap:butt;stroke-linejoin:miter;stroke-miterlimit:4;stroke-opacity:1;stroke-dasharray:none;font-family:Goblin;-inkscape-font-specification:Goblin Bold"
     x="552.28552"
     y="495.83029"
     id="text2891"
     transform="scale(0.89213371,1.1209082)"><tspan
       id="tspan2897"
       sodipodi:role="line"
       x="552.28552"
       y="495.83029"
       style="text-align:center;text-anchor:middle;stroke-width:1.01400006;stroke-miterlimit:4;stroke-dasharray:none">TO JOIN THE GAME</tspan></text>
  <text
     id="text3063"
     y="277.46237"
     x="252.86311"
     style="font-size:22px;font-style:normal;font-variant:normal;font-weight:normal;font-stretch:normal;opacity:0.95;fill:#ffffff;fill-opacity:0.95;fill-rule:nonzero;stroke:#000000;stroke-width:0.89999998;stroke-linecap:butt;stroke-linejoin:miter;stroke-miterlimit:4;stroke-opacity:1;stroke-dasharray:none;stroke-dashoffset:0;font-family:Goblin;-inkscape-font-specification:Goblin"
     xml:space="preserve"><tspan
       style="font-size:22px;fill-rule:nonzero;stroke-width:0.89999998;stroke-miterlimit:4;stroke-dasharray:none"
       id="tspan3065"
       y="277.46237"
       x="252.86311"
       sodipodi:role="line">Drums</tspan></text>
  <path
     id="path3067"
     d="m 355.56196,282.46267 c 17.30316,4.1993 65.46622,-4.33787 65.46622,-4.33787"
     style="fill:none;stroke:#000000;stroke-width:1.98199999;stroke-linecap:butt;stroke-linejoin:miter;stroke-miterlimit:4;stroke-opacity:1;stroke-dasharray:none;stroke-dashoffset:0"
     inkscape:connector-curvature="0"
     sodipodi:nodetypes="cc" />
  <text
     xml:space="preserve"
     style="font-size:12px;font-style:normal;font-weight:normal;line-height:125%;letter-spacing:0px;word-spacing:0px;fill:#000000;fill-opacity:1;stroke:none;font-family:Sans"
     x="497"
     y="419.5"
     id="text3079"
     sodipodi:linespacing="125%"><tspan
       sodipodi:role="line"
       id="tspan3081"
       x="497"
       y="419.5" /></text>
</svg>
