<?xml version="1.0" encoding="UTF-8" standalone="no"?>
<!-- Created with Inkscape (http://www.inkscape.org/) -->

<svg
   xmlns:dc="http://purl.org/dc/elements/1.1/"
   xmlns:cc="http://creativecommons.org/ns#"
   xmlns:rdf="http://www.w3.org/1999/02/22-rdf-syntax-ns#"
   xmlns:svg="http://www.w3.org/2000/svg"
   xmlns="http://www.w3.org/2000/svg"
   xmlns:xlink="http://www.w3.org/1999/xlink"
   xmlns:sodipodi="http://sodipodi.sourceforge.net/DTD/sodipodi-0.dtd"
   xmlns:inkscape="http://www.inkscape.org/namespaces/inkscape"
   width="512"
   height="64"
   id="svg2"
   sodipodi:version="0.32"
   inkscape:version="0.48.4 r9939"
   sodipodi:docname="instruments.svg"
   inkscape:output_extension="org.inkscape.output.svg.inkscape"
   version="1.0">
  <defs
     id="defs4">
    <inkscape:path-effect
       effect="bend_path"
       id="path-effect2844"
       is_visible="true"
       bendpath="m 266.25,32.092577 41.87495,0"
       prop_scale="1"
       scale_y_rel="false"
       vertical="false" />
    <inkscape:perspective
       sodipodi:type="inkscape:persp3d"
       inkscape:vp_x="0 : 128 : 1"
       inkscape:vp_y="0 : 1000 : 0"
       inkscape:vp_z="256 : 128 : 1"
       inkscape:persp3d-origin="128 : 85.333333 : 1"
       id="perspective17" />
    <linearGradient
       id="linearGradient3751"
       inkscape:collect="always">
      <stop
         id="stop3753"
         offset="0"
         style="stop-color:black;stop-opacity:1;" />
      <stop
         id="stop3755"
         offset="1"
         style="stop-color:black;stop-opacity:0;" />
    </linearGradient>
    <linearGradient
       inkscape:collect="always"
       xlink:href="#linearGradient3751"
       id="linearGradient3484"
       gradientUnits="userSpaceOnUse"
       gradientTransform="matrix(0.336682,0,0,0.336682,-81.3739,-51.8729)"
       x1="665.12128"
       y1="684.16162"
       x2="381.28015"
       y2="449.80624" />
    <inkscape:perspective
       id="perspective2830"
       inkscape:persp3d-origin="0.5 : 0.33333333 : 1"
       inkscape:vp_z="1 : 0.5 : 1"
       inkscape:vp_y="0 : 1000 : 0"
       inkscape:vp_x="0 : 0.5 : 1"
       sodipodi:type="inkscape:persp3d" />
    <inkscape:perspective
       id="perspective3827"
       inkscape:persp3d-origin="0.5 : 0.33333333 : 1"
       inkscape:vp_z="1 : 0.5 : 1"
       inkscape:vp_y="0 : 1000 : 0"
       inkscape:vp_x="0 : 0.5 : 1"
       sodipodi:type="inkscape:persp3d" />
    <filter
       id="filter3945"
       inkscape:label="Drop Shadow"
       color-interpolation-filters="sRGB">
      <feFlood
         id="feFlood3947"
         flood-opacity="0.80000000000000004"
         flood-color="rgb(0,8,255)"
         result="flood" />
      <feComposite
         id="feComposite3949"
         in2="SourceGraphic"
         in="flood"
         operator="in"
         result="composite1" />
      <feGaussianBlur
         id="feGaussianBlur3951"
         stdDeviation="5"
         result="blur" />
      <feOffset
         id="feOffset3953"
         dx="0"
         dy="0"
         result="offset" />
      <feComposite
         id="feComposite3955"
         in2="offset"
         in="SourceGraphic"
         operator="over"
         result="composite2" />
    </filter>
  </defs>
  <sodipodi:namedview
     id="base"
     pagecolor="#ffffff"
     bordercolor="#666666"
     borderopacity="1.0"
     inkscape:pageopacity="0.0"
     inkscape:pageshadow="2"
     inkscape:zoom="2.2382812"
     inkscape:cx="158.5638"
     inkscape:cy="3.5322802"
     inkscape:document-units="px"
     inkscape:current-layer="layer1"
     inkscape:window-width="1636"
     inkscape:window-height="816"
     inkscape:window-x="127"
     inkscape:window-y="25"
     showguides="true"
     inkscape:guide-bbox="true"
     width="256px"
     height="256px"
     borderlayer="false"
     showgrid="true"
     inkscape:window-maximized="0"
     fit-margin-left="20"
     fit-margin-right="20"
     fit-margin-top="0"
     fit-margin-bottom="0">
    <inkscape:grid
       type="xygrid"
       id="grid3957"
       empspacing="64"
       visible="true"
       enabled="true"
       snapvisiblegridlinesonly="true" />
  </sodipodi:namedview>
  <metadata
     id="metadata7">
    <rdf:RDF>
      <cc:Work
         rdf:about="">
        <dc:format>image/svg+xml</dc:format>
        <dc:type
           rdf:resource="http://purl.org/dc/dcmitype/StillImage" />
      </cc:Work>
    </rdf:RDF>
  </metadata>
  <g
     inkscape:label="Capa 1"
     inkscape:groupmode="layer"
     id="layer1"
     transform="translate(13.268664,-5.200002)">
    <path
       style="fill:#ffffff;fill-opacity:1;stroke:#000000;stroke-width:0.5;stroke-miterlimit:4;stroke-opacity:1;stroke-dasharray:none;filter:url(#filter3945)"
       d="m 226.89253,55.978173 c -2.25125,-0.112256 -4.45812,-0.948323 -6.24728,-2.366752 -0.5588,-0.443016 -1.37196,-1.253176 -1.79256,-1.785958 -1.28127,-1.623021 -2.04989,-3.436475 -2.32256,-5.479857 l -0.0278,-0.207947 -0.23969,0.0071 -0.2397,0.0071 -0.21864,0.665268 -0.21865,0.665268 0.005,0.913719 0.005,0.913727 0.40873,0.10752 c 0.42541,0.111911 0.5774,0.179185 0.618,0.273547 0.0132,0.03066 0.0316,0.170187 0.041,0.31004 l 0.017,0.254274 -0.0665,0.02679 c -0.0366,0.01473 -0.1313,0.02347 -0.21047,0.01942 l -0.14395,-0.0074 -0.0337,-0.141218 c -0.0273,-0.114136 -0.0432,-0.141362 -0.083,-0.142044 -0.0827,-0.0014 -0.81037,-0.199208 -0.90187,-0.245182 -0.0995,-0.04997 -0.15496,-0.147463 -0.15496,-0.272167 0,-0.0482 -0.009,-0.0934 -0.0196,-0.100453 -0.0278,-0.0182 -0.12266,0.01129 -0.12266,0.03812 0,0.01233 -0.34314,1.064442 -0.76255,2.338049 -0.64426,1.956413 -0.76314,2.339006 -0.76635,2.466255 -0.003,0.12581 -0.0339,0.226978 -0.18641,0.613937 -0.22877,0.580465 -0.27247,0.659773 -0.4109,0.745673 -0.19674,0.122081 -0.48664,0.07864 -0.69006,-0.103413 -0.0997,-0.08924 -0.15448,-0.200673 -0.13373,-0.272107 0.0218,-0.07524 0.76296,-1.99256 0.79369,-2.053346 0.0201,-0.03975 0.0332,-0.04356 0.0729,-0.02106 0.0266,0.0151 0.0511,0.02371 0.0544,0.01914 0.003,-0.0046 0.30164,-0.9107 0.66307,-2.013628 l 0.65714,-2.00532 -0.0486,-0.05485 c -0.0268,-0.03017 -0.0486,-0.07869 -0.0486,-0.107829 0,-0.05764 0.16049,-0.553384 0.19428,-0.600144 0.0114,-0.01581 0.0551,-0.03561 0.097,-0.04401 l 0.0762,-0.01524 0.27925,-0.847195 0.27924,-0.847205 -6.6e-4,-0.797063 -6.7e-4,-0.797056 -0.23709,0 -0.23709,0 -0.002,0.194558 c -0.004,0.301145 -0.0121,0.318658 -0.15787,0.327647 -0.11671,0.0072 -0.12367,0.0041 -0.1413,-0.06276 -0.0241,-0.09156 -0.0241,-1.128577 0,-1.220128 0.0176,-0.06686 0.0246,-0.06995 0.1413,-0.06277 0.14577,0.009 0.15422,0.0265 0.15787,0.327646 l 0.002,0.194558 0.23709,0 0.23709,0 0,-1.069851 0,-1.069862 -0.14818,0.01544 c -0.57354,0.05976 -1.00574,0.07622 -2.0271,0.07719 l -1.14395,0.0011 -1e-5,3.137088 0,3.137089 0.0568,0.05115 c 0.0505,0.04551 0.0583,0.07818 0.0705,0.295917 0.0115,0.205429 0.008,0.244776 -0.0212,0.244776 -0.0294,0 -0.0349,0.06618 -0.0349,0.414842 l 0,0.414841 -0.0652,0.02667 c -0.0924,0.03783 -0.5455,0.01699 -0.63422,-0.02918 l -0.0711,-0.037 -0.007,-0.360948 c -0.005,-0.285159 5.1e-4,-0.369437 0.0274,-0.401366 0.0208,-0.02486 0.0401,-0.127448 0.05,-0.266361 0.0193,-0.272054 0.029,-0.313801 0.0731,-0.313801 0.0293,0 0.0339,-0.435702 0.0339,-3.173555 l 0,-3.173537 -0.1719,-0.01421 c -0.7811,-0.06456 -1.39334,-0.119814 -1.45526,-0.131339 l -0.0742,-0.01383 -0.018,1.100547 c -0.01,0.605292 -0.0155,1.812245 -0.0125,2.682105 0.006,1.641067 -0.003,1.922017 -0.0601,1.972347 -0.0214,0.01885 -0.0336,0.07859 -0.0336,0.164596 l 0,0.134997 -0.12447,-3.89e-4 c -0.0685,-2.07e-4 -0.13747,-0.0091 -0.15335,-0.01982 -0.0481,-0.03235 -0.0568,-0.457925 -0.068,-3.337151 l -0.0108,-2.742304 -0.0529,-0.01194 c -0.029,-0.0066 -0.15419,-0.02454 -0.27807,-0.03992 -0.34987,-0.04344 -1.36734,-0.217662 -1.81372,-0.310558 l -0.40307,-0.08388 -0.0784,0.07845 c -0.0749,0.07486 -0.0873,0.07844 -0.27267,0.07797 -0.3727,-9.5e-4 -0.6721,-0.152846 -0.71572,-0.363096 -0.009,-0.04165 -0.0283,-0.07574 -0.0438,-0.07574 -0.0155,0 -0.22533,-0.06337 -0.46637,-0.14081 -0.24105,-0.07746 -0.45693,-0.146557 -0.47976,-0.153563 -0.0393,-0.01206 -0.0415,0.113619 -0.041,2.393926 l 4.7e-4,2.40666 0.93011,1.408293 c 2.91626,4.415576 3.49407,5.280698 3.53135,5.287324 0.0395,0.007 1.05764,1.521385 1.07913,1.605059 0.029,0.113118 -0.12715,0.222388 -0.3173,0.221975 -0.14217,-2.94e-4 -0.32456,-0.08758 -0.42585,-0.20378 -0.1202,-0.137878 -0.53568,-0.779259 -0.57526,-0.888003 -0.0201,-0.05523 -0.55481,-0.885559 -1.18825,-1.845166 -0.63345,-0.959606 -1.57276,-2.382375 -2.08736,-3.16171 l -0.93565,-1.416945 -0.0126,1.165905 c -0.01,0.894551 -0.0199,1.181246 -0.0439,1.231783 -0.0498,0.104629 -0.17602,0.16143 -0.62344,0.28044 -0.363,0.09655 -0.4232,0.106596 -0.4526,0.07549 -0.0294,-0.03112 -0.0379,-0.01568 -0.0644,0.116068 -0.0167,0.08358 -0.0452,0.164906 -0.0632,0.180747 -0.021,0.01847 -0.0886,0.02403 -0.18855,0.01554 l -0.15581,-0.01324 0.0166,0.355022 c 0.01,0.195264 0.0238,0.455042 0.0327,0.577298 0.016,0.221138 0.0158,0.222431 -0.0442,0.249313 -0.0332,0.01487 -0.13845,0.02781 -0.23403,0.02876 -0.13901,0.0014 -0.17984,-0.007 -0.20395,-0.04192 -0.038,-0.0551 -0.0716,-0.565168 -0.0398,-0.60569 0.0149,-0.01894 0.003,-0.293639 -0.0341,-0.781966 -0.0313,-0.414023 -0.0572,-0.78666 -0.0575,-0.828079 l -5.1e-4,-0.07531 -0.17194,0.0088 c -0.21713,0.01109 -0.56417,-0.03793 -0.69778,-0.09857 l -0.10245,-0.0465 -5.7e-4,-0.157789 -5.6e-4,-0.157798 -0.89135,-0.677812 c -0.49024,-0.372802 -0.94758,-0.720205 -1.01633,-0.772011 l -0.125,-0.0942 -1.85682,2.516759 c -1.02125,1.384222 -2.01125,2.725757 -2.19998,2.981188 -0.18874,0.255438 -0.38922,0.517607 -0.4455,0.582603 -0.0628,0.07254 -0.10236,0.14208 -0.10236,0.180082 0,0.06352 -0.0313,0.111815 -0.37,0.570361 -0.2027,0.27448 -0.31785,0.397165 -0.43081,0.459013 -0.0873,0.04776 -0.26813,0.07468 -0.3593,0.05348 -0.0986,-0.02293 -0.21505,-0.129804 -0.21484,-0.197164 1e-4,-0.03218 0.21305,-0.345359 0.52338,-0.769725 0.56633,-0.774427 0.6122,-0.832901 0.63945,-0.81506 0.01,0.0065 1.54472,-2.056591 3.41064,-4.584651 l 3.39255,-4.596478 0,-0.171566 c 0,-0.155693 0.006,-0.176398 0.0628,-0.223898 0.0346,-0.02878 0.10391,-0.05929 0.1541,-0.06779 l 0.0913,-0.01545 -2.7e-4,-2.927709 -2.6e-4,-2.927718 -0.12421,-0.05021 -0.1242,-0.05021 -0.007,-0.561691 c -0.004,-0.360723 0.002,-0.572898 0.0182,-0.593034 0.0135,-0.01724 0.0884,-0.05031 0.16644,-0.07349 l 0.14183,-0.04214 -5.1e-4,-5.314536 -5.2e-4,-5.314526 -0.0765,-0.03766 c -0.0748,-0.0368 -0.0776,-0.04441 -0.1267,-0.333447 -0.0276,-0.162681 -0.0548,-0.30071 -0.0605,-0.306717 -0.006,-0.006 -0.63225,1.078969 -1.3924,2.411069 -0.76014,1.332097 -1.40478,2.43883 -1.43251,2.459407 -0.0865,0.06413 -0.22335,0.04785 -0.30252,-0.03597 -0.14603,-0.154624 -0.21452,-0.01484 1.35338,-2.761776 l 1.42268,-2.492517 -0.0748,-0.09021 c -0.25414,-0.306487 -0.28021,-0.829203 -0.0635,-1.272407 0.18779,-0.383985 0.45767,-0.637063 0.83508,-0.783093 0.0534,-0.02067 0.2031,-0.04498 0.33259,-0.05402 l 0.23543,-0.01643 1.94009,-3.399276 c 1.06706,-1.869605 1.93526,-3.404399 1.92935,-3.41066 -0.006,-0.0063 -0.38211,-0.110679 -0.83599,-0.23204 -2.97441,-0.795303 -5.47418,-1.716945 -7.36887,-2.716814 -1.26096,-0.665449 -2.06354,-1.240104 -2.53024,-1.811678 -0.40786,-0.4995171 -0.48344,-0.9656681 -0.21854,-1.3477781 0.26275,-0.3789816 0.97639,-0.6818844 1.97825,-0.8396545 1.09329,-0.1721616 2.84778,-0.1903931 4.62323,-0.048043 4.5688,0.3663255 10.37056,1.7427037 14.36756,3.4084986 2.53163,1.055084 4.12747,2.104617 4.56238,3.000531 0.30803,0.634541 -0.0373,1.17428 -0.97087,1.517335 -0.44275,0.162694 -1.21113,0.318677 -1.77186,0.359693 -0.12713,0.0093 -0.23116,0.0244 -0.23116,0.03356 0,0.0092 0.056,0.03171 0.12447,0.0501 0.21371,0.05742 1.07854,0.364594 1.48772,0.528421 2.69962,1.080787 4.87527,2.662121 5.17843,3.763838 0.0765,0.278039 0.06,0.372542 -0.18771,1.069301 -0.12388,0.348555 -0.22515,0.643509 -0.22504,0.655456 1.2e-4,0.01194 0.3602,0.163291 0.80018,0.336334 l 0.79996,0.314616 0.008,-0.08836 c 0.01,-0.109752 0.041,-0.151759 0.11375,-0.151759 0.0563,0 0.0564,-2.86e-4 0.0564,-0.310808 l 0,-0.31081 -0.18374,-0.02182 -0.18374,-0.02182 -0.007,-0.11599 c -0.009,-0.148277 -0.0139,-0.146917 0.51684,-0.146917 0.53069,0 0.52591,-0.0014 0.51682,0.146917 l -0.007,0.11599 -0.1963,0.02236 -0.19631,0.02236 0.007,0.303788 0.007,0.303783 0.0711,0.01289 c 0.0652,0.01183 0.0717,0.02213 0.0781,0.125726 0.007,0.110496 0.01,0.113627 0.11856,0.1505 l 0.11151,0.03766 0,0.275807 0,0.275809 -0.0651,0.03309 -0.0651,0.03309 0,0.539163 c 0,0.490531 0.004,0.54063 0.0415,0.555481 0.0228,0.009 0.13216,0.07846 0.243,0.154408 0.46172,0.316348 0.41758,0.297843 0.64774,0.271716 0.12794,-0.01452 0.26313,-0.01406 0.36366,0.0013 0.18175,0.02767 0.16802,0.03376 0.5952,-0.263939 0.12078,-0.08418 0.24082,-0.16018 0.26671,-0.168885 0.0451,-0.01514 0.0471,-0.03906 0.0471,-0.549353 l 0,-0.533518 -0.0771,-0.03591 -0.0771,-0.03591 -0.007,-0.225935 c -0.01,-0.310962 -0.002,-0.3332 0.12603,-0.36946 0.10471,-0.02966 0.10618,-0.03154 0.10618,-0.137113 0,-0.09971 0.005,-0.108497 0.0771,-0.128147 l 0.0771,-0.02111 0.007,-0.302435 0.007,-0.302439 -0.1963,-0.02236 -0.19631,-0.02236 -0.007,-0.115857 c -0.007,-0.112189 -0.005,-0.116362 0.0681,-0.131797 0.0978,-0.02071 0.8233,-0.02071 0.92107,0 0.0728,0.01544 0.0751,0.01961 0.0681,0.131797 l -0.007,0.115857 -0.19562,0.02229 -0.19559,0.02229 0,0.298581 c 0,0.262454 0.005,0.300222 0.0415,0.312154 0.0911,0.02981 0.11311,0.05682 0.12446,0.152802 l 0.0118,0.100092 0.81601,-0.32235 c 0.44883,-0.177291 0.81916,-0.325664 0.82299,-0.329713 0.004,-0.004 -0.12154,-0.36835 -0.27859,-0.809568 -0.26261,-0.737755 -0.28551,-0.81574 -0.28493,-0.970643 9.7e-4,-0.310032 0.17383,-0.646694 0.53638,-1.046033 0.55868,-0.615363 1.34215,-1.186604 2.45421,-1.789417 1.42729,-0.773683 3.26763,-1.429996 4.69437,-1.67412 0.61572,-0.105365 0.74483,-0.116319 1.36324,-0.115698 0.55163,5.55e-4 0.63998,0.0065 0.84048,0.05617 0.2371,0.05879 0.48263,0.167829 0.61056,0.271146 0.10792,0.08717 0.17335,0.217541 0.32614,0.649939 0.111,0.314111 0.14873,0.39258 0.22934,0.476981 0.053,0.05556 0.11053,0.129759 0.12775,0.164894 0.0466,0.0952 0.10013,0.334469 0.13161,0.588469 0.025,0.201471 0.15433,0.581256 1.21042,3.55422 0.93238,2.624586 1.18249,3.353016 1.18249,3.443857 l 0,0.115206 0.41011,0.0083 c 0.45047,0.0092 0.50195,0.02452 0.58201,0.173523 l 0.0392,0.073 0.32476,1.59e-4 0.32477,1.57e-4 0.007,-0.131444 c 0.007,-0.125156 0.0118,-0.134159 0.10452,-0.188183 0.094,-0.05474 0.0979,-0.06217 0.11262,-0.211174 0.0169,-0.171409 0.0374,-0.210155 0.12268,-0.232838 l 0.0581,-0.01543 0.006,-1.260132 0.006,-1.260133 0.0855,-0.02141 c 0.0479,-0.01201 0.12082,-0.01172 0.16596,6.56e-4 l 0.0804,0.02207 0.006,1.256943 0.006,1.256952 0.0702,0.03075 c 0.0777,0.03411 0.0848,0.05107 0.10674,0.255233 0.0133,0.123772 0.0228,0.143998 0.0737,0.157539 0.10122,0.0269 0.15207,0.103007 0.15207,0.227639 l 0,0.11297 0.47347,0 c 2.11693,0 5.20246,0.213168 6.4021,0.442295 0.55827,0.10663 0.92401,0.239582 0.96422,0.350508 0.0251,0.06923 -0.0151,0.150828 -0.0994,0.201831 l -0.0852,0.05156 0.0857,0.06921 c 0.18648,0.150611 0.0586,0.304267 -0.35558,0.427169 -0.68347,0.202832 -2.20579,0.379418 -4.11349,0.477181 -0.93151,0.04773 -2.20625,0.08912 -2.74287,0.08906 l -0.40755,-5.2e-5 -0.008,0.09414 c -0.007,0.08485 -0.019,0.100487 -0.12569,0.158453 l -0.11832,0.06431 -0.0334,0.211839 c -0.0254,0.160885 -0.0355,0.577883 -0.0421,1.73379 l -0.009,1.521946 0.0616,0.04275 c 0.0339,0.0235 0.0819,0.08988 0.10653,0.147479 0.0429,0.100049 0.045,0.197621 0.0455,2.18045 l 5.4e-4,2.075725 0.0987,0.0707 c 0.17061,0.122194 0.19637,0.208007 0.20585,0.685749 0.0105,0.52859 -0.0109,0.639491 -0.15227,0.791379 -0.0721,0.07738 -0.10505,0.134237 -0.10542,0.181556 -7.6e-4,0.101481 -0.0814,0.272167 -0.15159,0.320868 l -0.0612,0.0425 0,2.855027 0,2.855017 0.0945,0.02997 c 0.12137,0.03849 0.14265,0.0847 0.14265,0.309644 l 0,0.184326 1.87586,2.836106 c 1.03171,1.559861 2.34391,3.543656 2.91601,4.408426 0.57207,0.864769 1.0589,1.577607 1.08182,1.584078 0.0614,0.01734 1.02558,1.488307 1.02558,1.564682 0,0.09557 -0.12154,0.16162 -0.29636,0.16106 -0.16924,-5.44e-4 -0.30071,-0.0582 -0.4065,-0.178296 -0.11474,-0.130243 -0.53254,-0.776609 -0.56588,-0.875441 -0.0162,-0.04832 -0.29919,-0.494546 -0.62862,-0.991612 -0.32945,-0.497067 -0.88186,-1.333047 -1.22757,-1.85772 -2.2958,-3.484354 -2.14104,-3.25616 -2.18264,-3.218226 -0.0367,0.03347 -1.00307,0.873353 -1.01777,0.884569 -0.004,0.0029 0.0636,0.07703 0.14987,0.164708 0.0862,0.08769 0.14535,0.163456 0.13139,0.168383 -0.0178,0.0063 -0.0254,0.724674 -0.0254,2.405805 0,1.591514 0.008,2.391641 0.0237,2.381331 0.0131,-0.0085 0.0237,-0.07133 0.0237,-0.139552 0,-0.06822 0.008,-0.123599 0.0178,-0.123056 0.01,5.35e-4 0.10847,0.04854 0.21932,0.106691 0.2318,0.121599 0.27255,0.183153 0.3156,0.476801 0.0206,0.140303 0.019,0.176096 -0.009,0.203522 -0.0186,0.0183 -0.50293,0.148315 -1.07615,0.288938 -0.57319,0.140612 -1.04656,0.260313 -1.05193,0.26598 -0.006,0.0057 0.0288,0.05808 0.0761,0.116458 0.0472,0.05837 0.0858,0.131519 0.0858,0.16255 0,0.08899 -0.10635,0.160482 -0.23874,0.160482 -0.15654,0 -0.21789,-0.02981 -0.36542,-0.177555 l -0.12732,-0.127508 -0.34264,0.08314 c -0.24372,0.05914 -0.3393,0.09231 -0.33112,0.114878 0.007,0.01745 1.7e-4,0.03173 -0.0137,0.03173 -0.0138,0 -0.30041,-0.207136 -0.63674,-0.460297 -1.53716,-1.157028 -2.33747,-1.749795 -2.34774,-1.738933 -0.006,0.0065 9.6e-4,0.05172 0.0165,0.100513 0.0246,0.0789 0.0327,0.0854 0.0729,0.05879 0.0291,-0.01927 0.0526,-0.02121 0.0657,-0.0054 0.0344,0.041 0.81046,2.054961 0.81046,2.103229 0,0.07087 -0.0603,0.175786 -0.13402,0.233225 -0.35312,0.275117 -0.73446,0.213951 -0.90233,-0.144737 -0.028,-0.05979 -0.12633,-0.304001 -0.21853,-0.542712 -0.13438,-0.347836 -0.16759,-0.459995 -0.16738,-0.56484 2.1e-4,-0.103137 -0.0663,-0.334929 -0.31415,-1.094853 l -0.31441,-0.964033 -0.17064,-0.134288 c -0.0939,-0.07386 -0.17588,-0.134281 -0.18233,-0.134281 -0.007,0 -0.27239,0.353278 -0.59098,0.785063 -0.31858,0.431777 -0.59548,0.799334 -0.61534,0.816778 -0.0199,0.01745 -0.043,0.07077 -0.0515,0.118484 -0.0103,0.0578 -0.11129,0.217315 -0.30279,0.477964 -0.30515,0.415326 -0.41793,0.516012 -0.61819,0.551831 -0.17915,0.03205 -0.41335,-0.09335 -0.39129,-0.209516 0.004,-0.01976 0.24688,-0.361845 0.54029,-0.760183 0.36341,-0.493383 0.54855,-0.725312 0.58086,-0.727608 0.0261,-0.0018 0.003,-0.01638 -0.0524,-0.03228 -0.14765,-0.04276 -0.15094,-0.05079 -0.12498,-0.305675 0.0439,-0.431361 0.11812,-1.492742 0.11812,-1.688879 l 0,-0.197447 -0.64609,-0.566039 c -0.48314,-0.423306 -0.65295,-0.558888 -0.67333,-0.537684 -0.0664,0.06897 -3.2326,4.887427 -3.26422,4.967547 -0.0427,0.108148 -0.34801,0.577117 -0.44891,0.689475 -0.0992,0.110436 -0.20376,0.157876 -0.34811,0.157876 -0.0991,0 -0.13329,-0.012 -0.18229,-0.06388 -0.0331,-0.03513 -0.0546,-0.07958 -0.0477,-0.09876 0.0291,-0.0804 0.81193,-1.242334 0.83724,-1.242747 0.0152,-2.51e-4 0.13696,-0.167081 0.27058,-0.370739 0.13357,-0.20366 0.281,-0.426255 0.3276,-0.494669 0.10085,-0.148058 0.0777,-0.135936 -0.18723,0.09831 -1.15366,1.019779 -2.63738,1.834375 -4.13719,2.271396 -0.87017,0.253541 -1.63136,0.380023 -2.57242,0.427436 -0.54983,0.02769 -0.53461,0.02771 -1.11432,-0.0012 z m 20.38962,-3.361927 c 0,-0.317572 -0.005,-0.577394 -0.0114,-0.577394 -0.0239,0 -1.53816,0.377211 -1.54551,0.384993 -0.008,0.0086 1.50823,0.765307 1.53916,0.768162 0.01,8.98e-4 0.0178,-0.258191 0.0178,-0.575761 z m -7.46021,-0.552288 0.34395,-0.464431 -0.0587,-0.05021 c -0.0543,-0.04646 -0.0581,-0.06408 -0.0515,-0.235839 l 0.007,-0.185627 0.24391,-0.06149 c 0.27525,-0.06941 0.25874,-0.03727 0.16163,-0.314759 l -0.0507,-0.145013 -0.0991,0.07717 c -0.0886,0.06897 -0.0999,0.08957 -0.10628,0.193963 -0.006,0.09962 -0.0177,0.12328 -0.0786,0.160842 -0.0893,0.05501 -0.37671,0.103714 -0.54576,0.09247 l -0.12774,-0.0085 -0.0129,0.125524 c -0.0414,0.403592 -0.0804,1.125894 -0.0677,1.252634 l 0.0149,0.148048 0.0418,-0.06018 c 0.023,-0.0331 0.19653,-0.269173 0.38573,-0.524603 z m 5.06562,-1.714097 0,-0.509083 0.15418,-0.161827 c 0.13637,-0.143097 0.17821,-0.170608 0.36157,-0.237761 l 0.20737,-0.07594 0.007,-0.113015 0.007,-0.113015 -0.18479,-0.139698 c -0.10165,-0.07684 -0.5306,-0.403229 -0.95325,-0.725303 -0.53478,-0.407553 -0.7776,-0.578783 -0.79865,-0.563176 -0.0166,0.01234 -0.18848,0.237072 -0.38188,0.499412 -0.63593,0.86263 -0.98402,1.33875 -0.9875,1.350672 -0.007,0.02282 0.81991,1.125859 0.85406,1.139731 0.0256,0.0104 1.18092,0.117372 1.67341,0.154935 0.0383,0.0029 0.0415,-0.03661 0.0415,-0.505928 z m -2.60232,0.289525 c 0.13263,0.01123 0.25367,0.01722 0.26896,0.01329 0.0254,-0.0065 -0.46959,-0.70384 -0.50728,-0.714744 -0.0136,-0.0039 -0.59475,0.772225 -0.61576,0.822255 -0.004,0.0088 0.13269,-0.01933 0.30311,-0.06259 0.2889,-0.07333 0.32612,-0.07726 0.55097,-0.05822 z m -3.16605,-0.513673 c 0.0609,-0.0718 0.1517,-1.446587 0.14386,-2.177291 l -0.007,-0.590092 -0.63763,0.96455 c -0.3507,0.530495 -0.63874,0.977542 -0.64013,0.993441 -9.6e-4,0.01588 0.24288,0.245768 0.5428,0.510853 0.52304,0.46229 0.54562,0.479104 0.55321,0.411692 0.005,-0.03866 0.0243,-0.08958 0.0442,-0.113153 z m 0.90874,-0.002 c 0.012,-0.517443 0.008,-0.720869 -0.0149,-0.72086 -0.0164,0 -0.0315,0.09969 -0.0406,0.269872 -0.008,0.148428 -0.0219,0.330503 -0.0309,0.40461 -0.016,0.132244 -0.0154,0.134202 0.0348,0.105801 0.0281,-0.01591 0.0513,-0.04264 0.0517,-0.05942 z m 1.2578,-0.551408 c 0.16813,-0.127723 0.30316,-0.244024 0.30008,-0.258467 -0.006,-0.02885 -1.39947,-1.920437 -1.40793,-1.911482 -0.008,0.008 0.28435,0.877537 0.30716,0.914788 0.0106,0.01723 0.0439,0.03133 0.0742,0.03133 0.0772,0 0.094,0.02906 0.20213,0.34881 0.097,0.286876 0.0979,0.302042 0.0231,0.391764 -0.0404,0.04839 -0.038,0.06233 0.0655,0.382844 0.0591,0.182953 0.11252,0.332633 0.11879,0.332633 0.006,0 0.14891,-0.1045 0.31703,-0.232215 z m 2.00521,-2.202896 c 0.67733,-0.918189 1.47371,-1.99847 1.76971,-2.400621 l 0.53818,-0.731187 0,-0.163216 c 0,-0.184732 0.0151,-0.207361 0.17112,-0.256137 l 0.10153,-0.03174 0.006,-2.841189 0.006,-2.841196 -0.0949,-0.09563 c -0.0849,-0.08549 -0.0949,-0.108295 -0.0949,-0.215383 0,-0.109383 -0.01,-0.130088 -0.11261,-0.239074 -0.062,-0.06563 -0.14073,-0.1547 -0.17508,-0.197931 -0.0527,-0.06622 -0.079,-0.07861 -0.16716,-0.07861 -0.12327,0 -0.16152,0.03238 -0.16167,0.136816 -1.1e-4,0.100964 -0.0752,0.227791 -0.16364,0.276188 -0.0995,0.05446 -0.25881,0.04905 -0.35335,-0.01198 -0.12792,-0.08258 -0.15472,-0.18499 -0.16575,-0.633236 l -0.01,-0.395396 -0.0878,0 c -0.0698,0 -0.13623,0.03532 -0.32351,0.171895 -0.12965,0.09453 -0.25705,0.17751 -0.28313,0.184376 -0.0261,0.0069 -0.56612,0.392283 -1.20011,0.856472 -1.03818,0.760139 -1.15163,0.849844 -1.14201,0.903107 0.009,0.04542 -0.01,0.07523 -0.0753,0.128612 -0.0722,0.05826 -0.15868,0.223485 -0.5354,1.022119 l -0.44934,0.952626 0,0.260961 c 0,0.293924 -0.0113,0.318857 -0.16701,0.368264 l -0.0938,0.02974 0,1.602695 0,1.602703 0.17432,0 0.1743,0 0.0136,-0.219661 c 0.019,-0.30653 0.0217,-0.311498 0.16666,-0.302458 0.11063,0.0069 0.12142,0.01329 0.13969,0.08279 0.025,0.0948 0.0251,1.049156 1.9e-4,1.167346 -0.0179,0.08494 -0.0226,0.08811 -0.13914,0.09535 -0.14443,0.009 -0.14272,0.01202 -0.16467,-0.295814 l -0.0161,-0.226306 -0.1744,0 -0.17443,0 0,0.677337 0,0.677338 0.0653,0.01641 c 0.11445,0.02879 0.14816,0.0799 0.14816,0.224615 l 0,0.131863 0.87132,1.180849 c 0.80914,1.096629 0.874,1.17781 0.90939,1.138281 0.0209,-0.0234 0.59228,-0.793811 1.26962,-1.71199 z m 2.3728,0.999531 c 0.0161,-0.02059 0.0722,-0.05103 0.12447,-0.06763 l 0.0951,-0.03017 0,-1.655871 c 0,-1.307788 -0.006,-1.65595 -0.0296,-1.656226 -0.0163,-1.81e-4 -0.0515,-0.0065 -0.0781,-0.01413 -0.0409,-0.01165 -0.18763,0.174716 -0.94615,1.20226 -0.49373,0.668823 -0.89647,1.223768 -0.89498,1.233206 0.002,0.0094 0.37924,0.304053 0.83947,0.654692 l 0.83677,0.637541 0.0118,-0.133117 c 0.007,-0.0732 0.0251,-0.149956 0.0412,-0.170558 z m -42.51814,0.140448 c 0.18852,-0.08077 0.35671,-0.219929 0.5578,-0.461592 0.14139,-0.169884 0.16784,-0.215874 0.16784,-0.291725 l 0,-0.09004 -0.11261,0.09838 c -0.0619,0.05411 -0.30466,0.265741 -0.53938,0.470305 -0.23471,0.204557 -0.43698,0.381714 -0.44945,0.393687 -0.0304,0.0291 0.20152,-0.04433 0.3758,-0.119018 z m 44.57447,-0.534275 c 0.35246,-0.308926 0.6431,-0.574407 0.64588,-0.589954 0.007,-0.03514 -1.56264,-2.406435 -1.60115,-2.420031 -0.0497,-0.01754 -0.0335,0.88569 0.031,1.739063 0.0324,0.428031 0.0716,0.963609 0.0871,1.190182 0.0235,0.344151 0.0353,0.418395 0.0714,0.451178 0.0297,0.02694 0.0432,0.07382 0.0432,0.149697 0,0.10111 0.004,0.107545 0.0408,0.07601 0.0225,-0.01895 0.32918,-0.287221 0.68162,-0.596149 z m -46.32074,-0.141233 0.12421,-0.0502 2.6e-4,-1.735336 2.7e-4,-1.735335 -0.0758,-0.01606 c -0.0482,-0.01022 -0.0866,-0.0045 -0.1053,0.01569 -0.0162,0.01747 -0.44644,0.596597 -0.95611,1.28697 -0.83414,1.129871 -0.92247,1.25825 -0.88455,1.285649 0.0232,0.01675 0.4262,0.323136 0.89564,0.680875 l 0.85351,0.650421 0.0118,-0.166226 0.0118,-0.166236 0.1242,-0.05021 z m 1.9432,-0.259804 0.52403,-0.460635 -0.0613,-0.141863 c -0.0545,-0.126051 -0.0616,-0.17544 -0.0636,-0.44312 l -0.002,-0.30125 -0.63569,-0.960235 c -0.34963,-0.528132 -0.64533,-0.960237 -0.65712,-0.960237 -0.0522,0 -0.0201,0.989681 0.0729,2.247171 0.0864,1.167613 0.0984,1.280317 0.14224,1.32969 0.0305,0.03435 0.0478,0.0882 0.0478,0.148282 l 0,0.09435 0.0545,-0.04575 c 0.03,-0.02517 0.2903,-0.25305 0.57852,-0.5064 z m 0.52871,-4.269279 0,-2.106525 -0.27003,-0.13749 c -0.30335,-0.15445 -0.51683,-0.299877 -0.68648,-0.46763 -0.13142,-0.129949 -0.19693,-0.251212 -0.22015,-0.407491 -0.009,-0.05994 -0.0297,-0.131588 -0.0461,-0.159204 -0.074,-0.124196 -0.0856,-0.262504 -0.0588,-0.703486 l 0.0262,-0.432017 -0.0596,-0.12562 c -0.0328,-0.06909 -0.075,-0.186397 -0.0939,-0.260684 -0.0307,-0.120598 -0.0345,0.11701 -0.0358,2.216503 l -0.002,2.351575 0.0889,0.03032 c 0.14214,0.04848 0.14818,0.06034 0.14818,0.290698 l 0,0.210552 0.59747,0.903505 c 0.32861,0.496936 0.60067,0.903513 0.60458,0.903513 0.004,0 0.007,-0.947934 0.007,-2.106523 z m 35.01893,0.269189 c 0.0586,-0.04589 0.0702,-0.0725 0.0702,-0.161688 0,-0.05873 0.0107,-0.113756 0.0237,-0.122289 0.015,-0.0098 0.0237,-0.297323 0.0237,-0.779715 0,-0.492726 -0.009,-0.764195 -0.0237,-0.764195 -0.0131,0 -0.0237,-0.0135 -0.0237,-0.03 0,-0.0165 -0.0272,-0.06009 -0.0605,-0.09685 -0.0333,-0.03676 -0.0873,-0.150344 -0.12002,-0.252411 -0.0614,-0.191323 -0.74569,-1.786434 -0.75992,-1.771371 -0.0148,0.01568 0.22943,2.186903 0.26452,2.351473 0.0191,0.08975 0.0619,0.411709 0.0951,0.715468 0.0331,0.30376 0.0703,0.631364 0.0827,0.728022 0.0123,0.09665 0.0227,0.189856 0.0232,0.20711 5.6e-4,0.02205 0.0504,0.03139 0.16771,0.03139 0.13451,0 0.18056,-0.01066 0.23708,-0.05494 z m 1.51625,-3.835889 c 0.0914,-0.193126 0.16613,-0.361371 0.16613,-0.37388 0,-0.06697 -0.0878,-0.03239 -0.28732,0.113153 -0.12234,0.08926 -0.22645,0.174569 -0.23138,0.189588 -0.008,0.02232 0.16132,0.414876 0.18069,0.42057 0.003,9.23e-4 0.0805,-0.156314 0.17188,-0.349431 z m -0.1495,-0.871878 c -0.004,-0.0609 0.0322,-0.09474 0.34892,-0.32625 0.30637,-0.22395 0.36473,-0.257458 0.4388,-0.251997 0.0771,0.0057 0.18391,-0.06572 1.0975,-0.733577 0.55663,-0.406929 1.00809,-0.744059 1.00325,-0.749183 -0.005,-0.0051 -0.19894,0.0088 -0.43138,0.03092 -0.54359,0.05175 -1.50531,0.114792 -1.75364,0.114938 -0.18548,1.13e-4 -0.19361,0.0025 -0.20772,0.06219 -0.008,0.03414 -0.034,0.08215 -0.0576,0.10669 -0.0236,0.02455 -0.17866,0.410011 -0.34456,0.8566 -0.24176,0.65081 -0.29602,0.819123 -0.27339,0.848007 0.0215,0.02738 0.0217,0.05124 9.6e-4,0.09925 -0.015,0.03476 -0.0272,0.08581 -0.0272,0.113429 0,0.04628 0.009,0.0442 0.10521,-0.02641 0.0845,-0.06155 0.10434,-0.09003 0.10077,-0.144598 z m -0.98835,-0.142726 c 0,-0.04919 0.12474,-0.09121 0.32005,-0.107804 l 0.16597,-0.0141 0.27099,-0.731067 c 0.14902,-0.402082 0.28409,-0.764946 0.30012,-0.806373 l 0.0291,-0.07531 -1.32289,0 -1.3229,0 -0.0272,0.0796 c -0.0226,0.06602 -0.0173,0.125316 0.0311,0.347489 0.0321,0.147342 0.0618,0.271218 0.066,0.275298 0.0564,0.05423 0.38712,0.289292 0.4073,0.289482 0.12989,0.0012 0.63761,0.373836 0.81602,0.598942 0.0617,0.07776 0.12273,0.14968 0.13577,0.159827 0.0411,0.03197 0.13041,0.02102 0.13041,-0.01599 z m -36.7236,-0.928464 c 0.0888,-0.281932 0.30275,-0.759276 0.41371,-0.922819 l 0.0826,-0.121858 -0.11851,0 c -0.1027,0 -0.1185,0.0067 -0.1185,0.05021 0,0.02761 -0.0213,0.07279 -0.0474,0.10041 -0.026,0.02763 -0.0475,0.07029 -0.0475,0.09484 0,0.07992 -0.0669,0.148437 -0.17681,0.181012 l -0.10771,0.03193 0.003,0.542754 c 0.002,0.41121 0.008,0.509981 0.024,0.407534 0.0116,-0.07438 0.0536,-0.238184 0.0932,-0.364011 z m 42.78425,-1.235431 c 0.0278,-0.0079 0.0627,-0.04297 0.0778,-0.07797 0.0217,-0.05054 0.0211,-0.0611 -0.003,-0.05129 -0.0167,0.0068 -0.0918,0.02689 -0.16675,0.04466 -0.13136,0.03112 -0.15441,0.04698 -0.12051,0.08288 0.0192,0.02037 0.1433,0.02137 0.21248,0.0017 z M 203.08964,36.43027 c 4.2e-4,-0.02416 0.11589,-1.122796 0.2566,-2.441392 l 0.25581,-2.397455 -0.0559,-0.175734 c -0.0811,-0.254843 -0.16527,-0.621511 -0.19789,-0.862119 -0.0478,-0.352538 -0.005,-0.534698 0.16643,-0.706894 l 0.0874,-0.08787 0.0376,-0.456917 c 0.0338,-0.411243 0.0442,-0.469761 0.10373,-0.585518 0.0363,-0.07073 0.0945,-0.149956 0.12904,-0.176053 0.055,-0.04142 0.0649,-0.07066 0.0785,-0.230369 0.0121,-0.141233 0.0306,-0.205798 0.0811,-0.283338 0.22721,-0.348759 1.02216,-0.621642 2.22366,-0.76335 0.75999,-0.08964 1.22599,-0.112419 2.26836,-0.110936 0.55745,8.02e-4 1.01354,-0.0071 1.01354,-0.01765 0,-0.0105 0.0256,-0.04516 0.0568,-0.07701 l 0.0568,-0.05791 -0.0532,-0.07652 c -0.1891,-0.271683 -0.28254,-0.549432 -0.26918,-0.80016 0.009,-0.165494 0.11579,-0.478702 1.31856,-3.860395 1.15398,-3.244558 1.31188,-3.705255 1.33355,-3.891163 0.0426,-0.364766 0.10847,-0.54922 0.24593,-0.687855 0.059,-0.05951 0.11625,-0.192795 0.27278,-0.635139 0.10897,-0.307906 0.22858,-0.604344 0.26581,-0.65877 0.0372,-0.05442 0.0676,-0.103023 0.0676,-0.10801 0,-0.005 -0.0933,-0.01662 -0.20745,-0.02585 -0.3144,-0.02543 -1.45766,-0.18023 -2.16343,-0.292937 -1.07613,-0.171847 -2.19134,-0.388513 -3.37451,-0.655605 -0.24555,-0.05543 -0.44946,-0.09699 -0.45313,-0.09235 -0.008,0.0091 -3.69705,6.476193 -3.781,6.626873 l -0.0508,0.09132 0.12323,0.04675 c 0.4198,0.159254 0.61161,0.678796 0.45768,1.239701 -0.0788,0.287244 -0.36108,0.69042 -0.59127,0.844625 -0.0573,0.03836 -0.10906,0.09268 -0.11506,0.120678 -0.006,0.02801 -0.0458,0.257076 -0.0884,0.509044 l -0.0774,0.458121 -0.0788,0.03018 -0.0788,0.03018 0,5.316577 0,5.316589 0.0652,0.01507 c 0.23888,0.05522 0.29044,0.106397 0.29044,0.288342 0,0.100591 0.0101,0.148135 0.0333,0.15759 0.0184,0.0074 0.0406,0.04819 0.0493,0.09055 0.0157,0.07537 0.0189,0.077 0.15635,0.077 0.11759,0 0.14049,-0.0071 0.14115,-0.04393 z m 15.39052,-1.949408 c 0.88104,-1.407705 2.21354,-2.632447 3.73524,-3.433186 0.22793,-0.119926 0.24358,-0.133013 0.24358,-0.203469 0,-0.106002 0.0762,-0.224045 0.18719,-0.29012 0.12891,-0.07672 0.82746,-0.353848 1.17606,-0.466579 0.66345,-0.214537 1.47656,-0.391876 2.19309,-0.47831 0.56517,-0.06818 0.74169,-0.04333 0.82753,0.116491 0.0293,0.05451 0.0554,0.07049 0.11503,0.07062 l 0.0772,1.54e-4 -0.006,-1.939304 -0.006,-1.939306 -0.19905,-0.07065 c -0.10948,-0.03886 -0.25084,-0.07715 -0.31413,-0.08508 l -0.11511,-0.01444 0,0.8838 c 0,0.536629 -0.01,0.902072 -0.0235,0.930334 -0.0561,0.111109 -0.45975,0.149214 -0.63276,0.05973 l -0.0905,-0.04682 -0.0119,-0.947917 -0.0118,-0.947928 -0.0771,-0.0496 -0.0771,-0.0496 0,-0.285175 c 0,-0.299339 0.0113,-0.333755 0.12446,-0.37622 0.0378,-0.01418 0.0415,-0.06381 0.0415,-0.552298 l 0,-0.536713 -0.0889,-0.04103 c -0.0489,-0.02257 -0.41438,-0.168685 -0.81218,-0.324715 l -0.72324,-0.28369 0.008,0.09029 c 0.01,0.104325 -0.0927,0.448585 -0.16495,0.555962 -0.0558,0.08299 -0.15985,0.146178 -0.24069,0.146178 -0.0531,0 -0.12503,0.193386 -1.24883,3.357695 -0.70846,1.994777 -1.21984,3.399783 -1.25985,3.461371 -0.24551,0.377883 -1.07333,0.5864 -2.06054,0.519022 -0.20212,-0.0138 -0.36923,-0.02398 -0.37134,-0.02264 -0.002,0.0013 -0.0113,0.183196 -0.0205,0.404118 l -0.0166,0.401668 0.0726,0.09585 c 0.15455,0.20434 0.15934,0.436278 0.0182,0.883222 -0.091,0.288256 -0.32206,0.820072 -0.44323,1.02028 -0.0613,0.101359 -0.075,0.158558 -0.10484,0.439325 -0.0188,0.177536 -0.0401,0.37363 -0.0471,0.435763 l -0.0128,0.112962 0.0776,-0.135617 c 0.0427,-0.07459 0.17018,-0.283581 0.28337,-0.464431 z m 16.03477,-3.065293 c 1.48068,-0.316269 4.30558,-0.5191 6.67406,-0.479217 2.13493,0.03596 3.79042,0.199881 4.55801,0.451351 l 0.18374,0.0602 -1.3e-4,-1.459605 c -6e-5,-0.802776 -0.01,-1.499136 -0.0216,-1.547465 -0.0118,-0.04832 -0.0284,-0.15187 -0.0369,-0.230101 -0.0147,-0.136359 -0.0191,-0.143847 -0.10668,-0.180935 -0.10245,-0.04339 -0.16655,-0.124092 -0.16655,-0.209594 l 0,-0.05718 -0.44455,-3.18e-4 c -0.49529,-3.46e-4 -1.55378,-0.03272 -2.54277,-0.07776 l -0.65201,-0.02969 -0.29634,0.180858 c -0.39244,0.239487 -1.15055,0.633459 -1.63592,0.850146 -1.37749,0.614964 -2.75901,1.032997 -4.05422,1.226752 -0.38635,0.05779 -1.46653,0.06497 -1.71888,0.01143 -0.38306,-0.08128 -0.68991,-0.241584 -0.80902,-0.422648 -0.0342,-0.05194 -0.51326,-1.365338 -1.06462,-2.91866 -0.79969,-2.252858 -1.01137,-2.8257 -1.04624,-2.831486 -0.11751,-0.01949 -0.14953,-0.03554 -0.21719,-0.108806 -0.0415,-0.04491 -0.10033,-0.158329 -0.13615,-0.262302 l -0.0631,-0.183188 -0.18115,0.07141 c -0.0996,0.03928 -0.41051,0.161717 -0.69088,0.272083 -0.28035,0.110367 -0.55507,0.219925 -0.6105,0.243464 l -0.10076,0.0428 0,0.535329 c 0,0.512745 0.002,0.535991 0.0473,0.55121 0.10553,0.03547 0.11869,0.07697 0.11869,0.374512 0,0.296995 -0.0115,0.331649 -0.12447,0.374056 -0.0385,0.01447 -0.0415,0.0831 -0.0415,0.957201 l 0,0.94162 -0.0567,0.03931 c -0.0845,0.05858 -0.29061,0.08562 -0.44868,0.05887 -0.25018,-0.04234 -0.22963,0.04695 -0.22963,-0.99778 l 0,-0.91378 -0.12703,0.01389 c -0.0699,0.0076 -0.21656,0.0462 -0.326,0.0857 l -0.19896,0.07182 -0.006,1.93525 -0.006,1.93526 0.15571,0.01322 c 0.14575,0.01239 0.1643,0.0078 0.28961,-0.07213 0.23155,-0.147627 0.32779,-0.159765 0.76923,-0.09699 0.45512,0.06472 0.60147,0.105993 0.68338,0.192746 0.0399,0.04227 0.0782,0.106502 0.085,0.142735 0.0118,0.06233 0.0292,0.06975 0.32482,0.138015 1.10281,0.254714 2.27032,0.741722 3.21526,1.3412 l 0.27126,0.172075 0.19107,-0.05939 c 0.10509,-0.03267 0.37244,-0.09814 0.59413,-0.145487 z m 13.33623,20.083539 0,-0.389115 0.0803,0 c 0.0442,0 0.10234,0.01977 0.1292,0.04394 0.0973,0.0875 0.18712,0.526708 0.12788,0.625299 -0.0141,0.02348 -0.26759,0.108995 -0.32309,0.108995 -0.008,0 -0.0143,-0.175104 -0.0143,-0.389117 z"
       id="path2384"
       sodipodi:nodetypes="csscccccccccsccccccsssssssssssssscccsscccccccccssssccccccccccccssccccccsssccccccsscccscccscccssssscccsssssscccssssscccsssssscccccccccccssssssssscccscccccccscccccssssscccsscccssssssssssssssssscccscccccscccccccscccccccsssssscccccsscccccccsscccccscccssssssssssssssccccccccssccccccccccsscccsscccsscccccccccscccsssccccccccsssssssssssssssssssssssscccsssssssssssscccssssssssssscccssssssssssssccsssccccccccccsscccccccccccccccssssssccsssscccccsssccssssccssssssssccccccccccssssssscccsssssccccccccccssssccccccccccscccccsssscccccscccssccsssssssccccccssscccccccccccssscccccccssscccsccccccsccsssssssssssssccssssccsssssssssssssccccccccccssssscccccssscccsccsssscccccscccssssssscccssssssssssscccssscccccccssssccssssssccccccccscccccccsccccccsssssscccssscccccscccsssccccccssssssscccscccssscccsccccccccssssscccccccsssc"
       inkscape:connector-curvature="0"
       transform="matrix(0.7640902,0,0,0.7640902,39.769403,12.749128)" />
    <path
       style="fill:#ffffff;fill-opacity:1;stroke:#000000;stroke-width:0.5;stroke-miterlimit:4;stroke-opacity:1;stroke-dasharray:none;filter:url(#filter3945)"
       d="m 141.65398,62.591019 c 0.006,-0.02035 -0.005,-0.03292 -0.023,-0.02791 -0.0186,0.005 -0.15273,0.01956 -0.29788,0.03239 -0.14518,0.01286 -0.2983,0.03356 -0.3403,0.046 -0.042,0.01248 -0.12982,0.01745 -0.19516,0.01106 -0.10386,-0.01011 -0.10988,-0.0053 -0.0478,0.03842 0.0967,0.06825 0.0516,0.07373 -0.28676,0.03477 -0.38615,-0.04443 -0.98831,-0.186325 -1.27027,-0.299332 -0.31757,-0.127294 -1.42237,-0.779386 -1.63574,-0.965512 -0.0973,-0.08484 -0.19122,-0.160532 -0.20872,-0.168192 -0.12163,-0.0531 -1.41182,-1.357831 -2.11523,-2.139028 -0.58336,-0.647853 -1.00299,-1.165468 -1.75669,-2.166793 -0.23233,-0.30866 -0.46081,-0.576808 -0.50773,-0.595898 -0.0728,-0.02964 -0.0946,-0.01416 -0.14825,0.105969 -0.0346,0.07736 -0.0566,0.164438 -0.0488,0.193477 0.0219,0.08161 -0.0609,0.08414 -0.19693,0.006 -0.13185,-0.07576 -0.41837,-0.446687 -0.4581,-0.59302 -0.0208,-0.07665 -0.005,-0.09 0.11904,-0.100835 0.0786,-0.0068 0.1888,-0.01172 0.24481,-0.01077 0.0805,0.0014 0.0972,-0.01523 0.0799,-0.07916 -0.0121,-0.04449 -0.0102,-0.10349 0.004,-0.13115 0.0155,-0.02965 -0.13019,-0.295688 -0.35488,-0.648365 -0.75888,-1.19116 -1.5633,-2.707125 -2.17335,-4.095741 -0.30098,-0.685075 -0.72904,-2.260447 -0.76678,-2.821841 -0.15084,-2.244521 0.58489,-4.504332 2.03103,-6.238272 0.16559,-0.19855 0.82948,-0.880535 0.86731,-0.890943 0.0127,-0.0034 0.15528,-0.114158 0.31681,-0.245904 0.32378,-0.264139 1.0309,-0.712198 1.51554,-0.96034 0.97131,-0.497276 2.27021,-0.956889 4.90805,-1.73666 1.72652,-0.510388 2.08644,-0.628713 2.46053,-0.808905 0.74524,-0.35899 1.2414,-0.734421 1.75026,-1.324416 0.38556,-0.447024 0.50491,-0.636068 1.26513,-2.003926 1.16593,-2.097862 1.91352,-3.144869 3.18211,-4.456642 0.30567,-0.316061 1.07784,-0.944428 1.52809,-1.243495 0.67838,-0.450593 1.2021,-0.687604 2.00607,-0.907844 1.16952,-0.320387 1.72318,-0.277583 2.21745,0.171442 0.0791,0.07179 0.17068,0.123097 0.20365,0.114034 0.033,-0.0092 0.10212,0.01782 0.15363,0.05977 l 0.0937,0.07627 0.0981,-0.202576 c 0.0577,-0.119134 0.1249,-0.199867 0.16322,-0.196003 0.0811,0.0082 0.18488,0.212248 0.14883,0.292678 -0.0174,0.03868 -0.009,0.06063 0.0249,0.0625 0.0642,0.0035 0.25016,0.380644 0.21676,0.439568 -0.0135,0.0237 -0.10858,0.02551 -0.21139,0.004 -0.23337,-0.04879 -0.30098,-0.03142 -0.27342,0.07017 0.0119,0.04376 -0.0132,0.119476 -0.0556,0.168271 -0.0425,0.0488 -0.0798,0.178758 -0.083,0.288794 -0.009,0.312331 -0.14976,0.739254 -0.33297,1.008836 -0.0921,0.135382 -0.38589,0.486353 -0.65303,0.779943 -0.84512,0.928753 -1.42613,1.692717 -1.68407,2.214403 -0.25736,0.520447 -0.28533,0.590927 -0.3496,0.880769 -0.0569,0.256607 -0.0536,0.32838 0.0284,0.627072 0.078,0.284141 0.12099,0.368805 0.27241,0.537269 0.2976,0.331025 0.51137,0.421711 0.96533,0.409505 0.19128,-0.0051 0.22851,-0.01922 0.32681,-0.123539 0.0644,-0.06829 0.19622,-0.148586 0.24219,-0.198773 0.29507,-0.277491 0.72234,-0.66111 1.10595,-0.970695 0.33509,-0.337274 0.72699,-0.665996 1.13195,-0.985923 0.59413,-0.554879 1.27981,-1.222905 1.9166,-1.803468 0.69247,-0.616128 1.23538,-1.116752 1.89503,-1.706481 0.42724,-0.398552 0.99057,-0.868297 1.45843,-1.300525 0.44915,-0.425827 0.9987,-0.913353 1.49612,-1.338174 0.50197,-0.53209 1.0676,-1.043378 1.63975,-1.515298 0.26538,-0.243989 0.56161,-0.518548 0.84587,-0.782605 0.58742,-0.537728 0.50766,-0.475138 0.84904,-0.76988 0.51151,-0.516334 1.20408,-1.086463 1.78482,-1.604386 0.59591,-0.597798 1.51886,-1.441692 2.05657,-1.887694 0.0555,-0.04073 0.48925,-0.425406 0.96388,-0.854824 0.56529,-0.511418 0.87748,-0.774448 0.92517,-0.819318 0.60532,-0.592834 1.4985,-1.370202 2.1548,-1.891117 0.6511,-0.662126 1.48777,-1.389978 2.22792,-2.043168 0.37208,-0.377416 0.81657,-0.763381 1.22291,-1.134183 0.63663,-0.575259 1.15928,-1.064262 1.16145,-1.086688 0.13824,-0.12149 0.20463,-0.141102 0.28462,-0.30659 0.10711,-0.196035 0.14562,-0.565917 0.094,-0.902967 -0.0189,-0.12389 -0.13147,-0.444409 -0.26126,-0.744396 -0.41032,-0.9482946 -0.33226,-1.1187913 0.81882,-1.788817 l 0.3372,-0.1962829 -0.077,-0.097636 c -0.19637,-0.248993 -0.47873,-0.3697205 -0.81278,-0.3474581 -0.16079,0.010705 -0.47918,-0.1496269 -0.59569,-0.2999947 -0.0515,-0.066486 -0.1216,-0.2238681 -0.15578,-0.3497511 -0.0529,-0.1952859 -0.0489,-0.2593006 0.028,-0.4360823 0.0496,-0.1139505 0.11913,-0.2322259 0.15456,-0.262834 0.0353,-0.030603 0.1098,-0.1701676 0.16526,-0.3101411 0.0706,-0.177955 0.14626,-0.2851288 0.25171,-0.3563435 0.19728,-0.1332148 0.51068,-0.1866145 0.69506,-0.1184261 0.0809,0.029929 0.20078,0.051219 0.26637,0.047314 0.0655,-0.0039 0.16745,-0.010181 0.22644,-0.013947 0.15548,-0.00993 0.40895,0.1205855 0.56117,0.2889255 0.10693,0.1182597 0.13846,0.1907223 0.16545,0.3800703 0.0337,0.2364305 0.006,0.3361874 -0.21276,0.7542017 -0.10157,0.1945154 -0.12366,0.4140575 -0.064,0.6355289 l 0.0355,0.1319862 0.16222,-0.1076744 c 0.0891,-0.059218 0.5291,-0.3215264 0.97753,-0.5829153 0.44841,-0.261377 0.82062,-0.4846113 0.8271,-0.4960819 0.0137,-0.024055 -0.086,-0.1097677 -0.28356,-0.2439828 -0.15703,-0.1066613 -0.2645,-0.1298412 -0.6305,-0.1359611 -0.29182,-0.00488 -0.46207,-0.09973 -0.65456,-0.3646597 -0.23628,-0.325224 -0.19755,-0.6549934 0.11993,-1.020698 0.0836,-0.10804 0.0812,-0.2167355 0.11422,-0.3550797 0.0393,-0.1855029 0.18269,-0.3071893 0.44796,-0.3798923 0.16253,-0.044546 0.27477,-0.045365 0.41805,-0.00306 0.10773,0.031809 0.24885,0.043905 0.31358,0.02687 0.30329,-0.079799 0.69816,0.1330951 0.85683,0.4619707 0.11792,0.2444563 0.10454,0.4188765 -0.0574,0.7469332 -0.14744,0.2986513 -0.14986,0.3153808 -0.0884,0.6056588 l 0.0634,0.298517 0.11471,-0.053734 c 0.0631,-0.029559 0.35092,-0.1915536 0.63966,-0.3599905 0.28873,-0.1684369 0.68762,-0.4010318 0.88645,-0.516869 0.19882,-0.1158401 0.36867,-0.2233236 0.37748,-0.23884 0.0291,-0.051353 -0.24991,-0.3240195 -0.37247,-0.3639939 -0.0662,-0.021595 -0.23755,-0.037692 -0.38074,-0.035752 -0.29479,0.00398 -0.4483,-0.060982 -0.63873,-0.2702834 -0.13375,-0.1470069 -0.19578,-0.3614131 -0.19832,-0.4437237 -0.004,-0.136278 0.005,-0.2687033 0.005,-0.3670724 2.5e-4,-0.04212 0.0187,-0.1139193 0.12103,-0.2226509 0.10732,-0.1140497 0.15214,-0.1990039 0.13676,-0.2592116 -0.0296,-0.1159668 0.0893,-0.3232906 0.27342,-0.4763325 0.17661,-0.1468699 0.37313,-0.1729465 0.63195,-0.083839 0.0996,0.034291 0.22619,0.049946 0.2813,0.034788 0.23308,-0.064131 0.45815,0.019608 0.72216,0.2686868 0.11758,0.1109322 0.15004,0.1765961 0.1911,0.3864384 0.0443,0.2262193 0.0362,0.2785322 -0.0764,0.4973884 -0.0692,0.134504 -0.13514,0.3166586 -0.14649,0.4047652 -0.0241,0.18742 0.077,0.610286 0.13193,0.5510748 0.0198,-0.021354 0.4435,-0.2711234 0.94164,-0.5550606 1.14275,-0.6513611 1.0822,-0.6126785 1.06399,-0.6797688 -0.0451,-0.1662584 -0.62901,-0.3901041 -0.85523,-0.3278735 -0.12677,0.03488 -0.53298,-0.1958685 -0.66519,-0.3778777 -0.0856,-0.117794 -0.11259,-0.1906347 -0.10395,-0.2803986 0.007,-0.066707 -0.008,-0.1555404 -0.0319,-0.1974175 -0.0525,-0.091716 0.0631,-0.3658746 0.21257,-0.504394 0.059,-0.054676 0.0944,-0.1306144 0.082,-0.1761709 -0.0372,-0.1368914 0.11056,-0.3848227 0.30822,-0.5173272 0.21667,-0.1452597 0.47066,-0.1702907 0.6377,-0.062856 0.0691,0.044446 0.15206,0.049051 0.27488,0.015264 0.35561,-0.097835 0.82001,0.2098346 0.92251,0.6111652 0.0541,0.2118278 0.0373,0.3094447 -0.10185,0.5915631 -0.12478,0.2529669 -0.15717,0.496264 -0.0961,0.7213428 l 0.0561,0.2069251 0.20889,-0.1016875 c 0.47999,-0.2336693 1.2202,-0.2900373 1.67612,-0.1276439 0.29431,0.1048407 0.70917,0.3596203 0.70205,0.4311814 -0.004,0.042265 0.008,0.051989 0.0322,0.025774 0.0555,-0.0598 0.4713,0.4378564 0.61005,0.7299637 0.25792,0.5430128 0.30592,1.1501024 0.13308,1.6839333 -0.21749,0.6718121 -0.90227,1.3208932 -1.59098,1.5080394 -0.43148,0.1172429 -0.64223,0.1223328 -1.15559,0.027934 -0.55989,-0.1029499 -0.60756,-0.1024027 -0.77432,0.00892 -0.32103,0.2143256 -0.94595,1.0134971 -1.201,1.5358978 -0.17717,0.3628965 -0.84795,1.5647444 -1.02678,1.8396904 -0.24665,0.379252 -0.45677,0.659952 -0.84152,1.124288 -0.49059,0.592048 -0.6879,0.792964 -0.81243,0.82722 -0.0541,0.01488 -0.29754,-0.02989 -0.54104,-0.09948 -0.74853,-0.213915 -1.29621,-0.189514 -1.8823,0.08384 -0.27735,0.129376 -0.93583,0.623499 -1.12513,0.844313 -0.72001,0.464947 -1.08067,1.042084 -1.66196,1.663778 -0.45166,0.45774 -0.62486,0.6287 -1.09359,1.079491 -0.13751,0.132262 -0.39292,0.386111 -0.56758,0.564108 -0.49195,0.497185 -0.99796,0.979906 -1.4913,1.475669 -1.12913,0.884263 -1.9128,1.872872 -2.81723,2.772314 -0.773,0.581494 -1.13095,1.103163 -1.54822,1.527386 -1.1859,0.879696 -1.60734,1.607627 -2.57985,2.555607 -0.7378,0.5635 -1.09006,1.078701 -1.82852,1.793529 -0.49296,0.439223 -0.48162,0.455186 -0.73909,0.736828 -0.0827,0.08345 -0.26161,0.264151 -0.39775,0.40153 -0.53519,0.540084 -0.67894,0.643342 -0.92134,0.877524 -0.33922,0.353147 -0.92695,0.993773 -1.41319,1.428124 -0.21683,0.20741 -0.61113,0.585598 -0.75828,0.731772 -2.75768,2.450707 -5.42912,5.401425 -8.40714,8.211918 -0.41167,0.290447 -0.80224,0.720469 -1.01148,1.197138 -0.45757,1.040643 0.073,2.079294 1.2759,2.497613 0.33587,0.116798 0.80384,0.107054 1.2983,-0.02702 0.51839,-0.140581 0.73715,-0.249408 1.42864,-0.710783 0.62681,-0.418206 0.91729,-0.538329 1.25706,-0.519867 0.26286,0.0143 0.66147,0.208986 0.84993,0.41512 0.14486,0.158447 0.28602,0.54759 0.3017,0.831696 0.0236,0.428612 -0.18026,1.259223 -0.43492,1.771818 -0.21923,0.441276 -0.77145,1.198962 -1.35429,1.858146 -1.15859,1.310334 -3.39226,2.716863 -5.92419,3.730369 -1.09425,0.438034 -1.36992,0.583609 -1.87032,0.987682 -0.45307,0.365855 -0.80102,0.796004 -1.18255,1.461966 -0.31016,0.541396 -0.59923,1.292836 -0.74132,1.927229 -0.0269,0.119603 -0.0611,0.227684 -0.0763,0.240182 -0.0152,0.01251 -0.0229,0.03985 -0.0173,0.06081 0.01,0.03694 -0.0752,0.37158 -0.35152,1.381274 -0.073,0.266931 -0.12843,0.501532 -0.12306,0.521361 0.006,0.01985 -0.005,0.04011 -0.023,0.0451 -0.0181,0.005 -0.0517,0.08055 -0.0747,0.167941 -0.0974,0.370073 -0.40425,1.153693 -0.63539,1.622532 -0.27679,0.561463 -0.57213,1.000026 -1.03256,1.53328 -0.81975,0.949416 -1.53,1.421218 -2.69641,1.791159 -0.37992,0.120495 -0.68587,0.202425 -0.67986,0.182077 z M 177.73229,6.1030012 c 0.0284,-0.032009 0.0329,-0.053021 0.01,-0.046683 -0.023,0.00636 -0.0651,0.037726 -0.0937,0.069731 -0.0284,0.032016 -0.033,0.053015 -0.01,0.046672 0.023,-0.00635 0.0652,-0.037717 0.0937,-0.06972 z"
       id="path2398"
       sodipodi:nodetypes="csssssssssssssssssssssssssssssssssssscccssssssssssssssssccccccccccccsccccccsscccssssssssssssscccsssssccssssscccssssssssssssssssssssssssssssssscccssssssssssssssccscccccccscccccsssssssssssssssssssssccsssc"
       inkscape:connector-curvature="0"
       transform="matrix(0.7640902,0,0,0.7640902,25.127162,12.749114)" />
    <path
       style="fill:#ffffff;fill-opacity:1;stroke:#000000;stroke-width:0.5;stroke-miterlimit:4;stroke-opacity:1;stroke-dasharray:none;filter:url(#filter3945)"
       d="m 70.011956,57.308898 c -0.06361,-0.182304 0.02362,-0.335041 0.194719,-0.340992 0.05437,-0.002 0.112637,-0.018 0.129477,-0.0358 0.02935,-0.03101 0.06738,-0.222408 0.05443,-0.273919 -0.0033,-0.0136 -0.17953,-0.208345 -0.391366,-0.432766 -0.478145,-0.506566 -0.905605,-0.988835 -1.340803,-1.512752 -0.686815,-0.826842 -1.554819,-1.96687 -1.877504,-2.46594 -0.79825,-1.234507 -1.304177,-2.597391 -1.465371,-3.947349 -0.06304,-0.527901 -0.0864,-1.577337 -0.04423,-1.986082 0.134187,-1.300354 0.636393,-2.355604 1.677171,-3.524078 0.627936,-0.704963 1.750331,-1.70072 2.452842,-2.176076 1.298025,-0.878324 2.923183,-1.706221 5.63767,-2.871986 1.534725,-0.659112 1.975347,-0.867096 2.551322,-1.204332 1.503536,-0.880276 2.580906,-2.104416 3.527333,-4.007858 0.526136,-1.05817 1.725259,-3.373091 1.879926,-3.629239 1.352177,-2.239361 2.724018,-3.650385 4.140627,-4.258902 0.282506,-0.121351 0.831499,-0.29054 1.109022,-0.341774 0.519471,-0.09592 1.018844,-0.04164 1.392765,0.151361 0.140142,0.07232 0.189216,0.109968 0.315821,0.242281 0.144624,0.151094 0.149596,0.154452 0.140851,0.0952 -0.005,-0.03377 -0.01415,-0.06672 -0.02036,-0.07316 -0.03678,-0.03829 0.03599,-0.03138 0.188106,0.01786 l 0.17409,0.05632 0.04299,-0.06849 c 0.103642,-0.165082 0.211127,-0.19829 0.347534,-0.107377 0.07686,0.05121 0.108008,0.117054 0.159544,0.337204 0.05095,0.217707 0.04022,0.296635 -0.05385,0.395999 -0.085,0.08977 -0.162986,0.101224 -0.256306,0.03762 -0.129897,-0.0885 -0.210212,-0.04951 -0.310766,0.1508 -0.02763,0.05502 -0.05248,0.102578 -0.05525,0.105695 -0.0029,0.0031 -0.01535,-0.03216 -0.02796,-0.07838 l -0.02293,-0.08403 -0.02362,0.117515 c -0.05545,0.275966 -0.138606,0.408643 -0.610458,0.973993 -0.413279,0.495167 -0.755033,0.942729 -1.008925,1.321296 -0.101488,0.151315 -0.238177,0.352464 -0.303761,0.446999 -0.142983,0.206087 -0.202799,0.325663 -0.268406,0.536572 -0.09507,0.305613 -0.128872,0.616717 -0.116115,1.068931 0.02103,0.745138 0.225467,1.464421 0.585498,2.059955 0.0885,0.146383 0.144418,0.212341 0.359883,0.424496 0.294073,0.289536 0.387847,0.350193 0.713386,0.461304 0.241488,0.08244 0.462648,0.11277 0.722064,0.09908 0.241935,-0.01279 0.641106,-0.103226 0.691772,-0.156734 0.02114,-0.02233 0.808186,-0.811209 1.749007,-1.753092 4.476435,-4.481481 7.423355,-7.445107 11.854865,-11.922076 0.79851,-0.806695 2.63461,-2.67198 3.90597,-3.968092 0.83052,-0.846644 2.59171,-2.66211 4.35348,-4.487615 l 0.85207,-0.8828584 -0.006,-0.159756 c -0.008,-0.2124949 -0.0339,-0.4292362 -0.0782,-0.6514218 -0.0543,-0.2729232 -0.0549,-0.4542862 -0.002,-0.5791435 0.10329,-0.2426245 0.2746,-0.4033352 0.63336,-0.5941832 0.26259,-0.1397045 0.74366,-0.4415779 0.74321,-0.4663854 -7.6e-4,-0.041787 -0.1203,-0.2378625 -0.16084,-0.2638428 -0.0251,-0.016077 -0.0911,-0.016045 -0.15873,8.45e-5 -0.1013,0.024153 -0.12398,0.020768 -0.18156,-0.027148 -0.0726,-0.060491 -0.16869,-0.2356996 -0.26514,-0.4838507 -0.0758,-0.1948055 -0.0699,-0.2077894 0.19044,-0.4201538 0.20189,-0.1647517 0.30137,-0.222005 0.46873,-0.2698496 0.13994,-0.040012 0.2254,-0.030085 0.31677,0.036802 0.092,0.06726 0.25616,0.3025681 0.29863,0.4279295 0.041,0.1211922 0.0167,0.2701459 -0.0569,0.3478737 -0.0621,0.065515 -0.061,0.068824 0.0729,0.2287072 0.0718,0.08578 0.0736,0.08644 0.13601,0.051728 0.25876,-0.1439641 1.01067,-0.5864515 1.00962,-0.5941749 -7.2e-4,-0.00527 -0.0264,-0.056824 -0.0569,-0.1145091 -0.0684,-0.1290199 -0.13096,-0.1619374 -0.23761,-0.1251303 -0.0416,0.014351 -0.0948,0.023799 -0.11841,0.021019 -0.10135,-0.011912 -0.21337,-0.1856755 -0.34471,-0.5347434 l -0.0671,-0.1781479 0.17655,-0.1663426 c 0.30142,-0.2840099 0.59718,-0.4129216 0.78637,-0.3427059 0.0962,0.035754 0.11118,0.048551 0.21552,0.1851924 0.12528,0.1640753 0.1763,0.2685475 0.18269,0.3740055 0.006,0.092837 -0.0496,0.2477228 -0.0993,0.2786032 -0.047,0.029257 -0.0376,0.054229 0.0709,0.1871647 l 0.0804,0.098581 0.50859,-0.2847655 c 0.27973,-0.1566165 0.51044,-0.2907068 0.5127,-0.2979785 0.01,-0.030602 -0.10593,-0.2252324 -0.14836,-0.2500044 -0.0254,-0.014835 -0.0765,-0.016504 -0.11351,-0.00374 -0.10783,0.037175 -0.18136,0.029736 -0.23603,-0.023881 -0.0636,-0.062325 -0.19151,-0.3116419 -0.25992,-0.5065157 l -0.0525,-0.1496141 0.10622,-0.1086293 c 0.2429,-0.2483375 0.39131,-0.3452236 0.6269,-0.4091988 0.11224,-0.030488 0.15557,-0.029745 0.23337,0.00394 0.0836,0.036229 0.1092,0.05909 0.2055,0.1843771 0.1497,0.1948415 0.20359,0.3514055 0.16985,0.4936336 -0.0187,0.078845 -0.0408,0.1205649 -0.0782,0.1469072 -0.0576,0.04068 -0.0559,0.045167 0.0848,0.2210005 l 0.0685,0.085491 0.54937,-0.2986667 c 0.30215,-0.1642521 0.54851,-0.3037584 0.54741,-0.3099957 -0.008,-0.045938 -0.13824,-0.249936 -0.17184,-0.2689576 -0.0229,-0.01303 -0.0947,-0.010402 -0.15934,0.00584 -0.10075,0.025305 -0.12628,0.022334 -0.17825,-0.020754 -0.0704,-0.058432 -0.16769,-0.2385756 -0.26055,-0.4827716 -0.0789,-0.2074824 -0.0758,-0.214876 0.18374,-0.4280862 0.29045,-0.2386615 0.54908,-0.336724 0.71651,-0.2716768 0.0681,0.026458 0.0989,0.054317 0.19914,0.1802026 0.15436,0.1938694 0.20269,0.3168844 0.18243,0.4642417 -0.0125,0.090792 -0.0291,0.1276888 -0.0763,0.1688023 -0.0677,0.059222 -0.0681,0.058248 0.0859,0.2465661 l 0.0831,0.1015704 0.5318,-0.2791221 c 0.29251,-0.1535192 0.53367,-0.2841547 0.53591,-0.2903046 0.006,-0.015648 -0.14783,-0.29577 -0.17964,-0.3276544 -0.0144,-0.014405 -0.0559,-0.020286 -0.0921,-0.013082 -0.18552,0.03679 -0.22624,0.034652 -0.27634,-0.0145 -0.0587,-0.057637 -0.16724,-0.2668952 -0.2587,-0.4991592 l -0.0649,-0.1647272 0.18473,-0.1752214 c 0.19809,-0.1879189 0.34741,-0.2781958 0.56113,-0.3392998 0.12875,-0.036809 0.20387,-0.027435 0.29493,0.036806 0.0852,0.06012 0.25997,0.2982072 0.29462,0.4014652 0.0538,0.160139 0.0216,0.3441215 -0.0703,0.4025496 -0.0499,0.031673 -0.0555,0.017808 0.10348,0.2533782 0.0506,0.074967 0.0953,0.1358619 0.0994,0.1353568 0.004,-5.218e-4 0.14441,-0.085422 0.31195,-0.1886621 0.16755,-0.10325 0.40492,-0.2449841 0.52754,-0.3149762 0.12257,-0.06998 0.22205,-0.1304931 0.22102,-0.1344535 -0.0106,-0.040636 -0.13469,-0.2404023 -0.1702,-0.2739454 -0.0369,-0.034874 -0.0686,-0.037958 -0.16175,-0.01571 -0.19271,0.046036 -0.2452,-0.00707 -0.42346,-0.4284912 -0.11345,-0.2681841 -0.11261,-0.2735687 0.0661,-0.4264064 0.0607,-0.051921 0.14213,-0.1217152 0.18096,-0.1550934 0.14858,-0.127809 0.44665,-0.2341539 0.5748,-0.2050811 0.0895,0.020327 0.19569,0.1155397 0.31018,0.2783942 0.15044,0.2139374 0.16841,0.4205638 0.0476,0.5480945 l -0.0633,0.066785 0.12706,0.1603236 c 0.0699,0.088173 0.13136,0.1600219 0.13665,0.1596491 0.006,-3.929e-4 0.0931,-0.030778 0.19527,-0.067552 0.31188,-0.1123134 0.51073,-0.1480784 0.73094,-0.1314715 0.60707,0.045788 1.11479,0.3181169 1.43314,0.7687053 0.0561,0.079507 0.13135,0.198864 0.16709,0.265242 0.0786,0.1460542 0.20167,0.4913223 0.24333,0.6826807 0.0804,0.3697982 0.0189,0.776234 -0.17282,1.141051 -0.18971,0.3609277 -0.516,0.7837197 -0.71672,0.9285972 -0.41963,0.3029223 -1.01237,0.5035726 -1.42614,0.4827765 -0.12385,-0.00624 -0.35377,-0.058717 -0.60268,-0.137562 -0.3114,-0.098646 -0.54174,-0.049819 -0.77857,0.1650545 -0.15624,0.141716 -0.21758,0.2353476 -0.92188,1.4066711 -0.73097,1.2156706 -1.18817,1.9580586 -1.55963,2.532419 -0.25721,0.397738 -0.2835,0.431733 -0.57363,0.741946 -0.2187,0.233838 -0.32245,0.333109 -0.36964,0.353662 -0.0484,0.02106 -0.12422,0.0141 -0.28866,-0.02643 -0.32751,-0.08071 -0.78252,-0.158535 -1.00807,-0.172427 -0.24609,-0.01515 -0.44591,0.0033 -0.73179,0.06777 -0.42447,0.09564 -0.4994,0.128309 -0.76887,0.335071 -0.13393,0.102751 -0.31248,0.235494 -0.39676,0.294964 -0.1596,0.112595 -0.83448,0.829196 -12.92057,13.719798 -1.03327,1.102049 -3.43694,3.663428 -5.341495,5.691963 -1.904551,2.028528 -3.899248,4.15639 -4.432671,4.728587 -0.53341,0.572195 -1.293995,1.382923 -1.690156,1.801587 l -0.720329,0.761253 0.02213,0.05699 c 0.01217,0.03136 0.01628,0.101549 0.0092,0.155995 -0.07018,0.535029 0.37597,1.387468 1.033769,1.975173 0.775133,0.692519 1.634739,1.000072 2.500991,0.894825 0.223987,-0.02722 0.494346,-0.140344 1.06271,-0.444655 0.320775,-0.171767 0.954341,-0.568275 1.239594,-0.775792 0.350364,-0.254893 0.578159,-0.343558 0.900254,-0.350383 0.371006,-0.0079 0.637575,0.107484 0.899259,0.389127 0.244298,0.262961 0.333147,0.51054 0.341362,0.951276 0.003,0.153316 -0.0095,0.355698 -0.02772,0.449715 -0.07316,0.379918 -0.460827,1.16637 -0.87206,1.7692 -0.196299,0.287754 -0.899664,1.030334 -1.194403,1.260984 -0.59985,0.469427 -0.989304,0.70746 -2.683388,1.640129 -0.10375,0.05713 -0.394614,0.182323 -0.646365,0.27823 -0.698309,0.266017 -1.087643,0.455253 -1.575375,0.765679 -0.786181,0.500393 -1.408347,1.130261 -1.906878,1.930483 -0.344112,0.552349 -0.589634,1.119268 -0.808708,1.867347 -0.07228,0.246831 -0.170808,0.547004 -0.218934,0.667034 -0.114479,0.285496 -0.234413,0.617565 -0.552505,1.529739 -0.508894,1.459344 -0.778331,2.139758 -1.160924,2.931761 -0.702994,1.455246 -1.534391,2.635911 -2.539438,3.606231 -0.687763,0.663992 -1.177762,1.062714 -1.727983,1.406074 -1.023877,0.638915 -1.923527,0.904933 -3.298833,0.975469 -0.5884,0.03017 -0.620257,0.02809 -1.1357,-0.07387 -1.168295,-0.231243 -1.778464,-0.435219 -2.575209,-0.861043 -0.990499,-0.529378 -2.075761,-1.350681 -3.058939,-2.314975 -0.300174,-0.294392 -0.941512,-0.914371 -1.42519,-1.377722 l -0.879427,-0.84244 -0.152379,0.0437 -0.15237,0.04369 -0.0037,0.117609 c -0.0041,0.129617 -0.04089,0.18452 -0.148439,0.221608 -0.122697,0.04232 -0.207244,0.0067 -0.372634,-0.157059 -0.105951,-0.104889 -0.154079,-0.166792 -0.173923,-0.223693 z"
       id="path3250"
       sodipodi:nodetypes="csssssssssssssssssssscccsssssscccssssssssssssscccssssssssssssssssssscccsssscccsssscccssssscccsssssssssscccsssscccsssssssssssssssscccssssssssssssssssssssssscccssssssssssssssssssssssssscccccssc"
       inkscape:connector-curvature="0"
       transform="matrix(0.7640902,0,0,0.7640902,9.8210596,12.749115)" />
    <path
       style="fill:#ffffff;fill-opacity:1;fill-rule:evenodd;stroke:#000000;stroke-width:0.5;stroke-linecap:butt;stroke-linejoin:miter;stroke-miterlimit:4;stroke-opacity:1;stroke-dasharray:none;filter:url(#filter3945)"
       d="m 28.831462,11.132354 -1.768065,0 -0.353608,0.882352 0.353608,0.97059 -0.176804,1.058822 -0.884019,-0.529411 -0.707217,-1.323529 -1.502858,-0.352943 -0.618815,-0.617646 -1.326044,-0.617648 -1.502846,-2.4705879 0.08841,-1.1470588 3.712923,-2.8235293 1.768039,0.7941165 0.265213,0.6176482 0,0.7058828 0.442016,0.617646 0.884027,0.2647062 0.618821,-0.5294123 0.08841,-0.6176472 L 27.947423,5.4852939 27.417018,5.22059 27.063396,4.7794122 27.859021,4.4264713 27.682217,3.544118 l 0,-0.5294136 L 27.151812,2.485293 26.886593,1.6911778 25.82577,1.4264715 24.941736,1.25 23.08527,2.5735299 l -4.685339,1.8529414 -1.060836,1.0588226 -0.795618,0.6176483 -0.176818,1.4117635 0.353621,0.7058844 0.884026,2.3823509 1.149226,2.205881 1.237641,1.588237 -1.944851,3.176471 -2.210075,4.764706 -1.326043,2.117644 -2.210065,2.735293 -0.0884,1.235296 -1.149237,1.058826 1.768052,1.588235 -0.44201,1.852938 0.176804,4.147063 0.795618,4.764703 0.795632,4.235295 0.884017,1.411764 1.237649,2.558828 1.944865,2.911764 0.530405,1.852932 0.530424,1.323535 -1.59126,2.205883 -2.828886,1.147054 -0.265208,0.882359 5.392571,-0.176468 -0.795618,1.411757 0.972422,0.882352 2.563683,0.264711 2.033272,-1.76471 0.707229,-2.470579 1.149226,-2.117654 1.414439,-1.235289 0.442015,-1.411767 -1.502834,-0.08823 0.972417,-0.970593 -1.94485,0.617648 1.414445,-1.411764 -1.060837,-0.264704 -0.795632,-0.970586 -1.326043,-2.735297 -3.094088,-2.558825 -0.618821,-0.176471 0.618821,-0.529412 -0.08841,-1.499999 0.618822,-1.323531 -0.530419,0.08824 0.972428,-1.676469 0,-1.676474 0.618814,-0.882352 0,-1.147056 1.326042,-1.764709 0.08842,-1.499995 -0.265221,-1.235296 0.618828,-1.411766 0.707217,-1.147056 0,-0.705882 0.795631,-0.08824 0.707216,-0.705881 0.618828,-1.764708 1.414437,-1.588234 1.679658,-0.617648 1.060823,0.882352 2.56369,0.794121 2.033258,1.058822 0.972423,1.235295 1.679651,0.176469 5.304177,2.294118 2.740477,0.970589 2.210075,1.676471 0.530425,-0.176475 0,-0.529409 -1.237643,-0.970587 2.386868,0.617645 0.265219,-0.441179 -0.530425,-0.529408 0.884032,0 0.0884,-0.529412 -1.591249,-0.35294 1.237628,-0.352944 0,-0.617647 -0.44201,-0.08824 -1.326043,0.08824 -1.060823,-0.441174 -0.707231,-0.352945 1.060839,-0.88235 0.265206,-0.617649 -0.176805,-0.441176 -0.972422,0.176474 -2.033284,1.05882 -0.265193,0.529413 -0.707224,-0.176469 -2.563689,-1.411764 -0.0884,-0.970588 -1.502846,-0.794121 -2.563683,-1.323529 -0.618813,0.441177 0.0884,-0.617646 -1.414445,-1.323531 -1.23764,-0.352941 -1.149238,-1.323528 -0.353602,-0.441179 1.149231,0.794119 -0.176804,-0.882354 0.88402,0.441175 -0.265206,-1.323527 1.23764,1.147061 -0.53041,-0.794119 1.237627,0.52941 -1.060823,-1.499998 0.795618,0.264705 -0.353608,-1.411765 0.618813,0.529411 -0.884021,-1.32353 0.884021,0.264707 -0.795618,-1.058822 1.060825,-0.08824 -1.149228,-0.705882 0.707217,-0.352938 -0.795618,-0.08824 1.060824,-0.970587 -0.972423,0.08824 0.08841,-0.617648 0.08841,-1.764705 -0.53041,1.235294 -0.618828,-1.764707 0.08841,1.411765 -0.353608,0.08824 -0.884033,0 -0.97243,-1.411765 -0.972428,0 -1.149239,-0.970587 -0.530419,0.52941 -1.32603,0.882355 z"
       id="path1939"
       inkscape:connector-curvature="0"
       transform="matrix(0.7640902,0,0,0.7640902,-3.2196331,12.749116)" />
    <path
       style="fill:#ffffff;fill-opacity:1;stroke:#000000;stroke-width:0.49999997000000002;stroke-miterlimit:4;stroke-opacity:1;stroke-dasharray:none;filter:url(#filter3945)"
       d="m 365.69974,62.509154 c -1.61846,-0.582376 -1.06171,-2.268311 -1.21867,-3.499849 0.15856,-0.807419 -0.28795,-1.45533 -0.5401,-2.170084 -0.22866,-1.028943 0.11319,-2.088791 0.69816,-2.967703 -0.0395,-2.328322 -0.60809,-4.608435 -0.9964,-6.889479 -0.1979,-1.654772 0.96441,-3.263507 0.2978,-4.882724 -0.51603,-1.525766 -0.50017,-3.106202 -0.47546,-4.687539 0.13139,-2.131436 -0.80356,-4.158033 -0.88273,-6.282147 -1.7386,-0.706529 -1.60946,2.315273 -2.63051,3.139266 -0.6806,2.038484 -2.30763,3.636149 -3.21498,5.565972 -0.37924,1.129734 -0.75429,2.258808 -1.64388,3.14629 -1.38572,1.752472 -1.08736,4.176292 -2.59207,5.885214 -0.84761,1.697052 -2.19622,3.32076 -2.65247,5.114101 -0.25965,0.885722 0.95566,1.565231 0.30325,2.410816 -0.6846,1.313919 -0.3136,2.809685 -0.65687,4.19675 -1.13189,0.0087 -0.80566,1.213982 -1.6339,1.578024 -0.70458,0.335722 -1.71895,0.452447 -2.40993,0.128775 -0.79504,-0.576726 -0.1816,-1.834344 0.19746,-2.568376 0.56924,-0.872482 0.9367,-1.798596 0.90954,-2.829613 0.14277,-0.824553 0.69356,-1.551674 0.65669,-2.427733 -0.16129,-0.969749 0.46408,-1.725679 0.69371,-2.576483 0.54423,-2.547446 1.70284,-4.961753 2.15637,-7.541677 0.85612,-1.741729 2.12849,-3.378705 2.5439,-5.26093 0.16139,-2.32027 1.08374,-4.507277 2.21121,-6.557486 0.30835,-1.423159 1.42494,-2.506076 1.84859,-3.882926 -0.18264,-1.21476 -0.30882,-2.430441 -0.11694,-3.651352 -0.73491,-2.083975 -2.15101,-3.907133 -2.60454,-6.082943 -0.28671,0.773006 -0.13215,2.163626 -0.25366,3.172322 -0.49409,1.995387 -1.17008,3.989918 -1.55207,5.985832 0.60971,0.997212 0.50819,2.150012 0.0369,3.179453 0.269,0.569963 -0.38162,1.680912 -0.49824,0.591207 0.25318,-1.469262 -0.88774,-0.536969 -0.22485,0.348043 0.42511,0.72275 1.8317,1.752203 -0.0192,0.790516 -0.83227,-0.43372 -1.03201,-1.523902 -1.26479,-2.318954 0.3253,-1.104328 0.69034,-2.181597 0.59326,-3.344936 0.10593,-2.032689 -0.0348,-4.095621 0.66185,-6.055933 0.21241,-2.412589 -0.0533,-4.883338 0.18663,-7.289181 0.0878,-1.047183 0.96062,-1.936213 2.12159,-1.835439 1.32409,0.0077 1.36126,-1.367298 0.48382,-0.755757 0.49638,-0.514496 2.00306,-3.4811785 0.91713,-2.8788043 -0.54702,-0.1360312 0.17943,-1.1440836 -0.78541,-1.6403603 1.11316,0.3699805 0.20517,-0.8947475 0.72405,-1.2771041 -0.66255,-1.0963816 3.10062,0.8634603 0.95648,-0.4953924 -1.36526,-1.283582 1.04892,0.3128236 1.89795,0.00962 -0.77368,-0.578186 -2.50134,-2.1009448 -1.76746,-2.1881406 -0.68706,-0.8030169 0.55759,0.095134 0.22019,-0.9039153 0.89444,0.5753709 2.59248,2.0988412 1.1709,0.2296639 -0.88848,-1.24401017 -0.47522,-0.9734679 0.42128,-0.941382 0.46376,1.5082868 1.84548,1.4220628 0.58861,0.00991 0.85205,0.4570506 2.08573,2.7981631 1.38999,0.5985389 0.80967,0.5109306 1.12149,0.2984482 1.53506,0.7170228 0.15385,-0.9130828 0.44661,1.2128379 1.39944,0.061116 0.95757,-0.2552343 1.26303,0.7932157 1.78331,1.3194062 1.00917,0.5739861 1.91905,2.0026793 0.68379,2.795136 -0.66076,0.6449226 -0.015,1.9560656 0.26011,2.339624 -1.34262,-0.011247 0.16844,2.0345032 0.1562,3.1114742 -0.2792,1.421305 -1.16194,-2.225471 -1.66029,-1.356746 0.14765,0.911332 0.04,1.819284 -0.48287,0.768432 -0.83985,1.191669 -0.7189,-1.017622 -0.93909,0.492739 0.36889,0.603671 -1.69906,0.437967 -0.18809,0.970354 1.0264,0.162419 2.71904,0.13162 2.76045,1.411618 0.10689,1.038639 -0.0899,2.030364 -0.54902,2.981644 -0.14943,1.460586 -0.11017,2.98718 0.15838,4.405984 1.34982,1.300869 2.05033,3.009195 2.90028,4.599162 0.52617,1.264777 0.19644,2.704329 0.52329,3.960332 0.54904,0.498437 0.49278,1.512178 0.26577,2.107374 -0.81936,0.880592 -0.17175,2.220658 -0.53983,3.285261 -0.41516,2.677731 -0.59616,5.401362 -0.35245,8.095754 0.53309,2.212307 -0.54605,4.414142 -0.55445,6.637799 0.0904,1.098554 -0.74358,2.268696 0.007,3.256338 -1.0089,1.097804 -0.0971,2.615652 -0.0904,3.884898 0.0835,1.530215 1.52495,2.975272 0.81056,4.50641 -0.61579,0.495258 -1.3199,0.685324 -2.13902,0.253295 z M 355.12861,11.974158 c 0.0158,-0.418853 -0.38046,0.456907 0,0 z"
       id="path2875"
       inkscape:connector-curvature="0"
       transform="matrix(0.7640902,0,0,0.7640902,67.428843,12.749115)" />
    <g
       id="g3164"
       transform="matrix(0,-0.32710617,0.32710617,0,256.81897,151.42198)"
       style="filter:url(#filter3945)">
      <path
         style="fill:#fdfdfd"
         d="m 279.06793,56.225278 0,-43.942726 70.12137,0 70.12137,0 0,43.942726 0,43.942722 -70.12137,0 -70.12137,0 0,-43.942722 z"
         id="path3170"
         inkscape:connector-curvature="0" />
      <path
         style="fill:#9e9e9e"
         d="m 279.06793,56.225278 0,-43.942726 70.12137,0 70.12137,0 0,43.942726 0,43.942722 -70.12137,0 -70.12137,0 0,-43.942722 z m 19.57698,24.951521 0.0599,-18.173122 -2.04664,-0.0036 c -1.12565,-0.0019 -2.17763,-0.08677 -2.33774,-0.188435 -0.22869,-0.145228 -0.30386,-5.493481 -0.35061,-24.947943 l -0.0595,-24.763088 -7.01214,0 -7.01214,0 -0.06,42.890905 c -0.033,23.589998 -0.01,43.023592 0.0521,43.185766 0.0882,0.231926 2.09645,0.281813 9.40949,0.233738 l 9.29738,-0.06112 0.0599,-18.173122 z m 20.10146,0 0.0599,-18.173122 -2.0604,0 c -1.28152,0 -2.20994,-0.110448 -2.45599,-0.292172 -0.36663,-0.270786 -0.39984,-2.097155 -0.45372,-24.951521 l -0.0581,-24.659349 -4.49946,-0.06348 -4.49945,-0.06348 0,24.77304 c 0,24.253159 -0.009,24.77812 -0.45211,25.015004 -0.24866,0.133079 -1.40566,0.241961 -2.57112,0.241961 l -2.119,0 0,18.075731 c 0,9.941653 0.0713,18.14703 0.15844,18.234172 0.0871,0.08714 4.37331,0.13097 9.52482,0.09739 l 9.36637,-0.06105 0.0599,-18.173122 z m 19.86691,-25.013433 0.0591,-43.186559 -6.95433,0.06191 -6.95432,0.06191 -0.0595,24.648739 c -0.0403,16.687292 -0.13809,24.727664 -0.3028,24.893087 -0.1338,0.134392 -1.21143,0.296938 -2.39473,0.361216 l -2.15146,0.116869 -0.0599,17.855232 c -0.0439,13.084208 0.0112,17.940889 0.20615,18.175807 0.21874,0.263563 1.89217,0.309705 9.40942,0.259456 l 9.14337,-0.06112 0.059,-43.186555 z m 20.0424,24.954999 0,-18.231557 -2.33737,-0.116869 -2.33738,-0.116869 -0.11687,-24.776217 -0.11687,-24.776218 -6.9537,-0.06191 -6.95371,-0.06191 0,43.089165 c 0,23.699041 0.0713,43.160478 0.15847,43.247636 0.0872,0.08716 4.32074,0.130985 9.40795,0.09739 l 9.24948,-0.06108 0,-18.231556 z M 378.37939,99.1489 c 0.19203,-0.231389 0.24752,-5.176596 0.20392,-18.173122 l -0.0599,-17.855232 -2.20786,-0.06781 c -1.21433,-0.0373 -2.34503,-0.181652 -2.51269,-0.320791 -0.24709,-0.20507 -0.30482,-4.939873 -0.30482,-25.000578 l 0,-24.747599 -4.43996,0 -4.43995,0 -0.0595,24.834652 -0.0595,24.834652 -2.39581,0.06661 -2.39581,0.06661 0,18.184423 c 0,10.001432 0.0701,18.254545 0.15582,18.340247 0.0857,0.08571 4.22752,0.155826 9.20403,0.155826 7.34383,0 9.09789,-0.05988 9.31203,-0.31789 z m 20.30534,-17.972101 0.0599,-18.173122 -2.0604,0 c -1.28151,0 -2.20994,-0.110448 -2.45599,-0.292172 -0.36663,-0.270786 -0.39984,-2.097155 -0.45371,-24.951521 l -0.0581,-24.659349 -4.61632,-0.06338 -4.61633,-0.06338 0,24.734412 c 0,18.926225 -0.0659,24.800276 -0.28048,25.014897 -0.17794,0.177942 -1.0752,0.280485 -2.45425,0.280485 l -2.17376,0 0,18.075731 c 0,9.941653 0.0713,18.14703 0.15844,18.234172 0.0871,0.08714 4.37331,0.13097 9.52482,0.09739 l 9.36638,-0.06105 0.0599,-18.173122 z m 19.80786,-24.951521 0,-43.124643 -6.89527,0 -6.89527,0 -0.0581,24.659349 c -0.0539,22.854366 -0.0871,24.680735 -0.45372,24.951521 -0.24176,0.178555 -1.15082,0.292172 -2.33769,0.292172 l -1.9421,0 0,18.075731 c 0,9.941653 0.0713,18.147058 0.1585,18.234233 0.0872,0.08717 4.26817,0.131 9.29109,0.09739 l 9.13258,-0.06111 0,-43.124643 z"
         id="path3168"
         inkscape:connector-curvature="0" />
      <path
         style="fill:#0a0a0a"
         d="m 279.06793,56.225278 0,-43.942726 70.12137,0 70.12137,0 0,43.942726 0,43.942722 -70.12137,0 -70.12137,0 0,-43.942722 z m 139.77526,-0.0024 0,-43.472892 -7.24587,0 c -3.98523,0 -7.27097,0.02629 -7.30164,0.05843 -0.0307,0.03214 -0.10956,11.207733 -0.17531,24.834653 l -0.11953,24.776217 -2.33738,0.116869 c -1.28556,0.06428 -3.44179,0.06428 -4.79163,0 l -2.45425,-0.116869 -0.11953,-24.776217 c -0.0657,-13.62692 -0.14463,-24.804606 -0.17531,-24.839301 -0.0307,-0.0347 -2.29088,-0.0347 -5.02269,0 l -4.96693,0.06308 -0.0595,24.819151 -0.0595,24.819153 -2.39476,0.111413 c -2.89228,0.134561 -2.36469,0.134561 -5.25698,0 l -2.39475,-0.111413 -0.0595,-24.819153 -0.0595,-24.819151 -4.79163,0 -4.79163,0 -0.0595,24.70177 -0.0595,24.701767 -2.27788,0.118237 c -2.90255,0.150658 -2.58515,0.152981 -5.31648,-0.03889 l -2.33738,-0.164191 -0.0595,-24.715986 -0.0595,-24.715985 -14.84129,0 c -8.16271,0 -14.86638,0.02549 -14.89705,0.05664 -0.0307,0.03115 -0.10956,11.205935 -0.17531,24.832855 l -0.11953,24.776217 -2.33738,0.116869 c -1.28556,0.06428 -3.44179,0.06428 -4.79163,0 l -2.45425,-0.116869 -0.11953,-24.776217 c -0.0657,-13.62692 -0.14464,-24.804648 -0.17531,-24.839395 -0.0307,-0.03475 -2.23829,-0.03475 -4.90583,0 l -4.85006,0.06318 -0.0595,24.648739 c -0.0327,13.556808 -0.14818,24.737411 -0.25656,24.845783 -0.10837,0.108375 -2.28111,0.197044 -4.82831,0.197044 -3.54098,0 -4.67656,-0.0714 -4.82366,-0.303303 -0.10582,-0.166817 -0.19401,-11.373715 -0.19598,-24.904218 l -0.004,-24.600914 -7.36274,0 -7.36274,0 0,43.472237 0,43.472235 69.65389,7.01e-4 69.65389,7.02e-4 0,-43.47289 z"
         id="path3166"
         inkscape:connector-curvature="0" />
    </g>
  </g>
</svg>
