<?xml version="1.0" encoding="UTF-8" standalone="no"?>
<svg
   xmlns:dc="http://purl.org/dc/elements/1.1/"
   xmlns:cc="http://creativecommons.org/ns#"
   xmlns:rdf="http://www.w3.org/1999/02/22-rdf-syntax-ns#"
   xmlns:svg="http://www.w3.org/2000/svg"
   xmlns="http://www.w3.org/2000/svg"
   xmlns:xlink="http://www.w3.org/1999/xlink"
   xmlns:sodipodi="http://sodipodi.sourceforge.net/DTD/sodipodi-0.dtd"
   xmlns:inkscape="http://www.inkscape.org/namespaces/inkscape"
   width="291.42856"
   height="256.31427"
   id="svg2"
   sodipodi:version="0.32"
   inkscape:version="1.0.1 (c497b03c, 2020-09-10)"
   sodipodi:docname="instrument_cover.svg"
   inkscape:output_extension="org.inkscape.output.svg.inkscape"
   version="1.0">
  <defs
     id="defs4">
    <inkscape:perspective
       sodipodi:type="inkscape:persp3d"
       inkscape:vp_x="0 : 128.31427 : 1"
       inkscape:vp_y="0 : 1000 : 0"
       inkscape:vp_z="256 : 128.31427 : 1"
       inkscape:persp3d-origin="128 : 85.647603 : 1"
       id="perspective17" />
    <linearGradient
       id="linearGradient3751"
       inkscape:collect="always">
      <stop
         id="stop3753"
         offset="0"
         style="stop-color:black;stop-opacity:1;" />
      <stop
         id="stop3755"
         offset="1"
         style="stop-color:black;stop-opacity:0;" />
    </linearGradient>
    <linearGradient
       inkscape:collect="always"
       xlink:href="#linearGradient3751"
       id="linearGradient3484"
       gradientUnits="userSpaceOnUse"
       gradientTransform="matrix(0.336682,0,0,0.336682,-81.3739,-51.8729)"
       x1="665.12128"
       y1="684.16162"
       x2="381.28015"
       y2="449.80624" />
  </defs>
  <sodipodi:namedview
     id="base"
     pagecolor="#ffffff"
     bordercolor="#666666"
     borderopacity="1.0"
     inkscape:pageopacity="0.0"
     inkscape:pageshadow="2"
     inkscape:zoom="1.1191406"
     inkscape:cx="30.841656"
     inkscape:cy="71.112672"
     inkscape:document-units="px"
     inkscape:current-layer="layer1"
     inkscape:window-width="1144"
     inkscape:window-height="785"
     inkscape:window-x="136"
     inkscape:window-y="23"
     showguides="true"
     inkscape:guide-bbox="true"
     width="256px"
     height="256px"
     borderlayer="false"
     showgrid="false"
     inkscape:document-rotation="0"
     inkscape:window-maximized="0" />
  <metadata
     id="metadata7">
    <rdf:RDF>
      <cc:Work
         rdf:about="">
        <dc:format>image/svg+xml</dc:format>
        <dc:type
           rdf:resource="http://purl.org/dc/dcmitype/StillImage" />
      </cc:Work>
    </rdf:RDF>
  </metadata>
  <g
     inkscape:label="Capa 1"
     inkscape:groupmode="layer"
     id="layer1"
     transform="translate(16.285721,0.93781662)">
    <rect
       style="color:#000000;display:block;overflow:visible;visibility:visible;opacity:1;fill:#ffffff;fill-opacity:0.313131;fill-rule:nonzero;stroke:#7f7f7f;stroke-width:10.014;stroke-linecap:butt;stroke-linejoin:miter;stroke-miterlimit:4;stroke-dasharray:none;stroke-dashoffset:0;stroke-opacity:1;marker:none;marker-start:none;marker-mid:none;marker-end:none"
       id="rect1906"
       width="246.30026"
       height="246.30028"
       x="4.8498545"
       y="4.0691833"
       inkscape:export-filename="/home/jesusda/docs/curro/yo/ultrastar-ng/base/theme-pod/images/no_cover.png"
       inkscape:export-xdpi="89.889648"
       inkscape:export-ydpi="89.889648" />
    <path
       style="opacity:1;fill:#000000"
       d="m 58.770328,163.09224 c -0.1032,-0.43302 0.13753,-0.76059 0.53741,-0.7313 0.12706,0.009 0.26672,-0.0129 0.31032,-0.0494 0.07598,-0.0636 0.2117,-0.49193 0.19423,-0.61304 -0.0046,-0.032 -0.36673,-0.52164 -0.80473,-1.08819 -0.98864,-1.27877 -1.86523,-2.48928 -2.74958,-3.79698 -1.39567,-2.06383 -3.13609,-4.88958 -3.76459,-6.11226 -1.55471,-3.02441 -2.39712,-6.26923 -2.43998,-9.39807 -0.01676,-1.22353 0.18731,-3.63029 0.38617,-4.55483 0.63274,-2.9413 2.0621,-5.22959 4.77345,-7.64188 1.63585,-1.45539 4.4947,-3.45209 6.247651,-4.36351 3.23891,-1.68399 7.22715,-3.17063 13.83521,-5.15715 3.7361,-1.12315 4.81336,-1.48852 6.237629,-2.11563 3.71794,-1.63698 6.52821,-4.16745 9.20088,-8.28486 1.48579,-2.28897 4.848242,-7.28441 5.271482,-7.83165 3.700234,-4.784198 7.24224,-7.668408 10.69083,-8.705428 0.68773,-0.2068 2.00778,-0.45624 2.66664,-0.50388 1.23326,-0.08922 2.38273,0.16014 3.2059,0.69545 0.30852,0.2006 0.41352,0.29902 0.67574,0.63346 0.29956,0.38193 0.31031,0.39086 0.30454,0.2531 -0.003,-0.07851 -0.0165,-0.15616 -0.0294,-0.1725 -0.0762,-0.0968 0.0915,-0.06276 0.43362,0.08803 l 0.39151,0.17253 0.11699,-0.14591 c 0.282,-0.35169 0.54047,-0.40072 0.83571,-0.15854 0.16637,0.13644 0.22268,0.29488 0.28846,0.81146 0.065,0.51084 0.0206,0.68872 -0.22293,0.89246 -0.22002,0.18407 -0.40446,0.19072 -0.6061,0.02182 -0.28068,-0.23503 -0.4773,-0.16599 -0.76079,0.26709 -0.0779,0.11896 -0.14747,0.22152 -0.15469,0.22796 -0.007,0.0064 -0.0278,-0.07742 -0.0458,-0.18633 l -0.0327,-0.19799 -0.0839,0.26293 c -0.19709,0.61745 -0.42341,0.90014 -1.66141,2.07525 -1.08432,1.02923 -1.99036,1.96748 -2.67482,2.769908 -0.27359,0.32074 -0.64143,0.74666 -0.81743,0.94649 -0.38371,0.43564 -0.55245,0.69421 -0.75717,1.16028 -0.29666,0.67534 -0.45199,1.37861 -0.53367,2.41638 -0.13458,1.70999 0.16433,3.40681 0.85601,4.85953 0.17003,0.35708 0.28399,0.522 0.73347,1.06138 0.61346,0.73612 0.81688,0.8984 1.54756,1.23421 0.54202,0.24913 1.04954,0.37398 1.65699,0.40769 0.56652,0.0314 1.5183,-0.0754 1.64946,-0.18515 0.0547,-0.0458 2.08174,-1.65327 4.50452,-3.57224 11.52761,-9.130458 19.11974,-15.171828 30.54161,-24.303224 2.05811,-1.64536 6.79303,-5.45244 10.07282,-8.09894 2.14244,-1.72874 6.69068,-5.44062 11.24277,-9.17532 l 2.20155,-1.80618 0.0253,-0.367 c 0.0337,-0.48815 0.0265,-0.99053 -0.0217,-1.50993 -0.0592,-0.63801 -0.0159,-1.05307 0.13867,-1.32539 0.30026,-0.52918 0.73873,-0.85391 1.62115,-1.20059 0.64591,-0.25378 1.84048,-0.8238 1.84551,-0.88067 0.009,-0.09579 -0.22155,-0.57434 -0.30953,-0.64394 -0.0545,-0.04307 -0.20823,-0.05955 -0.36963,-0.0396 -0.24186,0.02986 -0.29386,0.01643 -0.41613,-0.10763 -0.15434,-0.15661 -0.33474,-0.58152 -0.49823,-1.17342 -0.12828,-0.46465 -0.11136,-0.49288 0.54696,-0.91348 0.51071,-0.3263 0.75643,-0.43235 1.15793,-0.49985 0.33572,-0.05646 0.53226,-0.01232 0.7286,0.16361 0.19752,0.17693 0.52194,0.75643 0.59,1.05388 0.0658,0.28756 -0.0276,0.62223 -0.21809,0.78161 -0.16061,0.13433 -0.15891,0.14217 0.11352,0.54152 0.14618,0.21426 0.1501,0.21621 0.30398,0.15244 0.63801,-0.26449 2.49783,-1.08831 2.49731,-1.10624 -4e-4,-0.01226 -0.0473,-0.1366 -0.10431,-0.27624 -0.1275,-0.31232 -0.26506,-0.40331 -0.52247,-0.34584 -0.10032,0.02241 -0.22671,0.03067 -0.28092,0.0184 -0.23305,-0.05266 -0.45114,-0.47828 -0.671,-1.3098 l -0.11221,-0.42437 0.45205,-0.3363 c 0.77185,-0.57419 1.49235,-0.79496 1.91553,-0.5869 0.21542,0.10594 0.24696,0.13895 0.45624,0.47771 0.25134,0.40678 0.34441,0.65858 0.33331,0.90145 -0.01,0.21379 -0.17655,0.5543 -0.29987,0.61249 -0.11685,0.05513 -0.10091,0.11464 0.11901,0.44597 l 0.16303,0.2457 1.25446,-0.52398 c 0.68994,-0.28818 1.26021,-0.53711 1.26727,-0.55318 0.0299,-0.06761 -0.19118,-0.54184 -0.28387,-0.60915 -0.0554,-0.0403 -0.174,-0.05693 -0.26342,-0.037 -0.26022,0.05802 -0.42965,0.02256 -0.54376,-0.11381 -0.13265,-0.15852 -0.36916,-0.76098 -0.48046,-1.22396 l -0.0855,-0.35546 0.27413,-0.22189 c 0.62678,-0.50725 0.99621,-0.6917 1.56054,-0.779 0.26891,-0.04161 0.36962,-0.02905 0.54252,0.0675 0.18602,0.10387 0.23971,0.16256 0.43304,0.47333 0.30065,0.48329 0.38753,0.85498 0.27394,1.17191 -0.0629,0.1757 -0.12488,0.26558 -0.21829,0.31649 -0.14415,0.07863 -0.14128,0.08932 0.14311,0.52687 l 0.13828,0.21274 1.35283,-0.54556 c 0.74402,-0.30003 1.35205,-0.55743 1.35107,-0.57197 -0.007,-0.10708 -0.26036,-0.60646 -0.3339,-0.6584 -0.0503,-0.03557 -0.2179,-0.04753 -0.3725,-0.02656 -0.24082,0.03264 -0.29954,0.01944 -0.40993,-0.09217 -0.14977,-0.15135 -0.33174,-0.58785 -0.48784,-1.1698 -0.13266,-0.49446 -0.12345,-0.51058 0.5333,-0.93331 0.73514,-0.47319 1.36152,-0.6327 1.73539,-0.44191 0.15206,0.0776 0.21685,0.14905 0.41933,0.46219 0.31169,0.48223 0.39393,0.77578 0.31045,1.10782 -0.0515,0.20458 -0.0993,0.28482 -0.21894,0.36709 -0.1723,0.11851 -0.17282,0.1162 0.13939,0.58564 l 0.16845,0.2532 1.30711,-0.50525 c 0.71894,-0.27789 1.31266,-0.5163 1.31939,-0.52981 0.0172,-0.03436 -0.27139,-0.71372 -0.33762,-0.79464 -0.0298,-0.03655 -0.12502,-0.06041 -0.21143,-0.05304 -0.44102,0.03766 -0.53533,0.02256 -0.6399,-0.10245 -0.12267,-0.1466 -0.32371,-0.65253 -0.47949,-1.20683 l -0.11052,-0.39313 0.47329,-0.35456 c 0.50757,-0.38026 0.87752,-0.54936 1.39025,-0.63557 0.30882,-0.05194 0.48145,-0.01166 0.67766,0.15814 0.18367,0.15891 0.53194,0.74741 0.58719,0.99233 0.0858,0.37985 -0.0343,0.79271 -0.26283,0.90333 -0.1239,0.05996 -0.1337,0.02682 0.17858,0.60562 0.0993,0.18419 0.1885,0.33472 0.19797,0.33457 0.01,-1.8e-4 0.35735,-0.15922 0.77289,-0.35341 0.41561,-0.19421 1.00326,-0.45896 1.306,-0.58835 0.30267,-0.12937 0.54924,-0.24287 0.54781,-0.25219 -0.0147,-0.09563 -0.25448,-0.58376 -0.32887,-0.6694 -0.0774,-0.08904 -0.15043,-0.10404 -0.37276,-0.07649 -0.46009,0.05701 -0.56923,-0.07762 -0.88053,-1.08646 -0.19811,-0.64199 -0.19484,-0.6541 0.25898,-0.95895 0.15414,-0.10357 0.36094,-0.24283 0.45956,-0.30946 0.37747,-0.25515 1.09777,-0.42372 1.38902,-0.32508 0.20366,0.06897 0.42723,0.31339 0.65369,0.71467 0.29764,0.52716 0.28856,1.00438 -0.024,1.26587 l -0.16368,0.13694 0.25636,0.39864 c 0.14102,0.21924 0.26649,0.39903 0.2789,0.3995 0.0124,4.3e-4 0.2245,-0.04706 0.47133,-0.10559 0.75394,-0.17876 1.22579,-0.21073 1.73447,-0.11753 1.40234,0.25694 2.51755,1.00726 3.14786,2.11792 0.11116,0.19597 0.25689,0.48789 0.32377,0.64871 0.14709,0.35385 0.34859,1.1746 0.39843,1.62283 0.0963,0.86619 -0.14716,1.7806 -0.68347,2.56716 -0.53063,0.77817 -1.39457,1.66363 -1.89764,1.94476 -1.05179,0.58782 -2.48143,0.89827 -3.43982,0.74696 -0.28686,-0.04532 -0.80933,-0.22302 -1.36948,-0.4658 -0.70085,-0.30375 -1.24924,-0.24979 -1.85368,0.18242 -0.39869,0.28505 -0.56459,0.48388 -2.49312,2.98706 -2.00156,2.59795 -3.24903,4.18176 -4.25549,5.40265 -0.69693,0.84546 -0.76649,0.91664 -1.51848,1.55361 -0.56688,0.48014 -0.83291,0.68124 -0.94787,0.71643 -0.11783,0.03604 -0.29274,0.0011 -0.6657,-0.13282 -0.74271,-0.26674 -1.78307,-0.55886 -2.30488,-0.64719 -0.5693,-0.09637 -1.03919,-0.10415 -1.72076,-0.02842 -1.01195,0.11242 -1.19451,0.16835 -1.87288,0.57382 -0.33716,0.2015 -0.78563,0.46042 -0.99653,0.57535 -0.39941,0.21758 -2.14741,1.68782 -33.466,28.148866 -2.67751,2.262218 -8.90555,7.519528 -13.84013,11.682918 -4.93456,4.16338 -10.1035,8.53142 -11.48656,9.70677 -1.38303,1.17532 -3.35381,2.83942 -4.37943,3.69794 l -1.86485,1.56099 0.0375,0.13595 c 0.0206,0.0748 0.0129,0.23641 -0.0171,0.35918 -0.2952,1.20644 0.53374,3.26848 1.92073,4.77794 1.6344,1.77867 3.56032,2.69778 5.60339,2.67416 0.52828,-0.006 1.1857,-0.19714 2.58414,-0.75086 0.78926,-0.31253 2.36224,-1.06083 3.07759,-1.46408 0.87864,-0.4953 1.43092,-0.64104 2.18263,-0.57591 0.86586,0.075 1.45819,0.40575 1.99815,1.11569 0.50411,0.66283 0.65003,1.25152 0.56061,2.26189 -0.031,0.35148 -0.10999,0.81136 -0.17531,1.02192 -0.26394,0.85082 -1.36036,2.55287 -2.46643,3.82893 -0.52798,0.60912 -2.34873,2.13164 -3.09187,2.58544 -1.51243,0.92355 -2.47794,1.3705 -6.65249,3.07955 -0.25566,0.10467 -0.9638,0.31819 -1.57365,0.47448 -1.6916,0.43354 -2.64481,0.76886 -3.857,1.35678 -1.95394,0.94769 -3.55785,2.23272 -4.91583,3.93848 -0.93734,1.1774 -1.6487,2.41284 -2.34309,4.06936 -0.22912,0.5466 -0.53247,1.20863 -0.6741,1.47115 -0.33689,0.62445 -0.69796,1.35409 -1.66334,3.36122 -1.54445,3.21109 -2.33945,4.7002 -3.425436,6.41621 -1.995414,3.15306 -4.222204,5.64576 -6.801546,7.61368 -1.76506,1.34666 -3.00428,2.136 -4.37009,2.7836 -2.54156,1.20502 -4.702,1.58808 -7.9219,1.40466 -1.377579,-0.0785 -1.451249,-0.0912 -2.626389,-0.45372 -2.66432,-0.82201 -4.03491,-1.44163 -5.78531,-2.61557 -2.17608,-1.45942 -4.50092,-3.61047 -6.55284,-6.06304 -0.62648,-0.74878 -1.96719,-2.32794 -2.97934,-3.50925 l -1.84033,-2.1478 -0.36559,0.0618 -0.365581,0.0618 -0.03761,0.26815 c -0.04147,0.29551 -0.14062,0.41189 -0.40022,0.46978 -0.29614,0.0661 -0.48423,-0.0366 -0.82904,-0.45274 -0.22088,-0.26654 -0.31771,-0.42023 -0.3499,-0.55537 z"
       id="path3250"
       sodipodi:nodetypes="csssssssssssssssssssscccsssssscccssssssssssssscccssssssssssssssssssscccsssscccsssscccssssscccsssssssssscccsssscccsssssssssssssssscccssssssssssssssssssssssscccssssssssssssssssssssssssscccccssc" />
    <rect
       style="color:#000000;display:block;overflow:visible;visibility:visible;opacity:1;fill:#0000ff;fill-opacity:0.226087;fill-rule:nonzero;stroke:none;stroke-width:10.6;stroke-linecap:butt;stroke-linejoin:miter;stroke-miterlimit:4;stroke-dasharray:none;stroke-dashoffset:0;stroke-opacity:1;marker:none;marker-start:none;marker-mid:none;marker-end:none"
       id="rect1913"
       width="291.42856"
       height="45.714287"
       x="-16.285721"
       y="181.50516" />
    <path
       style="font-size:39.8338px;font-family:Goblin;fill:#000000;fill-opacity:1;stroke:none;stroke-opacity:1"
       d="M 58.72672,219.00823 44.00299,198.17717 v 20.44206 h -3.69552 v -28.49441 h 1.55601 l 14.33473,19.70296 v -19.70296 h 3.69552 v 28.88341 H 58.72672 M 64.3867,204.1289 c 0,-4.1234 1.03086,-7.57255 3.09257,-10.34746 2.07467,-2.77485 4.869,-4.16229 8.383,-4.16232 3.95483,3e-5 6.98256,1.27725 9.0832,3.83167 2.11355,2.55447 3.17034,6.11384 3.17036,10.67811 -2e-5,4.681 -1.05681,8.35059 -3.17036,11.00876 -2.1136,2.64522 -5.14133,3.96782 -9.0832,3.96782 -3.5918,0 -6.40558,-1.4004 -8.44135,-4.20122 -2.02281,-2.80081 -3.03422,-6.39259 -3.03422,-10.77536 m 4.08453,0 c -1e-5,3.26763 0.64184,5.99713 1.92556,8.1885 1.29666,2.19138 3.11849,3.28707 5.46548,3.28707 2.65816,0 4.68097,-1.00492 6.06843,-3.01477 1.40039,-2.00984 2.10059,-4.8301 2.10061,-8.4608 -2e-5,-7.33915 -2.72303,-11.00873 -8.16904,-11.00876 -2.41183,3e-5 -4.24662,0.9855 -5.50438,2.95642 -1.25778,1.97096 -1.88667,4.65507 -1.88666,8.05234 m 54.28524,-12.95377 -1.30315,3.32597 c -1.24483,-0.90765 -3.2028,-1.36148 -5.87394,-1.36151 -2.50259,3e-5 -4.51243,1.07626 -6.02953,3.22872 -1.50415,2.1525 -2.25622,4.92738 -2.25621,8.32465 -1e-5,3.24169 0.77151,5.87394 2.31456,7.89674 1.556,2.00985 3.55936,3.01477 6.01008,3.01477 2.67114,0 4.72636,-0.94657 6.16569,-2.83972 l 2.13951,2.97587 c -2.25623,2.24324 -5.16078,3.36486 -8.71365,3.36486 -3.72146,0 -6.65194,-1.34205 -8.79145,-4.02617 -2.13951,-2.68411 -3.20927,-6.22402 -3.20926,-10.61976 -1e-5,-4.25307 1.14107,-7.7865 3.42321,-10.6003 2.28214,-2.81376 5.23207,-4.22065 8.8498,-4.22068 3.09904,3e-5 5.52381,0.51222 7.27434,1.53656 m 4.25958,12.95377 c -1e-5,-4.1234 1.03085,-7.57255 3.09256,-10.34746 2.07467,-2.77485 4.869,-4.16229 8.383,-4.16232 3.95484,3e-5 6.98257,1.27725 9.0832,3.83167 2.11355,2.55447 3.17034,6.11384 3.17037,10.67811 -3e-5,4.681 -1.05682,8.35059 -3.17037,11.00876 -2.1136,2.64522 -5.14133,3.96782 -9.0832,3.96782 -3.5918,0 -6.40558,-1.4004 -8.44135,-4.20122 -2.02281,-2.80081 -3.03422,-6.39259 -3.03421,-10.77536 m 4.08452,0 c -1e-5,3.26763 0.64185,5.99713 1.92556,8.1885 1.29666,2.19138 3.11849,3.28707 5.46548,3.28707 2.65816,0 4.68097,-1.00492 6.06843,-3.01477 1.40039,-2.00984 2.10059,-4.8301 2.10061,-8.4608 -2e-5,-7.33915 -2.72303,-11.00873 -8.16904,-11.00876 -2.41182,3e-5 -4.24662,0.9855 -5.50438,2.95642 -1.25778,1.97096 -1.88667,4.65507 -1.88666,8.05234 m 34.03769,14.87933 h -1.96446 l -10.61976,-28.88341 h 4.31793 l 7.33269,20.98667 7.06039,-20.98667 h 4.18177 l -10.30856,28.88341 m 17.38839,-25.38239 v 7.9162 h 9.41386 v 3.30652 h -9.41386 v 10.26965 h 12.91488 v 3.50102 h -16.8049 v -28.49441 h 17.01885 v 3.50102 h -13.12883 m 33.24024,24.99339 -7.60499,-12.23412 c -0.86878,2e-5 -2.24326,-0.0648 -4.12342,-0.1945 v 12.42862 h -3.89002 v -28.49441 c 0.14263,3e-5 1.14755,-0.0454 3.01476,-0.13615 1.88017,-0.1037 3.24816,-0.15557 4.10397,-0.1556 6.84643,3e-5 10.26964,2.72304 10.26966,8.16905 -2e-5,1.78943 -0.5511,3.40378 -1.65326,4.84307 -1.10219,1.42636 -2.41183,2.31458 -3.92892,2.66467 l 8.2663,13.10937 h -4.45408 m -11.72841,-24.99339 v 9.25826 c 0.93359,0.12968 1.84126,0.19451 2.72301,0.1945 2.334,1e-5 4.03264,-0.37602 5.09593,-1.12811 1.06326,-0.75205 1.59489,-2.09411 1.59491,-4.02617 -2e-5,-1.59489 -0.57055,-2.74244 -1.71161,-3.44267 -1.14109,-0.70018 -2.94346,-1.05028 -5.40713,-1.05031 -0.38901,3e-5 -1.15405,0.0649 -2.29511,0.1945"
       id="text1909" />
  </g>
</svg>
