<?xml version="1.0" encoding="UTF-8" standalone="no"?>
<!-- Created with Inkscape (http://www.inkscape.org/) -->

<svg
   xmlns:dc="http://purl.org/dc/elements/1.1/"
   xmlns:cc="http://creativecommons.org/ns#"
   xmlns:rdf="http://www.w3.org/1999/02/22-rdf-syntax-ns#"
   xmlns:svg="http://www.w3.org/2000/svg"
   xmlns="http://www.w3.org/2000/svg"
   xmlns:sodipodi="http://sodipodi.sourceforge.net/DTD/sodipodi-0.dtd"
   xmlns:inkscape="http://www.inkscape.org/namespaces/inkscape"
   width="360"
   height="85"
   id="svg1901"
   sodipodi:version="0.32"
   inkscape:version="0.48.1 r9760"
   sodipodi:docname="Uusi asiakirja 1"
   version="1.1">
  <defs
     id="defs1903">
    <filter
       color-interpolation-filters="sRGB"
       inkscape:collect="always"
       id="filter3869-9"
       x="-0.019231318"
       width="1.0384626"
       y="-0.12226724"
       height="1.2445345">
      <feGaussianBlur
         inkscape:collect="always"
         stdDeviation="3.4581674"
         id="feGaussianBlur3871-2" />
    </filter>
  </defs>
  <sodipodi:namedview
     id="base"
     pagecolor="#ffffff"
     bordercolor="#666666"
     borderopacity="1.0"
     inkscape:pageopacity="0.0"
     inkscape:pageshadow="2"
     inkscape:zoom="0.35"
     inkscape:cx="321.42857"
     inkscape:cy="-83.214282"
     inkscape:document-units="px"
     inkscape:current-layer="layer1"
     inkscape:window-width="877"
     inkscape:window-height="722"
     inkscape:window-x="177"
     inkscape:window-y="25"
     showgrid="false"
     fit-margin-top="0"
     fit-margin-left="0"
     fit-margin-right="0"
     fit-margin-bottom="0"
     inkscape:window-maximized="0" />
  <metadata
     id="metadata1906">
    <rdf:RDF>
      <cc:Work
         rdf:about="">
        <dc:format>image/svg+xml</dc:format>
        <dc:type
           rdf:resource="http://purl.org/dc/dcmitype/StillImage" />
        <dc:title></dc:title>
      </cc:Work>
    </rdf:RDF>
  </metadata>
  <g
     inkscape:label="Taso 1"
     inkscape:groupmode="layer"
     id="layer1"
     transform="translate(-28.571429,-364.1479)">
    <g
       transform="matrix(0.98065768,0,0,0.97754687,-1.9638217,255.66295)"
       id="g3873">
      <path
         inkscape:connector-curvature="0"
         id="text3236"
         d="m 74.487864,100.57517 c -5.2e-5,2.78873 -0.646212,5.29401 -1.938481,7.51586 -1.269697,2.19925 -3.10615,4.04703 -5.509366,5.54338 -2.380632,1.45105 -5.044624,2.52798 -7.991981,3.2308 -2.924759,0.70286 -6.155557,1.05428 -9.692404,1.05426 l -4.897214,0 -3.02675,13.09325 c -0.09071,0.38543 -0.170061,0.74819 -0.238059,1.08827 -0.04536,0.34009 -0.06804,0.60082 -0.06802,0.78219 -1.9e-5,1.02026 0.419418,1.76844 1.258312,2.24456 0.838854,0.47612 2.482593,0.83888 4.931223,1.08827 l -0.578144,2.48261 -26.220501,0 0.578143,-2.48261 c 0.566808,-0.0227 1.405682,-0.10202 2.516624,-0.23806 1.133612,-0.1587 1.972486,-0.32875 2.516624,-0.51013 0.884215,-0.29473 1.553047,-0.73684 2.006498,-1.32633 0.476112,-0.58947 0.804859,-1.28097 0.986244,-2.07451 l 7.787931,-33.736365 c 0.113347,-0.476078 0.1927,-0.872842 0.238059,-1.190295 0.04533,-0.317371 0.068,-0.555429 0.06802,-0.714178 -1.5e-5,-0.952192 -0.487468,-1.689041 -1.462362,-2.210548 -0.952249,-0.54409 -2.516635,-0.974863 -4.693164,-1.29232 l 0.578143,-2.482616 26.152485,0 c 5.622686,4.9e-5 9.805719,0.827586 12.549111,2.482616 2.765969,1.655121 4.148977,4.205751 4.149029,7.651896 m -14.215525,5.67941 c 0.498752,-1.70039 0.748147,-3.55951 0.748186,-5.57738 -3.9e-5,-2.44857 -0.657535,-4.273688 -1.972489,-5.475361 -1.315028,-1.224259 -3.457558,-1.83641 -6.427594,-1.836455 l -2.482616,0 -4.965231,21.527336 2.210548,0 c 2.44858,2e-5 4.545765,-0.36273 6.29156,-1.08827 1.768406,-0.74816 3.196758,-1.77975 4.285063,-3.09477 1.042888,-1.26961 1.813745,-2.75465 2.312573,-4.4551 m 29.92742,33.56632 c -2.72069,0 -5.112614,-0.37409 -7.175779,-1.12228 -2.040515,-0.72551 -3.729599,-1.74576 -5.067257,-3.06076 -1.314997,-1.31498 -2.301241,-2.84536 -2.958733,-4.59113 -0.657499,-1.74576 -0.986247,-3.6729 -0.986245,-5.78144 -2e-6,-2.67531 0.498788,-5.27129 1.496371,-7.78793 0.997576,-2.5166 2.482609,-4.78382 4.455105,-6.80168 1.859117,-1.92712 4.217033,-3.49151 7.073754,-4.69317 2.85669,-1.2016 6.008135,-1.80241 9.454344,-1.80245 4.058311,4e-5 7.141741,0.6462 9.250291,1.93849 2.13116,1.29235 3.19676,3.23083 3.1968,5.81544 -4e-5,2.4713 -0.91827,4.60249 -2.75469,6.39358 -1.83649,1.76846 -4.33044,3.08345 -7.481853,3.94498 -2.493976,0.7482 -4.625169,1.281 -6.393585,1.5984 -1.745785,0.31742 -3.888314,0.61216 -6.427594,0.88422 0.04533,0.99759 0.181364,2.11987 0.408101,3.36683 0.226708,1.24699 0.566792,2.31258 1.020253,3.19679 0.544119,1.02026 1.314976,1.83646 2.312574,2.44861 0.997561,0.58948 2.267208,0.88422 3.808944,0.88422 2.675306,0 4.942532,-0.51012 6.80169,-1.53038 1.88177,-1.04292 3.67287,-2.68666 5.37333,-4.93122 l 2.48261,2.07451 c -2.04054,2.90206 -4.65918,5.22597 -7.85594,6.97173 -3.174149,1.72309 -6.518308,2.58464 -10.032491,2.58464 m 7.685906,-26.93468 c -2.7e-5,-1.92711 -0.351447,-3.40081 -1.054262,-4.42109 -0.702865,-1.0429 -1.677773,-1.56436 -2.924725,-1.56439 -1.745787,3e-5 -3.400862,1.42838 -4.965231,4.28506 -1.541731,2.83406 -2.527975,6.42762 -2.958734,10.78068 1.33765,-0.15869 2.663977,-0.36274 3.978987,-0.61216 1.314973,-0.24937 2.357897,-0.54411 3.128776,-0.88422 1.700398,-0.74816 2.924701,-1.71173 3.67291,-2.89071 0.74816,-1.17894 1.122252,-2.74333 1.122279,-4.69317 m 50.128435,-1.6324 c -4e-5,1.02028 -0.14741,2.00652 -0.44211,2.95873 -0.29478,0.95226 -0.73689,1.76846 -1.32633,2.44861 -0.65753,0.77088 -1.34904,1.34902 -2.07452,1.73443 -0.72554,0.36278 -1.74579,0.54415 -3.06076,0.54413 -1.70045,2e-5 -3.03811,-0.41941 -4.01299,-1.25831 -0.97493,-0.83885 -1.46239,-1.77975 -1.46236,-2.8227 -3e-5,-0.97488 0.13601,-1.81375 0.4081,-2.51662 0.29471,-0.70282 0.74816,-1.76841 1.36034,-3.19679 -1.51907,0.63485 -2.82273,1.41704 -3.91097,2.34658 -1.0883,0.90692 -2.13122,1.94984 -3.12878,3.12877 l -5.37333,24.07797 -11.25679,0 4.69316,-20.91518 c 0.13603,-0.6348 0.30607,-1.46234 0.51013,-2.48262 0.22671,-1.02023 0.34007,-1.87044 0.34008,-2.55063 -1e-5,-1.31497 -0.26074,-2.21052 -0.78219,-2.68667 -0.4988,-0.47609 -1.47371,-0.71414 -2.92473,-0.71417 -0.72552,3e-5 -1.4737,0.11339 -2.24455,0.34008 -0.74819,0.22675 -1.39435,0.44214 -1.93849,0.64616 l 0.74819,-3.06076 c 1.83645,-0.74815 3.59355,-1.38297 5.27131,-1.90447 1.67774,-0.5441 3.2648,-0.81617 4.76118,-0.8162 2.67531,3e-5 4.67047,0.53283 5.98548,1.59839 1.33765,1.04296 2.22187,2.51666 2.65266,4.4211 l 0.23806,0 c 2.24453,-2.38056 4.149,-4.03563 5.71342,-4.96523 1.56436,-0.9522 3.2421,-1.42832 5.03324,-1.42836 1.92711,4e-5 3.44616,0.61219 4.55713,1.83646 1.11091,1.20166 1.66638,2.94743 1.66642,5.2373 m 20.60911,-2.07452 c -1.13364,5.60008 -2.11988,10.46328 -2.95874,14.58962 -0.81622,4.1037 -1.80246,8.40009 -2.95873,12.8892 -0.56682,2.19921 -1.50772,4.35307 -2.8227,6.4616 -1.29233,2.13119 -2.82271,3.96764 -4.59114,5.50937 -1.85913,1.63239 -3.87697,2.90204 -6.0535,3.80894 -2.15387,0.90688 -4.37575,1.36032 -6.66565,1.36034 -2.06318,-2e-5 -3.72959,-0.20407 -4.99924,-0.61215 -1.29231,-0.40812 -2.30123,-0.92958 -3.02675,-1.56439 -0.70283,-0.63484 -1.17895,-1.33768 -1.42836,-2.10852 -0.24938,-0.77087 -0.37408,-1.53039 -0.37409,-2.27857 10e-6,-1.315 0.47613,-2.48262 1.42835,-3.50287 0.92958,-0.99758 2.18789,-1.49637 3.77494,-1.49637 1.22431,0 2.28991,0.31741 3.19679,0.95224 0.88423,0.65749 1.64375,1.43968 2.27857,2.34658 0.63482,0.88421 1.20163,1.87045 1.70042,2.95873 0.47612,1.08826 0.85021,1.93847 1.12228,2.55063 0.95223,-1.04293 1.84779,-2.61865 2.68666,-4.72717 0.83888,-2.08585 1.62107,-4.87454 2.34658,-8.36607 l 6.08751,-28.77114 -6.59763,0 0.8162,-3.50286 6.52962,0 0.57814,-2.61865 c 0.47611,-2.13116 1.33766,-4.217009 2.58464,-6.257555 1.26964,-2.063134 2.80001,-3.899588 4.59114,-5.509366 1.72308,-1.587011 3.7069,-2.87933 5.95148,-3.876961 2.2672,-0.997528 4.53443,-1.496318 6.80168,-1.496371 1.97246,5.3e-5 3.60486,0.192767 4.89722,0.578143 1.31495,0.362809 2.34654,0.872935 3.09477,1.53038 0.68012,0.612202 1.13357,1.303706 1.36033,2.074514 0.24936,0.748233 0.37406,1.496418 0.3741,2.244557 -4e-5,0.498836 -0.10207,1.054306 -0.30608,1.666413 -0.18142,0.612196 -0.47616,1.167666 -0.88422,1.666413 -0.49883,0.56685 -1.03163,1.008959 -1.5984,1.326329 -0.54417,0.317453 -1.34903,0.476159 -2.41459,0.476118 -1.22434,4.1e-5 -2.2786,-0.317371 -3.16279,-0.952236 -0.88425,-0.657454 -1.63243,-1.428311 -2.24456,-2.312574 -0.65752,-0.929518 -1.21299,-1.927098 -1.66641,-2.992742 -0.45347,-1.065549 -0.82756,-1.915759 -1.12228,-2.550632 -0.92959,1.065646 -1.76846,2.618697 -2.51662,4.659155 -0.74821,2.040549 -1.51907,4.85191 -2.31257,8.434095 l -0.85021,3.91097 8.60413,0 -0.8162,3.50286 -8.43409,0 m 47.44176,9.14827 c -4e-5,2.85673 -0.54417,5.58874 -1.6324,8.19603 -1.08831,2.60733 -2.63003,4.87455 -4.62515,6.80169 -2.1539,2.06318 -4.68186,3.66158 -7.58388,4.79519 -2.87941,1.11094 -6.12154,1.66641 -9.72641,1.66641 -4.82921,0 -8.72884,-1.28098 -11.6989,-3.84295 -2.97008,-2.58463 -4.45511,-6.09884 -4.45511,-10.54261 0,-3.0154 0.55547,-5.81543 1.66642,-8.40009 1.13361,-2.58461 2.70933,-4.8405 4.72717,-6.76767 1.99515,-1.88177 4.44375,-3.36681 7.34582,-4.45511 2.90203,-1.11091 6.04214,-1.66638 9.42034,-1.66641 5.1239,3e-5 9.15957,1.25834 12.107,3.77493 2.97003,2.49398 4.45506,5.97418 4.4551,10.44059 M 204.094,114.48462 c -3e-5,-2.65263 -0.45347,-4.60245 -1.36033,-5.84945 -0.88425,-1.24694 -2.17657,-1.87043 -3.87696,-1.87046 -1.74579,3e-5 -3.34419,0.70287 -4.79519,2.10852 -1.45105,1.38304 -2.63001,3.42354 -3.53688,6.12152 -0.79355,2.24457 -1.36035,4.68184 -1.70042,7.31181 -0.3401,2.60733 -0.51014,4.94257 -0.51013,7.00574 -1e-5,2.74335 0.45343,4.73851 1.36034,5.98548 0.90687,1.22431 2.22186,1.83646 3.94498,1.83646 1.8591,0 3.46883,-0.75952 4.82919,-2.27857 1.36032,-1.51904 2.43725,-3.3895 3.2308,-5.61139 0.79351,-2.17653 1.39432,-4.57979 1.80245,-7.20979 0.40807,-2.65264 0.61212,-5.16926 0.61215,-7.54987 m 51.93087,-3.2308 c -4e-5,1.02028 -0.14741,2.00652 -0.44211,2.95873 -0.29478,0.95226 -0.73689,1.76846 -1.32633,2.44861 -0.65753,0.77088 -1.34904,1.34902 -2.07451,1.73443 -0.72555,0.36278 -1.7458,0.54415 -3.06076,0.54413 -1.70045,2e-5 -3.03812,-0.41941 -4.013,-1.25831 -0.97493,-0.83885 -1.46239,-1.77975 -1.46236,-2.8227 -3e-5,-0.97488 0.13601,-1.81375 0.4081,-2.51662 0.29471,-0.70282 0.74816,-1.76841 1.36034,-3.19679 -1.51907,0.63485 -2.82273,1.41704 -3.91097,2.34658 -1.08829,0.90692 -2.13122,1.94984 -3.12878,3.12877 l -5.37333,24.07797 -11.25679,0 4.69316,-20.91518 c 0.13603,-0.6348 0.30607,-1.46234 0.51013,-2.48262 0.22671,-1.02023 0.34007,-1.87044 0.34008,-2.55063 -1e-5,-1.31497 -0.26074,-2.21052 -0.78219,-2.68667 -0.4988,-0.47609 -1.47371,-0.71414 -2.92473,-0.71417 -0.72551,3e-5 -1.4737,0.11339 -2.24455,0.34008 -0.74819,0.22675 -1.39435,0.44214 -1.93848,0.64616 l 0.74818,-3.06076 c 1.83645,-0.74815 3.59356,-1.38297 5.27131,-1.90447 1.67774,-0.5441 3.2648,-0.81617 4.76118,-0.8162 2.67532,3e-5 4.67048,0.53283 5.98548,1.59839 1.33765,1.04296 2.22187,2.51666 2.65266,4.4211 l 0.23806,0 c 2.24453,-2.38056 4.14901,-4.03563 5.71342,-4.96523 1.56436,-0.9522 3.24211,-1.42832 5.03325,-1.42836 1.92711,4e-5 3.44615,0.61219 4.55713,1.83646 1.1109,1.20166 1.66637,2.94743 1.66641,5.2373 m 68.32294,22.24151 -0.74819,3.06076 c -2.24462,0.88422 -4.03573,1.56439 -5.37333,2.04051 -1.33773,0.45344 -2.89078,0.68017 -4.65915,0.68017 -2.69806,0 -4.79525,-0.66884 -6.29156,-2.0065 -1.49643,-1.36033 -2.24461,-3.03808 -2.24456,-5.03325 -5e-5,-0.54413 0.0226,-1.23563 0.068,-2.07451 0.068,-0.86154 0.26068,-1.92714 0.57814,-3.1968 l 2.44861,-9.04624 c 0.24934,-0.97489 0.43072,-1.84777 0.54413,-2.61865 0.13598,-0.7935 0.204,-1.43966 0.20405,-1.93848 -5e-5,-1.08824 -0.27212,-1.93845 -0.8162,-2.55063 -0.54419,-0.61212 -1.42841,-0.9182 -2.65266,-0.91823 -0.86159,3e-5 -1.9612,0.38546 -3.29882,1.15629 -1.31503,0.77088 -2.6527,1.80247 -4.01299,3.09477 l -5.61139,24.55408 -11.25679,0 4.76118,-20.74514 c 0.24936,-1.13359 0.43074,-2.05182 0.54413,-2.75468 0.136,-0.70282 0.20402,-1.31497 0.20405,-1.83646 -3e-5,-1.08824 -0.2721,-1.93845 -0.8162,-2.55063 -0.54416,-0.61212 -1.43972,-0.9182 -2.68667,-0.91823 -0.70286,3e-5 -1.67777,0.28343 -2.92472,0.85021 -1.247,0.56684 -2.81139,1.70045 -4.69317,3.40085 l -5.61139,24.55408 -11.25679,0 4.8292,-20.91518 c 0.13603,-0.6348 0.30607,-1.47368 0.51013,-2.51663 0.22671,-1.0429 0.34007,-1.88177 0.34008,-2.51662 -1e-5,-1.29229 -0.2494,-2.17651 -0.74818,-2.65266 -0.4988,-0.49876 -1.48505,-0.74815 -2.95874,-0.74818 -0.72552,3e-5 -1.4737,0.11339 -2.24455,0.34008 -0.74819,0.22675 -1.39435,0.44214 -1.93849,0.64616 l 0.74819,-3.06076 c 1.83645,-0.74815 3.59355,-1.38297 5.27131,-1.90447 1.67774,-0.5441 3.2648,-0.81617 4.76118,-0.8162 2.766,3e-5 4.76116,0.56684 5.98548,1.70042 1.22429,1.11097 2.08583,2.55066 2.58464,4.31907 l 0.23806,0 c 2.26721,-2.08582 4.45508,-3.67288 6.56363,-4.76118 2.10849,-1.08824 4.53442,-1.63237 7.2778,-1.63241 2.33521,4e-5 4.25102,0.62353 5.74743,1.87047 1.49633,1.24701 2.32387,2.78872 2.48261,4.62515 l 0.23806,0 c 2.42589,-2.08582 4.68178,-3.68422 6.76768,-4.79519 2.0858,-1.13358 4.46639,-1.70039 7.14177,-1.70043 2.51657,4e-5 4.48905,0.69154 5.91747,2.07452 1.42829,1.38304 2.14247,3.06079 2.14253,5.03325 -6e-5,0.52149 -0.0454,1.25834 -0.13603,2.21055 -0.0681,0.92958 -0.24946,1.92716 -0.54414,2.99274 l -2.58464,9.55637 c -0.22678,0.79354 -0.43083,1.70043 -0.61215,2.72067 -0.18144,1.02026 -0.27213,1.79112 -0.27207,2.31257 -6e-5,1.315 0.28334,2.21056 0.85021,2.68667 0.58942,0.47612 1.60967,0.71418 3.06076,0.71418 0.6801,0 1.45096,-0.11336 2.31257,-0.34009 0.86148,-0.24939 1.48497,-0.46477 1.87047,-0.64616 m 42.98666,-15.16776 c -4e-5,2.85673 -0.54417,5.58874 -1.6324,8.19603 -1.08831,2.60733 -2.63003,4.87455 -4.62515,6.80169 -2.1539,2.06318 -4.68186,3.66158 -7.58388,4.79519 -2.87941,1.11094 -6.12154,1.66641 -9.72641,1.66641 -4.82921,0 -8.72884,-1.28098 -11.6989,-3.84295 -2.97008,-2.58463 -4.45511,-6.09884 -4.45511,-10.54261 0,-3.0154 0.55547,-5.81543 1.66642,-8.40009 1.13361,-2.58461 2.70933,-4.8405 4.72717,-6.76767 1.99515,-1.88177 4.44375,-3.36681 7.34582,-4.45511 2.90203,-1.11091 6.04214,-1.66638 9.42034,-1.66641 5.1239,3e-5 9.15957,1.25834 12.107,3.77493 2.97003,2.49398 4.45506,5.97418 4.4551,10.44059 m -11.97097,-3.84295 c -3e-5,-2.65263 -0.45347,-4.60245 -1.36033,-5.84945 -0.88425,-1.24694 -2.17657,-1.87043 -3.87696,-1.87046 -1.74579,3e-5 -3.34419,0.70287 -4.79519,2.10852 -1.45105,1.38304 -2.63001,3.42354 -3.53688,6.12152 -0.79355,2.24457 -1.36035,4.68184 -1.70042,7.31181 -0.3401,2.60733 -0.51014,4.94257 -0.51013,7.00574 -1e-5,2.74335 0.45343,4.73851 1.36034,5.98548 0.90687,1.22431 2.22187,1.83646 3.94498,1.83646 1.8591,0 3.46883,-0.75952 4.82919,-2.27857 1.36032,-1.51904 2.43725,-3.3895 3.23081,-5.61139 0.7935,-2.17653 1.39431,-4.57979 1.80244,-7.20979 0.40807,-2.65264 0.61212,-5.16926 0.61215,-7.54987 m 41.62631,18.80666 -0.23805,0 c -2.38062,2.17655 -4.64785,3.78628 -6.80169,4.8292 -2.15389,1.04293 -4.64784,1.56439 -7.48186,1.56439 -2.51663,0 -4.46644,-0.69151 -5.84945,-2.07452 -1.36034,-1.383 -2.04051,-3.06075 -2.0405,-5.03324 -10e-6,-0.70284 0.034,-1.41701 0.10202,-2.14254 0.0907,-0.7255 0.30607,-1.74575 0.64616,-3.06075 l 2.55064,-9.55637 c 0.15869,-0.63481 0.34007,-1.49635 0.54413,-2.58464 0.22671,-1.11092 0.34008,-1.92712 0.34009,-2.44861 -10e-6,-1.24695 -0.26075,-2.11983 -0.7822,-2.61865 -0.4988,-0.52143 -1.48504,-0.78217 -2.95873,-0.78219 -0.72552,2e-5 -1.47371,0.11339 -2.24456,0.34008 -0.74819,0.22675 -1.39435,0.44214 -1.93848,0.64616 l 0.74819,-3.06076 c 1.83645,-0.74815 3.59355,-1.38298 5.2713,-1.90447 1.67774,-0.5441 3.2648,-0.81617 4.76118,-0.8162 2.69799,3e-5 4.7725,0.6802 6.22355,2.0405 1.47368,1.3377 2.21052,3.00411 2.21054,4.99924 -2e-5,0.40813 -0.0454,1.15631 -0.13603,2.24456 -0.0907,1.08829 -0.27209,2.09721 -0.54413,3.02675 l -2.48262,9.04624 c -0.22674,0.79354 -0.40812,1.65509 -0.54413,2.58464 -0.13605,0.9069 -0.20407,1.5644 -0.20406,1.97249 -10e-6,1.06561 0.24938,1.91582 0.74819,2.55063 0.49877,0.61216 1.36032,0.91824 2.58464,0.91823 0.8842,1e-5 2.05182,-0.36275 3.50287,-1.08827 1.47367,-0.74818 2.9247,-1.80244 4.35308,-3.16278 l 5.61139,-24.55409 10.84869,-0.47612 0.4081,0.47612 -4.8292,20.91519 c -0.15874,0.6575 -0.35146,1.53039 -0.57814,2.61864 -0.20409,1.08828 -0.30611,1.89315 -0.30608,2.4146 -3e-5,1.315 0.28337,2.21056 0.85022,2.68667 0.58943,0.47612 1.60969,0.71418 3.06075,0.71418 0.68013,0 1.45099,-0.11336 2.31258,-0.34009 0.8615,-0.24939 1.48499,-0.46477 1.87046,-0.64616 l -0.74818,3.06076 c -2.2446,0.88422 -4.03571,1.56439 -5.37334,2.04051 -1.3377,0.45344 -2.89075,0.68016 -4.65915,0.68017 -2.49399,-1e-5 -4.48915,-0.55548 -5.98549,-1.66642 -1.4964,-1.13361 -2.43729,-2.58463 -2.8227,-4.35308 m 35.23273,6.52962 c -2.85672,0 -5.22597,-0.23806 -7.10776,-0.71418 -1.85913,-0.45344 -3.33283,-1.04292 -4.42109,-1.76843 -1.11095,-0.72551 -1.87047,-1.49637 -2.27857,-2.31258 -0.4081,-0.83887 -0.61215,-1.62106 -0.61215,-2.34658 0,-1.31498 0.48745,-2.45993 1.46236,-3.43485 0.99758,-0.99757 2.31257,-1.49636 3.94498,-1.49637 1.36033,10e-6 2.49394,0.35143 3.40084,1.05426 0.92956,0.70285 1.70041,1.58707 2.31258,2.65266 0.56679,0.97491 1.04291,2.05184 1.42835,3.2308 0.38542,1.17896 0.65748,2.05184 0.8162,2.61865 2.56196,0 4.50043,-0.54414 5.81545,-1.63241 1.31497,-1.11093 1.97246,-2.61864 1.97248,-4.52312 -2e-5,-0.83886 -0.20407,-1.5417 -0.61215,-2.10852 -0.38545,-0.5668 -0.90691,-1.06559 -1.56439,-1.49637 -0.65751,-0.40809 -1.49638,-0.80486 -2.51662,-1.1903 -1.02027,-0.38541 -2.02918,-0.74817 -3.02675,-1.08827 -2.74336,-0.92955 -4.9199,-2.21053 -6.52962,-3.84295 -1.58706,-1.65506 -2.38059,-3.7069 -2.38059,-6.15553 0,-1.451 0.32874,-2.81133 0.98625,-4.08101 0.68016,-1.29229 1.73442,-2.48258 3.16278,-3.57088 1.40567,-1.0429 3.18544,-1.87043 5.33932,-2.48262 2.15385,-0.63479 4.67048,-0.9522 7.54988,-0.95224 1.72307,4e-5 3.32146,0.10206 4.79518,0.30608 1.47368,0.20409 2.84535,0.57818 4.11502,1.12228 1.2016,0.54417 2.13117,1.25834 2.7887,2.14253 0.68013,0.86158 1.02021,1.91584 1.02025,3.16278 -4e-5,1.24701 -0.47615,2.32394 -1.42835,3.23081 -0.9296,0.88424 -2.1539,1.32635 -3.67292,1.32632 -1.31502,3e-5 -2.41462,-0.34006 -3.29881,-1.02025 -0.86158,-0.68014 -1.56442,-1.48501 -2.10853,-2.4146 -0.54415,-0.95221 -0.97493,-1.92711 -1.29232,-2.92472 -0.31743,-1.02022 -0.57816,-1.87043 -0.78219,-2.55063 -1.58708,0.0907 -3.03811,0.66886 -4.35308,1.73443 -1.29234,1.04295 -1.9385,2.34661 -1.93848,3.91096 -2e-5,0.95227 0.14735,1.70045 0.44211,2.24456 0.31739,0.54416 0.73683,0.99761 1.25831,1.36034 0.58946,0.40812 1.32631,0.79355 2.21055,1.15629 0.90687,0.3401 2.02915,0.73687 3.36683,1.19029 3.08341,1.08829 5.40732,2.39195 6.97173,3.91097 1.56436,1.51906 2.34655,3.52555 2.34658,6.01949 -3e-5,1.63242 -0.38546,3.1968 -1.15628,4.69317 -0.74822,1.49637 -1.82515,2.74335 -3.2308,3.74092 -1.56442,1.08827 -3.36686,1.90448 -5.40734,2.44861 -2.04053,0.56681 -4.63651,0.85021 -7.78794,0.85021"
         style="font-size:69.6492691px;font-style:italic;font-variant:normal;font-weight:bold;font-stretch:normal;fill:#000000;fill-opacity:1;stroke:none;filter:url(#filter3869-9);font-family:Goblin;-inkscape-font-specification:Goblin Bold Italic"
         transform="matrix(0.8191171,0,0,1.0292651,21.130469,31.087293)" />
      <path
         inkscape:connector-curvature="0"
         id="text2462"
         d="m 82.144747,134.60581 c -4.3e-5,2.87033 -0.529324,5.44893 -1.587843,7.73581 -1.04003,2.2636 -2.544301,4.16547 -4.512815,5.7056 -1.950018,1.49351 -4.132138,2.60196 -6.546369,3.32535 -2.39572,0.72343 -5.042122,1.08514 -7.939213,1.08512 l -4.011391,0 -2.479263,13.47642 c -0.0743,0.39672 -0.1393,0.77009 -0.194998,1.12012 -0.03716,0.35004 -0.05573,0.6184 -0.05571,0.80508 -1.6e-5,1.05012 0.343553,1.8202 1.030705,2.31024 0.687119,0.49006 2.033534,0.86343 4.039248,1.12012 l -0.473567,2.55527 -21.477659,0 0.473567,-2.55527 c 0.464282,-0.0233 1.151418,-0.105 2.06141,-0.24502 0.92856,-0.16335 1.615696,-0.33837 2.061409,-0.52506 0.724276,-0.30337 1.272127,-0.75841 1.643556,-1.36514 0.389991,-0.60673 0.659275,-1.31847 0.80785,-2.13523 l 6.379227,-34.72366 c 0.09284,-0.49 0.157844,-0.89838 0.194998,-1.22513 0.03713,-0.32666 0.0557,-0.57168 0.05571,-0.73507 -1.2e-5,-0.98007 -0.399294,-1.73848 -1.197846,-2.27525 -0.780003,-0.56001 -2.061419,-1.00338 -3.84425,-1.33013 l 0.473567,-2.55528 21.421945,0 c 4.605639,6e-5 8.032032,0.85181 10.279191,2.55528 2.265652,1.70356 3.398498,4.32882 3.398541,7.87583 m -11.644179,5.84561 c 0.408536,-1.75015 0.61282,-3.66368 0.612851,-5.7406 -3.1e-5,-2.52023 -0.538597,-4.39876 -1.615699,-5.6356 -1.077162,-1.26009 -2.832144,-1.89016 -5.264952,-1.8902 l -2.033552,0 -4.067106,22.15734 1.810698,0 c 2.005674,2e-5 3.723513,-0.37335 5.153524,-1.12012 1.448531,-0.77006 2.618519,-1.83183 3.509968,-3.18534 0.854248,-1.30677 1.48567,-2.83527 1.894268,-4.58548 m 24.514062,34.54864 c -2.228569,0 -4.187834,-0.38504 -5.877806,-1.15512 -1.671421,-0.74675 -3.054978,-1.79685 -4.150676,-3.15033 -1.077137,-1.35347 -1.884986,-2.92864 -2.423549,-4.72549 -0.538569,-1.79686 -0.807851,-3.7804 -0.80785,-5.95064 -10e-7,-2.75361 0.408566,-5.42555 1.225703,-8.01585 0.817131,-2.59024 2.033548,-4.92382 3.649252,-7.00073 1.522835,-1.98351 3.454248,-3.59369 5.79423,-4.83051 2.339965,-1.23677 4.921365,-1.85516 7.744216,-1.85519 3.32423,3e-5 5.84992,0.6651 7.57707,1.99521 1.74567,1.33017 2.61852,3.32538 2.61855,5.98563 -3e-5,2.54362 -0.75216,4.73718 -2.25641,6.58069 -1.50429,1.82021 -3.54713,3.17368 -6.12851,4.06043 -2.042864,0.7701 -3.788553,1.31848 -5.237095,1.64518 -1.430005,0.32671 -3.18499,0.63008 -5.264954,0.91008 0.03713,1.02679 0.14856,2.18192 0.334284,3.46538 0.185698,1.28347 0.464271,2.38026 0.835702,3.29034 0.445698,1.05012 1.077121,1.8902 1.894276,2.52027 0.81712,0.60673 1.857103,0.9101 3.119965,0.91009 2.191396,1e-5 4.048512,-0.52505 5.571382,-1.57517 1.54139,-1.07343 3.00851,-2.76527 4.40139,-5.07553 l 2.03355,2.13523 c -1.67144,2.98698 -3.81642,5.3789 -6.43494,7.17576 -2.6,1.77351 -5.33926,2.66027 -8.21778,2.66027 m 6.29565,-27.72292 c -2e-5,-1.98352 -0.28787,-3.50033 -0.86356,-4.55048 -0.575732,-1.07341 -1.374296,-1.61014 -2.395696,-1.61016 -1.429996,2e-5 -2.785699,1.47018 -4.067099,4.41045 -1.262862,2.917 -2.070713,6.61572 -2.423553,11.09617 1.095693,-0.16333 2.182109,-0.37336 3.259256,-0.63007 1.07712,-0.25666 1.931395,-0.56003 2.562836,-0.91008 1.392822,-0.77007 2.395666,-1.76184 3.008546,-2.97533 0.61283,-1.21343 0.91925,-2.8236 0.91927,-4.8305 m 41.06105,-1.68017 c -3e-5,1.05014 -0.12074,2.06523 -0.36214,3.04531 -0.24145,0.98013 -0.60359,1.82022 -1.08641,2.52027 -0.5386,0.79344 -1.10503,1.3885 -1.69928,1.78519 -0.5943,0.37339 -1.43001,0.56007 -2.50711,0.56005 -1.39287,2e-5 -2.48858,-0.43168 -3.28712,-1.29513 -0.79858,-0.8634 -1.19786,-1.83183 -1.19784,-2.90531 -2e-5,-1.00341 0.1114,-1.86683 0.33428,-2.59027 0.2414,-0.72338 0.61283,-1.82017 1.11428,-3.29035 -1.2443,0.65343 -2.31214,1.45852 -3.20355,2.41526 -0.89144,0.93345 -1.74572,2.0069 -2.56284,3.22034 l -4.40138,24.78261 -9.22063,0 3.84426,-21.52727 c 0.11141,-0.65338 0.2507,-1.50514 0.41784,-2.55527 0.18571,-1.05008 0.27857,-1.92517 0.27858,-2.62528 -10e-6,-1.35345 -0.21358,-2.2752 -0.64071,-2.76529 -0.40858,-0.49002 -1.20715,-0.73504 -2.3957,-0.73508 -0.59428,4e-5 -1.20713,0.11672 -1.83855,0.35005 -0.61285,0.23338 -1.14214,0.45507 -1.58784,0.66506 l 0.61284,-3.15033 c 1.50428,-0.77005 2.94355,-1.42345 4.31782,-1.96021 1.37427,-0.56002 2.67425,-0.84005 3.89997,-0.84008 2.1914,3e-5 3.82566,0.54842 4.90281,1.64517 1.09569,1.07347 1.81997,2.5903 2.17284,4.55048 l 0.19499,0 c 1.83854,-2.45023 3.39852,-4.15374 4.67997,-5.11054 1.28139,-0.98007 2.65566,-1.47012 4.12282,-1.47015 1.57852,3e-5 2.8228,0.63009 3.73282,1.8902 0.90996,1.23682 1.36495,3.03368 1.36498,5.39057 m 16.88128,-2.13523 c -0.92858,5.76396 -1.73643,10.76949 -2.42355,15.01659 -0.66858,4.22378 -1.47643,8.64591 -2.42355,13.26639 -0.46429,2.26357 -1.235,4.48047 -2.31212,6.6507 -1.05857,2.19355 -2.31213,4.08375 -3.76068,5.6706 -1.52285,1.68016 -3.17569,2.98696 -4.95853,3.92041 -1.76427,0.93342 -3.58424,1.40014 -5.45995,1.40015 -1.68997,-1e-5 -3.05496,-0.21003 -4.09495,-0.63007 -1.05856,-0.42006 -1.88498,-0.95677 -2.47927,-1.61017 -0.5757,-0.65341 -0.9657,-1.37682 -1.16999,-2.17023 -0.20427,-0.79342 -0.30641,-1.57517 -0.30643,-2.34524 2e-5,-1.35348 0.39002,-2.55528 1.17,-3.60538 0.76142,-1.02678 1.79213,-1.54017 3.09211,-1.54017 1.00285,0 1.8757,0.32671 2.61855,0.9801 0.72428,0.67674 1.34641,1.48182 1.8664,2.41526 0.52001,0.91009 0.98429,1.9252 1.39285,3.04533 0.39,1.1201 0.69642,1.9952 0.91928,2.62527 0.77999,-1.07346 1.51356,-2.6953 2.20069,-4.86551 0.68714,-2.1469 1.32784,-5.0172 1.92213,-8.61091 l 4.98638,-29.61312 -5.40424,0 0.66857,-3.60538 5.34852,0 0.47357,-2.69529 c 0.38999,-2.19352 1.09569,-4.34042 2.11712,-6.44067 1.03998,-2.12352 2.29354,-4.01372 3.76068,-5.67061 1.4114,-1.63345 3.03639,-2.96359 4.87495,-3.99042 1.85711,-1.02671 3.71423,-1.5401 5.57138,-1.54016 1.61568,6e-5 2.95281,0.19841 4.0114,0.59507 1.0771,0.37342 1.92209,0.89848 2.53497,1.57516 0.55711,0.63011 0.92853,1.34186 1.11428,2.13523 0.20425,0.77012 0.30639,1.54021 0.30642,2.31024 -3e-5,0.51344 -0.0836,1.08516 -0.25071,1.71518 -0.1486,0.63011 -0.39003,1.20184 -0.72428,1.71518 -0.4086,0.58344 -0.84502,1.03849 -1.30927,1.36515 -0.44574,0.32674 -1.10502,0.49009 -1.97784,0.49005 -1.00288,4e-5 -1.86644,-0.32666 -2.59069,-0.98011 -0.72431,-0.67669 -1.33716,-1.47011 -1.83856,-2.38025 -0.53859,-0.95672 -0.99358,-1.9835 -1.36498,-3.08032 -0.37145,-1.09673 -0.67787,-1.97183 -0.91928,-2.62528 -0.76145,1.09683 -1.44858,2.69534 -2.06141,4.7955 -0.61287,2.10027 -1.24429,4.99391 -1.89427,8.68092 l -0.69642,4.02543 7.04779,0 -0.66857,3.60538 -6.9085,0 m 38.86035,9.41599 c -3e-5,2.94033 -0.44575,5.75228 -1.33713,8.43589 -0.89145,2.68362 -2.1543,5.01721 -3.78854,7.00074 -1.7643,2.12356 -3.83498,3.76872 -6.21209,4.93552 -2.35856,1.14345 -5.01425,1.71517 -7.96706,1.71517 -3.95569,0 -7.14994,-1.31846 -9.58277,-3.95541 -2.43283,-2.66028 -3.64925,-6.27731 -3.64925,-10.85114 0,-3.10365 0.45499,-5.98562 1.36498,-8.64592 0.92856,-2.66025 2.21926,-4.98216 3.87211,-6.96573 1.63427,-1.93684 3.63996,-3.46533 6.01709,-4.58548 2.37711,-1.14342 4.94922,-1.71515 7.71635,-1.71519 4.19709,4e-5 7.50277,1.29517 9.91706,3.88541 2.4328,2.56697 3.64922,6.14901 3.64925,10.74614 m -9.80562,-3.95542 c -3e-5,-2.73026 -0.37145,-4.73714 -1.11428,-6.02063 -0.7243,-1.28344 -1.78286,-1.92517 -3.17568,-1.9252 -1.43001,3e-5 -2.73928,0.72344 -3.92783,2.17022 -1.18857,1.42352 -2.15428,3.52373 -2.89711,6.30067 -0.65001,2.31027 -1.11429,4.81886 -1.39285,7.5258 -0.27857,2.68362 -0.41786,5.08721 -0.41785,7.21075 -1e-5,2.82364 0.37142,4.87719 1.11428,6.16065 0.74283,1.26013 1.81996,1.8902 3.2314,1.8902 1.52282,0 2.84138,-0.78174 3.95567,-2.34525 1.11426,-1.56349 1.99639,-3.48869 2.64641,-5.77561 0.64997,-2.24022 1.14211,-4.71381 1.47641,-7.42078 0.33426,-2.73026 0.5014,-5.32053 0.50143,-7.77082 m 42.53746,-3.32534 c -3e-5,1.05014 -0.12075,2.06523 -0.36214,3.04531 -0.24145,0.98013 -0.6036,1.82022 -1.08641,2.52027 -0.5386,0.79344 -1.10503,1.3885 -1.69928,1.78519 -0.59431,0.37339 -1.43001,0.56007 -2.50711,0.56005 -1.39288,2e-5 -2.48858,-0.43168 -3.28712,-1.29513 -0.79858,-0.8634 -1.19786,-1.83183 -1.19785,-2.90531 -1e-5,-1.00341 0.11141,-1.86683 0.33429,-2.59027 0.2414,-0.72338 0.61283,-1.82017 1.11427,-3.29035 -1.24429,0.65343 -2.31214,1.45852 -3.20354,2.41526 -0.89144,0.93345 -1.74572,2.0069 -2.56284,3.22034 l -4.40138,24.78261 -9.22063,0 3.84424,-21.52727 c 0.11143,-0.65338 0.25071,-1.50514 0.41786,-2.55527 0.18571,-1.05008 0.27857,-1.92517 0.27857,-2.62528 0,-1.35345 -0.21357,-2.2752 -0.64071,-2.76529 -0.40857,-0.49002 -1.20714,-0.73504 -2.39569,-0.73508 -0.59428,4e-5 -1.20713,0.11672 -1.83855,0.35005 -0.61285,0.23338 -1.14214,0.45507 -1.58785,0.66506 l 0.61285,-3.15033 c 1.50427,-0.77005 2.94355,-1.42345 4.31782,-1.96021 1.37427,-0.56002 2.67425,-0.84005 3.89997,-0.84008 2.19139,3e-5 3.82566,0.54842 4.90281,1.64517 1.09569,1.07347 1.81996,2.5903 2.17284,4.55048 l 0.19499,0 c 1.83854,-2.45023 3.39852,-4.15374 4.67996,-5.11054 1.2814,-0.98007 2.65566,-1.47012 4.12282,-1.47015 1.57853,3e-5 2.8228,0.63009 3.73283,1.8902 0.90996,1.23682 1.36495,3.03368 1.36498,5.39057 m 55.96449,22.8924 -0.61285,3.15034 c -1.83861,0.9101 -3.30574,1.61017 -4.4014,2.10022 -1.09574,0.46672 -2.36787,0.70008 -3.81639,0.70008 -2.21002,0 -3.92786,-0.68841 -5.15352,-2.06523 -1.22574,-1.40014 -1.83859,-3.12699 -1.83856,-5.18054 -3e-5,-0.56005 0.0185,-1.27179 0.0557,-2.13522 0.0557,-0.88676 0.21352,-1.98353 0.47357,-3.29035 l 2.0057,-9.31098 c 0.20423,-1.00342 0.3528,-1.90185 0.4457,-2.69529 0.11139,-0.81673 0.1671,-1.4818 0.16715,-1.99521 -5e-5,-1.12008 -0.2229,-1.99519 -0.66857,-2.62528 -0.44575,-0.63003 -1.17003,-0.94507 -2.17283,-0.94509 -0.70576,2e-5 -1.60646,0.39673 -2.70212,1.19012 -1.07718,0.79344 -2.17288,1.85523 -3.28712,3.18534 l -4.59638,25.27266 -9.22063,0 3.89996,-21.35225 c 0.20425,-1.16677 0.35283,-2.11186 0.44571,-2.8353 0.1114,-0.72339 0.16711,-1.35345 0.16714,-1.8902 -3e-5,-1.12008 -0.22288,-1.99519 -0.66856,-2.62528 -0.44574,-0.63003 -1.1793,-0.94507 -2.2007,-0.94509 -0.57573,2e-5 -1.37429,0.29172 -2.39569,0.87509 -1.02144,0.58342 -2.30286,1.75021 -3.84425,3.50037 l -4.59638,25.27266 -9.22063,0 3.95567,-21.52727 c 0.11143,-0.65338 0.25071,-1.5168 0.41786,-2.59028 0.1857,-1.07342 0.27855,-1.93684 0.27856,-2.59027 -10e-6,-1.33011 -0.20429,-2.24021 -0.61285,-2.73028 -0.40857,-0.51336 -1.21642,-0.77005 -2.42355,-0.77009 -0.59428,4e-5 -1.20713,0.11672 -1.83856,0.35005 -0.61284,0.23338 -1.14212,0.45507 -1.58784,0.66506 l 0.61286,-3.15033 c 1.50426,-0.77005 2.94354,-1.42345 4.31781,-1.96021 1.37427,-0.56002 2.67426,-0.84005 3.89997,-0.84008 2.26568,3e-5 3.89995,0.58343 4.90281,1.75018 1.00283,1.14349 1.70854,2.62531 2.11713,4.44547 l 0.19499,0 c 1.85711,-2.14686 3.64923,-3.78037 5.37638,-4.90052 1.7271,-1.12008 3.71423,-1.68014 5.96138,-1.68017 1.9128,3e-5 3.48207,0.64176 4.70781,1.92519 1.22567,1.28351 1.90352,2.87034 2.03355,4.76051 l 0.195,0 c 1.98709,-2.14686 3.83493,-3.79204 5.54352,-4.93552 1.70851,-1.16675 3.6585,-1.75015 5.84995,-1.75018 2.06136,3e-5 3.67705,0.71178 4.84709,2.13522 1.16994,1.42352 1.75494,3.15036 1.75499,5.18054 -5e-5,0.53675 -0.0372,1.29517 -0.11143,2.27524 -0.0558,0.9568 -0.20434,1.98358 -0.44571,3.08033 l -2.11712,9.83604 c -0.18577,0.81676 -0.35291,1.7502 -0.50143,2.80029 -0.14862,1.05012 -0.2229,1.84354 -0.22285,2.38025 -5e-5,1.35348 0.23209,2.27525 0.69642,2.7653 0.4828,0.49005 1.31851,0.73508 2.50712,0.73507 0.55708,1e-5 1.1885,-0.11667 1.89427,-0.35003 0.70565,-0.25669 1.21636,-0.47838 1.53213,-0.66508 m 35.21112,-15.61164 c -4e-5,2.94033 -0.44574,5.75228 -1.33713,8.43589 -0.89146,2.68362 -2.1543,5.01721 -3.78854,7.00074 -1.7643,2.12356 -3.83499,3.76872 -6.21208,4.93552 -2.35857,1.14345 -5.01426,1.71517 -7.96707,1.71517 -3.9557,0 -7.14995,-1.31846 -9.58278,-3.95541 -2.43283,-2.66028 -3.64925,-6.27731 -3.64925,-10.85114 0,-3.10365 0.45499,-5.98562 1.36499,-8.64592 0.92856,-2.66025 2.21926,-4.98216 3.87211,-6.96573 1.63426,-1.93684 3.63995,-3.46533 6.01709,-4.58548 2.3771,-1.14342 4.94922,-1.71515 7.71636,-1.71519 4.19707,4e-5 7.50275,1.29517 9.91705,3.88541 2.43279,2.56697 3.64921,6.14901 3.64925,10.74614 m -9.80563,-3.95542 c -3e-5,-2.73026 -0.37145,-4.73714 -1.11427,-6.02063 -0.7243,-1.28344 -1.78287,-1.92517 -3.17569,-1.9252 -1.43,3e-5 -2.73927,0.72344 -3.92781,2.17022 -1.18858,1.42352 -2.15429,3.52373 -2.89713,6.30067 -0.65,2.31027 -1.11428,4.81886 -1.39284,7.5258 -0.27858,2.68362 -0.41786,5.08721 -0.41785,7.21075 -1e-5,2.82364 0.37141,4.87719 1.11427,6.16065 0.74284,1.26013 1.81997,1.8902 3.2314,1.8902 1.52283,0 2.84138,-0.78174 3.95568,-2.34525 1.11425,-1.56349 1.99639,-3.48869 2.6464,-5.77561 0.64997,-2.24022 1.14211,-4.71381 1.47642,-7.42078 0.33426,-2.73026 0.50139,-5.32053 0.50142,-7.77082 m 34.09681,19.35704 -0.19499,0 c -1.95,2.24024 -3.80712,3.89709 -5.57138,4.97053 -1.76429,1.07345 -3.80712,1.61016 -6.12851,1.61016 -2.06142,0 -3.65855,-0.71173 -4.79139,-2.13522 -1.11428,-1.42348 -1.67141,-3.15032 -1.67141,-5.18054 0,-0.7234 0.0279,-1.45848 0.0836,-2.20523 0.0743,-0.74674 0.25071,-1.79685 0.52928,-3.15034 l 2.08926,-9.83603 c 0.13,-0.65339 0.27857,-1.54015 0.44572,-2.66028 0.18571,-1.14344 0.27855,-1.98352 0.27856,-2.52027 -1e-5,-1.28344 -0.21357,-2.18187 -0.64071,-2.69528 -0.40856,-0.5367 -1.21642,-0.80506 -2.42354,-0.80509 -0.59428,3e-5 -1.20713,0.1167 -1.83856,0.35003 -0.61285,0.2334 -1.14213,0.45508 -1.58784,0.66508 l 0.61285,-3.15034 c 1.50427,-0.77004 2.94355,-1.42344 4.31782,-1.9602 1.37427,-0.56002 2.67425,-0.84006 3.89997,-0.8401 2.20997,4e-5 3.90923,0.70011 5.09781,2.10023 1.20711,1.37684 1.81068,3.09202 1.81069,5.14555 -1e-5,0.42006 -0.0372,1.19014 -0.11143,2.31024 -0.0743,1.12014 -0.22287,2.15858 -0.4457,3.11532 l -2.03356,9.31099 c -0.18573,0.81676 -0.3343,1.70352 -0.44571,2.66028 -0.11144,0.93344 -0.16715,1.61017 -0.16714,2.03021 -10e-6,1.09679 0.20427,1.97188 0.61285,2.62528 0.40856,0.63007 1.11426,0.9451 2.11713,0.94509 0.72426,1e-5 1.68068,-0.37336 2.86926,-1.12011 1.2071,-0.77007 2.39566,-1.85519 3.56568,-3.25535 l 4.59638,-25.27266 8.88635,-0.49005 0.33428,0.49005 -3.95567,21.52727 c -0.13003,0.67675 -0.28789,1.57518 -0.47357,2.69529 -0.16718,1.12012 -0.25075,1.94854 -0.25071,2.48526 -4e-5,1.35348 0.2321,2.27525 0.69642,2.76529 0.48281,0.49006 1.31853,0.73508 2.50711,0.73508 0.5571,0 1.18853,-0.11668 1.89428,-0.35004 0.70566,-0.25669 1.21637,-0.47837 1.53212,-0.66507 l -0.61285,3.15033 c -1.83859,0.91009 -3.30571,1.61017 -4.40139,2.10022 -1.09573,0.46672 -2.36786,0.70007 -3.81639,0.70007 -2.04287,0 -3.67713,-0.57172 -4.90281,-1.71517 -1.22573,-1.1668 -1.99643,-2.66027 -2.31213,-4.48048 m 28.85975,6.72071 c -2.33998,0 -4.28068,-0.24503 -5.82208,-0.73508 -1.52286,-0.46671 -2.72998,-1.07344 -3.6214,-1.82018 -0.91,-0.74675 -1.53213,-1.54017 -1.86641,-2.38025 -0.33428,-0.86342 -0.50143,-1.66851 -0.50143,-2.41526 0,-1.35347 0.39929,-2.53193 1.19785,-3.53538 0.81713,-1.02676 1.89427,-1.54014 3.2314,-1.54015 1.11427,1e-5 2.04283,0.36171 2.78568,1.08511 0.76142,0.72341 1.39285,1.63351 1.89427,2.73028 0.46427,1.00345 0.85427,2.1119 1.17,3.32535 0.31569,1.21347 0.53855,2.1119 0.66856,2.69529 2.09854,0 3.68638,-0.56006 4.76352,-1.68018 1.07712,-1.14344 1.61569,-2.69528 1.61571,-4.65548 -2e-5,-0.86342 -0.16716,-1.58684 -0.50143,-2.17024 -0.31573,-0.58338 -0.74286,-1.09677 -1.28142,-1.54016 -0.53858,-0.42003 -1.22571,-0.82841 -2.06141,-1.22513 -0.83572,-0.3967 -1.66213,-0.77007 -2.47925,-1.12012 -2.24714,-0.95675 -4.02998,-2.27523 -5.34853,-3.95541 -1.29999,-1.70349 -1.94998,-3.81538 -1.94998,-6.33568 0,-1.49345 0.26928,-2.8936 0.80785,-4.20044 0.55713,-1.33011 1.4207,-2.55523 2.59069,-3.67538 1.15141,-1.07341 2.60925,-1.92518 4.37353,-2.55527 1.76426,-0.65337 3.82567,-0.98007 6.18423,-0.9801 1.4114,3e-5 2.72067,0.10504 3.92782,0.31502 1.2071,0.21006 2.33067,0.59511 3.37068,1.15513 0.98426,0.56009 1.74568,1.29517 2.28427,2.20523 0.55711,0.8868 0.83567,1.97191 0.83571,3.25534 -4e-5,1.2835 -0.39003,2.39196 -1.17,3.32536 -0.76144,0.91012 -1.76429,1.36516 -3.00854,1.36514 -1.07716,2e-5 -1.97786,-0.35001 -2.70212,-1.05011 -0.70572,-0.70005 -1.28143,-1.52847 -1.72712,-2.48526 -0.44574,-0.98008 -0.79858,-1.98352 -1.05857,-3.01032 -0.26002,-1.05008 -0.47358,-1.92517 -0.64071,-2.62528 -1.3,0.0934 -2.48856,0.68844 -3.56568,1.78519 -1.05857,1.07348 -1.58785,2.41529 -1.58784,4.02543 -10e-6,0.98012 0.1207,1.75021 0.36215,2.31024 0.25998,0.56008 0.60354,1.0268 1.0307,1.40015 0.48284,0.42007 1.0864,0.81677 1.8107,1.19013 0.74283,0.35005 1.6621,0.75843 2.75783,1.22512 2.52567,1.12014 4.42922,2.46194 5.71066,4.02542 1.28139,1.56352 1.9221,3.62874 1.92212,6.19566 -2e-5,1.68019 -0.31574,3.29036 -0.94713,4.83051 -0.61288,1.54017 -1.49501,2.82364 -2.64641,3.8504 -1.28143,1.12012 -2.75784,1.96021 -4.42924,2.52027 -1.67143,0.5834 -3.79784,0.87509 -6.37923,0.87509"
         style="font-size:63.95185852px;font-style:italic;font-variant:normal;font-weight:bold;font-stretch:normal;fill:#c7e5ff;fill-opacity:1;stroke:none;font-family:Goblin;-inkscape-font-specification:Goblin Bold Italic" />
    </g>
  </g>
</svg>
