<?xml version="1.0" encoding="UTF-8" standalone="no"?>
<!-- Created with Inkscape (http://www.inkscape.org/) -->
<svg
   xmlns:dc="http://purl.org/dc/elements/1.1/"
   xmlns:cc="http://creativecommons.org/ns#"
   xmlns:rdf="http://www.w3.org/1999/02/22-rdf-syntax-ns#"
   xmlns:svg="http://www.w3.org/2000/svg"
   xmlns="http://www.w3.org/2000/svg"
   xmlns:xlink="http://www.w3.org/1999/xlink"
   xmlns:sodipodi="http://sodipodi.sourceforge.net/DTD/sodipodi-0.dtd"
   xmlns:inkscape="http://www.inkscape.org/namespaces/inkscape"
   width="256"
   height="256"
   id="svg2"
   sodipodi:version="0.32"
   inkscape:version="0.46"
   sodipodi:docbase="/home/yoda/UltraStar/sf/svn/UltraStar-ng/themes/lima"
   sodipodi:docname="no_cover.svg"
   inkscape:output_extension="org.inkscape.output.svg.inkscape"
   version="1.0">
  <defs
     id="defs4">
    <inkscape:perspective
       sodipodi:type="inkscape:persp3d"
       inkscape:vp_x="0 : 128 : 1"
       inkscape:vp_y="0 : 1000 : 0"
       inkscape:vp_z="256 : 128 : 1"
       inkscape:persp3d-origin="128 : 85.333333 : 1"
       id="perspective17" />
    <linearGradient
       id="linearGradient3751"
       inkscape:collect="always">
      <stop
         id="stop3753"
         offset="0"
         style="stop-color:black;stop-opacity:1;" />
      <stop
         id="stop3755"
         offset="1"
         style="stop-color:black;stop-opacity:0;" />
    </linearGradient>
    <linearGradient
       inkscape:collect="always"
       xlink:href="#linearGradient3751"
       id="linearGradient3484"
       gradientUnits="userSpaceOnUse"
       gradientTransform="matrix(0.336682,0,0,0.336682,-81.3739,-51.8729)"
       x1="665.12128"
       y1="684.16162"
       x2="381.28015"
       y2="449.80624" />
  </defs>
  <sodipodi:namedview
     id="base"
     pagecolor="#ffffff"
     bordercolor="#666666"
     borderopacity="1.0"
     inkscape:pageopacity="0.0"
     inkscape:pageshadow="2"
     inkscape:zoom="1.1191406"
     inkscape:cx="-30.603843"
     inkscape:cy="70.174855"
     inkscape:document-units="px"
     inkscape:current-layer="layer1"
     inkscape:window-width="1144"
     inkscape:window-height="785"
     inkscape:window-x="136"
     inkscape:window-y="25"
     showguides="true"
     inkscape:guide-bbox="true"
     width="256px"
     height="256px"
     borderlayer="false"
     showgrid="false" />
  <metadata
     id="metadata7">
    <rdf:RDF>
      <cc:Work
         rdf:about="">
        <dc:format>image/svg+xml</dc:format>
        <dc:type
           rdf:resource="http://purl.org/dc/dcmitype/StillImage" />
      </cc:Work>
    </rdf:RDF>
  </metadata>
  <g
     inkscape:label="Capa 1"
     inkscape:groupmode="layer"
     id="layer1">
    <rect
       style="opacity:1;color:#000000;fill:#ffffff;fill-opacity:0.31313129000000001;fill-rule:nonzero;stroke:#7f7f7f;stroke-width:10.01399999999999935;stroke-linecap:butt;stroke-linejoin:miter;marker:none;marker-start:none;marker-mid:none;marker-end:none;stroke-miterlimit:4;stroke-dasharray:none;stroke-dashoffset:0;stroke-opacity:1;visibility:visible;display:block;overflow:visible"
       id="rect1906"
       width="246.30026"
       height="246.30028"
       x="4.8498545"
       y="4.0691833"
       inkscape:export-filename="/home/jesusda/docs/curro/yo/ultrastar-ng/base/theme-pod/images/no_cover.png"
       inkscape:export-xdpi="89.889648"
       inkscape:export-ydpi="89.889648" />
    <rect
       style="opacity:1;color:#000000;fill:#0000ff;fill-opacity:0.22608696;fill-rule:nonzero;stroke:none;stroke-width:10.60000038000000089;stroke-linecap:butt;stroke-linejoin:miter;marker:none;marker-start:none;marker-mid:none;marker-end:none;stroke-miterlimit:4;stroke-dasharray:none;stroke-dashoffset:0;stroke-opacity:1;visibility:visible;display:block;overflow:visible"
       id="rect1913"
       width="291.42856"
       height="45.714287"
       x="-16.285721"
       y="181.50516" />
    <path
       style="font-size:39.83382034000000260px;font-family:Goblin;stroke:none;stroke-opacity:1;fill:#000000;fill-opacity:1"
       d="M 58.72672,219.00823 L 44.00299,198.17717 L 44.00299,218.61923 L 40.30747,218.61923 L 40.30747,190.12482 L 41.86348,190.12482 L 56.19821,209.82778 L 56.19821,190.12482 L 59.89373,190.12482 L 59.89373,219.00823 L 58.72672,219.00823 M 64.3867,204.1289 C 64.3867,200.0055 65.41756,196.55635 67.47927,193.78144 C 69.55394,191.00659 72.34827,189.61915 75.86227,189.61912 C 79.8171,189.61915 82.84483,190.89637 84.94547,193.45079 C 87.05902,196.00526 88.11581,199.56463 88.11583,204.1289 C 88.11581,208.8099 87.05902,212.47949 84.94547,215.13766 C 82.83187,217.78288 79.80414,219.10548 75.86227,219.10548 C 72.27047,219.10548 69.45669,217.70508 67.42092,214.90426 C 65.39811,212.10345 64.3867,208.51167 64.3867,204.1289 M 68.47123,204.1289 C 68.47122,207.39653 69.11307,210.12603 70.39679,212.3174 C 71.69345,214.50878 73.51528,215.60447 75.86227,215.60447 C 78.52043,215.60447 80.54324,214.59955 81.9307,212.5897 C 83.33109,210.57986 84.03129,207.7596 84.03131,204.1289 C 84.03129,196.78975 81.30828,193.12017 75.86227,193.12014 C 73.45044,193.12017 71.61565,194.10564 70.35789,196.07656 C 69.10011,198.04752 68.47122,200.73163 68.47123,204.1289 M 122.75647,191.17513 L 121.45332,194.5011 C 120.20849,193.59345 118.25052,193.13962 115.57938,193.13959 C 113.07679,193.13962 111.06695,194.21585 109.54985,196.36831 C 108.0457,198.52081 107.29363,201.29569 107.29364,204.69296 C 107.29363,207.93465 108.06515,210.5669 109.6082,212.5897 C 111.1642,214.59955 113.16756,215.60447 115.61828,215.60447 C 118.28942,215.60447 120.34464,214.6579 121.78397,212.76475 L 123.92348,215.74062 C 121.66725,217.98386 118.7627,219.10548 115.20983,219.10548 C 111.48837,219.10548 108.55789,217.76343 106.41838,215.07931 C 104.27887,212.3952 103.20911,208.85529 103.20912,204.45955 C 103.20911,200.20648 104.35019,196.67305 106.63233,193.85925 C 108.91447,191.04549 111.8644,189.6386 115.48213,189.63857 C 118.58117,189.6386 121.00594,190.15079 122.75647,191.17513 M 127.01605,204.1289 C 127.01604,200.0055 128.0469,196.55635 130.10861,193.78144 C 132.18328,191.00659 134.97761,189.61915 138.49161,189.61912 C 142.44645,189.61915 145.47418,190.89637 147.57481,193.45079 C 149.68836,196.00526 150.74515,199.56463 150.74518,204.1289 C 150.74515,208.8099 149.68836,212.47949 147.57481,215.13766 C 145.46121,217.78288 142.43348,219.10548 138.49161,219.10548 C 134.89981,219.10548 132.08603,217.70508 130.05026,214.90426 C 128.02745,212.10345 127.01604,208.51167 127.01605,204.1289 M 131.10057,204.1289 C 131.10056,207.39653 131.74242,210.12603 133.02613,212.3174 C 134.32279,214.50878 136.14462,215.60447 138.49161,215.60447 C 141.14977,215.60447 143.17258,214.59955 144.56004,212.5897 C 145.96043,210.57986 146.66063,207.7596 146.66065,204.1289 C 146.66063,196.78975 143.93762,193.12017 138.49161,193.12014 C 136.07979,193.12017 134.24499,194.10564 132.98723,196.07656 C 131.72945,198.04752 131.10056,200.73163 131.10057,204.1289 M 165.13826,219.00823 L 163.1738,219.00823 L 152.55404,190.12482 L 156.87197,190.12482 L 164.20466,211.11149 L 171.26505,190.12482 L 175.44682,190.12482 L 165.13826,219.00823 M 182.52665,193.62584 L 182.52665,201.54204 L 191.94051,201.54204 L 191.94051,204.84856 L 182.52665,204.84856 L 182.52665,215.11821 L 195.44153,215.11821 L 195.44153,218.61923 L 178.63663,218.61923 L 178.63663,190.12482 L 195.65548,190.12482 L 195.65548,193.62584 L 182.52665,193.62584 M 215.76689,218.61923 L 208.1619,206.38511 C 207.29312,206.38513 205.91864,206.32029 204.03848,206.19061 L 204.03848,218.61923 L 200.14846,218.61923 L 200.14846,190.12482 C 200.29109,190.12485 201.29601,190.07947 203.16322,189.98867 C 205.04339,189.88497 206.41138,189.8331 207.26719,189.83307 C 214.11362,189.8331 217.53683,192.55611 217.53685,198.00212 C 217.53683,199.79155 216.98575,201.4059 215.88359,202.84519 C 214.7814,204.27155 213.47176,205.15977 211.95467,205.50986 L 220.22097,218.61923 L 215.76689,218.61923 M 204.03848,193.62584 L 204.03848,202.8841 C 204.97207,203.01378 205.87974,203.07861 206.76149,203.0786 C 209.09549,203.07861 210.79413,202.70258 211.85742,201.95049 C 212.92068,201.19844 213.45231,199.85638 213.45233,197.92432 C 213.45231,196.32943 212.88178,195.18188 211.74072,194.48165 C 210.59963,193.78147 208.79726,193.43137 206.33359,193.43134 C 205.94458,193.43137 205.17954,193.4962 204.03848,193.62584"
       id="text1909" />
    <path
       style="fill:#000000;fill-opacity:1;fill-rule:evenodd;stroke:#000000;stroke-width:0.24020983px;stroke-linecap:butt;stroke-linejoin:miter;stroke-opacity:1"
       d="M 179.91252,49.32409 L 175.05953,49.32409 L 174.08894,51.75058 L 175.05953,54.41971 L 174.57423,57.33149 L 172.14777,55.8756 L 170.20659,52.23587 L 166.08154,51.26527 L 164.38302,49.56674 L 160.74328,47.8682 L 156.61826,41.07404 L 156.8609,37.91961 L 167.05216,30.15485 L 171.90508,32.33868 L 172.63306,34.03723 L 172.63306,35.97841 L 173.84629,37.67695 L 176.27279,38.4049 L 177.97132,36.94901 L 178.21396,35.25047 L 177.48602,33.79458 L 176.03014,33.06663 L 175.05953,31.85339 L 177.24337,30.88279 L 176.75808,28.45631 L 176.75808,27.00042 L 175.3022,25.54453 L 174.57423,23.36069 L 171.66247,22.63274 L 169.23597,22.14745 L 164.14034,25.78718 L 151.27997,30.88279 L 148.36818,33.79458 L 146.18437,35.49312 L 145.69903,39.3755 L 146.66966,41.31668 L 149.09616,47.8682 L 152.25056,53.9344 L 155.64764,58.30208 L 150.30939,67.03743 L 144.24316,80.14045 L 140.60344,85.96402 L 134.53723,93.48612 L 134.29459,96.88321 L 131.14015,99.79499 L 135.99311,104.16267 L 134.77988,109.25828 L 135.26518,120.66277 L 137.44899,133.76579 L 139.63285,145.41292 L 142.0593,149.2953 L 145.45642,156.33211 L 150.79468,164.33951 L 152.25056,169.43511 L 153.70647,173.07485 L 149.33877,179.14107 L 141.57401,182.2955 L 140.84608,184.722 L 155.64764,184.2367 L 153.46382,188.11907 L 156.13294,190.54555 L 163.16975,191.27351 L 168.75068,186.42053 L 170.69189,179.62638 L 173.84629,173.80281 L 177.72867,170.40573 L 178.9419,166.52334 L 174.81692,166.2807 L 177.48602,163.61156 L 172.14777,165.31011 L 176.03014,161.42773 L 173.11835,160.69978 L 170.93451,158.03064 L 167.29477,150.50854 L 158.80208,143.47174 L 157.10356,142.98643 L 158.80208,141.53054 L 158.55944,137.40552 L 160.25799,133.76579 L 158.80208,134.00844 L 161.47122,129.39811 L 161.47122,124.78779 L 163.16975,122.3613 L 163.16975,119.20687 L 166.80948,114.3539 L 167.05216,110.22888 L 166.32418,106.8318 L 168.02275,102.94942 L 169.96392,99.79499 L 169.96392,97.8538 L 172.14777,97.61115 L 174.08894,95.66997 L 175.78749,90.81699 L 179.66987,86.44932 L 184.2802,84.75078 L 187.19194,87.17727 L 194.22879,89.3611 L 199.80969,92.27288 L 202.47881,95.66997 L 207.08912,96.15526 L 221.64807,102.46413 L 229.17014,105.13326 L 235.23639,109.74358 L 236.6923,109.25828 L 236.6923,107.8024 L 233.29522,105.13326 L 239.84671,106.8318 L 240.57467,105.61855 L 239.11875,104.16267 L 241.54525,104.16267 L 241.78792,102.70677 L 237.42021,101.73618 L 240.8173,100.76558 L 240.8173,99.06704 L 239.60405,98.8244 L 235.9643,99.06704 L 233.05255,97.8538 L 231.11135,96.88321 L 234.02314,94.45672 L 234.75109,92.75818 L 234.2658,91.54494 L 231.59668,92.03023 L 226.01573,94.94201 L 225.28782,96.39791 L 223.34661,95.91262 L 216.30978,92.03023 L 216.06716,89.3611 L 211.94212,87.17727 L 204.9053,83.53753 L 203.20677,84.75078 L 203.44942,83.05223 L 199.56705,79.41251 L 196.16996,78.44191 L 193.01553,74.80218 L 192.04494,73.58895 L 195.19937,75.77278 L 194.71409,73.34629 L 197.14055,74.55953 L 196.41261,70.91981 L 199.80969,74.07424 L 198.35382,71.8904 L 201.75086,73.34629 L 198.83911,69.22127 L 201.02293,69.94922 L 200.05234,66.06684 L 201.75086,67.52273 L 199.3244,63.88299 L 201.75086,64.61094 L 199.56705,61.69916 L 202.47881,61.45652 L 199.3244,59.51532 L 201.26558,58.54474 L 199.08175,58.30208 L 201.99351,55.63296 L 199.3244,55.8756 L 199.56705,54.17705 L 199.80969,49.32409 L 198.35382,52.72116 L 196.65525,47.8682 L 196.89791,51.75058 L 195.92732,51.99322 L 193.50082,51.99322 L 190.83168,48.11084 L 188.16256,48.11084 L 185.00813,45.44171 L 183.55222,46.8976 L 179.91252,49.32409 z "
       id="path1939" />
    <path
       id="path2864"
       d="M 51.95662,130.05789 L 47.10039,130.05789 L 48.40473,131.01205 L 51.87908,132.06164 L 54.12411,133.20664 L 50.33068,132.63414 L 44.97485,131.20289 L 39.93685,130.82122 L 36.64427,130.1533 L 31.40921,129.48538 L 20.90983,126.81372 L 18.19442,125.5733 L 21.11069,122.51996 L 28.01488,123.37871 L 30.33624,124.04664 L 32.15668,124.80996 L 34.96362,125.47789 L 38.07442,125.76413 L 38.40871,125.19163 L 37.05865,124.52371 L 34.96487,123.95121 L 32.82536,123.66496 L 30.71632,123.18789 L 31.9914,122.80622 L 29.23021,121.85205 L 27.8649,121.27955 L 25.04269,120.70704 L 22.26625,119.84829 L 18.66985,119.56204 L 15.78661,119.37122 L 14.10095,120.80247 L 6.01062,122.80622 L 5.82757,123.95121 L 5.23518,124.61913 L 8.39046,126.1458 L 11.18215,126.90913 L 19.7543,129.48538 L 28.59974,131.8708 L 36.09511,133.5883 L 38.94528,137.02331 L 45.16305,142.17581 L 46.98225,144.46581 L 47.96623,147.42373 L 50.90923,148.75957 L 50.48333,149.90457 L 59.43556,151.62207 L 63.00022,153.62582 L 74.18097,158.11041 L 88.6543,163.2629 L 101.76233,167.84291 L 107.83131,169.36957 L 117.82982,172.13667 L 130.68098,175.28542 L 136.91654,177.28916 L 141.78676,178.72041 L 143.10504,181.10583 L 138.29332,182.34625 L 139.84051,183.30042 L 154.19685,183.10959 L 155.65246,184.63625 L 160.59892,185.59042 L 168.32309,185.87668 L 169.35661,183.96834 L 164.92756,181.29668 L 162.62274,179.00666 L 163.32193,177.67084 L 160.89506,176.14417 L 156.53975,176.04875 L 156.70755,174.99916 L 152.9586,175.66708 L 153.20266,174.14042 L 149.60626,173.85417 L 144.91788,172.80458 L 134.22143,169.84666 L 119.12392,167.07958 L 116.96912,166.88874 L 117.30349,166.31624 L 113.19219,164.69416 L 111.47852,163.2629 L 110.24923,163.35833 L 108.5966,161.54541 L 104.27299,159.73248 L 103.6971,158.77832 L 100.73888,157.5379 L 99.82991,155.62956 L 96.20428,154.00749 L 92.29006,152.67165 L 90.34883,151.14498 L 89.33309,149.90457 L 87.51261,149.14123 L 89.47039,149.04582 L 89.59239,148.28249 L 86.74097,146.37415 L 86.52991,144.65665 L 89.55041,143.98873 L 94.73969,144.9429 L 103.82924,145.80165 L 112.14454,146.94665 L 118.00125,148.28249 L 123.06976,148.47331 L 143.55488,150.95414 L 153.58513,152.00373 L 163.97896,153.81666 L 164.98075,153.62582 L 163.61541,153.05332 L 157.71291,152.00373 L 165.86172,152.67165 L 165.45235,152.19457 L 162.63018,151.62207 L 165.05826,151.62207 L 163.93576,151.04957 L 158.65491,150.6679 L 161.14403,150.28623 L 159.55113,149.61832 L 158.10956,149.5229 L 154.69493,149.61832 L 150.64344,149.14123 L 147.7907,148.75957 L 148.42888,147.8054 L 147.56442,147.13749 L 145.94102,146.66039 L 143.7252,146.85123 L 140.87122,147.99623 L 141.50812,148.56873 L 139.11056,148.3779 L 128.42812,146.85123 L 125.68221,145.80165 L 119.50642,144.9429 L 109.05155,143.51164 L 108.48966,143.98873 L 107.13957,143.32081 L 99.84126,141.88956 L 95.53169,141.50789 L 88.9618,140.07664 L 86.85279,139.59956 L 92.05731,140.45831 L 89.29615,139.50414 L 92.86201,139.98123 L 88.72022,138.54997 L 95.07782,139.79039 L 91.57296,138.93164 L 96.33765,139.50414 L 89.55547,137.88206 L 92.42342,138.16831 L 87.81129,136.64163 L 90.8763,137.21415 L 85.03484,135.78288 L 88.14561,136.06914 L 83.22962,134.92414 L 85.9158,134.82872 L 80.93884,134.06539 L 81.97107,133.68372 L 79.55824,133.5883 L 79.96883,132.53872 L 77.5255,132.63414 L 76.1754,131.96622 L 71.8671,130.05789 L 73.59602,131.39371 L 67.34523,129.48538 L 71.22891,131.01205 L 70.48522,131.10747 L 68.05713,131.10747 L 61.74529,129.58081 L 59.07437,129.58081 L 53.41475,128.53122 L 53.32318,129.10371 L 51.95662,130.05789 z "
       style="opacity:0.22790701;fill:url(#linearGradient3484);fill-opacity:1;fill-rule:evenodd;stroke:none;stroke-width:0.44754833px;stroke-linecap:butt;stroke-linejoin:miter;stroke-opacity:1" />
    <path
       style="fill:none;fill-opacity:0.75;fill-rule:evenodd;stroke:#ffffff;stroke-width:0.57235873;stroke-linecap:round;stroke-linejoin:round;stroke-miterlimit:4;stroke-dasharray:none;stroke-opacity:1"
       d="M 171.66025,21.79794 C 162.15973,18.28633 157.05504,31.44378 160.18449,38.80558 C 161.31181,48.09876 161.51381,57.85479 159.05213,66.89762 C 154.41828,71.75825 142.39215,74.87443 142.56497,83.03148"
       id="path3759"
       sodipodi:nodetypes="cccc" />
  </g>
</svg>
