<?xml version="1.0" encoding="UTF-8" standalone="no"?>
<svg
   xmlns:dc="http://purl.org/dc/elements/1.1/"
   xmlns:cc="http://creativecommons.org/ns#"
   xmlns:rdf="http://www.w3.org/1999/02/22-rdf-syntax-ns#"
   xmlns:svg="http://www.w3.org/2000/svg"
   xmlns="http://www.w3.org/2000/svg"
   xmlns:xlink="http://www.w3.org/1999/xlink"
   xmlns:sodipodi="http://sodipodi.sourceforge.net/DTD/sodipodi-0.dtd"
   xmlns:inkscape="http://www.inkscape.org/namespaces/inkscape"
   width="291.42856"
   height="256.31427"
   id="svg2"
   sodipodi:version="0.32"
   inkscape:version="1.0.1 (c497b03c, 2020-09-10)"
   sodipodi:docname="no_cover.svg"
   inkscape:output_extension="org.inkscape.output.svg.inkscape"
   version="1.0">
  <defs
     id="defs4">
    <inkscape:perspective
       sodipodi:type="inkscape:persp3d"
       inkscape:vp_x="0 : 128.31427 : 1"
       inkscape:vp_y="0 : 1000 : 0"
       inkscape:vp_z="256 : 128.31427 : 1"
       inkscape:persp3d-origin="128 : 85.647603 : 1"
       id="perspective17" />
    <linearGradient
       id="linearGradient3751"
       inkscape:collect="always">
      <stop
         id="stop3753"
         offset="0"
         style="stop-color:black;stop-opacity:1;" />
      <stop
         id="stop3755"
         offset="1"
         style="stop-color:black;stop-opacity:0;" />
    </linearGradient>
    <linearGradient
       inkscape:collect="always"
       xlink:href="#linearGradient3751"
       id="linearGradient3484"
       gradientUnits="userSpaceOnUse"
       gradientTransform="matrix(0.336682,0,0,0.336682,-81.3739,-51.8729)"
       x1="665.12128"
       y1="684.16162"
       x2="381.28015"
       y2="449.80624" />
  </defs>
  <sodipodi:namedview
     id="base"
     pagecolor="#ffffff"
     bordercolor="#666666"
     borderopacity="1.0"
     inkscape:pageopacity="0.0"
     inkscape:pageshadow="2"
     inkscape:zoom="1.1191406"
     inkscape:cx="-14.318122"
     inkscape:cy="71.112672"
     inkscape:document-units="px"
     inkscape:current-layer="layer1"
     inkscape:window-width="1144"
     inkscape:window-height="785"
     inkscape:window-x="136"
     inkscape:window-y="23"
     showguides="true"
     inkscape:guide-bbox="true"
     width="256px"
     height="256px"
     borderlayer="false"
     showgrid="false"
     inkscape:document-rotation="0"
     inkscape:window-maximized="0" />
  <metadata
     id="metadata7">
    <rdf:RDF>
      <cc:Work
         rdf:about="">
        <dc:format>image/svg+xml</dc:format>
        <dc:type
           rdf:resource="http://purl.org/dc/dcmitype/StillImage" />
      </cc:Work>
    </rdf:RDF>
  </metadata>
  <g
     inkscape:label="Capa 1"
     inkscape:groupmode="layer"
     id="layer1"
     transform="translate(16.285721,0.93781662)">
    <rect
       style="color:#000000;display:block;overflow:visible;visibility:visible;opacity:1;fill:#ffffff;fill-opacity:0.313131;fill-rule:nonzero;stroke:#7f7f7f;stroke-width:10.014;stroke-linecap:butt;stroke-linejoin:miter;stroke-miterlimit:4;stroke-dasharray:none;stroke-dashoffset:0;stroke-opacity:1;marker:none;marker-start:none;marker-mid:none;marker-end:none"
       id="rect1906"
       width="246.30026"
       height="246.30028"
       x="4.8498545"
       y="4.0691833"
       inkscape:export-filename="/home/jesusda/docs/curro/yo/ultrastar-ng/base/theme-pod/images/no_cover.png"
       inkscape:export-xdpi="89.889648"
       inkscape:export-ydpi="89.889648" />
    <rect
       style="color:#000000;display:block;overflow:visible;visibility:visible;opacity:1;fill:#0000ff;fill-opacity:0.226087;fill-rule:nonzero;stroke:none;stroke-width:10.6;stroke-linecap:butt;stroke-linejoin:miter;stroke-miterlimit:4;stroke-dasharray:none;stroke-dashoffset:0;stroke-opacity:1;marker:none;marker-start:none;marker-mid:none;marker-end:none"
       id="rect1913"
       width="291.42856"
       height="45.714287"
       x="-16.285721"
       y="181.50516" />
    <path
       style="font-size:39.8338px;font-family:Goblin;fill:#000000;fill-opacity:1;stroke:none;stroke-opacity:1"
       d="M 58.72672,219.00823 44.00299,198.17717 v 20.44206 h -3.69552 v -28.49441 h 1.55601 l 14.33473,19.70296 v -19.70296 h 3.69552 v 28.88341 H 58.72672 M 64.3867,204.1289 c 0,-4.1234 1.03086,-7.57255 3.09257,-10.34746 2.07467,-2.77485 4.869,-4.16229 8.383,-4.16232 3.95483,3e-5 6.98256,1.27725 9.0832,3.83167 2.11355,2.55447 3.17034,6.11384 3.17036,10.67811 -2e-5,4.681 -1.05681,8.35059 -3.17036,11.00876 -2.1136,2.64522 -5.14133,3.96782 -9.0832,3.96782 -3.5918,0 -6.40558,-1.4004 -8.44135,-4.20122 -2.02281,-2.80081 -3.03422,-6.39259 -3.03422,-10.77536 m 4.08453,0 c -1e-5,3.26763 0.64184,5.99713 1.92556,8.1885 1.29666,2.19138 3.11849,3.28707 5.46548,3.28707 2.65816,0 4.68097,-1.00492 6.06843,-3.01477 1.40039,-2.00984 2.10059,-4.8301 2.10061,-8.4608 -2e-5,-7.33915 -2.72303,-11.00873 -8.16904,-11.00876 -2.41183,3e-5 -4.24662,0.9855 -5.50438,2.95642 -1.25778,1.97096 -1.88667,4.65507 -1.88666,8.05234 m 54.28524,-12.95377 -1.30315,3.32597 c -1.24483,-0.90765 -3.2028,-1.36148 -5.87394,-1.36151 -2.50259,3e-5 -4.51243,1.07626 -6.02953,3.22872 -1.50415,2.1525 -2.25622,4.92738 -2.25621,8.32465 -1e-5,3.24169 0.77151,5.87394 2.31456,7.89674 1.556,2.00985 3.55936,3.01477 6.01008,3.01477 2.67114,0 4.72636,-0.94657 6.16569,-2.83972 l 2.13951,2.97587 c -2.25623,2.24324 -5.16078,3.36486 -8.71365,3.36486 -3.72146,0 -6.65194,-1.34205 -8.79145,-4.02617 -2.13951,-2.68411 -3.20927,-6.22402 -3.20926,-10.61976 -1e-5,-4.25307 1.14107,-7.7865 3.42321,-10.6003 2.28214,-2.81376 5.23207,-4.22065 8.8498,-4.22068 3.09904,3e-5 5.52381,0.51222 7.27434,1.53656 m 4.25958,12.95377 c -1e-5,-4.1234 1.03085,-7.57255 3.09256,-10.34746 2.07467,-2.77485 4.869,-4.16229 8.383,-4.16232 3.95484,3e-5 6.98257,1.27725 9.0832,3.83167 2.11355,2.55447 3.17034,6.11384 3.17037,10.67811 -3e-5,4.681 -1.05682,8.35059 -3.17037,11.00876 -2.1136,2.64522 -5.14133,3.96782 -9.0832,3.96782 -3.5918,0 -6.40558,-1.4004 -8.44135,-4.20122 -2.02281,-2.80081 -3.03422,-6.39259 -3.03421,-10.77536 m 4.08452,0 c -1e-5,3.26763 0.64185,5.99713 1.92556,8.1885 1.29666,2.19138 3.11849,3.28707 5.46548,3.28707 2.65816,0 4.68097,-1.00492 6.06843,-3.01477 1.40039,-2.00984 2.10059,-4.8301 2.10061,-8.4608 -2e-5,-7.33915 -2.72303,-11.00873 -8.16904,-11.00876 -2.41182,3e-5 -4.24662,0.9855 -5.50438,2.95642 -1.25778,1.97096 -1.88667,4.65507 -1.88666,8.05234 m 34.03769,14.87933 h -1.96446 l -10.61976,-28.88341 h 4.31793 l 7.33269,20.98667 7.06039,-20.98667 h 4.18177 l -10.30856,28.88341 m 17.38839,-25.38239 v 7.9162 h 9.41386 v 3.30652 h -9.41386 v 10.26965 h 12.91488 v 3.50102 h -16.8049 v -28.49441 h 17.01885 v 3.50102 h -13.12883 m 33.24024,24.99339 -7.60499,-12.23412 c -0.86878,2e-5 -2.24326,-0.0648 -4.12342,-0.1945 v 12.42862 h -3.89002 v -28.49441 c 0.14263,3e-5 1.14755,-0.0454 3.01476,-0.13615 1.88017,-0.1037 3.24816,-0.15557 4.10397,-0.1556 6.84643,3e-5 10.26964,2.72304 10.26966,8.16905 -2e-5,1.78943 -0.5511,3.40378 -1.65326,4.84307 -1.10219,1.42636 -2.41183,2.31458 -3.92892,2.66467 l 8.2663,13.10937 h -4.45408 m -11.72841,-24.99339 v 9.25826 c 0.93359,0.12968 1.84126,0.19451 2.72301,0.1945 2.334,1e-5 4.03264,-0.37602 5.09593,-1.12811 1.06326,-0.75205 1.59489,-2.09411 1.59491,-4.02617 -2e-5,-1.59489 -0.57055,-2.74244 -1.71161,-3.44267 -1.14109,-0.70018 -2.94346,-1.05028 -5.40713,-1.05031 -0.38901,3e-5 -1.15405,0.0649 -2.29511,0.1945"
       id="text1909" />
    <path
       style="fill:#000000;fill-opacity:1;fill-rule:evenodd;stroke:#000000;stroke-width:0.24021px;stroke-linecap:butt;stroke-linejoin:miter;stroke-opacity:1"
       d="m 179.91252,49.32409 h -4.85299 l -0.97059,2.42649 0.97059,2.66913 -0.4853,2.91178 -2.42646,-1.45589 -1.94118,-3.63973 -4.12505,-0.9706 -1.69852,-1.69853 -3.63974,-1.69854 -4.12502,-6.79416 0.24264,-3.15443 10.19126,-7.76476 4.85292,2.18383 0.72798,1.69855 v 1.94118 l 1.21323,1.69854 2.4265,0.72795 1.69853,-1.45589 0.24264,-1.69854 -0.72794,-1.45589 -1.45588,-0.72795 -0.97061,-1.21324 2.18384,-0.9706 -0.48529,-2.42648 v -1.45589 l -1.45588,-1.45589 -0.72797,-2.18384 -2.91176,-0.72795 -2.4265,-0.48529 -5.09563,3.63973 -12.86037,5.09561 -2.91179,2.91179 -2.18381,1.69854 -0.48534,3.88238 0.97063,1.94118 2.4265,6.55152 3.1544,6.0662 3.39708,4.36768 -5.33825,8.73535 -6.06623,13.10302 -3.63972,5.82357 -6.06621,7.5221 -0.24264,3.39709 -3.15444,2.91178 4.85296,4.36768 -1.21323,5.09561 0.4853,11.40449 2.18381,13.10302 2.18386,11.64713 2.42645,3.88238 3.39712,7.03681 5.33826,8.0074 1.45588,5.0956 1.45591,3.63974 -4.3677,6.06622 -7.76476,3.15443 -0.72793,2.4265 14.80156,-0.4853 -2.18382,3.88237 2.66912,2.42648 7.03681,0.72796 5.58093,-4.85298 1.94121,-6.79415 3.1544,-5.82357 3.88238,-3.39708 1.21323,-3.88239 -4.12498,-0.24264 2.6691,-2.66914 -5.33825,1.69855 3.88237,-3.88238 -2.91179,-0.72795 -2.18384,-2.66914 -3.63974,-7.5221 -8.49269,-7.0368 -1.69852,-0.48531 1.69852,-1.45589 -0.24264,-4.12502 1.69855,-3.63973 -1.45591,0.24265 2.66914,-4.61033 v -4.61032 l 1.69853,-2.42649 v -3.15443 l 3.63973,-4.85297 0.24268,-4.12502 -0.72798,-3.39708 1.69857,-3.88238 1.94117,-3.15443 V 97.8538 l 2.18385,-0.24265 1.94117,-1.94118 1.69855,-4.85298 3.88238,-4.36767 4.61033,-1.69854 2.91174,2.42649 7.03685,2.18383 5.5809,2.91178 2.66912,3.39709 4.61031,0.48529 14.55895,6.30887 7.52207,2.66913 6.06625,4.61032 1.45591,-0.4853 v -1.45588 l -3.39708,-2.66914 6.55149,1.69854 0.72796,-1.21325 -1.45592,-1.45588 h 2.4265 l 0.24267,-1.4559 -4.36771,-0.97059 3.39709,-0.9706 v -1.69854 l -1.21325,-0.24264 -3.63975,0.24264 -2.91175,-1.21324 -1.9412,-0.97059 2.91179,-2.42649 0.72795,-1.69854 -0.48529,-1.21324 -2.66912,0.48529 -5.58095,2.91178 -0.72791,1.4559 -1.94121,-0.48529 -7.03683,-3.88239 -0.24262,-2.66913 -4.12504,-2.18383 -7.03682,-3.63974 -1.69853,1.21325 0.24265,-1.69855 -3.88237,-3.63972 -3.39709,-0.9706 -3.15443,-3.63973 -0.97059,-1.21323 3.15443,2.18383 -0.48528,-2.42649 2.42646,1.21324 -0.72794,-3.63972 3.39708,3.15443 -1.45587,-2.18384 3.39704,1.45589 -2.91175,-4.12502 2.18382,0.72795 -0.97059,-3.88238 1.69852,1.45589 -2.42646,-3.63974 2.42646,0.72795 -2.18381,-2.91178 2.91176,-0.24264 -3.15441,-1.9412 1.94118,-0.97058 -2.18383,-0.24266 2.91176,-2.66912 -2.66911,0.24264 0.24265,-1.69855 0.24264,-4.85296 -1.45587,3.39707 -1.69857,-4.85296 0.24266,3.88238 -0.97059,0.24264 h -2.4265 l -2.66914,-3.88238 h -2.66912 l -3.15443,-2.66913 -1.45591,1.45589 z"
       id="path1939" />
    <path
       id="path2864"
       d="m 51.95662,130.05789 h -4.85623 l 1.30434,0.95416 3.47435,1.04959 2.24503,1.145 -3.79343,-0.5725 -5.35583,-1.43125 -5.038,-0.38167 -3.29258,-0.66792 -5.23506,-0.66792 -10.49938,-2.67166 -2.71541,-1.24042 2.91627,-3.05334 6.90419,0.85875 2.32136,0.66793 1.82044,0.76332 2.80694,0.66793 3.1108,0.28624 0.33429,-0.5725 -1.35006,-0.66792 -2.09378,-0.5725 -2.13951,-0.28625 -2.10904,-0.47707 1.27508,-0.38167 -2.76119,-0.95417 -1.36531,-0.5725 -2.82221,-0.57251 -2.77644,-0.85875 -3.5964,-0.28625 -2.88324,-0.19082 -1.68566,1.43125 -8.09033,2.00375 -0.18305,1.14499 -0.59239,0.66792 3.15528,1.52667 2.79169,0.76333 8.57215,2.57625 8.84544,2.38542 7.49537,1.7175 2.85017,3.43501 6.21777,5.1525 1.8192,2.29 0.98398,2.95792 2.943,1.33584 -0.4259,1.145 8.95223,1.7175 3.56466,2.00375 11.18075,4.48459 14.47333,5.15249 13.10803,4.58001 6.06898,1.52666 9.99851,2.7671 12.85116,3.14875 6.23556,2.00374 4.87022,1.43125 1.31828,2.38542 -4.81172,1.24042 1.54719,0.95417 14.35634,-0.19083 1.45561,1.52666 4.94646,0.95417 7.72417,0.28626 1.03352,-1.90834 -4.42905,-2.67166 -2.30482,-2.29002 0.69919,-1.33582 -2.42687,-1.52667 -4.35531,-0.0954 0.1678,-1.04959 -3.74895,0.66792 0.24406,-1.52666 -3.5964,-0.28625 -4.68838,-1.04959 -10.69645,-2.95792 -15.09751,-2.76708 -2.1548,-0.19084 0.33437,-0.5725 -4.1113,-1.62208 -1.71367,-1.43126 -1.22929,0.0954 -1.65263,-1.81292 -4.32361,-1.81293 -0.57589,-0.95416 -2.95822,-1.24042 -0.90897,-1.90834 -3.62563,-1.62207 -3.91422,-1.33584 -1.94123,-1.52667 -1.01574,-1.24041 -1.82048,-0.76334 1.95778,-0.0954 0.122,-0.76333 -2.85142,-1.90834 -0.21106,-1.7175 3.0205,-0.66792 5.18928,0.95417 9.08955,0.85875 8.3153,1.145 5.85671,1.33584 5.06851,0.19082 20.48512,2.48083 10.03025,1.04959 10.39383,1.81293 1.00179,-0.19084 -1.36534,-0.5725 -5.9025,-1.04959 8.14881,0.66792 -0.40937,-0.47708 -2.82217,-0.5725 h 2.42808 l -1.1225,-0.5725 -5.28085,-0.38167 2.48912,-0.38167 -1.5929,-0.66791 -1.44157,-0.0954 -3.41463,0.0954 -4.05149,-0.47709 -2.85274,-0.38166 0.63818,-0.95417 -0.86446,-0.66791 -1.6234,-0.4771 -2.21582,0.19084 -2.85398,1.145 0.6369,0.5725 -2.39756,-0.19083 -10.68244,-1.52667 -2.74591,-1.04958 -6.17579,-0.85875 -10.45487,-1.43126 -0.56189,0.47709 -1.35009,-0.66792 -7.29831,-1.43125 -4.30957,-0.38167 -6.56989,-1.43125 -2.10901,-0.47708 5.20452,0.85875 -2.76116,-0.95417 3.56586,0.47709 -4.14179,-1.43126 6.3576,1.24042 -3.50486,-0.85875 4.76469,0.5725 -6.78218,-1.62208 2.86795,0.28625 -4.61213,-1.52668 3.06501,0.57252 -5.84146,-1.43127 3.11077,0.28626 -4.91599,-1.145 2.68618,-0.0954 -4.97696,-0.76333 1.03223,-0.38167 -2.41283,-0.0954 0.41059,-1.04958 -2.44333,0.0954 -1.3501,-0.66792 -4.3083,-1.90833 1.72892,1.33582 -6.25079,-1.90833 3.88368,1.52667 -0.74369,0.0954 h -2.42809 l -6.31184,-1.52666 h -2.67092 l -5.65962,-1.04959 -0.09157,0.57249 z"
       style="opacity:0.227907;fill:url(#linearGradient3484);fill-opacity:1;fill-rule:evenodd;stroke:none;stroke-width:0.447548px;stroke-linecap:butt;stroke-linejoin:miter;stroke-opacity:1" />
    <path
       style="fill:none;fill-opacity:0.75;fill-rule:evenodd;stroke:#ffffff;stroke-width:0.572359;stroke-linecap:round;stroke-linejoin:round;stroke-miterlimit:4;stroke-dasharray:none;stroke-opacity:1"
       d="m 171.66025,21.79794 c -9.50052,-3.51161 -14.60521,9.64584 -11.47576,17.00764 1.12732,9.29318 1.32932,19.04921 -1.13236,28.09204 -4.63385,4.86063 -16.65998,7.97681 -16.48716,16.13386"
       id="path3759"
       sodipodi:nodetypes="cccc" />
  </g>
</svg>
