<?xml version="1.0" encoding="UTF-8" standalone="no"?>
<svg
   xmlns:dc="http://purl.org/dc/elements/1.1/"
   xmlns:cc="http://creativecommons.org/ns#"
   xmlns:rdf="http://www.w3.org/1999/02/22-rdf-syntax-ns#"
   xmlns:svg="http://www.w3.org/2000/svg"
   xmlns="http://www.w3.org/2000/svg"
   xmlns:xlink="http://www.w3.org/1999/xlink"
   xmlns:sodipodi="http://sodipodi.sourceforge.net/DTD/sodipodi-0.dtd"
   xmlns:inkscape="http://www.inkscape.org/namespaces/inkscape"
   width="109.80584"
   height="67.581444"
   id="svg1901"
   sodipodi:version="0.32"
   inkscape:version="1.0.1 (c497b03c, 2020-09-10)"
   sodipodi:docname="notebargold_hi.svg"
   inkscape:export-filename="/home/knittl/git/performous/themes/default/notebargold.png"
   inkscape:export-xdpi="90"
   inkscape:export-ydpi="90"
   version="1.0"
   inkscape:output_extension="org.inkscape.output.svg.inkscape">
  <defs
     id="defs1903">
    <linearGradient
       id="linearGradient3207">
      <stop
         style="stop-color:#fffff5;stop-opacity:1;"
         offset="0"
         id="stop3209" />
      <stop
         id="stop3211"
         offset="0.44999999"
         style="stop-color:#fffee1;stop-opacity:1;" />
      <stop
         style="stop-color:#ffd2c3;stop-opacity:1;"
         offset="1"
         id="stop3213" />
    </linearGradient>
    <linearGradient
       inkscape:collect="always"
       xlink:href="#linearGradient3207"
       id="linearGradient3203"
       gradientUnits="userSpaceOnUse"
       x1="319.99997"
       y1="525.70605"
       x2="319.99997"
       y2="555.27692"
       gradientTransform="matrix(1.3567148,0,0,1.4375736,-114.08888,-236.38543)" />
    <filter
       inkscape:collect="always"
       id="filter3215"
       x="-0.070401587"
       width="1.1408032"
       y="-0.36694321"
       height="1.7338864">
      <feGaussianBlur
         inkscape:collect="always"
         stdDeviation="1.4369205"
         id="feGaussianBlur3217" />
    </filter>
    <filter
       inkscape:collect="always"
       id="filter3314">
      <feGaussianBlur
         inkscape:collect="always"
         stdDeviation="0.2676702"
         id="feGaussianBlur3316" />
    </filter>
    <linearGradient
       id="linearGradient2388">
      <stop
         id="stop2390"
         offset="0"
         style="stop-color:#84c0d8;stop-opacity:1;" />
      <stop
         id="stop2392"
         offset="1"
         style="stop-color:#449ec4;stop-opacity:1;" />
    </linearGradient>
    <inkscape:perspective
       id="perspective3325"
       inkscape:persp3d-origin="64 : 24.914777 : 1"
       inkscape:vp_z="128 : 35.581444 : 1"
       inkscape:vp_y="0 : 1000 : 0"
       inkscape:vp_x="0 : 35.581444 : 1"
       sodipodi:type="inkscape:persp3d" />
    <filter
       inkscape:collect="always"
       id="filter3359"
       x="-0.070401512"
       width="1.140803"
       y="-0.36694285"
       height="1.7338856">
      <feGaussianBlur
         inkscape:collect="always"
         stdDeviation="1.4369191"
         id="feGaussianBlur3361" />
    </filter>
    <filter
       inkscape:collect="always"
       id="filter3383"
       x="-0.18092307"
       width="1.3618462"
       y="-0.35636362"
       height="1.7127273">
      <feGaussianBlur
         inkscape:collect="always"
         stdDeviation="6.3044256"
         id="feGaussianBlur3385" />
    </filter>
  </defs>
  <sodipodi:namedview
     id="base"
     pagecolor="#ffffff"
     bordercolor="#666666"
     borderopacity="1.0"
     inkscape:pageopacity="0.0"
     inkscape:pageshadow="2"
     inkscape:zoom="9.125"
     inkscape:cx="55.102053"
     inkscape:cy="33.989792"
     inkscape:document-units="px"
     inkscape:current-layer="layer1"
     gridtolerance="10000"
     inkscape:window-width="1439"
     inkscape:window-height="801"
     inkscape:window-x="250"
     inkscape:window-y="165"
     showgrid="false"
     inkscape:snap-global="false"
     inkscape:document-rotation="0"
     inkscape:window-maximized="0">
    <inkscape:grid
       type="xygrid"
       id="grid3154"
       visible="true"
       enabled="true"
       originx="-8.897947"
       originy="1.9897916" />
  </sodipodi:namedview>
  <metadata
     id="metadata1906">
    <rdf:RDF>
      <cc:Work
         rdf:about="">
        <dc:format>image/svg+xml</dc:format>
        <dc:type
           rdf:resource="http://purl.org/dc/dcmitype/StillImage" />
      </cc:Work>
    </rdf:RDF>
  </metadata>
  <g
     inkscape:label="Taso 1"
     inkscape:groupmode="layer"
     id="layer1"
     style="opacity:1"
     transform="translate(-264.89793,-506.37237)">
    <path
       sodipodi:type="inkscape:offset"
       inkscape:radius="1.8614163"
       inkscape:original="M 44.09375 20.03125 C 43.272831 20.03125 42.521517 20.241931 41.78125 20.46875 C 57.140936 27.84874 73.786659 26.922094 87.03125 20.6875 C 86.068989 20.275907 85.031058 20.03125 83.90625 20.03125 L 44.09375 20.03125 z "
       style="opacity:1;fill:#ffffff;fill-opacity:0.784314;stroke:none;stroke-width:1.5;stroke-miterlimit:4;stroke-opacity:1;filter:url(#filter3215)"
       id="path3258"
       d="m 44.09375,18.169922 c -1.139395,0 -2.088549,0.283947 -2.857422,0.519531 a 1.8616025,1.8616025 0 0 0 -0.261719,3.457031 c 15.887698,7.633688 33.125572,6.684893 46.84961,0.22461 a 1.8616025,1.8616025 0 0 0 -0.06055,-3.394532 c -1.162026,-0.497039 -2.462696,-0.80664 -3.857422,-0.80664 z"
       transform="matrix(1.0432367,0,0,1.0929798,253.23284,506.09055)" />
    <rect
       style="opacity:1;fill:url(#linearGradient3203);fill-opacity:1;stroke:#ffffff;stroke-width:3;stroke-miterlimit:4;stroke-dasharray:none;stroke-opacity:1;filter:url(#filter3383)"
       id="rect3198"
       width="80.630135"
       height="39.458378"
       x="279.48578"
       y="520.4339"
       rx="12"
       ry="12" />
    <path
       sodipodi:type="inkscape:offset"
       inkscape:radius="1.8614163"
       inkscape:original="M 44.09375 20.03125 C 43.272831 20.03125 42.521517 20.241931 41.78125 20.46875 C 57.140936 27.84874 73.786659 26.922094 87.03125 20.6875 C 86.068989 20.275907 85.031058 20.03125 83.90625 20.03125 L 44.09375 20.03125 z "
       style="opacity:1;fill:#ffffff;fill-opacity:0.568627;stroke:none;stroke-width:1.5;stroke-miterlimit:4;stroke-opacity:1;filter:url(#filter3359)"
       id="path3337"
       d="m 44.09375,18.169922 c -1.139395,0 -2.088549,0.283947 -2.857422,0.519531 a 1.8616025,1.8616025 0 0 0 -0.261719,3.457031 c 15.887698,7.633688 33.125572,6.684893 46.84961,0.22461 a 1.8616025,1.8616025 0 0 0 -0.06055,-3.394532 c -1.162026,-0.497039 -2.462696,-0.80664 -3.857422,-0.80664 z"
       transform="matrix(1.0432362,0,0,1.0929825,252.81598,508.3371)" />
  </g>
  <g
     inkscape:groupmode="layer"
     id="layer2"
     inkscape:label="stars"
     style="display:none"
     transform="translate(-8.897947,1.9897916)">
    <g
       id="g3241"
       transform="translate(-254.43583,-507.84078)"
       style="opacity:0.66;filter:url(#filter3314)">
      <path
         sodipodi:type="star"
         style="display:inline;overflow:visible;visibility:visible;opacity:1;fill:#fff49f;fill-opacity:1;fill-rule:nonzero;stroke:none;stroke-width:1.5;stroke-opacity:1;marker:none;marker-start:none;marker-mid:none;marker-end:none;enable-background:accumulate"
         id="path3221"
         sodipodi:sides="5"
         sodipodi:cx="21.637474"
         sodipodi:cy="12.382892"
         sodipodi:r1="14.288825"
         sodipodi:r2="7.1444125"
         sodipodi:arg1="0.76604574"
         sodipodi:arg2="1.3943643"
         inkscape:flatsided="false"
         inkscape:rounded="0.25"
         inkscape:randomized="0.1"
         d="m 31.160812,22.085001 c -1.403899,1.870487 -5.612682,-2.255269 -7.867185,-2.031867 -2.254503,0.223401 -6.048252,5.421069 -8.321652,4.729852 -2.2734,-0.691217 0.27314,-6.135719 -0.65897,-8.250401 C 13.380895,14.417902 6.9803643,12.208497 6.9519812,9.7565543 6.9235982,7.3046114 14.655317,7.8280513 16.440248,6.299865 c 1.784931,-1.5281863 1.914335,-7.5067928 4.103242,-8.1371673 2.188908,-0.6303745 2.359983,7.733383 4.422278,8.8945746 2.062294,1.1611916 8.855476,-2.7601103 9.636323,-0.610773 0.780847,2.1493374 -5.859708,3.5197015 -6.463985,5.8897187 -0.604278,2.370017 4.426605,7.878296 3.022706,9.748783 z"
         transform="matrix(0.2517608,-0.3589923,0.3352142,0.2696192,284.77989,529.17981)" />
      <path
         sodipodi:type="star"
         style="display:inline;overflow:visible;visibility:visible;opacity:1;fill:#fff49f;fill-opacity:1;fill-rule:nonzero;stroke:none;stroke-width:1.5;stroke-opacity:1;marker:none;marker-start:none;marker-mid:none;marker-end:none;enable-background:accumulate"
         id="path3223"
         sodipodi:sides="5"
         sodipodi:cx="21.637474"
         sodipodi:cy="12.382892"
         sodipodi:r1="14.288825"
         sodipodi:r2="7.1444125"
         sodipodi:arg1="0.76604574"
         sodipodi:arg2="1.3943643"
         inkscape:flatsided="false"
         inkscape:rounded="0.25"
         inkscape:randomized="0.1"
         d="m 31.160812,22.085001 c -1.403899,1.870487 -5.612682,-2.255269 -7.867185,-2.031867 -2.254503,0.223401 -6.048252,5.421069 -8.321652,4.729852 -2.2734,-0.691217 0.27314,-6.135719 -0.65897,-8.250401 C 13.380895,14.417902 6.9803643,12.208497 6.9519812,9.7565543 6.9235982,7.3046114 14.655317,7.8280513 16.440248,6.299865 c 1.784931,-1.5281863 1.914335,-7.5067928 4.103242,-8.1371673 2.188908,-0.6303745 2.359983,7.733383 4.422278,8.8945746 2.062294,1.1611916 8.855476,-2.7601103 9.636323,-0.610773 0.780847,2.1493374 -5.859708,3.5197015 -6.463985,5.8897187 -0.604278,2.370017 4.426605,7.878296 3.022706,9.748783 z"
         transform="matrix(-0.4226537,0.1006544,-0.1006544,-0.4226537,343.62899,527.82816)" />
      <path
         sodipodi:type="star"
         style="display:inline;overflow:visible;visibility:visible;opacity:1;fill:#fff49f;fill-opacity:1;fill-rule:nonzero;stroke:none;stroke-width:1.5;stroke-opacity:1;marker:none;marker-start:none;marker-mid:none;marker-end:none;enable-background:accumulate"
         id="path3225"
         sodipodi:sides="5"
         sodipodi:cx="21.637474"
         sodipodi:cy="12.382892"
         sodipodi:r1="14.288825"
         sodipodi:r2="7.1444125"
         sodipodi:arg1="0.76604574"
         sodipodi:arg2="1.3943643"
         inkscape:flatsided="false"
         inkscape:rounded="0.25"
         inkscape:randomized="0.1"
         d="m 31.160812,22.085001 c -1.403899,1.870487 -5.612682,-2.255269 -7.867185,-2.031867 -2.254503,0.223401 -6.048252,5.421069 -8.321652,4.729852 -2.2734,-0.691217 0.27314,-6.135719 -0.65897,-8.250401 C 13.380895,14.417902 6.9803643,12.208497 6.9519812,9.7565543 6.9235982,7.3046114 14.655317,7.8280513 16.440248,6.299865 c 1.784931,-1.5281863 1.914335,-7.5067928 4.103242,-8.1371673 2.188908,-0.6303745 2.359983,7.733383 4.422278,8.8945746 2.062294,1.1611916 8.855476,-2.7601103 9.636323,-0.610773 0.780847,2.1493374 -5.859708,3.5197015 -6.463985,5.8897187 -0.604278,2.370017 4.426605,7.878296 3.022706,9.748783 z"
         transform="matrix(0.06099512,-0.4715566,0.2973004,0.0967461,343.8725,559.8055)" />
      <path
         sodipodi:type="star"
         style="display:inline;overflow:visible;visibility:visible;opacity:1;fill:#fff49f;fill-opacity:1;fill-rule:nonzero;stroke:none;stroke-width:1.5;stroke-opacity:1;marker:none;marker-start:none;marker-mid:none;marker-end:none;enable-background:accumulate"
         id="path3227"
         sodipodi:sides="5"
         sodipodi:cx="21.637474"
         sodipodi:cy="12.382892"
         sodipodi:r1="14.288825"
         sodipodi:r2="7.1444125"
         sodipodi:arg1="0.76604574"
         sodipodi:arg2="1.3943643"
         inkscape:flatsided="false"
         inkscape:rounded="0.25"
         inkscape:randomized="0.1"
         d="m 31.160812,22.085001 c -1.403899,1.870487 -5.612682,-2.255269 -7.867185,-2.031867 -2.254503,0.223401 -6.048252,5.421069 -8.321652,4.729852 -2.2734,-0.691217 0.27314,-6.135719 -0.65897,-8.250401 C 13.380895,14.417902 6.9803643,12.208497 6.9519812,9.7565543 6.9235982,7.3046114 14.655317,7.8280513 16.440248,6.299865 c 1.784931,-1.5281863 1.914335,-7.5067928 4.103242,-8.1371673 2.188908,-0.6303745 2.359983,7.733383 4.422278,8.8945746 2.062294,1.1611916 8.855476,-2.7601103 9.636323,-0.610773 0.780847,2.1493374 -5.859708,3.5197015 -6.463985,5.8897187 -0.604278,2.370017 4.426605,7.878296 3.022706,9.748783 z"
         transform="matrix(-0.0235526,-0.4523683,0.3372133,-0.03159558,319.91763,565.39226)" />
      <path
         sodipodi:type="star"
         style="display:inline;overflow:visible;visibility:visible;opacity:1;fill:#fff49f;fill-opacity:1;fill-rule:nonzero;stroke:none;stroke-width:1.5;stroke-opacity:1;marker:none;marker-start:none;marker-mid:none;marker-end:none;enable-background:accumulate"
         id="path3229"
         sodipodi:sides="5"
         sodipodi:cx="21.637474"
         sodipodi:cy="12.382892"
         sodipodi:r1="14.288825"
         sodipodi:r2="7.1444125"
         sodipodi:arg1="0.76604574"
         sodipodi:arg2="1.3943643"
         inkscape:flatsided="false"
         inkscape:rounded="0.25"
         inkscape:randomized="0.1"
         d="m 31.160812,22.085001 c -1.403899,1.870487 -5.612682,-2.255269 -7.867185,-2.031867 -2.254503,0.223401 -6.048252,5.421069 -8.321652,4.729852 -2.2734,-0.691217 0.27314,-6.135719 -0.65897,-8.250401 C 13.380895,14.417902 6.9803643,12.208497 6.9519812,9.7565543 6.9235982,7.3046114 14.655317,7.8280513 16.440248,6.299865 c 1.784931,-1.5281863 1.914335,-7.5067928 4.103242,-8.1371673 2.188908,-0.6303745 2.359983,7.733383 4.422278,8.8945746 2.062294,1.1611916 8.855476,-2.7601103 9.636323,-0.610773 0.780847,2.1493374 -5.859708,3.5197015 -6.463985,5.8897187 -0.604278,2.370017 4.426605,7.878296 3.022706,9.748783 z"
         transform="matrix(-0.4077357,-0.170593,0.1500638,-0.4635153,297.97321,561.11569)" />
      <path
         sodipodi:type="star"
         style="display:inline;overflow:visible;visibility:visible;opacity:1;fill:#fff49f;fill-opacity:1;fill-rule:nonzero;stroke:none;stroke-width:1.5;stroke-opacity:1;marker:none;marker-start:none;marker-mid:none;marker-end:none;enable-background:accumulate"
         id="path3231"
         sodipodi:sides="5"
         sodipodi:cx="21.637474"
         sodipodi:cy="12.382892"
         sodipodi:r1="14.288825"
         sodipodi:r2="7.1444125"
         sodipodi:arg1="0.76604574"
         sodipodi:arg2="1.3943643"
         inkscape:flatsided="false"
         inkscape:rounded="0.25"
         inkscape:randomized="0.1"
         d="m 31.160812,22.085001 c -1.403899,1.870487 -5.612682,-2.255269 -7.867185,-2.031867 -2.254503,0.223401 -6.048252,5.421069 -8.321652,4.729852 -2.2734,-0.691217 0.27314,-6.135719 -0.65897,-8.250401 C 13.380895,14.417902 6.9803643,12.208497 6.9519812,9.7565543 6.9235982,7.3046114 14.655317,7.8280513 16.440248,6.299865 c 1.784931,-1.5281863 1.914335,-7.5067928 4.103242,-8.1371673 2.188908,-0.6303745 2.359983,7.733383 4.422278,8.8945746 2.062294,1.1611916 8.855476,-2.7601103 9.636323,-0.610773 0.780847,2.1493374 -5.859708,3.5197015 -6.463985,5.8897187 -0.604278,2.370017 4.426605,7.878296 3.022706,9.748783 z"
         transform="matrix(-0.1402938,0.4111997,-0.4111997,-0.1402938,312.90301,550.0936)" />
      <path
         transform="matrix(-0.3760896,0.1189566,-0.1233495,-0.3626959,356.26327,529.09824)"
         d="m 31.160812,22.085001 c -1.403899,1.870487 -5.612682,-2.255269 -7.867185,-2.031867 -2.254503,0.223401 -6.048252,5.421069 -8.321652,4.729852 -2.2734,-0.691217 0.27314,-6.135719 -0.65897,-8.250401 C 13.380895,14.417902 6.9803643,12.208497 6.9519812,9.7565543 6.9235982,7.3046114 14.655317,7.8280513 16.440248,6.299865 c 1.784931,-1.5281863 1.914335,-7.5067928 4.103242,-8.1371673 2.188908,-0.6303745 2.359983,7.733383 4.422278,8.8945746 2.062294,1.1611916 8.855476,-2.7601103 9.636323,-0.610773 0.780847,2.1493374 -5.859708,3.5197015 -6.463985,5.8897187 -0.604278,2.370017 4.426605,7.878296 3.022706,9.748783 z"
         inkscape:randomized="0.1"
         inkscape:rounded="0.25"
         inkscape:flatsided="false"
         sodipodi:arg2="1.3943643"
         sodipodi:arg1="0.76604574"
         sodipodi:r2="7.1444125"
         sodipodi:r1="14.288825"
         sodipodi:cy="12.382892"
         sodipodi:cx="21.637474"
         sodipodi:sides="5"
         id="path3318"
         style="display:inline;overflow:visible;visibility:visible;opacity:1;fill:#fff49f;fill-opacity:1;fill-rule:nonzero;stroke:none;stroke-width:1.5;stroke-opacity:1;marker:none;marker-start:none;marker-mid:none;marker-end:none;enable-background:accumulate"
         sodipodi:type="star" />
      <path
         transform="matrix(-0.4128364,0.1354017,-0.1354017,-0.4128364,329.3917,550.03765)"
         d="m 31.160812,22.085001 c -1.403899,1.870487 -5.612682,-2.255269 -7.867185,-2.031867 -2.254503,0.223401 -6.048252,5.421069 -8.321652,4.729852 -2.2734,-0.691217 0.27314,-6.135719 -0.65897,-8.250401 C 13.380895,14.417902 6.9803643,12.208497 6.9519812,9.7565543 6.9235982,7.3046114 14.655317,7.8280513 16.440248,6.299865 c 1.784931,-1.5281863 1.914335,-7.5067928 4.103242,-8.1371673 2.188908,-0.6303745 2.359983,7.733383 4.422278,8.8945746 2.062294,1.1611916 8.855476,-2.7601103 9.636323,-0.610773 0.780847,2.1493374 -5.859708,3.5197015 -6.463985,5.8897187 -0.604278,2.370017 4.426605,7.878296 3.022706,9.748783 z"
         inkscape:randomized="0.1"
         inkscape:rounded="0.25"
         inkscape:flatsided="false"
         sodipodi:arg2="1.3943643"
         sodipodi:arg1="0.76604574"
         sodipodi:r2="7.1444125"
         sodipodi:r1="14.288825"
         sodipodi:cy="12.382892"
         sodipodi:cx="21.637474"
         sodipodi:sides="5"
         id="path3320"
         style="display:inline;overflow:visible;visibility:visible;opacity:1;fill:#fff49f;fill-opacity:1;fill-rule:nonzero;stroke:none;stroke-width:1.5;stroke-opacity:1;marker:none;marker-start:none;marker-mid:none;marker-end:none;enable-background:accumulate"
         sodipodi:type="star" />
      <path
         transform="matrix(-0.2934093,0.1234417,-0.09623212,-0.3763705,308.24363,537.32112)"
         d="m 31.160812,22.085001 c -1.403899,1.870487 -5.612682,-2.255269 -7.867185,-2.031867 -2.254503,0.223401 -6.048252,5.421069 -8.321652,4.729852 -2.2734,-0.691217 0.27314,-6.135719 -0.65897,-8.250401 C 13.380895,14.417902 6.9803643,12.208497 6.9519812,9.7565543 6.9235982,7.3046114 14.655317,7.8280513 16.440248,6.299865 c 1.784931,-1.5281863 1.914335,-7.5067928 4.103242,-8.1371673 2.188908,-0.6303745 2.359983,7.733383 4.422278,8.8945746 2.062294,1.1611916 8.855476,-2.7601103 9.636323,-0.610773 0.780847,2.1493374 -5.859708,3.5197015 -6.463985,5.8897187 -0.604278,2.370017 4.426605,7.878296 3.022706,9.748783 z"
         inkscape:randomized="0.1"
         inkscape:rounded="0.25"
         inkscape:flatsided="false"
         sodipodi:arg2="1.3943643"
         sodipodi:arg1="0.76604574"
         sodipodi:r2="7.1444125"
         sodipodi:r1="14.288825"
         sodipodi:cy="12.382892"
         sodipodi:cx="21.637474"
         sodipodi:sides="5"
         id="path3322"
         style="display:inline;overflow:visible;visibility:visible;opacity:1;fill:#fff49f;fill-opacity:1;fill-rule:nonzero;stroke:none;stroke-width:1.5;stroke-opacity:1;marker:none;marker-start:none;marker-mid:none;marker-end:none;enable-background:accumulate"
         sodipodi:type="star" />
      <path
         sodipodi:type="star"
         style="display:inline;overflow:visible;visibility:visible;opacity:1;fill:#fff49f;fill-opacity:1;fill-rule:nonzero;stroke:none;stroke-width:1.5;stroke-opacity:1;marker:none;marker-start:none;marker-mid:none;marker-end:none;enable-background:accumulate"
         id="path3233"
         sodipodi:sides="5"
         sodipodi:cx="21.637474"
         sodipodi:cy="12.382892"
         sodipodi:r1="14.288825"
         sodipodi:r2="7.1444125"
         sodipodi:arg1="0.76604574"
         sodipodi:arg2="1.3943643"
         inkscape:flatsided="false"
         inkscape:rounded="0.25"
         inkscape:randomized="0.1"
         d="m 31.160812,22.085001 c -1.403899,1.870487 -5.612682,-2.255269 -7.867185,-2.031867 -2.254503,0.223401 -6.048252,5.421069 -8.321652,4.729852 -2.2734,-0.691217 0.27314,-6.135719 -0.65897,-8.250401 C 13.380895,14.417902 6.9803643,12.208497 6.9519812,9.7565543 6.9235982,7.3046114 14.655317,7.8280513 16.440248,6.299865 c 1.784931,-1.5281863 1.914335,-7.5067928 4.103242,-8.1371673 2.188908,-0.6303745 2.359983,7.733383 4.422278,8.8945746 2.062294,1.1611916 8.855476,-2.7601103 9.636323,-0.610773 0.780847,2.1493374 -5.859708,3.5197015 -6.463985,5.8897187 -0.604278,2.370017 4.426605,7.878296 3.022706,9.748783 z"
         transform="matrix(-0.2980027,0.1533418,-0.09773864,-0.4675352,353.52012,542.52182)" />
      <path
         sodipodi:type="star"
         style="display:inline;overflow:visible;visibility:visible;opacity:1;fill:#fff49f;fill-opacity:1;fill-rule:nonzero;stroke:none;stroke-width:1.5;stroke-opacity:1;marker:none;marker-start:none;marker-mid:none;marker-end:none;enable-background:accumulate"
         id="path3235"
         sodipodi:sides="5"
         sodipodi:cx="21.637474"
         sodipodi:cy="12.382892"
         sodipodi:r1="14.288825"
         sodipodi:r2="7.1444125"
         sodipodi:arg1="0.76604574"
         sodipodi:arg2="1.3943643"
         inkscape:flatsided="false"
         inkscape:rounded="0.25"
         inkscape:randomized="0.1"
         d="m 31.160812,22.085001 c -1.403899,1.870487 -5.612682,-2.255269 -7.867185,-2.031867 -2.254503,0.223401 -6.048252,5.421069 -8.321652,4.729852 -2.2734,-0.691217 0.27314,-6.135719 -0.65897,-8.250401 C 13.380895,14.417902 6.9803643,12.208497 6.9519812,9.7565543 6.9235982,7.3046114 14.655317,7.8280513 16.440248,6.299865 c 1.784931,-1.5281863 1.914335,-7.5067928 4.103242,-8.1371673 2.188908,-0.6303745 2.359983,7.733383 4.422278,8.8945746 2.062294,1.1611916 8.855476,-2.7601103 9.636323,-0.610773 0.780847,2.1493374 -5.859708,3.5197015 -6.463985,5.8897187 -0.604278,2.370017 4.426605,7.878296 3.022706,9.748783 z"
         transform="matrix(0.3282993,0.1583936,-0.128532,0.4045725,281.33727,530.5045)" />
      <path
         sodipodi:type="star"
         style="display:inline;overflow:visible;visibility:visible;opacity:1;fill:#fff49f;fill-opacity:1;fill-rule:nonzero;stroke:none;stroke-width:1.5;stroke-opacity:1;marker:none;marker-start:none;marker-mid:none;marker-end:none;enable-background:accumulate"
         id="path3237"
         sodipodi:sides="5"
         sodipodi:cx="21.637474"
         sodipodi:cy="12.382892"
         sodipodi:r1="14.288825"
         sodipodi:r2="7.1444125"
         sodipodi:arg1="0.76604574"
         sodipodi:arg2="1.3943643"
         inkscape:flatsided="false"
         inkscape:rounded="0.25"
         inkscape:randomized="0.1"
         d="m 31.160812,22.085001 c -1.403899,1.870487 -5.612682,-2.255269 -7.867185,-2.031867 -2.254503,0.223401 -6.048252,5.421069 -8.321652,4.729852 -2.2734,-0.691217 0.27314,-6.135719 -0.65897,-8.250401 C 13.380895,14.417902 6.9803643,12.208497 6.9519812,9.7565543 6.9235982,7.3046114 14.655317,7.8280513 16.440248,6.299865 c 1.784931,-1.5281863 1.914335,-7.5067928 4.103242,-8.1371673 2.188908,-0.6303745 2.359983,7.733383 4.422278,8.8945746 2.062294,1.1611916 8.855476,-2.7601103 9.636323,-0.610773 0.780847,2.1493374 -5.859708,3.5197015 -6.463985,5.8897187 -0.604278,2.370017 4.426605,7.878296 3.022706,9.748783 z"
         transform="matrix(-0.2767973,0.3022505,-0.4685346,-0.1785613,332.55143,518.72922)" />
      <path
         sodipodi:type="star"
         style="display:inline;overflow:visible;visibility:visible;opacity:1;fill:#fff49f;fill-opacity:1;fill-rule:nonzero;stroke:none;stroke-width:1.5;stroke-opacity:1;marker:none;marker-start:none;marker-mid:none;marker-end:none;enable-background:accumulate"
         id="path3239"
         sodipodi:sides="5"
         sodipodi:cx="21.637474"
         sodipodi:cy="12.382892"
         sodipodi:r1="14.288825"
         sodipodi:r2="7.1444125"
         sodipodi:arg1="0.76604574"
         sodipodi:arg2="1.3943643"
         inkscape:flatsided="false"
         inkscape:rounded="0.25"
         inkscape:randomized="0.1"
         d="m 31.160812,22.085001 c -1.403899,1.870487 -5.612682,-2.255269 -7.867185,-2.031867 -2.254503,0.223401 -6.048252,5.421069 -8.321652,4.729852 -2.2734,-0.691217 0.27314,-6.135719 -0.65897,-8.250401 C 13.380895,14.417902 6.9803643,12.208497 6.9519812,9.7565543 6.9235982,7.3046114 14.655317,7.8280513 16.440248,6.299865 c 1.784931,-1.5281863 1.914335,-7.5067928 4.103242,-8.1371673 2.188908,-0.6303745 2.359983,7.733383 4.422278,8.8945746 2.062294,1.1611916 8.855476,-2.7601103 9.636323,-0.610773 0.780847,2.1493374 -5.859708,3.5197015 -6.463985,5.8897187 -0.604278,2.370017 4.426605,7.878296 3.022706,9.748783 z"
         transform="matrix(0.4040586,0.1597003,-0.1597003,0.4040586,302.40603,518.8671)" />
      <path
         transform="matrix(0.4344738,0,0,0.4344738,328.72436,551.50037)"
         d="m 31.160812,22.085001 c -1.403899,1.870487 -5.612682,-2.255269 -7.867185,-2.031867 -2.254503,0.223401 -6.048252,5.421069 -8.321652,4.729852 -2.2734,-0.691217 0.27314,-6.135719 -0.65897,-8.250401 C 13.380895,14.417902 6.9803643,12.208497 6.9519812,9.7565543 6.9235982,7.3046114 14.655317,7.8280513 16.440248,6.299865 c 1.784931,-1.5281863 1.914335,-7.5067928 4.103242,-8.1371673 2.188908,-0.6303745 2.359983,7.733383 4.422278,8.8945746 2.062294,1.1611916 8.855476,-2.7601103 9.636323,-0.610773 0.780847,2.1493374 -5.859708,3.5197015 -6.463985,5.8897187 -0.604278,2.370017 4.426605,7.878296 3.022706,9.748783 z"
         inkscape:randomized="0.1"
         inkscape:rounded="0.25"
         inkscape:flatsided="false"
         sodipodi:arg2="1.3943643"
         sodipodi:arg1="0.76604574"
         sodipodi:r2="7.1444125"
         sodipodi:r1="14.288825"
         sodipodi:cy="12.382892"
         sodipodi:cx="21.637474"
         sodipodi:sides="5"
         id="path3219"
         style="display:inline;overflow:visible;visibility:visible;opacity:1;fill:#fff49f;fill-opacity:1;fill-rule:nonzero;stroke:none;stroke-width:1.5;stroke-opacity:1;marker:none;marker-start:none;marker-mid:none;marker-end:none;enable-background:accumulate"
         sodipodi:type="star" />
    </g>
  </g>
</svg>
