<?xml version="1.0" encoding="UTF-8" standalone="no"?>
<svg
   xmlns:dc="http://purl.org/dc/elements/1.1/"
   xmlns:cc="http://creativecommons.org/ns#"
   xmlns:rdf="http://www.w3.org/1999/02/22-rdf-syntax-ns#"
   xmlns:svg="http://www.w3.org/2000/svg"
   xmlns="http://www.w3.org/2000/svg"
   xmlns:sodipodi="http://sodipodi.sourceforge.net/DTD/sodipodi-0.dtd"
   xmlns:inkscape="http://www.inkscape.org/namespaces/inkscape"
   id="svg2"
   sodipodi:version="0.32"
   inkscape:version="1.0.1 (c497b03c, 2020-09-10)"
   width="39.978378"
   height="149.91891"
   version="1.0"
   sodipodi:docname="practice_sharp.svg"
   inkscape:output_extension="org.inkscape.output.svg.inkscape">
  <metadata
     id="metadata7">
    <rdf:RDF>
      <cc:Work
         rdf:about="">
        <dc:format>image/svg+xml</dc:format>
        <dc:type
           rdf:resource="http://purl.org/dc/dcmitype/StillImage" />
      </cc:Work>
      <cc:Work
         rdf:about="">
        <dc:format>image/svg+xml</dc:format>
        <dc:type
           rdf:resource="http://purl.org/dc/dcmitype/StillImage" />
      </cc:Work>
    </rdf:RDF>
  </metadata>
  <defs
     id="defs5" />
  <sodipodi:namedview
     inkscape:window-height="801"
     inkscape:window-width="1439"
     inkscape:pageshadow="2"
     inkscape:pageopacity="0.0"
     guidetolerance="10.0"
     gridtolerance="10.0"
     objecttolerance="10.0"
     borderopacity="1.0"
     bordercolor="#666666"
     pagecolor="#ffffff"
     id="base"
     inkscape:zoom="6.1666667"
     inkscape:cx="20"
     inkscape:cy="62.3684"
     inkscape:window-x="0"
     inkscape:window-y="23"
     inkscape:current-layer="svg2"
     showgrid="false"
     width="50px"
     height="150px"
     inkscape:document-rotation="0"
     inkscape:window-maximized="0" />
  <path
     style="fill:#000000"
     d="m 9.5186641,131.30669 c 0,-18.12286 -0.11263,-18.59535 -4.283399,-17.96976 -3.859977,0.57901 -4.340788,-0.32256 -4.863941,-9.12042 -0.5259745,-8.845264 -0.123364,-9.95039 4.283399,-11.757851 4.541387,-1.862624 4.863941,-2.89827 4.863941,-15.617337 0,-13.505042 -0.040994,-13.611303 -4.759332,-12.333816 C 0.1666681,65.751012 0,65.44296 0,55.711236 0,46.666741 0.4910031,45.493368 4.7593321,44.337717 c 4.657967,-1.261166 4.759332,-1.703305 4.759332,-20.759477 0,-11.611466 0.7684419,-19.470874 1.9037309,-19.470874 1.129944,0 1.903735,7.610008 1.903735,18.722675 0,18.413905 0.07064,18.702265 4.283397,17.484366 2.355864,-0.681082 5.354257,-1.25096 6.663074,-1.266381 1.734915,-0.02043 2.379667,-5.314114 2.379667,-19.53803 C 26.652268,7.8724459 27.420444,0 28.556,0 c 1.125927,0 1.903732,7.43524 1.903732,18.19837 v 18.198369 l 4.759332,-0.981477 c 4.523672,-0.932863 4.759314,-0.509516 4.759314,8.55035 0,8.277627 -0.626237,9.78867 -4.759314,11.483863 -4.416433,1.811354 -4.759332,2.933498 -4.759332,15.574413 0,13.581037 0.01476,13.618413 4.860955,12.306308 4.801322,-1.299983 4.853871,-1.183 4.283398,9.532339 -0.503704,9.461315 -1.125294,10.932395 -4.860953,11.504745 -4.096253,0.6276 -4.2834,1.50251 -4.2834,20.02344 0,24.61331 -3.47453,25.65429 -4.211964,1.2619 l -0.547368,-18.10521 -6.187142,1.73447 -6.187128,1.73447 v 19.45126 c 0,11.59842 -0.768577,19.45131 -1.903735,19.45131 -1.129113,0 -1.9037309,-7.5732 -1.9037309,-18.61223 z M 23.640954,87.061824 c 3.87206,-1.602867 4.467888,-27.522155 0.631647,-27.476973 -9.569198,0.112795 -10.946471,2.077334 -10.946471,15.614139 0,13.755197 1.520159,15.503523 10.314824,11.862834 z"
     id="path2161"
     sodipodi:nodetypes="csssssssssssssscccssssssscccccsccssc" />
</svg>
