<?xml version="1.0" encoding="UTF-8" standalone="no"?>
<!-- Created with Sodipodi ("http://www.sodipodi.com/") -->

<svg
   xmlns:dc="http://purl.org/dc/elements/1.1/"
   xmlns:cc="http://creativecommons.org/ns#"
   xmlns:rdf="http://www.w3.org/1999/02/22-rdf-syntax-ns#"
   xmlns:svg="http://www.w3.org/2000/svg"
   xmlns="http://www.w3.org/2000/svg"
   xmlns:xlink="http://www.w3.org/1999/xlink"
   xmlns:sodipodi="http://sodipodi.sourceforge.net/DTD/sodipodi-0.dtd"
   xmlns:inkscape="http://www.inkscape.org/namespaces/inkscape"
   version="1.0"
   x="0"
   y="0"
   width="800.000000"
   height="600.000000"
   id="svg559"
   sodipodi:version="0.32"
   inkscape:version="0.48.4 r9939"
   sodipodi:docname="score_window.svg"
   inkscape:output_extension="org.inkscape.output.svg.inkscape">
  <metadata
     id="metadata35">
    <rdf:RDF>
      <cc:Work
         rdf:about="">
        <dc:format>image/svg+xml</dc:format>
        <dc:type
           rdf:resource="http://purl.org/dc/dcmitype/StillImage" />
      </cc:Work>
    </rdf:RDF>
  </metadata>
  <sodipodi:namedview
     inkscape:window-height="908"
     inkscape:window-width="1487"
     inkscape:pageshadow="2"
     inkscape:pageopacity="0"
     guidetolerance="10.0"
     gridtolerance="10.0"
     objecttolerance="10.0"
     borderopacity="1.0"
     bordercolor="#666666"
     pagecolor="#ffffff"
     id="base"
     inkscape:zoom="1.1826361"
     inkscape:cx="400.527"
     inkscape:cy="360.08523"
     inkscape:window-x="212"
     inkscape:window-y="75"
     inkscape:current-layer="svg559"
     showgrid="false"
     inkscape:window-maximized="0" />
  <defs
     id="defs561">
    <inkscape:perspective
       sodipodi:type="inkscape:persp3d"
       inkscape:vp_x="0 : 300 : 1"
       inkscape:vp_y="0 : 1000 : 0"
       inkscape:vp_z="800 : 300 : 1"
       inkscape:persp3d-origin="400 : 200 : 1"
       id="perspective2513" />
    <linearGradient
       id="linearGradient3751"
       inkscape:collect="always">
      <stop
         id="stop3753"
         offset="0"
         style="stop-color:black;stop-opacity:1;" />
      <stop
         id="stop3755"
         offset="1"
         style="stop-color:black;stop-opacity:0;" />
    </linearGradient>
    <linearGradient
       inkscape:collect="always"
       xlink:href="#linearGradient3751"
       id="linearGradient2391"
       gradientUnits="userSpaceOnUse"
       gradientTransform="matrix(0.755727,0,0,0.755727,-21.47999,-0.08973963)"
       x1="665.12128"
       y1="684.16162"
       x2="381.28015"
       y2="449.80624" />
  </defs>
  <rect
     style="fill:#ffffff;fill-opacity:0.74766355;stroke:#000000;stroke-width:1.37750208;stroke-miterlimit:4;stroke-opacity:1;stroke-dasharray:none"
     id="rect2383"
     width="665.36389"
     height="441.10852"
     x="67.317955"
     y="79.44574"
     rx="30.002518"
     ry="27.710554" />
  <g
     id="g2386"
     transform="translate(64.263217,-9.3473116)">
    <path
       style="opacity:0.22790701;fill:url(#linearGradient2391);fill-opacity:1;fill-rule:evenodd;stroke:none"
       d="m 277.79837,408.27854 -10.90046,0 2.92777,2.14176 7.79864,2.35593 5.03927,2.57011 -8.51485,-1.28506 -12.02188,-3.21262 -11.30847,-0.85671 -7.39064,-1.49923 -11.7508,-1.49923 -23.56727,-5.99692 -6.09509,-2.78428 6.54596,-6.85362 15.49739,1.92758 5.21059,1.49923 4.08621,1.7134 6.30058,1.49924 6.98261,0.64252 0.75036,-1.28506 -3.03039,-1.49922 -4.69979,-1.28506 -4.80242,-0.64252 -4.73402,-1.07088 2.86209,-0.8567 -6.19787,-2.14176 -3.06463,-1.28506 -6.3348,-1.28505 -6.2321,-1.92758 -8.0726,-0.64253 -6.47182,-0.42835 -3.7837,3.21264 -18.15982,4.49769 -0.41089,2.5701 -1.3297,1.49923 7.08245,3.42681 6.26633,1.71341 19.24134,5.78274 19.85476,5.35439 16.82438,3.85516 6.3976,7.71032 13.95662,11.56549 4.08342,5.14021 2.20869,6.63945 6.60596,2.99846 -0.956,2.57011 20.09448,3.85517 8.00134,4.49768 25.09671,10.06626 32.48734,11.56548 29.42272,10.28044 13.62266,3.4268 22.44298,6.2111 28.84617,7.0678 13.99652,4.49767 10.93189,3.21264 2.95905,5.35439 -10.80055,2.78428 3.47287,2.14178 32.22473,-0.42835 3.26731,3.42679 11.10299,2.14176 17.33796,0.64253 2.31986,-4.28352 -9.94159,-5.9969 -5.17348,-5.14023 1.56942,-2.99845 -5.44743,-3.42681 -9.77609,-0.21418 0.37666,-2.35594 -8.41502,1.49924 0.54782,-3.42681 -8.0726,-0.64253 -10.52372,-2.35593 -24.0096,-6.63945 -33.88839,-6.21109 -4.83672,-0.42835 0.75051,-1.28506 -9.22834,-3.64098 -3.84657,-3.21264 -2.75931,0.21418 -3.70956,-4.06934 -9.7049,-4.06934 -1.29267,-2.14176 -6.64012,-2.78428 -2.04031,-4.28351 -8.1382,-3.64098 -8.786,-2.99847 -4.35737,-3.4268 -2.27996,-2.78429 -4.08629,-1.7134 4.39448,-0.21418 0.27387,-1.7134 -6.4004,-4.28351 -0.47377,-3.85517 6.77993,-1.49923 11.64802,2.14175 20.40274,1.92759 18.6648,2.5701 13.14617,2.99847 11.37694,0.42835 45.98161,5.56856 22.51424,2.35594 23.33035,4.06934 2.24866,-0.42836 -3.0647,-1.28505 -13.24895,-2.35593 18.29109,1.49922 -0.91889,-1.07087 -6.33473,-1.28505 5.45015,0 -2.51959,-1.28506 -11.85358,-0.8567 5.58717,-0.8567 -3.5755,-1.49924 -3.2358,-0.21417 -7.66458,0.21417 -9.09412,-1.07087 -6.40335,-0.85671 1.43248,-2.14175 -1.9404,-1.49923 -3.64396,-1.07089 -4.97367,0.42836 -6.40615,2.5701 1.42961,1.28506 -5.38168,-0.42835 -23.97816,-3.42681 -6.16356,-2.35593 -13.86238,-1.92759 -23.46736,-3.21263 -1.26123,1.07088 -3.03047,-1.49923 -16.38204,-3.21264 -9.67338,-0.85669 -14.74703,-3.21265 -4.73395,-1.07087 11.68225,1.92758 -6.19779,-2.14176 8.00405,1.07088 -9.2968,-3.21263 14.27047,2.78428 -7.86712,-1.92758 10.69498,1.28505 -15.22352,-3.64098 6.43751,0.64253 -10.35255,-3.42682 6.87983,1.28506 -13.11194,-3.21264 6.98254,0.64253 -11.03459,-2.57011 6.02949,-0.21418 -11.17146,-1.7134 2.31698,-0.8567 -5.41591,-0.21418 0.9216,-2.35593 -5.48438,0.21417 -3.03047,-1.49922 -9.67058,-4.28352 3.88081,2.99846 -14.03075,-4.28351 8.71746,3.42681 -1.66933,0.21418 -5.45015,0 -14.16776,-3.42681 -5.99526,0 -12.70377,-2.35593 -0.20556,1.28504 -3.06742,2.14176 z"
       id="path2864"
       inkscape:connector-curvature="0" />
    <path
       id="path1939"
       d="m 562.76779,223.0222 -10.8932,0 -2.17861,5.44657 2.17861,5.99123 -1.08931,6.53589 -5.44652,-3.26795 -4.35722,-8.16985 -9.25925,-2.17864 -3.81256,-3.81259 -8.16987,-3.81261 -9.25916,-15.2504 0.54465,-7.08055 22.87563,-17.42903 10.89305,4.90191 1.63403,3.81261 0,4.35726 2.72326,3.81259 5.4466,1.63398 3.81257,-3.26795 0.54465,-3.8126 -1.63395,-3.26794 -3.26792,-1.63397 -2.17868,-2.72329 4.90194,-2.17862 -1.0893,-5.44658 0,-3.26795 -3.26792,-3.26794 -1.63403,-4.90191 -6.53583,-1.63397 -5.4466,-1.08932 -11.43785,8.16986 -28.86681,11.43781 -6.5359,6.53588 -4.90187,3.8126 -1.08939,8.71452 2.17869,4.35726 5.4466,14.70574 7.08048,13.61643 7.62521,9.80383 -11.98243,19.60767 -13.61646,29.41149 -8.16986,13.07177 -13.61639,16.88438 -0.54465,7.62521 -7.08056,6.53588 10.89313,9.80384 -2.72327,11.43779 1.08931,25.5989 4.90187,29.41149 4.90195,26.14356 5.44652,8.71451 7.62529,15.79506 11.98243,17.97369 3.26791,11.43777 3.26799,8.16987 -9.80389,13.61643 -17.42903,7.08055 -1.63396,5.44661 33.2241,-1.08931 -4.90187,8.71449 5.99118,5.44656 15.79507,1.634 12.52716,-10.89317 4.35729,-15.25037 7.08048,-13.07179 8.71452,-7.62519 2.72326,-8.71454 -9.25909,-0.54465 5.99118,-5.99124 -11.98243,3.81261 8.71451,-8.71452 -6.5359,-1.63397 -4.90195,-5.99123 -8.16986,-16.88438 -19.06299,-15.79506 -3.81257,-1.08931 3.81257,-3.26795 -0.54465,-9.25917 3.81264,-8.16986 -3.26799,0.54466 5.99125,-10.34849 0,-10.34849 3.81257,-5.44657 0,-7.08055 8.16986,-10.89315 0.54473,-9.25916 -1.63403,-7.62521 3.81264,-8.71452 4.35722,-7.08054 0,-4.35726 4.90195,-0.54465 4.35722,-4.35726 3.81264,-10.89314 8.71451,-9.80384 10.34848,-3.8126 6.53582,5.44657 15.79515,4.90192 12.52708,6.53588 5.99118,7.62521 10.34847,1.08931 32.67953,14.16109 16.8843,5.99124 13.61646,10.34848 3.26799,-1.08932 0,-3.26794 -7.62521,-5.99122 14.70569,3.81259 1.63404,-2.72329 -3.26799,-3.26793 5.4466,0 0.54465,-3.26795 -9.80382,-2.17863 7.62513,-2.17863 0,-3.8126 -2.72326,-0.54465 -8.16986,0.54465 -6.53583,-2.72329 -4.35729,-2.17862 6.5359,-5.44658 1.63396,-3.8126 -1.08931,-2.72329 -5.99117,1.08932 -12.52724,6.53588 -1.63388,3.26795 -4.35729,-1.08931 -15.79508,-8.71452 -0.54465,-5.99123 -9.25917,-4.90192 -15.79507,-8.16986 -3.81257,2.72329 0.54466,-3.8126 -8.71452,-8.16986 -7.62521,-2.17863 -7.08056,-8.16986 -2.1786,-2.72329 7.08055,4.90192 -1.0893,-5.44658 5.44652,2.72329 -1.63396,-8.16986 7.62521,7.08055 -3.26791,-4.90191 7.62513,3.26793 -6.53583,-9.25916 4.90188,1.63397 -2.17861,-8.71452 3.81256,3.26794 -5.44652,-8.16986 5.44652,1.63397 -4.90187,-6.53588 6.53583,-0.54466 -7.08048,-4.35726 4.35722,-2.17862 -4.90187,-0.54467 6.53583,-5.99122 -5.99118,0.54465 0.54465,-3.8126 0.54465,-10.89314 -3.26791,7.6252 -3.81264,-10.89315 0.54465,8.71452 -2.17861,0.54466 -5.4466,0 -5.99125,-8.71452 -5.99118,0 -7.08056,-5.99123 -3.26799,3.26794 -8.16978,5.44658 z"
       style="fill:#000000;fill-opacity:1;fill-rule:evenodd;stroke:#000000;stroke-width:0.5391832px;stroke-linecap:butt;stroke-linejoin:miter;stroke-opacity:1"
       inkscape:connector-curvature="0" />
    <path
       sodipodi:nodetypes="cccc"
       id="path3759"
       d="m 537.51011,167.72564 c -21.32518,-7.88231 -32.78336,21.65136 -25.75888,38.1759 2.53041,20.85981 2.98384,42.75852 -2.54173,63.05637 -10.4013,10.91035 -37.39557,17.90502 -37.00765,36.2146"
       style="fill:none;stroke:#ffffff;stroke-width:1.28473592;stroke-linecap:round;stroke-linejoin:round;stroke-miterlimit:4;stroke-opacity:1;stroke-dasharray:none"
       inkscape:connector-curvature="0" />
  </g>
</svg>
