<?xml version="1.0" encoding="UTF-8" standalone="no"?>
<svg
   xmlns:dc="http://purl.org/dc/elements/1.1/"
   xmlns:cc="http://creativecommons.org/ns#"
   xmlns:rdf="http://www.w3.org/1999/02/22-rdf-syntax-ns#"
   xmlns:svg="http://www.w3.org/2000/svg"
   xmlns="http://www.w3.org/2000/svg"
   xmlns:sodipodi="http://sodipodi.sourceforge.net/DTD/sodipodi-0.dtd"
   xmlns:inkscape="http://www.inkscape.org/namespaces/inkscape"
   width="1366.5676"
   height="768"
   id="svg2"
   sodipodi:version="0.32"
   inkscape:version="1.0.1 (c497b03c, 2020-09-10)"
   version="1.0"
   sodipodi:docname="sing_pause.svg"
   inkscape:output_extension="org.inkscape.output.svg.inkscape">
  <defs
     id="defs4">
    <inkscape:perspective
       sodipodi:type="inkscape:persp3d"
       inkscape:vp_x="0 : 894.18109 : 1"
       inkscape:vp_y="0 : 1000 : 0"
       inkscape:vp_z="744.09448 : 894.18109 : 1"
       inkscape:persp3d-origin="372.04724 : 718.78739 : 1"
       id="perspective10" />
    <inkscape:perspective
       id="perspective2963"
       inkscape:persp3d-origin="88 : 426.66667 : 1"
       inkscape:vp_z="176 : 456 : 1"
       inkscape:vp_y="0 : 1000 : 0"
       inkscape:vp_x="0 : 456 : 1"
       sodipodi:type="inkscape:persp3d" />
  </defs>
  <sodipodi:namedview
     id="base"
     pagecolor="#ffffff"
     bordercolor="#666666"
     borderopacity="1.0"
     inkscape:pageopacity="0.0"
     inkscape:pageshadow="2"
     inkscape:zoom="0.35"
     inkscape:cx="391.30477"
     inkscape:cy="256.80501"
     inkscape:document-units="px"
     inkscape:current-layer="layer1"
     showgrid="false"
     inkscape:window-width="1594"
     inkscape:window-height="737"
     inkscape:window-x="0"
     inkscape:window-y="23"
     inkscape:window-maximized="0"
     inkscape:document-rotation="0" />
  <metadata
     id="metadata7">
    <rdf:RDF>
      <cc:Work
         rdf:about="">
        <dc:format>image/svg+xml</dc:format>
        <dc:type
           rdf:resource="http://purl.org/dc/dcmitype/StillImage" />
        <dc:title></dc:title>
      </cc:Work>
    </rdf:RDF>
  </metadata>
  <g
     inkscape:label="Calque 1"
     inkscape:groupmode="layer"
     id="layer1"
     transform="translate(-10,70)">
    <rect
       style="fill:#ffffff;fill-opacity:0.650165;stroke:#000000;stroke-width:3.59694;stroke-miterlimit:4;stroke-dasharray:none;stroke-opacity:1"
       id="rect2383"
       width="1362.4031"
       height="764.40308"
       x="11.798466"
       y="-68.201538"
       rx="153.40102"
       ry="111.08516" />
    <text
       xml:space="preserve"
       style="font-style:normal;font-weight:normal;font-size:28.9211px;line-height:0%;font-family:Goblin;text-align:center;text-anchor:start;fill:#000000;fill-opacity:1;stroke:none;stroke-width:2.41009"
       x="186.93109"
       y="58.069408"
       id="text3179"
       transform="scale(1.0552317,0.94765918)"><tspan
         sodipodi:role="line"
         id="tspan3181"
         x="186.93109"
         y="58.069408"
         style="font-size:118.56px;line-height:1.25;font-family:Goblin;-inkscape-font-specification:Goblin;stroke-width:2.41009">QUIT NOW?</tspan></text>
    <text
       xml:space="preserve"
       style="font-style:normal;font-weight:normal;font-size:28.9211px;line-height:0%;font-family:Goblin;text-align:center;text-anchor:start;fill:#000000;fill-opacity:1;stroke:none;stroke-width:2.41009"
       x="143.73726"
       y="650.19226"
       id="text2817"
       transform="scale(1.1344446,0.88148863)"><tspan
         sodipodi:role="line"
         x="143.73726"
         y="650.19226"
         id="tspan2823"
         style="font-size:67.4825px;line-height:1.25;font-family:Goblin;-inkscape-font-specification:Goblin;stroke-width:2.41009">Enter/Start to quit</tspan><tspan
         sodipodi:role="line"
         x="143.73726"
         y="734.54541"
         id="tspan2821"
         style="font-size:67.4825px;line-height:1.25;stroke-width:2.41009"> </tspan></text>
    <g
       id="g2966"
       transform="matrix(2.7341123,0,0,2.1244661,453.78361,103.54418)">
      <path
         id="path2955"
         d="M 0,87.7 C 0,39.2 39.2,0 87.7,0 v 0 15 15 c -16,0 -30.3,6.4 -40.8,16.9 v 0 C 36.4,57.4 30,71.7 30,87.7 v 0 c 0,16 6.4,30.3 16.9,40.8 v 0 c 10.5,10.5 24.8,16.9 40.8,16.9 v 0 c 16,0 30.3,-6.4 40.8,-16.9 v 0 C 139,118 145.4,103.7 145.4,87.7 v 0 c 0,-16 -6.4,-30.3 -16.9,-40.8 v 0 C 118,36.4 103.6,30 87.7,30 V 30 15 0 c 48.4,0 87.7,39.2 87.7,87.7 v 0 c 0,48.4 -39.2,87.7 -87.7,87.7 v 0 C 39.2,175.3 0,136.1 0,87.7 Z" />
      <path
         id="path2957"
         d="m 72.7,115.4 v -55 c 0,-8.3 6.7,-15 15,-15 v 0 c 8.3,0 15,6.7 15,15 v 0 55 c 0,8.3 -6.7,15 -15,15 v 0 c -8.3,0 -15,-6.8 -15,-15 z" />
    </g>
  </g>
</svg>
