<?xml version="1.0" encoding="UTF-8" standalone="no"?>
<svg
   xmlns:dc="http://purl.org/dc/elements/1.1/"
   xmlns:cc="http://creativecommons.org/ns#"
   xmlns:rdf="http://www.w3.org/1999/02/22-rdf-syntax-ns#"
   xmlns:svg="http://www.w3.org/2000/svg"
   xmlns="http://www.w3.org/2000/svg"
   xmlns:xlink="http://www.w3.org/1999/xlink"
   xmlns:sodipodi="http://sodipodi.sourceforge.net/DTD/sodipodi-0.dtd"
   xmlns:inkscape="http://www.inkscape.org/namespaces/inkscape"
   version="1.0"
   width="1366"
   height="314"
   id="svg3465"
   sodipodi:version="0.32"
   inkscape:version="1.0.1 (c497b03c, 2020-09-10)"
   sodipodi:docname="sing_bg_bottom.svg"
   inkscape:output_extension="org.inkscape.output.svg.inkscape"
   viewBox="0 0 1366 314">
  <metadata
     id="metadata30">
    <rdf:RDF>
      <cc:Work
         rdf:about="">
        <dc:format>image/svg+xml</dc:format>
        <dc:type
           rdf:resource="http://purl.org/dc/dcmitype/StillImage" />
        <dc:title></dc:title>
      </cc:Work>
    </rdf:RDF>
  </metadata>
  <sodipodi:namedview
     inkscape:cy="115"
     inkscape:cx="620.49627"
     inkscape:zoom="0.85899999"
     inkscape:window-height="943"
     inkscape:window-width="1920"
     inkscape:pageshadow="2"
     inkscape:pageopacity="0.0"
     guidetolerance="10.0"
     gridtolerance="10.0"
     objecttolerance="10.0"
     borderopacity="1.0"
     bordercolor="#666666"
     pagecolor="#ffffff"
     id="base"
     inkscape:window-x="0"
     inkscape:window-y="23"
     inkscape:current-layer="svg3465"
     showgrid="false"
     inkscape:document-rotation="0"
     inkscape:window-maximized="1">
    <inkscape:grid
       type="xygrid"
       id="grid2419"
       visible="true"
       enabled="true" />
  </sodipodi:namedview>
  <defs
     id="defs3467">
    <linearGradient
       id="linearGradient6239">
      <stop
         style="stop-color:#414141;stop-opacity:1;"
         offset="0"
         id="stop6241" />
      <stop
         style="stop-color:#151515;stop-opacity:1;"
         offset="1"
         id="stop6243" />
    </linearGradient>
    <inkscape:perspective
       sodipodi:type="inkscape:persp3d"
       inkscape:vp_x="0 : 484 : 1"
       inkscape:vp_y="0 : 1000 : 0"
       inkscape:vp_z="1000 : 484 : 1"
       inkscape:persp3d-origin="500 : 350.66667 : 1"
       id="perspective57" />
    <linearGradient
       id="linearGradient3667">
      <stop
         style="stop-color:#000000;stop-opacity:1;"
         offset="0"
         id="stop3669" />
      <stop
         style="stop-color:#000000;stop-opacity:0;"
         offset="1"
         id="stop3671" />
    </linearGradient>
    <linearGradient
       inkscape:collect="always"
       xlink:href="#linearGradient3667"
       id="linearGradient2549"
       gradientUnits="userSpaceOnUse"
       gradientTransform="matrix(1.2504205,0,0,1.1424679,-0.03623464,-3.1313995)"
       x1="365.07416"
       y1="121.63737"
       x2="365.07416"
       y2="151.1951" />
    <linearGradient
       inkscape:collect="always"
       xlink:href="#linearGradient3667"
       id="linearGradient5768"
       x1="551.00964"
       y1="660.33606"
       x2="551.00964"
       y2="605.34015"
       gradientUnits="userSpaceOnUse"
       gradientTransform="matrix(1.0140491,0,0,0.8428048,-5.1350533,117.20059)" />
    <linearGradient
       inkscape:collect="always"
       xlink:href="#linearGradient3667"
       id="linearGradient3212"
       gradientUnits="userSpaceOnUse"
       gradientTransform="matrix(1.7075,0,0,2.0768936,-1.3012695e-6,-314.00001)"
       x1="367.8764"
       y1="131.46725"
       x2="367.8764"
       y2="151.18733" />
    <radialGradient
       inkscape:collect="always"
       xlink:href="#linearGradient6239"
       id="radialGradient6281"
       cx="-52.682827"
       cy="22.638672"
       fx="-52.682827"
       fy="22.638672"
       r="139.13554"
       gradientTransform="matrix(0.5485002,0.04758875,-0.03800873,0.486111,-22.925821,11.758401)"
       gradientUnits="userSpaceOnUse"
       spreadMethod="reflect" />
    <radialGradient
       inkscape:collect="always"
       xlink:href="#linearGradient6239"
       id="radialGradient6283"
       cx="54.552696"
       cy="61.81908"
       fx="54.552696"
       fy="61.81908"
       r="85.972984"
       gradientTransform="matrix(0.8491493,-0.5169578,0.3359319,0.5286533,-12.537687,75.354409)"
       gradientUnits="userSpaceOnUse"
       spreadMethod="reflect" />
    <radialGradient
       inkscape:collect="always"
       xlink:href="#linearGradient6239"
       id="radialGradient6285"
       cx="-108.65945"
       cy="46.669819"
       fx="-108.65945"
       fy="46.669819"
       r="85.972984"
       gradientTransform="matrix(1,0,0,1.2958795,0,-0.2762501)"
       gradientUnits="userSpaceOnUse"
       spreadMethod="reflect" />
    <radialGradient
       inkscape:collect="always"
       xlink:href="#linearGradient6239"
       id="radialGradient6287"
       cx="-0.00043312719"
       cy="0.93365741"
       fx="-0.00043312719"
       fy="0.93365741"
       r="85.972984"
       gradientTransform="matrix(0.7054225,-0.6154847,1,0.8642415,-0.933785,0.1264853)"
       gradientUnits="userSpaceOnUse"
       spreadMethod="reflect" />
    <radialGradient
       inkscape:collect="always"
       xlink:href="#linearGradient6239"
       id="radialGradient6289"
       cx="-55.975525"
       cy="110.75415"
       fx="-55.975525"
       fy="110.75415"
       r="139.13554"
       gradientTransform="matrix(0.4023117,1.7847586e-8,-2.8882931e-8,0.8902338,-33.455913,0.1024879)"
       gradientUnits="userSpaceOnUse"
       spreadMethod="reflect" />
    <radialGradient
       inkscape:collect="always"
       xlink:href="#linearGradient6239"
       id="radialGradient6291"
       cx="-84.775795"
       cy="102.82321"
       fx="-84.775795"
       fy="102.82321"
       r="139.13554"
       gradientTransform="matrix(0.609306,0,-1.7525848e-8,0.8902338,-33.121388,0.102488)"
       gradientUnits="userSpaceOnUse"
       spreadMethod="reflect" />
    <radialGradient
       inkscape:collect="always"
       xlink:href="#linearGradient6239"
       id="radialGradient6293"
       cx="121.82938"
       cy="29.891867"
       fx="121.82938"
       fy="29.891867"
       r="85.972984"
       gradientTransform="matrix(1,0,0,1.2958795,0,-0.2762501)"
       gradientUnits="userSpaceOnUse"
       spreadMethod="reflect" />
    <radialGradient
       inkscape:collect="always"
       xlink:href="#linearGradient6239"
       id="radialGradient6295"
       cx="-54.119453"
       cy="-33.586506"
       fx="-54.119453"
       fy="-33.586506"
       r="85.972984"
       gradientTransform="matrix(1,0,0,1.2958795,0,-0.2762501)"
       gradientUnits="userSpaceOnUse"
       spreadMethod="reflect" />
    <radialGradient
       inkscape:collect="always"
       xlink:href="#linearGradient6239"
       id="radialGradient6297"
       cx="73.08477"
       cy="-64.148376"
       fx="73.08477"
       fy="-64.148376"
       r="139.13554"
       gradientTransform="matrix(1.2783381,0.4169453,-0.272318,0.846931,-30.398528,-33.221331)"
       gradientUnits="userSpaceOnUse"
       spreadMethod="reflect" />
    <filter
       inkscape:collect="always"
       id="filter6415">
      <feGaussianBlur
         inkscape:collect="always"
         stdDeviation="5.5378501"
         id="feGaussianBlur6417" />
    </filter>
    <filter
       inkscape:collect="always"
       id="filter6435">
      <feGaussianBlur
         inkscape:collect="always"
         stdDeviation="5.8924159"
         id="feGaussianBlur6437" />
    </filter>
    <filter
       inkscape:collect="always"
       id="filter6439">
      <feGaussianBlur
         inkscape:collect="always"
         stdDeviation="6.8900544"
         id="feGaussianBlur6441" />
    </filter>
    <radialGradient
       inkscape:collect="always"
       xlink:href="#linearGradient6239"
       id="radialGradient6443"
       gradientUnits="userSpaceOnUse"
       gradientTransform="matrix(1,0,0,0.8902338,0,0.1024869)"
       spreadMethod="reflect"
       cx="0.00033175375"
       cy="0.93368369"
       fx="0.00033175375"
       fy="0.93368369"
       r="139.13554" />
    <radialGradient
       inkscape:collect="always"
       xlink:href="#linearGradient6239"
       id="radialGradient6445"
       gradientUnits="userSpaceOnUse"
       gradientTransform="matrix(1,0,0,0.8902338,0,0.1024869)"
       spreadMethod="reflect"
       cx="0.00033175375"
       cy="0.93368369"
       fx="0.00033175375"
       fy="0.93368369"
       r="139.13554" />
    <radialGradient
       inkscape:collect="always"
       xlink:href="#linearGradient6239"
       id="radialGradient6447"
       gradientUnits="userSpaceOnUse"
       gradientTransform="matrix(1,0,0,1.2958795,0,-0.2762501)"
       spreadMethod="reflect"
       cx="-0.00043312719"
       cy="0.93365741"
       fx="-0.00043312719"
       fy="0.93365741"
       r="85.972984" />
    <radialGradient
       inkscape:collect="always"
       xlink:href="#linearGradient6239"
       id="radialGradient6449"
       gradientUnits="userSpaceOnUse"
       gradientTransform="matrix(1,0,0,1.2958795,0,-0.2762501)"
       spreadMethod="reflect"
       cx="-0.00043312719"
       cy="0.93365741"
       fx="-0.00043312719"
       fy="0.93365741"
       r="85.972984" />
    <radialGradient
       inkscape:collect="always"
       xlink:href="#linearGradient6239"
       id="radialGradient6451"
       gradientUnits="userSpaceOnUse"
       gradientTransform="matrix(1,0,0,1.2958795,0,-0.2762501)"
       spreadMethod="reflect"
       cx="-0.00043312719"
       cy="0.93365741"
       fx="-0.00043312719"
       fy="0.93365741"
       r="85.972984" />
    <radialGradient
       inkscape:collect="always"
       xlink:href="#linearGradient6239"
       id="radialGradient6453"
       gradientUnits="userSpaceOnUse"
       gradientTransform="matrix(1,0,0,1.2958795,0,-0.2762501)"
       spreadMethod="reflect"
       cx="-0.00043312719"
       cy="0.93365741"
       fx="-0.00043312719"
       fy="0.93365741"
       r="85.972984" />
    <radialGradient
       inkscape:collect="always"
       xlink:href="#linearGradient6239"
       id="radialGradient6455"
       gradientUnits="userSpaceOnUse"
       gradientTransform="matrix(1,0,0,1.2958795,0,-0.2762501)"
       spreadMethod="reflect"
       cx="-0.00043312719"
       cy="0.93365741"
       fx="-0.00043312719"
       fy="0.93365741"
       r="85.972984" />
    <radialGradient
       inkscape:collect="always"
       xlink:href="#linearGradient6239"
       id="radialGradient6457"
       gradientUnits="userSpaceOnUse"
       gradientTransform="matrix(1,0,0,1.2958795,0,-0.2762501)"
       spreadMethod="reflect"
       cx="-0.00043312719"
       cy="0.93365741"
       fx="-0.00043312719"
       fy="0.93365741"
       r="85.972984" />
    <radialGradient
       inkscape:collect="always"
       xlink:href="#linearGradient6239"
       id="radialGradient6459"
       gradientUnits="userSpaceOnUse"
       gradientTransform="matrix(1,0,0,0.8902338,0,0.1024869)"
       spreadMethod="reflect"
       cx="0.00033175375"
       cy="0.93368369"
       fx="0.00033175375"
       fy="0.93368369"
       r="139.13554" />
    <radialGradient
       inkscape:collect="always"
       xlink:href="#linearGradient6239"
       id="radialGradient6461"
       gradientUnits="userSpaceOnUse"
       gradientTransform="matrix(1,0,0,0.8902338,0,0.1024869)"
       spreadMethod="reflect"
       cx="0.00033175375"
       cy="0.93368369"
       fx="0.00033175375"
       fy="0.93368369"
       r="139.13554" />
    <radialGradient
       inkscape:collect="always"
       xlink:href="#linearGradient6239"
       id="radialGradient6463"
       gradientUnits="userSpaceOnUse"
       gradientTransform="matrix(1,0,0,0.8902338,0,0.1024869)"
       spreadMethod="reflect"
       cx="0.00033175375"
       cy="0.93368369"
       fx="0.00033175375"
       fy="0.93368369"
       r="139.13554" />
    <radialGradient
       inkscape:collect="always"
       xlink:href="#linearGradient6239"
       id="radialGradient6465"
       gradientUnits="userSpaceOnUse"
       gradientTransform="matrix(1,0,0,0.8902338,0,0.1024869)"
       spreadMethod="reflect"
       cx="0.00033175375"
       cy="0.93368369"
       fx="0.00033175375"
       fy="0.93368369"
       r="139.13554" />
    <radialGradient
       inkscape:collect="always"
       xlink:href="#linearGradient6239"
       id="radialGradient6467"
       gradientUnits="userSpaceOnUse"
       gradientTransform="matrix(1,0,0,1.2958795,0,-0.2762501)"
       spreadMethod="reflect"
       cx="-0.00043312719"
       cy="0.93365741"
       fx="-0.00043312719"
       fy="0.93365741"
       r="85.972984" />
    <radialGradient
       inkscape:collect="always"
       xlink:href="#linearGradient6239"
       id="radialGradient6469"
       gradientUnits="userSpaceOnUse"
       gradientTransform="matrix(1,0,0,1.2958795,0,-0.2762501)"
       spreadMethod="reflect"
       cx="-0.00043312719"
       cy="0.93365741"
       fx="-0.00043312719"
       fy="0.93365741"
       r="85.972984" />
    <radialGradient
       inkscape:collect="always"
       xlink:href="#linearGradient6239"
       id="radialGradient6471"
       gradientUnits="userSpaceOnUse"
       gradientTransform="matrix(1,0,0,1.2958795,0,-0.2762501)"
       spreadMethod="reflect"
       cx="-0.00043312719"
       cy="0.93365741"
       fx="-0.00043312719"
       fy="0.93365741"
       r="85.972984" />
    <radialGradient
       inkscape:collect="always"
       xlink:href="#linearGradient6239"
       id="radialGradient6473"
       gradientUnits="userSpaceOnUse"
       gradientTransform="matrix(1,0,0,1.2958795,0,-0.2762501)"
       spreadMethod="reflect"
       cx="-0.00043312719"
       cy="0.93365741"
       fx="-0.00043312719"
       fy="0.93365741"
       r="85.972984" />
    <radialGradient
       inkscape:collect="always"
       xlink:href="#linearGradient6239"
       id="radialGradient6475"
       gradientUnits="userSpaceOnUse"
       gradientTransform="matrix(1,0,0,0.8902338,0,0.1024869)"
       spreadMethod="reflect"
       cx="0.00033175375"
       cy="0.93368369"
       fx="0.00033175375"
       fy="0.93368369"
       r="139.13554" />
    <radialGradient
       inkscape:collect="always"
       xlink:href="#linearGradient6239"
       id="radialGradient6477"
       gradientUnits="userSpaceOnUse"
       gradientTransform="matrix(1,0,0,0.8902338,0,0.1024869)"
       spreadMethod="reflect"
       cx="0.00033175375"
       cy="0.93368369"
       fx="0.00033175375"
       fy="0.93368369"
       r="139.13554" />
    <filter
       inkscape:collect="always"
       id="filter6529">
      <feGaussianBlur
         inkscape:collect="always"
         stdDeviation="4.8307749"
         id="feGaussianBlur6531" />
    </filter>
    <filter
       inkscape:collect="always"
       id="filter6557">
      <feGaussianBlur
         inkscape:collect="always"
         stdDeviation="6.374635"
         id="feGaussianBlur6559" />
    </filter>
    <filter
       inkscape:collect="always"
       id="filter6593">
      <feGaussianBlur
         inkscape:collect="always"
         stdDeviation="3.9535839"
         id="feGaussianBlur6595" />
    </filter>
    <filter
       inkscape:collect="always"
       id="filter6609">
      <feGaussianBlur
         inkscape:collect="always"
         stdDeviation="3.7116756"
         id="feGaussianBlur6611" />
    </filter>
    <filter
       inkscape:collect="always"
       id="filter6693">
      <feGaussianBlur
         inkscape:collect="always"
         stdDeviation="4.3837536"
         id="feGaussianBlur6695" />
    </filter>
    <filter
       inkscape:collect="always"
       id="filter6781">
      <feGaussianBlur
         inkscape:collect="always"
         stdDeviation="5.8770044"
         id="feGaussianBlur6783" />
    </filter>
  </defs>
  <rect
     id="rect3210"
     style="fill:url(#linearGradient3212);fill-opacity:1;fill-rule:nonzero;stroke:none;stroke-width:23.2115;stroke-linecap:butt;stroke-linejoin:round;stroke-miterlimit:4;stroke-dasharray:none;stroke-opacity:1"
     y="-314"
     x="0"
     height="314"
     width="1366"
     transform="scale(1,-1)" />
  <g
     id="g318"
     transform="matrix(1.3365876,0,0,1.0870966,60.664278,57.264077)">
    <g
       id="layer1"
       inkscape:label="Layer 1"
       transform="matrix(0.8066215,0,0,0.8008797,451.66415,145.2047)"
       style="fill:url(#radialGradient6297);fill-opacity:1;filter:url(#filter6439)">
      <g
         inkscape:export-ydpi="90"
         inkscape:export-xdpi="90"
         inkscape:export-filename="H:\new\rect2273.png"
         style="fill:url(#radialGradient6477);fill-opacity:1"
         transform="matrix(0.7844778,0,0,0.7844778,-1023.124,-443.46103)"
         id="yleiso1">
        <path
           sodipodi:nodetypes="ccccccccccccccccccccccccccccccccccccsscccccccccccccccccccccccccc"
           id="path2504"
           d="m 1181.224,723.79257 c 17.8661,-5.1827 3.8156,-26.068 6.1451,-38.9613 -2.6811,-18.56792 -15.9987,-33.39896 -20.3878,-51.57126 -6.8606,-15.87369 -8.1323,-33.33072 -13.6211,-49.48749 -4.5966,-12.71726 -9.3908,-25.46798 -16.5487,-36.62423 -8.2626,-12.91413 -13.2192,-27.92799 -7.4933,-43.22144 2.7035,-18.14405 7.7047,-35.78277 10.4398,-53.93215 7.4171,-11.14202 -5.8674,-36.22176 5.2186,-41.10752 -2.3197,22.42403 5.0015,2.60799 11.9276,11.6082 7.0053,-5.59071 5.4872,1.85751 8.2299,3.91882 5.932,-16.05448 9.7357,-3.85379 2.8631,5.00313 -9.8818,12.56195 -16.6266,32.14007 -15.296,48.89211 -1.4747,7.65925 1.4117,26.30935 3.6016,7.87451 2.6364,-8.08828 3.9759,7.07011 6.1598,7.5432 -13.0443,13.63184 20.3862,-2.18868 6.6467,10.94557 -3.039,8.74305 -19.6494,14.16534 -10.5833,23.66988 9.7308,11.67224 15.9374,26.7058 28.0739,36.1503 4.168,-0.62987 17.2037,-10.21636 14.9916,-15.40038 -3.7473,-12.40615 -10.4687,-27.14869 3.4638,-38.99508 11.3759,-6.02073 27.7425,-16.02154 38.4941,-5.54071 3.1119,16.39526 10.7156,33.21291 6.8445,50.16753 -1.9278,7.23379 -10.0675,25.98563 4.5899,18.54624 16.5134,-6.70982 20.1994,-21.1921 21.762,-37.42171 2.7436,-15.10347 11.0587,-31.98909 2.3918,-46.56641 -5.3185,-7.59752 -4.9737,-18.57102 2.3855,-6.93359 4.5245,-4.57537 5.5908,-33.1298 8.0527,-13.59432 1.503,4.2079 6.7245,-11.21855 7.2771,2.5917 12.0837,11.81526 0.4373,26.77552 1.5752,40.85819 -0.014,7.78552 -4.7837,31.21381 7.5539,16.0691 11.9958,-9.6748 14.597,-25.80379 23.3684,-37.95453 8.3733,-15.34917 16.6062,-32.68858 15.9268,-50.43155 1.9069,-10.49015 -7.0382,-31.20329 6.6909,-20.54154 -0.2582,-10.75897 20.2058,-15.99327 6.9602,-3.43085 -6.5561,15.27727 21.0159,-20.22468 11.6813,1.41398 -6.6548,5.39657 -5.312,15.53618 5.7754,2.9525 6.4909,1.94151 -10.0792,20.7174 -11.8877,28.74115 -11.2917,20.12314 -14.4477,43.50898 -22.3348,64.94192 -5.8098,15.78781 -13.6934,29.6345 -22.3551,43.97912 -9.5882,15.87913 -19.7814,31.59179 -31.1869,46.15679 -8.9458,10.99517 14.8617,1.14758 21.0201,6.78637 12.518,-7.87375 29.385,-1.07316 31.7442,13.9051 8.5354,6.87189 -2.959,27.20699 4.826,28.253 6.9599,-8.35669 30.6898,-10.22278 16.3911,-23.6599 -4.8799,-13.60995 -13.4899,-32.95924 2.9589,-42.5777 18.9802,-11.06226 29.1286,12.4481 34.5443,24.513 -1.1144,6.3124 -10.9945,24.16482 1.2989,23.0916 11.9703,5.11124 17.1415,-2.56675 9.7766,-12.99185 -5.6125,-7.61373 -1.994,-15.69956 2.4401,-3.88548 5.3211,8.43408 -3.2996,-25.65986 4.9774,-6.97215 1.2142,-0.66102 4.7324,-10.09149 5.0899,1.39026 1.3293,10.43455 4.5795,7.41882 7.2281,0.22402 3.133,9.794 -0.6183,21.94637 3.857,31.04505 15.1548,17.0439 34.661,30.4834 46.3055,50.3897 2.0219,10.6027 -2.3476,23.8758 -9.9945,30.7373 -96.6193,-0.1457 -193.2469,0.4071 -289.8601,-0.5562 z m 273.9725,-30.6938 c -5.4576,-7.6635 -15.9194,-5.3671 -3.5491,0.3557 0.497,0.7237 3.5906,1.4873 3.5491,-0.3557 z m -137.0451,-21.3848 c 8.1886,-16.11829 -15.8898,-22.27477 -13.8783,-38.63465 -0.2795,-7.03902 -1.2234,-20.4328 -8.3873,-7.61676 -8.7788,6.78734 8.6785,17.01782 2.351,27.10748 1.7752,8.92004 -7.3166,21.13593 7.9872,20.12463 3.789,1.2155 9.1084,3.1197 11.9274,-0.9807 z"
           style="fill:url(#radialGradient6475);fill-opacity:1" />
      </g>
    </g>
    <g
       id="g2670"
       inkscape:label="Layer 1"
       transform="matrix(1,0,0,0.8832743,320.27471,120.95505)"
       style="fill:url(#radialGradient6295);fill-opacity:1;filter:url(#filter6435)">
      <g
         inkscape:export-ydpi="90"
         inkscape:export-xdpi="90"
         inkscape:export-filename="H:\new\rect2273.png"
         style="fill:url(#radialGradient6473);fill-opacity:1"
         transform="matrix(0.6938009,0,0,0.6938009,-870.0051,-393.95863)"
         id="yleiso2">
        <path
           sodipodi:nodetypes="cccccccccccccccccccccccccccssccc"
           id="path2270"
           d="m 1326.7136,723.79257 c -17.8661,-5.1827 -3.8156,-26.068 -6.1451,-38.9613 2.6811,-18.56792 15.9987,-33.39896 20.3878,-51.57126 6.8606,-15.87369 6.0596,-29.18523 11.5484,-45.342 8.742,-12.02634 14.9181,-19.24974 18.6214,-31.78782 5.4989,-17.05962 9.7646,-28.6189 4.0387,-43.91235 -2.7035,-18.14405 -7.7047,-35.78277 -10.4398,-53.93215 -7.4171,-11.14202 5.8674,-36.22176 -5.2186,-41.10752 2.3197,22.42403 -5.0015,2.60799 -11.9276,11.6082 -7.0053,-5.59071 -5.4872,1.85751 -8.2299,3.91882 -5.932,-16.05448 -9.7357,-3.85379 -2.8631,5.00313 9.8818,12.56195 16.6266,32.14007 15.296,48.89211 3.6034,32.14781 4.038,28.50478 -5.8248,50.03316 -9.7308,11.67224 -15.2465,26.01488 -27.383,35.45938 -4.168,-0.62987 -35.1675,23.6385 -12.2279,-23.00045 3.7473,-12.40615 10.4687,-27.14869 -3.4638,-38.99508 -11.3759,-6.02073 -27.7425,-16.02154 -38.4941,-5.54071 -3.1119,16.39526 -10.7156,33.21291 -6.8445,50.16753 1.9278,7.23379 10.0675,25.98563 -4.5899,18.54624 -22.93,-21.01361 -16.6495,-14.53032 -50.9982,-44.99704 -11.9958,-9.6748 -14.597,-25.80379 -23.3684,-37.95453 -8.3733,-15.34917 -16.6062,-32.68858 -15.9268,-50.43155 -1.9069,-10.49015 7.0382,-31.20329 -6.6909,-20.54154 0.2582,-10.75897 -20.2058,-15.99327 -6.9602,-3.43085 6.5561,15.27727 -21.0159,-20.22468 -11.6813,1.41398 6.6548,5.39657 5.312,15.53618 -5.7754,2.9525 -6.4909,1.94151 10.0792,20.7174 11.8877,28.74115 11.2917,20.12314 14.4477,43.50898 22.3348,64.94192 5.8098,15.78781 13.6934,29.6345 22.3551,43.97912 9.5882,15.87913 19.7814,31.59179 31.1869,46.15679 11.6035,54.34138 -4.3092,81.97365 -15.4445,111.81778 32.5872,16.89142 6.6287,16.78124 122.841,7.87434 z"
           style="fill:url(#radialGradient6471);fill-opacity:1" />
      </g>
    </g>
    <g
       id="g2674"
       inkscape:label="Layer 1"
       transform="matrix(-1,0,0,0.8711992,487.08999,112.44614)"
       style="fill:url(#radialGradient6293);fill-opacity:1;filter:url(#filter6593)">
      <g
         inkscape:export-ydpi="90"
         inkscape:export-xdpi="90"
         inkscape:export-filename="H:\new\rect2273.png"
         style="fill:url(#radialGradient6469);fill-opacity:1"
         transform="matrix(0.6938009,0,0,0.6938009,-870.0051,-393.95863)"
         id="g2676">
        <path
           sodipodi:nodetypes="cccccccccccccccccccccccccccssccc"
           id="path2678"
           d="m 1326.7136,723.79257 c -17.8661,-5.1827 -3.8156,-26.068 -6.1451,-38.9613 2.6811,-18.56792 15.9987,-33.39896 20.3878,-51.57126 6.8606,-15.87369 6.0596,-29.18523 11.5484,-45.342 8.742,-12.02634 14.9181,-19.24974 18.6214,-31.78782 5.4989,-17.05962 9.7646,-28.6189 4.0387,-43.91235 -2.7035,-18.14405 -7.7047,-35.78277 -10.4398,-53.93215 -7.4171,-11.14202 5.8674,-36.22176 -5.2186,-41.10752 2.3197,22.42403 -5.0015,2.60799 -11.9276,11.6082 -7.0053,-5.59071 -5.4872,1.85751 -8.2299,3.91882 -5.932,-16.05448 -9.7357,-3.85379 -2.8631,5.00313 9.8818,12.56195 16.6266,32.14007 15.296,48.89211 3.6034,32.14781 4.038,28.50478 -5.8248,50.03316 -9.7308,11.67224 -15.2465,26.01488 -27.383,35.45938 -4.168,-0.62987 -35.1675,23.6385 -12.2279,-23.00045 3.7473,-12.40615 10.4687,-27.14869 -3.4638,-38.99508 -11.3759,-6.02073 -27.7425,-16.02154 -38.4941,-5.54071 -3.1119,16.39526 -10.7156,33.21291 -6.8445,50.16753 1.9278,7.23379 10.0675,25.98563 -4.5899,18.54624 -22.93,-21.01361 -16.6495,-14.53032 -50.9982,-44.99704 -11.9958,-9.6748 -14.597,-25.80379 -23.3684,-37.95453 -8.3733,-15.34917 -16.6062,-32.68858 -15.9268,-50.43155 -1.9069,-10.49015 7.0382,-31.20329 -6.6909,-20.54154 0.2582,-10.75897 -20.2058,-15.99327 -6.9602,-3.43085 6.5561,15.27727 -21.0159,-20.22468 -11.6813,1.41398 6.6548,5.39657 5.312,15.53618 -5.7754,2.9525 -6.4909,1.94151 10.0792,20.7174 11.8877,28.74115 11.2917,20.12314 14.4477,43.50898 22.3348,64.94192 5.8098,15.78781 13.6934,29.6345 22.3551,43.97912 9.5882,15.87913 19.7814,31.59179 31.1869,46.15679 11.6035,54.34138 -4.3092,81.97365 -15.4445,111.81778 32.5872,16.89142 6.6287,16.78124 122.841,7.87434 z"
           style="fill:url(#radialGradient6467);fill-opacity:1" />
      </g>
    </g>
    <g
       id="g2680"
       inkscape:label="Layer 1"
       transform="matrix(0.8624259,0,0,0.8624259,266.15497,141.15386)"
       style="fill:url(#radialGradient6291);fill-opacity:1;filter:url(#filter6609)">
      <g
         inkscape:export-ydpi="90"
         inkscape:export-xdpi="90"
         inkscape:export-filename="H:\new\rect2273.png"
         style="fill:url(#radialGradient6465);fill-opacity:1"
         transform="matrix(0.7844778,0,0,0.7844778,-1023.124,-443.46103)"
         id="g2682">
        <path
           sodipodi:nodetypes="ccccccccccccccccccccccccccccccccccccsscccccccccccccccccccccccccc"
           id="path2684"
           d="m 1181.224,723.79257 c 17.8661,-5.1827 3.8156,-26.068 6.1451,-38.9613 -2.6811,-18.56792 -15.9987,-33.39896 -20.3878,-51.57126 -6.8606,-15.87369 -8.1323,-33.33072 -13.6211,-49.48749 -4.5966,-12.71726 -9.3908,-25.46798 -16.5487,-36.62423 -8.2626,-12.91413 -13.2192,-27.92799 -7.4933,-43.22144 2.7035,-18.14405 7.7047,-35.78277 10.4398,-53.93215 7.4171,-11.14202 -5.8674,-36.22176 5.2186,-41.10752 -2.3197,22.42403 5.0015,2.60799 11.9276,11.6082 7.0053,-5.59071 5.4872,1.85751 8.2299,3.91882 5.932,-16.05448 9.7357,-3.85379 2.8631,5.00313 -9.8818,12.56195 -16.6266,32.14007 -15.296,48.89211 -1.4747,7.65925 1.4117,26.30935 3.6016,7.87451 2.6364,-8.08828 3.9759,7.07011 6.1598,7.5432 -13.0443,13.63184 20.3862,-2.18868 6.6467,10.94557 -3.039,8.74305 -19.6494,14.16534 -10.5833,23.66988 9.7308,11.67224 15.9374,26.7058 28.0739,36.1503 4.168,-0.62987 17.2037,-10.21636 14.9916,-15.40038 -3.7473,-12.40615 -10.4687,-27.14869 3.4638,-38.99508 11.3759,-6.02073 27.7425,-16.02154 38.4941,-5.54071 3.1119,16.39526 10.7156,33.21291 6.8445,50.16753 -1.9278,7.23379 -10.0675,25.98563 4.5899,18.54624 16.5134,-6.70982 20.1994,-21.1921 21.762,-37.42171 2.7436,-15.10347 11.0587,-31.98909 2.3918,-46.56641 -5.3185,-7.59752 -4.9737,-18.57102 2.3855,-6.93359 4.5245,-4.57537 5.5908,-33.1298 8.0527,-13.59432 1.503,4.2079 6.7245,-11.21855 7.2771,2.5917 12.0837,11.81526 0.4373,26.77552 1.5752,40.85819 -0.014,7.78552 -4.7837,31.21381 7.5539,16.0691 11.9958,-9.6748 14.597,-25.80379 23.3684,-37.95453 8.3733,-15.34917 16.6062,-32.68858 15.9268,-50.43155 1.9069,-10.49015 -7.0382,-31.20329 6.6909,-20.54154 -0.2582,-10.75897 20.2058,-15.99327 6.9602,-3.43085 -6.5561,15.27727 21.0159,-20.22468 11.6813,1.41398 -6.6548,5.39657 -5.312,15.53618 5.7754,2.9525 6.4909,1.94151 -10.0792,20.7174 -11.8877,28.74115 -11.2917,20.12314 -14.4477,43.50898 -22.3348,64.94192 -5.8098,15.78781 -13.6934,29.6345 -22.3551,43.97912 -9.5882,15.87913 -19.7814,31.59179 -31.1869,46.15679 -8.9458,10.99517 14.8617,1.14758 21.0201,6.78637 12.518,-7.87375 29.385,-1.07316 31.7442,13.9051 8.5354,6.87189 -2.959,27.20699 4.826,28.253 6.9599,-8.35669 30.6898,-10.22278 16.3911,-23.6599 -4.8799,-13.60995 -13.4899,-32.95924 2.9589,-42.5777 18.9802,-11.06226 29.1286,12.4481 34.5443,24.513 -1.1144,6.3124 -10.9945,24.16482 1.2989,23.0916 11.9703,5.11124 17.1415,-2.56675 9.7766,-12.99185 -5.6125,-7.61373 -1.994,-15.69956 2.4401,-3.88548 5.3211,8.43408 -3.2996,-25.65986 4.9774,-6.97215 1.2142,-0.66102 4.7324,-10.09149 5.0899,1.39026 1.3293,10.43455 4.5795,7.41882 7.2281,0.22402 3.133,9.794 -0.6183,21.94637 3.857,31.04505 15.1548,17.0439 34.661,30.4834 46.3055,50.3897 2.0219,10.6027 -2.3476,23.8758 -9.9945,30.7373 -96.6193,-0.1457 -193.2469,0.4071 -289.8601,-0.5562 z m 273.9725,-30.6938 c -5.4576,-7.6635 -15.9194,-5.3671 -3.5491,0.3557 0.497,0.7237 3.5906,1.4873 3.5491,-0.3557 z m -137.0451,-21.3848 c 8.1886,-16.11829 -15.8898,-22.27477 -13.8783,-38.63465 -0.2795,-7.03902 -1.2234,-20.4328 -8.3873,-7.61676 -8.7788,6.78734 8.6785,17.01782 2.351,27.10748 1.7752,8.92004 -7.3166,21.13593 7.9872,20.12463 3.789,1.2155 9.1084,3.1197 11.9274,-0.9807 z"
           style="fill:url(#radialGradient6463);fill-opacity:1" />
      </g>
    </g>
    <g
       id="g2686"
       inkscape:label="Layer 1"
       transform="matrix(1,0,0,0.8551852,53.906246,135.77945)"
       style="fill:url(#radialGradient6289);fill-opacity:1;filter:url(#filter6781)">
      <g
         inkscape:export-ydpi="90"
         inkscape:export-xdpi="90"
         inkscape:export-filename="H:\new\rect2273.png"
         style="fill:url(#radialGradient6461);fill-opacity:1"
         transform="matrix(0.7844778,0,0,0.7844778,-1023.124,-443.46103)"
         id="g2688">
        <path
           sodipodi:nodetypes="ccccccccccccccccccccccccccccccccccccsscccccccccccccccccccccccccc"
           id="path2690"
           d="m 1181.224,723.79257 c 17.8661,-5.1827 3.8156,-26.068 6.1451,-38.9613 -2.6811,-18.56792 -15.9987,-33.39896 -20.3878,-51.57126 -6.8606,-15.87369 -8.1323,-33.33072 -13.6211,-49.48749 -4.5966,-12.71726 -9.3908,-25.46798 -16.5487,-36.62423 -8.2626,-12.91413 -13.2192,-27.92799 -7.4933,-43.22144 2.7035,-18.14405 7.7047,-35.78277 10.4398,-53.93215 7.4171,-11.14202 -5.8674,-36.22176 5.2186,-41.10752 -2.3197,22.42403 5.0015,2.60799 11.9276,11.6082 7.0053,-5.59071 5.4872,1.85751 8.2299,3.91882 5.932,-16.05448 9.7357,-3.85379 2.8631,5.00313 -9.8818,12.56195 -16.6266,32.14007 -15.296,48.89211 -1.4747,7.65925 1.4117,26.30935 3.6016,7.87451 2.6364,-8.08828 3.9759,7.07011 6.1598,7.5432 -13.0443,13.63184 20.3862,-2.18868 6.6467,10.94557 -3.039,8.74305 -19.6494,14.16534 -10.5833,23.66988 9.7308,11.67224 15.9374,26.7058 28.0739,36.1503 4.168,-0.62987 17.2037,-10.21636 14.9916,-15.40038 -3.7473,-12.40615 -10.4687,-27.14869 3.4638,-38.99508 11.3759,-6.02073 27.7425,-16.02154 38.4941,-5.54071 3.1119,16.39526 10.7156,33.21291 6.8445,50.16753 -1.9278,7.23379 -10.0675,25.98563 4.5899,18.54624 16.5134,-6.70982 20.1994,-21.1921 21.762,-37.42171 2.7436,-15.10347 11.0587,-31.98909 2.3918,-46.56641 -5.3185,-7.59752 -4.9737,-18.57102 2.3855,-6.93359 4.5245,-4.57537 5.5908,-33.1298 8.0527,-13.59432 1.503,4.2079 6.7245,-11.21855 7.2771,2.5917 12.0837,11.81526 0.4373,26.77552 1.5752,40.85819 -0.014,7.78552 -4.7837,31.21381 7.5539,16.0691 11.9958,-9.6748 14.597,-25.80379 23.3684,-37.95453 8.3733,-15.34917 16.6062,-32.68858 15.9268,-50.43155 1.9069,-10.49015 -7.0382,-31.20329 6.6909,-20.54154 -0.2582,-10.75897 20.2058,-15.99327 6.9602,-3.43085 -6.5561,15.27727 21.0159,-20.22468 11.6813,1.41398 -6.6548,5.39657 -5.312,15.53618 5.7754,2.9525 6.4909,1.94151 -10.0792,20.7174 -11.8877,28.74115 -11.2917,20.12314 -14.4477,43.50898 -22.3348,64.94192 -5.8098,15.78781 -13.6934,29.6345 -22.3551,43.97912 -9.5882,15.87913 -19.7814,31.59179 -31.1869,46.15679 -8.9458,10.99517 14.8617,1.14758 21.0201,6.78637 12.518,-7.87375 29.385,-1.07316 31.7442,13.9051 8.5354,6.87189 -2.959,27.20699 4.826,28.253 6.9599,-8.35669 30.6898,-10.22278 16.3911,-23.6599 -4.8799,-13.60995 -13.4899,-32.95924 2.9589,-42.5777 18.9802,-11.06226 29.1286,12.4481 34.5443,24.513 -1.1144,6.3124 -10.9945,24.16482 1.2989,23.0916 11.9703,5.11124 17.1415,-2.56675 9.7766,-12.99185 -5.6125,-7.61373 -1.994,-15.69956 2.4401,-3.88548 5.3211,8.43408 -3.2996,-25.65986 4.9774,-6.97215 1.2142,-0.66102 4.7324,-10.09149 5.0899,1.39026 1.3293,10.43455 4.5795,7.41882 7.2281,0.22402 3.133,9.794 -0.6183,21.94637 3.857,31.04505 15.1548,17.0439 34.661,30.4834 46.3055,50.3897 2.0219,10.6027 -2.3476,23.8758 -9.9945,30.7373 -96.6193,-0.1457 -193.2469,0.4071 -289.8601,-0.5562 z m 273.9725,-30.6938 c -5.4576,-7.6635 -15.9194,-5.3671 -3.5491,0.3557 0.497,0.7237 3.5906,1.4873 3.5491,-0.3557 z m -137.0451,-21.3848 c 8.1886,-16.11829 -15.8898,-22.27477 -13.8783,-38.63465 -0.2795,-7.03902 -1.2234,-20.4328 -8.3873,-7.61676 -8.7788,6.78734 8.6785,17.01782 2.351,27.10748 1.7752,8.92004 -7.3166,21.13593 7.9872,20.12463 3.789,1.2155 9.1084,3.1197 11.9274,-0.9807 z"
           style="fill:url(#radialGradient6459);fill-opacity:1" />
      </g>
    </g>
    <g
       id="g2692"
       inkscape:label="Layer 1"
       transform="matrix(-0.7704983,0,0,0.8872993,563.32327,145.61496)"
       style="fill:url(#radialGradient6287);fill-opacity:1;filter:url(#filter6529)">
      <g
         inkscape:export-ydpi="90"
         inkscape:export-xdpi="90"
         inkscape:export-filename="H:\new\rect2273.png"
         style="fill:url(#radialGradient6457);fill-opacity:1"
         transform="matrix(0.6938009,0,0,0.6938009,-870.0051,-393.95863)"
         id="g2694">
        <path
           sodipodi:nodetypes="cccccccccccccccccccccccccccssccc"
           id="path2696"
           d="m 1326.7136,723.79257 c -17.8661,-5.1827 -3.8156,-26.068 -6.1451,-38.9613 2.6811,-18.56792 15.9987,-33.39896 20.3878,-51.57126 6.8606,-15.87369 6.0596,-29.18523 11.5484,-45.342 8.742,-12.02634 14.9181,-19.24974 18.6214,-31.78782 5.4989,-17.05962 9.7646,-28.6189 4.0387,-43.91235 -2.7035,-18.14405 -7.7047,-35.78277 -10.4398,-53.93215 -7.4171,-11.14202 5.8674,-36.22176 -5.2186,-41.10752 2.3197,22.42403 -5.0015,2.60799 -11.9276,11.6082 -7.0053,-5.59071 -5.4872,1.85751 -8.2299,3.91882 -5.932,-16.05448 -9.7357,-3.85379 -2.8631,5.00313 9.8818,12.56195 16.6266,32.14007 15.296,48.89211 3.6034,32.14781 4.038,28.50478 -5.8248,50.03316 -9.7308,11.67224 -15.2465,26.01488 -27.383,35.45938 -4.168,-0.62987 -35.1675,23.6385 -12.2279,-23.00045 3.7473,-12.40615 10.4687,-27.14869 -3.4638,-38.99508 -11.3759,-6.02073 -27.7425,-16.02154 -38.4941,-5.54071 -3.1119,16.39526 -10.7156,33.21291 -6.8445,50.16753 1.9278,7.23379 10.0675,25.98563 -4.5899,18.54624 -22.93,-21.01361 -16.6495,-14.53032 -50.9982,-44.99704 -11.9958,-9.6748 -14.597,-25.80379 -23.3684,-37.95453 -8.3733,-15.34917 -16.6062,-32.68858 -15.9268,-50.43155 -1.9069,-10.49015 7.0382,-31.20329 -6.6909,-20.54154 0.2582,-10.75897 -20.2058,-15.99327 -6.9602,-3.43085 6.5561,15.27727 -21.0159,-20.22468 -11.6813,1.41398 6.6548,5.39657 5.312,15.53618 -5.7754,2.9525 -6.4909,1.94151 10.0792,20.7174 11.8877,28.74115 11.2917,20.12314 14.4477,43.50898 22.3348,64.94192 5.8098,15.78781 13.6934,29.6345 22.3551,43.97912 9.5882,15.87913 19.7814,31.59179 31.1869,46.15679 11.6035,54.34138 -4.3092,81.97365 -15.4445,111.81778 32.5872,16.89142 6.6287,16.78124 122.841,7.87434 z"
           style="fill:url(#radialGradient6455);fill-opacity:1" />
      </g>
    </g>
    <g
       id="g2698"
       inkscape:label="Layer 1"
       transform="matrix(-1,0,0,1,643.14381,132.95368)"
       style="fill:url(#radialGradient6285);fill-opacity:1;filter:url(#filter6415)">
      <g
         inkscape:export-ydpi="90"
         inkscape:export-xdpi="90"
         inkscape:export-filename="H:\new\rect2273.png"
         style="fill:url(#radialGradient6453);fill-opacity:1"
         transform="matrix(0.6938009,0,0,0.6938009,-870.0051,-393.95863)"
         id="g2700">
        <path
           sodipodi:nodetypes="cccccccccccccccccccccccccccssccc"
           id="path2702"
           d="m 1326.7136,723.79257 c -17.8661,-5.1827 -3.8156,-26.068 -6.1451,-38.9613 2.6811,-18.56792 15.9987,-33.39896 20.3878,-51.57126 6.8606,-15.87369 6.0596,-29.18523 11.5484,-45.342 8.742,-12.02634 14.9181,-19.24974 18.6214,-31.78782 5.4989,-17.05962 9.7646,-28.6189 4.0387,-43.91235 -2.7035,-18.14405 -7.7047,-35.78277 -10.4398,-53.93215 -7.4171,-11.14202 5.8674,-36.22176 -5.2186,-41.10752 2.3197,22.42403 -5.0015,2.60799 -11.9276,11.6082 -7.0053,-5.59071 -5.4872,1.85751 -8.2299,3.91882 -5.932,-16.05448 -9.7357,-3.85379 -2.8631,5.00313 9.8818,12.56195 16.6266,32.14007 15.296,48.89211 3.6034,32.14781 4.038,28.50478 -5.8248,50.03316 -9.7308,11.67224 -15.2465,26.01488 -27.383,35.45938 -4.168,-0.62987 -35.1675,23.6385 -12.2279,-23.00045 3.7473,-12.40615 10.4687,-27.14869 -3.4638,-38.99508 -11.3759,-6.02073 -27.7425,-16.02154 -38.4941,-5.54071 -3.1119,16.39526 -10.7156,33.21291 -6.8445,50.16753 1.9278,7.23379 10.0675,25.98563 -4.5899,18.54624 -22.93,-21.01361 -16.6495,-14.53032 -50.9982,-44.99704 -11.9958,-9.6748 -14.597,-25.80379 -23.3684,-37.95453 -8.3733,-15.34917 -16.6062,-32.68858 -15.9268,-50.43155 -1.9069,-10.49015 7.0382,-31.20329 -6.6909,-20.54154 0.2582,-10.75897 -20.2058,-15.99327 -6.9602,-3.43085 6.5561,15.27727 -21.0159,-20.22468 -11.6813,1.41398 6.6548,5.39657 5.312,15.53618 -5.7754,2.9525 -6.4909,1.94151 10.0792,20.7174 11.8877,28.74115 11.2917,20.12314 14.4477,43.50898 22.3348,64.94192 5.8098,15.78781 13.6934,29.6345 22.3551,43.97912 9.5882,15.87913 19.7814,31.59179 31.1869,46.15679 11.6035,54.34138 -4.3092,81.97365 -15.4445,111.81778 32.5872,16.89142 6.6287,16.78124 122.841,7.87434 z"
           style="fill:url(#radialGradient6451);fill-opacity:1" />
      </g>
    </g>
    <g
       id="g2704"
       inkscape:label="Layer 1"
       transform="matrix(1.0260797,0,0,1.0483003,955.70074,136.49604)"
       style="fill:url(#radialGradient6283);fill-opacity:1;filter:url(#filter6693)">
      <g
         inkscape:export-ydpi="90"
         inkscape:export-xdpi="90"
         inkscape:export-filename="H:\new\rect2273.png"
         style="fill:url(#radialGradient6449);fill-opacity:1"
         transform="matrix(0.6938009,0,0,0.6938009,-870.0051,-393.95863)"
         id="g2706">
        <path
           sodipodi:nodetypes="cccccccccccccccccccccccccccssccc"
           id="path2708"
           d="m 1326.7136,723.79257 c -17.8661,-5.1827 -3.8156,-26.068 -6.1451,-38.9613 2.6811,-18.56792 15.9987,-33.39896 20.3878,-51.57126 6.8606,-15.87369 6.0596,-29.18523 11.5484,-45.342 8.742,-12.02634 14.9181,-19.24974 18.6214,-31.78782 5.4989,-17.05962 9.7646,-28.6189 4.0387,-43.91235 -2.7035,-18.14405 -7.7047,-35.78277 -10.4398,-53.93215 -7.4171,-11.14202 5.8674,-36.22176 -5.2186,-41.10752 2.3197,22.42403 -5.0015,2.60799 -11.9276,11.6082 -7.0053,-5.59071 -5.4872,1.85751 -8.2299,3.91882 -5.932,-16.05448 -9.7357,-3.85379 -2.8631,5.00313 9.8818,12.56195 16.6266,32.14007 15.296,48.89211 3.6034,32.14781 4.038,28.50478 -5.8248,50.03316 -9.7308,11.67224 -15.2465,26.01488 -27.383,35.45938 -4.168,-0.62987 -35.1675,23.6385 -12.2279,-23.00045 3.7473,-12.40615 10.4687,-27.14869 -3.4638,-38.99508 -11.3759,-6.02073 -27.7425,-16.02154 -38.4941,-5.54071 -3.1119,16.39526 -10.7156,33.21291 -6.8445,50.16753 1.9278,7.23379 10.0675,25.98563 -4.5899,18.54624 -22.93,-21.01361 -16.6495,-14.53032 -50.9982,-44.99704 -11.9958,-9.6748 -14.597,-25.80379 -23.3684,-37.95453 -8.3733,-15.34917 -16.6062,-32.68858 -15.9268,-50.43155 -1.9069,-10.49015 7.0382,-31.20329 -6.6909,-20.54154 0.2582,-10.75897 -20.2058,-15.99327 -6.9602,-3.43085 6.5561,15.27727 -21.0159,-20.22468 -11.6813,1.41398 6.6548,5.39657 5.312,15.53618 -5.7754,2.9525 -6.4909,1.94151 10.0792,20.7174 11.8877,28.74115 11.2917,20.12314 14.4477,43.50898 22.3348,64.94192 5.8098,15.78781 13.6934,29.6345 22.3551,43.97912 9.5882,15.87913 19.7814,31.59179 31.1869,46.15679 11.6035,54.34138 -4.3092,81.97365 -15.4445,111.81778 32.5872,16.89142 6.6287,16.78124 122.841,7.87434 z"
           style="fill:url(#radialGradient6447);fill-opacity:1" />
      </g>
    </g>
    <g
       id="g2710"
       inkscape:label="Layer 1"
       transform="matrix(1,0,0,0.9493148,799.19772,126.72296)"
       style="fill:url(#radialGradient6281);fill-opacity:1;filter:url(#filter6557)">
      <g
         inkscape:export-ydpi="90"
         inkscape:export-xdpi="90"
         inkscape:export-filename="H:\new\rect2273.png"
         style="fill:url(#radialGradient6445);fill-opacity:1"
         transform="matrix(0.7844778,0,0,0.7844778,-1023.124,-443.46103)"
         id="g2712">
        <path
           sodipodi:nodetypes="ccccccccccccccccccccccccccccccccccccsscccccccccccccccccccccccccc"
           id="path2714"
           d="m 1181.224,723.79257 c 17.8661,-5.1827 3.8156,-26.068 6.1451,-38.9613 -2.6811,-18.56792 -15.9987,-33.39896 -20.3878,-51.57126 -6.8606,-15.87369 -8.1323,-33.33072 -13.6211,-49.48749 -4.5966,-12.71726 -9.3908,-25.46798 -16.5487,-36.62423 -8.2626,-12.91413 -13.2192,-27.92799 -7.4933,-43.22144 2.7035,-18.14405 7.7047,-35.78277 10.4398,-53.93215 7.4171,-11.14202 -5.8674,-36.22176 5.2186,-41.10752 -2.3197,22.42403 5.0015,2.60799 11.9276,11.6082 7.0053,-5.59071 5.4872,1.85751 8.2299,3.91882 5.932,-16.05448 9.7357,-3.85379 2.8631,5.00313 -9.8818,12.56195 -16.6266,32.14007 -15.296,48.89211 -1.4747,7.65925 1.4117,26.30935 3.6016,7.87451 2.6364,-8.08828 3.9759,7.07011 6.1598,7.5432 -13.0443,13.63184 20.3862,-2.18868 6.6467,10.94557 -3.039,8.74305 -19.6494,14.16534 -10.5833,23.66988 9.7308,11.67224 15.9374,26.7058 28.0739,36.1503 4.168,-0.62987 17.2037,-10.21636 14.9916,-15.40038 -3.7473,-12.40615 -10.4687,-27.14869 3.4638,-38.99508 11.3759,-6.02073 27.7425,-16.02154 38.4941,-5.54071 3.1119,16.39526 10.7156,33.21291 6.8445,50.16753 -1.9278,7.23379 -10.0675,25.98563 4.5899,18.54624 16.5134,-6.70982 20.1994,-21.1921 21.762,-37.42171 2.7436,-15.10347 11.0587,-31.98909 2.3918,-46.56641 -5.3185,-7.59752 -4.9737,-18.57102 2.3855,-6.93359 4.5245,-4.57537 5.5908,-33.1298 8.0527,-13.59432 1.503,4.2079 6.7245,-11.21855 7.2771,2.5917 12.0837,11.81526 0.4373,26.77552 1.5752,40.85819 -0.014,7.78552 -4.7837,31.21381 7.5539,16.0691 11.9958,-9.6748 14.597,-25.80379 23.3684,-37.95453 8.3733,-15.34917 16.6062,-32.68858 15.9268,-50.43155 1.9069,-10.49015 -7.0382,-31.20329 6.6909,-20.54154 -0.2582,-10.75897 20.2058,-15.99327 6.9602,-3.43085 -6.5561,15.27727 21.0159,-20.22468 11.6813,1.41398 -6.6548,5.39657 -5.312,15.53618 5.7754,2.9525 6.4909,1.94151 -10.0792,20.7174 -11.8877,28.74115 -11.2917,20.12314 -14.4477,43.50898 -22.3348,64.94192 -5.8098,15.78781 -13.6934,29.6345 -22.3551,43.97912 -9.5882,15.87913 -19.7814,31.59179 -31.1869,46.15679 -8.9458,10.99517 14.8617,1.14758 21.0201,6.78637 12.518,-7.87375 29.385,-1.07316 31.7442,13.9051 8.5354,6.87189 -2.959,27.20699 4.826,28.253 6.9599,-8.35669 30.6898,-10.22278 16.3911,-23.6599 -4.8799,-13.60995 -13.4899,-32.95924 2.9589,-42.5777 18.9802,-11.06226 29.1286,12.4481 34.5443,24.513 -1.1144,6.3124 -10.9945,24.16482 1.2989,23.0916 11.9703,5.11124 17.1415,-2.56675 9.7766,-12.99185 -5.6125,-7.61373 -1.994,-15.69956 2.4401,-3.88548 5.3211,8.43408 -3.2996,-25.65986 4.9774,-6.97215 1.2142,-0.66102 4.7324,-10.09149 5.0899,1.39026 1.3293,10.43455 4.5795,7.41882 7.2281,0.22402 3.133,9.794 -0.6183,21.94637 3.857,31.04505 15.1548,17.0439 34.661,30.4834 46.3055,50.3897 2.0219,10.6027 -2.3476,23.8758 -9.9945,30.7373 -96.6193,-0.1457 -193.2469,0.4071 -289.8601,-0.5562 z m 273.9725,-30.6938 c -5.4576,-7.6635 -15.9194,-5.3671 -3.5491,0.3557 0.497,0.7237 3.5906,1.4873 3.5491,-0.3557 z m -137.0451,-21.3848 c 8.1886,-16.11829 -15.8898,-22.27477 -13.8783,-38.63465 -0.2795,-7.03902 -1.2234,-20.4328 -8.3873,-7.61676 -8.7788,6.78734 8.6785,17.01782 2.351,27.10748 1.7752,8.92004 -7.3166,21.13593 7.9872,20.12463 3.789,1.2155 9.1084,3.1197 11.9274,-0.9807 z"
           style="fill:url(#radialGradient6443);fill-opacity:1" />
      </g>
    </g>
  </g>
</svg>
