<?xml version="1.0" encoding="UTF-8" standalone="no"?>
<svg
   xmlns:dc="http://purl.org/dc/elements/1.1/"
   xmlns:cc="http://creativecommons.org/ns#"
   xmlns:rdf="http://www.w3.org/1999/02/22-rdf-syntax-ns#"
   xmlns:svg="http://www.w3.org/2000/svg"
   xmlns="http://www.w3.org/2000/svg"
   id="svg14"
   xml:space="preserve"
   enable-background="new 0 0 256 256"
   viewBox="0 0 256 256"
   y="0px"
   x="0px"
   version="1.1"><defs
   id="defs18" />
<metadata
   id="metadata2"> Svg Vector Icons : http://www.onlinewebfonts.com/icon <rdf:RDF><cc:Work
     rdf:about=""><dc:format>image/svg+xml</dc:format><dc:type
       rdf:resource="http://purl.org/dc/dcmitype/StillImage" /><dc:title></dc:title></cc:Work></rdf:RDF></metadata>
<g
   style="fill:#ffffff"
   id="g12"><g
     style="fill:#ffffff"
     id="g10"><g
       style="fill:#ffffff"
       id="g8"><path
         style="fill:#ffffff"
         id="path4"
         d="M123.1,10C102.6,11.4,84,23.6,74.9,41.8c-4.3,8.4-5.9,15.6-5.7,25.7c0.2,27.7,13.1,59.7,30.7,76.7c9,8.6,17.7,12.8,27.4,12.8c5,0.1,8-0.6,13.1-3c15.7-7.3,31.6-28.9,40.6-55.2c4.5-13.4,6.7-28,5.7-37.8c-2-18.3-12.8-34.6-28.8-43.6C147.4,11.7,135.9,9.3,123.1,10z M143.2,53.2c5.5,1.3,9.6,2.7,15.8,5.4c7.3,3.1,15,5.1,21.2,5.5l2.1,0.1l-0.1,4.9c-0.6,22.8-14,53.9-30.3,70.4c-13,13.2-25.9,15.7-39.6,7.8c-10-5.8-18.8-16.3-26.1-31.2c-5.5-11.3-9.8-24.9-11.5-36.1c-0.6-3.8-0.6-4.5,0.1-6.7c1.8-5.6,7.1-12.4,12.1-15.4c4.2-2.5,4.3-2.5,3,0.1c-2.4,4.6-3.4,11-2.6,16.5c0.8,6,1,6.1,3,2.4c5.5-10,12.9-18.4,20.3-23.1l1.4-0.9l-0.9,1.4c-4.8,7.3-7.2,16.9-6.6,26.3c0.5,8.3,0.5,8.3,5,0.9c2.2-3.5,5.6-8.6,7.6-11.3c6.9-9.3,17.6-18.9,20.5-18.2C138.3,52,140.8,52.6,143.2,53.2z"
         fill="#000000" /><path
         style="fill:#ffffff"
         id="path6"
         d="M85,156.9c-14.6,4.9-21.8,7.7-31.7,12.5c-21,10.3-32.8,22-38.7,38.6c-3,8.3-5.3,22.1-4.5,26.8c0.6,3.6,2.4,7.3,4.4,8.8c3.5,2.6-3.2,2.5,112.3,2.5c117.3,0,108.6,0.2,113.3-2.9c4.8-3.2,6.5-7.8,5.7-15.3c-3.8-35.2-23.5-53.6-76.4-71.3c-12.8-4.3-11.8-4.2-11.8-1.8c0,7.3-5.1,15.3-12,18.8c-5.4,2.7-9.1,3.4-17.6,3.4c-8.5,0-12.2-0.7-17.6-3.4c-6.9-3.5-12-11.5-12-18.8c0-1.3-0.2-2-0.6-2C97.5,152.8,91.7,154.7,85,156.9z"
         fill="#000000" /></g></g></g>
</svg>