<?xml version="1.0" encoding="UTF-8" standalone="no"?>
<!-- Created with Inkscape (http://www.inkscape.org/) -->

<svg
   xmlns:dc="http://purl.org/dc/elements/1.1/"
   xmlns:cc="http://creativecommons.org/ns#"
   xmlns:rdf="http://www.w3.org/1999/02/22-rdf-syntax-ns#"
   xmlns:svg="http://www.w3.org/2000/svg"
   xmlns="http://www.w3.org/2000/svg"
   xmlns:sodipodi="http://sodipodi.sourceforge.net/DTD/sodipodi-0.dtd"
   xmlns:inkscape="http://www.inkscape.org/namespaces/inkscape"
   version="1.0"
   width="59.375919"
   height="63.933247"
   id="svg3465"
   sodipodi:version="0.32"
   inkscape:version="0.92.4 (5da689c313, 2019-01-14)"
   sodipodi:docname="sing_pbox.svg"
   inkscape:output_extension="org.inkscape.output.svg.inkscape">
  <metadata
     id="metadata13361">
    <rdf:RDF>
      <cc:Work
         rdf:about="">
        <dc:format>image/svg+xml</dc:format>
        <dc:type
           rdf:resource="http://purl.org/dc/dcmitype/StillImage" />
        <dc:title />
      </cc:Work>
    </rdf:RDF>
  </metadata>
  <sodipodi:namedview
     inkscape:cy="54.079993"
     inkscape:cx="-73.950614"
     inkscape:zoom="3.1465925"
     inkscape:window-height="1017"
     inkscape:window-width="1920"
     inkscape:pageshadow="2"
     inkscape:pageopacity="0"
     guidetolerance="10.0"
     gridtolerance="10.0"
     objecttolerance="10.0"
     borderopacity="1.0"
     bordercolor="#666666"
     pagecolor="#ffffff"
     id="base"
     showguides="true"
     inkscape:guide-bbox="true"
     inkscape:window-x="-8"
     inkscape:window-y="-8"
     inkscape:current-layer="svg3465"
     showgrid="false"
     inkscape:window-maximized="1"
     inkscape:pagecheckerboard="true">
    <sodipodi:guide
       orientation="vertical"
       position="-118.28318"
       id="guide17996"
       inkscape:locked="false" />
    <sodipodi:guide
       orientation="vertical"
       position="-110.34334"
       id="guide17998"
       inkscape:locked="false" />
  </sodipodi:namedview>
  <defs
     id="defs3467">
    <inkscape:perspective
       sodipodi:type="inkscape:persp3d"
       inkscape:vp_x="0 : 300 : 1"
       inkscape:vp_y="0 : 1000 : 0"
       inkscape:vp_z="800 : 300 : 1"
       inkscape:persp3d-origin="400 : 200 : 1"
       id="perspective14" />
  </defs>
  <g
     transform="matrix(0.17673756,0,0,0.17673756,0.22891142,10.861357)"
     id="g46"
     style="fill:#c8c8c8;fill-opacity:0.90196079">
    <g
       id="g44"
       style="fill:#c8c8c8;fill-opacity:0.90196079">
      <g
         id="g12"
         style="fill:#c8c8c8;fill-opacity:0.90196079">
        <g
           id="g10"
           style="fill:#c8c8c8;fill-opacity:0.90196079">
          <path
             style="fill:#c8c8c8;fill-opacity:0.90196079"
             inkscape:connector-curvature="0"
             d="m 212.2,14.9 c -6,-6.1 -15.8,-6.5 -22.4,-1 -6.6,5.6 -14,12.2 -18.6,16.8 -0.2,0.2 -0.3,0.4 -0.5,0.6 2.9,6.4 9.4,18.1 22.2,30.9 12.9,12.9 25.1,19.8 31.7,22.9 0.3,-0.3 0.6,-0.6 0.8,-0.8 5.5,-5.5 11.5,-12 16.5,-17.6 5.8,-6.5 5.5,-16.4 -0.7,-22.6 -9.7,-9.7 -21,-21.1 -29,-29.2 z"
             id="path4" />
          <g
             id="g8"
             style="fill:#c8c8c8;fill-opacity:0.90196079">
            <path
               style="fill:#c8c8c8;fill-opacity:0.90196079"
               inkscape:connector-curvature="0"
               d="m 162.8,47.1 c -8,10.6 -18.2,27.7 -18.5,28 l -107.1,107 c 0,0 -1.8,2.7 0.4,8.6 l -14.8,14.8 c -3.6,3.6 -2.8,10.2 1.8,14.7 l 2.8,2.8 -16.3,16.3 c -1.5,1.5 -1.5,4 0,5.6 1.5,1.5 4,1.5 5.6,0 l 16.3,-16.4 2.7,2.6 c 4.6,4.6 11.2,5.4 14.7,1.8 l 14.3,-14.3 c 6.5,2.6 9,-0.1 9,-0.1 L 180.8,111.4 C 181.2,111 196.7,103.1 209.2,93 201.5,88.4 192.3,81.8 182.7,72.3 173.5,63.2 167.1,54.4 162.8,47.1 Z"
               id="path6" />
          </g>
        </g>
      </g>
      <g
         id="g14"
         style="fill:#c8c8c8;fill-opacity:0.90196079" />
      <g
         id="g16"
         style="fill:#c8c8c8;fill-opacity:0.90196079" />
      <g
         id="g18"
         style="fill:#c8c8c8;fill-opacity:0.90196079" />
      <g
         id="g20"
         style="fill:#c8c8c8;fill-opacity:0.90196079" />
      <g
         id="g22"
         style="fill:#c8c8c8;fill-opacity:0.90196079" />
      <g
         id="g24"
         style="fill:#c8c8c8;fill-opacity:0.90196079" />
      <g
         id="g26"
         style="fill:#c8c8c8;fill-opacity:0.90196079" />
      <g
         id="g28"
         style="fill:#c8c8c8;fill-opacity:0.90196079" />
      <g
         id="g30"
         style="fill:#c8c8c8;fill-opacity:0.90196079" />
      <g
         id="g32"
         style="fill:#c8c8c8;fill-opacity:0.90196079" />
      <g
         id="g34"
         style="fill:#c8c8c8;fill-opacity:0.90196079" />
      <g
         id="g36"
         style="fill:#c8c8c8;fill-opacity:0.90196079" />
      <g
         id="g38"
         style="fill:#c8c8c8;fill-opacity:0.90196079" />
      <g
         id="g40"
         style="fill:#c8c8c8;fill-opacity:0.90196079" />
      <g
         id="g42"
         style="fill:#c8c8c8;fill-opacity:0.90196079" />
    </g>
  </g>
</svg>
