<?xml version="1.0" encoding="UTF-8" standalone="no"?>
<!-- Created with Sodipodi ("http://www.sodipodi.com/") -->
<svg
   xmlns:dc="http://purl.org/dc/elements/1.1/"
   xmlns:cc="http://creativecommons.org/ns#"
   xmlns:rdf="http://www.w3.org/1999/02/22-rdf-syntax-ns#"
   xmlns:svg="http://www.w3.org/2000/svg"
   xmlns="http://www.w3.org/2000/svg"
   xmlns:xlink="http://www.w3.org/1999/xlink"
   xmlns:sodipodi="http://sodipodi.sourceforge.net/DTD/sodipodi-0.dtd"
   xmlns:inkscape="http://www.inkscape.org/namespaces/inkscape"
   version="1.0"
   x="0"
   y="0"
   width="1000"
   height="800"
   id="svg559"
   sodipodi:version="0.32"
   inkscape:version="0.46"
   sodipodi:docname="configuration_bg.svg"
   sodipodi:docbase="/home/yoda/UltraStar/sf/UltraStar-ng/themes/lima"
   inkscape:output_extension="org.inkscape.output.svg.inkscape">
  <metadata
     id="metadata35">
    <rdf:RDF>
      <cc:Work
         rdf:about="">
        <dc:format>image/svg+xml</dc:format>
        <dc:type
           rdf:resource="http://purl.org/dc/dcmitype/StillImage" />
      </cc:Work>
    </rdf:RDF>
  </metadata>
  <sodipodi:namedview
     inkscape:window-height="801"
     inkscape:window-width="1439"
     inkscape:pageshadow="2"
     inkscape:pageopacity="0.0"
     guidetolerance="10.0"
     gridtolerance="10.0"
     objecttolerance="10.0"
     borderopacity="1.0"
     bordercolor="#666666"
     pagecolor="#ffffff"
     id="base"
     inkscape:zoom="1.12"
     inkscape:cx="500"
     inkscape:cy="711.44386"
     inkscape:window-x="0"
     inkscape:window-y="25"
     inkscape:current-layer="svg559"
     showgrid="false" />
  <defs
     id="defs561">
    <linearGradient
       inkscape:collect="always"
       xlink:href="#linearGradient6499"
       id="linearGradient3248"
       x1="311.95688"
       y1="-116.67703"
       x2="311.95688"
       y2="-276.41519"
       gradientUnits="userSpaceOnUse" />
    <inkscape:perspective
       sodipodi:type="inkscape:persp3d"
       inkscape:vp_x="0 : 300 : 1"
       inkscape:vp_y="0 : 1000 : 0"
       inkscape:vp_z="800 : 300 : 1"
       inkscape:persp3d-origin="400 : 200 : 1"
       id="perspective132" />
    <linearGradient
       inkscape:collect="always"
       id="linearGradient6053">
      <stop
         style="stop-color:white;stop-opacity:1;"
         offset="0"
         id="stop6055" />
      <stop
         style="stop-color:white;stop-opacity:0;"
         offset="1"
         id="stop6057" />
    </linearGradient>
    <pattern
       inkscape:collect="always"
       xlink:href="#pattern1930"
       id="pattern3286"
       patternTransform="matrix(1.880952,0,0,1.880952,-1419.879,-2652.216)" />
    <pattern
       inkscape:collect="always"
       xlink:href="#pattern2837"
       id="pattern3279"
       patternTransform="translate(-1618.402,-2536.988)" />
    <pattern
       inkscape:collect="always"
       xlink:href="#pattern6644"
       id="pattern3191"
       patternTransform="translate(-1882.675,-1101.464)" />
    <pattern
       inkscape:collect="always"
       xlink:href="#pattern6660"
       id="pattern3188"
       patternTransform="translate(-1819.818,-1718.607)" />
    <linearGradient
       id="linearGradient589">
      <stop
         style="stop-color:#00ffff;stop-opacity:1.0000;"
         offset="0"
         id="stop590" />
      <stop
         style="stop-color:#000000;stop-opacity:0;"
         offset="1"
         id="stop591" />
    </linearGradient>
    <linearGradient
       id="linearGradient583">
      <stop
         style="stop-color:#0000ff;stop-opacity:1.0000;"
         offset="0"
         id="stop584" />
      <stop
         style="stop-color:#ffffff;stop-opacity:1.0000;"
         offset="1"
         id="stop585" />
    </linearGradient>
    <linearGradient
       id="linearGradient578">
      <stop
         style="stop-color:#ff0000;stop-opacity:1.0000;"
         offset="0"
         id="stop579" />
      <stop
         style="stop-color:#ffffff;stop-opacity:1.0000;"
         offset="1"
         id="stop580" />
    </linearGradient>
    <linearGradient
       id="linearGradient573">
      <stop
         style="stop-color:#00ff00;stop-opacity:1.0000;"
         offset="0"
         id="stop574" />
      <stop
         style="stop-color:#ffffff;stop-opacity:1.0000;"
         offset="1"
         id="stop575" />
    </linearGradient>
    <linearGradient
       id="linearGradient567">
      <stop
         style="stop-color:#000000;stop-opacity:1.0000;"
         offset="0"
         id="stop568" />
      <stop
         style="stop-color:#ffffff;stop-opacity:1.0000;"
         offset="1"
         id="stop569" />
    </linearGradient>
    <linearGradient
       x1="1.230863e-08"
       y1="-2.0844429e-06"
       x2="0.99999899"
       y2="-2.0844429e-06"
       id="linearGradient570"
       xlink:href="#linearGradient567"
       spreadMethod="pad" />
    <linearGradient
       id="linearGradient572"
       xlink:href="#linearGradient573" />
    <linearGradient
       x1="-1.2845951e-10"
       y1="3.294485e-08"
       x2="1"
       y2="3.294485e-08"
       id="linearGradient577"
       xlink:href="#linearGradient578" />
    <linearGradient
       x1="-9.5262074e-09"
       y1="-5.0048161e-08"
       x2="1"
       y2="-5.0048161e-08"
       id="linearGradient582"
       xlink:href="#linearGradient583" />
    <linearGradient
       x1="0.484615"
       y1="0.49218801"
       x2="0.47692299"
       y2="0.101563"
       id="linearGradient587"
       xlink:href="#linearGradient583" />
    <radialGradient
       cx="0.5"
       cy="0.5"
       r="0.48207799"
       fx="0.5"
       fy="0.5"
       id="radialGradient588"
       xlink:href="#linearGradient589" />
    <radialGradient
       gradientTransform="matrix(0.435326,0,0,0.435326,18.91658,12.49341)"
       gradientUnits="userSpaceOnUse"
       r="2.2697368"
       fy="20.538168"
       fx="33.499996"
       cy="20.538168"
       cx="33.499996"
       id="radialGradient2413"
       xlink:href="#linearGradient2407"
       inkscape:collect="always" />
    <linearGradient
       gradientUnits="userSpaceOnUse"
       y2="43.420425"
       x2="17.402376"
       y1="49.110714"
       x1="16.4375"
       id="linearGradient2405"
       xlink:href="#linearGradient2399"
       inkscape:collect="always" />
    <linearGradient
       gradientUnits="userSpaceOnUse"
       y2="14.046875"
       x2="14.40625"
       y1="15.323075"
       x1="18.328718"
       id="linearGradient2385"
       xlink:href="#linearGradient2371"
       inkscape:collect="always" />
    <linearGradient
       gradientUnits="userSpaceOnUse"
       y2="14.046875"
       x2="14.40625"
       y1="15.323075"
       x1="18.328718"
       id="linearGradient2383"
       xlink:href="#linearGradient2371"
       inkscape:collect="always" />
    <linearGradient
       gradientUnits="userSpaceOnUse"
       y2="14.046875"
       x2="14.40625"
       y1="15.323075"
       x1="18.328718"
       id="linearGradient2381"
       xlink:href="#linearGradient2371"
       inkscape:collect="always" />
    <linearGradient
       gradientUnits="userSpaceOnUse"
       y2="14.046875"
       x2="14.40625"
       y1="15.323075"
       x1="18.328718"
       id="linearGradient2379"
       xlink:href="#linearGradient2371"
       inkscape:collect="always" />
    <linearGradient
       gradientUnits="userSpaceOnUse"
       y2="14.046875"
       x2="14.40625"
       y1="15.323075"
       x1="18.328718"
       id="linearGradient2377"
       xlink:href="#linearGradient2371"
       inkscape:collect="always" />
    <linearGradient
       gradientUnits="userSpaceOnUse"
       y2="20.4375"
       x2="33.96875"
       y1="15.803662"
       x1="25.160467"
       id="linearGradient2369"
       xlink:href="#linearGradient2355"
       inkscape:collect="always" />
    <linearGradient
       gradientUnits="userSpaceOnUse"
       y2="20.4375"
       x2="33.96875"
       y1="15.803662"
       x1="25.160467"
       id="linearGradient2367"
       xlink:href="#linearGradient2355"
       inkscape:collect="always" />
    <linearGradient
       gradientUnits="userSpaceOnUse"
       y2="20.4375"
       x2="33.96875"
       y1="15.803662"
       x1="25.160467"
       id="linearGradient2365"
       xlink:href="#linearGradient2355"
       inkscape:collect="always" />
    <linearGradient
       gradientUnits="userSpaceOnUse"
       y2="20.4375"
       x2="33.96875"
       y1="15.803662"
       x1="25.160467"
       id="linearGradient2363"
       xlink:href="#linearGradient2355"
       inkscape:collect="always" />
    <linearGradient
       gradientUnits="userSpaceOnUse"
       y2="20.4375"
       x2="33.96875"
       y1="15.803662"
       x1="25.160467"
       id="linearGradient2361"
       xlink:href="#linearGradient2355"
       inkscape:collect="always" />
    <radialGradient
       gradientUnits="userSpaceOnUse"
       gradientTransform="matrix(1.491918,-8.445108e-2,-5.874412e-2,3.986724,-9.646804,-20.27595)"
       r="10.98921"
       fy="6.644074"
       fx="19.557497"
       cy="6.644074"
       cx="19.557497"
       id="radialGradient2351"
       xlink:href="#linearGradient2345"
       inkscape:collect="always" />
    <radialGradient
       gradientUnits="userSpaceOnUse"
       gradientTransform="matrix(2.530751,0,0,2.296006,-31.03641,-6.699856)"
       r="12.494026"
       fy="5.7119732"
       fx="20.275276"
       cy="5.7119732"
       cx="20.275276"
       id="radialGradient2343"
       xlink:href="#linearGradient2337"
       inkscape:collect="always" />
    <linearGradient
       gradientUnits="userSpaceOnUse"
       y2="35.689548"
       x2="48.25"
       y1="36.689548"
       x1="41.25"
       id="linearGradient2258"
       xlink:href="#linearGradient2252"
       inkscape:collect="always" />
    <radialGradient
       gradientUnits="userSpaceOnUse"
       gradientTransform="matrix(1,0,0,0.425856,0,23.53992)"
       r="16.4375"
       fy="41"
       fx="25.1875"
       cy="41"
       cx="25.1875"
       id="radialGradient2248"
       xlink:href="#linearGradient2242"
       inkscape:collect="always" />
    <radialGradient
       gradientUnits="userSpaceOnUse"
       gradientTransform="matrix(1,0,0,0.52514,0,22.02165)"
       r="11.1875"
       fy="42.090427"
       fx="15.4375"
       cy="42.090427"
       cx="15.4375"
       id="radialGradient2238"
       xlink:href="#linearGradient2232"
       inkscape:collect="always" />
    <linearGradient
       id="linearGradient2232">
      <stop
         id="stop2234"
         offset="0"
         style="stop-color:#b0b0b0;stop-opacity:1;" />
      <stop
         id="stop2236"
         offset="1"
         style="stop-color:#747474;stop-opacity:1;" />
    </linearGradient>
    <linearGradient
       id="linearGradient2242"
       inkscape:collect="always">
      <stop
         id="stop2244"
         offset="0"
         style="stop-color:#000000;stop-opacity:1;" />
      <stop
         id="stop2246"
         offset="1"
         style="stop-color:#000000;stop-opacity:0;" />
    </linearGradient>
    <linearGradient
       id="linearGradient2252"
       inkscape:collect="always">
      <stop
         id="stop2254"
         offset="0"
         style="stop-color:#c6c6c6;stop-opacity:1;" />
      <stop
         id="stop2256"
         offset="1"
         style="stop-color:#c6c6c6;stop-opacity:0;" />
    </linearGradient>
    <linearGradient
       id="linearGradient2337"
       inkscape:collect="always">
      <stop
         id="stop2339"
         offset="0"
         style="stop-color:#ffffff;stop-opacity:1;" />
      <stop
         id="stop2341"
         offset="1"
         style="stop-color:#ffffff;stop-opacity:0;" />
    </linearGradient>
    <linearGradient
       id="linearGradient2345">
      <stop
         id="stop2347"
         offset="0"
         style="stop-color:#d5d5d5;stop-opacity:1;" />
      <stop
         id="stop2349"
         offset="1"
         style="stop-color:#a0a0a0;stop-opacity:1;" />
    </linearGradient>
    <linearGradient
       id="linearGradient2355"
       inkscape:collect="always">
      <stop
         id="stop2357"
         offset="0"
         style="stop-color:#000000;stop-opacity:1;" />
      <stop
         id="stop2359"
         offset="1"
         style="stop-color:#000000;stop-opacity:0;" />
    </linearGradient>
    <linearGradient
       id="linearGradient2371">
      <stop
         id="stop2373"
         offset="0"
         style="stop-color:#000000;stop-opacity:1;" />
      <stop
         id="stop2375"
         offset="1"
         style="stop-color:#000000;stop-opacity:0.48453608;" />
    </linearGradient>
    <linearGradient
       id="linearGradient2399"
       inkscape:collect="always">
      <stop
         id="stop2401"
         offset="0"
         style="stop-color:#ffffff;stop-opacity:1;" />
      <stop
         id="stop2403"
         offset="1"
         style="stop-color:#ffffff;stop-opacity:0;" />
    </linearGradient>
    <linearGradient
       id="linearGradient2407">
      <stop
         id="stop2409"
         offset="0"
         style="stop-color:#d5d5d5;stop-opacity:1;" />
      <stop
         id="stop2411"
         offset="1"
         style="stop-color:#747474;stop-opacity:1;" />
    </linearGradient>
    <linearGradient
       id="linearGradient3751"
       inkscape:collect="always">
      <stop
         id="stop3753"
         offset="0"
         style="stop-color:black;stop-opacity:1;" />
      <stop
         id="stop3755"
         offset="1"
         style="stop-color:black;stop-opacity:0;" />
    </linearGradient>
    <linearGradient
       id="linearGradient5546"
       inkscape:collect="always">
      <stop
         id="stop5548"
         offset="0"
         style="stop-color:white;stop-opacity:1;" />
      <stop
         id="stop5550"
         offset="1"
         style="stop-color:white;stop-opacity:0;" />
    </linearGradient>
    <linearGradient
       id="linearGradient6499"
       inkscape:collect="always">
      <stop
         id="stop6501"
         offset="0"
         style="stop-color:white;stop-opacity:1;" />
      <stop
         id="stop6503"
         offset="1"
         style="stop-color:white;stop-opacity:0;" />
    </linearGradient>
    <linearGradient
       inkscape:collect="always"
       xlink:href="#linearGradient6499"
       id="linearGradient3197"
       gradientUnits="userSpaceOnUse"
       gradientTransform="translate(963.0386,-1956.987)"
       x1="370.92285"
       y1="100.34026"
       x2="372.94315"
       y2="219.56401" />
    <linearGradient
       inkscape:collect="always"
       xlink:href="#linearGradient3751"
       id="linearGradient3207"
       gradientUnits="userSpaceOnUse"
       gradientTransform="translate(963.0386,-1956.987)"
       x1="665.12128"
       y1="684.16162"
       x2="381.28015"
       y2="449.80624" />
    <linearGradient
       inkscape:collect="always"
       xlink:href="#linearGradient5546"
       id="linearGradient3211"
       gradientUnits="userSpaceOnUse"
       gradientTransform="translate(963.0386,-1956.987)"
       x1="859.73419"
       y1="660.78955"
       x2="1055.1357"
       y2="603.64667" />
    <linearGradient
       inkscape:collect="always"
       xlink:href="#linearGradient6499"
       id="linearGradient3218"
       gradientUnits="userSpaceOnUse"
       gradientTransform="translate(957.3246,-2796.987)"
       x1="370.92285"
       y1="100.34026"
       x2="372.94315"
       y2="219.56401" />
    <linearGradient
       inkscape:collect="always"
       xlink:href="#linearGradient3751"
       id="linearGradient3228"
       gradientUnits="userSpaceOnUse"
       gradientTransform="translate(957.3246,-2796.987)"
       x1="665.12128"
       y1="684.16162"
       x2="381.28015"
       y2="449.80624" />
    <linearGradient
       inkscape:collect="always"
       xlink:href="#linearGradient5546"
       id="linearGradient3232"
       gradientUnits="userSpaceOnUse"
       gradientTransform="translate(957.3246,-2796.987)"
       x1="859.73419"
       y1="660.78955"
       x2="1055.1357"
       y2="603.64667" />
    <linearGradient
       inkscape:collect="always"
       xlink:href="#linearGradient6499"
       id="linearGradient3239"
       gradientUnits="userSpaceOnUse"
       gradientTransform="translate(-191.2468,-1956.987)"
       x1="370.92285"
       y1="100.34026"
       x2="372.94315"
       y2="219.56401" />
    <linearGradient
       inkscape:collect="always"
       xlink:href="#linearGradient3751"
       id="linearGradient3249"
       gradientUnits="userSpaceOnUse"
       gradientTransform="translate(-191.2468,-1956.987)"
       x1="665.12128"
       y1="684.16162"
       x2="381.28015"
       y2="449.80624" />
    <linearGradient
       inkscape:collect="always"
       xlink:href="#linearGradient5546"
       id="linearGradient3253"
       gradientUnits="userSpaceOnUse"
       gradientTransform="translate(-191.2468,-1956.987)"
       x1="859.73419"
       y1="660.78955"
       x2="1055.1357"
       y2="603.64667" />
    <linearGradient
       inkscape:collect="always"
       xlink:href="#linearGradient6499"
       id="linearGradient3266"
       gradientUnits="userSpaceOnUse"
       x1="370.92285"
       y1="100.34026"
       x2="372.94315"
       y2="219.56401"
       gradientTransform="translate(-202.6754,-2802.701)" />
    <linearGradient
       inkscape:collect="always"
       xlink:href="#linearGradient3751"
       id="linearGradient3276"
       gradientUnits="userSpaceOnUse"
       x1="665.12128"
       y1="684.16162"
       x2="381.28015"
       y2="449.80624"
       gradientTransform="translate(-202.6754,-2802.701)" />
    <linearGradient
       inkscape:collect="always"
       xlink:href="#linearGradient5546"
       id="linearGradient3283"
       gradientUnits="userSpaceOnUse"
       x1="859.73419"
       y1="660.78955"
       x2="1055.1357"
       y2="603.64667"
       gradientTransform="translate(-202.6754,-2802.701)" />
    <linearGradient
       inkscape:collect="always"
       xlink:href="#linearGradient6499"
       id="linearGradient3352"
       gradientUnits="userSpaceOnUse"
       gradientTransform="matrix(0.39611,0,0,0.39611,-2.608147,-4.061635)"
       x1="370.92285"
       y1="100.34026"
       x2="372.94315"
       y2="219.56401" />
    <linearGradient
       inkscape:collect="always"
       xlink:href="#linearGradient3751"
       id="linearGradient3383"
       gradientUnits="userSpaceOnUse"
       gradientTransform="matrix(0.760472,0,0,0.760472,-0.919047,29.31604)"
       x1="665.12128"
       y1="684.16162"
       x2="381.28015"
       y2="449.80624" />
    <linearGradient
       inkscape:collect="always"
       xlink:href="#linearGradient5546"
       id="linearGradient3385"
       gradientUnits="userSpaceOnUse"
       gradientTransform="matrix(0.760472,0,0,0.760472,-0.919047,29.31604)"
       x1="859.73419"
       y1="660.78955"
       x2="1055.1357"
       y2="603.64667" />
    <linearGradient
       inkscape:collect="always"
       xlink:href="#linearGradient6499"
       id="linearGradient3391"
       gradientUnits="userSpaceOnUse"
       gradientTransform="matrix(0.39611,0,0,0.39611,-2.608147,-4.061635)"
       x1="370.92285"
       y1="100.34026"
       x2="372.94315"
       y2="219.56401" />
    <linearGradient
       inkscape:collect="always"
       xlink:href="#linearGradient6053"
       id="linearGradient6059"
       x1="410.79538"
       y1="-305.34137"
       x2="410.79538"
       y2="-489.44443"
       gradientUnits="userSpaceOnUse"
       gradientTransform="matrix(1,0,0,0.711111,1.214456,-125.5444)" />
    <linearGradient
       inkscape:collect="always"
       xlink:href="#linearGradient6499"
       id="linearGradient2535"
       gradientUnits="userSpaceOnUse"
       gradientTransform="matrix(0.39611,0,0,0.39611,-2.608147,-4.061635)"
       x1="370.92285"
       y1="100.34026"
       x2="372.94315"
       y2="219.56401" />
    <linearGradient
       inkscape:collect="always"
       xlink:href="#linearGradient3751"
       id="linearGradient2537"
       gradientUnits="userSpaceOnUse"
       gradientTransform="matrix(0.760472,0,0,0.760472,-0.919047,29.31604)"
       x1="665.12128"
       y1="684.16162"
       x2="381.28015"
       y2="449.80624" />
    <linearGradient
       inkscape:collect="always"
       xlink:href="#linearGradient5546"
       id="linearGradient2539"
       gradientUnits="userSpaceOnUse"
       gradientTransform="matrix(0.760472,0,0,0.760472,-0.919047,29.31604)"
       x1="859.73419"
       y1="660.78955"
       x2="1055.1357"
       y2="603.64667" />
  </defs>
  <rect
     y="0.37771606"
     x="-0.076449603"
     height="801.07776"
     width="1000.5737"
     id="rect3308"
     style="fill:#81d000;fill-opacity:1;fill-rule:nonzero;stroke:none;stroke-width:3;stroke-linecap:round;stroke-linejoin:miter;marker:none;marker-start:none;marker-mid:none;marker-end:none;stroke-miterlimit:4;stroke-dasharray:none;stroke-dashoffset:0;stroke-opacity:1;visibility:visible;display:block;overflow:visible" />
  <path
     transform="matrix(0.6191024,-0.2559732,0.2559732,0.6191024,-54.245043,512.09421)"
     d="M 179.80715,418.82535 L 136.01242,395.47879 L 87.954791,407.86853 L 96.625376,359.00278 L 69.991407,317.1259 L 119.14486,310.27177 L 150.74179,272.0007 L 172.4497,316.63036 L 218.61165,334.85441 L 182.87443,369.29119 L 179.80715,418.82535 z"
     inkscape:randomized="0"
     inkscape:rounded="0"
     inkscape:flatsided="false"
     sodipodi:arg2="1.6895226"
     sodipodi:arg1="1.0612041"
     sodipodi:r2="45.665279"
     sodipodi:r1="78.688225"
     sodipodi:cy="350.13498"
     sodipodi:cx="141.42136"
     sodipodi:sides="5"
     id="path3320"
     style="opacity:0.22790701;fill:#ffffff;fill-opacity:1;fill-rule:nonzero;stroke:#ffffff;stroke-width:1.70000005;stroke-linecap:round;stroke-linejoin:round;marker:none;marker-start:none;marker-mid:none;marker-end:none;stroke-miterlimit:4;stroke-dasharray:none;stroke-dashoffset:0;stroke-opacity:1;visibility:visible;display:block;overflow:visible"
     sodipodi:type="star" />
  <path
     sodipodi:type="star"
     style="opacity:0.22790701;fill:#ffffff;fill-opacity:1;fill-rule:nonzero;stroke:#ffffff;stroke-width:1.70000005;stroke-linecap:round;stroke-linejoin:round;marker:none;marker-start:none;marker-mid:none;marker-end:none;stroke-miterlimit:4;stroke-dasharray:none;stroke-dashoffset:0;stroke-opacity:1;visibility:visible;display:block;overflow:visible"
     id="path3322"
     sodipodi:sides="5"
     sodipodi:cx="141.42136"
     sodipodi:cy="350.13498"
     sodipodi:r1="78.688225"
     sodipodi:r2="45.665279"
     sodipodi:arg1="1.0612041"
     sodipodi:arg2="1.6895226"
     inkscape:flatsided="false"
     inkscape:rounded="0"
     inkscape:randomized="0"
     d="M 179.80715,418.82535 L 136.01242,395.47879 L 87.954791,407.86853 L 96.625376,359.00278 L 69.991407,317.1259 L 119.14486,310.27177 L 150.74179,272.0007 L 172.4497,316.63036 L 218.61165,334.85441 L 182.87443,369.29119 L 179.80715,418.82535 z"
     transform="matrix(0.5385617,1.6015754e-2,-1.6015754e-2,0.5385617,-3.6537533,441.63111)" />
  <path
     transform="matrix(0.3865,-0.1970372,0.1970372,0.3865,6.0105313,479.00657)"
     d="M 179.80715,418.82535 L 136.01242,395.47879 L 87.954791,407.86853 L 96.625376,359.00278 L 69.991407,317.1259 L 119.14486,310.27177 L 150.74179,272.0007 L 172.4497,316.63036 L 218.61165,334.85441 L 182.87443,369.29119 L 179.80715,418.82535 z"
     inkscape:randomized="0"
     inkscape:rounded="0"
     inkscape:flatsided="false"
     sodipodi:arg2="1.6895226"
     sodipodi:arg1="1.0612041"
     sodipodi:r2="45.665279"
     sodipodi:r1="78.688225"
     sodipodi:cy="350.13498"
     sodipodi:cx="141.42136"
     sodipodi:sides="5"
     id="path3324"
     style="opacity:0.22790701;fill:#ffffff;fill-opacity:1;fill-rule:nonzero;stroke:#ffffff;stroke-width:1.70000005;stroke-linecap:round;stroke-linejoin:round;marker:none;marker-start:none;marker-mid:none;marker-end:none;stroke-miterlimit:4;stroke-dasharray:none;stroke-dashoffset:0;stroke-opacity:1;visibility:visible;display:block;overflow:visible"
     sodipodi:type="star" />
  <path
     sodipodi:type="star"
     style="opacity:0.22790701;fill:#ffffff;fill-opacity:1;fill-rule:nonzero;stroke:#ffffff;stroke-width:1.70000005;stroke-linecap:round;stroke-linejoin:round;marker:none;marker-start:none;marker-mid:none;marker-end:none;stroke-miterlimit:4;stroke-dasharray:none;stroke-dashoffset:0;stroke-opacity:1;visibility:visible;display:block;overflow:visible"
     id="path3326"
     sodipodi:sides="5"
     sodipodi:cx="141.42136"
     sodipodi:cy="350.13498"
     sodipodi:r1="78.688225"
     sodipodi:r2="45.665279"
     sodipodi:arg1="1.0612041"
     sodipodi:arg2="1.6895226"
     inkscape:flatsided="false"
     inkscape:rounded="0"
     inkscape:randomized="0"
     d="M 179.80715,418.82535 L 136.01242,395.47879 L 87.954791,407.86853 L 96.625376,359.00278 L 69.991407,317.1259 L 119.14486,310.27177 L 150.74179,272.0007 L 172.4497,316.63036 L 218.61165,334.85441 L 182.87443,369.29119 L 179.80715,418.82535 z"
     transform="matrix(0.2736662,6.8300719e-2,-6.8300719e-2,0.2736662,68.153515,442.42114)" />
  <path
     transform="matrix(0.2054506,1.2480444e-2,-1.2480444e-2,0.2054506,105.42846,454.08752)"
     d="M 179.80715,418.82535 L 136.01242,395.47879 L 87.954791,407.86853 L 96.625376,359.00278 L 69.991407,317.1259 L 119.14486,310.27177 L 150.74179,272.0007 L 172.4497,316.63036 L 218.61165,334.85441 L 182.87443,369.29119 L 179.80715,418.82535 z"
     inkscape:randomized="0"
     inkscape:rounded="0"
     inkscape:flatsided="false"
     sodipodi:arg2="1.6895226"
     sodipodi:arg1="1.0612041"
     sodipodi:r2="45.665279"
     sodipodi:r1="78.688225"
     sodipodi:cy="350.13498"
     sodipodi:cx="141.42136"
     sodipodi:sides="5"
     id="path3328"
     style="opacity:0.22790701;fill:#ffffff;fill-opacity:1;fill-rule:nonzero;stroke:#ffffff;stroke-width:1.70000005;stroke-linecap:round;stroke-linejoin:round;marker:none;marker-start:none;marker-mid:none;marker-end:none;stroke-miterlimit:4;stroke-dasharray:none;stroke-dashoffset:0;stroke-opacity:1;visibility:visible;display:block;overflow:visible"
     sodipodi:type="star" />
  <path
     sodipodi:type="star"
     style="opacity:0.22790701;fill:#ffffff;fill-opacity:1;fill-rule:nonzero;stroke:#ffffff;stroke-width:1.70000005;stroke-linecap:round;stroke-linejoin:round;marker:none;marker-start:none;marker-mid:none;marker-end:none;stroke-miterlimit:4;stroke-dasharray:none;stroke-dashoffset:0;stroke-opacity:1;visibility:visible;display:block;overflow:visible"
     id="path3332"
     sodipodi:sides="5"
     sodipodi:cx="141.42136"
     sodipodi:cy="350.13498"
     sodipodi:r1="78.688225"
     sodipodi:r2="45.665279"
     sodipodi:arg1="1.0612041"
     sodipodi:arg2="1.6895226"
     inkscape:flatsided="false"
     inkscape:rounded="0"
     inkscape:randomized="0"
     d="M 179.80715,418.82535 L 136.01242,395.47879 L 87.954791,407.86853 L 96.625376,359.00278 L 69.991407,317.1259 L 119.14486,310.27177 L 150.74179,272.0007 L 172.4497,316.63036 L 218.61165,334.85441 L 182.87443,369.29119 L 179.80715,418.82535 z"
     transform="matrix(0.9585086,6.4991114e-2,-6.4991114e-2,0.9585086,-59.949422,434.03228)" />
  <path
     sodipodi:type="star"
     style="fill:#ffffff;fill-opacity:1;stroke:#395529;stroke-width:7.24305201;stroke-linecap:square;stroke-linejoin:miter;stroke-miterlimit:4;stroke-dasharray:none;stroke-opacity:1"
     id="path2008"
     sodipodi:sides="3"
     sodipodi:cx="292.94424"
     sodipodi:cy="255.42574"
     sodipodi:r1="46.683941"
     sodipodi:r2="23.34197"
     sodipodi:arg1="-1.0471976"
     sodipodi:arg2="0"
     inkscape:flatsided="false"
     inkscape:rounded="0"
     inkscape:randomized="0"
     d="M 316.28621,214.99626 L 316.28621,255.42574 L 316.28622,295.85521 L 281.27326,275.64047 L 246.2603,255.42574 L 281.27326,235.211 L 316.28621,214.99626 z"
     transform="matrix(1.2925121,0,0,1.1193484,-298.41784,151.01807)" />
  <path
     sodipodi:type="star"
     style="fill:#ffffff;fill-opacity:1;stroke:#395529;stroke-width:7.24305201;stroke-linecap:square;stroke-linejoin:miter;stroke-miterlimit:4;stroke-dasharray:none;stroke-opacity:1"
     id="path2012"
     sodipodi:sides="3"
     sodipodi:cx="292.94424"
     sodipodi:cy="255.42574"
     sodipodi:r1="46.683941"
     sodipodi:r2="23.34197"
     sodipodi:arg1="-1.0471976"
     sodipodi:arg2="0"
     inkscape:flatsided="false"
     inkscape:rounded="0"
     inkscape:randomized="0"
     d="M 316.28621,214.99626 L 316.28621,255.42574 L 316.28622,295.85521 L 281.27326,275.64047 L 246.2603,255.42574 L 281.27326,235.211 L 316.28621,214.99626 z"
     transform="matrix(-1.2925121,0,0,1.1193484,1301.0731,151.01807)" />
  <path
     sodipodi:type="star"
     style="fill:#ffffff;fill-opacity:1;stroke:#395529;stroke-width:11.2752142;stroke-linecap:butt;stroke-linejoin:miter;stroke-miterlimit:4;stroke-dasharray:none;stroke-opacity:1"
     id="path2022"
     sodipodi:sides="3"
     sodipodi:cx="368.14447"
     sodipodi:cy="451.8443"
     sodipodi:r1="34.576225"
     sodipodi:r2="17.288113"
     sodipodi:arg1="0.52359878"
     sodipodi:arg2="1.5707963"
     inkscape:flatsided="false"
     inkscape:rounded="0"
     inkscape:randomized="0"
     d="M 398.08836,469.13241 L 368.14447,469.13241 L 338.20058,469.13241 L 353.17253,443.20024 L 368.14447,417.26807 L 383.11641,443.20024 L 398.08836,469.13241 z"
     transform="matrix(0.7618808,0,0,0.399807,220.8454,65.065543)" />
  <path
     sodipodi:type="star"
     style="fill:#ffffff;fill-opacity:1;stroke:#395529;stroke-width:11.2752142;stroke-linecap:butt;stroke-linejoin:miter;stroke-miterlimit:4;stroke-dasharray:none;stroke-opacity:1"
     id="path2024"
     sodipodi:sides="3"
     sodipodi:cx="368.14447"
     sodipodi:cy="451.8443"
     sodipodi:r1="34.576225"
     sodipodi:r2="17.288113"
     sodipodi:arg1="0.52359878"
     sodipodi:arg2="1.5707963"
     inkscape:flatsided="false"
     inkscape:rounded="0"
     inkscape:randomized="0"
     d="M 398.08836,469.13241 L 368.14447,469.13241 L 338.20058,469.13241 L 353.17253,443.20024 L 368.14447,417.26807 L 383.11641,443.20024 L 398.08836,469.13241 z"
     transform="matrix(0.7618808,0,0,-0.399807,220.8454,516.72961)" />
  <rect
     style="fill:#a0db3e;fill-opacity:1;stroke:none;stroke-width:5;stroke-linecap:butt;stroke-linejoin:miter;stroke-miterlimit:4;stroke-dasharray:none;stroke-opacity:1"
     id="rect6085"
     width="1004.3772"
     height="51.685619"
     x="-2.0927958"
     y="152.00577"
     ry="0" />
  <rect
     style="fill:#ffffff;fill-opacity:0.24338624"
     id="rect3394"
     width="681.09833"
     height="119.03713"
     x="160.64886"
     y="378.90302"
     ry="43.971508"
     rx="39.51054" />
  <path
     sodipodi:type="star"
     style="opacity:0.22790701;fill:#ffffff;fill-opacity:1;fill-rule:nonzero;stroke:#ffffff;stroke-width:1.70000005;stroke-linecap:round;stroke-linejoin:round;marker:none;marker-start:none;marker-mid:none;marker-end:none;stroke-miterlimit:4;stroke-dasharray:none;stroke-dashoffset:0;stroke-opacity:1;visibility:visible;display:block;overflow:visible"
     id="path6065"
     sodipodi:sides="5"
     sodipodi:cx="141.42136"
     sodipodi:cy="350.13498"
     sodipodi:r1="78.688225"
     sodipodi:r2="45.665279"
     sodipodi:arg1="1.0612041"
     sodipodi:arg2="1.6895226"
     inkscape:flatsided="false"
     inkscape:rounded="0"
     inkscape:randomized="0"
     d="M 179.80715,418.82535 L 136.01242,395.47879 L 87.954791,407.86853 L 96.625376,359.00278 L 69.991407,317.1259 L 119.14486,310.27177 L 150.74179,272.0007 L 172.4497,316.63036 L 218.61165,334.85441 L 182.87443,369.29119 L 179.80715,418.82535 z"
     transform="matrix(-0.6191024,-0.2559732,-0.2559732,0.6191024,1052.4669,517.68195)" />
  <path
     transform="matrix(-0.5385617,1.6015754e-2,1.6015754e-2,0.5385617,997.93497,440.32275)"
     d="M 179.80715,418.82535 L 136.01242,395.47879 L 87.954791,407.86853 L 96.625376,359.00278 L 69.991407,317.1259 L 119.14486,310.27177 L 150.74179,272.0007 L 172.4497,316.63036 L 218.61165,334.85441 L 182.87443,369.29119 L 179.80715,418.82535 z"
     inkscape:randomized="0"
     inkscape:rounded="0"
     inkscape:flatsided="false"
     sodipodi:arg2="1.6895226"
     sodipodi:arg1="1.0612041"
     sodipodi:r2="45.665279"
     sodipodi:r1="78.688225"
     sodipodi:cy="350.13498"
     sodipodi:cx="141.42136"
     sodipodi:sides="5"
     id="path6067"
     style="opacity:0.22790701;fill:#ffffff;fill-opacity:1;fill-rule:nonzero;stroke:#ffffff;stroke-width:1.70000005;stroke-linecap:round;stroke-linejoin:round;marker:none;marker-start:none;marker-mid:none;marker-end:none;stroke-miterlimit:4;stroke-dasharray:none;stroke-dashoffset:0;stroke-opacity:1;visibility:visible;display:block;overflow:visible"
     sodipodi:type="star" />
  <path
     sodipodi:type="star"
     style="opacity:0.22790701;fill:#ffffff;fill-opacity:1;fill-rule:nonzero;stroke:#ffffff;stroke-width:1.70000005;stroke-linecap:round;stroke-linejoin:round;marker:none;marker-start:none;marker-mid:none;marker-end:none;stroke-miterlimit:4;stroke-dasharray:none;stroke-dashoffset:0;stroke-opacity:1;visibility:visible;display:block;overflow:visible"
     id="path6069"
     sodipodi:sides="5"
     sodipodi:cx="141.42136"
     sodipodi:cy="350.13498"
     sodipodi:r1="78.688225"
     sodipodi:r2="45.665279"
     sodipodi:arg1="1.0612041"
     sodipodi:arg2="1.6895226"
     inkscape:flatsided="false"
     inkscape:rounded="0"
     inkscape:randomized="0"
     d="M 179.80715,418.82535 L 136.01242,395.47879 L 87.954791,407.86853 L 96.625376,359.00278 L 69.991407,317.1259 L 119.14486,310.27177 L 150.74179,272.0007 L 172.4497,316.63036 L 218.61165,334.85441 L 182.87443,369.29119 L 179.80715,418.82535 z"
     transform="matrix(-0.3865,-0.1970372,-0.1970372,0.3865,997.13713,477.69821)" />
  <path
     transform="matrix(-0.2736662,6.8300719e-2,6.8300719e-2,0.2736662,935.97927,443.0831)"
     d="M 179.80715,418.82535 L 136.01242,395.47879 L 87.954791,407.86853 L 96.625376,359.00278 L 69.991407,317.1259 L 119.14486,310.27177 L 150.74179,272.0007 L 172.4497,316.63036 L 218.61165,334.85441 L 182.87443,369.29119 L 179.80715,418.82535 z"
     inkscape:randomized="0"
     inkscape:rounded="0"
     inkscape:flatsided="false"
     sodipodi:arg2="1.6895226"
     sodipodi:arg1="1.0612041"
     sodipodi:r2="45.665279"
     sodipodi:r1="78.688225"
     sodipodi:cy="350.13498"
     sodipodi:cx="141.42136"
     sodipodi:sides="5"
     id="path6071"
     style="opacity:0.22790701;fill:#ffffff;fill-opacity:1;fill-rule:nonzero;stroke:#ffffff;stroke-width:1.70000005;stroke-linecap:round;stroke-linejoin:round;marker:none;marker-start:none;marker-mid:none;marker-end:none;stroke-miterlimit:4;stroke-dasharray:none;stroke-dashoffset:0;stroke-opacity:1;visibility:visible;display:block;overflow:visible"
     sodipodi:type="star" />
  <path
     sodipodi:type="star"
     style="opacity:0.22790701;fill:#ffffff;fill-opacity:1;fill-rule:nonzero;stroke:#ffffff;stroke-width:1.70000005;stroke-linecap:round;stroke-linejoin:round;marker:none;marker-start:none;marker-mid:none;marker-end:none;stroke-miterlimit:4;stroke-dasharray:none;stroke-dashoffset:0;stroke-opacity:1;visibility:visible;display:block;overflow:visible"
     id="path6073"
     sodipodi:sides="5"
     sodipodi:cx="141.42136"
     sodipodi:cy="350.13498"
     sodipodi:r1="78.688225"
     sodipodi:r2="45.665279"
     sodipodi:arg1="1.0612041"
     sodipodi:arg2="1.6895226"
     inkscape:flatsided="false"
     inkscape:rounded="0"
     inkscape:randomized="0"
     d="M 179.80715,418.82535 L 136.01242,395.47879 L 87.954791,407.86853 L 96.625376,359.00278 L 69.991407,317.1259 L 119.14486,310.27177 L 150.74179,272.0007 L 172.4497,316.63036 L 218.61165,334.85441 L 182.87443,369.29119 L 179.80715,418.82535 z"
     transform="matrix(-0.2054506,1.2480444e-2,1.2480444e-2,0.2054506,902.64492,445.75794)" />
  <path
     transform="matrix(-0.9585086,6.4991114e-2,6.4991114e-2,0.9585086,1058.1713,439.62002)"
     d="M 179.80715,418.82535 L 136.01242,395.47879 L 87.954791,407.86853 L 96.625376,359.00278 L 69.991407,317.1259 L 119.14486,310.27177 L 150.74179,272.0007 L 172.4497,316.63036 L 218.61165,334.85441 L 182.87443,369.29119 L 179.80715,418.82535 z"
     inkscape:randomized="0"
     inkscape:rounded="0"
     inkscape:flatsided="false"
     sodipodi:arg2="1.6895226"
     sodipodi:arg1="1.0612041"
     sodipodi:r2="45.665279"
     sodipodi:r1="78.688225"
     sodipodi:cy="350.13498"
     sodipodi:cx="141.42136"
     sodipodi:sides="5"
     id="path6075"
     style="opacity:0.22790701;fill:#ffffff;fill-opacity:1;fill-rule:nonzero;stroke:#ffffff;stroke-width:1.70000005;stroke-linecap:round;stroke-linejoin:round;marker:none;marker-start:none;marker-mid:none;marker-end:none;stroke-miterlimit:4;stroke-dasharray:none;stroke-dashoffset:0;stroke-opacity:1;visibility:visible;display:block;overflow:visible"
     sodipodi:type="star" />
  <g
     id="g3376"
     transform="matrix(0.4945508,0,0,0.4945508,595.14535,-60.547252)">
    <path
       id="path3314"
       d="M 300.23844,440.2488 L 289.26954,440.2488 L 292.21561,442.40398 L 300.0633,444.77467 L 305.1342,447.36096 L 296.56589,446.06785 L 284.46853,442.83501 L 273.08905,441.97294 L 265.65202,440.46432 L 253.82744,438.95569 L 230.11219,432.92112 L 223.97884,430.11931 L 230.56589,423.22267 L 246.16059,425.16233 L 251.40389,426.67103 L 255.51576,428.39517 L 261.85589,429.90379 L 268.88235,430.55035 L 269.63742,429.25724 L 266.58801,427.74862 L 261.85871,426.45551 L 257.02614,425.80888 L 252.26239,424.73129 L 255.14245,423.86922 L 248.90566,421.71404 L 245.8218,420.42094 L 239.44722,419.12775 L 233.17591,417.18809 L 225.0527,416.54154 L 218.54024,416.1105 L 214.73271,419.34327 L 196.45895,423.86922 L 196.04548,426.45551 L 194.70743,427.96413 L 201.83435,431.41242 L 208.14003,433.13664 L 227.50218,438.95569 L 247.4816,444.34364 L 264.41161,448.22303 L 270.84939,455.98175 L 284.89363,467.61986 L 289.00269,472.79236 L 291.22525,479.47349 L 297.87268,482.49081 L 296.91069,485.07703 L 317.13133,488.95642 L 325.18291,493.48229 L 350.43719,503.61178 L 383.12851,515.24989 L 412.73597,525.5949 L 426.44416,529.04318 L 449.02805,535.29327 L 478.05534,542.40544 L 492.13974,546.93138 L 503.14027,550.16415 L 506.1179,555.55217 L 495.24954,558.35398 L 498.74421,560.50916 L 531.17127,560.07812 L 534.4591,563.52648 L 545.6318,565.68166 L 563.07862,566.32821 L 565.41304,562.01778 L 555.40904,555.98328 L 550.20307,550.81078 L 551.78234,547.79346 L 546.30071,544.34517 L 536.46324,544.12965 L 536.84226,541.75888 L 528.37441,543.26751 L 528.92567,539.81922 L 520.80239,539.17267 L 510.21259,536.8019 L 486.05224,530.12077 L 451.95108,523.87068 L 447.08398,523.43964 L 447.83921,522.14654 L 438.55293,518.48266 L 434.6822,515.24989 L 431.90557,515.46541 L 428.17272,511.3705 L 418.40689,507.27566 L 417.1061,505.12041 L 410.42429,502.31868 L 408.37117,498.00824 L 400.18187,494.34444 L 391.3407,491.32712 L 386.95597,487.87876 L 384.66163,485.07703 L 380.54975,483.35288 L 384.97182,483.13737 L 385.24742,481.41315 L 378.80683,477.10279 L 378.33009,473.2234 L 385.15259,471.71477 L 396.87374,473.86995 L 417.40458,475.80969 L 436.18657,478.3959 L 449.41528,481.41315 L 460.86366,481.84418 L 507.13397,487.44772 L 529.78957,489.81849 L 553.26641,493.91333 L 555.52919,493.48229 L 552.44525,492.18919 L 539.11311,489.81849 L 557.51904,491.32712 L 556.59438,490.24953 L 550.21988,488.95642 L 555.70425,488.95642 L 553.16884,487.66324 L 541.24083,486.80117 L 546.86308,485.9391 L 543.26513,484.43047 L 540.00902,484.21495 L 532.29631,484.43047 L 523.1451,483.35288 L 516.70154,482.49081 L 518.14302,480.33556 L 516.19043,478.82693 L 512.52359,477.74935 L 507.51869,478.18038 L 501.07232,480.76659 L 502.51091,482.0597 L 497.09543,481.62867 L 472.96672,478.18038 L 466.76447,475.80969 L 452.81505,473.86995 L 429.20034,470.63718 L 427.93119,471.71477 L 424.8817,470.20615 L 408.39679,466.97331 L 398.66268,466.11123 L 383.82305,462.87839 L 379.05938,461.8008 L 390.81499,463.74054 L 384.57828,461.58529 L 392.63259,462.66287 L 383.27742,459.43011 L 397.63748,462.23184 L 389.72097,460.29218 L 400.48309,461.58529 L 385.16399,457.92148 L 391.64192,458.56804 L 381.22437,455.11968 L 388.1474,456.41278 L 374.95314,453.18002 L 381.97952,453.82657 L 370.87564,451.24036 L 376.94299,451.02476 L 365.70139,449.30062 L 368.03292,448.43855 L 362.58299,448.22303 L 363.51039,445.85234 L 357.99157,446.06785 L 354.94208,444.55915 L 345.21077,440.2488 L 349.11595,443.26605 L 334.9971,438.95569 L 343.7693,442.40398 L 342.08949,442.61949 L 336.60512,442.61949 L 322.3484,439.17121 L 316.3155,439.17121 L 303.53196,436.80044 L 303.32512,438.09354 L 300.23844,440.2488 z"
       style="opacity:0.22790701;fill:url(#linearGradient2537);fill-opacity:1;fill-rule:evenodd;stroke:none;stroke-width:0.44754833px;stroke-linecap:butt;stroke-linejoin:miter;stroke-opacity:1" />
    <g
       id="g3369">
      <path
         sodipodi:nodetypes="ccccccccc"
         style="fill:none;fill-opacity:0.75;fill-rule:evenodd;stroke:url(#linearGradient2539);stroke-width:1.29280245;stroke-linecap:round;stroke-linejoin:round;stroke-miterlimit:4;stroke-dasharray:none;stroke-opacity:1"
         d="M 550.32422,401.88093 C 558.78226,444.82258 577.76296,488.79999 615.45134,513.79465 C 649.19523,536.77589 690.78484,547.09664 731.30819,546.60134 C 748.76132,545.05659 765.81354,540.42943 783.33922,539.52462 C 805.8857,536.75072 807.6103,524.78051 782.05243,528.35891 C 765.03687,525.38554 733.57744,543.81809 726.01249,522.01231 C 729.5391,514.76715 784.28594,521.93011 766.27469,507.45582 C 716.50218,500.71469 827.8876,494.92506 858.60268,488.13686 L 861.67347,487.40955"
         id="path3310" />
      <path
         id="path3312"
         d="M 589.25597,257.89309 L 578.29438,257.89309 L 576.10209,263.37389 L 578.29438,269.40276 L 577.19823,275.97962 L 571.71751,272.69119 L 567.33286,264.47003 L 558.01555,262.27774 L 554.17905,258.44116 L 545.95789,254.60466 L 536.64051,239.25848 L 537.18866,232.13347 L 560.20792,214.59501 L 571.16936,219.52773 L 572.81365,223.36424 L 572.81365,227.74889 L 575.55402,231.5854 L 581.03481,233.22969 L 584.87132,229.94118 L 585.41939,226.10467 L 583.77517,222.81617 L 580.48674,221.17195 L 578.29438,218.43159 L 583.2271,216.2393 L 582.13096,210.7585 L 582.13096,207.46999 L 578.84252,204.18156 L 577.19823,199.24891 L 570.62137,197.60462 L 565.14057,196.50847 L 553.6309,204.72963 L 524.58285,216.2393 L 518.0059,222.81617 L 513.07318,226.65275 L 511.97703,235.42198 L 514.1694,239.80655 L 519.6502,254.60466 L 526.77514,268.30661 L 534.44822,278.17199 L 522.39056,297.90274 L 508.6886,327.49886 L 500.46744,340.65275 L 486.76556,357.64314 L 486.21749,365.31622 L 479.09248,371.89316 L 490.054,381.75854 L 487.31364,393.26813 L 488.40978,419.02775 L 493.34243,448.62395 L 498.27515,474.93165 L 503.75588,483.70088 L 511.42904,499.59512 L 523.4867,517.68165 L 526.77514,529.19125 L 530.06364,537.4124 L 520.19819,551.11429 L 502.65973,558.2393 L 501.01552,563.7201 L 534.44822,562.62395 L 529.51557,571.39318 L 535.54437,576.87391 L 551.43861,578.5182 L 564.04435,567.5566 L 568.42908,552.21051 L 575.55402,539.05662 L 584.32325,531.38361 L 587.06361,522.6143 L 577.74638,522.06623 L 583.77517,516.03736 L 571.71751,519.87394 L 580.48674,511.10471 L 573.9098,509.4605 L 568.97707,503.43163 L 560.75591,486.44124 L 541.57324,470.54699 L 537.73673,469.45085 L 541.57324,466.16241 L 541.02516,456.84511 L 544.86175,448.62395 L 541.57324,449.17202 L 547.60211,438.7585 L 547.60211,428.34505 L 551.43861,422.86433 L 551.43861,415.73932 L 559.65977,404.77772 L 560.20792,395.46042 L 558.56363,387.78733 L 562.40021,379.0181 L 566.78478,371.89316 L 566.78478,367.50851 L 571.71751,366.96044 L 576.10209,362.57586 L 579.93867,351.61427 L 588.7079,341.74889 L 599.12135,337.91239 L 605.69821,343.39311 L 621.59253,348.32583 L 634.19827,354.90278 L 640.22706,362.57586 L 650.64051,363.67201 L 683.52522,377.92196 L 700.51553,383.95083 L 714.21749,394.36428 L 717.506,393.26813 L 717.506,389.9797 L 709.83284,383.95083 L 724.63094,387.78733 L 726.27523,385.04697 L 722.98672,381.75854 L 728.46752,381.75854 L 729.01559,378.47003 L 719.15022,376.27774 L 726.82323,374.08545 L 726.82323,370.24887 L 724.08287,369.7008 L 715.86171,370.24887 L 709.28484,367.50851 L 704.90019,365.31622 L 711.47713,359.83542 L 713.12135,355.99892 L 712.0252,353.25848 L 705.99633,354.3547 L 693.39052,360.93157 L 691.74638,364.22008 L 687.36173,363.12393 L 671.46748,354.3547 L 670.91941,348.32583 L 661.60211,343.39311 L 645.70786,335.17195 L 641.87136,337.91239 L 642.41943,334.0758 L 633.6502,325.85465 L 625.97711,323.66236 L 618.8521,315.4412 L 616.65981,312.70084 L 623.78482,317.63349 L 622.68868,312.15277 L 628.1694,314.89313 L 626.52518,306.67197 L 634.19827,313.79698 L 630.90984,308.86426 L 638.58285,312.15277 L 632.00598,302.83546 L 636.93863,304.47968 L 634.74634,295.71045 L 638.58285,298.99888 L 633.10213,290.77772 L 638.58285,292.42194 L 633.6502,285.84507 L 640.22706,285.297 L 633.10213,280.91235 L 637.4867,278.72006 L 632.55398,278.17199 L 639.13092,272.14312 L 633.10213,272.69119 L 633.6502,268.85468 L 634.19827,257.89309 L 630.90984,265.56617 L 627.07326,254.60466 L 627.62133,263.37389 L 625.42904,263.92196 L 619.94824,263.92196 L 613.91937,255.15273 L 607.89058,255.15273 L 600.76556,249.12386 L 597.47705,252.41237 L 589.25597,257.89309 z"
         style="fill:#000000;fill-opacity:1;fill-rule:evenodd;stroke:#000000;stroke-width:0.54256862px;stroke-linecap:butt;stroke-linejoin:miter;stroke-opacity:1" />
      <path
         sodipodi:nodetypes="cccc"
         id="path3316"
         d="M 570.61635,195.71903 C 549.15727,187.78723 537.62715,217.5064 544.69573,234.13465 C 547.24202,255.12543 547.69831,277.16162 542.13804,297.58691 C 531.67143,308.56577 504.50768,315.6044 504.89803,334.02896"
         style="fill:none;fill-opacity:0.75;fill-rule:evenodd;stroke:#ffffff;stroke-width:1.29280245;stroke-linecap:round;stroke-linejoin:round;stroke-miterlimit:4;stroke-dasharray:none;stroke-opacity:1" />
    </g>
  </g>
  <g
     id="g3252"
     transform="matrix(0.7343877,0,0,0.7343877,-27.808193,-35.820627)">
    <path
       id="text2444"
       d="M 88.734136,110.05561 L 88.734136,146.21134 L 99.480182,146.21134 C 103.45703,146.21139 106.53136,144.64314 108.70317,141.50659 C 110.8749,138.37014 111.96079,133.9017 111.96083,128.10125 C 111.96079,122.34391 110.8749,117.89695 108.70317,114.76037 C 106.53136,111.62395 103.45703,110.0557 99.480182,110.05561 L 88.734136,110.05561 M 80.188067,99.357128 L 99.480182,99.357128 C 106.55957,99.357224 111.90438,101.80627 115.51464,106.70428 C 119.15302,111.5595 120.97223,118.69182 120.97228,128.10125 C 120.97223,137.59675 119.15302,144.77203 115.51464,149.62713 C 111.90438,154.4823 106.55957,156.90987 99.480182,156.90983 L 88.734136,156.90983 L 88.734136,195.57906 L 80.188067,195.57906 L 80.188067,99.357128 M 169.62565,156.52313 L 169.62565,162.32352 L 133.8337,162.32352 C 134.17214,170.48705 135.77981,176.71709 138.65672,181.01365 C 141.5618,185.26727 145.59509,187.39408 150.7566,187.39406 C 153.74628,187.39408 156.63728,186.83552 159.42959,185.7184 C 162.25003,184.6013 165.04232,182.92563 167.80643,180.6914 L 167.80643,191.90548 C 165.01411,193.71004 162.15132,195.08495 159.21805,196.0302 C 156.28472,196.97544 153.30911,197.44807 150.29122,197.44807 C 142.7323,197.44807 136.73878,194.09674 132.31063,187.39406 C 127.91067,180.69141 125.71069,171.62564 125.7107,160.19671 C 125.71069,148.38116 127.79784,139.01462 131.97217,132.09708 C 136.17468,125.13668 141.82975,121.65646 148.93739,121.65638 C 155.31165,121.65646 160.34621,124.79296 164.04109,131.0659 C 167.76408,137.29599 169.6256,145.78174 169.62565,156.52313 M 161.84111,153.04291 C 161.78465,146.55511 160.58596,141.37774 158.24499,137.51076 C 155.93215,133.6439 152.85783,131.71044 149.02201,131.71038 C 144.67843,131.71044 141.19514,133.57945 138.57211,137.31742 C 135.97724,141.0555 134.48239,146.31881 134.08754,153.10735 L 161.84111,153.04291 M 209.85987,134.48168 C 208.98548,133.70836 208.02652,133.1498 206.98298,132.80602 C 205.96757,132.41938 204.83938,132.22603 203.59839,132.22597 C 199.19841,132.22603 195.81383,134.41729 193.44465,138.79974 C 191.10363,143.13934 189.93313,149.39085 189.93314,157.55431 L 189.93314,195.57906 L 182.1063,195.57906 L 182.1063,123.3965 L 189.93314,123.3965 L 189.93314,134.61057 C 191.56901,130.22813 193.69847,126.98422 196.32154,124.87881 C 198.94457,122.7306 202.13171,121.65646 205.88299,121.65638 C 206.41885,121.65646 207.01115,121.72091 207.65989,121.84973 C 208.30857,121.93573 209.02779,122.08611 209.81756,122.30087 L 209.85987,134.48168 M 242.09801,95.296859 L 242.09801,105.15751 L 234.65193,105.15751 C 231.85963,105.1576 229.91349,106.01692 228.81353,107.73546 C 227.74173,109.45418 227.20584,112.54771 227.20585,117.01608 L 227.20585,123.3965 L 240.02496,123.3965 L 240.02496,132.61266 L 227.20585,132.61266 L 227.20585,195.57906 L 219.379,195.57906 L 219.379,132.61266 L 211.93292,132.61266 L 211.93292,123.3965 L 219.379,123.3965 L 219.379,118.3695 C 219.379,110.33498 220.6059,104.49163 223.05974,100.83945 C 225.51355,97.144487 229.40581,95.296959 234.73654,95.296859 L 242.09801,95.296859 M 266.93237,131.71038 C 262.75803,131.71044 259.45807,134.20246 257.03247,139.18643 C 254.60684,144.12755 253.39403,150.91614 253.39404,159.55223 C 253.39403,168.18838 254.59274,174.99846 256.99017,179.98247 C 259.41576,184.92355 262.72983,187.39408 266.93237,187.39406 C 271.07845,187.39408 274.36431,184.90206 276.78997,179.91801 C 279.21554,174.934 280.42835,168.14541 280.42839,159.55223 C 280.42835,151.00207 279.21554,144.23497 276.78997,139.25088 C 274.36431,134.22395 271.07845,131.71044 266.93237,131.71038 M 266.93237,121.65638 C 273.7015,121.65646 279.01811,125.00779 282.88221,131.71038 C 286.74623,138.41311 288.67827,147.69371 288.67831,159.55223 C 288.67827,171.36784 286.74623,180.64845 282.88221,187.39406 C 279.01811,194.09674 273.7015,197.44807 266.93237,197.44807 C 260.13498,197.44807 254.80427,194.09674 250.94022,187.39406 C 247.10436,180.64845 245.18643,171.36784 245.18643,159.55223 C 245.18643,147.69371 247.10436,138.41311 250.94022,131.71038 C 254.80427,125.00779 260.13498,121.65646 266.93237,121.65638 M 328.99715,134.48168 C 328.12276,133.70836 327.1638,133.1498 326.12025,132.80602 C 325.10484,132.41938 323.97665,132.22603 322.73567,132.22597 C 318.33569,132.22603 314.95111,134.41729 312.58192,138.79974 C 310.2409,143.13934 309.0704,149.39085 309.07042,157.55431 L 309.07042,195.57906 L 301.24358,195.57906 L 301.24358,123.3965 L 309.07042,123.3965 L 309.07042,134.61057 C 310.70628,130.22813 312.83575,126.98422 315.45882,124.87881 C 318.08184,122.7306 321.26899,121.65646 325.02027,121.65638 C 325.55613,121.65646 326.14843,121.72091 326.79716,121.84973 C 327.44585,121.93573 328.16507,122.08611 328.95484,122.30087 L 328.99715,134.48168 M 372.61596,137.25297 C 374.56205,131.92527 376.88895,127.99391 379.59666,125.45886 C 382.30427,122.92395 385.49141,121.65646 389.15811,121.65638 C 394.09389,121.65646 397.90154,124.29886 400.58107,129.58358 C 403.26045,134.82547 404.60019,142.3015 404.60026,152.01173 L 404.60026,195.57906 L 396.77342,195.57906 L 396.77342,152.39841 C 396.77334,145.48097 395.96951,140.34657 394.3619,136.99517 C 392.75416,133.6439 390.30034,131.96824 387.00043,131.96818 C 382.96708,131.96824 379.77994,134.00912 377.43899,138.09081 C 375.09794,142.17261 373.92744,147.73668 373.92749,154.78303 L 373.92749,195.57906 L 366.10064,195.57906 L 366.10064,152.39841 C 366.1006,145.438 365.29677,140.3036 363.68912,136.99517 C 362.08141,133.6439 359.59939,131.96824 356.24304,131.96818 C 352.26613,131.96824 349.10719,134.03059 346.76621,138.15525 C 344.42519,142.23705 343.25469,147.77964 343.25471,154.78303 L 343.25471,195.57906 L 335.42787,195.57906 L 335.42787,123.3965 L 343.25471,123.3965 L 343.25471,134.61057 C 345.0316,130.18516 347.16106,126.91976 349.64311,124.81437 C 352.12512,122.70912 355.07252,121.65646 358.48533,121.65638 C 361.92629,121.65646 364.84549,122.98839 367.24294,125.6522 C 369.66851,128.31615 371.45952,132.18307 372.61596,137.25297 M 438.53068,131.71038 C 434.35634,131.71044 431.05637,134.20246 428.63077,139.18643 C 426.20514,144.12755 424.99234,150.91614 424.99235,159.55223 C 424.99234,168.18838 426.19104,174.99846 428.58847,179.98247 C 431.01407,184.92355 434.32813,187.39408 438.53068,187.39406 C 442.67676,187.39408 445.96262,184.90206 448.38827,179.91801 C 450.81385,174.934 452.02666,168.14541 452.0267,159.55223 C 452.02666,151.00207 450.81385,144.23497 448.38827,139.25088 C 445.96262,134.22395 442.67676,131.71044 438.53068,131.71038 M 438.53068,121.65638 C 445.29981,121.65646 450.61641,125.00779 454.48052,131.71038 C 458.34454,138.41311 460.27657,147.69371 460.27662,159.55223 C 460.27657,171.36784 458.34454,180.64845 454.48052,187.39406 C 450.61641,194.09674 445.29981,197.44807 438.53068,197.44807 C 431.73329,197.44807 426.40257,194.09674 422.53853,187.39406 C 418.70266,180.64845 416.78473,171.36784 416.78474,159.55223 C 416.78473,147.69371 418.70266,138.41311 422.53853,131.71038 C 426.40257,125.00779 431.73329,121.65646 438.53068,121.65638 M 472.33419,167.09273 L 472.33419,123.3965 L 480.11872,123.3965 L 480.11872,166.64158 C 480.11872,173.47317 480.99306,178.60758 482.74178,182.04483 C 484.49046,185.43914 487.11351,187.13628 490.61093,187.13628 C 494.81343,187.13628 498.12749,185.09542 500.55315,181.01365 C 503.00692,176.93192 504.23383,171.36784 504.23387,164.32143 L 504.23387,123.3965 L 512.01841,123.3965 L 512.01841,195.57906 L 504.23387,195.57906 L 504.23387,184.49387 C 502.34411,188.8764 500.14413,192.14179 497.63394,194.29008 C 495.15189,196.3954 492.26089,197.44807 488.96095,197.44807 C 483.51739,197.44807 479.38539,194.87013 476.56492,189.71423 C 473.74442,184.55834 472.33418,177.01785 472.33419,167.09273 M 491.92246,121.65638 L 491.92246,121.65638 M 558.34491,125.52331 L 558.34491,136.73738 C 556.14489,135.01881 553.86031,133.72983 551.49113,132.87045 C 549.12189,132.0112 546.66807,131.58155 544.12966,131.58149 C 540.26558,131.58155 537.36048,132.48383 535.41436,134.28833 C 533.49642,136.09296 532.53746,138.79979 532.53748,142.40887 C 532.53746,145.15873 533.22848,147.3285 534.61053,148.91819 C 535.99255,150.465 538.77073,151.94732 542.94506,153.36514 L 545.61042,154.26744 C 551.13854,156.07203 555.05901,158.6285 557.37184,161.93683 C 559.71281,165.20226 560.88331,169.77812 560.88335,175.6644 C 560.88331,182.36708 559.1346,187.67336 555.63725,191.58323 C 552.16802,195.49312 547.3873,197.44807 541.29508,197.44807 C 538.75662,197.44807 536.10537,197.06137 533.34131,196.288 C 530.60543,195.55757 527.71444,194.44046 524.66832,192.93667 L 524.66832,180.6914 C 527.54521,182.96861 530.37979,184.68724 533.17209,185.8473 C 535.96435,186.96443 538.72842,187.52298 541.46431,187.52297 C 545.13091,187.52298 547.9514,186.57773 549.92576,184.68723 C 551.90007,182.75378 552.88724,180.04693 552.88727,176.56668 C 552.88724,173.34427 552.16802,170.87374 550.7296,169.15508 C 549.31933,167.43648 546.2027,165.7823 541.37969,164.19254 L 538.67203,163.22581 C 533.84899,161.67907 530.36569,159.31595 528.22213,156.13644 C 526.07855,152.91405 525.00677,148.51006 525.00678,142.92446 C 525.00677,136.13592 526.58624,130.89409 529.74519,127.19897 C 532.90412,123.50398 537.38869,121.65646 543.1989,121.65638 C 546.07578,121.65646 548.78344,121.9787 551.3219,122.62311 C 553.86031,123.26767 556.2013,124.2344 558.34491,125.52331"
       style="font-size:106.94109344px;font-style:normal;font-variant:normal;font-weight:normal;font-stretch:normal;fill:#ffffff;fill-opacity:1;stroke:none;stroke-width:1px;stroke-linecap:butt;stroke-linejoin:miter;stroke-opacity:1;font-family:Lohit Gujarati;-inkscape-font-specification:Lohit Gujarati" />
    <path
       id="text3222"
       d="M 78.25294,-281.22284 L 78.25294,-260.29195 L 87.729673,-260.29195 C 91.236782,-260.29192 93.94797,-261.19979 95.863246,-263.01557 C 97.778457,-264.83129 98.736079,-267.41812 98.736114,-270.77605 C 98.736079,-274.10903 97.778457,-276.68342 95.863246,-278.49921 C 93.94797,-280.31492 91.236782,-281.22279 87.729673,-281.22284 L 78.25294,-281.22284 M 70.716326,-287.4163 L 87.729673,-287.4163 C 93.972844,-287.41624 98.686332,-285.99846 101.87015,-283.16296 C 105.07877,-280.35223 106.68309,-276.22326 106.68314,-270.77605 C 106.68309,-265.27901 105.07877,-261.12517 101.87015,-258.31452 C 98.686332,-255.50381 93.972844,-254.09847 87.729673,-254.09849 L 78.25294,-254.09849 L 78.25294,-231.71251 L 70.716326,-231.71251 L 70.716326,-287.4163 M 149.5896,-254.32235 L 149.5896,-250.96445 L 118.02537,-250.96445 C 118.32384,-246.23851 119.74161,-242.63188 122.27871,-240.14456 C 124.84064,-237.6821 128.39752,-236.45087 132.94936,-236.45088 C 135.5859,-236.45087 138.13541,-236.77422 140.5979,-237.42093 C 143.0852,-238.06763 145.54765,-239.03769 147.98528,-240.33111 L 147.98528,-233.83918 C 145.52278,-232.7945 142.99814,-231.99855 140.41135,-231.45134 C 137.8245,-230.90413 135.20036,-230.63052 132.53895,-230.63052 C 125.87288,-230.63052 120.58731,-232.57064 116.68221,-236.45088 C 112.80197,-240.3311 110.86185,-245.57937 110.86185,-252.19568 C 110.86185,-259.03582 112.70247,-264.45819 116.38373,-268.46283 C 120.08984,-272.49227 125.07694,-274.507 131.34503,-274.50705 C 136.96637,-274.507 141.40625,-272.69125 144.66469,-269.05979 C 147.94792,-265.45313 149.58956,-260.54065 149.5896,-254.32235 M 142.72457,-256.33709 C 142.67479,-260.09293 141.61767,-263.09016 139.55322,-265.32879 C 137.51358,-267.56736 134.80239,-268.68665 131.41965,-268.68669 C 127.58914,-268.68665 124.51729,-267.60467 122.20409,-265.44072 C 119.91573,-263.27671 118.59744,-260.22973 118.24923,-256.29978 L 142.72457,-256.33709 M 185.07139,-267.08236 C 184.30028,-267.53005 183.45459,-267.8534 182.53431,-268.05242 C 181.63884,-268.27624 180.64391,-268.38817 179.54951,-268.38821 C 175.66925,-268.38817 172.68446,-267.11964 170.59512,-264.58259 C 168.53062,-262.07036 167.49838,-258.45129 167.49839,-253.72539 L 167.49839,-231.71251 L 160.59605,-231.71251 L 160.59605,-273.49968 L 167.49839,-273.49968 L 167.49839,-267.00774 C 168.94103,-269.54478 170.81896,-271.42271 173.1322,-272.64155 C 175.44539,-273.88517 178.25607,-274.507 181.56425,-274.50705 C 182.03681,-274.507 182.55915,-274.46969 183.13127,-274.39512 C 183.70332,-274.34533 184.33759,-274.25827 185.03408,-274.13395 L 185.07139,-267.08236 M 213.50159,-289.76682 L 213.50159,-284.0584 L 206.93503,-284.0584 C 204.47255,-284.05835 202.7563,-283.56088 201.78625,-282.566 C 200.84105,-281.57102 200.36846,-279.78014 200.36848,-277.19336 L 200.36848,-273.49968 L 211.6734,-273.49968 L 211.6734,-268.16435 L 200.36848,-268.16435 L 200.36848,-231.71251 L 193.46613,-231.71251 L 193.46613,-268.16435 L 186.89958,-268.16435 L 186.89958,-273.49968 L 193.46613,-273.49968 L 193.46613,-276.40985 C 193.46612,-281.06111 194.54811,-284.44388 196.7121,-286.55817 C 198.87606,-288.69721 202.30858,-289.76677 207.00965,-289.76682 L 213.50159,-289.76682 M 235.40253,-268.68669 C 231.72126,-268.68665 228.81109,-267.244 226.672,-264.35873 C 224.53288,-261.49827 223.46333,-257.56829 223.46334,-252.56878 C 223.46333,-247.56923 224.52045,-243.62681 226.63469,-240.74152 C 228.77378,-237.88108 231.69639,-236.45087 235.40253,-236.45088 C 239.05888,-236.45087 241.95662,-237.89352 244.09576,-240.77883 C 246.23483,-243.66412 247.30438,-247.5941 247.30441,-252.56878 C 247.30438,-257.51855 246.23483,-261.43609 244.09576,-264.32142 C 241.95662,-267.23157 239.05888,-268.68665 235.40253,-268.68669 M 235.40253,-274.50705 C 241.3721,-274.507 246.06071,-272.56689 249.46839,-268.68669 C 252.876,-264.80642 254.57982,-259.43379 254.57986,-252.56878 C 254.57982,-245.72861 252.876,-240.35598 249.46839,-236.45088 C 246.06071,-232.57064 241.3721,-230.63052 235.40253,-230.63052 C 229.40805,-230.63052 224.707,-232.57064 221.29936,-236.45088 C 217.91659,-240.35598 216.2252,-245.72861 216.22521,-252.56878 C 216.2252,-259.43379 217.91659,-264.80642 221.29936,-268.68669 C 224.707,-272.56689 229.40805,-274.507 235.40253,-274.50705 M 290.13626,-267.08236 C 289.36516,-267.53005 288.51946,-267.8534 287.59918,-268.05242 C 286.70371,-268.27624 285.70878,-268.38817 284.61438,-268.38821 C 280.73412,-268.38817 277.74933,-267.11964 275.65999,-264.58259 C 273.59549,-262.07036 272.56325,-258.45129 272.56326,-253.72539 L 272.56326,-231.71251 L 265.66092,-231.71251 L 265.66092,-273.49968 L 272.56326,-273.49968 L 272.56326,-267.00774 C 274.0059,-269.54478 275.88383,-271.42271 278.19707,-272.64155 C 280.51026,-273.88517 283.32095,-274.507 286.62912,-274.50705 C 287.10169,-274.507 287.62403,-274.46969 288.19614,-274.39512 C 288.7682,-274.34533 289.40247,-274.25827 290.09895,-274.13395 L 290.13626,-267.08236 M 328.60284,-265.47803 C 330.31905,-268.56229 332.3711,-270.83819 334.75898,-272.30576 C 337.14677,-273.77324 339.95745,-274.507 343.19104,-274.50705 C 347.54381,-274.507 350.9017,-272.9773 353.26473,-269.91792 C 355.62763,-266.88334 356.80911,-262.55539 356.80917,-256.93405 L 356.80917,-231.71251 L 349.90683,-231.71251 L 349.90683,-256.71019 C 349.90677,-260.71476 349.19788,-263.68712 347.78016,-265.62727 C 346.36233,-267.56736 344.19835,-268.53741 341.28823,-268.53745 C 337.73129,-268.53741 334.92061,-267.35593 332.85617,-264.993 C 330.79165,-262.63001 329.7594,-259.40892 329.75945,-255.32972 L 329.75945,-231.71251 L 322.8571,-231.71251 L 322.8571,-256.71019 C 322.85707,-260.73964 322.14818,-263.712 320.73043,-265.62727 C 319.31262,-267.56736 317.12377,-268.53741 314.16388,-268.53745 C 310.65672,-268.53741 307.87091,-267.3435 305.80644,-264.95569 C 303.74194,-262.5927 302.7097,-259.38404 302.70972,-255.32972 L 302.70972,-231.71251 L 295.80737,-231.71251 L 295.80737,-273.49968 L 302.70972,-273.49968 L 302.70972,-267.00774 C 304.27672,-269.56965 306.15465,-271.46002 308.34352,-272.67886 C 310.53235,-273.89761 313.13161,-274.507 316.14131,-274.50705 C 319.17582,-274.507 321.75021,-273.73593 323.86447,-272.19383 C 326.00354,-270.65164 327.58299,-268.41305 328.60284,-265.47803 M 386.73177,-268.68669 C 383.0505,-268.68665 380.14033,-267.244 378.00124,-264.35873 C 375.86212,-261.49827 374.79257,-257.56829 374.79258,-252.56878 C 374.79257,-247.56923 375.84969,-243.62681 377.96393,-240.74152 C 380.10302,-237.88108 383.02563,-236.45087 386.73177,-236.45088 C 390.38812,-236.45087 393.28586,-237.89352 395.425,-240.77883 C 397.56407,-243.66412 398.63362,-247.5941 398.63365,-252.56878 C 398.63362,-257.51855 397.56407,-261.43609 395.425,-264.32142 C 393.28586,-267.23157 390.38812,-268.68665 386.73177,-268.68669 M 386.73177,-274.50705 C 392.70134,-274.507 397.38995,-272.56689 400.79763,-268.68669 C 404.20523,-264.80642 405.90905,-259.43379 405.9091,-252.56878 C 405.90905,-245.72861 404.20523,-240.35598 400.79763,-236.45088 C 397.38995,-232.57064 392.70134,-230.63052 386.73177,-230.63052 C 380.73729,-230.63052 376.03623,-232.57064 372.6286,-236.45088 C 369.24583,-240.35598 367.55444,-245.72861 367.55445,-252.56878 C 367.55444,-259.43379 369.24583,-264.80642 372.6286,-268.68669 C 376.03623,-272.56689 380.73729,-274.507 386.73177,-274.50705 M 416.54245,-248.20352 L 416.54245,-273.49968 L 423.40749,-273.49968 L 423.40749,-248.46469 C 423.40747,-244.50982 424.17855,-241.53746 425.72071,-239.5476 C 427.26283,-237.58261 429.57605,-236.60011 432.66036,-236.60012 C 436.36646,-236.60011 439.28907,-237.78159 441.4282,-240.14456 C 443.59215,-242.50752 444.67414,-245.72861 444.67417,-249.80784 L 444.67417,-273.49968 L 451.53921,-273.49968 L 451.53921,-231.71251 L 444.67417,-231.71251 L 444.67417,-238.12982 C 443.00763,-235.59274 441.06751,-233.70237 438.85382,-232.45871 C 436.66494,-231.23992 434.11543,-230.63052 431.20527,-230.63052 C 426.40471,-230.63052 422.76077,-232.12292 420.27345,-235.10772 C 417.78611,-238.09251 416.54245,-242.45777 416.54245,-248.20352 M 433.81697,-274.50705 L 433.81697,-274.50705 M 492.39362,-272.26845 L 492.39362,-265.77651 C 490.45347,-266.77141 488.43873,-267.51761 486.34941,-268.01511 C 484.26002,-268.51254 482.09605,-268.76127 479.85747,-268.76131 C 476.44981,-268.76127 473.88786,-268.23893 472.17162,-267.19429 C 470.48022,-266.14958 469.63453,-264.58256 469.63454,-262.49323 C 469.63453,-260.90131 470.24392,-259.64521 471.46273,-258.72493 C 472.68151,-257.82946 475.13153,-256.97133 478.81279,-256.15054 L 481.16332,-255.6282 C 486.03846,-254.5835 489.49585,-253.10354 491.53549,-251.18831 C 493.59994,-249.29792 494.63218,-246.64892 494.63222,-243.24129 C 494.63218,-239.36105 493.09004,-236.28919 490.00578,-234.02573 C 486.94634,-231.76226 482.73032,-230.63052 477.3577,-230.63052 C 475.11909,-230.63052 472.781,-230.85438 470.34343,-231.3021 C 467.93071,-231.72495 465.3812,-232.37165 462.69488,-233.24222 L 462.69488,-240.33111 C 465.23196,-239.01282 467.73172,-238.01789 470.19419,-237.34631 C 472.65663,-236.6996 475.09422,-236.37625 477.50694,-236.37626 C 480.74045,-236.37625 483.22778,-236.92346 484.96894,-238.01789 C 486.71004,-239.13719 487.58061,-240.7042 487.58064,-242.71895 C 487.58061,-244.58444 486.94634,-246.01465 485.67783,-247.0096 C 484.43414,-248.00451 481.68564,-248.96214 477.43232,-249.88246 L 475.04449,-250.44211 C 470.79114,-251.33753 467.71929,-252.70557 465.82892,-254.54621 C 463.93855,-256.41169 462.99336,-258.9612 462.99336,-262.19476 C 462.99336,-266.1247 464.38626,-269.15925 467.17208,-271.29839 C 469.95788,-273.43745 473.91273,-274.507 479.03665,-274.50705 C 481.57371,-274.507 483.96154,-274.32045 486.20017,-273.9474 C 488.43873,-273.57425 490.50322,-273.01461 492.39362,-272.26845"
       style="font-size:76.41082001px;font-style:normal;font-variant:normal;font-weight:normal;font-stretch:normal;fill:url(#linearGradient3248);fill-opacity:1;stroke:none;stroke-width:1px;stroke-linecap:butt;stroke-linejoin:miter;stroke-opacity:1;font-family:Lohit Gujarati;-inkscape-font-specification:Lohit Gujarati"
       transform="scale(1.1339399,-0.881881)" />
  </g>
</svg>
