<?xml version="1.0" encoding="UTF-8" standalone="no"?>
<!-- Created with Sodipodi ("http://www.sodipodi.com/") -->
<svg
   xmlns:dc="http://purl.org/dc/elements/1.1/"
   xmlns:cc="http://web.resource.org/cc/"
   xmlns:rdf="http://www.w3.org/1999/02/22-rdf-syntax-ns#"
   xmlns:svg="http://www.w3.org/2000/svg"
   xmlns="http://www.w3.org/2000/svg"
   xmlns:xlink="http://www.w3.org/1999/xlink"
   xmlns:sodipodi="http://sodipodi.sourceforge.net/DTD/sodipodi-0.dtd"
   xmlns:inkscape="http://www.inkscape.org/namespaces/inkscape"
   version="1.0"
   x="0"
   y="0"
   width="1000"
   height="800"
   id="svg559"
   sodipodi:version="0.32"
   inkscape:version="0.45.1"
   sodipodi:docname="intro.svg"
   sodipodi:docbase="/root/USNG/trunk/themes/lima"
   inkscape:output_extension="org.inkscape.output.svg.inkscape">
  <metadata
     id="metadata35">
    <rdf:RDF>
      <cc:Work
         rdf:about="">
        <dc:format>image/svg+xml</dc:format>
        <dc:type
           rdf:resource="http://purl.org/dc/dcmitype/StillImage" />
      </cc:Work>
    </rdf:RDF>
  </metadata>
  <sodipodi:namedview
     inkscape:window-height="1149"
     inkscape:window-width="1920"
     inkscape:pageshadow="2"
     inkscape:pageopacity="0.0"
     guidetolerance="10.0"
     gridtolerance="10.0"
     objecttolerance="10.0"
     borderopacity="1.0"
     bordercolor="#666666"
     pagecolor="#ffffff"
     id="base"
     inkscape:zoom="1.15625"
     inkscape:cx="500"
     inkscape:cy="381.88219"
     inkscape:window-x="0"
     inkscape:window-y="0"
     inkscape:current-layer="svg559"
     width="1000px"
     height="800px" />
  <defs
     id="defs561">
    <linearGradient
       id="linearGradient3751"
       inkscape:collect="always">
      <stop
         id="stop3753"
         offset="0"
         style="stop-color:black;stop-opacity:1;" />
      <stop
         id="stop3755"
         offset="1"
         style="stop-color:black;stop-opacity:0;" />
    </linearGradient>
    <linearGradient
       id="linearGradient6499"
       inkscape:collect="always">
      <stop
         id="stop6501"
         offset="0"
         style="stop-color:white;stop-opacity:1;" />
      <stop
         id="stop6503"
         offset="1"
         style="stop-color:white;stop-opacity:0;" />
    </linearGradient>
    <linearGradient
       inkscape:collect="always"
       xlink:href="#linearGradient6499"
       id="linearGradient3474"
       gradientUnits="userSpaceOnUse"
       gradientTransform="matrix(0.940561,0,0,0.940561,10.179203,61.745616)"
       x1="370.92285"
       y1="100.34026"
       x2="372.94315"
       y2="219.56401" />
    <linearGradient
       inkscape:collect="always"
       xlink:href="#linearGradient3751"
       id="linearGradient3484"
       gradientUnits="userSpaceOnUse"
       gradientTransform="matrix(0.940561,0,0,0.940561,64.658454,61.745616)"
       x1="665.12128"
       y1="684.16162"
       x2="381.28015"
       y2="449.80624" />
    <linearGradient
       inkscape:collect="always"
       xlink:href="#linearGradient6499"
       id="linearGradient7248"
       x1="47.094612"
       y1="260.4765"
       x2="358.07056"
       y2="260.4765"
       gradientUnits="userSpaceOnUse"
       gradientTransform="matrix(1,0,0,0.820512,12.9075,56.85372)" />
    <linearGradient
       inkscape:collect="always"
       xlink:href="#linearGradient6499"
       id="linearGradient7256"
       gradientUnits="userSpaceOnUse"
       gradientTransform="matrix(1,0,0,0.820512,12.9075,130.1193)"
       x1="44.868057"
       y1="260.4765"
       x2="358.07056"
       y2="260.4765" />
    <linearGradient
       inkscape:collect="always"
       xlink:href="#linearGradient6499"
       id="linearGradient7335"
       gradientUnits="userSpaceOnUse"
       gradientTransform="matrix(1,0,0,0.820512,49.94643,155.9343)"
       x1="44.868057"
       y1="260.4765"
       x2="358.07056"
       y2="260.4765" />
    <linearGradient
       inkscape:collect="always"
       xlink:href="#linearGradient6499"
       id="linearGradient7346"
       gradientUnits="userSpaceOnUse"
       gradientTransform="matrix(1,0,0,0.820512,49.94643,82.66873)"
       x1="47.094612"
       y1="260.4765"
       x2="358.07056"
       y2="260.4765" />
    <linearGradient
       inkscape:collect="always"
       xlink:href="#linearGradient6499"
       id="linearGradient6391"
       gradientUnits="userSpaceOnUse"
       gradientTransform="matrix(1,0,0,0.820512,49.94643,155.9343)"
       x1="44.868057"
       y1="260.4765"
       x2="358.07056"
       y2="260.4765" />
    <linearGradient
       inkscape:collect="always"
       xlink:href="#linearGradient6499"
       id="linearGradient6423"
       gradientUnits="userSpaceOnUse"
       gradientTransform="matrix(1,0,0,0.820512,49.94643,155.9343)"
       x1="44.868057"
       y1="260.4765"
       x2="358.07056"
       y2="260.4765" />
    <linearGradient
       inkscape:collect="always"
       xlink:href="#linearGradient6499"
       id="linearGradient6425"
       gradientUnits="userSpaceOnUse"
       gradientTransform="matrix(1,0,0,0.820512,49.94643,155.9343)"
       x1="44.868057"
       y1="260.4765"
       x2="358.07056"
       y2="260.4765" />
    <linearGradient
       inkscape:collect="always"
       xlink:href="#linearGradient6499"
       id="linearGradient6427"
       gradientUnits="userSpaceOnUse"
       gradientTransform="matrix(1,0,0,0.820512,49.94643,155.9343)"
       x1="44.868057"
       y1="260.4765"
       x2="358.07056"
       y2="260.4765" />
    <linearGradient
       inkscape:collect="always"
       xlink:href="#linearGradient6499"
       id="linearGradient6449"
       gradientUnits="userSpaceOnUse"
       gradientTransform="matrix(1,0,0,0.820512,49.94643,155.9343)"
       x1="44.868057"
       y1="260.4765"
       x2="358.07056"
       y2="260.4765" />
    <linearGradient
       inkscape:collect="always"
       xlink:href="#linearGradient6499"
       id="linearGradient2234"
       gradientUnits="userSpaceOnUse"
       gradientTransform="matrix(1.2445778,0,0,1.021191,43.198786,54.633514)"
       x1="44.868057"
       y1="260.4765"
       x2="358.07056"
       y2="260.4765" />
    <linearGradient
       inkscape:collect="always"
       xlink:href="#linearGradient6499"
       id="linearGradient2246"
       gradientUnits="userSpaceOnUse"
       gradientTransform="matrix(1,0,0,0.820512,30.865771,97.46637)"
       x1="44.868057"
       y1="260.4765"
       x2="358.07056"
       y2="260.4765" />
    <linearGradient
       inkscape:collect="always"
       xlink:href="#linearGradient6499"
       id="linearGradient2257"
       gradientUnits="userSpaceOnUse"
       gradientTransform="matrix(1,0,0,0.820512,30.865771,169.0347)"
       x1="44.868057"
       y1="260.4765"
       x2="358.07056"
       y2="260.4765" />
    <linearGradient
       inkscape:collect="always"
       xlink:href="#linearGradient6499"
       id="linearGradient2268"
       gradientUnits="userSpaceOnUse"
       gradientTransform="matrix(1,0,0,0.820512,30.865771,235.2241)"
       x1="44.868057"
       y1="260.4765"
       x2="358.07056"
       y2="260.4765" />
    <linearGradient
       inkscape:collect="always"
       xlink:href="#linearGradient6499"
       id="linearGradient2241"
       gradientUnits="userSpaceOnUse"
       gradientTransform="matrix(1,0,0,0.820512,30.865771,235.2241)"
       x1="44.868057"
       y1="260.4765"
       x2="358.07056"
       y2="260.4765" />
    <linearGradient
       inkscape:collect="always"
       xlink:href="#linearGradient6499"
       id="linearGradient2243"
       gradientUnits="userSpaceOnUse"
       gradientTransform="matrix(1,0,0,0.820512,30.865771,97.46637)"
       x1="44.868057"
       y1="260.4765"
       x2="358.07056"
       y2="260.4765" />
    <linearGradient
       inkscape:collect="always"
       xlink:href="#linearGradient6499"
       id="linearGradient2245"
       gradientUnits="userSpaceOnUse"
       gradientTransform="matrix(1,0,0,0.820512,30.865771,169.0347)"
       x1="44.868057"
       y1="260.4765"
       x2="358.07056"
       y2="260.4765" />
  </defs>
  <rect
     style="color:#000000;fill:#81d000;fill-opacity:1;fill-rule:nonzero;stroke:none;stroke-width:3;stroke-linecap:round;stroke-linejoin:miter;marker:none;marker-start:none;marker-mid:none;marker-end:none;stroke-miterlimit:4;stroke-dasharray:none;stroke-dashoffset:0;stroke-opacity:1;visibility:visible;display:block;overflow:visible"
     id="rect2828"
     width="1005.1015"
     height="803.81445"
     x="-2.3088846"
     y="-0.56399959" />
  <path
     style="fill:#000000;fill-opacity:1;fill-rule:evenodd;stroke:#000000;stroke-width:0.67105544px;stroke-linecap:butt;stroke-linejoin:miter;stroke-opacity:1"
     d="M 794.59406,344.452 L 781.03663,344.452 L 778.32518,351.23068 L 781.03663,358.68723 L 779.6809,366.82166 L 772.90228,362.75444 L 767.47938,352.58642 L 755.95552,349.87494 L 751.21049,345.12987 L 741.04246,340.38478 L 729.51871,321.40447 L 730.19657,312.59218 L 758.66707,290.9004 L 772.22432,297.0012 L 774.258,301.74629 L 774.258,307.16924 L 777.64731,311.91431 L 784.42602,313.94792 L 789.17106,309.88071 L 789.84892,305.13563 L 787.81534,301.06842 L 783.74816,299.03482 L 781.03663,295.64547 L 787.13747,292.93401 L 785.78175,286.15532 L 785.78175,282.0881 L 781.71457,278.0209 L 779.6809,271.92009 L 771.54655,269.88648 L 764.76783,268.53074 L 750.53254,278.69877 L 714.60555,292.93401 L 706.47111,301.06842 L 700.37035,305.8135 L 699.01452,316.6594 L 701.72607,322.08235 L 708.50479,340.38478 L 717.317,357.33149 L 726.80716,369.53312 L 711.8941,393.93639 L 694.94735,430.54128 L 684.77933,446.81011 L 667.83267,467.82403 L 667.15481,477.3142 L 658.3425,485.44861 L 671.89985,497.65025 L 668.51053,511.88547 L 669.86626,543.74529 L 675.96702,580.35018 L 682.06788,612.88787 L 688.84649,623.73376 L 698.33676,643.39194 L 713.24983,665.76159 L 717.317,679.99679 L 721.38426,690.16483 L 709.18256,707.11153 L 687.49078,715.92383 L 685.45719,722.70256 L 726.80716,721.34683 L 720.7064,732.19269 L 728.16289,738.97135 L 747.82109,741.00499 L 763.41211,727.4476 L 768.8351,708.46733 L 777.64731,692.19847 L 788.4932,682.70833 L 791.88251,671.8624 L 780.35885,671.18454 L 787.81534,663.72798 L 772.90228,668.47307 L 783.74816,657.62717 L 775.61373,655.59357 L 769.51287,648.13702 L 759.34484,627.12309 L 735.61947,607.46491 L 730.87443,606.10918 L 735.61947,602.04196 L 734.94161,590.51821 L 739.68674,580.35018 L 735.61947,581.02805 L 743.07605,568.14855 L 743.07605,555.26905 L 747.82109,548.49037 L 747.82109,539.67808 L 757.98911,526.1207 L 758.66707,514.59696 L 756.63339,505.10679 L 761.37852,494.26089 L 766.80142,485.44861 L 766.80142,480.02566 L 772.90228,479.3478 L 778.32518,473.92485 L 783.0703,460.36749 L 793.91619,448.16585 L 806.79568,443.42078 L 814.93001,450.19946 L 834.58831,456.30028 L 850.17923,464.43469 L 857.63572,473.92485 L 870.5152,475.28059 L 911.18741,492.90516 L 932.20124,500.36173 L 949.14798,513.24121 L 953.21525,511.88547 L 953.21525,507.81827 L 943.72508,500.36173 L 962.02746,505.10679 L 964.06115,501.71745 L 959.99388,497.65025 L 966.7726,497.65025 L 967.45045,493.58303 L 955.24884,490.87156 L 964.73891,488.16009 L 964.73891,483.41501 L 961.3496,482.73715 L 951.18157,483.41501 L 943.04722,480.02566 L 937.62424,477.3142 L 945.75867,470.53551 L 947.79226,465.79043 L 946.43653,462.40108 L 938.98005,463.75683 L 923.38893,471.89124 L 921.35544,475.95846 L 915.93245,474.60273 L 896.27425,463.75683 L 895.59639,456.30028 L 884.07263,450.19946 L 864.41444,440.03143 L 859.6694,443.42078 L 860.34727,438.6757 L 849.50137,428.50767 L 840.01121,425.7962 L 831.1989,415.62817 L 828.48746,412.23883 L 837.29976,418.33965 L 835.94404,411.56095 L 842.72265,414.9503 L 840.68906,404.78227 L 850.17923,413.59457 L 846.11206,407.49376 L 855.60213,411.56095 L 847.46778,400.03721 L 853.56855,402.07081 L 850.8571,391.22491 L 855.60213,395.29212 L 848.82351,385.12409 L 855.60213,387.1577 L 849.50137,379.02329 L 857.63572,378.34541 L 848.82351,372.92246 L 854.24641,370.211 L 848.14565,369.53312 L 856.28,362.07658 L 848.82351,362.75444 L 849.50137,358.00936 L 850.17923,344.452 L 846.11206,353.94216 L 841.36694,340.38478 L 842.0448,351.23068 L 839.33335,351.90855 L 832.55463,351.90855 L 825.09805,341.06266 L 817.64156,341.06266 L 808.82926,333.6061 L 804.76199,337.67331 L 794.59406,344.452 z "
     id="path1939" />
  <path
     id="path2864"
     d="M 437.13365,569.9917 L 423.56718,569.9917 L 427.21102,572.65728 L 436.91703,575.58942 L 443.1888,578.78812 L 432.5914,577.18877 L 417.62924,573.19041 L 403.55497,572.12417 L 394.35674,570.25826 L 379.73196,568.39235 L 350.40066,560.92872 L 342.81485,557.46347 L 350.9618,548.9336 L 370.24951,551.33263 L 376.73449,553.19853 L 381.8201,555.33099 L 389.66166,557.19691 L 398.35206,557.99658 L 399.28594,556.39722 L 395.51439,554.53133 L 389.66513,552.93197 L 383.68815,552.1323 L 377.79629,550.79951 L 381.35839,549.73328 L 373.64465,547.06769 L 369.83048,545.46834 L 361.94633,543.86899 L 354.19,541.46997 L 344.14302,540.67029 L 336.08834,540.13718 L 331.37923,544.13556 L 308.77792,549.73328 L 308.26654,552.93197 L 306.61162,554.79788 L 315.42628,559.06281 L 323.22522,561.19528 L 347.17256,568.39235 L 371.88335,575.05631 L 392.8226,579.85435 L 400.78491,589.45045 L 418.15501,603.8446 L 423.23715,610.24199 L 425.98603,618.5053 L 434.20766,622.23712 L 433.01785,625.43582 L 458.02699,630.23388 L 467.98528,635.83159 L 499.22009,648.35983 L 539.65311,662.75397 L 576.27197,675.54878 L 593.22643,679.8137 L 621.15847,687.5439 L 657.05977,696.34032 L 674.47952,701.93802 L 688.08511,705.9364 L 691.76788,712.60036 L 678.32576,716.06561 L 682.64801,718.73122 L 722.75419,718.19811 L 726.82062,722.46301 L 740.63915,725.1286 L 762.21759,725.92828 L 765.10484,720.59711 L 752.73175,713.1335 L 746.29296,706.73608 L 748.24622,703.00428 L 741.46647,698.73935 L 729.29937,698.47278 L 729.76815,695.54063 L 719.295,697.40655 L 719.97681,693.14162 L 709.92983,692.34194 L 696.83224,689.4098 L 666.95043,681.14649 L 624.77369,673.41631 L 618.75402,672.88319 L 619.68808,671.28384 L 608.2027,666.75235 L 603.41534,662.75397 L 599.98117,663.02054 L 595.36433,657.95593 L 583.28583,652.89132 L 581.677,650.22573 L 573.41285,646.76048 L 570.87353,641.42931 L 560.74491,636.89783 L 549.81005,633.166 L 544.38696,628.90108 L 541.54937,625.43582 L 536.46367,623.30336 L 541.93294,623.0368 L 542.27379,620.90434 L 534.308,615.57317 L 533.71835,610.77512 L 542.1565,608.90921 L 556.65337,611.57478 L 582.04617,613.97382 L 605.27596,617.17251 L 621.63739,620.90434 L 635.79688,621.43745 L 693.02457,628.36796 L 721.04529,631.30011 L 750.08172,636.36472 L 752.88036,635.83159 L 749.0661,634.23225 L 732.57675,631.30011 L 755.34143,633.166 L 754.1978,631.83322 L 746.31374,630.23388 L 753.09688,630.23388 L 749.96105,628.63452 L 735.20835,627.56829 L 742.16202,626.50206 L 737.71203,624.63614 L 733.68482,624.36959 L 724.14566,624.63614 L 712.82732,623.30336 L 704.85785,622.23712 L 706.64068,619.57154 L 704.2257,617.70563 L 699.69051,616.37283 L 693.50039,616.90596 L 685.52744,620.10464 L 687.3067,621.704 L 680.60878,621.17089 L 650.7661,616.90596 L 643.09507,613.97382 L 625.84226,611.57478 L 596.6353,607.57641 L 595.06561,608.90921 L 591.29395,607.0433 L 570.90523,603.04492 L 558.86595,601.9787 L 540.51213,597.98031 L 534.62036,596.64753 L 549.15983,599.04655 L 541.4462,596.38096 L 551.40786,597.71376 L 539.83727,593.71539 L 557.59798,597.18064 L 547.80674,594.78162 L 561.11747,596.38096 L 542.17062,591.84948 L 550.1826,592.64916 L 537.29804,588.38422 L 545.86053,589.98357 L 529.5417,585.98519 L 538.23201,586.78487 L 524.49861,583.58617 L 532.00278,583.31961 L 518.09903,581.18715 L 520.98269,580.12092 L 514.24217,579.85435 L 515.38917,576.92221 L 508.56343,577.18877 L 504.79178,575.32287 L 492.75599,569.9917 L 497.58596,573.72351 L 480.1236,568.39235 L 490.97315,572.65728 L 488.89554,572.92385 L 482.11241,572.92385 L 464.47953,568.65892 L 457.01796,568.65892 L 441.20713,565.72678 L 440.9513,567.32611 L 437.13365,569.9917 z "
     style="opacity:0.22790701;fill:url(#linearGradient3484);fill-opacity:1;fill-rule:evenodd;stroke:none;stroke-width:0.44754833px;stroke-linecap:butt;stroke-linejoin:miter;stroke-opacity:1" />
  <path
     style="fill:none;fill-opacity:0.75;fill-rule:evenodd;stroke:#ffffff;stroke-width:1.59895372;stroke-linecap:round;stroke-linejoin:round;stroke-miterlimit:4;stroke-dasharray:none;stroke-opacity:1"
     d="M 771.54034,267.55437 C 744.99949,257.74422 734.00197,293.62846 739.48141,315.06725 C 745.89377,340.15619 747.86568,370.91855 736.31803,393.5458 C 728.04345,409.75958 689.77633,415.82999 690.25913,438.61769"
     id="path3759"
     sodipodi:nodetypes="cssc" />
  <path
     style="font-size:149.94555664px;font-style:normal;font-variant:normal;font-weight:normal;font-stretch:normal;text-align:start;line-height:125%;writing-mode:lr-tb;text-anchor:start;fill:#ffffff;fill-opacity:1;stroke:none;stroke-width:1px;stroke-linecap:butt;stroke-linejoin:miter;stroke-opacity:1;font-family:Interstate-LightCondensed"
     d="M 388.75497,108.86161 L 372.08936,117.62058 L 372.08936,139.10648 L 362.94833,139.10648 L 362.94833,155.71329 L 372.08936,155.71329 L 372.08936,194.71717 C 372.08936,203.31835 373.55419,209.45895 376.4689,213.1169 C 379.47756,216.77486 384.00138,218.6133 390.01881,218.6133 C 392.46342,218.61332 394.7106,218.29531 396.77909,217.70214 C 398.84757,217.10895 400.83592,216.29127 402.71637,215.20377 L 404.68573,198.27367 C 401.48895,200.74527 398.19454,202.00654 394.80983,202.00652 C 392.83531,202.00654 391.31762,201.44806 390.28339,200.36054 C 389.24915,199.17421 388.75497,197.14337 388.75497,194.27628 L 388.75497,155.71329 L 403.68639,155.71329 L 403.68639,139.10648 L 388.75497,139.10648 L 388.75497,108.86161 z M 152.05687,114.24039 L 142.4749,119.88376 L 142.4749,217.0555 L 152.05687,217.0555 L 152.05687,114.24039 z M 183.33053,114.24039 L 173.89557,119.88376 L 173.89557,143.01572 L 166.28285,143.01572 L 166.28285,151.18683 L 173.89557,151.18683 L 173.89557,202.94708 C 173.89557,208.21233 174.88974,212.15966 176.86417,214.79228 C 178.83869,217.33085 181.92128,218.6133 186.15221,218.6133 C 188.31474,218.6133 190.30309,218.40154 192.0895,218.02545 C 193.87591,217.74338 195.57607,217.24922 197.17446,216.49704 L 198.02679,207.5911 C 196.42841,208.3433 194.91072,208.86685 193.50034,209.14891 C 192.18402,209.431 190.66633,209.58979 188.97389,209.58979 C 187.09352,209.58979 185.68165,209.0133 184.74137,207.88503 C 183.80118,206.66276 183.33053,204.67438 183.33053,201.94774 L 183.33053,151.18683 L 197.58595,151.18683 L 197.58595,143.01572 L 183.33053,143.01572 L 183.33053,114.24039 z M 593.85606,117.09152 C 591.37684,117.09152 589.00973,117.63958 586.74306,118.7375 C 584.51177,119.80005 582.53518,121.33937 580.83512,123.32273 C 579.13515,125.30609 577.80011,127.69653 576.8084,130.49451 C 575.81675,133.25703 575.30933,136.32364 575.30933,139.72377 C 575.30942,142.27382 575.66514,144.53605 576.33811,146.48403 C 577.01109,148.43199 577.92625,150.07611 579.13036,151.42197 C 580.33456,152.76785 581.80982,153.79984 583.50989,154.50819 C 585.20996,155.18112 587.04631,155.50752 589.06504,155.50754 C 591.08385,155.50752 592.94964,155.22785 594.64962,154.62576 C 596.34967,153.98824 597.86567,152.99695 599.17606,151.68651 C 600.52191,150.37607 601.66478,148.70858 602.58559,146.68978 C 603.54195,144.67102 604.24145,142.28059 604.70186,139.51797 L 605.31915,136.0203 L 593.5327,136.0203 L 592.65093,141.36974 L 598.794,141.36974 C 598.794,141.36974 598.77059,141.43981 598.73522,141.5461 C 598.73513,141.61693 598.73522,141.65765 598.73522,141.69302 C 598.13308,144.38481 597.08379,146.47215 595.56082,147.92426 C 594.03787,149.34096 592.06128,150.04053 589.65289,150.04053 C 588.41331,150.04053 587.27647,149.81891 586.21401,149.3939 C 585.18691,148.93346 584.28906,148.30401 583.50989,147.45398 C 582.73073,146.56854 582.08918,145.44304 581.62877,144.13264 C 581.20372,142.82217 581.01147,141.28886 581.01147,139.51797 C 581.01147,137.00338 581.31453,134.72374 581.95204,132.66956 C 582.62501,130.57991 583.52287,128.77827 584.65616,127.29068 C 585.78953,125.80318 587.08383,124.66642 588.53597,123.8518 C 590.02346,123.00181 591.6036,122.58797 593.26821,122.58787 C 595.10983,122.58797 596.62582,123.04856 597.79467,123.96937 C 598.99886,124.89027 599.9841,126.17856 600.76326,127.87853 L 606.08336,125.55656 C 605.12708,122.90023 603.65783,120.81294 601.67448,119.32535 C 599.69112,117.83785 597.07898,117.09152 593.85606,117.09152 z M 543.06577,117.67937 L 536.48184,154.89029 L 541.94884,154.89029 L 545.94623,131.99348 C 545.9816,131.74565 546.02232,131.3491 546.09315,130.81778 C 546.19944,130.28656 546.28691,129.7619 546.35772,129.23058 C 546.42855,128.66399 546.52205,128.13323 546.59287,127.67283 C 546.66369,127.17696 546.70443,126.85059 546.73978,126.67348 C 546.91689,127.20471 547.17922,127.88097 547.53343,128.73096 C 547.92302,129.58094 548.27281,130.37402 548.59157,131.08236 L 559.43736,154.89029 L 564.52231,154.89029 L 571.13559,117.67937 L 565.63923,117.67937 L 561.67119,140.54675 C 561.63574,140.79469 561.57168,141.16179 561.46549,141.69302 C 561.39458,142.18888 561.30117,142.74296 561.23035,143.30966 C 561.15952,143.84088 561.09538,144.34221 561.02455,144.83807 C 560.95373,145.29847 560.91301,145.60152 560.87764,145.77862 C 560.70054,145.28276 560.4382,144.62992 560.084,143.77993 C 559.72978,142.92995 559.37407,142.13686 559.0553,141.42853 L 548.44456,117.67937 L 543.06577,117.67937 z M 331.58645,137.48994 C 328.29571,137.49002 325.26608,138.01909 322.44543,139.10648 C 319.62478,140.0952 317.16577,141.59699 315.09729,143.57414 C 313.12277,145.45263 311.58157,147.77207 310.45327,150.5402 C 309.32498,153.30845 308.7485,156.42686 308.7485,159.88702 C 308.7485,165.91778 310.05447,170.74902 312.6871,174.40693 C 315.4137,177.96608 319.46695,181.13257 324.82617,183.90072 C 327.4588,185.28484 329.62952,186.46861 331.32197,187.45722 C 333.01432,188.34703 334.37324,189.24219 335.40748,190.13194 C 336.44172,191.02174 337.14771,191.91691 337.52375,192.80666 C 337.99384,193.5976 338.22916,194.54087 338.22916,195.62834 C 338.22916,197.60565 337.57623,199.17421 336.25992,200.36054 C 335.03755,201.44806 333.10216,202.00654 330.46953,202.00652 C 324.73418,202.00654 318.79849,199.73521 312.6871,195.18745 L 306.77915,210.14826 C 310.25801,213.01532 313.86421,215.14233 317.62504,216.52643 C 321.38588,217.91053 325.56856,218.6133 330.17561,218.6133 C 337.22728,218.61332 343.03356,216.53437 347.54664,212.38209 C 352.15361,208.2298 354.45384,202.13732 354.45384,194.12932 C 354.45384,187.99979 352.93606,183.16855 349.9274,179.60942 C 347.01268,176.05035 342.83002,172.88387 337.37682,170.11563 C 334.83816,168.83044 332.77334,167.74288 331.17496,166.85306 C 329.57657,165.86446 328.29421,164.9693 327.35393,164.17833 C 326.41374,163.38748 325.76071,162.63661 325.38467,161.9445 C 325.1026,161.15365 324.97318,160.33596 324.97318,159.44614 C 324.97318,157.86437 325.52031,156.55502 326.6485,155.56632 C 327.7768,154.57775 329.29459,154.09676 331.17496,154.09669 C 333.90164,154.09676 336.36064,154.43344 338.52309,155.12544 C 340.77969,155.81753 343.49743,157.04941 346.69421,158.82889 L 352.48459,144.60292 C 349.19375,142.23027 345.84649,140.43991 342.46168,139.25349 C 339.17095,138.06716 335.5354,137.49002 331.58645,137.48994 z M 440.98546,137.48994 C 436.47246,137.49002 432.39568,138.11531 428.72882,139.4004 C 425.06195,140.68577 421.5323,142.57226 418.14751,145.04376 L 424.90779,157.80016 C 427.25834,156.11953 429.55848,154.93576 431.81499,154.24365 C 434.07148,153.4528 436.76582,153.06801 439.86854,153.06795 C 443.15938,153.06801 445.45952,153.98189 446.77583,155.86025 C 448.09205,157.63986 448.74508,159.94058 448.74508,162.70871 L 448.74508,168.61661 C 447.14669,167.52916 445.49958,166.75956 443.80714,166.26521 C 442.11479,165.77093 439.63218,165.50105 436.34143,165.501 C 433.05069,165.50105 429.99162,166.15572 427.17097,167.44091 C 424.44437,168.62731 422.03832,170.36956 419.96984,172.64338 C 417.99542,174.81843 416.45412,177.52265 415.32583,180.78511 C 414.19753,183.9488 413.62105,187.50008 413.62105,191.4546 C 413.62105,199.85805 415.66236,206.47963 419.70526,211.32395 C 423.74827,216.16828 429.00158,218.6133 435.48909,218.6133 C 437.93362,218.61332 440.33966,218.00673 442.69022,216.82035 C 445.04078,215.634 447.05273,213.92116 448.74508,211.64728 L 448.74508,216.96732 L 465.38126,216.96732 L 465.38126,163.44352 C 465.38126,154.84242 463.44577,148.36513 459.59098,144.01507 C 455.83005,139.66507 449.63551,137.49002 440.98546,137.48994 z M 510.29305,137.48994 C 507.56645,137.49002 504.97803,138.24088 502.53341,139.72377 C 500.0889,141.20674 498.15341,142.77532 496.74314,144.45591 L 496.74314,139.10648 L 480.10696,139.10648 L 480.10696,216.96732 L 496.74314,216.96732 L 496.74314,161.35665 C 499.65774,156.90783 503.24043,154.6846 507.47136,154.68455 C 509.44589,154.6846 511.16947,155.02129 512.67389,155.71329 C 514.27227,156.4054 515.78997,157.34865 517.20034,158.53497 L 521.99127,141.48732 C 520.20486,140.10329 518.42824,139.11193 516.64184,138.51863 C 514.85542,137.82666 512.73766,137.49002 510.29305,137.48994 z M 237.47157,141.45787 C 234.4629,141.45797 231.6921,142.26977 229.15352,143.86806 C 226.70892,145.37249 224.74992,147.20206 223.24558,149.3645 L 223.24558,143.01572 L 213.66362,143.01572 L 213.66362,217.0555 L 223.24558,217.0555 L 223.24558,159.09343 C 224.5619,156.83696 226.26205,154.90153 228.33054,153.3031 C 230.39902,151.61076 232.59325,150.7754 234.94381,150.77534 C 236.82428,150.7754 238.41852,150.95777 239.73483,151.33379 C 241.14511,151.70994 242.50403,152.25705 243.82035,153.00917 L 246.52447,143.01572 C 245.49022,142.54563 244.26073,142.15154 242.85045,141.86937 C 241.44008,141.5874 239.6341,141.45797 237.47157,141.45787 z M 277.5042,141.45787 C 273.6493,141.45797 270.06671,142.111 266.77596,143.42722 C 263.48514,144.74353 260.34967,146.57312 257.34092,148.92361 L 261.69101,156.27174 C 264.32364,154.29733 266.8356,152.7796 269.18615,151.74529 C 271.53671,150.71111 274.07219,150.21695 276.79877,150.21689 C 284.41459,150.21695 288.23252,154.52902 288.23252,163.17899 L 288.23252,173.61334 C 286.63412,172.57915 284.69864,171.76732 282.44213,171.20315 C 280.18564,170.54505 277.67368,170.23324 274.94709,170.23319 C 271.84437,170.23324 268.94415,170.70385 266.21746,171.64403 C 263.58483,172.5843 261.28468,174.04911 259.31026,176.02353 C 257.33584,177.99803 255.79444,180.53351 254.66624,183.63619 C 253.53795,186.64492 252.96147,190.19812 252.96147,194.33508 C 252.96147,198.56608 253.43203,202.25456 254.37231,205.35727 C 255.3125,208.36599 256.61856,210.84852 258.31092,212.82297 C 260.00327,214.79744 261.99162,216.26223 264.24821,217.20246 C 266.5047,218.14268 268.93427,218.6133 271.5669,218.6133 C 275.13981,218.6133 278.30471,217.85443 281.03129,216.35008 C 283.75799,214.84573 286.16403,213.01619 288.23252,210.85367 L 288.23252,217.0555 L 297.81447,217.0555 L 297.81447,162.17964 C 297.81439,154.37588 295.98489,148.99313 292.31803,145.98435 C 288.74521,142.97576 283.80369,141.45797 277.5042,141.45787 z M 78.252264,143.01572 L 78.252264,193.77661 C 78.252264,202.05057 79.899469,208.27451 83.19021,212.41147 C 86.480951,216.54844 91.263704,218.6133 97.56311,218.6133 C 101.32404,218.6133 104.54189,217.85443 107.17452,216.35008 C 109.80705,214.7517 111.92491,212.92216 113.5233,210.85367 L 113.5233,217.0555 L 123.10527,217.0555 L 123.10527,143.01572 L 113.5233,143.01572 L 113.5233,201.27171 C 111.92491,203.52825 109.98943,205.54016 107.73293,207.32658 C 105.57048,209.01897 102.98206,209.85433 99.973299,209.85433 C 95.742373,209.85433 92.683293,208.54835 90.802829,205.91572 C 88.922459,203.1891 87.981146,198.77114 87.981146,192.6597 L 87.981146,143.01572 L 78.252264,143.01572 z M 274.82952,178.69824 C 278.12026,178.69828 280.70869,178.98653 282.58914,179.55062 C 284.56358,180.11479 286.44601,180.89721 288.23252,181.93143 L 288.23252,202.53559 C 286.44601,204.69812 284.22234,206.52766 281.5898,208.03199 C 279.05113,209.44235 276.28043,210.14826 273.27167,210.14826 C 269.69885,210.14827 267.00453,208.68345 265.21811,205.76876 C 263.43171,202.8541 262.54344,198.90676 262.54344,193.92358 C 262.54344,189.12847 263.53762,185.41646 265.51204,182.7838 C 267.48656,180.05721 270.59849,178.69828 274.82952,178.69824 z M 438.57527,180.34423 C 441.11394,180.34427 443.10229,180.68095 444.51256,181.37296 C 446.01689,181.96619 447.42876,182.86135 448.74508,184.04768 L 448.74508,196.51011 C 447.71085,198.38854 446.29897,199.95711 444.51256,201.24232 C 442.8202,202.4287 440.99062,203.03527 439.0162,203.03526 C 436.28952,203.03528 434.17174,201.99581 432.66741,199.91966 C 431.25704,197.84352 430.55116,194.91754 430.55116,191.16068 C 430.55116,187.89821 431.31,185.29018 432.81433,183.31287 C 434.31867,181.33564 436.22471,180.34427 438.57527,180.34423 z "
     id="text5554" />
  <path
     sodipodi:type="star"
     style="opacity:0.22790701;color:#000000;fill:#ffffff;fill-opacity:1;fill-rule:nonzero;stroke:#ffffff;stroke-width:1.70000005;stroke-linecap:round;stroke-linejoin:round;marker:none;marker-start:none;marker-mid:none;marker-end:none;stroke-miterlimit:4;stroke-dasharray:none;stroke-dashoffset:0;stroke-opacity:1;visibility:visible;display:block;overflow:visible"
     id="path5574"
     sodipodi:sides="5"
     sodipodi:cx="141.42136"
     sodipodi:cy="350.13498"
     sodipodi:r1="78.688225"
     sodipodi:r2="45.665279"
     sodipodi:arg1="1.0612041"
     sodipodi:arg2="1.6895226"
     inkscape:flatsided="false"
     inkscape:rounded="0"
     inkscape:randomized="0"
     d="M 179.80715,418.82535 L 136.01242,395.47879 L 87.954791,407.86853 L 96.625376,359.00278 L 69.991407,317.1259 L 119.14486,310.27177 L 150.74179,272.0007 L 172.4497,316.63036 L 218.61165,334.85441 L 182.87443,369.29119 L 179.80715,418.82535 z "
     transform="matrix(0.6152384,-0.2543743,0.2543743,0.6152384,-46.063527,508.52739)" />
  <path
     transform="matrix(0.5351996,1.5915772e-2,-1.5915772e-2,0.5351996,9.1069628,427.73513)"
     d="M 179.80715,418.82535 L 136.01242,395.47879 L 87.954791,407.86853 L 96.625376,359.00278 L 69.991407,317.1259 L 119.14486,310.27177 L 150.74179,272.0007 L 172.4497,316.63036 L 218.61165,334.85441 L 182.87443,369.29119 L 179.80715,418.82535 z "
     inkscape:randomized="0"
     inkscape:rounded="0"
     inkscape:flatsided="false"
     sodipodi:arg2="1.6895226"
     sodipodi:arg1="1.0612041"
     sodipodi:r2="45.665279"
     sodipodi:r1="78.688225"
     sodipodi:cy="350.13498"
     sodipodi:cx="141.42136"
     sodipodi:sides="5"
     id="path5576"
     style="opacity:0.22790701;color:#000000;fill:#ffffff;fill-opacity:1;fill-rule:nonzero;stroke:#ffffff;stroke-width:1.70000005;stroke-linecap:round;stroke-linejoin:round;marker:none;marker-start:none;marker-mid:none;marker-end:none;stroke-miterlimit:4;stroke-dasharray:none;stroke-dashoffset:0;stroke-opacity:1;visibility:visible;display:block;overflow:visible"
     sodipodi:type="star" />
  <path
     sodipodi:type="star"
     style="opacity:0.22790701;color:#000000;fill:#ffffff;fill-opacity:1;fill-rule:nonzero;stroke:#ffffff;stroke-width:1.70000005;stroke-linecap:round;stroke-linejoin:round;marker:none;marker-start:none;marker-mid:none;marker-end:none;stroke-miterlimit:4;stroke-dasharray:none;stroke-dashoffset:0;stroke-opacity:1;visibility:visible;display:block;overflow:visible"
     id="path5578"
     sodipodi:sides="5"
     sodipodi:cx="141.42136"
     sodipodi:cy="350.13498"
     sodipodi:r1="78.688225"
     sodipodi:r2="45.665279"
     sodipodi:arg1="1.0612041"
     sodipodi:arg2="1.6895226"
     inkscape:flatsided="false"
     inkscape:rounded="0"
     inkscape:randomized="0"
     d="M 179.80715,418.82535 L 136.01242,395.47879 L 87.954791,407.86853 L 96.625376,359.00278 L 69.991407,317.1259 L 119.14486,310.27177 L 150.74179,272.0007 L 172.4497,316.63036 L 218.61165,334.85441 L 182.87443,369.29119 L 179.80715,418.82535 z "
     transform="matrix(0.3840867,-0.1958069,0.1958069,0.3840867,17.731911,452.15038)" />
  <path
     transform="matrix(0.2719577,6.787433e-2,-6.787433e-2,0.2719577,73.612469,403.06585)"
     d="M 179.80715,418.82535 L 136.01242,395.47879 L 87.954791,407.86853 L 96.625376,359.00278 L 69.991407,317.1259 L 119.14486,310.27177 L 150.74179,272.0007 L 172.4497,316.63036 L 218.61165,334.85441 L 182.87443,369.29119 L 179.80715,418.82535 z "
     inkscape:randomized="0"
     inkscape:rounded="0"
     inkscape:flatsided="false"
     sodipodi:arg2="1.6895226"
     sodipodi:arg1="1.0612041"
     sodipodi:r2="45.665279"
     sodipodi:r1="78.688225"
     sodipodi:cy="350.13498"
     sodipodi:cx="141.42136"
     sodipodi:sides="5"
     id="path5580"
     style="opacity:0.22790701;color:#000000;fill:#ffffff;fill-opacity:1;fill-rule:nonzero;stroke:#ffffff;stroke-width:1.70000005;stroke-linecap:round;stroke-linejoin:round;marker:none;marker-start:none;marker-mid:none;marker-end:none;stroke-miterlimit:4;stroke-dasharray:none;stroke-dashoffset:0;stroke-opacity:1;visibility:visible;display:block;overflow:visible"
     sodipodi:type="star" />
  <path
     sodipodi:type="star"
     style="opacity:0.22790701;color:#000000;fill:#ffffff;fill-opacity:1;fill-rule:nonzero;stroke:#ffffff;stroke-width:1.70000005;stroke-linecap:round;stroke-linejoin:round;marker:none;marker-start:none;marker-mid:none;marker-end:none;stroke-miterlimit:4;stroke-dasharray:none;stroke-dashoffset:0;stroke-opacity:1;visibility:visible;display:block;overflow:visible"
     id="path5582"
     sodipodi:sides="5"
     sodipodi:cx="141.42136"
     sodipodi:cy="350.13498"
     sodipodi:r1="78.688225"
     sodipodi:r2="45.665279"
     sodipodi:arg1="1.0612041"
     sodipodi:arg2="1.6895226"
     inkscape:flatsided="false"
     inkscape:rounded="0"
     inkscape:randomized="0"
     d="M 179.80715,418.82535 L 136.01242,395.47879 L 87.954791,407.86853 L 96.625376,359.00278 L 69.991407,317.1259 L 119.14486,310.27177 L 150.74179,272.0007 L 172.4497,316.63036 L 218.61165,334.85441 L 182.87443,369.29119 L 179.80715,418.82535 z "
     transform="matrix(0.204168,1.2402529e-2,-1.2402529e-2,0.204168,103.80166,398.871)" />
  <path
     style="font-size:112.0508728px;font-style:normal;font-variant:normal;font-weight:normal;font-stretch:normal;text-align:start;line-height:125%;writing-mode:lr-tb;text-anchor:start;fill:url(#linearGradient3474);fill-opacity:1;stroke:none;stroke-width:1px;stroke-linecap:butt;stroke-linejoin:miter;stroke-opacity:1;font-family:Interstate-LightCondensed"
     d="M 97.56311,224.31545 C 91.263704,224.31545 86.480951,225.47359 83.19021,227.78378 C 79.899469,230.09394 78.252264,233.53898 78.252264,238.15934 L 78.252264,266.52313 L 87.981146,266.52313 L 87.981146,238.80597 C 87.981146,235.3932 88.922459,232.92165 90.802829,231.39905 C 92.683293,229.92893 95.742373,229.1946 99.973299,229.19462 C 102.98206,229.19462 105.57048,229.66037 107.73293,230.60546 C 109.98943,231.60302 111.92491,232.72548 113.5233,233.98559 L 113.5233,266.52313 L 123.10527,266.52313 L 123.10527,225.16784 L 113.5233,225.16784 L 113.5233,228.63615 C 111.92491,227.48106 109.80705,226.4719 107.17452,225.57933 C 104.54189,224.73926 101.32404,224.31545 97.56311,224.31545 z M 186.15221,224.31545 C 181.92128,224.31545 178.83869,225.01412 176.86417,226.43172 C 174.88974,227.90184 173.89557,230.1048 173.89557,233.04504 L 173.89557,261.93789 L 166.28285,261.93789 L 166.28285,266.52313 L 173.89557,266.52313 L 173.89557,279.42645 L 183.33053,282.57146 L 183.33053,266.52313 L 197.58595,266.52313 L 197.58595,261.93789 L 183.33053,261.93789 L 183.33053,233.6035 C 183.33053,232.08088 183.80118,230.96468 184.74137,230.28214 C 185.68165,229.65209 187.09352,229.34156 188.97389,229.34158 C 190.66633,229.34158 192.18402,229.41919 193.50034,229.57671 C 194.91072,229.73423 196.42841,230.03847 198.02679,230.4585 L 197.17446,225.49115 C 195.57607,225.07113 193.87591,224.76688 192.0895,224.60938 C 190.30309,224.39936 188.31474,224.31545 186.15221,224.31545 z M 271.5669,224.31545 C 268.93427,224.31545 266.5047,224.55462 264.24821,225.07966 C 261.99162,225.60469 260.00327,226.41667 258.31092,227.51924 C 256.61848,228.62182 255.3125,230.04224 254.37231,231.72237 C 253.43213,233.45499 252.96147,235.50272 252.96147,237.86542 C 252.96147,240.17558 253.53795,242.15195 254.66624,243.8321 C 255.79454,245.56471 257.33584,246.99141 259.31026,248.09402 C 261.28468,249.19657 263.58483,250.00852 266.21746,250.53359 C 268.94415,251.0586 271.84437,251.32717 274.94709,251.32719 C 277.67368,251.32717 280.18564,251.13625 282.44213,250.76874 C 284.69864,250.45369 286.63412,249.99419 288.23252,249.41668 L 288.23252,255.2658 C 288.23242,260.09613 284.41459,262.49632 276.79877,262.49636 C 274.07219,262.49632 271.53671,262.22148 269.18615,261.64397 C 266.8356,261.0664 264.32364,260.21878 261.69101,259.11621 L 257.34092,263.20177 C 260.34967,264.51434 263.48514,265.5529 266.77596,266.28799 C 270.06671,267.023 273.6493,267.37547 277.5042,267.37551 C 283.80369,267.37547 288.74521,266.55724 292.31803,264.87715 C 295.98489,263.19699 297.81439,260.15267 297.81447,255.79485 L 297.81447,225.16784 L 288.23252,225.16784 L 288.23252,228.63615 C 286.16394,227.42856 283.75799,226.41941 281.03129,225.57933 C 278.30471,224.73926 275.13972,224.31545 271.5669,224.31545 z M 330.17561,224.31545 C 325.56856,224.31545 321.38588,224.68886 317.62504,225.46177 C 313.86411,226.23467 310.25801,227.41722 306.77915,229.01826 L 312.6871,237.39513 C 318.79849,234.85555 324.73418,233.5741 330.46953,233.5741 C 333.10216,233.57409 335.03755,233.87796 336.25992,234.48527 C 337.57613,235.14776 338.22916,236.02643 338.22916,237.13059 C 338.22916,237.73787 337.99384,238.27611 337.52375,238.71779 C 337.14771,239.21465 336.44172,239.71992 335.40748,240.21681 C 334.37324,240.71367 333.01432,241.18956 331.32197,241.68644 C 329.62952,242.2385 327.4588,242.9122 324.82617,243.68514 C 319.46695,245.23094 315.4137,246.98828 312.6871,248.97579 C 310.05447,251.01844 308.7485,253.72043 308.7485,257.08813 C 308.7485,259.02036 309.32498,260.77413 310.45327,262.32 C 311.58147,263.86578 313.12277,265.15082 315.09729,266.19981 C 317.16577,267.30392 319.62478,268.14605 322.44543,268.69817 C 325.26608,269.30542 328.29571,269.60929 331.58645,269.60934 C 335.5354,269.60929 339.17095,269.27246 342.46168,268.61 C 345.84649,267.94746 349.19375,266.96631 352.48459,265.64135 L 346.69421,257.67598 C 343.49743,258.66968 340.77969,259.37635 338.52309,259.76285 C 336.36064,260.14927 333.90164,260.32128 331.17496,260.32131 C 329.29459,260.32128 327.7768,260.05036 326.6485,259.49832 C 325.52031,258.9462 324.97318,258.23596 324.97318,257.35265 C 324.97318,256.85576 325.1026,256.38345 325.38467,255.94181 C 325.76071,255.55533 326.41374,255.14897 327.35393,254.70733 C 328.29421,254.26564 329.57657,253.76035 331.17496,253.20831 C 332.77334,252.71142 334.83816,252.10365 337.37682,251.38597 C 342.83002,249.84013 347.01268,248.08279 349.9274,246.09532 C 352.93606,244.10782 354.45384,241.40584 354.45384,237.98298 C 354.45384,233.51114 352.1537,230.10249 347.54664,227.78378 C 343.03356,225.46504 337.22728,224.31545 330.17561,224.31545 z M 390.01881,224.31545 C 384.00138,224.31545 379.47756,225.32958 376.4689,227.37228 C 373.55419,229.41496 372.08936,232.82718 372.08936,237.63027 L 372.08936,259.41014 L 362.94833,259.41014 L 362.94833,268.69817 L 372.08936,268.69817 L 372.08936,280.69033 L 388.75497,285.59888 L 388.75497,268.69817 L 403.68639,268.69817 L 403.68639,259.41014 L 388.75497,259.41014 L 388.75497,237.8948 C 388.75497,236.29376 389.24915,235.14774 390.28339,234.48527 C 391.31762,233.87798 392.83531,233.5741 394.80983,233.5741 C 398.19454,233.57409 401.48895,234.28076 404.68573,235.66097 L 402.71637,226.19658 C 400.83592,225.58929 398.84757,225.14638 396.77909,224.81512 C 394.7106,224.48388 392.46342,224.31545 390.01881,224.31545 z M 435.48909,224.31545 C 429.00158,224.31545 423.74827,225.66644 419.70526,228.37163 C 415.66236,231.0768 413.62105,234.75993 413.62105,239.45261 C 413.62105,241.6609 414.19753,243.6526 415.32583,245.41929 C 416.45402,247.24112 417.99542,248.76054 419.96984,249.97513 C 422.03832,251.24489 424.44437,252.22247 427.17097,252.88499 C 429.99162,253.60267 433.05069,253.9431 436.34143,253.94312 C 439.63227,253.9431 442.11479,253.80765 443.80714,253.53163 C 445.49958,253.25557 447.14669,252.81622 448.74508,252.20896 L 448.74508,255.53032 C 448.74508,257.07611 448.09215,258.32818 446.77583,259.32196 C 445.45952,260.37088 443.15928,260.90912 439.86854,260.90916 C 436.76582,260.90912 434.07158,260.67476 431.81499,260.23313 C 429.55848,259.84664 427.25834,259.20233 424.90779,258.26383 L 418.14751,265.37682 C 421.5323,266.75697 425.06195,267.80408 428.72882,268.52182 C 432.3956,269.23948 436.47246,269.60929 440.98546,269.60934 C 449.63551,269.60929 455.83005,268.39378 459.59098,265.96467 C 463.44577,263.53548 465.38126,259.92187 465.38126,255.11882 L 465.38126,225.22662 L 448.74508,225.22662 L 448.74508,228.19527 C 447.05273,226.92548 445.04078,225.9479 442.69022,225.28541 C 440.33966,224.62291 437.93362,224.31545 435.48909,224.31545 z M 142.4749,225.16784 L 142.4749,279.42645 L 152.05687,282.57146 L 152.05687,225.16784 L 142.4749,225.16784 z M 213.66362,225.16784 L 213.66362,266.52313 L 223.24558,266.52313 L 223.24558,262.96663 C 224.75002,264.1742 226.70892,265.21275 229.15352,266.05285 C 231.6921,266.94537 234.4629,267.37547 237.47157,267.37551 C 239.6341,267.37547 241.44008,267.29785 242.85045,267.14037 C 244.26073,266.98282 245.49022,266.78561 246.52447,266.52313 L 243.82035,260.93854 C 242.50403,261.35855 241.14511,261.66905 239.73483,261.87911 C 238.41852,262.08909 236.82428,262.173 234.94381,262.17304 C 232.59325,262.173 230.39902,261.70722 228.33054,260.7622 C 226.26205,259.86959 224.5619,258.78907 223.24558,257.52901 L 223.24558,225.16784 L 213.66362,225.16784 z M 480.10696,225.22662 L 480.10696,268.69817 L 496.74314,268.69817 L 496.74314,265.70014 C 498.15341,266.63863 500.0889,267.5467 502.53341,268.37486 C 504.97803,269.20294 507.56645,269.60929 510.29305,269.60934 C 512.73766,269.60929 514.85542,269.40791 516.64184,269.02149 C 518.42824,268.6902 520.20486,268.14837 521.99127,267.37551 L 517.20034,257.85233 C 515.78997,258.51479 514.27219,259.02364 512.67389,259.41014 C 511.16947,259.79656 509.44579,259.99795 507.47136,259.99799 C 503.24043,259.99795 499.65774,258.74944 496.74314,256.26514 L 496.74314,225.22662 L 480.10696,225.22662 z M 273.27167,229.01826 C 276.28043,229.01826 279.05113,229.43579 281.5898,230.22335 C 284.22234,231.06341 286.44601,232.07258 288.23252,233.28018 L 288.23252,244.77266 C 286.44601,245.35018 284.56358,245.80967 282.58914,246.12471 C 280.70869,246.43971 278.12026,246.59496 274.82952,246.595 C 270.59849,246.59497 267.48656,245.82498 265.51204,244.30237 C 263.53762,242.83225 262.54344,240.77824 262.54344,238.10055 C 262.54344,235.31784 263.43171,233.08547 265.21811,231.45784 C 267.00461,229.83021 269.69885,229.01825 273.27167,229.01826 z M 439.0162,232.98625 C 440.99062,232.98624 442.8202,233.32309 444.51256,233.98559 C 446.29897,234.70328 447.71085,235.58196 448.74508,236.63092 L 448.74508,243.59696 C 447.42876,244.25943 446.01689,244.76471 444.51256,245.09598 C 443.10229,245.48241 441.11384,245.6838 438.57527,245.68383 C 436.22471,245.6838 434.31875,245.11259 432.81433,244.00845 C 431.31,242.90428 430.55116,241.4508 430.55116,239.62896 C 430.55116,237.53105 431.25704,235.90915 432.66741,234.7498 C 434.17174,233.59044 436.28952,232.98625 439.0162,232.98625 z M 589.06504,259.5277 C 587.04631,259.5277 585.20996,259.71037 583.50989,260.08617 C 581.80982,260.48172 580.33456,261.06876 579.13036,261.82033 C 577.92625,262.57189 577.01099,263.49544 576.33811,264.58323 C 575.66514,265.671 575.30942,266.92144 575.30933,268.34546 C 575.30933,270.24414 575.81675,271.97586 576.8084,273.51855 C 577.80003,275.08099 579.13515,276.40836 580.83512,277.51593 C 582.53518,278.62348 584.51177,279.47973 586.74306,280.07309 C 589.00973,280.68618 591.37684,280.98424 593.85606,280.98426 C 597.07898,280.98424 599.69112,280.58042 601.67448,279.74976 C 603.65783,278.91907 605.127,277.76479 606.08336,276.28145 L 600.76326,274.95879 C 599.9841,275.90811 598.99886,276.649 597.79467,277.16322 C 596.62582,277.67744 595.10983,277.92743 593.26821,277.92743 C 591.6036,277.92743 590.02346,277.69667 588.53597,277.22201 C 587.08383,276.7671 585.78953,276.11276 584.65616,275.2821 C 583.52287,274.45142 582.62501,273.45096 581.95204,272.28406 C 581.31453,271.13692 581.01147,269.86726 581.01147,268.46304 C 581.01147,267.47413 581.20372,266.60825 581.62877,265.87649 C 582.08918,265.14471 582.73073,264.5486 583.50989,264.05416 C 584.28906,263.57949 585.18691,263.19435 586.21401,262.93724 C 587.27647,262.69991 588.41331,262.58453 589.65289,262.58453 C 592.06128,262.58453 594.03787,262.99849 595.56082,263.78962 C 597.08379,264.60051 598.13308,265.75481 598.73522,267.25794 C 598.73522,267.27771 598.73513,267.30657 598.73522,267.34612 C 598.77059,267.40546 598.794,267.43429 598.794,267.43429 L 592.65093,267.43429 L 593.5327,270.43233 L 605.31915,270.43233 L 604.70186,268.46304 C 604.24145,266.92034 603.54195,265.59299 602.58559,264.46565 C 601.66478,263.3383 600.52191,262.40514 599.17606,261.67337 C 597.86567,260.94158 596.34967,260.38339 594.64962,260.02738 C 592.94964,259.69115 591.08385,259.5277 589.06504,259.5277 z M 536.48184,259.88042 L 543.06577,280.66093 L 548.44456,280.66093 L 559.0553,267.40491 C 559.37407,267.00934 559.72978,266.5569 560.084,266.08225 C 560.4382,265.60756 560.70054,265.24221 560.87764,264.96532 C 560.91301,265.06421 560.95373,265.23728 561.02455,265.49439 C 561.09538,265.77129 561.15952,266.0501 561.23035,266.34677 C 561.30117,266.66322 561.39458,266.98104 561.46549,267.25794 C 561.57168,267.55461 561.63582,267.76614 561.67119,267.90458 L 565.63923,280.66093 L 571.13559,280.66093 L 564.52231,259.88042 L 559.43736,259.88042 L 548.59157,273.19523 C 548.27281,273.59078 547.92302,274.01382 547.53343,274.48851 C 547.17922,274.96315 546.91689,275.33813 546.73978,275.63482 C 546.70443,275.53591 546.66369,275.35324 546.59287,275.07636 C 546.52205,274.81922 546.42855,274.54041 546.35772,274.22398 C 546.28691,273.92729 546.19944,273.63886 546.09315,273.34219 C 546.02232,273.04551 545.9816,272.8046 545.94623,272.66617 L 541.94884,259.88042 L 536.48184,259.88042 z "
     id="text5584" />
  <path
     transform="matrix(0.9525251,6.4585384e-2,-6.4585384e-2,0.9525251,-51.73228,430.95248)"
     d="M 179.80715,418.82535 L 136.01242,395.47879 L 87.954791,407.86853 L 96.625376,359.00278 L 69.991407,317.1259 L 119.14486,310.27177 L 150.74179,272.0007 L 172.4497,316.63036 L 218.61165,334.85441 L 182.87443,369.29119 L 179.80715,418.82535 z "
     inkscape:randomized="0"
     inkscape:rounded="0"
     inkscape:flatsided="false"
     sodipodi:arg2="1.6895226"
     sodipodi:arg1="1.0612041"
     sodipodi:r2="45.665279"
     sodipodi:r1="78.688225"
     sodipodi:cy="350.13498"
     sodipodi:cx="141.42136"
     sodipodi:sides="5"
     id="path6523"
     style="opacity:0.22790701;color:#000000;fill:#ffffff;fill-opacity:1;fill-rule:nonzero;stroke:#ffffff;stroke-width:1.70000005;stroke-linecap:round;stroke-linejoin:round;marker:none;marker-start:none;marker-mid:none;marker-end:none;stroke-miterlimit:4;stroke-dasharray:none;stroke-dashoffset:0;stroke-opacity:1;visibility:visible;display:block;overflow:visible"
     sodipodi:type="star" />
  <g
     id="g2229"
     transform="matrix(1.2445778,0,0,1.2445778,4.7839332,-54.64709)">
    <rect
       style="color:#000000;fill:url(#linearGradient2245);fill-opacity:1;fill-rule:nonzero;stroke:none;stroke-width:2.29999995;stroke-linecap:butt;stroke-linejoin:miter;marker:none;marker-start:none;marker-mid:none;marker-end:none;stroke-miterlimit:4;stroke-dasharray:none;stroke-dashoffset:0;stroke-opacity:1;visibility:visible;display:inline;overflow:visible"
       id="rect7250"
       width="249.17096"
       height="35.916534"
       x="138.61537"
       y="364.80093" />
    <path
       id="text5379"
       d="M 206.99271,391.67218 L 206.99271,410.6214 L 197.85208,410.6214 L 197.85208,359.15265 C 203.94582,358.89489 207.50832,358.76598 208.53958,358.76593 C 216.67237,358.76598 222.61377,360.01989 226.3638,362.52765 C 230.1372,365.01207 232.02392,368.90269 232.02396,374.19952 C 232.02392,386.01205 225.06299,391.91829 211.14114,391.91827 C 210.10988,391.91829 208.72707,391.83626 206.99271,391.67218 M 206.99271,367.06281 L 206.99271,383.55109 C 208.53957,383.71518 209.75831,383.79721 210.64896,383.79718 C 214.82081,383.79721 217.86768,383.1058 219.78958,381.72296 C 221.71143,380.31674 222.67236,378.04331 222.67239,374.90265 C 222.67236,369.55894 218.37159,366.88707 209.77005,366.88702 C 208.8091,366.88707 207.88332,366.94566 206.99271,367.06281"
       style="font-size:72px;font-style:normal;font-weight:bold;fill:#000000;fill-opacity:1;stroke:#000000;stroke-width:2.5;stroke-linecap:butt;stroke-linejoin:bevel;stroke-miterlimit:4;stroke-opacity:1;font-family:Trebuchet MS" />
    <path
       id="text2190"
       d="M 209.71022,388.75351 L 209.71022,407.70273 L 200.5696,407.70273 L 200.5696,356.23398 C 206.66333,355.97622 210.22583,355.84731 211.2571,355.84726 C 219.38988,355.84731 225.33128,357.10122 229.08131,359.60898 C 232.85471,362.0934 234.74143,365.98402 234.74147,371.28085 C 234.74143,383.09338 227.7805,388.99962 213.85866,388.9996 C 212.82739,388.99962 211.44458,388.91759 209.71022,388.75351 M 209.71022,364.14413 L 209.71022,380.63242 C 211.25708,380.79651 212.47583,380.87854 213.36647,380.87851 C 217.53832,380.87854 220.5852,380.18713 222.5071,378.80429 C 224.42894,377.39807 225.38988,375.12464 225.38991,371.98398 C 225.38988,366.64027 221.0891,363.9684 212.48756,363.96835 C 211.52661,363.9684 210.60083,364.02699 209.71022,364.14413"
       style="font-size:72px;font-style:normal;font-weight:bold;fill:#9cdc30;fill-opacity:1;stroke:#ffffff;stroke-width:2.5;stroke-linecap:butt;stroke-linejoin:bevel;stroke-miterlimit:4;stroke-opacity:1;font-family:Trebuchet MS" />
    <path
       id="text6352"
       d="M 250.65924,378.15982 L 248.72174,378.15982 L 248.72174,375.81607 L 250.65924,375.81607 L 250.65924,372.31607 L 253.62799,371.17545 L 253.62799,375.81607 L 258.22174,375.81607 L 258.22174,378.15982 L 253.62799,378.15982 L 253.62799,386.47232 C 253.62798,387.87858 253.86236,388.87857 254.33112,389.47232 C 254.81028,390.06607 255.5759,390.36295 256.62799,390.36295 C 257.3884,390.36295 258.17486,390.17024 258.98737,389.78482 L 259.42487,392.3942 C 258.19569,392.7067 256.84673,392.86295 255.37799,392.86295 C 254.05507,392.86295 252.93528,392.37336 252.01862,391.3942 C 251.11236,390.40461 250.65924,389.15982 250.65924,387.65982 L 250.65924,378.15982 M 261.19049,384.1442 C 261.19049,381.56087 261.8832,379.47754 263.26862,377.8942 C 264.66444,376.30046 266.49778,375.50359 268.76862,375.50357 C 271.16444,375.50359 273.02381,376.26921 274.34674,377.80045 C 275.66964,379.32129 276.3311,381.43587 276.33112,384.1442 C 276.3311,386.84212 275.65402,388.97232 274.29987,390.53482 C 272.94569,392.0869 271.10194,392.86295 268.76862,392.86295 C 266.38319,392.86295 264.52382,392.07649 263.19049,390.50357 C 261.85716,388.93066 261.19049,386.81087 261.19049,384.1442 M 264.31549,384.1442 C 264.31549,388.34212 265.79986,390.44107 268.76862,390.44107 C 270.15402,390.44107 271.23735,389.87857 272.01862,388.75357 C 272.81027,387.62858 273.2061,386.09212 273.20612,384.1442 C 273.2061,379.99837 271.72694,377.92546 268.76862,377.92545 C 267.41444,377.92546 266.33111,378.47754 265.51862,379.5817 C 264.71653,380.68587 264.31549,382.20671 264.31549,384.1442 M 292.45612,383.73795 L 292.45612,392.55045 L 289.33112,392.55045 L 289.33112,369.65982 C 291.69569,369.55568 293.12278,369.50359 293.61237,369.50357 C 300.25819,369.50359 303.5811,371.72755 303.58112,376.17545 C 303.5811,381.32129 300.6436,383.8942 294.76862,383.8942 C 294.41444,383.8942 293.64361,383.84212 292.45612,383.73795 M 292.45612,372.47232 L 292.45612,380.92545 C 293.77903,381.02962 294.47694,381.08171 294.54987,381.0817 C 298.42485,381.08171 300.36235,379.55567 300.36237,376.50357 C 300.36235,373.71192 298.29465,372.31609 294.15924,372.31607 C 293.74257,372.31609 293.17486,372.36817 292.45612,372.47232 M 314.56549,378.67545 C 313.91965,378.22754 313.26861,378.00359 312.61237,378.00357 C 311.56027,378.00359 310.6384,378.48796 309.84674,379.4567 C 309.06549,380.42546 308.67486,381.59212 308.67487,382.9567 L 308.67487,392.55045 L 305.70612,392.55045 L 305.70612,375.81607 L 308.67487,375.81607 L 308.67487,378.48795 C 309.75819,376.49838 311.36757,375.50359 313.50299,375.50357 C 314.03423,375.50359 314.79985,375.59734 315.79987,375.78482 L 314.56549,378.67545 M 327.36237,390.62857 C 326.17486,392.11815 324.35715,392.86295 321.90924,392.86295 C 320.59674,392.86295 319.45611,392.38899 318.48737,391.44107 C 317.52903,390.48274 317.04986,389.29524 317.04987,387.87857 C 317.04986,386.18066 317.78945,384.74837 319.26862,383.5817 C 320.75819,382.40462 322.65403,381.81608 324.95612,381.81607 C 325.58111,381.81608 326.28944,381.9515 327.08112,382.22232 C 327.0811,379.514 325.87277,378.15983 323.45612,378.15982 C 321.60194,378.15983 320.17486,378.65983 319.17487,379.65982 L 317.92487,377.17545 C 318.48736,376.71713 319.2634,376.3265 320.25299,376.00357 C 321.25299,375.67025 322.20611,375.50359 323.11237,375.50357 C 325.53944,375.50359 327.29985,376.05567 328.39362,377.15982 C 329.49777,378.264 330.04985,380.01921 330.04987,382.42545 L 330.04987,388.42545 C 330.04985,389.8942 330.48735,390.87336 331.36237,391.36295 L 331.36237,392.84732 C 330.15402,392.84732 329.24777,392.67545 328.64362,392.3317 C 328.04985,391.98795 327.62277,391.42024 327.36237,390.62857 M 327.08112,384.3317 C 326.14361,384.12337 325.48736,384.0192 325.11237,384.0192 C 323.61236,384.0192 322.3884,384.40462 321.44049,385.17545 C 320.49257,385.94629 320.01861,386.85774 320.01862,387.90982 C 320.01861,389.64941 321.04465,390.5192 323.09674,390.5192 C 324.59673,390.5192 325.92486,389.80566 327.08112,388.37857 L 327.08112,384.3317 M 347.34674,377.17545 L 345.87799,379.2692 C 345.57589,378.96713 345.03944,378.68067 344.26862,378.40982 C 343.50819,378.139 342.75819,378.00359 342.01862,378.00357 C 340.40402,378.00359 339.12278,378.57129 338.17487,379.7067 C 337.22694,380.83171 336.75299,382.37858 336.75299,384.34732 C 336.75299,386.30566 337.23736,387.80045 338.20612,388.8317 C 339.17486,389.85253 340.51861,390.36295 342.23737,390.36295 C 343.57069,390.36295 344.91444,389.84732 346.26862,388.81607 L 347.44049,391.31607 C 345.84673,392.34732 343.87277,392.86295 341.51862,392.86295 C 339.23736,392.86295 337.35194,392.09732 335.86237,390.56607 C 334.37278,389.03482 333.62799,386.96191 333.62799,384.34732 C 333.62799,381.68066 334.39882,379.54004 335.94049,377.92545 C 337.49257,376.31088 339.61236,375.50359 342.29987,375.50357 C 343.16444,375.50359 344.10194,375.68588 345.11237,376.05045 C 346.12277,376.41505 346.86756,376.79004 347.34674,377.17545 M 351.65924,378.15982 L 349.72174,378.15982 L 349.72174,375.81607 L 351.65924,375.81607 L 351.65924,372.31607 L 354.62799,371.17545 L 354.62799,375.81607 L 359.22174,375.81607 L 359.22174,378.15982 L 354.62799,378.15982 L 354.62799,386.47232 C 354.62798,387.87858 354.86236,388.87857 355.33112,389.47232 C 355.81028,390.06607 356.5759,390.36295 357.62799,390.36295 C 358.3884,390.36295 359.17486,390.17024 359.98737,389.78482 L 360.42487,392.3942 C 359.19569,392.7067 357.84673,392.86295 356.37799,392.86295 C 355.05507,392.86295 353.93528,392.37336 353.01862,391.3942 C 352.11236,390.40461 351.65924,389.15982 351.65924,387.65982 L 351.65924,378.15982 M 366.34674,369.48795 C 366.85715,369.48797 367.28944,369.67026 367.64362,370.03482 C 368.00819,370.38901 368.19048,370.81609 368.19049,371.31607 C 368.19048,371.82651 368.00819,372.26401 367.64362,372.62857 C 367.28944,372.98276 366.85715,373.15984 366.34674,373.15982 C 365.84674,373.15984 365.41444,372.98276 365.04987,372.62857 C 364.6957,372.26401 364.51861,371.82651 364.51862,371.31607 C 364.51861,370.80568 364.6957,370.37338 365.04987,370.0192 C 365.40403,369.66505 365.83632,369.48797 366.34674,369.48795 M 364.72174,392.55045 L 364.72174,378.31607 L 362.42487,378.31607 L 362.42487,375.81607 L 367.69049,375.81607 L 367.69049,392.55045 L 364.72174,392.55045 M 385.03424,377.17545 L 383.56549,379.2692 C 383.26339,378.96713 382.72694,378.68067 381.95612,378.40982 C 381.19569,378.139 380.44569,378.00359 379.70612,378.00357 C 378.09152,378.00359 376.81028,378.57129 375.86237,379.7067 C 374.91444,380.83171 374.44049,382.37858 374.44049,384.34732 C 374.44049,386.30566 374.92486,387.80045 375.89362,388.8317 C 376.86236,389.85253 378.20611,390.36295 379.92487,390.36295 C 381.25819,390.36295 382.60194,389.84732 383.95612,388.81607 L 385.12799,391.31607 C 383.53423,392.34732 381.56027,392.86295 379.20612,392.86295 C 376.92486,392.86295 375.03944,392.09732 373.54987,390.56607 C 372.06028,389.03482 371.31549,386.96191 371.31549,384.34732 C 371.31549,381.68066 372.08632,379.54004 373.62799,377.92545 C 375.18007,376.31088 377.29986,375.50359 379.98737,375.50357 C 380.85194,375.50359 381.78944,375.68588 382.79987,376.05045 C 383.81027,376.41505 384.55506,376.79004 385.03424,377.17545 M 402.37799,384.47232 L 390.31549,384.47232 C 390.31549,386.43066 390.85194,387.93587 391.92487,388.98795 C 392.87278,389.90461 394.09152,390.36295 395.58112,390.36295 C 397.27902,390.36295 398.69569,389.86816 399.83112,388.87857 L 401.08112,391.0192 C 400.62277,391.47753 399.91964,391.87336 398.97174,392.2067 C 397.78423,392.6442 396.46131,392.86295 395.00299,392.86295 C 392.89882,392.86295 391.11236,392.1494 389.64362,390.72232 C 388.0082,389.14941 387.19049,387.03483 387.19049,384.37857 C 387.19049,381.61816 388.02903,379.40463 389.70612,377.73795 C 391.20611,376.24838 392.98215,375.50359 395.03424,375.50357 C 397.41965,375.50359 399.28944,376.17546 400.64362,377.5192 C 401.9561,378.81088 402.61235,380.52442 402.61237,382.65982 C 402.61235,383.31608 402.53422,383.92025 402.37799,384.47232 M 395.17487,378.00357 C 393.85194,378.00359 392.74257,378.43067 391.84674,379.28482 C 390.99257,380.09733 390.50819,381.10775 390.39362,382.31607 L 399.65924,382.31607 C 399.65923,381.11817 399.28423,380.11817 398.53424,379.31607 C 397.71131,378.44108 396.59152,378.00359 395.17487,378.00357"
       style="font-size:32px;font-style:normal;font-weight:normal;fill:#000000;fill-opacity:1;stroke:none;stroke-width:1px;stroke-linecap:butt;stroke-linejoin:miter;stroke-opacity:1;font-family:Trebuchet MS" />
  </g>
  <g
     id="g2223"
     transform="matrix(1.2445778,0,0,1.2445778,388.93248,246.38568)">
    <rect
       style="color:#000000;fill:url(#linearGradient2243);fill-opacity:1;fill-rule:nonzero;stroke:none;stroke-width:2.29999995;stroke-linecap:butt;stroke-linejoin:miter;marker:none;marker-start:none;marker-mid:none;marker-end:none;stroke-miterlimit:4;stroke-dasharray:none;stroke-dashoffset:0;stroke-opacity:1;visibility:visible;display:inline;overflow:visible"
       id="rect6373"
       width="249.17096"
       height="35.916534"
       x="138.61537"
       y="293.2326" />
    <path
       id="text6375"
       d="M 233.14896,290.29135 L 229.38724,297.84995 C 227.34814,295.81093 224.06689,294.7914 219.54349,294.79135 C 215.2544,294.7914 211.73878,296.59608 208.99661,300.20541 C 206.25441,303.79139 204.88332,308.33826 204.88333,313.84604 C 204.88332,319.35387 206.14894,323.72496 208.68021,326.95932 C 211.23488,330.1937 214.63331,331.81089 218.87552,331.81088 C 223.72705,331.81089 227.52392,330.07652 230.26614,326.60776 L 234.52005,333.99057 C 230.79345,337.95151 225.33252,339.93198 218.13724,339.93198 C 210.94191,339.93198 205.35207,337.56479 201.36771,332.83041 C 197.38333,328.09605 195.39114,321.63902 195.39114,313.45932 C 195.39114,305.84217 197.59426,299.47889 202.00052,294.36948 C 206.43019,289.23671 212.09034,286.67031 218.98099,286.67026 C 224.88721,286.67031 229.60986,287.87734 233.14896,290.29135"
       style="font-size:72px;font-style:normal;font-weight:bold;fill:#000000;fill-opacity:1;stroke:#000000;stroke-width:2.5;stroke-linecap:butt;stroke-linejoin:bevel;stroke-miterlimit:4;stroke-opacity:1;font-family:Trebuchet MS" />
    <path
       id="text6379"
       d="M 235.86647,287.37268 L 232.10475,294.93127 C 230.06565,292.89226 226.78441,291.87272 222.261,291.87268 C 217.97192,291.87272 214.45629,293.67741 211.71413,297.28674 C 208.97193,300.87272 207.60083,305.41959 207.60085,310.92737 C 207.60083,316.4352 208.86646,320.80629 211.39772,324.04065 C 213.95239,327.27503 217.35082,328.89222 221.59303,328.89221 C 226.44456,328.89222 230.24144,327.15785 232.98366,323.68909 L 237.23756,331.0719 C 233.51096,335.03284 228.05003,337.0133 220.85475,337.01331 C 213.65942,337.0133 208.06958,334.64612 204.08522,329.91174 C 200.10084,325.17738 198.10866,318.72035 198.10866,310.54065 C 198.10866,302.9235 200.31178,296.56022 204.71803,291.45081 C 209.14771,286.31804 214.80786,283.75164 221.6985,283.75159 C 227.60472,283.75164 232.32737,284.95867 235.86647,287.37268"
       style="font-size:72px;font-style:normal;font-weight:bold;fill:#9cdc30;fill-opacity:1;stroke:#ffffff;stroke-width:2.5;stroke-linecap:butt;stroke-linejoin:bevel;stroke-miterlimit:4;stroke-opacity:1;font-family:Trebuchet MS" />
    <path
       id="text6383"
       d="M 250.65924,306.59149 L 248.72174,306.59149 L 248.72174,304.24774 L 250.65924,304.24774 L 250.65924,300.74774 L 253.62799,299.60712 L 253.62799,304.24774 L 258.22174,304.24774 L 258.22174,306.59149 L 253.62799,306.59149 L 253.62799,314.90399 C 253.62798,316.31025 253.86236,317.31025 254.33112,317.90399 C 254.81028,318.49774 255.5759,318.79462 256.62799,318.79462 C 257.3884,318.79462 258.17486,318.60191 258.98737,318.21649 L 259.42487,320.82587 C 258.19569,321.13837 256.84673,321.29462 255.37799,321.29462 C 254.05507,321.29462 252.93528,320.80503 252.01862,319.82587 C 251.11236,318.83629 250.65924,317.5915 250.65924,316.09149 L 250.65924,306.59149 M 261.19049,312.57587 C 261.19049,309.99254 261.8832,307.90921 263.26862,306.32587 C 264.66444,304.73213 266.49778,303.93526 268.76862,303.93524 C 271.16444,303.93526 273.02381,304.70088 274.34674,306.23212 C 275.66964,307.75296 276.3311,309.86754 276.33112,312.57587 C 276.3311,315.27379 275.65402,317.404 274.29987,318.96649 C 272.94569,320.51858 271.10194,321.29462 268.76862,321.29462 C 266.38319,321.29462 264.52382,320.50816 263.19049,318.93524 C 261.85716,317.36233 261.19049,315.24254 261.19049,312.57587 M 264.31549,312.57587 C 264.31549,316.77379 265.79986,318.87274 268.76862,318.87274 C 270.15402,318.87274 271.23735,318.31024 272.01862,317.18524 C 272.81027,316.06025 273.2061,314.52379 273.20612,312.57587 C 273.2061,308.43005 271.72694,306.35713 268.76862,306.35712 C 267.41444,306.35713 266.33111,306.90921 265.51862,308.01337 C 264.71653,309.11755 264.31549,310.63838 264.31549,312.57587 M 303.94049,298.93524 L 302.89362,301.60712 C 301.8936,300.87797 300.32069,300.51339 298.17487,300.51337 C 296.16444,300.51339 294.54986,301.37797 293.33112,303.10712 C 292.12278,304.8363 291.51861,307.06546 291.51862,309.79462 C 291.51861,312.39879 292.1384,314.51337 293.37799,316.13837 C 294.62798,317.75295 296.23736,318.56024 298.20612,318.56024 C 300.35194,318.56024 302.00298,317.79983 303.15924,316.27899 L 304.87799,318.66962 C 303.06547,320.4717 300.73214,321.37274 297.87799,321.37274 C 294.8884,321.37274 292.53424,320.29462 290.81549,318.13837 C 289.09674,315.98212 288.23736,313.13837 288.23737,309.60712 C 288.23736,306.19046 289.15403,303.35193 290.98737,301.09149 C 292.82069,298.8311 295.19048,297.70089 298.09674,297.70087 C 300.58631,297.70089 302.53423,298.11235 303.94049,298.93524 M 307.12799,312.57587 C 307.12799,309.99254 307.8207,307.90921 309.20612,306.32587 C 310.60194,304.73213 312.43528,303.93526 314.70612,303.93524 C 317.10194,303.93526 318.96131,304.70088 320.28424,306.23212 C 321.60714,307.75296 322.2686,309.86754 322.26862,312.57587 C 322.2686,315.27379 321.59152,317.404 320.23737,318.96649 C 318.88319,320.51858 317.03944,321.29462 314.70612,321.29462 C 312.32069,321.29462 310.46132,320.50816 309.12799,318.93524 C 307.79466,317.36233 307.12799,315.24254 307.12799,312.57587 M 310.25299,312.57587 C 310.25299,316.77379 311.73736,318.87274 314.70612,318.87274 C 316.09152,318.87274 317.17485,318.31024 317.95612,317.18524 C 318.74777,316.06025 319.1436,314.52379 319.14362,312.57587 C 319.1436,308.43005 317.66444,306.35713 314.70612,306.35712 C 313.35194,306.35713 312.26861,306.90921 311.45612,308.01337 C 310.65403,309.11755 310.25299,310.63838 310.25299,312.57587 M 335.70612,320.98212 L 335.70612,311.24774 C 335.7061,309.4665 335.43527,308.22171 334.89362,307.51337 C 334.36235,306.79463 333.46652,306.43526 332.20612,306.43524 C 331.52902,306.43526 330.82069,306.63838 330.08112,307.04462 C 329.34153,307.45088 328.77382,307.95088 328.37799,308.54462 L 328.37799,320.98212 L 325.40924,320.98212 L 325.40924,304.24774 L 327.44049,304.24774 L 328.37799,306.40399 C 329.35715,304.75817 330.95611,303.93526 333.17487,303.93524 C 336.84152,303.93526 338.67485,306.16442 338.67487,310.62274 L 338.67487,320.98212 L 335.70612,320.98212 M 351.95612,300.04462 C 351.35194,299.8363 350.78944,299.73214 350.26862,299.73212 C 349.36236,299.73214 348.61236,300.07589 348.01862,300.76337 C 347.43528,301.45089 347.14361,302.32068 347.14362,303.37274 C 347.14361,303.65401 347.16965,303.94568 347.22174,304.24774 L 350.62799,304.24774 L 350.62799,306.74774 L 347.22174,306.74774 L 347.22174,320.98212 L 344.25299,320.98212 L 344.25299,306.74774 L 341.81549,306.74774 L 341.81549,304.24774 L 344.25299,304.24774 C 344.25299,302.11234 344.77903,300.43526 345.83112,299.21649 C 346.88319,297.99776 348.27382,297.38839 350.00299,297.38837 C 350.86756,297.38839 351.79465,297.54464 352.78424,297.85712 L 351.95612,300.04462 M 357.78424,297.91962 C 358.29465,297.91964 358.72694,298.10193 359.08112,298.46649 C 359.44569,298.82068 359.62798,299.24776 359.62799,299.74774 C 359.62798,300.25818 359.44569,300.69568 359.08112,301.06024 C 358.72694,301.41443 358.29465,301.59151 357.78424,301.59149 C 357.28424,301.59151 356.85194,301.41443 356.48737,301.06024 C 356.1332,300.69568 355.95611,300.25818 355.95612,299.74774 C 355.95611,299.23735 356.1332,298.80506 356.48737,298.45087 C 356.84153,298.09672 357.27382,297.91964 357.78424,297.91962 M 356.15924,320.98212 L 356.15924,306.74774 L 353.86237,306.74774 L 353.86237,304.24774 L 359.12799,304.24774 L 359.12799,320.98212 L 356.15924,320.98212 M 363.23737,325.56024 L 364.84674,323.18524 C 366.5759,324.34149 368.16965,324.91961 369.62799,324.91962 C 370.97173,324.91961 372.02902,324.68524 372.79987,324.21649 C 373.5811,323.75816 373.97173,323.18524 373.97174,322.49774 C 373.97173,321.14357 372.99256,320.46649 371.03424,320.46649 C 370.7009,320.46649 370.09673,320.54983 369.22174,320.71649 C 368.34673,320.88316 367.66444,320.96649 367.17487,320.96649 C 364.79986,320.96649 363.61236,320.07066 363.61237,318.27899 C 363.61236,317.72691 363.88841,317.22691 364.44049,316.77899 C 365.00299,316.33108 365.6957,316.00816 366.51862,315.81024 C 364.16445,314.70608 362.98736,312.78942 362.98737,310.06024 C 362.98736,308.31025 363.59674,306.85192 364.81549,305.68524 C 366.03424,304.51859 367.53944,303.93526 369.33112,303.93524 C 370.97694,303.93526 372.2634,304.2738 373.19049,304.95087 L 374.67487,303.16962 L 376.61237,304.99774 L 374.83112,306.34149 C 375.59152,307.33109 375.97173,308.62275 375.97174,310.21649 C 375.97173,311.904 375.44569,313.32067 374.39362,314.46649 C 373.34152,315.61233 371.96131,316.26858 370.25299,316.43524 L 367.79987,316.68524 C 367.50819,316.7165 367.11757,316.83108 366.62799,317.02899 C 366.1384,317.2165 365.89361,317.4665 365.89362,317.77899 C 365.89361,318.20608 366.40403,318.41962 367.42487,318.41962 C 367.87278,318.41962 368.57069,318.34149 369.51862,318.18524 C 370.46652,318.01858 371.16965,317.93524 371.62799,317.93524 C 373.27381,317.93524 374.55506,318.33108 375.47174,319.12274 C 376.39881,319.90399 376.86235,320.99253 376.86237,322.38837 C 376.86235,323.93003 376.16964,325.17482 374.78424,326.12274 C 373.40923,327.07065 371.66444,327.54461 369.54987,327.54462 C 368.46653,327.54461 367.3259,327.3519 366.12799,326.96649 C 364.93007,326.58107 363.96653,326.11232 363.23737,325.56024 M 369.53424,306.32587 C 368.50298,306.32588 367.65923,306.69046 367.00299,307.41962 C 366.35715,308.1488 366.03424,309.03421 366.03424,310.07587 C 366.03424,311.24254 366.34674,312.21129 366.97174,312.98212 C 367.60715,313.74254 368.46132,314.12275 369.53424,314.12274 C 370.58632,314.12275 371.40923,313.75296 372.00299,313.01337 C 372.59673,312.26338 372.8936,311.28421 372.89362,310.07587 C 372.8936,309.03421 372.57069,308.1488 371.92487,307.41962 C 371.28944,306.69046 370.49257,306.32588 369.53424,306.32587 M 382.72174,304.24774 L 382.72174,314.91962 C 382.72174,317.50295 383.84153,318.79462 386.08112,318.79462 C 387.06027,318.79462 387.95611,318.51337 388.76862,317.95087 C 389.5811,317.38837 390.11756,316.73733 390.37799,315.99774 L 390.37799,304.24774 L 393.34674,304.24774 L 393.34674,320.98212 L 390.37799,320.98212 L 390.37799,318.66962 C 390.04465,319.32587 389.37277,319.93003 388.36237,320.48212 C 387.36236,321.02378 386.38319,321.29462 385.42487,321.29462 C 383.59153,321.29462 382.18528,320.76858 381.20612,319.71649 C 380.23736,318.66441 379.75299,317.16962 379.75299,315.23212 L 379.75299,304.24774 L 382.72174,304.24774 M 406.50299,307.10712 C 405.85715,306.65921 405.20611,306.43526 404.54987,306.43524 C 403.49777,306.43526 402.5759,306.91963 401.78424,307.88837 C 401.00299,308.85713 400.61236,310.02379 400.61237,311.38837 L 400.61237,320.98212 L 397.64362,320.98212 L 397.64362,304.24774 L 400.61237,304.24774 L 400.61237,306.91962 C 401.69569,304.93005 403.30507,303.93526 405.44049,303.93524 C 405.97173,303.93526 406.73735,304.02901 407.73737,304.21649 L 406.50299,307.10712 M 423.94049,312.90399 L 411.87799,312.90399 C 411.87799,314.86233 412.41444,316.36754 413.48737,317.41962 C 414.43528,318.33629 415.65402,318.79462 417.14362,318.79462 C 418.84152,318.79462 420.25819,318.29983 421.39362,317.31024 L 422.64362,319.45087 C 422.18527,319.9092 421.48214,320.30503 420.53424,320.63837 C 419.34673,321.07587 418.02381,321.29462 416.56549,321.29462 C 414.46132,321.29462 412.67486,320.58108 411.20612,319.15399 C 409.5707,317.58108 408.75299,315.4665 408.75299,312.81024 C 408.75299,310.04984 409.59153,307.8363 411.26862,306.16962 C 412.76861,304.68005 414.54465,303.93526 416.59674,303.93524 C 418.98215,303.93526 420.85194,304.60713 422.20612,305.95087 C 423.5186,307.24255 424.17485,308.95609 424.17487,311.09149 C 424.17485,311.74775 424.09672,312.35192 423.94049,312.90399 M 416.73737,306.43524 C 415.41444,306.43526 414.30507,306.86234 413.40924,307.71649 C 412.55507,308.529 412.07069,309.53942 411.95612,310.74774 L 421.22174,310.74774 C 421.22173,309.54984 420.84673,308.54984 420.09674,307.74774 C 419.27381,306.87276 418.15402,306.43526 416.73737,306.43524"
       style="font-size:32px;font-style:normal;font-weight:normal;fill:#000000;fill-opacity:1;stroke:none;stroke-width:1px;stroke-linecap:butt;stroke-linejoin:miter;stroke-opacity:1;font-family:Trebuchet MS" />
  </g>
  <rect
     y="298.27982"
     x="177.30156"
     height="44.70092"
     width="310.11264"
     id="rect6405"
     style="color:#000000;fill:url(#linearGradient2234);fill-opacity:1;fill-rule:nonzero;stroke:none;stroke-width:2.29999995;stroke-linecap:butt;stroke-linejoin:miter;marker:none;marker-start:none;marker-mid:none;marker-end:none;stroke-miterlimit:4;stroke-dasharray:none;stroke-dashoffset:0;stroke-opacity:1;visibility:visible;display:inline;overflow:visible" />
  <path
     style="font-size:72px;font-style:normal;font-weight:bold;fill:#000000;fill-opacity:1;stroke:#000000;stroke-width:3.11144447;stroke-linecap:butt;stroke-linejoin:bevel;stroke-miterlimit:4;stroke-opacity:1;font-family:Trebuchet MS"
     d="M 247.96341,351.76283 L 252.16386,341.56798 C 256.656,344.71833 261.07522,346.29349 265.42154,346.29348 C 272.10138,346.29349 275.44132,343.95991 275.44136,339.29273 C 275.44132,337.10502 274.65374,335.01938 273.0786,333.03581 C 271.5034,331.05229 268.25098,328.83539 263.32131,326.3851 C 258.42077,323.9057 255.11,321.8784 253.389,320.3032 C 251.69714,318.6989 250.3845,316.80286 249.45108,314.61509 C 248.5468,312.4274 248.09467,310.00631 248.09467,307.35181 C 248.09467,302.393 249.90319,298.28007 253.52026,295.01299 C 257.16646,291.74604 261.83363,290.11253 267.52176,290.11247 C 274.93086,290.11253 280.37102,291.49809 283.84226,294.26916 L 280.38564,304.07021 C 276.38934,301.21162 272.17432,299.78231 267.74053,299.78225 C 265.11523,299.78231 263.07334,300.48239 261.61487,301.88248 C 260.18554,303.25352 259.47089,305.04745 259.4709,307.2643 C 259.47089,310.93974 263.54006,314.76098 271.67845,318.72804 C 275.96638,320.8283 279.05838,322.76808 280.95445,324.54741 C 282.85044,326.29762 284.29435,328.35409 285.28617,330.71682 C 286.2779,333.05042 286.77377,335.66111 286.77382,338.54891 C 286.77377,343.74114 284.71731,348.01451 280.60441,351.36903 C 276.52061,354.72355 271.03669,356.40082 264.15265,356.40082 C 258.17283,356.40082 252.77641,354.85482 247.96341,351.76283"
     id="text6407" />
  <path
     style="font-size:72px;font-style:normal;font-weight:bold;fill:#9cdc30;fill-opacity:1;stroke:#ffffff;stroke-width:3.11144447;stroke-linecap:butt;stroke-linejoin:bevel;stroke-miterlimit:4;stroke-opacity:1;font-family:Trebuchet MS"
     d="M 251.34557,348.13031 L 255.54602,337.93547 C 260.03815,341.08582 264.45737,342.66098 268.80369,342.66097 C 275.48355,342.66098 278.82349,340.3274 278.82351,335.66022 C 278.82349,333.47251 278.0359,331.38687 276.46077,329.4033 C 274.88557,327.41978 271.63314,325.20288 266.70346,322.75259 C 261.80293,320.27319 258.49216,318.24589 256.77115,316.67069 C 255.07929,315.06639 253.76666,313.17035 252.83323,310.98258 C 251.92896,308.79489 251.47683,306.3738 251.47684,303.7193 C 251.47683,298.76049 253.28536,294.64756 256.90241,291.38048 C 260.54863,288.11353 265.2158,286.48002 270.90391,286.47995 C 278.31301,286.48002 283.75317,287.86558 287.22441,290.63665 L 283.7678,300.4377 C 279.77151,297.57911 275.55647,296.1498 271.12269,296.14974 C 268.49739,296.1498 266.45551,296.84986 264.99704,298.24996 C 263.5677,299.62099 262.85304,301.41494 262.85305,303.63179 C 262.85304,307.30723 266.92222,311.12847 275.06062,315.09552 C 279.34854,317.19577 282.44054,319.13557 284.3366,320.9149 C 286.23261,322.66511 287.6765,324.72157 288.66832,327.0843 C 289.66005,329.41791 290.15594,332.0286 290.15598,334.9164 C 290.15594,340.10862 288.09947,344.38199 283.98657,347.73652 C 279.90276,351.09104 274.41885,352.76831 267.5348,352.76831 C 261.55498,352.76831 256.15858,351.22231 251.34557,348.13031"
     id="text6411" />
  <path
     style="font-size:32px;font-style:normal;font-weight:normal;fill:#000000;fill-opacity:1;stroke:none;stroke-width:1px;stroke-linecap:butt;stroke-linejoin:miter;stroke-opacity:1;font-family:Trebuchet MS"
     d="M 316.74886,314.90599 L 314.33749,314.90599 L 314.33749,311.98901 L 316.74886,311.98901 L 316.74886,307.63299 L 320.4437,306.2134 L 320.4437,311.98901 L 326.16098,311.98901 L 326.16098,314.90599 L 320.4437,314.90599 L 320.4437,325.25154 C 320.44368,327.00174 320.73539,328.24632 321.3188,328.98527 C 321.91515,329.72425 322.86802,330.09373 324.17743,330.09373 C 325.12382,330.09373 326.10263,329.85389 327.11386,329.3742 L 327.65837,332.62178 C 326.12856,333.01071 324.44967,333.20518 322.62171,333.20518 C 320.97523,333.20518 319.58157,332.59585 318.44071,331.3772 C 317.3128,330.14559 316.74886,328.59635 316.74886,326.72948 L 316.74886,314.90599 M 329.85582,322.35401 C 329.85582,319.13887 330.71795,316.546 332.44221,314.5754 C 334.17942,312.59188 336.46115,311.6001 339.28739,311.60008 C 342.26917,311.6001 344.5833,312.55299 346.22979,314.45872 C 347.87624,316.35154 348.69948,318.9833 348.69951,322.35401 C 348.69948,325.71178 347.8568,328.363 346.17146,330.30764 C 344.48608,332.23933 342.19139,333.20518 339.28739,333.20518 C 336.31854,333.20518 334.0044,332.22636 332.34497,330.26874 C 330.68554,328.31113 329.85582,325.67289 329.85582,322.35401 M 333.74512,322.35401 C 333.74512,327.57865 335.59254,330.19097 339.28739,330.19096 C 341.01163,330.19097 342.35992,329.49089 343.33227,328.09073 C 344.31754,326.69059 344.81018,324.77835 344.8102,322.35401 C 344.81018,317.19422 342.96925,314.61431 339.28739,314.61429 C 337.60201,314.61431 336.25372,315.30143 335.24251,316.67563 C 334.24425,318.04986 333.74512,319.94266 333.74512,322.35401 M 363.59555,331.51332 L 365.01514,327.93516 C 365.74114,328.46671 366.64216,328.91398 367.71821,329.27698 C 368.80721,329.62701 369.77953,329.80204 370.63519,329.80203 C 372.15201,329.80204 373.37065,329.38717 374.29114,328.55745 C 375.21159,327.72774 375.67182,326.67114 375.67184,325.38767 C 375.67182,324.42831 375.41254,323.54026 374.89397,322.72349 C 374.38835,321.89379 373.10488,320.99277 371.04356,320.02043 L 368.74887,318.95086 C 366.80422,318.04338 365.44296,316.96734 364.6651,315.72274 C 363.90021,314.47819 363.51775,312.98081 363.51776,311.2306 C 363.51775,309.10446 364.26969,307.34132 365.77356,305.94114 C 367.27741,304.54102 369.2091,303.84094 371.56862,303.84092 C 374.71895,303.84094 376.90992,304.35304 378.14155,305.37719 L 376.9942,308.76088 C 376.47561,308.38495 375.68479,308.02194 374.62172,307.67188 C 373.55863,307.32187 372.57335,307.14685 371.66585,307.14683 C 370.34347,307.14685 369.29985,307.52282 368.53497,308.27473 C 367.78302,309.02668 367.40706,309.99253 367.40707,311.17225 C 367.40706,311.89828 367.54319,312.55946 367.81544,313.1558 C 368.08769,313.75219 368.46365,314.25131 368.94334,314.65319 C 369.43598,315.0551 370.43423,315.61904 371.9381,316.34503 L 374.27169,317.45349 C 376.21633,318.37397 377.57758,319.47594 378.35546,320.7594 C 379.14626,322.02991 379.54168,323.65045 379.5417,325.62103 C 379.54168,327.76015 378.67954,329.57517 376.95531,331.06606 C 375.244,332.55696 372.94931,333.3024 370.07124,333.3024 C 367.54319,333.3024 365.38462,332.70605 363.59555,331.51332 M 385.04506,314.90599 L 382.63369,314.90599 L 382.63369,311.98901 L 385.04506,311.98901 L 385.04506,307.63299 L 388.7399,306.2134 L 388.7399,311.98901 L 394.45718,311.98901 L 394.45718,314.90599 L 388.7399,314.90599 L 388.7399,325.25154 C 388.73989,327.00174 389.03159,328.24632 389.615,328.98527 C 390.21135,329.72425 391.16423,330.09373 392.47364,330.09373 C 393.42002,330.09373 394.39884,329.85389 395.41007,329.3742 L 395.95457,332.62178 C 394.42476,333.01071 392.74587,333.20518 390.91791,333.20518 C 389.27144,333.20518 387.87777,332.59585 386.73692,331.3772 C 385.609,330.14559 385.04506,328.59635 385.04506,326.72948 L 385.04506,314.90599 M 411.27843,330.42432 C 409.80049,332.27823 407.5382,333.20518 404.49159,333.20518 C 402.85808,333.20518 401.43848,332.6153 400.23281,331.43554 C 399.04008,330.24282 398.44371,328.76488 398.44373,327.00173 C 398.44371,324.88855 399.36419,323.10595 401.20513,321.65394 C 403.05902,320.18898 405.41854,319.45649 408.28367,319.45647 C 409.06152,319.45649 409.94309,319.62503 410.9284,319.96208 C 410.92837,316.59137 409.42451,314.90601 406.4168,314.90599 C 404.10913,314.90601 402.33302,315.5283 401.08845,316.77285 L 399.53273,313.68086 C 400.23279,313.11045 401.19864,312.62429 402.43026,312.22237 C 403.67484,311.80754 404.86107,311.6001 405.98898,311.60008 C 409.00966,311.6001 411.20062,312.28721 412.5619,313.66141 C 413.93611,315.03566 414.62321,317.22014 414.62324,320.21489 L 414.62324,327.68236 C 414.62321,329.51034 415.16771,330.72899 416.25674,331.33831 L 416.25674,333.18572 C 414.75286,333.18572 413.62496,332.97182 412.87305,332.54399 C 412.13406,332.11617 411.60252,331.40961 411.27843,330.42432 M 410.9284,322.58737 C 409.76159,322.32809 408.94484,322.19845 408.47813,322.19844 C 406.61125,322.19845 405.08794,322.67813 403.90819,323.63748 C 402.72843,324.59685 402.13855,325.73124 402.13857,327.04062 C 402.13855,329.20567 403.41554,330.2882 405.96953,330.2882 C 407.83638,330.2882 409.48934,329.40014 410.9284,327.62402 L 410.9284,322.58737 M 431.75562,315.54773 C 430.95182,314.99028 430.14155,314.71155 429.32481,314.71152 C 428.01539,314.71155 426.86805,315.31438 425.88277,316.52005 C 424.91044,317.72575 424.42427,319.17776 424.42429,320.87608 L 424.42429,332.81624 L 420.72945,332.81624 L 420.72945,311.98901 L 424.42429,311.98901 L 424.42429,315.31437 C 425.77256,312.8382 427.77556,311.6001 430.43326,311.60008 C 431.09443,311.6001 432.0473,311.71678 433.2919,311.95011 L 431.75562,315.54773 M 437.23954,314.90599 L 434.82817,314.90599 L 434.82817,311.98901 L 437.23954,311.98901 L 437.23954,307.63299 L 440.93438,306.2134 L 440.93438,311.98901 L 446.65166,311.98901 L 446.65166,314.90599 L 440.93438,314.90599 L 440.93438,325.25154 C 440.93437,327.00174 441.22607,328.24632 441.80948,328.98527 C 442.40583,329.72425 443.35871,330.09373 444.66812,330.09373 C 445.6145,330.09373 446.59332,329.85389 447.60455,329.3742 L 448.14905,332.62178 C 446.61924,333.01071 444.94035,333.20518 443.11239,333.20518 C 441.46592,333.20518 440.07225,332.59585 438.9314,331.3772 C 437.80349,330.14559 437.23954,328.59635 437.23954,326.72948 L 437.23954,314.90599"
     id="text6415" />
  <text
     xml:space="preserve"
     style="font-size:17.42408943px;font-style:normal;font-weight:normal;fill:#000000;fill-opacity:1;stroke:none;stroke-width:1px;stroke-linecap:butt;stroke-linejoin:miter;stroke-opacity:1;font-family:Bitstream Vera Sans"
     x="178.00002"
     y="313.25955"
     id="text6419"><tspan
       sodipodi:role="line"
       id="tspan6421"
       x="178.00002"
       y="313.25955">Press</tspan></text>
  <g
     id="g2235"
     transform="matrix(1.2445778,0,0,1.2445778,4.7839332,73.868056)">
    <rect
       style="color:#000000;fill:url(#linearGradient2241);fill-opacity:1;fill-rule:nonzero;stroke:none;stroke-width:2.29999995;stroke-linecap:butt;stroke-linejoin:miter;marker:none;marker-start:none;marker-mid:none;marker-end:none;stroke-miterlimit:4;stroke-dasharray:none;stroke-dashoffset:0;stroke-opacity:1;visibility:visible;display:inline;overflow:visible"
       id="rect6431"
       width="249.17096"
       height="35.916534"
       x="138.61537"
       y="430.99033" />
    <path
       id="text6433"
       d="M 246.68411,487.46313 C 245.13718,487.67406 243.56687,487.77953 241.97318,487.77954 C 237.61376,487.77953 233.59423,486.88891 229.91458,485.10767 C 226.2583,483.34985 223.41064,480.87719 221.37161,477.6897 C 220.5044,477.85376 219.10987,477.93579 217.18802,477.93579 C 210.41456,477.93579 205.08254,475.40454 201.19193,470.34204 C 197.32473,465.27955 195.39114,458.76393 195.39114,450.79517 C 195.39114,443.24832 197.37161,436.96708 201.33255,431.95142 C 205.29347,426.9124 210.57863,424.39287 217.18802,424.39282 C 224.61767,424.39287 230.33642,426.7249 234.34427,431.38892 C 238.37547,436.02958 240.3911,442.49833 240.39114,450.79517 C 240.3911,463.09987 236.35985,471.3147 228.29739,475.4397 C 230.85204,478.2522 235.09423,479.65844 241.02396,479.65845 C 243.20359,479.65844 245.09031,479.42407 246.68411,478.95532 L 246.68411,487.46313 M 204.88333,450.79517 C 204.88332,456.18581 205.96144,460.69753 208.11771,464.33032 C 210.27394,467.96314 213.29737,469.77955 217.18802,469.77954 C 221.68799,469.77955 225.09814,468.11549 227.41849,464.78735 C 229.73876,461.45924 230.89892,456.79519 230.89896,450.79517 C 230.89892,438.63114 226.32861,432.54912 217.18802,432.54907 C 213.15675,432.54912 210.09816,434.17802 208.01224,437.43579 C 205.92629,440.69364 204.88332,445.14676 204.88333,450.79517"
       style="font-size:72px;font-style:normal;font-weight:bold;fill:#000000;fill-opacity:1;stroke:#000000;stroke-width:2.5;stroke-linecap:butt;stroke-linejoin:bevel;stroke-miterlimit:4;stroke-opacity:1;font-family:Trebuchet MS" />
    <path
       id="text6437"
       d="M 249.40163,484.54446 C 247.8547,484.75539 246.28439,484.86086 244.69069,484.86087 C 240.33127,484.86086 236.31174,483.97024 232.6321,482.189 C 228.97581,480.43118 226.12816,477.95852 224.08913,474.77103 C 223.22191,474.93509 221.82738,475.01712 219.90553,475.01712 C 213.13208,475.01712 207.80005,472.48587 203.90944,467.42337 C 200.04225,462.36088 198.10866,455.84526 198.10866,447.8765 C 198.10866,440.32965 200.08912,434.04841 204.05006,429.03275 C 208.01099,423.99373 213.29614,421.4742 219.90553,421.47415 C 227.33519,421.4742 233.05393,423.80623 237.06178,428.47025 C 241.09299,433.11091 243.10861,439.57965 243.10866,447.8765 C 243.10861,460.1812 239.07736,468.39603 231.01491,472.52103 C 233.56956,475.33353 237.81174,476.73977 243.74147,476.73978 C 245.92111,476.73977 247.80782,476.5054 249.40163,476.03665 L 249.40163,484.54446 M 207.60085,447.8765 C 207.60083,453.26714 208.67896,457.77886 210.83522,461.41165 C 212.99145,465.04447 216.01489,466.86088 219.90553,466.86087 C 224.4055,466.86088 227.81566,465.19682 230.136,461.86868 C 232.45628,458.54057 233.61643,453.87652 233.61647,447.8765 C 233.61643,435.71247 229.04612,429.63045 219.90553,429.6304 C 215.87426,429.63045 212.81567,431.25935 210.72975,434.51712 C 208.6438,437.77497 207.60083,442.22809 207.60085,447.8765"
       style="font-size:72px;font-style:normal;font-weight:bold;fill:#9cdc30;fill-opacity:1;stroke:#ffffff;stroke-width:2.5;stroke-linecap:butt;stroke-linejoin:bevel;stroke-miterlimit:4;stroke-opacity:1;font-family:Trebuchet MS" />
    <path
       id="text6441"
       d="M 250.65924,444.34921 L 248.72174,444.34921 L 248.72174,442.00546 L 250.65924,442.00546 L 250.65924,438.50546 L 253.62799,437.36484 L 253.62799,442.00546 L 258.22174,442.00546 L 258.22174,444.34921 L 253.62799,444.34921 L 253.62799,452.66171 C 253.62798,454.06797 253.86236,455.06797 254.33112,455.66171 C 254.81028,456.25547 255.5759,456.55234 256.62799,456.55234 C 257.3884,456.55234 258.17486,456.35963 258.98737,455.97421 L 259.42487,458.58359 C 258.19569,458.89609 256.84673,459.05234 255.37799,459.05234 C 254.05507,459.05234 252.93528,458.56275 252.01862,457.58359 C 251.11236,456.59401 250.65924,455.34922 250.65924,453.84921 L 250.65924,444.34921 M 261.19049,450.33359 C 261.19049,447.75027 261.8832,445.66693 263.26862,444.08359 C 264.66444,442.48985 266.49778,441.69298 268.76862,441.69296 C 271.16444,441.69298 273.02381,442.4586 274.34674,443.98984 C 275.66964,445.51068 276.3311,447.62527 276.33112,450.33359 C 276.3311,453.03151 275.65402,455.16172 274.29987,456.72421 C 272.94569,458.2763 271.10194,459.05234 268.76862,459.05234 C 266.38319,459.05234 264.52382,458.26588 263.19049,456.69296 C 261.85716,455.12005 261.19049,453.00026 261.19049,450.33359 M 264.31549,450.33359 C 264.31549,454.53151 265.79986,456.63046 268.76862,456.63046 C 270.15402,456.63046 271.23735,456.06797 272.01862,454.94296 C 272.81027,453.81797 273.2061,452.28151 273.20612,450.33359 C 273.2061,446.18777 271.72694,444.11485 268.76862,444.11484 C 267.41444,444.11485 266.33111,444.66694 265.51862,445.77109 C 264.71653,446.87527 264.31549,448.3961 264.31549,450.33359 M 310.73737,460.42734 L 310.26862,463.47421 C 304.81026,463.47421 301.23214,461.95858 299.53424,458.92734 C 299.21131,459.06275 298.5186,459.13046 297.45612,459.13046 C 294.57069,459.13046 292.31028,458.00546 290.67487,455.75546 C 289.04986,453.50547 288.23736,450.62005 288.23737,447.09921 C 288.23736,443.79714 289.06549,441.03152 290.72174,438.80234 C 292.37799,436.56278 294.62277,435.44299 297.45612,435.44296 C 300.63319,435.44299 303.06547,436.46903 304.75299,438.52109 C 306.45089,440.57319 307.29985,443.43256 307.29987,447.09921 C 307.29985,452.35964 305.72693,455.96901 302.58112,457.92734 C 303.71652,459.594 305.62276,460.42734 308.29987,460.42734 L 310.73737,460.42734 M 297.45612,438.25546 C 295.51861,438.25548 294.04465,439.04715 293.03424,440.63046 C 292.02382,442.21381 291.51861,444.37006 291.51862,447.09921 C 291.51861,449.72422 292.03424,451.91693 293.06549,453.67734 C 294.10715,455.43776 295.57069,456.31797 297.45612,456.31796 C 299.60194,456.31797 301.23214,455.50547 302.34674,453.88046 C 303.46131,452.24505 304.0186,449.98464 304.01862,447.09921 C 304.0186,441.2034 301.8311,438.25548 297.45612,438.25546 M 313.53424,442.00546 L 313.53424,452.67734 C 313.53424,455.26067 314.65403,456.55234 316.89362,456.55234 C 317.87277,456.55234 318.76861,456.27109 319.58112,455.70859 C 320.3936,455.14609 320.93006,454.49505 321.19049,453.75546 L 321.19049,442.00546 L 324.15924,442.00546 L 324.15924,458.73984 L 321.19049,458.73984 L 321.19049,456.42734 C 320.85715,457.08359 320.18527,457.68776 319.17487,458.23984 C 318.17486,458.7815 317.19569,459.05234 316.23737,459.05234 C 314.40403,459.05234 312.99778,458.5263 312.01862,457.47421 C 311.04986,456.42213 310.56549,454.92734 310.56549,452.98984 L 310.56549,442.00546 L 313.53424,442.00546 M 331.28424,435.67734 C 331.79465,435.67736 332.22694,435.85965 332.58112,436.22421 C 332.94569,436.5784 333.12798,437.00548 333.12799,437.50546 C 333.12798,438.0159 332.94569,438.4534 332.58112,438.81796 C 332.22694,439.17215 331.79465,439.34923 331.28424,439.34921 C 330.78424,439.34923 330.35194,439.17215 329.98737,438.81796 C 329.6332,438.4534 329.45611,438.0159 329.45612,437.50546 C 329.45611,436.99507 329.6332,436.56278 329.98737,436.20859 C 330.34153,435.85444 330.77382,435.67736 331.28424,435.67734 M 329.65924,458.73984 L 329.65924,444.50546 L 327.36237,444.50546 L 327.36237,442.00546 L 332.62799,442.00546 L 332.62799,458.73984 L 329.65924,458.73984 M 338.40924,444.34921 L 336.47174,444.34921 L 336.47174,442.00546 L 338.40924,442.00546 L 338.40924,438.50546 L 341.37799,437.36484 L 341.37799,442.00546 L 345.97174,442.00546 L 345.97174,444.34921 L 341.37799,444.34921 L 341.37799,452.66171 C 341.37798,454.06797 341.61236,455.06797 342.08112,455.66171 C 342.56028,456.25547 343.3259,456.55234 344.37799,456.55234 C 345.1384,456.55234 345.92486,456.35963 346.73737,455.97421 L 347.17487,458.58359 C 345.94569,458.89609 344.59673,459.05234 343.12799,459.05234 C 341.80507,459.05234 340.68528,458.56275 339.76862,457.58359 C 338.86236,456.59401 338.40924,455.34922 338.40924,453.84921 L 338.40924,444.34921"
       style="font-size:32px;font-style:normal;font-weight:normal;fill:#000000;fill-opacity:1;stroke:none;stroke-width:1px;stroke-linecap:butt;stroke-linejoin:miter;stroke-opacity:1;font-family:Trebuchet MS" />
  </g>
</svg>
