<?xml version="1.0" encoding="UTF-8" standalone="no"?>
<!-- Created with Sodipodi ("http://www.sodipodi.com/") -->
<svg
   xmlns:dc="http://purl.org/dc/elements/1.1/"
   xmlns:cc="http://web.resource.org/cc/"
   xmlns:rdf="http://www.w3.org/1999/02/22-rdf-syntax-ns#"
   xmlns:svg="http://www.w3.org/2000/svg"
   xmlns="http://www.w3.org/2000/svg"
   xmlns:xlink="http://www.w3.org/1999/xlink"
   xmlns:sodipodi="http://sodipodi.sourceforge.net/DTD/sodipodi-0.dtd"
   xmlns:inkscape="http://www.inkscape.org/namespaces/inkscape"
   version="1.0"
   x="0"
   y="0"
   width="800.000000"
   height="600.000000"
   id="svg559"
   sodipodi:version="0.32"
   inkscape:version="0.45.1"
   sodipodi:docname="intro.svg"
   sodipodi:docbase="/home/yoda/UltraStar/sf/UltraStar-ng/themes/lima"
   inkscape:output_extension="org.inkscape.output.svg.inkscape">
  <metadata
     id="metadata35">
    <rdf:RDF>
      <cc:Work
         rdf:about="">
        <dc:format>image/svg+xml</dc:format>
        <dc:type
           rdf:resource="http://purl.org/dc/dcmitype/StillImage" />
      </cc:Work>
    </rdf:RDF>
  </metadata>
  <sodipodi:namedview
     inkscape:window-height="970"
     inkscape:window-width="1672"
     inkscape:pageshadow="2"
     inkscape:pageopacity="0.0"
     guidetolerance="10.0"
     gridtolerance="10.0"
     objecttolerance="10.0"
     borderopacity="1.0"
     bordercolor="#666666"
     pagecolor="#ffffff"
     id="base"
     inkscape:zoom="1.7819091"
     inkscape:cx="321.29194"
     inkscape:cy="267.70878"
     inkscape:window-x="0"
     inkscape:window-y="0"
     inkscape:current-layer="svg559" />
  <defs
     id="defs561">
    <linearGradient
       id="linearGradient3751"
       inkscape:collect="always">
      <stop
         id="stop3753"
         offset="0"
         style="stop-color:black;stop-opacity:1;" />
      <stop
         id="stop3755"
         offset="1"
         style="stop-color:black;stop-opacity:0;" />
    </linearGradient>
    <linearGradient
       id="linearGradient6499"
       inkscape:collect="always">
      <stop
         id="stop6501"
         offset="0"
         style="stop-color:white;stop-opacity:1;" />
      <stop
         id="stop6503"
         offset="1"
         style="stop-color:white;stop-opacity:0;" />
    </linearGradient>
    <linearGradient
       inkscape:collect="always"
       xlink:href="#linearGradient6499"
       id="linearGradient3474"
       gradientUnits="userSpaceOnUse"
       gradientTransform="matrix(0.755727,0,0,0.755727,4.33502,31.78829)"
       x1="370.92285"
       y1="100.34026"
       x2="372.94315"
       y2="219.56401" />
    <linearGradient
       inkscape:collect="always"
       xlink:href="#linearGradient3751"
       id="linearGradient3484"
       gradientUnits="userSpaceOnUse"
       gradientTransform="matrix(0.755727,0,0,0.755727,48.1083,31.78829)"
       x1="665.12128"
       y1="684.16162"
       x2="381.28015"
       y2="449.80624" />
    <linearGradient
       inkscape:collect="always"
       xlink:href="#linearGradient6499"
       id="linearGradient7248"
       x1="47.094612"
       y1="260.4765"
       x2="358.07056"
       y2="260.4765"
       gradientUnits="userSpaceOnUse"
       gradientTransform="matrix(1,0,0,0.820512,12.9075,56.85372)" />
    <linearGradient
       inkscape:collect="always"
       xlink:href="#linearGradient6499"
       id="linearGradient7256"
       gradientUnits="userSpaceOnUse"
       gradientTransform="matrix(1,0,0,0.820512,12.9075,130.1193)"
       x1="44.868057"
       y1="260.4765"
       x2="358.07056"
       y2="260.4765" />
    <linearGradient
       inkscape:collect="always"
       xlink:href="#linearGradient6499"
       id="linearGradient7335"
       gradientUnits="userSpaceOnUse"
       gradientTransform="matrix(1,0,0,0.820512,49.94643,155.9343)"
       x1="44.868057"
       y1="260.4765"
       x2="358.07056"
       y2="260.4765" />
    <linearGradient
       inkscape:collect="always"
       xlink:href="#linearGradient6499"
       id="linearGradient7346"
       gradientUnits="userSpaceOnUse"
       gradientTransform="matrix(1,0,0,0.820512,49.94643,82.66873)"
       x1="47.094612"
       y1="260.4765"
       x2="358.07056"
       y2="260.4765" />
    <linearGradient
       inkscape:collect="always"
       xlink:href="#linearGradient6499"
       id="linearGradient6391"
       gradientUnits="userSpaceOnUse"
       gradientTransform="matrix(1,0,0,0.820512,49.94643,155.9343)"
       x1="44.868057"
       y1="260.4765"
       x2="358.07056"
       y2="260.4765" />
    <linearGradient
       inkscape:collect="always"
       xlink:href="#linearGradient6499"
       id="linearGradient6423"
       gradientUnits="userSpaceOnUse"
       gradientTransform="matrix(1,0,0,0.820512,49.94643,155.9343)"
       x1="44.868057"
       y1="260.4765"
       x2="358.07056"
       y2="260.4765" />
    <linearGradient
       inkscape:collect="always"
       xlink:href="#linearGradient6499"
       id="linearGradient6425"
       gradientUnits="userSpaceOnUse"
       gradientTransform="matrix(1,0,0,0.820512,49.94643,155.9343)"
       x1="44.868057"
       y1="260.4765"
       x2="358.07056"
       y2="260.4765" />
    <linearGradient
       inkscape:collect="always"
       xlink:href="#linearGradient6499"
       id="linearGradient6427"
       gradientUnits="userSpaceOnUse"
       gradientTransform="matrix(1,0,0,0.820512,49.94643,155.9343)"
       x1="44.868057"
       y1="260.4765"
       x2="358.07056"
       y2="260.4765" />
    <linearGradient
       inkscape:collect="always"
       xlink:href="#linearGradient6499"
       id="linearGradient6449"
       gradientUnits="userSpaceOnUse"
       gradientTransform="matrix(1,0,0,0.820512,49.94643,155.9343)"
       x1="44.868057"
       y1="260.4765"
       x2="358.07056"
       y2="260.4765" />
    <linearGradient
       inkscape:collect="always"
       xlink:href="#linearGradient6499"
       id="linearGradient2234"
       gradientUnits="userSpaceOnUse"
       gradientTransform="matrix(1,0,0,0.820512,30.865771,26.07382)"
       x1="44.868057"
       y1="260.4765"
       x2="358.07056"
       y2="260.4765" />
    <linearGradient
       inkscape:collect="always"
       xlink:href="#linearGradient6499"
       id="linearGradient2246"
       gradientUnits="userSpaceOnUse"
       gradientTransform="matrix(1,0,0,0.820512,30.865771,97.46637)"
       x1="44.868057"
       y1="260.4765"
       x2="358.07056"
       y2="260.4765" />
    <linearGradient
       inkscape:collect="always"
       xlink:href="#linearGradient6499"
       id="linearGradient2257"
       gradientUnits="userSpaceOnUse"
       gradientTransform="matrix(1,0,0,0.820512,30.865771,169.0347)"
       x1="44.868057"
       y1="260.4765"
       x2="358.07056"
       y2="260.4765" />
    <linearGradient
       inkscape:collect="always"
       xlink:href="#linearGradient6499"
       id="linearGradient2268"
       gradientUnits="userSpaceOnUse"
       gradientTransform="matrix(1,0,0,0.820512,30.865771,235.2241)"
       x1="44.868057"
       y1="260.4765"
       x2="358.07056"
       y2="260.4765" />
  </defs>
  <rect
     style="color:black;fill:#81d000;fill-opacity:1;fill-rule:nonzero;stroke:none;stroke-width:3;stroke-linecap:round;stroke-linejoin:miter;marker:none;marker-start:none;marker-mid:none;marker-end:none;stroke-miterlimit:4;stroke-dasharray:none;stroke-dashoffset:0;stroke-opacity:1;visibility:visible;display:block;overflow:visible"
     id="rect2828"
     width="804.80463"
     height="602.76892"
     x="-2.9193501"
     y="-2.2937295" />
  <path
     style="fill:black;fill-opacity:1;fill-rule:evenodd;stroke:black;stroke-width:0.5391832px;stroke-linecap:butt;stroke-linejoin:miter;stroke-opacity:1"
     d="M 634.60086,258.93873 L 623.70766,258.93873 L 621.52905,264.3853 L 623.70766,270.37653 L 622.61835,276.91242 L 617.17183,273.64447 L 612.81461,265.47462 L 603.55536,263.29598 L 599.7428,259.48339 L 591.57293,255.67078 L 582.31377,240.42038 L 582.85842,233.33983 L 605.73405,215.9108 L 616.6271,220.81271 L 618.26113,224.62532 L 618.26113,228.98258 L 620.98439,232.79517 L 626.43099,234.42915 L 630.24356,231.1612 L 630.78821,227.3486 L 629.15426,224.08066 L 625.88634,222.44669 L 623.70766,219.7234 L 628.6096,217.54478 L 627.5203,212.0982 L 627.5203,208.83025 L 624.25238,205.56231 L 622.61835,200.6604 L 616.08252,199.02643 L 610.63592,197.93711 L 599.19807,206.10697 L 570.33126,217.54478 L 563.79536,224.08066 L 558.89349,227.89326 L 557.8041,236.60778 L 559.98279,240.96504 L 565.42939,255.67078 L 572.50987,269.28721 L 580.13508,279.09104 L 568.15265,298.69871 L 554.53619,328.1102 L 546.36633,341.18197 L 532.74994,358.06635 L 532.20529,365.69156 L 525.12473,372.22744 L 536.01786,382.03128 L 533.29459,393.46907 L 534.3839,419.06797 L 539.28577,448.47946 L 544.18772,474.62302 L 549.63424,483.33753 L 557.25953,499.13259 L 569.24196,517.10628 L 572.50987,528.54405 L 575.77786,536.71392 L 565.97397,550.33035 L 548.54494,557.4109 L 546.91098,562.85751 L 580.13508,561.7682 L 575.23321,570.48269 L 581.22439,575.92925 L 597.01946,577.56325 L 609.54662,566.67008 L 613.90391,551.41971 L 620.98439,538.34792 L 629.69891,530.72273 L 632.42217,522.00819 L 623.16308,521.46354 L 629.15426,515.4723 L 617.17183,519.28491 L 625.88634,510.57039 L 619.35044,508.93642 L 614.44849,502.94519 L 606.27863,486.06081 L 587.21564,470.26575 L 583.40307,469.17644 L 587.21564,465.90849 L 586.67099,456.64932 L 590.48363,448.47946 L 587.21564,449.02412 L 593.20689,438.67563 L 593.20689,428.32714 L 597.01946,422.88057 L 597.01946,415.80002 L 605.18932,404.90687 L 605.73405,395.64771 L 604.10002,388.0225 L 607.91266,379.30798 L 612.26988,372.22744 L 612.26988,367.87018 L 617.17183,367.32553 L 621.52905,362.96827 L 625.34169,352.07513 L 634.0562,342.27129 L 644.40468,338.45869 L 650.9405,343.90526 L 666.73565,348.80718 L 679.26273,355.34306 L 685.25391,362.96827 L 695.60238,364.05758 L 728.28191,378.21867 L 745.16621,384.20991 L 758.78267,394.55839 L 762.05066,393.46907 L 762.05066,390.20113 L 754.42545,384.20991 L 769.13114,388.0225 L 770.76518,385.29921 L 767.49719,382.03128 L 772.94379,382.03128 L 773.48844,378.76333 L 763.68462,376.5847 L 771.30975,374.40607 L 771.30975,370.59347 L 768.58649,370.04882 L 760.41663,370.59347 L 753.8808,367.87018 L 749.52351,365.69156 L 756.05941,360.24498 L 757.69337,356.43238 L 756.60406,353.70909 L 750.61289,354.79841 L 738.08565,361.33429 L 736.45177,364.60224 L 732.09448,363.51293 L 716.2994,354.79841 L 715.75475,348.80718 L 706.49558,343.90526 L 690.70051,335.7354 L 686.88794,338.45869 L 687.4326,334.64609 L 678.71808,326.47623 L 671.09287,324.2976 L 664.01231,316.12774 L 661.83371,313.40445 L 668.91426,318.30637 L 667.82496,312.85979 L 673.27148,315.58308 L 671.63752,307.41322 L 679.26273,314.49377 L 675.99482,309.59186 L 683.61995,312.85979 L 677.08412,303.60063 L 681.986,305.2346 L 679.80739,296.52008 L 683.61995,299.78802 L 678.17343,291.61816 L 683.61995,293.25213 L 678.71808,286.71625 L 685.25391,286.17159 L 678.17343,281.81433 L 682.53065,279.63571 L 677.62878,279.09104 L 684.16461,273.09982 L 678.17343,273.64447 L 678.71808,269.83187 L 679.26273,258.93873 L 675.99482,266.56393 L 672.18218,255.67078 L 672.72683,264.3853 L 670.54822,264.92996 L 665.10162,264.92996 L 659.11037,256.21544 L 653.11919,256.21544 L 646.03863,250.22421 L 642.77064,253.49215 L 634.60086,258.93873 z "
     id="path1939" />
  <path
     id="path2864"
     d="M 347.38666,440.15657 L 336.4862,440.15657 L 339.41397,442.29833 L 347.21261,444.65426 L 352.25188,447.22437 L 343.73703,445.93931 L 331.71515,442.72669 L 320.40668,441.86998 L 313.01604,440.37075 L 301.26524,438.87152 L 277.69797,432.8746 L 271.60288,430.09032 L 278.14884,423.2367 L 293.64623,425.16428 L 298.85682,426.66351 L 302.94303,428.37691 L 309.24361,429.87615 L 316.22622,430.51867 L 316.97658,429.23361 L 313.94619,427.73439 L 309.2464,426.44933 L 304.44398,425.80681 L 299.70996,424.73593 L 302.57205,423.87923 L 296.37418,421.73747 L 293.30955,420.45241 L 286.97475,419.16736 L 280.74265,417.23978 L 272.67005,416.59725 L 266.19823,416.1689 L 262.41453,419.38154 L 244.25471,423.87923 L 243.84382,426.44933 L 242.51412,427.94856 L 249.59657,431.37537 L 255.8629,433.08878 L 275.10424,438.87152 L 294.959,444.22591 L 311.78338,448.08107 L 318.18098,455.79139 L 332.1376,467.35688 L 336.22102,472.49709 L 338.42971,479.13654 L 345.03567,482.135 L 344.07967,484.70511 L 364.17415,488.56028 L 372.17549,493.05796 L 397.2722,503.12422 L 429.75954,514.6897 L 459.18226,524.97014 L 472.80492,528.39694 L 495.2479,534.60804 L 524.09407,541.67584 L 538.09059,546.17351 L 549.02248,549.38615 L 551.98153,554.74054 L 541.18098,557.52482 L 544.65385,559.6666 L 576.87858,559.23825 L 580.14589,562.66504 L 591.24888,564.8068 L 608.58684,565.44933 L 610.9067,561.16581 L 600.96511,555.16891 L 595.79163,550.02868 L 597.36105,547.03023 L 591.91362,543.60342 L 582.13753,543.38924 L 582.51419,541.0333 L 574.09917,542.53254 L 574.64699,539.10573 L 566.57439,538.4632 L 556.05067,536.10727 L 532.04107,529.46782 L 498.15268,523.25673 L 493.31596,522.82838 L 494.06647,521.54332 L 484.83813,517.90234 L 480.99156,514.6897 L 478.23225,514.90388 L 474.52269,510.83454 L 464.81779,506.7652 L 463.52512,504.62344 L 456.885,501.83916 L 454.84469,497.55565 L 446.70649,493.91467 L 437.92049,490.9162 L 433.56312,487.4894 L 431.28316,484.70511 L 427.19687,482.99171 L 431.59135,482.77753 L 431.86522,481.06413 L 425.46482,476.78062 L 424.99105,472.92545 L 431.77098,471.42622 L 443.419,473.56797 L 463.82174,475.49556 L 482.48654,478.06566 L 495.63271,481.06413 L 507.00965,481.49248 L 552.99126,487.06104 L 575.5055,489.41698 L 598.83585,493.48632 L 601.08451,493.05796 L 598.01981,491.77291 L 584.77086,489.41698 L 603.06195,490.9162 L 602.14306,489.84533 L 595.80833,488.56028 L 601.25848,488.56028 L 598.73889,487.27522 L 586.88531,486.41852 L 592.47248,485.56182 L 588.89698,484.06258 L 585.66118,483.84841 L 577.9966,484.06258 L 568.90248,482.99171 L 562.49913,482.135 L 563.93161,479.99325 L 561.99121,478.49402 L 558.34725,477.42313 L 553.37358,477.85149 L 546.96743,480.42159 L 548.39704,481.70665 L 543.01536,481.2783 L 519.0372,477.85149 L 512.87364,475.49556 L 499.01126,473.56797 L 475.5439,470.35534 L 474.28267,471.42622 L 471.2522,469.92699 L 454.87016,466.71435 L 445.19678,465.85766 L 430.44975,462.64501 L 425.7158,461.57414 L 437.39805,463.50172 L 431.20026,461.35996 L 439.20431,462.43084 L 429.90751,459.21821 L 444.17798,462.00249 L 436.31086,460.07491 L 447.00584,461.35996 L 431.78232,457.71898 L 438.21983,458.36151 L 427.86728,454.93469 L 434.74711,456.21975 L 421.63517,453.00711 L 428.61771,453.64964 L 417.58312,451.07953 L 423.61261,450.86535 L 412.44115,449.15195 L 414.75813,448.29525 L 409.34222,448.08107 L 410.26382,445.72514 L 404.77944,445.93931 L 401.74897,444.44009 L 392.07839,440.15657 L 395.9592,443.15503 L 381.92845,438.87152 L 390.64591,442.29833 L 388.97658,442.51251 L 383.52643,442.51251 L 369.35867,439.0857 L 363.36341,439.0857 L 350.65964,436.72977 L 350.45408,438.01481 L 347.38666,440.15657 z "
     style="opacity:0.22790701;fill:url(#linearGradient3484);fill-opacity:1;fill-rule:evenodd;stroke:none;stroke-width:0.44754833px;stroke-linecap:butt;stroke-linejoin:miter;stroke-opacity:1" />
  <path
     style="fill:none;fill-opacity:0.75;fill-rule:evenodd;stroke:white;stroke-width:1.28473592;stroke-linecap:round;stroke-linejoin:round;stroke-miterlimit:4;stroke-dasharray:none;stroke-opacity:1"
     d="M 616.07753,197.15261 C 594.75235,189.2703 585.916,218.10276 590.31865,235.32851 C 595.47089,255.48711 597.05529,280.20421 587.77692,298.38488 C 581.12842,311.41241 550.38135,316.2899 550.76927,334.59948"
     id="path3759"
     sodipodi:nodetypes="cssc" />
  <path
     style="font-size:149.94555664px;font-style:normal;font-variant:normal;font-weight:normal;font-stretch:normal;text-align:start;line-height:125%;writing-mode:lr-tb;text-anchor:start;fill:white;fill-opacity:1;stroke:none;stroke-width:1px;stroke-linecap:butt;stroke-linejoin:miter;stroke-opacity:1;font-family:Interstate-LightCondensed"
     d="M 308.5151,69.6453 L 295.12452,76.683008 L 295.12452,93.946608 L 287.77984,93.946608 L 287.77984,107.28994 L 295.12452,107.28994 L 295.12452,138.62899 C 295.12452,145.53991 296.30149,150.47379 298.64342,153.4129 C 301.06083,156.35202 304.69566,157.82918 309.53057,157.82918 C 311.49478,157.82919 313.30036,157.57368 314.96236,157.09707 C 316.62435,156.62045 318.22196,155.96346 319.73288,155.08967 L 321.31523,141.48658 C 318.74666,143.47248 316.09965,144.48589 313.38009,144.48587 C 311.79359,144.48589 310.57415,144.03716 309.74316,143.16335 C 308.91216,142.21015 308.5151,140.5784 308.5151,138.27474 L 308.5151,107.28994 L 320.51227,107.28994 L 320.51227,93.946608 L 308.5151,93.946608 L 308.5151,69.6453 z M 118.33164,73.967076 L 110.63267,78.501438 L 110.63267,156.57751 L 118.33164,156.57751 L 118.33164,73.967076 z M 143.45957,73.967076 L 135.87872,78.501438 L 135.87872,97.087637 L 129.76201,97.087637 L 129.76201,103.653 L 135.87872,103.653 L 135.87872,145.2416 C 135.87872,149.47215 136.67752,152.64377 138.26394,154.75904 C 139.85044,156.79875 142.32726,157.82918 145.72675,157.82918 C 147.46431,157.82918 149.06192,157.65903 150.49727,157.35685 C 151.93263,157.13021 153.29868,156.73316 154.58296,156.12879 L 155.2678,148.973 C 153.98352,149.57738 152.76408,149.99805 151.63086,150.22468 C 150.57322,150.45133 149.35378,150.57892 147.99393,150.57892 C 146.48308,150.57892 145.34866,150.11572 144.59316,149.20917 C 143.83773,148.22709 143.45957,146.62946 143.45957,144.43864 L 143.45957,103.653 L 154.91359,103.653 L 154.91359,97.087637 L 143.45957,97.087637 L 143.45957,73.967076 z M 473.31082,76.257911 C 471.3188,76.257911 469.41686,76.698273 467.59563,77.580433 C 465.80282,78.434178 464.21466,79.671001 462.84868,81.264603 C 461.48278,82.858204 460.4101,84.778884 459.61327,87.027021 C 458.8165,89.246667 458.40879,91.710639 458.40879,94.442592 C 458.40886,96.491519 458.69468,98.309194 459.2354,99.874365 C 459.77613,101.43952 460.51145,102.76055 461.47893,103.84193 C 462.44649,104.92332 463.63184,105.75251 464.99782,106.32166 C 466.3638,106.86235 467.83928,107.12461 469.4613,107.12462 C 471.08339,107.12461 472.58252,106.8999 473.94843,106.41613 C 475.3144,105.90389 476.53248,105.1074 477.58536,104.05448 C 478.66673,103.00156 479.58501,101.66176 480.32487,100.03968 C 481.09329,98.417641 481.65533,96.49696 482.02526,94.277239 L 482.52124,91.466917 L 473.051,91.466917 L 472.34251,95.765114 L 477.27838,95.765114 C 477.27838,95.765114 477.25957,95.821416 477.23115,95.906813 C 477.23108,95.963719 477.23115,95.996442 477.23115,96.024858 C 476.74734,98.187673 475.90425,99.86482 474.68057,101.03157 C 473.4569,102.16987 471.86874,102.73196 469.93363,102.73196 C 468.93765,102.73196 468.02421,102.55389 467.17054,102.2124 C 466.34528,101.84245 465.62387,101.33669 464.99782,100.65371 C 464.37178,99.942274 463.8563,99.037941 463.48637,97.985062 C 463.14485,96.932108 462.99038,95.700122 462.99038,94.277239 C 462.99038,92.256803 463.23388,90.425147 463.74611,88.77464 C 464.28683,87.095641 465.00825,85.648046 465.91883,84.452788 C 466.82948,83.257606 467.86943,82.344234 469.0362,81.689699 C 470.23138,81.006749 471.501,80.674229 472.83849,80.674153 C 474.3182,80.674229 475.53628,81.044308 476.47543,81.784165 C 477.44298,82.524097 478.23461,83.559216 478.86065,84.925117 L 483.13527,83.059454 C 482.36692,80.92513 481.1864,79.248021 479.5928,78.052763 C 477.9992,76.857581 475.90039,76.257911 473.31082,76.257911 z M 432.50156,76.730241 L 427.21147,106.62867 L 431.60413,106.62867 L 434.81597,88.231423 C 434.84439,88.032289 434.87711,87.713674 434.93402,87.286764 C 435.01942,86.85993 435.0897,86.438385 435.1466,86.011475 C 435.20351,85.556225 435.27863,85.129768 435.33554,84.75984 C 435.39244,84.361421 435.42517,84.099183 435.45358,83.95688 C 435.59588,84.383715 435.80666,84.927082 436.09126,85.610033 C 436.40429,86.292983 436.68534,86.930212 436.94146,87.49935 L 445.6559,106.62867 L 449.74158,106.62867 L 455.05525,76.730241 L 450.63901,76.730241 L 447.45075,95.103853 C 447.42226,95.303063 447.37079,95.598023 447.28547,96.024858 C 447.22849,96.423277 447.15344,96.868476 447.09654,97.323801 C 447.03963,97.750636 446.98809,98.153438 446.93118,98.551858 C 446.87428,98.921786 446.84156,99.165281 446.81314,99.307585 C 446.67084,98.909165 446.46006,98.384615 446.17546,97.701665 C 445.89085,97.018714 445.60504,96.381485 445.34892,95.812347 L 436.82334,76.730241 L 432.50156,76.730241 z M 262.58103,92.647741 C 259.93697,92.647816 257.5027,93.072913 255.23635,93.946608 C 252.97,94.741029 250.99422,95.947698 249.33223,97.536312 C 247.74573,99.04565 246.5074,100.90929 245.60083,103.13344 C 244.69426,105.35769 244.23107,107.86328 244.23107,110.64347 C 244.23107,115.4891 245.2804,119.37093 247.39568,122.31001 C 249.58646,125.16973 252.84319,127.71396 257.14924,129.93813 C 259.26452,131.05025 261.00866,132.00139 262.36852,132.79572 C 263.7283,133.51067 264.82017,134.22992 265.65117,134.94482 C 266.48217,135.65976 267.04942,136.37902 267.35156,137.09392 C 267.72927,137.72943 267.91835,138.48733 267.91835,139.3611 C 267.91835,140.94984 267.39373,142.21015 266.33609,143.16335 C 265.35394,144.03716 263.79888,144.48589 261.6836,144.48587 C 257.07533,144.48589 252.30609,142.66091 247.39568,139.00685 L 242.64873,151.02764 C 245.44394,153.33128 248.34147,155.0403 251.36324,156.15241 C 254.38502,157.26451 257.74574,157.82918 261.44744,157.82918 C 267.11335,157.82919 271.77861,156.15879 275.40481,152.82249 C 279.10644,149.48619 280.95464,144.59097 280.95464,138.15666 C 280.95464,133.23167 279.73513,129.34984 277.31771,126.49013 C 274.97578,123.63047 271.61507,121.08625 267.23351,118.86201 C 265.19373,117.82938 263.53468,116.95554 262.2504,116.24058 C 260.96612,115.44626 259.93576,114.72701 259.18026,114.09148 C 258.42483,113.45604 257.90013,112.85273 257.59799,112.29663 C 257.37135,111.66119 257.26736,111.00419 257.26736,110.28923 C 257.26736,109.0183 257.70697,107.96626 258.61346,107.17185 C 259.52003,106.37755 260.73955,105.99108 262.2504,105.99103 C 264.44125,105.99108 266.41702,106.2616 268.15452,106.81761 C 269.96766,107.3737 272.15133,108.36349 274.71989,109.79328 L 279.37238,98.362926 C 276.72824,96.456529 274.03876,95.018003 271.31912,94.064729 C 268.67506,93.11153 265.75395,92.647816 262.58103,92.647741 z M 350.48153,92.647741 C 346.8554,92.647816 343.57977,93.150223 340.6335,94.182773 C 337.68722,95.21555 334.8512,96.731311 332.13157,98.717135 L 337.56336,108.96671 C 339.45199,107.61635 341.30012,106.66521 343.11319,106.10911 C 344.92625,105.47367 347.09111,105.1645 349.5841,105.16445 C 352.22824,105.1645 354.07637,105.89879 355.13401,107.40802 C 356.19157,108.83791 356.71627,110.68651 356.71627,112.91066 L 356.71627,117.65757 C 355.43199,116.78382 354.10856,116.16546 352.74871,115.76825 C 351.38893,115.37111 349.39419,115.15426 346.75012,115.15422 C 344.10606,115.15426 341.64814,115.68028 339.38179,116.71291 C 337.19101,117.66617 335.25778,119.06604 333.59579,120.89302 C 332.00937,122.64064 330.77096,124.81344 329.86439,127.43478 C 328.95782,129.97676 328.49463,132.83016 328.49463,136.00756 C 328.49463,142.75961 330.13479,148.07995 333.3832,151.97229 C 336.6317,155.86464 340.85266,157.82918 346.06528,157.82918 C 348.02942,157.82919 349.96264,157.34181 351.85128,156.38857 C 353.73992,155.43535 355.35649,154.05911 356.71627,152.23208 L 356.71627,156.50666 L 370.0832,156.50666 L 370.0832,113.50107 C 370.0832,106.59021 368.52806,101.3858 365.43079,97.890597 C 362.40894,94.395435 357.43172,92.647816 350.48153,92.647741 z M 406.16916,92.647741 C 403.97838,92.647816 401.89862,93.251113 399.93441,94.442592 C 397.97028,95.634147 396.41514,96.894473 395.28201,98.244806 L 395.28201,93.946608 L 381.91508,93.946608 L 381.91508,156.50666 L 395.28201,156.50666 L 395.28201,111.8243 C 397.62385,108.24974 400.50249,106.4634 403.90198,106.46336 C 405.48848,106.4634 406.87335,106.73393 408.08213,107.28994 C 409.36641,107.84604 410.58586,108.60393 411.71907,109.55712 L 415.56851,95.85958 C 414.13316,94.747528 412.70567,93.950992 411.27032,93.474279 C 409.83496,92.918291 408.13337,92.647816 406.16916,92.647741 z M 186.9611,95.835926 C 184.54368,95.836002 182.31738,96.48827 180.27767,97.772476 C 178.31347,98.981262 176.73944,100.45129 175.53073,102.18878 L 175.53073,97.087637 L 167.83176,97.087637 L 167.83176,156.57751 L 175.53073,156.57751 L 175.53073,110.00583 C 176.58837,108.19279 177.95442,106.6377 179.61642,105.35339 C 181.27841,103.99362 183.04144,103.32242 184.93008,103.32237 C 186.44101,103.32242 187.72196,103.46895 188.7796,103.77108 C 189.91274,104.07331 191.00461,104.5129 192.06225,105.11722 L 194.23497,97.087637 C 193.40397,96.709924 192.41609,96.393275 191.28295,96.166557 C 190.14974,95.93999 188.69866,95.836002 186.9611,95.835926 z M 219.12673,95.835926 C 216.02938,95.836002 213.15082,96.360703 210.50675,97.418267 C 207.86262,98.475907 205.34332,99.945955 202.92583,101.83453 L 206.42107,107.73865 C 208.53635,106.15224 210.55467,104.93276 212.4433,104.10171 C 214.33194,103.27076 216.36916,102.87371 218.55993,102.87366 C 224.67913,102.87371 227.74678,106.3384 227.74678,113.28852 L 227.74678,121.67237 C 226.46249,120.84141 224.90736,120.18912 223.09429,119.73582 C 221.28123,119.20704 219.26291,118.95651 217.07213,118.95647 C 214.57914,118.95651 212.24886,119.33464 210.058,120.09006 C 207.94272,120.84555 206.09459,122.0225 204.50817,123.60892 C 202.92175,125.1954 201.68326,127.23262 200.77677,129.72558 C 199.8702,132.14305 199.40701,134.998 199.40701,138.32198 C 199.40701,141.72153 199.7851,144.68517 200.5406,147.17815 C 201.29603,149.59561 202.34543,151.59029 203.70521,153.17673 C 205.06499,154.76319 206.6626,155.94013 208.47574,156.69559 C 210.2888,157.45104 212.24092,157.82918 214.3562,157.82918 C 217.22698,157.82918 219.76993,157.21944 221.9607,156.01071 C 224.15156,154.80199 226.08478,153.33198 227.74678,151.59443 L 227.74678,156.57751 L 235.44574,156.57751 L 235.44574,112.48556 C 235.44567,106.21535 233.9757,101.89039 231.02943,99.472885 C 228.15872,97.055518 224.18828,95.836002 219.12673,95.835926 z M 59.030727,97.087637 L 59.030727,137.87326 C 59.030727,144.52127 60.354232,149.52211 62.998294,152.8461 C 65.642356,156.17009 69.485228,157.82918 74.546709,157.82918 C 77.568559,157.82918 80.154053,157.21944 82.269332,156.01071 C 84.384537,154.72644 86.086207,153.25643 87.37049,151.59443 L 87.37049,156.57751 L 95.069459,156.57751 L 95.069459,97.087637 L 87.37049,97.087637 L 87.37049,143.89546 C 86.086207,145.70856 84.531072,147.3251 82.718008,148.76046 C 80.980516,150.12027 78.900755,150.79147 76.48326,150.79147 C 73.083773,150.79147 70.625847,149.74214 69.114922,147.62686 C 67.604072,145.43606 66.847741,141.88629 66.847741,136.97584 L 66.847741,97.087637 L 59.030727,97.087637 z M 216.97767,125.75801 C 219.62173,125.75804 221.70149,125.98965 223.21241,126.44289 C 224.79884,126.89619 226.31135,127.52485 227.74678,128.35583 L 227.74678,144.91097 C 226.31135,146.64853 224.52466,148.11854 222.40945,149.32725 C 220.36967,150.46045 218.14345,151.02764 215.72596,151.02764 C 212.85525,151.02765 210.6904,149.85069 209.25504,147.50878 C 207.81969,145.16689 207.10598,141.99526 207.10598,137.99135 C 207.10598,134.13855 207.90479,131.156 209.49121,129.0407 C 211.07771,126.84992 213.5781,125.75804 216.97767,125.75801 z M 348.54498,127.08054 C 350.58476,127.08057 352.18237,127.35109 353.3155,127.90711 C 354.52421,128.38376 355.65863,129.10301 356.71627,130.05621 L 356.71627,140.06959 C 355.88528,141.57888 354.75086,142.8392 353.3155,143.87185 C 351.95572,144.82509 350.48568,145.31246 348.89926,145.31245 C 346.70841,145.31247 345.00681,144.47727 343.7981,142.80911 C 342.66489,141.14096 342.09772,138.78998 342.09772,135.7714 C 342.09772,133.15005 342.70744,131.05454 343.91615,129.4658 C 345.12486,127.87712 346.65634,127.08057 348.54498,127.08054 z "
     id="text5554" />
  <path
     sodipodi:type="star"
     style="opacity:0.22790701;color:black;fill:white;fill-opacity:1;fill-rule:nonzero;stroke:white;stroke-width:1.70000005;stroke-linecap:round;stroke-linejoin:round;marker:none;marker-start:none;marker-mid:none;marker-end:none;stroke-miterlimit:4;stroke-dasharray:none;stroke-dashoffset:0;stroke-opacity:1;visibility:visible;display:block;overflow:visible"
     id="path5574"
     sodipodi:sides="5"
     sodipodi:cx="141.42136"
     sodipodi:cy="350.13498"
     sodipodi:r1="78.688225"
     sodipodi:r2="45.665279"
     sodipodi:arg1="1.0612041"
     sodipodi:arg2="1.6895226"
     inkscape:flatsided="false"
     inkscape:rounded="0"
     inkscape:randomized="0"
     d="M 179.80715,418.82535 L 136.01242,395.47879 L 87.954791,407.86853 L 96.625376,359.00278 L 69.991407,317.1259 L 119.14486,310.27177 L 150.74179,272.0007 L 172.4497,316.63036 L 218.61165,334.85441 L 182.87443,369.29119 L 179.80715,418.82535 z "
     transform="matrix(0.494335,-0.204386,0.204386,0.494335,-40.85519,390.7709)" />
  <path
     transform="matrix(0.430025,1.278809e-2,-1.278809e-2,0.430025,3.473491,325.8555)"
     d="M 179.80715,418.82535 L 136.01242,395.47879 L 87.954791,407.86853 L 96.625376,359.00278 L 69.991407,317.1259 L 119.14486,310.27177 L 150.74179,272.0007 L 172.4497,316.63036 L 218.61165,334.85441 L 182.87443,369.29119 L 179.80715,418.82535 z "
     inkscape:randomized="0"
     inkscape:rounded="0"
     inkscape:flatsided="false"
     sodipodi:arg2="1.6895226"
     sodipodi:arg1="1.0612041"
     sodipodi:r2="45.665279"
     sodipodi:r1="78.688225"
     sodipodi:cy="350.13498"
     sodipodi:cx="141.42136"
     sodipodi:sides="5"
     id="path5576"
     style="opacity:0.22790701;color:black;fill:white;fill-opacity:1;fill-rule:nonzero;stroke:white;stroke-width:1.70000005;stroke-linecap:round;stroke-linejoin:round;marker:none;marker-start:none;marker-mid:none;marker-end:none;stroke-miterlimit:4;stroke-dasharray:none;stroke-dashoffset:0;stroke-opacity:1;visibility:visible;display:block;overflow:visible"
     sodipodi:type="star" />
  <path
     sodipodi:type="star"
     style="opacity:0.22790701;color:black;fill:white;fill-opacity:1;fill-rule:nonzero;stroke:white;stroke-width:1.70000005;stroke-linecap:round;stroke-linejoin:round;marker:none;marker-start:none;marker-mid:none;marker-end:none;stroke-miterlimit:4;stroke-dasharray:none;stroke-dashoffset:0;stroke-opacity:1;visibility:visible;display:block;overflow:visible"
     id="path5578"
     sodipodi:sides="5"
     sodipodi:cx="141.42136"
     sodipodi:cy="350.13498"
     sodipodi:r1="78.688225"
     sodipodi:r2="45.665279"
     sodipodi:arg1="1.0612041"
     sodipodi:arg2="1.6895226"
     inkscape:flatsided="false"
     inkscape:rounded="0"
     inkscape:randomized="0"
     d="M 179.80715,418.82535 L 136.01242,395.47879 L 87.954791,407.86853 L 96.625376,359.00278 L 69.991407,317.1259 L 119.14486,310.27177 L 150.74179,272.0007 L 172.4497,316.63036 L 218.61165,334.85441 L 182.87443,369.29119 L 179.80715,418.82535 z "
     transform="matrix(0.308608,-0.157328,0.157328,0.308608,10.40351,345.4728)" />
  <path
     transform="matrix(0.218514,5.453603e-2,-5.453603e-2,0.218514,55.30272,306.0341)"
     d="M 179.80715,418.82535 L 136.01242,395.47879 L 87.954791,407.86853 L 96.625376,359.00278 L 69.991407,317.1259 L 119.14486,310.27177 L 150.74179,272.0007 L 172.4497,316.63036 L 218.61165,334.85441 L 182.87443,369.29119 L 179.80715,418.82535 z "
     inkscape:randomized="0"
     inkscape:rounded="0"
     inkscape:flatsided="false"
     sodipodi:arg2="1.6895226"
     sodipodi:arg1="1.0612041"
     sodipodi:r2="45.665279"
     sodipodi:r1="78.688225"
     sodipodi:cy="350.13498"
     sodipodi:cx="141.42136"
     sodipodi:sides="5"
     id="path5580"
     style="opacity:0.22790701;color:black;fill:white;fill-opacity:1;fill-rule:nonzero;stroke:white;stroke-width:1.70000005;stroke-linecap:round;stroke-linejoin:round;marker:none;marker-start:none;marker-mid:none;marker-end:none;stroke-miterlimit:4;stroke-dasharray:none;stroke-dashoffset:0;stroke-opacity:1;visibility:visible;display:block;overflow:visible"
     sodipodi:type="star" />
  <path
     sodipodi:type="star"
     style="opacity:0.22790701;color:black;fill:white;fill-opacity:1;fill-rule:nonzero;stroke:white;stroke-width:1.70000005;stroke-linecap:round;stroke-linejoin:round;marker:none;marker-start:none;marker-mid:none;marker-end:none;stroke-miterlimit:4;stroke-dasharray:none;stroke-dashoffset:0;stroke-opacity:1;visibility:visible;display:block;overflow:visible"
     id="path5582"
     sodipodi:sides="5"
     sodipodi:cx="141.42136"
     sodipodi:cy="350.13498"
     sodipodi:r1="78.688225"
     sodipodi:r2="45.665279"
     sodipodi:arg1="1.0612041"
     sodipodi:arg2="1.6895226"
     inkscape:flatsided="false"
     inkscape:rounded="0"
     inkscape:randomized="0"
     d="M 179.80715,418.82535 L 136.01242,395.47879 L 87.954791,407.86853 L 96.625376,359.00278 L 69.991407,317.1259 L 119.14486,310.27177 L 150.74179,272.0007 L 172.4497,316.63036 L 218.61165,334.85441 L 182.87443,369.29119 L 179.80715,418.82535 z "
     transform="matrix(0.164046,9.96525e-3,-9.96525e-3,0.164046,79.55929,302.6636)" />
  <path
     style="font-size:112.0508728px;font-style:normal;font-variant:normal;font-weight:normal;font-stretch:normal;text-align:start;line-height:125%;writing-mode:lr-tb;text-anchor:start;fill:url(#linearGradient3474);fill-opacity:1;stroke:none;stroke-width:1px;stroke-linecap:butt;stroke-linejoin:miter;stroke-opacity:1;font-family:Interstate-LightCondensed"
     d="M 74.546709,162.41077 C 69.485228,162.41077 65.642356,163.34132 62.998294,165.19752 C 60.354232,167.0537 59.030727,169.82174 59.030727,173.53413 L 59.030727,196.32402 L 66.847741,196.32402 L 66.847741,174.05369 C 66.847741,171.31158 67.604072,169.32573 69.114922,168.10234 C 70.625847,166.92112 73.083773,166.3311 76.48326,166.33111 C 78.900755,166.33111 80.980516,166.70534 82.718008,167.4647 C 84.531072,168.26623 86.086207,169.16811 87.37049,170.18059 L 87.37049,196.32402 L 95.069459,196.32402 L 95.069459,163.09565 L 87.37049,163.09565 L 87.37049,165.88239 C 86.086207,164.95429 84.384537,164.14345 82.269332,163.42628 C 80.154053,162.7513 77.568559,162.41077 74.546709,162.41077 z M 145.72675,162.41077 C 142.32726,162.41077 139.85044,162.97214 138.26394,164.11116 C 136.67752,165.29238 135.87872,167.06243 135.87872,169.42487 L 135.87872,192.63985 L 129.76201,192.63985 L 129.76201,196.32402 L 135.87872,196.32402 L 135.87872,206.69165 L 143.45957,209.21862 L 143.45957,196.32402 L 154.91359,196.32402 L 154.91359,192.63985 L 143.45957,192.63985 L 143.45957,169.87358 C 143.45957,168.65018 143.83773,167.75333 144.59316,167.20492 C 145.34866,166.69868 146.48308,166.44918 147.99393,166.44919 C 149.35378,166.44919 150.57322,166.51155 151.63086,166.63812 C 152.76408,166.76468 153.98352,167.00913 155.2678,167.34662 L 154.58296,163.35543 C 153.29868,163.01795 151.93263,162.77349 150.49727,162.64694 C 149.06192,162.47819 147.46431,162.41077 145.72675,162.41077 z M 214.3562,162.41077 C 212.24092,162.41077 210.2888,162.60294 208.47574,163.0248 C 206.6626,163.44666 205.06499,164.09907 203.70521,164.98497 C 202.34536,165.87088 201.29603,167.01216 200.5406,168.36212 C 199.78518,169.75426 199.40701,171.39958 199.40701,173.29797 C 199.40701,175.15415 199.8702,176.74214 200.77677,178.09211 C 201.68334,179.48424 202.92175,180.63057 204.50817,181.5165 C 206.09459,182.40239 207.94272,183.05478 210.058,183.47666 C 212.24886,183.8985 214.57914,184.11429 217.07213,184.11431 C 219.26291,184.11429 221.28123,183.96089 223.09429,183.6656 C 224.90736,183.41246 226.46249,183.04326 227.74678,182.57924 L 227.74678,187.27892 C 227.7467,191.16002 224.67913,193.08854 218.55993,193.08857 C 216.36916,193.08854 214.33194,192.86771 212.4433,192.40369 C 210.55467,191.93962 208.53635,191.25857 206.42107,190.37267 L 202.92583,193.65536 C 205.34332,194.70999 207.86262,195.54446 210.50675,196.13509 C 213.15082,196.72566 216.02938,197.00887 219.12673,197.0089 C 224.18828,197.00887 228.15872,196.35143 231.02943,195.0015 C 233.9757,193.65152 235.44567,191.20545 235.44574,187.70401 L 235.44574,163.09565 L 227.74678,163.09565 L 227.74678,165.88239 C 226.08471,164.91211 224.15156,164.10127 221.9607,163.42628 C 219.76993,162.7513 217.22691,162.41077 214.3562,162.41077 z M 261.44744,162.41077 C 257.74574,162.41077 254.38502,162.7108 251.36324,163.33182 C 248.34139,163.95284 245.44394,164.903 242.64873,166.18941 L 247.39568,172.9201 C 252.30609,170.87959 257.07533,169.84996 261.6836,169.84996 C 263.79888,169.84995 265.35394,170.09411 266.33609,170.58207 C 267.39365,171.11437 267.91835,171.82037 267.91835,172.70755 C 267.91835,173.19549 267.72927,173.62796 267.35156,173.98284 C 267.04942,174.38206 266.48217,174.78804 265.65117,175.18728 C 264.82017,175.5865 263.7283,175.96887 262.36852,176.36811 C 261.00866,176.81168 259.26452,177.35299 257.14924,177.97403 C 252.84319,179.21606 249.58646,180.62806 247.39568,182.22499 C 245.2804,183.86623 244.23107,186.03724 244.23107,188.74314 C 244.23107,190.29566 244.69426,191.70479 245.60083,192.94687 C 246.50732,194.18888 247.74573,195.22139 249.33223,196.06424 C 250.99422,196.95138 252.97,197.62802 255.23635,198.07164 C 257.5027,198.55955 259.93697,198.80371 262.58103,198.80375 C 265.75395,198.80371 268.67506,198.53307 271.31912,198.00079 C 274.03876,197.46845 276.72824,196.68011 279.37238,195.61553 L 274.71989,189.21547 C 272.15133,190.01389 269.96766,190.58169 268.15452,190.89224 C 266.41702,191.20272 264.44125,191.34093 262.2504,191.34095 C 260.73955,191.34093 259.52003,191.12325 258.61346,190.67969 C 257.70697,190.23607 257.26736,189.6654 257.26736,188.95568 C 257.26736,188.55643 257.37135,188.17694 257.59799,187.82209 C 257.90013,187.51156 258.42483,187.18505 259.18026,186.8302 C 259.93576,186.47531 260.96612,186.06932 262.2504,185.62576 C 263.53468,185.22652 265.19373,184.73818 267.23351,184.16154 C 271.61507,182.91948 274.97578,181.50748 277.31771,179.91058 C 279.73513,178.31365 280.95464,176.14265 280.95464,173.39243 C 280.95464,169.79937 279.10651,167.06057 275.40481,165.19752 C 271.77861,163.33445 267.11335,162.41077 261.44744,162.41077 z M 309.53057,162.41077 C 304.69566,162.41077 301.06083,163.22561 298.64342,164.86689 C 296.30149,166.50815 295.12452,169.24982 295.12452,173.10903 L 295.12452,190.60884 L 287.77984,190.60884 L 287.77984,198.07164 L 295.12452,198.07164 L 295.12452,207.70716 L 308.5151,211.65111 L 308.5151,198.07164 L 320.51227,198.07164 L 320.51227,190.60884 L 308.5151,190.60884 L 308.5151,173.32158 C 308.5151,172.03517 308.91216,171.11436 309.74316,170.58207 C 310.57415,170.09412 311.79359,169.84996 313.38009,169.84996 C 316.09965,169.84995 318.74666,170.41775 321.31523,171.52673 L 319.73288,163.92223 C 318.22196,163.43428 316.62435,163.07841 314.96236,162.81225 C 313.30036,162.5461 311.49478,162.41077 309.53057,162.41077 z M 346.06528,162.41077 C 340.85266,162.41077 336.6317,163.49627 333.3832,165.66985 C 330.13479,167.84342 328.49463,170.80276 328.49463,174.57326 C 328.49463,176.34759 328.95782,177.94789 329.86439,179.3674 C 330.77088,180.83121 332.00937,182.05204 333.59579,183.02795 C 335.25778,184.04818 337.19101,184.83365 339.38179,185.36598 C 341.64814,185.94262 344.10606,186.21615 346.75012,186.21617 C 349.39426,186.21615 351.38893,186.10732 352.74871,185.88554 C 354.10856,185.66373 355.43199,185.31072 356.71627,184.8228 L 356.71627,187.49146 C 356.71627,188.73348 356.19165,189.7395 355.13401,190.53799 C 354.07637,191.38078 352.22816,191.81325 349.5841,191.81328 C 347.09111,191.81325 344.92633,191.62494 343.11319,191.2701 C 341.30012,190.95956 339.45199,190.44187 337.56336,189.6878 L 332.13157,195.40298 C 334.8512,196.51191 337.68722,197.35325 340.6335,197.92994 C 343.5797,198.50657 346.8554,198.80371 350.48153,198.80375 C 357.43172,198.80371 362.40894,197.82706 365.43079,195.87531 C 368.52806,193.92349 370.0832,191.02001 370.0832,187.16083 L 370.0832,163.14288 L 356.71627,163.14288 L 356.71627,165.52815 C 355.35649,164.50789 353.73992,163.72242 351.85128,163.19012 C 349.96264,162.65781 348.02942,162.41077 346.06528,162.41077 z M 110.63267,163.09565 L 110.63267,206.69165 L 118.33164,209.21862 L 118.33164,163.09565 L 110.63267,163.09565 z M 167.83176,163.09565 L 167.83176,196.32402 L 175.53073,196.32402 L 175.53073,193.46643 C 176.73952,194.43669 178.31347,195.27115 180.27767,195.94616 C 182.31738,196.66329 184.54368,197.00887 186.9611,197.0089 C 188.69866,197.00887 190.14974,196.9465 191.28295,196.81997 C 192.41609,196.69338 193.40397,196.53492 194.23497,196.32402 L 192.06225,191.83689 C 191.00461,192.17436 189.91274,192.42384 188.7796,192.59262 C 187.72196,192.76134 186.44101,192.82876 184.93008,192.82879 C 183.04144,192.82876 181.27841,192.45451 179.61642,191.6952 C 177.95442,190.978 176.58837,190.10982 175.53073,189.09738 L 175.53073,163.09565 L 167.83176,163.09565 z M 381.91508,163.14288 L 381.91508,198.07164 L 395.28201,198.07164 L 395.28201,195.66276 C 396.41514,196.41683 397.97028,197.14645 399.93441,197.81186 C 401.89862,198.47721 403.97838,198.80371 406.16916,198.80375 C 408.13337,198.80371 409.83496,198.6419 411.27032,198.33142 C 412.70567,198.06523 414.13316,197.62988 415.56851,197.0089 L 411.71907,189.35716 C 410.58586,189.88944 409.36634,190.29829 408.08213,190.60884 C 406.87335,190.91932 405.4884,191.08114 403.90198,191.08117 C 400.50249,191.08114 397.62385,190.07798 395.28201,188.08188 L 395.28201,163.14288 L 381.91508,163.14288 z M 215.72596,166.18941 C 218.14345,166.18941 220.36967,166.52489 222.40945,167.15768 C 224.52466,167.83266 226.31135,168.64351 227.74678,169.6138 L 227.74678,178.84784 C 226.31135,179.31187 224.79884,179.68106 223.21241,179.93419 C 221.70149,180.18729 219.62173,180.31203 216.97767,180.31206 C 213.5781,180.31204 211.07771,179.69336 209.49121,178.46997 C 207.90479,177.28875 207.10598,175.63838 207.10598,173.4869 C 207.10598,171.25103 207.81969,169.45735 209.25504,168.14958 C 210.69047,166.8418 212.85525,166.1894 215.72596,166.18941 z M 348.89926,169.37763 C 350.48568,169.37762 351.95572,169.64828 353.3155,170.18059 C 354.75086,170.75724 355.88528,171.46325 356.71627,172.30607 L 356.71627,177.90318 C 355.65863,178.43547 354.52421,178.84145 353.3155,179.10762 C 352.18237,179.41811 350.58468,179.57993 348.54498,179.57995 C 346.65634,179.57993 345.12493,179.12097 343.91615,178.23381 C 342.70744,177.34662 342.09772,176.17877 342.09772,174.71495 C 342.09772,173.02931 342.66489,171.72614 343.7981,170.79462 C 345.00681,169.86309 346.70841,169.37763 348.89926,169.37763 z M 469.4613,190.7033 C 467.83928,190.7033 466.3638,190.85007 464.99782,191.15202 C 463.63184,191.46984 462.44649,191.94152 461.47893,192.54539 C 460.51145,193.14926 459.77605,193.89132 459.2354,194.76534 C 458.69468,195.63935 458.40886,196.64406 458.40879,197.78824 C 458.40879,199.3138 458.8165,200.70521 459.61327,201.94474 C 460.41003,203.20014 461.48278,204.26666 462.84868,205.15658 C 464.21466,206.04648 465.80282,206.73446 467.59563,207.21122 C 469.41686,207.70383 471.3188,207.94331 473.31082,207.94333 C 475.90039,207.94331 477.9992,207.61885 479.5928,206.95143 C 481.1864,206.28398 482.36685,205.35653 483.13527,204.16469 L 478.86065,203.10195 C 478.23461,203.86472 477.44298,204.46001 476.47543,204.87318 C 475.53628,205.28635 474.3182,205.48721 472.83849,205.48721 C 471.501,205.48721 470.23138,205.3018 469.0362,204.92042 C 467.86943,204.5549 466.82948,204.02915 465.91883,203.36173 C 465.00825,202.69429 464.28683,201.89043 463.74611,200.95285 C 463.23388,200.03114 462.99038,199.01098 462.99038,197.88271 C 462.99038,197.08814 463.14485,196.39242 463.48637,195.80446 C 463.8563,195.21648 464.37178,194.73752 464.99782,194.34024 C 465.62387,193.95885 466.34528,193.6494 467.17054,193.44281 C 468.02421,193.25212 468.93765,193.15942 469.93363,193.15942 C 471.86874,193.15942 473.4569,193.49203 474.68057,194.12769 C 475.90425,194.77923 476.74734,195.70669 477.23115,196.91443 C 477.23115,196.93032 477.23108,196.95351 477.23115,196.98528 C 477.25957,197.03296 477.27838,197.05613 477.27838,197.05613 L 472.34251,197.05613 L 473.051,199.46501 L 482.52124,199.46501 L 482.02526,197.88271 C 481.65533,196.64318 481.09329,195.57667 480.32487,194.67087 C 479.58501,193.76506 478.66673,193.01528 477.58536,192.42731 C 476.53248,191.83933 475.3144,191.39083 473.94843,191.10478 C 472.58252,190.83463 471.08339,190.7033 469.4613,190.7033 z M 427.21147,190.9867 L 432.50156,207.68354 L 436.82334,207.68354 L 445.34892,197.03252 C 445.60504,196.71469 445.89085,196.35116 446.17546,195.96978 C 446.46006,195.58838 446.67084,195.29482 446.81314,195.07235 C 446.84156,195.1518 446.87428,195.29086 446.93118,195.49745 C 446.98809,195.71993 447.03963,195.94395 447.09654,196.18232 C 447.15344,196.43658 447.22849,196.69195 447.28547,196.91443 C 447.37079,197.1528 447.42233,197.32276 447.45075,197.434 L 450.63901,207.68354 L 455.05525,207.68354 L 449.74158,190.9867 L 445.6559,190.9867 L 436.94146,201.68496 C 436.68534,202.00278 436.40429,202.34268 436.09126,202.72409 C 435.80666,203.10546 435.59588,203.40675 435.45358,203.64513 C 435.42517,203.56566 435.39244,203.41889 435.33554,203.19642 C 435.27863,202.98981 435.20351,202.76579 435.1466,202.51154 C 435.0897,202.27316 435.01942,202.04141 434.93402,201.80304 C 434.87711,201.56466 434.84439,201.37109 434.81597,201.25987 L 431.60413,190.9867 L 427.21147,190.9867 z "
     id="text5584" />
  <path
     transform="matrix(0.76534,5.189341e-2,-5.189341e-2,0.76534,-45.40995,328.4406)"
     d="M 179.80715,418.82535 L 136.01242,395.47879 L 87.954791,407.86853 L 96.625376,359.00278 L 69.991407,317.1259 L 119.14486,310.27177 L 150.74179,272.0007 L 172.4497,316.63036 L 218.61165,334.85441 L 182.87443,369.29119 L 179.80715,418.82535 z "
     inkscape:randomized="0"
     inkscape:rounded="0"
     inkscape:flatsided="false"
     sodipodi:arg2="1.6895226"
     sodipodi:arg1="1.0612041"
     sodipodi:r2="45.665279"
     sodipodi:r1="78.688225"
     sodipodi:cy="350.13498"
     sodipodi:cx="141.42136"
     sodipodi:sides="5"
     id="path6523"
     style="opacity:0.22790701;color:black;fill:white;fill-opacity:1;fill-rule:nonzero;stroke:white;stroke-width:1.70000005;stroke-linecap:round;stroke-linejoin:round;marker:none;marker-start:none;marker-mid:none;marker-end:none;stroke-miterlimit:4;stroke-dasharray:none;stroke-dashoffset:0;stroke-opacity:1;visibility:visible;display:block;overflow:visible"
     sodipodi:type="star" />
  <rect
     y="364.80093"
     x="138.61537"
     height="35.916534"
     width="249.17096"
     id="rect7250"
     style="color:#000000;fill:url(#linearGradient2257);fill-opacity:1;fill-rule:nonzero;stroke:none;stroke-width:2.29999995;stroke-linecap:butt;stroke-linejoin:miter;marker:none;marker-start:none;marker-mid:none;marker-end:none;stroke-miterlimit:4;stroke-dasharray:none;stroke-dashoffset:0;stroke-opacity:1;visibility:visible;display:inline;overflow:visible" />
  <path
     style="font-size:72px;font-style:normal;font-weight:bold;fill:#000000;fill-opacity:1;stroke:#000000;stroke-width:2.5;stroke-linecap:butt;stroke-linejoin:bevel;stroke-miterlimit:4;stroke-opacity:1;font-family:Trebuchet MS"
     d="M 206.99271,391.67218 L 206.99271,410.6214 L 197.85208,410.6214 L 197.85208,359.15265 C 203.94582,358.89489 207.50832,358.76598 208.53958,358.76593 C 216.67237,358.76598 222.61377,360.01989 226.3638,362.52765 C 230.1372,365.01207 232.02392,368.90269 232.02396,374.19952 C 232.02392,386.01205 225.06299,391.91829 211.14114,391.91827 C 210.10988,391.91829 208.72707,391.83626 206.99271,391.67218 M 206.99271,367.06281 L 206.99271,383.55109 C 208.53957,383.71518 209.75831,383.79721 210.64896,383.79718 C 214.82081,383.79721 217.86768,383.1058 219.78958,381.72296 C 221.71143,380.31674 222.67236,378.04331 222.67239,374.90265 C 222.67236,369.55894 218.37159,366.88707 209.77005,366.88702 C 208.8091,366.88707 207.88332,366.94566 206.99271,367.06281"
     id="text5379" />
  <path
     style="font-size:72px;font-style:normal;font-weight:bold;fill:#9cdc30;fill-opacity:1;stroke:#ffffff;stroke-width:2.5;stroke-linecap:butt;stroke-linejoin:bevel;stroke-miterlimit:4;stroke-opacity:1;font-family:Trebuchet MS"
     d="M 209.71022,388.75351 L 209.71022,407.70273 L 200.5696,407.70273 L 200.5696,356.23398 C 206.66333,355.97622 210.22583,355.84731 211.2571,355.84726 C 219.38988,355.84731 225.33128,357.10122 229.08131,359.60898 C 232.85471,362.0934 234.74143,365.98402 234.74147,371.28085 C 234.74143,383.09338 227.7805,388.99962 213.85866,388.9996 C 212.82739,388.99962 211.44458,388.91759 209.71022,388.75351 M 209.71022,364.14413 L 209.71022,380.63242 C 211.25708,380.79651 212.47583,380.87854 213.36647,380.87851 C 217.53832,380.87854 220.5852,380.18713 222.5071,378.80429 C 224.42894,377.39807 225.38988,375.12464 225.38991,371.98398 C 225.38988,366.64027 221.0891,363.9684 212.48756,363.96835 C 211.52661,363.9684 210.60083,364.02699 209.71022,364.14413"
     id="text2190" />
  <path
     style="font-size:32px;font-style:normal;font-weight:normal;fill:#000000;fill-opacity:1;stroke:none;stroke-width:1px;stroke-linecap:butt;stroke-linejoin:miter;stroke-opacity:1;font-family:Trebuchet MS"
     d="M 250.65924,378.15982 L 248.72174,378.15982 L 248.72174,375.81607 L 250.65924,375.81607 L 250.65924,372.31607 L 253.62799,371.17545 L 253.62799,375.81607 L 258.22174,375.81607 L 258.22174,378.15982 L 253.62799,378.15982 L 253.62799,386.47232 C 253.62798,387.87858 253.86236,388.87857 254.33112,389.47232 C 254.81028,390.06607 255.5759,390.36295 256.62799,390.36295 C 257.3884,390.36295 258.17486,390.17024 258.98737,389.78482 L 259.42487,392.3942 C 258.19569,392.7067 256.84673,392.86295 255.37799,392.86295 C 254.05507,392.86295 252.93528,392.37336 252.01862,391.3942 C 251.11236,390.40461 250.65924,389.15982 250.65924,387.65982 L 250.65924,378.15982 M 261.19049,384.1442 C 261.19049,381.56087 261.8832,379.47754 263.26862,377.8942 C 264.66444,376.30046 266.49778,375.50359 268.76862,375.50357 C 271.16444,375.50359 273.02381,376.26921 274.34674,377.80045 C 275.66964,379.32129 276.3311,381.43587 276.33112,384.1442 C 276.3311,386.84212 275.65402,388.97232 274.29987,390.53482 C 272.94569,392.0869 271.10194,392.86295 268.76862,392.86295 C 266.38319,392.86295 264.52382,392.07649 263.19049,390.50357 C 261.85716,388.93066 261.19049,386.81087 261.19049,384.1442 M 264.31549,384.1442 C 264.31549,388.34212 265.79986,390.44107 268.76862,390.44107 C 270.15402,390.44107 271.23735,389.87857 272.01862,388.75357 C 272.81027,387.62858 273.2061,386.09212 273.20612,384.1442 C 273.2061,379.99837 271.72694,377.92546 268.76862,377.92545 C 267.41444,377.92546 266.33111,378.47754 265.51862,379.5817 C 264.71653,380.68587 264.31549,382.20671 264.31549,384.1442 M 292.45612,383.73795 L 292.45612,392.55045 L 289.33112,392.55045 L 289.33112,369.65982 C 291.69569,369.55568 293.12278,369.50359 293.61237,369.50357 C 300.25819,369.50359 303.5811,371.72755 303.58112,376.17545 C 303.5811,381.32129 300.6436,383.8942 294.76862,383.8942 C 294.41444,383.8942 293.64361,383.84212 292.45612,383.73795 M 292.45612,372.47232 L 292.45612,380.92545 C 293.77903,381.02962 294.47694,381.08171 294.54987,381.0817 C 298.42485,381.08171 300.36235,379.55567 300.36237,376.50357 C 300.36235,373.71192 298.29465,372.31609 294.15924,372.31607 C 293.74257,372.31609 293.17486,372.36817 292.45612,372.47232 M 314.56549,378.67545 C 313.91965,378.22754 313.26861,378.00359 312.61237,378.00357 C 311.56027,378.00359 310.6384,378.48796 309.84674,379.4567 C 309.06549,380.42546 308.67486,381.59212 308.67487,382.9567 L 308.67487,392.55045 L 305.70612,392.55045 L 305.70612,375.81607 L 308.67487,375.81607 L 308.67487,378.48795 C 309.75819,376.49838 311.36757,375.50359 313.50299,375.50357 C 314.03423,375.50359 314.79985,375.59734 315.79987,375.78482 L 314.56549,378.67545 M 327.36237,390.62857 C 326.17486,392.11815 324.35715,392.86295 321.90924,392.86295 C 320.59674,392.86295 319.45611,392.38899 318.48737,391.44107 C 317.52903,390.48274 317.04986,389.29524 317.04987,387.87857 C 317.04986,386.18066 317.78945,384.74837 319.26862,383.5817 C 320.75819,382.40462 322.65403,381.81608 324.95612,381.81607 C 325.58111,381.81608 326.28944,381.9515 327.08112,382.22232 C 327.0811,379.514 325.87277,378.15983 323.45612,378.15982 C 321.60194,378.15983 320.17486,378.65983 319.17487,379.65982 L 317.92487,377.17545 C 318.48736,376.71713 319.2634,376.3265 320.25299,376.00357 C 321.25299,375.67025 322.20611,375.50359 323.11237,375.50357 C 325.53944,375.50359 327.29985,376.05567 328.39362,377.15982 C 329.49777,378.264 330.04985,380.01921 330.04987,382.42545 L 330.04987,388.42545 C 330.04985,389.8942 330.48735,390.87336 331.36237,391.36295 L 331.36237,392.84732 C 330.15402,392.84732 329.24777,392.67545 328.64362,392.3317 C 328.04985,391.98795 327.62277,391.42024 327.36237,390.62857 M 327.08112,384.3317 C 326.14361,384.12337 325.48736,384.0192 325.11237,384.0192 C 323.61236,384.0192 322.3884,384.40462 321.44049,385.17545 C 320.49257,385.94629 320.01861,386.85774 320.01862,387.90982 C 320.01861,389.64941 321.04465,390.5192 323.09674,390.5192 C 324.59673,390.5192 325.92486,389.80566 327.08112,388.37857 L 327.08112,384.3317 M 347.34674,377.17545 L 345.87799,379.2692 C 345.57589,378.96713 345.03944,378.68067 344.26862,378.40982 C 343.50819,378.139 342.75819,378.00359 342.01862,378.00357 C 340.40402,378.00359 339.12278,378.57129 338.17487,379.7067 C 337.22694,380.83171 336.75299,382.37858 336.75299,384.34732 C 336.75299,386.30566 337.23736,387.80045 338.20612,388.8317 C 339.17486,389.85253 340.51861,390.36295 342.23737,390.36295 C 343.57069,390.36295 344.91444,389.84732 346.26862,388.81607 L 347.44049,391.31607 C 345.84673,392.34732 343.87277,392.86295 341.51862,392.86295 C 339.23736,392.86295 337.35194,392.09732 335.86237,390.56607 C 334.37278,389.03482 333.62799,386.96191 333.62799,384.34732 C 333.62799,381.68066 334.39882,379.54004 335.94049,377.92545 C 337.49257,376.31088 339.61236,375.50359 342.29987,375.50357 C 343.16444,375.50359 344.10194,375.68588 345.11237,376.05045 C 346.12277,376.41505 346.86756,376.79004 347.34674,377.17545 M 351.65924,378.15982 L 349.72174,378.15982 L 349.72174,375.81607 L 351.65924,375.81607 L 351.65924,372.31607 L 354.62799,371.17545 L 354.62799,375.81607 L 359.22174,375.81607 L 359.22174,378.15982 L 354.62799,378.15982 L 354.62799,386.47232 C 354.62798,387.87858 354.86236,388.87857 355.33112,389.47232 C 355.81028,390.06607 356.5759,390.36295 357.62799,390.36295 C 358.3884,390.36295 359.17486,390.17024 359.98737,389.78482 L 360.42487,392.3942 C 359.19569,392.7067 357.84673,392.86295 356.37799,392.86295 C 355.05507,392.86295 353.93528,392.37336 353.01862,391.3942 C 352.11236,390.40461 351.65924,389.15982 351.65924,387.65982 L 351.65924,378.15982 M 366.34674,369.48795 C 366.85715,369.48797 367.28944,369.67026 367.64362,370.03482 C 368.00819,370.38901 368.19048,370.81609 368.19049,371.31607 C 368.19048,371.82651 368.00819,372.26401 367.64362,372.62857 C 367.28944,372.98276 366.85715,373.15984 366.34674,373.15982 C 365.84674,373.15984 365.41444,372.98276 365.04987,372.62857 C 364.6957,372.26401 364.51861,371.82651 364.51862,371.31607 C 364.51861,370.80568 364.6957,370.37338 365.04987,370.0192 C 365.40403,369.66505 365.83632,369.48797 366.34674,369.48795 M 364.72174,392.55045 L 364.72174,378.31607 L 362.42487,378.31607 L 362.42487,375.81607 L 367.69049,375.81607 L 367.69049,392.55045 L 364.72174,392.55045 M 385.03424,377.17545 L 383.56549,379.2692 C 383.26339,378.96713 382.72694,378.68067 381.95612,378.40982 C 381.19569,378.139 380.44569,378.00359 379.70612,378.00357 C 378.09152,378.00359 376.81028,378.57129 375.86237,379.7067 C 374.91444,380.83171 374.44049,382.37858 374.44049,384.34732 C 374.44049,386.30566 374.92486,387.80045 375.89362,388.8317 C 376.86236,389.85253 378.20611,390.36295 379.92487,390.36295 C 381.25819,390.36295 382.60194,389.84732 383.95612,388.81607 L 385.12799,391.31607 C 383.53423,392.34732 381.56027,392.86295 379.20612,392.86295 C 376.92486,392.86295 375.03944,392.09732 373.54987,390.56607 C 372.06028,389.03482 371.31549,386.96191 371.31549,384.34732 C 371.31549,381.68066 372.08632,379.54004 373.62799,377.92545 C 375.18007,376.31088 377.29986,375.50359 379.98737,375.50357 C 380.85194,375.50359 381.78944,375.68588 382.79987,376.05045 C 383.81027,376.41505 384.55506,376.79004 385.03424,377.17545 M 402.37799,384.47232 L 390.31549,384.47232 C 390.31549,386.43066 390.85194,387.93587 391.92487,388.98795 C 392.87278,389.90461 394.09152,390.36295 395.58112,390.36295 C 397.27902,390.36295 398.69569,389.86816 399.83112,388.87857 L 401.08112,391.0192 C 400.62277,391.47753 399.91964,391.87336 398.97174,392.2067 C 397.78423,392.6442 396.46131,392.86295 395.00299,392.86295 C 392.89882,392.86295 391.11236,392.1494 389.64362,390.72232 C 388.0082,389.14941 387.19049,387.03483 387.19049,384.37857 C 387.19049,381.61816 388.02903,379.40463 389.70612,377.73795 C 391.20611,376.24838 392.98215,375.50359 395.03424,375.50357 C 397.41965,375.50359 399.28944,376.17546 400.64362,377.5192 C 401.9561,378.81088 402.61235,380.52442 402.61237,382.65982 C 402.61235,383.31608 402.53422,383.92025 402.37799,384.47232 M 395.17487,378.00357 C 393.85194,378.00359 392.74257,378.43067 391.84674,379.28482 C 390.99257,380.09733 390.50819,381.10775 390.39362,382.31607 L 399.65924,382.31607 C 399.65923,381.11817 399.28423,380.11817 398.53424,379.31607 C 397.71131,378.44108 396.59152,378.00359 395.17487,378.00357"
     id="text6352" />
  <text
     xml:space="preserve"
     style="font-size:14px;font-style:normal;font-weight:normal;fill:#000000;fill-opacity:1;stroke:none;stroke-width:1px;stroke-linecap:butt;stroke-linejoin:miter;stroke-opacity:1;font-family:Bitstream Vera Sans"
     x="139.17657"
     y="376.83694"
     id="text6356"><tspan
       sodipodi:role="line"
       id="tspan6358"
       x="139.17657"
       y="376.83694">Press</tspan></text>
  <rect
     y="293.2326"
     x="138.61537"
     height="35.916534"
     width="249.17096"
     id="rect6373"
     style="color:#000000;fill:url(#linearGradient2246);fill-opacity:1;fill-rule:nonzero;stroke:none;stroke-width:2.29999995;stroke-linecap:butt;stroke-linejoin:miter;marker:none;marker-start:none;marker-mid:none;marker-end:none;stroke-miterlimit:4;stroke-dasharray:none;stroke-dashoffset:0;stroke-opacity:1;visibility:visible;display:inline;overflow:visible" />
  <path
     style="font-size:72px;font-style:normal;font-weight:bold;fill:#000000;fill-opacity:1;stroke:#000000;stroke-width:2.5;stroke-linecap:butt;stroke-linejoin:bevel;stroke-miterlimit:4;stroke-opacity:1;font-family:Trebuchet MS"
     d="M 233.14896,290.29135 L 229.38724,297.84995 C 227.34814,295.81093 224.06689,294.7914 219.54349,294.79135 C 215.2544,294.7914 211.73878,296.59608 208.99661,300.20541 C 206.25441,303.79139 204.88332,308.33826 204.88333,313.84604 C 204.88332,319.35387 206.14894,323.72496 208.68021,326.95932 C 211.23488,330.1937 214.63331,331.81089 218.87552,331.81088 C 223.72705,331.81089 227.52392,330.07652 230.26614,326.60776 L 234.52005,333.99057 C 230.79345,337.95151 225.33252,339.93198 218.13724,339.93198 C 210.94191,339.93198 205.35207,337.56479 201.36771,332.83041 C 197.38333,328.09605 195.39114,321.63902 195.39114,313.45932 C 195.39114,305.84217 197.59426,299.47889 202.00052,294.36948 C 206.43019,289.23671 212.09034,286.67031 218.98099,286.67026 C 224.88721,286.67031 229.60986,287.87734 233.14896,290.29135"
     id="text6375" />
  <path
     style="font-size:72px;font-style:normal;font-weight:bold;fill:#9cdc30;fill-opacity:1;stroke:#ffffff;stroke-width:2.5;stroke-linecap:butt;stroke-linejoin:bevel;stroke-miterlimit:4;stroke-opacity:1;font-family:Trebuchet MS"
     d="M 235.86647,287.37268 L 232.10475,294.93127 C 230.06565,292.89226 226.78441,291.87272 222.261,291.87268 C 217.97192,291.87272 214.45629,293.67741 211.71413,297.28674 C 208.97193,300.87272 207.60083,305.41959 207.60085,310.92737 C 207.60083,316.4352 208.86646,320.80629 211.39772,324.04065 C 213.95239,327.27503 217.35082,328.89222 221.59303,328.89221 C 226.44456,328.89222 230.24144,327.15785 232.98366,323.68909 L 237.23756,331.0719 C 233.51096,335.03284 228.05003,337.0133 220.85475,337.01331 C 213.65942,337.0133 208.06958,334.64612 204.08522,329.91174 C 200.10084,325.17738 198.10866,318.72035 198.10866,310.54065 C 198.10866,302.9235 200.31178,296.56022 204.71803,291.45081 C 209.14771,286.31804 214.80786,283.75164 221.6985,283.75159 C 227.60472,283.75164 232.32737,284.95867 235.86647,287.37268"
     id="text6379" />
  <path
     style="font-size:32px;font-style:normal;font-weight:normal;fill:#000000;fill-opacity:1;stroke:none;stroke-width:1px;stroke-linecap:butt;stroke-linejoin:miter;stroke-opacity:1;font-family:Trebuchet MS"
     d="M 250.65924,306.59149 L 248.72174,306.59149 L 248.72174,304.24774 L 250.65924,304.24774 L 250.65924,300.74774 L 253.62799,299.60712 L 253.62799,304.24774 L 258.22174,304.24774 L 258.22174,306.59149 L 253.62799,306.59149 L 253.62799,314.90399 C 253.62798,316.31025 253.86236,317.31025 254.33112,317.90399 C 254.81028,318.49774 255.5759,318.79462 256.62799,318.79462 C 257.3884,318.79462 258.17486,318.60191 258.98737,318.21649 L 259.42487,320.82587 C 258.19569,321.13837 256.84673,321.29462 255.37799,321.29462 C 254.05507,321.29462 252.93528,320.80503 252.01862,319.82587 C 251.11236,318.83629 250.65924,317.5915 250.65924,316.09149 L 250.65924,306.59149 M 261.19049,312.57587 C 261.19049,309.99254 261.8832,307.90921 263.26862,306.32587 C 264.66444,304.73213 266.49778,303.93526 268.76862,303.93524 C 271.16444,303.93526 273.02381,304.70088 274.34674,306.23212 C 275.66964,307.75296 276.3311,309.86754 276.33112,312.57587 C 276.3311,315.27379 275.65402,317.404 274.29987,318.96649 C 272.94569,320.51858 271.10194,321.29462 268.76862,321.29462 C 266.38319,321.29462 264.52382,320.50816 263.19049,318.93524 C 261.85716,317.36233 261.19049,315.24254 261.19049,312.57587 M 264.31549,312.57587 C 264.31549,316.77379 265.79986,318.87274 268.76862,318.87274 C 270.15402,318.87274 271.23735,318.31024 272.01862,317.18524 C 272.81027,316.06025 273.2061,314.52379 273.20612,312.57587 C 273.2061,308.43005 271.72694,306.35713 268.76862,306.35712 C 267.41444,306.35713 266.33111,306.90921 265.51862,308.01337 C 264.71653,309.11755 264.31549,310.63838 264.31549,312.57587 M 303.94049,298.93524 L 302.89362,301.60712 C 301.8936,300.87797 300.32069,300.51339 298.17487,300.51337 C 296.16444,300.51339 294.54986,301.37797 293.33112,303.10712 C 292.12278,304.8363 291.51861,307.06546 291.51862,309.79462 C 291.51861,312.39879 292.1384,314.51337 293.37799,316.13837 C 294.62798,317.75295 296.23736,318.56024 298.20612,318.56024 C 300.35194,318.56024 302.00298,317.79983 303.15924,316.27899 L 304.87799,318.66962 C 303.06547,320.4717 300.73214,321.37274 297.87799,321.37274 C 294.8884,321.37274 292.53424,320.29462 290.81549,318.13837 C 289.09674,315.98212 288.23736,313.13837 288.23737,309.60712 C 288.23736,306.19046 289.15403,303.35193 290.98737,301.09149 C 292.82069,298.8311 295.19048,297.70089 298.09674,297.70087 C 300.58631,297.70089 302.53423,298.11235 303.94049,298.93524 M 307.12799,312.57587 C 307.12799,309.99254 307.8207,307.90921 309.20612,306.32587 C 310.60194,304.73213 312.43528,303.93526 314.70612,303.93524 C 317.10194,303.93526 318.96131,304.70088 320.28424,306.23212 C 321.60714,307.75296 322.2686,309.86754 322.26862,312.57587 C 322.2686,315.27379 321.59152,317.404 320.23737,318.96649 C 318.88319,320.51858 317.03944,321.29462 314.70612,321.29462 C 312.32069,321.29462 310.46132,320.50816 309.12799,318.93524 C 307.79466,317.36233 307.12799,315.24254 307.12799,312.57587 M 310.25299,312.57587 C 310.25299,316.77379 311.73736,318.87274 314.70612,318.87274 C 316.09152,318.87274 317.17485,318.31024 317.95612,317.18524 C 318.74777,316.06025 319.1436,314.52379 319.14362,312.57587 C 319.1436,308.43005 317.66444,306.35713 314.70612,306.35712 C 313.35194,306.35713 312.26861,306.90921 311.45612,308.01337 C 310.65403,309.11755 310.25299,310.63838 310.25299,312.57587 M 335.70612,320.98212 L 335.70612,311.24774 C 335.7061,309.4665 335.43527,308.22171 334.89362,307.51337 C 334.36235,306.79463 333.46652,306.43526 332.20612,306.43524 C 331.52902,306.43526 330.82069,306.63838 330.08112,307.04462 C 329.34153,307.45088 328.77382,307.95088 328.37799,308.54462 L 328.37799,320.98212 L 325.40924,320.98212 L 325.40924,304.24774 L 327.44049,304.24774 L 328.37799,306.40399 C 329.35715,304.75817 330.95611,303.93526 333.17487,303.93524 C 336.84152,303.93526 338.67485,306.16442 338.67487,310.62274 L 338.67487,320.98212 L 335.70612,320.98212 M 351.95612,300.04462 C 351.35194,299.8363 350.78944,299.73214 350.26862,299.73212 C 349.36236,299.73214 348.61236,300.07589 348.01862,300.76337 C 347.43528,301.45089 347.14361,302.32068 347.14362,303.37274 C 347.14361,303.65401 347.16965,303.94568 347.22174,304.24774 L 350.62799,304.24774 L 350.62799,306.74774 L 347.22174,306.74774 L 347.22174,320.98212 L 344.25299,320.98212 L 344.25299,306.74774 L 341.81549,306.74774 L 341.81549,304.24774 L 344.25299,304.24774 C 344.25299,302.11234 344.77903,300.43526 345.83112,299.21649 C 346.88319,297.99776 348.27382,297.38839 350.00299,297.38837 C 350.86756,297.38839 351.79465,297.54464 352.78424,297.85712 L 351.95612,300.04462 M 357.78424,297.91962 C 358.29465,297.91964 358.72694,298.10193 359.08112,298.46649 C 359.44569,298.82068 359.62798,299.24776 359.62799,299.74774 C 359.62798,300.25818 359.44569,300.69568 359.08112,301.06024 C 358.72694,301.41443 358.29465,301.59151 357.78424,301.59149 C 357.28424,301.59151 356.85194,301.41443 356.48737,301.06024 C 356.1332,300.69568 355.95611,300.25818 355.95612,299.74774 C 355.95611,299.23735 356.1332,298.80506 356.48737,298.45087 C 356.84153,298.09672 357.27382,297.91964 357.78424,297.91962 M 356.15924,320.98212 L 356.15924,306.74774 L 353.86237,306.74774 L 353.86237,304.24774 L 359.12799,304.24774 L 359.12799,320.98212 L 356.15924,320.98212 M 363.23737,325.56024 L 364.84674,323.18524 C 366.5759,324.34149 368.16965,324.91961 369.62799,324.91962 C 370.97173,324.91961 372.02902,324.68524 372.79987,324.21649 C 373.5811,323.75816 373.97173,323.18524 373.97174,322.49774 C 373.97173,321.14357 372.99256,320.46649 371.03424,320.46649 C 370.7009,320.46649 370.09673,320.54983 369.22174,320.71649 C 368.34673,320.88316 367.66444,320.96649 367.17487,320.96649 C 364.79986,320.96649 363.61236,320.07066 363.61237,318.27899 C 363.61236,317.72691 363.88841,317.22691 364.44049,316.77899 C 365.00299,316.33108 365.6957,316.00816 366.51862,315.81024 C 364.16445,314.70608 362.98736,312.78942 362.98737,310.06024 C 362.98736,308.31025 363.59674,306.85192 364.81549,305.68524 C 366.03424,304.51859 367.53944,303.93526 369.33112,303.93524 C 370.97694,303.93526 372.2634,304.2738 373.19049,304.95087 L 374.67487,303.16962 L 376.61237,304.99774 L 374.83112,306.34149 C 375.59152,307.33109 375.97173,308.62275 375.97174,310.21649 C 375.97173,311.904 375.44569,313.32067 374.39362,314.46649 C 373.34152,315.61233 371.96131,316.26858 370.25299,316.43524 L 367.79987,316.68524 C 367.50819,316.7165 367.11757,316.83108 366.62799,317.02899 C 366.1384,317.2165 365.89361,317.4665 365.89362,317.77899 C 365.89361,318.20608 366.40403,318.41962 367.42487,318.41962 C 367.87278,318.41962 368.57069,318.34149 369.51862,318.18524 C 370.46652,318.01858 371.16965,317.93524 371.62799,317.93524 C 373.27381,317.93524 374.55506,318.33108 375.47174,319.12274 C 376.39881,319.90399 376.86235,320.99253 376.86237,322.38837 C 376.86235,323.93003 376.16964,325.17482 374.78424,326.12274 C 373.40923,327.07065 371.66444,327.54461 369.54987,327.54462 C 368.46653,327.54461 367.3259,327.3519 366.12799,326.96649 C 364.93007,326.58107 363.96653,326.11232 363.23737,325.56024 M 369.53424,306.32587 C 368.50298,306.32588 367.65923,306.69046 367.00299,307.41962 C 366.35715,308.1488 366.03424,309.03421 366.03424,310.07587 C 366.03424,311.24254 366.34674,312.21129 366.97174,312.98212 C 367.60715,313.74254 368.46132,314.12275 369.53424,314.12274 C 370.58632,314.12275 371.40923,313.75296 372.00299,313.01337 C 372.59673,312.26338 372.8936,311.28421 372.89362,310.07587 C 372.8936,309.03421 372.57069,308.1488 371.92487,307.41962 C 371.28944,306.69046 370.49257,306.32588 369.53424,306.32587 M 382.72174,304.24774 L 382.72174,314.91962 C 382.72174,317.50295 383.84153,318.79462 386.08112,318.79462 C 387.06027,318.79462 387.95611,318.51337 388.76862,317.95087 C 389.5811,317.38837 390.11756,316.73733 390.37799,315.99774 L 390.37799,304.24774 L 393.34674,304.24774 L 393.34674,320.98212 L 390.37799,320.98212 L 390.37799,318.66962 C 390.04465,319.32587 389.37277,319.93003 388.36237,320.48212 C 387.36236,321.02378 386.38319,321.29462 385.42487,321.29462 C 383.59153,321.29462 382.18528,320.76858 381.20612,319.71649 C 380.23736,318.66441 379.75299,317.16962 379.75299,315.23212 L 379.75299,304.24774 L 382.72174,304.24774 M 406.50299,307.10712 C 405.85715,306.65921 405.20611,306.43526 404.54987,306.43524 C 403.49777,306.43526 402.5759,306.91963 401.78424,307.88837 C 401.00299,308.85713 400.61236,310.02379 400.61237,311.38837 L 400.61237,320.98212 L 397.64362,320.98212 L 397.64362,304.24774 L 400.61237,304.24774 L 400.61237,306.91962 C 401.69569,304.93005 403.30507,303.93526 405.44049,303.93524 C 405.97173,303.93526 406.73735,304.02901 407.73737,304.21649 L 406.50299,307.10712 M 423.94049,312.90399 L 411.87799,312.90399 C 411.87799,314.86233 412.41444,316.36754 413.48737,317.41962 C 414.43528,318.33629 415.65402,318.79462 417.14362,318.79462 C 418.84152,318.79462 420.25819,318.29983 421.39362,317.31024 L 422.64362,319.45087 C 422.18527,319.9092 421.48214,320.30503 420.53424,320.63837 C 419.34673,321.07587 418.02381,321.29462 416.56549,321.29462 C 414.46132,321.29462 412.67486,320.58108 411.20612,319.15399 C 409.5707,317.58108 408.75299,315.4665 408.75299,312.81024 C 408.75299,310.04984 409.59153,307.8363 411.26862,306.16962 C 412.76861,304.68005 414.54465,303.93526 416.59674,303.93524 C 418.98215,303.93526 420.85194,304.60713 422.20612,305.95087 C 423.5186,307.24255 424.17485,308.95609 424.17487,311.09149 C 424.17485,311.74775 424.09672,312.35192 423.94049,312.90399 M 416.73737,306.43524 C 415.41444,306.43526 414.30507,306.86234 413.40924,307.71649 C 412.55507,308.529 412.07069,309.53942 411.95612,310.74774 L 421.22174,310.74774 C 421.22173,309.54984 420.84673,308.54984 420.09674,307.74774 C 419.27381,306.87276 418.15402,306.43526 416.73737,306.43524"
     id="text6383" />
  <text
     xml:space="preserve"
     style="font-size:14px;font-style:normal;font-weight:normal;fill:#000000;fill-opacity:1;stroke:none;stroke-width:1px;stroke-linecap:butt;stroke-linejoin:miter;stroke-opacity:1;font-family:Bitstream Vera Sans"
     x="139.17657"
     y="305.26862"
     id="text6387"><tspan
       sodipodi:role="line"
       id="tspan6389"
       x="139.17657"
       y="305.26862">Press</tspan></text>
  <rect
     y="221.84006"
     x="138.61537"
     height="35.916534"
     width="249.17096"
     id="rect6405"
     style="color:#000000;fill:url(#linearGradient2234);fill-opacity:1;fill-rule:nonzero;stroke:none;stroke-width:2.29999995;stroke-linecap:butt;stroke-linejoin:miter;marker:none;marker-start:none;marker-mid:none;marker-end:none;stroke-miterlimit:4;stroke-dasharray:none;stroke-dashoffset:0;stroke-opacity:1;visibility:visible;display:inline;overflow:visible" />
  <path
     style="font-size:72px;font-style:normal;font-weight:bold;fill:#000000;fill-opacity:1;stroke:#000000;stroke-width:2.5;stroke-linecap:butt;stroke-linejoin:bevel;stroke-miterlimit:4;stroke-opacity:1;font-family:Trebuchet MS"
     d="M 195.39114,264.81287 L 198.76614,256.62146 C 202.37551,259.15272 205.92629,260.41834 209.41849,260.41833 C 214.78565,260.41834 217.46924,258.54334 217.46927,254.79333 C 217.46924,253.03554 216.83643,251.35976 215.57083,249.76599 C 214.30518,248.17226 211.69191,246.39101 207.73099,244.42224 C 203.79348,242.43008 201.13332,240.80117 199.75052,239.53552 C 198.39114,238.24649 197.33645,236.72305 196.58646,234.96521 C 195.85989,233.20743 195.49661,231.26212 195.49661,229.12927 C 195.49661,225.14494 196.94973,221.84026 199.85599,219.21521 C 202.78566,216.59026 206.53566,215.27776 211.10599,215.27771 C 217.05909,215.27776 221.43018,216.39104 224.21927,218.61755 L 221.44193,226.49255 C 218.23096,224.19572 214.84425,223.04729 211.28177,223.04724 C 209.17238,223.04729 207.53175,223.60979 206.35989,224.73474 C 205.21144,225.83635 204.63723,227.27775 204.63724,229.05896 C 204.63723,232.01212 207.90675,235.08243 214.44583,238.2699 C 217.89112,239.95743 220.37549,241.51602 221.89896,242.94568 C 223.42236,244.35195 224.58252,246.00429 225.37943,247.90271 C 226.17627,249.77773 226.5747,251.87538 226.57474,254.19568 C 226.5747,258.36756 224.92236,261.80115 221.61771,264.49646 C 218.33643,267.19177 213.93018,268.53943 208.39896,268.53943 C 203.59426,268.53943 199.25832,267.29724 195.39114,264.81287"
     id="text6407" />
  <path
     style="font-size:72px;font-style:normal;font-weight:bold;fill:#9cdc30;fill-opacity:1;stroke:#ffffff;stroke-width:2.5;stroke-linecap:butt;stroke-linejoin:bevel;stroke-miterlimit:4;stroke-opacity:1;font-family:Trebuchet MS"
     d="M 198.10866,261.8942 L 201.48366,253.70279 C 205.09302,256.23405 208.6438,257.49967 212.136,257.49966 C 217.50317,257.49967 220.18676,255.62467 220.18678,251.87466 C 220.18676,250.11687 219.55395,248.44109 218.28835,246.84732 C 217.0227,245.25359 214.40942,243.47234 210.4485,241.50357 C 206.51099,239.51141 203.85084,237.8825 202.46803,236.61685 C 201.10865,235.32782 200.05397,233.80438 199.30397,232.04654 C 198.5774,230.28876 198.21412,228.34345 198.21413,226.2106 C 198.21412,222.22627 199.66725,218.92159 202.5735,216.29654 C 205.50318,213.67159 209.25318,212.35909 213.8235,212.35904 C 219.7766,212.35909 224.14769,213.47237 226.93678,215.69888 L 224.15944,223.57388 C 220.94848,221.27705 217.56176,220.12862 213.99928,220.12857 C 211.88989,220.12862 210.24927,220.69111 209.07741,221.81607 C 207.92896,222.91767 207.35474,224.35908 207.35475,226.14029 C 207.35474,229.09345 210.62427,232.16376 217.16335,235.35123 C 220.60863,237.03875 223.09301,238.59735 224.61647,240.02701 C 226.13988,241.43328 227.30003,243.08562 228.09694,244.98404 C 228.89378,246.85906 229.29222,248.95671 229.29225,251.27701 C 229.29222,255.44889 227.63988,258.88248 224.33522,261.57779 C 221.05394,264.2731 216.6477,265.62076 211.11647,265.62076 C 206.31177,265.62076 201.97584,264.37857 198.10866,261.8942"
     id="text6411" />
  <path
     style="font-size:32px;font-style:normal;font-weight:normal;fill:#000000;fill-opacity:1;stroke:none;stroke-width:1px;stroke-linecap:butt;stroke-linejoin:miter;stroke-opacity:1;font-family:Trebuchet MS"
     d="M 250.65924,235.19894 L 248.72174,235.19894 L 248.72174,232.85519 L 250.65924,232.85519 L 250.65924,229.35519 L 253.62799,228.21457 L 253.62799,232.85519 L 258.22174,232.85519 L 258.22174,235.19894 L 253.62799,235.19894 L 253.62799,243.51144 C 253.62798,244.9177 253.86236,245.9177 254.33112,246.51144 C 254.81028,247.1052 255.5759,247.40207 256.62799,247.40207 C 257.3884,247.40207 258.17486,247.20936 258.98737,246.82394 L 259.42487,249.43332 C 258.19569,249.74582 256.84673,249.90207 255.37799,249.90207 C 254.05507,249.90207 252.93528,249.41249 252.01862,248.43332 C 251.11236,247.44374 250.65924,246.19895 250.65924,244.69894 L 250.65924,235.19894 M 261.19049,241.18332 C 261.19049,238.6 261.8832,236.51667 263.26862,234.93332 C 264.66444,233.33959 266.49778,232.54271 268.76862,232.54269 C 271.16444,232.54271 273.02381,233.30834 274.34674,234.83957 C 275.66964,236.36042 276.3311,238.475 276.33112,241.18332 C 276.3311,243.88124 275.65402,246.01145 274.29987,247.57394 C 272.94569,249.12603 271.10194,249.90207 268.76862,249.90207 C 266.38319,249.90207 264.52382,249.11561 263.19049,247.54269 C 261.85716,245.96978 261.19049,243.84999 261.19049,241.18332 M 264.31549,241.18332 C 264.31549,245.38124 265.79986,247.4802 268.76862,247.48019 C 270.15402,247.4802 271.23735,246.9177 272.01862,245.79269 C 272.81027,244.6677 273.2061,243.13124 273.20612,241.18332 C 273.2061,237.0375 271.72694,234.96458 268.76862,234.96457 C 267.41444,234.96458 266.33111,235.51667 265.51862,236.62082 C 264.71653,237.725 264.31549,239.24583 264.31549,241.18332 M 288.29987,248.54269 L 289.44049,245.66769 C 290.02382,246.09478 290.74778,246.45416 291.61237,246.74582 C 292.48736,247.02707 293.26861,247.1677 293.95612,247.16769 C 295.17486,247.1677 296.15402,246.83436 296.89362,246.16769 C 297.63319,245.50103 298.00298,244.65207 298.00299,243.62082 C 298.00298,242.84999 297.79465,242.13645 297.37799,241.48019 C 296.97173,240.81354 295.94048,240.08958 294.28424,239.30832 L 292.44049,238.44894 C 290.87799,237.71979 289.78424,236.85521 289.15924,235.85519 C 288.54466,234.85521 288.23736,233.65209 288.23737,232.24582 C 288.23736,230.5375 288.84153,229.12084 290.04987,227.99582 C 291.25819,226.87084 292.81028,226.30834 294.70612,226.30832 C 297.23736,226.30834 298.99777,226.7198 299.98737,227.54269 L 299.06549,230.26144 C 298.64881,229.95938 298.0134,229.66771 297.15924,229.38644 C 296.30506,229.10521 295.5134,228.96459 294.78424,228.96457 C 293.72173,228.96459 292.88319,229.26667 292.26862,229.87082 C 291.66444,230.475 291.36236,231.25105 291.36237,232.19894 C 291.36236,232.78229 291.47174,233.31354 291.69049,233.79269 C 291.90924,234.27188 292.21132,234.67292 292.59674,234.99582 C 292.99257,235.31875 293.79465,235.77187 295.00299,236.35519 L 296.87799,237.24582 C 298.44048,237.98541 299.53423,238.87083 300.15924,239.90207 C 300.79464,240.92291 301.11235,242.22499 301.11237,243.80832 C 301.11235,245.52707 300.41964,246.98541 299.03424,248.18332 C 297.65923,249.38124 295.81548,249.98019 293.50299,249.98019 C 291.47174,249.98019 289.73736,249.50103 288.29987,248.54269 M 305.53424,235.19894 L 303.59674,235.19894 L 303.59674,232.85519 L 305.53424,232.85519 L 305.53424,229.35519 L 308.50299,228.21457 L 308.50299,232.85519 L 313.09674,232.85519 L 313.09674,235.19894 L 308.50299,235.19894 L 308.50299,243.51144 C 308.50298,244.9177 308.73736,245.9177 309.20612,246.51144 C 309.68528,247.1052 310.4509,247.40207 311.50299,247.40207 C 312.2634,247.40207 313.04986,247.20936 313.86237,246.82394 L 314.29987,249.43332 C 313.07069,249.74582 311.72173,249.90207 310.25299,249.90207 C 308.93007,249.90207 307.81028,249.41249 306.89362,248.43332 C 305.98736,247.44374 305.53424,246.19895 305.53424,244.69894 L 305.53424,235.19894 M 326.61237,247.66769 C 325.42486,249.15728 323.60715,249.90207 321.15924,249.90207 C 319.84674,249.90207 318.70611,249.42811 317.73737,248.48019 C 316.77903,247.52186 316.29986,246.33436 316.29987,244.91769 C 316.29986,243.21978 317.03945,241.78749 318.51862,240.62082 C 320.00819,239.44375 321.90403,238.8552 324.20612,238.85519 C 324.83111,238.8552 325.53944,238.99062 326.33112,239.26144 C 326.3311,236.55312 325.12277,235.19896 322.70612,235.19894 C 320.85194,235.19896 319.42486,235.69896 318.42487,236.69894 L 317.17487,234.21457 C 317.73736,233.75625 318.5134,233.36563 319.50299,233.04269 C 320.50299,232.70938 321.45611,232.54271 322.36237,232.54269 C 324.78944,232.54271 326.54985,233.09479 327.64362,234.19894 C 328.74777,235.30313 329.29985,237.05833 329.29987,239.46457 L 329.29987,245.46457 C 329.29985,246.93332 329.73735,247.91249 330.61237,248.40207 L 330.61237,249.88644 C 329.40402,249.88644 328.49777,249.71457 327.89362,249.37082 C 327.29985,249.02707 326.87277,248.45936 326.61237,247.66769 M 326.33112,241.37082 C 325.39361,241.16249 324.73736,241.05833 324.36237,241.05832 C 322.86236,241.05833 321.6384,241.44374 320.69049,242.21457 C 319.74257,242.98541 319.26861,243.89687 319.26862,244.94894 C 319.26861,246.68853 320.29465,247.55832 322.34674,247.55832 C 323.84673,247.55832 325.17486,246.84478 326.33112,245.41769 L 326.33112,241.37082 M 343.06549,235.71457 C 342.41965,235.26667 341.76861,235.04271 341.11237,235.04269 C 340.06027,235.04271 339.1384,235.52708 338.34674,236.49582 C 337.56549,237.46458 337.17486,238.63125 337.17487,239.99582 L 337.17487,249.58957 L 334.20612,249.58957 L 334.20612,232.85519 L 337.17487,232.85519 L 337.17487,235.52707 C 338.25819,233.5375 339.86757,232.54271 342.00299,232.54269 C 342.53423,232.54271 343.29985,232.63646 344.29987,232.82394 L 343.06549,235.71457 M 347.47174,235.19894 L 345.53424,235.19894 L 345.53424,232.85519 L 347.47174,232.85519 L 347.47174,229.35519 L 350.44049,228.21457 L 350.44049,232.85519 L 355.03424,232.85519 L 355.03424,235.19894 L 350.44049,235.19894 L 350.44049,243.51144 C 350.44048,244.9177 350.67486,245.9177 351.14362,246.51144 C 351.62278,247.1052 352.3884,247.40207 353.44049,247.40207 C 354.2009,247.40207 354.98736,247.20936 355.79987,246.82394 L 356.23737,249.43332 C 355.00819,249.74582 353.65923,249.90207 352.19049,249.90207 C 350.86757,249.90207 349.74778,249.41249 348.83112,248.43332 C 347.92486,247.44374 347.47174,246.19895 347.47174,244.69894 L 347.47174,235.19894"
     id="text6415" />
  <text
     xml:space="preserve"
     style="font-size:14px;font-style:normal;font-weight:normal;fill:#000000;fill-opacity:1;stroke:none;stroke-width:1px;stroke-linecap:butt;stroke-linejoin:miter;stroke-opacity:1;font-family:Bitstream Vera Sans"
     x="139.17657"
     y="233.87607"
     id="text6419"><tspan
       sodipodi:role="line"
       id="tspan6421"
       x="139.17657"
       y="233.87607">Press</tspan></text>
  <rect
     y="430.99033"
     x="138.61537"
     height="35.916534"
     width="249.17096"
     id="rect6431"
     style="color:#000000;fill:url(#linearGradient2268);fill-opacity:1;fill-rule:nonzero;stroke:none;stroke-width:2.29999995;stroke-linecap:butt;stroke-linejoin:miter;marker:none;marker-start:none;marker-mid:none;marker-end:none;stroke-miterlimit:4;stroke-dasharray:none;stroke-dashoffset:0;stroke-opacity:1;visibility:visible;display:inline;overflow:visible" />
  <path
     style="font-size:72px;font-style:normal;font-weight:bold;fill:#000000;fill-opacity:1;stroke:#000000;stroke-width:2.5;stroke-linecap:butt;stroke-linejoin:bevel;stroke-miterlimit:4;stroke-opacity:1;font-family:Trebuchet MS"
     d="M 246.68411,487.46313 C 245.13718,487.67406 243.56687,487.77953 241.97318,487.77954 C 237.61376,487.77953 233.59423,486.88891 229.91458,485.10767 C 226.2583,483.34985 223.41064,480.87719 221.37161,477.6897 C 220.5044,477.85376 219.10987,477.93579 217.18802,477.93579 C 210.41456,477.93579 205.08254,475.40454 201.19193,470.34204 C 197.32473,465.27955 195.39114,458.76393 195.39114,450.79517 C 195.39114,443.24832 197.37161,436.96708 201.33255,431.95142 C 205.29347,426.9124 210.57863,424.39287 217.18802,424.39282 C 224.61767,424.39287 230.33642,426.7249 234.34427,431.38892 C 238.37547,436.02958 240.3911,442.49833 240.39114,450.79517 C 240.3911,463.09987 236.35985,471.3147 228.29739,475.4397 C 230.85204,478.2522 235.09423,479.65844 241.02396,479.65845 C 243.20359,479.65844 245.09031,479.42407 246.68411,478.95532 L 246.68411,487.46313 M 204.88333,450.79517 C 204.88332,456.18581 205.96144,460.69753 208.11771,464.33032 C 210.27394,467.96314 213.29737,469.77955 217.18802,469.77954 C 221.68799,469.77955 225.09814,468.11549 227.41849,464.78735 C 229.73876,461.45924 230.89892,456.79519 230.89896,450.79517 C 230.89892,438.63114 226.32861,432.54912 217.18802,432.54907 C 213.15675,432.54912 210.09816,434.17802 208.01224,437.43579 C 205.92629,440.69364 204.88332,445.14676 204.88333,450.79517"
     id="text6433" />
  <path
     style="font-size:72px;font-style:normal;font-weight:bold;fill:#9cdc30;fill-opacity:1;stroke:#ffffff;stroke-width:2.5;stroke-linecap:butt;stroke-linejoin:bevel;stroke-miterlimit:4;stroke-opacity:1;font-family:Trebuchet MS"
     d="M 249.40163,484.54446 C 247.8547,484.75539 246.28439,484.86086 244.69069,484.86087 C 240.33127,484.86086 236.31174,483.97024 232.6321,482.189 C 228.97581,480.43118 226.12816,477.95852 224.08913,474.77103 C 223.22191,474.93509 221.82738,475.01712 219.90553,475.01712 C 213.13208,475.01712 207.80005,472.48587 203.90944,467.42337 C 200.04225,462.36088 198.10866,455.84526 198.10866,447.8765 C 198.10866,440.32965 200.08912,434.04841 204.05006,429.03275 C 208.01099,423.99373 213.29614,421.4742 219.90553,421.47415 C 227.33519,421.4742 233.05393,423.80623 237.06178,428.47025 C 241.09299,433.11091 243.10861,439.57965 243.10866,447.8765 C 243.10861,460.1812 239.07736,468.39603 231.01491,472.52103 C 233.56956,475.33353 237.81174,476.73977 243.74147,476.73978 C 245.92111,476.73977 247.80782,476.5054 249.40163,476.03665 L 249.40163,484.54446 M 207.60085,447.8765 C 207.60083,453.26714 208.67896,457.77886 210.83522,461.41165 C 212.99145,465.04447 216.01489,466.86088 219.90553,466.86087 C 224.4055,466.86088 227.81566,465.19682 230.136,461.86868 C 232.45628,458.54057 233.61643,453.87652 233.61647,447.8765 C 233.61643,435.71247 229.04612,429.63045 219.90553,429.6304 C 215.87426,429.63045 212.81567,431.25935 210.72975,434.51712 C 208.6438,437.77497 207.60083,442.22809 207.60085,447.8765"
     id="text6437" />
  <path
     style="font-size:32px;font-style:normal;font-weight:normal;fill:#000000;fill-opacity:1;stroke:none;stroke-width:1px;stroke-linecap:butt;stroke-linejoin:miter;stroke-opacity:1;font-family:Trebuchet MS"
     d="M 250.65924,444.34921 L 248.72174,444.34921 L 248.72174,442.00546 L 250.65924,442.00546 L 250.65924,438.50546 L 253.62799,437.36484 L 253.62799,442.00546 L 258.22174,442.00546 L 258.22174,444.34921 L 253.62799,444.34921 L 253.62799,452.66171 C 253.62798,454.06797 253.86236,455.06797 254.33112,455.66171 C 254.81028,456.25547 255.5759,456.55234 256.62799,456.55234 C 257.3884,456.55234 258.17486,456.35963 258.98737,455.97421 L 259.42487,458.58359 C 258.19569,458.89609 256.84673,459.05234 255.37799,459.05234 C 254.05507,459.05234 252.93528,458.56275 252.01862,457.58359 C 251.11236,456.59401 250.65924,455.34922 250.65924,453.84921 L 250.65924,444.34921 M 261.19049,450.33359 C 261.19049,447.75027 261.8832,445.66693 263.26862,444.08359 C 264.66444,442.48985 266.49778,441.69298 268.76862,441.69296 C 271.16444,441.69298 273.02381,442.4586 274.34674,443.98984 C 275.66964,445.51068 276.3311,447.62527 276.33112,450.33359 C 276.3311,453.03151 275.65402,455.16172 274.29987,456.72421 C 272.94569,458.2763 271.10194,459.05234 268.76862,459.05234 C 266.38319,459.05234 264.52382,458.26588 263.19049,456.69296 C 261.85716,455.12005 261.19049,453.00026 261.19049,450.33359 M 264.31549,450.33359 C 264.31549,454.53151 265.79986,456.63046 268.76862,456.63046 C 270.15402,456.63046 271.23735,456.06797 272.01862,454.94296 C 272.81027,453.81797 273.2061,452.28151 273.20612,450.33359 C 273.2061,446.18777 271.72694,444.11485 268.76862,444.11484 C 267.41444,444.11485 266.33111,444.66694 265.51862,445.77109 C 264.71653,446.87527 264.31549,448.3961 264.31549,450.33359 M 310.73737,460.42734 L 310.26862,463.47421 C 304.81026,463.47421 301.23214,461.95858 299.53424,458.92734 C 299.21131,459.06275 298.5186,459.13046 297.45612,459.13046 C 294.57069,459.13046 292.31028,458.00546 290.67487,455.75546 C 289.04986,453.50547 288.23736,450.62005 288.23737,447.09921 C 288.23736,443.79714 289.06549,441.03152 290.72174,438.80234 C 292.37799,436.56278 294.62277,435.44299 297.45612,435.44296 C 300.63319,435.44299 303.06547,436.46903 304.75299,438.52109 C 306.45089,440.57319 307.29985,443.43256 307.29987,447.09921 C 307.29985,452.35964 305.72693,455.96901 302.58112,457.92734 C 303.71652,459.594 305.62276,460.42734 308.29987,460.42734 L 310.73737,460.42734 M 297.45612,438.25546 C 295.51861,438.25548 294.04465,439.04715 293.03424,440.63046 C 292.02382,442.21381 291.51861,444.37006 291.51862,447.09921 C 291.51861,449.72422 292.03424,451.91693 293.06549,453.67734 C 294.10715,455.43776 295.57069,456.31797 297.45612,456.31796 C 299.60194,456.31797 301.23214,455.50547 302.34674,453.88046 C 303.46131,452.24505 304.0186,449.98464 304.01862,447.09921 C 304.0186,441.2034 301.8311,438.25548 297.45612,438.25546 M 313.53424,442.00546 L 313.53424,452.67734 C 313.53424,455.26067 314.65403,456.55234 316.89362,456.55234 C 317.87277,456.55234 318.76861,456.27109 319.58112,455.70859 C 320.3936,455.14609 320.93006,454.49505 321.19049,453.75546 L 321.19049,442.00546 L 324.15924,442.00546 L 324.15924,458.73984 L 321.19049,458.73984 L 321.19049,456.42734 C 320.85715,457.08359 320.18527,457.68776 319.17487,458.23984 C 318.17486,458.7815 317.19569,459.05234 316.23737,459.05234 C 314.40403,459.05234 312.99778,458.5263 312.01862,457.47421 C 311.04986,456.42213 310.56549,454.92734 310.56549,452.98984 L 310.56549,442.00546 L 313.53424,442.00546 M 331.28424,435.67734 C 331.79465,435.67736 332.22694,435.85965 332.58112,436.22421 C 332.94569,436.5784 333.12798,437.00548 333.12799,437.50546 C 333.12798,438.0159 332.94569,438.4534 332.58112,438.81796 C 332.22694,439.17215 331.79465,439.34923 331.28424,439.34921 C 330.78424,439.34923 330.35194,439.17215 329.98737,438.81796 C 329.6332,438.4534 329.45611,438.0159 329.45612,437.50546 C 329.45611,436.99507 329.6332,436.56278 329.98737,436.20859 C 330.34153,435.85444 330.77382,435.67736 331.28424,435.67734 M 329.65924,458.73984 L 329.65924,444.50546 L 327.36237,444.50546 L 327.36237,442.00546 L 332.62799,442.00546 L 332.62799,458.73984 L 329.65924,458.73984 M 338.40924,444.34921 L 336.47174,444.34921 L 336.47174,442.00546 L 338.40924,442.00546 L 338.40924,438.50546 L 341.37799,437.36484 L 341.37799,442.00546 L 345.97174,442.00546 L 345.97174,444.34921 L 341.37799,444.34921 L 341.37799,452.66171 C 341.37798,454.06797 341.61236,455.06797 342.08112,455.66171 C 342.56028,456.25547 343.3259,456.55234 344.37799,456.55234 C 345.1384,456.55234 345.92486,456.35963 346.73737,455.97421 L 347.17487,458.58359 C 345.94569,458.89609 344.59673,459.05234 343.12799,459.05234 C 341.80507,459.05234 340.68528,458.56275 339.76862,457.58359 C 338.86236,456.59401 338.40924,455.34922 338.40924,453.84921 L 338.40924,444.34921"
     id="text6441" />
  <text
     xml:space="preserve"
     style="font-size:14px;font-style:normal;font-weight:normal;fill:#000000;fill-opacity:1;stroke:none;stroke-width:1px;stroke-linecap:butt;stroke-linejoin:miter;stroke-opacity:1;font-family:Bitstream Vera Sans"
     x="139.17657"
     y="443.02634"
     id="text6445"><tspan
       sodipodi:role="line"
       id="tspan6447"
       x="139.17657"
       y="443.02634">Press</tspan></text>
</svg>
