<?xml version="1.0" encoding="UTF-8" standalone="no"?>
<!-- Created with Sodipodi ("http://www.sodipodi.com/") -->
<svg
   xmlns:dc="http://purl.org/dc/elements/1.1/"
   xmlns:cc="http://creativecommons.org/ns#"
   xmlns:rdf="http://www.w3.org/1999/02/22-rdf-syntax-ns#"
   xmlns:svg="http://www.w3.org/2000/svg"
   xmlns="http://www.w3.org/2000/svg"
   xmlns:xlink="http://www.w3.org/1999/xlink"
   xmlns:sodipodi="http://sodipodi.sourceforge.net/DTD/sodipodi-0.dtd"
   xmlns:inkscape="http://www.inkscape.org/namespaces/inkscape"
   version="1.0"
   x="0"
   y="0"
   width="1000"
   height="800"
   id="svg559"
   sodipodi:version="0.32"
   inkscape:version="0.46"
   sodipodi:docname="intro.svg"
   sodipodi:docbase="/root/UltraStar-ng/themes/lima"
   inkscape:output_extension="org.inkscape.output.svg.inkscape">
  <metadata
     id="metadata35">
    <rdf:RDF>
      <cc:Work
         rdf:about="">
        <dc:format>image/svg+xml</dc:format>
        <dc:type
           rdf:resource="http://purl.org/dc/dcmitype/StillImage" />
      </cc:Work>
    </rdf:RDF>
  </metadata>
  <sodipodi:namedview
     inkscape:window-height="1125"
     inkscape:window-width="1919"
     inkscape:pageshadow="2"
     inkscape:pageopacity="0.0"
     guidetolerance="10.0"
     gridtolerance="10.0"
     objecttolerance="10.0"
     borderopacity="1.0"
     bordercolor="#666666"
     pagecolor="#ffffff"
     id="base"
     inkscape:zoom="1.12"
     inkscape:cx="500"
     inkscape:cy="336.78074"
     inkscape:window-x="0"
     inkscape:window-y="25"
     inkscape:current-layer="svg559"
     showgrid="false" />
  <defs
     id="defs561">
    <inkscape:perspective
       sodipodi:type="inkscape:persp3d"
       inkscape:vp_x="0 : 300 : 1"
       inkscape:vp_y="0 : 1000 : 0"
       inkscape:vp_z="800 : 300 : 1"
       inkscape:persp3d-origin="400 : 200 : 1"
       id="perspective63" />
    <linearGradient
       id="linearGradient3751"
       inkscape:collect="always">
      <stop
         id="stop3753"
         offset="0"
         style="stop-color:black;stop-opacity:1;" />
      <stop
         id="stop3755"
         offset="1"
         style="stop-color:black;stop-opacity:0;" />
    </linearGradient>
    <linearGradient
       id="linearGradient6499"
       inkscape:collect="always">
      <stop
         id="stop6501"
         offset="0"
         style="stop-color:white;stop-opacity:1;" />
      <stop
         id="stop6503"
         offset="1"
         style="stop-color:white;stop-opacity:0;" />
    </linearGradient>
    <linearGradient
       inkscape:collect="always"
       xlink:href="#linearGradient6499"
       id="linearGradient3474"
       gradientUnits="userSpaceOnUse"
       gradientTransform="matrix(0.755727,0,0,0.755727,4.33502,31.78829)"
       x1="370.92285"
       y1="100.34026"
       x2="372.94315"
       y2="219.56401" />
    <linearGradient
       inkscape:collect="always"
       xlink:href="#linearGradient3751"
       id="linearGradient3484"
       gradientUnits="userSpaceOnUse"
       gradientTransform="matrix(0.755727,0,0,0.755727,48.1083,31.78829)"
       x1="665.12128"
       y1="684.16162"
       x2="381.28015"
       y2="449.80624" />
    <linearGradient
       inkscape:collect="always"
       xlink:href="#linearGradient6499"
       id="linearGradient7248"
       x1="47.094612"
       y1="260.4765"
       x2="358.07056"
       y2="260.4765"
       gradientUnits="userSpaceOnUse"
       gradientTransform="matrix(1,0,0,0.820512,12.9075,56.85372)" />
    <linearGradient
       inkscape:collect="always"
       xlink:href="#linearGradient6499"
       id="linearGradient7256"
       gradientUnits="userSpaceOnUse"
       gradientTransform="matrix(1,0,0,0.820512,12.9075,130.1193)"
       x1="44.868057"
       y1="260.4765"
       x2="358.07056"
       y2="260.4765" />
    <linearGradient
       inkscape:collect="always"
       xlink:href="#linearGradient6499"
       id="linearGradient7335"
       gradientUnits="userSpaceOnUse"
       gradientTransform="matrix(1,0,0,0.820512,49.94643,155.9343)"
       x1="44.868057"
       y1="260.4765"
       x2="358.07056"
       y2="260.4765" />
    <linearGradient
       inkscape:collect="always"
       xlink:href="#linearGradient6499"
       id="linearGradient7346"
       gradientUnits="userSpaceOnUse"
       gradientTransform="matrix(1,0,0,0.820512,49.94643,82.66873)"
       x1="47.094612"
       y1="260.4765"
       x2="358.07056"
       y2="260.4765" />
    <linearGradient
       inkscape:collect="always"
       xlink:href="#linearGradient6499"
       id="linearGradient6391"
       gradientUnits="userSpaceOnUse"
       gradientTransform="matrix(1,0,0,0.820512,49.94643,155.9343)"
       x1="44.868057"
       y1="260.4765"
       x2="358.07056"
       y2="260.4765" />
    <linearGradient
       inkscape:collect="always"
       xlink:href="#linearGradient6499"
       id="linearGradient6423"
       gradientUnits="userSpaceOnUse"
       gradientTransform="matrix(1,0,0,0.820512,49.94643,155.9343)"
       x1="44.868057"
       y1="260.4765"
       x2="358.07056"
       y2="260.4765" />
    <linearGradient
       inkscape:collect="always"
       xlink:href="#linearGradient6499"
       id="linearGradient6425"
       gradientUnits="userSpaceOnUse"
       gradientTransform="matrix(1,0,0,0.820512,49.94643,155.9343)"
       x1="44.868057"
       y1="260.4765"
       x2="358.07056"
       y2="260.4765" />
    <linearGradient
       inkscape:collect="always"
       xlink:href="#linearGradient6499"
       id="linearGradient6427"
       gradientUnits="userSpaceOnUse"
       gradientTransform="matrix(1,0,0,0.820512,49.94643,155.9343)"
       x1="44.868057"
       y1="260.4765"
       x2="358.07056"
       y2="260.4765" />
    <linearGradient
       inkscape:collect="always"
       xlink:href="#linearGradient6499"
       id="linearGradient6449"
       gradientUnits="userSpaceOnUse"
       gradientTransform="matrix(1,0,0,0.820512,49.94643,155.9343)"
       x1="44.868057"
       y1="260.4765"
       x2="358.07056"
       y2="260.4765" />
    <linearGradient
       inkscape:collect="always"
       xlink:href="#linearGradient6499"
       id="linearGradient2234"
       gradientUnits="userSpaceOnUse"
       gradientTransform="matrix(1,0,0,0.820512,30.865771,26.07382)"
       x1="44.868057"
       y1="260.4765"
       x2="358.07056"
       y2="260.4765" />
    <linearGradient
       inkscape:collect="always"
       xlink:href="#linearGradient6499"
       id="linearGradient2246"
       gradientUnits="userSpaceOnUse"
       gradientTransform="matrix(1,0,0,0.820512,30.865771,97.46637)"
       x1="44.868057"
       y1="260.4765"
       x2="358.07056"
       y2="260.4765" />
    <linearGradient
       inkscape:collect="always"
       xlink:href="#linearGradient6499"
       id="linearGradient2257"
       gradientUnits="userSpaceOnUse"
       gradientTransform="matrix(1,0,0,0.820512,30.865771,169.0347)"
       x1="44.868057"
       y1="260.4765"
       x2="358.07056"
       y2="260.4765" />
    <linearGradient
       inkscape:collect="always"
       xlink:href="#linearGradient6499"
       id="linearGradient2268"
       gradientUnits="userSpaceOnUse"
       gradientTransform="matrix(1,0,0,0.820512,30.865771,235.2241)"
       x1="44.868057"
       y1="260.4765"
       x2="358.07056"
       y2="260.4765" />
    <linearGradient
       inkscape:collect="always"
       xlink:href="#linearGradient6499"
       id="linearGradient2241"
       gradientUnits="userSpaceOnUse"
       gradientTransform="matrix(1,0,0,0.820512,30.865771,235.2241)"
       x1="44.868057"
       y1="260.4765"
       x2="358.07056"
       y2="260.4765" />
    <linearGradient
       inkscape:collect="always"
       xlink:href="#linearGradient6499"
       id="linearGradient2243"
       gradientUnits="userSpaceOnUse"
       gradientTransform="matrix(1,0,0,0.820512,30.865771,97.46637)"
       x1="44.868057"
       y1="260.4765"
       x2="358.07056"
       y2="260.4765" />
    <linearGradient
       inkscape:collect="always"
       xlink:href="#linearGradient6499"
       id="linearGradient2245"
       gradientUnits="userSpaceOnUse"
       gradientTransform="matrix(1,0,0,0.820512,30.865771,169.0347)"
       x1="44.868057"
       y1="260.4765"
       x2="358.07056"
       y2="260.4765" />
    <linearGradient
       inkscape:collect="always"
       xlink:href="#linearGradient3751"
       id="linearGradient2471"
       gradientUnits="userSpaceOnUse"
       gradientTransform="matrix(0.755727,0,0,0.755727,48.1083,31.78829)"
       x1="665.12128"
       y1="684.16162"
       x2="381.28015"
       y2="449.80624" />
    <linearGradient
       inkscape:collect="always"
       xlink:href="#linearGradient6499"
       id="linearGradient2473"
       gradientUnits="userSpaceOnUse"
       gradientTransform="matrix(0.755727,0,0,0.755727,4.33502,31.78829)"
       x1="370.92285"
       y1="100.34026"
       x2="372.94315"
       y2="219.56401" />
    <linearGradient
       inkscape:collect="always"
       xlink:href="#linearGradient6499"
       id="linearGradient2475"
       gradientUnits="userSpaceOnUse"
       gradientTransform="matrix(1,0,0,0.820512,30.865771,169.0347)"
       x1="44.868057"
       y1="260.4765"
       x2="358.07056"
       y2="260.4765" />
    <linearGradient
       inkscape:collect="always"
       xlink:href="#linearGradient6499"
       id="linearGradient2477"
       gradientUnits="userSpaceOnUse"
       gradientTransform="matrix(1,0,0,0.820512,30.865771,97.46637)"
       x1="44.868057"
       y1="260.4765"
       x2="358.07056"
       y2="260.4765" />
    <linearGradient
       inkscape:collect="always"
       xlink:href="#linearGradient6499"
       id="linearGradient2479"
       gradientUnits="userSpaceOnUse"
       gradientTransform="matrix(1,0,0,0.820512,30.865771,26.07382)"
       x1="44.868057"
       y1="260.4765"
       x2="358.07056"
       y2="260.4765" />
    <linearGradient
       inkscape:collect="always"
       xlink:href="#linearGradient6499"
       id="linearGradient2481"
       gradientUnits="userSpaceOnUse"
       gradientTransform="matrix(1,0,0,0.820512,30.865771,235.2241)"
       x1="44.868057"
       y1="260.4765"
       x2="358.07056"
       y2="260.4765" />
    <linearGradient
       inkscape:collect="always"
       xlink:href="#linearGradient6499"
       id="linearGradient2494"
       gradientUnits="userSpaceOnUse"
       gradientTransform="matrix(1.2483528,0,0,1.0242885,40.754503,32.226123)"
       x1="44.868057"
       y1="260.4765"
       x2="358.07056"
       y2="260.4765" />
    <linearGradient
       inkscape:collect="always"
       xlink:href="#linearGradient6499"
       id="linearGradient2508"
       gradientUnits="userSpaceOnUse"
       gradientTransform="matrix(0.9434139,0,0,0.9434139,7.6347653,39.359798)"
       x1="370.92285"
       y1="100.34026"
       x2="372.94315"
       y2="219.56401" />
    <linearGradient
       inkscape:collect="always"
       xlink:href="#linearGradient3751"
       id="linearGradient2518"
       gradientUnits="userSpaceOnUse"
       gradientTransform="matrix(0.9434139,0,0,0.9434139,62.279262,39.359798)"
       x1="665.12128"
       y1="684.16162"
       x2="381.28015"
       y2="449.80624" />
  </defs>
  <rect
     style="fill:#81d000;fill-opacity:1;fill-rule:nonzero;stroke:none;stroke-width:3;stroke-linecap:round;stroke-linejoin:miter;marker:none;marker-start:none;marker-mid:none;marker-end:none;stroke-miterlimit:4;stroke-dasharray:none;stroke-dashoffset:0;stroke-opacity:1;visibility:visible;display:block;overflow:visible"
     id="rect2828"
     width="1004.6801"
     height="806.03967"
     x="-1.4212481"
     y="-3.1865866" />
  <path
     style="fill:#000000;fill-opacity:1;fill-rule:evenodd;stroke:#000000;stroke-width:0.67309088px;stroke-linecap:butt;stroke-linejoin:miter;stroke-opacity:1"
     d="M 794.42889,322.92369 L 780.83033,322.92369 L 778.11066,329.72293 L 780.83033,337.2021 L 779.47049,345.36119 L 772.67131,341.28164 L 767.23197,331.08278 L 755.67315,328.36307 L 750.91373,323.60361 L 740.71485,318.84413 L 729.15616,299.80625 L 729.83607,290.96723 L 758.39293,269.20965 L 771.9913,275.32896 L 774.03114,280.08844 L 774.03114,285.52784 L 777.43073,290.2873 L 784.23001,292.32708 L 788.98944,288.24753 L 789.66936,283.48806 L 787.62961,279.40852 L 783.5501,277.36875 L 780.83033,273.96912 L 786.94969,271.24943 L 785.58985,264.45018 L 785.58985,260.37062 L 781.51034,256.29108 L 779.47049,250.17177 L 771.31147,248.132 L 764.51219,246.77214 L 750.23372,256.97101 L 714.19776,271.24943 L 706.03865,279.40852 L 699.91938,284.16799 L 698.55944,295.04678 L 701.27921,300.48618 L 708.07849,318.84413 L 716.91743,335.84224 L 726.43638,348.08088 L 711.47808,372.55817 L 694.47994,409.27408 L 684.28107,425.59226 L 667.28301,446.66993 L 666.60309,456.18888 L 657.76406,464.34796 L 671.36253,476.58662 L 667.96293,490.86501 L 669.32277,522.82147 L 675.44203,559.53739 L 681.56139,592.17377 L 688.36057,603.05256 L 697.87963,622.77036 L 712.83793,645.20787 L 716.91743,659.48624 L 720.99703,669.68512 L 708.75832,686.68323 L 687.00074,695.52225 L 684.96098,702.32155 L 726.43638,700.9617 L 720.31712,711.84046 L 727.79623,718.63969 L 747.51405,720.6795 L 763.15236,707.08098 L 768.5918,688.04314 L 777.43073,671.72493 L 788.30953,662.206 L 791.70912,651.32718 L 780.15051,650.64727 L 787.62961,643.16809 L 772.67131,647.92757 L 783.5501,637.04877 L 775.39099,635.009 L 769.27162,627.52983 L 759.07276,606.45217 L 735.27542,586.73436 L 730.51599,585.37452 L 735.27542,581.29497 L 734.5955,569.73625 L 739.35502,559.53739 L 735.27542,560.21731 L 742.75461,547.29875 L 742.75461,534.38018 L 747.51405,527.58094 L 747.51405,518.74192 L 757.71291,505.14342 L 758.39293,493.58472 L 756.35308,484.06577 L 761.1126,473.18698 L 766.55195,464.34796 L 766.55195,458.90857 L 772.67131,458.22865 L 778.11066,452.78925 L 782.87018,439.19077 L 793.74896,426.95212 L 806.66752,422.19265 L 814.82653,428.99189 L 834.54445,435.11122 L 850.18266,443.2703 L 857.66177,452.78925 L 870.58031,454.1491 L 911.37589,471.82713 L 932.45346,479.30631 L 949.4516,492.22487 L 953.53121,490.86501 L 953.53121,486.78547 L 944.01225,479.30631 L 962.37014,484.06577 L 964.41,480.66614 L 960.3304,476.58662 L 967.12968,476.58662 L 967.80959,472.50706 L 955.57096,469.78736 L 965.08982,467.06766 L 965.08982,462.30819 L 961.69023,461.62828 L 951.49136,462.30819 L 943.33234,458.90857 L 937.8929,456.18888 L 946.05201,449.38963 L 948.09177,444.63016 L 946.73193,441.23053 L 939.25283,442.59039 L 923.61442,450.74947 L 921.57476,454.82902 L 916.13532,453.46918 L 896.41749,442.59039 L 895.73758,435.11122 L 884.17887,428.99189 L 864.46105,418.79302 L 859.70161,422.19265 L 860.38154,417.43318 L 849.50275,407.23431 L 839.98379,404.51461 L 831.14476,394.31575 L 828.4251,390.91612 L 837.26412,397.03545 L 835.90429,390.23619 L 842.70347,393.63582 L 840.66371,383.43695 L 850.18266,392.27598 L 846.10316,386.15666 L 855.62201,390.23619 L 847.46299,378.67749 L 853.58226,380.71726 L 850.86259,369.83847 L 855.62201,373.91801 L 848.82283,363.71914 L 855.62201,365.75891 L 849.50275,357.59983 L 857.66177,356.9199 L 848.82283,351.4805 L 854.26218,348.76082 L 848.14292,348.08088 L 856.30194,340.60172 L 848.82283,341.28164 L 849.50275,336.52217 L 850.18266,322.92369 L 846.10316,332.44263 L 841.34364,318.84413 L 842.02355,329.72293 L 839.30388,330.40285 L 832.5046,330.40285 L 825.02541,319.52406 L 817.5463,319.52406 L 808.70726,312.04489 L 804.62766,316.12443 L 794.42889,322.92369 z"
     id="path1939" />
  <path
     id="path2864"
     d="M 435.88424,549.14748 L 422.27662,549.14748 L 425.93151,551.82116 L 435.66696,554.76219 L 441.95775,557.97059 L 431.32821,556.36638 L 416.32067,552.3559 L 402.20371,551.28642 L 392.97758,549.41486 L 378.30844,547.54329 L 348.88817,540.05702 L 341.27935,536.58125 L 349.45101,528.02552 L 368.79722,530.43182 L 375.30188,532.30338 L 380.40291,534.44231 L 388.26826,536.31389 L 396.98502,537.11598 L 397.92173,535.51178 L 394.13874,533.64022 L 388.27174,532.03601 L 382.27663,531.23392 L 376.3669,529.89708 L 379.9398,528.82762 L 372.20267,526.15395 L 368.37693,524.54974 L 360.46886,522.94554 L 352.689,520.53924 L 342.61155,519.73714 L 334.53244,519.20241 L 329.80904,523.21292 L 307.13918,528.82762 L 306.62625,532.03601 L 304.96631,533.90758 L 313.80771,538.18545 L 321.6303,540.32439 L 345.65028,547.54329 L 370.43602,554.22746 L 391.43879,559.04006 L 399.42525,568.66525 L 416.84803,583.10307 L 421.94558,589.51986 L 424.70281,597.80824 L 432.94938,601.55137 L 431.75595,604.75978 L 456.84095,609.57239 L 466.82945,615.18708 L 498.15899,627.75333 L 538.71466,642.19113 L 575.44459,655.02474 L 592.45048,659.3026 L 620.46723,667.05624 L 656.47743,675.87935 L 673.95003,681.49403 L 687.59688,685.50454 L 691.29082,692.1887 L 677.80792,695.66447 L 682.14329,698.33816 L 722.37112,697.80343 L 726.44988,702.08128 L 740.31033,704.75495 L 761.95422,705.55705 L 764.85022,700.20971 L 752.43961,692.72346 L 745.98128,686.30664 L 747.94047,682.56352 L 741.14016,678.28565 L 728.93615,678.01828 L 729.40635,675.07723 L 718.90144,676.94881 L 719.58531,672.67094 L 709.50786,671.86884 L 696.37054,668.92781 L 666.39809,660.63943 L 624.09342,652.8858 L 618.05549,652.35107 L 618.99239,650.74686 L 607.47217,646.20163 L 602.67029,642.19113 L 599.2257,642.4585 L 594.59486,637.37853 L 582.47972,632.29855 L 580.86601,629.62488 L 572.5768,626.14912 L 570.02977,620.80179 L 559.87043,616.25656 L 548.9024,612.51341 L 543.46287,608.23555 L 540.61667,604.75978 L 535.51554,602.62085 L 541.0014,602.35348 L 541.34329,600.21455 L 533.35333,594.86722 L 532.7619,590.05461 L 541.22564,588.18304 L 555.76648,590.8567 L 581.2363,593.26301 L 604.53655,596.4714 L 620.94761,600.21455 L 635.15005,600.74928 L 692.55132,607.70081 L 720.65703,610.64185 L 749.78154,615.72183 L 752.58866,615.18708 L 748.76284,613.58289 L 732.22347,610.64185 L 755.0572,612.51341 L 753.91011,611.17659 L 746.00213,609.57239 L 752.80584,609.57239 L 749.6605,607.96818 L 734.86305,606.89872 L 741.83781,605.82925 L 737.37432,603.95767 L 733.3349,603.69031 L 723.7668,603.95767 L 712.41413,602.62085 L 704.42049,601.55137 L 706.20874,598.87771 L 703.78643,597.00615 L 699.23748,595.6693 L 693.02859,596.20404 L 685.03145,599.41243 L 686.81611,601.01664 L 680.09788,600.48191 L 650.16467,596.20404 L 642.47038,593.26301 L 625.16523,590.8567 L 595.86969,586.8462 L 594.29523,588.18304 L 590.51213,586.31147 L 570.06157,582.30096 L 557.98578,581.23151 L 539.57628,577.22099 L 533.66664,575.88417 L 548.25021,578.29047 L 540.51318,575.61679 L 550.50506,576.95363 L 538.89937,572.94314 L 556.71396,576.4189 L 546.89301,574.0126 L 560.24412,575.61679 L 541.2398,571.07157 L 549.27608,571.87367 L 536.35245,567.59579 L 544.9409,569.2 L 528.57258,565.18949 L 537.28925,565.9916 L 523.51419,562.78319 L 531.04112,562.51582 L 517.0952,560.37689 L 519.9876,559.30743 L 513.22664,559.04006 L 514.37712,556.09902 L 507.53068,556.36638 L 503.74758,554.49483 L 491.67529,549.14748 L 496.51991,552.89062 L 479.00458,547.54329 L 489.88705,551.82116 L 487.80313,552.08853 L 480.99942,552.08853 L 463.31306,547.81066 L 455.82886,547.81066 L 439.97007,544.86963 L 439.71346,546.47381 L 435.88424,549.14748 z"
     style="opacity:0.22790701;fill:url(#linearGradient2518);fill-opacity:1;fill-rule:evenodd;stroke:none;stroke-width:0.44754833px;stroke-linecap:butt;stroke-linejoin:miter;stroke-opacity:1" />
  <path
     style="fill:none;fill-opacity:0.75;fill-rule:evenodd;stroke:#ffffff;stroke-width:1.60380363;stroke-linecap:round;stroke-linejoin:round;stroke-miterlimit:4;stroke-dasharray:none;stroke-opacity:1"
     d="M 771.30524,245.79281 C 744.68389,235.95291 733.65301,271.94599 739.14907,293.4498 C 745.58088,318.61485 747.55877,349.47051 735.97609,372.1664 C 727.67642,388.42935 689.29323,394.51818 689.77749,417.37499"
     id="path3759"
     sodipodi:nodetypes="cssc" />
  <path
     style="font-size:149.94555664px;font-style:normal;font-variant:normal;font-weight:normal;font-stretch:normal;text-align:start;line-height:125%;writing-mode:lr-tb;text-anchor:start;fill:#ffffff;fill-opacity:1;stroke:none;stroke-width:1px;stroke-linecap:butt;stroke-linejoin:miter;stroke-opacity:1;font-family:Interstate-LightCondensed"
     d="M 387.35882,86.618702 L 370.64265,95.404245 L 370.64265,116.95531 L 361.4739,116.95531 L 361.4739,133.61249 L 370.64265,133.61249 L 370.64265,172.73468 C 370.64265,181.36195 372.11193,187.52117 375.03548,191.19022 C 378.05326,194.85928 382.59081,196.7033 388.62648,196.7033 C 391.07851,196.70331 393.33251,196.38434 395.40727,195.78936 C 397.48202,195.19437 399.47641,194.37422 401.36257,193.28342 L 403.3379,176.30197 C 400.13142,178.78107 396.82701,180.04616 393.43204,180.04614 C 391.45153,180.04616 389.92924,179.48599 388.89187,178.39517 C 387.85449,177.20524 387.35882,175.16824 387.35882,172.29246 L 387.35882,133.61249 L 402.33552,133.61249 L 402.33552,116.95531 L 387.35882,116.95531 L 387.35882,86.618702 z M 149.94277,92.013803 L 140.33173,97.674287 L 140.33173,195.14077 L 149.94277,195.14077 L 149.94277,92.013803 z M 181.31129,92.013803 L 171.84771,97.674287 L 171.84771,120.87642 L 164.2119,120.87642 L 164.2119,129.07231 L 171.84771,129.07231 L 171.84771,180.98956 C 171.84771,186.27077 172.8449,190.23007 174.82531,192.87068 C 176.80582,195.41696 179.89776,196.7033 184.14153,196.7033 C 186.31062,196.7033 188.305,196.49089 190.09682,196.11366 C 191.88865,195.83073 193.59397,195.33508 195.1972,194.58061 L 196.05212,185.64766 C 194.44889,186.40214 192.9266,186.92728 191.51194,187.2102 C 190.19163,187.49314 188.66934,187.65241 186.97177,187.65241 C 185.08569,187.65241 183.66954,187.07418 182.72641,185.94248 C 181.78336,184.7165 181.31129,182.72209 181.31129,179.98718 L 181.31129,129.07231 L 195.60994,129.07231 L 195.60994,120.87642 L 181.31129,120.87642 L 181.31129,92.013803 z M 593.08202,94.873574 C 590.59527,94.873574 588.22098,95.423301 585.94744,96.524548 C 583.70939,97.590323 581.7268,99.134314 580.02158,101.12369 C 578.31645,103.11307 576.97737,105.51075 575.98264,108.31722 C 574.98799,111.08812 574.47903,114.16403 574.47903,117.57447 C 574.47911,120.13225 574.83592,122.40135 575.51093,124.35524 C 576.18595,126.30911 577.10389,127.95822 578.31165,129.30816 C 579.5195,130.65812 580.99924,131.69324 582.70446,132.40374 C 584.40969,133.07871 586.25161,133.4061 588.27646,133.40612 C 590.3014,133.4061 592.17284,133.12559 593.87798,132.52167 C 595.58319,131.88221 597.10379,130.88791 598.41815,129.5735 C 599.76808,128.25908 600.91442,126.58654 601.83803,124.56161 C 602.79729,122.53673 603.49891,120.13905 603.96071,117.36805 L 604.57987,113.85978 L 592.75767,113.85978 L 591.87323,119.22545 L 598.03493,119.22545 C 598.03493,119.22545 598.01145,119.29573 597.97597,119.40234 C 597.97589,119.47337 597.97597,119.51422 597.97597,119.5497 C 597.37201,122.24965 596.31953,124.34332 594.79195,125.79984 C 593.26438,127.22084 591.28179,127.92253 588.86609,127.92253 C 587.62276,127.92253 586.48246,127.70023 585.41678,127.27393 C 584.38657,126.8121 583.48599,126.18074 582.70446,125.32814 C 581.92294,124.44001 581.27944,123.31109 580.81764,121.99672 C 580.3913,120.68227 580.19847,119.14431 580.19847,117.36805 C 580.19847,114.84584 580.50244,112.55928 581.14189,110.49887 C 581.8169,108.40288 582.71748,106.59578 583.85421,105.10367 C 584.99102,103.61166 586.28924,102.47145 587.74578,101.65436 C 589.23779,100.8018 590.82272,100.3867 592.49238,100.3866 C 594.33958,100.3867 595.86018,100.84869 597.03257,101.77229 C 598.24041,102.69598 599.22865,103.98818 600.01016,105.6933 L 605.3464,103.3643 C 604.38723,100.69991 602.91352,98.606286 600.92415,97.114182 C 598.93477,95.622173 596.31472,94.873574 593.08202,94.873574 z M 542.13766,95.463208 L 535.53377,132.787 L 541.01736,132.787 L 545.02686,109.82074 C 545.06234,109.57215 545.10319,109.17441 545.17423,108.64147 C 545.28084,108.10863 545.36858,107.5824 545.43961,107.04946 C 545.51065,106.48115 545.60443,105.94878 545.67547,105.48698 C 545.7465,104.98961 545.78736,104.66225 545.82283,104.4846 C 546.00047,105.01744 546.2636,105.69576 546.61888,106.54832 C 547.00965,107.40088 547.3605,108.19637 547.68023,108.90686 L 558.55892,132.787 L 563.65929,132.787 L 570.29263,95.463208 L 564.7796,95.463208 L 560.79953,118.39996 C 560.76396,118.64864 560.69971,119.01686 560.5932,119.5497 C 560.52207,120.04706 560.42838,120.60283 560.35735,121.17124 C 560.2863,121.70408 560.22196,122.20692 560.15092,122.70428 C 560.07989,123.16609 560.03904,123.47005 560.00357,123.6477 C 559.82592,123.15033 559.5628,122.49551 559.20752,121.64294 C 558.85222,120.79038 558.49543,119.99489 558.1757,119.28441 L 547.53277,95.463208 L 542.13766,95.463208 z M 330.01689,115.33386 C 326.71618,115.33396 323.67735,115.86463 320.84814,116.95531 C 318.01894,117.94703 315.55247,119.45337 313.47772,121.43653 C 311.49721,123.32071 309.95133,125.64719 308.81961,128.42372 C 307.6879,131.20036 307.10967,134.32822 307.10967,137.79888 C 307.10967,143.84794 308.41961,148.69383 311.06022,152.36284 C 313.79509,155.93278 317.86064,159.10888 323.2361,161.88543 C 325.87672,163.27374 328.05402,164.4611 329.75161,165.45271 C 331.44909,166.34522 332.81213,167.24309 333.84951,168.13554 C 334.88689,169.02804 335.59502,169.92593 335.9722,170.81838 C 336.44371,171.61172 336.67975,172.55784 336.67975,173.64862 C 336.67975,175.63192 336.02484,177.20524 334.70453,178.39517 C 333.47846,179.48599 331.5372,180.04616 328.89659,180.04614 C 323.14384,180.04616 317.19014,177.76794 311.06022,173.20639 L 305.13435,188.21257 C 308.62376,191.08833 312.2409,193.22179 316.01314,194.6101 C 319.78538,195.99839 323.98075,196.7033 328.60177,196.7033 C 335.67483,196.70331 341.49872,194.61806 346.0255,190.45318 C 350.64644,186.2883 352.95364,180.17734 352.95364,172.14505 C 352.95364,165.99693 351.43126,161.15103 348.41347,157.5811 C 345.48992,154.01124 341.29456,150.83516 335.82483,148.05852 C 333.27847,146.76943 331.20739,145.67857 329.60415,144.78605 C 328.00092,143.79446 326.71466,142.89658 325.77153,142.10322 C 324.82849,141.30996 324.17348,140.55682 323.7963,139.86261 C 323.51338,139.06936 323.38356,138.24919 323.38356,137.35667 C 323.38356,135.7701 323.93235,134.45678 325.06397,133.46508 C 326.19569,132.47351 327.71808,131.99106 329.60415,131.991 C 332.33911,131.99106 334.80556,132.32876 336.97458,133.02286 C 339.23802,133.71706 341.96401,134.95266 345.17047,136.73755 L 350.97842,122.46843 C 347.6776,120.08858 344.32018,118.29279 340.92511,117.10276 C 337.62439,115.91284 333.97782,115.33396 330.01689,115.33386 z M 439.74773,115.33386 C 435.22104,115.33396 431.1319,115.96114 427.45391,117.25013 C 423.77592,118.5394 420.23556,120.4316 416.84051,122.91061 L 423.6213,135.70569 C 425.97897,134.01997 428.28609,132.83261 430.54944,132.1384 C 432.81278,131.34515 435.51529,130.9592 438.62742,130.95913 C 441.92824,130.9592 444.23536,131.87585 445.55567,133.7599 C 446.87587,135.54491 447.53089,137.85261 447.53089,140.62914 L 447.53089,146.55495 C 445.92765,145.46421 444.27554,144.69227 442.57797,144.19642 C 440.88049,143.70065 438.39035,143.42994 435.08961,143.42989 C 431.78889,143.42994 428.72054,144.0866 425.89134,145.37568 C 423.15647,146.56569 420.74312,148.31322 418.66837,150.59394 C 416.68796,152.77558 415.14198,155.488 414.01027,158.76036 C 412.87855,161.93365 412.30032,165.4957 412.30032,169.46222 C 412.30032,177.89116 414.34782,184.53282 418.40298,189.39183 C 422.45826,194.25086 427.7275,196.7033 434.23469,196.7033 C 436.68663,196.70331 439.09997,196.09489 441.45766,194.90491 C 443.81535,193.71495 445.8334,191.99692 447.53089,189.71614 L 447.53089,195.05232 L 464.21753,195.05232 L 464.21753,141.36618 C 464.21753,132.73898 462.27617,126.24204 458.40968,121.8788 C 454.63735,117.5156 448.42402,115.33396 439.74773,115.33386 z M 509.26554,115.33386 C 506.53067,115.33396 503.9344,116.08709 501.48237,117.57447 C 499.03044,119.06195 497.08908,120.63528 495.67453,122.32098 L 495.67453,116.95531 L 478.98789,116.95531 L 478.98789,195.05232 L 495.67453,195.05232 L 495.67453,139.27298 C 498.59798,134.81066 502.19154,132.58068 506.4353,132.58063 C 508.41581,132.58068 510.14462,132.9184 511.6536,133.61249 C 513.25684,134.3067 514.77914,135.25282 516.19378,136.44273 L 520.99924,119.34337 C 519.20742,117.95514 517.42541,116.96078 515.63359,116.36567 C 513.84175,115.67161 511.71757,115.33396 509.26554,115.33386 z M 235.61654,119.31384 C 232.59875,119.31394 229.81954,120.1282 227.27327,121.73134 C 224.82125,123.24033 222.85631,125.07545 221.34741,127.24445 L 221.34741,120.87642 L 211.73638,120.87642 L 211.73638,195.14077 L 221.34741,195.14077 L 221.34741,137.00288 C 222.66772,134.73957 224.37303,132.79827 226.44779,131.195 C 228.52254,129.49752 230.72343,128.65963 233.08111,128.65957 C 234.96729,128.65963 236.56637,128.84255 237.88667,129.21972 C 239.30123,129.597 240.66427,130.14577 241.98458,130.90017 L 244.6969,120.87642 C 243.65952,120.4049 242.4263,120.00961 241.01174,119.72659 C 239.59709,119.44375 237.78563,119.31394 235.61654,119.31384 z M 275.7706,119.31384 C 271.90401,119.31394 268.31055,119.96895 265.00982,121.28916 C 261.70901,122.60947 258.56404,124.44461 255.54616,126.80222 L 259.90945,134.17264 C 262.55007,132.19224 265.06964,130.6699 267.42732,129.63246 C 269.78501,128.59514 272.32818,128.09948 275.06303,128.09942 C 282.70195,128.09948 286.53146,132.42464 286.53146,141.10084 L 286.53146,151.56684 C 284.92821,150.52951 282.98686,149.71522 280.72351,149.14934 C 278.46017,148.48924 275.9406,148.17649 273.20573,148.17644 C 270.0936,148.17649 267.18459,148.64853 264.44962,149.59156 C 261.80901,150.53468 259.50189,152.00393 257.52148,153.98434 C 255.54107,155.96483 253.99499,158.50799 252.86337,161.62009 C 251.73165,164.63794 251.15343,168.20193 251.15343,172.35143 C 251.15343,176.59527 251.62542,180.29493 252.56855,183.40705 C 253.51159,186.4249 254.82162,188.91496 256.5191,190.8954 C 258.21659,192.87586 260.21097,194.34509 262.4744,195.28818 C 264.73774,196.23124 267.17468,196.7033 269.81529,196.7033 C 273.39904,196.7033 276.57354,195.94213 279.30839,194.4332 C 282.04336,192.92429 284.4567,191.0892 286.53146,188.92013 L 286.53146,195.14077 L 296.14248,195.14077 L 296.14248,140.09846 C 296.14239,132.27103 294.30735,126.87195 290.62937,123.85405 C 287.04571,120.83632 282.0892,119.31394 275.7706,119.31384 z M 75.914304,120.87642 L 75.914304,171.79127 C 75.914304,180.09033 77.566505,186.33314 80.867228,190.48265 C 84.16795,194.63217 88.96521,196.7033 95.283724,196.7033 C 99.056059,196.7033 102.28367,195.94213 104.92428,194.4332 C 107.5648,192.82998 109.68909,190.99489 111.29233,188.92013 L 111.29233,195.14077 L 120.90336,195.14077 L 120.90336,120.87642 L 111.29233,120.87642 L 111.29233,179.3091 C 109.68909,181.57249 107.74773,183.5905 105.48439,185.38233 C 103.31538,187.07986 100.71911,187.91775 97.701223,187.91775 C 93.457464,187.91775 90.389105,186.60782 88.502937,183.9672 C 86.616863,181.23231 85.672696,176.80094 85.672696,170.67097 L 85.672696,120.87642 L 75.914304,120.87642 z M 273.08781,156.66716 C 276.38853,156.6672 278.98481,156.95633 280.87097,157.52213 C 282.85139,158.08801 284.73954,158.8728 286.53146,159.91016 L 286.53146,180.57681 C 284.73954,182.7459 282.50912,184.58099 279.86859,186.08989 C 277.32223,187.50452 274.54312,188.21257 271.52524,188.21257 C 267.94158,188.21259 265.23908,186.74333 263.44725,183.8198 C 261.65542,180.89629 260.76446,176.93698 260.76446,171.93869 C 260.76446,167.12903 261.76166,163.40576 263.74207,160.76512 C 265.72258,158.03025 268.84395,156.6672 273.08781,156.66716 z M 437.33023,158.31814 C 439.8766,158.31818 441.87098,158.65589 443.28552,159.35 C 444.79442,159.94502 446.21058,160.8429 447.53089,162.03283 L 447.53089,174.53306 C 446.49352,176.41719 445.07736,177.99051 443.28552,179.27962 C 441.58804,180.4696 439.75291,181.07801 437.7725,181.078 C 435.03755,181.07803 432.91335,180.0354 431.40445,177.95295 C 429.98981,175.87051 429.28178,172.93566 429.28178,169.1674 C 429.28178,165.89503 430.04292,163.2791 431.55182,161.29579 C 433.06072,159.31256 434.97254,158.31818 437.33023,158.31814 z"
     id="text5554" />
  <path
     sodipodi:type="star"
     style="opacity:0.22790701;fill:#ffffff;fill-opacity:1;fill-rule:nonzero;stroke:#ffffff;stroke-width:1.70000005;stroke-linecap:round;stroke-linejoin:round;marker:none;marker-start:none;marker-mid:none;marker-end:none;stroke-miterlimit:4;stroke-dasharray:none;stroke-dashoffset:0;stroke-opacity:1;visibility:visible;display:block;overflow:visible"
     id="path5574"
     sodipodi:sides="5"
     sodipodi:cx="141.42136"
     sodipodi:cy="350.13498"
     sodipodi:r1="78.688225"
     sodipodi:r2="45.665279"
     sodipodi:arg1="1.0612041"
     sodipodi:arg2="1.6895226"
     inkscape:flatsided="false"
     inkscape:rounded="0"
     inkscape:randomized="0"
     d="M 179.80715,418.82535 L 136.01242,395.47879 L 87.954791,407.86853 L 96.625376,359.00278 L 69.991407,317.1259 L 119.14486,310.27177 L 150.74179,272.0007 L 172.4497,316.63036 L 218.61165,334.85441 L 182.87443,369.29119 L 179.80715,418.82535 z"
     transform="matrix(0.6171045,-0.2551458,0.2551458,0.6171045,-48.77856,487.49674)" />
  <path
     transform="matrix(0.5368229,1.5964048e-2,-1.5964048e-2,0.5368229,6.5592731,406.45942)"
     d="M 179.80715,418.82535 L 136.01242,395.47879 L 87.954791,407.86853 L 96.625376,359.00278 L 69.991407,317.1259 L 119.14486,310.27177 L 150.74179,272.0007 L 172.4497,316.63036 L 218.61165,334.85441 L 182.87443,369.29119 L 179.80715,418.82535 z"
     inkscape:randomized="0"
     inkscape:rounded="0"
     inkscape:flatsided="false"
     sodipodi:arg2="1.6895226"
     sodipodi:arg1="1.0612041"
     sodipodi:r2="45.665279"
     sodipodi:r1="78.688225"
     sodipodi:cy="350.13498"
     sodipodi:cx="141.42136"
     sodipodi:sides="5"
     id="path5576"
     style="opacity:0.22790701;fill:#ffffff;fill-opacity:1;fill-rule:nonzero;stroke:#ffffff;stroke-width:1.70000005;stroke-linecap:round;stroke-linejoin:round;marker:none;marker-start:none;marker-mid:none;marker-end:none;stroke-miterlimit:4;stroke-dasharray:none;stroke-dashoffset:0;stroke-opacity:1;visibility:visible;display:block;overflow:visible"
     sodipodi:type="star" />
  <path
     sodipodi:type="star"
     style="opacity:0.22790701;fill:#ffffff;fill-opacity:1;fill-rule:nonzero;stroke:#ffffff;stroke-width:1.70000005;stroke-linecap:round;stroke-linejoin:round;marker:none;marker-start:none;marker-mid:none;marker-end:none;stroke-miterlimit:4;stroke-dasharray:none;stroke-dashoffset:0;stroke-opacity:1;visibility:visible;display:block;overflow:visible"
     id="path5578"
     sodipodi:sides="5"
     sodipodi:cx="141.42136"
     sodipodi:cy="350.13498"
     sodipodi:r1="78.688225"
     sodipodi:r2="45.665279"
     sodipodi:arg1="1.0612041"
     sodipodi:arg2="1.6895226"
     inkscape:flatsided="false"
     inkscape:rounded="0"
     inkscape:randomized="0"
     d="M 179.80715,418.82535 L 136.01242,395.47879 L 87.954791,407.86853 L 96.625376,359.00278 L 69.991407,317.1259 L 119.14486,310.27177 L 150.74179,272.0007 L 172.4497,316.63036 L 218.61165,334.85441 L 182.87443,369.29119 L 179.80715,418.82535 z"
     transform="matrix(0.3852517,-0.1964008,0.1964008,0.3852517,15.210382,430.94873)" />
  <path
     transform="matrix(0.2727826,6.8080206e-2,-6.8080206e-2,0.2727826,71.260436,381.71532)"
     d="M 179.80715,418.82535 L 136.01242,395.47879 L 87.954791,407.86853 L 96.625376,359.00278 L 69.991407,317.1259 L 119.14486,310.27177 L 150.74179,272.0007 L 172.4497,316.63036 L 218.61165,334.85441 L 182.87443,369.29119 L 179.80715,418.82535 z"
     inkscape:randomized="0"
     inkscape:rounded="0"
     inkscape:flatsided="false"
     sodipodi:arg2="1.6895226"
     sodipodi:arg1="1.0612041"
     sodipodi:r2="45.665279"
     sodipodi:r1="78.688225"
     sodipodi:cy="350.13498"
     sodipodi:cx="141.42136"
     sodipodi:sides="5"
     id="path5580"
     style="opacity:0.22790701;fill:#ffffff;fill-opacity:1;fill-rule:nonzero;stroke:#ffffff;stroke-width:1.70000005;stroke-linecap:round;stroke-linejoin:round;marker:none;marker-start:none;marker-mid:none;marker-end:none;stroke-miterlimit:4;stroke-dasharray:none;stroke-dashoffset:0;stroke-opacity:1;visibility:visible;display:block;overflow:visible"
     sodipodi:type="star" />
  <path
     sodipodi:type="star"
     style="opacity:0.22790701;fill:#ffffff;fill-opacity:1;fill-rule:nonzero;stroke:#ffffff;stroke-width:1.70000005;stroke-linecap:round;stroke-linejoin:round;marker:none;marker-start:none;marker-mid:none;marker-end:none;stroke-miterlimit:4;stroke-dasharray:none;stroke-dashoffset:0;stroke-opacity:1;visibility:visible;display:block;overflow:visible"
     id="path5582"
     sodipodi:sides="5"
     sodipodi:cx="141.42136"
     sodipodi:cy="350.13498"
     sodipodi:r1="78.688225"
     sodipodi:r2="45.665279"
     sodipodi:arg1="1.0612041"
     sodipodi:arg2="1.6895226"
     inkscape:flatsided="false"
     inkscape:rounded="0"
     inkscape:randomized="0"
     d="M 179.80715,418.82535 L 136.01242,395.47879 L 87.954791,407.86853 L 96.625376,359.00278 L 69.991407,317.1259 L 119.14486,310.27177 L 150.74179,272.0007 L 172.4497,316.63036 L 218.61165,334.85441 L 182.87443,369.29119 L 179.80715,418.82535 z"
     transform="matrix(0.2047873,1.2440148e-2,-1.2440148e-2,0.2047873,101.54119,377.50775)" />
  <path
     style="font-size:112.0508728px;font-style:normal;font-variant:normal;font-weight:normal;font-stretch:normal;text-align:start;line-height:125%;writing-mode:lr-tb;text-anchor:start;fill:url(#linearGradient2508);fill-opacity:1;stroke:none;stroke-width:1px;stroke-linecap:butt;stroke-linejoin:miter;stroke-opacity:1;font-family:Interstate-LightCondensed"
     d="M 95.283724,202.42274 C 88.96521,202.42274 84.16795,203.58439 80.867228,205.90158 C 77.566505,208.21875 75.914304,211.67424 75.914304,216.30861 L 75.914304,244.75844 L 85.672696,244.75844 L 85.672696,216.95721 C 85.672696,213.53409 86.616863,211.05505 88.502937,209.52782 C 90.389105,208.05324 93.457464,207.31669 97.701223,207.3167 C 100.71911,207.3167 103.31538,207.78387 105.48439,208.73182 C 107.74773,209.73242 109.68909,210.85828 111.29233,212.12221 L 111.29233,244.75844 L 120.90336,244.75844 L 120.90336,203.27771 L 111.29233,203.27771 L 111.29233,206.75654 C 109.68909,205.59795 107.5648,204.58573 104.92428,203.69045 C 102.28367,202.84784 99.056059,202.42274 95.283724,202.42274 z M 184.14153,202.42274 C 179.89776,202.42274 176.80582,203.12352 174.82531,204.54542 C 172.8449,206.02 171.84771,208.22965 171.84771,211.17881 L 171.84771,240.15929 L 164.2119,240.15929 L 164.2119,244.75844 L 171.84771,244.75844 L 171.84771,257.7009 L 181.31129,260.85545 L 181.31129,244.75844 L 195.60994,244.75844 L 195.60994,240.15929 L 181.31129,240.15929 L 181.31129,211.73896 C 181.31129,210.21172 181.78336,209.09214 182.72641,208.40753 C 183.66954,207.77556 185.08569,207.4641 186.97177,207.46411 C 188.66934,207.46411 190.19163,207.54196 191.51194,207.69996 C 192.9266,207.85795 194.44889,208.16311 196.05212,208.58442 L 195.1972,203.60201 C 193.59397,203.18071 191.88865,202.87554 190.09682,202.71756 C 188.305,202.5069 186.31062,202.42274 184.14153,202.42274 z M 269.81529,202.42274 C 267.17468,202.42274 264.73774,202.66263 262.4744,203.18926 C 260.21097,203.71589 258.21659,204.53033 256.5191,205.63625 C 254.82153,206.74217 253.51159,208.16689 252.56855,209.85212 C 251.62552,211.59 251.15343,213.64394 251.15343,216.0138 C 251.15343,218.33097 251.73165,220.31334 252.86337,221.99858 C 253.99509,223.73645 255.54107,225.16747 257.52148,226.27343 C 259.50189,227.37933 261.80901,228.19374 264.44962,228.7204 C 267.18459,229.247 270.0936,229.51639 273.20573,229.51641 C 275.9406,229.51639 278.46017,229.32489 280.72351,228.95626 C 282.98686,228.64025 284.92821,228.17936 286.53146,227.6001 L 286.53146,233.46696 C 286.53136,238.31194 282.70195,240.71942 275.06303,240.71945 C 272.32818,240.71942 269.78501,240.44374 267.42732,239.86448 C 265.06964,239.28516 262.55007,238.43497 259.90945,237.32905 L 255.54616,241.42701 C 258.56404,242.74356 261.70901,243.78527 265.00982,244.52259 C 268.31055,245.25983 271.90401,245.61337 275.7706,245.61341 C 282.0892,245.61337 287.04571,244.79265 290.62937,243.10747 C 294.30735,241.42221 296.14239,238.36866 296.14248,233.99762 L 296.14248,203.27771 L 286.53146,203.27771 L 286.53146,206.75654 C 284.45661,205.54529 282.04336,204.53308 279.30839,203.69045 C 276.57354,202.84784 273.39895,202.42274 269.81529,202.42274 z M 328.60177,202.42274 C 323.98075,202.42274 319.78538,202.79728 316.01314,203.57253 C 312.2408,204.34778 308.62376,205.53392 305.13435,207.13981 L 311.06022,215.54209 C 317.19014,212.99481 323.14384,211.70947 328.89659,211.70947 C 331.5372,211.70946 333.47846,212.01426 334.70453,212.6234 C 336.02474,213.2879 336.67975,214.16924 336.67975,215.27675 C 336.67975,215.88587 336.44371,216.42575 335.9722,216.86876 C 335.59502,217.36713 334.88689,217.87394 333.84951,218.37233 C 332.81213,218.8707 331.44909,219.34803 329.75161,219.84642 C 328.05402,220.40015 325.87672,221.0759 323.2361,221.85118 C 317.86064,223.40167 313.79509,225.16434 311.06022,227.15787 C 308.41961,229.20672 307.10967,231.91691 307.10967,235.29482 C 307.10967,237.23292 307.6879,238.99201 308.81961,240.54256 C 309.95123,242.09303 311.49721,243.38197 313.47772,244.43414 C 315.55247,245.5416 318.01894,246.38629 320.84814,246.94008 C 323.67735,247.54917 326.71618,247.85397 330.01689,247.85401 C 333.97782,247.85397 337.62439,247.51611 340.92511,246.85164 C 344.32018,246.18709 347.6776,245.20296 350.97842,243.87399 L 345.17047,235.88446 C 341.96401,236.88117 339.23802,237.58998 336.97458,237.97766 C 334.80556,238.36525 332.33911,238.53778 329.60415,238.53781 C 327.71808,238.53778 326.19569,238.26604 325.06397,237.71232 C 323.93235,237.15853 323.38356,236.44613 323.38356,235.56015 C 323.38356,235.06174 323.51338,234.58801 323.7963,234.14503 C 324.17348,233.75738 324.82849,233.34978 325.77153,232.9068 C 326.71466,232.46377 328.00092,231.95695 329.60415,231.40323 C 331.20739,230.90484 333.27847,230.29522 335.82483,229.57537 C 341.29456,228.02484 345.48992,226.26217 348.41347,224.26867 C 351.43126,222.27514 352.95364,219.56497 352.95364,216.13172 C 352.95364,211.64632 350.64652,208.22733 346.0255,205.90158 C 341.49872,203.57581 335.67483,202.42274 328.60177,202.42274 z M 388.62648,202.42274 C 382.59081,202.42274 378.05326,203.43994 375.03548,205.48884 C 372.11193,207.53771 370.64265,210.96028 370.64265,215.77794 L 370.64265,237.62388 L 361.4739,237.62388 L 361.4739,246.94008 L 370.64265,246.94008 L 370.64265,258.96861 L 387.35882,263.89205 L 387.35882,246.94008 L 402.33552,246.94008 L 402.33552,237.62388 L 387.35882,237.62388 L 387.35882,216.04328 C 387.35882,214.43738 387.85449,213.28789 388.89187,212.6234 C 389.92924,212.01427 391.45153,211.70947 393.43204,211.70947 C 396.82701,211.70946 400.13142,212.41827 403.3379,213.80267 L 401.36257,204.30957 C 399.47641,203.70044 397.48202,203.25619 395.40727,202.92393 C 393.33251,202.59168 391.07851,202.42274 388.62648,202.42274 z M 434.23469,202.42274 C 427.7275,202.42274 422.45826,203.77782 418.40298,206.49122 C 414.34782,209.2046 412.30032,212.8989 412.30032,217.60581 C 412.30032,219.8208 412.87855,221.81854 414.01027,223.59059 C 415.14189,225.41794 416.68796,226.94197 418.66837,228.16025 C 420.74312,229.43386 423.15647,230.4144 425.89134,231.07894 C 428.72054,231.79879 431.78889,232.14025 435.08961,232.14027 C 438.39043,232.14025 440.88049,232.00439 442.57797,231.72753 C 444.27554,231.45063 445.92765,231.00995 447.53089,230.40086 L 447.53089,233.73229 C 447.53089,235.28277 446.87597,236.53863 445.55567,237.53543 C 444.23536,238.58753 441.92814,239.1274 438.62742,239.12744 C 435.51529,239.1274 432.81288,238.89233 430.54944,238.44936 C 428.28609,238.0617 425.97897,237.41544 423.6213,236.47409 L 416.84051,243.60865 C 420.23556,244.99299 423.77592,246.04328 427.45391,246.76319 C 431.13181,247.48303 435.22104,247.85397 439.74773,247.85401 C 448.42402,247.85397 454.63735,246.63476 458.40968,244.19829 C 462.27617,241.76173 464.21753,238.13716 464.21753,233.31954 L 464.21753,203.33667 L 447.53089,203.33667 L 447.53089,206.31433 C 445.8334,205.04068 443.81535,204.06014 441.45766,203.39564 C 439.09997,202.73113 436.68663,202.42274 434.23469,202.42274 z M 140.33173,203.27771 L 140.33173,257.7009 L 149.94277,260.85545 L 149.94277,203.27771 L 140.33173,203.27771 z M 211.73638,203.27771 L 211.73638,244.75844 L 221.34741,244.75844 L 221.34741,241.19116 C 222.85641,242.40238 224.82125,243.44408 227.27327,244.28673 C 229.81954,245.18197 232.59875,245.61337 235.61654,245.61341 C 237.78563,245.61337 239.59709,245.53551 241.01174,245.37756 C 242.4263,245.21953 243.65952,245.02171 244.6969,244.75844 L 241.98458,239.15692 C 240.66427,239.5782 239.30123,239.88964 237.88667,240.10033 C 236.56637,240.31096 234.96729,240.39512 233.08111,240.39516 C 230.72343,240.39512 228.52254,239.92792 226.44779,238.98004 C 224.37303,238.08472 222.66772,237.00092 221.34741,235.73704 L 221.34741,203.27771 L 211.73638,203.27771 z M 478.98789,203.33667 L 478.98789,246.94008 L 495.67453,246.94008 L 495.67453,243.93295 C 497.08908,244.8743 499.03044,245.78512 501.48237,246.61579 C 503.9344,247.44638 506.53067,247.85397 509.26554,247.85401 C 511.71757,247.85397 513.84175,247.65197 515.63359,247.26438 C 517.42541,246.93208 519.20742,246.38861 520.99924,245.61341 L 516.19378,236.06134 C 514.77914,236.72581 513.25675,237.2362 511.6536,237.62388 C 510.14462,238.01146 508.41571,238.21347 506.4353,238.21351 C 502.19154,238.21347 498.59798,236.96118 495.67453,234.46934 L 495.67453,203.33667 L 478.98789,203.33667 z M 271.52524,207.13981 C 274.54312,207.13981 277.32223,207.55861 279.86859,208.34855 C 282.50912,209.19117 284.73954,210.20339 286.53146,211.41466 L 286.53146,222.942 C 284.73954,223.52127 282.85139,223.98215 280.87097,224.29815 C 278.98481,224.6141 276.38853,224.76982 273.08781,224.76986 C 268.84395,224.76984 265.72258,223.99751 263.74207,222.47028 C 261.76166,220.9957 260.76446,218.93546 260.76446,216.24965 C 260.76446,213.4585 261.65542,211.21935 263.44725,209.5868 C 265.23917,207.95423 267.94158,207.1398 271.52524,207.13981 z M 437.7725,211.11984 C 439.75291,211.11982 441.58804,211.4577 443.28552,212.12221 C 445.07736,212.84208 446.49352,213.72343 447.53089,214.77556 L 447.53089,221.76273 C 446.21058,222.42722 444.79442,222.93402 443.28552,223.2663 C 441.87098,223.6539 439.8765,223.85591 437.33023,223.85593 C 434.97254,223.85591 433.0608,223.28296 431.55182,222.17547 C 430.04292,221.06795 429.28178,219.61006 429.28178,217.78269 C 429.28178,215.67842 429.98981,214.0516 431.40445,212.88874 C 432.91335,211.72586 435.03755,211.11984 437.7725,211.11984 z M 588.27646,237.7418 C 586.25161,237.7418 584.40969,237.92502 582.70446,238.30196 C 580.99924,238.69871 579.5195,239.28753 578.31165,240.04137 C 577.10389,240.79522 576.18585,241.72157 575.51093,242.81265 C 574.83592,243.90373 574.47911,245.15796 574.47903,246.5863 C 574.47903,248.49074 574.98799,250.22771 575.98264,251.77508 C 576.97728,253.34226 578.31645,254.67365 580.02158,255.78459 C 581.7268,256.8955 583.70939,257.75434 585.94744,258.3495 C 588.22098,258.96445 590.59527,259.26341 593.08202,259.26344 C 596.31472,259.26341 598.93477,258.85837 600.92415,258.02519 C 602.91352,257.19198 604.38714,256.0342 605.3464,254.54636 L 600.01016,253.21968 C 599.22865,254.17189 598.24041,254.91502 597.03257,255.4308 C 595.86018,255.94659 594.33958,256.19733 592.49238,256.19733 C 590.82272,256.19733 589.23779,255.96587 587.74578,255.48978 C 586.28924,255.03348 584.99102,254.37716 583.85421,253.54398 C 582.71748,252.71078 581.8169,251.70728 581.14189,250.53685 C 580.50244,249.38623 580.19847,248.11271 580.19847,246.70423 C 580.19847,245.71233 580.3913,244.84382 580.81764,244.10984 C 581.27944,243.37584 581.92294,242.77793 582.70446,242.28198 C 583.48599,241.80587 584.38657,241.41957 585.41678,241.16167 C 586.48246,240.92362 587.62276,240.8079 588.86609,240.8079 C 591.28179,240.8079 593.26438,241.22311 594.79195,242.01664 C 596.31953,242.82999 597.37201,243.98779 597.97597,245.49548 C 597.97597,245.51531 597.97589,245.54426 597.97597,245.58392 C 598.01145,245.64344 598.03493,245.67237 598.03493,245.67237 L 591.87323,245.67237 L 592.75767,248.6795 L 604.57987,248.6795 L 603.96071,246.70423 C 603.49891,245.15686 602.79729,243.82548 601.83803,242.69472 C 600.91442,241.56395 599.76808,240.62796 598.41815,239.89397 C 597.10379,239.15996 595.58319,238.60008 593.87798,238.24298 C 592.17284,237.90574 590.3014,237.7418 588.27646,237.7418 z M 535.53377,238.09558 L 542.13766,258.93913 L 547.53277,258.93913 L 558.1757,245.6429 C 558.49543,245.24613 558.85222,244.79232 559.20752,244.31622 C 559.5628,243.8401 559.82592,243.47363 560.00357,243.19591 C 560.03904,243.29509 560.07989,243.46869 560.15092,243.72659 C 560.22196,244.00432 560.2863,244.28398 560.35735,244.58155 C 560.42838,244.89895 560.52207,245.21774 560.5932,245.49548 C 560.69971,245.79305 560.76405,246.00522 560.79953,246.14408 L 564.7796,258.93913 L 570.29263,258.93913 L 563.65929,238.09558 L 558.55892,238.09558 L 547.68023,251.45078 C 547.3605,251.84753 547.00965,252.27185 546.61888,252.74798 C 546.2636,253.22407 546.00047,253.60018 545.82283,253.89777 C 545.78736,253.79856 545.7465,253.61534 545.67547,253.33762 C 545.60443,253.07969 545.51065,252.80004 545.43961,252.48264 C 545.36858,252.18506 545.28084,251.89576 545.17423,251.59819 C 545.10319,251.3006 545.06234,251.05896 545.02686,250.92012 L 541.01736,238.09558 L 535.53377,238.09558 z"
     id="text5584" />
  <path
     transform="matrix(0.9554143,6.4781284e-2,-6.4781284e-2,0.9554143,-54.464507,409.68654)"
     d="M 179.80715,418.82535 L 136.01242,395.47879 L 87.954791,407.86853 L 96.625376,359.00278 L 69.991407,317.1259 L 119.14486,310.27177 L 150.74179,272.0007 L 172.4497,316.63036 L 218.61165,334.85441 L 182.87443,369.29119 L 179.80715,418.82535 z"
     inkscape:randomized="0"
     inkscape:rounded="0"
     inkscape:flatsided="false"
     sodipodi:arg2="1.6895226"
     sodipodi:arg1="1.0612041"
     sodipodi:r2="45.665279"
     sodipodi:r1="78.688225"
     sodipodi:cy="350.13498"
     sodipodi:cx="141.42136"
     sodipodi:sides="5"
     id="path6523"
     style="opacity:0.22790701;fill:#ffffff;fill-opacity:1;fill-rule:nonzero;stroke:#ffffff;stroke-width:1.70000005;stroke-linecap:round;stroke-linejoin:round;marker:none;marker-start:none;marker-mid:none;marker-end:none;stroke-miterlimit:4;stroke-dasharray:none;stroke-dashoffset:0;stroke-opacity:1;visibility:visible;display:block;overflow:visible"
     sodipodi:type="star" />
  <g
     id="g2229"
     transform="matrix(1.2483528,0,0,1.2483528,2.2231309,-77.385949)">
    <rect
       style="fill:url(#linearGradient2475);fill-opacity:1;fill-rule:nonzero;stroke:none;stroke-width:2.29999995;stroke-linecap:butt;stroke-linejoin:miter;marker:none;marker-start:none;marker-mid:none;marker-end:none;stroke-miterlimit:4;stroke-dasharray:none;stroke-dashoffset:0;stroke-opacity:1;visibility:visible;display:inline;overflow:visible"
       id="rect7250"
       width="249.17096"
       height="35.916534"
       x="138.61537"
       y="364.80093" />
    <path
       id="text5379"
       d="M 206.99271,391.67218 L 206.99271,410.6214 L 197.85208,410.6214 L 197.85208,359.15265 C 203.94582,358.89489 207.50832,358.76598 208.53958,358.76593 C 216.67237,358.76598 222.61377,360.01989 226.3638,362.52765 C 230.1372,365.01207 232.02392,368.90269 232.02396,374.19952 C 232.02392,386.01205 225.06299,391.91829 211.14114,391.91827 C 210.10988,391.91829 208.72707,391.83626 206.99271,391.67218 M 206.99271,367.06281 L 206.99271,383.55109 C 208.53957,383.71518 209.75831,383.79721 210.64896,383.79718 C 214.82081,383.79721 217.86768,383.1058 219.78958,381.72296 C 221.71143,380.31674 222.67236,378.04331 222.67239,374.90265 C 222.67236,369.55894 218.37159,366.88707 209.77005,366.88702 C 208.8091,366.88707 207.88332,366.94566 206.99271,367.06281"
       style="font-size:72px;font-style:normal;font-weight:bold;fill:#000000;fill-opacity:1;stroke:#000000;stroke-width:2.5;stroke-linecap:butt;stroke-linejoin:bevel;stroke-miterlimit:4;stroke-opacity:1;font-family:Trebuchet MS" />
    <path
       id="text2190"
       d="M 209.71022,388.75351 L 209.71022,407.70273 L 200.5696,407.70273 L 200.5696,356.23398 C 206.66333,355.97622 210.22583,355.84731 211.2571,355.84726 C 219.38988,355.84731 225.33128,357.10122 229.08131,359.60898 C 232.85471,362.0934 234.74143,365.98402 234.74147,371.28085 C 234.74143,383.09338 227.7805,388.99962 213.85866,388.9996 C 212.82739,388.99962 211.44458,388.91759 209.71022,388.75351 M 209.71022,364.14413 L 209.71022,380.63242 C 211.25708,380.79651 212.47583,380.87854 213.36647,380.87851 C 217.53832,380.87854 220.5852,380.18713 222.5071,378.80429 C 224.42894,377.39807 225.38988,375.12464 225.38991,371.98398 C 225.38988,366.64027 221.0891,363.9684 212.48756,363.96835 C 211.52661,363.9684 210.60083,364.02699 209.71022,364.14413"
       style="font-size:72px;font-style:normal;font-weight:bold;fill:#9cdc30;fill-opacity:1;stroke:#ffffff;stroke-width:2.5;stroke-linecap:butt;stroke-linejoin:bevel;stroke-miterlimit:4;stroke-opacity:1;font-family:Trebuchet MS" />
    <path
       id="text6352"
       d="M 250.65924,378.15982 L 248.72174,378.15982 L 248.72174,375.81607 L 250.65924,375.81607 L 250.65924,372.31607 L 253.62799,371.17545 L 253.62799,375.81607 L 258.22174,375.81607 L 258.22174,378.15982 L 253.62799,378.15982 L 253.62799,386.47232 C 253.62798,387.87858 253.86236,388.87857 254.33112,389.47232 C 254.81028,390.06607 255.5759,390.36295 256.62799,390.36295 C 257.3884,390.36295 258.17486,390.17024 258.98737,389.78482 L 259.42487,392.3942 C 258.19569,392.7067 256.84673,392.86295 255.37799,392.86295 C 254.05507,392.86295 252.93528,392.37336 252.01862,391.3942 C 251.11236,390.40461 250.65924,389.15982 250.65924,387.65982 L 250.65924,378.15982 M 261.19049,384.1442 C 261.19049,381.56087 261.8832,379.47754 263.26862,377.8942 C 264.66444,376.30046 266.49778,375.50359 268.76862,375.50357 C 271.16444,375.50359 273.02381,376.26921 274.34674,377.80045 C 275.66964,379.32129 276.3311,381.43587 276.33112,384.1442 C 276.3311,386.84212 275.65402,388.97232 274.29987,390.53482 C 272.94569,392.0869 271.10194,392.86295 268.76862,392.86295 C 266.38319,392.86295 264.52382,392.07649 263.19049,390.50357 C 261.85716,388.93066 261.19049,386.81087 261.19049,384.1442 M 264.31549,384.1442 C 264.31549,388.34212 265.79986,390.44107 268.76862,390.44107 C 270.15402,390.44107 271.23735,389.87857 272.01862,388.75357 C 272.81027,387.62858 273.2061,386.09212 273.20612,384.1442 C 273.2061,379.99837 271.72694,377.92546 268.76862,377.92545 C 267.41444,377.92546 266.33111,378.47754 265.51862,379.5817 C 264.71653,380.68587 264.31549,382.20671 264.31549,384.1442 M 292.45612,383.73795 L 292.45612,392.55045 L 289.33112,392.55045 L 289.33112,369.65982 C 291.69569,369.55568 293.12278,369.50359 293.61237,369.50357 C 300.25819,369.50359 303.5811,371.72755 303.58112,376.17545 C 303.5811,381.32129 300.6436,383.8942 294.76862,383.8942 C 294.41444,383.8942 293.64361,383.84212 292.45612,383.73795 M 292.45612,372.47232 L 292.45612,380.92545 C 293.77903,381.02962 294.47694,381.08171 294.54987,381.0817 C 298.42485,381.08171 300.36235,379.55567 300.36237,376.50357 C 300.36235,373.71192 298.29465,372.31609 294.15924,372.31607 C 293.74257,372.31609 293.17486,372.36817 292.45612,372.47232 M 314.56549,378.67545 C 313.91965,378.22754 313.26861,378.00359 312.61237,378.00357 C 311.56027,378.00359 310.6384,378.48796 309.84674,379.4567 C 309.06549,380.42546 308.67486,381.59212 308.67487,382.9567 L 308.67487,392.55045 L 305.70612,392.55045 L 305.70612,375.81607 L 308.67487,375.81607 L 308.67487,378.48795 C 309.75819,376.49838 311.36757,375.50359 313.50299,375.50357 C 314.03423,375.50359 314.79985,375.59734 315.79987,375.78482 L 314.56549,378.67545 M 327.36237,390.62857 C 326.17486,392.11815 324.35715,392.86295 321.90924,392.86295 C 320.59674,392.86295 319.45611,392.38899 318.48737,391.44107 C 317.52903,390.48274 317.04986,389.29524 317.04987,387.87857 C 317.04986,386.18066 317.78945,384.74837 319.26862,383.5817 C 320.75819,382.40462 322.65403,381.81608 324.95612,381.81607 C 325.58111,381.81608 326.28944,381.9515 327.08112,382.22232 C 327.0811,379.514 325.87277,378.15983 323.45612,378.15982 C 321.60194,378.15983 320.17486,378.65983 319.17487,379.65982 L 317.92487,377.17545 C 318.48736,376.71713 319.2634,376.3265 320.25299,376.00357 C 321.25299,375.67025 322.20611,375.50359 323.11237,375.50357 C 325.53944,375.50359 327.29985,376.05567 328.39362,377.15982 C 329.49777,378.264 330.04985,380.01921 330.04987,382.42545 L 330.04987,388.42545 C 330.04985,389.8942 330.48735,390.87336 331.36237,391.36295 L 331.36237,392.84732 C 330.15402,392.84732 329.24777,392.67545 328.64362,392.3317 C 328.04985,391.98795 327.62277,391.42024 327.36237,390.62857 M 327.08112,384.3317 C 326.14361,384.12337 325.48736,384.0192 325.11237,384.0192 C 323.61236,384.0192 322.3884,384.40462 321.44049,385.17545 C 320.49257,385.94629 320.01861,386.85774 320.01862,387.90982 C 320.01861,389.64941 321.04465,390.5192 323.09674,390.5192 C 324.59673,390.5192 325.92486,389.80566 327.08112,388.37857 L 327.08112,384.3317 M 347.34674,377.17545 L 345.87799,379.2692 C 345.57589,378.96713 345.03944,378.68067 344.26862,378.40982 C 343.50819,378.139 342.75819,378.00359 342.01862,378.00357 C 340.40402,378.00359 339.12278,378.57129 338.17487,379.7067 C 337.22694,380.83171 336.75299,382.37858 336.75299,384.34732 C 336.75299,386.30566 337.23736,387.80045 338.20612,388.8317 C 339.17486,389.85253 340.51861,390.36295 342.23737,390.36295 C 343.57069,390.36295 344.91444,389.84732 346.26862,388.81607 L 347.44049,391.31607 C 345.84673,392.34732 343.87277,392.86295 341.51862,392.86295 C 339.23736,392.86295 337.35194,392.09732 335.86237,390.56607 C 334.37278,389.03482 333.62799,386.96191 333.62799,384.34732 C 333.62799,381.68066 334.39882,379.54004 335.94049,377.92545 C 337.49257,376.31088 339.61236,375.50359 342.29987,375.50357 C 343.16444,375.50359 344.10194,375.68588 345.11237,376.05045 C 346.12277,376.41505 346.86756,376.79004 347.34674,377.17545 M 351.65924,378.15982 L 349.72174,378.15982 L 349.72174,375.81607 L 351.65924,375.81607 L 351.65924,372.31607 L 354.62799,371.17545 L 354.62799,375.81607 L 359.22174,375.81607 L 359.22174,378.15982 L 354.62799,378.15982 L 354.62799,386.47232 C 354.62798,387.87858 354.86236,388.87857 355.33112,389.47232 C 355.81028,390.06607 356.5759,390.36295 357.62799,390.36295 C 358.3884,390.36295 359.17486,390.17024 359.98737,389.78482 L 360.42487,392.3942 C 359.19569,392.7067 357.84673,392.86295 356.37799,392.86295 C 355.05507,392.86295 353.93528,392.37336 353.01862,391.3942 C 352.11236,390.40461 351.65924,389.15982 351.65924,387.65982 L 351.65924,378.15982 M 366.34674,369.48795 C 366.85715,369.48797 367.28944,369.67026 367.64362,370.03482 C 368.00819,370.38901 368.19048,370.81609 368.19049,371.31607 C 368.19048,371.82651 368.00819,372.26401 367.64362,372.62857 C 367.28944,372.98276 366.85715,373.15984 366.34674,373.15982 C 365.84674,373.15984 365.41444,372.98276 365.04987,372.62857 C 364.6957,372.26401 364.51861,371.82651 364.51862,371.31607 C 364.51861,370.80568 364.6957,370.37338 365.04987,370.0192 C 365.40403,369.66505 365.83632,369.48797 366.34674,369.48795 M 364.72174,392.55045 L 364.72174,378.31607 L 362.42487,378.31607 L 362.42487,375.81607 L 367.69049,375.81607 L 367.69049,392.55045 L 364.72174,392.55045 M 385.03424,377.17545 L 383.56549,379.2692 C 383.26339,378.96713 382.72694,378.68067 381.95612,378.40982 C 381.19569,378.139 380.44569,378.00359 379.70612,378.00357 C 378.09152,378.00359 376.81028,378.57129 375.86237,379.7067 C 374.91444,380.83171 374.44049,382.37858 374.44049,384.34732 C 374.44049,386.30566 374.92486,387.80045 375.89362,388.8317 C 376.86236,389.85253 378.20611,390.36295 379.92487,390.36295 C 381.25819,390.36295 382.60194,389.84732 383.95612,388.81607 L 385.12799,391.31607 C 383.53423,392.34732 381.56027,392.86295 379.20612,392.86295 C 376.92486,392.86295 375.03944,392.09732 373.54987,390.56607 C 372.06028,389.03482 371.31549,386.96191 371.31549,384.34732 C 371.31549,381.68066 372.08632,379.54004 373.62799,377.92545 C 375.18007,376.31088 377.29986,375.50359 379.98737,375.50357 C 380.85194,375.50359 381.78944,375.68588 382.79987,376.05045 C 383.81027,376.41505 384.55506,376.79004 385.03424,377.17545 M 402.37799,384.47232 L 390.31549,384.47232 C 390.31549,386.43066 390.85194,387.93587 391.92487,388.98795 C 392.87278,389.90461 394.09152,390.36295 395.58112,390.36295 C 397.27902,390.36295 398.69569,389.86816 399.83112,388.87857 L 401.08112,391.0192 C 400.62277,391.47753 399.91964,391.87336 398.97174,392.2067 C 397.78423,392.6442 396.46131,392.86295 395.00299,392.86295 C 392.89882,392.86295 391.11236,392.1494 389.64362,390.72232 C 388.0082,389.14941 387.19049,387.03483 387.19049,384.37857 C 387.19049,381.61816 388.02903,379.40463 389.70612,377.73795 C 391.20611,376.24838 392.98215,375.50359 395.03424,375.50357 C 397.41965,375.50359 399.28944,376.17546 400.64362,377.5192 C 401.9561,378.81088 402.61235,380.52442 402.61237,382.65982 C 402.61235,383.31608 402.53422,383.92025 402.37799,384.47232 M 395.17487,378.00357 C 393.85194,378.00359 392.74257,378.43067 391.84674,379.28482 C 390.99257,380.09733 390.50819,381.10775 390.39362,382.31607 L 399.65924,382.31607 C 399.65923,381.11817 399.28423,380.11817 398.53424,379.31607 C 397.71131,378.44108 396.59152,378.00359 395.17487,378.00357"
       style="font-size:32px;font-style:normal;font-weight:normal;fill:#000000;fill-opacity:1;stroke:none;stroke-width:1px;stroke-linecap:butt;stroke-linejoin:miter;stroke-opacity:1;font-family:Trebuchet MS" />
  </g>
  <g
     id="g2223"
     transform="matrix(1.2483528,0,0,1.2483528,387.53686,276.40212)">
    <rect
       style="fill:url(#linearGradient2477);fill-opacity:1;fill-rule:nonzero;stroke:none;stroke-width:2.29999995;stroke-linecap:butt;stroke-linejoin:miter;marker:none;marker-start:none;marker-mid:none;marker-end:none;stroke-miterlimit:4;stroke-dasharray:none;stroke-dashoffset:0;stroke-opacity:1;visibility:visible;display:inline;overflow:visible"
       id="rect6373"
       width="249.17096"
       height="35.916534"
       x="138.61537"
       y="293.2326" />
    <path
       id="text6375"
       d="M 233.14896,290.29135 L 229.38724,297.84995 C 227.34814,295.81093 224.06689,294.7914 219.54349,294.79135 C 215.2544,294.7914 211.73878,296.59608 208.99661,300.20541 C 206.25441,303.79139 204.88332,308.33826 204.88333,313.84604 C 204.88332,319.35387 206.14894,323.72496 208.68021,326.95932 C 211.23488,330.1937 214.63331,331.81089 218.87552,331.81088 C 223.72705,331.81089 227.52392,330.07652 230.26614,326.60776 L 234.52005,333.99057 C 230.79345,337.95151 225.33252,339.93198 218.13724,339.93198 C 210.94191,339.93198 205.35207,337.56479 201.36771,332.83041 C 197.38333,328.09605 195.39114,321.63902 195.39114,313.45932 C 195.39114,305.84217 197.59426,299.47889 202.00052,294.36948 C 206.43019,289.23671 212.09034,286.67031 218.98099,286.67026 C 224.88721,286.67031 229.60986,287.87734 233.14896,290.29135"
       style="font-size:72px;font-style:normal;font-weight:bold;fill:#000000;fill-opacity:1;stroke:#000000;stroke-width:2.5;stroke-linecap:butt;stroke-linejoin:bevel;stroke-miterlimit:4;stroke-opacity:1;font-family:Trebuchet MS" />
    <path
       id="text6379"
       d="M 235.86647,287.37268 L 232.10475,294.93127 C 230.06565,292.89226 226.78441,291.87272 222.261,291.87268 C 217.97192,291.87272 214.45629,293.67741 211.71413,297.28674 C 208.97193,300.87272 207.60083,305.41959 207.60085,310.92737 C 207.60083,316.4352 208.86646,320.80629 211.39772,324.04065 C 213.95239,327.27503 217.35082,328.89222 221.59303,328.89221 C 226.44456,328.89222 230.24144,327.15785 232.98366,323.68909 L 237.23756,331.0719 C 233.51096,335.03284 228.05003,337.0133 220.85475,337.01331 C 213.65942,337.0133 208.06958,334.64612 204.08522,329.91174 C 200.10084,325.17738 198.10866,318.72035 198.10866,310.54065 C 198.10866,302.9235 200.31178,296.56022 204.71803,291.45081 C 209.14771,286.31804 214.80786,283.75164 221.6985,283.75159 C 227.60472,283.75164 232.32737,284.95867 235.86647,287.37268"
       style="font-size:72px;font-style:normal;font-weight:bold;fill:#9cdc30;fill-opacity:1;stroke:#ffffff;stroke-width:2.5;stroke-linecap:butt;stroke-linejoin:bevel;stroke-miterlimit:4;stroke-opacity:1;font-family:Trebuchet MS" />
    <path
       id="text6383"
       d="M 250.65924,306.59149 L 248.72174,306.59149 L 248.72174,304.24774 L 250.65924,304.24774 L 250.65924,300.74774 L 253.62799,299.60712 L 253.62799,304.24774 L 258.22174,304.24774 L 258.22174,306.59149 L 253.62799,306.59149 L 253.62799,314.90399 C 253.62798,316.31025 253.86236,317.31025 254.33112,317.90399 C 254.81028,318.49774 255.5759,318.79462 256.62799,318.79462 C 257.3884,318.79462 258.17486,318.60191 258.98737,318.21649 L 259.42487,320.82587 C 258.19569,321.13837 256.84673,321.29462 255.37799,321.29462 C 254.05507,321.29462 252.93528,320.80503 252.01862,319.82587 C 251.11236,318.83629 250.65924,317.5915 250.65924,316.09149 L 250.65924,306.59149 M 261.19049,312.57587 C 261.19049,309.99254 261.8832,307.90921 263.26862,306.32587 C 264.66444,304.73213 266.49778,303.93526 268.76862,303.93524 C 271.16444,303.93526 273.02381,304.70088 274.34674,306.23212 C 275.66964,307.75296 276.3311,309.86754 276.33112,312.57587 C 276.3311,315.27379 275.65402,317.404 274.29987,318.96649 C 272.94569,320.51858 271.10194,321.29462 268.76862,321.29462 C 266.38319,321.29462 264.52382,320.50816 263.19049,318.93524 C 261.85716,317.36233 261.19049,315.24254 261.19049,312.57587 M 264.31549,312.57587 C 264.31549,316.77379 265.79986,318.87274 268.76862,318.87274 C 270.15402,318.87274 271.23735,318.31024 272.01862,317.18524 C 272.81027,316.06025 273.2061,314.52379 273.20612,312.57587 C 273.2061,308.43005 271.72694,306.35713 268.76862,306.35712 C 267.41444,306.35713 266.33111,306.90921 265.51862,308.01337 C 264.71653,309.11755 264.31549,310.63838 264.31549,312.57587 M 303.94049,298.93524 L 302.89362,301.60712 C 301.8936,300.87797 300.32069,300.51339 298.17487,300.51337 C 296.16444,300.51339 294.54986,301.37797 293.33112,303.10712 C 292.12278,304.8363 291.51861,307.06546 291.51862,309.79462 C 291.51861,312.39879 292.1384,314.51337 293.37799,316.13837 C 294.62798,317.75295 296.23736,318.56024 298.20612,318.56024 C 300.35194,318.56024 302.00298,317.79983 303.15924,316.27899 L 304.87799,318.66962 C 303.06547,320.4717 300.73214,321.37274 297.87799,321.37274 C 294.8884,321.37274 292.53424,320.29462 290.81549,318.13837 C 289.09674,315.98212 288.23736,313.13837 288.23737,309.60712 C 288.23736,306.19046 289.15403,303.35193 290.98737,301.09149 C 292.82069,298.8311 295.19048,297.70089 298.09674,297.70087 C 300.58631,297.70089 302.53423,298.11235 303.94049,298.93524 M 307.12799,312.57587 C 307.12799,309.99254 307.8207,307.90921 309.20612,306.32587 C 310.60194,304.73213 312.43528,303.93526 314.70612,303.93524 C 317.10194,303.93526 318.96131,304.70088 320.28424,306.23212 C 321.60714,307.75296 322.2686,309.86754 322.26862,312.57587 C 322.2686,315.27379 321.59152,317.404 320.23737,318.96649 C 318.88319,320.51858 317.03944,321.29462 314.70612,321.29462 C 312.32069,321.29462 310.46132,320.50816 309.12799,318.93524 C 307.79466,317.36233 307.12799,315.24254 307.12799,312.57587 M 310.25299,312.57587 C 310.25299,316.77379 311.73736,318.87274 314.70612,318.87274 C 316.09152,318.87274 317.17485,318.31024 317.95612,317.18524 C 318.74777,316.06025 319.1436,314.52379 319.14362,312.57587 C 319.1436,308.43005 317.66444,306.35713 314.70612,306.35712 C 313.35194,306.35713 312.26861,306.90921 311.45612,308.01337 C 310.65403,309.11755 310.25299,310.63838 310.25299,312.57587 M 335.70612,320.98212 L 335.70612,311.24774 C 335.7061,309.4665 335.43527,308.22171 334.89362,307.51337 C 334.36235,306.79463 333.46652,306.43526 332.20612,306.43524 C 331.52902,306.43526 330.82069,306.63838 330.08112,307.04462 C 329.34153,307.45088 328.77382,307.95088 328.37799,308.54462 L 328.37799,320.98212 L 325.40924,320.98212 L 325.40924,304.24774 L 327.44049,304.24774 L 328.37799,306.40399 C 329.35715,304.75817 330.95611,303.93526 333.17487,303.93524 C 336.84152,303.93526 338.67485,306.16442 338.67487,310.62274 L 338.67487,320.98212 L 335.70612,320.98212 M 351.95612,300.04462 C 351.35194,299.8363 350.78944,299.73214 350.26862,299.73212 C 349.36236,299.73214 348.61236,300.07589 348.01862,300.76337 C 347.43528,301.45089 347.14361,302.32068 347.14362,303.37274 C 347.14361,303.65401 347.16965,303.94568 347.22174,304.24774 L 350.62799,304.24774 L 350.62799,306.74774 L 347.22174,306.74774 L 347.22174,320.98212 L 344.25299,320.98212 L 344.25299,306.74774 L 341.81549,306.74774 L 341.81549,304.24774 L 344.25299,304.24774 C 344.25299,302.11234 344.77903,300.43526 345.83112,299.21649 C 346.88319,297.99776 348.27382,297.38839 350.00299,297.38837 C 350.86756,297.38839 351.79465,297.54464 352.78424,297.85712 L 351.95612,300.04462 M 357.78424,297.91962 C 358.29465,297.91964 358.72694,298.10193 359.08112,298.46649 C 359.44569,298.82068 359.62798,299.24776 359.62799,299.74774 C 359.62798,300.25818 359.44569,300.69568 359.08112,301.06024 C 358.72694,301.41443 358.29465,301.59151 357.78424,301.59149 C 357.28424,301.59151 356.85194,301.41443 356.48737,301.06024 C 356.1332,300.69568 355.95611,300.25818 355.95612,299.74774 C 355.95611,299.23735 356.1332,298.80506 356.48737,298.45087 C 356.84153,298.09672 357.27382,297.91964 357.78424,297.91962 M 356.15924,320.98212 L 356.15924,306.74774 L 353.86237,306.74774 L 353.86237,304.24774 L 359.12799,304.24774 L 359.12799,320.98212 L 356.15924,320.98212 M 363.23737,325.56024 L 364.84674,323.18524 C 366.5759,324.34149 368.16965,324.91961 369.62799,324.91962 C 370.97173,324.91961 372.02902,324.68524 372.79987,324.21649 C 373.5811,323.75816 373.97173,323.18524 373.97174,322.49774 C 373.97173,321.14357 372.99256,320.46649 371.03424,320.46649 C 370.7009,320.46649 370.09673,320.54983 369.22174,320.71649 C 368.34673,320.88316 367.66444,320.96649 367.17487,320.96649 C 364.79986,320.96649 363.61236,320.07066 363.61237,318.27899 C 363.61236,317.72691 363.88841,317.22691 364.44049,316.77899 C 365.00299,316.33108 365.6957,316.00816 366.51862,315.81024 C 364.16445,314.70608 362.98736,312.78942 362.98737,310.06024 C 362.98736,308.31025 363.59674,306.85192 364.81549,305.68524 C 366.03424,304.51859 367.53944,303.93526 369.33112,303.93524 C 370.97694,303.93526 372.2634,304.2738 373.19049,304.95087 L 374.67487,303.16962 L 376.61237,304.99774 L 374.83112,306.34149 C 375.59152,307.33109 375.97173,308.62275 375.97174,310.21649 C 375.97173,311.904 375.44569,313.32067 374.39362,314.46649 C 373.34152,315.61233 371.96131,316.26858 370.25299,316.43524 L 367.79987,316.68524 C 367.50819,316.7165 367.11757,316.83108 366.62799,317.02899 C 366.1384,317.2165 365.89361,317.4665 365.89362,317.77899 C 365.89361,318.20608 366.40403,318.41962 367.42487,318.41962 C 367.87278,318.41962 368.57069,318.34149 369.51862,318.18524 C 370.46652,318.01858 371.16965,317.93524 371.62799,317.93524 C 373.27381,317.93524 374.55506,318.33108 375.47174,319.12274 C 376.39881,319.90399 376.86235,320.99253 376.86237,322.38837 C 376.86235,323.93003 376.16964,325.17482 374.78424,326.12274 C 373.40923,327.07065 371.66444,327.54461 369.54987,327.54462 C 368.46653,327.54461 367.3259,327.3519 366.12799,326.96649 C 364.93007,326.58107 363.96653,326.11232 363.23737,325.56024 M 369.53424,306.32587 C 368.50298,306.32588 367.65923,306.69046 367.00299,307.41962 C 366.35715,308.1488 366.03424,309.03421 366.03424,310.07587 C 366.03424,311.24254 366.34674,312.21129 366.97174,312.98212 C 367.60715,313.74254 368.46132,314.12275 369.53424,314.12274 C 370.58632,314.12275 371.40923,313.75296 372.00299,313.01337 C 372.59673,312.26338 372.8936,311.28421 372.89362,310.07587 C 372.8936,309.03421 372.57069,308.1488 371.92487,307.41962 C 371.28944,306.69046 370.49257,306.32588 369.53424,306.32587 M 382.72174,304.24774 L 382.72174,314.91962 C 382.72174,317.50295 383.84153,318.79462 386.08112,318.79462 C 387.06027,318.79462 387.95611,318.51337 388.76862,317.95087 C 389.5811,317.38837 390.11756,316.73733 390.37799,315.99774 L 390.37799,304.24774 L 393.34674,304.24774 L 393.34674,320.98212 L 390.37799,320.98212 L 390.37799,318.66962 C 390.04465,319.32587 389.37277,319.93003 388.36237,320.48212 C 387.36236,321.02378 386.38319,321.29462 385.42487,321.29462 C 383.59153,321.29462 382.18528,320.76858 381.20612,319.71649 C 380.23736,318.66441 379.75299,317.16962 379.75299,315.23212 L 379.75299,304.24774 L 382.72174,304.24774 M 406.50299,307.10712 C 405.85715,306.65921 405.20611,306.43526 404.54987,306.43524 C 403.49777,306.43526 402.5759,306.91963 401.78424,307.88837 C 401.00299,308.85713 400.61236,310.02379 400.61237,311.38837 L 400.61237,320.98212 L 397.64362,320.98212 L 397.64362,304.24774 L 400.61237,304.24774 L 400.61237,306.91962 C 401.69569,304.93005 403.30507,303.93526 405.44049,303.93524 C 405.97173,303.93526 406.73735,304.02901 407.73737,304.21649 L 406.50299,307.10712 M 423.94049,312.90399 L 411.87799,312.90399 C 411.87799,314.86233 412.41444,316.36754 413.48737,317.41962 C 414.43528,318.33629 415.65402,318.79462 417.14362,318.79462 C 418.84152,318.79462 420.25819,318.29983 421.39362,317.31024 L 422.64362,319.45087 C 422.18527,319.9092 421.48214,320.30503 420.53424,320.63837 C 419.34673,321.07587 418.02381,321.29462 416.56549,321.29462 C 414.46132,321.29462 412.67486,320.58108 411.20612,319.15399 C 409.5707,317.58108 408.75299,315.4665 408.75299,312.81024 C 408.75299,310.04984 409.59153,307.8363 411.26862,306.16962 C 412.76861,304.68005 414.54465,303.93526 416.59674,303.93524 C 418.98215,303.93526 420.85194,304.60713 422.20612,305.95087 C 423.5186,307.24255 424.17485,308.95609 424.17487,311.09149 C 424.17485,311.74775 424.09672,312.35192 423.94049,312.90399 M 416.73737,306.43524 C 415.41444,306.43526 414.30507,306.86234 413.40924,307.71649 C 412.55507,308.529 412.07069,309.53942 411.95612,310.74774 L 421.22174,310.74774 C 421.22173,309.54984 420.84673,308.54984 420.09674,307.74774 C 419.27381,306.87276 418.15402,306.43526 416.73737,306.43524"
       style="font-size:32px;font-style:normal;font-weight:normal;fill:#000000;fill-opacity:1;stroke:none;stroke-width:1px;stroke-linecap:butt;stroke-linejoin:miter;stroke-opacity:1;font-family:Trebuchet MS" />
  </g>
  <rect
     y="276.61145"
     x="175.26402"
     height="44.836506"
     width="311.05325"
     id="rect6405"
     style="fill:url(#linearGradient2494);fill-opacity:1;fill-rule:nonzero;stroke:none;stroke-width:2.29999995;stroke-linecap:butt;stroke-linejoin:miter;marker:none;marker-start:none;marker-mid:none;marker-end:none;stroke-miterlimit:4;stroke-dasharray:none;stroke-dashoffset:0;stroke-opacity:1;visibility:visible;display:inline;overflow:visible" />
  <path
     style="font-size:72px;font-style:normal;font-weight:bold;fill:#000000;fill-opacity:1;stroke:#000000;stroke-width:3.12088203;stroke-linecap:butt;stroke-linejoin:bevel;stroke-miterlimit:4;stroke-opacity:1;font-family:Trebuchet MS"
     d="M 246.14021,330.25668 L 250.3534,320.03092 C 254.85917,323.19082 259.29179,324.77076 263.65129,324.77075 C 270.3514,324.77076 273.70147,322.4301 273.7015,317.74876 C 273.70147,315.55442 272.9115,313.46246 271.33158,311.47287 C 269.7516,309.48333 266.48932,307.2597 261.54469,304.80198 C 256.62929,302.31507 253.30847,300.28161 251.58225,298.70163 C 249.88527,297.09247 248.56864,295.19068 247.63239,292.99627 C 246.72537,290.80195 246.27187,288.37351 246.27187,285.71096 C 246.27187,280.73711 248.08588,276.61171 251.71392,273.33472 C 255.37118,270.05785 260.0525,268.41939 265.75788,268.41933 C 273.18945,268.41939 278.64612,269.80916 282.12788,272.58863 L 278.66078,282.41941 C 274.65236,279.55215 270.42455,278.11851 265.97732,278.11844 C 263.34406,278.11851 261.29597,278.8207 259.83308,280.22504 C 258.39941,281.60024 257.68259,283.39961 257.6826,285.62319 C 257.68259,289.30978 261.7641,293.14261 269.92718,297.12169 C 274.22812,299.22833 277.32949,301.174 279.23132,302.95872 C 281.13306,304.71424 282.58135,306.77694 283.57617,309.14684 C 284.57091,311.48753 285.06829,314.10613 285.06834,317.00269 C 285.06829,322.21066 283.00559,326.497 278.88022,329.86169 C 274.78402,333.22639 269.28347,334.90875 262.37856,334.90875 C 256.3806,334.90875 250.96781,333.35805 246.14021,330.25668"
     id="text6407" />
  <path
     style="font-size:72px;font-style:normal;font-weight:bold;fill:#9cdc30;fill-opacity:1;stroke:#ffffff;stroke-width:3.12088203;stroke-linecap:butt;stroke-linejoin:bevel;stroke-miterlimit:4;stroke-opacity:1;font-family:Trebuchet MS"
     d="M 249.53263,326.61315 L 253.74582,316.38739 C 258.25158,319.54729 262.6842,321.12723 267.0437,321.12722 C 273.74382,321.12723 277.09389,318.78657 277.09391,314.10523 C 277.09389,311.91089 276.30392,309.81893 274.724,307.82934 C 273.14403,305.8398 269.88173,303.61617 264.93711,301.15845 C 260.0217,298.67154 256.7009,296.63808 254.97466,295.0581 C 253.27768,293.44894 251.96106,291.54715 251.0248,289.35274 C 250.11778,287.15842 249.66428,284.72998 249.6643,282.06743 C 249.66428,277.09358 251.4783,272.96818 255.10633,269.69119 C 258.7636,266.41432 263.44492,264.77586 269.1503,264.7758 C 276.58186,264.77586 282.03853,266.16563 285.5203,268.9451 L 282.0532,278.77588 C 278.04478,275.90862 273.81696,274.47498 269.36973,274.47491 C 266.73647,274.47498 264.6884,275.17716 263.2255,276.58151 C 261.79183,277.95669 261.075,279.75608 261.07501,281.97966 C 261.075,285.66625 265.15653,289.49908 273.31961,293.47816 C 277.62053,295.58478 280.72191,297.53047 282.62373,299.31519 C 284.52548,301.07071 285.97376,303.13341 286.96858,305.50331 C 287.96332,307.844 288.46072,310.4626 288.46075,313.35916 C 288.46072,318.56713 286.39801,322.85347 282.27263,326.21816 C 278.17644,329.58286 272.67589,331.26522 265.77097,331.26522 C 259.77301,331.26522 254.36024,329.71453 249.53263,326.61315"
     id="text6411" />
  <path
     style="font-size:32px;font-style:normal;font-weight:normal;fill:#000000;fill-opacity:1;stroke:none;stroke-width:1px;stroke-linecap:butt;stroke-linejoin:miter;stroke-opacity:1;font-family:Trebuchet MS"
     d="M 315.13429,293.28805 L 312.71561,293.28805 L 312.71561,290.36223 L 315.13429,290.36223 L 315.13429,285.99299 L 318.84034,284.56909 L 318.84034,290.36223 L 324.57496,290.36223 L 324.57496,293.28805 L 318.84034,293.28805 L 318.84034,303.66498 C 318.84033,305.42049 319.13292,306.66885 319.7181,307.41004 C 320.31626,308.15127 321.27202,308.52186 322.5854,308.52186 C 323.53466,308.52186 324.51644,308.28129 325.53074,307.80015 L 326.07689,311.05758 C 324.54244,311.44769 322.85847,311.64275 321.02496,311.64275 C 319.37349,311.64275 317.9756,311.03158 316.83128,309.80923 C 315.69995,308.57388 315.13429,307.01995 315.13429,305.1474 L 315.13429,293.28805 M 328.28101,300.75867 C 328.28101,297.53378 329.14576,294.93304 330.87525,292.95646 C 332.61773,290.96693 334.90638,289.97214 337.74119,289.97212 C 340.73202,289.97214 343.05317,290.92792 344.70465,292.83943 C 346.3561,294.73799 347.18183,297.37773 347.18186,300.75867 C 347.18183,304.12663 346.3366,306.78588 344.64614,308.73642 C 342.95565,310.67397 340.654,311.64275 337.74119,311.64275 C 334.76333,311.64275 332.44218,310.66097 330.77772,308.69741 C 329.11325,306.73386 328.28101,304.08761 328.28101,300.75867 M 332.18211,300.75867 C 332.18211,305.99916 334.03513,308.6194 337.74119,308.61939 C 339.47066,308.6194 340.82304,307.9172 341.79834,306.51279 C 342.7866,305.10841 343.28073,303.19036 343.28076,300.75867 C 343.28073,295.58322 341.43422,292.99549 337.74119,292.99548 C 336.0507,292.99549 334.69832,293.68469 333.68404,295.06306 C 332.68275,296.44147 332.18211,298.34 332.18211,300.75867 M 362.12308,309.94576 L 363.54698,306.35675 C 364.27518,306.8899 365.17894,307.33854 366.25825,307.70263 C 367.35055,308.05373 368.32582,308.22929 369.18408,308.22927 C 370.70549,308.22929 371.92783,307.81316 372.85111,306.98092 C 373.77436,306.1487 374.23599,305.08889 374.236,303.80153 C 374.23599,302.83926 373.97592,301.94851 373.45578,301.12927 C 372.94862,300.29705 371.66126,299.3933 369.59369,298.41801 L 367.29204,297.3452 C 365.34148,296.43496 363.9761,295.35566 363.19588,294.10728 C 362.42867,292.85896 362.04505,291.35704 362.04506,289.60152 C 362.04505,287.46893 362.79926,285.70044 364.3077,284.29602 C 365.81611,282.89165 367.75366,282.18945 370.12034,282.18942 C 373.28022,282.18945 375.47783,282.70309 376.7132,283.73035 L 375.56237,287.12431 C 375.04221,286.74723 374.24899,286.38313 373.1827,286.032 C 372.11638,285.68093 371.12811,285.50538 370.21786,285.50536 C 368.89147,285.50538 367.84468,285.88249 367.07748,286.63668 C 366.32325,287.39091 365.94615,288.35969 365.94616,289.54299 C 365.94615,290.27122 366.08269,290.93441 366.35577,291.53256 C 366.62885,292.13075 367.00595,292.63139 367.48709,293.03449 C 367.98123,293.43762 368.9825,294.00327 370.49094,294.73146 L 372.8316,295.84328 C 374.78214,296.76655 376.14753,297.87187 376.92776,299.15922 C 377.72096,300.43359 378.11758,302.05904 378.1176,304.0356 C 378.11758,306.1812 377.25283,308.00173 375.52336,309.49714 C 373.80686,310.99257 371.50521,311.74027 368.61841,311.74027 C 366.08269,311.74027 363.91758,311.14211 362.12308,309.94576 M 383.63765,293.28805 L 381.21897,293.28805 L 381.21897,290.36223 L 383.63765,290.36223 L 383.63765,285.99299 L 387.3437,284.56909 L 387.3437,290.36223 L 393.07832,290.36223 L 393.07832,293.28805 L 387.3437,293.28805 L 387.3437,303.66498 C 387.34369,305.42049 387.63628,306.66885 388.22146,307.41004 C 388.81962,308.15127 389.77538,308.52186 391.08876,308.52186 C 392.03802,308.52186 393.0198,308.28129 394.0341,307.80015 L 394.58025,311.05758 C 393.0458,311.44769 391.36183,311.64275 389.52832,311.64275 C 387.87685,311.64275 386.47896,311.03158 385.33464,309.80923 C 384.20331,308.57388 383.63765,307.01995 383.63765,305.1474 L 383.63765,293.28805 M 409.9506,308.85345 C 408.46817,310.71299 406.19902,311.64275 403.14317,311.64275 C 401.5047,311.64275 400.0808,311.05108 398.87147,309.86774 C 397.67512,308.6714 397.07695,307.18899 397.07696,305.42048 C 397.07695,303.30089 398.00022,301.51289 399.84674,300.05647 C 401.70625,298.58707 404.07293,297.85235 406.94675,297.85234 C 407.72696,297.85235 408.6112,298.02141 409.5995,298.35949 C 409.59947,294.97855 408.09105,293.28808 405.07422,293.28805 C 402.75955,293.28808 400.97805,293.91225 399.72971,295.16058 L 398.16927,292.05921 C 398.87145,291.48707 399.84023,290.99943 401.07558,290.59629 C 402.32394,290.1802 403.51377,289.97214 404.6451,289.97212 C 407.67494,289.97214 409.87255,290.66133 411.23796,292.0397 C 412.61633,293.41812 413.30552,295.60923 413.30555,298.61306 L 413.30555,306.10318 C 413.30552,307.9367 413.85168,309.15905 414.94401,309.77022 L 414.94401,311.62323 C 413.43556,311.62323 412.30424,311.40868 411.55005,310.97956 C 410.80882,310.55044 410.27567,309.84173 409.9506,308.85345 M 409.5995,300.99274 C 408.42916,300.73267 407.60992,300.60264 407.1418,300.60263 C 405.26926,300.60264 403.74133,301.08377 402.558,302.04603 C 401.37466,303.00831 400.78299,304.14614 400.78301,305.45949 C 400.78299,307.63111 402.06385,308.71692 404.62559,308.71692 C 406.4981,308.71692 408.15608,307.82617 409.5995,306.04466 L 409.5995,300.99274 M 430.4899,293.93174 C 429.68366,293.3726 428.87093,293.09302 428.05171,293.093 C 426.73832,293.09302 425.5875,293.69769 424.59923,294.90702 C 423.62396,296.11637 423.13631,297.57279 423.13632,299.27625 L 423.13632,311.25264 L 419.43028,311.25264 L 419.43028,290.36223 L 423.13632,290.36223 L 423.13632,293.69767 C 424.48869,291.21399 426.49776,289.97214 429.16352,289.97212 C 429.8267,289.97214 430.78246,290.08917 432.03084,290.32321 L 430.4899,293.93174 M 435.99045,293.28805 L 433.57177,293.28805 L 433.57177,290.36223 L 435.99045,290.36223 L 435.99045,285.99299 L 439.6965,284.56909 L 439.6965,290.36223 L 445.43112,290.36223 L 445.43112,293.28805 L 439.6965,293.28805 L 439.6965,303.66498 C 439.69649,305.42049 439.98907,306.66885 440.57425,307.41004 C 441.17241,308.15127 442.12818,308.52186 443.44156,308.52186 C 444.39082,308.52186 445.3726,308.28129 446.38689,307.80015 L 446.93305,311.05758 C 445.3986,311.44769 443.71462,311.64275 441.88112,311.64275 C 440.22964,311.64275 438.83175,311.03158 437.68744,309.80923 C 436.5561,308.57388 435.99045,307.01995 435.99045,305.1474 L 435.99045,293.28805"
     id="text6415" />
  <text
     xml:space="preserve"
     style="font-size:17.47693825px;font-style:normal;font-weight:normal;fill:#000000;fill-opacity:1;stroke:none;stroke-width:1px;stroke-linecap:butt;stroke-linejoin:miter;stroke-opacity:1;font-family:Bitstream Vera Sans"
     x="175.9646"
     y="291.63663"
     id="text6419"><tspan
       sodipodi:role="line"
       id="tspan6421"
       x="175.9646"
       y="291.63663">Press</tspan></text>
  <g
     id="g2235"
     transform="matrix(1.2483528,0,0,1.2483528,2.2231309,103.36122)">
    <rect
       style="fill:url(#linearGradient2481);fill-opacity:1;fill-rule:nonzero;stroke:none;stroke-width:2.29999995;stroke-linecap:butt;stroke-linejoin:miter;marker:none;marker-start:none;marker-mid:none;marker-end:none;stroke-miterlimit:4;stroke-dasharray:none;stroke-dashoffset:0;stroke-opacity:1;visibility:visible;display:inline;overflow:visible"
       id="rect6431"
       width="249.17096"
       height="35.916534"
       x="138.61537"
       y="430.99033" />
    <path
       id="text6433"
       d="M 246.68411,487.46313 C 245.13718,487.67406 243.56687,487.77953 241.97318,487.77954 C 237.61376,487.77953 233.59423,486.88891 229.91458,485.10767 C 226.2583,483.34985 223.41064,480.87719 221.37161,477.6897 C 220.5044,477.85376 219.10987,477.93579 217.18802,477.93579 C 210.41456,477.93579 205.08254,475.40454 201.19193,470.34204 C 197.32473,465.27955 195.39114,458.76393 195.39114,450.79517 C 195.39114,443.24832 197.37161,436.96708 201.33255,431.95142 C 205.29347,426.9124 210.57863,424.39287 217.18802,424.39282 C 224.61767,424.39287 230.33642,426.7249 234.34427,431.38892 C 238.37547,436.02958 240.3911,442.49833 240.39114,450.79517 C 240.3911,463.09987 236.35985,471.3147 228.29739,475.4397 C 230.85204,478.2522 235.09423,479.65844 241.02396,479.65845 C 243.20359,479.65844 245.09031,479.42407 246.68411,478.95532 L 246.68411,487.46313 M 204.88333,450.79517 C 204.88332,456.18581 205.96144,460.69753 208.11771,464.33032 C 210.27394,467.96314 213.29737,469.77955 217.18802,469.77954 C 221.68799,469.77955 225.09814,468.11549 227.41849,464.78735 C 229.73876,461.45924 230.89892,456.79519 230.89896,450.79517 C 230.89892,438.63114 226.32861,432.54912 217.18802,432.54907 C 213.15675,432.54912 210.09816,434.17802 208.01224,437.43579 C 205.92629,440.69364 204.88332,445.14676 204.88333,450.79517"
       style="font-size:72px;font-style:normal;font-weight:bold;fill:#000000;fill-opacity:1;stroke:#000000;stroke-width:2.5;stroke-linecap:butt;stroke-linejoin:bevel;stroke-miterlimit:4;stroke-opacity:1;font-family:Trebuchet MS" />
    <path
       id="text6437"
       d="M 249.40163,484.54446 C 247.8547,484.75539 246.28439,484.86086 244.69069,484.86087 C 240.33127,484.86086 236.31174,483.97024 232.6321,482.189 C 228.97581,480.43118 226.12816,477.95852 224.08913,474.77103 C 223.22191,474.93509 221.82738,475.01712 219.90553,475.01712 C 213.13208,475.01712 207.80005,472.48587 203.90944,467.42337 C 200.04225,462.36088 198.10866,455.84526 198.10866,447.8765 C 198.10866,440.32965 200.08912,434.04841 204.05006,429.03275 C 208.01099,423.99373 213.29614,421.4742 219.90553,421.47415 C 227.33519,421.4742 233.05393,423.80623 237.06178,428.47025 C 241.09299,433.11091 243.10861,439.57965 243.10866,447.8765 C 243.10861,460.1812 239.07736,468.39603 231.01491,472.52103 C 233.56956,475.33353 237.81174,476.73977 243.74147,476.73978 C 245.92111,476.73977 247.80782,476.5054 249.40163,476.03665 L 249.40163,484.54446 M 207.60085,447.8765 C 207.60083,453.26714 208.67896,457.77886 210.83522,461.41165 C 212.99145,465.04447 216.01489,466.86088 219.90553,466.86087 C 224.4055,466.86088 227.81566,465.19682 230.136,461.86868 C 232.45628,458.54057 233.61643,453.87652 233.61647,447.8765 C 233.61643,435.71247 229.04612,429.63045 219.90553,429.6304 C 215.87426,429.63045 212.81567,431.25935 210.72975,434.51712 C 208.6438,437.77497 207.60083,442.22809 207.60085,447.8765"
       style="font-size:72px;font-style:normal;font-weight:bold;fill:#9cdc30;fill-opacity:1;stroke:#ffffff;stroke-width:2.5;stroke-linecap:butt;stroke-linejoin:bevel;stroke-miterlimit:4;stroke-opacity:1;font-family:Trebuchet MS" />
    <path
       id="text6441"
       d="M 250.65924,444.34921 L 248.72174,444.34921 L 248.72174,442.00546 L 250.65924,442.00546 L 250.65924,438.50546 L 253.62799,437.36484 L 253.62799,442.00546 L 258.22174,442.00546 L 258.22174,444.34921 L 253.62799,444.34921 L 253.62799,452.66171 C 253.62798,454.06797 253.86236,455.06797 254.33112,455.66171 C 254.81028,456.25547 255.5759,456.55234 256.62799,456.55234 C 257.3884,456.55234 258.17486,456.35963 258.98737,455.97421 L 259.42487,458.58359 C 258.19569,458.89609 256.84673,459.05234 255.37799,459.05234 C 254.05507,459.05234 252.93528,458.56275 252.01862,457.58359 C 251.11236,456.59401 250.65924,455.34922 250.65924,453.84921 L 250.65924,444.34921 M 261.19049,450.33359 C 261.19049,447.75027 261.8832,445.66693 263.26862,444.08359 C 264.66444,442.48985 266.49778,441.69298 268.76862,441.69296 C 271.16444,441.69298 273.02381,442.4586 274.34674,443.98984 C 275.66964,445.51068 276.3311,447.62527 276.33112,450.33359 C 276.3311,453.03151 275.65402,455.16172 274.29987,456.72421 C 272.94569,458.2763 271.10194,459.05234 268.76862,459.05234 C 266.38319,459.05234 264.52382,458.26588 263.19049,456.69296 C 261.85716,455.12005 261.19049,453.00026 261.19049,450.33359 M 264.31549,450.33359 C 264.31549,454.53151 265.79986,456.63046 268.76862,456.63046 C 270.15402,456.63046 271.23735,456.06797 272.01862,454.94296 C 272.81027,453.81797 273.2061,452.28151 273.20612,450.33359 C 273.2061,446.18777 271.72694,444.11485 268.76862,444.11484 C 267.41444,444.11485 266.33111,444.66694 265.51862,445.77109 C 264.71653,446.87527 264.31549,448.3961 264.31549,450.33359 M 310.73737,460.42734 L 310.26862,463.47421 C 304.81026,463.47421 301.23214,461.95858 299.53424,458.92734 C 299.21131,459.06275 298.5186,459.13046 297.45612,459.13046 C 294.57069,459.13046 292.31028,458.00546 290.67487,455.75546 C 289.04986,453.50547 288.23736,450.62005 288.23737,447.09921 C 288.23736,443.79714 289.06549,441.03152 290.72174,438.80234 C 292.37799,436.56278 294.62277,435.44299 297.45612,435.44296 C 300.63319,435.44299 303.06547,436.46903 304.75299,438.52109 C 306.45089,440.57319 307.29985,443.43256 307.29987,447.09921 C 307.29985,452.35964 305.72693,455.96901 302.58112,457.92734 C 303.71652,459.594 305.62276,460.42734 308.29987,460.42734 L 310.73737,460.42734 M 297.45612,438.25546 C 295.51861,438.25548 294.04465,439.04715 293.03424,440.63046 C 292.02382,442.21381 291.51861,444.37006 291.51862,447.09921 C 291.51861,449.72422 292.03424,451.91693 293.06549,453.67734 C 294.10715,455.43776 295.57069,456.31797 297.45612,456.31796 C 299.60194,456.31797 301.23214,455.50547 302.34674,453.88046 C 303.46131,452.24505 304.0186,449.98464 304.01862,447.09921 C 304.0186,441.2034 301.8311,438.25548 297.45612,438.25546 M 313.53424,442.00546 L 313.53424,452.67734 C 313.53424,455.26067 314.65403,456.55234 316.89362,456.55234 C 317.87277,456.55234 318.76861,456.27109 319.58112,455.70859 C 320.3936,455.14609 320.93006,454.49505 321.19049,453.75546 L 321.19049,442.00546 L 324.15924,442.00546 L 324.15924,458.73984 L 321.19049,458.73984 L 321.19049,456.42734 C 320.85715,457.08359 320.18527,457.68776 319.17487,458.23984 C 318.17486,458.7815 317.19569,459.05234 316.23737,459.05234 C 314.40403,459.05234 312.99778,458.5263 312.01862,457.47421 C 311.04986,456.42213 310.56549,454.92734 310.56549,452.98984 L 310.56549,442.00546 L 313.53424,442.00546 M 331.28424,435.67734 C 331.79465,435.67736 332.22694,435.85965 332.58112,436.22421 C 332.94569,436.5784 333.12798,437.00548 333.12799,437.50546 C 333.12798,438.0159 332.94569,438.4534 332.58112,438.81796 C 332.22694,439.17215 331.79465,439.34923 331.28424,439.34921 C 330.78424,439.34923 330.35194,439.17215 329.98737,438.81796 C 329.6332,438.4534 329.45611,438.0159 329.45612,437.50546 C 329.45611,436.99507 329.6332,436.56278 329.98737,436.20859 C 330.34153,435.85444 330.77382,435.67736 331.28424,435.67734 M 329.65924,458.73984 L 329.65924,444.50546 L 327.36237,444.50546 L 327.36237,442.00546 L 332.62799,442.00546 L 332.62799,458.73984 L 329.65924,458.73984 M 338.40924,444.34921 L 336.47174,444.34921 L 336.47174,442.00546 L 338.40924,442.00546 L 338.40924,438.50546 L 341.37799,437.36484 L 341.37799,442.00546 L 345.97174,442.00546 L 345.97174,444.34921 L 341.37799,444.34921 L 341.37799,452.66171 C 341.37798,454.06797 341.61236,455.06797 342.08112,455.66171 C 342.56028,456.25547 343.3259,456.55234 344.37799,456.55234 C 345.1384,456.55234 345.92486,456.35963 346.73737,455.97421 L 347.17487,458.58359 C 345.94569,458.89609 344.59673,459.05234 343.12799,459.05234 C 341.80507,459.05234 340.68528,458.56275 339.76862,457.58359 C 338.86236,456.59401 338.40924,455.34922 338.40924,453.84921 L 338.40924,444.34921"
       style="font-size:32px;font-style:normal;font-weight:normal;fill:#000000;fill-opacity:1;stroke:none;stroke-width:1px;stroke-linecap:butt;stroke-linejoin:miter;stroke-opacity:1;font-family:Trebuchet MS" />
  </g>
</svg>
