<?xml version="1.0" encoding="UTF-8" standalone="no"?>
<!-- Created with Sodipodi ("http://www.sodipodi.com/") -->
<svg
   xmlns:dc="http://purl.org/dc/elements/1.1/"
   xmlns:cc="http://web.resource.org/cc/"
   xmlns:rdf="http://www.w3.org/1999/02/22-rdf-syntax-ns#"
   xmlns:svg="http://www.w3.org/2000/svg"
   xmlns="http://www.w3.org/2000/svg"
   xmlns:xlink="http://www.w3.org/1999/xlink"
   xmlns:sodipodi="http://sodipodi.sourceforge.net/DTD/sodipodi-0.dtd"
   xmlns:inkscape="http://www.inkscape.org/namespaces/inkscape"
   version="1.0"
   x="0"
   y="0"
   width="800.000000"
   height="600.000000"
   id="svg559"
   sodipodi:version="0.32"
   inkscape:version="0.45.1"
   sodipodi:docname="intro.svg"
   sodipodi:docbase="/home/yoda/UltraStar/sf/UltraStar-ng/themes/lima"
   inkscape:output_extension="org.inkscape.output.svg.inkscape">
  <metadata
     id="metadata35">
    <rdf:RDF>
      <cc:Work
         rdf:about="">
        <dc:format>image/svg+xml</dc:format>
        <dc:type
           rdf:resource="http://purl.org/dc/dcmitype/StillImage" />
      </cc:Work>
    </rdf:RDF>
  </metadata>
  <sodipodi:namedview
     inkscape:window-height="785"
     inkscape:window-width="1081"
     inkscape:pageshadow="2"
     inkscape:pageopacity="0.0"
     guidetolerance="10.0"
     gridtolerance="10.0"
     objecttolerance="10.0"
     borderopacity="1.0"
     bordercolor="#666666"
     pagecolor="#ffffff"
     id="base"
     inkscape:zoom="1.26"
     inkscape:cx="321.29194"
     inkscape:cy="303.64421"
     inkscape:window-x="63"
     inkscape:window-y="30"
     inkscape:current-layer="svg559" />
  <defs
     id="defs561">
    <linearGradient
       id="linearGradient3751"
       inkscape:collect="always">
      <stop
         id="stop3753"
         offset="0"
         style="stop-color:black;stop-opacity:1;" />
      <stop
         id="stop3755"
         offset="1"
         style="stop-color:black;stop-opacity:0;" />
    </linearGradient>
    <linearGradient
       id="linearGradient6499"
       inkscape:collect="always">
      <stop
         id="stop6501"
         offset="0"
         style="stop-color:white;stop-opacity:1;" />
      <stop
         id="stop6503"
         offset="1"
         style="stop-color:white;stop-opacity:0;" />
    </linearGradient>
    <linearGradient
       inkscape:collect="always"
       xlink:href="#linearGradient6499"
       id="linearGradient3474"
       gradientUnits="userSpaceOnUse"
       gradientTransform="matrix(0.755727,0,0,0.755727,4.33502,31.78829)"
       x1="370.92285"
       y1="100.34026"
       x2="372.94315"
       y2="219.56401" />
    <linearGradient
       inkscape:collect="always"
       xlink:href="#linearGradient3751"
       id="linearGradient3484"
       gradientUnits="userSpaceOnUse"
       gradientTransform="matrix(0.755727,0,0,0.755727,4.33502,31.78829)"
       x1="665.12128"
       y1="684.16162"
       x2="381.28015"
       y2="449.80624" />
  </defs>
  <rect
     style="color:black;fill:#81d000;fill-opacity:1;fill-rule:nonzero;stroke:none;stroke-width:3;stroke-linecap:round;stroke-linejoin:miter;marker:none;marker-start:none;marker-mid:none;marker-end:none;stroke-miterlimit:4;stroke-dasharray:none;stroke-dashoffset:0;stroke-opacity:1;visibility:visible;display:block;overflow:visible"
     id="rect2828"
     width="804.80463"
     height="602.76892"
     x="-3.480546"
     y="0.51224983" />
  <path
     style="fill:black;fill-opacity:1;fill-rule:evenodd;stroke:black;stroke-width:0.5391832px;stroke-linecap:butt;stroke-linejoin:miter;stroke-opacity:1"
     d="M 590.82758,258.93873 L 579.93438,258.93873 L 577.75577,264.3853 L 579.93438,270.37653 L 578.84507,276.91242 L 573.39855,273.64447 L 569.04133,265.47462 L 559.78208,263.29598 L 555.96952,259.48339 L 547.79965,255.67078 L 538.54049,240.42038 L 539.08514,233.33983 L 561.96077,215.9108 L 572.85382,220.81271 L 574.48785,224.62532 L 574.48785,228.98258 L 577.21111,232.79517 L 582.65771,234.42915 L 586.47028,231.1612 L 587.01493,227.3486 L 585.38098,224.08066 L 582.11306,222.44669 L 579.93438,219.7234 L 584.83632,217.54478 L 583.74702,212.0982 L 583.74702,208.83025 L 580.4791,205.56231 L 578.84507,200.6604 L 572.30924,199.02643 L 566.86264,197.93711 L 555.42479,206.10697 L 526.55798,217.54478 L 520.02208,224.08066 L 515.12021,227.89326 L 514.03082,236.60778 L 516.20951,240.96504 L 521.65611,255.67078 L 528.73659,269.28721 L 536.3618,279.09104 L 524.37937,298.69871 L 510.76291,328.1102 L 502.59305,341.18197 L 488.97666,358.06635 L 488.43201,365.69156 L 481.35145,372.22744 L 492.24458,382.03128 L 489.52131,393.46907 L 490.61062,419.06797 L 495.51249,448.47946 L 500.41444,474.62302 L 505.86096,483.33753 L 513.48625,499.13259 L 525.46868,517.10628 L 528.73659,528.54405 L 532.00458,536.71392 L 522.20069,550.33035 L 504.77166,557.4109 L 503.1377,562.85751 L 536.3618,561.7682 L 531.45993,570.48269 L 537.45111,575.92925 L 553.24618,577.56325 L 565.77334,566.67008 L 570.13063,551.41971 L 577.21111,538.34792 L 585.92563,530.72273 L 588.64889,522.00819 L 579.3898,521.46354 L 585.38098,515.4723 L 573.39855,519.28491 L 582.11306,510.57039 L 575.57716,508.93642 L 570.67521,502.94519 L 562.50535,486.06081 L 543.44236,470.26575 L 539.62979,469.17644 L 543.44236,465.90849 L 542.89771,456.64932 L 546.71035,448.47946 L 543.44236,449.02412 L 549.43361,438.67563 L 549.43361,428.32714 L 553.24618,422.88057 L 553.24618,415.80002 L 561.41604,404.90687 L 561.96077,395.64771 L 560.32674,388.0225 L 564.13938,379.30798 L 568.4966,372.22744 L 568.4966,367.87018 L 573.39855,367.32553 L 577.75577,362.96827 L 581.56841,352.07513 L 590.28292,342.27129 L 600.6314,338.45869 L 607.16722,343.90526 L 622.96237,348.80718 L 635.48945,355.34306 L 641.48063,362.96827 L 651.8291,364.05758 L 684.50863,378.21867 L 701.39293,384.20991 L 715.00939,394.55839 L 718.27738,393.46907 L 718.27738,390.20113 L 710.65217,384.20991 L 725.35786,388.0225 L 726.9919,385.29921 L 723.72391,382.03128 L 729.17051,382.03128 L 729.71516,378.76333 L 719.91134,376.5847 L 727.53647,374.40607 L 727.53647,370.59347 L 724.81321,370.04882 L 716.64335,370.59347 L 710.10752,367.87018 L 705.75023,365.69156 L 712.28613,360.24498 L 713.92009,356.43238 L 712.83078,353.70909 L 706.83961,354.79841 L 694.31237,361.33429 L 692.67849,364.60224 L 688.3212,363.51293 L 672.52612,354.79841 L 671.98147,348.80718 L 662.7223,343.90526 L 646.92723,335.7354 L 643.11466,338.45869 L 643.65932,334.64609 L 634.9448,326.47623 L 627.31959,324.2976 L 620.23903,316.12774 L 618.06043,313.40445 L 625.14098,318.30637 L 624.05168,312.85979 L 629.4982,315.58308 L 627.86424,307.41322 L 635.48945,314.49377 L 632.22154,309.59186 L 639.84667,312.85979 L 633.31084,303.60063 L 638.21272,305.2346 L 636.03411,296.52008 L 639.84667,299.78802 L 634.40015,291.61816 L 639.84667,293.25213 L 634.9448,286.71625 L 641.48063,286.17159 L 634.40015,281.81433 L 638.75737,279.63571 L 633.8555,279.09104 L 640.39133,273.09982 L 634.40015,273.64447 L 634.9448,269.83187 L 635.48945,258.93873 L 632.22154,266.56393 L 628.4089,255.67078 L 628.95355,264.3853 L 626.77494,264.92996 L 621.32834,264.92996 L 615.33709,256.21544 L 609.34591,256.21544 L 602.26535,250.22421 L 598.99736,253.49215 L 590.82758,258.93873 z "
     id="path1939" />
  <path
     id="path2864"
     d="M 303.61338,440.15657 L 292.71292,440.15657 L 295.64069,442.29833 L 303.43933,444.65426 L 308.4786,447.22437 L 299.96375,445.93931 L 287.94187,442.72669 L 276.6334,441.86998 L 269.24276,440.37075 L 257.49196,438.87152 L 233.92469,432.8746 L 227.8296,430.09032 L 234.37556,423.2367 L 249.87295,425.16428 L 255.08354,426.66351 L 259.16975,428.37691 L 265.47033,429.87615 L 272.45294,430.51867 L 273.2033,429.23361 L 270.17291,427.73439 L 265.47312,426.44933 L 260.6707,425.80681 L 255.93668,424.73593 L 258.79877,423.87923 L 252.6009,421.73747 L 249.53627,420.45241 L 243.20147,419.16736 L 236.96937,417.23978 L 228.89677,416.59725 L 222.42495,416.1689 L 218.64125,419.38154 L 200.48143,423.87923 L 200.07054,426.44933 L 198.74084,427.94856 L 205.82329,431.37537 L 212.08962,433.08878 L 231.33096,438.87152 L 251.18572,444.22591 L 268.0101,448.08107 L 274.4077,455.79139 L 288.36432,467.35688 L 292.44774,472.49709 L 294.65643,479.13654 L 301.26239,482.135 L 300.30639,484.70511 L 320.40087,488.56028 L 328.40221,493.05796 L 353.49892,503.12422 L 385.98626,514.6897 L 415.40898,524.97014 L 429.03164,528.39694 L 451.47462,534.60804 L 480.32079,541.67584 L 494.31731,546.17351 L 505.2492,549.38615 L 508.20825,554.74054 L 497.4077,557.52482 L 500.88057,559.6666 L 533.1053,559.23825 L 536.37261,562.66504 L 547.4756,564.8068 L 564.81356,565.44933 L 567.13342,561.16581 L 557.19183,555.16891 L 552.01835,550.02868 L 553.58777,547.03023 L 548.14034,543.60342 L 538.36425,543.38924 L 538.74091,541.0333 L 530.32589,542.53254 L 530.87371,539.10573 L 522.80111,538.4632 L 512.27739,536.10727 L 488.26779,529.46782 L 454.3794,523.25673 L 449.54268,522.82838 L 450.29319,521.54332 L 441.06485,517.90234 L 437.21828,514.6897 L 434.45897,514.90388 L 430.74941,510.83454 L 421.04451,506.7652 L 419.75184,504.62344 L 413.11172,501.83916 L 411.07141,497.55565 L 402.93321,493.91467 L 394.14721,490.9162 L 389.78984,487.4894 L 387.50988,484.70511 L 383.42359,482.99171 L 387.81807,482.77753 L 388.09194,481.06413 L 381.69154,476.78062 L 381.21777,472.92545 L 387.9977,471.42622 L 399.64572,473.56797 L 420.04846,475.49556 L 438.71326,478.06566 L 451.85943,481.06413 L 463.23637,481.49248 L 509.21798,487.06104 L 531.73222,489.41698 L 555.06257,493.48632 L 557.31123,493.05796 L 554.24653,491.77291 L 540.99758,489.41698 L 559.28867,490.9162 L 558.36978,489.84533 L 552.03505,488.56028 L 557.4852,488.56028 L 554.96561,487.27522 L 543.11203,486.41852 L 548.6992,485.56182 L 545.1237,484.06258 L 541.8879,483.84841 L 534.22332,484.06258 L 525.1292,482.99171 L 518.72585,482.135 L 520.15833,479.99325 L 518.21793,478.49402 L 514.57397,477.42313 L 509.6003,477.85149 L 503.19415,480.42159 L 504.62376,481.70665 L 499.24208,481.2783 L 475.26392,477.85149 L 469.10036,475.49556 L 455.23798,473.56797 L 431.77062,470.35534 L 430.50939,471.42622 L 427.47892,469.92699 L 411.09688,466.71435 L 401.4235,465.85766 L 386.67647,462.64501 L 381.94252,461.57414 L 393.62477,463.50172 L 387.42698,461.35996 L 395.43103,462.43084 L 386.13423,459.21821 L 400.4047,462.00249 L 392.53758,460.07491 L 403.23256,461.35996 L 388.00904,457.71898 L 394.44655,458.36151 L 384.094,454.93469 L 390.97383,456.21975 L 377.86189,453.00711 L 384.84443,453.64964 L 373.80984,451.07953 L 379.83933,450.86535 L 368.66787,449.15195 L 370.98485,448.29525 L 365.56894,448.08107 L 366.49054,445.72514 L 361.00616,445.93931 L 357.97569,444.44009 L 348.30511,440.15657 L 352.18592,443.15503 L 338.15517,438.87152 L 346.87263,442.29833 L 345.2033,442.51251 L 339.75315,442.51251 L 325.58539,439.0857 L 319.59013,439.0857 L 306.88636,436.72977 L 306.6808,438.01481 L 303.61338,440.15657 z "
     style="opacity:0.22790701;fill:url(#linearGradient3484);fill-opacity:1;fill-rule:evenodd;stroke:none;stroke-width:0.44754833px;stroke-linecap:butt;stroke-linejoin:miter;stroke-opacity:1" />
  <path
     style="fill:none;fill-opacity:0.75;fill-rule:evenodd;stroke:white;stroke-width:1.28473592;stroke-linecap:round;stroke-linejoin:round;stroke-miterlimit:4;stroke-dasharray:none;stroke-opacity:1"
     d="M 572.30425,197.15261 C 550.97907,189.2703 539.52089,218.80397 546.54537,235.32851 C 549.07578,256.18832 549.52921,278.08703 544.00364,298.38488 C 533.60234,309.29523 506.60807,316.2899 506.99599,334.59948"
     id="path3759"
     sodipodi:nodetypes="cccc" />
  <path
     style="font-size:149.94555664px;font-style:normal;font-variant:normal;font-weight:normal;font-stretch:normal;text-align:start;line-height:125%;writing-mode:lr-tb;text-anchor:start;fill:white;fill-opacity:1;stroke:none;stroke-width:1px;stroke-linecap:butt;stroke-linejoin:miter;stroke-opacity:1;font-family:Interstate-LightCondensed"
     d="M 308.5151,69.6453 L 295.12452,76.683008 L 295.12452,93.946608 L 287.77984,93.946608 L 287.77984,107.28994 L 295.12452,107.28994 L 295.12452,138.62899 C 295.12452,145.53991 296.30149,150.47379 298.64342,153.4129 C 301.06083,156.35202 304.69566,157.82918 309.53057,157.82918 C 311.49478,157.82919 313.30036,157.57368 314.96236,157.09707 C 316.62435,156.62045 318.22196,155.96346 319.73288,155.08967 L 321.31523,141.48658 C 318.74666,143.47248 316.09965,144.48589 313.38009,144.48587 C 311.79359,144.48589 310.57415,144.03716 309.74316,143.16335 C 308.91216,142.21015 308.5151,140.5784 308.5151,138.27474 L 308.5151,107.28994 L 320.51227,107.28994 L 320.51227,93.946608 L 308.5151,93.946608 L 308.5151,69.6453 z M 118.33164,73.967076 L 110.63267,78.501438 L 110.63267,156.57751 L 118.33164,156.57751 L 118.33164,73.967076 z M 143.45957,73.967076 L 135.87872,78.501438 L 135.87872,97.087637 L 129.76201,97.087637 L 129.76201,103.653 L 135.87872,103.653 L 135.87872,145.2416 C 135.87872,149.47215 136.67752,152.64377 138.26394,154.75904 C 139.85044,156.79875 142.32726,157.82918 145.72675,157.82918 C 147.46431,157.82918 149.06192,157.65903 150.49727,157.35685 C 151.93263,157.13021 153.29868,156.73316 154.58296,156.12879 L 155.2678,148.973 C 153.98352,149.57738 152.76408,149.99805 151.63086,150.22468 C 150.57322,150.45133 149.35378,150.57892 147.99393,150.57892 C 146.48308,150.57892 145.34866,150.11572 144.59316,149.20917 C 143.83773,148.22709 143.45957,146.62946 143.45957,144.43864 L 143.45957,103.653 L 154.91359,103.653 L 154.91359,97.087637 L 143.45957,97.087637 L 143.45957,73.967076 z M 473.31082,76.257911 C 471.3188,76.257911 469.41686,76.698273 467.59563,77.580433 C 465.80282,78.434178 464.21466,79.671001 462.84868,81.264603 C 461.48278,82.858204 460.4101,84.778884 459.61327,87.027021 C 458.8165,89.246667 458.40879,91.710639 458.40879,94.442592 C 458.40886,96.491519 458.69468,98.309194 459.2354,99.874365 C 459.77613,101.43952 460.51145,102.76055 461.47893,103.84193 C 462.44649,104.92332 463.63184,105.75251 464.99782,106.32166 C 466.3638,106.86235 467.83928,107.12461 469.4613,107.12462 C 471.08339,107.12461 472.58252,106.8999 473.94843,106.41613 C 475.3144,105.90389 476.53248,105.1074 477.58536,104.05448 C 478.66673,103.00156 479.58501,101.66176 480.32487,100.03968 C 481.09329,98.417641 481.65533,96.49696 482.02526,94.277239 L 482.52124,91.466917 L 473.051,91.466917 L 472.34251,95.765114 L 477.27838,95.765114 C 477.27838,95.765114 477.25957,95.821416 477.23115,95.906813 C 477.23108,95.963719 477.23115,95.996442 477.23115,96.024858 C 476.74734,98.187673 475.90425,99.86482 474.68057,101.03157 C 473.4569,102.16987 471.86874,102.73196 469.93363,102.73196 C 468.93765,102.73196 468.02421,102.55389 467.17054,102.2124 C 466.34528,101.84245 465.62387,101.33669 464.99782,100.65371 C 464.37178,99.942274 463.8563,99.037941 463.48637,97.985062 C 463.14485,96.932108 462.99038,95.700122 462.99038,94.277239 C 462.99038,92.256803 463.23388,90.425147 463.74611,88.77464 C 464.28683,87.095641 465.00825,85.648046 465.91883,84.452788 C 466.82948,83.257606 467.86943,82.344234 469.0362,81.689699 C 470.23138,81.006749 471.501,80.674229 472.83849,80.674153 C 474.3182,80.674229 475.53628,81.044308 476.47543,81.784165 C 477.44298,82.524097 478.23461,83.559216 478.86065,84.925117 L 483.13527,83.059454 C 482.36692,80.92513 481.1864,79.248021 479.5928,78.052763 C 477.9992,76.857581 475.90039,76.257911 473.31082,76.257911 z M 432.50156,76.730241 L 427.21147,106.62867 L 431.60413,106.62867 L 434.81597,88.231423 C 434.84439,88.032289 434.87711,87.713674 434.93402,87.286764 C 435.01942,86.85993 435.0897,86.438385 435.1466,86.011475 C 435.20351,85.556225 435.27863,85.129768 435.33554,84.75984 C 435.39244,84.361421 435.42517,84.099183 435.45358,83.95688 C 435.59588,84.383715 435.80666,84.927082 436.09126,85.610033 C 436.40429,86.292983 436.68534,86.930212 436.94146,87.49935 L 445.6559,106.62867 L 449.74158,106.62867 L 455.05525,76.730241 L 450.63901,76.730241 L 447.45075,95.103853 C 447.42226,95.303063 447.37079,95.598023 447.28547,96.024858 C 447.22849,96.423277 447.15344,96.868476 447.09654,97.323801 C 447.03963,97.750636 446.98809,98.153438 446.93118,98.551858 C 446.87428,98.921786 446.84156,99.165281 446.81314,99.307585 C 446.67084,98.909165 446.46006,98.384615 446.17546,97.701665 C 445.89085,97.018714 445.60504,96.381485 445.34892,95.812347 L 436.82334,76.730241 L 432.50156,76.730241 z M 262.58103,92.647741 C 259.93697,92.647816 257.5027,93.072913 255.23635,93.946608 C 252.97,94.741029 250.99422,95.947698 249.33223,97.536312 C 247.74573,99.04565 246.5074,100.90929 245.60083,103.13344 C 244.69426,105.35769 244.23107,107.86328 244.23107,110.64347 C 244.23107,115.4891 245.2804,119.37093 247.39568,122.31001 C 249.58646,125.16973 252.84319,127.71396 257.14924,129.93813 C 259.26452,131.05025 261.00866,132.00139 262.36852,132.79572 C 263.7283,133.51067 264.82017,134.22992 265.65117,134.94482 C 266.48217,135.65976 267.04942,136.37902 267.35156,137.09392 C 267.72927,137.72943 267.91835,138.48733 267.91835,139.3611 C 267.91835,140.94984 267.39373,142.21015 266.33609,143.16335 C 265.35394,144.03716 263.79888,144.48589 261.6836,144.48587 C 257.07533,144.48589 252.30609,142.66091 247.39568,139.00685 L 242.64873,151.02764 C 245.44394,153.33128 248.34147,155.0403 251.36324,156.15241 C 254.38502,157.26451 257.74574,157.82918 261.44744,157.82918 C 267.11335,157.82919 271.77861,156.15879 275.40481,152.82249 C 279.10644,149.48619 280.95464,144.59097 280.95464,138.15666 C 280.95464,133.23167 279.73513,129.34984 277.31771,126.49013 C 274.97578,123.63047 271.61507,121.08625 267.23351,118.86201 C 265.19373,117.82938 263.53468,116.95554 262.2504,116.24058 C 260.96612,115.44626 259.93576,114.72701 259.18026,114.09148 C 258.42483,113.45604 257.90013,112.85273 257.59799,112.29663 C 257.37135,111.66119 257.26736,111.00419 257.26736,110.28923 C 257.26736,109.0183 257.70697,107.96626 258.61346,107.17185 C 259.52003,106.37755 260.73955,105.99108 262.2504,105.99103 C 264.44125,105.99108 266.41702,106.2616 268.15452,106.81761 C 269.96766,107.3737 272.15133,108.36349 274.71989,109.79328 L 279.37238,98.362926 C 276.72824,96.456529 274.03876,95.018003 271.31912,94.064729 C 268.67506,93.11153 265.75395,92.647816 262.58103,92.647741 z M 350.48153,92.647741 C 346.8554,92.647816 343.57977,93.150223 340.6335,94.182773 C 337.68722,95.21555 334.8512,96.731311 332.13157,98.717135 L 337.56336,108.96671 C 339.45199,107.61635 341.30012,106.66521 343.11319,106.10911 C 344.92625,105.47367 347.09111,105.1645 349.5841,105.16445 C 352.22824,105.1645 354.07637,105.89879 355.13401,107.40802 C 356.19157,108.83791 356.71627,110.68651 356.71627,112.91066 L 356.71627,117.65757 C 355.43199,116.78382 354.10856,116.16546 352.74871,115.76825 C 351.38893,115.37111 349.39419,115.15426 346.75012,115.15422 C 344.10606,115.15426 341.64814,115.68028 339.38179,116.71291 C 337.19101,117.66617 335.25778,119.06604 333.59579,120.89302 C 332.00937,122.64064 330.77096,124.81344 329.86439,127.43478 C 328.95782,129.97676 328.49463,132.83016 328.49463,136.00756 C 328.49463,142.75961 330.13479,148.07995 333.3832,151.97229 C 336.6317,155.86464 340.85266,157.82918 346.06528,157.82918 C 348.02942,157.82919 349.96264,157.34181 351.85128,156.38857 C 353.73992,155.43535 355.35649,154.05911 356.71627,152.23208 L 356.71627,156.50666 L 370.0832,156.50666 L 370.0832,113.50107 C 370.0832,106.59021 368.52806,101.3858 365.43079,97.890597 C 362.40894,94.395435 357.43172,92.647816 350.48153,92.647741 z M 406.16916,92.647741 C 403.97838,92.647816 401.89862,93.251113 399.93441,94.442592 C 397.97028,95.634147 396.41514,96.894473 395.28201,98.244806 L 395.28201,93.946608 L 381.91508,93.946608 L 381.91508,156.50666 L 395.28201,156.50666 L 395.28201,111.8243 C 397.62385,108.24974 400.50249,106.4634 403.90198,106.46336 C 405.48848,106.4634 406.87335,106.73393 408.08213,107.28994 C 409.36641,107.84604 410.58586,108.60393 411.71907,109.55712 L 415.56851,95.85958 C 414.13316,94.747528 412.70567,93.950992 411.27032,93.474279 C 409.83496,92.918291 408.13337,92.647816 406.16916,92.647741 z M 186.9611,95.835926 C 184.54368,95.836002 182.31738,96.48827 180.27767,97.772476 C 178.31347,98.981262 176.73944,100.45129 175.53073,102.18878 L 175.53073,97.087637 L 167.83176,97.087637 L 167.83176,156.57751 L 175.53073,156.57751 L 175.53073,110.00583 C 176.58837,108.19279 177.95442,106.6377 179.61642,105.35339 C 181.27841,103.99362 183.04144,103.32242 184.93008,103.32237 C 186.44101,103.32242 187.72196,103.46895 188.7796,103.77108 C 189.91274,104.07331 191.00461,104.5129 192.06225,105.11722 L 194.23497,97.087637 C 193.40397,96.709924 192.41609,96.393275 191.28295,96.166557 C 190.14974,95.93999 188.69866,95.836002 186.9611,95.835926 z M 219.12673,95.835926 C 216.02938,95.836002 213.15082,96.360703 210.50675,97.418267 C 207.86262,98.475907 205.34332,99.945955 202.92583,101.83453 L 206.42107,107.73865 C 208.53635,106.15224 210.55467,104.93276 212.4433,104.10171 C 214.33194,103.27076 216.36916,102.87371 218.55993,102.87366 C 224.67913,102.87371 227.74678,106.3384 227.74678,113.28852 L 227.74678,121.67237 C 226.46249,120.84141 224.90736,120.18912 223.09429,119.73582 C 221.28123,119.20704 219.26291,118.95651 217.07213,118.95647 C 214.57914,118.95651 212.24886,119.33464 210.058,120.09006 C 207.94272,120.84555 206.09459,122.0225 204.50817,123.60892 C 202.92175,125.1954 201.68326,127.23262 200.77677,129.72558 C 199.8702,132.14305 199.40701,134.998 199.40701,138.32198 C 199.40701,141.72153 199.7851,144.68517 200.5406,147.17815 C 201.29603,149.59561 202.34543,151.59029 203.70521,153.17673 C 205.06499,154.76319 206.6626,155.94013 208.47574,156.69559 C 210.2888,157.45104 212.24092,157.82918 214.3562,157.82918 C 217.22698,157.82918 219.76993,157.21944 221.9607,156.01071 C 224.15156,154.80199 226.08478,153.33198 227.74678,151.59443 L 227.74678,156.57751 L 235.44574,156.57751 L 235.44574,112.48556 C 235.44567,106.21535 233.9757,101.89039 231.02943,99.472885 C 228.15872,97.055518 224.18828,95.836002 219.12673,95.835926 z M 59.030727,97.087637 L 59.030727,137.87326 C 59.030727,144.52127 60.354232,149.52211 62.998294,152.8461 C 65.642356,156.17009 69.485228,157.82918 74.546709,157.82918 C 77.568559,157.82918 80.154053,157.21944 82.269332,156.01071 C 84.384537,154.72644 86.086207,153.25643 87.37049,151.59443 L 87.37049,156.57751 L 95.069459,156.57751 L 95.069459,97.087637 L 87.37049,97.087637 L 87.37049,143.89546 C 86.086207,145.70856 84.531072,147.3251 82.718008,148.76046 C 80.980516,150.12027 78.900755,150.79147 76.48326,150.79147 C 73.083773,150.79147 70.625847,149.74214 69.114922,147.62686 C 67.604072,145.43606 66.847741,141.88629 66.847741,136.97584 L 66.847741,97.087637 L 59.030727,97.087637 z M 216.97767,125.75801 C 219.62173,125.75804 221.70149,125.98965 223.21241,126.44289 C 224.79884,126.89619 226.31135,127.52485 227.74678,128.35583 L 227.74678,144.91097 C 226.31135,146.64853 224.52466,148.11854 222.40945,149.32725 C 220.36967,150.46045 218.14345,151.02764 215.72596,151.02764 C 212.85525,151.02765 210.6904,149.85069 209.25504,147.50878 C 207.81969,145.16689 207.10598,141.99526 207.10598,137.99135 C 207.10598,134.13855 207.90479,131.156 209.49121,129.0407 C 211.07771,126.84992 213.5781,125.75804 216.97767,125.75801 z M 348.54498,127.08054 C 350.58476,127.08057 352.18237,127.35109 353.3155,127.90711 C 354.52421,128.38376 355.65863,129.10301 356.71627,130.05621 L 356.71627,140.06959 C 355.88528,141.57888 354.75086,142.8392 353.3155,143.87185 C 351.95572,144.82509 350.48568,145.31246 348.89926,145.31245 C 346.70841,145.31247 345.00681,144.47727 343.7981,142.80911 C 342.66489,141.14096 342.09772,138.78998 342.09772,135.7714 C 342.09772,133.15005 342.70744,131.05454 343.91615,129.4658 C 345.12486,127.87712 346.65634,127.08057 348.54498,127.08054 z "
     id="text5554" />
  <path
     sodipodi:type="star"
     style="opacity:0.22790701;color:black;fill:white;fill-opacity:1;fill-rule:nonzero;stroke:white;stroke-width:1.70000005;stroke-linecap:round;stroke-linejoin:round;marker:none;marker-start:none;marker-mid:none;marker-end:none;stroke-miterlimit:4;stroke-dasharray:none;stroke-dashoffset:0;stroke-opacity:1;visibility:visible;display:block;overflow:visible"
     id="path5574"
     sodipodi:sides="5"
     sodipodi:cx="141.42136"
     sodipodi:cy="350.13498"
     sodipodi:r1="78.688225"
     sodipodi:r2="45.665279"
     sodipodi:arg1="1.0612041"
     sodipodi:arg2="1.6895226"
     inkscape:flatsided="false"
     inkscape:rounded="0"
     inkscape:randomized="0"
     d="M 179.80715,418.82535 L 136.01242,395.47879 L 87.954791,407.86853 L 96.625376,359.00278 L 69.991407,317.1259 L 119.14486,310.27177 L 150.74179,272.0007 L 172.4497,316.63036 L 218.61165,334.85441 L 182.87443,369.29119 L 179.80715,418.82535 z "
     transform="matrix(0.494335,-0.204386,0.204386,0.494335,-40.85519,390.7709)" />
  <path
     transform="matrix(0.430025,1.278809e-2,-1.278809e-2,0.430025,3.473491,325.8555)"
     d="M 179.80715,418.82535 L 136.01242,395.47879 L 87.954791,407.86853 L 96.625376,359.00278 L 69.991407,317.1259 L 119.14486,310.27177 L 150.74179,272.0007 L 172.4497,316.63036 L 218.61165,334.85441 L 182.87443,369.29119 L 179.80715,418.82535 z "
     inkscape:randomized="0"
     inkscape:rounded="0"
     inkscape:flatsided="false"
     sodipodi:arg2="1.6895226"
     sodipodi:arg1="1.0612041"
     sodipodi:r2="45.665279"
     sodipodi:r1="78.688225"
     sodipodi:cy="350.13498"
     sodipodi:cx="141.42136"
     sodipodi:sides="5"
     id="path5576"
     style="opacity:0.22790701;color:black;fill:white;fill-opacity:1;fill-rule:nonzero;stroke:white;stroke-width:1.70000005;stroke-linecap:round;stroke-linejoin:round;marker:none;marker-start:none;marker-mid:none;marker-end:none;stroke-miterlimit:4;stroke-dasharray:none;stroke-dashoffset:0;stroke-opacity:1;visibility:visible;display:block;overflow:visible"
     sodipodi:type="star" />
  <path
     sodipodi:type="star"
     style="opacity:0.22790701;color:black;fill:white;fill-opacity:1;fill-rule:nonzero;stroke:white;stroke-width:1.70000005;stroke-linecap:round;stroke-linejoin:round;marker:none;marker-start:none;marker-mid:none;marker-end:none;stroke-miterlimit:4;stroke-dasharray:none;stroke-dashoffset:0;stroke-opacity:1;visibility:visible;display:block;overflow:visible"
     id="path5578"
     sodipodi:sides="5"
     sodipodi:cx="141.42136"
     sodipodi:cy="350.13498"
     sodipodi:r1="78.688225"
     sodipodi:r2="45.665279"
     sodipodi:arg1="1.0612041"
     sodipodi:arg2="1.6895226"
     inkscape:flatsided="false"
     inkscape:rounded="0"
     inkscape:randomized="0"
     d="M 179.80715,418.82535 L 136.01242,395.47879 L 87.954791,407.86853 L 96.625376,359.00278 L 69.991407,317.1259 L 119.14486,310.27177 L 150.74179,272.0007 L 172.4497,316.63036 L 218.61165,334.85441 L 182.87443,369.29119 L 179.80715,418.82535 z "
     transform="matrix(0.308608,-0.157328,0.157328,0.308608,10.40351,345.4728)" />
  <path
     transform="matrix(0.218514,5.453603e-2,-5.453603e-2,0.218514,55.30272,306.0341)"
     d="M 179.80715,418.82535 L 136.01242,395.47879 L 87.954791,407.86853 L 96.625376,359.00278 L 69.991407,317.1259 L 119.14486,310.27177 L 150.74179,272.0007 L 172.4497,316.63036 L 218.61165,334.85441 L 182.87443,369.29119 L 179.80715,418.82535 z "
     inkscape:randomized="0"
     inkscape:rounded="0"
     inkscape:flatsided="false"
     sodipodi:arg2="1.6895226"
     sodipodi:arg1="1.0612041"
     sodipodi:r2="45.665279"
     sodipodi:r1="78.688225"
     sodipodi:cy="350.13498"
     sodipodi:cx="141.42136"
     sodipodi:sides="5"
     id="path5580"
     style="opacity:0.22790701;color:black;fill:white;fill-opacity:1;fill-rule:nonzero;stroke:white;stroke-width:1.70000005;stroke-linecap:round;stroke-linejoin:round;marker:none;marker-start:none;marker-mid:none;marker-end:none;stroke-miterlimit:4;stroke-dasharray:none;stroke-dashoffset:0;stroke-opacity:1;visibility:visible;display:block;overflow:visible"
     sodipodi:type="star" />
  <path
     sodipodi:type="star"
     style="opacity:0.22790701;color:black;fill:white;fill-opacity:1;fill-rule:nonzero;stroke:white;stroke-width:1.70000005;stroke-linecap:round;stroke-linejoin:round;marker:none;marker-start:none;marker-mid:none;marker-end:none;stroke-miterlimit:4;stroke-dasharray:none;stroke-dashoffset:0;stroke-opacity:1;visibility:visible;display:block;overflow:visible"
     id="path5582"
     sodipodi:sides="5"
     sodipodi:cx="141.42136"
     sodipodi:cy="350.13498"
     sodipodi:r1="78.688225"
     sodipodi:r2="45.665279"
     sodipodi:arg1="1.0612041"
     sodipodi:arg2="1.6895226"
     inkscape:flatsided="false"
     inkscape:rounded="0"
     inkscape:randomized="0"
     d="M 179.80715,418.82535 L 136.01242,395.47879 L 87.954791,407.86853 L 96.625376,359.00278 L 69.991407,317.1259 L 119.14486,310.27177 L 150.74179,272.0007 L 172.4497,316.63036 L 218.61165,334.85441 L 182.87443,369.29119 L 179.80715,418.82535 z "
     transform="matrix(0.164046,9.96525e-3,-9.96525e-3,0.164046,79.55929,302.6636)" />
  <path
     style="font-size:112.0508728px;font-style:normal;font-variant:normal;font-weight:normal;font-stretch:normal;text-align:start;line-height:125%;writing-mode:lr-tb;text-anchor:start;fill:url(#linearGradient3474);fill-opacity:1;stroke:none;stroke-width:1px;stroke-linecap:butt;stroke-linejoin:miter;stroke-opacity:1;font-family:Interstate-LightCondensed"
     d="M 74.546709,162.41077 C 69.485228,162.41077 65.642356,163.34132 62.998294,165.19752 C 60.354232,167.0537 59.030727,169.82174 59.030727,173.53413 L 59.030727,196.32402 L 66.847741,196.32402 L 66.847741,174.05369 C 66.847741,171.31158 67.604072,169.32573 69.114922,168.10234 C 70.625847,166.92112 73.083773,166.3311 76.48326,166.33111 C 78.900755,166.33111 80.980516,166.70534 82.718008,167.4647 C 84.531072,168.26623 86.086207,169.16811 87.37049,170.18059 L 87.37049,196.32402 L 95.069459,196.32402 L 95.069459,163.09565 L 87.37049,163.09565 L 87.37049,165.88239 C 86.086207,164.95429 84.384537,164.14345 82.269332,163.42628 C 80.154053,162.7513 77.568559,162.41077 74.546709,162.41077 z M 145.72675,162.41077 C 142.32726,162.41077 139.85044,162.97214 138.26394,164.11116 C 136.67752,165.29238 135.87872,167.06243 135.87872,169.42487 L 135.87872,192.63985 L 129.76201,192.63985 L 129.76201,196.32402 L 135.87872,196.32402 L 135.87872,206.69165 L 143.45957,209.21862 L 143.45957,196.32402 L 154.91359,196.32402 L 154.91359,192.63985 L 143.45957,192.63985 L 143.45957,169.87358 C 143.45957,168.65018 143.83773,167.75333 144.59316,167.20492 C 145.34866,166.69868 146.48308,166.44918 147.99393,166.44919 C 149.35378,166.44919 150.57322,166.51155 151.63086,166.63812 C 152.76408,166.76468 153.98352,167.00913 155.2678,167.34662 L 154.58296,163.35543 C 153.29868,163.01795 151.93263,162.77349 150.49727,162.64694 C 149.06192,162.47819 147.46431,162.41077 145.72675,162.41077 z M 214.3562,162.41077 C 212.24092,162.41077 210.2888,162.60294 208.47574,163.0248 C 206.6626,163.44666 205.06499,164.09907 203.70521,164.98497 C 202.34536,165.87088 201.29603,167.01216 200.5406,168.36212 C 199.78518,169.75426 199.40701,171.39958 199.40701,173.29797 C 199.40701,175.15415 199.8702,176.74214 200.77677,178.09211 C 201.68334,179.48424 202.92175,180.63057 204.50817,181.5165 C 206.09459,182.40239 207.94272,183.05478 210.058,183.47666 C 212.24886,183.8985 214.57914,184.11429 217.07213,184.11431 C 219.26291,184.11429 221.28123,183.96089 223.09429,183.6656 C 224.90736,183.41246 226.46249,183.04326 227.74678,182.57924 L 227.74678,187.27892 C 227.7467,191.16002 224.67913,193.08854 218.55993,193.08857 C 216.36916,193.08854 214.33194,192.86771 212.4433,192.40369 C 210.55467,191.93962 208.53635,191.25857 206.42107,190.37267 L 202.92583,193.65536 C 205.34332,194.70999 207.86262,195.54446 210.50675,196.13509 C 213.15082,196.72566 216.02938,197.00887 219.12673,197.0089 C 224.18828,197.00887 228.15872,196.35143 231.02943,195.0015 C 233.9757,193.65152 235.44567,191.20545 235.44574,187.70401 L 235.44574,163.09565 L 227.74678,163.09565 L 227.74678,165.88239 C 226.08471,164.91211 224.15156,164.10127 221.9607,163.42628 C 219.76993,162.7513 217.22691,162.41077 214.3562,162.41077 z M 261.44744,162.41077 C 257.74574,162.41077 254.38502,162.7108 251.36324,163.33182 C 248.34139,163.95284 245.44394,164.903 242.64873,166.18941 L 247.39568,172.9201 C 252.30609,170.87959 257.07533,169.84996 261.6836,169.84996 C 263.79888,169.84995 265.35394,170.09411 266.33609,170.58207 C 267.39365,171.11437 267.91835,171.82037 267.91835,172.70755 C 267.91835,173.19549 267.72927,173.62796 267.35156,173.98284 C 267.04942,174.38206 266.48217,174.78804 265.65117,175.18728 C 264.82017,175.5865 263.7283,175.96887 262.36852,176.36811 C 261.00866,176.81168 259.26452,177.35299 257.14924,177.97403 C 252.84319,179.21606 249.58646,180.62806 247.39568,182.22499 C 245.2804,183.86623 244.23107,186.03724 244.23107,188.74314 C 244.23107,190.29566 244.69426,191.70479 245.60083,192.94687 C 246.50732,194.18888 247.74573,195.22139 249.33223,196.06424 C 250.99422,196.95138 252.97,197.62802 255.23635,198.07164 C 257.5027,198.55955 259.93697,198.80371 262.58103,198.80375 C 265.75395,198.80371 268.67506,198.53307 271.31912,198.00079 C 274.03876,197.46845 276.72824,196.68011 279.37238,195.61553 L 274.71989,189.21547 C 272.15133,190.01389 269.96766,190.58169 268.15452,190.89224 C 266.41702,191.20272 264.44125,191.34093 262.2504,191.34095 C 260.73955,191.34093 259.52003,191.12325 258.61346,190.67969 C 257.70697,190.23607 257.26736,189.6654 257.26736,188.95568 C 257.26736,188.55643 257.37135,188.17694 257.59799,187.82209 C 257.90013,187.51156 258.42483,187.18505 259.18026,186.8302 C 259.93576,186.47531 260.96612,186.06932 262.2504,185.62576 C 263.53468,185.22652 265.19373,184.73818 267.23351,184.16154 C 271.61507,182.91948 274.97578,181.50748 277.31771,179.91058 C 279.73513,178.31365 280.95464,176.14265 280.95464,173.39243 C 280.95464,169.79937 279.10651,167.06057 275.40481,165.19752 C 271.77861,163.33445 267.11335,162.41077 261.44744,162.41077 z M 309.53057,162.41077 C 304.69566,162.41077 301.06083,163.22561 298.64342,164.86689 C 296.30149,166.50815 295.12452,169.24982 295.12452,173.10903 L 295.12452,190.60884 L 287.77984,190.60884 L 287.77984,198.07164 L 295.12452,198.07164 L 295.12452,207.70716 L 308.5151,211.65111 L 308.5151,198.07164 L 320.51227,198.07164 L 320.51227,190.60884 L 308.5151,190.60884 L 308.5151,173.32158 C 308.5151,172.03517 308.91216,171.11436 309.74316,170.58207 C 310.57415,170.09412 311.79359,169.84996 313.38009,169.84996 C 316.09965,169.84995 318.74666,170.41775 321.31523,171.52673 L 319.73288,163.92223 C 318.22196,163.43428 316.62435,163.07841 314.96236,162.81225 C 313.30036,162.5461 311.49478,162.41077 309.53057,162.41077 z M 346.06528,162.41077 C 340.85266,162.41077 336.6317,163.49627 333.3832,165.66985 C 330.13479,167.84342 328.49463,170.80276 328.49463,174.57326 C 328.49463,176.34759 328.95782,177.94789 329.86439,179.3674 C 330.77088,180.83121 332.00937,182.05204 333.59579,183.02795 C 335.25778,184.04818 337.19101,184.83365 339.38179,185.36598 C 341.64814,185.94262 344.10606,186.21615 346.75012,186.21617 C 349.39426,186.21615 351.38893,186.10732 352.74871,185.88554 C 354.10856,185.66373 355.43199,185.31072 356.71627,184.8228 L 356.71627,187.49146 C 356.71627,188.73348 356.19165,189.7395 355.13401,190.53799 C 354.07637,191.38078 352.22816,191.81325 349.5841,191.81328 C 347.09111,191.81325 344.92633,191.62494 343.11319,191.2701 C 341.30012,190.95956 339.45199,190.44187 337.56336,189.6878 L 332.13157,195.40298 C 334.8512,196.51191 337.68722,197.35325 340.6335,197.92994 C 343.5797,198.50657 346.8554,198.80371 350.48153,198.80375 C 357.43172,198.80371 362.40894,197.82706 365.43079,195.87531 C 368.52806,193.92349 370.0832,191.02001 370.0832,187.16083 L 370.0832,163.14288 L 356.71627,163.14288 L 356.71627,165.52815 C 355.35649,164.50789 353.73992,163.72242 351.85128,163.19012 C 349.96264,162.65781 348.02942,162.41077 346.06528,162.41077 z M 110.63267,163.09565 L 110.63267,206.69165 L 118.33164,209.21862 L 118.33164,163.09565 L 110.63267,163.09565 z M 167.83176,163.09565 L 167.83176,196.32402 L 175.53073,196.32402 L 175.53073,193.46643 C 176.73952,194.43669 178.31347,195.27115 180.27767,195.94616 C 182.31738,196.66329 184.54368,197.00887 186.9611,197.0089 C 188.69866,197.00887 190.14974,196.9465 191.28295,196.81997 C 192.41609,196.69338 193.40397,196.53492 194.23497,196.32402 L 192.06225,191.83689 C 191.00461,192.17436 189.91274,192.42384 188.7796,192.59262 C 187.72196,192.76134 186.44101,192.82876 184.93008,192.82879 C 183.04144,192.82876 181.27841,192.45451 179.61642,191.6952 C 177.95442,190.978 176.58837,190.10982 175.53073,189.09738 L 175.53073,163.09565 L 167.83176,163.09565 z M 381.91508,163.14288 L 381.91508,198.07164 L 395.28201,198.07164 L 395.28201,195.66276 C 396.41514,196.41683 397.97028,197.14645 399.93441,197.81186 C 401.89862,198.47721 403.97838,198.80371 406.16916,198.80375 C 408.13337,198.80371 409.83496,198.6419 411.27032,198.33142 C 412.70567,198.06523 414.13316,197.62988 415.56851,197.0089 L 411.71907,189.35716 C 410.58586,189.88944 409.36634,190.29829 408.08213,190.60884 C 406.87335,190.91932 405.4884,191.08114 403.90198,191.08117 C 400.50249,191.08114 397.62385,190.07798 395.28201,188.08188 L 395.28201,163.14288 L 381.91508,163.14288 z M 215.72596,166.18941 C 218.14345,166.18941 220.36967,166.52489 222.40945,167.15768 C 224.52466,167.83266 226.31135,168.64351 227.74678,169.6138 L 227.74678,178.84784 C 226.31135,179.31187 224.79884,179.68106 223.21241,179.93419 C 221.70149,180.18729 219.62173,180.31203 216.97767,180.31206 C 213.5781,180.31204 211.07771,179.69336 209.49121,178.46997 C 207.90479,177.28875 207.10598,175.63838 207.10598,173.4869 C 207.10598,171.25103 207.81969,169.45735 209.25504,168.14958 C 210.69047,166.8418 212.85525,166.1894 215.72596,166.18941 z M 348.89926,169.37763 C 350.48568,169.37762 351.95572,169.64828 353.3155,170.18059 C 354.75086,170.75724 355.88528,171.46325 356.71627,172.30607 L 356.71627,177.90318 C 355.65863,178.43547 354.52421,178.84145 353.3155,179.10762 C 352.18237,179.41811 350.58468,179.57993 348.54498,179.57995 C 346.65634,179.57993 345.12493,179.12097 343.91615,178.23381 C 342.70744,177.34662 342.09772,176.17877 342.09772,174.71495 C 342.09772,173.02931 342.66489,171.72614 343.7981,170.79462 C 345.00681,169.86309 346.70841,169.37763 348.89926,169.37763 z M 469.4613,190.7033 C 467.83928,190.7033 466.3638,190.85007 464.99782,191.15202 C 463.63184,191.46984 462.44649,191.94152 461.47893,192.54539 C 460.51145,193.14926 459.77605,193.89132 459.2354,194.76534 C 458.69468,195.63935 458.40886,196.64406 458.40879,197.78824 C 458.40879,199.3138 458.8165,200.70521 459.61327,201.94474 C 460.41003,203.20014 461.48278,204.26666 462.84868,205.15658 C 464.21466,206.04648 465.80282,206.73446 467.59563,207.21122 C 469.41686,207.70383 471.3188,207.94331 473.31082,207.94333 C 475.90039,207.94331 477.9992,207.61885 479.5928,206.95143 C 481.1864,206.28398 482.36685,205.35653 483.13527,204.16469 L 478.86065,203.10195 C 478.23461,203.86472 477.44298,204.46001 476.47543,204.87318 C 475.53628,205.28635 474.3182,205.48721 472.83849,205.48721 C 471.501,205.48721 470.23138,205.3018 469.0362,204.92042 C 467.86943,204.5549 466.82948,204.02915 465.91883,203.36173 C 465.00825,202.69429 464.28683,201.89043 463.74611,200.95285 C 463.23388,200.03114 462.99038,199.01098 462.99038,197.88271 C 462.99038,197.08814 463.14485,196.39242 463.48637,195.80446 C 463.8563,195.21648 464.37178,194.73752 464.99782,194.34024 C 465.62387,193.95885 466.34528,193.6494 467.17054,193.44281 C 468.02421,193.25212 468.93765,193.15942 469.93363,193.15942 C 471.86874,193.15942 473.4569,193.49203 474.68057,194.12769 C 475.90425,194.77923 476.74734,195.70669 477.23115,196.91443 C 477.23115,196.93032 477.23108,196.95351 477.23115,196.98528 C 477.25957,197.03296 477.27838,197.05613 477.27838,197.05613 L 472.34251,197.05613 L 473.051,199.46501 L 482.52124,199.46501 L 482.02526,197.88271 C 481.65533,196.64318 481.09329,195.57667 480.32487,194.67087 C 479.58501,193.76506 478.66673,193.01528 477.58536,192.42731 C 476.53248,191.83933 475.3144,191.39083 473.94843,191.10478 C 472.58252,190.83463 471.08339,190.7033 469.4613,190.7033 z M 427.21147,190.9867 L 432.50156,207.68354 L 436.82334,207.68354 L 445.34892,197.03252 C 445.60504,196.71469 445.89085,196.35116 446.17546,195.96978 C 446.46006,195.58838 446.67084,195.29482 446.81314,195.07235 C 446.84156,195.1518 446.87428,195.29086 446.93118,195.49745 C 446.98809,195.71993 447.03963,195.94395 447.09654,196.18232 C 447.15344,196.43658 447.22849,196.69195 447.28547,196.91443 C 447.37079,197.1528 447.42233,197.32276 447.45075,197.434 L 450.63901,207.68354 L 455.05525,207.68354 L 449.74158,190.9867 L 445.6559,190.9867 L 436.94146,201.68496 C 436.68534,202.00278 436.40429,202.34268 436.09126,202.72409 C 435.80666,203.10546 435.59588,203.40675 435.45358,203.64513 C 435.42517,203.56566 435.39244,203.41889 435.33554,203.19642 C 435.27863,202.98981 435.20351,202.76579 435.1466,202.51154 C 435.0897,202.27316 435.01942,202.04141 434.93402,201.80304 C 434.87711,201.56466 434.84439,201.37109 434.81597,201.25987 L 431.60413,190.9867 L 427.21147,190.9867 z "
     id="text5584" />
  <path
     transform="matrix(0.76534,5.189341e-2,-5.189341e-2,0.76534,-45.40995,328.4406)"
     d="M 179.80715,418.82535 L 136.01242,395.47879 L 87.954791,407.86853 L 96.625376,359.00278 L 69.991407,317.1259 L 119.14486,310.27177 L 150.74179,272.0007 L 172.4497,316.63036 L 218.61165,334.85441 L 182.87443,369.29119 L 179.80715,418.82535 z "
     inkscape:randomized="0"
     inkscape:rounded="0"
     inkscape:flatsided="false"
     sodipodi:arg2="1.6895226"
     sodipodi:arg1="1.0612041"
     sodipodi:r2="45.665279"
     sodipodi:r1="78.688225"
     sodipodi:cy="350.13498"
     sodipodi:cx="141.42136"
     sodipodi:sides="5"
     id="path6523"
     style="opacity:0.22790701;color:black;fill:white;fill-opacity:1;fill-rule:nonzero;stroke:white;stroke-width:1.70000005;stroke-linecap:round;stroke-linejoin:round;marker:none;marker-start:none;marker-mid:none;marker-end:none;stroke-miterlimit:4;stroke-dasharray:none;stroke-dashoffset:0;stroke-opacity:1;visibility:visible;display:block;overflow:visible"
     sodipodi:type="star" />
  <text
     xml:space="preserve"
     style="font-size:33.91344452px;font-style:normal;font-weight:normal;fill:black;fill-opacity:1;stroke:none;stroke-width:1px;stroke-linecap:butt;stroke-linejoin:miter;stroke-opacity:1;font-family:Trebuchet MS"
     x="105.2536"
     y="261.2139"
     id="text6525"><tspan
       sodipodi:role="line"
       id="tspan6527"
       x="105.2536"
       y="261.2139">Press &quot;S&quot; to Start</tspan></text>
  <text
     xml:space="preserve"
     x="761.07501"
     y="593.94653"
     id="text1892"
     style="fill:white;fill-opacity:1"><tspan
       sodipodi:role="line"
       id="tspan1894"
       x="761.07501"
       y="593.94653">0.1.0</tspan></text>
  <text
     xml:space="preserve"
     style="font-size:33.91344452px;font-style:normal;font-weight:normal;fill:#000000;fill-opacity:1;stroke:none;stroke-width:1px;stroke-linecap:butt;stroke-linejoin:miter;stroke-opacity:1;font-family:Trebuchet MS"
     x="78.109444"
     y="297.87573"
     id="text2306"><tspan
       sodipodi:role="line"
       id="tspan2308"
       x="78.109444"
       y="297.87573">Press &quot;P&quot; to Practice</tspan></text>
</svg>
