<?xml version="1.0" encoding="UTF-8" standalone="no"?>
<!-- Created with Sodipodi ("http://www.sodipodi.com/") -->
<svg
   xmlns:dc="http://purl.org/dc/elements/1.1/"
   xmlns:cc="http://creativecommons.org/ns#"
   xmlns:rdf="http://www.w3.org/1999/02/22-rdf-syntax-ns#"
   xmlns:svg="http://www.w3.org/2000/svg"
   xmlns="http://www.w3.org/2000/svg"
   xmlns:xlink="http://www.w3.org/1999/xlink"
   xmlns:sodipodi="http://sodipodi.sourceforge.net/DTD/sodipodi-0.dtd"
   xmlns:inkscape="http://www.inkscape.org/namespaces/inkscape"
   version="1.0"
   x="0"
   y="0"
   width="1000"
   height="800"
   id="svg559"
   sodipodi:version="0.32"
   inkscape:version="0.46"
   sodipodi:docname="intro.svg"
   sodipodi:docbase="/root/UltraStar-ng/themes/lima"
   inkscape:output_extension="org.inkscape.output.svg.inkscape">
  <metadata
     id="metadata35">
    <rdf:RDF>
      <cc:Work
         rdf:about="">
        <dc:format>image/svg+xml</dc:format>
        <dc:type
           rdf:resource="http://purl.org/dc/dcmitype/StillImage" />
      </cc:Work>
    </rdf:RDF>
  </metadata>
  <sodipodi:namedview
     inkscape:window-height="801"
     inkscape:window-width="1439"
     inkscape:pageshadow="2"
     inkscape:pageopacity="0.0"
     guidetolerance="10.0"
     gridtolerance="10.0"
     objecttolerance="10.0"
     borderopacity="1.0"
     bordercolor="#666666"
     pagecolor="#ffffff"
     id="base"
     inkscape:zoom="1.12"
     inkscape:cx="500"
     inkscape:cy="551.06645"
     inkscape:window-x="0"
     inkscape:window-y="25"
     inkscape:current-layer="svg559"
     showgrid="false"
     showguides="true"
     inkscape:guide-bbox="true" />
  <defs
     id="defs561">
    <inkscape:perspective
       sodipodi:type="inkscape:persp3d"
       inkscape:vp_x="0 : 300 : 1"
       inkscape:vp_y="0 : 1000 : 0"
       inkscape:vp_z="800 : 300 : 1"
       inkscape:persp3d-origin="400 : 200 : 1"
       id="perspective63" />
    <linearGradient
       id="linearGradient3751"
       inkscape:collect="always">
      <stop
         id="stop3753"
         offset="0"
         style="stop-color:black;stop-opacity:1;" />
      <stop
         id="stop3755"
         offset="1"
         style="stop-color:black;stop-opacity:0;" />
    </linearGradient>
    <linearGradient
       id="linearGradient6499"
       inkscape:collect="always">
      <stop
         id="stop6501"
         offset="0"
         style="stop-color:white;stop-opacity:1;" />
      <stop
         id="stop6503"
         offset="1"
         style="stop-color:white;stop-opacity:0;" />
    </linearGradient>
    <linearGradient
       inkscape:collect="always"
       xlink:href="#linearGradient6499"
       id="linearGradient3474"
       gradientUnits="userSpaceOnUse"
       gradientTransform="matrix(0.755727,0,0,0.755727,4.33502,31.78829)"
       x1="370.92285"
       y1="100.34026"
       x2="372.94315"
       y2="219.56401" />
    <linearGradient
       inkscape:collect="always"
       xlink:href="#linearGradient3751"
       id="linearGradient3484"
       gradientUnits="userSpaceOnUse"
       gradientTransform="matrix(0.755727,0,0,0.755727,48.1083,31.78829)"
       x1="665.12128"
       y1="684.16162"
       x2="381.28015"
       y2="449.80624" />
    <linearGradient
       inkscape:collect="always"
       xlink:href="#linearGradient6499"
       id="linearGradient7248"
       x1="47.094612"
       y1="260.4765"
       x2="358.07056"
       y2="260.4765"
       gradientUnits="userSpaceOnUse"
       gradientTransform="matrix(1,0,0,0.820512,12.9075,56.85372)" />
    <linearGradient
       inkscape:collect="always"
       xlink:href="#linearGradient6499"
       id="linearGradient7256"
       gradientUnits="userSpaceOnUse"
       gradientTransform="matrix(1,0,0,0.820512,12.9075,130.1193)"
       x1="44.868057"
       y1="260.4765"
       x2="358.07056"
       y2="260.4765" />
    <linearGradient
       inkscape:collect="always"
       xlink:href="#linearGradient6499"
       id="linearGradient7335"
       gradientUnits="userSpaceOnUse"
       gradientTransform="matrix(1,0,0,0.820512,49.94643,155.9343)"
       x1="44.868057"
       y1="260.4765"
       x2="358.07056"
       y2="260.4765" />
    <linearGradient
       inkscape:collect="always"
       xlink:href="#linearGradient6499"
       id="linearGradient7346"
       gradientUnits="userSpaceOnUse"
       gradientTransform="matrix(1,0,0,0.820512,49.94643,82.66873)"
       x1="47.094612"
       y1="260.4765"
       x2="358.07056"
       y2="260.4765" />
    <linearGradient
       inkscape:collect="always"
       xlink:href="#linearGradient6499"
       id="linearGradient6391"
       gradientUnits="userSpaceOnUse"
       gradientTransform="matrix(1,0,0,0.820512,49.94643,155.9343)"
       x1="44.868057"
       y1="260.4765"
       x2="358.07056"
       y2="260.4765" />
    <linearGradient
       inkscape:collect="always"
       xlink:href="#linearGradient6499"
       id="linearGradient6423"
       gradientUnits="userSpaceOnUse"
       gradientTransform="matrix(1,0,0,0.820512,49.94643,155.9343)"
       x1="44.868057"
       y1="260.4765"
       x2="358.07056"
       y2="260.4765" />
    <linearGradient
       inkscape:collect="always"
       xlink:href="#linearGradient6499"
       id="linearGradient6425"
       gradientUnits="userSpaceOnUse"
       gradientTransform="matrix(1,0,0,0.820512,49.94643,155.9343)"
       x1="44.868057"
       y1="260.4765"
       x2="358.07056"
       y2="260.4765" />
    <linearGradient
       inkscape:collect="always"
       xlink:href="#linearGradient6499"
       id="linearGradient6427"
       gradientUnits="userSpaceOnUse"
       gradientTransform="matrix(1,0,0,0.820512,49.94643,155.9343)"
       x1="44.868057"
       y1="260.4765"
       x2="358.07056"
       y2="260.4765" />
    <linearGradient
       inkscape:collect="always"
       xlink:href="#linearGradient6499"
       id="linearGradient6449"
       gradientUnits="userSpaceOnUse"
       gradientTransform="matrix(1,0,0,0.820512,49.94643,155.9343)"
       x1="44.868057"
       y1="260.4765"
       x2="358.07056"
       y2="260.4765" />
    <linearGradient
       inkscape:collect="always"
       xlink:href="#linearGradient6499"
       id="linearGradient2234"
       gradientUnits="userSpaceOnUse"
       gradientTransform="matrix(1,0,0,0.820512,30.865771,26.07382)"
       x1="44.868057"
       y1="260.4765"
       x2="358.07056"
       y2="260.4765" />
    <linearGradient
       inkscape:collect="always"
       xlink:href="#linearGradient6499"
       id="linearGradient2246"
       gradientUnits="userSpaceOnUse"
       gradientTransform="matrix(1,0,0,0.820512,30.865771,97.46637)"
       x1="44.868057"
       y1="260.4765"
       x2="358.07056"
       y2="260.4765" />
    <linearGradient
       inkscape:collect="always"
       xlink:href="#linearGradient6499"
       id="linearGradient2257"
       gradientUnits="userSpaceOnUse"
       gradientTransform="matrix(1,0,0,0.820512,30.865771,169.0347)"
       x1="44.868057"
       y1="260.4765"
       x2="358.07056"
       y2="260.4765" />
    <linearGradient
       inkscape:collect="always"
       xlink:href="#linearGradient6499"
       id="linearGradient2268"
       gradientUnits="userSpaceOnUse"
       gradientTransform="matrix(1,0,0,0.820512,30.865771,235.2241)"
       x1="44.868057"
       y1="260.4765"
       x2="358.07056"
       y2="260.4765" />
    <linearGradient
       inkscape:collect="always"
       xlink:href="#linearGradient6499"
       id="linearGradient2241"
       gradientUnits="userSpaceOnUse"
       gradientTransform="matrix(1,0,0,0.820512,30.865771,235.2241)"
       x1="44.868057"
       y1="260.4765"
       x2="358.07056"
       y2="260.4765" />
    <linearGradient
       inkscape:collect="always"
       xlink:href="#linearGradient6499"
       id="linearGradient2243"
       gradientUnits="userSpaceOnUse"
       gradientTransform="matrix(1,0,0,0.820512,30.865771,97.46637)"
       x1="44.868057"
       y1="260.4765"
       x2="358.07056"
       y2="260.4765" />
    <linearGradient
       inkscape:collect="always"
       xlink:href="#linearGradient6499"
       id="linearGradient2245"
       gradientUnits="userSpaceOnUse"
       gradientTransform="matrix(1,0,0,0.820512,30.865771,169.0347)"
       x1="44.868057"
       y1="260.4765"
       x2="358.07056"
       y2="260.4765" />
    <linearGradient
       inkscape:collect="always"
       xlink:href="#linearGradient3751"
       id="linearGradient2471"
       gradientUnits="userSpaceOnUse"
       gradientTransform="matrix(0.755727,0,0,0.755727,48.1083,31.78829)"
       x1="665.12128"
       y1="684.16162"
       x2="381.28015"
       y2="449.80624" />
    <linearGradient
       inkscape:collect="always"
       xlink:href="#linearGradient6499"
       id="linearGradient2473"
       gradientUnits="userSpaceOnUse"
       gradientTransform="matrix(0.755727,0,0,0.755727,4.33502,31.78829)"
       x1="370.92285"
       y1="100.34026"
       x2="372.94315"
       y2="219.56401" />
    <linearGradient
       inkscape:collect="always"
       xlink:href="#linearGradient6499"
       id="linearGradient2475"
       gradientUnits="userSpaceOnUse"
       gradientTransform="matrix(1,0,0,0.820512,30.865771,169.0347)"
       x1="44.868057"
       y1="260.4765"
       x2="358.07056"
       y2="260.4765" />
    <linearGradient
       inkscape:collect="always"
       xlink:href="#linearGradient6499"
       id="linearGradient2477"
       gradientUnits="userSpaceOnUse"
       gradientTransform="matrix(1,0,0,0.820512,30.865771,97.46637)"
       x1="44.868057"
       y1="260.4765"
       x2="358.07056"
       y2="260.4765" />
    <linearGradient
       inkscape:collect="always"
       xlink:href="#linearGradient6499"
       id="linearGradient2479"
       gradientUnits="userSpaceOnUse"
       gradientTransform="matrix(1,0,0,0.820512,30.865771,26.07382)"
       x1="44.868057"
       y1="260.4765"
       x2="358.07056"
       y2="260.4765" />
    <linearGradient
       inkscape:collect="always"
       xlink:href="#linearGradient6499"
       id="linearGradient2481"
       gradientUnits="userSpaceOnUse"
       gradientTransform="matrix(1,0,0,0.820512,30.865771,235.2241)"
       x1="44.868057"
       y1="260.4765"
       x2="358.07056"
       y2="260.4765" />
    <linearGradient
       inkscape:collect="always"
       xlink:href="#linearGradient6499"
       id="linearGradient2494"
       gradientUnits="userSpaceOnUse"
       gradientTransform="matrix(1.2483528,0,0,1.0242885,40.754503,32.226123)"
       x1="44.868057"
       y1="260.4765"
       x2="358.07056"
       y2="260.4765" />
    <linearGradient
       inkscape:collect="always"
       xlink:href="#linearGradient3751"
       id="linearGradient2518"
       gradientUnits="userSpaceOnUse"
       gradientTransform="matrix(0.9434139,0,0,0.9434139,62.279262,39.359798)"
       x1="665.12128"
       y1="684.16162"
       x2="381.28015"
       y2="449.80624" />
    <linearGradient
       inkscape:collect="always"
       xlink:href="#linearGradient6499"
       id="linearGradient3248"
       x1="311.95688"
       y1="-116.67703"
       x2="311.95688"
       y2="-276.41519"
       gradientUnits="userSpaceOnUse" />
  </defs>
  <rect
     style="fill:#81d000;fill-opacity:1;fill-rule:nonzero;stroke:none;stroke-width:3;stroke-linecap:round;stroke-linejoin:miter;marker:none;marker-start:none;marker-mid:none;marker-end:none;stroke-miterlimit:4;stroke-dasharray:none;stroke-dashoffset:0;stroke-opacity:1;visibility:visible;display:block;overflow:visible"
     id="rect2828"
     width="1004.6801"
     height="806.03967"
     x="-1.4212481"
     y="-3.1865866" />
  <path
     style="fill:#000000;fill-opacity:1;fill-rule:evenodd;stroke:#000000;stroke-width:0.67309088px;stroke-linecap:butt;stroke-linejoin:miter;stroke-opacity:1"
     d="M 794.42889,322.92369 L 780.83033,322.92369 L 778.11066,329.72293 L 780.83033,337.2021 L 779.47049,345.36119 L 772.67131,341.28164 L 767.23197,331.08278 L 755.67315,328.36307 L 750.91373,323.60361 L 740.71485,318.84413 L 729.15616,299.80625 L 729.83607,290.96723 L 758.39293,269.20965 L 771.9913,275.32896 L 774.03114,280.08844 L 774.03114,285.52784 L 777.43073,290.2873 L 784.23001,292.32708 L 788.98944,288.24753 L 789.66936,283.48806 L 787.62961,279.40852 L 783.5501,277.36875 L 780.83033,273.96912 L 786.94969,271.24943 L 785.58985,264.45018 L 785.58985,260.37062 L 781.51034,256.29108 L 779.47049,250.17177 L 771.31147,248.132 L 764.51219,246.77214 L 750.23372,256.97101 L 714.19776,271.24943 L 706.03865,279.40852 L 699.91938,284.16799 L 698.55944,295.04678 L 701.27921,300.48618 L 708.07849,318.84413 L 716.91743,335.84224 L 726.43638,348.08088 L 711.47808,372.55817 L 694.47994,409.27408 L 684.28107,425.59226 L 667.28301,446.66993 L 666.60309,456.18888 L 657.76406,464.34796 L 671.36253,476.58662 L 667.96293,490.86501 L 669.32277,522.82147 L 675.44203,559.53739 L 681.56139,592.17377 L 688.36057,603.05256 L 697.87963,622.77036 L 712.83793,645.20787 L 716.91743,659.48624 L 720.99703,669.68512 L 708.75832,686.68323 L 687.00074,695.52225 L 684.96098,702.32155 L 726.43638,700.9617 L 720.31712,711.84046 L 727.79623,718.63969 L 747.51405,720.6795 L 763.15236,707.08098 L 768.5918,688.04314 L 777.43073,671.72493 L 788.30953,662.206 L 791.70912,651.32718 L 780.15051,650.64727 L 787.62961,643.16809 L 772.67131,647.92757 L 783.5501,637.04877 L 775.39099,635.009 L 769.27162,627.52983 L 759.07276,606.45217 L 735.27542,586.73436 L 730.51599,585.37452 L 735.27542,581.29497 L 734.5955,569.73625 L 739.35502,559.53739 L 735.27542,560.21731 L 742.75461,547.29875 L 742.75461,534.38018 L 747.51405,527.58094 L 747.51405,518.74192 L 757.71291,505.14342 L 758.39293,493.58472 L 756.35308,484.06577 L 761.1126,473.18698 L 766.55195,464.34796 L 766.55195,458.90857 L 772.67131,458.22865 L 778.11066,452.78925 L 782.87018,439.19077 L 793.74896,426.95212 L 806.66752,422.19265 L 814.82653,428.99189 L 834.54445,435.11122 L 850.18266,443.2703 L 857.66177,452.78925 L 870.58031,454.1491 L 911.37589,471.82713 L 932.45346,479.30631 L 949.4516,492.22487 L 953.53121,490.86501 L 953.53121,486.78547 L 944.01225,479.30631 L 962.37014,484.06577 L 964.41,480.66614 L 960.3304,476.58662 L 967.12968,476.58662 L 967.80959,472.50706 L 955.57096,469.78736 L 965.08982,467.06766 L 965.08982,462.30819 L 961.69023,461.62828 L 951.49136,462.30819 L 943.33234,458.90857 L 937.8929,456.18888 L 946.05201,449.38963 L 948.09177,444.63016 L 946.73193,441.23053 L 939.25283,442.59039 L 923.61442,450.74947 L 921.57476,454.82902 L 916.13532,453.46918 L 896.41749,442.59039 L 895.73758,435.11122 L 884.17887,428.99189 L 864.46105,418.79302 L 859.70161,422.19265 L 860.38154,417.43318 L 849.50275,407.23431 L 839.98379,404.51461 L 831.14476,394.31575 L 828.4251,390.91612 L 837.26412,397.03545 L 835.90429,390.23619 L 842.70347,393.63582 L 840.66371,383.43695 L 850.18266,392.27598 L 846.10316,386.15666 L 855.62201,390.23619 L 847.46299,378.67749 L 853.58226,380.71726 L 850.86259,369.83847 L 855.62201,373.91801 L 848.82283,363.71914 L 855.62201,365.75891 L 849.50275,357.59983 L 857.66177,356.9199 L 848.82283,351.4805 L 854.26218,348.76082 L 848.14292,348.08088 L 856.30194,340.60172 L 848.82283,341.28164 L 849.50275,336.52217 L 850.18266,322.92369 L 846.10316,332.44263 L 841.34364,318.84413 L 842.02355,329.72293 L 839.30388,330.40285 L 832.5046,330.40285 L 825.02541,319.52406 L 817.5463,319.52406 L 808.70726,312.04489 L 804.62766,316.12443 L 794.42889,322.92369 z"
     id="path1939" />
  <path
     id="path2864"
     d="M 435.88424,549.14748 L 422.27662,549.14748 L 425.93151,551.82116 L 435.66696,554.76219 L 441.95775,557.97059 L 431.32821,556.36638 L 416.32067,552.3559 L 402.20371,551.28642 L 392.97758,549.41486 L 378.30844,547.54329 L 348.88817,540.05702 L 341.27935,536.58125 L 349.45101,528.02552 L 368.79722,530.43182 L 375.30188,532.30338 L 380.40291,534.44231 L 388.26826,536.31389 L 396.98502,537.11598 L 397.92173,535.51178 L 394.13874,533.64022 L 388.27174,532.03601 L 382.27663,531.23392 L 376.3669,529.89708 L 379.9398,528.82762 L 372.20267,526.15395 L 368.37693,524.54974 L 360.46886,522.94554 L 352.689,520.53924 L 342.61155,519.73714 L 334.53244,519.20241 L 329.80904,523.21292 L 307.13918,528.82762 L 306.62625,532.03601 L 304.96631,533.90758 L 313.80771,538.18545 L 321.6303,540.32439 L 345.65028,547.54329 L 370.43602,554.22746 L 391.43879,559.04006 L 399.42525,568.66525 L 416.84803,583.10307 L 421.94558,589.51986 L 424.70281,597.80824 L 432.94938,601.55137 L 431.75595,604.75978 L 456.84095,609.57239 L 466.82945,615.18708 L 498.15899,627.75333 L 538.71466,642.19113 L 575.44459,655.02474 L 592.45048,659.3026 L 620.46723,667.05624 L 656.47743,675.87935 L 673.95003,681.49403 L 687.59688,685.50454 L 691.29082,692.1887 L 677.80792,695.66447 L 682.14329,698.33816 L 722.37112,697.80343 L 726.44988,702.08128 L 740.31033,704.75495 L 761.95422,705.55705 L 764.85022,700.20971 L 752.43961,692.72346 L 745.98128,686.30664 L 747.94047,682.56352 L 741.14016,678.28565 L 728.93615,678.01828 L 729.40635,675.07723 L 718.90144,676.94881 L 719.58531,672.67094 L 709.50786,671.86884 L 696.37054,668.92781 L 666.39809,660.63943 L 624.09342,652.8858 L 618.05549,652.35107 L 618.99239,650.74686 L 607.47217,646.20163 L 602.67029,642.19113 L 599.2257,642.4585 L 594.59486,637.37853 L 582.47972,632.29855 L 580.86601,629.62488 L 572.5768,626.14912 L 570.02977,620.80179 L 559.87043,616.25656 L 548.9024,612.51341 L 543.46287,608.23555 L 540.61667,604.75978 L 535.51554,602.62085 L 541.0014,602.35348 L 541.34329,600.21455 L 533.35333,594.86722 L 532.7619,590.05461 L 541.22564,588.18304 L 555.76648,590.8567 L 581.2363,593.26301 L 604.53655,596.4714 L 620.94761,600.21455 L 635.15005,600.74928 L 692.55132,607.70081 L 720.65703,610.64185 L 749.78154,615.72183 L 752.58866,615.18708 L 748.76284,613.58289 L 732.22347,610.64185 L 755.0572,612.51341 L 753.91011,611.17659 L 746.00213,609.57239 L 752.80584,609.57239 L 749.6605,607.96818 L 734.86305,606.89872 L 741.83781,605.82925 L 737.37432,603.95767 L 733.3349,603.69031 L 723.7668,603.95767 L 712.41413,602.62085 L 704.42049,601.55137 L 706.20874,598.87771 L 703.78643,597.00615 L 699.23748,595.6693 L 693.02859,596.20404 L 685.03145,599.41243 L 686.81611,601.01664 L 680.09788,600.48191 L 650.16467,596.20404 L 642.47038,593.26301 L 625.16523,590.8567 L 595.86969,586.8462 L 594.29523,588.18304 L 590.51213,586.31147 L 570.06157,582.30096 L 557.98578,581.23151 L 539.57628,577.22099 L 533.66664,575.88417 L 548.25021,578.29047 L 540.51318,575.61679 L 550.50506,576.95363 L 538.89937,572.94314 L 556.71396,576.4189 L 546.89301,574.0126 L 560.24412,575.61679 L 541.2398,571.07157 L 549.27608,571.87367 L 536.35245,567.59579 L 544.9409,569.2 L 528.57258,565.18949 L 537.28925,565.9916 L 523.51419,562.78319 L 531.04112,562.51582 L 517.0952,560.37689 L 519.9876,559.30743 L 513.22664,559.04006 L 514.37712,556.09902 L 507.53068,556.36638 L 503.74758,554.49483 L 491.67529,549.14748 L 496.51991,552.89062 L 479.00458,547.54329 L 489.88705,551.82116 L 487.80313,552.08853 L 480.99942,552.08853 L 463.31306,547.81066 L 455.82886,547.81066 L 439.97007,544.86963 L 439.71346,546.47381 L 435.88424,549.14748 z"
     style="opacity:0.22790701;fill:url(#linearGradient2518);fill-opacity:1;fill-rule:evenodd;stroke:none;stroke-width:0.44754833px;stroke-linecap:butt;stroke-linejoin:miter;stroke-opacity:1" />
  <path
     style="fill:none;fill-opacity:0.75;fill-rule:evenodd;stroke:#ffffff;stroke-width:1.60380363;stroke-linecap:round;stroke-linejoin:round;stroke-miterlimit:4;stroke-dasharray:none;stroke-opacity:1"
     d="M 771.30524,245.79281 C 744.68389,235.95291 733.65301,271.94599 739.14907,293.4498 C 745.58088,318.61485 747.55877,349.47051 735.97609,372.1664 C 727.67642,388.42935 689.29323,394.51818 689.77749,417.37499"
     id="path3759"
     sodipodi:nodetypes="cssc" />
  <path
     sodipodi:type="star"
     style="opacity:0.22790701;fill:#ffffff;fill-opacity:1;fill-rule:nonzero;stroke:#ffffff;stroke-width:1.70000005;stroke-linecap:round;stroke-linejoin:round;marker:none;marker-start:none;marker-mid:none;marker-end:none;stroke-miterlimit:4;stroke-dasharray:none;stroke-dashoffset:0;stroke-opacity:1;visibility:visible;display:block;overflow:visible"
     id="path5574"
     sodipodi:sides="5"
     sodipodi:cx="141.42136"
     sodipodi:cy="350.13498"
     sodipodi:r1="78.688225"
     sodipodi:r2="45.665279"
     sodipodi:arg1="1.0612041"
     sodipodi:arg2="1.6895226"
     inkscape:flatsided="false"
     inkscape:rounded="0"
     inkscape:randomized="0"
     d="M 179.80715,418.82535 L 136.01242,395.47879 L 87.954791,407.86853 L 96.625376,359.00278 L 69.991407,317.1259 L 119.14486,310.27177 L 150.74179,272.0007 L 172.4497,316.63036 L 218.61165,334.85441 L 182.87443,369.29119 L 179.80715,418.82535 z"
     transform="matrix(0.6171045,-0.2551458,0.2551458,0.6171045,-48.77856,487.49674)" />
  <path
     transform="matrix(0.5368229,1.5964048e-2,-1.5964048e-2,0.5368229,6.5592731,406.45942)"
     d="M 179.80715,418.82535 L 136.01242,395.47879 L 87.954791,407.86853 L 96.625376,359.00278 L 69.991407,317.1259 L 119.14486,310.27177 L 150.74179,272.0007 L 172.4497,316.63036 L 218.61165,334.85441 L 182.87443,369.29119 L 179.80715,418.82535 z"
     inkscape:randomized="0"
     inkscape:rounded="0"
     inkscape:flatsided="false"
     sodipodi:arg2="1.6895226"
     sodipodi:arg1="1.0612041"
     sodipodi:r2="45.665279"
     sodipodi:r1="78.688225"
     sodipodi:cy="350.13498"
     sodipodi:cx="141.42136"
     sodipodi:sides="5"
     id="path5576"
     style="opacity:0.22790701;fill:#ffffff;fill-opacity:1;fill-rule:nonzero;stroke:#ffffff;stroke-width:1.70000005;stroke-linecap:round;stroke-linejoin:round;marker:none;marker-start:none;marker-mid:none;marker-end:none;stroke-miterlimit:4;stroke-dasharray:none;stroke-dashoffset:0;stroke-opacity:1;visibility:visible;display:block;overflow:visible"
     sodipodi:type="star" />
  <path
     sodipodi:type="star"
     style="opacity:0.22790701;fill:#ffffff;fill-opacity:1;fill-rule:nonzero;stroke:#ffffff;stroke-width:1.70000005;stroke-linecap:round;stroke-linejoin:round;marker:none;marker-start:none;marker-mid:none;marker-end:none;stroke-miterlimit:4;stroke-dasharray:none;stroke-dashoffset:0;stroke-opacity:1;visibility:visible;display:block;overflow:visible"
     id="path5578"
     sodipodi:sides="5"
     sodipodi:cx="141.42136"
     sodipodi:cy="350.13498"
     sodipodi:r1="78.688225"
     sodipodi:r2="45.665279"
     sodipodi:arg1="1.0612041"
     sodipodi:arg2="1.6895226"
     inkscape:flatsided="false"
     inkscape:rounded="0"
     inkscape:randomized="0"
     d="M 179.80715,418.82535 L 136.01242,395.47879 L 87.954791,407.86853 L 96.625376,359.00278 L 69.991407,317.1259 L 119.14486,310.27177 L 150.74179,272.0007 L 172.4497,316.63036 L 218.61165,334.85441 L 182.87443,369.29119 L 179.80715,418.82535 z"
     transform="matrix(0.3852517,-0.1964008,0.1964008,0.3852517,15.210382,430.94873)" />
  <path
     transform="matrix(0.2727826,6.8080206e-2,-6.8080206e-2,0.2727826,71.260436,381.71532)"
     d="M 179.80715,418.82535 L 136.01242,395.47879 L 87.954791,407.86853 L 96.625376,359.00278 L 69.991407,317.1259 L 119.14486,310.27177 L 150.74179,272.0007 L 172.4497,316.63036 L 218.61165,334.85441 L 182.87443,369.29119 L 179.80715,418.82535 z"
     inkscape:randomized="0"
     inkscape:rounded="0"
     inkscape:flatsided="false"
     sodipodi:arg2="1.6895226"
     sodipodi:arg1="1.0612041"
     sodipodi:r2="45.665279"
     sodipodi:r1="78.688225"
     sodipodi:cy="350.13498"
     sodipodi:cx="141.42136"
     sodipodi:sides="5"
     id="path5580"
     style="opacity:0.22790701;fill:#ffffff;fill-opacity:1;fill-rule:nonzero;stroke:#ffffff;stroke-width:1.70000005;stroke-linecap:round;stroke-linejoin:round;marker:none;marker-start:none;marker-mid:none;marker-end:none;stroke-miterlimit:4;stroke-dasharray:none;stroke-dashoffset:0;stroke-opacity:1;visibility:visible;display:block;overflow:visible"
     sodipodi:type="star" />
  <path
     sodipodi:type="star"
     style="opacity:0.22790701;fill:#ffffff;fill-opacity:1;fill-rule:nonzero;stroke:#ffffff;stroke-width:1.70000005;stroke-linecap:round;stroke-linejoin:round;marker:none;marker-start:none;marker-mid:none;marker-end:none;stroke-miterlimit:4;stroke-dasharray:none;stroke-dashoffset:0;stroke-opacity:1;visibility:visible;display:block;overflow:visible"
     id="path5582"
     sodipodi:sides="5"
     sodipodi:cx="141.42136"
     sodipodi:cy="350.13498"
     sodipodi:r1="78.688225"
     sodipodi:r2="45.665279"
     sodipodi:arg1="1.0612041"
     sodipodi:arg2="1.6895226"
     inkscape:flatsided="false"
     inkscape:rounded="0"
     inkscape:randomized="0"
     d="M 179.80715,418.82535 L 136.01242,395.47879 L 87.954791,407.86853 L 96.625376,359.00278 L 69.991407,317.1259 L 119.14486,310.27177 L 150.74179,272.0007 L 172.4497,316.63036 L 218.61165,334.85441 L 182.87443,369.29119 L 179.80715,418.82535 z"
     transform="matrix(0.2047873,1.2440148e-2,-1.2440148e-2,0.2047873,101.54119,377.50775)" />
  <path
     transform="matrix(0.9554143,6.4781284e-2,-6.4781284e-2,0.9554143,-54.464507,409.68654)"
     d="M 179.80715,418.82535 L 136.01242,395.47879 L 87.954791,407.86853 L 96.625376,359.00278 L 69.991407,317.1259 L 119.14486,310.27177 L 150.74179,272.0007 L 172.4497,316.63036 L 218.61165,334.85441 L 182.87443,369.29119 L 179.80715,418.82535 z"
     inkscape:randomized="0"
     inkscape:rounded="0"
     inkscape:flatsided="false"
     sodipodi:arg2="1.6895226"
     sodipodi:arg1="1.0612041"
     sodipodi:r2="45.665279"
     sodipodi:r1="78.688225"
     sodipodi:cy="350.13498"
     sodipodi:cx="141.42136"
     sodipodi:sides="5"
     id="path6523"
     style="opacity:0.22790701;fill:#ffffff;fill-opacity:1;fill-rule:nonzero;stroke:#ffffff;stroke-width:1.70000005;stroke-linecap:round;stroke-linejoin:round;marker:none;marker-start:none;marker-mid:none;marker-end:none;stroke-miterlimit:4;stroke-dasharray:none;stroke-dashoffset:0;stroke-opacity:1;visibility:visible;display:block;overflow:visible"
     sodipodi:type="star" />
  <g
     id="g2229"
     transform="matrix(1.2483528,0,0,1.2483528,2.2231309,-77.385949)">
    <rect
       style="fill:url(#linearGradient2475);fill-opacity:1;fill-rule:nonzero;stroke:none;stroke-width:2.29999995;stroke-linecap:butt;stroke-linejoin:miter;marker:none;marker-start:none;marker-mid:none;marker-end:none;stroke-miterlimit:4;stroke-dasharray:none;stroke-dashoffset:0;stroke-opacity:1;visibility:visible;display:inline;overflow:visible"
       id="rect7250"
       width="249.17096"
       height="35.916534"
       x="138.61537"
       y="364.80093" />
    <path
       id="text5379"
       d="M 206.99271,391.67218 L 206.99271,410.6214 L 197.85208,410.6214 L 197.85208,359.15265 C 203.94582,358.89489 207.50832,358.76598 208.53958,358.76593 C 216.67237,358.76598 222.61377,360.01989 226.3638,362.52765 C 230.1372,365.01207 232.02392,368.90269 232.02396,374.19952 C 232.02392,386.01205 225.06299,391.91829 211.14114,391.91827 C 210.10988,391.91829 208.72707,391.83626 206.99271,391.67218 M 206.99271,367.06281 L 206.99271,383.55109 C 208.53957,383.71518 209.75831,383.79721 210.64896,383.79718 C 214.82081,383.79721 217.86768,383.1058 219.78958,381.72296 C 221.71143,380.31674 222.67236,378.04331 222.67239,374.90265 C 222.67236,369.55894 218.37159,366.88707 209.77005,366.88702 C 208.8091,366.88707 207.88332,366.94566 206.99271,367.06281"
       style="font-size:72px;font-style:normal;font-weight:bold;fill:#000000;fill-opacity:1;stroke:#000000;stroke-width:2.5;stroke-linecap:butt;stroke-linejoin:bevel;stroke-miterlimit:4;stroke-opacity:1;font-family:Trebuchet MS" />
    <path
       id="text2190"
       d="M 209.71022,388.75351 L 209.71022,407.70273 L 200.5696,407.70273 L 200.5696,356.23398 C 206.66333,355.97622 210.22583,355.84731 211.2571,355.84726 C 219.38988,355.84731 225.33128,357.10122 229.08131,359.60898 C 232.85471,362.0934 234.74143,365.98402 234.74147,371.28085 C 234.74143,383.09338 227.7805,388.99962 213.85866,388.9996 C 212.82739,388.99962 211.44458,388.91759 209.71022,388.75351 M 209.71022,364.14413 L 209.71022,380.63242 C 211.25708,380.79651 212.47583,380.87854 213.36647,380.87851 C 217.53832,380.87854 220.5852,380.18713 222.5071,378.80429 C 224.42894,377.39807 225.38988,375.12464 225.38991,371.98398 C 225.38988,366.64027 221.0891,363.9684 212.48756,363.96835 C 211.52661,363.9684 210.60083,364.02699 209.71022,364.14413"
       style="font-size:72px;font-style:normal;font-weight:bold;fill:#9cdc30;fill-opacity:1;stroke:#ffffff;stroke-width:2.5;stroke-linecap:butt;stroke-linejoin:bevel;stroke-miterlimit:4;stroke-opacity:1;font-family:Trebuchet MS" />
    <path
       id="text6352"
       d="M 250.65924,378.15982 L 248.72174,378.15982 L 248.72174,375.81607 L 250.65924,375.81607 L 250.65924,372.31607 L 253.62799,371.17545 L 253.62799,375.81607 L 258.22174,375.81607 L 258.22174,378.15982 L 253.62799,378.15982 L 253.62799,386.47232 C 253.62798,387.87858 253.86236,388.87857 254.33112,389.47232 C 254.81028,390.06607 255.5759,390.36295 256.62799,390.36295 C 257.3884,390.36295 258.17486,390.17024 258.98737,389.78482 L 259.42487,392.3942 C 258.19569,392.7067 256.84673,392.86295 255.37799,392.86295 C 254.05507,392.86295 252.93528,392.37336 252.01862,391.3942 C 251.11236,390.40461 250.65924,389.15982 250.65924,387.65982 L 250.65924,378.15982 M 261.19049,384.1442 C 261.19049,381.56087 261.8832,379.47754 263.26862,377.8942 C 264.66444,376.30046 266.49778,375.50359 268.76862,375.50357 C 271.16444,375.50359 273.02381,376.26921 274.34674,377.80045 C 275.66964,379.32129 276.3311,381.43587 276.33112,384.1442 C 276.3311,386.84212 275.65402,388.97232 274.29987,390.53482 C 272.94569,392.0869 271.10194,392.86295 268.76862,392.86295 C 266.38319,392.86295 264.52382,392.07649 263.19049,390.50357 C 261.85716,388.93066 261.19049,386.81087 261.19049,384.1442 M 264.31549,384.1442 C 264.31549,388.34212 265.79986,390.44107 268.76862,390.44107 C 270.15402,390.44107 271.23735,389.87857 272.01862,388.75357 C 272.81027,387.62858 273.2061,386.09212 273.20612,384.1442 C 273.2061,379.99837 271.72694,377.92546 268.76862,377.92545 C 267.41444,377.92546 266.33111,378.47754 265.51862,379.5817 C 264.71653,380.68587 264.31549,382.20671 264.31549,384.1442 M 292.45612,383.73795 L 292.45612,392.55045 L 289.33112,392.55045 L 289.33112,369.65982 C 291.69569,369.55568 293.12278,369.50359 293.61237,369.50357 C 300.25819,369.50359 303.5811,371.72755 303.58112,376.17545 C 303.5811,381.32129 300.6436,383.8942 294.76862,383.8942 C 294.41444,383.8942 293.64361,383.84212 292.45612,383.73795 M 292.45612,372.47232 L 292.45612,380.92545 C 293.77903,381.02962 294.47694,381.08171 294.54987,381.0817 C 298.42485,381.08171 300.36235,379.55567 300.36237,376.50357 C 300.36235,373.71192 298.29465,372.31609 294.15924,372.31607 C 293.74257,372.31609 293.17486,372.36817 292.45612,372.47232 M 314.56549,378.67545 C 313.91965,378.22754 313.26861,378.00359 312.61237,378.00357 C 311.56027,378.00359 310.6384,378.48796 309.84674,379.4567 C 309.06549,380.42546 308.67486,381.59212 308.67487,382.9567 L 308.67487,392.55045 L 305.70612,392.55045 L 305.70612,375.81607 L 308.67487,375.81607 L 308.67487,378.48795 C 309.75819,376.49838 311.36757,375.50359 313.50299,375.50357 C 314.03423,375.50359 314.79985,375.59734 315.79987,375.78482 L 314.56549,378.67545 M 327.36237,390.62857 C 326.17486,392.11815 324.35715,392.86295 321.90924,392.86295 C 320.59674,392.86295 319.45611,392.38899 318.48737,391.44107 C 317.52903,390.48274 317.04986,389.29524 317.04987,387.87857 C 317.04986,386.18066 317.78945,384.74837 319.26862,383.5817 C 320.75819,382.40462 322.65403,381.81608 324.95612,381.81607 C 325.58111,381.81608 326.28944,381.9515 327.08112,382.22232 C 327.0811,379.514 325.87277,378.15983 323.45612,378.15982 C 321.60194,378.15983 320.17486,378.65983 319.17487,379.65982 L 317.92487,377.17545 C 318.48736,376.71713 319.2634,376.3265 320.25299,376.00357 C 321.25299,375.67025 322.20611,375.50359 323.11237,375.50357 C 325.53944,375.50359 327.29985,376.05567 328.39362,377.15982 C 329.49777,378.264 330.04985,380.01921 330.04987,382.42545 L 330.04987,388.42545 C 330.04985,389.8942 330.48735,390.87336 331.36237,391.36295 L 331.36237,392.84732 C 330.15402,392.84732 329.24777,392.67545 328.64362,392.3317 C 328.04985,391.98795 327.62277,391.42024 327.36237,390.62857 M 327.08112,384.3317 C 326.14361,384.12337 325.48736,384.0192 325.11237,384.0192 C 323.61236,384.0192 322.3884,384.40462 321.44049,385.17545 C 320.49257,385.94629 320.01861,386.85774 320.01862,387.90982 C 320.01861,389.64941 321.04465,390.5192 323.09674,390.5192 C 324.59673,390.5192 325.92486,389.80566 327.08112,388.37857 L 327.08112,384.3317 M 347.34674,377.17545 L 345.87799,379.2692 C 345.57589,378.96713 345.03944,378.68067 344.26862,378.40982 C 343.50819,378.139 342.75819,378.00359 342.01862,378.00357 C 340.40402,378.00359 339.12278,378.57129 338.17487,379.7067 C 337.22694,380.83171 336.75299,382.37858 336.75299,384.34732 C 336.75299,386.30566 337.23736,387.80045 338.20612,388.8317 C 339.17486,389.85253 340.51861,390.36295 342.23737,390.36295 C 343.57069,390.36295 344.91444,389.84732 346.26862,388.81607 L 347.44049,391.31607 C 345.84673,392.34732 343.87277,392.86295 341.51862,392.86295 C 339.23736,392.86295 337.35194,392.09732 335.86237,390.56607 C 334.37278,389.03482 333.62799,386.96191 333.62799,384.34732 C 333.62799,381.68066 334.39882,379.54004 335.94049,377.92545 C 337.49257,376.31088 339.61236,375.50359 342.29987,375.50357 C 343.16444,375.50359 344.10194,375.68588 345.11237,376.05045 C 346.12277,376.41505 346.86756,376.79004 347.34674,377.17545 M 351.65924,378.15982 L 349.72174,378.15982 L 349.72174,375.81607 L 351.65924,375.81607 L 351.65924,372.31607 L 354.62799,371.17545 L 354.62799,375.81607 L 359.22174,375.81607 L 359.22174,378.15982 L 354.62799,378.15982 L 354.62799,386.47232 C 354.62798,387.87858 354.86236,388.87857 355.33112,389.47232 C 355.81028,390.06607 356.5759,390.36295 357.62799,390.36295 C 358.3884,390.36295 359.17486,390.17024 359.98737,389.78482 L 360.42487,392.3942 C 359.19569,392.7067 357.84673,392.86295 356.37799,392.86295 C 355.05507,392.86295 353.93528,392.37336 353.01862,391.3942 C 352.11236,390.40461 351.65924,389.15982 351.65924,387.65982 L 351.65924,378.15982 M 366.34674,369.48795 C 366.85715,369.48797 367.28944,369.67026 367.64362,370.03482 C 368.00819,370.38901 368.19048,370.81609 368.19049,371.31607 C 368.19048,371.82651 368.00819,372.26401 367.64362,372.62857 C 367.28944,372.98276 366.85715,373.15984 366.34674,373.15982 C 365.84674,373.15984 365.41444,372.98276 365.04987,372.62857 C 364.6957,372.26401 364.51861,371.82651 364.51862,371.31607 C 364.51861,370.80568 364.6957,370.37338 365.04987,370.0192 C 365.40403,369.66505 365.83632,369.48797 366.34674,369.48795 M 364.72174,392.55045 L 364.72174,378.31607 L 362.42487,378.31607 L 362.42487,375.81607 L 367.69049,375.81607 L 367.69049,392.55045 L 364.72174,392.55045 M 385.03424,377.17545 L 383.56549,379.2692 C 383.26339,378.96713 382.72694,378.68067 381.95612,378.40982 C 381.19569,378.139 380.44569,378.00359 379.70612,378.00357 C 378.09152,378.00359 376.81028,378.57129 375.86237,379.7067 C 374.91444,380.83171 374.44049,382.37858 374.44049,384.34732 C 374.44049,386.30566 374.92486,387.80045 375.89362,388.8317 C 376.86236,389.85253 378.20611,390.36295 379.92487,390.36295 C 381.25819,390.36295 382.60194,389.84732 383.95612,388.81607 L 385.12799,391.31607 C 383.53423,392.34732 381.56027,392.86295 379.20612,392.86295 C 376.92486,392.86295 375.03944,392.09732 373.54987,390.56607 C 372.06028,389.03482 371.31549,386.96191 371.31549,384.34732 C 371.31549,381.68066 372.08632,379.54004 373.62799,377.92545 C 375.18007,376.31088 377.29986,375.50359 379.98737,375.50357 C 380.85194,375.50359 381.78944,375.68588 382.79987,376.05045 C 383.81027,376.41505 384.55506,376.79004 385.03424,377.17545 M 402.37799,384.47232 L 390.31549,384.47232 C 390.31549,386.43066 390.85194,387.93587 391.92487,388.98795 C 392.87278,389.90461 394.09152,390.36295 395.58112,390.36295 C 397.27902,390.36295 398.69569,389.86816 399.83112,388.87857 L 401.08112,391.0192 C 400.62277,391.47753 399.91964,391.87336 398.97174,392.2067 C 397.78423,392.6442 396.46131,392.86295 395.00299,392.86295 C 392.89882,392.86295 391.11236,392.1494 389.64362,390.72232 C 388.0082,389.14941 387.19049,387.03483 387.19049,384.37857 C 387.19049,381.61816 388.02903,379.40463 389.70612,377.73795 C 391.20611,376.24838 392.98215,375.50359 395.03424,375.50357 C 397.41965,375.50359 399.28944,376.17546 400.64362,377.5192 C 401.9561,378.81088 402.61235,380.52442 402.61237,382.65982 C 402.61235,383.31608 402.53422,383.92025 402.37799,384.47232 M 395.17487,378.00357 C 393.85194,378.00359 392.74257,378.43067 391.84674,379.28482 C 390.99257,380.09733 390.50819,381.10775 390.39362,382.31607 L 399.65924,382.31607 C 399.65923,381.11817 399.28423,380.11817 398.53424,379.31607 C 397.71131,378.44108 396.59152,378.00359 395.17487,378.00357"
       style="font-size:32px;font-style:normal;font-weight:normal;fill:#000000;fill-opacity:1;stroke:none;stroke-width:1px;stroke-linecap:butt;stroke-linejoin:miter;stroke-opacity:1;font-family:Trebuchet MS" />
  </g>
  <g
     id="g2223"
     transform="matrix(1.2483528,0,0,1.2483528,387.53686,276.40212)">
    <rect
       style="fill:url(#linearGradient2477);fill-opacity:1;fill-rule:nonzero;stroke:none;stroke-width:2.29999995;stroke-linecap:butt;stroke-linejoin:miter;marker:none;marker-start:none;marker-mid:none;marker-end:none;stroke-miterlimit:4;stroke-dasharray:none;stroke-dashoffset:0;stroke-opacity:1;visibility:visible;display:inline;overflow:visible"
       id="rect6373"
       width="249.17096"
       height="35.916534"
       x="138.61537"
       y="293.2326" />
    <path
       id="text6375"
       d="M 233.14896,290.29135 L 229.38724,297.84995 C 227.34814,295.81093 224.06689,294.7914 219.54349,294.79135 C 215.2544,294.7914 211.73878,296.59608 208.99661,300.20541 C 206.25441,303.79139 204.88332,308.33826 204.88333,313.84604 C 204.88332,319.35387 206.14894,323.72496 208.68021,326.95932 C 211.23488,330.1937 214.63331,331.81089 218.87552,331.81088 C 223.72705,331.81089 227.52392,330.07652 230.26614,326.60776 L 234.52005,333.99057 C 230.79345,337.95151 225.33252,339.93198 218.13724,339.93198 C 210.94191,339.93198 205.35207,337.56479 201.36771,332.83041 C 197.38333,328.09605 195.39114,321.63902 195.39114,313.45932 C 195.39114,305.84217 197.59426,299.47889 202.00052,294.36948 C 206.43019,289.23671 212.09034,286.67031 218.98099,286.67026 C 224.88721,286.67031 229.60986,287.87734 233.14896,290.29135"
       style="font-size:72px;font-style:normal;font-weight:bold;fill:#000000;fill-opacity:1;stroke:#000000;stroke-width:2.5;stroke-linecap:butt;stroke-linejoin:bevel;stroke-miterlimit:4;stroke-opacity:1;font-family:Trebuchet MS" />
    <path
       id="text6379"
       d="M 235.86647,287.37268 L 232.10475,294.93127 C 230.06565,292.89226 226.78441,291.87272 222.261,291.87268 C 217.97192,291.87272 214.45629,293.67741 211.71413,297.28674 C 208.97193,300.87272 207.60083,305.41959 207.60085,310.92737 C 207.60083,316.4352 208.86646,320.80629 211.39772,324.04065 C 213.95239,327.27503 217.35082,328.89222 221.59303,328.89221 C 226.44456,328.89222 230.24144,327.15785 232.98366,323.68909 L 237.23756,331.0719 C 233.51096,335.03284 228.05003,337.0133 220.85475,337.01331 C 213.65942,337.0133 208.06958,334.64612 204.08522,329.91174 C 200.10084,325.17738 198.10866,318.72035 198.10866,310.54065 C 198.10866,302.9235 200.31178,296.56022 204.71803,291.45081 C 209.14771,286.31804 214.80786,283.75164 221.6985,283.75159 C 227.60472,283.75164 232.32737,284.95867 235.86647,287.37268"
       style="font-size:72px;font-style:normal;font-weight:bold;fill:#9cdc30;fill-opacity:1;stroke:#ffffff;stroke-width:2.5;stroke-linecap:butt;stroke-linejoin:bevel;stroke-miterlimit:4;stroke-opacity:1;font-family:Trebuchet MS" />
    <path
       id="text6383"
       d="M 250.65924,306.59149 L 248.72174,306.59149 L 248.72174,304.24774 L 250.65924,304.24774 L 250.65924,300.74774 L 253.62799,299.60712 L 253.62799,304.24774 L 258.22174,304.24774 L 258.22174,306.59149 L 253.62799,306.59149 L 253.62799,314.90399 C 253.62798,316.31025 253.86236,317.31025 254.33112,317.90399 C 254.81028,318.49774 255.5759,318.79462 256.62799,318.79462 C 257.3884,318.79462 258.17486,318.60191 258.98737,318.21649 L 259.42487,320.82587 C 258.19569,321.13837 256.84673,321.29462 255.37799,321.29462 C 254.05507,321.29462 252.93528,320.80503 252.01862,319.82587 C 251.11236,318.83629 250.65924,317.5915 250.65924,316.09149 L 250.65924,306.59149 M 261.19049,312.57587 C 261.19049,309.99254 261.8832,307.90921 263.26862,306.32587 C 264.66444,304.73213 266.49778,303.93526 268.76862,303.93524 C 271.16444,303.93526 273.02381,304.70088 274.34674,306.23212 C 275.66964,307.75296 276.3311,309.86754 276.33112,312.57587 C 276.3311,315.27379 275.65402,317.404 274.29987,318.96649 C 272.94569,320.51858 271.10194,321.29462 268.76862,321.29462 C 266.38319,321.29462 264.52382,320.50816 263.19049,318.93524 C 261.85716,317.36233 261.19049,315.24254 261.19049,312.57587 M 264.31549,312.57587 C 264.31549,316.77379 265.79986,318.87274 268.76862,318.87274 C 270.15402,318.87274 271.23735,318.31024 272.01862,317.18524 C 272.81027,316.06025 273.2061,314.52379 273.20612,312.57587 C 273.2061,308.43005 271.72694,306.35713 268.76862,306.35712 C 267.41444,306.35713 266.33111,306.90921 265.51862,308.01337 C 264.71653,309.11755 264.31549,310.63838 264.31549,312.57587 M 303.94049,298.93524 L 302.89362,301.60712 C 301.8936,300.87797 300.32069,300.51339 298.17487,300.51337 C 296.16444,300.51339 294.54986,301.37797 293.33112,303.10712 C 292.12278,304.8363 291.51861,307.06546 291.51862,309.79462 C 291.51861,312.39879 292.1384,314.51337 293.37799,316.13837 C 294.62798,317.75295 296.23736,318.56024 298.20612,318.56024 C 300.35194,318.56024 302.00298,317.79983 303.15924,316.27899 L 304.87799,318.66962 C 303.06547,320.4717 300.73214,321.37274 297.87799,321.37274 C 294.8884,321.37274 292.53424,320.29462 290.81549,318.13837 C 289.09674,315.98212 288.23736,313.13837 288.23737,309.60712 C 288.23736,306.19046 289.15403,303.35193 290.98737,301.09149 C 292.82069,298.8311 295.19048,297.70089 298.09674,297.70087 C 300.58631,297.70089 302.53423,298.11235 303.94049,298.93524 M 307.12799,312.57587 C 307.12799,309.99254 307.8207,307.90921 309.20612,306.32587 C 310.60194,304.73213 312.43528,303.93526 314.70612,303.93524 C 317.10194,303.93526 318.96131,304.70088 320.28424,306.23212 C 321.60714,307.75296 322.2686,309.86754 322.26862,312.57587 C 322.2686,315.27379 321.59152,317.404 320.23737,318.96649 C 318.88319,320.51858 317.03944,321.29462 314.70612,321.29462 C 312.32069,321.29462 310.46132,320.50816 309.12799,318.93524 C 307.79466,317.36233 307.12799,315.24254 307.12799,312.57587 M 310.25299,312.57587 C 310.25299,316.77379 311.73736,318.87274 314.70612,318.87274 C 316.09152,318.87274 317.17485,318.31024 317.95612,317.18524 C 318.74777,316.06025 319.1436,314.52379 319.14362,312.57587 C 319.1436,308.43005 317.66444,306.35713 314.70612,306.35712 C 313.35194,306.35713 312.26861,306.90921 311.45612,308.01337 C 310.65403,309.11755 310.25299,310.63838 310.25299,312.57587 M 335.70612,320.98212 L 335.70612,311.24774 C 335.7061,309.4665 335.43527,308.22171 334.89362,307.51337 C 334.36235,306.79463 333.46652,306.43526 332.20612,306.43524 C 331.52902,306.43526 330.82069,306.63838 330.08112,307.04462 C 329.34153,307.45088 328.77382,307.95088 328.37799,308.54462 L 328.37799,320.98212 L 325.40924,320.98212 L 325.40924,304.24774 L 327.44049,304.24774 L 328.37799,306.40399 C 329.35715,304.75817 330.95611,303.93526 333.17487,303.93524 C 336.84152,303.93526 338.67485,306.16442 338.67487,310.62274 L 338.67487,320.98212 L 335.70612,320.98212 M 351.95612,300.04462 C 351.35194,299.8363 350.78944,299.73214 350.26862,299.73212 C 349.36236,299.73214 348.61236,300.07589 348.01862,300.76337 C 347.43528,301.45089 347.14361,302.32068 347.14362,303.37274 C 347.14361,303.65401 347.16965,303.94568 347.22174,304.24774 L 350.62799,304.24774 L 350.62799,306.74774 L 347.22174,306.74774 L 347.22174,320.98212 L 344.25299,320.98212 L 344.25299,306.74774 L 341.81549,306.74774 L 341.81549,304.24774 L 344.25299,304.24774 C 344.25299,302.11234 344.77903,300.43526 345.83112,299.21649 C 346.88319,297.99776 348.27382,297.38839 350.00299,297.38837 C 350.86756,297.38839 351.79465,297.54464 352.78424,297.85712 L 351.95612,300.04462 M 357.78424,297.91962 C 358.29465,297.91964 358.72694,298.10193 359.08112,298.46649 C 359.44569,298.82068 359.62798,299.24776 359.62799,299.74774 C 359.62798,300.25818 359.44569,300.69568 359.08112,301.06024 C 358.72694,301.41443 358.29465,301.59151 357.78424,301.59149 C 357.28424,301.59151 356.85194,301.41443 356.48737,301.06024 C 356.1332,300.69568 355.95611,300.25818 355.95612,299.74774 C 355.95611,299.23735 356.1332,298.80506 356.48737,298.45087 C 356.84153,298.09672 357.27382,297.91964 357.78424,297.91962 M 356.15924,320.98212 L 356.15924,306.74774 L 353.86237,306.74774 L 353.86237,304.24774 L 359.12799,304.24774 L 359.12799,320.98212 L 356.15924,320.98212 M 363.23737,325.56024 L 364.84674,323.18524 C 366.5759,324.34149 368.16965,324.91961 369.62799,324.91962 C 370.97173,324.91961 372.02902,324.68524 372.79987,324.21649 C 373.5811,323.75816 373.97173,323.18524 373.97174,322.49774 C 373.97173,321.14357 372.99256,320.46649 371.03424,320.46649 C 370.7009,320.46649 370.09673,320.54983 369.22174,320.71649 C 368.34673,320.88316 367.66444,320.96649 367.17487,320.96649 C 364.79986,320.96649 363.61236,320.07066 363.61237,318.27899 C 363.61236,317.72691 363.88841,317.22691 364.44049,316.77899 C 365.00299,316.33108 365.6957,316.00816 366.51862,315.81024 C 364.16445,314.70608 362.98736,312.78942 362.98737,310.06024 C 362.98736,308.31025 363.59674,306.85192 364.81549,305.68524 C 366.03424,304.51859 367.53944,303.93526 369.33112,303.93524 C 370.97694,303.93526 372.2634,304.2738 373.19049,304.95087 L 374.67487,303.16962 L 376.61237,304.99774 L 374.83112,306.34149 C 375.59152,307.33109 375.97173,308.62275 375.97174,310.21649 C 375.97173,311.904 375.44569,313.32067 374.39362,314.46649 C 373.34152,315.61233 371.96131,316.26858 370.25299,316.43524 L 367.79987,316.68524 C 367.50819,316.7165 367.11757,316.83108 366.62799,317.02899 C 366.1384,317.2165 365.89361,317.4665 365.89362,317.77899 C 365.89361,318.20608 366.40403,318.41962 367.42487,318.41962 C 367.87278,318.41962 368.57069,318.34149 369.51862,318.18524 C 370.46652,318.01858 371.16965,317.93524 371.62799,317.93524 C 373.27381,317.93524 374.55506,318.33108 375.47174,319.12274 C 376.39881,319.90399 376.86235,320.99253 376.86237,322.38837 C 376.86235,323.93003 376.16964,325.17482 374.78424,326.12274 C 373.40923,327.07065 371.66444,327.54461 369.54987,327.54462 C 368.46653,327.54461 367.3259,327.3519 366.12799,326.96649 C 364.93007,326.58107 363.96653,326.11232 363.23737,325.56024 M 369.53424,306.32587 C 368.50298,306.32588 367.65923,306.69046 367.00299,307.41962 C 366.35715,308.1488 366.03424,309.03421 366.03424,310.07587 C 366.03424,311.24254 366.34674,312.21129 366.97174,312.98212 C 367.60715,313.74254 368.46132,314.12275 369.53424,314.12274 C 370.58632,314.12275 371.40923,313.75296 372.00299,313.01337 C 372.59673,312.26338 372.8936,311.28421 372.89362,310.07587 C 372.8936,309.03421 372.57069,308.1488 371.92487,307.41962 C 371.28944,306.69046 370.49257,306.32588 369.53424,306.32587 M 382.72174,304.24774 L 382.72174,314.91962 C 382.72174,317.50295 383.84153,318.79462 386.08112,318.79462 C 387.06027,318.79462 387.95611,318.51337 388.76862,317.95087 C 389.5811,317.38837 390.11756,316.73733 390.37799,315.99774 L 390.37799,304.24774 L 393.34674,304.24774 L 393.34674,320.98212 L 390.37799,320.98212 L 390.37799,318.66962 C 390.04465,319.32587 389.37277,319.93003 388.36237,320.48212 C 387.36236,321.02378 386.38319,321.29462 385.42487,321.29462 C 383.59153,321.29462 382.18528,320.76858 381.20612,319.71649 C 380.23736,318.66441 379.75299,317.16962 379.75299,315.23212 L 379.75299,304.24774 L 382.72174,304.24774 M 406.50299,307.10712 C 405.85715,306.65921 405.20611,306.43526 404.54987,306.43524 C 403.49777,306.43526 402.5759,306.91963 401.78424,307.88837 C 401.00299,308.85713 400.61236,310.02379 400.61237,311.38837 L 400.61237,320.98212 L 397.64362,320.98212 L 397.64362,304.24774 L 400.61237,304.24774 L 400.61237,306.91962 C 401.69569,304.93005 403.30507,303.93526 405.44049,303.93524 C 405.97173,303.93526 406.73735,304.02901 407.73737,304.21649 L 406.50299,307.10712 M 423.94049,312.90399 L 411.87799,312.90399 C 411.87799,314.86233 412.41444,316.36754 413.48737,317.41962 C 414.43528,318.33629 415.65402,318.79462 417.14362,318.79462 C 418.84152,318.79462 420.25819,318.29983 421.39362,317.31024 L 422.64362,319.45087 C 422.18527,319.9092 421.48214,320.30503 420.53424,320.63837 C 419.34673,321.07587 418.02381,321.29462 416.56549,321.29462 C 414.46132,321.29462 412.67486,320.58108 411.20612,319.15399 C 409.5707,317.58108 408.75299,315.4665 408.75299,312.81024 C 408.75299,310.04984 409.59153,307.8363 411.26862,306.16962 C 412.76861,304.68005 414.54465,303.93526 416.59674,303.93524 C 418.98215,303.93526 420.85194,304.60713 422.20612,305.95087 C 423.5186,307.24255 424.17485,308.95609 424.17487,311.09149 C 424.17485,311.74775 424.09672,312.35192 423.94049,312.90399 M 416.73737,306.43524 C 415.41444,306.43526 414.30507,306.86234 413.40924,307.71649 C 412.55507,308.529 412.07069,309.53942 411.95612,310.74774 L 421.22174,310.74774 C 421.22173,309.54984 420.84673,308.54984 420.09674,307.74774 C 419.27381,306.87276 418.15402,306.43526 416.73737,306.43524"
       style="font-size:32px;font-style:normal;font-weight:normal;fill:#000000;fill-opacity:1;stroke:none;stroke-width:1px;stroke-linecap:butt;stroke-linejoin:miter;stroke-opacity:1;font-family:Trebuchet MS" />
  </g>
  <rect
     y="276.61145"
     x="175.26402"
     height="44.836506"
     width="311.05325"
     id="rect6405"
     style="fill:url(#linearGradient2494);fill-opacity:1;fill-rule:nonzero;stroke:none;stroke-width:2.29999995;stroke-linecap:butt;stroke-linejoin:miter;marker:none;marker-start:none;marker-mid:none;marker-end:none;stroke-miterlimit:4;stroke-dasharray:none;stroke-dashoffset:0;stroke-opacity:1;visibility:visible;display:inline;overflow:visible" />
  <path
     style="font-size:72px;font-style:normal;font-weight:bold;fill:#000000;fill-opacity:1;stroke:#000000;stroke-width:3.12088203;stroke-linecap:butt;stroke-linejoin:bevel;stroke-miterlimit:4;stroke-opacity:1;font-family:Trebuchet MS"
     d="M 246.14021,330.25668 L 250.3534,320.03092 C 254.85917,323.19082 259.29179,324.77076 263.65129,324.77075 C 270.3514,324.77076 273.70147,322.4301 273.7015,317.74876 C 273.70147,315.55442 272.9115,313.46246 271.33158,311.47287 C 269.7516,309.48333 266.48932,307.2597 261.54469,304.80198 C 256.62929,302.31507 253.30847,300.28161 251.58225,298.70163 C 249.88527,297.09247 248.56864,295.19068 247.63239,292.99627 C 246.72537,290.80195 246.27187,288.37351 246.27187,285.71096 C 246.27187,280.73711 248.08588,276.61171 251.71392,273.33472 C 255.37118,270.05785 260.0525,268.41939 265.75788,268.41933 C 273.18945,268.41939 278.64612,269.80916 282.12788,272.58863 L 278.66078,282.41941 C 274.65236,279.55215 270.42455,278.11851 265.97732,278.11844 C 263.34406,278.11851 261.29597,278.8207 259.83308,280.22504 C 258.39941,281.60024 257.68259,283.39961 257.6826,285.62319 C 257.68259,289.30978 261.7641,293.14261 269.92718,297.12169 C 274.22812,299.22833 277.32949,301.174 279.23132,302.95872 C 281.13306,304.71424 282.58135,306.77694 283.57617,309.14684 C 284.57091,311.48753 285.06829,314.10613 285.06834,317.00269 C 285.06829,322.21066 283.00559,326.497 278.88022,329.86169 C 274.78402,333.22639 269.28347,334.90875 262.37856,334.90875 C 256.3806,334.90875 250.96781,333.35805 246.14021,330.25668"
     id="text6407" />
  <path
     style="font-size:72px;font-style:normal;font-weight:bold;fill:#9cdc30;fill-opacity:1;stroke:#ffffff;stroke-width:3.12088203;stroke-linecap:butt;stroke-linejoin:bevel;stroke-miterlimit:4;stroke-opacity:1;font-family:Trebuchet MS"
     d="M 249.53263,326.61315 L 253.74582,316.38739 C 258.25158,319.54729 262.6842,321.12723 267.0437,321.12722 C 273.74382,321.12723 277.09389,318.78657 277.09391,314.10523 C 277.09389,311.91089 276.30392,309.81893 274.724,307.82934 C 273.14403,305.8398 269.88173,303.61617 264.93711,301.15845 C 260.0217,298.67154 256.7009,296.63808 254.97466,295.0581 C 253.27768,293.44894 251.96106,291.54715 251.0248,289.35274 C 250.11778,287.15842 249.66428,284.72998 249.6643,282.06743 C 249.66428,277.09358 251.4783,272.96818 255.10633,269.69119 C 258.7636,266.41432 263.44492,264.77586 269.1503,264.7758 C 276.58186,264.77586 282.03853,266.16563 285.5203,268.9451 L 282.0532,278.77588 C 278.04478,275.90862 273.81696,274.47498 269.36973,274.47491 C 266.73647,274.47498 264.6884,275.17716 263.2255,276.58151 C 261.79183,277.95669 261.075,279.75608 261.07501,281.97966 C 261.075,285.66625 265.15653,289.49908 273.31961,293.47816 C 277.62053,295.58478 280.72191,297.53047 282.62373,299.31519 C 284.52548,301.07071 285.97376,303.13341 286.96858,305.50331 C 287.96332,307.844 288.46072,310.4626 288.46075,313.35916 C 288.46072,318.56713 286.39801,322.85347 282.27263,326.21816 C 278.17644,329.58286 272.67589,331.26522 265.77097,331.26522 C 259.77301,331.26522 254.36024,329.71453 249.53263,326.61315"
     id="text6411" />
  <path
     style="font-size:32px;font-style:normal;font-weight:normal;fill:#000000;fill-opacity:1;stroke:none;stroke-width:1px;stroke-linecap:butt;stroke-linejoin:miter;stroke-opacity:1;font-family:Trebuchet MS"
     d="M 315.13429,293.28805 L 312.71561,293.28805 L 312.71561,290.36223 L 315.13429,290.36223 L 315.13429,285.99299 L 318.84034,284.56909 L 318.84034,290.36223 L 324.57496,290.36223 L 324.57496,293.28805 L 318.84034,293.28805 L 318.84034,303.66498 C 318.84033,305.42049 319.13292,306.66885 319.7181,307.41004 C 320.31626,308.15127 321.27202,308.52186 322.5854,308.52186 C 323.53466,308.52186 324.51644,308.28129 325.53074,307.80015 L 326.07689,311.05758 C 324.54244,311.44769 322.85847,311.64275 321.02496,311.64275 C 319.37349,311.64275 317.9756,311.03158 316.83128,309.80923 C 315.69995,308.57388 315.13429,307.01995 315.13429,305.1474 L 315.13429,293.28805 M 328.28101,300.75867 C 328.28101,297.53378 329.14576,294.93304 330.87525,292.95646 C 332.61773,290.96693 334.90638,289.97214 337.74119,289.97212 C 340.73202,289.97214 343.05317,290.92792 344.70465,292.83943 C 346.3561,294.73799 347.18183,297.37773 347.18186,300.75867 C 347.18183,304.12663 346.3366,306.78588 344.64614,308.73642 C 342.95565,310.67397 340.654,311.64275 337.74119,311.64275 C 334.76333,311.64275 332.44218,310.66097 330.77772,308.69741 C 329.11325,306.73386 328.28101,304.08761 328.28101,300.75867 M 332.18211,300.75867 C 332.18211,305.99916 334.03513,308.6194 337.74119,308.61939 C 339.47066,308.6194 340.82304,307.9172 341.79834,306.51279 C 342.7866,305.10841 343.28073,303.19036 343.28076,300.75867 C 343.28073,295.58322 341.43422,292.99549 337.74119,292.99548 C 336.0507,292.99549 334.69832,293.68469 333.68404,295.06306 C 332.68275,296.44147 332.18211,298.34 332.18211,300.75867 M 362.12308,309.94576 L 363.54698,306.35675 C 364.27518,306.8899 365.17894,307.33854 366.25825,307.70263 C 367.35055,308.05373 368.32582,308.22929 369.18408,308.22927 C 370.70549,308.22929 371.92783,307.81316 372.85111,306.98092 C 373.77436,306.1487 374.23599,305.08889 374.236,303.80153 C 374.23599,302.83926 373.97592,301.94851 373.45578,301.12927 C 372.94862,300.29705 371.66126,299.3933 369.59369,298.41801 L 367.29204,297.3452 C 365.34148,296.43496 363.9761,295.35566 363.19588,294.10728 C 362.42867,292.85896 362.04505,291.35704 362.04506,289.60152 C 362.04505,287.46893 362.79926,285.70044 364.3077,284.29602 C 365.81611,282.89165 367.75366,282.18945 370.12034,282.18942 C 373.28022,282.18945 375.47783,282.70309 376.7132,283.73035 L 375.56237,287.12431 C 375.04221,286.74723 374.24899,286.38313 373.1827,286.032 C 372.11638,285.68093 371.12811,285.50538 370.21786,285.50536 C 368.89147,285.50538 367.84468,285.88249 367.07748,286.63668 C 366.32325,287.39091 365.94615,288.35969 365.94616,289.54299 C 365.94615,290.27122 366.08269,290.93441 366.35577,291.53256 C 366.62885,292.13075 367.00595,292.63139 367.48709,293.03449 C 367.98123,293.43762 368.9825,294.00327 370.49094,294.73146 L 372.8316,295.84328 C 374.78214,296.76655 376.14753,297.87187 376.92776,299.15922 C 377.72096,300.43359 378.11758,302.05904 378.1176,304.0356 C 378.11758,306.1812 377.25283,308.00173 375.52336,309.49714 C 373.80686,310.99257 371.50521,311.74027 368.61841,311.74027 C 366.08269,311.74027 363.91758,311.14211 362.12308,309.94576 M 383.63765,293.28805 L 381.21897,293.28805 L 381.21897,290.36223 L 383.63765,290.36223 L 383.63765,285.99299 L 387.3437,284.56909 L 387.3437,290.36223 L 393.07832,290.36223 L 393.07832,293.28805 L 387.3437,293.28805 L 387.3437,303.66498 C 387.34369,305.42049 387.63628,306.66885 388.22146,307.41004 C 388.81962,308.15127 389.77538,308.52186 391.08876,308.52186 C 392.03802,308.52186 393.0198,308.28129 394.0341,307.80015 L 394.58025,311.05758 C 393.0458,311.44769 391.36183,311.64275 389.52832,311.64275 C 387.87685,311.64275 386.47896,311.03158 385.33464,309.80923 C 384.20331,308.57388 383.63765,307.01995 383.63765,305.1474 L 383.63765,293.28805 M 409.9506,308.85345 C 408.46817,310.71299 406.19902,311.64275 403.14317,311.64275 C 401.5047,311.64275 400.0808,311.05108 398.87147,309.86774 C 397.67512,308.6714 397.07695,307.18899 397.07696,305.42048 C 397.07695,303.30089 398.00022,301.51289 399.84674,300.05647 C 401.70625,298.58707 404.07293,297.85235 406.94675,297.85234 C 407.72696,297.85235 408.6112,298.02141 409.5995,298.35949 C 409.59947,294.97855 408.09105,293.28808 405.07422,293.28805 C 402.75955,293.28808 400.97805,293.91225 399.72971,295.16058 L 398.16927,292.05921 C 398.87145,291.48707 399.84023,290.99943 401.07558,290.59629 C 402.32394,290.1802 403.51377,289.97214 404.6451,289.97212 C 407.67494,289.97214 409.87255,290.66133 411.23796,292.0397 C 412.61633,293.41812 413.30552,295.60923 413.30555,298.61306 L 413.30555,306.10318 C 413.30552,307.9367 413.85168,309.15905 414.94401,309.77022 L 414.94401,311.62323 C 413.43556,311.62323 412.30424,311.40868 411.55005,310.97956 C 410.80882,310.55044 410.27567,309.84173 409.9506,308.85345 M 409.5995,300.99274 C 408.42916,300.73267 407.60992,300.60264 407.1418,300.60263 C 405.26926,300.60264 403.74133,301.08377 402.558,302.04603 C 401.37466,303.00831 400.78299,304.14614 400.78301,305.45949 C 400.78299,307.63111 402.06385,308.71692 404.62559,308.71692 C 406.4981,308.71692 408.15608,307.82617 409.5995,306.04466 L 409.5995,300.99274 M 430.4899,293.93174 C 429.68366,293.3726 428.87093,293.09302 428.05171,293.093 C 426.73832,293.09302 425.5875,293.69769 424.59923,294.90702 C 423.62396,296.11637 423.13631,297.57279 423.13632,299.27625 L 423.13632,311.25264 L 419.43028,311.25264 L 419.43028,290.36223 L 423.13632,290.36223 L 423.13632,293.69767 C 424.48869,291.21399 426.49776,289.97214 429.16352,289.97212 C 429.8267,289.97214 430.78246,290.08917 432.03084,290.32321 L 430.4899,293.93174 M 435.99045,293.28805 L 433.57177,293.28805 L 433.57177,290.36223 L 435.99045,290.36223 L 435.99045,285.99299 L 439.6965,284.56909 L 439.6965,290.36223 L 445.43112,290.36223 L 445.43112,293.28805 L 439.6965,293.28805 L 439.6965,303.66498 C 439.69649,305.42049 439.98907,306.66885 440.57425,307.41004 C 441.17241,308.15127 442.12818,308.52186 443.44156,308.52186 C 444.39082,308.52186 445.3726,308.28129 446.38689,307.80015 L 446.93305,311.05758 C 445.3986,311.44769 443.71462,311.64275 441.88112,311.64275 C 440.22964,311.64275 438.83175,311.03158 437.68744,309.80923 C 436.5561,308.57388 435.99045,307.01995 435.99045,305.1474 L 435.99045,293.28805"
     id="text6415" />
  <text
     xml:space="preserve"
     style="font-size:17.47693825px;font-style:normal;font-weight:normal;fill:#000000;fill-opacity:1;stroke:none;stroke-width:1px;stroke-linecap:butt;stroke-linejoin:miter;stroke-opacity:1;font-family:Bitstream Vera Sans"
     x="175.9646"
     y="291.63663"
     id="text6419"><tspan
       sodipodi:role="line"
       id="tspan6421"
       x="175.9646"
       y="291.63663">Press</tspan></text>
  <g
     id="g2235"
     transform="matrix(1.2483528,0,0,1.2483528,2.2231309,103.36122)">
    <rect
       style="fill:url(#linearGradient2481);fill-opacity:1;fill-rule:nonzero;stroke:none;stroke-width:2.29999995;stroke-linecap:butt;stroke-linejoin:miter;marker:none;marker-start:none;marker-mid:none;marker-end:none;stroke-miterlimit:4;stroke-dasharray:none;stroke-dashoffset:0;stroke-opacity:1;visibility:visible;display:inline;overflow:visible"
       id="rect6431"
       width="249.17096"
       height="35.916534"
       x="138.61537"
       y="430.99033" />
    <path
       id="text6433"
       d="M 246.68411,487.46313 C 245.13718,487.67406 243.56687,487.77953 241.97318,487.77954 C 237.61376,487.77953 233.59423,486.88891 229.91458,485.10767 C 226.2583,483.34985 223.41064,480.87719 221.37161,477.6897 C 220.5044,477.85376 219.10987,477.93579 217.18802,477.93579 C 210.41456,477.93579 205.08254,475.40454 201.19193,470.34204 C 197.32473,465.27955 195.39114,458.76393 195.39114,450.79517 C 195.39114,443.24832 197.37161,436.96708 201.33255,431.95142 C 205.29347,426.9124 210.57863,424.39287 217.18802,424.39282 C 224.61767,424.39287 230.33642,426.7249 234.34427,431.38892 C 238.37547,436.02958 240.3911,442.49833 240.39114,450.79517 C 240.3911,463.09987 236.35985,471.3147 228.29739,475.4397 C 230.85204,478.2522 235.09423,479.65844 241.02396,479.65845 C 243.20359,479.65844 245.09031,479.42407 246.68411,478.95532 L 246.68411,487.46313 M 204.88333,450.79517 C 204.88332,456.18581 205.96144,460.69753 208.11771,464.33032 C 210.27394,467.96314 213.29737,469.77955 217.18802,469.77954 C 221.68799,469.77955 225.09814,468.11549 227.41849,464.78735 C 229.73876,461.45924 230.89892,456.79519 230.89896,450.79517 C 230.89892,438.63114 226.32861,432.54912 217.18802,432.54907 C 213.15675,432.54912 210.09816,434.17802 208.01224,437.43579 C 205.92629,440.69364 204.88332,445.14676 204.88333,450.79517"
       style="font-size:72px;font-style:normal;font-weight:bold;fill:#000000;fill-opacity:1;stroke:#000000;stroke-width:2.5;stroke-linecap:butt;stroke-linejoin:bevel;stroke-miterlimit:4;stroke-opacity:1;font-family:Trebuchet MS" />
    <path
       id="text6437"
       d="M 249.40163,484.54446 C 247.8547,484.75539 246.28439,484.86086 244.69069,484.86087 C 240.33127,484.86086 236.31174,483.97024 232.6321,482.189 C 228.97581,480.43118 226.12816,477.95852 224.08913,474.77103 C 223.22191,474.93509 221.82738,475.01712 219.90553,475.01712 C 213.13208,475.01712 207.80005,472.48587 203.90944,467.42337 C 200.04225,462.36088 198.10866,455.84526 198.10866,447.8765 C 198.10866,440.32965 200.08912,434.04841 204.05006,429.03275 C 208.01099,423.99373 213.29614,421.4742 219.90553,421.47415 C 227.33519,421.4742 233.05393,423.80623 237.06178,428.47025 C 241.09299,433.11091 243.10861,439.57965 243.10866,447.8765 C 243.10861,460.1812 239.07736,468.39603 231.01491,472.52103 C 233.56956,475.33353 237.81174,476.73977 243.74147,476.73978 C 245.92111,476.73977 247.80782,476.5054 249.40163,476.03665 L 249.40163,484.54446 M 207.60085,447.8765 C 207.60083,453.26714 208.67896,457.77886 210.83522,461.41165 C 212.99145,465.04447 216.01489,466.86088 219.90553,466.86087 C 224.4055,466.86088 227.81566,465.19682 230.136,461.86868 C 232.45628,458.54057 233.61643,453.87652 233.61647,447.8765 C 233.61643,435.71247 229.04612,429.63045 219.90553,429.6304 C 215.87426,429.63045 212.81567,431.25935 210.72975,434.51712 C 208.6438,437.77497 207.60083,442.22809 207.60085,447.8765"
       style="font-size:72px;font-style:normal;font-weight:bold;fill:#9cdc30;fill-opacity:1;stroke:#ffffff;stroke-width:2.5;stroke-linecap:butt;stroke-linejoin:bevel;stroke-miterlimit:4;stroke-opacity:1;font-family:Trebuchet MS" />
    <path
       id="text6441"
       d="M 250.65924,444.34921 L 248.72174,444.34921 L 248.72174,442.00546 L 250.65924,442.00546 L 250.65924,438.50546 L 253.62799,437.36484 L 253.62799,442.00546 L 258.22174,442.00546 L 258.22174,444.34921 L 253.62799,444.34921 L 253.62799,452.66171 C 253.62798,454.06797 253.86236,455.06797 254.33112,455.66171 C 254.81028,456.25547 255.5759,456.55234 256.62799,456.55234 C 257.3884,456.55234 258.17486,456.35963 258.98737,455.97421 L 259.42487,458.58359 C 258.19569,458.89609 256.84673,459.05234 255.37799,459.05234 C 254.05507,459.05234 252.93528,458.56275 252.01862,457.58359 C 251.11236,456.59401 250.65924,455.34922 250.65924,453.84921 L 250.65924,444.34921 M 261.19049,450.33359 C 261.19049,447.75027 261.8832,445.66693 263.26862,444.08359 C 264.66444,442.48985 266.49778,441.69298 268.76862,441.69296 C 271.16444,441.69298 273.02381,442.4586 274.34674,443.98984 C 275.66964,445.51068 276.3311,447.62527 276.33112,450.33359 C 276.3311,453.03151 275.65402,455.16172 274.29987,456.72421 C 272.94569,458.2763 271.10194,459.05234 268.76862,459.05234 C 266.38319,459.05234 264.52382,458.26588 263.19049,456.69296 C 261.85716,455.12005 261.19049,453.00026 261.19049,450.33359 M 264.31549,450.33359 C 264.31549,454.53151 265.79986,456.63046 268.76862,456.63046 C 270.15402,456.63046 271.23735,456.06797 272.01862,454.94296 C 272.81027,453.81797 273.2061,452.28151 273.20612,450.33359 C 273.2061,446.18777 271.72694,444.11485 268.76862,444.11484 C 267.41444,444.11485 266.33111,444.66694 265.51862,445.77109 C 264.71653,446.87527 264.31549,448.3961 264.31549,450.33359 M 310.73737,460.42734 L 310.26862,463.47421 C 304.81026,463.47421 301.23214,461.95858 299.53424,458.92734 C 299.21131,459.06275 298.5186,459.13046 297.45612,459.13046 C 294.57069,459.13046 292.31028,458.00546 290.67487,455.75546 C 289.04986,453.50547 288.23736,450.62005 288.23737,447.09921 C 288.23736,443.79714 289.06549,441.03152 290.72174,438.80234 C 292.37799,436.56278 294.62277,435.44299 297.45612,435.44296 C 300.63319,435.44299 303.06547,436.46903 304.75299,438.52109 C 306.45089,440.57319 307.29985,443.43256 307.29987,447.09921 C 307.29985,452.35964 305.72693,455.96901 302.58112,457.92734 C 303.71652,459.594 305.62276,460.42734 308.29987,460.42734 L 310.73737,460.42734 M 297.45612,438.25546 C 295.51861,438.25548 294.04465,439.04715 293.03424,440.63046 C 292.02382,442.21381 291.51861,444.37006 291.51862,447.09921 C 291.51861,449.72422 292.03424,451.91693 293.06549,453.67734 C 294.10715,455.43776 295.57069,456.31797 297.45612,456.31796 C 299.60194,456.31797 301.23214,455.50547 302.34674,453.88046 C 303.46131,452.24505 304.0186,449.98464 304.01862,447.09921 C 304.0186,441.2034 301.8311,438.25548 297.45612,438.25546 M 313.53424,442.00546 L 313.53424,452.67734 C 313.53424,455.26067 314.65403,456.55234 316.89362,456.55234 C 317.87277,456.55234 318.76861,456.27109 319.58112,455.70859 C 320.3936,455.14609 320.93006,454.49505 321.19049,453.75546 L 321.19049,442.00546 L 324.15924,442.00546 L 324.15924,458.73984 L 321.19049,458.73984 L 321.19049,456.42734 C 320.85715,457.08359 320.18527,457.68776 319.17487,458.23984 C 318.17486,458.7815 317.19569,459.05234 316.23737,459.05234 C 314.40403,459.05234 312.99778,458.5263 312.01862,457.47421 C 311.04986,456.42213 310.56549,454.92734 310.56549,452.98984 L 310.56549,442.00546 L 313.53424,442.00546 M 331.28424,435.67734 C 331.79465,435.67736 332.22694,435.85965 332.58112,436.22421 C 332.94569,436.5784 333.12798,437.00548 333.12799,437.50546 C 333.12798,438.0159 332.94569,438.4534 332.58112,438.81796 C 332.22694,439.17215 331.79465,439.34923 331.28424,439.34921 C 330.78424,439.34923 330.35194,439.17215 329.98737,438.81796 C 329.6332,438.4534 329.45611,438.0159 329.45612,437.50546 C 329.45611,436.99507 329.6332,436.56278 329.98737,436.20859 C 330.34153,435.85444 330.77382,435.67736 331.28424,435.67734 M 329.65924,458.73984 L 329.65924,444.50546 L 327.36237,444.50546 L 327.36237,442.00546 L 332.62799,442.00546 L 332.62799,458.73984 L 329.65924,458.73984 M 338.40924,444.34921 L 336.47174,444.34921 L 336.47174,442.00546 L 338.40924,442.00546 L 338.40924,438.50546 L 341.37799,437.36484 L 341.37799,442.00546 L 345.97174,442.00546 L 345.97174,444.34921 L 341.37799,444.34921 L 341.37799,452.66171 C 341.37798,454.06797 341.61236,455.06797 342.08112,455.66171 C 342.56028,456.25547 343.3259,456.55234 344.37799,456.55234 C 345.1384,456.55234 345.92486,456.35963 346.73737,455.97421 L 347.17487,458.58359 C 345.94569,458.89609 344.59673,459.05234 343.12799,459.05234 C 341.80507,459.05234 340.68528,458.56275 339.76862,457.58359 C 338.86236,456.59401 338.40924,455.34922 338.40924,453.84921 L 338.40924,444.34921"
       style="font-size:32px;font-style:normal;font-weight:normal;fill:#000000;fill-opacity:1;stroke:none;stroke-width:1px;stroke-linecap:butt;stroke-linejoin:miter;stroke-opacity:1;font-family:Trebuchet MS" />
  </g>
  <g
     id="g3252">
    <path
       id="text2444"
       d="M 88.734136,110.05561 L 88.734136,146.21134 L 99.480182,146.21134 C 103.45703,146.21139 106.53136,144.64314 108.70317,141.50659 C 110.8749,138.37014 111.96079,133.9017 111.96083,128.10125 C 111.96079,122.34391 110.8749,117.89695 108.70317,114.76037 C 106.53136,111.62395 103.45703,110.0557 99.480182,110.05561 L 88.734136,110.05561 M 80.188067,99.357128 L 99.480182,99.357128 C 106.55957,99.357224 111.90438,101.80627 115.51464,106.70428 C 119.15302,111.5595 120.97223,118.69182 120.97228,128.10125 C 120.97223,137.59675 119.15302,144.77203 115.51464,149.62713 C 111.90438,154.4823 106.55957,156.90987 99.480182,156.90983 L 88.734136,156.90983 L 88.734136,195.57906 L 80.188067,195.57906 L 80.188067,99.357128 M 169.62565,156.52313 L 169.62565,162.32352 L 133.8337,162.32352 C 134.17214,170.48705 135.77981,176.71709 138.65672,181.01365 C 141.5618,185.26727 145.59509,187.39408 150.7566,187.39406 C 153.74628,187.39408 156.63728,186.83552 159.42959,185.7184 C 162.25003,184.6013 165.04232,182.92563 167.80643,180.6914 L 167.80643,191.90548 C 165.01411,193.71004 162.15132,195.08495 159.21805,196.0302 C 156.28472,196.97544 153.30911,197.44807 150.29122,197.44807 C 142.7323,197.44807 136.73878,194.09674 132.31063,187.39406 C 127.91067,180.69141 125.71069,171.62564 125.7107,160.19671 C 125.71069,148.38116 127.79784,139.01462 131.97217,132.09708 C 136.17468,125.13668 141.82975,121.65646 148.93739,121.65638 C 155.31165,121.65646 160.34621,124.79296 164.04109,131.0659 C 167.76408,137.29599 169.6256,145.78174 169.62565,156.52313 M 161.84111,153.04291 C 161.78465,146.55511 160.58596,141.37774 158.24499,137.51076 C 155.93215,133.6439 152.85783,131.71044 149.02201,131.71038 C 144.67843,131.71044 141.19514,133.57945 138.57211,137.31742 C 135.97724,141.0555 134.48239,146.31881 134.08754,153.10735 L 161.84111,153.04291 M 209.85987,134.48168 C 208.98548,133.70836 208.02652,133.1498 206.98298,132.80602 C 205.96757,132.41938 204.83938,132.22603 203.59839,132.22597 C 199.19841,132.22603 195.81383,134.41729 193.44465,138.79974 C 191.10363,143.13934 189.93313,149.39085 189.93314,157.55431 L 189.93314,195.57906 L 182.1063,195.57906 L 182.1063,123.3965 L 189.93314,123.3965 L 189.93314,134.61057 C 191.56901,130.22813 193.69847,126.98422 196.32154,124.87881 C 198.94457,122.7306 202.13171,121.65646 205.88299,121.65638 C 206.41885,121.65646 207.01115,121.72091 207.65989,121.84973 C 208.30857,121.93573 209.02779,122.08611 209.81756,122.30087 L 209.85987,134.48168 M 242.09801,95.296859 L 242.09801,105.15751 L 234.65193,105.15751 C 231.85963,105.1576 229.91349,106.01692 228.81353,107.73546 C 227.74173,109.45418 227.20584,112.54771 227.20585,117.01608 L 227.20585,123.3965 L 240.02496,123.3965 L 240.02496,132.61266 L 227.20585,132.61266 L 227.20585,195.57906 L 219.379,195.57906 L 219.379,132.61266 L 211.93292,132.61266 L 211.93292,123.3965 L 219.379,123.3965 L 219.379,118.3695 C 219.379,110.33498 220.6059,104.49163 223.05974,100.83945 C 225.51355,97.144487 229.40581,95.296959 234.73654,95.296859 L 242.09801,95.296859 M 266.93237,131.71038 C 262.75803,131.71044 259.45807,134.20246 257.03247,139.18643 C 254.60684,144.12755 253.39403,150.91614 253.39404,159.55223 C 253.39403,168.18838 254.59274,174.99846 256.99017,179.98247 C 259.41576,184.92355 262.72983,187.39408 266.93237,187.39406 C 271.07845,187.39408 274.36431,184.90206 276.78997,179.91801 C 279.21554,174.934 280.42835,168.14541 280.42839,159.55223 C 280.42835,151.00207 279.21554,144.23497 276.78997,139.25088 C 274.36431,134.22395 271.07845,131.71044 266.93237,131.71038 M 266.93237,121.65638 C 273.7015,121.65646 279.01811,125.00779 282.88221,131.71038 C 286.74623,138.41311 288.67827,147.69371 288.67831,159.55223 C 288.67827,171.36784 286.74623,180.64845 282.88221,187.39406 C 279.01811,194.09674 273.7015,197.44807 266.93237,197.44807 C 260.13498,197.44807 254.80427,194.09674 250.94022,187.39406 C 247.10436,180.64845 245.18643,171.36784 245.18643,159.55223 C 245.18643,147.69371 247.10436,138.41311 250.94022,131.71038 C 254.80427,125.00779 260.13498,121.65646 266.93237,121.65638 M 328.99715,134.48168 C 328.12276,133.70836 327.1638,133.1498 326.12025,132.80602 C 325.10484,132.41938 323.97665,132.22603 322.73567,132.22597 C 318.33569,132.22603 314.95111,134.41729 312.58192,138.79974 C 310.2409,143.13934 309.0704,149.39085 309.07042,157.55431 L 309.07042,195.57906 L 301.24358,195.57906 L 301.24358,123.3965 L 309.07042,123.3965 L 309.07042,134.61057 C 310.70628,130.22813 312.83575,126.98422 315.45882,124.87881 C 318.08184,122.7306 321.26899,121.65646 325.02027,121.65638 C 325.55613,121.65646 326.14843,121.72091 326.79716,121.84973 C 327.44585,121.93573 328.16507,122.08611 328.95484,122.30087 L 328.99715,134.48168 M 372.61596,137.25297 C 374.56205,131.92527 376.88895,127.99391 379.59666,125.45886 C 382.30427,122.92395 385.49141,121.65646 389.15811,121.65638 C 394.09389,121.65646 397.90154,124.29886 400.58107,129.58358 C 403.26045,134.82547 404.60019,142.3015 404.60026,152.01173 L 404.60026,195.57906 L 396.77342,195.57906 L 396.77342,152.39841 C 396.77334,145.48097 395.96951,140.34657 394.3619,136.99517 C 392.75416,133.6439 390.30034,131.96824 387.00043,131.96818 C 382.96708,131.96824 379.77994,134.00912 377.43899,138.09081 C 375.09794,142.17261 373.92744,147.73668 373.92749,154.78303 L 373.92749,195.57906 L 366.10064,195.57906 L 366.10064,152.39841 C 366.1006,145.438 365.29677,140.3036 363.68912,136.99517 C 362.08141,133.6439 359.59939,131.96824 356.24304,131.96818 C 352.26613,131.96824 349.10719,134.03059 346.76621,138.15525 C 344.42519,142.23705 343.25469,147.77964 343.25471,154.78303 L 343.25471,195.57906 L 335.42787,195.57906 L 335.42787,123.3965 L 343.25471,123.3965 L 343.25471,134.61057 C 345.0316,130.18516 347.16106,126.91976 349.64311,124.81437 C 352.12512,122.70912 355.07252,121.65646 358.48533,121.65638 C 361.92629,121.65646 364.84549,122.98839 367.24294,125.6522 C 369.66851,128.31615 371.45952,132.18307 372.61596,137.25297 M 438.53068,131.71038 C 434.35634,131.71044 431.05637,134.20246 428.63077,139.18643 C 426.20514,144.12755 424.99234,150.91614 424.99235,159.55223 C 424.99234,168.18838 426.19104,174.99846 428.58847,179.98247 C 431.01407,184.92355 434.32813,187.39408 438.53068,187.39406 C 442.67676,187.39408 445.96262,184.90206 448.38827,179.91801 C 450.81385,174.934 452.02666,168.14541 452.0267,159.55223 C 452.02666,151.00207 450.81385,144.23497 448.38827,139.25088 C 445.96262,134.22395 442.67676,131.71044 438.53068,131.71038 M 438.53068,121.65638 C 445.29981,121.65646 450.61641,125.00779 454.48052,131.71038 C 458.34454,138.41311 460.27657,147.69371 460.27662,159.55223 C 460.27657,171.36784 458.34454,180.64845 454.48052,187.39406 C 450.61641,194.09674 445.29981,197.44807 438.53068,197.44807 C 431.73329,197.44807 426.40257,194.09674 422.53853,187.39406 C 418.70266,180.64845 416.78473,171.36784 416.78474,159.55223 C 416.78473,147.69371 418.70266,138.41311 422.53853,131.71038 C 426.40257,125.00779 431.73329,121.65646 438.53068,121.65638 M 472.33419,167.09273 L 472.33419,123.3965 L 480.11872,123.3965 L 480.11872,166.64158 C 480.11872,173.47317 480.99306,178.60758 482.74178,182.04483 C 484.49046,185.43914 487.11351,187.13628 490.61093,187.13628 C 494.81343,187.13628 498.12749,185.09542 500.55315,181.01365 C 503.00692,176.93192 504.23383,171.36784 504.23387,164.32143 L 504.23387,123.3965 L 512.01841,123.3965 L 512.01841,195.57906 L 504.23387,195.57906 L 504.23387,184.49387 C 502.34411,188.8764 500.14413,192.14179 497.63394,194.29008 C 495.15189,196.3954 492.26089,197.44807 488.96095,197.44807 C 483.51739,197.44807 479.38539,194.87013 476.56492,189.71423 C 473.74442,184.55834 472.33418,177.01785 472.33419,167.09273 M 491.92246,121.65638 L 491.92246,121.65638 M 558.34491,125.52331 L 558.34491,136.73738 C 556.14489,135.01881 553.86031,133.72983 551.49113,132.87045 C 549.12189,132.0112 546.66807,131.58155 544.12966,131.58149 C 540.26558,131.58155 537.36048,132.48383 535.41436,134.28833 C 533.49642,136.09296 532.53746,138.79979 532.53748,142.40887 C 532.53746,145.15873 533.22848,147.3285 534.61053,148.91819 C 535.99255,150.465 538.77073,151.94732 542.94506,153.36514 L 545.61042,154.26744 C 551.13854,156.07203 555.05901,158.6285 557.37184,161.93683 C 559.71281,165.20226 560.88331,169.77812 560.88335,175.6644 C 560.88331,182.36708 559.1346,187.67336 555.63725,191.58323 C 552.16802,195.49312 547.3873,197.44807 541.29508,197.44807 C 538.75662,197.44807 536.10537,197.06137 533.34131,196.288 C 530.60543,195.55757 527.71444,194.44046 524.66832,192.93667 L 524.66832,180.6914 C 527.54521,182.96861 530.37979,184.68724 533.17209,185.8473 C 535.96435,186.96443 538.72842,187.52298 541.46431,187.52297 C 545.13091,187.52298 547.9514,186.57773 549.92576,184.68723 C 551.90007,182.75378 552.88724,180.04693 552.88727,176.56668 C 552.88724,173.34427 552.16802,170.87374 550.7296,169.15508 C 549.31933,167.43648 546.2027,165.7823 541.37969,164.19254 L 538.67203,163.22581 C 533.84899,161.67907 530.36569,159.31595 528.22213,156.13644 C 526.07855,152.91405 525.00677,148.51006 525.00678,142.92446 C 525.00677,136.13592 526.58624,130.89409 529.74519,127.19897 C 532.90412,123.50398 537.38869,121.65646 543.1989,121.65638 C 546.07578,121.65646 548.78344,121.9787 551.3219,122.62311 C 553.86031,123.26767 556.2013,124.2344 558.34491,125.52331"
       style="font-size:106.94109344px;font-style:normal;font-variant:normal;font-weight:normal;font-stretch:normal;fill:#ffffff;fill-opacity:1;stroke:none;stroke-width:1px;stroke-linecap:butt;stroke-linejoin:miter;stroke-opacity:1;font-family:Lohit Gujarati;-inkscape-font-specification:Lohit Gujarati" />
    <path
       id="text3222"
       d="M 78.25294,-281.22284 L 78.25294,-260.29195 L 87.729673,-260.29195 C 91.236782,-260.29192 93.94797,-261.19979 95.863246,-263.01557 C 97.778457,-264.83129 98.736079,-267.41812 98.736114,-270.77605 C 98.736079,-274.10903 97.778457,-276.68342 95.863246,-278.49921 C 93.94797,-280.31492 91.236782,-281.22279 87.729673,-281.22284 L 78.25294,-281.22284 M 70.716326,-287.4163 L 87.729673,-287.4163 C 93.972844,-287.41624 98.686332,-285.99846 101.87015,-283.16296 C 105.07877,-280.35223 106.68309,-276.22326 106.68314,-270.77605 C 106.68309,-265.27901 105.07877,-261.12517 101.87015,-258.31452 C 98.686332,-255.50381 93.972844,-254.09847 87.729673,-254.09849 L 78.25294,-254.09849 L 78.25294,-231.71251 L 70.716326,-231.71251 L 70.716326,-287.4163 M 149.5896,-254.32235 L 149.5896,-250.96445 L 118.02537,-250.96445 C 118.32384,-246.23851 119.74161,-242.63188 122.27871,-240.14456 C 124.84064,-237.6821 128.39752,-236.45087 132.94936,-236.45088 C 135.5859,-236.45087 138.13541,-236.77422 140.5979,-237.42093 C 143.0852,-238.06763 145.54765,-239.03769 147.98528,-240.33111 L 147.98528,-233.83918 C 145.52278,-232.7945 142.99814,-231.99855 140.41135,-231.45134 C 137.8245,-230.90413 135.20036,-230.63052 132.53895,-230.63052 C 125.87288,-230.63052 120.58731,-232.57064 116.68221,-236.45088 C 112.80197,-240.3311 110.86185,-245.57937 110.86185,-252.19568 C 110.86185,-259.03582 112.70247,-264.45819 116.38373,-268.46283 C 120.08984,-272.49227 125.07694,-274.507 131.34503,-274.50705 C 136.96637,-274.507 141.40625,-272.69125 144.66469,-269.05979 C 147.94792,-265.45313 149.58956,-260.54065 149.5896,-254.32235 M 142.72457,-256.33709 C 142.67479,-260.09293 141.61767,-263.09016 139.55322,-265.32879 C 137.51358,-267.56736 134.80239,-268.68665 131.41965,-268.68669 C 127.58914,-268.68665 124.51729,-267.60467 122.20409,-265.44072 C 119.91573,-263.27671 118.59744,-260.22973 118.24923,-256.29978 L 142.72457,-256.33709 M 185.07139,-267.08236 C 184.30028,-267.53005 183.45459,-267.8534 182.53431,-268.05242 C 181.63884,-268.27624 180.64391,-268.38817 179.54951,-268.38821 C 175.66925,-268.38817 172.68446,-267.11964 170.59512,-264.58259 C 168.53062,-262.07036 167.49838,-258.45129 167.49839,-253.72539 L 167.49839,-231.71251 L 160.59605,-231.71251 L 160.59605,-273.49968 L 167.49839,-273.49968 L 167.49839,-267.00774 C 168.94103,-269.54478 170.81896,-271.42271 173.1322,-272.64155 C 175.44539,-273.88517 178.25607,-274.507 181.56425,-274.50705 C 182.03681,-274.507 182.55915,-274.46969 183.13127,-274.39512 C 183.70332,-274.34533 184.33759,-274.25827 185.03408,-274.13395 L 185.07139,-267.08236 M 213.50159,-289.76682 L 213.50159,-284.0584 L 206.93503,-284.0584 C 204.47255,-284.05835 202.7563,-283.56088 201.78625,-282.566 C 200.84105,-281.57102 200.36846,-279.78014 200.36848,-277.19336 L 200.36848,-273.49968 L 211.6734,-273.49968 L 211.6734,-268.16435 L 200.36848,-268.16435 L 200.36848,-231.71251 L 193.46613,-231.71251 L 193.46613,-268.16435 L 186.89958,-268.16435 L 186.89958,-273.49968 L 193.46613,-273.49968 L 193.46613,-276.40985 C 193.46612,-281.06111 194.54811,-284.44388 196.7121,-286.55817 C 198.87606,-288.69721 202.30858,-289.76677 207.00965,-289.76682 L 213.50159,-289.76682 M 235.40253,-268.68669 C 231.72126,-268.68665 228.81109,-267.244 226.672,-264.35873 C 224.53288,-261.49827 223.46333,-257.56829 223.46334,-252.56878 C 223.46333,-247.56923 224.52045,-243.62681 226.63469,-240.74152 C 228.77378,-237.88108 231.69639,-236.45087 235.40253,-236.45088 C 239.05888,-236.45087 241.95662,-237.89352 244.09576,-240.77883 C 246.23483,-243.66412 247.30438,-247.5941 247.30441,-252.56878 C 247.30438,-257.51855 246.23483,-261.43609 244.09576,-264.32142 C 241.95662,-267.23157 239.05888,-268.68665 235.40253,-268.68669 M 235.40253,-274.50705 C 241.3721,-274.507 246.06071,-272.56689 249.46839,-268.68669 C 252.876,-264.80642 254.57982,-259.43379 254.57986,-252.56878 C 254.57982,-245.72861 252.876,-240.35598 249.46839,-236.45088 C 246.06071,-232.57064 241.3721,-230.63052 235.40253,-230.63052 C 229.40805,-230.63052 224.707,-232.57064 221.29936,-236.45088 C 217.91659,-240.35598 216.2252,-245.72861 216.22521,-252.56878 C 216.2252,-259.43379 217.91659,-264.80642 221.29936,-268.68669 C 224.707,-272.56689 229.40805,-274.507 235.40253,-274.50705 M 290.13626,-267.08236 C 289.36516,-267.53005 288.51946,-267.8534 287.59918,-268.05242 C 286.70371,-268.27624 285.70878,-268.38817 284.61438,-268.38821 C 280.73412,-268.38817 277.74933,-267.11964 275.65999,-264.58259 C 273.59549,-262.07036 272.56325,-258.45129 272.56326,-253.72539 L 272.56326,-231.71251 L 265.66092,-231.71251 L 265.66092,-273.49968 L 272.56326,-273.49968 L 272.56326,-267.00774 C 274.0059,-269.54478 275.88383,-271.42271 278.19707,-272.64155 C 280.51026,-273.88517 283.32095,-274.507 286.62912,-274.50705 C 287.10169,-274.507 287.62403,-274.46969 288.19614,-274.39512 C 288.7682,-274.34533 289.40247,-274.25827 290.09895,-274.13395 L 290.13626,-267.08236 M 328.60284,-265.47803 C 330.31905,-268.56229 332.3711,-270.83819 334.75898,-272.30576 C 337.14677,-273.77324 339.95745,-274.507 343.19104,-274.50705 C 347.54381,-274.507 350.9017,-272.9773 353.26473,-269.91792 C 355.62763,-266.88334 356.80911,-262.55539 356.80917,-256.93405 L 356.80917,-231.71251 L 349.90683,-231.71251 L 349.90683,-256.71019 C 349.90677,-260.71476 349.19788,-263.68712 347.78016,-265.62727 C 346.36233,-267.56736 344.19835,-268.53741 341.28823,-268.53745 C 337.73129,-268.53741 334.92061,-267.35593 332.85617,-264.993 C 330.79165,-262.63001 329.7594,-259.40892 329.75945,-255.32972 L 329.75945,-231.71251 L 322.8571,-231.71251 L 322.8571,-256.71019 C 322.85707,-260.73964 322.14818,-263.712 320.73043,-265.62727 C 319.31262,-267.56736 317.12377,-268.53741 314.16388,-268.53745 C 310.65672,-268.53741 307.87091,-267.3435 305.80644,-264.95569 C 303.74194,-262.5927 302.7097,-259.38404 302.70972,-255.32972 L 302.70972,-231.71251 L 295.80737,-231.71251 L 295.80737,-273.49968 L 302.70972,-273.49968 L 302.70972,-267.00774 C 304.27672,-269.56965 306.15465,-271.46002 308.34352,-272.67886 C 310.53235,-273.89761 313.13161,-274.507 316.14131,-274.50705 C 319.17582,-274.507 321.75021,-273.73593 323.86447,-272.19383 C 326.00354,-270.65164 327.58299,-268.41305 328.60284,-265.47803 M 386.73177,-268.68669 C 383.0505,-268.68665 380.14033,-267.244 378.00124,-264.35873 C 375.86212,-261.49827 374.79257,-257.56829 374.79258,-252.56878 C 374.79257,-247.56923 375.84969,-243.62681 377.96393,-240.74152 C 380.10302,-237.88108 383.02563,-236.45087 386.73177,-236.45088 C 390.38812,-236.45087 393.28586,-237.89352 395.425,-240.77883 C 397.56407,-243.66412 398.63362,-247.5941 398.63365,-252.56878 C 398.63362,-257.51855 397.56407,-261.43609 395.425,-264.32142 C 393.28586,-267.23157 390.38812,-268.68665 386.73177,-268.68669 M 386.73177,-274.50705 C 392.70134,-274.507 397.38995,-272.56689 400.79763,-268.68669 C 404.20523,-264.80642 405.90905,-259.43379 405.9091,-252.56878 C 405.90905,-245.72861 404.20523,-240.35598 400.79763,-236.45088 C 397.38995,-232.57064 392.70134,-230.63052 386.73177,-230.63052 C 380.73729,-230.63052 376.03623,-232.57064 372.6286,-236.45088 C 369.24583,-240.35598 367.55444,-245.72861 367.55445,-252.56878 C 367.55444,-259.43379 369.24583,-264.80642 372.6286,-268.68669 C 376.03623,-272.56689 380.73729,-274.507 386.73177,-274.50705 M 416.54245,-248.20352 L 416.54245,-273.49968 L 423.40749,-273.49968 L 423.40749,-248.46469 C 423.40747,-244.50982 424.17855,-241.53746 425.72071,-239.5476 C 427.26283,-237.58261 429.57605,-236.60011 432.66036,-236.60012 C 436.36646,-236.60011 439.28907,-237.78159 441.4282,-240.14456 C 443.59215,-242.50752 444.67414,-245.72861 444.67417,-249.80784 L 444.67417,-273.49968 L 451.53921,-273.49968 L 451.53921,-231.71251 L 444.67417,-231.71251 L 444.67417,-238.12982 C 443.00763,-235.59274 441.06751,-233.70237 438.85382,-232.45871 C 436.66494,-231.23992 434.11543,-230.63052 431.20527,-230.63052 C 426.40471,-230.63052 422.76077,-232.12292 420.27345,-235.10772 C 417.78611,-238.09251 416.54245,-242.45777 416.54245,-248.20352 M 433.81697,-274.50705 L 433.81697,-274.50705 M 492.39362,-272.26845 L 492.39362,-265.77651 C 490.45347,-266.77141 488.43873,-267.51761 486.34941,-268.01511 C 484.26002,-268.51254 482.09605,-268.76127 479.85747,-268.76131 C 476.44981,-268.76127 473.88786,-268.23893 472.17162,-267.19429 C 470.48022,-266.14958 469.63453,-264.58256 469.63454,-262.49323 C 469.63453,-260.90131 470.24392,-259.64521 471.46273,-258.72493 C 472.68151,-257.82946 475.13153,-256.97133 478.81279,-256.15054 L 481.16332,-255.6282 C 486.03846,-254.5835 489.49585,-253.10354 491.53549,-251.18831 C 493.59994,-249.29792 494.63218,-246.64892 494.63222,-243.24129 C 494.63218,-239.36105 493.09004,-236.28919 490.00578,-234.02573 C 486.94634,-231.76226 482.73032,-230.63052 477.3577,-230.63052 C 475.11909,-230.63052 472.781,-230.85438 470.34343,-231.3021 C 467.93071,-231.72495 465.3812,-232.37165 462.69488,-233.24222 L 462.69488,-240.33111 C 465.23196,-239.01282 467.73172,-238.01789 470.19419,-237.34631 C 472.65663,-236.6996 475.09422,-236.37625 477.50694,-236.37626 C 480.74045,-236.37625 483.22778,-236.92346 484.96894,-238.01789 C 486.71004,-239.13719 487.58061,-240.7042 487.58064,-242.71895 C 487.58061,-244.58444 486.94634,-246.01465 485.67783,-247.0096 C 484.43414,-248.00451 481.68564,-248.96214 477.43232,-249.88246 L 475.04449,-250.44211 C 470.79114,-251.33753 467.71929,-252.70557 465.82892,-254.54621 C 463.93855,-256.41169 462.99336,-258.9612 462.99336,-262.19476 C 462.99336,-266.1247 464.38626,-269.15925 467.17208,-271.29839 C 469.95788,-273.43745 473.91273,-274.507 479.03665,-274.50705 C 481.57371,-274.507 483.96154,-274.32045 486.20017,-273.9474 C 488.43873,-273.57425 490.50322,-273.01461 492.39362,-272.26845"
       style="font-size:76.41082001px;font-style:normal;font-variant:normal;font-weight:normal;font-stretch:normal;fill:url(#linearGradient3248);fill-opacity:1;stroke:none;stroke-width:1px;stroke-linecap:butt;stroke-linejoin:miter;stroke-opacity:1;font-family:Lohit Gujarati;-inkscape-font-specification:Lohit Gujarati"
       transform="scale(1.1339399,-0.881881)" />
  </g>
</svg>
