<?xml version="1.0" encoding="UTF-8" standalone="no"?>
<!-- Created with Sodipodi ("http://www.sodipodi.com/") -->
<svg
   xmlns:dc="http://purl.org/dc/elements/1.1/"
   xmlns:cc="http://web.resource.org/cc/"
   xmlns:rdf="http://www.w3.org/1999/02/22-rdf-syntax-ns#"
   xmlns:svg="http://www.w3.org/2000/svg"
   xmlns="http://www.w3.org/2000/svg"
   xmlns:xlink="http://www.w3.org/1999/xlink"
   xmlns:sodipodi="http://sodipodi.sourceforge.net/DTD/sodipodi-0.dtd"
   xmlns:inkscape="http://www.inkscape.org/namespaces/inkscape"
   version="1.0"
   x="0"
   y="0"
   width="800.000000"
   height="600.000000"
   id="svg559"
   sodipodi:version="0.32"
   inkscape:version="0.44.1"
   sodipodi:docname="intro.svg"
   sodipodi:docbase="/home/jesusda/docs/curro/yo/ultrastar-ng/lima_0.1.4">
  <metadata
     id="metadata35">
    <rdf:RDF>
      <cc:Work
         rdf:about="">
        <dc:format>image/svg+xml</dc:format>
        <dc:type
           rdf:resource="http://purl.org/dc/dcmitype/StillImage" />
      </cc:Work>
    </rdf:RDF>
  </metadata>
  <sodipodi:namedview
     inkscape:window-height="971"
     inkscape:window-width="1672"
     inkscape:pageshadow="2"
     inkscape:pageopacity="0.0"
     guidetolerance="10.0"
     gridtolerance="10.0"
     objecttolerance="10.0"
     borderopacity="1.0"
     bordercolor="#666666"
     pagecolor="#ffffff"
     id="base"
     inkscape:zoom="1.7819091"
     inkscape:cx="321.29194"
     inkscape:cy="267.6161"
     inkscape:window-x="1152"
     inkscape:window-y="30"
     inkscape:current-layer="svg559" />
  <defs
     id="defs561">
    <linearGradient
       id="linearGradient3751"
       inkscape:collect="always">
      <stop
         id="stop3753"
         offset="0"
         style="stop-color:black;stop-opacity:1;" />
      <stop
         id="stop3755"
         offset="1"
         style="stop-color:black;stop-opacity:0;" />
    </linearGradient>
    <linearGradient
       id="linearGradient6499"
       inkscape:collect="always">
      <stop
         id="stop6501"
         offset="0"
         style="stop-color:white;stop-opacity:1;" />
      <stop
         id="stop6503"
         offset="1"
         style="stop-color:white;stop-opacity:0;" />
    </linearGradient>
    <linearGradient
       inkscape:collect="always"
       xlink:href="#linearGradient6499"
       id="linearGradient3474"
       gradientUnits="userSpaceOnUse"
       gradientTransform="matrix(0.755727,0,0,0.755727,4.33502,31.78829)"
       x1="370.92285"
       y1="100.34026"
       x2="372.94315"
       y2="219.56401" />
    <linearGradient
       inkscape:collect="always"
       xlink:href="#linearGradient3751"
       id="linearGradient3484"
       gradientUnits="userSpaceOnUse"
       gradientTransform="matrix(0.755727,0,0,0.755727,48.1083,31.78829)"
       x1="665.12128"
       y1="684.16162"
       x2="381.28015"
       y2="449.80624" />
    <linearGradient
       inkscape:collect="always"
       xlink:href="#linearGradient6499"
       id="linearGradient7248"
       x1="47.094612"
       y1="260.4765"
       x2="358.07056"
       y2="260.4765"
       gradientUnits="userSpaceOnUse"
       gradientTransform="matrix(1,0,0,0.820512,12.9075,56.85372)" />
    <linearGradient
       inkscape:collect="always"
       xlink:href="#linearGradient6499"
       id="linearGradient7256"
       gradientUnits="userSpaceOnUse"
       gradientTransform="matrix(1,0,0,0.820512,12.9075,130.1193)"
       x1="44.868057"
       y1="260.4765"
       x2="358.07056"
       y2="260.4765" />
    <linearGradient
       inkscape:collect="always"
       xlink:href="#linearGradient6499"
       id="linearGradient7335"
       gradientUnits="userSpaceOnUse"
       gradientTransform="matrix(1,0,0,0.820512,49.94643,155.9343)"
       x1="44.868057"
       y1="260.4765"
       x2="358.07056"
       y2="260.4765" />
    <linearGradient
       inkscape:collect="always"
       xlink:href="#linearGradient6499"
       id="linearGradient7346"
       gradientUnits="userSpaceOnUse"
       gradientTransform="matrix(1,0,0,0.820512,49.94643,82.66873)"
       x1="47.094612"
       y1="260.4765"
       x2="358.07056"
       y2="260.4765" />
  </defs>
  <rect
     style="color:black;fill:#81d000;fill-opacity:1;fill-rule:nonzero;stroke:none;stroke-width:3;stroke-linecap:round;stroke-linejoin:miter;marker:none;marker-start:none;marker-mid:none;marker-end:none;stroke-miterlimit:4;stroke-dasharray:none;stroke-dashoffset:0;stroke-opacity:1;visibility:visible;display:block;overflow:visible"
     id="rect2828"
     width="804.80463"
     height="602.76892"
     x="-2.9193501"
     y="-2.2937295" />
  <path
     style="fill:black;fill-opacity:1;fill-rule:evenodd;stroke:black;stroke-width:0.5391832px;stroke-linecap:butt;stroke-linejoin:miter;stroke-opacity:1"
     d="M 634.60086,258.93873 L 623.70766,258.93873 L 621.52905,264.3853 L 623.70766,270.37653 L 622.61835,276.91242 L 617.17183,273.64447 L 612.81461,265.47462 L 603.55536,263.29598 L 599.7428,259.48339 L 591.57293,255.67078 L 582.31377,240.42038 L 582.85842,233.33983 L 605.73405,215.9108 L 616.6271,220.81271 L 618.26113,224.62532 L 618.26113,228.98258 L 620.98439,232.79517 L 626.43099,234.42915 L 630.24356,231.1612 L 630.78821,227.3486 L 629.15426,224.08066 L 625.88634,222.44669 L 623.70766,219.7234 L 628.6096,217.54478 L 627.5203,212.0982 L 627.5203,208.83025 L 624.25238,205.56231 L 622.61835,200.6604 L 616.08252,199.02643 L 610.63592,197.93711 L 599.19807,206.10697 L 570.33126,217.54478 L 563.79536,224.08066 L 558.89349,227.89326 L 557.8041,236.60778 L 559.98279,240.96504 L 565.42939,255.67078 L 572.50987,269.28721 L 580.13508,279.09104 L 568.15265,298.69871 L 554.53619,328.1102 L 546.36633,341.18197 L 532.74994,358.06635 L 532.20529,365.69156 L 525.12473,372.22744 L 536.01786,382.03128 L 533.29459,393.46907 L 534.3839,419.06797 L 539.28577,448.47946 L 544.18772,474.62302 L 549.63424,483.33753 L 557.25953,499.13259 L 569.24196,517.10628 L 572.50987,528.54405 L 575.77786,536.71392 L 565.97397,550.33035 L 548.54494,557.4109 L 546.91098,562.85751 L 580.13508,561.7682 L 575.23321,570.48269 L 581.22439,575.92925 L 597.01946,577.56325 L 609.54662,566.67008 L 613.90391,551.41971 L 620.98439,538.34792 L 629.69891,530.72273 L 632.42217,522.00819 L 623.16308,521.46354 L 629.15426,515.4723 L 617.17183,519.28491 L 625.88634,510.57039 L 619.35044,508.93642 L 614.44849,502.94519 L 606.27863,486.06081 L 587.21564,470.26575 L 583.40307,469.17644 L 587.21564,465.90849 L 586.67099,456.64932 L 590.48363,448.47946 L 587.21564,449.02412 L 593.20689,438.67563 L 593.20689,428.32714 L 597.01946,422.88057 L 597.01946,415.80002 L 605.18932,404.90687 L 605.73405,395.64771 L 604.10002,388.0225 L 607.91266,379.30798 L 612.26988,372.22744 L 612.26988,367.87018 L 617.17183,367.32553 L 621.52905,362.96827 L 625.34169,352.07513 L 634.0562,342.27129 L 644.40468,338.45869 L 650.9405,343.90526 L 666.73565,348.80718 L 679.26273,355.34306 L 685.25391,362.96827 L 695.60238,364.05758 L 728.28191,378.21867 L 745.16621,384.20991 L 758.78267,394.55839 L 762.05066,393.46907 L 762.05066,390.20113 L 754.42545,384.20991 L 769.13114,388.0225 L 770.76518,385.29921 L 767.49719,382.03128 L 772.94379,382.03128 L 773.48844,378.76333 L 763.68462,376.5847 L 771.30975,374.40607 L 771.30975,370.59347 L 768.58649,370.04882 L 760.41663,370.59347 L 753.8808,367.87018 L 749.52351,365.69156 L 756.05941,360.24498 L 757.69337,356.43238 L 756.60406,353.70909 L 750.61289,354.79841 L 738.08565,361.33429 L 736.45177,364.60224 L 732.09448,363.51293 L 716.2994,354.79841 L 715.75475,348.80718 L 706.49558,343.90526 L 690.70051,335.7354 L 686.88794,338.45869 L 687.4326,334.64609 L 678.71808,326.47623 L 671.09287,324.2976 L 664.01231,316.12774 L 661.83371,313.40445 L 668.91426,318.30637 L 667.82496,312.85979 L 673.27148,315.58308 L 671.63752,307.41322 L 679.26273,314.49377 L 675.99482,309.59186 L 683.61995,312.85979 L 677.08412,303.60063 L 681.986,305.2346 L 679.80739,296.52008 L 683.61995,299.78802 L 678.17343,291.61816 L 683.61995,293.25213 L 678.71808,286.71625 L 685.25391,286.17159 L 678.17343,281.81433 L 682.53065,279.63571 L 677.62878,279.09104 L 684.16461,273.09982 L 678.17343,273.64447 L 678.71808,269.83187 L 679.26273,258.93873 L 675.99482,266.56393 L 672.18218,255.67078 L 672.72683,264.3853 L 670.54822,264.92996 L 665.10162,264.92996 L 659.11037,256.21544 L 653.11919,256.21544 L 646.03863,250.22421 L 642.77064,253.49215 L 634.60086,258.93873 z "
     id="path1939" />
  <path
     id="path2864"
     d="M 347.38666,440.15657 L 336.4862,440.15657 L 339.41397,442.29833 L 347.21261,444.65426 L 352.25188,447.22437 L 343.73703,445.93931 L 331.71515,442.72669 L 320.40668,441.86998 L 313.01604,440.37075 L 301.26524,438.87152 L 277.69797,432.8746 L 271.60288,430.09032 L 278.14884,423.2367 L 293.64623,425.16428 L 298.85682,426.66351 L 302.94303,428.37691 L 309.24361,429.87615 L 316.22622,430.51867 L 316.97658,429.23361 L 313.94619,427.73439 L 309.2464,426.44933 L 304.44398,425.80681 L 299.70996,424.73593 L 302.57205,423.87923 L 296.37418,421.73747 L 293.30955,420.45241 L 286.97475,419.16736 L 280.74265,417.23978 L 272.67005,416.59725 L 266.19823,416.1689 L 262.41453,419.38154 L 244.25471,423.87923 L 243.84382,426.44933 L 242.51412,427.94856 L 249.59657,431.37537 L 255.8629,433.08878 L 275.10424,438.87152 L 294.959,444.22591 L 311.78338,448.08107 L 318.18098,455.79139 L 332.1376,467.35688 L 336.22102,472.49709 L 338.42971,479.13654 L 345.03567,482.135 L 344.07967,484.70511 L 364.17415,488.56028 L 372.17549,493.05796 L 397.2722,503.12422 L 429.75954,514.6897 L 459.18226,524.97014 L 472.80492,528.39694 L 495.2479,534.60804 L 524.09407,541.67584 L 538.09059,546.17351 L 549.02248,549.38615 L 551.98153,554.74054 L 541.18098,557.52482 L 544.65385,559.6666 L 576.87858,559.23825 L 580.14589,562.66504 L 591.24888,564.8068 L 608.58684,565.44933 L 610.9067,561.16581 L 600.96511,555.16891 L 595.79163,550.02868 L 597.36105,547.03023 L 591.91362,543.60342 L 582.13753,543.38924 L 582.51419,541.0333 L 574.09917,542.53254 L 574.64699,539.10573 L 566.57439,538.4632 L 556.05067,536.10727 L 532.04107,529.46782 L 498.15268,523.25673 L 493.31596,522.82838 L 494.06647,521.54332 L 484.83813,517.90234 L 480.99156,514.6897 L 478.23225,514.90388 L 474.52269,510.83454 L 464.81779,506.7652 L 463.52512,504.62344 L 456.885,501.83916 L 454.84469,497.55565 L 446.70649,493.91467 L 437.92049,490.9162 L 433.56312,487.4894 L 431.28316,484.70511 L 427.19687,482.99171 L 431.59135,482.77753 L 431.86522,481.06413 L 425.46482,476.78062 L 424.99105,472.92545 L 431.77098,471.42622 L 443.419,473.56797 L 463.82174,475.49556 L 482.48654,478.06566 L 495.63271,481.06413 L 507.00965,481.49248 L 552.99126,487.06104 L 575.5055,489.41698 L 598.83585,493.48632 L 601.08451,493.05796 L 598.01981,491.77291 L 584.77086,489.41698 L 603.06195,490.9162 L 602.14306,489.84533 L 595.80833,488.56028 L 601.25848,488.56028 L 598.73889,487.27522 L 586.88531,486.41852 L 592.47248,485.56182 L 588.89698,484.06258 L 585.66118,483.84841 L 577.9966,484.06258 L 568.90248,482.99171 L 562.49913,482.135 L 563.93161,479.99325 L 561.99121,478.49402 L 558.34725,477.42313 L 553.37358,477.85149 L 546.96743,480.42159 L 548.39704,481.70665 L 543.01536,481.2783 L 519.0372,477.85149 L 512.87364,475.49556 L 499.01126,473.56797 L 475.5439,470.35534 L 474.28267,471.42622 L 471.2522,469.92699 L 454.87016,466.71435 L 445.19678,465.85766 L 430.44975,462.64501 L 425.7158,461.57414 L 437.39805,463.50172 L 431.20026,461.35996 L 439.20431,462.43084 L 429.90751,459.21821 L 444.17798,462.00249 L 436.31086,460.07491 L 447.00584,461.35996 L 431.78232,457.71898 L 438.21983,458.36151 L 427.86728,454.93469 L 434.74711,456.21975 L 421.63517,453.00711 L 428.61771,453.64964 L 417.58312,451.07953 L 423.61261,450.86535 L 412.44115,449.15195 L 414.75813,448.29525 L 409.34222,448.08107 L 410.26382,445.72514 L 404.77944,445.93931 L 401.74897,444.44009 L 392.07839,440.15657 L 395.9592,443.15503 L 381.92845,438.87152 L 390.64591,442.29833 L 388.97658,442.51251 L 383.52643,442.51251 L 369.35867,439.0857 L 363.36341,439.0857 L 350.65964,436.72977 L 350.45408,438.01481 L 347.38666,440.15657 z "
     style="opacity:0.22790701;fill:url(#linearGradient3484);fill-opacity:1;fill-rule:evenodd;stroke:none;stroke-width:0.44754833px;stroke-linecap:butt;stroke-linejoin:miter;stroke-opacity:1" />
  <path
     style="fill:none;fill-opacity:0.75;fill-rule:evenodd;stroke:white;stroke-width:1.28473592;stroke-linecap:round;stroke-linejoin:round;stroke-miterlimit:4;stroke-dasharray:none;stroke-opacity:1"
     d="M 616.07753,197.15261 C 594.75235,189.2703 585.916,218.10276 590.31865,235.32851 C 595.47089,255.48711 597.05529,280.20421 587.77692,298.38488 C 581.12842,311.41241 550.38135,316.2899 550.76927,334.59948"
     id="path3759"
     sodipodi:nodetypes="cssc" />
  <path
     style="font-size:149.94555664px;font-style:normal;font-variant:normal;font-weight:normal;font-stretch:normal;text-align:start;line-height:125%;writing-mode:lr-tb;text-anchor:start;fill:white;fill-opacity:1;stroke:none;stroke-width:1px;stroke-linecap:butt;stroke-linejoin:miter;stroke-opacity:1;font-family:Interstate-LightCondensed"
     d="M 308.5151,69.6453 L 295.12452,76.683008 L 295.12452,93.946608 L 287.77984,93.946608 L 287.77984,107.28994 L 295.12452,107.28994 L 295.12452,138.62899 C 295.12452,145.53991 296.30149,150.47379 298.64342,153.4129 C 301.06083,156.35202 304.69566,157.82918 309.53057,157.82918 C 311.49478,157.82919 313.30036,157.57368 314.96236,157.09707 C 316.62435,156.62045 318.22196,155.96346 319.73288,155.08967 L 321.31523,141.48658 C 318.74666,143.47248 316.09965,144.48589 313.38009,144.48587 C 311.79359,144.48589 310.57415,144.03716 309.74316,143.16335 C 308.91216,142.21015 308.5151,140.5784 308.5151,138.27474 L 308.5151,107.28994 L 320.51227,107.28994 L 320.51227,93.946608 L 308.5151,93.946608 L 308.5151,69.6453 z M 118.33164,73.967076 L 110.63267,78.501438 L 110.63267,156.57751 L 118.33164,156.57751 L 118.33164,73.967076 z M 143.45957,73.967076 L 135.87872,78.501438 L 135.87872,97.087637 L 129.76201,97.087637 L 129.76201,103.653 L 135.87872,103.653 L 135.87872,145.2416 C 135.87872,149.47215 136.67752,152.64377 138.26394,154.75904 C 139.85044,156.79875 142.32726,157.82918 145.72675,157.82918 C 147.46431,157.82918 149.06192,157.65903 150.49727,157.35685 C 151.93263,157.13021 153.29868,156.73316 154.58296,156.12879 L 155.2678,148.973 C 153.98352,149.57738 152.76408,149.99805 151.63086,150.22468 C 150.57322,150.45133 149.35378,150.57892 147.99393,150.57892 C 146.48308,150.57892 145.34866,150.11572 144.59316,149.20917 C 143.83773,148.22709 143.45957,146.62946 143.45957,144.43864 L 143.45957,103.653 L 154.91359,103.653 L 154.91359,97.087637 L 143.45957,97.087637 L 143.45957,73.967076 z M 473.31082,76.257911 C 471.3188,76.257911 469.41686,76.698273 467.59563,77.580433 C 465.80282,78.434178 464.21466,79.671001 462.84868,81.264603 C 461.48278,82.858204 460.4101,84.778884 459.61327,87.027021 C 458.8165,89.246667 458.40879,91.710639 458.40879,94.442592 C 458.40886,96.491519 458.69468,98.309194 459.2354,99.874365 C 459.77613,101.43952 460.51145,102.76055 461.47893,103.84193 C 462.44649,104.92332 463.63184,105.75251 464.99782,106.32166 C 466.3638,106.86235 467.83928,107.12461 469.4613,107.12462 C 471.08339,107.12461 472.58252,106.8999 473.94843,106.41613 C 475.3144,105.90389 476.53248,105.1074 477.58536,104.05448 C 478.66673,103.00156 479.58501,101.66176 480.32487,100.03968 C 481.09329,98.417641 481.65533,96.49696 482.02526,94.277239 L 482.52124,91.466917 L 473.051,91.466917 L 472.34251,95.765114 L 477.27838,95.765114 C 477.27838,95.765114 477.25957,95.821416 477.23115,95.906813 C 477.23108,95.963719 477.23115,95.996442 477.23115,96.024858 C 476.74734,98.187673 475.90425,99.86482 474.68057,101.03157 C 473.4569,102.16987 471.86874,102.73196 469.93363,102.73196 C 468.93765,102.73196 468.02421,102.55389 467.17054,102.2124 C 466.34528,101.84245 465.62387,101.33669 464.99782,100.65371 C 464.37178,99.942274 463.8563,99.037941 463.48637,97.985062 C 463.14485,96.932108 462.99038,95.700122 462.99038,94.277239 C 462.99038,92.256803 463.23388,90.425147 463.74611,88.77464 C 464.28683,87.095641 465.00825,85.648046 465.91883,84.452788 C 466.82948,83.257606 467.86943,82.344234 469.0362,81.689699 C 470.23138,81.006749 471.501,80.674229 472.83849,80.674153 C 474.3182,80.674229 475.53628,81.044308 476.47543,81.784165 C 477.44298,82.524097 478.23461,83.559216 478.86065,84.925117 L 483.13527,83.059454 C 482.36692,80.92513 481.1864,79.248021 479.5928,78.052763 C 477.9992,76.857581 475.90039,76.257911 473.31082,76.257911 z M 432.50156,76.730241 L 427.21147,106.62867 L 431.60413,106.62867 L 434.81597,88.231423 C 434.84439,88.032289 434.87711,87.713674 434.93402,87.286764 C 435.01942,86.85993 435.0897,86.438385 435.1466,86.011475 C 435.20351,85.556225 435.27863,85.129768 435.33554,84.75984 C 435.39244,84.361421 435.42517,84.099183 435.45358,83.95688 C 435.59588,84.383715 435.80666,84.927082 436.09126,85.610033 C 436.40429,86.292983 436.68534,86.930212 436.94146,87.49935 L 445.6559,106.62867 L 449.74158,106.62867 L 455.05525,76.730241 L 450.63901,76.730241 L 447.45075,95.103853 C 447.42226,95.303063 447.37079,95.598023 447.28547,96.024858 C 447.22849,96.423277 447.15344,96.868476 447.09654,97.323801 C 447.03963,97.750636 446.98809,98.153438 446.93118,98.551858 C 446.87428,98.921786 446.84156,99.165281 446.81314,99.307585 C 446.67084,98.909165 446.46006,98.384615 446.17546,97.701665 C 445.89085,97.018714 445.60504,96.381485 445.34892,95.812347 L 436.82334,76.730241 L 432.50156,76.730241 z M 262.58103,92.647741 C 259.93697,92.647816 257.5027,93.072913 255.23635,93.946608 C 252.97,94.741029 250.99422,95.947698 249.33223,97.536312 C 247.74573,99.04565 246.5074,100.90929 245.60083,103.13344 C 244.69426,105.35769 244.23107,107.86328 244.23107,110.64347 C 244.23107,115.4891 245.2804,119.37093 247.39568,122.31001 C 249.58646,125.16973 252.84319,127.71396 257.14924,129.93813 C 259.26452,131.05025 261.00866,132.00139 262.36852,132.79572 C 263.7283,133.51067 264.82017,134.22992 265.65117,134.94482 C 266.48217,135.65976 267.04942,136.37902 267.35156,137.09392 C 267.72927,137.72943 267.91835,138.48733 267.91835,139.3611 C 267.91835,140.94984 267.39373,142.21015 266.33609,143.16335 C 265.35394,144.03716 263.79888,144.48589 261.6836,144.48587 C 257.07533,144.48589 252.30609,142.66091 247.39568,139.00685 L 242.64873,151.02764 C 245.44394,153.33128 248.34147,155.0403 251.36324,156.15241 C 254.38502,157.26451 257.74574,157.82918 261.44744,157.82918 C 267.11335,157.82919 271.77861,156.15879 275.40481,152.82249 C 279.10644,149.48619 280.95464,144.59097 280.95464,138.15666 C 280.95464,133.23167 279.73513,129.34984 277.31771,126.49013 C 274.97578,123.63047 271.61507,121.08625 267.23351,118.86201 C 265.19373,117.82938 263.53468,116.95554 262.2504,116.24058 C 260.96612,115.44626 259.93576,114.72701 259.18026,114.09148 C 258.42483,113.45604 257.90013,112.85273 257.59799,112.29663 C 257.37135,111.66119 257.26736,111.00419 257.26736,110.28923 C 257.26736,109.0183 257.70697,107.96626 258.61346,107.17185 C 259.52003,106.37755 260.73955,105.99108 262.2504,105.99103 C 264.44125,105.99108 266.41702,106.2616 268.15452,106.81761 C 269.96766,107.3737 272.15133,108.36349 274.71989,109.79328 L 279.37238,98.362926 C 276.72824,96.456529 274.03876,95.018003 271.31912,94.064729 C 268.67506,93.11153 265.75395,92.647816 262.58103,92.647741 z M 350.48153,92.647741 C 346.8554,92.647816 343.57977,93.150223 340.6335,94.182773 C 337.68722,95.21555 334.8512,96.731311 332.13157,98.717135 L 337.56336,108.96671 C 339.45199,107.61635 341.30012,106.66521 343.11319,106.10911 C 344.92625,105.47367 347.09111,105.1645 349.5841,105.16445 C 352.22824,105.1645 354.07637,105.89879 355.13401,107.40802 C 356.19157,108.83791 356.71627,110.68651 356.71627,112.91066 L 356.71627,117.65757 C 355.43199,116.78382 354.10856,116.16546 352.74871,115.76825 C 351.38893,115.37111 349.39419,115.15426 346.75012,115.15422 C 344.10606,115.15426 341.64814,115.68028 339.38179,116.71291 C 337.19101,117.66617 335.25778,119.06604 333.59579,120.89302 C 332.00937,122.64064 330.77096,124.81344 329.86439,127.43478 C 328.95782,129.97676 328.49463,132.83016 328.49463,136.00756 C 328.49463,142.75961 330.13479,148.07995 333.3832,151.97229 C 336.6317,155.86464 340.85266,157.82918 346.06528,157.82918 C 348.02942,157.82919 349.96264,157.34181 351.85128,156.38857 C 353.73992,155.43535 355.35649,154.05911 356.71627,152.23208 L 356.71627,156.50666 L 370.0832,156.50666 L 370.0832,113.50107 C 370.0832,106.59021 368.52806,101.3858 365.43079,97.890597 C 362.40894,94.395435 357.43172,92.647816 350.48153,92.647741 z M 406.16916,92.647741 C 403.97838,92.647816 401.89862,93.251113 399.93441,94.442592 C 397.97028,95.634147 396.41514,96.894473 395.28201,98.244806 L 395.28201,93.946608 L 381.91508,93.946608 L 381.91508,156.50666 L 395.28201,156.50666 L 395.28201,111.8243 C 397.62385,108.24974 400.50249,106.4634 403.90198,106.46336 C 405.48848,106.4634 406.87335,106.73393 408.08213,107.28994 C 409.36641,107.84604 410.58586,108.60393 411.71907,109.55712 L 415.56851,95.85958 C 414.13316,94.747528 412.70567,93.950992 411.27032,93.474279 C 409.83496,92.918291 408.13337,92.647816 406.16916,92.647741 z M 186.9611,95.835926 C 184.54368,95.836002 182.31738,96.48827 180.27767,97.772476 C 178.31347,98.981262 176.73944,100.45129 175.53073,102.18878 L 175.53073,97.087637 L 167.83176,97.087637 L 167.83176,156.57751 L 175.53073,156.57751 L 175.53073,110.00583 C 176.58837,108.19279 177.95442,106.6377 179.61642,105.35339 C 181.27841,103.99362 183.04144,103.32242 184.93008,103.32237 C 186.44101,103.32242 187.72196,103.46895 188.7796,103.77108 C 189.91274,104.07331 191.00461,104.5129 192.06225,105.11722 L 194.23497,97.087637 C 193.40397,96.709924 192.41609,96.393275 191.28295,96.166557 C 190.14974,95.93999 188.69866,95.836002 186.9611,95.835926 z M 219.12673,95.835926 C 216.02938,95.836002 213.15082,96.360703 210.50675,97.418267 C 207.86262,98.475907 205.34332,99.945955 202.92583,101.83453 L 206.42107,107.73865 C 208.53635,106.15224 210.55467,104.93276 212.4433,104.10171 C 214.33194,103.27076 216.36916,102.87371 218.55993,102.87366 C 224.67913,102.87371 227.74678,106.3384 227.74678,113.28852 L 227.74678,121.67237 C 226.46249,120.84141 224.90736,120.18912 223.09429,119.73582 C 221.28123,119.20704 219.26291,118.95651 217.07213,118.95647 C 214.57914,118.95651 212.24886,119.33464 210.058,120.09006 C 207.94272,120.84555 206.09459,122.0225 204.50817,123.60892 C 202.92175,125.1954 201.68326,127.23262 200.77677,129.72558 C 199.8702,132.14305 199.40701,134.998 199.40701,138.32198 C 199.40701,141.72153 199.7851,144.68517 200.5406,147.17815 C 201.29603,149.59561 202.34543,151.59029 203.70521,153.17673 C 205.06499,154.76319 206.6626,155.94013 208.47574,156.69559 C 210.2888,157.45104 212.24092,157.82918 214.3562,157.82918 C 217.22698,157.82918 219.76993,157.21944 221.9607,156.01071 C 224.15156,154.80199 226.08478,153.33198 227.74678,151.59443 L 227.74678,156.57751 L 235.44574,156.57751 L 235.44574,112.48556 C 235.44567,106.21535 233.9757,101.89039 231.02943,99.472885 C 228.15872,97.055518 224.18828,95.836002 219.12673,95.835926 z M 59.030727,97.087637 L 59.030727,137.87326 C 59.030727,144.52127 60.354232,149.52211 62.998294,152.8461 C 65.642356,156.17009 69.485228,157.82918 74.546709,157.82918 C 77.568559,157.82918 80.154053,157.21944 82.269332,156.01071 C 84.384537,154.72644 86.086207,153.25643 87.37049,151.59443 L 87.37049,156.57751 L 95.069459,156.57751 L 95.069459,97.087637 L 87.37049,97.087637 L 87.37049,143.89546 C 86.086207,145.70856 84.531072,147.3251 82.718008,148.76046 C 80.980516,150.12027 78.900755,150.79147 76.48326,150.79147 C 73.083773,150.79147 70.625847,149.74214 69.114922,147.62686 C 67.604072,145.43606 66.847741,141.88629 66.847741,136.97584 L 66.847741,97.087637 L 59.030727,97.087637 z M 216.97767,125.75801 C 219.62173,125.75804 221.70149,125.98965 223.21241,126.44289 C 224.79884,126.89619 226.31135,127.52485 227.74678,128.35583 L 227.74678,144.91097 C 226.31135,146.64853 224.52466,148.11854 222.40945,149.32725 C 220.36967,150.46045 218.14345,151.02764 215.72596,151.02764 C 212.85525,151.02765 210.6904,149.85069 209.25504,147.50878 C 207.81969,145.16689 207.10598,141.99526 207.10598,137.99135 C 207.10598,134.13855 207.90479,131.156 209.49121,129.0407 C 211.07771,126.84992 213.5781,125.75804 216.97767,125.75801 z M 348.54498,127.08054 C 350.58476,127.08057 352.18237,127.35109 353.3155,127.90711 C 354.52421,128.38376 355.65863,129.10301 356.71627,130.05621 L 356.71627,140.06959 C 355.88528,141.57888 354.75086,142.8392 353.3155,143.87185 C 351.95572,144.82509 350.48568,145.31246 348.89926,145.31245 C 346.70841,145.31247 345.00681,144.47727 343.7981,142.80911 C 342.66489,141.14096 342.09772,138.78998 342.09772,135.7714 C 342.09772,133.15005 342.70744,131.05454 343.91615,129.4658 C 345.12486,127.87712 346.65634,127.08057 348.54498,127.08054 z "
     id="text5554" />
  <path
     sodipodi:type="star"
     style="opacity:0.22790701;color:black;fill:white;fill-opacity:1;fill-rule:nonzero;stroke:white;stroke-width:1.70000005;stroke-linecap:round;stroke-linejoin:round;marker:none;marker-start:none;marker-mid:none;marker-end:none;stroke-miterlimit:4;stroke-dasharray:none;stroke-dashoffset:0;stroke-opacity:1;visibility:visible;display:block;overflow:visible"
     id="path5574"
     sodipodi:sides="5"
     sodipodi:cx="141.42136"
     sodipodi:cy="350.13498"
     sodipodi:r1="78.688225"
     sodipodi:r2="45.665279"
     sodipodi:arg1="1.0612041"
     sodipodi:arg2="1.6895226"
     inkscape:flatsided="false"
     inkscape:rounded="0"
     inkscape:randomized="0"
     d="M 179.80715,418.82535 L 136.01242,395.47879 L 87.954791,407.86853 L 96.625376,359.00278 L 69.991407,317.1259 L 119.14486,310.27177 L 150.74179,272.0007 L 172.4497,316.63036 L 218.61165,334.85441 L 182.87443,369.29119 L 179.80715,418.82535 z "
     transform="matrix(0.494335,-0.204386,0.204386,0.494335,-40.85519,390.7709)" />
  <path
     transform="matrix(0.430025,1.278809e-2,-1.278809e-2,0.430025,3.473491,325.8555)"
     d="M 179.80715,418.82535 L 136.01242,395.47879 L 87.954791,407.86853 L 96.625376,359.00278 L 69.991407,317.1259 L 119.14486,310.27177 L 150.74179,272.0007 L 172.4497,316.63036 L 218.61165,334.85441 L 182.87443,369.29119 L 179.80715,418.82535 z "
     inkscape:randomized="0"
     inkscape:rounded="0"
     inkscape:flatsided="false"
     sodipodi:arg2="1.6895226"
     sodipodi:arg1="1.0612041"
     sodipodi:r2="45.665279"
     sodipodi:r1="78.688225"
     sodipodi:cy="350.13498"
     sodipodi:cx="141.42136"
     sodipodi:sides="5"
     id="path5576"
     style="opacity:0.22790701;color:black;fill:white;fill-opacity:1;fill-rule:nonzero;stroke:white;stroke-width:1.70000005;stroke-linecap:round;stroke-linejoin:round;marker:none;marker-start:none;marker-mid:none;marker-end:none;stroke-miterlimit:4;stroke-dasharray:none;stroke-dashoffset:0;stroke-opacity:1;visibility:visible;display:block;overflow:visible"
     sodipodi:type="star" />
  <path
     sodipodi:type="star"
     style="opacity:0.22790701;color:black;fill:white;fill-opacity:1;fill-rule:nonzero;stroke:white;stroke-width:1.70000005;stroke-linecap:round;stroke-linejoin:round;marker:none;marker-start:none;marker-mid:none;marker-end:none;stroke-miterlimit:4;stroke-dasharray:none;stroke-dashoffset:0;stroke-opacity:1;visibility:visible;display:block;overflow:visible"
     id="path5578"
     sodipodi:sides="5"
     sodipodi:cx="141.42136"
     sodipodi:cy="350.13498"
     sodipodi:r1="78.688225"
     sodipodi:r2="45.665279"
     sodipodi:arg1="1.0612041"
     sodipodi:arg2="1.6895226"
     inkscape:flatsided="false"
     inkscape:rounded="0"
     inkscape:randomized="0"
     d="M 179.80715,418.82535 L 136.01242,395.47879 L 87.954791,407.86853 L 96.625376,359.00278 L 69.991407,317.1259 L 119.14486,310.27177 L 150.74179,272.0007 L 172.4497,316.63036 L 218.61165,334.85441 L 182.87443,369.29119 L 179.80715,418.82535 z "
     transform="matrix(0.308608,-0.157328,0.157328,0.308608,10.40351,345.4728)" />
  <path
     transform="matrix(0.218514,5.453603e-2,-5.453603e-2,0.218514,55.30272,306.0341)"
     d="M 179.80715,418.82535 L 136.01242,395.47879 L 87.954791,407.86853 L 96.625376,359.00278 L 69.991407,317.1259 L 119.14486,310.27177 L 150.74179,272.0007 L 172.4497,316.63036 L 218.61165,334.85441 L 182.87443,369.29119 L 179.80715,418.82535 z "
     inkscape:randomized="0"
     inkscape:rounded="0"
     inkscape:flatsided="false"
     sodipodi:arg2="1.6895226"
     sodipodi:arg1="1.0612041"
     sodipodi:r2="45.665279"
     sodipodi:r1="78.688225"
     sodipodi:cy="350.13498"
     sodipodi:cx="141.42136"
     sodipodi:sides="5"
     id="path5580"
     style="opacity:0.22790701;color:black;fill:white;fill-opacity:1;fill-rule:nonzero;stroke:white;stroke-width:1.70000005;stroke-linecap:round;stroke-linejoin:round;marker:none;marker-start:none;marker-mid:none;marker-end:none;stroke-miterlimit:4;stroke-dasharray:none;stroke-dashoffset:0;stroke-opacity:1;visibility:visible;display:block;overflow:visible"
     sodipodi:type="star" />
  <path
     sodipodi:type="star"
     style="opacity:0.22790701;color:black;fill:white;fill-opacity:1;fill-rule:nonzero;stroke:white;stroke-width:1.70000005;stroke-linecap:round;stroke-linejoin:round;marker:none;marker-start:none;marker-mid:none;marker-end:none;stroke-miterlimit:4;stroke-dasharray:none;stroke-dashoffset:0;stroke-opacity:1;visibility:visible;display:block;overflow:visible"
     id="path5582"
     sodipodi:sides="5"
     sodipodi:cx="141.42136"
     sodipodi:cy="350.13498"
     sodipodi:r1="78.688225"
     sodipodi:r2="45.665279"
     sodipodi:arg1="1.0612041"
     sodipodi:arg2="1.6895226"
     inkscape:flatsided="false"
     inkscape:rounded="0"
     inkscape:randomized="0"
     d="M 179.80715,418.82535 L 136.01242,395.47879 L 87.954791,407.86853 L 96.625376,359.00278 L 69.991407,317.1259 L 119.14486,310.27177 L 150.74179,272.0007 L 172.4497,316.63036 L 218.61165,334.85441 L 182.87443,369.29119 L 179.80715,418.82535 z "
     transform="matrix(0.164046,9.96525e-3,-9.96525e-3,0.164046,79.55929,302.6636)" />
  <path
     style="font-size:112.0508728px;font-style:normal;font-variant:normal;font-weight:normal;font-stretch:normal;text-align:start;line-height:125%;writing-mode:lr-tb;text-anchor:start;fill:url(#linearGradient3474);fill-opacity:1;stroke:none;stroke-width:1px;stroke-linecap:butt;stroke-linejoin:miter;stroke-opacity:1;font-family:Interstate-LightCondensed"
     d="M 74.546709,162.41077 C 69.485228,162.41077 65.642356,163.34132 62.998294,165.19752 C 60.354232,167.0537 59.030727,169.82174 59.030727,173.53413 L 59.030727,196.32402 L 66.847741,196.32402 L 66.847741,174.05369 C 66.847741,171.31158 67.604072,169.32573 69.114922,168.10234 C 70.625847,166.92112 73.083773,166.3311 76.48326,166.33111 C 78.900755,166.33111 80.980516,166.70534 82.718008,167.4647 C 84.531072,168.26623 86.086207,169.16811 87.37049,170.18059 L 87.37049,196.32402 L 95.069459,196.32402 L 95.069459,163.09565 L 87.37049,163.09565 L 87.37049,165.88239 C 86.086207,164.95429 84.384537,164.14345 82.269332,163.42628 C 80.154053,162.7513 77.568559,162.41077 74.546709,162.41077 z M 145.72675,162.41077 C 142.32726,162.41077 139.85044,162.97214 138.26394,164.11116 C 136.67752,165.29238 135.87872,167.06243 135.87872,169.42487 L 135.87872,192.63985 L 129.76201,192.63985 L 129.76201,196.32402 L 135.87872,196.32402 L 135.87872,206.69165 L 143.45957,209.21862 L 143.45957,196.32402 L 154.91359,196.32402 L 154.91359,192.63985 L 143.45957,192.63985 L 143.45957,169.87358 C 143.45957,168.65018 143.83773,167.75333 144.59316,167.20492 C 145.34866,166.69868 146.48308,166.44918 147.99393,166.44919 C 149.35378,166.44919 150.57322,166.51155 151.63086,166.63812 C 152.76408,166.76468 153.98352,167.00913 155.2678,167.34662 L 154.58296,163.35543 C 153.29868,163.01795 151.93263,162.77349 150.49727,162.64694 C 149.06192,162.47819 147.46431,162.41077 145.72675,162.41077 z M 214.3562,162.41077 C 212.24092,162.41077 210.2888,162.60294 208.47574,163.0248 C 206.6626,163.44666 205.06499,164.09907 203.70521,164.98497 C 202.34536,165.87088 201.29603,167.01216 200.5406,168.36212 C 199.78518,169.75426 199.40701,171.39958 199.40701,173.29797 C 199.40701,175.15415 199.8702,176.74214 200.77677,178.09211 C 201.68334,179.48424 202.92175,180.63057 204.50817,181.5165 C 206.09459,182.40239 207.94272,183.05478 210.058,183.47666 C 212.24886,183.8985 214.57914,184.11429 217.07213,184.11431 C 219.26291,184.11429 221.28123,183.96089 223.09429,183.6656 C 224.90736,183.41246 226.46249,183.04326 227.74678,182.57924 L 227.74678,187.27892 C 227.7467,191.16002 224.67913,193.08854 218.55993,193.08857 C 216.36916,193.08854 214.33194,192.86771 212.4433,192.40369 C 210.55467,191.93962 208.53635,191.25857 206.42107,190.37267 L 202.92583,193.65536 C 205.34332,194.70999 207.86262,195.54446 210.50675,196.13509 C 213.15082,196.72566 216.02938,197.00887 219.12673,197.0089 C 224.18828,197.00887 228.15872,196.35143 231.02943,195.0015 C 233.9757,193.65152 235.44567,191.20545 235.44574,187.70401 L 235.44574,163.09565 L 227.74678,163.09565 L 227.74678,165.88239 C 226.08471,164.91211 224.15156,164.10127 221.9607,163.42628 C 219.76993,162.7513 217.22691,162.41077 214.3562,162.41077 z M 261.44744,162.41077 C 257.74574,162.41077 254.38502,162.7108 251.36324,163.33182 C 248.34139,163.95284 245.44394,164.903 242.64873,166.18941 L 247.39568,172.9201 C 252.30609,170.87959 257.07533,169.84996 261.6836,169.84996 C 263.79888,169.84995 265.35394,170.09411 266.33609,170.58207 C 267.39365,171.11437 267.91835,171.82037 267.91835,172.70755 C 267.91835,173.19549 267.72927,173.62796 267.35156,173.98284 C 267.04942,174.38206 266.48217,174.78804 265.65117,175.18728 C 264.82017,175.5865 263.7283,175.96887 262.36852,176.36811 C 261.00866,176.81168 259.26452,177.35299 257.14924,177.97403 C 252.84319,179.21606 249.58646,180.62806 247.39568,182.22499 C 245.2804,183.86623 244.23107,186.03724 244.23107,188.74314 C 244.23107,190.29566 244.69426,191.70479 245.60083,192.94687 C 246.50732,194.18888 247.74573,195.22139 249.33223,196.06424 C 250.99422,196.95138 252.97,197.62802 255.23635,198.07164 C 257.5027,198.55955 259.93697,198.80371 262.58103,198.80375 C 265.75395,198.80371 268.67506,198.53307 271.31912,198.00079 C 274.03876,197.46845 276.72824,196.68011 279.37238,195.61553 L 274.71989,189.21547 C 272.15133,190.01389 269.96766,190.58169 268.15452,190.89224 C 266.41702,191.20272 264.44125,191.34093 262.2504,191.34095 C 260.73955,191.34093 259.52003,191.12325 258.61346,190.67969 C 257.70697,190.23607 257.26736,189.6654 257.26736,188.95568 C 257.26736,188.55643 257.37135,188.17694 257.59799,187.82209 C 257.90013,187.51156 258.42483,187.18505 259.18026,186.8302 C 259.93576,186.47531 260.96612,186.06932 262.2504,185.62576 C 263.53468,185.22652 265.19373,184.73818 267.23351,184.16154 C 271.61507,182.91948 274.97578,181.50748 277.31771,179.91058 C 279.73513,178.31365 280.95464,176.14265 280.95464,173.39243 C 280.95464,169.79937 279.10651,167.06057 275.40481,165.19752 C 271.77861,163.33445 267.11335,162.41077 261.44744,162.41077 z M 309.53057,162.41077 C 304.69566,162.41077 301.06083,163.22561 298.64342,164.86689 C 296.30149,166.50815 295.12452,169.24982 295.12452,173.10903 L 295.12452,190.60884 L 287.77984,190.60884 L 287.77984,198.07164 L 295.12452,198.07164 L 295.12452,207.70716 L 308.5151,211.65111 L 308.5151,198.07164 L 320.51227,198.07164 L 320.51227,190.60884 L 308.5151,190.60884 L 308.5151,173.32158 C 308.5151,172.03517 308.91216,171.11436 309.74316,170.58207 C 310.57415,170.09412 311.79359,169.84996 313.38009,169.84996 C 316.09965,169.84995 318.74666,170.41775 321.31523,171.52673 L 319.73288,163.92223 C 318.22196,163.43428 316.62435,163.07841 314.96236,162.81225 C 313.30036,162.5461 311.49478,162.41077 309.53057,162.41077 z M 346.06528,162.41077 C 340.85266,162.41077 336.6317,163.49627 333.3832,165.66985 C 330.13479,167.84342 328.49463,170.80276 328.49463,174.57326 C 328.49463,176.34759 328.95782,177.94789 329.86439,179.3674 C 330.77088,180.83121 332.00937,182.05204 333.59579,183.02795 C 335.25778,184.04818 337.19101,184.83365 339.38179,185.36598 C 341.64814,185.94262 344.10606,186.21615 346.75012,186.21617 C 349.39426,186.21615 351.38893,186.10732 352.74871,185.88554 C 354.10856,185.66373 355.43199,185.31072 356.71627,184.8228 L 356.71627,187.49146 C 356.71627,188.73348 356.19165,189.7395 355.13401,190.53799 C 354.07637,191.38078 352.22816,191.81325 349.5841,191.81328 C 347.09111,191.81325 344.92633,191.62494 343.11319,191.2701 C 341.30012,190.95956 339.45199,190.44187 337.56336,189.6878 L 332.13157,195.40298 C 334.8512,196.51191 337.68722,197.35325 340.6335,197.92994 C 343.5797,198.50657 346.8554,198.80371 350.48153,198.80375 C 357.43172,198.80371 362.40894,197.82706 365.43079,195.87531 C 368.52806,193.92349 370.0832,191.02001 370.0832,187.16083 L 370.0832,163.14288 L 356.71627,163.14288 L 356.71627,165.52815 C 355.35649,164.50789 353.73992,163.72242 351.85128,163.19012 C 349.96264,162.65781 348.02942,162.41077 346.06528,162.41077 z M 110.63267,163.09565 L 110.63267,206.69165 L 118.33164,209.21862 L 118.33164,163.09565 L 110.63267,163.09565 z M 167.83176,163.09565 L 167.83176,196.32402 L 175.53073,196.32402 L 175.53073,193.46643 C 176.73952,194.43669 178.31347,195.27115 180.27767,195.94616 C 182.31738,196.66329 184.54368,197.00887 186.9611,197.0089 C 188.69866,197.00887 190.14974,196.9465 191.28295,196.81997 C 192.41609,196.69338 193.40397,196.53492 194.23497,196.32402 L 192.06225,191.83689 C 191.00461,192.17436 189.91274,192.42384 188.7796,192.59262 C 187.72196,192.76134 186.44101,192.82876 184.93008,192.82879 C 183.04144,192.82876 181.27841,192.45451 179.61642,191.6952 C 177.95442,190.978 176.58837,190.10982 175.53073,189.09738 L 175.53073,163.09565 L 167.83176,163.09565 z M 381.91508,163.14288 L 381.91508,198.07164 L 395.28201,198.07164 L 395.28201,195.66276 C 396.41514,196.41683 397.97028,197.14645 399.93441,197.81186 C 401.89862,198.47721 403.97838,198.80371 406.16916,198.80375 C 408.13337,198.80371 409.83496,198.6419 411.27032,198.33142 C 412.70567,198.06523 414.13316,197.62988 415.56851,197.0089 L 411.71907,189.35716 C 410.58586,189.88944 409.36634,190.29829 408.08213,190.60884 C 406.87335,190.91932 405.4884,191.08114 403.90198,191.08117 C 400.50249,191.08114 397.62385,190.07798 395.28201,188.08188 L 395.28201,163.14288 L 381.91508,163.14288 z M 215.72596,166.18941 C 218.14345,166.18941 220.36967,166.52489 222.40945,167.15768 C 224.52466,167.83266 226.31135,168.64351 227.74678,169.6138 L 227.74678,178.84784 C 226.31135,179.31187 224.79884,179.68106 223.21241,179.93419 C 221.70149,180.18729 219.62173,180.31203 216.97767,180.31206 C 213.5781,180.31204 211.07771,179.69336 209.49121,178.46997 C 207.90479,177.28875 207.10598,175.63838 207.10598,173.4869 C 207.10598,171.25103 207.81969,169.45735 209.25504,168.14958 C 210.69047,166.8418 212.85525,166.1894 215.72596,166.18941 z M 348.89926,169.37763 C 350.48568,169.37762 351.95572,169.64828 353.3155,170.18059 C 354.75086,170.75724 355.88528,171.46325 356.71627,172.30607 L 356.71627,177.90318 C 355.65863,178.43547 354.52421,178.84145 353.3155,179.10762 C 352.18237,179.41811 350.58468,179.57993 348.54498,179.57995 C 346.65634,179.57993 345.12493,179.12097 343.91615,178.23381 C 342.70744,177.34662 342.09772,176.17877 342.09772,174.71495 C 342.09772,173.02931 342.66489,171.72614 343.7981,170.79462 C 345.00681,169.86309 346.70841,169.37763 348.89926,169.37763 z M 469.4613,190.7033 C 467.83928,190.7033 466.3638,190.85007 464.99782,191.15202 C 463.63184,191.46984 462.44649,191.94152 461.47893,192.54539 C 460.51145,193.14926 459.77605,193.89132 459.2354,194.76534 C 458.69468,195.63935 458.40886,196.64406 458.40879,197.78824 C 458.40879,199.3138 458.8165,200.70521 459.61327,201.94474 C 460.41003,203.20014 461.48278,204.26666 462.84868,205.15658 C 464.21466,206.04648 465.80282,206.73446 467.59563,207.21122 C 469.41686,207.70383 471.3188,207.94331 473.31082,207.94333 C 475.90039,207.94331 477.9992,207.61885 479.5928,206.95143 C 481.1864,206.28398 482.36685,205.35653 483.13527,204.16469 L 478.86065,203.10195 C 478.23461,203.86472 477.44298,204.46001 476.47543,204.87318 C 475.53628,205.28635 474.3182,205.48721 472.83849,205.48721 C 471.501,205.48721 470.23138,205.3018 469.0362,204.92042 C 467.86943,204.5549 466.82948,204.02915 465.91883,203.36173 C 465.00825,202.69429 464.28683,201.89043 463.74611,200.95285 C 463.23388,200.03114 462.99038,199.01098 462.99038,197.88271 C 462.99038,197.08814 463.14485,196.39242 463.48637,195.80446 C 463.8563,195.21648 464.37178,194.73752 464.99782,194.34024 C 465.62387,193.95885 466.34528,193.6494 467.17054,193.44281 C 468.02421,193.25212 468.93765,193.15942 469.93363,193.15942 C 471.86874,193.15942 473.4569,193.49203 474.68057,194.12769 C 475.90425,194.77923 476.74734,195.70669 477.23115,196.91443 C 477.23115,196.93032 477.23108,196.95351 477.23115,196.98528 C 477.25957,197.03296 477.27838,197.05613 477.27838,197.05613 L 472.34251,197.05613 L 473.051,199.46501 L 482.52124,199.46501 L 482.02526,197.88271 C 481.65533,196.64318 481.09329,195.57667 480.32487,194.67087 C 479.58501,193.76506 478.66673,193.01528 477.58536,192.42731 C 476.53248,191.83933 475.3144,191.39083 473.94843,191.10478 C 472.58252,190.83463 471.08339,190.7033 469.4613,190.7033 z M 427.21147,190.9867 L 432.50156,207.68354 L 436.82334,207.68354 L 445.34892,197.03252 C 445.60504,196.71469 445.89085,196.35116 446.17546,195.96978 C 446.46006,195.58838 446.67084,195.29482 446.81314,195.07235 C 446.84156,195.1518 446.87428,195.29086 446.93118,195.49745 C 446.98809,195.71993 447.03963,195.94395 447.09654,196.18232 C 447.15344,196.43658 447.22849,196.69195 447.28547,196.91443 C 447.37079,197.1528 447.42233,197.32276 447.45075,197.434 L 450.63901,207.68354 L 455.05525,207.68354 L 449.74158,190.9867 L 445.6559,190.9867 L 436.94146,201.68496 C 436.68534,202.00278 436.40429,202.34268 436.09126,202.72409 C 435.80666,203.10546 435.59588,203.40675 435.45358,203.64513 C 435.42517,203.56566 435.39244,203.41889 435.33554,203.19642 C 435.27863,202.98981 435.20351,202.76579 435.1466,202.51154 C 435.0897,202.27316 435.01942,202.04141 434.93402,201.80304 C 434.87711,201.56466 434.84439,201.37109 434.81597,201.25987 L 431.60413,190.9867 L 427.21147,190.9867 z "
     id="text5584" />
  <path
     transform="matrix(0.76534,5.189341e-2,-5.189341e-2,0.76534,-45.40995,328.4406)"
     d="M 179.80715,418.82535 L 136.01242,395.47879 L 87.954791,407.86853 L 96.625376,359.00278 L 69.991407,317.1259 L 119.14486,310.27177 L 150.74179,272.0007 L 172.4497,316.63036 L 218.61165,334.85441 L 182.87443,369.29119 L 179.80715,418.82535 z "
     inkscape:randomized="0"
     inkscape:rounded="0"
     inkscape:flatsided="false"
     sodipodi:arg2="1.6895226"
     sodipodi:arg1="1.0612041"
     sodipodi:r2="45.665279"
     sodipodi:r1="78.688225"
     sodipodi:cy="350.13498"
     sodipodi:cx="141.42136"
     sodipodi:sides="5"
     id="path6523"
     style="opacity:0.22790701;color:black;fill:white;fill-opacity:1;fill-rule:nonzero;stroke:white;stroke-width:1.70000005;stroke-linecap:round;stroke-linejoin:round;marker:none;marker-start:none;marker-mid:none;marker-end:none;stroke-miterlimit:4;stroke-dasharray:none;stroke-dashoffset:0;stroke-opacity:1;visibility:visible;display:block;overflow:visible"
     sodipodi:type="star" />
  <rect
     style="color:black;fill:url(#linearGradient7346);fill-opacity:1;fill-rule:nonzero;stroke:none;stroke-width:2.29999995;stroke-linecap:butt;stroke-linejoin:miter;marker:none;marker-start:none;marker-mid:none;marker-end:none;stroke-miterlimit:4;stroke-dasharray:none;stroke-dashoffset:0;stroke-opacity:1;visibility:visible;display:inline;overflow:visible"
     id="rect6355"
     width="249.17096"
     height="35.916534"
     x="157.69603"
     y="278.43478" />
  <path
     style="font-size:16.15953636px;font-style:normal;font-weight:normal;fill:black;fill-opacity:1;stroke:none;stroke-width:1px;stroke-linecap:butt;stroke-linejoin:miter;stroke-opacity:1;font-family:Trebuchet MS"
     d="M 161.67692,286.50218 L 161.67692,290.95236 L 160.09884,290.95236 L 160.09884,279.39293 C 161.29292,279.34034 162.01358,279.31404 162.26081,279.31402 C 165.61686,279.31404 167.29488,280.4371 167.29489,282.68322 C 167.29488,285.2818 165.81148,286.58109 162.8447,286.58108 C 162.66585,286.58109 162.27659,286.55478 161.67692,286.50218 M 161.67692,280.8132 L 161.67692,285.08191 C 162.34497,285.13451 162.69741,285.16082 162.73424,285.16081 C 164.69105,285.16082 165.66946,284.39019 165.66946,282.84892 C 165.66946,281.43918 164.6253,280.73431 162.53698,280.7343 C 162.32656,280.73431 162.03988,280.76061 161.67692,280.8132 M 172.84184,283.94569 C 172.51569,283.7195 172.18693,283.60641 171.85554,283.6064 C 171.32425,283.60641 170.85871,283.85101 170.45894,284.34021 C 170.06441,284.82942 169.86715,285.41857 169.86716,286.10766 L 169.86716,290.95236 L 168.36798,290.95236 L 168.36798,282.50175 L 169.86716,282.50175 L 169.86716,283.851 C 170.41422,282.8463 171.22693,282.34395 172.30529,282.34394 C 172.57356,282.34395 172.96019,282.39129 173.46518,282.48596 L 172.84184,283.94569 M 181.64752,286.87303 L 175.55613,286.87303 C 175.55613,287.86196 175.82703,288.62207 176.36884,289.15335 C 176.84753,289.61626 177.46298,289.84771 178.2152,289.84771 C 179.07262,289.84771 179.78801,289.59784 180.36139,289.09812 L 180.99262,290.1791 C 180.76116,290.41056 180.40609,290.61045 179.92741,290.77877 C 179.32774,290.9997 178.65968,291.11017 177.92325,291.11017 C 176.86068,291.11017 175.95854,290.74984 175.21685,290.02919 C 174.39098,289.23489 173.97805,288.16705 173.97805,286.82568 C 173.97805,285.43172 174.4015,284.31391 175.24841,283.47226 C 176.00588,282.72005 176.90276,282.34395 177.93903,282.34394 C 179.14363,282.34395 180.08785,282.68323 180.77169,283.3618 C 181.43447,284.01408 181.76587,284.87939 181.76588,285.95774 C 181.76587,286.28914 181.72642,286.59424 181.64752,286.87303 M 178.01005,283.6064 C 177.34199,283.60641 176.78177,283.82208 176.32939,284.25341 C 175.89805,284.66372 175.65345,285.17397 175.59559,285.78415 L 180.27459,285.78415 C 180.27458,285.17923 180.08522,284.67424 179.70648,284.26919 C 179.29092,283.82734 178.72544,283.60641 178.01005,283.6064 M 182.78374,290.44738 L 183.3124,289.0271 C 184.14878,289.57417 184.82209,289.84771 185.33234,289.84771 C 186.25814,289.84771 186.72104,289.45845 186.72105,288.67993 C 186.72104,288.12234 186.27392,287.64366 185.37968,287.24387 C 184.69058,286.92826 184.22505,286.68892 183.98308,286.52585 C 183.74637,286.36278 183.53859,286.17868 183.35974,285.97352 C 183.18615,285.76312 183.05464,285.54218 182.96522,285.31073 C 182.88105,285.07402 182.83897,284.82153 182.83897,284.55325 C 182.83897,283.8589 183.09146,283.31709 183.59645,282.92783 C 184.10143,282.53858 184.7616,282.34395 185.57694,282.34394 C 186.19239,282.34395 186.96828,282.53858 187.90461,282.92783 L 187.47853,284.31654 C 186.88411,283.84312 186.28707,283.60641 185.68741,283.6064 C 185.3297,283.60641 185.02724,283.69057 184.78001,283.85889 C 184.53803,284.02723 184.41705,284.24027 184.41705,284.49802 C 184.41705,285.03983 184.72477,285.45013 185.34023,285.72892 L 186.41332,286.21812 C 187.07085,286.51796 187.54953,286.85988 187.84937,287.24387 C 188.1492,287.62788 188.29912,288.10919 188.29913,288.68782 C 188.29912,289.4453 188.03348,290.03971 187.5022,290.47105 C 186.97091,290.89713 186.23447,291.11017 185.29289,291.11017 C 184.4039,291.11017 183.56752,290.88924 182.78374,290.44738 M 189.31699,290.44738 L 189.84565,289.0271 C 190.68203,289.57417 191.35534,289.84771 191.86559,289.84771 C 192.79139,289.84771 193.25429,289.45845 193.2543,288.67993 C 193.25429,288.12234 192.80717,287.64366 191.91293,287.24387 C 191.22383,286.92826 190.7583,286.68892 190.51633,286.52585 C 190.27962,286.36278 190.07184,286.17868 189.89299,285.97352 C 189.7194,285.76312 189.58789,285.54218 189.49847,285.31073 C 189.4143,285.07402 189.37222,284.82153 189.37222,284.55325 C 189.37222,283.8589 189.62471,283.31709 190.1297,282.92783 C 190.63468,282.53858 191.29485,282.34395 192.11019,282.34394 C 192.72564,282.34395 193.50153,282.53858 194.43786,282.92783 L 194.01178,284.31654 C 193.41736,283.84312 192.82032,283.60641 192.22066,283.6064 C 191.86295,283.60641 191.56049,283.69057 191.31326,283.85889 C 191.07129,284.02723 190.9503,284.24027 190.9503,284.49802 C 190.9503,285.03983 191.25802,285.45013 191.87348,285.72892 L 192.94657,286.21812 C 193.6041,286.51796 194.08278,286.85988 194.38263,287.24387 C 194.68245,287.62788 194.83237,288.10919 194.83238,288.68782 C 194.83237,289.4453 194.56673,290.03971 194.03545,290.47105 C 193.50416,290.89713 192.76772,291.11017 191.82614,291.11017 C 190.93715,291.11017 190.10077,290.88924 189.31699,290.44738"
     id="text6525" />
  <path
     style="font-size:33.91344452px;font-style:normal;font-weight:normal;fill:black;fill-opacity:1;stroke:none;stroke-width:1px;stroke-linecap:butt;stroke-linejoin:miter;stroke-opacity:1;font-family:Trebuchet MS"
     d="M 266.44284,291.47938 L 264.38948,291.47938 L 264.38948,288.99549 L 266.44284,288.99549 L 266.44284,285.28621 L 269.5891,284.07738 L 269.5891,288.99549 L 274.45754,288.99549 L 274.45754,291.47938 L 269.5891,291.47938 L 269.5891,300.28893 C 269.5891,301.77927 269.83749,302.83907 270.33427,303.46832 C 270.84208,304.09757 271.65349,304.4122 272.76849,304.4122 C 273.57436,304.4122 274.40785,304.20797 275.26894,303.7995 L 275.7326,306.56491 C 274.42993,306.89609 273.00031,307.06168 271.44374,307.06169 C 270.04172,307.06168 268.85497,306.54283 267.8835,305.50511 C 266.92305,304.45636 266.44283,303.13713 266.44284,301.54744 L 266.44284,291.47938 M 277.6038,297.8216 C 277.6038,295.0838 278.33793,292.8759 279.80619,291.19788 C 281.28548,289.50885 283.22844,288.66432 285.63506,288.6643 C 288.17414,288.66432 290.1447,289.47573 291.54673,291.09852 C 292.94874,292.71031 293.64975,294.95133 293.64976,297.8216 C 293.64975,300.68084 292.93218,302.93842 291.49706,304.59435 C 290.0619,306.23924 288.10791,307.06168 285.63506,307.06169 C 283.107,307.06168 281.13645,306.2282 279.72339,304.56123 C 278.31033,302.89427 277.6038,300.64772 277.6038,297.8216 M 280.91566,297.8216 C 280.91566,302.27053 282.48879,304.495 285.63506,304.49499 C 287.10331,304.495 288.25142,303.89886 289.0794,302.70659 C 289.91839,301.51433 290.33789,299.886 290.33791,297.8216 C 290.33789,293.42788 288.77028,291.23101 285.63506,291.231 C 284.19992,291.23101 283.05181,291.81611 282.19073,292.98628 C 281.34068,294.15648 280.91566,295.76825 280.91566,297.8216 M 306.33419,305.62103 L 307.54302,302.57412 C 308.16123,303.02674 308.92847,303.4076 309.84476,303.71671 C 310.77207,304.01478 311.60004,304.16381 312.32865,304.16381 C 313.62027,304.16381 314.65799,303.81055 315.4418,303.10401 C 316.2256,302.39749 316.6175,301.49777 316.61751,300.40485 C 316.6175,299.58793 316.39671,298.83172 315.95514,298.13622 C 315.52459,297.4297 314.43168,296.66246 312.6764,295.83448 L 310.7224,294.92372 C 309.06647,294.15096 307.90732,293.23468 307.24495,292.17488 C 306.59362,291.1151 306.26795,289.84003 306.26795,288.34968 C 306.26795,286.53921 306.90824,285.03784 308.18883,283.84555 C 309.46941,282.6533 311.1143,282.05717 313.1235,282.05714 C 315.8061,282.05717 317.67178,282.49323 318.72054,283.36533 L 317.74354,286.24665 C 317.30195,285.92652 316.62854,285.61741 315.72331,285.31933 C 314.81806,285.02128 313.97906,284.87225 313.2063,284.87222 C 312.08026,284.87225 311.19158,285.19239 310.54025,285.83266 C 309.89995,286.47298 309.57981,287.29542 309.57981,288.3 C 309.57981,288.91823 309.69572,289.48125 309.92756,289.98905 C 310.15938,290.49688 310.47953,290.9219 310.888,291.26411 C 311.30749,291.60635 312.15753,292.08657 313.43813,292.70477 L 315.42524,293.64865 C 317.08116,294.43247 318.24031,295.37083 318.9027,296.46373 C 319.57609,297.54562 319.9128,298.92556 319.91281,300.60356 C 319.9128,302.42509 319.17867,303.97062 317.71043,305.24016 C 316.2532,306.50971 314.2992,307.14448 311.84843,307.14448 C 309.69572,307.14448 307.85764,306.63666 306.33419,305.62103 M 324.59909,291.47938 L 322.54574,291.47938 L 322.54574,288.99549 L 324.59909,288.99549 L 324.59909,285.28621 L 327.74536,284.07738 L 327.74536,288.99549 L 332.61379,288.99549 L 332.61379,291.47938 L 327.74536,291.47938 L 327.74536,300.28893 C 327.74535,301.77927 327.99374,302.83907 328.49053,303.46832 C 328.99834,304.09757 329.80975,304.4122 330.92475,304.4122 C 331.73062,304.4122 332.56411,304.20797 333.4252,303.7995 L 333.88886,306.56491 C 332.58618,306.89609 331.15657,307.06168 329.6,307.06169 C 328.19797,307.06168 327.01123,306.54283 326.03975,305.50511 C 325.07931,304.45636 324.59909,303.13713 324.59909,301.54744 L 324.59909,291.47938 M 346.93759,304.69371 C 345.67907,306.27236 343.75268,307.06168 341.15839,307.06169 C 339.76741,307.06168 338.55858,306.55939 337.53191,305.55479 C 336.51627,304.53915 336.00845,303.28065 336.00845,301.77927 C 336.00845,299.97983 336.79226,298.4619 338.35987,297.22546 C 339.93852,295.97801 341.94771,295.35427 344.38746,295.35426 C 345.04982,295.35427 345.80051,295.49779 346.63952,295.7848 C 346.63951,292.91454 345.35893,291.4794 342.79776,291.47938 C 340.83272,291.4794 339.32031,292.0093 338.26052,293.06908 L 336.93577,290.43615 C 337.5319,289.95043 338.35435,289.53644 339.40311,289.1942 C 340.4629,288.84095 341.47301,288.66432 342.43346,288.6643 C 345.00566,288.66432 346.87134,289.24942 348.0305,290.41959 C 349.20068,291.5898 349.78577,293.44995 349.78579,296.00007 L 349.78579,302.35884 C 349.78577,303.91542 350.24943,304.95314 351.17677,305.47199 L 351.17677,307.04513 C 349.89617,307.04513 348.93573,306.86297 348.29545,306.49867 C 347.66619,306.13437 347.21357,305.53271 346.93759,304.69371 M 346.63952,298.02031 C 345.64595,297.79953 344.95046,297.68913 344.55305,297.68912 C 342.96335,297.68913 341.66621,298.09759 340.66162,298.91451 C 339.65701,299.73144 339.15471,300.6974 339.15472,301.81239 C 339.15471,303.65599 340.24211,304.57779 342.4169,304.57779 C 344.00658,304.57779 345.41412,303.82159 346.63952,302.30917 L 346.63952,298.02031 M 364.37453,292.02584 C 363.69007,291.55116 363.0001,291.31381 362.30462,291.31379 C 361.18961,291.31381 360.21262,291.82714 359.37362,292.85381 C 358.54565,293.8805 358.13167,295.11692 358.13167,296.56309 L 358.13167,306.7305 L 354.98541,306.7305 L 354.98541,288.99549 L 358.13167,288.99549 L 358.13167,291.82713 C 359.27978,289.7186 360.98538,288.66432 363.2485,288.6643 C 363.8115,288.66432 364.62291,288.76368 365.68271,288.96237 L 364.37453,292.02584"
     id="text2306" />
  <path
     style="font-size:69.98855591px;font-style:normal;font-weight:bold;fill:black;fill-opacity:1;stroke:black;stroke-width:2.29999995;stroke-linecap:butt;stroke-linejoin:miter;stroke-miterlimit:4;stroke-opacity:1;font-family:Trebuchet MS"
     d="M 218.40815,320.66509 L 221.68887,312.70253 C 225.1974,315.16307 228.64898,316.39334 232.04362,316.39333 C 237.26084,316.39334 239.86946,314.57072 239.86949,310.92548 C 239.86946,309.21679 239.25433,307.58782 238.02409,306.03858 C 236.7938,304.48937 234.25353,302.75789 230.40326,300.84412 C 226.57575,298.90761 223.98991,297.32421 222.64574,296.09392 C 221.32434,294.8409 220.29912,293.36002 219.57007,291.65128 C 218.8638,289.94261 218.51067,288.05165 218.51068,285.97838 C 218.51067,282.10536 219.9232,278.893 222.74826,276.34129 C 225.5961,273.78967 229.24133,272.51384 233.68398,272.51379 C 239.47077,272.51384 243.71974,273.59602 246.43091,275.76033 L 243.73116,283.41533 C 240.6099,281.18266 237.3178,280.06631 233.85485,280.06626 C 231.80438,280.06631 230.20959,280.61309 229.07047,281.70662 C 227.95411,282.77745 227.39593,284.17859 227.39594,285.91004 C 227.39593,288.78069 230.57412,291.76523 236.93051,294.86365 C 240.27955,296.50403 242.69452,298.01908 244.17542,299.40881 C 245.65627,300.77579 246.78402,302.38197 247.55866,304.22735 C 248.33324,306.04999 248.72055,308.08904 248.72058,310.34452 C 248.72055,314.39985 247.11437,317.73752 243.90203,320.35753 C 240.71242,322.97754 236.42927,324.28755 231.05257,324.28755 C 226.3821,324.28755 222.1673,323.08007 218.40815,320.66509"
     id="text3688" />
  <path
     style="font-size:69.98855591px;font-style:normal;font-weight:bold;fill:#9cdc30;fill-opacity:1;stroke:white;stroke-width:2.29999995;stroke-linecap:butt;stroke-linejoin:miter;stroke-miterlimit:4;stroke-opacity:1;font-family:Trebuchet MS"
     d="M 219.98779,316.86523 L 223.2685,308.90266 C 226.77703,311.36321 230.22861,312.59347 233.62325,312.59347 C 238.84048,312.59347 241.4491,310.77086 241.44912,307.12561 C 241.4491,305.41692 240.83397,303.78796 239.60372,302.23871 C 238.37343,300.68951 235.83316,298.95802 231.9829,297.04425 C 228.15539,295.10774 225.56955,293.52435 224.22538,292.29405 C 222.90397,291.04103 221.87875,289.56015 221.14971,287.85142 C 220.44344,286.14275 220.09031,284.25178 220.09031,282.17852 C 220.09031,278.30549 221.50284,275.09313 224.3279,272.54142 C 227.17573,269.98981 230.82096,268.71397 235.26361,268.71392 C 241.0504,268.71397 245.29938,269.79615 248.01055,271.96046 L 245.3108,279.61546 C 242.18954,277.3828 238.89744,276.26644 235.43448,276.2664 C 233.38402,276.26644 231.78923,276.81323 230.65011,277.90676 C 229.53374,278.97758 228.97556,280.37872 228.97558,282.11017 C 228.97556,284.98083 232.15375,287.96536 238.51015,291.06378 C 241.85919,292.70417 244.27415,294.21922 245.75506,295.60894 C 247.23591,296.97593 248.36365,298.58211 249.1383,300.42749 C 249.91288,302.25012 250.30018,304.28918 250.30021,306.54465 C 250.30018,310.59999 248.694,313.93765 245.48167,316.55766 C 242.29206,319.17768 238.00891,320.48768 232.63221,320.48768 C 227.96173,320.48768 223.74693,319.2802 219.98779,316.86523"
     id="text1902" />
  <rect
     y="351.70053"
     x="157.69603"
     height="35.916534"
     width="249.17096"
     id="rect7250"
     style="color:black;fill:url(#linearGradient7335);fill-opacity:1;fill-rule:nonzero;stroke:none;stroke-width:2.29999995;stroke-linecap:butt;stroke-linejoin:miter;marker:none;marker-start:none;marker-mid:none;marker-end:none;stroke-miterlimit:4;stroke-dasharray:none;stroke-dashoffset:0;stroke-opacity:1;visibility:visible;display:inline;overflow:visible" />
  <path
     style="font-size:33.91344452px;font-style:normal;font-weight:normal;fill:black;fill-opacity:1;stroke:none;stroke-width:1px;stroke-linecap:butt;stroke-linejoin:miter;stroke-opacity:1;font-family:Trebuchet MS"
     d="M 266.44284,365.27522 L 264.38948,365.27522 L 264.38948,362.79133 L 266.44284,362.79133 L 266.44284,359.08204 L 269.5891,357.87322 L 269.5891,362.79133 L 274.45754,362.79133 L 274.45754,365.27522 L 269.5891,365.27522 L 269.5891,374.08477 C 269.5891,375.57511 269.83749,376.63491 270.33427,377.26415 C 270.84208,377.89341 271.65349,378.20804 272.76849,378.20803 C 273.57436,378.20804 274.40785,378.00381 275.26894,377.59534 L 275.7326,380.36074 C 274.42993,380.69193 273.00031,380.85752 271.44374,380.85752 C 270.04172,380.85752 268.85497,380.33866 267.8835,379.30095 C 266.92305,378.2522 266.44283,376.93297 266.44284,375.34328 L 266.44284,365.27522 M 277.6038,371.61743 C 277.6038,368.87964 278.33793,366.67174 279.80619,364.99371 C 281.28548,363.30468 283.22844,362.46016 285.63506,362.46014 C 288.17414,362.46016 290.1447,363.27156 291.54673,364.89436 C 292.94874,366.50614 293.64975,368.74717 293.64976,371.61743 C 293.64975,374.47668 292.93218,376.73426 291.49706,378.39019 C 290.0619,380.03508 288.10791,380.85752 285.63506,380.85752 C 283.107,380.85752 281.13645,380.02404 279.72339,378.35707 C 278.31033,376.6901 277.6038,374.44356 277.6038,371.61743 M 280.91566,371.61743 C 280.91566,376.06637 282.48879,378.29083 285.63506,378.29083 C 287.10331,378.29083 288.25142,377.6947 289.0794,376.50243 C 289.91839,375.31016 290.33789,373.68183 290.33791,371.61743 C 290.33789,367.22371 288.77028,365.02685 285.63506,365.02683 C 284.19992,365.02685 283.05181,365.61194 282.19073,366.78212 C 281.34068,367.95232 280.91566,369.56409 280.91566,371.61743 M 310.73896,371.18689 L 310.73896,380.52634 L 307.4271,380.52634 L 307.4271,356.26696 C 309.93307,356.15659 311.44549,356.10139 311.96435,356.10137 C 319.00756,356.10139 322.52916,358.45833 322.52918,363.17219 C 322.52916,368.62573 319.41602,371.35249 313.18974,371.35248 C 312.81439,371.35249 311.99746,371.2973 310.73896,371.18689 M 310.73896,359.24764 L 310.73896,368.20622 C 312.14097,368.31663 312.88062,368.37182 312.95791,368.37181 C 317.0646,368.37182 319.11795,366.75453 319.11797,363.51994 C 319.11795,360.56136 316.92661,359.08207 312.54393,359.08204 C 312.10234,359.08207 311.50068,359.13726 310.73896,359.24764 M 334.17037,365.82168 C 333.48591,365.34699 332.79594,365.10964 332.10046,365.10963 C 330.98546,365.10964 330.00846,365.62298 329.16946,366.64964 C 328.34149,367.67633 327.92751,368.91276 327.92751,370.35893 L 327.92751,380.52634 L 324.78125,380.52634 L 324.78125,362.79133 L 327.92751,362.79133 L 327.92751,365.62297 C 329.07562,363.51443 330.78122,362.46016 333.04434,362.46014 C 333.60734,362.46016 334.41875,362.55952 335.47855,362.75821 L 334.17037,365.82168 M 347.73244,378.48954 C 346.47392,380.0682 344.54752,380.85752 341.95324,380.85752 C 340.56225,380.85752 339.35343,380.35522 338.32675,379.35063 C 337.31111,378.33499 336.8033,377.07649 336.8033,375.57511 C 336.8033,373.77567 337.5871,372.25773 339.15472,371.0213 C 340.73337,369.77384 342.74256,369.15011 345.1823,369.1501 C 345.84466,369.15011 346.59535,369.29362 347.43437,369.58064 C 347.43436,366.71038 346.15377,365.27524 343.59261,365.27522 C 341.62757,365.27524 340.11515,365.80513 339.05536,366.86491 L 337.73062,364.23199 C 338.32675,363.74626 339.14919,363.33228 340.19795,362.99004 C 341.25774,362.63679 342.26786,362.46016 343.22831,362.46014 C 345.80051,362.46016 347.66619,363.04525 348.82535,364.21543 C 349.99552,365.38563 350.58062,367.24579 350.58063,369.79591 L 350.58063,376.15468 C 350.58062,377.71126 351.04428,378.74897 351.97162,379.26783 L 351.97162,380.84096 C 350.69101,380.84096 349.73058,380.65881 349.0903,380.29451 C 348.46103,379.9302 348.00841,379.32855 347.73244,378.48954 M 347.43437,371.81615 C 346.4408,371.59536 345.74531,371.48497 345.3479,371.48496 C 343.7582,371.48497 342.46105,371.89343 341.45646,372.71035 C 340.45186,373.52728 339.94956,374.49324 339.94956,375.60822 C 339.94956,377.45183 341.03695,378.37363 343.21175,378.37363 C 344.80143,378.37363 346.20897,377.61742 347.43437,376.105 L 347.43437,371.81615 M 368.91178,364.23199 L 367.3552,366.45093 C 367.03504,366.1308 366.46651,365.82721 365.64959,365.54017 C 364.8437,365.25316 364.04885,365.10964 363.26505,365.10963 C 361.55392,365.10964 360.19606,365.7113 359.19147,366.91459 C 358.18686,368.10687 357.68457,369.74624 357.68457,371.8327 C 357.68457,373.90814 358.1979,375.49231 359.22459,376.58522 C 360.25125,377.6671 361.67535,378.20804 363.49688,378.20803 C 364.90993,378.20804 366.33403,377.66158 367.76918,376.56866 L 369.01113,379.21815 C 367.32207,380.31107 365.23008,380.85752 362.73516,380.85752 C 360.31749,380.85752 358.31934,380.04612 356.74069,378.42331 C 355.16204,376.8005 354.37271,374.60363 354.37271,371.8327 C 354.37271,369.0066 355.18963,366.73797 356.82349,365.02683 C 358.46837,363.31572 360.71491,362.46016 363.56312,362.46014 C 364.47939,362.46016 365.47295,362.65335 366.5438,363.03972 C 367.61462,363.42612 368.40394,363.82354 368.91178,364.23199 M 373.48214,365.27522 L 371.42879,365.27522 L 371.42879,362.79133 L 373.48214,362.79133 L 373.48214,359.08204 L 376.62841,357.87322 L 376.62841,362.79133 L 381.49684,362.79133 L 381.49684,365.27522 L 376.62841,365.27522 L 376.62841,374.08477 C 376.6284,375.57511 376.87679,376.63491 377.37358,377.26415 C 377.88139,377.89341 378.69279,378.20804 379.8078,378.20803 C 380.61367,378.20804 381.44715,378.00381 382.30825,377.59534 L 382.77191,380.36074 C 381.46923,380.69193 380.03962,380.85752 378.48305,380.85752 C 377.08102,380.85752 375.89428,380.33866 374.9228,379.30095 C 373.96236,378.2522 373.48214,376.93297 373.48214,375.34328 L 373.48214,365.27522 M 389.04789,356.08481 C 389.58882,356.08484 390.04696,356.27803 390.42231,356.66439 C 390.80868,357.03975 391.00188,357.49237 391.00188,358.02225 C 391.00188,358.56321 390.80868,359.02687 390.42231,359.41323 C 390.04696,359.7886 389.58882,359.97627 389.04789,359.97625 C 388.51798,359.97627 388.05984,359.7886 387.67346,359.41323 C 387.29812,359.02687 387.11044,358.56321 387.11045,358.02225 C 387.11044,357.48134 387.29812,357.0232 387.67346,356.64783 C 388.0488,356.27251 388.50694,356.08484 389.04789,356.08481 M 387.32572,380.52634 L 387.32572,365.44082 L 384.8915,365.44082 L 384.8915,362.79133 L 390.47198,362.79133 L 390.47198,380.52634 L 387.32572,380.52634 M 408.85282,364.23199 L 407.29624,366.45093 C 406.97608,366.1308 406.40755,365.82721 405.59063,365.54017 C 404.78474,365.25316 403.98989,365.10964 403.20609,365.10963 C 401.49496,365.10964 400.1371,365.7113 399.13251,366.91459 C 398.1279,368.10687 397.62561,369.74624 397.62561,371.8327 C 397.62561,373.90814 398.13894,375.49231 399.16563,376.58522 C 400.19229,377.6671 401.61639,378.20804 403.43792,378.20803 C 404.85097,378.20804 406.27507,377.66158 407.71022,376.56866 L 408.95217,379.21815 C 407.26311,380.31107 405.17112,380.85752 402.6762,380.85752 C 400.25853,380.85752 398.26038,380.04612 396.68173,378.42331 C 395.10308,376.8005 394.31375,374.60363 394.31375,371.8327 C 394.31375,369.0066 395.13067,366.73797 396.76453,365.02683 C 398.40941,363.31572 400.65595,362.46016 403.50416,362.46014 C 404.42043,362.46016 405.41399,362.65335 406.48484,363.03972 C 407.55566,363.42612 408.34498,363.82354 408.85282,364.23199 M 427.23362,371.96518 L 414.44984,371.96518 C 414.44984,374.04062 415.01838,375.63583 416.15545,376.75082 C 417.16004,377.7223 418.45167,378.20804 420.03033,378.20803 C 421.82976,378.20804 423.33114,377.68366 424.53446,376.6349 L 425.8592,378.90353 C 425.37345,379.38927 424.62828,379.80877 423.6237,380.16203 C 422.36518,380.62569 420.96316,380.85752 419.41763,380.85752 C 417.18764,380.85752 415.29436,380.10132 413.73779,378.5889 C 412.00459,376.92193 411.13798,374.68091 411.13798,371.86582 C 411.13798,368.94036 412.02667,366.59446 413.80403,364.82812 C 415.39372,363.24949 417.27596,362.46016 419.45075,362.46014 C 421.97879,362.46016 423.96039,363.17221 425.39554,364.59629 C 426.78651,365.96521 427.482,367.78121 427.48201,370.0443 C 427.482,370.7398 427.3992,371.38009 427.23362,371.96518 M 419.59979,365.10963 C 418.19776,365.10964 417.02205,365.56227 416.07266,366.46749 C 415.16741,367.32859 414.65407,368.39942 414.53264,369.68 L 424.35231,369.68 C 424.35229,368.41046 423.95487,367.35067 423.16004,366.50061 C 422.2879,365.5733 421.10115,365.10964 419.59979,365.10963"
     id="text1906" />
  <path
     style="font-size:69.98855591px;font-style:normal;font-variant:normal;font-weight:bold;font-stretch:normal;text-indent:0;text-align:start;text-decoration:none;line-height:normal;letter-spacing:normal;word-spacing:normal;text-transform:none;direction:ltr;block-progression:tb;writing-mode:lr-tb;text-anchor:start;color:black;fill:black;fill-opacity:1;fill-rule:nonzero;stroke:black;stroke-width:2.29999995;stroke-linecap:butt;stroke-linejoin:miter;stroke-miterlimit:4;stroke-dashoffset:0;stroke-opacity:1;marker:none;marker-start:none;marker-mid:none;marker-end:none;visibility:visible;display:inline;overflow:visible;font-family:Trebuchet MS"
     d="M 225.05563,379.57702 L 225.05563,397.99686 L 216.17037,397.99686 L 216.17037,347.96597 C 222.09386,347.71542 225.55684,347.59011 226.55929,347.59006 C 234.46488,347.59011 240.24029,348.80899 243.88556,351.24669 C 247.55354,353.6617 249.38755,357.44363 249.38759,362.59249 C 249.38755,374.07501 242.62109,379.81625 229.08818,379.81624 C 228.08572,379.81625 226.74154,379.73651 225.05563,379.57702 M 225.05563,355.65515 L 225.05563,371.6828 C 226.55928,371.84231 227.74398,371.92204 228.60974,371.92202 C 232.66504,371.92204 235.62679,371.24995 237.495,369.90575 C 239.36316,368.53881 240.29725,366.32889 240.29728,363.27597 C 240.29725,358.08155 236.11662,355.48432 227.75539,355.48428 C 226.82128,355.48432 225.92136,355.54128 225.05563,355.65515"
     id="text5462" />
  <path
     style="font-size:16.15953636px;font-style:normal;font-weight:normal;fill:black;fill-opacity:1;stroke:none;stroke-width:1px;stroke-linecap:butt;stroke-linejoin:miter;stroke-opacity:1;font-family:Trebuchet MS"
     d="M 161.67692,359.76792 L 161.67692,364.21811 L 160.09884,364.21811 L 160.09884,352.65868 C 161.29292,352.60608 162.01358,352.57978 162.26081,352.57977 C 165.61686,352.57978 167.29488,353.70285 167.29489,355.94897 C 167.29488,358.54755 165.81148,359.84683 162.8447,359.84683 C 162.66585,359.84683 162.27659,359.82053 161.67692,359.76792 M 161.67692,354.07895 L 161.67692,358.34765 C 162.34497,358.40026 162.69741,358.42656 162.73424,358.42656 C 164.69105,358.42656 165.66946,357.65593 165.66946,356.11467 C 165.66946,354.70493 164.6253,354.00005 162.53698,354.00004 C 162.32656,354.00005 162.03988,354.02635 161.67692,354.07895 M 172.84184,357.21144 C 172.51569,356.98525 172.18693,356.87216 171.85554,356.87215 C 171.32425,356.87216 170.85871,357.11676 170.45894,357.60596 C 170.06441,358.09517 169.86715,358.68432 169.86716,359.3734 L 169.86716,364.21811 L 168.36798,364.21811 L 168.36798,355.76749 L 169.86716,355.76749 L 169.86716,357.11675 C 170.41422,356.11205 171.22693,355.60969 172.30529,355.60968 C 172.57356,355.60969 172.96019,355.65704 173.46518,355.75171 L 172.84184,357.21144 M 181.64752,360.13877 L 175.55613,360.13877 C 175.55613,361.12771 175.82703,361.88781 176.36884,362.4191 C 176.84753,362.882 177.46298,363.11345 178.2152,363.11345 C 179.07262,363.11345 179.78801,362.86359 180.36139,362.36387 L 180.99262,363.44485 C 180.76116,363.6763 180.40609,363.87619 179.92741,364.04452 C 179.32774,364.26545 178.65968,364.37592 177.92325,364.37592 C 176.86068,364.37592 175.95854,364.01559 175.21685,363.29493 C 174.39098,362.50063 173.97805,361.4328 173.97805,360.09143 C 173.97805,358.69747 174.4015,357.57966 175.24841,356.73801 C 176.00588,355.9858 176.90276,355.60969 177.93903,355.60968 C 179.14363,355.60969 180.08785,355.94898 180.77169,356.62755 C 181.43447,357.27983 181.76587,358.14514 181.76588,359.22349 C 181.76587,359.55489 181.72642,359.85998 181.64752,360.13877 M 178.01005,356.87215 C 177.34199,356.87216 176.78177,357.08783 176.32939,357.51916 C 175.89805,357.92947 175.65345,358.43971 175.59559,359.0499 L 180.27459,359.0499 C 180.27458,358.44497 180.08522,357.93999 179.70648,357.53494 C 179.29092,357.09309 178.72544,356.87216 178.01005,356.87215 M 182.78374,363.71312 L 183.3124,362.29285 C 184.14878,362.83992 184.82209,363.11345 185.33234,363.11345 C 186.25814,363.11345 186.72104,362.7242 186.72105,361.94567 C 186.72104,361.38809 186.27392,360.90941 185.37968,360.50962 C 184.69058,360.19401 184.22505,359.95467 183.98308,359.7916 C 183.74637,359.62853 183.53859,359.44442 183.35974,359.23927 C 183.18615,359.02886 183.05464,358.80793 182.96522,358.57647 C 182.88105,358.33977 182.83897,358.08728 182.83897,357.819 C 182.83897,357.12465 183.09146,356.58284 183.59645,356.19357 C 184.10143,355.80432 184.7616,355.60969 185.57694,355.60968 C 186.19239,355.60969 186.96828,355.80432 187.90461,356.19357 L 187.47853,357.58228 C 186.88411,357.10887 186.28707,356.87216 185.68741,356.87215 C 185.3297,356.87216 185.02724,356.95632 184.78001,357.12464 C 184.53803,357.29298 184.41705,357.50602 184.41705,357.76376 C 184.41705,358.30558 184.72477,358.71588 185.34023,358.99467 L 186.41332,359.48387 C 187.07085,359.78371 187.54953,360.12563 187.84937,360.50962 C 188.1492,360.89362 188.29912,361.37494 188.29913,361.95356 C 188.29912,362.71104 188.03348,363.30545 187.5022,363.73679 C 186.97091,364.16288 186.23447,364.37592 185.29289,364.37592 C 184.4039,364.37592 183.56752,364.15499 182.78374,363.71312 M 189.31699,363.71312 L 189.84565,362.29285 C 190.68203,362.83992 191.35534,363.11345 191.86559,363.11345 C 192.79139,363.11345 193.25429,362.7242 193.2543,361.94567 C 193.25429,361.38809 192.80717,360.90941 191.91293,360.50962 C 191.22383,360.19401 190.7583,359.95467 190.51633,359.7916 C 190.27962,359.62853 190.07184,359.44442 189.89299,359.23927 C 189.7194,359.02886 189.58789,358.80793 189.49847,358.57647 C 189.4143,358.33977 189.37222,358.08728 189.37222,357.819 C 189.37222,357.12465 189.62471,356.58284 190.1297,356.19357 C 190.63468,355.80432 191.29485,355.60969 192.11019,355.60968 C 192.72564,355.60969 193.50153,355.80432 194.43786,356.19357 L 194.01178,357.58228 C 193.41736,357.10887 192.82032,356.87216 192.22066,356.87215 C 191.86295,356.87216 191.56049,356.95632 191.31326,357.12464 C 191.07129,357.29298 190.9503,357.50602 190.9503,357.76376 C 190.9503,358.30558 191.25802,358.71588 191.87348,358.99467 L 192.94657,359.48387 C 193.6041,359.78371 194.08278,360.12563 194.38263,360.50962 C 194.68245,360.89362 194.83237,361.37494 194.83238,361.95356 C 194.83237,362.71104 194.56673,363.30545 194.03545,363.73679 C 193.50416,364.16288 192.76772,364.37592 191.82614,364.37592 C 190.93715,364.37592 190.10077,364.15499 189.31699,363.71312"
     id="text7252" />
  <path
     style="font-size:69.98855591px;font-style:normal;font-variant:normal;font-weight:bold;font-stretch:normal;text-indent:0;text-align:start;text-decoration:none;line-height:normal;letter-spacing:normal;word-spacing:normal;text-transform:none;direction:ltr;block-progression:tb;writing-mode:lr-tb;text-anchor:start;color:black;fill:#9cdc30;fill-opacity:1;fill-rule:nonzero;stroke:white;stroke-width:2.29999995;stroke-linecap:butt;stroke-linejoin:miter;stroke-miterlimit:4;stroke-dashoffset:0;stroke-opacity:1;marker:none;marker-start:none;marker-mid:none;marker-end:none;visibility:visible;display:inline;overflow:visible;font-family:Trebuchet MS"
     d="M 227.42065,375.1802 L 227.42065,393.60004 L 218.53539,393.60004 L 218.53539,343.56915 C 224.45889,343.3186 227.92186,343.19329 228.92431,343.19324 C 236.8299,343.19329 242.60531,344.41217 246.25058,346.84987 C 249.91856,349.26488 251.75257,353.04681 251.75261,358.19567 C 251.75257,369.67819 244.98611,375.41943 231.4532,375.41942 C 230.45074,375.41943 229.10656,375.33969 227.42065,375.1802 M 227.42065,351.25833 L 227.42065,367.28598 C 228.9243,367.44549 230.109,367.52522 230.97476,367.5252 C 235.03006,367.52522 237.99182,366.85313 239.86002,365.50893 C 241.72818,364.14199 242.66227,361.93207 242.6623,358.87915 C 242.66227,353.68473 238.48164,351.0875 230.12041,351.08746 C 229.1863,351.0875 228.28638,351.14446 227.42065,351.25833"
     id="text1910" />
</svg>
