<?xml version="1.0" encoding="UTF-8" standalone="no"?>
<!-- Created with Inkscape (http://www.inkscape.org/) -->
<svg
   xmlns:dc="http://purl.org/dc/elements/1.1/"
   xmlns:cc="http://web.resource.org/cc/"
   xmlns:rdf="http://www.w3.org/1999/02/22-rdf-syntax-ns#"
   xmlns:svg="http://www.w3.org/2000/svg"
   xmlns="http://www.w3.org/2000/svg"
   xmlns:xlink="http://www.w3.org/1999/xlink"
   xmlns:sodipodi="http://sodipodi.sourceforge.net/DTD/sodipodi-0.dtd"
   xmlns:inkscape="http://www.inkscape.org/namespaces/inkscape"
   width="210mm"
   height="297mm"
   id="svg2"
   sodipodi:version="0.32"
   inkscape:version="0.44.1"
   sodipodi:docbase="/home/jesusda/docs/curro/yo/ultrastar-ng/base/theme-pod/images"
   sodipodi:docname="no_cover.svg">
  <defs
     id="defs4">
    <linearGradient
       id="linearGradient3751"
       inkscape:collect="always">
      <stop
         id="stop3753"
         offset="0"
         style="stop-color:black;stop-opacity:1;" />
      <stop
         id="stop3755"
         offset="1"
         style="stop-color:black;stop-opacity:0;" />
    </linearGradient>
    <linearGradient
       inkscape:collect="always"
       xlink:href="#linearGradient3751"
       id="linearGradient3484"
       gradientUnits="userSpaceOnUse"
       gradientTransform="matrix(0.336682,0,0,0.336682,150.6261,216.1271)"
       x1="665.12128"
       y1="684.16162"
       x2="381.28015"
       y2="449.80624" />
  </defs>
  <sodipodi:namedview
     id="base"
     pagecolor="#ffffff"
     bordercolor="#666666"
     borderopacity="1.0"
     inkscape:pageopacity="0.0"
     inkscape:pageshadow="2"
     inkscape:zoom="0.7"
     inkscape:cx="350"
     inkscape:cy="688.57143"
     inkscape:document-units="px"
     inkscape:current-layer="layer1"
     inkscape:window-width="1144"
     inkscape:window-height="785"
     inkscape:window-x="0"
     inkscape:window-y="30"
     showguides="true"
     inkscape:guide-bbox="true" />
  <metadata
     id="metadata7">
    <rdf:RDF>
      <cc:Work
         rdf:about="">
        <dc:format>image/svg+xml</dc:format>
        <dc:type
           rdf:resource="http://purl.org/dc/dcmitype/StillImage" />
      </cc:Work>
    </rdf:RDF>
  </metadata>
  <g
     inkscape:label="Capa 1"
     inkscape:groupmode="layer"
     id="layer1">
    <rect
       style="opacity:1;color:black;fill:white;fill-opacity:0.3131313;fill-rule:nonzero;stroke:black;stroke-width:10.01399994;stroke-linecap:butt;stroke-linejoin:miter;marker:none;marker-start:none;marker-mid:none;marker-end:none;stroke-miterlimit:4;stroke-dasharray:none;stroke-dashoffset:0;stroke-opacity:1;visibility:visible;display:block;overflow:visible"
       id="rect1906"
       width="246.30026"
       height="246.30028"
       x="236.84985"
       y="272.06918"
       inkscape:export-filename="/home/jesusda/docs/curro/yo/ultrastar-ng/base/theme-pod/images/no_cover.png"
       inkscape:export-xdpi="89.889648"
       inkscape:export-ydpi="89.889648" />
    <rect
       style="opacity:1;color:black;fill:black;fill-opacity:0.08585857;fill-rule:nonzero;stroke:none;stroke-width:10.60000038;stroke-linecap:butt;stroke-linejoin:miter;marker:none;marker-start:none;marker-mid:none;marker-end:none;stroke-miterlimit:4;stroke-dasharray:none;stroke-dashoffset:0;stroke-opacity:1;visibility:visible;display:block;overflow:visible"
       id="rect1913"
       width="291.42856"
       height="45.714287"
       x="215.71428"
       y="449.50516" />
    <path
       style="font-size:39.83382034px;font-family:Trebuchet MS"
       d="M 290.72672,487.00823 L 276.00299,466.17717 L 276.00299,486.61923 L 272.30747,486.61923 L 272.30747,458.12482 L 273.86348,458.12482 L 288.19821,477.82778 L 288.19821,458.12482 L 291.89373,458.12482 L 291.89373,487.00823 L 290.72672,487.00823 M 296.3867,472.1289 C 296.3867,468.0055 297.41756,464.55635 299.47927,461.78144 C 301.55394,459.00659 304.34827,457.61915 307.86227,457.61912 C 311.8171,457.61915 314.84483,458.89637 316.94547,461.45079 C 319.05902,464.00526 320.11581,467.56463 320.11583,472.1289 C 320.11581,476.8099 319.05902,480.47949 316.94547,483.13766 C 314.83187,485.78288 311.80414,487.10548 307.86227,487.10548 C 304.27047,487.10548 301.45669,485.70508 299.42092,482.90426 C 297.39811,480.10345 296.3867,476.51167 296.3867,472.1289 M 300.47123,472.1289 C 300.47122,475.39653 301.11307,478.12603 302.39679,480.3174 C 303.69345,482.50878 305.51528,483.60447 307.86227,483.60447 C 310.52043,483.60447 312.54324,482.59955 313.9307,480.5897 C 315.33109,478.57986 316.03129,475.7596 316.03131,472.1289 C 316.03129,464.78975 313.30828,461.12017 307.86227,461.12014 C 305.45044,461.12017 303.61565,462.10564 302.35789,464.07656 C 301.10011,466.04752 300.47122,468.73163 300.47123,472.1289 M 354.75647,459.17513 L 353.45332,462.5011 C 352.20849,461.59345 350.25052,461.13962 347.57938,461.13959 C 345.07679,461.13962 343.06695,462.21585 341.54985,464.36831 C 340.0457,466.52081 339.29363,469.29569 339.29364,472.69296 C 339.29363,475.93465 340.06515,478.5669 341.6082,480.5897 C 343.1642,482.59955 345.16756,483.60447 347.61828,483.60447 C 350.28942,483.60447 352.34464,482.6579 353.78397,480.76475 L 355.92348,483.74062 C 353.66725,485.98386 350.7627,487.10548 347.20983,487.10548 C 343.48837,487.10548 340.55789,485.76343 338.41838,483.07931 C 336.27887,480.3952 335.20911,476.85529 335.20912,472.45955 C 335.20911,468.20648 336.35019,464.67305 338.63233,461.85925 C 340.91447,459.04549 343.8644,457.6386 347.48213,457.63857 C 350.58117,457.6386 353.00594,458.15079 354.75647,459.17513 M 359.01605,472.1289 C 359.01604,468.0055 360.0469,464.55635 362.10861,461.78144 C 364.18328,459.00659 366.97761,457.61915 370.49161,457.61912 C 374.44645,457.61915 377.47418,458.89637 379.57481,461.45079 C 381.68836,464.00526 382.74515,467.56463 382.74518,472.1289 C 382.74515,476.8099 381.68836,480.47949 379.57481,483.13766 C 377.46121,485.78288 374.43348,487.10548 370.49161,487.10548 C 366.89981,487.10548 364.08603,485.70508 362.05026,482.90426 C 360.02745,480.10345 359.01604,476.51167 359.01605,472.1289 M 363.10057,472.1289 C 363.10056,475.39653 363.74242,478.12603 365.02613,480.3174 C 366.32279,482.50878 368.14462,483.60447 370.49161,483.60447 C 373.14977,483.60447 375.17258,482.59955 376.56004,480.5897 C 377.96043,478.57986 378.66063,475.7596 378.66065,472.1289 C 378.66063,464.78975 375.93762,461.12017 370.49161,461.12014 C 368.07979,461.12017 366.24499,462.10564 364.98723,464.07656 C 363.72945,466.04752 363.10056,468.73163 363.10057,472.1289 M 397.13826,487.00823 L 395.1738,487.00823 L 384.55404,458.12482 L 388.87197,458.12482 L 396.20466,479.11149 L 403.26505,458.12482 L 407.44682,458.12482 L 397.13826,487.00823 M 414.52665,461.62584 L 414.52665,469.54204 L 423.94051,469.54204 L 423.94051,472.84856 L 414.52665,472.84856 L 414.52665,483.11821 L 427.44153,483.11821 L 427.44153,486.61923 L 410.63663,486.61923 L 410.63663,458.12482 L 427.65548,458.12482 L 427.65548,461.62584 L 414.52665,461.62584 M 447.76689,486.61923 L 440.1619,474.38511 C 439.29312,474.38513 437.91864,474.32029 436.03848,474.19061 L 436.03848,486.61923 L 432.14846,486.61923 L 432.14846,458.12482 C 432.29109,458.12485 433.29601,458.07947 435.16322,457.98867 C 437.04339,457.88497 438.41138,457.8331 439.26719,457.83307 C 446.11362,457.8331 449.53683,460.55611 449.53685,466.00212 C 449.53683,467.79155 448.98575,469.4059 447.88359,470.84519 C 446.7814,472.27155 445.47176,473.15977 443.95467,473.50986 L 452.22097,486.61923 L 447.76689,486.61923 M 436.03848,461.62584 L 436.03848,470.8841 C 436.97207,471.01378 437.87974,471.07861 438.76149,471.0786 C 441.09549,471.07861 442.79413,470.70258 443.85742,469.95049 C 444.92068,469.19844 445.45231,467.85638 445.45233,465.92432 C 445.45231,464.32943 444.88178,463.18188 443.74072,462.48165 C 442.59963,461.78147 440.79726,461.43137 438.33359,461.43134 C 437.94458,461.43137 437.17954,461.4962 436.03848,461.62584"
       id="text1909" />
    <path
       style="fill:black;fill-opacity:1;fill-rule:evenodd;stroke:black;stroke-width:0.24020983px;stroke-linecap:butt;stroke-linejoin:miter;stroke-opacity:1"
       d="M 411.91252,317.32409 L 407.05953,317.32409 L 406.08894,319.75058 L 407.05953,322.41971 L 406.57423,325.33149 L 404.14777,323.8756 L 402.20659,320.23587 L 398.08154,319.26527 L 396.38302,317.56674 L 392.74328,315.8682 L 388.61826,309.07404 L 388.8609,305.91961 L 399.05216,298.15485 L 403.90508,300.33868 L 404.63306,302.03723 L 404.63306,303.97841 L 405.84629,305.67695 L 408.27279,306.4049 L 409.97132,304.94901 L 410.21396,303.25047 L 409.48602,301.79458 L 408.03014,301.06663 L 407.05953,299.85339 L 409.24337,298.88279 L 408.75808,296.45631 L 408.75808,295.00042 L 407.3022,293.54453 L 406.57423,291.36069 L 403.66247,290.63274 L 401.23597,290.14745 L 396.14034,293.78718 L 383.27997,298.88279 L 380.36818,301.79458 L 378.18437,303.49312 L 377.69903,307.3755 L 378.66966,309.31668 L 381.09616,315.8682 L 384.25056,321.9344 L 387.64764,326.30208 L 382.30939,335.03743 L 376.24316,348.14045 L 372.60344,353.96402 L 366.53723,361.48612 L 366.29459,364.88321 L 363.14015,367.79499 L 367.99311,372.16267 L 366.77988,377.25828 L 367.26518,388.66277 L 369.44899,401.76579 L 371.63285,413.41292 L 374.0593,417.2953 L 377.45642,424.33211 L 382.79468,432.33951 L 384.25056,437.43511 L 385.70647,441.07485 L 381.33877,447.14107 L 373.57401,450.2955 L 372.84608,452.722 L 387.64764,452.2367 L 385.46382,456.11907 L 388.13294,458.54555 L 395.16975,459.27351 L 400.75068,454.42053 L 402.69189,447.62638 L 405.84629,441.80281 L 409.72867,438.40573 L 410.9419,434.52334 L 406.81692,434.2807 L 409.48602,431.61156 L 404.14777,433.31011 L 408.03014,429.42773 L 405.11835,428.69978 L 402.93451,426.03064 L 399.29477,418.50854 L 390.80208,411.47174 L 389.10356,410.98643 L 390.80208,409.53054 L 390.55944,405.40552 L 392.25799,401.76579 L 390.80208,402.00844 L 393.47122,397.39811 L 393.47122,392.78779 L 395.16975,390.3613 L 395.16975,387.20687 L 398.80948,382.3539 L 399.05216,378.22888 L 398.32418,374.8318 L 400.02275,370.94942 L 401.96392,367.79499 L 401.96392,365.8538 L 404.14777,365.61115 L 406.08894,363.66997 L 407.78749,358.81699 L 411.66987,354.44932 L 416.2802,352.75078 L 419.19194,355.17727 L 426.22879,357.3611 L 431.80969,360.27288 L 434.47881,363.66997 L 439.08912,364.15526 L 453.64807,370.46413 L 461.17014,373.13326 L 467.23639,377.74358 L 468.6923,377.25828 L 468.6923,375.8024 L 465.29522,373.13326 L 471.84671,374.8318 L 472.57467,373.61855 L 471.11875,372.16267 L 473.54525,372.16267 L 473.78792,370.70677 L 469.42021,369.73618 L 472.8173,368.76558 L 472.8173,367.06704 L 471.60405,366.8244 L 467.9643,367.06704 L 465.05255,365.8538 L 463.11135,364.88321 L 466.02314,362.45672 L 466.75109,360.75818 L 466.2658,359.54494 L 463.59668,360.03023 L 458.01573,362.94201 L 457.28782,364.39791 L 455.34661,363.91262 L 448.30978,360.03023 L 448.06716,357.3611 L 443.94212,355.17727 L 436.9053,351.53753 L 435.20677,352.75078 L 435.44942,351.05223 L 431.56705,347.41251 L 428.16996,346.44191 L 425.01553,342.80218 L 424.04494,341.58895 L 427.19937,343.77278 L 426.71409,341.34629 L 429.14055,342.55953 L 428.41261,338.91981 L 431.80969,342.07424 L 430.35382,339.8904 L 433.75086,341.34629 L 430.83911,337.22127 L 433.02293,337.94922 L 432.05234,334.06684 L 433.75086,335.52273 L 431.3244,331.88299 L 433.75086,332.61094 L 431.56705,329.69916 L 434.47881,329.45652 L 431.3244,327.51532 L 433.26558,326.54474 L 431.08175,326.30208 L 433.99351,323.63296 L 431.3244,323.8756 L 431.56705,322.17705 L 431.80969,317.32409 L 430.35382,320.72116 L 428.65525,315.8682 L 428.89791,319.75058 L 427.92732,319.99322 L 425.50082,319.99322 L 422.83168,316.11084 L 420.16256,316.11084 L 417.00813,313.44171 L 415.55222,314.8976 L 411.91252,317.32409 z "
       id="path1939" />
    <path
       id="path2864"
       d="M 283.95662,398.05789 L 279.10039,398.05789 L 280.40473,399.01205 L 283.87908,400.06164 L 286.12411,401.20664 L 282.33068,400.63414 L 276.97485,399.20289 L 271.93685,398.82122 L 268.64427,398.1533 L 263.40921,397.48538 L 252.90983,394.81372 L 250.19442,393.5733 L 253.11069,390.51996 L 260.01488,391.37871 L 262.33624,392.04664 L 264.15668,392.80996 L 266.96362,393.47789 L 270.07442,393.76413 L 270.40871,393.19163 L 269.05865,392.52371 L 266.96487,391.95121 L 264.82536,391.66496 L 262.71632,391.18789 L 263.9914,390.80622 L 261.23021,389.85205 L 259.8649,389.27955 L 257.04269,388.70704 L 254.26625,387.84829 L 250.66985,387.56204 L 247.78661,387.37122 L 246.10095,388.80247 L 238.01062,390.80622 L 237.82757,391.95121 L 237.23518,392.61913 L 240.39046,394.1458 L 243.18215,394.90913 L 251.7543,397.48538 L 260.59974,399.8708 L 268.09511,401.5883 L 270.94528,405.02331 L 277.16305,410.17581 L 278.98225,412.46581 L 279.96623,415.42373 L 282.90923,416.75957 L 282.48333,417.90457 L 291.43556,419.62207 L 295.00022,421.62582 L 306.18097,426.11041 L 320.6543,431.2629 L 333.76233,435.84291 L 339.83131,437.36957 L 349.82982,440.13667 L 362.68098,443.28542 L 368.91654,445.28916 L 373.78676,446.72041 L 375.10504,449.10583 L 370.29332,450.34625 L 371.84051,451.30042 L 386.19685,451.10959 L 387.65246,452.63625 L 392.59892,453.59042 L 400.32309,453.87668 L 401.35661,451.96834 L 396.92756,449.29668 L 394.62274,447.00666 L 395.32193,445.67084 L 392.89506,444.14417 L 388.53975,444.04875 L 388.70755,442.99916 L 384.9586,443.66708 L 385.20266,442.14042 L 381.60626,441.85417 L 376.91788,440.80458 L 366.22143,437.84666 L 351.12392,435.07958 L 348.96912,434.88874 L 349.30349,434.31624 L 345.19219,432.69416 L 343.47852,431.2629 L 342.24923,431.35833 L 340.5966,429.54541 L 336.27299,427.73248 L 335.6971,426.77832 L 332.73888,425.5379 L 331.82991,423.62956 L 328.20428,422.00749 L 324.29006,420.67165 L 322.34883,419.14498 L 321.33309,417.90457 L 319.51261,417.14123 L 321.47039,417.04582 L 321.59239,416.28249 L 318.74097,414.37415 L 318.52991,412.65665 L 321.55041,411.98873 L 326.73969,412.9429 L 335.82924,413.80165 L 344.14454,414.94665 L 350.00125,416.28249 L 355.06976,416.47331 L 375.55488,418.95414 L 385.58513,420.00373 L 395.97896,421.81666 L 396.98075,421.62582 L 395.61541,421.05332 L 389.71291,420.00373 L 397.86172,420.67165 L 397.45235,420.19457 L 394.63018,419.62207 L 397.05826,419.62207 L 395.93576,419.04957 L 390.65491,418.6679 L 393.14403,418.28623 L 391.55113,417.61832 L 390.10956,417.5229 L 386.69493,417.61832 L 382.64344,417.14123 L 379.7907,416.75957 L 380.42888,415.8054 L 379.56442,415.13749 L 377.94102,414.66039 L 375.7252,414.85123 L 372.87122,415.99623 L 373.50812,416.56873 L 371.11056,416.3779 L 360.42812,414.85123 L 357.68221,413.80165 L 351.50642,412.9429 L 341.05155,411.51164 L 340.48966,411.98873 L 339.13957,411.32081 L 331.84126,409.88956 L 327.53169,409.50789 L 320.9618,408.07664 L 318.85279,407.59956 L 324.05731,408.45831 L 321.29615,407.50414 L 324.86201,407.98123 L 320.72022,406.54997 L 327.07782,407.79039 L 323.57296,406.93164 L 328.33765,407.50414 L 321.55547,405.88206 L 324.42342,406.16831 L 319.81129,404.64163 L 322.8763,405.21415 L 317.03484,403.78288 L 320.14561,404.06914 L 315.22962,402.92414 L 317.9158,402.82872 L 312.93884,402.06539 L 313.97107,401.68372 L 311.55824,401.5883 L 311.96883,400.53872 L 309.5255,400.63414 L 308.1754,399.96622 L 303.8671,398.05789 L 305.59602,399.39371 L 299.34523,397.48538 L 303.22891,399.01205 L 302.48522,399.10747 L 300.05713,399.10747 L 293.74529,397.58081 L 291.07437,397.58081 L 285.41475,396.53122 L 285.32318,397.10371 L 283.95662,398.05789 z "
       style="opacity:0.22790701;fill:url(#linearGradient3484);fill-opacity:1;fill-rule:evenodd;stroke:none;stroke-width:0.44754833px;stroke-linecap:butt;stroke-linejoin:miter;stroke-opacity:1" />
    <path
       style="fill:none;fill-opacity:0.75;fill-rule:evenodd;stroke:white;stroke-width:0.57235873;stroke-linecap:round;stroke-linejoin:round;stroke-miterlimit:4;stroke-dasharray:none;stroke-opacity:1"
       d="M 403.66025,289.79794 C 394.15973,286.28633 389.05504,299.44378 392.18449,306.80558 C 393.31181,316.09876 393.51381,325.85479 391.05213,334.89762 C 386.41828,339.75825 374.39215,342.87443 374.56497,351.03148"
       id="path3759"
       sodipodi:nodetypes="cccc" />
  </g>
</svg>
