<?xml version="1.0" encoding="UTF-8" standalone="no"?>
<!-- Created with Inkscape (http://www.inkscape.org/) -->
<svg
   xmlns:dc="http://purl.org/dc/elements/1.1/"
   xmlns:cc="http://creativecommons.org/ns#"
   xmlns:rdf="http://www.w3.org/1999/02/22-rdf-syntax-ns#"
   xmlns:svg="http://www.w3.org/2000/svg"
   xmlns="http://www.w3.org/2000/svg"
   xmlns:sodipodi="http://sodipodi.sourceforge.net/DTD/sodipodi-0.dtd"
   xmlns:inkscape="http://www.inkscape.org/namespaces/inkscape"
   id="svg2"
   sodipodi:version="0.32"
   inkscape:version="0.46"
   width="20"
   height="75"
   version="1.0"
   sodipodi:docbase="/home/yoda/UltraStar/sf/UltraStar-ng/themes/lima"
   sodipodi:docname="practice_sharp.svg"
   inkscape:output_extension="org.inkscape.output.svg.inkscape">
  <metadata
     id="metadata7">
    <rdf:RDF>
      <cc:Work
         rdf:about="">
        <dc:format>image/svg+xml</dc:format>
        <dc:type
           rdf:resource="http://purl.org/dc/dcmitype/StillImage" />
      </cc:Work>
    </rdf:RDF>
  </metadata>
  <defs
     id="defs5">
    <inkscape:perspective
       sodipodi:type="inkscape:persp3d"
       inkscape:vp_x="0 : 37.381836 : 1"
       inkscape:vp_y="0 : 1000 : 0"
       inkscape:vp_z="21.507355 : 37.381836 : 1"
       inkscape:persp3d-origin="10.753677 : 24.921224 : 1"
       id="perspective7" />
  </defs>
  <sodipodi:namedview
     inkscape:window-height="676"
     inkscape:window-width="794"
     inkscape:pageshadow="2"
     inkscape:pageopacity="0.0"
     guidetolerance="10.0"
     gridtolerance="10.0"
     objecttolerance="10.0"
     borderopacity="1.0"
     bordercolor="#666666"
     pagecolor="#ffffff"
     id="base"
     inkscape:zoom="1.89"
     inkscape:cx="100"
     inkscape:cy="81.385185"
     inkscape:window-x="0"
     inkscape:window-y="0"
     inkscape:current-layer="svg2"
     showgrid="false" />
  <path
     style="fill:#000000"
     d="M 4.7619061,65.68885 C 4.7619061,56.622522 4.7055607,56.386148 2.6190483,56.699114 C 0.68801583,56.988776 0.44748043,56.537745 0.18576251,52.136437 C -0.077367025,47.711413 0.12404687,47.158551 2.3286202,46.254332 C 4.6005417,45.322516 4.7619061,44.804413 4.7619061,38.44144 C 4.7619061,31.685267 4.7413978,31.632108 2.380953,32.271197 C 0.083378922,32.893286 0,32.739177 0,27.870683 C 0,23.34599 0.24563412,22.758986 2.380953,22.180848 C 4.711196,21.549924 4.7619061,21.328735 4.7619061,11.795496 C 4.7619061,5.9866229 5.1463346,2.0547937 5.7142864,2.0547937 C 6.2795637,2.0547937 6.6666685,5.8618558 6.6666685,11.421194 C 6.6666685,20.633126 6.7020081,20.777384 8.8095253,20.168105 C 9.9880943,19.82738 11.488102,19.542287 12.142864,19.534572 C 13.010791,19.524349 13.333341,16.876078 13.333341,9.7602738 C 13.333341,3.9383518 13.717637,-1.7152946e-14 14.285722,-1.7152946e-14 C 14.84899,-1.7152946e-14 15.238103,3.7196306 15.238103,9.1041062 L 15.238103,18.208212 L 17.619056,17.717208 C 19.882115,17.250524 20,17.462312 20,21.994695 C 20,26.135747 19.686712,26.891677 17.619056,27.739732 C 15.409645,28.645899 15.238103,29.207274 15.238103,35.53115 C 15.238103,42.325341 15.245487,42.344039 17.669895,41.687632 C 20.071854,41.037289 20.098143,41.095812 19.812752,46.456379 C 19.560764,51.189593 19.249801,51.925532 17.380961,52.211864 C 15.331727,52.525834 15.238103,52.963523 15.238103,62.228998 C 15.238103,74.542308 13.499898,75.063079 13.130982,62.860288 L 12.85715,53.802787 L 9.7619056,54.670491 L 6.6666685,55.538196 L 6.6666685,65.269088 C 6.6666685,71.071431 6.2821721,75 5.7142864,75 C 5.1494247,75 4.7619061,71.211352 4.7619061,65.68885 z M 11.82687,43.554455 C 13.763947,42.752588 14.062022,29.785935 12.142864,29.808538 C 7.3556775,29.864966 6.6666685,30.847767 6.6666685,37.61983 C 6.6666685,44.501148 7.4271591,45.375784 11.82687,43.554455 z"
     id="path2161"
     sodipodi:nodetypes="csssssssssssssscccssssssscccccsccssc" />
</svg>
