<?xml version="1.0" encoding="UTF-8" standalone="no"?>
<!-- Created with Sodipodi ("http://www.sodipodi.com/") -->
<svg
   xmlns:dc="http://purl.org/dc/elements/1.1/"
   xmlns:cc="http://web.resource.org/cc/"
   xmlns:rdf="http://www.w3.org/1999/02/22-rdf-syntax-ns#"
   xmlns:svg="http://www.w3.org/2000/svg"
   xmlns="http://www.w3.org/2000/svg"
   xmlns:xlink="http://www.w3.org/1999/xlink"
   xmlns:sodipodi="http://sodipodi.sourceforge.net/DTD/sodipodi-0.dtd"
   xmlns:inkscape="http://www.inkscape.org/namespaces/inkscape"
   version="1.0"
   x="0"
   y="0"
   width="800.000000"
   height="600.000000"
   id="svg559"
   sodipodi:version="0.32"
   inkscape:version="0.45.1"
   sodipodi:docname="practice_bg.svg"
   sodipodi:docbase="/home/yoda/UltraStar/sf/UltraStar-ng/themes/lima_0.1.4"
   inkscape:output_extension="org.inkscape.output.svg.inkscape">
  <metadata
     id="metadata35">
    <rdf:RDF>
      <cc:Work
         rdf:about="">
        <dc:format>image/svg+xml</dc:format>
        <dc:type
           rdf:resource="http://purl.org/dc/dcmitype/StillImage" />
      </cc:Work>
    </rdf:RDF>
  </metadata>
  <sodipodi:namedview
     inkscape:window-height="971"
     inkscape:window-width="1672"
     inkscape:pageshadow="2"
     inkscape:pageopacity="0.0"
     guidetolerance="10.0"
     gridtolerance="10.0"
     objecttolerance="10.0"
     borderopacity="1.0"
     bordercolor="#666666"
     pagecolor="#ffffff"
     id="base"
     inkscape:zoom="0.89095454"
     inkscape:cx="400"
     inkscape:cy="299.20635"
     inkscape:window-x="1152"
     inkscape:window-y="30"
     inkscape:current-layer="svg559" />
  <defs
     id="defs561">
    <linearGradient
       id="linearGradient6499"
       inkscape:collect="always">
      <stop
         id="stop6501"
         offset="0"
         style="stop-color:white;stop-opacity:1;" />
      <stop
         id="stop6503"
         offset="1"
         style="stop-color:white;stop-opacity:0;" />
    </linearGradient>
    <linearGradient
       id="linearGradient3751"
       inkscape:collect="always">
      <stop
         id="stop3753"
         offset="0"
         style="stop-color:black;stop-opacity:1;" />
      <stop
         id="stop3755"
         offset="1"
         style="stop-color:black;stop-opacity:0;" />
    </linearGradient>
    <linearGradient
       inkscape:collect="always"
       xlink:href="#linearGradient6499"
       id="linearGradient5410"
       gradientUnits="userSpaceOnUse"
       gradientTransform="matrix(0.755727,0,0,0.755727,219.75996,52.251196)"
       x1="370.92285"
       y1="100.34026"
       x2="372.94315"
       y2="219.56401" />
    <linearGradient
       inkscape:collect="always"
       xlink:href="#linearGradient3751"
       id="linearGradient2812"
       gradientUnits="userSpaceOnUse"
       gradientTransform="matrix(0.755727,0,0,0.755727,4.33502,31.78829)"
       x1="665.12128"
       y1="684.16162"
       x2="381.28015"
       y2="449.80624" />
    <linearGradient
       inkscape:collect="always"
       xlink:href="#linearGradient6499"
       id="linearGradient5626"
       gradientUnits="userSpaceOnUse"
       x1="887.61945"
       y1="464.4924"
       x2="-119.44304"
       y2="458.88043"
       gradientTransform="translate(51.94021,36.59109)" />
  </defs>
  <rect
     style="color:black;fill:#81d000;fill-opacity:1;fill-rule:nonzero;stroke:none;stroke-width:3;stroke-linecap:round;stroke-linejoin:miter;marker:none;marker-start:none;marker-mid:none;marker-end:none;stroke-miterlimit:4;stroke-dasharray:none;stroke-dashoffset:0;stroke-opacity:1;visibility:visible;display:block;overflow:visible"
     id="rect2828"
     width="804.80463"
     height="602.76892"
     x="-3.480546"
     y="0.51224983" />
  <path
     style="opacity:0.22790701;color:black;fill:url(#linearGradient5626);fill-opacity:1;fill-rule:nonzero;stroke:none;stroke-width:1.70000005;stroke-linecap:round;stroke-linejoin:round;marker:none;marker-start:none;marker-mid:none;marker-end:none;stroke-miterlimit:4;stroke-dasharray:none;stroke-dashoffset:0;stroke-opacity:1;visibility:visible;display:block;overflow:visible"
     d="M 563.50271,389.02859 L 560.37771,396.55984 L 553.00271,399.99734 L 559.22146,405.30984 L 560.19021,413.40359 L 567.15896,409.12234 L 575.15896,410.68484 L 573.25271,402.74734 L 577.19021,395.62234 L 569.06521,394.99734 L 563.50271,389.02859 z M 756.50271,403.80984 L 741.97146,451.15359 L 699.25271,476.18484 L 739.78396,504.65359 L 750.40896,552.99734 L 790.00271,523.24734 L 839.25271,528.09109 L 823.22146,481.24734 L 843.03396,435.90359 L 793.53396,436.68484 L 756.50271,403.80984 z M 607.22146,408.52859 L 603.50271,425.30984 L 589.40896,435.15359 L 604.22146,443.90359 L 609.22146,460.34109 L 622.09646,448.96609 L 639.28396,449.27859 L 632.44021,433.49734 L 638.06521,417.24734 L 620.94021,418.90359 L 607.22146,408.52859 z M 357.31521,423.80984 L 351.75271,429.77859 L 343.62771,430.40359 L 347.56521,437.55984 L 345.65896,445.46609 L 353.65896,443.93484 L 360.62771,448.18484 L 361.59646,440.09109 L 367.81521,434.80984 L 360.44021,431.34109 L 357.31521,423.80984 z M 122.34646,437.71609 L 118.62771,454.49734 L 104.53396,464.34109 L 119.34646,473.09109 L 124.34646,489.52859 L 137.22146,478.15359 L 154.40896,478.46609 L 147.56521,462.68484 L 153.19021,446.43484 L 136.06521,448.09109 L 122.34646,437.71609 z M 309.28396,446.62234 L 300.28396,453.24734 L 289.15896,452.09109 L 292.69021,462.68484 L 288.12771,472.87234 L 299.31521,472.80984 L 307.62771,480.27859 L 310.97146,469.62234 L 320.65896,464.05984 L 311.56521,457.55984 L 309.28396,446.62234 z M 582.00271,462.34109 L 573.03396,468.96609 L 561.90896,467.77859 L 565.44021,478.40359 L 560.87771,488.59109 L 572.06521,488.49734 L 580.34646,495.99734 L 583.72146,485.34109 L 593.40896,479.77859 L 584.31521,473.27859 L 582.00271,462.34109 z M 661.15896,466.46609 L 658.03396,473.99734 L 650.65896,477.46609 L 656.84646,482.74734 L 657.84646,490.84109 L 664.81521,486.55984 L 672.81521,488.12234 L 670.90896,480.18484 L 674.84646,473.05984 L 666.72146,472.43484 L 661.15896,466.46609 z M 155.28396,493.40359 L 149.72146,499.37234 L 141.59646,499.99734 L 145.53396,507.12234 L 143.62771,515.05984 L 151.62771,513.49734 L 158.59646,517.77859 L 159.59646,509.68484 L 165.78396,504.40359 L 158.40896,500.93484 L 155.28396,493.40359 z M 321.40896,494.52859 L 315.81521,500.49734 L 307.69021,501.12234 L 311.65896,508.24734 L 309.75271,516.18484 L 317.75271,514.62234 L 324.69021,518.90359 L 325.69021,510.80984 L 331.90896,505.49734 L 324.50271,502.05984 L 321.40896,494.52859 z M 631.15896,495.65359 L 625.59646,501.62234 L 617.47146,502.24734 L 621.44021,509.37234 L 619.53396,517.30984 L 627.53396,515.74734 L 634.47146,520.02859 L 635.47146,511.93484 L 641.69021,506.62234 L 634.28396,503.18484 L 631.15896,495.65359 z M 550.40896,510.68484 L 536.69021,521.02859 L 519.59646,519.40359 L 525.19021,535.65359 L 518.34646,551.40359 L 535.53396,551.09109 L 548.40896,562.49734 L 553.44021,546.02859 L 568.25271,537.30984 L 554.15896,527.46609 L 550.40896,510.68484 z M 84.783957,517.34109 L 75.815207,523.96609 L 64.690207,522.77859 L 68.221457,533.40359 L 63.658957,543.59109 L 74.846457,543.49734 L 83.127707,550.99734 L 86.502707,540.34109 L 96.190207,534.77859 L 87.096457,528.27859 L 84.783957,517.34109 z M 480.78396,521.46609 L 475.22146,527.43484 L 467.06521,528.05984 L 471.03396,535.18484 L 469.12771,543.12234 L 477.12771,541.55984 L 484.06521,545.84109 L 485.06521,537.74734 L 491.28396,532.43484 L 483.87771,528.99734 L 480.78396,521.46609 z M 378.25271,531.99734 L 374.53396,548.77859 L 360.44021,558.62234 L 375.25271,567.37234 L 380.25271,583.80984 L 393.12771,572.43484 L 410.31521,572.74734 L 403.47146,556.96609 L 409.09646,540.71609 L 391.97146,542.37234 L 378.25271,531.99734 z "
     id="path2843" />
  <g
     id="g2320"
     transform="matrix(0.472636,0,0,0.472636,441.2174,318.0764)">
    <path
       id="path1939"
       d="M 590.82758,258.93873 L 579.93438,258.93873 L 577.75577,264.3853 L 579.93438,270.37653 L 578.84507,276.91242 L 573.39855,273.64447 L 569.04133,265.47462 L 559.78208,263.29598 L 555.96952,259.48339 L 547.79965,255.67078 L 538.54049,240.42038 L 539.08514,233.33983 L 561.96077,215.9108 L 572.85382,220.81271 L 574.48785,224.62532 L 574.48785,228.98258 L 577.21111,232.79517 L 582.65771,234.42915 L 586.47028,231.1612 L 587.01493,227.3486 L 585.38098,224.08066 L 582.11306,222.44669 L 579.93438,219.7234 L 584.83632,217.54478 L 583.74702,212.0982 L 583.74702,208.83025 L 580.4791,205.56231 L 578.84507,200.6604 L 572.30924,199.02643 L 566.86264,197.93711 L 555.42479,206.10697 L 526.55798,217.54478 L 520.02208,224.08066 L 515.12021,227.89326 L 514.03082,236.60778 L 516.20951,240.96504 L 521.65611,255.67078 L 528.73659,269.28721 L 536.3618,279.09104 L 524.37937,298.69871 L 510.76291,328.1102 L 502.59305,341.18197 L 488.97666,358.06635 L 488.43201,365.69156 L 481.35145,372.22744 L 492.24458,382.03128 L 489.52131,393.46907 L 490.61062,419.06797 L 495.51249,448.47946 L 500.41444,474.62302 L 505.86096,483.33753 L 513.48625,499.13259 L 525.46868,517.10628 L 528.73659,528.54405 L 532.00458,536.71392 L 522.20069,550.33035 L 504.77166,557.4109 L 503.1377,562.85751 L 536.3618,561.7682 L 531.45993,570.48269 L 537.45111,575.92925 L 553.24618,577.56325 L 565.77334,566.67008 L 570.13063,551.41971 L 577.21111,538.34792 L 585.92563,530.72273 L 588.64889,522.00819 L 579.3898,521.46354 L 585.38098,515.4723 L 573.39855,519.28491 L 582.11306,510.57039 L 575.57716,508.93642 L 570.67521,502.94519 L 562.50535,486.06081 L 543.44236,470.26575 L 539.62979,469.17644 L 543.44236,465.90849 L 542.89771,456.64932 L 546.71035,448.47946 L 543.44236,449.02412 L 549.43361,438.67563 L 549.43361,428.32714 L 553.24618,422.88057 L 553.24618,415.80002 L 561.41604,404.90687 L 561.96077,395.64771 L 560.32674,388.0225 L 564.13938,379.30798 L 568.4966,372.22744 L 568.4966,367.87018 L 573.39855,367.32553 L 577.75577,362.96827 L 581.56841,352.07513 L 590.28292,342.27129 L 600.6314,338.45869 L 607.16722,343.90526 L 622.96237,348.80718 L 635.48945,355.34306 L 641.48063,362.96827 L 651.8291,364.05758 L 684.50863,378.21867 L 701.39293,384.20991 L 715.00939,394.55839 L 718.27738,393.46907 L 718.27738,390.20113 L 710.65217,384.20991 L 725.35786,388.0225 L 726.9919,385.29921 L 723.72391,382.03128 L 729.17051,382.03128 L 729.71516,378.76333 L 719.91134,376.5847 L 727.53647,374.40607 L 727.53647,370.59347 L 724.81321,370.04882 L 716.64335,370.59347 L 710.10752,367.87018 L 705.75023,365.69156 L 712.28613,360.24498 L 713.92009,356.43238 L 712.83078,353.70909 L 706.83961,354.79841 L 694.31237,361.33429 L 692.67849,364.60224 L 688.3212,363.51293 L 672.52612,354.79841 L 671.98147,348.80718 L 662.7223,343.90526 L 646.92723,335.7354 L 643.11466,338.45869 L 643.65932,334.64609 L 634.9448,326.47623 L 627.31959,324.2976 L 620.23903,316.12774 L 618.06043,313.40445 L 625.14098,318.30637 L 624.05168,312.85979 L 629.4982,315.58308 L 627.86424,307.41322 L 635.48945,314.49377 L 632.22154,309.59186 L 639.84667,312.85979 L 633.31084,303.60063 L 638.21272,305.2346 L 636.03411,296.52008 L 639.84667,299.78802 L 634.40015,291.61816 L 639.84667,293.25213 L 634.9448,286.71625 L 641.48063,286.17159 L 634.40015,281.81433 L 638.75737,279.63571 L 633.8555,279.09104 L 640.39133,273.09982 L 634.40015,273.64447 L 634.9448,269.83187 L 635.48945,258.93873 L 632.22154,266.56393 L 628.4089,255.67078 L 628.95355,264.3853 L 626.77494,264.92996 L 621.32834,264.92996 L 615.33709,256.21544 L 609.34591,256.21544 L 602.26535,250.22421 L 598.99736,253.49215 L 590.82758,258.93873 z "
       style="fill:black;fill-opacity:1;fill-rule:evenodd;stroke:black;stroke-width:0.5391832px;stroke-linecap:butt;stroke-linejoin:miter;stroke-opacity:1" />
    <path
       style="opacity:0.22790701;fill:url(#linearGradient2812);fill-opacity:1;fill-rule:evenodd;stroke:none;stroke-width:0.44754833px;stroke-linecap:butt;stroke-linejoin:miter;stroke-opacity:1"
       d="M 303.61338,440.15657 L 292.71292,440.15657 L 295.64069,442.29833 L 303.43933,444.65426 L 308.4786,447.22437 L 299.96375,445.93931 L 287.94187,442.72669 L 276.6334,441.86998 L 269.24276,440.37075 L 257.49196,438.87152 L 233.92469,432.8746 L 227.8296,430.09032 L 234.37556,423.2367 L 249.87295,425.16428 L 255.08354,426.66351 L 259.16975,428.37691 L 265.47033,429.87615 L 272.45294,430.51867 L 273.2033,429.23361 L 270.17291,427.73439 L 265.47312,426.44933 L 260.6707,425.80681 L 255.93668,424.73593 L 258.79877,423.87923 L 252.6009,421.73747 L 249.53627,420.45241 L 243.20147,419.16736 L 236.96937,417.23978 L 228.89677,416.59725 L 222.42495,416.1689 L 218.64125,419.38154 L 200.48143,423.87923 L 200.07054,426.44933 L 198.74084,427.94856 L 205.82329,431.37537 L 212.08962,433.08878 L 231.33096,438.87152 L 251.18572,444.22591 L 268.0101,448.08107 L 274.4077,455.79139 L 288.36432,467.35688 L 292.44774,472.49709 L 294.65643,479.13654 L 301.26239,482.135 L 300.30639,484.70511 L 320.40087,488.56028 L 328.40221,493.05796 L 353.49892,503.12422 L 385.98626,514.6897 L 415.40898,524.97014 L 429.03164,528.39694 L 451.47462,534.60804 L 480.32079,541.67584 L 494.31731,546.17351 L 505.2492,549.38615 L 508.20825,554.74054 L 497.4077,557.52482 L 500.88057,559.6666 L 533.1053,559.23825 L 536.37261,562.66504 L 547.4756,564.8068 L 564.81356,565.44933 L 567.13342,561.16581 L 557.19183,555.16891 L 552.01835,550.02868 L 553.58777,547.03023 L 548.14034,543.60342 L 538.36425,543.38924 L 538.74091,541.0333 L 530.32589,542.53254 L 530.87371,539.10573 L 522.80111,538.4632 L 512.27739,536.10727 L 488.26779,529.46782 L 454.3794,523.25673 L 449.54268,522.82838 L 450.29319,521.54332 L 441.06485,517.90234 L 437.21828,514.6897 L 434.45897,514.90388 L 430.74941,510.83454 L 421.04451,506.7652 L 419.75184,504.62344 L 413.11172,501.83916 L 411.07141,497.55565 L 402.93321,493.91467 L 394.14721,490.9162 L 389.78984,487.4894 L 387.50988,484.70511 L 383.42359,482.99171 L 387.81807,482.77753 L 388.09194,481.06413 L 381.69154,476.78062 L 381.21777,472.92545 L 387.9977,471.42622 L 399.64572,473.56797 L 420.04846,475.49556 L 438.71326,478.06566 L 451.85943,481.06413 L 463.23637,481.49248 L 509.21798,487.06104 L 531.73222,489.41698 L 555.06257,493.48632 L 557.31123,493.05796 L 554.24653,491.77291 L 540.99758,489.41698 L 559.28867,490.9162 L 558.36978,489.84533 L 552.03505,488.56028 L 557.4852,488.56028 L 554.96561,487.27522 L 543.11203,486.41852 L 548.6992,485.56182 L 545.1237,484.06258 L 541.8879,483.84841 L 534.22332,484.06258 L 525.1292,482.99171 L 518.72585,482.135 L 520.15833,479.99325 L 518.21793,478.49402 L 514.57397,477.42313 L 509.6003,477.85149 L 503.19415,480.42159 L 504.62376,481.70665 L 499.24208,481.2783 L 475.26392,477.85149 L 469.10036,475.49556 L 455.23798,473.56797 L 431.77062,470.35534 L 430.50939,471.42622 L 427.47892,469.92699 L 411.09688,466.71435 L 401.4235,465.85766 L 386.67647,462.64501 L 381.94252,461.57414 L 393.62477,463.50172 L 387.42698,461.35996 L 395.43103,462.43084 L 386.13423,459.21821 L 400.4047,462.00249 L 392.53758,460.07491 L 403.23256,461.35996 L 388.00904,457.71898 L 394.44655,458.36151 L 384.094,454.93469 L 390.97383,456.21975 L 377.86189,453.00711 L 384.84443,453.64964 L 373.80984,451.07953 L 379.83933,450.86535 L 368.66787,449.15195 L 370.98485,448.29525 L 365.56894,448.08107 L 366.49054,445.72514 L 361.00616,445.93931 L 357.97569,444.44009 L 348.30511,440.15657 L 352.18592,443.15503 L 338.15517,438.87152 L 346.87263,442.29833 L 345.2033,442.51251 L 339.75315,442.51251 L 325.58539,439.0857 L 319.59013,439.0857 L 306.88636,436.72977 L 306.6808,438.01481 L 303.61338,440.15657 z "
       id="path2864" />
    <path
       sodipodi:nodetypes="cccc"
       id="path3759"
       d="M 572.30425,197.15261 C 550.97907,189.2703 539.52089,218.80397 546.54537,235.32851 C 549.07578,256.18832 549.52921,278.08703 544.00364,298.38488 C 533.60234,309.29523 506.60807,316.2899 506.99599,334.59948"
       style="fill:none;fill-opacity:0.75;fill-rule:evenodd;stroke:white;stroke-width:1.28473592;stroke-linecap:round;stroke-linejoin:round;stroke-miterlimit:4;stroke-dasharray:none;stroke-opacity:1" />
  </g>
  <path
     sodipodi:type="star"
     style="opacity:0.22790701;color:black;fill:white;fill-opacity:1;fill-rule:nonzero;stroke:white;stroke-width:1.70000005;stroke-linecap:round;stroke-linejoin:round;marker:none;marker-start:none;marker-mid:none;marker-end:none;stroke-miterlimit:4;stroke-dasharray:none;stroke-dashoffset:0;stroke-opacity:1;visibility:visible;display:block;overflow:visible"
     id="path5574"
     sodipodi:sides="5"
     sodipodi:cx="141.42136"
     sodipodi:cy="350.13498"
     sodipodi:r1="78.688225"
     sodipodi:r2="45.665279"
     sodipodi:arg1="1.0612041"
     sodipodi:arg2="1.6895226"
     inkscape:flatsided="false"
     inkscape:rounded="0"
     inkscape:randomized="0"
     d="M 179.80715,418.82535 L 136.01242,395.47879 L 87.954791,407.86853 L 96.625376,359.00278 L 69.991407,317.1259 L 119.14486,310.27177 L 150.74179,272.0007 L 172.4497,316.63036 L 218.61165,334.85441 L 182.87443,369.29119 L 179.80715,418.82535 z "
     transform="matrix(-0.921868,-0.381152,-0.381152,0.921868,343.7854,-85.34073)" />
  <path
     transform="matrix(-0.218514,5.453603e-2,5.453603e-2,0.218514,579.9587,28.10314)"
     d="M 179.80715,418.82535 L 136.01242,395.47879 L 87.954791,407.86853 L 96.625376,359.00278 L 69.991407,317.1259 L 119.14486,310.27177 L 150.74179,272.0007 L 172.4497,316.63036 L 218.61165,334.85441 L 182.87443,369.29119 L 179.80715,418.82535 z "
     inkscape:randomized="0"
     inkscape:rounded="0"
     inkscape:flatsided="false"
     sodipodi:arg2="1.6895226"
     sodipodi:arg1="1.0612041"
     sodipodi:r2="45.665279"
     sodipodi:r1="78.688225"
     sodipodi:cy="350.13498"
     sodipodi:cx="141.42136"
     sodipodi:sides="5"
     id="path5580"
     style="opacity:0.22790701;color:black;fill:white;fill-opacity:1;fill-rule:nonzero;stroke:white;stroke-width:1.70000005;stroke-linecap:round;stroke-linejoin:round;marker:none;marker-start:none;marker-mid:none;marker-end:none;stroke-miterlimit:4;stroke-dasharray:none;stroke-dashoffset:0;stroke-opacity:1;visibility:visible;display:block;overflow:visible"
     sodipodi:type="star" />
  <path
     sodipodi:type="star"
     style="opacity:0.22790701;color:black;fill:white;fill-opacity:1;fill-rule:nonzero;stroke:white;stroke-width:1.70000005;stroke-linecap:round;stroke-linejoin:round;marker:none;marker-start:none;marker-mid:none;marker-end:none;stroke-miterlimit:4;stroke-dasharray:none;stroke-dashoffset:0;stroke-opacity:1;visibility:visible;display:block;overflow:visible"
     id="path5582"
     sodipodi:sides="5"
     sodipodi:cx="141.42136"
     sodipodi:cy="350.13498"
     sodipodi:r1="78.688225"
     sodipodi:r2="45.665279"
     sodipodi:arg1="1.0612041"
     sodipodi:arg2="1.6895226"
     inkscape:flatsided="false"
     inkscape:rounded="0"
     inkscape:randomized="0"
     d="M 179.80715,418.82535 L 136.01242,395.47879 L 87.954791,407.86853 L 96.625376,359.00278 L 69.991407,317.1259 L 119.14486,310.27177 L 150.74179,272.0007 L 172.4497,316.63036 L 218.61165,334.85441 L 182.87443,369.29119 L 179.80715,418.82535 z "
     transform="matrix(-0.164046,9.96525e-3,9.96525e-3,0.164046,652.5606,60.5033)" />
  <g
     id="g5406"
     transform="matrix(0.5901729,0,0,0.5901729,-147.8381,459.15101)">
    <path
       id="text5554"
       d="M 523.94004,90.108206 L 510.54946,97.145914 L 510.54946,114.40951 L 503.20478,114.40951 L 503.20478,127.75285 L 510.54946,127.75285 L 510.54946,159.0919 C 510.54946,166.00282 511.72643,170.9367 514.06836,173.87581 C 516.48577,176.81493 520.1206,178.29209 524.95551,178.29209 C 526.91972,178.2921 528.7253,178.03659 530.3873,177.55998 C 532.04929,177.08336 533.6469,176.42637 535.15782,175.55258 L 536.74017,161.94949 C 534.1716,163.93539 531.52459,164.9488 528.80503,164.94878 C 527.21853,164.9488 525.99909,164.50007 525.1681,163.62626 C 524.3371,162.67306 523.94004,161.04131 523.94004,158.73765 L 523.94004,127.75285 L 535.93721,127.75285 L 535.93721,114.40951 L 523.94004,114.40951 L 523.94004,90.108206 z M 333.75658,94.429982 L 326.05761,98.964344 L 326.05761,177.04042 L 333.75658,177.04042 L 333.75658,94.429982 z M 358.88451,94.429982 L 351.30366,98.964344 L 351.30366,117.55054 L 345.18695,117.55054 L 345.18695,124.11591 L 351.30366,124.11591 L 351.30366,165.70451 C 351.30366,169.93506 352.10246,173.10668 353.68888,175.22195 C 355.27538,177.26166 357.7522,178.29209 361.15169,178.29209 C 362.88925,178.29209 364.48686,178.12194 365.92221,177.81976 C 367.35757,177.59312 368.72362,177.19607 370.0079,176.5917 L 370.69274,169.43591 C 369.40846,170.04029 368.18902,170.46096 367.0558,170.68759 C 365.99816,170.91424 364.77872,171.04183 363.41887,171.04183 C 361.90802,171.04183 360.7736,170.57863 360.0181,169.67208 C 359.26267,168.69 358.88451,167.09237 358.88451,164.90155 L 358.88451,124.11591 L 370.33853,124.11591 L 370.33853,117.55054 L 358.88451,117.55054 L 358.88451,94.429982 z M 688.73576,96.720817 C 686.74374,96.720817 684.8418,97.161179 683.02057,98.043339 C 681.22776,98.897084 679.6396,100.13391 678.27362,101.72751 C 676.90772,103.32111 675.83504,105.24179 675.03821,107.48993 C 674.24144,109.70957 673.83373,112.17354 673.83373,114.9055 C 673.8338,116.95442 674.11962,118.7721 674.66034,120.33727 C 675.20107,121.90243 675.93639,123.22346 676.90387,124.30484 C 677.87143,125.38623 679.05678,126.21542 680.42276,126.78457 C 681.78874,127.32526 683.26422,127.58752 684.88624,127.58753 C 686.50833,127.58752 688.00746,127.36281 689.37337,126.87904 C 690.73934,126.3668 691.95742,125.57031 693.0103,124.51739 C 694.09167,123.46447 695.00995,122.12467 695.74981,120.50259 C 696.51823,118.88055 697.08027,116.95987 697.4502,114.74014 L 697.94618,111.92982 L 688.47594,111.92982 L 687.76745,116.22802 L 692.70332,116.22802 C 692.70332,116.22802 692.68451,116.28432 692.65609,116.36972 C 692.65602,116.42662 692.65609,116.45935 692.65609,116.48776 C 692.17228,118.65058 691.32919,120.32773 690.10551,121.49448 C 688.88184,122.63278 687.29368,123.19487 685.35857,123.19487 C 684.36259,123.19487 683.44915,123.0168 682.59548,122.67531 C 681.77022,122.30536 681.04881,121.7996 680.42276,121.11662 C 679.79672,120.40518 679.28124,119.50085 678.91131,118.44797 C 678.56979,117.39501 678.41532,116.16303 678.41532,114.74014 C 678.41532,112.71971 678.65882,110.88805 679.17105,109.23755 C 679.71177,107.55855 680.43319,106.11095 681.34377,104.91569 C 682.25442,103.72051 683.29437,102.80714 684.46114,102.1526 C 685.65632,101.46965 686.92594,101.13713 688.26343,101.13706 C 689.74314,101.13713 690.96122,101.50721 691.90037,102.24707 C 692.86792,102.987 693.65955,104.02212 694.28559,105.38802 L 698.56021,103.52236 C 697.79186,101.38804 696.61134,99.710927 695.01774,98.515669 C 693.42414,97.320487 691.32533,96.720817 688.73576,96.720817 z M 647.9265,97.193147 L 642.63641,127.09158 L 647.02907,127.09158 L 650.24091,108.69433 C 650.26933,108.49519 650.30205,108.17658 650.35896,107.74967 C 650.44436,107.32284 650.51464,106.90129 650.57154,106.47438 C 650.62845,106.01913 650.70357,105.59267 650.76048,105.22275 C 650.81738,104.82433 650.85011,104.56209 650.87852,104.41979 C 651.02082,104.84662 651.2316,105.38999 651.5162,106.07294 C 651.82923,106.75589 652.11028,107.39312 652.3664,107.96226 L 661.08084,127.09158 L 665.16652,127.09158 L 670.48019,97.193147 L 666.06395,97.193147 L 662.87569,115.56676 C 662.8472,115.76597 662.79573,116.06093 662.71041,116.48776 C 662.65343,116.88618 662.57838,117.33138 662.52148,117.78671 C 662.46457,118.21354 662.41303,118.61634 662.35612,119.01476 C 662.29922,119.38469 662.2665,119.62819 662.23808,119.77049 C 662.09578,119.37207 661.885,118.84752 661.6004,118.16457 C 661.31579,117.48162 661.02998,116.84439 660.77386,116.27525 L 652.24828,97.193147 L 647.9265,97.193147 z M 478.00597,113.11065 C 475.36191,113.11072 472.92764,113.53582 470.66129,114.40951 C 468.39494,115.20393 466.41916,116.4106 464.75717,117.99922 C 463.17067,119.50856 461.93234,121.3722 461.02577,123.59635 C 460.1192,125.8206 459.65601,128.32619 459.65601,131.10638 C 459.65601,135.95201 460.70534,139.83384 462.82062,142.77292 C 465.0114,145.63264 468.26813,148.17687 472.57418,150.40104 C 474.68946,151.51316 476.4336,152.4643 477.79346,153.25863 C 479.15324,153.97358 480.24511,154.69283 481.07611,155.40773 C 481.90711,156.12267 482.47436,156.84193 482.7765,157.55683 C 483.15421,158.19234 483.34329,158.95024 483.34329,159.82401 C 483.34329,161.41275 482.81867,162.67306 481.76103,163.62626 C 480.77888,164.50007 479.22382,164.9488 477.10854,164.94878 C 472.50027,164.9488 467.73103,163.12382 462.82062,159.46976 L 458.07367,171.49055 C 460.86888,173.79419 463.76641,175.50321 466.78818,176.61532 C 469.80996,177.72742 473.17068,178.29209 476.87238,178.29209 C 482.53829,178.2921 487.20355,176.6217 490.82975,173.2854 C 494.53138,169.9491 496.37958,165.05388 496.37958,158.61957 C 496.37958,153.69458 495.16007,149.81275 492.74265,146.95304 C 490.40072,144.09338 487.04001,141.54916 482.65845,139.32492 C 480.61867,138.29229 478.95962,137.41845 477.67534,136.70349 C 476.39106,135.90917 475.3607,135.18992 474.6052,134.55439 C 473.84977,133.91895 473.32507,133.31564 473.02293,132.75954 C 472.79629,132.1241 472.6923,131.4671 472.6923,130.75214 C 472.6923,129.48121 473.13191,128.42917 474.0384,127.63476 C 474.94497,126.84046 476.16449,126.45399 477.67534,126.45394 C 479.86619,126.45399 481.84196,126.72451 483.57946,127.28052 C 485.3926,127.83661 487.57627,128.8264 490.14483,130.25619 L 494.79732,118.82583 C 492.15318,116.91943 489.4637,115.48091 486.74406,114.52763 C 484.1,113.57444 481.17889,113.11072 478.00597,113.11065 z M 565.90647,113.11065 C 562.28034,113.11072 559.00471,113.61313 556.05844,114.64568 C 553.11216,115.67846 550.27614,117.19422 547.55651,119.18004 L 552.9883,129.42962 C 554.87693,128.07926 556.72506,127.12812 558.53813,126.57202 C 560.35119,125.93658 562.51605,125.62741 565.00904,125.62736 C 567.65318,125.62741 569.50131,126.3617 570.55895,127.87093 C 571.61651,129.30082 572.14121,131.14942 572.14121,133.37357 L 572.14121,138.12048 C 570.85693,137.24673 569.5335,136.62837 568.17365,136.23116 C 566.81387,135.83402 564.81913,135.61717 562.17506,135.61713 C 559.531,135.61717 557.07308,136.14319 554.80673,137.17582 C 552.61595,138.12908 550.68272,139.52895 549.02073,141.35593 C 547.43431,143.10355 546.1959,145.27635 545.28933,147.89769 C 544.38276,150.43967 543.91957,153.29307 543.91957,156.47047 C 543.91957,163.22252 545.55973,168.54286 548.80814,172.4352 C 552.05664,176.32755 556.2776,178.29209 561.49022,178.29209 C 563.45436,178.2921 565.38758,177.80472 567.27622,176.85148 C 569.16486,175.89826 570.78143,174.52202 572.14121,172.69499 L 572.14121,176.96957 L 585.50814,176.96957 L 585.50814,133.96398 C 585.50814,127.05312 583.953,121.84871 580.85573,118.3535 C 577.83388,114.85834 572.85666,113.11072 565.90647,113.11065 z M 621.5941,113.11065 C 619.40332,113.11072 617.32356,113.71402 615.35935,114.9055 C 613.39522,116.09705 611.84008,117.35738 610.70695,118.70771 L 610.70695,114.40951 L 597.34002,114.40951 L 597.34002,176.96957 L 610.70695,176.96957 L 610.70695,132.28721 C 613.04879,128.71265 615.92743,126.92631 619.32692,126.92627 C 620.91342,126.92631 622.29829,127.19684 623.50707,127.75285 C 624.79135,128.30895 626.0108,129.06684 627.14401,130.02003 L 630.99345,116.32249 C 629.5581,115.21043 628.13061,114.4139 626.69526,113.93718 C 625.2599,113.3812 623.55831,113.11072 621.5941,113.11065 z M 402.38604,116.29883 C 399.96862,116.29891 397.74232,116.95118 395.70261,118.23538 C 393.73841,119.44417 392.16438,120.9142 390.95567,122.65169 L 390.95567,117.55054 L 383.2567,117.55054 L 383.2567,177.04042 L 390.95567,177.04042 L 390.95567,130.46874 C 392.01331,128.6557 393.37936,127.10061 395.04136,125.8163 C 396.70335,124.45653 398.46638,123.78533 400.35502,123.78528 C 401.86595,123.78533 403.1469,123.93186 404.20454,124.23399 C 405.33768,124.53622 406.42955,124.97581 407.48719,125.58013 L 409.65991,117.55054 C 408.82891,117.17283 407.84103,116.85618 406.70789,116.62946 C 405.57468,116.4029 404.1236,116.29891 402.38604,116.29883 z M 434.55167,116.29883 C 431.45432,116.29891 428.57576,116.82361 425.93169,117.88117 C 423.28756,118.93881 420.76826,120.40886 418.35077,122.29744 L 421.84601,128.20156 C 423.96129,126.61515 425.97961,125.39567 427.86824,124.56462 C 429.75688,123.73367 431.7941,123.33662 433.98487,123.33657 C 440.10407,123.33662 443.17172,126.80131 443.17172,133.75143 L 443.17172,142.13528 C 441.88743,141.30432 440.3323,140.65203 438.51923,140.19873 C 436.70617,139.66995 434.68785,139.41942 432.49707,139.41938 C 430.00408,139.41942 427.6738,139.79755 425.48294,140.55297 C 423.36766,141.30846 421.51953,142.48541 419.93311,144.07183 C 418.34669,145.65831 417.1082,147.69553 416.20171,150.18849 C 415.29514,152.60596 414.83195,155.46091 414.83195,158.78489 C 414.83195,162.18444 415.21004,165.14808 415.96554,167.64106 C 416.72097,170.05852 417.77037,172.0532 419.13015,173.63964 C 420.48993,175.2261 422.08754,176.40304 423.90068,177.1585 C 425.71374,177.91395 427.66586,178.29209 429.78114,178.29209 C 432.65192,178.29209 435.19487,177.68235 437.38564,176.47362 C 439.5765,175.2649 441.50972,173.79489 443.17172,172.05734 L 443.17172,177.04042 L 450.87068,177.04042 L 450.87068,132.94847 C 450.87061,126.67826 449.40064,122.3533 446.45437,119.93579 C 443.58366,117.51842 439.61322,116.29891 434.55167,116.29883 z M 274.45567,117.55054 L 274.45567,158.33617 C 274.45567,164.98418 275.77917,169.98502 278.42323,173.30901 C 281.06729,176.633 284.91017,178.29209 289.97165,178.29209 C 292.9935,178.29209 295.57899,177.68235 297.69427,176.47362 C 299.80948,175.18935 301.51115,173.71934 302.79543,172.05734 L 302.79543,177.04042 L 310.4944,177.04042 L 310.4944,117.55054 L 302.79543,117.55054 L 302.79543,164.35837 C 301.51115,166.17147 299.95601,167.78801 298.14295,169.22337 C 296.40545,170.58318 294.32569,171.25438 291.9082,171.25438 C 288.50871,171.25438 286.05079,170.20505 284.53986,168.08977 C 283.02901,165.89897 282.27268,162.3492 282.27268,157.43875 L 282.27268,117.55054 L 274.45567,117.55054 z M 432.40261,146.22092 C 435.04667,146.22095 437.12643,146.45256 438.63735,146.9058 C 440.22378,147.3591 441.73629,147.98776 443.17172,148.81874 L 443.17172,165.37388 C 441.73629,167.11144 439.9496,168.58145 437.83439,169.79016 C 435.79461,170.92336 433.56839,171.49055 431.1509,171.49055 C 428.28019,171.49056 426.11534,170.3136 424.67998,167.97169 C 423.24463,165.6298 422.53092,162.45817 422.53092,158.45426 C 422.53092,154.60146 423.32973,151.61891 424.91615,149.50361 C 426.50265,147.31283 429.00304,146.22095 432.40261,146.22092 z M 563.96992,147.54345 C 566.0097,147.54348 567.60731,147.814 568.74044,148.37002 C 569.94915,148.84667 571.08357,149.56592 572.14121,150.51912 L 572.14121,160.5325 C 571.31022,162.04179 570.1758,163.30211 568.74044,164.33476 C 567.38066,165.288 565.91062,165.77537 564.3242,165.77536 C 562.13335,165.77538 560.43175,164.94018 559.22304,163.27202 C 558.08983,161.60387 557.52266,159.25289 557.52266,156.23431 C 557.52266,153.61296 558.13238,151.51745 559.34109,149.92871 C 560.5498,148.34003 562.08128,147.54348 563.96992,147.54345 z "
       style="font-size:149.94555664px;font-style:normal;font-variant:normal;font-weight:normal;font-stretch:normal;text-align:start;line-height:125%;writing-mode:lr-tb;text-anchor:start;fill:#ffffff;fill-opacity:1;stroke:none;stroke-width:1px;stroke-linecap:butt;stroke-linejoin:miter;stroke-opacity:1;font-family:Interstate-LightCondensed" />
    <path
       id="text5584"
       d="M 289.97165,182.87368 C 284.91017,182.87368 281.06729,183.80423 278.42323,185.66043 C 275.77917,187.51661 274.45567,190.28465 274.45567,193.99704 L 274.45567,216.78693 L 282.27268,216.78693 L 282.27268,194.5166 C 282.27268,191.77449 283.02901,189.78864 284.53986,188.56525 C 286.05079,187.38403 288.50871,186.79401 291.9082,186.79402 C 294.32569,186.79402 296.40545,187.16825 298.14295,187.92761 C 299.95601,188.72914 301.51115,189.63102 302.79543,190.6435 L 302.79543,216.78693 L 310.4944,216.78693 L 310.4944,183.55856 L 302.79543,183.55856 L 302.79543,186.3453 C 301.51115,185.4172 299.80948,184.60636 297.69427,183.88919 C 295.57899,183.21421 292.9935,182.87368 289.97165,182.87368 z M 361.15169,182.87368 C 357.7522,182.87368 355.27538,183.43505 353.68888,184.57407 C 352.10246,185.75529 351.30366,187.52534 351.30366,189.88778 L 351.30366,213.10276 L 345.18695,213.10276 L 345.18695,216.78693 L 351.30366,216.78693 L 351.30366,227.15456 L 358.88451,229.68153 L 358.88451,216.78693 L 370.33853,216.78693 L 370.33853,213.10276 L 358.88451,213.10276 L 358.88451,190.33649 C 358.88451,189.11309 359.26267,188.21624 360.0181,187.66783 C 360.7736,187.16159 361.90802,186.91209 363.41887,186.9121 C 364.77872,186.9121 365.99816,186.97446 367.0558,187.10103 C 368.18902,187.22759 369.40846,187.47204 370.69274,187.80953 L 370.0079,183.81834 C 368.72362,183.48086 367.35757,183.2364 365.92221,183.10985 C 364.48686,182.9411 362.88925,182.87368 361.15169,182.87368 z M 429.78114,182.87368 C 427.66586,182.87368 425.71374,183.06585 423.90068,183.48771 C 422.08754,183.90957 420.48993,184.56198 419.13015,185.44788 C 417.7703,186.33379 416.72097,187.47507 415.96554,188.82503 C 415.21012,190.21717 414.83195,191.86249 414.83195,193.76088 C 414.83195,195.61706 415.29514,197.20505 416.20171,198.55502 C 417.10828,199.94715 418.34669,201.09348 419.93311,201.97941 C 421.51953,202.8653 423.36766,203.51769 425.48294,203.93957 C 427.6738,204.36141 430.00408,204.5772 432.49707,204.57722 C 434.68785,204.5772 436.70617,204.4238 438.51923,204.12851 C 440.3323,203.87537 441.88743,203.50617 443.17172,203.04215 L 443.17172,207.74183 C 443.17164,211.62293 440.10407,213.55145 433.98487,213.55148 C 431.7941,213.55145 429.75688,213.33062 427.86824,212.8666 C 425.97961,212.40253 423.96129,211.72148 421.84601,210.83558 L 418.35077,214.11827 C 420.76826,215.1729 423.28756,216.00737 425.93169,216.598 C 428.57576,217.18857 431.45432,217.47178 434.55167,217.47181 C 439.61322,217.47178 443.58366,216.81434 446.45437,215.46441 C 449.40064,214.11443 450.87061,211.66836 450.87068,208.16692 L 450.87068,183.55856 L 443.17172,183.55856 L 443.17172,186.3453 C 441.50965,185.37502 439.5765,184.56418 437.38564,183.88919 C 435.19487,183.21421 432.65185,182.87368 429.78114,182.87368 z M 476.87238,182.87368 C 473.17068,182.87368 469.80996,183.17371 466.78818,183.79473 C 463.76633,184.41575 460.86888,185.36591 458.07367,186.65232 L 462.82062,193.38301 C 467.73103,191.3425 472.50027,190.31287 477.10854,190.31287 C 479.22382,190.31286 480.77888,190.55702 481.76103,191.04498 C 482.81859,191.57728 483.34329,192.28328 483.34329,193.17046 C 483.34329,193.6584 483.15421,194.09087 482.7765,194.44575 C 482.47436,194.84497 481.90711,195.25095 481.07611,195.65019 C 480.24511,196.04941 479.15324,196.43178 477.79346,196.83102 C 476.4336,197.27459 474.68946,197.8159 472.57418,198.43694 C 468.26813,199.67897 465.0114,201.09097 462.82062,202.6879 C 460.70534,204.32914 459.65601,206.50015 459.65601,209.20605 C 459.65601,210.75857 460.1192,212.1677 461.02577,213.40978 C 461.93226,214.65179 463.17067,215.6843 464.75717,216.52715 C 466.41916,217.41429 468.39494,218.09093 470.66129,218.53455 C 472.92764,219.02246 475.36191,219.26662 478.00597,219.26666 C 481.17889,219.26662 484.1,218.99598 486.74406,218.4637 C 489.4637,217.93136 492.15318,217.14302 494.79732,216.07844 L 490.14483,209.67838 C 487.57627,210.4768 485.3926,211.0446 483.57946,211.35515 C 481.84196,211.66563 479.86619,211.80384 477.67534,211.80386 C 476.16449,211.80384 474.94497,211.58616 474.0384,211.1426 C 473.13191,210.69898 472.6923,210.12831 472.6923,209.41859 C 472.6923,209.01934 472.79629,208.63985 473.02293,208.285 C 473.32507,207.97447 473.84977,207.64796 474.6052,207.29311 C 475.3607,206.93822 476.39106,206.53223 477.67534,206.08867 C 478.95962,205.68943 480.61867,205.20109 482.65845,204.62445 C 487.04001,203.38239 490.40072,201.97039 492.74265,200.37349 C 495.16007,198.77656 496.37958,196.60556 496.37958,193.85534 C 496.37958,190.26228 494.53145,187.52348 490.82975,185.66043 C 487.20355,183.79736 482.53829,182.87368 476.87238,182.87368 z M 524.95551,182.87368 C 520.1206,182.87368 516.48577,183.68852 514.06836,185.3298 C 511.72643,186.97106 510.54946,189.71273 510.54946,193.57194 L 510.54946,211.07175 L 503.20478,211.07175 L 503.20478,218.53455 L 510.54946,218.53455 L 510.54946,228.17007 L 523.94004,232.11402 L 523.94004,218.53455 L 535.93721,218.53455 L 535.93721,211.07175 L 523.94004,211.07175 L 523.94004,193.78449 C 523.94004,192.49808 524.3371,191.57727 525.1681,191.04498 C 525.99909,190.55703 527.21853,190.31287 528.80503,190.31287 C 531.52459,190.31286 534.1716,190.88066 536.74017,191.98964 L 535.15782,184.38514 C 533.6469,183.89719 532.04929,183.54132 530.3873,183.27516 C 528.7253,183.00901 526.91972,182.87368 524.95551,182.87368 z M 561.49022,182.87368 C 556.2776,182.87368 552.05664,183.95918 548.80814,186.13276 C 545.55973,188.30633 543.91957,191.26567 543.91957,195.03617 C 543.91957,196.8105 544.38276,198.4108 545.28933,199.83031 C 546.19582,201.29412 547.43431,202.51495 549.02073,203.49086 C 550.68272,204.51109 552.61595,205.29656 554.80673,205.82889 C 557.07308,206.40553 559.531,206.67906 562.17506,206.67908 C 564.8192,206.67906 566.81387,206.57023 568.17365,206.34845 C 569.5335,206.12664 570.85693,205.77363 572.14121,205.28571 L 572.14121,207.95437 C 572.14121,209.19639 571.61659,210.20241 570.55895,211.0009 C 569.50131,211.84369 567.6531,212.27616 565.00904,212.27619 C 562.51605,212.27616 560.35127,212.08785 558.53813,211.73301 C 556.72506,211.42247 554.87693,210.90478 552.9883,210.15071 L 547.55651,215.86589 C 550.27614,216.97482 553.11216,217.81616 556.05844,218.39285 C 559.00464,218.96948 562.28034,219.26662 565.90647,219.26666 C 572.85666,219.26662 577.83388,218.28997 580.85573,216.33822 C 583.953,214.3864 585.50814,211.48292 585.50814,207.62374 L 585.50814,183.60579 L 572.14121,183.60579 L 572.14121,185.99106 C 570.78143,184.9708 569.16486,184.18533 567.27622,183.65303 C 565.38758,183.12072 563.45436,182.87368 561.49022,182.87368 z M 326.05761,183.55856 L 326.05761,227.15456 L 333.75658,229.68153 L 333.75658,183.55856 L 326.05761,183.55856 z M 383.2567,183.55856 L 383.2567,216.78693 L 390.95567,216.78693 L 390.95567,213.92934 C 392.16446,214.8996 393.73841,215.73406 395.70261,216.40907 C 397.74232,217.1262 399.96862,217.47178 402.38604,217.47181 C 404.1236,217.47178 405.57468,217.40941 406.70789,217.28288 C 407.84103,217.15629 408.82891,216.99783 409.65991,216.78693 L 407.48719,212.2998 C 406.42955,212.63727 405.33768,212.88675 404.20454,213.05553 C 403.1469,213.22425 401.86595,213.29167 400.35502,213.2917 C 398.46638,213.29167 396.70335,212.91742 395.04136,212.15811 C 393.37936,211.44091 392.01331,210.57273 390.95567,209.56029 L 390.95567,183.55856 L 383.2567,183.55856 z M 597.34002,183.60579 L 597.34002,218.53455 L 610.70695,218.53455 L 610.70695,216.12567 C 611.84008,216.87974 613.39522,217.60936 615.35935,218.27477 C 617.32356,218.94012 619.40332,219.26662 621.5941,219.26666 C 623.55831,219.26662 625.2599,219.10481 626.69526,218.79433 C 628.13061,218.52814 629.5581,218.09279 630.99345,217.47181 L 627.14401,209.82007 C 626.0108,210.35235 624.79128,210.7612 623.50707,211.07175 C 622.29829,211.38223 620.91334,211.54405 619.32692,211.54408 C 615.92743,211.54405 613.04879,210.54089 610.70695,208.54479 L 610.70695,183.60579 L 597.34002,183.60579 z M 431.1509,186.65232 C 433.56839,186.65232 435.79461,186.9878 437.83439,187.62059 C 439.9496,188.29557 441.73629,189.10642 443.17172,190.07671 L 443.17172,199.31075 C 441.73629,199.77478 440.22378,200.14397 438.63735,200.3971 C 437.12643,200.6502 435.04667,200.77494 432.40261,200.77497 C 429.00304,200.77495 426.50265,200.15627 424.91615,198.93288 C 423.32973,197.75166 422.53092,196.10129 422.53092,193.94981 C 422.53092,191.71394 423.24463,189.92026 424.67998,188.61249 C 426.11541,187.30471 428.28019,186.65231 431.1509,186.65232 z M 564.3242,189.84054 C 565.91062,189.84053 567.38066,190.11119 568.74044,190.6435 C 570.1758,191.22015 571.31022,191.92616 572.14121,192.76898 L 572.14121,198.36609 C 571.08357,198.89838 569.94915,199.30436 568.74044,199.57053 C 567.60731,199.88102 566.00962,200.04284 563.96992,200.04286 C 562.08128,200.04284 560.54987,199.58388 559.34109,198.69672 C 558.13238,197.80953 557.52266,196.64168 557.52266,195.17786 C 557.52266,193.49222 558.08983,192.18905 559.22304,191.25753 C 560.43175,190.326 562.13335,189.84054 564.3242,189.84054 z M 684.88624,211.16621 C 683.26422,211.16621 681.78874,211.31298 680.42276,211.61493 C 679.05678,211.93275 677.87143,212.40443 676.90387,213.0083 C 675.93639,213.61217 675.20099,214.35423 674.66034,215.22825 C 674.11962,216.10226 673.8338,217.10697 673.83373,218.25115 C 673.83373,219.77671 674.24144,221.16812 675.03821,222.40765 C 675.83497,223.66305 676.90772,224.72957 678.27362,225.61949 C 679.6396,226.50939 681.22776,227.19737 683.02057,227.67413 C 684.8418,228.16674 686.74374,228.40622 688.73576,228.40624 C 691.32533,228.40622 693.42414,228.08176 695.01774,227.41434 C 696.61134,226.74689 697.79179,225.81944 698.56021,224.6276 L 694.28559,223.56486 C 693.65955,224.32763 692.86792,224.92292 691.90037,225.33609 C 690.96122,225.74926 689.74314,225.95012 688.26343,225.95012 C 686.92594,225.95012 685.65632,225.76471 684.46114,225.38333 C 683.29437,225.01781 682.25442,224.49206 681.34377,223.82464 C 680.43319,223.1572 679.71177,222.35334 679.17105,221.41576 C 678.65882,220.49405 678.41532,219.47389 678.41532,218.34562 C 678.41532,217.55105 678.56979,216.85533 678.91131,216.26737 C 679.28124,215.67939 679.79672,215.20043 680.42276,214.80315 C 681.04881,214.42176 681.77022,214.11231 682.59548,213.90572 C 683.44915,213.71503 684.36259,213.62233 685.35857,213.62233 C 687.29368,213.62233 688.88184,213.95494 690.10551,214.5906 C 691.32919,215.24214 692.17228,216.1696 692.65609,217.37734 C 692.65609,217.39323 692.65602,217.41642 692.65609,217.44819 C 692.68451,217.49587 692.70332,217.51904 692.70332,217.51904 L 687.76745,217.51904 L 688.47594,219.92792 L 697.94618,219.92792 L 697.4502,218.34562 C 697.08027,217.10609 696.51823,216.03958 695.74981,215.13378 C 695.00995,214.22797 694.09167,213.47819 693.0103,212.89022 C 691.95742,212.30224 690.73934,211.85374 689.37337,211.56769 C 688.00746,211.29754 686.50833,211.16621 684.88624,211.16621 z M 642.63641,211.44961 L 647.9265,228.14645 L 652.24828,228.14645 L 660.77386,217.49543 C 661.02998,217.1776 661.31579,216.81407 661.6004,216.43269 C 661.885,216.05129 662.09578,215.75773 662.23808,215.53526 C 662.2665,215.61471 662.29922,215.75377 662.35612,215.96036 C 662.41303,216.18284 662.46457,216.40686 662.52148,216.64523 C 662.57838,216.89949 662.65343,217.15486 662.71041,217.37734 C 662.79573,217.61571 662.84727,217.78567 662.87569,217.89691 L 666.06395,228.14645 L 670.48019,228.14645 L 665.16652,211.44961 L 661.08084,211.44961 L 652.3664,222.14787 C 652.11028,222.46569 651.82923,222.80559 651.5162,223.187 C 651.2316,223.56837 651.02082,223.86966 650.87852,224.10804 C 650.85011,224.02857 650.81738,223.8818 650.76048,223.65933 C 650.70357,223.45272 650.62845,223.2287 650.57154,222.97445 C 650.51464,222.73607 650.44436,222.50432 650.35896,222.26595 C 650.30205,222.02757 650.26933,221.834 650.24091,221.72278 L 647.02907,211.44961 L 642.63641,211.44961 z "
       style="font-size:112.0508728px;font-style:normal;font-variant:normal;font-weight:normal;font-stretch:normal;text-align:start;line-height:125%;writing-mode:lr-tb;text-anchor:start;fill:url(#linearGradient5410);fill-opacity:1;stroke:none;stroke-width:1px;stroke-linecap:butt;stroke-linejoin:miter;stroke-opacity:1;font-family:Interstate-LightCondensed" />
  </g>
  <rect
     style="fill:#a0db3e;fill-opacity:1;stroke:none;stroke-width:5;stroke-linecap:butt;stroke-linejoin:miter;stroke-miterlimit:4;stroke-dasharray:none;stroke-opacity:1"
     id="rect6085"
     width="806.99963"
     height="41.528496"
     x="-4.8331499"
     y="34.188133"
     ry="0" />
  <g
     transform="matrix(1.2105926,0,0,1.2105926,-308.78476,-443.43448)"
     id="layer1"
     inkscape:label="Calque 1">
    <path
       id="path2221"
       d="M 293.69923,599.2555 C 288.61593,596.94795 285.43747,592.18573 285.43231,586.86932 C 285.42935,583.82146 286.13696,582.31093 288.82857,579.61932 C 292.94935,575.49854 296.15072,575.2732 300.35184,578.80821 C 302.83284,580.89583 303.42857,582.16319 303.42857,585.35367 C 303.42857,589.93083 299.97369,594.19824 296.22403,594.25259 L 293.92857,594.28586 L 296.28935,596.25259 C 300.69752,599.92496 310.03096,598.08284 314.26067,592.70564 C 316.94762,589.28974 317.13317,582.25824 314.84084,570.71932 L 313.25156,562.71932 L 305.09006,562.69017 C 298.25713,562.66577 296.11465,562.23432 291.92857,560.03978 C 285.25402,556.54066 279.89375,551.00695 276.11964,543.71932 C 273.36554,538.40129 273.01006,536.75319 272.99212,529.21932 C 272.97514,522.09149 273.40104,519.7962 275.63041,515.00096 C 279.32544,507.05318 283.73447,500.83626 291.18314,493.07098 L 297.56041,486.42264 L 296.29966,482.07098 C 295.60625,479.67757 295.04328,472.54432 295.04862,466.21932 C 295.05677,456.55661 295.43193,453.76073 297.39684,448.71932 C 299.8084,442.5319 305.96827,435.21932 308.76877,435.21932 C 311.10447,435.21932 315.12625,442.8071 316.99612,450.74163 C 320.64521,466.2261 315.57022,487.22562 306.02373,496.14363 C 302.98204,498.98508 302.89082,500.16751 305.05014,508.7638 L 306.67172,515.21932 L 310.58998,515.21932 C 324.14766,515.21932 334.12601,532.4882 328.98609,547.05628 C 327.02996,552.60054 323.86496,556.66937 319.80954,558.85335 C 315.92788,560.94377 315.93432,560.89796 317.92857,572.21932 C 318.75207,576.89432 319.41905,582.51932 319.41075,584.71932 C 319.36441,597.01017 305.73161,604.71756 293.69923,599.2555 z M 312.02148,558.95974 C 312.28597,558.69526 311.05978,551.44546 309.29662,542.84909 C 307.14576,532.36247 305.66429,527.21932 304.79452,527.21932 C 304.08152,527.21932 301.92145,528.6037 299.99435,530.29571 C 293.98437,535.57254 294.22282,543.34408 300.55828,548.67501 C 303.82667,551.42518 304.22742,552.44475 301.67857,551.52521 C 294.46223,548.9218 289.87739,541.52101 290.77671,533.92761 C 291.4966,527.84928 295.44836,520.90312 299.54361,518.51771 C 302.62034,516.72555 302.62878,516.69679 301.97751,510.21932 C 301.61806,506.64432 300.97503,503.36935 300.54855,502.9416 C 299.3675,501.75705 290.91313,509.68075 285.99859,516.57826 C 280.42033,524.40731 277.97078,531.70622 278.74049,538.20522 C 280.34544,551.75647 291.23431,560.63672 305.23458,559.81207 C 308.70289,559.60778 311.75699,559.22423 312.02148,558.95974 z M 322.81483,550.21198 C 325.80373,542.74199 324.28628,535.05759 318.88594,530.31604 C 315.5322,527.37142 310.89824,525.41632 309.82245,526.4921 C 309.54032,526.77424 310.68627,533.8635 312.36902,542.24601 C 314.05177,550.62852 315.42857,557.68237 315.42857,557.92122 C 315.42857,558.16008 316.72739,557.43067 318.31483,556.30031 C 319.90227,555.16995 321.92727,552.4302 322.81483,550.21198 z M 304.9704,479.46932 C 313.0887,470.61907 317.52382,457.06603 314.04109,451.75071 C 309.17103,444.31805 300.13099,454.89144 298.75469,469.62994 C 298.10127,476.62723 298.95997,483.21932 300.52487,483.21932 C 301.07798,483.21932 303.07847,481.53182 304.9704,479.46932 z "
       style="fill:#000000" />
  </g>
  <path
     transform="matrix(-0.308608,-0.157328,-0.157328,0.308608,339.7471,52.4488)"
     d="M 179.80715,418.82535 L 136.01242,395.47879 L 87.954791,407.86853 L 96.625376,359.00278 L 69.991407,317.1259 L 119.14486,310.27177 L 150.74179,272.0007 L 172.4497,316.63036 L 218.61165,334.85441 L 182.87443,369.29119 L 179.80715,418.82535 z "
     inkscape:randomized="0"
     inkscape:rounded="0"
     inkscape:flatsided="false"
     sodipodi:arg2="1.6895226"
     sodipodi:arg1="1.0612041"
     sodipodi:r2="45.665279"
     sodipodi:r1="78.688225"
     sodipodi:cy="350.13498"
     sodipodi:cx="141.42136"
     sodipodi:sides="5"
     id="path2814"
     style="opacity:0.22790701;color:black;fill:white;fill-opacity:1;fill-rule:nonzero;stroke:white;stroke-width:1.70000005;stroke-linecap:round;stroke-linejoin:round;marker:none;marker-start:none;marker-mid:none;marker-end:none;stroke-miterlimit:4;stroke-dasharray:none;stroke-dashoffset:0;stroke-opacity:1;visibility:visible;display:block;overflow:visible"
     sodipodi:type="star" />
  <path
     transform="matrix(-0.308608,-0.157328,-0.157328,0.308608,824.6203,81.631)"
     d="M 179.80715,418.82535 L 136.01242,395.47879 L 87.954791,407.86853 L 96.625376,359.00278 L 69.991407,317.1259 L 119.14486,310.27177 L 150.74179,272.0007 L 172.4497,316.63036 L 218.61165,334.85441 L 182.87443,369.29119 L 179.80715,418.82535 z "
     inkscape:randomized="0"
     inkscape:rounded="0"
     inkscape:flatsided="false"
     sodipodi:arg2="1.6895226"
     sodipodi:arg1="1.0612041"
     sodipodi:r2="45.665279"
     sodipodi:r1="78.688225"
     sodipodi:cy="350.13498"
     sodipodi:cx="141.42136"
     sodipodi:sides="5"
     id="path2818"
     style="opacity:0.22790701;color:black;fill:white;fill-opacity:1;fill-rule:nonzero;stroke:white;stroke-width:1.70000005;stroke-linecap:round;stroke-linejoin:round;marker:none;marker-start:none;marker-mid:none;marker-end:none;stroke-miterlimit:4;stroke-dasharray:none;stroke-dashoffset:0;stroke-opacity:1;visibility:visible;display:block;overflow:visible"
     sodipodi:type="star" />
  <path
     sodipodi:type="star"
     style="opacity:0.22790701;color:black;fill:white;fill-opacity:1;fill-rule:nonzero;stroke:white;stroke-width:1.70000005;stroke-linecap:round;stroke-linejoin:round;marker:none;marker-start:none;marker-mid:none;marker-end:none;stroke-miterlimit:4;stroke-dasharray:none;stroke-dashoffset:0;stroke-opacity:1;visibility:visible;display:block;overflow:visible"
     id="path2820"
     sodipodi:sides="5"
     sodipodi:cx="141.42136"
     sodipodi:cy="350.13498"
     sodipodi:r1="78.688225"
     sodipodi:r2="45.665279"
     sodipodi:arg1="1.0612041"
     sodipodi:arg2="1.6895226"
     inkscape:flatsided="false"
     inkscape:rounded="0"
     inkscape:randomized="0"
     d="M 179.80715,418.82535 L 136.01242,395.47879 L 87.954791,407.86853 L 96.625376,359.00278 L 69.991407,317.1259 L 119.14486,310.27177 L 150.74179,272.0007 L 172.4497,316.63036 L 218.61165,334.85441 L 182.87443,369.29119 L 179.80715,418.82535 z "
     transform="matrix(-0.218514,5.453603e-2,5.453603e-2,0.218514,293.7488,98.81382)" />
  <path
     transform="matrix(-0.218514,5.453603e-2,5.453603e-2,0.218514,566.49,83.10034)"
     d="M 179.80715,418.82535 L 136.01242,395.47879 L 87.954791,407.86853 L 96.625376,359.00278 L 69.991407,317.1259 L 119.14486,310.27177 L 150.74179,272.0007 L 172.4497,316.63036 L 218.61165,334.85441 L 182.87443,369.29119 L 179.80715,418.82535 z "
     inkscape:randomized="0"
     inkscape:rounded="0"
     inkscape:flatsided="false"
     sodipodi:arg2="1.6895226"
     sodipodi:arg1="1.0612041"
     sodipodi:r2="45.665279"
     sodipodi:r1="78.688225"
     sodipodi:cy="350.13498"
     sodipodi:cx="141.42136"
     sodipodi:sides="5"
     id="path2822"
     style="opacity:0.22790701;color:black;fill:white;fill-opacity:1;fill-rule:nonzero;stroke:white;stroke-width:1.70000005;stroke-linecap:round;stroke-linejoin:round;marker:none;marker-start:none;marker-mid:none;marker-end:none;stroke-miterlimit:4;stroke-dasharray:none;stroke-dashoffset:0;stroke-opacity:1;visibility:visible;display:block;overflow:visible"
     sodipodi:type="star" />
  <path
     sodipodi:type="star"
     style="opacity:0.22790701;color:black;fill:white;fill-opacity:1;fill-rule:nonzero;stroke:white;stroke-width:1.70000005;stroke-linecap:round;stroke-linejoin:round;marker:none;marker-start:none;marker-mid:none;marker-end:none;stroke-miterlimit:4;stroke-dasharray:none;stroke-dashoffset:0;stroke-opacity:1;visibility:visible;display:block;overflow:visible"
     id="path2824"
     sodipodi:sides="5"
     sodipodi:cx="141.42136"
     sodipodi:cy="350.13498"
     sodipodi:r1="78.688225"
     sodipodi:r2="45.665279"
     sodipodi:arg1="1.0612041"
     sodipodi:arg2="1.6895226"
     inkscape:flatsided="false"
     inkscape:rounded="0"
     inkscape:randomized="0"
     d="M 179.80715,418.82535 L 136.01242,395.47879 L 87.954791,407.86853 L 96.625376,359.00278 L 69.991407,317.1259 L 119.14486,310.27177 L 150.74179,272.0007 L 172.4497,316.63036 L 218.61165,334.85441 L 182.87443,369.29119 L 179.80715,418.82535 z "
     transform="matrix(-0.218514,5.453603e-2,5.453603e-2,0.218514,790.9683,153.811)" />
  <path
     transform="matrix(-0.164046,9.96525e-3,9.96525e-3,0.164046,248.4996,153.6618)"
     d="M 179.80715,418.82535 L 136.01242,395.47879 L 87.954791,407.86853 L 96.625376,359.00278 L 69.991407,317.1259 L 119.14486,310.27177 L 150.74179,272.0007 L 172.4497,316.63036 L 218.61165,334.85441 L 182.87443,369.29119 L 179.80715,418.82535 z "
     inkscape:randomized="0"
     inkscape:rounded="0"
     inkscape:flatsided="false"
     sodipodi:arg2="1.6895226"
     sodipodi:arg1="1.0612041"
     sodipodi:r2="45.665279"
     sodipodi:r1="78.688225"
     sodipodi:cy="350.13498"
     sodipodi:cx="141.42136"
     sodipodi:sides="5"
     id="path2826"
     style="opacity:0.22790701;color:black;fill:white;fill-opacity:1;fill-rule:nonzero;stroke:white;stroke-width:1.70000005;stroke-linecap:round;stroke-linejoin:round;marker:none;marker-start:none;marker-mid:none;marker-end:none;stroke-miterlimit:4;stroke-dasharray:none;stroke-dashoffset:0;stroke-opacity:1;visibility:visible;display:block;overflow:visible"
     sodipodi:type="star" />
  <path
     sodipodi:type="star"
     style="opacity:0.22790701;color:black;fill:white;fill-opacity:1;fill-rule:nonzero;stroke:white;stroke-width:1.70000005;stroke-linecap:round;stroke-linejoin:round;marker:none;marker-start:none;marker-mid:none;marker-end:none;stroke-miterlimit:4;stroke-dasharray:none;stroke-dashoffset:0;stroke-opacity:1;visibility:visible;display:block;overflow:visible"
     id="path2828"
     sodipodi:sides="5"
     sodipodi:cx="141.42136"
     sodipodi:cy="350.13498"
     sodipodi:r1="78.688225"
     sodipodi:r2="45.665279"
     sodipodi:arg1="1.0612041"
     sodipodi:arg2="1.6895226"
     inkscape:flatsided="false"
     inkscape:rounded="0"
     inkscape:randomized="0"
     d="M 179.80715,418.82535 L 136.01242,395.47879 L 87.954791,407.86853 L 96.625376,359.00278 L 69.991407,317.1259 L 119.14486,310.27177 L 150.74179,272.0007 L 172.4497,316.63036 L 218.61165,334.85441 L 182.87443,369.29119 L 179.80715,418.82535 z "
     transform="matrix(-0.164046,9.96525e-3,9.96525e-3,0.164046,522.3632,81.82873)" />
  <path
     transform="matrix(-0.164046,9.96525e-3,9.96525e-3,0.164046,558.2797,152.5394)"
     d="M 179.80715,418.82535 L 136.01242,395.47879 L 87.954791,407.86853 L 96.625376,359.00278 L 69.991407,317.1259 L 119.14486,310.27177 L 150.74179,272.0007 L 172.4497,316.63036 L 218.61165,334.85441 L 182.87443,369.29119 L 179.80715,418.82535 z "
     inkscape:randomized="0"
     inkscape:rounded="0"
     inkscape:flatsided="false"
     sodipodi:arg2="1.6895226"
     sodipodi:arg1="1.0612041"
     sodipodi:r2="45.665279"
     sodipodi:r1="78.688225"
     sodipodi:cy="350.13498"
     sodipodi:cx="141.42136"
     sodipodi:sides="5"
     id="path2830"
     style="opacity:0.22790701;color:black;fill:white;fill-opacity:1;fill-rule:nonzero;stroke:white;stroke-width:1.70000005;stroke-linecap:round;stroke-linejoin:round;marker:none;marker-start:none;marker-mid:none;marker-end:none;stroke-miterlimit:4;stroke-dasharray:none;stroke-dashoffset:0;stroke-opacity:1;visibility:visible;display:block;overflow:visible"
     sodipodi:type="star" />
  <path
     sodipodi:type="star"
     style="opacity:0.22790701;color:black;fill:white;fill-opacity:1;fill-rule:nonzero;stroke:white;stroke-width:1.70000005;stroke-linecap:round;stroke-linejoin:round;marker:none;marker-start:none;marker-mid:none;marker-end:none;stroke-miterlimit:4;stroke-dasharray:none;stroke-dashoffset:0;stroke-opacity:1;visibility:visible;display:block;overflow:visible"
     id="path2832"
     sodipodi:sides="5"
     sodipodi:cx="141.42136"
     sodipodi:cy="350.13498"
     sodipodi:r1="78.688225"
     sodipodi:r2="45.665279"
     sodipodi:arg1="1.0612041"
     sodipodi:arg2="1.6895226"
     inkscape:flatsided="false"
     inkscape:rounded="0"
     inkscape:randomized="0"
     d="M 179.80715,418.82535 L 136.01242,395.47879 L 87.954791,407.86853 L 96.625376,359.00278 L 69.991407,317.1259 L 119.14486,310.27177 L 150.74179,272.0007 L 172.4497,316.63036 L 218.61165,334.85441 L 182.87443,369.29119 L 179.80715,418.82535 z "
     transform="matrix(-0.164046,9.96525e-3,9.96525e-3,0.164046,398.9001,179.4768)" />
  <path
     sodipodi:type="star"
     style="opacity:0.22790701;color:black;fill:white;fill-opacity:1;fill-rule:nonzero;stroke:white;stroke-width:1.70000005;stroke-linecap:round;stroke-linejoin:round;marker:none;marker-start:none;marker-mid:none;marker-end:none;stroke-miterlimit:4;stroke-dasharray:none;stroke-dashoffset:0;stroke-opacity:1;visibility:visible;display:block;overflow:visible"
     id="path2834"
     sodipodi:sides="5"
     sodipodi:cx="141.42136"
     sodipodi:cy="350.13498"
     sodipodi:r1="78.688225"
     sodipodi:r2="45.665279"
     sodipodi:arg1="1.0612041"
     sodipodi:arg2="1.6895226"
     inkscape:flatsided="false"
     inkscape:rounded="0"
     inkscape:randomized="0"
     d="M 179.80715,418.82535 L 136.01242,395.47879 L 87.954791,407.86853 L 96.625376,359.00278 L 69.991407,317.1259 L 119.14486,310.27177 L 150.74179,272.0007 L 172.4497,316.63036 L 218.61165,334.85441 L 182.87443,369.29119 L 179.80715,418.82535 z "
     transform="matrix(-0.164046,9.96525e-3,9.96525e-3,0.164046,724.3937,151.417)" />
  <g
     id="g2836">
    <path
       sodipodi:nodetypes="cc"
       id="path2327"
       d="M 0,165 L 800,165"
       style="fill:none;fill-opacity:1;fill-rule:evenodd;stroke:#141414;stroke-width:4;stroke-linecap:square;stroke-linejoin:miter;stroke-miterlimit:4;stroke-dasharray:none;stroke-opacity:0.61153847" />
    <path
       sodipodi:nodetypes="cc"
       id="path3298"
       d="M 0,140 L 800,140"
       style="fill:none;fill-opacity:1;fill-rule:evenodd;stroke:#141414;stroke-width:4;stroke-linecap:square;stroke-linejoin:miter;stroke-miterlimit:4;stroke-dasharray:none;stroke-opacity:0.61153847" />
    <path
       sodipodi:nodetypes="cc"
       id="path3302"
       d="M 0,190 L 800,190"
       style="fill:none;fill-opacity:1;fill-rule:evenodd;stroke:#141414;stroke-width:4;stroke-linecap:square;stroke-linejoin:miter;stroke-miterlimit:4;stroke-dasharray:none;stroke-opacity:0.61153847" />
    <path
       sodipodi:nodetypes="cc"
       id="path3306"
       d="M 0,240 L 800,240"
       style="fill:none;fill-opacity:1;fill-rule:evenodd;stroke:#141414;stroke-width:4;stroke-linecap:square;stroke-linejoin:miter;stroke-miterlimit:4;stroke-dasharray:none;stroke-opacity:0.61153847" />
    <path
       sodipodi:nodetypes="cc"
       id="path3304"
       d="M 0,215 L 800,215"
       style="fill:none;fill-opacity:1;fill-rule:evenodd;stroke:#141414;stroke-width:4;stroke-linecap:square;stroke-linejoin:miter;stroke-miterlimit:4;stroke-dasharray:none;stroke-opacity:0.61153847" />
  </g>
  <path
     sodipodi:type="star"
     style="opacity:0.22790701;color:#000000;fill:#ffffff;fill-opacity:1;fill-rule:nonzero;stroke:#ffffff;stroke-width:1.70000005;stroke-linecap:round;stroke-linejoin:round;marker:none;marker-start:none;marker-mid:none;marker-end:none;stroke-miterlimit:4;stroke-dasharray:none;stroke-dashoffset:0;stroke-opacity:1;visibility:visible;display:block;overflow:visible"
     id="path2197"
     sodipodi:sides="5"
     sodipodi:cx="141.42136"
     sodipodi:cy="350.13498"
     sodipodi:r1="78.688225"
     sodipodi:r2="45.665279"
     sodipodi:arg1="1.0612041"
     sodipodi:arg2="1.6895226"
     inkscape:flatsided="false"
     inkscape:rounded="0"
     inkscape:randomized="0"
     d="M 179.80715,418.82535 L 136.01242,395.47879 L 87.954791,407.86853 L 96.625376,359.00278 L 69.991407,317.1259 L 119.14486,310.27177 L 150.74179,272.0007 L 172.4497,316.63036 L 218.61165,334.85441 L 182.87443,369.29119 L 179.80715,418.82535 z "
     transform="matrix(-0.921868,-0.381152,-0.381152,0.921868,783.68048,75.087289)" />
</svg>
