<?xml version="1.0" encoding="UTF-8" standalone="no"?>
<!-- Created with Sodipodi ("http://www.sodipodi.com/") -->
<svg
   xmlns:dc="http://purl.org/dc/elements/1.1/"
   xmlns:cc="http://creativecommons.org/ns#"
   xmlns:rdf="http://www.w3.org/1999/02/22-rdf-syntax-ns#"
   xmlns:svg="http://www.w3.org/2000/svg"
   xmlns="http://www.w3.org/2000/svg"
   xmlns:xlink="http://www.w3.org/1999/xlink"
   xmlns:sodipodi="http://sodipodi.sourceforge.net/DTD/sodipodi-0.dtd"
   xmlns:inkscape="http://www.inkscape.org/namespaces/inkscape"
   version="1.0"
   x="0"
   y="0"
   width="1000"
   height="800"
   id="svg559"
   sodipodi:version="0.32"
   inkscape:version="0.46"
   sodipodi:docname="practice_bg.svg"
   sodipodi:docbase="/root/USNG/branches/hacking/themes/lima"
   inkscape:output_extension="org.inkscape.output.svg.inkscape">
  <metadata
     id="metadata35">
    <rdf:RDF>
      <cc:Work
         rdf:about="">
        <dc:format>image/svg+xml</dc:format>
        <dc:type
           rdf:resource="http://purl.org/dc/dcmitype/StillImage" />
      </cc:Work>
    </rdf:RDF>
  </metadata>
  <sodipodi:namedview
     inkscape:window-height="801"
     inkscape:window-width="1439"
     inkscape:pageshadow="2"
     inkscape:pageopacity="0.0"
     guidetolerance="10.0"
     gridtolerance="10.0"
     objecttolerance="10.0"
     borderopacity="1.0"
     bordercolor="#666666"
     pagecolor="#ffffff"
     id="base"
     inkscape:zoom="1.6351844"
     inkscape:cx="249.73046"
     inkscape:cy="137.84908"
     inkscape:window-x="0"
     inkscape:window-y="25"
     inkscape:current-layer="svg559"
     width="1000px"
     height="800px"
     showgrid="true" />
  <defs
     id="defs561">
    <linearGradient
       inkscape:collect="always"
       xlink:href="#linearGradient6499"
       id="linearGradient3248"
       x1="311.95688"
       y1="-116.67703"
       x2="311.95688"
       y2="-276.41519"
       gradientUnits="userSpaceOnUse" />
    <linearGradient
       id="linearGradient6499"
       inkscape:collect="always">
      <stop
         id="stop6501"
         offset="0"
         style="stop-color:white;stop-opacity:1;" />
      <stop
         id="stop6503"
         offset="1"
         style="stop-color:white;stop-opacity:0;" />
    </linearGradient>
    <linearGradient
       id="linearGradient3751"
       inkscape:collect="always">
      <stop
         id="stop3753"
         offset="0"
         style="stop-color:black;stop-opacity:1;" />
      <stop
         id="stop3755"
         offset="1"
         style="stop-color:black;stop-opacity:0;" />
    </linearGradient>
    <linearGradient
       inkscape:collect="always"
       xlink:href="#linearGradient3751"
       id="linearGradient2812"
       gradientUnits="userSpaceOnUse"
       gradientTransform="matrix(0.755727,0,0,0.755727,4.33502,31.78829)"
       x1="665.12128"
       y1="684.16162"
       x2="381.28015"
       y2="449.80624" />
    <linearGradient
       inkscape:collect="always"
       xlink:href="#linearGradient6499"
       id="linearGradient5626"
       gradientUnits="userSpaceOnUse"
       x1="887.61945"
       y1="464.4924"
       x2="-119.44304"
       y2="458.88043"
       gradientTransform="matrix(1.2468256,0,0,1.3271765,65.964315,48.383907)" />
    <linearGradient
       gradientTransform="matrix(1.0016226,0,0,0.6174366,246.09954,616.51887)"
       spreadMethod="pad"
       gradientUnits="userSpaceOnUse"
       y2="-29.392153"
       x2="553.57922"
       y1="-29.392153"
       x1="-246.27696"
       id="linearGradient3138"
       xlink:href="#linearGradient4175"
       inkscape:collect="always" />
    <linearGradient
       id="linearGradient4175">
      <stop
         style="stop-color:#00fe00;stop-opacity:0;"
         offset="0"
         id="stop4181" />
      <stop
         id="stop3194"
         offset="0.36658654"
         style="stop-color:#7ffe00;stop-opacity:0.39215686;" />
      <stop
         id="stop4187"
         offset="0.78887218"
         style="stop-color:#fefe00;stop-opacity:1;" />
      <stop
         style="stop-color:#feff00;stop-opacity:1;"
         offset="0.8442241"
         id="stop4188" />
      <stop
         style="stop-color:#fe0000;stop-opacity:1;"
         offset="0.95492792"
         id="stop4185" />
      <stop
         style="stop-color:#fe0000;stop-opacity:1;"
         offset="1"
         id="stop4183" />
    </linearGradient>
  </defs>
  <rect
     style="color:#000000;fill:#81d000;fill-opacity:1;fill-rule:nonzero;stroke:none;stroke-width:3;stroke-linecap:round;stroke-linejoin:miter;marker:none;marker-start:none;marker-mid:none;marker-end:none;stroke-miterlimit:4;stroke-dasharray:none;stroke-dashoffset:0;stroke-opacity:1;visibility:visible;display:block;overflow:visible"
     id="rect2828"
     width="1003.451"
     height="799.98077"
     x="-3.1357038"
     y="0.50091648" />
  <path
     style="opacity:0.22790701;color:#000000;fill:url(#linearGradient5626);fill-opacity:1;fill-rule:nonzero;stroke:none;stroke-width:1.70000005;stroke-linecap:round;stroke-linejoin:round;marker:none;marker-start:none;marker-mid:none;marker-end:none;stroke-miterlimit:4;stroke-dasharray:none;stroke-dashoffset:0;stroke-opacity:1;visibility:visible;display:block;overflow:visible"
     d="M 703.79355,516.13069 L 699.89722,526.12599 L 690.70188,530.68816 L 698.45558,537.73879 L 699.66344,548.48062 L 708.35225,542.79865 L 718.32686,544.87236 L 715.9501,534.3379 L 720.85947,524.88176 L 710.72902,524.05228 L 703.79355,516.13069 z M 944.43089,535.74802 L 926.31296,598.58154 L 873.05013,631.80242 L 923.58553,669.58548 L 936.83305,733.74617 L 986.19955,694.26267 L 1047.6057,700.69118 L 1027.6175,638.52125 L 1052.3203,578.34209 L 990.6024,579.37895 L 944.43089,535.74802 z M 758.30321,542.01064 L 753.66657,564.28232 L 736.09412,577.34671 L 754.56273,588.95951 L 760.79686,610.77497 L 776.84974,595.67834 L 798.27955,596.09308 L 789.74659,575.14857 L 796.75998,553.58196 L 775.40809,555.78009 L 758.30321,542.01064 z M 446.71369,562.29155 L 439.77822,570.21314 L 429.64776,571.04262 L 434.55714,580.54023 L 432.18038,591.03322 L 442.15498,589.00098 L 450.8438,594.64148 L 452.05166,583.89964 L 459.80536,576.89049 L 450.61002,572.28685 L 446.71369,562.29155 z M 153.74863,580.7476 L 149.112,603.01928 L 131.53955,616.08368 L 150.00815,627.69647 L 156.24228,649.51194 L 172.29516,634.4153 L 193.72498,634.83005 L 185.19202,613.88554 L 192.20541,592.31892 L 170.85352,594.51706 L 153.74863,580.7476 z M 386.8271,592.56777 L 375.60567,601.36031 L 361.73473,599.82576 L 366.13758,613.88554 L 360.44894,627.40615 L 374.3978,627.3232 L 384.76204,637.23555 L 388.93111,623.09283 L 401.00974,615.71041 L 389.67142,607.08376 L 386.8271,592.56777 z M 726.85982,613.42932 L 715.67735,622.22187 L 701.80642,620.64585 L 706.20927,634.7471 L 700.52063,648.26771 L 714.46949,648.14328 L 724.79477,658.09711 L 729.0028,643.95438 L 741.08143,636.57196 L 729.74311,627.94532 L 726.85982,613.42932 z M 825.55386,618.90393 L 821.65753,628.89922 L 812.46219,633.50287 L 820.17693,640.51202 L 821.42375,651.25385 L 830.11257,645.57188 L 840.08717,647.64559 L 837.71041,637.11113 L 842.61979,627.655 L 832.48933,626.82551 L 825.55386,618.90393 z M 194.81595,654.65474 L 187.88048,662.57633 L 177.75002,663.40582 L 182.6594,672.86195 L 180.28264,683.39641 L 190.25724,681.3227 L 198.94606,687.00467 L 200.19289,676.26284 L 207.90762,669.25369 L 198.71228,664.65004 L 194.81595,654.65474 z M 401.94486,656.14782 L 394.97043,664.0694 L 384.83997,664.89889 L 389.78831,674.35502 L 387.41155,684.88949 L 397.38615,682.81577 L 406.036,688.49775 L 407.28283,677.75591 L 415.03653,670.70529 L 405.80222,666.14312 L 401.94486,656.14782 z M 788.14909,657.64089 L 781.21363,665.56248 L 771.08317,666.39196 L 776.03151,675.8481 L 773.65475,686.38256 L 783.62935,684.30885 L 792.2792,689.99082 L 793.52603,679.24899 L 801.27973,672.19836 L 792.04542,667.63619 L 788.14909,657.64089 z M 687.46792,677.59001 L 670.36304,691.318 L 649.05011,689.16134 L 656.02454,710.72795 L 647.49158,731.63098 L 668.92139,731.21624 L 684.97427,746.35435 L 691.24736,724.49741 L 709.71597,712.92609 L 692.14352,699.8617 L 687.46792,677.59001 z M 106.91474,686.42403 L 95.732273,695.21658 L 81.861338,693.64056 L 86.264191,707.74181 L 80.575549,721.26242 L 94.524411,721.138 L 104.84969,731.09182 L 109.05772,716.94909 L 121.13634,709.56667 L 109.79802,700.94003 L 106.91474,686.42403 z M 600.65769,691.89864 L 593.72222,699.82022 L 583.5528,700.64971 L 588.50114,710.10584 L 586.12438,720.6403 L 596.09898,718.56659 L 604.74884,724.24857 L 605.99566,713.50673 L 613.74936,706.4561 L 604.51506,701.89394 L 600.65769,691.89864 z M 472.8191,705.87546 L 468.18247,728.14715 L 450.61002,741.21154 L 469.07862,752.82434 L 475.31275,774.6398 L 491.36563,759.54317 L 512.79545,759.95791 L 504.26248,739.0134 L 511.27588,717.44679 L 489.92399,719.64492 L 472.8191,705.87546 z "
     id="path2843" />
  <g
     id="g2320"
     transform="matrix(0.5892947,0,0,0.6272714,551.32509,421.96461)">
    <path
       id="path1939"
       d="M 590.82758,258.93873 L 579.93438,258.93873 L 577.75577,264.3853 L 579.93438,270.37653 L 578.84507,276.91242 L 573.39855,273.64447 L 569.04133,265.47462 L 559.78208,263.29598 L 555.96952,259.48339 L 547.79965,255.67078 L 538.54049,240.42038 L 539.08514,233.33983 L 561.96077,215.9108 L 572.85382,220.81271 L 574.48785,224.62532 L 574.48785,228.98258 L 577.21111,232.79517 L 582.65771,234.42915 L 586.47028,231.1612 L 587.01493,227.3486 L 585.38098,224.08066 L 582.11306,222.44669 L 579.93438,219.7234 L 584.83632,217.54478 L 583.74702,212.0982 L 583.74702,208.83025 L 580.4791,205.56231 L 578.84507,200.6604 L 572.30924,199.02643 L 566.86264,197.93711 L 555.42479,206.10697 L 526.55798,217.54478 L 520.02208,224.08066 L 515.12021,227.89326 L 514.03082,236.60778 L 516.20951,240.96504 L 521.65611,255.67078 L 528.73659,269.28721 L 536.3618,279.09104 L 524.37937,298.69871 L 510.76291,328.1102 L 502.59305,341.18197 L 488.97666,358.06635 L 488.43201,365.69156 L 481.35145,372.22744 L 492.24458,382.03128 L 489.52131,393.46907 L 490.61062,419.06797 L 495.51249,448.47946 L 500.41444,474.62302 L 505.86096,483.33753 L 513.48625,499.13259 L 525.46868,517.10628 L 528.73659,528.54405 L 532.00458,536.71392 L 522.20069,550.33035 L 504.77166,557.4109 L 503.1377,562.85751 L 536.3618,561.7682 L 531.45993,570.48269 L 537.45111,575.92925 L 553.24618,577.56325 L 565.77334,566.67008 L 570.13063,551.41971 L 577.21111,538.34792 L 585.92563,530.72273 L 588.64889,522.00819 L 579.3898,521.46354 L 585.38098,515.4723 L 573.39855,519.28491 L 582.11306,510.57039 L 575.57716,508.93642 L 570.67521,502.94519 L 562.50535,486.06081 L 543.44236,470.26575 L 539.62979,469.17644 L 543.44236,465.90849 L 542.89771,456.64932 L 546.71035,448.47946 L 543.44236,449.02412 L 549.43361,438.67563 L 549.43361,428.32714 L 553.24618,422.88057 L 553.24618,415.80002 L 561.41604,404.90687 L 561.96077,395.64771 L 560.32674,388.0225 L 564.13938,379.30798 L 568.4966,372.22744 L 568.4966,367.87018 L 573.39855,367.32553 L 577.75577,362.96827 L 581.56841,352.07513 L 590.28292,342.27129 L 600.6314,338.45869 L 607.16722,343.90526 L 622.96237,348.80718 L 635.48945,355.34306 L 641.48063,362.96827 L 651.8291,364.05758 L 684.50863,378.21867 L 701.39293,384.20991 L 715.00939,394.55839 L 718.27738,393.46907 L 718.27738,390.20113 L 710.65217,384.20991 L 725.35786,388.0225 L 726.9919,385.29921 L 723.72391,382.03128 L 729.17051,382.03128 L 729.71516,378.76333 L 719.91134,376.5847 L 727.53647,374.40607 L 727.53647,370.59347 L 724.81321,370.04882 L 716.64335,370.59347 L 710.10752,367.87018 L 705.75023,365.69156 L 712.28613,360.24498 L 713.92009,356.43238 L 712.83078,353.70909 L 706.83961,354.79841 L 694.31237,361.33429 L 692.67849,364.60224 L 688.3212,363.51293 L 672.52612,354.79841 L 671.98147,348.80718 L 662.7223,343.90526 L 646.92723,335.7354 L 643.11466,338.45869 L 643.65932,334.64609 L 634.9448,326.47623 L 627.31959,324.2976 L 620.23903,316.12774 L 618.06043,313.40445 L 625.14098,318.30637 L 624.05168,312.85979 L 629.4982,315.58308 L 627.86424,307.41322 L 635.48945,314.49377 L 632.22154,309.59186 L 639.84667,312.85979 L 633.31084,303.60063 L 638.21272,305.2346 L 636.03411,296.52008 L 639.84667,299.78802 L 634.40015,291.61816 L 639.84667,293.25213 L 634.9448,286.71625 L 641.48063,286.17159 L 634.40015,281.81433 L 638.75737,279.63571 L 633.8555,279.09104 L 640.39133,273.09982 L 634.40015,273.64447 L 634.9448,269.83187 L 635.48945,258.93873 L 632.22154,266.56393 L 628.4089,255.67078 L 628.95355,264.3853 L 626.77494,264.92996 L 621.32834,264.92996 L 615.33709,256.21544 L 609.34591,256.21544 L 602.26535,250.22421 L 598.99736,253.49215 L 590.82758,258.93873 z "
       style="fill:#000000;fill-opacity:1;fill-rule:evenodd;stroke:#000000;stroke-width:0.5391832px;stroke-linecap:butt;stroke-linejoin:miter;stroke-opacity:1" />
    <path
       style="opacity:0.22790701;fill:url(#linearGradient2812);fill-opacity:1;fill-rule:evenodd;stroke:none;stroke-width:0.44754833px;stroke-linecap:butt;stroke-linejoin:miter;stroke-opacity:1"
       d="M 303.61338,440.15657 L 292.71292,440.15657 L 295.64069,442.29833 L 303.43933,444.65426 L 308.4786,447.22437 L 299.96375,445.93931 L 287.94187,442.72669 L 276.6334,441.86998 L 269.24276,440.37075 L 257.49196,438.87152 L 233.92469,432.8746 L 227.8296,430.09032 L 234.37556,423.2367 L 249.87295,425.16428 L 255.08354,426.66351 L 259.16975,428.37691 L 265.47033,429.87615 L 272.45294,430.51867 L 273.2033,429.23361 L 270.17291,427.73439 L 265.47312,426.44933 L 260.6707,425.80681 L 255.93668,424.73593 L 258.79877,423.87923 L 252.6009,421.73747 L 249.53627,420.45241 L 243.20147,419.16736 L 236.96937,417.23978 L 228.89677,416.59725 L 222.42495,416.1689 L 218.64125,419.38154 L 200.48143,423.87923 L 200.07054,426.44933 L 198.74084,427.94856 L 205.82329,431.37537 L 212.08962,433.08878 L 231.33096,438.87152 L 251.18572,444.22591 L 268.0101,448.08107 L 274.4077,455.79139 L 288.36432,467.35688 L 292.44774,472.49709 L 294.65643,479.13654 L 301.26239,482.135 L 300.30639,484.70511 L 320.40087,488.56028 L 328.40221,493.05796 L 353.49892,503.12422 L 385.98626,514.6897 L 415.40898,524.97014 L 429.03164,528.39694 L 451.47462,534.60804 L 480.32079,541.67584 L 494.31731,546.17351 L 505.2492,549.38615 L 508.20825,554.74054 L 497.4077,557.52482 L 500.88057,559.6666 L 533.1053,559.23825 L 536.37261,562.66504 L 547.4756,564.8068 L 564.81356,565.44933 L 567.13342,561.16581 L 557.19183,555.16891 L 552.01835,550.02868 L 553.58777,547.03023 L 548.14034,543.60342 L 538.36425,543.38924 L 538.74091,541.0333 L 530.32589,542.53254 L 530.87371,539.10573 L 522.80111,538.4632 L 512.27739,536.10727 L 488.26779,529.46782 L 454.3794,523.25673 L 449.54268,522.82838 L 450.29319,521.54332 L 441.06485,517.90234 L 437.21828,514.6897 L 434.45897,514.90388 L 430.74941,510.83454 L 421.04451,506.7652 L 419.75184,504.62344 L 413.11172,501.83916 L 411.07141,497.55565 L 402.93321,493.91467 L 394.14721,490.9162 L 389.78984,487.4894 L 387.50988,484.70511 L 383.42359,482.99171 L 387.81807,482.77753 L 388.09194,481.06413 L 381.69154,476.78062 L 381.21777,472.92545 L 387.9977,471.42622 L 399.64572,473.56797 L 420.04846,475.49556 L 438.71326,478.06566 L 451.85943,481.06413 L 463.23637,481.49248 L 509.21798,487.06104 L 531.73222,489.41698 L 555.06257,493.48632 L 557.31123,493.05796 L 554.24653,491.77291 L 540.99758,489.41698 L 559.28867,490.9162 L 558.36978,489.84533 L 552.03505,488.56028 L 557.4852,488.56028 L 554.96561,487.27522 L 543.11203,486.41852 L 548.6992,485.56182 L 545.1237,484.06258 L 541.8879,483.84841 L 534.22332,484.06258 L 525.1292,482.99171 L 518.72585,482.135 L 520.15833,479.99325 L 518.21793,478.49402 L 514.57397,477.42313 L 509.6003,477.85149 L 503.19415,480.42159 L 504.62376,481.70665 L 499.24208,481.2783 L 475.26392,477.85149 L 469.10036,475.49556 L 455.23798,473.56797 L 431.77062,470.35534 L 430.50939,471.42622 L 427.47892,469.92699 L 411.09688,466.71435 L 401.4235,465.85766 L 386.67647,462.64501 L 381.94252,461.57414 L 393.62477,463.50172 L 387.42698,461.35996 L 395.43103,462.43084 L 386.13423,459.21821 L 400.4047,462.00249 L 392.53758,460.07491 L 403.23256,461.35996 L 388.00904,457.71898 L 394.44655,458.36151 L 384.094,454.93469 L 390.97383,456.21975 L 377.86189,453.00711 L 384.84443,453.64964 L 373.80984,451.07953 L 379.83933,450.86535 L 368.66787,449.15195 L 370.98485,448.29525 L 365.56894,448.08107 L 366.49054,445.72514 L 361.00616,445.93931 L 357.97569,444.44009 L 348.30511,440.15657 L 352.18592,443.15503 L 338.15517,438.87152 L 346.87263,442.29833 L 345.2033,442.51251 L 339.75315,442.51251 L 325.58539,439.0857 L 319.59013,439.0857 L 306.88636,436.72977 L 306.6808,438.01481 L 303.61338,440.15657 z "
       id="path2864" />
    <path
       sodipodi:nodetypes="cccc"
       id="path3759"
       d="M 572.30425,197.15261 C 550.97907,189.2703 539.52089,218.80397 546.54537,235.32851 C 549.07578,256.18832 549.52921,278.08703 544.00364,298.38488 C 533.60234,309.29523 506.60807,316.2899 506.99599,334.59948"
       style="fill:none;fill-opacity:0.75;fill-rule:evenodd;stroke:#ffffff;stroke-width:1.28473592;stroke-linecap:round;stroke-linejoin:round;stroke-miterlimit:4;stroke-dasharray:none;stroke-opacity:1" />
  </g>
  <path
     sodipodi:type="star"
     style="opacity:0.22790701;color:#000000;fill:#ffffff;fill-opacity:1;fill-rule:nonzero;stroke:#ffffff;stroke-width:1.70000005;stroke-linecap:round;stroke-linejoin:round;marker:none;marker-start:none;marker-mid:none;marker-end:none;stroke-miterlimit:4;stroke-dasharray:none;stroke-dashoffset:0;stroke-opacity:1;visibility:visible;display:block;overflow:visible"
     id="path5574"
     sodipodi:sides="5"
     sodipodi:cx="141.42136"
     sodipodi:cy="350.13498"
     sodipodi:r1="78.688225"
     sodipodi:r2="45.665279"
     sodipodi:arg1="1.0612041"
     sodipodi:arg2="1.6895226"
     inkscape:flatsided="false"
     inkscape:rounded="0"
     inkscape:randomized="0"
     d="M 179.80715,418.82535 L 136.01242,395.47879 L 87.954791,407.86853 L 96.625376,359.00278 L 69.991407,317.1259 L 119.14486,310.27177 L 150.74179,272.0007 L 172.4497,316.63036 L 218.61165,334.85441 L 182.87443,369.29119 L 179.80715,418.82535 z "
     transform="matrix(-1.1494086,-0.505856,-0.4752301,1.2234816,429.84438,-113.44115)" />
  <path
     transform="matrix(-0.2724489,7.237894e-2,6.799692e-2,0.2900067,724.3113,37.118899)"
     d="M 179.80715,418.82535 L 136.01242,395.47879 L 87.954791,407.86853 L 96.625376,359.00278 L 69.991407,317.1259 L 119.14486,310.27177 L 150.74179,272.0007 L 172.4497,316.63036 L 218.61165,334.85441 L 182.87443,369.29119 L 179.80715,418.82535 z "
     inkscape:randomized="0"
     inkscape:rounded="0"
     inkscape:flatsided="false"
     sodipodi:arg2="1.6895226"
     sodipodi:arg1="1.0612041"
     sodipodi:r2="45.665279"
     sodipodi:r1="78.688225"
     sodipodi:cy="350.13498"
     sodipodi:cx="141.42136"
     sodipodi:sides="5"
     id="path5580"
     style="opacity:0.22790701;color:#000000;fill:#ffffff;fill-opacity:1;fill-rule:nonzero;stroke:#ffffff;stroke-width:1.70000005;stroke-linecap:round;stroke-linejoin:round;marker:none;marker-start:none;marker-mid:none;marker-end:none;stroke-miterlimit:4;stroke-dasharray:none;stroke-dashoffset:0;stroke-opacity:1;visibility:visible;display:block;overflow:visible"
     sodipodi:type="star" />
  <path
     sodipodi:type="star"
     style="opacity:0.22790701;color:#000000;fill:#ffffff;fill-opacity:1;fill-rule:nonzero;stroke:#ffffff;stroke-width:1.70000005;stroke-linecap:round;stroke-linejoin:round;marker:none;marker-start:none;marker-mid:none;marker-end:none;stroke-miterlimit:4;stroke-dasharray:none;stroke-dashoffset:0;stroke-opacity:1;visibility:visible;display:block;overflow:visible"
     id="path5582"
     sodipodi:sides="5"
     sodipodi:cx="141.42136"
     sodipodi:cy="350.13498"
     sodipodi:r1="78.688225"
     sodipodi:r2="45.665279"
     sodipodi:arg1="1.0612041"
     sodipodi:arg2="1.6895226"
     inkscape:flatsided="false"
     inkscape:rounded="0"
     inkscape:randomized="0"
     d="M 179.80715,418.82535 L 136.01242,395.47879 L 87.954791,407.86853 L 96.625376,359.00278 L 69.991407,317.1259 L 119.14486,310.27177 L 150.74179,272.0007 L 172.4497,316.63036 L 218.61165,334.85441 L 182.87443,369.29119 L 179.80715,418.82535 z "
     transform="matrix(-0.2045368,1.3225646e-2,1.2424929e-2,0.217718,814.83321,80.119631)" />
  <rect
     style="fill:#a0db3e;fill-opacity:1;stroke:none;stroke-width:5;stroke-linecap:butt;stroke-linejoin:miter;stroke-miterlimit:4;stroke-dasharray:none;stroke-opacity:1"
     id="rect6085"
     width="1006.1878"
     height="55.115646"
     x="-4.822165"
     y="45.194759"
     ry="0" />
  <g
     transform="matrix(1.2842911,0,0,1.3475176,-322.83945,-416.05452)"
     id="layer1"
     inkscape:label="Calque 1">
    <path
       id="path2221"
       d="M 293.69923,599.2555 C 288.61593,596.94795 285.43747,592.18573 285.43231,586.86932 C 285.42935,583.82146 286.13696,582.31093 288.82857,579.61932 C 292.94935,575.49854 296.15072,575.2732 300.35184,578.80821 C 302.83284,580.89583 303.42857,582.16319 303.42857,585.35367 C 303.42857,589.93083 299.97369,594.19824 296.22403,594.25259 L 293.92857,594.28586 L 296.28935,596.25259 C 300.69752,599.92496 310.03096,598.08284 314.26067,592.70564 C 316.94762,589.28974 317.13317,582.25824 314.84084,570.71932 L 313.25156,562.71932 L 305.09006,562.69017 C 298.25713,562.66577 296.11465,562.23432 291.92857,560.03978 C 285.25402,556.54066 279.89375,551.00695 276.11964,543.71932 C 273.36554,538.40129 273.01006,536.75319 272.99212,529.21932 C 272.97514,522.09149 273.40104,519.7962 275.63041,515.00096 C 279.32544,507.05318 283.73447,500.83626 291.18314,493.07098 L 297.56041,486.42264 L 296.29966,482.07098 C 295.60625,479.67757 295.04328,472.54432 295.04862,466.21932 C 295.05677,456.55661 295.43193,453.76073 297.39684,448.71932 C 299.8084,442.5319 305.96827,435.21932 308.76877,435.21932 C 311.10447,435.21932 315.12625,442.8071 316.99612,450.74163 C 320.64521,466.2261 315.57022,487.22562 306.02373,496.14363 C 302.98204,498.98508 302.89082,500.16751 305.05014,508.7638 L 306.67172,515.21932 L 310.58998,515.21932 C 324.14766,515.21932 334.12601,532.4882 328.98609,547.05628 C 327.02996,552.60054 323.86496,556.66937 319.80954,558.85335 C 315.92788,560.94377 315.93432,560.89796 317.92857,572.21932 C 318.75207,576.89432 319.41905,582.51932 319.41075,584.71932 C 319.36441,597.01017 305.73161,604.71756 293.69923,599.2555 z M 312.02148,558.95974 C 312.28597,558.69526 311.05978,551.44546 309.29662,542.84909 C 307.14576,532.36247 305.66429,527.21932 304.79452,527.21932 C 304.08152,527.21932 301.92145,528.6037 299.99435,530.29571 C 293.98437,535.57254 294.22282,543.34408 300.55828,548.67501 C 303.82667,551.42518 304.22742,552.44475 301.67857,551.52521 C 294.46223,548.9218 289.87739,541.52101 290.77671,533.92761 C 291.4966,527.84928 295.44836,520.90312 299.54361,518.51771 C 302.62034,516.72555 302.62878,516.69679 301.97751,510.21932 C 301.61806,506.64432 300.97503,503.36935 300.54855,502.9416 C 299.3675,501.75705 290.91313,509.68075 285.99859,516.57826 C 280.42033,524.40731 277.97078,531.70622 278.74049,538.20522 C 280.34544,551.75647 291.23431,560.63672 305.23458,559.81207 C 308.70289,559.60778 311.75699,559.22423 312.02148,558.95974 z M 322.81483,550.21198 C 325.80373,542.74199 324.28628,535.05759 318.88594,530.31604 C 315.5322,527.37142 310.89824,525.41632 309.82245,526.4921 C 309.54032,526.77424 310.68627,533.8635 312.36902,542.24601 C 314.05177,550.62852 315.42857,557.68237 315.42857,557.92122 C 315.42857,558.16008 316.72739,557.43067 318.31483,556.30031 C 319.90227,555.16995 321.92727,552.4302 322.81483,550.21198 z M 304.9704,479.46932 C 313.0887,470.61907 317.52382,457.06603 314.04109,451.75071 C 309.17103,444.31805 300.13099,454.89144 298.75469,469.62994 C 298.10127,476.62723 298.95997,483.21932 300.52487,483.21932 C 301.07798,483.21932 303.07847,481.53182 304.9704,479.46932 z "
       style="fill:#000000" />
  </g>
  <path
     transform="matrix(-0.3847804,-0.208802,-0.1961606,0.4095773,424.80932,69.429888)"
     d="M 179.80715,418.82535 L 136.01242,395.47879 L 87.954791,407.86853 L 96.625376,359.00278 L 69.991407,317.1259 L 119.14486,310.27177 L 150.74179,272.0007 L 172.4497,316.63036 L 218.61165,334.85441 L 182.87443,369.29119 L 179.80715,418.82535 z "
     inkscape:randomized="0"
     inkscape:rounded="0"
     inkscape:flatsided="false"
     sodipodi:arg2="1.6895226"
     sodipodi:arg1="1.0612041"
     sodipodi:r2="45.665279"
     sodipodi:r1="78.688225"
     sodipodi:cy="350.13498"
     sodipodi:cx="141.42136"
     sodipodi:sides="5"
     id="path2814"
     style="opacity:0.22790701;color:#000000;fill:#ffffff;fill-opacity:1;fill-rule:nonzero;stroke:#ffffff;stroke-width:1.70000005;stroke-linecap:round;stroke-linejoin:round;marker:none;marker-start:none;marker-mid:none;marker-end:none;stroke-miterlimit:4;stroke-dasharray:none;stroke-dashoffset:0;stroke-opacity:1;visibility:visible;display:block;overflow:visible"
     sodipodi:type="star" />
  <path
     transform="matrix(-0.3847804,-0.208802,-0.1961606,0.4095773,1029.3616,108.15982)"
     d="M 179.80715,418.82535 L 136.01242,395.47879 L 87.954791,407.86853 L 96.625376,359.00278 L 69.991407,317.1259 L 119.14486,310.27177 L 150.74179,272.0007 L 172.4497,316.63036 L 218.61165,334.85441 L 182.87443,369.29119 L 179.80715,418.82535 z "
     inkscape:randomized="0"
     inkscape:rounded="0"
     inkscape:flatsided="false"
     sodipodi:arg2="1.6895226"
     sodipodi:arg1="1.0612041"
     sodipodi:r2="45.665279"
     sodipodi:r1="78.688225"
     sodipodi:cy="350.13498"
     sodipodi:cx="141.42136"
     sodipodi:sides="5"
     id="path2818"
     style="opacity:0.22790701;color:#000000;fill:#ffffff;fill-opacity:1;fill-rule:nonzero;stroke:#ffffff;stroke-width:1.70000005;stroke-linecap:round;stroke-linejoin:round;marker:none;marker-start:none;marker-mid:none;marker-end:none;stroke-miterlimit:4;stroke-dasharray:none;stroke-dashoffset:0;stroke-opacity:1;visibility:visible;display:block;overflow:visible"
     sodipodi:type="star" />
  <path
     sodipodi:type="star"
     style="opacity:0.22790701;color:#000000;fill:#ffffff;fill-opacity:1;fill-rule:nonzero;stroke:#ffffff;stroke-width:1.70000005;stroke-linecap:round;stroke-linejoin:round;marker:none;marker-start:none;marker-mid:none;marker-end:none;stroke-miterlimit:4;stroke-dasharray:none;stroke-dashoffset:0;stroke-opacity:1;visibility:visible;display:block;overflow:visible"
     id="path2820"
     sodipodi:sides="5"
     sodipodi:cx="141.42136"
     sodipodi:cy="350.13498"
     sodipodi:r1="78.688225"
     sodipodi:r2="45.665279"
     sodipodi:arg1="1.0612041"
     sodipodi:arg2="1.6895226"
     inkscape:flatsided="false"
     inkscape:rounded="0"
     inkscape:randomized="0"
     d="M 179.80715,418.82535 L 136.01242,395.47879 L 87.954791,407.86853 L 96.625376,359.00278 L 69.991407,317.1259 L 119.14486,310.27177 L 150.74179,272.0007 L 172.4497,316.63036 L 218.61165,334.85441 L 182.87443,369.29119 L 179.80715,418.82535 z "
     transform="matrix(-0.2724489,7.237894e-2,6.799692e-2,0.2900067,367.45746,130.96446)" />
  <path
     transform="matrix(-0.2724489,7.237894e-2,6.799692e-2,0.2900067,707.51818,110.10989)"
     d="M 179.80715,418.82535 L 136.01242,395.47879 L 87.954791,407.86853 L 96.625376,359.00278 L 69.991407,317.1259 L 119.14486,310.27177 L 150.74179,272.0007 L 172.4497,316.63036 L 218.61165,334.85441 L 182.87443,369.29119 L 179.80715,418.82535 z "
     inkscape:randomized="0"
     inkscape:rounded="0"
     inkscape:flatsided="false"
     sodipodi:arg2="1.6895226"
     sodipodi:arg1="1.0612041"
     sodipodi:r2="45.665279"
     sodipodi:r1="78.688225"
     sodipodi:cy="350.13498"
     sodipodi:cx="141.42136"
     sodipodi:sides="5"
     id="path2822"
     style="opacity:0.22790701;color:#000000;fill:#ffffff;fill-opacity:1;fill-rule:nonzero;stroke:#ffffff;stroke-width:1.70000005;stroke-linecap:round;stroke-linejoin:round;marker:none;marker-start:none;marker-mid:none;marker-end:none;stroke-miterlimit:4;stroke-dasharray:none;stroke-dashoffset:0;stroke-opacity:1;visibility:visible;display:block;overflow:visible"
     sodipodi:type="star" />
  <path
     sodipodi:type="star"
     style="opacity:0.22790701;color:#000000;fill:#ffffff;fill-opacity:1;fill-rule:nonzero;stroke:#ffffff;stroke-width:1.70000005;stroke-linecap:round;stroke-linejoin:round;marker:none;marker-start:none;marker-mid:none;marker-end:none;stroke-miterlimit:4;stroke-dasharray:none;stroke-dashoffset:0;stroke-opacity:1;visibility:visible;display:block;overflow:visible"
     id="path2824"
     sodipodi:sides="5"
     sodipodi:cx="141.42136"
     sodipodi:cy="350.13498"
     sodipodi:r1="78.688225"
     sodipodi:r2="45.665279"
     sodipodi:arg1="1.0612041"
     sodipodi:arg2="1.6895226"
     inkscape:flatsided="false"
     inkscape:rounded="0"
     inkscape:randomized="0"
     d="M 179.80715,418.82535 L 136.01242,395.47879 L 87.954791,407.86853 L 96.625376,359.00278 L 69.991407,317.1259 L 119.14486,310.27177 L 150.74179,272.0007 L 172.4497,316.63036 L 218.61165,334.85441 L 182.87443,369.29119 L 179.80715,418.82535 z "
     transform="matrix(-0.2724489,7.237894e-2,6.799692e-2,0.2900067,987.40347,203.95542)" />
  <path
     transform="matrix(-0.2045368,1.3225646e-2,1.2424929e-2,0.217718,311.0396,203.75741)"
     d="M 179.80715,418.82535 L 136.01242,395.47879 L 87.954791,407.86853 L 96.625376,359.00278 L 69.991407,317.1259 L 119.14486,310.27177 L 150.74179,272.0007 L 172.4497,316.63036 L 218.61165,334.85441 L 182.87443,369.29119 L 179.80715,418.82535 z "
     inkscape:randomized="0"
     inkscape:rounded="0"
     inkscape:flatsided="false"
     sodipodi:arg2="1.6895226"
     sodipodi:arg1="1.0612041"
     sodipodi:r2="45.665279"
     sodipodi:r1="78.688225"
     sodipodi:cy="350.13498"
     sodipodi:cx="141.42136"
     sodipodi:sides="5"
     id="path2826"
     style="opacity:0.22790701;color:#000000;fill:#ffffff;fill-opacity:1;fill-rule:nonzero;stroke:#ffffff;stroke-width:1.70000005;stroke-linecap:round;stroke-linejoin:round;marker:none;marker-start:none;marker-mid:none;marker-end:none;stroke-miterlimit:4;stroke-dasharray:none;stroke-dashoffset:0;stroke-opacity:1;visibility:visible;display:block;overflow:visible"
     sodipodi:type="star" />
  <path
     sodipodi:type="star"
     style="opacity:0.22790701;color:#000000;fill:#ffffff;fill-opacity:1;fill-rule:nonzero;stroke:#ffffff;stroke-width:1.70000005;stroke-linecap:round;stroke-linejoin:round;marker:none;marker-start:none;marker-mid:none;marker-end:none;stroke-miterlimit:4;stroke-dasharray:none;stroke-dashoffset:0;stroke-opacity:1;visibility:visible;display:block;overflow:visible"
     id="path2828"
     sodipodi:sides="5"
     sodipodi:cx="141.42136"
     sodipodi:cy="350.13498"
     sodipodi:r1="78.688225"
     sodipodi:r2="45.665279"
     sodipodi:arg1="1.0612041"
     sodipodi:arg2="1.6895226"
     inkscape:flatsided="false"
     inkscape:rounded="0"
     inkscape:randomized="0"
     d="M 179.80715,418.82535 L 136.01242,395.47879 L 87.954791,407.86853 L 96.625376,359.00278 L 69.991407,317.1259 L 119.14486,310.27177 L 150.74179,272.0007 L 172.4497,316.63036 L 218.61165,334.85441 L 182.87443,369.29119 L 179.80715,418.82535 z "
     transform="matrix(-0.2045368,1.3225646e-2,1.2424929e-2,0.217718,652.49975,108.42224)" />
  <path
     transform="matrix(-0.2045368,1.3225646e-2,1.2424929e-2,0.217718,697.28136,202.26779)"
     d="M 179.80715,418.82535 L 136.01242,395.47879 L 87.954791,407.86853 L 96.625376,359.00278 L 69.991407,317.1259 L 119.14486,310.27177 L 150.74179,272.0007 L 172.4497,316.63036 L 218.61165,334.85441 L 182.87443,369.29119 L 179.80715,418.82535 z "
     inkscape:randomized="0"
     inkscape:rounded="0"
     inkscape:flatsided="false"
     sodipodi:arg2="1.6895226"
     sodipodi:arg1="1.0612041"
     sodipodi:r2="45.665279"
     sodipodi:r1="78.688225"
     sodipodi:cy="350.13498"
     sodipodi:cx="141.42136"
     sodipodi:sides="5"
     id="path2830"
     style="opacity:0.22790701;color:#000000;fill:#ffffff;fill-opacity:1;fill-rule:nonzero;stroke:#ffffff;stroke-width:1.70000005;stroke-linecap:round;stroke-linejoin:round;marker:none;marker-start:none;marker-mid:none;marker-end:none;stroke-miterlimit:4;stroke-dasharray:none;stroke-dashoffset:0;stroke-opacity:1;visibility:visible;display:block;overflow:visible"
     sodipodi:type="star" />
  <path
     sodipodi:type="star"
     style="opacity:0.22790701;color:#000000;fill:#ffffff;fill-opacity:1;fill-rule:nonzero;stroke:#ffffff;stroke-width:1.70000005;stroke-linecap:round;stroke-linejoin:round;marker:none;marker-start:none;marker-mid:none;marker-end:none;stroke-miterlimit:4;stroke-dasharray:none;stroke-dashoffset:0;stroke-opacity:1;visibility:visible;display:block;overflow:visible"
     id="path2832"
     sodipodi:sides="5"
     sodipodi:cx="141.42136"
     sodipodi:cy="350.13498"
     sodipodi:r1="78.688225"
     sodipodi:r2="45.665279"
     sodipodi:arg1="1.0612041"
     sodipodi:arg2="1.6895226"
     inkscape:flatsided="false"
     inkscape:rounded="0"
     inkscape:randomized="0"
     d="M 179.80715,418.82535 L 136.01242,395.47879 L 87.954791,407.86853 L 96.625376,359.00278 L 69.991407,317.1259 L 119.14486,310.27177 L 150.74179,272.0007 L 172.4497,316.63036 L 218.61165,334.85441 L 182.87443,369.29119 L 179.80715,418.82535 z "
     transform="matrix(-0.2045368,1.3225646e-2,1.2424929e-2,0.217718,498.5628,238.01847)" />
  <path
     sodipodi:type="star"
     style="opacity:0.22790701;color:#000000;fill:#ffffff;fill-opacity:1;fill-rule:nonzero;stroke:#ffffff;stroke-width:1.70000005;stroke-linecap:round;stroke-linejoin:round;marker:none;marker-start:none;marker-mid:none;marker-end:none;stroke-miterlimit:4;stroke-dasharray:none;stroke-dashoffset:0;stroke-opacity:1;visibility:visible;display:block;overflow:visible"
     id="path2834"
     sodipodi:sides="5"
     sodipodi:cx="141.42136"
     sodipodi:cy="350.13498"
     sodipodi:r1="78.688225"
     sodipodi:r2="45.665279"
     sodipodi:arg1="1.0612041"
     sodipodi:arg2="1.6895226"
     inkscape:flatsided="false"
     inkscape:rounded="0"
     inkscape:randomized="0"
     d="M 179.80715,418.82535 L 136.01242,395.47879 L 87.954791,407.86853 L 96.625376,359.00278 L 69.991407,317.1259 L 119.14486,310.27177 L 150.74179,272.0007 L 172.4497,316.63036 L 218.61165,334.85441 L 182.87443,369.29119 L 179.80715,418.82535 z "
     transform="matrix(-0.2045368,1.3225646e-2,1.2424929e-2,0.217718,904.39656,200.77816)" />
  <g
     id="g2836"
     transform="matrix(1.2468256,0,0,1.1986102,1.2039301,52.246604)">
    <path
       sodipodi:nodetypes="cc"
       id="path2327"
       d="M 0,165 L 800,165"
       style="fill:none;fill-opacity:1;fill-rule:evenodd;stroke:#141414;stroke-width:4;stroke-linecap:square;stroke-linejoin:miter;stroke-miterlimit:4;stroke-dasharray:none;stroke-opacity:0.61153846" />
    <path
       sodipodi:nodetypes="cc"
       id="path3298"
       d="M 0,140 L 800,140"
       style="fill:none;fill-opacity:1;fill-rule:evenodd;stroke:#141414;stroke-width:4;stroke-linecap:square;stroke-linejoin:miter;stroke-miterlimit:4;stroke-dasharray:none;stroke-opacity:0.61153846" />
    <path
       sodipodi:nodetypes="cc"
       id="path3302"
       d="M 0,190 L 800,190"
       style="fill:none;fill-opacity:1;fill-rule:evenodd;stroke:#141414;stroke-width:4;stroke-linecap:square;stroke-linejoin:miter;stroke-miterlimit:4;stroke-dasharray:none;stroke-opacity:0.61153846" />
    <path
       sodipodi:nodetypes="cc"
       id="path3306"
       d="M 0,240 L 800,240"
       style="fill:none;fill-opacity:1;fill-rule:evenodd;stroke:#141414;stroke-width:4;stroke-linecap:square;stroke-linejoin:miter;stroke-miterlimit:4;stroke-dasharray:none;stroke-opacity:0.61153846" />
    <path
       sodipodi:nodetypes="cc"
       id="path3304"
       d="M 0,215 L 800,215"
       style="fill:none;fill-opacity:1;fill-rule:evenodd;stroke:#141414;stroke-width:4;stroke-linecap:square;stroke-linejoin:miter;stroke-miterlimit:4;stroke-dasharray:none;stroke-opacity:0.61153846" />
  </g>
  <path
     sodipodi:type="star"
     style="opacity:0.22790701;color:#000000;fill:#ffffff;fill-opacity:1;fill-rule:nonzero;stroke:#ffffff;stroke-width:1.70000005;stroke-linecap:round;stroke-linejoin:round;marker:none;marker-start:none;marker-mid:none;marker-end:none;stroke-miterlimit:4;stroke-dasharray:none;stroke-dashoffset:0;stroke-opacity:1;visibility:visible;display:block;overflow:visible"
     id="path2197"
     sodipodi:sides="5"
     sodipodi:cx="141.42136"
     sodipodi:cy="350.13498"
     sodipodi:r1="78.688225"
     sodipodi:r2="45.665279"
     sodipodi:arg1="1.0612041"
     sodipodi:arg2="1.6895226"
     inkscape:flatsided="false"
     inkscape:rounded="0"
     inkscape:randomized="0"
     d="M 179.80715,418.82535 L 136.01242,395.47879 L 87.954791,407.86853 L 96.625376,359.00278 L 69.991407,317.1259 L 119.14486,310.27177 L 150.74179,272.0007 L 172.4497,316.63036 L 218.61165,334.85441 L 182.87443,369.29119 L 179.80715,418.82535 z "
     transform="matrix(-1.1494086,-0.505856,-0.4752301,1.2234816,978.31683,99.47516)" />
  <g
     id="g2209"
     transform="matrix(1.2468256,0,0,1.1986102,0.760128,231.91957)">
    <path
       sodipodi:nodetypes="cc"
       id="path2211"
       d="M 0,165 L 800,165"
       style="fill:none;fill-opacity:1;fill-rule:evenodd;stroke:#141414;stroke-width:4;stroke-linecap:square;stroke-linejoin:miter;stroke-miterlimit:4;stroke-dasharray:none;stroke-opacity:0.61153846" />
    <path
       sodipodi:nodetypes="cc"
       id="path2213"
       d="M 0,140 L 800,140"
       style="fill:none;fill-opacity:1;fill-rule:evenodd;stroke:#141414;stroke-width:4;stroke-linecap:square;stroke-linejoin:miter;stroke-miterlimit:4;stroke-dasharray:none;stroke-opacity:0.61153846" />
    <path
       sodipodi:nodetypes="cc"
       id="path2215"
       d="M 0,190 L 800,190"
       style="fill:none;fill-opacity:1;fill-rule:evenodd;stroke:#141414;stroke-width:4;stroke-linecap:square;stroke-linejoin:miter;stroke-miterlimit:4;stroke-dasharray:none;stroke-opacity:0.61153846" />
    <path
       sodipodi:nodetypes="cc"
       id="path2217"
       d="M 0,240 L 800,240"
       style="fill:none;fill-opacity:1;fill-rule:evenodd;stroke:#141414;stroke-width:4;stroke-linecap:square;stroke-linejoin:miter;stroke-miterlimit:4;stroke-dasharray:none;stroke-opacity:0.61153846" />
    <path
       sodipodi:nodetypes="cc"
       id="path2219"
       d="M 0,215 L 800,215"
       style="fill:none;fill-opacity:1;fill-rule:evenodd;stroke:#141414;stroke-width:4;stroke-linecap:square;stroke-linejoin:miter;stroke-miterlimit:4;stroke-dasharray:none;stroke-opacity:0.61153846" />
  </g>
  <g
     id="g2411"
     transform="matrix(5.0734563,0,0,5.3232265,22.200477,397.25206)">
    <g
       id="g2883"
       style="fill:#000000;fill-opacity:1"
       transform="translate(-230.9546,-533.6597)">
      <path
         id="path2885"
         style="fill:#000000;fill-opacity:1"
         d="M 248.25999,536.802 C 248.26766,537.17138 248.11044,537.54065 247.82878,537.78185 C 247.46853,538.11076 246.91933,538.17813 246.47048,538.01071 C 246.02563,537.83894 245.69678,537.39883 245.67145,536.9206 C 245.63767,536.54689 245.75685,536.15479 246.02747,535.88867 C 246.28257,535.6168 246.66244,535.48397 247.03147,535.50645 C 247.41131,535.51452 247.77805,535.70601 248.00489,536.01019 C 248.17962,536.23452 248.26238,536.51954 248.25999,536.802 z " />
    </g>
    <g
       id="g2887"
       style="fill:#000000;fill-opacity:1"
       transform="translate(-230.9546,-533.6597)">
      <path
         id="path2889"
         style="fill:#000000;fill-opacity:1"
         d="M 248.25999,542.64502 C 248.26772,543.01469 248.11076,543.38446 247.82878,543.62585 C 247.46853,543.95476 246.91933,544.02213 246.47048,543.85472 C 246.02537,543.68288 245.69655,543.24237 245.67145,542.76389 C 245.63651,542.3899 245.76354,542.00308 246.027,541.733 C 246.27663,541.45454 246.6606,541.3279 247.02845,541.3495 C 247.5123,541.36282 247.95159,541.69251 248.15162,542.12465 C 248.22565,542.2874 248.26043,542.46657 248.25999,542.64502 z " />
    </g>
    <g
       id="g2891"
       style="fill:#000000;fill-opacity:1"
       transform="translate(-230.9546,-533.6597)">
      <path
         id="path2893"
         style="fill:#000000;fill-opacity:1"
         d="M 243.979,540.86798 C 244.02398,543.69258 242.7636,546.43815 240.76469,548.40449 C 238.27527,550.89277 235.01791,552.47534 231.69762,553.53261 C 231.2559,553.77182 230.5897,553.45643 231.2855,553.13144 C 232.62346,552.52289 234.01319,552.0005 235.24564,551.1808 C 237.96799,549.4975 240.26523,546.84674 240.82279,543.61854 C 241.14771,541.65352 241.05724,539.60795 240.56484,537.67852 C 240.20352,536.25993 239.22033,534.7955 237.66352,534.58587 C 236.25068,534.36961 234.74885,534.85905 233.74057,535.88093 C 233.47541,536.14967 232.95916,536.89403 233.04435,537.74747 C 233.64637,537.27468 233.60528,537.32732 234.099,537.10717 C 235.23573,536.60031 236.74349,537.32105 237.027,538.57272 C 237.32909,539.72295 237.09551,541.18638 235.96036,541.7996 C 234.77512,542.44413 233.02612,542.17738 232.3645,540.90866 C 231.26916,538.95418 231.87147,536.28193 233.64202,534.92571 C 235.44514,533.42924 238.07609,533.37089 240.19963,534.13862 C 242.38419,534.95111 243.68629,537.21483 243.89691,539.45694 C 243.95419,539.92492 243.97896,540.39668 243.979,540.86798 z " />
    </g>
  </g>
  <g
     id="g2498"
     inkscape:label="Calque 1"
     transform="matrix(1.0085196,0,0,1.1028963,6.1207766,162.75646)">
    <rect
       y="589.9505"
       x="-0.054108903"
       height="8.0363207"
       width="800.10822"
       id="rect2159"
       style="fill:url(#linearGradient3138);fill-opacity:1;stroke:#000000;stroke-width:0.89651597;stroke-miterlimit:4;stroke-dasharray:none;stroke-dashoffset:0;stroke-opacity:1" />
    <text
       xml:space="preserve"
       style="font-size:7.58543634px;font-style:normal;font-variant:normal;font-weight:normal;font-stretch:normal;text-align:start;line-height:100%;writing-mode:lr-tb;text-anchor:start;fill:#000000;fill-opacity:1;stroke:none;stroke-width:1px;stroke-linecap:butt;stroke-linejoin:miter;stroke-opacity:1;font-family:Verdana"
       x="375.28482"
       y="623.34161"
       id="text3196"
       transform="scale(1.0457435,0.9562575)"
       sodipodi:linespacing="100%"><tspan
         sodipodi:role="line"
         id="tspan3198"
         x="375.28482"
         y="623.34161">-20</tspan></text>
    <text
       xml:space="preserve"
       style="font-size:7.58543777px;font-style:normal;font-variant:normal;font-weight:normal;font-stretch:normal;text-align:start;line-height:100%;writing-mode:lr-tb;text-anchor:start;fill:#000000;fill-opacity:1;stroke:none;stroke-width:1px;stroke-linecap:butt;stroke-linejoin:miter;stroke-opacity:1;font-family:Verdana"
       x="565.71143"
       y="623.45697"
       id="text3200"
       transform="scale(1.0457435,0.9562575)"
       sodipodi:linespacing="100%"><tspan
         sodipodi:role="line"
         id="tspan3202"
         x="565.71143"
         y="623.45697">-10</tspan></text>
    <text
       xml:space="preserve"
       style="font-size:7.5854373px;font-style:normal;font-variant:normal;font-weight:normal;font-stretch:normal;text-align:start;line-height:100%;writing-mode:lr-tb;text-anchor:start;fill:#000000;fill-opacity:1;stroke:none;stroke-width:1px;stroke-linecap:butt;stroke-linejoin:miter;stroke-opacity:1;font-family:Verdana"
       x="4.4299479"
       y="623.45697"
       id="text3204"
       transform="scale(1.0457435,0.9562575)"
       sodipodi:linespacing="100%"><tspan
         sodipodi:role="line"
         id="tspan3206"
         x="4.4299479"
         y="623.45697">Peak dB meter</tspan></text>
    <text
       xml:space="preserve"
       style="font-size:7.5854373px;font-style:normal;font-variant:normal;font-weight:normal;font-stretch:normal;text-align:start;line-height:100%;writing-mode:lr-tb;text-anchor:start;fill:#000000;fill-opacity:1;stroke:none;stroke-width:1px;stroke-linecap:butt;stroke-linejoin:miter;stroke-opacity:1;font-family:Verdana"
       x="186.69392"
       y="623.45697"
       id="text3208"
       transform="scale(1.0457435,0.9562575)"
       sodipodi:linespacing="100%"><tspan
         sodipodi:role="line"
         id="tspan3210"
         x="186.69392"
         y="623.45697">-30</tspan></text>
    <text
       xml:space="preserve"
       style="font-size:7.58543777px;font-style:normal;font-variant:normal;font-weight:normal;font-stretch:normal;text-align:start;line-height:100%;writing-mode:lr-tb;text-anchor:start;fill:#000000;fill-opacity:1;stroke:none;stroke-width:1px;stroke-linecap:butt;stroke-linejoin:miter;stroke-opacity:1;font-family:Verdana"
       x="721.66534"
       y="623.45697"
       id="text3212"
       transform="scale(1.0457435,0.9562575)"
       sodipodi:linespacing="100%"><tspan
         sodipodi:role="line"
         id="tspan3214"
         x="721.66534"
         y="623.45697">Clipping→</tspan></text>
  </g>
  <g
     id="g3252"
     transform="matrix(0.6542376,0,0,0.6542376,-30.216058,567.51053)">
    <path
       id="text2444"
       d="M 88.734136,110.05561 L 88.734136,146.21134 L 99.480182,146.21134 C 103.45703,146.21139 106.53136,144.64314 108.70317,141.50659 C 110.8749,138.37014 111.96079,133.9017 111.96083,128.10125 C 111.96079,122.34391 110.8749,117.89695 108.70317,114.76037 C 106.53136,111.62395 103.45703,110.0557 99.480182,110.05561 L 88.734136,110.05561 M 80.188067,99.357128 L 99.480182,99.357128 C 106.55957,99.357224 111.90438,101.80627 115.51464,106.70428 C 119.15302,111.5595 120.97223,118.69182 120.97228,128.10125 C 120.97223,137.59675 119.15302,144.77203 115.51464,149.62713 C 111.90438,154.4823 106.55957,156.90987 99.480182,156.90983 L 88.734136,156.90983 L 88.734136,195.57906 L 80.188067,195.57906 L 80.188067,99.357128 M 169.62565,156.52313 L 169.62565,162.32352 L 133.8337,162.32352 C 134.17214,170.48705 135.77981,176.71709 138.65672,181.01365 C 141.5618,185.26727 145.59509,187.39408 150.7566,187.39406 C 153.74628,187.39408 156.63728,186.83552 159.42959,185.7184 C 162.25003,184.6013 165.04232,182.92563 167.80643,180.6914 L 167.80643,191.90548 C 165.01411,193.71004 162.15132,195.08495 159.21805,196.0302 C 156.28472,196.97544 153.30911,197.44807 150.29122,197.44807 C 142.7323,197.44807 136.73878,194.09674 132.31063,187.39406 C 127.91067,180.69141 125.71069,171.62564 125.7107,160.19671 C 125.71069,148.38116 127.79784,139.01462 131.97217,132.09708 C 136.17468,125.13668 141.82975,121.65646 148.93739,121.65638 C 155.31165,121.65646 160.34621,124.79296 164.04109,131.0659 C 167.76408,137.29599 169.6256,145.78174 169.62565,156.52313 M 161.84111,153.04291 C 161.78465,146.55511 160.58596,141.37774 158.24499,137.51076 C 155.93215,133.6439 152.85783,131.71044 149.02201,131.71038 C 144.67843,131.71044 141.19514,133.57945 138.57211,137.31742 C 135.97724,141.0555 134.48239,146.31881 134.08754,153.10735 L 161.84111,153.04291 M 209.85987,134.48168 C 208.98548,133.70836 208.02652,133.1498 206.98298,132.80602 C 205.96757,132.41938 204.83938,132.22603 203.59839,132.22597 C 199.19841,132.22603 195.81383,134.41729 193.44465,138.79974 C 191.10363,143.13934 189.93313,149.39085 189.93314,157.55431 L 189.93314,195.57906 L 182.1063,195.57906 L 182.1063,123.3965 L 189.93314,123.3965 L 189.93314,134.61057 C 191.56901,130.22813 193.69847,126.98422 196.32154,124.87881 C 198.94457,122.7306 202.13171,121.65646 205.88299,121.65638 C 206.41885,121.65646 207.01115,121.72091 207.65989,121.84973 C 208.30857,121.93573 209.02779,122.08611 209.81756,122.30087 L 209.85987,134.48168 M 242.09801,95.296859 L 242.09801,105.15751 L 234.65193,105.15751 C 231.85963,105.1576 229.91349,106.01692 228.81353,107.73546 C 227.74173,109.45418 227.20584,112.54771 227.20585,117.01608 L 227.20585,123.3965 L 240.02496,123.3965 L 240.02496,132.61266 L 227.20585,132.61266 L 227.20585,195.57906 L 219.379,195.57906 L 219.379,132.61266 L 211.93292,132.61266 L 211.93292,123.3965 L 219.379,123.3965 L 219.379,118.3695 C 219.379,110.33498 220.6059,104.49163 223.05974,100.83945 C 225.51355,97.144487 229.40581,95.296959 234.73654,95.296859 L 242.09801,95.296859 M 266.93237,131.71038 C 262.75803,131.71044 259.45807,134.20246 257.03247,139.18643 C 254.60684,144.12755 253.39403,150.91614 253.39404,159.55223 C 253.39403,168.18838 254.59274,174.99846 256.99017,179.98247 C 259.41576,184.92355 262.72983,187.39408 266.93237,187.39406 C 271.07845,187.39408 274.36431,184.90206 276.78997,179.91801 C 279.21554,174.934 280.42835,168.14541 280.42839,159.55223 C 280.42835,151.00207 279.21554,144.23497 276.78997,139.25088 C 274.36431,134.22395 271.07845,131.71044 266.93237,131.71038 M 266.93237,121.65638 C 273.7015,121.65646 279.01811,125.00779 282.88221,131.71038 C 286.74623,138.41311 288.67827,147.69371 288.67831,159.55223 C 288.67827,171.36784 286.74623,180.64845 282.88221,187.39406 C 279.01811,194.09674 273.7015,197.44807 266.93237,197.44807 C 260.13498,197.44807 254.80427,194.09674 250.94022,187.39406 C 247.10436,180.64845 245.18643,171.36784 245.18643,159.55223 C 245.18643,147.69371 247.10436,138.41311 250.94022,131.71038 C 254.80427,125.00779 260.13498,121.65646 266.93237,121.65638 M 328.99715,134.48168 C 328.12276,133.70836 327.1638,133.1498 326.12025,132.80602 C 325.10484,132.41938 323.97665,132.22603 322.73567,132.22597 C 318.33569,132.22603 314.95111,134.41729 312.58192,138.79974 C 310.2409,143.13934 309.0704,149.39085 309.07042,157.55431 L 309.07042,195.57906 L 301.24358,195.57906 L 301.24358,123.3965 L 309.07042,123.3965 L 309.07042,134.61057 C 310.70628,130.22813 312.83575,126.98422 315.45882,124.87881 C 318.08184,122.7306 321.26899,121.65646 325.02027,121.65638 C 325.55613,121.65646 326.14843,121.72091 326.79716,121.84973 C 327.44585,121.93573 328.16507,122.08611 328.95484,122.30087 L 328.99715,134.48168 M 372.61596,137.25297 C 374.56205,131.92527 376.88895,127.99391 379.59666,125.45886 C 382.30427,122.92395 385.49141,121.65646 389.15811,121.65638 C 394.09389,121.65646 397.90154,124.29886 400.58107,129.58358 C 403.26045,134.82547 404.60019,142.3015 404.60026,152.01173 L 404.60026,195.57906 L 396.77342,195.57906 L 396.77342,152.39841 C 396.77334,145.48097 395.96951,140.34657 394.3619,136.99517 C 392.75416,133.6439 390.30034,131.96824 387.00043,131.96818 C 382.96708,131.96824 379.77994,134.00912 377.43899,138.09081 C 375.09794,142.17261 373.92744,147.73668 373.92749,154.78303 L 373.92749,195.57906 L 366.10064,195.57906 L 366.10064,152.39841 C 366.1006,145.438 365.29677,140.3036 363.68912,136.99517 C 362.08141,133.6439 359.59939,131.96824 356.24304,131.96818 C 352.26613,131.96824 349.10719,134.03059 346.76621,138.15525 C 344.42519,142.23705 343.25469,147.77964 343.25471,154.78303 L 343.25471,195.57906 L 335.42787,195.57906 L 335.42787,123.3965 L 343.25471,123.3965 L 343.25471,134.61057 C 345.0316,130.18516 347.16106,126.91976 349.64311,124.81437 C 352.12512,122.70912 355.07252,121.65646 358.48533,121.65638 C 361.92629,121.65646 364.84549,122.98839 367.24294,125.6522 C 369.66851,128.31615 371.45952,132.18307 372.61596,137.25297 M 438.53068,131.71038 C 434.35634,131.71044 431.05637,134.20246 428.63077,139.18643 C 426.20514,144.12755 424.99234,150.91614 424.99235,159.55223 C 424.99234,168.18838 426.19104,174.99846 428.58847,179.98247 C 431.01407,184.92355 434.32813,187.39408 438.53068,187.39406 C 442.67676,187.39408 445.96262,184.90206 448.38827,179.91801 C 450.81385,174.934 452.02666,168.14541 452.0267,159.55223 C 452.02666,151.00207 450.81385,144.23497 448.38827,139.25088 C 445.96262,134.22395 442.67676,131.71044 438.53068,131.71038 M 438.53068,121.65638 C 445.29981,121.65646 450.61641,125.00779 454.48052,131.71038 C 458.34454,138.41311 460.27657,147.69371 460.27662,159.55223 C 460.27657,171.36784 458.34454,180.64845 454.48052,187.39406 C 450.61641,194.09674 445.29981,197.44807 438.53068,197.44807 C 431.73329,197.44807 426.40257,194.09674 422.53853,187.39406 C 418.70266,180.64845 416.78473,171.36784 416.78474,159.55223 C 416.78473,147.69371 418.70266,138.41311 422.53853,131.71038 C 426.40257,125.00779 431.73329,121.65646 438.53068,121.65638 M 472.33419,167.09273 L 472.33419,123.3965 L 480.11872,123.3965 L 480.11872,166.64158 C 480.11872,173.47317 480.99306,178.60758 482.74178,182.04483 C 484.49046,185.43914 487.11351,187.13628 490.61093,187.13628 C 494.81343,187.13628 498.12749,185.09542 500.55315,181.01365 C 503.00692,176.93192 504.23383,171.36784 504.23387,164.32143 L 504.23387,123.3965 L 512.01841,123.3965 L 512.01841,195.57906 L 504.23387,195.57906 L 504.23387,184.49387 C 502.34411,188.8764 500.14413,192.14179 497.63394,194.29008 C 495.15189,196.3954 492.26089,197.44807 488.96095,197.44807 C 483.51739,197.44807 479.38539,194.87013 476.56492,189.71423 C 473.74442,184.55834 472.33418,177.01785 472.33419,167.09273 M 491.92246,121.65638 L 491.92246,121.65638 M 558.34491,125.52331 L 558.34491,136.73738 C 556.14489,135.01881 553.86031,133.72983 551.49113,132.87045 C 549.12189,132.0112 546.66807,131.58155 544.12966,131.58149 C 540.26558,131.58155 537.36048,132.48383 535.41436,134.28833 C 533.49642,136.09296 532.53746,138.79979 532.53748,142.40887 C 532.53746,145.15873 533.22848,147.3285 534.61053,148.91819 C 535.99255,150.465 538.77073,151.94732 542.94506,153.36514 L 545.61042,154.26744 C 551.13854,156.07203 555.05901,158.6285 557.37184,161.93683 C 559.71281,165.20226 560.88331,169.77812 560.88335,175.6644 C 560.88331,182.36708 559.1346,187.67336 555.63725,191.58323 C 552.16802,195.49312 547.3873,197.44807 541.29508,197.44807 C 538.75662,197.44807 536.10537,197.06137 533.34131,196.288 C 530.60543,195.55757 527.71444,194.44046 524.66832,192.93667 L 524.66832,180.6914 C 527.54521,182.96861 530.37979,184.68724 533.17209,185.8473 C 535.96435,186.96443 538.72842,187.52298 541.46431,187.52297 C 545.13091,187.52298 547.9514,186.57773 549.92576,184.68723 C 551.90007,182.75378 552.88724,180.04693 552.88727,176.56668 C 552.88724,173.34427 552.16802,170.87374 550.7296,169.15508 C 549.31933,167.43648 546.2027,165.7823 541.37969,164.19254 L 538.67203,163.22581 C 533.84899,161.67907 530.36569,159.31595 528.22213,156.13644 C 526.07855,152.91405 525.00677,148.51006 525.00678,142.92446 C 525.00677,136.13592 526.58624,130.89409 529.74519,127.19897 C 532.90412,123.50398 537.38869,121.65646 543.1989,121.65638 C 546.07578,121.65646 548.78344,121.9787 551.3219,122.62311 C 553.86031,123.26767 556.2013,124.2344 558.34491,125.52331"
       style="font-size:106.94109344px;font-style:normal;font-variant:normal;font-weight:normal;font-stretch:normal;fill:#ffffff;fill-opacity:1;stroke:none;stroke-width:1px;stroke-linecap:butt;stroke-linejoin:miter;stroke-opacity:1;font-family:Lohit Gujarati;-inkscape-font-specification:Lohit Gujarati" />
    <path
       id="text3222"
       d="M 78.25294,-281.22284 L 78.25294,-260.29195 L 87.729673,-260.29195 C 91.236782,-260.29192 93.94797,-261.19979 95.863246,-263.01557 C 97.778457,-264.83129 98.736079,-267.41812 98.736114,-270.77605 C 98.736079,-274.10903 97.778457,-276.68342 95.863246,-278.49921 C 93.94797,-280.31492 91.236782,-281.22279 87.729673,-281.22284 L 78.25294,-281.22284 M 70.716326,-287.4163 L 87.729673,-287.4163 C 93.972844,-287.41624 98.686332,-285.99846 101.87015,-283.16296 C 105.07877,-280.35223 106.68309,-276.22326 106.68314,-270.77605 C 106.68309,-265.27901 105.07877,-261.12517 101.87015,-258.31452 C 98.686332,-255.50381 93.972844,-254.09847 87.729673,-254.09849 L 78.25294,-254.09849 L 78.25294,-231.71251 L 70.716326,-231.71251 L 70.716326,-287.4163 M 149.5896,-254.32235 L 149.5896,-250.96445 L 118.02537,-250.96445 C 118.32384,-246.23851 119.74161,-242.63188 122.27871,-240.14456 C 124.84064,-237.6821 128.39752,-236.45087 132.94936,-236.45088 C 135.5859,-236.45087 138.13541,-236.77422 140.5979,-237.42093 C 143.0852,-238.06763 145.54765,-239.03769 147.98528,-240.33111 L 147.98528,-233.83918 C 145.52278,-232.7945 142.99814,-231.99855 140.41135,-231.45134 C 137.8245,-230.90413 135.20036,-230.63052 132.53895,-230.63052 C 125.87288,-230.63052 120.58731,-232.57064 116.68221,-236.45088 C 112.80197,-240.3311 110.86185,-245.57937 110.86185,-252.19568 C 110.86185,-259.03582 112.70247,-264.45819 116.38373,-268.46283 C 120.08984,-272.49227 125.07694,-274.507 131.34503,-274.50705 C 136.96637,-274.507 141.40625,-272.69125 144.66469,-269.05979 C 147.94792,-265.45313 149.58956,-260.54065 149.5896,-254.32235 M 142.72457,-256.33709 C 142.67479,-260.09293 141.61767,-263.09016 139.55322,-265.32879 C 137.51358,-267.56736 134.80239,-268.68665 131.41965,-268.68669 C 127.58914,-268.68665 124.51729,-267.60467 122.20409,-265.44072 C 119.91573,-263.27671 118.59744,-260.22973 118.24923,-256.29978 L 142.72457,-256.33709 M 185.07139,-267.08236 C 184.30028,-267.53005 183.45459,-267.8534 182.53431,-268.05242 C 181.63884,-268.27624 180.64391,-268.38817 179.54951,-268.38821 C 175.66925,-268.38817 172.68446,-267.11964 170.59512,-264.58259 C 168.53062,-262.07036 167.49838,-258.45129 167.49839,-253.72539 L 167.49839,-231.71251 L 160.59605,-231.71251 L 160.59605,-273.49968 L 167.49839,-273.49968 L 167.49839,-267.00774 C 168.94103,-269.54478 170.81896,-271.42271 173.1322,-272.64155 C 175.44539,-273.88517 178.25607,-274.507 181.56425,-274.50705 C 182.03681,-274.507 182.55915,-274.46969 183.13127,-274.39512 C 183.70332,-274.34533 184.33759,-274.25827 185.03408,-274.13395 L 185.07139,-267.08236 M 213.50159,-289.76682 L 213.50159,-284.0584 L 206.93503,-284.0584 C 204.47255,-284.05835 202.7563,-283.56088 201.78625,-282.566 C 200.84105,-281.57102 200.36846,-279.78014 200.36848,-277.19336 L 200.36848,-273.49968 L 211.6734,-273.49968 L 211.6734,-268.16435 L 200.36848,-268.16435 L 200.36848,-231.71251 L 193.46613,-231.71251 L 193.46613,-268.16435 L 186.89958,-268.16435 L 186.89958,-273.49968 L 193.46613,-273.49968 L 193.46613,-276.40985 C 193.46612,-281.06111 194.54811,-284.44388 196.7121,-286.55817 C 198.87606,-288.69721 202.30858,-289.76677 207.00965,-289.76682 L 213.50159,-289.76682 M 235.40253,-268.68669 C 231.72126,-268.68665 228.81109,-267.244 226.672,-264.35873 C 224.53288,-261.49827 223.46333,-257.56829 223.46334,-252.56878 C 223.46333,-247.56923 224.52045,-243.62681 226.63469,-240.74152 C 228.77378,-237.88108 231.69639,-236.45087 235.40253,-236.45088 C 239.05888,-236.45087 241.95662,-237.89352 244.09576,-240.77883 C 246.23483,-243.66412 247.30438,-247.5941 247.30441,-252.56878 C 247.30438,-257.51855 246.23483,-261.43609 244.09576,-264.32142 C 241.95662,-267.23157 239.05888,-268.68665 235.40253,-268.68669 M 235.40253,-274.50705 C 241.3721,-274.507 246.06071,-272.56689 249.46839,-268.68669 C 252.876,-264.80642 254.57982,-259.43379 254.57986,-252.56878 C 254.57982,-245.72861 252.876,-240.35598 249.46839,-236.45088 C 246.06071,-232.57064 241.3721,-230.63052 235.40253,-230.63052 C 229.40805,-230.63052 224.707,-232.57064 221.29936,-236.45088 C 217.91659,-240.35598 216.2252,-245.72861 216.22521,-252.56878 C 216.2252,-259.43379 217.91659,-264.80642 221.29936,-268.68669 C 224.707,-272.56689 229.40805,-274.507 235.40253,-274.50705 M 290.13626,-267.08236 C 289.36516,-267.53005 288.51946,-267.8534 287.59918,-268.05242 C 286.70371,-268.27624 285.70878,-268.38817 284.61438,-268.38821 C 280.73412,-268.38817 277.74933,-267.11964 275.65999,-264.58259 C 273.59549,-262.07036 272.56325,-258.45129 272.56326,-253.72539 L 272.56326,-231.71251 L 265.66092,-231.71251 L 265.66092,-273.49968 L 272.56326,-273.49968 L 272.56326,-267.00774 C 274.0059,-269.54478 275.88383,-271.42271 278.19707,-272.64155 C 280.51026,-273.88517 283.32095,-274.507 286.62912,-274.50705 C 287.10169,-274.507 287.62403,-274.46969 288.19614,-274.39512 C 288.7682,-274.34533 289.40247,-274.25827 290.09895,-274.13395 L 290.13626,-267.08236 M 328.60284,-265.47803 C 330.31905,-268.56229 332.3711,-270.83819 334.75898,-272.30576 C 337.14677,-273.77324 339.95745,-274.507 343.19104,-274.50705 C 347.54381,-274.507 350.9017,-272.9773 353.26473,-269.91792 C 355.62763,-266.88334 356.80911,-262.55539 356.80917,-256.93405 L 356.80917,-231.71251 L 349.90683,-231.71251 L 349.90683,-256.71019 C 349.90677,-260.71476 349.19788,-263.68712 347.78016,-265.62727 C 346.36233,-267.56736 344.19835,-268.53741 341.28823,-268.53745 C 337.73129,-268.53741 334.92061,-267.35593 332.85617,-264.993 C 330.79165,-262.63001 329.7594,-259.40892 329.75945,-255.32972 L 329.75945,-231.71251 L 322.8571,-231.71251 L 322.8571,-256.71019 C 322.85707,-260.73964 322.14818,-263.712 320.73043,-265.62727 C 319.31262,-267.56736 317.12377,-268.53741 314.16388,-268.53745 C 310.65672,-268.53741 307.87091,-267.3435 305.80644,-264.95569 C 303.74194,-262.5927 302.7097,-259.38404 302.70972,-255.32972 L 302.70972,-231.71251 L 295.80737,-231.71251 L 295.80737,-273.49968 L 302.70972,-273.49968 L 302.70972,-267.00774 C 304.27672,-269.56965 306.15465,-271.46002 308.34352,-272.67886 C 310.53235,-273.89761 313.13161,-274.507 316.14131,-274.50705 C 319.17582,-274.507 321.75021,-273.73593 323.86447,-272.19383 C 326.00354,-270.65164 327.58299,-268.41305 328.60284,-265.47803 M 386.73177,-268.68669 C 383.0505,-268.68665 380.14033,-267.244 378.00124,-264.35873 C 375.86212,-261.49827 374.79257,-257.56829 374.79258,-252.56878 C 374.79257,-247.56923 375.84969,-243.62681 377.96393,-240.74152 C 380.10302,-237.88108 383.02563,-236.45087 386.73177,-236.45088 C 390.38812,-236.45087 393.28586,-237.89352 395.425,-240.77883 C 397.56407,-243.66412 398.63362,-247.5941 398.63365,-252.56878 C 398.63362,-257.51855 397.56407,-261.43609 395.425,-264.32142 C 393.28586,-267.23157 390.38812,-268.68665 386.73177,-268.68669 M 386.73177,-274.50705 C 392.70134,-274.507 397.38995,-272.56689 400.79763,-268.68669 C 404.20523,-264.80642 405.90905,-259.43379 405.9091,-252.56878 C 405.90905,-245.72861 404.20523,-240.35598 400.79763,-236.45088 C 397.38995,-232.57064 392.70134,-230.63052 386.73177,-230.63052 C 380.73729,-230.63052 376.03623,-232.57064 372.6286,-236.45088 C 369.24583,-240.35598 367.55444,-245.72861 367.55445,-252.56878 C 367.55444,-259.43379 369.24583,-264.80642 372.6286,-268.68669 C 376.03623,-272.56689 380.73729,-274.507 386.73177,-274.50705 M 416.54245,-248.20352 L 416.54245,-273.49968 L 423.40749,-273.49968 L 423.40749,-248.46469 C 423.40747,-244.50982 424.17855,-241.53746 425.72071,-239.5476 C 427.26283,-237.58261 429.57605,-236.60011 432.66036,-236.60012 C 436.36646,-236.60011 439.28907,-237.78159 441.4282,-240.14456 C 443.59215,-242.50752 444.67414,-245.72861 444.67417,-249.80784 L 444.67417,-273.49968 L 451.53921,-273.49968 L 451.53921,-231.71251 L 444.67417,-231.71251 L 444.67417,-238.12982 C 443.00763,-235.59274 441.06751,-233.70237 438.85382,-232.45871 C 436.66494,-231.23992 434.11543,-230.63052 431.20527,-230.63052 C 426.40471,-230.63052 422.76077,-232.12292 420.27345,-235.10772 C 417.78611,-238.09251 416.54245,-242.45777 416.54245,-248.20352 M 433.81697,-274.50705 L 433.81697,-274.50705 M 492.39362,-272.26845 L 492.39362,-265.77651 C 490.45347,-266.77141 488.43873,-267.51761 486.34941,-268.01511 C 484.26002,-268.51254 482.09605,-268.76127 479.85747,-268.76131 C 476.44981,-268.76127 473.88786,-268.23893 472.17162,-267.19429 C 470.48022,-266.14958 469.63453,-264.58256 469.63454,-262.49323 C 469.63453,-260.90131 470.24392,-259.64521 471.46273,-258.72493 C 472.68151,-257.82946 475.13153,-256.97133 478.81279,-256.15054 L 481.16332,-255.6282 C 486.03846,-254.5835 489.49585,-253.10354 491.53549,-251.18831 C 493.59994,-249.29792 494.63218,-246.64892 494.63222,-243.24129 C 494.63218,-239.36105 493.09004,-236.28919 490.00578,-234.02573 C 486.94634,-231.76226 482.73032,-230.63052 477.3577,-230.63052 C 475.11909,-230.63052 472.781,-230.85438 470.34343,-231.3021 C 467.93071,-231.72495 465.3812,-232.37165 462.69488,-233.24222 L 462.69488,-240.33111 C 465.23196,-239.01282 467.73172,-238.01789 470.19419,-237.34631 C 472.65663,-236.6996 475.09422,-236.37625 477.50694,-236.37626 C 480.74045,-236.37625 483.22778,-236.92346 484.96894,-238.01789 C 486.71004,-239.13719 487.58061,-240.7042 487.58064,-242.71895 C 487.58061,-244.58444 486.94634,-246.01465 485.67783,-247.0096 C 484.43414,-248.00451 481.68564,-248.96214 477.43232,-249.88246 L 475.04449,-250.44211 C 470.79114,-251.33753 467.71929,-252.70557 465.82892,-254.54621 C 463.93855,-256.41169 462.99336,-258.9612 462.99336,-262.19476 C 462.99336,-266.1247 464.38626,-269.15925 467.17208,-271.29839 C 469.95788,-273.43745 473.91273,-274.507 479.03665,-274.50705 C 481.57371,-274.507 483.96154,-274.32045 486.20017,-273.9474 C 488.43873,-273.57425 490.50322,-273.01461 492.39362,-272.26845"
       style="font-size:76.41082001px;font-style:normal;font-variant:normal;font-weight:normal;font-stretch:normal;fill:url(#linearGradient3248);fill-opacity:1;stroke:none;stroke-width:1px;stroke-linecap:butt;stroke-linejoin:miter;stroke-opacity:1;font-family:Lohit Gujarati;-inkscape-font-specification:Lohit Gujarati"
       transform="scale(1.1339399,-0.881881)" />
  </g>
</svg>
