<?xml version="1.0" encoding="UTF-8" standalone="no"?>
<!-- Created with Sodipodi ("http://www.sodipodi.com/") -->
<svg
   xmlns:dc="http://purl.org/dc/elements/1.1/"
   xmlns:cc="http://creativecommons.org/ns#"
   xmlns:rdf="http://www.w3.org/1999/02/22-rdf-syntax-ns#"
   xmlns:svg="http://www.w3.org/2000/svg"
   xmlns="http://www.w3.org/2000/svg"
   xmlns:xlink="http://www.w3.org/1999/xlink"
   xmlns:sodipodi="http://sodipodi.sourceforge.net/DTD/sodipodi-0.dtd"
   xmlns:inkscape="http://www.inkscape.org/namespaces/inkscape"
   version="1.0"
   x="0"
   y="0"
   width="800.000000"
   height="600.000000"
   id="svg559"
   sodipodi:version="0.32"
   inkscape:version="0.46"
   sodipodi:docname="score_window.svg"
   sodipodi:docbase="/home/yoda/UltraStar/sf/UltraStar-ng/themes/lima"
   inkscape:output_extension="org.inkscape.output.svg.inkscape">
  <metadata
     id="metadata35">
    <rdf:RDF>
      <cc:Work
         rdf:about="">
        <dc:format>image/svg+xml</dc:format>
        <dc:type
           rdf:resource="http://purl.org/dc/dcmitype/StillImage" />
      </cc:Work>
    </rdf:RDF>
  </metadata>
  <sodipodi:namedview
     inkscape:window-height="801"
     inkscape:window-width="1439"
     inkscape:pageshadow="2"
     inkscape:pageopacity="0"
     guidetolerance="10.0"
     gridtolerance="10.0"
     objecttolerance="10.0"
     borderopacity="1.0"
     bordercolor="#666666"
     pagecolor="#ffffff"
     id="base"
     inkscape:zoom="1.6725"
     inkscape:cx="400"
     inkscape:cy="300"
     inkscape:window-x="5"
     inkscape:window-y="73"
     inkscape:current-layer="svg559"
     showgrid="false" />
  <defs
     id="defs561">
    <inkscape:perspective
       sodipodi:type="inkscape:persp3d"
       inkscape:vp_x="0 : 300 : 1"
       inkscape:vp_y="0 : 1000 : 0"
       inkscape:vp_z="800 : 300 : 1"
       inkscape:persp3d-origin="400 : 200 : 1"
       id="perspective2513" />
    <linearGradient
       id="linearGradient3751"
       inkscape:collect="always">
      <stop
         id="stop3753"
         offset="0"
         style="stop-color:black;stop-opacity:1;" />
      <stop
         id="stop3755"
         offset="1"
         style="stop-color:black;stop-opacity:0;" />
    </linearGradient>
    <linearGradient
       inkscape:collect="always"
       xlink:href="#linearGradient3751"
       id="linearGradient3484"
       gradientUnits="userSpaceOnUse"
       gradientTransform="matrix(0.755727,0,0,0.755727,-21.47999,-8.9739627e-2)"
       x1="665.12128"
       y1="684.16162"
       x2="381.28015"
       y2="449.80624" />
  </defs>
  <rect
     style="opacity:1;fill:#ffffff;fill-opacity:0.74766356;stroke:#000000;stroke-width:1.50000000000000000;stroke-miterlimit:4;stroke-dasharray:none;stroke-opacity:1"
     id="rect2383"
     width="665.24158"
     height="523.14679"
     x="67.379211"
     y="38.426605"
     rx="42.424664"
     ry="42.424664" />
  <path
     id="path2864"
     d="M 277.79837,408.27854 L 266.89791,408.27854 L 269.82568,410.4203 L 277.62432,412.77623 L 282.66359,415.34634 L 274.14874,414.06128 L 262.12686,410.84866 L 250.81839,409.99195 L 243.42775,408.49272 L 231.67695,406.99349 L 208.10968,400.99657 L 202.01459,398.21229 L 208.56055,391.35867 L 224.05794,393.28625 L 229.26853,394.78548 L 233.35474,396.49888 L 239.65532,397.99812 L 246.63793,398.64064 L 247.38829,397.35558 L 244.3579,395.85636 L 239.65811,394.5713 L 234.85569,393.92878 L 230.12167,392.8579 L 232.98376,392.0012 L 226.78589,389.85944 L 223.72126,388.57438 L 217.38646,387.28933 L 211.15436,385.36175 L 203.08176,384.71922 L 196.60994,384.29087 L 192.82624,387.50351 L 174.66642,392.0012 L 174.25553,394.5713 L 172.92583,396.07053 L 180.00828,399.49734 L 186.27461,401.21075 L 205.51595,406.99349 L 225.37071,412.34788 L 242.19509,416.20304 L 248.59269,423.91336 L 262.54931,435.47885 L 266.63273,440.61906 L 268.84142,447.25851 L 275.44738,450.25697 L 274.49138,452.82708 L 294.58586,456.68225 L 302.5872,461.17993 L 327.68391,471.24619 L 360.17125,482.81167 L 389.59397,493.09211 L 403.21663,496.51891 L 425.65961,502.73001 L 454.50578,509.79781 L 468.5023,514.29548 L 479.43419,517.50812 L 482.39324,522.86251 L 471.59269,525.64679 L 475.06556,527.78857 L 507.29029,527.36022 L 510.5576,530.78701 L 521.66059,532.92877 L 538.99855,533.5713 L 541.31841,529.28778 L 531.37682,523.29088 L 526.20334,518.15065 L 527.77276,515.1522 L 522.32533,511.72539 L 512.54924,511.51121 L 512.9259,509.15527 L 504.51088,510.65451 L 505.0587,507.2277 L 496.9861,506.58517 L 486.46238,504.22924 L 462.45278,497.58979 L 428.56439,491.3787 L 423.72767,490.95035 L 424.47818,489.66529 L 415.24984,486.02431 L 411.40327,482.81167 L 408.64396,483.02585 L 404.9344,478.95651 L 395.2295,474.88717 L 393.93683,472.74541 L 387.29671,469.96113 L 385.2564,465.67762 L 377.1182,462.03664 L 368.3322,459.03817 L 363.97483,455.61137 L 361.69487,452.82708 L 357.60858,451.11368 L 362.00306,450.8995 L 362.27693,449.1861 L 355.87653,444.90259 L 355.40276,441.04742 L 362.18269,439.54819 L 373.83071,441.68994 L 394.23345,443.61753 L 412.89825,446.18763 L 426.04442,449.1861 L 437.42136,449.61445 L 483.40297,455.18301 L 505.91721,457.53895 L 529.24756,461.60829 L 531.49622,461.17993 L 528.43152,459.89488 L 515.18257,457.53895 L 533.47366,459.03817 L 532.55477,457.9673 L 526.22004,456.68225 L 531.67019,456.68225 L 529.1506,455.39719 L 517.29702,454.54049 L 522.88419,453.68379 L 519.30869,452.18455 L 516.07289,451.97038 L 508.40831,452.18455 L 499.31419,451.11368 L 492.91084,450.25697 L 494.34332,448.11522 L 492.40292,446.61599 L 488.75896,445.5451 L 483.78529,445.97346 L 477.37914,448.54356 L 478.80875,449.82862 L 473.42707,449.40027 L 449.44891,445.97346 L 443.28535,443.61753 L 429.42297,441.68994 L 405.95561,438.47731 L 404.69438,439.54819 L 401.66391,438.04896 L 385.28187,434.83632 L 375.60849,433.97963 L 360.86146,430.76698 L 356.12751,429.69611 L 367.80976,431.62369 L 361.61197,429.48193 L 369.61602,430.55281 L 360.31922,427.34018 L 374.58969,430.12446 L 366.72257,428.19688 L 377.41755,429.48193 L 362.19403,425.84095 L 368.63154,426.48348 L 358.27899,423.05666 L 365.15882,424.34172 L 352.04688,421.12908 L 359.02942,421.77161 L 347.99483,419.2015 L 354.02432,418.98732 L 342.85286,417.27392 L 345.16984,416.41722 L 339.75393,416.20304 L 340.67553,413.84711 L 335.19115,414.06128 L 332.16068,412.56206 L 322.4901,408.27854 L 326.37091,411.277 L 312.34016,406.99349 L 321.05762,410.4203 L 319.38829,410.63448 L 313.93814,410.63448 L 299.77038,407.20767 L 293.77512,407.20767 L 281.07135,404.85174 L 280.86579,406.13678 L 277.79837,408.27854 z"
     style="opacity:0.22790701;fill:url(#linearGradient3484);fill-opacity:1;fill-rule:evenodd;stroke:none;stroke-width:0.44754833px;stroke-linecap:butt;stroke-linejoin:miter;stroke-opacity:1" />
  <path
     style="fill:#000000;fill-opacity:1;fill-rule:evenodd;stroke:#000000;stroke-width:0.5391832px;stroke-linecap:butt;stroke-linejoin:miter;stroke-opacity:1"
     d="M 562.76779,223.0222 L 551.87459,223.0222 L 549.69598,228.46877 L 551.87459,234.46 L 550.78528,240.99589 L 545.33876,237.72794 L 540.98154,229.55809 L 531.72229,227.37945 L 527.90973,223.56686 L 519.73986,219.75425 L 510.4807,204.50385 L 511.02535,197.4233 L 533.90098,179.99427 L 544.79403,184.89618 L 546.42806,188.70879 L 546.42806,193.06605 L 549.15132,196.87864 L 554.59792,198.51262 L 558.41049,195.24467 L 558.95514,191.43207 L 557.32119,188.16413 L 554.05327,186.53016 L 551.87459,183.80687 L 556.77653,181.62825 L 555.68723,176.18167 L 555.68723,172.91372 L 552.41931,169.64578 L 550.78528,164.74387 L 544.24945,163.1099 L 538.80285,162.02058 L 527.365,170.19044 L 498.49819,181.62825 L 491.96229,188.16413 L 487.06042,191.97673 L 485.97103,200.69125 L 488.14972,205.04851 L 493.59632,219.75425 L 500.6768,233.37068 L 508.30201,243.17451 L 496.31958,262.78218 L 482.70312,292.19367 L 474.53326,305.26544 L 460.91687,322.14982 L 460.37222,329.77503 L 453.29166,336.31091 L 464.18479,346.11475 L 461.46152,357.55254 L 462.55083,383.15144 L 467.4527,412.56293 L 472.35465,438.70649 L 477.80117,447.421 L 485.42646,463.21606 L 497.40889,481.18975 L 500.6768,492.62752 L 503.94479,500.79739 L 494.1409,514.41382 L 476.71187,521.49437 L 475.07791,526.94098 L 508.30201,525.85167 L 503.40014,534.56616 L 509.39132,540.01272 L 525.18639,541.64672 L 537.71355,530.75355 L 542.07084,515.50318 L 549.15132,502.43139 L 557.86584,494.8062 L 560.5891,486.09166 L 551.33001,485.54701 L 557.32119,479.55577 L 545.33876,483.36838 L 554.05327,474.65386 L 547.51737,473.01989 L 542.61542,467.02866 L 534.44556,450.14428 L 515.38257,434.34922 L 511.57,433.25991 L 515.38257,429.99196 L 514.83792,420.73279 L 518.65056,412.56293 L 515.38257,413.10759 L 521.37382,402.7591 L 521.37382,392.41061 L 525.18639,386.96404 L 525.18639,379.88349 L 533.35625,368.99034 L 533.90098,359.73118 L 532.26695,352.10597 L 536.07959,343.39145 L 540.43681,336.31091 L 540.43681,331.95365 L 545.33876,331.409 L 549.69598,327.05174 L 553.50862,316.1586 L 562.22313,306.35476 L 572.57161,302.54216 L 579.10743,307.98873 L 594.90258,312.89065 L 607.42966,319.42653 L 613.42084,327.05174 L 623.76931,328.14105 L 656.44884,342.30214 L 673.33314,348.29338 L 686.9496,358.64186 L 690.21759,357.55254 L 690.21759,354.2846 L 682.59238,348.29338 L 697.29807,352.10597 L 698.93211,349.38268 L 695.66412,346.11475 L 701.11072,346.11475 L 701.65537,342.8468 L 691.85155,340.66817 L 699.47668,338.48954 L 699.47668,334.67694 L 696.75342,334.13229 L 688.58356,334.67694 L 682.04773,331.95365 L 677.69044,329.77503 L 684.22634,324.32845 L 685.8603,320.51585 L 684.77099,317.79256 L 678.77982,318.88188 L 666.25258,325.41776 L 664.6187,328.68571 L 660.26141,327.5964 L 644.46633,318.88188 L 643.92168,312.89065 L 634.66251,307.98873 L 618.86744,299.81887 L 615.05487,302.54216 L 615.59953,298.72956 L 606.88501,290.5597 L 599.2598,288.38107 L 592.17924,280.21121 L 590.00064,277.48792 L 597.08119,282.38984 L 595.99189,276.94326 L 601.43841,279.66655 L 599.80445,271.49669 L 607.42966,278.57724 L 604.16175,273.67533 L 611.78688,276.94326 L 605.25105,267.6841 L 610.15293,269.31807 L 607.97432,260.60355 L 611.78688,263.87149 L 606.34036,255.70163 L 611.78688,257.3356 L 606.88501,250.79972 L 613.42084,250.25506 L 606.34036,245.8978 L 610.69758,243.71918 L 605.79571,243.17451 L 612.33154,237.18329 L 606.34036,237.72794 L 606.88501,233.91534 L 607.42966,223.0222 L 604.16175,230.6474 L 600.34911,219.75425 L 600.89376,228.46877 L 598.71515,229.01343 L 593.26855,229.01343 L 587.2773,220.29891 L 581.28612,220.29891 L 574.20556,214.30768 L 570.93757,217.57562 L 562.76779,223.0222 z"
     id="path1939" />
  <path
     style="fill:none;fill-opacity:0.75;fill-rule:evenodd;stroke:#ffffff;stroke-width:1.28473592;stroke-linecap:round;stroke-linejoin:round;stroke-miterlimit:4;stroke-dasharray:none;stroke-opacity:1"
     d="M 537.51011,167.72564 C 516.18493,159.84333 504.72675,189.377 511.75123,205.90154 C 514.28164,226.76135 514.73507,248.66006 509.2095,268.95791 C 498.8082,279.86826 471.81393,286.86293 472.20185,305.17251"
     id="path3759"
     sodipodi:nodetypes="cccc" />
</svg>
