<?xml version="1.0" encoding="UTF-8" standalone="no"?>
<!-- Created with Sodipodi ("http://www.sodipodi.com/") -->
<svg
   xmlns:dc="http://purl.org/dc/elements/1.1/"
   xmlns:cc="http://creativecommons.org/ns#"
   xmlns:rdf="http://www.w3.org/1999/02/22-rdf-syntax-ns#"
   xmlns:svg="http://www.w3.org/2000/svg"
   xmlns="http://www.w3.org/2000/svg"
   xmlns:xlink="http://www.w3.org/1999/xlink"
   xmlns:sodipodi="http://sodipodi.sourceforge.net/DTD/sodipodi-0.dtd"
   xmlns:inkscape="http://www.inkscape.org/namespaces/inkscape"
   version="1.0"
   x="0"
   y="0"
   width="800.000000"
   height="600.000000"
   id="svg559"
   sodipodi:version="0.32"
   inkscape:version="0.46"
   sodipodi:docname="score_window.svg"
   sodipodi:docbase="/home/yoda/UltraStar/sf/UltraStar-ng/themes/lima"
   inkscape:output_extension="org.inkscape.output.svg.inkscape">
  <metadata
     id="metadata35">
    <rdf:RDF>
      <cc:Work
         rdf:about="">
        <dc:format>image/svg+xml</dc:format>
        <dc:type
           rdf:resource="http://purl.org/dc/dcmitype/StillImage" />
      </cc:Work>
    </rdf:RDF>
  </metadata>
  <sodipodi:namedview
     inkscape:window-height="801"
     inkscape:window-width="1439"
     inkscape:pageshadow="2"
     inkscape:pageopacity="0.0"
     guidetolerance="10.0"
     gridtolerance="10.0"
     objecttolerance="10.0"
     borderopacity="1.0"
     bordercolor="#666666"
     pagecolor="#ffffff"
     id="base"
     inkscape:zoom="0.89095454"
     inkscape:cx="306.11959"
     inkscape:cy="334.5075"
     inkscape:window-x="0"
     inkscape:window-y="25"
     inkscape:current-layer="svg559"
     showgrid="false" />
  <defs
     id="defs561">
    <inkscape:perspective
       sodipodi:type="inkscape:persp3d"
       inkscape:vp_x="0 : 300 : 1"
       inkscape:vp_y="0 : 1000 : 0"
       inkscape:vp_z="800 : 300 : 1"
       inkscape:persp3d-origin="400 : 200 : 1"
       id="perspective2513" />
    <linearGradient
       id="linearGradient3751"
       inkscape:collect="always">
      <stop
         id="stop3753"
         offset="0"
         style="stop-color:black;stop-opacity:1;" />
      <stop
         id="stop3755"
         offset="1"
         style="stop-color:black;stop-opacity:0;" />
    </linearGradient>
    <linearGradient
       inkscape:collect="always"
       xlink:href="#linearGradient3751"
       id="linearGradient3484"
       gradientUnits="userSpaceOnUse"
       gradientTransform="matrix(0.755727,0,0,0.755727,4.33502,31.78829)"
       x1="665.12128"
       y1="684.16162"
       x2="381.28015"
       y2="449.80624" />
  </defs>
  <path
     id="path2864"
     d="M 303.61338,440.15657 L 292.71292,440.15657 L 295.64069,442.29833 L 303.43933,444.65426 L 308.4786,447.22437 L 299.96375,445.93931 L 287.94187,442.72669 L 276.6334,441.86998 L 269.24276,440.37075 L 257.49196,438.87152 L 233.92469,432.8746 L 227.8296,430.09032 L 234.37556,423.2367 L 249.87295,425.16428 L 255.08354,426.66351 L 259.16975,428.37691 L 265.47033,429.87615 L 272.45294,430.51867 L 273.2033,429.23361 L 270.17291,427.73439 L 265.47312,426.44933 L 260.6707,425.80681 L 255.93668,424.73593 L 258.79877,423.87923 L 252.6009,421.73747 L 249.53627,420.45241 L 243.20147,419.16736 L 236.96937,417.23978 L 228.89677,416.59725 L 222.42495,416.1689 L 218.64125,419.38154 L 200.48143,423.87923 L 200.07054,426.44933 L 198.74084,427.94856 L 205.82329,431.37537 L 212.08962,433.08878 L 231.33096,438.87152 L 251.18572,444.22591 L 268.0101,448.08107 L 274.4077,455.79139 L 288.36432,467.35688 L 292.44774,472.49709 L 294.65643,479.13654 L 301.26239,482.135 L 300.30639,484.70511 L 320.40087,488.56028 L 328.40221,493.05796 L 353.49892,503.12422 L 385.98626,514.6897 L 415.40898,524.97014 L 429.03164,528.39694 L 451.47462,534.60804 L 480.32079,541.67584 L 494.31731,546.17351 L 505.2492,549.38615 L 508.20825,554.74054 L 497.4077,557.52482 L 500.88057,559.6666 L 533.1053,559.23825 L 536.37261,562.66504 L 547.4756,564.8068 L 564.81356,565.44933 L 567.13342,561.16581 L 557.19183,555.16891 L 552.01835,550.02868 L 553.58777,547.03023 L 548.14034,543.60342 L 538.36425,543.38924 L 538.74091,541.0333 L 530.32589,542.53254 L 530.87371,539.10573 L 522.80111,538.4632 L 512.27739,536.10727 L 488.26779,529.46782 L 454.3794,523.25673 L 449.54268,522.82838 L 450.29319,521.54332 L 441.06485,517.90234 L 437.21828,514.6897 L 434.45897,514.90388 L 430.74941,510.83454 L 421.04451,506.7652 L 419.75184,504.62344 L 413.11172,501.83916 L 411.07141,497.55565 L 402.93321,493.91467 L 394.14721,490.9162 L 389.78984,487.4894 L 387.50988,484.70511 L 383.42359,482.99171 L 387.81807,482.77753 L 388.09194,481.06413 L 381.69154,476.78062 L 381.21777,472.92545 L 387.9977,471.42622 L 399.64572,473.56797 L 420.04846,475.49556 L 438.71326,478.06566 L 451.85943,481.06413 L 463.23637,481.49248 L 509.21798,487.06104 L 531.73222,489.41698 L 555.06257,493.48632 L 557.31123,493.05796 L 554.24653,491.77291 L 540.99758,489.41698 L 559.28867,490.9162 L 558.36978,489.84533 L 552.03505,488.56028 L 557.4852,488.56028 L 554.96561,487.27522 L 543.11203,486.41852 L 548.6992,485.56182 L 545.1237,484.06258 L 541.8879,483.84841 L 534.22332,484.06258 L 525.1292,482.99171 L 518.72585,482.135 L 520.15833,479.99325 L 518.21793,478.49402 L 514.57397,477.42313 L 509.6003,477.85149 L 503.19415,480.42159 L 504.62376,481.70665 L 499.24208,481.2783 L 475.26392,477.85149 L 469.10036,475.49556 L 455.23798,473.56797 L 431.77062,470.35534 L 430.50939,471.42622 L 427.47892,469.92699 L 411.09688,466.71435 L 401.4235,465.85766 L 386.67647,462.64501 L 381.94252,461.57414 L 393.62477,463.50172 L 387.42698,461.35996 L 395.43103,462.43084 L 386.13423,459.21821 L 400.4047,462.00249 L 392.53758,460.07491 L 403.23256,461.35996 L 388.00904,457.71898 L 394.44655,458.36151 L 384.094,454.93469 L 390.97383,456.21975 L 377.86189,453.00711 L 384.84443,453.64964 L 373.80984,451.07953 L 379.83933,450.86535 L 368.66787,449.15195 L 370.98485,448.29525 L 365.56894,448.08107 L 366.49054,445.72514 L 361.00616,445.93931 L 357.97569,444.44009 L 348.30511,440.15657 L 352.18592,443.15503 L 338.15517,438.87152 L 346.87263,442.29833 L 345.2033,442.51251 L 339.75315,442.51251 L 325.58539,439.0857 L 319.59013,439.0857 L 306.88636,436.72977 L 306.6808,438.01481 L 303.61338,440.15657 z "
     style="opacity:0.22790701;fill:url(#linearGradient3484);fill-opacity:1;fill-rule:evenodd;stroke:none;stroke-width:0.44754833px;stroke-linecap:butt;stroke-linejoin:miter;stroke-opacity:1" />
  <path
     style="fill:none;fill-opacity:0.75;fill-rule:evenodd;stroke:white;stroke-width:1.28473592;stroke-linecap:round;stroke-linejoin:round;stroke-miterlimit:4;stroke-dasharray:none;stroke-opacity:1"
     d="M 572.30425,197.15261 C 550.97907,189.2703 539.52089,218.80397 546.54537,235.32851 C 549.07578,256.18832 549.52921,278.08703 544.00364,298.38488 C 533.60234,309.29523 506.60807,316.2899 506.99599,334.59948"
     id="path3759"
     sodipodi:nodetypes="cccc" />
  <rect
     style="opacity:1;fill:#ffffff;fill-opacity:0.74766356;stroke:#000000;stroke-width:1.50000000000000000;stroke-miterlimit:4;stroke-dasharray:none;stroke-opacity:1"
     id="rect2383"
     width="665.24158"
     height="523.14679"
     x="67.379211"
     y="38.426605"
     rx="42.424664"
     ry="42.424664" />
  <rect
     style="opacity:1;fill:#000000;fill-opacity:0.14025975;stroke:#323232;stroke-width:2;stroke-linecap:square;stroke-linejoin:round;stroke-miterlimit:4;stroke-dasharray:none;stroke-dashoffset:0;stroke-opacity:1"
     id="rect2174"
     width="120.25723"
     height="298.035"
     x="100.66544"
     y="240.99579" />
  <text
     xml:space="preserve"
     style="font-size:48px;font-style:normal;font-weight:normal;fill:#000000;fill-opacity:1;stroke:none;stroke-width:1px;stroke-linecap:butt;stroke-linejoin:miter;stroke-opacity:1;font-family:Trebuchet MS"
     x="97.396858"
     y="220.8078"
     id="text6525"><tspan
       sodipodi:role="line"
       id="tspan6527"
       x="97.396858"
       y="220.8078">Score:</tspan></text>
  <path
     style="fill:#000000;fill-opacity:1;fill-rule:evenodd;stroke:#000000;stroke-width:0.5391832px;stroke-linecap:butt;stroke-linejoin:miter;stroke-opacity:1"
     d="M 562.76779,223.0222 L 551.87459,223.0222 L 549.69598,228.46877 L 551.87459,234.46 L 550.78528,240.99589 L 545.33876,237.72794 L 540.98154,229.55809 L 531.72229,227.37945 L 527.90973,223.56686 L 519.73986,219.75425 L 510.4807,204.50385 L 511.02535,197.4233 L 533.90098,179.99427 L 544.79403,184.89618 L 546.42806,188.70879 L 546.42806,193.06605 L 549.15132,196.87864 L 554.59792,198.51262 L 558.41049,195.24467 L 558.95514,191.43207 L 557.32119,188.16413 L 554.05327,186.53016 L 551.87459,183.80687 L 556.77653,181.62825 L 555.68723,176.18167 L 555.68723,172.91372 L 552.41931,169.64578 L 550.78528,164.74387 L 544.24945,163.1099 L 538.80285,162.02058 L 527.365,170.19044 L 498.49819,181.62825 L 491.96229,188.16413 L 487.06042,191.97673 L 485.97103,200.69125 L 488.14972,205.04851 L 493.59632,219.75425 L 500.6768,233.37068 L 508.30201,243.17451 L 496.31958,262.78218 L 482.70312,292.19367 L 474.53326,305.26544 L 460.91687,322.14982 L 460.37222,329.77503 L 453.29166,336.31091 L 464.18479,346.11475 L 461.46152,357.55254 L 462.55083,383.15144 L 467.4527,412.56293 L 472.35465,438.70649 L 477.80117,447.421 L 485.42646,463.21606 L 497.40889,481.18975 L 500.6768,492.62752 L 503.94479,500.79739 L 494.1409,514.41382 L 476.71187,521.49437 L 475.07791,526.94098 L 508.30201,525.85167 L 503.40014,534.56616 L 509.39132,540.01272 L 525.18639,541.64672 L 537.71355,530.75355 L 542.07084,515.50318 L 549.15132,502.43139 L 557.86584,494.8062 L 560.5891,486.09166 L 551.33001,485.54701 L 557.32119,479.55577 L 545.33876,483.36838 L 554.05327,474.65386 L 547.51737,473.01989 L 542.61542,467.02866 L 534.44556,450.14428 L 515.38257,434.34922 L 511.57,433.25991 L 515.38257,429.99196 L 514.83792,420.73279 L 518.65056,412.56293 L 515.38257,413.10759 L 521.37382,402.7591 L 521.37382,392.41061 L 525.18639,386.96404 L 525.18639,379.88349 L 533.35625,368.99034 L 533.90098,359.73118 L 532.26695,352.10597 L 536.07959,343.39145 L 540.43681,336.31091 L 540.43681,331.95365 L 545.33876,331.409 L 549.69598,327.05174 L 553.50862,316.1586 L 562.22313,306.35476 L 572.57161,302.54216 L 579.10743,307.98873 L 594.90258,312.89065 L 607.42966,319.42653 L 613.42084,327.05174 L 623.76931,328.14105 L 656.44884,342.30214 L 673.33314,348.29338 L 686.9496,358.64186 L 690.21759,357.55254 L 690.21759,354.2846 L 682.59238,348.29338 L 697.29807,352.10597 L 698.93211,349.38268 L 695.66412,346.11475 L 701.11072,346.11475 L 701.65537,342.8468 L 691.85155,340.66817 L 699.47668,338.48954 L 699.47668,334.67694 L 696.75342,334.13229 L 688.58356,334.67694 L 682.04773,331.95365 L 677.69044,329.77503 L 684.22634,324.32845 L 685.8603,320.51585 L 684.77099,317.79256 L 678.77982,318.88188 L 666.25258,325.41776 L 664.6187,328.68571 L 660.26141,327.5964 L 644.46633,318.88188 L 643.92168,312.89065 L 634.66251,307.98873 L 618.86744,299.81887 L 615.05487,302.54216 L 615.59953,298.72956 L 606.88501,290.5597 L 599.2598,288.38107 L 592.17924,280.21121 L 590.00064,277.48792 L 597.08119,282.38984 L 595.99189,276.94326 L 601.43841,279.66655 L 599.80445,271.49669 L 607.42966,278.57724 L 604.16175,273.67533 L 611.78688,276.94326 L 605.25105,267.6841 L 610.15293,269.31807 L 607.97432,260.60355 L 611.78688,263.87149 L 606.34036,255.70163 L 611.78688,257.3356 L 606.88501,250.79972 L 613.42084,250.25506 L 606.34036,245.8978 L 610.69758,243.71918 L 605.79571,243.17451 L 612.33154,237.18329 L 606.34036,237.72794 L 606.88501,233.91534 L 607.42966,223.0222 L 604.16175,230.6474 L 600.34911,219.75425 L 600.89376,228.46877 L 598.71515,229.01343 L 593.26855,229.01343 L 587.2773,220.29891 L 581.28612,220.29891 L 574.20556,214.30768 L 570.93757,217.57562 L 562.76779,223.0222 z"
     id="path1939" />
  <path
     sodipodi:type="star"
     style="opacity:0.22790701;fill:#ffffff;fill-opacity:1;fill-rule:nonzero;stroke:#ffffff;stroke-width:1.70000005;stroke-linecap:round;stroke-linejoin:round;marker:none;marker-start:none;marker-mid:none;marker-end:none;stroke-miterlimit:4;stroke-dasharray:none;stroke-dashoffset:0;stroke-opacity:1;visibility:visible;display:block;overflow:visible"
     id="path5574"
     sodipodi:sides="5"
     sodipodi:cx="141.42136"
     sodipodi:cy="350.13498"
     sodipodi:r1="78.688225"
     sodipodi:r2="45.665279"
     sodipodi:arg1="1.0612041"
     sodipodi:arg2="1.6895226"
     inkscape:flatsided="false"
     inkscape:rounded="0"
     inkscape:randomized="0"
     d="M 179.80715,418.82535 L 136.01242,395.47879 L 87.954791,407.86853 L 96.625376,359.00278 L 69.991407,317.1259 L 119.14486,310.27177 L 150.74179,272.0007 L 172.4497,316.63036 L 218.61165,334.85441 L 182.87443,369.29119 L 179.80715,418.82535 z"
     transform="matrix(0.494335,-0.204386,0.204386,0.494335,37.14481,332.7709)" />
  <path
     transform="matrix(0.430025,1.278809e-2,-1.278809e-2,0.430025,81.473491,267.8555)"
     d="M 179.80715,418.82535 L 136.01242,395.47879 L 87.954791,407.86853 L 96.625376,359.00278 L 69.991407,317.1259 L 119.14486,310.27177 L 150.74179,272.0007 L 172.4497,316.63036 L 218.61165,334.85441 L 182.87443,369.29119 L 179.80715,418.82535 z"
     inkscape:randomized="0"
     inkscape:rounded="0"
     inkscape:flatsided="false"
     sodipodi:arg2="1.6895226"
     sodipodi:arg1="1.0612041"
     sodipodi:r2="45.665279"
     sodipodi:r1="78.688225"
     sodipodi:cy="350.13498"
     sodipodi:cx="141.42136"
     sodipodi:sides="5"
     id="path5576"
     style="opacity:0.22790701;fill:#ffffff;fill-opacity:1;fill-rule:nonzero;stroke:#ffffff;stroke-width:1.70000005;stroke-linecap:round;stroke-linejoin:round;marker:none;marker-start:none;marker-mid:none;marker-end:none;stroke-miterlimit:4;stroke-dasharray:none;stroke-dashoffset:0;stroke-opacity:1;visibility:visible;display:block;overflow:visible"
     sodipodi:type="star" />
  <path
     sodipodi:type="star"
     style="opacity:0.22790701;fill:#ffffff;fill-opacity:1;fill-rule:nonzero;stroke:#ffffff;stroke-width:1.70000005;stroke-linecap:round;stroke-linejoin:round;marker:none;marker-start:none;marker-mid:none;marker-end:none;stroke-miterlimit:4;stroke-dasharray:none;stroke-dashoffset:0;stroke-opacity:1;visibility:visible;display:block;overflow:visible"
     id="path5578"
     sodipodi:sides="5"
     sodipodi:cx="141.42136"
     sodipodi:cy="350.13498"
     sodipodi:r1="78.688225"
     sodipodi:r2="45.665279"
     sodipodi:arg1="1.0612041"
     sodipodi:arg2="1.6895226"
     inkscape:flatsided="false"
     inkscape:rounded="0"
     inkscape:randomized="0"
     d="M 179.80715,418.82535 L 136.01242,395.47879 L 87.954791,407.86853 L 96.625376,359.00278 L 69.991407,317.1259 L 119.14486,310.27177 L 150.74179,272.0007 L 172.4497,316.63036 L 218.61165,334.85441 L 182.87443,369.29119 L 179.80715,418.82535 z"
     transform="matrix(0.308608,-0.157328,0.157328,0.308608,88.40351,287.4728)" />
  <path
     transform="matrix(0.218514,5.453603e-2,-5.453603e-2,0.218514,133.30272,248.0341)"
     d="M 179.80715,418.82535 L 136.01242,395.47879 L 87.954791,407.86853 L 96.625376,359.00278 L 69.991407,317.1259 L 119.14486,310.27177 L 150.74179,272.0007 L 172.4497,316.63036 L 218.61165,334.85441 L 182.87443,369.29119 L 179.80715,418.82535 z"
     inkscape:randomized="0"
     inkscape:rounded="0"
     inkscape:flatsided="false"
     sodipodi:arg2="1.6895226"
     sodipodi:arg1="1.0612041"
     sodipodi:r2="45.665279"
     sodipodi:r1="78.688225"
     sodipodi:cy="350.13498"
     sodipodi:cx="141.42136"
     sodipodi:sides="5"
     id="path5580"
     style="opacity:0.22790701;fill:#ffffff;fill-opacity:1;fill-rule:nonzero;stroke:#ffffff;stroke-width:1.70000005;stroke-linecap:round;stroke-linejoin:round;marker:none;marker-start:none;marker-mid:none;marker-end:none;stroke-miterlimit:4;stroke-dasharray:none;stroke-dashoffset:0;stroke-opacity:1;visibility:visible;display:block;overflow:visible"
     sodipodi:type="star" />
  <path
     sodipodi:type="star"
     style="opacity:0.22790701;fill:#ffffff;fill-opacity:1;fill-rule:nonzero;stroke:#ffffff;stroke-width:1.70000005;stroke-linecap:round;stroke-linejoin:round;marker:none;marker-start:none;marker-mid:none;marker-end:none;stroke-miterlimit:4;stroke-dasharray:none;stroke-dashoffset:0;stroke-opacity:1;visibility:visible;display:block;overflow:visible"
     id="path5582"
     sodipodi:sides="5"
     sodipodi:cx="141.42136"
     sodipodi:cy="350.13498"
     sodipodi:r1="78.688225"
     sodipodi:r2="45.665279"
     sodipodi:arg1="1.0612041"
     sodipodi:arg2="1.6895226"
     inkscape:flatsided="false"
     inkscape:rounded="0"
     inkscape:randomized="0"
     d="M 179.80715,418.82535 L 136.01242,395.47879 L 87.954791,407.86853 L 96.625376,359.00278 L 69.991407,317.1259 L 119.14486,310.27177 L 150.74179,272.0007 L 172.4497,316.63036 L 218.61165,334.85441 L 182.87443,369.29119 L 179.80715,418.82535 z"
     transform="matrix(0.164046,9.96525e-3,-9.96525e-3,0.164046,157.55929,244.6636)" />
</svg>
