<?xml version="1.0" encoding="UTF-8" standalone="no"?>
<!-- Created with Inkscape (http://www.inkscape.org/) -->
<svg
   xmlns:dc="http://purl.org/dc/elements/1.1/"
   xmlns:cc="http://creativecommons.org/ns#"
   xmlns:rdf="http://www.w3.org/1999/02/22-rdf-syntax-ns#"
   xmlns:svg="http://www.w3.org/2000/svg"
   xmlns="http://www.w3.org/2000/svg"
   xmlns:sodipodi="http://sodipodi.sourceforge.net/DTD/sodipodi-0.dtd"
   xmlns:inkscape="http://www.inkscape.org/namespaces/inkscape"
   version="1.0"
   width="59.375919"
   height="63.933247"
   id="svg3465"
   sodipodi:version="0.32"
   inkscape:version="0.46"
   sodipodi:docname="sing_pbox.svg"
   sodipodi:docbase="/home/jesusda/docs/curro/yo/ultrastar-ng/base/theme-pod/themes/default"
   inkscape:output_extension="org.inkscape.output.svg.inkscape">
  <metadata
     id="metadata13361">
    <rdf:RDF>
      <cc:Work
         rdf:about="">
        <dc:format>image/svg+xml</dc:format>
        <dc:type
           rdf:resource="http://purl.org/dc/dcmitype/StillImage" />
      </cc:Work>
    </rdf:RDF>
  </metadata>
  <sodipodi:namedview
     inkscape:cy="39.880334"
     inkscape:cx="-109.53379"
     inkscape:zoom="0.86831672"
     inkscape:window-height="801"
     inkscape:window-width="1439"
     inkscape:pageshadow="2"
     inkscape:pageopacity="0.0"
     guidetolerance="10.0"
     gridtolerance="10.0"
     objecttolerance="10.0"
     borderopacity="1.0"
     bordercolor="#666666"
     pagecolor="#ffffff"
     id="base"
     showguides="true"
     inkscape:guide-bbox="true"
     inkscape:window-x="0"
     inkscape:window-y="25"
     inkscape:current-layer="svg3465"
     showgrid="false">
    <sodipodi:guide
       orientation="vertical"
       position="-118.28318"
       id="guide17996" />
    <sodipodi:guide
       orientation="vertical"
       position="-110.34334"
       id="guide17998" />
  </sodipodi:namedview>
  <defs
     id="defs3467">
    <inkscape:perspective
       sodipodi:type="inkscape:persp3d"
       inkscape:vp_x="0 : 300 : 1"
       inkscape:vp_y="0 : 1000 : 0"
       inkscape:vp_z="800 : 300 : 1"
       inkscape:persp3d-origin="400 : 200 : 1"
       id="perspective14" />
  </defs>
  <g
     id="g3162">
    <path
       id="path16205"
       d="M 25.5,10.214498 C 11.34025,10.937573 1e-05,22.725789 0,37.058248 C 0,51.853048 12.08021,63.933248 26.875,63.933248 C 41.6698,63.933248 53.75,51.853048 53.75,37.058248 C 53.75,36.784948 53.72693,36.517139 53.71875,36.245748 L 45.84375,36.245748 C 45.85525,36.518965 45.875,36.782098 45.875,37.058248 C 45.875,47.599648 37.41641,56.058248 26.875,56.058248 C 16.3336,56.058248 7.84375,47.599648 7.84375,37.058248 C 7.84375,26.793007 15.90643,18.486911 26.0625,18.058248 L 26.0625,10.214498 C 25.87478,10.220164 25.68676,10.204961 25.5,10.214498 z"
       style="fill:#000000;fill-opacity:1;fill-rule:nonzero;stroke:none;stroke-width:10.60000038;stroke-linecap:butt;stroke-linejoin:miter;marker:none;stroke-miterlimit:4;stroke-dasharray:none;stroke-dashoffset:0;stroke-opacity:1;visibility:visible;display:block;overflow:visible" />
    <path
       id="path17986"
       d="M 49.65334,0 C 44.37152,0 40.09084,5.274317 40.09084,11.760322 C 40.09084,11.915479 40.11723,12.067111 40.12209,12.220817 L 59.21584,12.220817 C 59.2207,12.067111 59.24709,11.915479 59.24709,11.760322 C 59.24709,5.274319 54.93517,-2e-06 49.65334,0 z"
       style="fill:#000000;fill-opacity:1;fill-rule:nonzero;stroke:none;stroke-width:10.60000038;stroke-linecap:butt;stroke-linejoin:miter;marker:none;marker-start:none;marker-mid:none;marker-end:none;stroke-miterlimit:4;stroke-dasharray:none;stroke-dashoffset:0;stroke-opacity:1;visibility:visible;display:block;overflow:visible" />
    <path
       id="path17991"
       d="M 40.25092,14.870748 C 40.24606,15.006348 40.21967,15.140121 40.21967,15.276998 C 40.21967,17.971957 41.16317,20.430732 42.71967,22.276998 L 45.68842,34.558248 L 53.78217,34.558248 L 56.68842,22.464498 C 58.34728,20.598985 59.37592,18.063177 59.37592,15.276998 C 59.37592,15.140118 59.34953,15.006351 59.34467,14.870748 L 40.25092,14.870748 z"
       style="fill:#ffffff;fill-opacity:1;fill-rule:nonzero;stroke:none;stroke-width:10.60000038000000089;stroke-linecap:butt;stroke-linejoin:miter;marker:none;marker-start:none;marker-mid:none;marker-end:none;stroke-miterlimit:4;stroke-dasharray:none;stroke-dashoffset:0;stroke-opacity:1;visibility:visible;display:block;overflow:visible" />
    <text
       sodipodi:linespacing="100%"
       x="15.958409"
       y="50.819096"
       style="font-size:37.62717819000000219px;font-style:normal;font-variant:normal;font-weight:normal;font-stretch:normal;text-align:start;line-height:100%;writing-mode:lr-tb;text-anchor:start;fill:#ffffff;fill-opacity:1;stroke:none;stroke-width:1px;stroke-linecap:butt;stroke-linejoin:miter;stroke-opacity:1;display:inline;font-family:Arial Black"
       id="text18005"
       xml:space="preserve"><tspan
         x="15.958409"
         y="50.819096"
         style="fill:#ffffff;stroke:none;stroke-opacity:1;fill-opacity:1"
         id="tspan18007">P</tspan></text>
  </g>
</svg>
