<?xml version="1.0" encoding="UTF-8" standalone="no"?>
<!-- Created with Sodipodi ("http://www.sodipodi.com/") -->
<svg
   xmlns:dc="http://purl.org/dc/elements/1.1/"
   xmlns:cc="http://creativecommons.org/ns#"
   xmlns:rdf="http://www.w3.org/1999/02/22-rdf-syntax-ns#"
   xmlns:svg="http://www.w3.org/2000/svg"
   xmlns="http://www.w3.org/2000/svg"
   xmlns:xlink="http://www.w3.org/1999/xlink"
   xmlns:sodipodi="http://sodipodi.sourceforge.net/DTD/sodipodi-0.dtd"
   xmlns:inkscape="http://www.inkscape.org/namespaces/inkscape"
   version="1.0"
   x="0"
   y="0"
   width="1000"
   height="800"
   id="svg559"
   sodipodi:version="0.32"
   inkscape:version="0.46"
   sodipodi:docname="songs_bg.svg"
   sodipodi:docbase="/home/jesusda/downloads/testcoming/game-ultrastar-ng/UltraStar-ng-0.1.0/themes/default"
   inkscape:output_extension="org.inkscape.output.svg.inkscape">
  <metadata
     id="metadata35">
    <rdf:RDF>
      <cc:Work
         rdf:about="">
        <dc:format>image/svg+xml</dc:format>
        <dc:type
           rdf:resource="http://purl.org/dc/dcmitype/StillImage" />
      </cc:Work>
    </rdf:RDF>
  </metadata>
  <sodipodi:namedview
     inkscape:window-height="1125"
     inkscape:window-width="1920"
     inkscape:pageshadow="2"
     inkscape:pageopacity="0.0"
     guidetolerance="10.0"
     gridtolerance="10.0"
     objecttolerance="10.0"
     borderopacity="1.0"
     bordercolor="#666666"
     pagecolor="#ffffff"
     id="base"
     inkscape:zoom="1.1098204"
     inkscape:cx="487.32843"
     inkscape:cy="399.09066"
     inkscape:window-x="0"
     inkscape:window-y="25"
     inkscape:current-layer="svg559"
     showgrid="false" />
  <defs
     id="defs561">
    <inkscape:perspective
       sodipodi:type="inkscape:persp3d"
       inkscape:vp_x="0 : 400 : 1"
       inkscape:vp_y="0 : 1000 : 0"
       inkscape:vp_z="1000 : 400 : 1"
       inkscape:persp3d-origin="500 : 266.66667 : 1"
       id="perspective62" />
    <linearGradient
       inkscape:collect="always"
       xlink:href="#linearGradient6499"
       id="linearGradient3248"
       x1="311.95688"
       y1="-116.67703"
       x2="311.95688"
       y2="-276.41519"
       gradientUnits="userSpaceOnUse"
       gradientTransform="matrix(1.1339399,0,0,-0.881881,-40.488887,49.077438)" />
    <linearGradient
       id="linearGradient6053">
      <stop
         style="stop-color:#000000;stop-opacity:1;"
         offset="0"
         id="stop6055" />
      <stop
         style="stop-color:#5f5f5f;stop-opacity:1;"
         offset="1"
         id="stop6057" />
    </linearGradient>
    <linearGradient
       id="linearGradient3751"
       inkscape:collect="always">
      <stop
         id="stop3753"
         offset="0"
         style="stop-color:black;stop-opacity:1;" />
      <stop
         id="stop3755"
         offset="1"
         style="stop-color:black;stop-opacity:0;" />
    </linearGradient>
    <linearGradient
       id="linearGradient5546"
       inkscape:collect="always">
      <stop
         id="stop5548"
         offset="0"
         style="stop-color:white;stop-opacity:1;" />
      <stop
         id="stop5550"
         offset="1"
         style="stop-color:white;stop-opacity:0;" />
    </linearGradient>
    <linearGradient
       id="linearGradient6499"
       inkscape:collect="always">
      <stop
         id="stop6501"
         offset="0"
         style="stop-color:white;stop-opacity:1;" />
      <stop
         id="stop6503"
         offset="1"
         style="stop-color:white;stop-opacity:0;" />
    </linearGradient>
    <linearGradient
       inkscape:collect="always"
       xlink:href="#linearGradient3751"
       id="linearGradient2612"
       gradientUnits="userSpaceOnUse"
       gradientTransform="matrix(0.760472,0,0,0.760472,-0.919047,29.31604)"
       x1="665.12128"
       y1="684.16162"
       x2="381.28015"
       y2="449.80624" />
    <linearGradient
       inkscape:collect="always"
       xlink:href="#linearGradient5546"
       id="linearGradient2614"
       gradientUnits="userSpaceOnUse"
       gradientTransform="matrix(0.760472,0,0,0.760472,-0.919047,29.31604)"
       x1="859.73419"
       y1="660.78955"
       x2="1055.1357"
       y2="603.64667" />
    <linearGradient
       inkscape:collect="always"
       xlink:href="#linearGradient6053"
       id="linearGradient3242"
       gradientUnits="userSpaceOnUse"
       gradientTransform="matrix(3.8007102,0,0,3.6605406,-1024.9281,1015.1102)"
       x1="410.25833"
       y1="-446.23236"
       x2="410.25833"
       y2="-496.73999" />
  </defs>
  <rect
     y="-1.4079988"
     x="-0.074667335"
     height="802.95782"
     width="1000.6992"
     id="rect3308"
     style="fill:#81d000;fill-opacity:0;fill-rule:nonzero;stroke:none;stroke-width:3;stroke-linecap:round;stroke-linejoin:miter;marker:none;marker-start:none;marker-mid:none;marker-end:none;stroke-miterlimit:4;stroke-dasharray:none;stroke-dashoffset:0;stroke-opacity:1;visibility:visible;display:block;overflow:visible" />
  <rect
     style="fill:#ffffff;fill-opacity:0.27391306;stroke:none;stroke-width:5;stroke-linecap:butt;stroke-linejoin:miter;stroke-miterlimit:4;stroke-dasharray:none;stroke-opacity:1"
     id="rect6085"
     width="1004.5031"
     height="51.692097"
     x="-2.0912662"
     y="152.91451"
     ry="0" />
  <path
     style="font-size:35.35396194px;font-style:normal;font-variant:normal;font-weight:normal;font-stretch:normal;text-align:start;line-height:125%;writing-mode:lr-tb;text-anchor:start;fill:#000000;fill-opacity:1;stroke:none;stroke-width:1px;stroke-linecap:butt;stroke-linejoin:miter;stroke-opacity:1;font-family:Interstate-RegularCondensed"
     d="M 384.18461,183.80041 C 384.1846,182.50957 384.00857,181.38008 383.65653,180.41192 C 383.30447,179.44379 382.82039,178.57833 382.20432,177.81555 C 381.58821,177.02345 380.85478,176.31933 380.004,175.70324 C 379.18253,175.05782 378.28774,174.42706 377.31961,173.81096 C 376.46881,173.25356 375.75004,172.75483 375.1633,172.31474 C 374.60587,171.84536 374.15114,171.39062 373.7991,170.95054 C 373.44704,170.5105 373.19767,170.07044 373.05099,169.63035 C 372.9043,169.16097 372.83095,168.63289 372.83096,168.04612 C 372.83095,167.078 373.10966,166.30055 373.66708,165.71378 C 374.22448,165.09771 375.0166,164.78966 376.04343,164.78964 C 376.51282,164.78966 376.93821,164.83368 377.31961,164.92165 C 377.73032,165.00969 378.09705,165.17106 378.41977,165.40573 C 378.77181,165.61111 379.10919,165.88982 379.43192,166.24185 C 379.75462,166.5646 380.10668,166.97532 380.48808,167.47403 L 383.65653,164.65762 C 382.71771,163.30813 381.67623,162.2813 380.53208,161.57717 C 379.41724,160.84377 377.96503,160.47704 376.17545,160.47701 C 374.97259,160.47704 373.88711,160.66774 372.91898,161.0491 C 371.98016,161.43051 371.17338,161.97326 370.49862,162.67733 C 369.82385,163.35213 369.29577,164.15892 368.91439,165.09769 C 368.56233,166.03652 368.38631,167.06333 368.38631,168.17814 C 368.38631,169.381 368.54767,170.45183 368.87038,171.39061 C 369.19309,172.30009 369.63315,173.12154 370.19057,173.85496 C 370.74798,174.55909 371.39341,175.21918 372.12685,175.83526 C 372.88962,176.42203 373.71108,176.99411 374.59122,177.5515 C 375.61803,178.22629 376.46881,178.84237 377.14359,179.39977 C 377.81834,179.92787 378.34642,180.44127 378.72782,180.94 C 379.10919,181.4094 379.37323,181.89348 379.51993,182.39221 C 379.66661,182.89095 379.73995,183.4337 379.73997,184.02044 C 379.73995,185.28197 379.41724,186.25012 378.77182,186.92488 C 378.12639,187.59964 377.21692,187.93702 376.04343,187.93702 C 375.10461,187.93702 374.23916,187.70233 373.44704,187.23291 C 372.68427,186.73418 371.87748,185.82471 371.0267,184.50452 L 367.6382,187.23291 C 368.51833,188.72914 369.60381,189.94665 370.89467,190.88544 C 372.21486,191.79491 373.84309,192.24964 375.77938,192.24965 C 377.1289,192.24964 378.33174,192.04428 379.38792,191.63356 C 380.44405,191.22283 381.32418,190.65075 382.0283,189.91731 C 382.73239,189.15454 383.26046,188.25973 383.61253,187.23291 C 383.99391,186.17676 384.1846,185.0326 384.18461,183.80041 M 403.78947,180.14789 C 403.78946,178.12359 403.58409,176.36335 403.17339,174.86711 C 402.76264,173.37091 402.19056,172.13873 401.45713,171.17058 C 400.72368,170.17312 399.85822,169.425 398.86076,168.92625 C 397.86326,168.42753 396.79244,168.17816 395.64829,168.17814 C 394.4161,168.17816 393.30127,168.4422 392.3038,168.97025 C 391.30632,169.46902 390.44085,170.23179 389.70742,171.25859 C 388.97398,172.25609 388.4019,173.5176 387.99117,175.04314 C 387.60978,176.53937 387.41909,178.29963 387.41909,180.32391 C 387.41909,182.14285 387.59511,183.78576 387.94716,185.25263 C 388.32855,186.71951 388.8713,187.98102 389.5754,189.03718 C 390.30884,190.06399 391.20363,190.85611 392.25979,191.41353 C 393.31594,191.97094 394.53345,192.24964 395.91232,192.24965 C 397.40854,192.24964 398.72872,191.95627 399.87291,191.36952 C 401.01706,190.78277 401.9852,190.04933 402.77733,189.1692 L 400.18095,186.48481 C 399.50617,187.10091 398.87541,187.54096 398.28868,187.805 C 397.73125,188.06904 396.96847,188.20106 396.00034,188.20106 C 394.76815,188.20106 393.77068,187.68765 393.0079,186.66083 C 392.24511,185.60468 391.79039,183.93244 391.64371,181.6441 L 403.74547,181.6441 C 403.77479,181.4094 403.78946,181.16005 403.78947,180.89599 C 403.78946,180.60263 403.78946,180.35326 403.78947,180.14789 M 399.47684,177.99157 L 391.68771,177.99157 C 392.03976,174.08968 393.33061,172.13873 395.56027,172.13871 C 396.7631,172.13873 397.70191,172.68148 398.37668,173.76695 C 399.05144,174.85246 399.41815,176.26066 399.47684,177.99157 M 412.42436,191.76557 L 412.42436,159.68489 L 408.19974,161.88522 L 408.19974,191.76557 L 412.42436,191.76557 M 433.27033,180.14789 C 433.27032,178.12359 433.06496,176.36335 432.65425,174.86711 C 432.24351,173.37091 431.67142,172.13873 430.93799,171.17058 C 430.20454,170.17312 429.33909,169.425 428.34162,168.92625 C 427.34412,168.42753 426.27331,168.17816 425.12915,168.17814 C 423.89696,168.17816 422.78213,168.4422 421.78466,168.97025 C 420.78718,169.46902 419.92173,170.23179 419.18829,171.25859 C 418.45484,172.25609 417.88276,173.5176 417.47203,175.04314 C 417.09064,176.53937 416.89995,178.29963 416.89995,180.32391 C 416.89995,182.14285 417.07598,183.78576 417.42803,185.25263 C 417.80942,186.71951 418.35216,187.98102 419.05626,189.03718 C 419.7897,190.06399 420.6845,190.85611 421.74066,191.41353 C 422.79681,191.97094 424.01431,192.24964 425.3932,192.24965 C 426.8894,192.24964 428.20959,191.95627 429.35377,191.36952 C 430.49792,190.78277 431.46606,190.04933 432.25819,189.1692 L 429.66181,186.48481 C 428.98703,187.10091 428.35627,187.54096 427.76954,187.805 C 427.21211,188.06904 426.44933,188.20106 425.4812,188.20106 C 424.24902,188.20106 423.25154,187.68765 422.48876,186.66083 C 421.72599,185.60468 421.27125,183.93244 421.12457,181.6441 L 433.22633,181.6441 C 433.25566,181.4094 433.27032,181.16005 433.27033,180.89599 C 433.27032,180.60263 433.27032,180.35326 433.27033,180.14789 M 428.95771,177.99157 L 421.16858,177.99157 C 421.52062,174.08968 422.81147,172.13873 425.04113,172.13871 C 426.24397,172.13873 427.18277,172.68148 427.85755,173.76695 C 428.5323,174.85246 428.89903,176.26066 428.95771,177.99157 M 451.45461,188.15705 L 448.41817,185.64868 C 447.8314,186.55815 447.274,187.21825 446.74593,187.62897 C 446.21784,188.01036 445.60175,188.20106 444.89766,188.20106 C 443.48945,188.20106 442.4773,187.49696 441.86122,186.08875 C 441.24512,184.65121 440.93707,182.70026 440.93709,180.23589 C 440.93707,177.68354 441.23045,175.71791 441.8172,174.33903 C 442.43329,172.93085 443.41611,172.22675 444.76564,172.22672 C 445.5284,172.22675 446.17384,172.4321 446.70192,172.84282 C 447.22998,173.25356 447.7874,173.92833 448.37417,174.86711 L 451.41061,172.22672 C 451.08787,171.66933 450.72116,171.14125 450.31045,170.64249 C 449.89971,170.14378 449.43031,169.71838 448.90224,169.36631 C 448.37415,168.98494 447.77273,168.69157 447.09798,168.48619 C 446.45254,168.28084 445.7191,168.17816 444.89766,168.17814 C 442.31594,168.17816 440.29165,169.19031 438.82478,171.21458 C 437.38723,173.20956 436.66846,176.24599 436.66846,180.32391 C 436.66846,184.3725 437.40189,187.3796 438.86878,189.34522 C 440.36499,191.28151 442.31594,192.24964 444.72164,192.24965 C 446.39387,192.24964 447.74339,191.88293 448.77022,191.14949 C 449.79702,190.38672 450.69182,189.38923 451.45461,188.15705 M 465.14749,187.27692 C 464.82477,187.54096 464.42871,187.77567 463.95932,187.98102 C 463.48991,188.15705 462.9765,188.24507 462.4191,188.24506 C 461.83233,188.24507 461.39226,188.06904 461.0989,187.71699 C 460.80552,187.36494 460.65883,186.77818 460.65884,185.95673 L 460.65884,172.62279 L 465.10349,172.62279 L 465.10349,168.6622 L 460.65884,168.6622 L 460.65884,159.68489 L 456.43422,161.92923 L 456.43422,168.6622 L 453.92585,168.6622 L 453.92585,172.62279 L 456.43422,172.62279 L 456.43422,186.35278 C 456.43422,188.23039 456.78627,189.6826 457.49037,190.70943 C 458.19447,191.73624 459.32397,192.24964 460.87887,192.24965 C 461.67097,192.24964 462.37508,192.14696 462.99118,191.94161 C 463.60726,191.76557 464.16467,191.5162 464.66342,191.19349 L 465.14749,187.27692 M 494.85457,168.6622 L 490.36592,168.6622 L 487.63751,179.57579 C 487.52016,180.01587 487.38813,180.54395 487.24146,181.16003 C 487.1241,181.74679 486.99208,182.34821 486.8454,182.96429 C 486.72805,183.58039 486.61069,184.15247 486.49335,184.68054 C 486.37598,185.20863 486.28798,185.61936 486.22932,185.91272 C 486.17063,185.61936 486.08261,185.20863 485.96527,184.68054 C 485.87726,184.15247 485.7599,183.59506 485.61322,183.00829 C 485.49587,182.39222 485.36384,181.7908 485.21716,181.20403 C 485.0998,180.58795 484.98245,180.05988 484.86511,179.61981 L 482.18072,168.6622 L 477.69207,168.6622 L 484.11701,191.76557 L 481.60864,199.90676 L 485.74524,199.90676 L 494.85457,168.6622 M 513.46792,180.14789 C 513.46789,178.12359 513.26254,176.36335 512.85182,174.86711 C 512.44108,173.37091 511.869,172.13873 511.13558,171.17058 C 510.43146,170.17312 509.566,169.425 508.53919,168.92625 C 507.54171,168.42753 506.42687,168.17816 505.19471,168.17814 C 502.61299,168.17816 500.57403,169.19031 499.07781,171.21458 C 497.5816,173.20956 496.83349,176.24599 496.83349,180.32391 C 496.83349,182.34821 497.02418,184.10847 497.40557,185.60468 C 497.8163,187.10091 498.38838,188.34775 499.12183,189.34522 C 499.85525,190.31336 500.72072,191.0468 501.7182,191.54554 C 502.71567,192.01495 503.81583,192.24964 505.01869,192.24965 C 507.57105,192.24964 509.61,191.25217 511.13558,189.25722 C 512.69046,187.23292 513.46789,184.19648 513.46792,180.14789 M 509.19929,180.23589 C 509.19928,182.64158 508.84723,184.57787 508.14314,186.04475 C 507.46836,187.48229 506.47089,188.20106 505.1507,188.20106 C 502.45164,188.20106 501.10211,185.546 501.10211,180.23589 C 501.10211,174.89646 502.43696,172.22675 505.10669,172.22672 C 506.42687,172.22675 507.43902,172.90151 508.14314,174.25102 C 508.84723,175.60057 509.19928,177.59553 509.19929,180.23589 M 532.26209,191.76557 L 532.26209,168.6622 L 528.03748,168.6622 L 528.03748,186.13275 C 527.62674,186.80752 527.11333,187.3356 526.49725,187.71699 C 525.91049,188.06904 525.27974,188.24507 524.60498,188.24506 C 523.54882,188.24507 522.8007,187.83434 522.36065,187.01288 C 521.94991,186.19144 521.74456,184.81257 521.74456,182.87628 L 521.74456,168.6622 L 517.51994,168.6622 L 517.51994,183.58038 C 517.51994,186.51415 517.96,188.6998 518.84013,190.13734 C 519.7496,191.54554 521.31915,192.24964 523.54883,192.24965 C 524.54629,192.24964 525.42642,192.05895 526.1892,191.67756 C 526.95198,191.26683 527.56806,190.7681 528.03748,190.18135 L 528.03748,191.76557 L 532.26209,191.76557 M 548.73423,168.97025 C 548.38217,168.73557 547.94211,168.54487 547.41404,168.39817 C 546.9153,168.2515 546.2992,168.17816 545.56578,168.17814 C 544.71498,168.17816 543.93752,168.38352 543.23344,168.79422 C 542.52933,169.17563 541.94257,169.65971 541.47318,170.24643 L 541.47318,168.6622 L 537.24856,168.6622 L 537.24856,191.76557 L 541.47318,191.76557 L 541.47318,174.29503 C 541.97191,173.59094 542.49999,173.12154 543.05741,172.88682 C 543.61481,172.6228 544.1869,172.49078 544.77366,172.49077 C 545.44841,172.49078 546.00583,172.54946 546.44591,172.66679 C 546.88596,172.78415 547.31135,172.96018 547.72209,173.19487 L 548.73423,168.97025 M 574.68222,185.42865 C 574.6822,184.48986 574.55019,183.68307 574.28617,183.00829 C 574.05145,182.30421 573.6994,181.67345 573.23001,181.11602 C 572.78993,180.55863 572.23251,180.04521 571.55776,179.57579 C 570.88299,179.10641 570.10554,178.62234 569.22542,178.12358 C 568.4333,177.68354 567.78787,177.30214 567.28915,176.97942 C 566.81973,176.62738 566.43834,176.30467 566.14497,176.01127 C 565.88092,175.71791 565.69023,175.4392 565.57289,175.17516 C 565.48487,174.8818 565.44086,174.55909 565.44087,174.20701 C 565.44086,173.62028 565.61689,173.13622 565.96895,172.7548 C 566.35033,172.37343 566.93708,172.18273 567.72921,172.18272 C 568.46263,172.18273 569.22541,172.3441 570.01754,172.66679 C 570.83898,172.96018 571.63109,173.37091 572.39389,173.89897 L 574.11014,170.33445 C 573.25933,169.65971 572.29119,169.13163 571.20571,168.75022 C 570.12021,168.36886 568.99071,168.17816 567.81721,168.17814 C 565.70491,168.17816 564.07666,168.75024 562.9325,169.89438 C 561.78834,171.00923 561.21626,172.5788 561.21626,174.60308 C 561.21626,175.51256 561.3336,176.30467 561.5683,176.97942 C 561.803,177.6542 562.12572,178.25562 562.53645,178.78368 C 562.94718,179.28243 563.4459,179.75184 564.03266,180.19189 C 564.64874,180.60263 565.30884,181.01335 566.01295,181.42407 C 566.80507,181.89348 567.47983,182.30421 568.03725,182.65625 C 568.62399,183.00831 569.09339,183.34569 569.44545,183.66839 C 569.79749,183.99112 570.04686,184.31383 570.19357,184.63654 C 570.36957,184.95926 570.45759,185.32597 570.4576,185.7367 C 570.45759,186.49949 570.17888,187.11557 569.62149,187.58497 C 569.09339,188.02504 568.35996,188.24507 567.42116,188.24506 C 565.95428,188.24507 564.16468,187.58497 562.05237,186.26478 L 560.42414,189.78528 C 561.45095,190.54807 562.58045,191.14949 563.81263,191.58956 C 565.04481,192.02962 566.27699,192.24964 567.50918,192.24965 C 569.76815,192.24964 571.52841,191.6629 572.78994,190.48939 C 574.05145,189.31589 574.6822,187.62897 574.68222,185.42865 M 594.43285,180.14789 C 594.43282,178.12359 594.22747,176.36335 593.81675,174.86711 C 593.40601,173.37091 592.83393,172.13873 592.10051,171.17058 C 591.39638,170.17312 590.53093,169.425 589.50412,168.92625 C 588.50664,168.42753 587.39181,168.17816 586.15963,168.17814 C 583.57792,168.17816 581.53896,169.19031 580.04274,171.21458 C 578.54653,173.20956 577.79842,176.24599 577.79842,180.32391 C 577.79842,182.34821 577.98911,184.10847 578.3705,185.60468 C 578.78123,187.10091 579.35331,188.34775 580.08676,189.34522 C 580.82019,190.31336 581.68565,191.0468 582.68313,191.54554 C 583.6806,192.01495 584.78076,192.24964 585.98362,192.24965 C 588.53598,192.24964 590.57493,191.25217 592.10051,189.25722 C 593.65538,187.23292 594.43282,184.19648 594.43285,180.14789 M 590.16422,180.23589 C 590.16421,182.64158 589.81216,184.57787 589.10807,186.04475 C 588.4333,187.48229 587.43581,188.20106 586.11563,188.20106 C 583.41657,188.20106 582.06704,185.546 582.06705,180.23589 C 582.06704,174.89646 583.40189,172.22675 586.07163,172.22672 C 587.39181,172.22675 588.40396,172.90151 589.10807,174.25102 C 589.81216,175.60057 590.16421,177.59553 590.16422,180.23589 M 613.35905,191.76557 L 613.35905,176.8474 C 613.35904,173.91365 612.9043,171.74268 611.99486,170.33445 C 611.11471,168.89692 609.55981,168.17816 607.33018,168.17814 C 606.33268,168.17816 605.45256,168.38352 604.68979,168.79422 C 603.927,169.17563 603.31092,169.65971 602.84151,170.24643 L 602.84151,168.6622 L 598.6169,168.6622 L 598.6169,191.76557 L 602.84151,191.76557 L 602.84151,174.29503 C 603.25224,173.62028 603.75098,173.10688 604.33774,172.7548 C 604.95382,172.37343 605.59924,172.18273 606.27402,172.18272 C 607.33016,172.18273 608.0636,172.59346 608.47434,173.4149 C 608.91439,174.23636 609.13442,175.61524 609.13444,177.5515 L 609.13444,191.76557 L 613.35905,191.76557 M 632.91166,189.74128 L 632.91166,168.6622 L 628.68704,168.6622 L 628.68704,169.89438 C 627.57219,168.75024 626.23734,168.17816 624.68246,168.17814 C 622.39412,168.17816 620.60452,169.17563 619.31367,171.17058 C 618.05215,173.16555 617.42139,176.0993 617.42139,179.97186 C 617.42139,182.26019 617.58275,184.19648 617.90547,185.7807 C 618.25752,187.3356 618.72692,188.59712 619.31367,189.56525 C 619.92976,190.5334 620.6632,191.22283 621.51399,191.63356 C 622.36478,192.04428 623.31825,192.24964 624.37441,192.24965 C 625.40122,192.24964 626.23734,192.05895 626.88278,191.67756 C 627.52819,191.29617 628.12961,190.79744 628.68704,190.18135 L 628.68704,190.35736 C 628.68703,191.44286 628.58434,192.35233 628.37899,193.08577 C 628.20295,193.84854 627.88024,194.4793 627.41085,194.97804 C 626.94143,195.50612 626.28135,195.90217 625.43056,196.16622 C 624.60911,196.45959 623.56762,196.69429 622.3061,196.87032 L 623.49428,200.25882 C 625.25453,200.08278 626.72141,199.7454 627.89493,199.24667 C 629.09776,198.74792 630.06589,198.05848 630.79935,197.17837 C 631.56211,196.32758 632.10486,195.28609 632.42758,194.05391 C 632.75028,192.82173 632.91163,191.38419 632.91166,189.74128 M 628.68704,186.17676 C 628.30564,186.79286 627.8069,187.30626 627.19082,187.71699 C 626.60406,188.09838 625.95863,188.28907 625.25454,188.28907 C 624.02235,188.28907 623.11288,187.62897 622.52614,186.30878 C 621.96872,184.95926 621.69001,182.77361 621.69002,179.75182 C 621.69001,177.02345 621.96872,175.07249 622.52614,173.89897 C 623.08354,172.72549 623.91967,172.13873 625.03451,172.13871 C 625.70926,172.13873 626.36935,172.31476 627.0148,172.66679 C 627.66021,172.98952 628.21763,173.50293 628.68704,174.20701 L 628.68704,186.17676"
     id="text3344" />
  <rect
     style="fill:#ffffff;fill-opacity:0.27391306"
     id="rect3394"
     width="963.69421"
     height="287.71768"
     x="18.427809"
     y="230.06129"
     ry="29.636"
     rx="30" />
  <text
     xml:space="preserve"
     style="font-size:24.89476013px;font-style:normal;font-weight:normal;fill:#000000;fill-opacity:1;stroke:none;stroke-width:1px;stroke-linecap:butt;stroke-linejoin:miter;stroke-opacity:1;font-family:Bitstream Vera Sans"
     x="266.96185"
     y="759.88806"
     id="text2508"><tspan
       sodipodi:role="line"
       id="tspan2510"
       x="266.96185"
       y="759.88806" /></text>
  <rect
     y="-803.22668"
     x="-133.35791"
     height="184.88524"
     width="1241.3727"
     id="rect6051"
     style="fill:url(#linearGradient3242);fill-opacity:1"
     transform="scale(1,-1)" />
  <g
     id="g3234"
     transform="matrix(-0.5689916,-0.3718884,0.3718884,-0.5689916,163.78076,844.70309)">
    <path
       sodipodi:type="star"
       style="opacity:0.22790701;fill:#ffffff;fill-opacity:1;fill-rule:nonzero;stroke:#ffffff;stroke-width:1.70000005;stroke-linecap:round;stroke-linejoin:round;marker:none;marker-start:none;marker-mid:none;marker-end:none;stroke-miterlimit:4;stroke-dasharray:none;stroke-dashoffset:0;stroke-opacity:1;visibility:visible;display:block;overflow:visible"
       id="path3320"
       sodipodi:sides="5"
       sodipodi:cx="141.42136"
       sodipodi:cy="350.13498"
       sodipodi:r1="78.688225"
       sodipodi:r2="45.665279"
       sodipodi:arg1="1.0612041"
       sodipodi:arg2="1.6895226"
       inkscape:flatsided="false"
       inkscape:rounded="0"
       inkscape:randomized="0"
       d="M 179.80715,418.82535 L 136.01242,395.47879 L 87.954791,407.86853 L 96.625376,359.00278 L 69.991407,317.1259 L 119.14486,310.27177 L 150.74179,272.0007 L 172.4497,316.63036 L 218.61165,334.85441 L 182.87443,369.29119 L 179.80715,418.82535 z"
       transform="matrix(0.61918,-0.2560053,0.2560053,0.61918,-54.25005,513.04807)" />
    <path
       transform="matrix(0.5386293,1.6017762e-2,-1.6017762e-2,0.5386293,1.2739842,431.73805)"
       d="M 179.80715,418.82535 L 136.01242,395.47879 L 87.954791,407.86853 L 96.625376,359.00278 L 69.991407,317.1259 L 119.14486,310.27177 L 150.74179,272.0007 L 172.4497,316.63036 L 218.61165,334.85441 L 182.87443,369.29119 L 179.80715,418.82535 z"
       inkscape:randomized="0"
       inkscape:rounded="0"
       inkscape:flatsided="false"
       sodipodi:arg2="1.6895226"
       sodipodi:arg1="1.0612041"
       sodipodi:r2="45.665279"
       sodipodi:r1="78.688225"
       sodipodi:cy="350.13498"
       sodipodi:cx="141.42136"
       sodipodi:sides="5"
       id="path3322"
       style="opacity:0.22790701;fill:#ffffff;fill-opacity:1;fill-rule:nonzero;stroke:#ffffff;stroke-width:1.70000005;stroke-linecap:round;stroke-linejoin:round;marker:none;marker-start:none;marker-mid:none;marker-end:none;stroke-miterlimit:4;stroke-dasharray:none;stroke-dashoffset:0;stroke-opacity:1;visibility:visible;display:block;overflow:visible"
       sodipodi:type="star" />
    <path
       sodipodi:type="star"
       style="opacity:0.22790701;fill:#ffffff;fill-opacity:1;fill-rule:nonzero;stroke:#ffffff;stroke-width:1.70000005;stroke-linecap:round;stroke-linejoin:round;marker:none;marker-start:none;marker-mid:none;marker-end:none;stroke-miterlimit:4;stroke-dasharray:none;stroke-dashoffset:0;stroke-opacity:1;visibility:visible;display:block;overflow:visible"
       id="path3324"
       sodipodi:sides="5"
       sodipodi:cx="141.42136"
       sodipodi:cy="350.13498"
       sodipodi:r1="78.688225"
       sodipodi:r2="45.665279"
       sodipodi:arg1="1.0612041"
       sodipodi:arg2="1.6895226"
       inkscape:flatsided="false"
       inkscape:rounded="0"
       inkscape:randomized="0"
       d="M 179.80715,418.82535 L 136.01242,395.47879 L 87.954791,407.86853 L 96.625376,359.00278 L 69.991407,317.1259 L 119.14486,310.27177 L 150.74179,272.0007 L 172.4497,316.63036 L 218.61165,334.85441 L 182.87443,369.29119 L 179.80715,418.82535 z"
       transform="matrix(0.3865484,-0.1970619,0.1970619,0.3865484,9.9541995,456.30955)" />
    <path
       transform="matrix(0.2737005,6.830928e-2,-6.830928e-2,0.2737005,66.193288,406.91088)"
       d="M 179.80715,418.82535 L 136.01242,395.47879 L 87.954791,407.86853 L 96.625376,359.00278 L 69.991407,317.1259 L 119.14486,310.27177 L 150.74179,272.0007 L 172.4497,316.63036 L 218.61165,334.85441 L 182.87443,369.29119 L 179.80715,418.82535 z"
       inkscape:randomized="0"
       inkscape:rounded="0"
       inkscape:flatsided="false"
       sodipodi:arg2="1.6895226"
       sodipodi:arg1="1.0612041"
       sodipodi:r2="45.665279"
       sodipodi:r1="78.688225"
       sodipodi:cy="350.13498"
       sodipodi:cx="141.42136"
       sodipodi:sides="5"
       id="path3326"
       style="opacity:0.22790701;fill:#ffffff;fill-opacity:1;fill-rule:nonzero;stroke:#ffffff;stroke-width:1.70000005;stroke-linecap:round;stroke-linejoin:round;marker:none;marker-start:none;marker-mid:none;marker-end:none;stroke-miterlimit:4;stroke-dasharray:none;stroke-dashoffset:0;stroke-opacity:1;visibility:visible;display:block;overflow:visible"
       sodipodi:type="star" />
    <path
       sodipodi:type="star"
       style="opacity:0.22790701;fill:#ffffff;fill-opacity:1;fill-rule:nonzero;stroke:#ffffff;stroke-width:1.70000005;stroke-linecap:round;stroke-linejoin:round;marker:none;marker-start:none;marker-mid:none;marker-end:none;stroke-miterlimit:4;stroke-dasharray:none;stroke-dashoffset:0;stroke-opacity:1;visibility:visible;display:block;overflow:visible"
       id="path3328"
       sodipodi:sides="5"
       sodipodi:cx="141.42136"
       sodipodi:cy="350.13498"
       sodipodi:r1="78.688225"
       sodipodi:r2="45.665279"
       sodipodi:arg1="1.0612041"
       sodipodi:arg2="1.6895226"
       inkscape:flatsided="false"
       inkscape:rounded="0"
       inkscape:randomized="0"
       d="M 179.80715,418.82535 L 136.01242,395.47879 L 87.954791,407.86853 L 96.625376,359.00278 L 69.991407,317.1259 L 119.14486,310.27177 L 150.74179,272.0007 L 172.4497,316.63036 L 218.61165,334.85441 L 182.87443,369.29119 L 179.80715,418.82535 z"
       transform="matrix(0.2054764,1.2482009e-2,-1.2482009e-2,0.2054764,96.575936,402.6891)" />
    <path
       transform="matrix(0.9586287,6.499926e-2,-6.499926e-2,0.9586287,-59.955145,434.97636)"
       d="M 179.80715,418.82535 L 136.01242,395.47879 L 87.954791,407.86853 L 96.625376,359.00278 L 69.991407,317.1259 L 119.14486,310.27177 L 150.74179,272.0007 L 172.4497,316.63036 L 218.61165,334.85441 L 182.87443,369.29119 L 179.80715,418.82535 z"
       inkscape:randomized="0"
       inkscape:rounded="0"
       inkscape:flatsided="false"
       sodipodi:arg2="1.6895226"
       sodipodi:arg1="1.0612041"
       sodipodi:r2="45.665279"
       sodipodi:r1="78.688225"
       sodipodi:cy="350.13498"
       sodipodi:cx="141.42136"
       sodipodi:sides="5"
       id="path3332"
       style="opacity:0.22790701;fill:#ffffff;fill-opacity:1;fill-rule:nonzero;stroke:#ffffff;stroke-width:1.70000005;stroke-linecap:round;stroke-linejoin:round;marker:none;marker-start:none;marker-mid:none;marker-end:none;stroke-miterlimit:4;stroke-dasharray:none;stroke-dashoffset:0;stroke-opacity:1;visibility:visible;display:block;overflow:visible"
       sodipodi:type="star" />
  </g>
  <g
     id="g3252"
     transform="matrix(0.7343877,0,0,0.7343877,-18.359489,-23.369665)">
    <path
       id="text2444"
       d="M 48.245249,159.13305 L 48.245249,195.28878 L 58.991295,195.28878 C 62.968143,195.28883 66.042473,193.72058 68.214283,190.58403 C 70.386013,187.44758 71.471903,182.97914 71.471943,177.17869 C 71.471903,171.42135 70.386013,166.97439 68.214283,163.83781 C 66.042473,160.70139 62.968143,159.13314 58.991295,159.13305 L 48.245249,159.13305 M 39.69918,148.43457 L 58.991295,148.43457 C 66.070683,148.43466 71.415493,150.88371 75.025753,155.78172 C 78.664133,160.63694 80.483343,167.76926 80.483393,177.17869 C 80.483343,186.67419 78.664133,193.84947 75.025753,198.70457 C 71.415493,203.55974 66.070683,205.98731 58.991295,205.98727 L 48.245249,205.98727 L 48.245249,244.6565 L 39.69918,244.6565 L 39.69918,148.43457 M 129.13676,205.60057 L 129.13676,211.40096 L 93.344813,211.40096 C 93.683253,219.56449 95.290923,225.79453 98.167833,230.09109 C 101.07291,234.34471 105.1062,236.47152 110.26771,236.4715 C 113.25739,236.47152 116.14839,235.91296 118.9407,234.79584 C 121.76114,233.67874 124.55343,232.00307 127.31754,229.76884 L 127.31754,240.98292 C 124.52522,242.78748 121.66243,244.16239 118.72916,245.10764 C 115.79583,246.05288 112.82022,246.52551 109.80233,246.52551 C 102.24341,246.52551 96.249893,243.17418 91.821743,236.4715 C 87.421783,229.76885 85.221803,220.70308 85.221813,209.27415 C 85.221803,197.4586 87.308953,188.09206 91.483283,181.17452 C 95.685793,174.21412 101.34086,170.7339 108.4485,170.73382 C 114.82276,170.7339 119.85732,173.8704 123.5522,180.14334 C 127.27519,186.37343 129.13671,194.85918 129.13676,205.60057 M 121.35222,202.12035 C 121.29576,195.63255 120.09707,190.45518 117.7561,186.5882 C 115.44326,182.72134 112.36894,180.78788 108.53312,180.78782 C 104.18954,180.78788 100.70625,182.65689 98.083223,186.39486 C 95.488353,190.13294 93.993503,195.39625 93.598653,202.18479 L 121.35222,202.12035 M 169.37098,183.55912 C 168.49659,182.7858 167.53763,182.22724 166.49409,181.88346 C 165.47868,181.49682 164.35049,181.30347 163.1095,181.30341 C 158.70952,181.30347 155.32494,183.49473 152.95576,187.87718 C 150.61474,192.21678 149.44424,198.46829 149.44425,206.63175 L 149.44425,244.6565 L 141.61741,244.6565 L 141.61741,172.47394 L 149.44425,172.47394 L 149.44425,183.68801 C 151.08012,179.30557 153.20958,176.06166 155.83265,173.95625 C 158.45568,171.80804 161.64282,170.7339 165.3941,170.73382 C 165.92996,170.7339 166.52226,170.79835 167.171,170.92717 C 167.81968,171.01317 168.5389,171.16355 169.32867,171.37831 L 169.37098,183.55912 M 201.60912,144.3743 L 201.60912,154.23495 L 194.16304,154.23495 C 191.37074,154.23504 189.4246,155.09436 188.32464,156.8129 C 187.25284,158.53162 186.71695,161.62515 186.71696,166.09352 L 186.71696,172.47394 L 199.53607,172.47394 L 199.53607,181.6901 L 186.71696,181.6901 L 186.71696,244.6565 L 178.89011,244.6565 L 178.89011,181.6901 L 171.44403,181.6901 L 171.44403,172.47394 L 178.89011,172.47394 L 178.89011,167.44694 C 178.89011,159.41242 180.11701,153.56907 182.57085,149.91689 C 185.02466,146.22193 188.91692,144.3744 194.24765,144.3743 L 201.60912,144.3743 M 226.44348,180.78782 C 222.26914,180.78788 218.96918,183.2799 216.54358,188.26387 C 214.11795,193.20499 212.90514,199.99358 212.90515,208.62967 C 212.90514,217.26582 214.10385,224.0759 216.50128,229.05991 C 218.92687,234.00099 222.24094,236.47152 226.44348,236.4715 C 230.58956,236.47152 233.87542,233.9795 236.30108,228.99545 C 238.72665,224.01144 239.93946,217.22285 239.9395,208.62967 C 239.93946,200.07951 238.72665,193.31241 236.30108,188.32832 C 233.87542,183.30139 230.58956,180.78788 226.44348,180.78782 M 226.44348,170.73382 C 233.21261,170.7339 238.52922,174.08523 242.39332,180.78782 C 246.25734,187.49055 248.18938,196.77115 248.18942,208.62967 C 248.18938,220.44528 246.25734,229.72589 242.39332,236.4715 C 238.52922,243.17418 233.21261,246.52551 226.44348,246.52551 C 219.64609,246.52551 214.31538,243.17418 210.45133,236.4715 C 206.61547,229.72589 204.69754,220.44528 204.69754,208.62967 C 204.69754,196.77115 206.61547,187.49055 210.45133,180.78782 C 214.31538,174.08523 219.64609,170.7339 226.44348,170.73382 M 288.50826,183.55912 C 287.63387,182.7858 286.67491,182.22724 285.63136,181.88346 C 284.61595,181.49682 283.48776,181.30347 282.24678,181.30341 C 277.8468,181.30347 274.46222,183.49473 272.09303,187.87718 C 269.75201,192.21678 268.58151,198.46829 268.58153,206.63175 L 268.58153,244.6565 L 260.75469,244.6565 L 260.75469,172.47394 L 268.58153,172.47394 L 268.58153,183.68801 C 270.21739,179.30557 272.34686,176.06166 274.96993,173.95625 C 277.59295,171.80804 280.7801,170.7339 284.53138,170.73382 C 285.06724,170.7339 285.65954,170.79835 286.30827,170.92717 C 286.95696,171.01317 287.67618,171.16355 288.46595,171.37831 L 288.50826,183.55912 M 332.12707,186.33041 C 334.07316,181.00271 336.40006,177.07135 339.10777,174.5363 C 341.81538,172.00139 345.00252,170.7339 348.66922,170.73382 C 353.605,170.7339 357.41265,173.3763 360.09218,178.66102 C 362.77156,183.90291 364.1113,191.37894 364.11137,201.08917 L 364.11137,244.6565 L 356.28453,244.6565 L 356.28453,201.47585 C 356.28445,194.55841 355.48062,189.42401 353.87301,186.07261 C 352.26527,182.72134 349.81145,181.04568 346.51154,181.04562 C 342.47819,181.04568 339.29105,183.08656 336.9501,187.16825 C 334.60905,191.25005 333.43855,196.81412 333.4386,203.86047 L 333.4386,244.6565 L 325.61175,244.6565 L 325.61175,201.47585 C 325.61171,194.51544 324.80788,189.38104 323.20023,186.07261 C 321.59252,182.72134 319.1105,181.04568 315.75415,181.04562 C 311.77724,181.04568 308.6183,183.10803 306.27732,187.23269 C 303.9363,191.31449 302.7658,196.85708 302.76582,203.86047 L 302.76582,244.6565 L 294.93898,244.6565 L 294.93898,172.47394 L 302.76582,172.47394 L 302.76582,183.68801 C 304.54271,179.2626 306.67217,175.9972 309.15422,173.89181 C 311.63623,171.78656 314.58363,170.7339 317.99644,170.73382 C 321.4374,170.7339 324.3566,172.06583 326.75405,174.72964 C 329.17962,177.39359 330.97063,181.26051 332.12707,186.33041 M 398.04179,180.78782 C 393.86745,180.78788 390.56748,183.2799 388.14188,188.26387 C 385.71625,193.20499 384.50345,199.99358 384.50346,208.62967 C 384.50345,217.26582 385.70215,224.0759 388.09958,229.05991 C 390.52518,234.00099 393.83924,236.47152 398.04179,236.4715 C 402.18787,236.47152 405.47373,233.9795 407.89938,228.99545 C 410.32496,224.01144 411.53777,217.22285 411.53781,208.62967 C 411.53777,200.07951 410.32496,193.31241 407.89938,188.32832 C 405.47373,183.30139 402.18787,180.78788 398.04179,180.78782 M 398.04179,170.73382 C 404.81092,170.7339 410.12752,174.08523 413.99163,180.78782 C 417.85565,187.49055 419.78768,196.77115 419.78773,208.62967 C 419.78768,220.44528 417.85565,229.72589 413.99163,236.4715 C 410.12752,243.17418 404.81092,246.52551 398.04179,246.52551 C 391.2444,246.52551 385.91368,243.17418 382.04964,236.4715 C 378.21377,229.72589 376.29584,220.44528 376.29585,208.62967 C 376.29584,196.77115 378.21377,187.49055 382.04964,180.78782 C 385.91368,174.08523 391.2444,170.7339 398.04179,170.73382 M 431.8453,216.17017 L 431.8453,172.47394 L 439.62983,172.47394 L 439.62983,215.71902 C 439.62983,222.55061 440.50417,227.68502 442.25289,231.12227 C 444.00157,234.51658 446.62462,236.21372 450.12204,236.21372 C 454.32454,236.21372 457.6386,234.17286 460.06426,230.09109 C 462.51803,226.00936 463.74494,220.44528 463.74498,213.39887 L 463.74498,172.47394 L 471.52952,172.47394 L 471.52952,244.6565 L 463.74498,244.6565 L 463.74498,233.57131 C 461.85522,237.95384 459.65524,241.21923 457.14505,243.36752 C 454.663,245.47284 451.772,246.52551 448.47206,246.52551 C 443.0285,246.52551 438.8965,243.94757 436.07603,238.79167 C 433.25553,233.63578 431.84529,226.09529 431.8453,216.17017 M 451.43357,170.73382 L 451.43357,170.73382 M 517.85602,174.60075 L 517.85602,185.81482 C 515.656,184.09625 513.37142,182.80727 511.00224,181.94789 C 508.633,181.08864 506.17918,180.65899 503.64077,180.65893 C 499.77669,180.65899 496.87159,181.56127 494.92547,183.36577 C 493.00753,185.1704 492.04857,187.87723 492.04859,191.48631 C 492.04857,194.23617 492.73959,196.40594 494.12164,197.99563 C 495.50366,199.54244 498.28184,201.02476 502.45617,202.44258 L 505.12153,203.34488 C 510.64965,205.14947 514.57012,207.70594 516.88295,211.01427 C 519.22392,214.2797 520.39442,218.85556 520.39446,224.74184 C 520.39442,231.44452 518.64571,236.7508 515.14836,240.66067 C 511.67913,244.57056 506.89841,246.52551 500.80619,246.52551 C 498.26773,246.52551 495.61648,246.13881 492.85242,245.36544 C 490.11654,244.63501 487.22555,243.5179 484.17943,242.01411 L 484.17943,229.76884 C 487.05632,232.04605 489.8909,233.76468 492.6832,234.92474 C 495.47546,236.04187 498.23953,236.60042 500.97542,236.60041 C 504.64202,236.60042 507.46251,235.65517 509.43687,233.76467 C 511.41118,231.83122 512.39835,229.12437 512.39838,225.64412 C 512.39835,222.42171 511.67913,219.95118 510.24071,218.23252 C 508.83044,216.51392 505.71381,214.85974 500.8908,213.26998 L 498.18314,212.30325 C 493.3601,210.75651 489.8768,208.39339 487.73324,205.21388 C 485.58966,201.99149 484.51788,197.5875 484.51789,192.0019 C 484.51788,185.21336 486.09735,179.97153 489.2563,176.27641 C 492.41523,172.58142 496.8998,170.7339 502.71001,170.73382 C 505.58689,170.7339 508.29455,171.05614 510.83301,171.70055 C 513.37142,172.34511 515.71241,173.31184 517.85602,174.60075"
       style="font-size:106.94109344px;font-style:normal;font-variant:normal;font-weight:normal;font-stretch:normal;fill:#ffffff;fill-opacity:1;stroke:none;stroke-width:1px;stroke-linecap:butt;stroke-linejoin:miter;stroke-opacity:1;font-family:Lohit Gujarati;-inkscape-font-specification:Lohit Gujarati" />
    <path
       id="text3222"
       d="M 48.245244,297.08252 L 48.245244,278.62396 L 58.99129,278.62396 C 62.968141,278.62394 66.042465,279.42457 68.214273,281.02587 C 70.386007,282.62712 71.471893,284.9084 71.471933,287.86969 C 71.471893,290.80898 70.386007,293.07929 68.214273,294.6806 C 66.042465,296.28184 62.968141,297.08247 58.99129,297.08252 L 48.245244,297.08252 M 39.699177,302.54441 L 58.99129,302.54441 C 66.070671,302.54436 71.415483,301.29405 75.025741,298.79347 C 78.664123,296.31474 80.483326,292.67348 80.483382,287.86969 C 80.483326,283.02196 78.664123,279.35876 75.025741,276.88011 C 71.415483,274.40139 66.070671,273.16205 58.99129,273.16207 L 48.245244,273.16207 L 48.245244,253.4203 L 39.699177,253.4203 L 39.699177,302.54441 M 129.13673,273.35949 L 129.13673,270.39822 L 93.34479,270.39822 C 93.683237,266.2305 95.290903,263.04988 98.167822,260.85636 C 101.0729,258.68477 105.10618,257.59897 110.2677,257.59898 C 113.25738,257.59897 116.14837,257.88412 118.94068,258.45445 C 121.76113,259.02476 124.5534,259.88024 127.31753,261.02088 L 127.31753,255.29577 C 124.5252,254.37448 121.66241,253.67255 118.72915,253.18998 C 115.79581,252.7074 112.8202,252.46611 109.80232,252.46611 C 102.24339,252.46611 96.249876,254.17707 91.821727,257.59898 C 87.421768,261.02087 85.221788,265.64922 85.221788,271.48402 C 85.221788,277.51621 87.308941,282.29809 91.483268,285.82971 C 95.685774,289.38319 101.34085,291.15995 108.44848,291.15999 C 114.82275,291.15995 119.8573,289.55867 123.55218,286.35616 C 127.27516,283.17551 129.13668,278.84329 129.13673,273.35949 M 121.3522,275.13625 C 121.29575,278.44845 120.09704,281.09165 117.75608,283.06586 C 115.44325,285.04001 112.36892,286.02709 108.5331,286.02713 C 104.18953,286.02709 100.70624,285.07291 98.083207,283.16457 C 95.488344,281.25617 93.993483,278.56909 93.598633,275.10334 L 121.3522,275.13625 M 169.37095,284.6123 C 168.49655,285.00711 167.53759,285.29226 166.49405,285.46777 C 165.47864,285.66516 164.35045,285.76387 163.10947,285.7639 C 158.70949,285.76387 155.32491,284.64517 152.95573,282.4078 C 150.61471,280.19231 149.44421,277.00072 149.44422,272.83304 L 149.44422,253.4203 L 141.61738,253.4203 L 141.61738,290.27161 L 149.44422,290.27161 L 149.44422,284.54649 C 151.08009,286.78386 153.20955,288.43997 155.83262,289.51484 C 158.45564,290.61157 161.64278,291.15995 165.39406,291.15999 C 165.92992,291.15995 166.52222,291.12704 167.17097,291.06128 C 167.81964,291.01737 168.53886,290.9406 169.32864,290.83096 L 169.37095,284.6123 M 201.60908,304.61729 L 201.60908,299.58314 L 194.163,299.58314 C 191.3707,299.5831 189.42457,299.14439 188.32459,298.26703 C 187.25279,297.38957 186.7169,295.81023 186.71693,293.529 L 186.71693,290.27161 L 199.53603,290.27161 L 199.53603,285.56648 L 186.71693,285.56648 L 186.71693,253.4203 L 178.89008,253.4203 L 178.89008,285.56648 L 171.444,285.56648 L 171.444,290.27161 L 178.89008,290.27161 L 178.89008,292.83803 C 178.89007,296.93989 180.11698,299.92309 182.57081,301.78764 C 185.02461,303.67402 188.91688,304.61725 194.24762,304.61729 L 201.60908,304.61729 M 226.44343,286.02713 C 222.2691,286.02709 218.96914,284.75484 216.54354,282.21038 C 214.1179,279.68779 212.9051,276.22202 212.90511,271.81305 C 212.9051,267.40404 214.10381,263.92729 216.50123,261.38281 C 218.92683,258.86024 222.24089,257.59897 226.44343,257.59898 C 230.58952,257.59897 233.87538,258.87121 236.30103,261.41571 C 238.72661,263.9602 239.93942,267.42597 239.93945,271.81305 C 239.93942,276.17815 238.72661,279.63296 236.30103,282.17748 C 233.87538,284.74388 230.58952,286.02709 226.44343,286.02713 M 226.44343,291.15999 C 233.21257,291.15995 238.52917,289.449 242.39327,286.02713 C 246.2573,282.60519 248.18933,277.86717 248.18937,271.81305 C 248.18933,265.78083 246.2573,261.04281 242.39327,257.59898 C 238.52917,254.17707 233.21257,252.46611 226.44343,252.46611 C 219.64605,252.46611 214.31535,254.17707 210.45129,257.59898 C 206.61543,261.04281 204.69749,265.78083 204.69751,271.81305 C 204.69749,277.86717 206.61543,282.60519 210.45129,286.02713 C 214.31535,289.449 219.64605,291.15995 226.44343,291.15999 M 288.50819,284.6123 C 287.63381,285.00711 286.67484,285.29226 285.6313,285.46777 C 284.61589,285.66516 283.4877,285.76387 282.24671,285.7639 C 277.84673,285.76387 274.46216,284.64517 272.09297,282.4078 C 269.75196,280.19231 268.58146,277.00072 268.58147,272.83304 L 268.58147,253.4203 L 260.75463,253.4203 L 260.75463,290.27161 L 268.58147,290.27161 L 268.58147,284.54649 C 270.21734,286.78386 272.3468,288.43997 274.96987,289.51484 C 277.59289,290.61157 280.78004,291.15995 284.53131,291.15999 C 285.06717,291.15995 285.65948,291.12704 286.30822,291.06128 C 286.9569,291.01737 287.67612,290.9406 288.46589,290.83096 L 288.50819,284.6123 M 332.12698,283.19747 C 334.07306,285.91742 336.39997,287.92449 339.10768,289.21871 C 341.81529,290.51286 345.00243,291.15995 348.66913,291.15999 C 353.60491,291.15995 357.41255,289.81093 360.09209,287.11292 C 362.77147,284.43679 364.1112,280.62005 364.11127,275.6627 L 364.11127,253.4203 L 356.28443,253.4203 L 356.28443,275.46528 C 356.28436,278.99683 355.48052,281.6181 353.87291,283.32908 C 352.26518,285.04001 349.81136,285.89548 346.51145,285.89551 C 342.4781,285.89548 339.29096,284.85355 336.95001,282.76973 C 334.60896,280.68585 333.43845,277.84524 333.43851,274.24787 L 333.43851,253.4203 L 325.61166,253.4203 L 325.61166,275.46528 C 325.61163,279.01877 324.80779,281.64004 323.20015,283.32908 C 321.59243,285.04001 319.11041,285.89548 315.75407,285.89551 C 311.77716,285.89548 308.61822,284.84259 306.27724,282.73683 C 303.93622,280.65295 302.76572,277.82329 302.76574,274.24787 L 302.76574,253.4203 L 294.93889,253.4203 L 294.93889,290.27161 L 302.76574,290.27161 L 302.76574,284.54649 C 304.54263,286.80579 306.67209,288.47287 309.15413,289.54774 C 311.63614,290.62254 314.58354,291.15995 317.99636,291.15999 C 321.43731,291.15995 324.35651,290.47995 326.75396,289.12001 C 329.17953,287.75998 330.97054,285.78581 332.12698,283.19747 M 398.0417,286.02713 C 393.86736,286.02709 390.5674,284.75484 388.1418,282.21038 C 385.71617,279.68779 384.50336,276.22202 384.50337,271.81305 C 384.50336,267.40404 385.70207,263.92729 388.09949,261.38281 C 390.52509,258.86024 393.83916,257.59897 398.0417,257.59898 C 402.18778,257.59897 405.47364,258.87121 407.8993,261.41571 C 410.32488,263.9602 411.53768,267.42597 411.53771,271.81305 C 411.53768,276.17815 410.32488,279.63296 407.8993,282.17748 C 405.47364,284.74388 402.18778,286.02709 398.0417,286.02713 M 398.0417,291.15999 C 404.81083,291.15995 410.12743,289.449 413.99154,286.02713 C 417.85555,282.60519 419.78758,277.86717 419.78764,271.81305 C 419.78758,265.78083 417.85555,261.04281 413.99154,257.59898 C 410.12743,254.17707 404.81083,252.46611 398.0417,252.46611 C 391.24432,252.46611 385.9136,254.17707 382.04955,257.59898 C 378.21369,261.04281 376.29576,265.78083 376.29577,271.81305 C 376.29576,277.86717 378.21369,282.60519 382.04955,286.02713 C 385.9136,289.449 391.24432,291.15995 398.0417,291.15999 M 431.84522,267.96341 L 431.84522,290.27161 L 439.62976,290.27161 L 439.62976,268.19373 C 439.62974,264.706 440.5041,262.08474 442.25281,260.32992 C 444.00148,258.59703 446.62454,257.73058 450.12196,257.73059 C 454.32445,257.73058 457.63852,258.7725 460.06416,260.85636 C 462.51795,262.94021 463.74486,265.78083 463.7449,269.37823 L 463.7449,290.27161 L 471.52944,290.27161 L 471.52944,253.4203 L 463.7449,253.4203 L 463.7449,259.0796 C 461.85514,256.8422 459.65516,255.17512 457.14497,254.07836 C 454.66291,253.00353 451.77192,252.46611 448.47197,252.46611 C 443.02843,252.46611 438.89642,253.78223 436.07595,256.41447 C 433.25545,259.0467 431.84522,262.89634 431.84522,267.96341 M 451.43348,291.15999 L 451.43348,291.15999 M 517.85589,289.18581 L 517.85589,283.46069 C 515.65587,284.33808 513.37128,284.99614 511.00211,285.43487 C 508.63287,285.87355 506.17906,286.0929 503.64064,286.09293 C 499.77656,286.0929 496.87147,285.63225 494.92535,284.71101 C 493.00741,283.7897 492.04845,282.40777 492.04846,280.56523 C 492.04845,279.16135 492.73946,278.05362 494.12151,277.24204 C 495.50354,276.45234 498.28171,275.69557 502.45604,274.97173 L 505.1214,274.51109 C 510.64952,273.58979 514.56999,272.28464 516.88282,270.59564 C 519.22378,268.92854 520.39428,266.59243 520.39432,263.58731 C 520.39428,260.1654 518.64558,257.45639 515.14822,255.46028 C 511.679,253.46417 506.89828,252.46611 500.80606,252.46611 C 498.26761,252.46611 495.61635,252.66353 492.8523,253.05837 C 490.11642,253.43127 487.22542,254.00158 484.1793,254.76932 L 484.1793,261.02088 C 487.0562,259.8583 489.89077,258.98089 492.68307,258.38864 C 495.47533,257.81832 498.23941,257.53316 500.97529,257.53317 C 504.64189,257.53316 507.46237,258.01574 509.43674,258.98089 C 511.41105,259.96798 512.39822,261.3499 512.39826,263.12667 C 512.39822,264.77181 511.679,266.03308 510.24058,266.91051 C 508.83031,267.7879 505.71368,268.63242 500.89067,269.44403 L 498.18301,269.93758 C 493.35997,270.72723 489.87668,271.93368 487.73311,273.5569 C 485.58955,275.20204 484.51776,277.4504 484.51776,280.30202 C 484.51776,283.76775 486.09722,286.44387 489.25617,288.33033 C 492.4151,290.21673 496.89967,291.15995 502.70988,291.15999 C 505.58676,291.15995 508.29441,290.99543 510.83289,290.66645 C 513.37128,290.33737 515.71229,289.84384 517.85589,289.18581"
       style="font-size:76.41082001px;font-style:normal;font-variant:normal;font-weight:normal;font-stretch:normal;fill:url(#linearGradient3248);fill-opacity:1;stroke:none;stroke-width:1px;stroke-linecap:butt;stroke-linejoin:miter;stroke-opacity:1;font-family:Lohit Gujarati;-inkscape-font-specification:Lohit Gujarati" />
  </g>
</svg>
