<?xml version="1.0" encoding="UTF-8" standalone="no"?>
<!-- Created with Sodipodi ("http://www.sodipodi.com/") -->
<svg
   xmlns:dc="http://purl.org/dc/elements/1.1/"
   xmlns:cc="http://creativecommons.org/ns#"
   xmlns:rdf="http://www.w3.org/1999/02/22-rdf-syntax-ns#"
   xmlns:svg="http://www.w3.org/2000/svg"
   xmlns="http://www.w3.org/2000/svg"
   xmlns:xlink="http://www.w3.org/1999/xlink"
   xmlns:sodipodi="http://sodipodi.sourceforge.net/DTD/sodipodi-0.dtd"
   xmlns:inkscape="http://www.inkscape.org/namespaces/inkscape"
   version="1.0"
   x="0"
   y="0"
   width="1000"
   height="800"
   id="svg559"
   sodipodi:version="0.32"
   inkscape:version="0.46"
   sodipodi:docname="songs_bg.svg"
   sodipodi:docbase="/home/jesusda/downloads/testcoming/game-ultrastar-ng/UltraStar-ng-0.1.0/themes/default"
   inkscape:output_extension="org.inkscape.output.svg.inkscape">
  <metadata
     id="metadata35">
    <rdf:RDF>
      <cc:Work
         rdf:about="">
        <dc:format>image/svg+xml</dc:format>
        <dc:type
           rdf:resource="http://purl.org/dc/dcmitype/StillImage" />
      </cc:Work>
    </rdf:RDF>
  </metadata>
  <sodipodi:namedview
     inkscape:window-height="801"
     inkscape:window-width="1440"
     inkscape:pageshadow="2"
     inkscape:pageopacity="0.0"
     guidetolerance="10.0"
     gridtolerance="10.0"
     objecttolerance="10.0"
     borderopacity="1.0"
     bordercolor="#666666"
     pagecolor="#ffffff"
     id="base"
     inkscape:zoom="1.1098204"
     inkscape:cx="487.32843"
     inkscape:cy="757.06061"
     inkscape:window-x="0"
     inkscape:window-y="25"
     inkscape:current-layer="svg559"
     showgrid="false" />
  <defs
     id="defs561">
    <inkscape:perspective
       sodipodi:type="inkscape:persp3d"
       inkscape:vp_x="0 : 400 : 1"
       inkscape:vp_y="0 : 1000 : 0"
       inkscape:vp_z="1000 : 400 : 1"
       inkscape:persp3d-origin="500 : 266.66667 : 1"
       id="perspective62" />
    <linearGradient
       id="linearGradient6053">
      <stop
         style="stop-color:#000000;stop-opacity:1;"
         offset="0"
         id="stop6055" />
      <stop
         style="stop-color:#5f5f5f;stop-opacity:1;"
         offset="1"
         id="stop6057" />
    </linearGradient>
    <linearGradient
       id="linearGradient6499"
       inkscape:collect="always">
      <stop
         id="stop6501"
         offset="0"
         style="stop-color:white;stop-opacity:1;" />
      <stop
         id="stop6503"
         offset="1"
         style="stop-color:white;stop-opacity:0;" />
    </linearGradient>
    <linearGradient
       inkscape:collect="always"
       xlink:href="#linearGradient6053"
       id="linearGradient3242"
       gradientUnits="userSpaceOnUse"
       gradientTransform="matrix(3.8007102,0,0,4.1065359,-1024.9281,1239.357)"
       x1="410.25833"
       y1="-446.23236"
       x2="410.25833"
       y2="-496.73999" />
    <linearGradient
       inkscape:collect="always"
       xlink:href="#linearGradient6499"
       id="linearGradient3245"
       gradientUnits="userSpaceOnUse"
       gradientTransform="matrix(0.8327515,0,0,-0.6476426,-48.09403,12.672202)"
       x1="311.95688"
       y1="-116.67703"
       x2="311.95688"
       y2="-276.41519" />
    <linearGradient
       inkscape:collect="always"
       xlink:href="#linearGradient6053"
       id="linearGradient2395"
       gradientUnits="userSpaceOnUse"
       gradientTransform="matrix(3.8007102,0,0,3.0361472,-1025.6914,1497.1483)"
       x1="410.25833"
       y1="-446.23236"
       x2="410.25833"
       y2="-496.73999" />
  </defs>
  <rect
     y="-11.027356"
     x="-134.12112"
     height="153.3486"
     width="1241.3727"
     id="rect2393"
     style="fill:url(#linearGradient2395);fill-opacity:1" />
  <rect
     y="-1.4079988"
     x="-0.074667335"
     height="802.95782"
     width="1000.6992"
     id="rect3308"
     style="fill:#81d000;fill-opacity:0;fill-rule:nonzero;stroke:none;stroke-width:3;stroke-linecap:round;stroke-linejoin:miter;marker:none;marker-start:none;marker-mid:none;marker-end:none;stroke-miterlimit:4;stroke-dasharray:none;stroke-dashoffset:0;stroke-opacity:1;visibility:visible;display:block;overflow:visible" />
  <rect
     style="fill:#ffffff;fill-opacity:0.2739131"
     id="rect3394"
     width="963.69421"
     height="287.71768"
     x="18.427809"
     y="203.93094"
     ry="29.636"
     rx="30" />
  <text
     xml:space="preserve"
     style="font-size:24.89476013px;font-style:normal;font-weight:normal;fill:#000000;fill-opacity:1;stroke:none;stroke-width:1px;stroke-linecap:butt;stroke-linejoin:miter;stroke-opacity:1;font-family:Bitstream Vera Sans"
     x="266.96185"
     y="759.88806"
     id="text2508"><tspan
       sodipodi:role="line"
       id="tspan2510"
       x="266.96185"
       y="759.88806" /></text>
  <rect
     y="-800.52356"
     x="-133.35791"
     height="207.41141"
     width="1241.3727"
     id="rect6051"
     style="fill:url(#linearGradient3242);fill-opacity:1"
     transform="scale(1,-1)" />
  <path
     style="font-size:106.94109344000000306px;font-style:normal;font-variant:normal;font-weight:normal;font-stretch:normal;fill:#ffffff;fill-opacity:1;stroke:#000000;stroke-width:1.5;stroke-linecap:butt;stroke-linejoin:miter;stroke-opacity:1;font-family:Lohit Gujarati;-inkscape-font-specification:Lohit Gujarati;stroke-miterlimit:4;stroke-dasharray:none"
     d="M 29.685883,103.40721 L 29.685883,129.95953 L 37.577643,129.95953 C 40.498193,129.95957 42.755943,128.80787 44.350893,126.50442 C 45.945783,124.20105 46.743243,120.91948 46.743273,116.65971 C 46.743243,112.43159 45.945783,109.16579 44.350893,106.86232 C 42.755943,104.55898 40.498193,103.40727 37.577643,103.40721 L 29.685883,103.40721 M 23.409753,95.550367 L 37.577643,95.550367 C 42.776663,95.550437 46.701823,97.348987 49.353153,100.94603 C 52.025133,104.51165 53.361143,109.74953 53.361173,116.65971 C 53.361143,123.63308 52.025133,128.90252 49.353153,132.46805 C 46.701823,136.03362 42.776663,137.8164 37.577643,137.81637 L 29.685883,137.81637 L 29.685883,166.21458 L 23.409753,166.21458 L 23.409753,95.550367 M 89.091613,137.53238 L 89.091613,141.79212 L 62.806443,141.79212 C 63.054993,147.78732 64.235643,152.36258 66.348413,155.51792 C 68.481863,158.64173 71.443863,160.20363 75.234413,160.20362 C 77.429993,160.20363 79.553113,159.79343 81.603753,158.97303 C 83.675043,158.15265 85.725673,156.92206 87.755593,155.28126 L 87.755593,163.51675 C 85.704953,164.84199 83.602553,165.85171 81.448393,166.54589 C 79.294193,167.24006 77.108943,167.58716 74.892643,167.58716 C 69.341463,167.58716 64.939903,165.12598 61.687923,160.20362 C 58.456643,155.28127 56.841003,148.62348 56.841013,140.23022 C 56.841003,131.55302 58.373783,124.67435 61.439363,119.59419 C 64.525633,114.48256 68.678643,111.92673 73.898403,111.92667 C 78.579583,111.92673 82.276903,114.23014 84.990373,118.83691 C 87.724493,123.41221 89.091573,129.64404 89.091613,137.53238 M 83.374743,134.97655 C 83.333273,130.21199 82.452973,126.4098 80.733793,123.56993 C 79.035273,120.73016 76.777533,119.31025 73.960553,119.31021 C 70.770683,119.31025 68.212593,120.68283 66.286273,123.42795 C 64.380633,126.17315 63.282833,130.03846 62.992863,135.02388 L 83.374743,134.97655 M 118.63913,121.34541 C 117.99698,120.7775 117.29274,120.3673 116.52637,120.11483 C 115.78067,119.83089 114.95214,119.68889 114.04077,119.68885 C 110.80948,119.68889 108.32388,121.29813 106.58399,124.51655 C 104.86477,127.70349 104.00517,132.29453 104.00518,138.28967 L 104.00518,166.21458 L 98.257243,166.21458 L 98.257243,113.2046 L 104.00518,113.2046 L 104.00518,121.44007 C 105.20654,118.22166 106.77039,115.83937 108.69674,114.29319 C 110.62306,112.71557 112.96366,111.92673 115.71855,111.92667 C 116.11208,111.92673 116.54706,111.97406 117.02349,112.06867 C 117.49987,112.13182 118.02806,112.24226 118.60805,112.39998 L 118.63913,121.34541 M 142.31442,92.568559 L 142.31442,99.810097 L 136.84611,99.810097 C 134.79548,99.810167 133.36626,100.44124 132.55846,101.70332 C 131.77134,102.96552 131.37779,105.23737 131.3778,108.51889 L 131.3778,113.2046 L 140.792,113.2046 L 140.792,119.97283 L 131.3778,119.97283 L 131.3778,166.21458 L 125.62986,166.21458 L 125.62986,119.97283 L 120.16155,119.97283 L 120.16155,113.2046 L 125.62986,113.2046 L 125.62986,109.51283 C 125.62986,103.61237 126.53088,99.321087 128.33295,96.638967 C 130.135,93.925437 132.99342,92.568633 136.90825,92.568559 L 142.31442,92.568559 M 160.55247,119.31021 C 157.48688,119.31025 155.06343,121.14036 153.2821,124.80053 C 151.50075,128.42922 150.61008,133.41468 150.61008,139.75692 C 150.61008,146.0992 151.49039,151.10044 153.25104,154.76064 C 155.03236,158.3893 157.46617,160.20363 160.55247,160.20362 C 163.5973,160.20363 166.01039,158.37352 167.79177,154.7133 C 169.57308,151.0531 170.46375,146.06764 170.46378,139.75692 C 170.46375,133.47779 169.57308,128.50811 167.79177,124.84786 C 166.01039,121.15614 163.5973,119.31025 160.55247,119.31021 M 160.55247,111.92667 C 165.52363,111.92673 169.42809,114.38791 172.26583,119.31021 C 175.10352,124.23261 176.52239,131.04817 176.52242,139.75692 C 176.52239,148.43416 175.10352,155.24972 172.26583,160.20362 C 169.42809,165.12598 165.52363,167.58716 160.55247,167.58716 C 155.56055,167.58716 151.64574,165.12598 148.80803,160.20362 C 145.99102,155.24972 144.58252,148.43416 144.58252,139.75692 C 144.58252,131.04817 145.99102,124.23261 148.80803,119.31021 C 151.64574,114.38791 155.56055,111.92673 160.55247,111.92667 M 206.13208,121.34541 C 205.48994,120.7775 204.78569,120.3673 204.01932,120.11483 C 203.27361,119.83089 202.44509,119.68889 201.53372,119.68885 C 198.30243,119.68889 195.81684,121.29813 194.07694,124.51655 C 192.35772,127.70349 191.49812,132.29453 191.49813,138.28967 L 191.49813,166.21458 L 185.7502,166.21458 L 185.7502,113.2046 L 191.49813,113.2046 L 191.49813,121.44007 C 192.69949,118.22166 194.26335,115.83937 196.1897,114.29319 C 198.11601,112.71557 200.45661,111.92673 203.21151,111.92667 C 203.60504,111.92673 204.04001,111.97406 204.51643,112.06867 C 204.99282,112.13182 205.52101,112.24226 206.10101,112.39998 L 206.13208,121.34541 M 238.1652,123.38062 C 239.59438,119.46802 241.30323,116.58088 243.29174,114.71917 C 245.28017,112.85756 247.62077,111.92673 250.31355,111.92667 C 253.93832,111.92673 256.73461,113.86728 258.70243,117.74831 C 260.67013,121.59789 261.65402,127.08819 261.65407,134.21927 L 261.65407,166.21458 L 255.90614,166.21458 L 255.90614,134.50324 C 255.90608,129.42316 255.31576,125.65252 254.13515,123.19129 C 252.95444,120.73016 251.15239,119.49958 248.72897,119.49953 C 245.76693,119.49958 243.42633,120.99837 241.70717,123.99592 C 239.98793,126.99354 239.12833,131.07972 239.12837,136.25448 L 239.12837,166.21458 L 233.38043,166.21458 L 233.38043,134.50324 C 233.3804,129.3916 232.79007,125.62096 231.60943,123.19129 C 230.42875,120.73016 228.60599,119.49958 226.14112,119.49953 C 223.22053,119.49958 220.90064,121.01414 219.18146,124.04324 C 217.46224,127.04086 216.60264,131.11127 216.60266,136.25448 L 216.60266,166.21458 L 210.85472,166.21458 L 210.85472,113.2046 L 216.60266,113.2046 L 216.60266,121.44007 C 217.90758,118.1901 219.47143,115.79203 221.29422,114.24586 C 223.11698,112.69979 225.28151,111.92673 227.78784,111.92667 C 230.31483,111.92673 232.45866,112.90488 234.21932,114.86115 C 236.00063,116.81753 237.31592,119.65734 238.1652,123.38062 M 286.57216,119.31021 C 283.50657,119.31025 281.08311,121.14036 279.30178,124.80053 C 277.52043,128.42922 276.62977,133.41468 276.62977,139.75692 C 276.62977,146.0992 277.51008,151.10044 279.27072,154.76064 C 281.05205,158.3893 283.48585,160.20363 286.57216,160.20362 C 289.61699,160.20363 292.03008,158.37352 293.81145,154.7133 C 295.59276,151.0531 296.48344,146.06764 296.48347,139.75692 C 296.48344,133.47779 295.59276,128.50811 293.81145,124.84786 C 292.03008,121.15614 289.61699,119.31025 286.57216,119.31021 M 286.57216,111.92667 C 291.54332,111.92673 295.44777,114.38791 298.28552,119.31021 C 301.12321,124.23261 302.54207,131.04817 302.54211,139.75692 C 302.54207,148.43416 301.12321,155.24972 298.28552,160.20362 C 295.44777,165.12598 291.54332,167.58716 286.57216,167.58716 C 281.58024,167.58716 277.66542,165.12598 274.82772,160.20362 C 272.0107,155.24972 270.6022,148.43416 270.6022,139.75692 C 270.6022,131.04817 272.0107,124.23261 274.82772,119.31021 C 277.66542,114.38791 281.58024,111.92673 286.57216,111.92667 M 311.39704,145.29457 L 311.39704,113.2046 L 317.1139,113.2046 L 317.1139,144.96325 C 317.1139,149.98029 317.75601,153.75093 319.04024,156.27521 C 320.32445,158.76795 322.25079,160.01431 324.81925,160.01431 C 327.90551,160.01431 330.33932,158.51552 332.12069,155.51792 C 333.92271,152.52035 334.82374,148.43416 334.82377,143.25936 L 334.82377,113.2046 L 340.54064,113.2046 L 340.54064,166.21458 L 334.82377,166.21458 L 334.82377,158.07375 C 333.43595,161.29223 331.82032,163.69029 329.97686,165.26797 C 328.15408,166.81409 326.03096,167.58716 323.60753,167.58716 C 319.60984,167.58716 316.57535,165.69395 314.50403,161.90752 C 312.43269,158.1211 311.39703,152.58346 311.39704,145.29457 M 325.78242,111.92667 L 325.78242,111.92667 M 374.56225,114.7665 L 374.56225,123.00197 C 372.94658,121.73988 371.26882,120.79327 369.52892,120.16215 C 367.78898,119.53112 365.98692,119.2156 364.12275,119.21555 C 361.28501,119.2156 359.15155,119.87822 357.72234,121.20342 C 356.31383,122.52872 355.60958,124.51658 355.60959,127.16705 C 355.60958,129.18651 356.11706,130.77996 357.13202,131.94741 C 358.14695,133.08337 360.18722,134.17197 363.25279,135.2132 L 365.2102,135.87583 C 369.26998,137.2011 372.14913,139.07854 373.84764,141.50814 C 375.56682,143.90623 376.42642,147.26669 376.42645,151.5895 C 376.42642,156.51186 375.14219,160.40873 372.57378,163.28009 C 370.02602,166.15147 366.51512,167.58716 362.04107,167.58716 C 360.17685,167.58716 358.22981,167.30317 356.19992,166.73522 C 354.19072,166.1988 352.06761,165.37841 349.83058,164.27404 L 349.83058,155.28126 C 351.94333,156.95362 354.02501,158.21576 356.07564,159.06769 C 358.12624,159.8881 360.15614,160.29829 362.16535,160.29829 C 364.85805,160.29829 366.92939,159.60411 368.37933,158.21575 C 369.82924,156.79585 370.55421,154.80797 370.55423,152.25212 C 370.55421,149.88562 370.02602,148.0713 368.96966,146.80913 C 367.93398,145.54701 365.64516,144.33221 362.1032,143.16471 L 360.11473,142.45475 C 356.57275,141.31884 354.01466,139.5834 352.44045,137.2484 C 350.86623,134.88192 350.07913,131.64768 350.07914,127.54569 C 350.07913,122.56027 351.23908,118.71073 353.55897,115.99708 C 355.87885,113.28353 359.17226,111.92673 363.43921,111.92667 C 365.55195,111.92673 367.54043,112.16338 369.40464,112.63663 C 371.26882,113.10998 372.98801,113.81994 374.56225,114.7665"
     id="text2444" />
</svg>
