<?xml version="1.0" encoding="UTF-8" standalone="no"?>
<!-- Created with Sodipodi ("http://www.sodipodi.com/") -->
<svg
   xmlns:dc="http://purl.org/dc/elements/1.1/"
   xmlns:cc="http://creativecommons.org/ns#"
   xmlns:rdf="http://www.w3.org/1999/02/22-rdf-syntax-ns#"
   xmlns:svg="http://www.w3.org/2000/svg"
   xmlns="http://www.w3.org/2000/svg"
   xmlns:xlink="http://www.w3.org/1999/xlink"
   xmlns:sodipodi="http://sodipodi.sourceforge.net/DTD/sodipodi-0.dtd"
   xmlns:inkscape="http://www.inkscape.org/namespaces/inkscape"
   version="1.0"
   x="0"
   y="0"
   width="1000"
   height="800"
   id="svg559"
   sodipodi:version="0.32"
   inkscape:version="0.46"
   sodipodi:docname="songs_bg.svg"
   sodipodi:docbase="/home/jesusda/downloads/testcoming/game-ultrastar-ng/UltraStar-ng-0.1.0/themes/default"
   inkscape:output_extension="org.inkscape.output.svg.inkscape">
  <metadata
     id="metadata35">
    <rdf:RDF>
      <cc:Work
         rdf:about="">
        <dc:format>image/svg+xml</dc:format>
        <dc:type
           rdf:resource="http://purl.org/dc/dcmitype/StillImage" />
      </cc:Work>
    </rdf:RDF>
  </metadata>
  <sodipodi:namedview
     inkscape:window-height="1125"
     inkscape:window-width="1920"
     inkscape:pageshadow="2"
     inkscape:pageopacity="0.0"
     guidetolerance="10.0"
     gridtolerance="10.0"
     objecttolerance="10.0"
     borderopacity="1.0"
     bordercolor="#666666"
     pagecolor="#ffffff"
     id="base"
     inkscape:zoom="1.1098204"
     inkscape:cx="519.76962"
     inkscape:cy="399.09066"
     inkscape:window-x="0"
     inkscape:window-y="25"
     inkscape:current-layer="svg559"
     showgrid="false" />
  <defs
     id="defs561">
    <inkscape:perspective
       sodipodi:type="inkscape:persp3d"
       inkscape:vp_x="0 : 400 : 1"
       inkscape:vp_y="0 : 1000 : 0"
       inkscape:vp_z="1000 : 400 : 1"
       inkscape:persp3d-origin="500 : 266.66667 : 1"
       id="perspective62" />
    <linearGradient
       inkscape:collect="always"
       xlink:href="#linearGradient6499"
       id="linearGradient3248"
       x1="311.95688"
       y1="-116.67703"
       x2="311.95688"
       y2="-276.41519"
       gradientUnits="userSpaceOnUse" />
    <linearGradient
       id="linearGradient6053">
      <stop
         style="stop-color:#000000;stop-opacity:1;"
         offset="0"
         id="stop6055" />
      <stop
         style="stop-color:#5f5f5f;stop-opacity:1;"
         offset="1"
         id="stop6057" />
    </linearGradient>
    <linearGradient
       id="linearGradient3751"
       inkscape:collect="always">
      <stop
         id="stop3753"
         offset="0"
         style="stop-color:black;stop-opacity:1;" />
      <stop
         id="stop3755"
         offset="1"
         style="stop-color:black;stop-opacity:0;" />
    </linearGradient>
    <linearGradient
       id="linearGradient5546"
       inkscape:collect="always">
      <stop
         id="stop5548"
         offset="0"
         style="stop-color:white;stop-opacity:1;" />
      <stop
         id="stop5550"
         offset="1"
         style="stop-color:white;stop-opacity:0;" />
    </linearGradient>
    <linearGradient
       id="linearGradient6499"
       inkscape:collect="always">
      <stop
         id="stop6501"
         offset="0"
         style="stop-color:white;stop-opacity:1;" />
      <stop
         id="stop6503"
         offset="1"
         style="stop-color:white;stop-opacity:0;" />
    </linearGradient>
    <linearGradient
       inkscape:collect="always"
       xlink:href="#linearGradient3751"
       id="linearGradient2612"
       gradientUnits="userSpaceOnUse"
       gradientTransform="matrix(0.760472,0,0,0.760472,-0.919047,29.31604)"
       x1="665.12128"
       y1="684.16162"
       x2="381.28015"
       y2="449.80624" />
    <linearGradient
       inkscape:collect="always"
       xlink:href="#linearGradient5546"
       id="linearGradient2614"
       gradientUnits="userSpaceOnUse"
       gradientTransform="matrix(0.760472,0,0,0.760472,-0.919047,29.31604)"
       x1="859.73419"
       y1="660.78955"
       x2="1055.1357"
       y2="603.64667" />
    <linearGradient
       inkscape:collect="always"
       xlink:href="#linearGradient6053"
       id="linearGradient3242"
       gradientUnits="userSpaceOnUse"
       gradientTransform="matrix(3.8007102,0,0,3.6605406,-1024.9281,1015.1102)"
       x1="410.25833"
       y1="-446.23236"
       x2="410.25833"
       y2="-496.73999" />
  </defs>
  <rect
     y="-1.4079988"
     x="-0.074667335"
     height="802.95782"
     width="1000.6992"
     id="rect3308"
     style="fill:#81d000;fill-opacity:0;fill-rule:nonzero;stroke:none;stroke-width:3;stroke-linecap:round;stroke-linejoin:miter;marker:none;marker-start:none;marker-mid:none;marker-end:none;stroke-miterlimit:4;stroke-dasharray:none;stroke-dashoffset:0;stroke-opacity:1;visibility:visible;display:block;overflow:visible" />
  <rect
     style="fill:#ffffff;fill-opacity:0.27391306;stroke:none;stroke-width:5;stroke-linecap:butt;stroke-linejoin:miter;stroke-miterlimit:4;stroke-dasharray:none;stroke-opacity:1"
     id="rect6085"
     width="1004.5031"
     height="51.692097"
     x="-2.0912662"
     y="152.91451"
     ry="0" />
  <path
     style="font-size:35.35396194px;font-style:normal;font-variant:normal;font-weight:normal;font-stretch:normal;text-align:start;line-height:125%;writing-mode:lr-tb;text-anchor:start;fill:#000000;fill-opacity:1;stroke:none;stroke-width:1px;stroke-linecap:butt;stroke-linejoin:miter;stroke-opacity:1;font-family:Interstate-RegularCondensed"
     d="M 384.18461,183.80041 C 384.1846,182.50957 384.00857,181.38008 383.65653,180.41192 C 383.30447,179.44379 382.82039,178.57833 382.20432,177.81555 C 381.58821,177.02345 380.85478,176.31933 380.004,175.70324 C 379.18253,175.05782 378.28774,174.42706 377.31961,173.81096 C 376.46881,173.25356 375.75004,172.75483 375.1633,172.31474 C 374.60587,171.84536 374.15114,171.39062 373.7991,170.95054 C 373.44704,170.5105 373.19767,170.07044 373.05099,169.63035 C 372.9043,169.16097 372.83095,168.63289 372.83096,168.04612 C 372.83095,167.078 373.10966,166.30055 373.66708,165.71378 C 374.22448,165.09771 375.0166,164.78966 376.04343,164.78964 C 376.51282,164.78966 376.93821,164.83368 377.31961,164.92165 C 377.73032,165.00969 378.09705,165.17106 378.41977,165.40573 C 378.77181,165.61111 379.10919,165.88982 379.43192,166.24185 C 379.75462,166.5646 380.10668,166.97532 380.48808,167.47403 L 383.65653,164.65762 C 382.71771,163.30813 381.67623,162.2813 380.53208,161.57717 C 379.41724,160.84377 377.96503,160.47704 376.17545,160.47701 C 374.97259,160.47704 373.88711,160.66774 372.91898,161.0491 C 371.98016,161.43051 371.17338,161.97326 370.49862,162.67733 C 369.82385,163.35213 369.29577,164.15892 368.91439,165.09769 C 368.56233,166.03652 368.38631,167.06333 368.38631,168.17814 C 368.38631,169.381 368.54767,170.45183 368.87038,171.39061 C 369.19309,172.30009 369.63315,173.12154 370.19057,173.85496 C 370.74798,174.55909 371.39341,175.21918 372.12685,175.83526 C 372.88962,176.42203 373.71108,176.99411 374.59122,177.5515 C 375.61803,178.22629 376.46881,178.84237 377.14359,179.39977 C 377.81834,179.92787 378.34642,180.44127 378.72782,180.94 C 379.10919,181.4094 379.37323,181.89348 379.51993,182.39221 C 379.66661,182.89095 379.73995,183.4337 379.73997,184.02044 C 379.73995,185.28197 379.41724,186.25012 378.77182,186.92488 C 378.12639,187.59964 377.21692,187.93702 376.04343,187.93702 C 375.10461,187.93702 374.23916,187.70233 373.44704,187.23291 C 372.68427,186.73418 371.87748,185.82471 371.0267,184.50452 L 367.6382,187.23291 C 368.51833,188.72914 369.60381,189.94665 370.89467,190.88544 C 372.21486,191.79491 373.84309,192.24964 375.77938,192.24965 C 377.1289,192.24964 378.33174,192.04428 379.38792,191.63356 C 380.44405,191.22283 381.32418,190.65075 382.0283,189.91731 C 382.73239,189.15454 383.26046,188.25973 383.61253,187.23291 C 383.99391,186.17676 384.1846,185.0326 384.18461,183.80041 M 403.78947,180.14789 C 403.78946,178.12359 403.58409,176.36335 403.17339,174.86711 C 402.76264,173.37091 402.19056,172.13873 401.45713,171.17058 C 400.72368,170.17312 399.85822,169.425 398.86076,168.92625 C 397.86326,168.42753 396.79244,168.17816 395.64829,168.17814 C 394.4161,168.17816 393.30127,168.4422 392.3038,168.97025 C 391.30632,169.46902 390.44085,170.23179 389.70742,171.25859 C 388.97398,172.25609 388.4019,173.5176 387.99117,175.04314 C 387.60978,176.53937 387.41909,178.29963 387.41909,180.32391 C 387.41909,182.14285 387.59511,183.78576 387.94716,185.25263 C 388.32855,186.71951 388.8713,187.98102 389.5754,189.03718 C 390.30884,190.06399 391.20363,190.85611 392.25979,191.41353 C 393.31594,191.97094 394.53345,192.24964 395.91232,192.24965 C 397.40854,192.24964 398.72872,191.95627 399.87291,191.36952 C 401.01706,190.78277 401.9852,190.04933 402.77733,189.1692 L 400.18095,186.48481 C 399.50617,187.10091 398.87541,187.54096 398.28868,187.805 C 397.73125,188.06904 396.96847,188.20106 396.00034,188.20106 C 394.76815,188.20106 393.77068,187.68765 393.0079,186.66083 C 392.24511,185.60468 391.79039,183.93244 391.64371,181.6441 L 403.74547,181.6441 C 403.77479,181.4094 403.78946,181.16005 403.78947,180.89599 C 403.78946,180.60263 403.78946,180.35326 403.78947,180.14789 M 399.47684,177.99157 L 391.68771,177.99157 C 392.03976,174.08968 393.33061,172.13873 395.56027,172.13871 C 396.7631,172.13873 397.70191,172.68148 398.37668,173.76695 C 399.05144,174.85246 399.41815,176.26066 399.47684,177.99157 M 412.42436,191.76557 L 412.42436,159.68489 L 408.19974,161.88522 L 408.19974,191.76557 L 412.42436,191.76557 M 433.27033,180.14789 C 433.27032,178.12359 433.06496,176.36335 432.65425,174.86711 C 432.24351,173.37091 431.67142,172.13873 430.93799,171.17058 C 430.20454,170.17312 429.33909,169.425 428.34162,168.92625 C 427.34412,168.42753 426.27331,168.17816 425.12915,168.17814 C 423.89696,168.17816 422.78213,168.4422 421.78466,168.97025 C 420.78718,169.46902 419.92173,170.23179 419.18829,171.25859 C 418.45484,172.25609 417.88276,173.5176 417.47203,175.04314 C 417.09064,176.53937 416.89995,178.29963 416.89995,180.32391 C 416.89995,182.14285 417.07598,183.78576 417.42803,185.25263 C 417.80942,186.71951 418.35216,187.98102 419.05626,189.03718 C 419.7897,190.06399 420.6845,190.85611 421.74066,191.41353 C 422.79681,191.97094 424.01431,192.24964 425.3932,192.24965 C 426.8894,192.24964 428.20959,191.95627 429.35377,191.36952 C 430.49792,190.78277 431.46606,190.04933 432.25819,189.1692 L 429.66181,186.48481 C 428.98703,187.10091 428.35627,187.54096 427.76954,187.805 C 427.21211,188.06904 426.44933,188.20106 425.4812,188.20106 C 424.24902,188.20106 423.25154,187.68765 422.48876,186.66083 C 421.72599,185.60468 421.27125,183.93244 421.12457,181.6441 L 433.22633,181.6441 C 433.25566,181.4094 433.27032,181.16005 433.27033,180.89599 C 433.27032,180.60263 433.27032,180.35326 433.27033,180.14789 M 428.95771,177.99157 L 421.16858,177.99157 C 421.52062,174.08968 422.81147,172.13873 425.04113,172.13871 C 426.24397,172.13873 427.18277,172.68148 427.85755,173.76695 C 428.5323,174.85246 428.89903,176.26066 428.95771,177.99157 M 451.45461,188.15705 L 448.41817,185.64868 C 447.8314,186.55815 447.274,187.21825 446.74593,187.62897 C 446.21784,188.01036 445.60175,188.20106 444.89766,188.20106 C 443.48945,188.20106 442.4773,187.49696 441.86122,186.08875 C 441.24512,184.65121 440.93707,182.70026 440.93709,180.23589 C 440.93707,177.68354 441.23045,175.71791 441.8172,174.33903 C 442.43329,172.93085 443.41611,172.22675 444.76564,172.22672 C 445.5284,172.22675 446.17384,172.4321 446.70192,172.84282 C 447.22998,173.25356 447.7874,173.92833 448.37417,174.86711 L 451.41061,172.22672 C 451.08787,171.66933 450.72116,171.14125 450.31045,170.64249 C 449.89971,170.14378 449.43031,169.71838 448.90224,169.36631 C 448.37415,168.98494 447.77273,168.69157 447.09798,168.48619 C 446.45254,168.28084 445.7191,168.17816 444.89766,168.17814 C 442.31594,168.17816 440.29165,169.19031 438.82478,171.21458 C 437.38723,173.20956 436.66846,176.24599 436.66846,180.32391 C 436.66846,184.3725 437.40189,187.3796 438.86878,189.34522 C 440.36499,191.28151 442.31594,192.24964 444.72164,192.24965 C 446.39387,192.24964 447.74339,191.88293 448.77022,191.14949 C 449.79702,190.38672 450.69182,189.38923 451.45461,188.15705 M 465.14749,187.27692 C 464.82477,187.54096 464.42871,187.77567 463.95932,187.98102 C 463.48991,188.15705 462.9765,188.24507 462.4191,188.24506 C 461.83233,188.24507 461.39226,188.06904 461.0989,187.71699 C 460.80552,187.36494 460.65883,186.77818 460.65884,185.95673 L 460.65884,172.62279 L 465.10349,172.62279 L 465.10349,168.6622 L 460.65884,168.6622 L 460.65884,159.68489 L 456.43422,161.92923 L 456.43422,168.6622 L 453.92585,168.6622 L 453.92585,172.62279 L 456.43422,172.62279 L 456.43422,186.35278 C 456.43422,188.23039 456.78627,189.6826 457.49037,190.70943 C 458.19447,191.73624 459.32397,192.24964 460.87887,192.24965 C 461.67097,192.24964 462.37508,192.14696 462.99118,191.94161 C 463.60726,191.76557 464.16467,191.5162 464.66342,191.19349 L 465.14749,187.27692 M 494.85457,168.6622 L 490.36592,168.6622 L 487.63751,179.57579 C 487.52016,180.01587 487.38813,180.54395 487.24146,181.16003 C 487.1241,181.74679 486.99208,182.34821 486.8454,182.96429 C 486.72805,183.58039 486.61069,184.15247 486.49335,184.68054 C 486.37598,185.20863 486.28798,185.61936 486.22932,185.91272 C 486.17063,185.61936 486.08261,185.20863 485.96527,184.68054 C 485.87726,184.15247 485.7599,183.59506 485.61322,183.00829 C 485.49587,182.39222 485.36384,181.7908 485.21716,181.20403 C 485.0998,180.58795 484.98245,180.05988 484.86511,179.61981 L 482.18072,168.6622 L 477.69207,168.6622 L 484.11701,191.76557 L 481.60864,199.90676 L 485.74524,199.90676 L 494.85457,168.6622 M 513.46792,180.14789 C 513.46789,178.12359 513.26254,176.36335 512.85182,174.86711 C 512.44108,173.37091 511.869,172.13873 511.13558,171.17058 C 510.43146,170.17312 509.566,169.425 508.53919,168.92625 C 507.54171,168.42753 506.42687,168.17816 505.19471,168.17814 C 502.61299,168.17816 500.57403,169.19031 499.07781,171.21458 C 497.5816,173.20956 496.83349,176.24599 496.83349,180.32391 C 496.83349,182.34821 497.02418,184.10847 497.40557,185.60468 C 497.8163,187.10091 498.38838,188.34775 499.12183,189.34522 C 499.85525,190.31336 500.72072,191.0468 501.7182,191.54554 C 502.71567,192.01495 503.81583,192.24964 505.01869,192.24965 C 507.57105,192.24964 509.61,191.25217 511.13558,189.25722 C 512.69046,187.23292 513.46789,184.19648 513.46792,180.14789 M 509.19929,180.23589 C 509.19928,182.64158 508.84723,184.57787 508.14314,186.04475 C 507.46836,187.48229 506.47089,188.20106 505.1507,188.20106 C 502.45164,188.20106 501.10211,185.546 501.10211,180.23589 C 501.10211,174.89646 502.43696,172.22675 505.10669,172.22672 C 506.42687,172.22675 507.43902,172.90151 508.14314,174.25102 C 508.84723,175.60057 509.19928,177.59553 509.19929,180.23589 M 532.26209,191.76557 L 532.26209,168.6622 L 528.03748,168.6622 L 528.03748,186.13275 C 527.62674,186.80752 527.11333,187.3356 526.49725,187.71699 C 525.91049,188.06904 525.27974,188.24507 524.60498,188.24506 C 523.54882,188.24507 522.8007,187.83434 522.36065,187.01288 C 521.94991,186.19144 521.74456,184.81257 521.74456,182.87628 L 521.74456,168.6622 L 517.51994,168.6622 L 517.51994,183.58038 C 517.51994,186.51415 517.96,188.6998 518.84013,190.13734 C 519.7496,191.54554 521.31915,192.24964 523.54883,192.24965 C 524.54629,192.24964 525.42642,192.05895 526.1892,191.67756 C 526.95198,191.26683 527.56806,190.7681 528.03748,190.18135 L 528.03748,191.76557 L 532.26209,191.76557 M 548.73423,168.97025 C 548.38217,168.73557 547.94211,168.54487 547.41404,168.39817 C 546.9153,168.2515 546.2992,168.17816 545.56578,168.17814 C 544.71498,168.17816 543.93752,168.38352 543.23344,168.79422 C 542.52933,169.17563 541.94257,169.65971 541.47318,170.24643 L 541.47318,168.6622 L 537.24856,168.6622 L 537.24856,191.76557 L 541.47318,191.76557 L 541.47318,174.29503 C 541.97191,173.59094 542.49999,173.12154 543.05741,172.88682 C 543.61481,172.6228 544.1869,172.49078 544.77366,172.49077 C 545.44841,172.49078 546.00583,172.54946 546.44591,172.66679 C 546.88596,172.78415 547.31135,172.96018 547.72209,173.19487 L 548.73423,168.97025 M 574.68222,185.42865 C 574.6822,184.48986 574.55019,183.68307 574.28617,183.00829 C 574.05145,182.30421 573.6994,181.67345 573.23001,181.11602 C 572.78993,180.55863 572.23251,180.04521 571.55776,179.57579 C 570.88299,179.10641 570.10554,178.62234 569.22542,178.12358 C 568.4333,177.68354 567.78787,177.30214 567.28915,176.97942 C 566.81973,176.62738 566.43834,176.30467 566.14497,176.01127 C 565.88092,175.71791 565.69023,175.4392 565.57289,175.17516 C 565.48487,174.8818 565.44086,174.55909 565.44087,174.20701 C 565.44086,173.62028 565.61689,173.13622 565.96895,172.7548 C 566.35033,172.37343 566.93708,172.18273 567.72921,172.18272 C 568.46263,172.18273 569.22541,172.3441 570.01754,172.66679 C 570.83898,172.96018 571.63109,173.37091 572.39389,173.89897 L 574.11014,170.33445 C 573.25933,169.65971 572.29119,169.13163 571.20571,168.75022 C 570.12021,168.36886 568.99071,168.17816 567.81721,168.17814 C 565.70491,168.17816 564.07666,168.75024 562.9325,169.89438 C 561.78834,171.00923 561.21626,172.5788 561.21626,174.60308 C 561.21626,175.51256 561.3336,176.30467 561.5683,176.97942 C 561.803,177.6542 562.12572,178.25562 562.53645,178.78368 C 562.94718,179.28243 563.4459,179.75184 564.03266,180.19189 C 564.64874,180.60263 565.30884,181.01335 566.01295,181.42407 C 566.80507,181.89348 567.47983,182.30421 568.03725,182.65625 C 568.62399,183.00831 569.09339,183.34569 569.44545,183.66839 C 569.79749,183.99112 570.04686,184.31383 570.19357,184.63654 C 570.36957,184.95926 570.45759,185.32597 570.4576,185.7367 C 570.45759,186.49949 570.17888,187.11557 569.62149,187.58497 C 569.09339,188.02504 568.35996,188.24507 567.42116,188.24506 C 565.95428,188.24507 564.16468,187.58497 562.05237,186.26478 L 560.42414,189.78528 C 561.45095,190.54807 562.58045,191.14949 563.81263,191.58956 C 565.04481,192.02962 566.27699,192.24964 567.50918,192.24965 C 569.76815,192.24964 571.52841,191.6629 572.78994,190.48939 C 574.05145,189.31589 574.6822,187.62897 574.68222,185.42865 M 594.43285,180.14789 C 594.43282,178.12359 594.22747,176.36335 593.81675,174.86711 C 593.40601,173.37091 592.83393,172.13873 592.10051,171.17058 C 591.39638,170.17312 590.53093,169.425 589.50412,168.92625 C 588.50664,168.42753 587.39181,168.17816 586.15963,168.17814 C 583.57792,168.17816 581.53896,169.19031 580.04274,171.21458 C 578.54653,173.20956 577.79842,176.24599 577.79842,180.32391 C 577.79842,182.34821 577.98911,184.10847 578.3705,185.60468 C 578.78123,187.10091 579.35331,188.34775 580.08676,189.34522 C 580.82019,190.31336 581.68565,191.0468 582.68313,191.54554 C 583.6806,192.01495 584.78076,192.24964 585.98362,192.24965 C 588.53598,192.24964 590.57493,191.25217 592.10051,189.25722 C 593.65538,187.23292 594.43282,184.19648 594.43285,180.14789 M 590.16422,180.23589 C 590.16421,182.64158 589.81216,184.57787 589.10807,186.04475 C 588.4333,187.48229 587.43581,188.20106 586.11563,188.20106 C 583.41657,188.20106 582.06704,185.546 582.06705,180.23589 C 582.06704,174.89646 583.40189,172.22675 586.07163,172.22672 C 587.39181,172.22675 588.40396,172.90151 589.10807,174.25102 C 589.81216,175.60057 590.16421,177.59553 590.16422,180.23589 M 613.35905,191.76557 L 613.35905,176.8474 C 613.35904,173.91365 612.9043,171.74268 611.99486,170.33445 C 611.11471,168.89692 609.55981,168.17816 607.33018,168.17814 C 606.33268,168.17816 605.45256,168.38352 604.68979,168.79422 C 603.927,169.17563 603.31092,169.65971 602.84151,170.24643 L 602.84151,168.6622 L 598.6169,168.6622 L 598.6169,191.76557 L 602.84151,191.76557 L 602.84151,174.29503 C 603.25224,173.62028 603.75098,173.10688 604.33774,172.7548 C 604.95382,172.37343 605.59924,172.18273 606.27402,172.18272 C 607.33016,172.18273 608.0636,172.59346 608.47434,173.4149 C 608.91439,174.23636 609.13442,175.61524 609.13444,177.5515 L 609.13444,191.76557 L 613.35905,191.76557 M 632.91166,189.74128 L 632.91166,168.6622 L 628.68704,168.6622 L 628.68704,169.89438 C 627.57219,168.75024 626.23734,168.17816 624.68246,168.17814 C 622.39412,168.17816 620.60452,169.17563 619.31367,171.17058 C 618.05215,173.16555 617.42139,176.0993 617.42139,179.97186 C 617.42139,182.26019 617.58275,184.19648 617.90547,185.7807 C 618.25752,187.3356 618.72692,188.59712 619.31367,189.56525 C 619.92976,190.5334 620.6632,191.22283 621.51399,191.63356 C 622.36478,192.04428 623.31825,192.24964 624.37441,192.24965 C 625.40122,192.24964 626.23734,192.05895 626.88278,191.67756 C 627.52819,191.29617 628.12961,190.79744 628.68704,190.18135 L 628.68704,190.35736 C 628.68703,191.44286 628.58434,192.35233 628.37899,193.08577 C 628.20295,193.84854 627.88024,194.4793 627.41085,194.97804 C 626.94143,195.50612 626.28135,195.90217 625.43056,196.16622 C 624.60911,196.45959 623.56762,196.69429 622.3061,196.87032 L 623.49428,200.25882 C 625.25453,200.08278 626.72141,199.7454 627.89493,199.24667 C 629.09776,198.74792 630.06589,198.05848 630.79935,197.17837 C 631.56211,196.32758 632.10486,195.28609 632.42758,194.05391 C 632.75028,192.82173 632.91163,191.38419 632.91166,189.74128 M 628.68704,186.17676 C 628.30564,186.79286 627.8069,187.30626 627.19082,187.71699 C 626.60406,188.09838 625.95863,188.28907 625.25454,188.28907 C 624.02235,188.28907 623.11288,187.62897 622.52614,186.30878 C 621.96872,184.95926 621.69001,182.77361 621.69002,179.75182 C 621.69001,177.02345 621.96872,175.07249 622.52614,173.89897 C 623.08354,172.72549 623.91967,172.13873 625.03451,172.13871 C 625.70926,172.13873 626.36935,172.31476 627.0148,172.66679 C 627.66021,172.98952 628.21763,173.50293 628.68704,174.20701 L 628.68704,186.17676"
     id="text3344" />
  <rect
     style="fill:#ffffff;fill-opacity:0.27391306"
     id="rect3394"
     width="963.69421"
     height="287.71768"
     x="18.427809"
     y="230.06129"
     ry="29.636"
     rx="30" />
  <text
     xml:space="preserve"
     style="font-size:24.89476013px;font-style:normal;font-weight:normal;fill:#000000;fill-opacity:1;stroke:none;stroke-width:1px;stroke-linecap:butt;stroke-linejoin:miter;stroke-opacity:1;font-family:Bitstream Vera Sans"
     x="266.96185"
     y="759.88806"
     id="text2508"><tspan
       sodipodi:role="line"
       id="tspan2510"
       x="266.96185"
       y="759.88806" /></text>
  <g
     id="g3252"
     transform="matrix(0.7343877,0,0,0.7343877,-26.468909,-34.182225)">
    <path
       id="text2444"
       d="M 88.734136,110.05561 L 88.734136,146.21134 L 99.480182,146.21134 C 103.45703,146.21139 106.53136,144.64314 108.70317,141.50659 C 110.8749,138.37014 111.96079,133.9017 111.96083,128.10125 C 111.96079,122.34391 110.8749,117.89695 108.70317,114.76037 C 106.53136,111.62395 103.45703,110.0557 99.480182,110.05561 L 88.734136,110.05561 M 80.188067,99.357128 L 99.480182,99.357128 C 106.55957,99.357224 111.90438,101.80627 115.51464,106.70428 C 119.15302,111.5595 120.97223,118.69182 120.97228,128.10125 C 120.97223,137.59675 119.15302,144.77203 115.51464,149.62713 C 111.90438,154.4823 106.55957,156.90987 99.480182,156.90983 L 88.734136,156.90983 L 88.734136,195.57906 L 80.188067,195.57906 L 80.188067,99.357128 M 169.62565,156.52313 L 169.62565,162.32352 L 133.8337,162.32352 C 134.17214,170.48705 135.77981,176.71709 138.65672,181.01365 C 141.5618,185.26727 145.59509,187.39408 150.7566,187.39406 C 153.74628,187.39408 156.63728,186.83552 159.42959,185.7184 C 162.25003,184.6013 165.04232,182.92563 167.80643,180.6914 L 167.80643,191.90548 C 165.01411,193.71004 162.15132,195.08495 159.21805,196.0302 C 156.28472,196.97544 153.30911,197.44807 150.29122,197.44807 C 142.7323,197.44807 136.73878,194.09674 132.31063,187.39406 C 127.91067,180.69141 125.71069,171.62564 125.7107,160.19671 C 125.71069,148.38116 127.79784,139.01462 131.97217,132.09708 C 136.17468,125.13668 141.82975,121.65646 148.93739,121.65638 C 155.31165,121.65646 160.34621,124.79296 164.04109,131.0659 C 167.76408,137.29599 169.6256,145.78174 169.62565,156.52313 M 161.84111,153.04291 C 161.78465,146.55511 160.58596,141.37774 158.24499,137.51076 C 155.93215,133.6439 152.85783,131.71044 149.02201,131.71038 C 144.67843,131.71044 141.19514,133.57945 138.57211,137.31742 C 135.97724,141.0555 134.48239,146.31881 134.08754,153.10735 L 161.84111,153.04291 M 209.85987,134.48168 C 208.98548,133.70836 208.02652,133.1498 206.98298,132.80602 C 205.96757,132.41938 204.83938,132.22603 203.59839,132.22597 C 199.19841,132.22603 195.81383,134.41729 193.44465,138.79974 C 191.10363,143.13934 189.93313,149.39085 189.93314,157.55431 L 189.93314,195.57906 L 182.1063,195.57906 L 182.1063,123.3965 L 189.93314,123.3965 L 189.93314,134.61057 C 191.56901,130.22813 193.69847,126.98422 196.32154,124.87881 C 198.94457,122.7306 202.13171,121.65646 205.88299,121.65638 C 206.41885,121.65646 207.01115,121.72091 207.65989,121.84973 C 208.30857,121.93573 209.02779,122.08611 209.81756,122.30087 L 209.85987,134.48168 M 242.09801,95.296859 L 242.09801,105.15751 L 234.65193,105.15751 C 231.85963,105.1576 229.91349,106.01692 228.81353,107.73546 C 227.74173,109.45418 227.20584,112.54771 227.20585,117.01608 L 227.20585,123.3965 L 240.02496,123.3965 L 240.02496,132.61266 L 227.20585,132.61266 L 227.20585,195.57906 L 219.379,195.57906 L 219.379,132.61266 L 211.93292,132.61266 L 211.93292,123.3965 L 219.379,123.3965 L 219.379,118.3695 C 219.379,110.33498 220.6059,104.49163 223.05974,100.83945 C 225.51355,97.144487 229.40581,95.296959 234.73654,95.296859 L 242.09801,95.296859 M 266.93237,131.71038 C 262.75803,131.71044 259.45807,134.20246 257.03247,139.18643 C 254.60684,144.12755 253.39403,150.91614 253.39404,159.55223 C 253.39403,168.18838 254.59274,174.99846 256.99017,179.98247 C 259.41576,184.92355 262.72983,187.39408 266.93237,187.39406 C 271.07845,187.39408 274.36431,184.90206 276.78997,179.91801 C 279.21554,174.934 280.42835,168.14541 280.42839,159.55223 C 280.42835,151.00207 279.21554,144.23497 276.78997,139.25088 C 274.36431,134.22395 271.07845,131.71044 266.93237,131.71038 M 266.93237,121.65638 C 273.7015,121.65646 279.01811,125.00779 282.88221,131.71038 C 286.74623,138.41311 288.67827,147.69371 288.67831,159.55223 C 288.67827,171.36784 286.74623,180.64845 282.88221,187.39406 C 279.01811,194.09674 273.7015,197.44807 266.93237,197.44807 C 260.13498,197.44807 254.80427,194.09674 250.94022,187.39406 C 247.10436,180.64845 245.18643,171.36784 245.18643,159.55223 C 245.18643,147.69371 247.10436,138.41311 250.94022,131.71038 C 254.80427,125.00779 260.13498,121.65646 266.93237,121.65638 M 328.99715,134.48168 C 328.12276,133.70836 327.1638,133.1498 326.12025,132.80602 C 325.10484,132.41938 323.97665,132.22603 322.73567,132.22597 C 318.33569,132.22603 314.95111,134.41729 312.58192,138.79974 C 310.2409,143.13934 309.0704,149.39085 309.07042,157.55431 L 309.07042,195.57906 L 301.24358,195.57906 L 301.24358,123.3965 L 309.07042,123.3965 L 309.07042,134.61057 C 310.70628,130.22813 312.83575,126.98422 315.45882,124.87881 C 318.08184,122.7306 321.26899,121.65646 325.02027,121.65638 C 325.55613,121.65646 326.14843,121.72091 326.79716,121.84973 C 327.44585,121.93573 328.16507,122.08611 328.95484,122.30087 L 328.99715,134.48168 M 372.61596,137.25297 C 374.56205,131.92527 376.88895,127.99391 379.59666,125.45886 C 382.30427,122.92395 385.49141,121.65646 389.15811,121.65638 C 394.09389,121.65646 397.90154,124.29886 400.58107,129.58358 C 403.26045,134.82547 404.60019,142.3015 404.60026,152.01173 L 404.60026,195.57906 L 396.77342,195.57906 L 396.77342,152.39841 C 396.77334,145.48097 395.96951,140.34657 394.3619,136.99517 C 392.75416,133.6439 390.30034,131.96824 387.00043,131.96818 C 382.96708,131.96824 379.77994,134.00912 377.43899,138.09081 C 375.09794,142.17261 373.92744,147.73668 373.92749,154.78303 L 373.92749,195.57906 L 366.10064,195.57906 L 366.10064,152.39841 C 366.1006,145.438 365.29677,140.3036 363.68912,136.99517 C 362.08141,133.6439 359.59939,131.96824 356.24304,131.96818 C 352.26613,131.96824 349.10719,134.03059 346.76621,138.15525 C 344.42519,142.23705 343.25469,147.77964 343.25471,154.78303 L 343.25471,195.57906 L 335.42787,195.57906 L 335.42787,123.3965 L 343.25471,123.3965 L 343.25471,134.61057 C 345.0316,130.18516 347.16106,126.91976 349.64311,124.81437 C 352.12512,122.70912 355.07252,121.65646 358.48533,121.65638 C 361.92629,121.65646 364.84549,122.98839 367.24294,125.6522 C 369.66851,128.31615 371.45952,132.18307 372.61596,137.25297 M 438.53068,131.71038 C 434.35634,131.71044 431.05637,134.20246 428.63077,139.18643 C 426.20514,144.12755 424.99234,150.91614 424.99235,159.55223 C 424.99234,168.18838 426.19104,174.99846 428.58847,179.98247 C 431.01407,184.92355 434.32813,187.39408 438.53068,187.39406 C 442.67676,187.39408 445.96262,184.90206 448.38827,179.91801 C 450.81385,174.934 452.02666,168.14541 452.0267,159.55223 C 452.02666,151.00207 450.81385,144.23497 448.38827,139.25088 C 445.96262,134.22395 442.67676,131.71044 438.53068,131.71038 M 438.53068,121.65638 C 445.29981,121.65646 450.61641,125.00779 454.48052,131.71038 C 458.34454,138.41311 460.27657,147.69371 460.27662,159.55223 C 460.27657,171.36784 458.34454,180.64845 454.48052,187.39406 C 450.61641,194.09674 445.29981,197.44807 438.53068,197.44807 C 431.73329,197.44807 426.40257,194.09674 422.53853,187.39406 C 418.70266,180.64845 416.78473,171.36784 416.78474,159.55223 C 416.78473,147.69371 418.70266,138.41311 422.53853,131.71038 C 426.40257,125.00779 431.73329,121.65646 438.53068,121.65638 M 472.33419,167.09273 L 472.33419,123.3965 L 480.11872,123.3965 L 480.11872,166.64158 C 480.11872,173.47317 480.99306,178.60758 482.74178,182.04483 C 484.49046,185.43914 487.11351,187.13628 490.61093,187.13628 C 494.81343,187.13628 498.12749,185.09542 500.55315,181.01365 C 503.00692,176.93192 504.23383,171.36784 504.23387,164.32143 L 504.23387,123.3965 L 512.01841,123.3965 L 512.01841,195.57906 L 504.23387,195.57906 L 504.23387,184.49387 C 502.34411,188.8764 500.14413,192.14179 497.63394,194.29008 C 495.15189,196.3954 492.26089,197.44807 488.96095,197.44807 C 483.51739,197.44807 479.38539,194.87013 476.56492,189.71423 C 473.74442,184.55834 472.33418,177.01785 472.33419,167.09273 M 491.92246,121.65638 L 491.92246,121.65638 M 558.34491,125.52331 L 558.34491,136.73738 C 556.14489,135.01881 553.86031,133.72983 551.49113,132.87045 C 549.12189,132.0112 546.66807,131.58155 544.12966,131.58149 C 540.26558,131.58155 537.36048,132.48383 535.41436,134.28833 C 533.49642,136.09296 532.53746,138.79979 532.53748,142.40887 C 532.53746,145.15873 533.22848,147.3285 534.61053,148.91819 C 535.99255,150.465 538.77073,151.94732 542.94506,153.36514 L 545.61042,154.26744 C 551.13854,156.07203 555.05901,158.6285 557.37184,161.93683 C 559.71281,165.20226 560.88331,169.77812 560.88335,175.6644 C 560.88331,182.36708 559.1346,187.67336 555.63725,191.58323 C 552.16802,195.49312 547.3873,197.44807 541.29508,197.44807 C 538.75662,197.44807 536.10537,197.06137 533.34131,196.288 C 530.60543,195.55757 527.71444,194.44046 524.66832,192.93667 L 524.66832,180.6914 C 527.54521,182.96861 530.37979,184.68724 533.17209,185.8473 C 535.96435,186.96443 538.72842,187.52298 541.46431,187.52297 C 545.13091,187.52298 547.9514,186.57773 549.92576,184.68723 C 551.90007,182.75378 552.88724,180.04693 552.88727,176.56668 C 552.88724,173.34427 552.16802,170.87374 550.7296,169.15508 C 549.31933,167.43648 546.2027,165.7823 541.37969,164.19254 L 538.67203,163.22581 C 533.84899,161.67907 530.36569,159.31595 528.22213,156.13644 C 526.07855,152.91405 525.00677,148.51006 525.00678,142.92446 C 525.00677,136.13592 526.58624,130.89409 529.74519,127.19897 C 532.90412,123.50398 537.38869,121.65646 543.1989,121.65638 C 546.07578,121.65646 548.78344,121.9787 551.3219,122.62311 C 553.86031,123.26767 556.2013,124.2344 558.34491,125.52331"
       style="font-size:106.94109344px;font-style:normal;font-variant:normal;font-weight:normal;font-stretch:normal;fill:#ffffff;fill-opacity:1;stroke:none;stroke-width:1px;stroke-linecap:butt;stroke-linejoin:miter;stroke-opacity:1;font-family:Lohit Gujarati;-inkscape-font-specification:Lohit Gujarati" />
    <path
       id="text3222"
       d="M 78.25294,-281.22284 L 78.25294,-260.29195 L 87.729673,-260.29195 C 91.236782,-260.29192 93.94797,-261.19979 95.863246,-263.01557 C 97.778457,-264.83129 98.736079,-267.41812 98.736114,-270.77605 C 98.736079,-274.10903 97.778457,-276.68342 95.863246,-278.49921 C 93.94797,-280.31492 91.236782,-281.22279 87.729673,-281.22284 L 78.25294,-281.22284 M 70.716326,-287.4163 L 87.729673,-287.4163 C 93.972844,-287.41624 98.686332,-285.99846 101.87015,-283.16296 C 105.07877,-280.35223 106.68309,-276.22326 106.68314,-270.77605 C 106.68309,-265.27901 105.07877,-261.12517 101.87015,-258.31452 C 98.686332,-255.50381 93.972844,-254.09847 87.729673,-254.09849 L 78.25294,-254.09849 L 78.25294,-231.71251 L 70.716326,-231.71251 L 70.716326,-287.4163 M 149.5896,-254.32235 L 149.5896,-250.96445 L 118.02537,-250.96445 C 118.32384,-246.23851 119.74161,-242.63188 122.27871,-240.14456 C 124.84064,-237.6821 128.39752,-236.45087 132.94936,-236.45088 C 135.5859,-236.45087 138.13541,-236.77422 140.5979,-237.42093 C 143.0852,-238.06763 145.54765,-239.03769 147.98528,-240.33111 L 147.98528,-233.83918 C 145.52278,-232.7945 142.99814,-231.99855 140.41135,-231.45134 C 137.8245,-230.90413 135.20036,-230.63052 132.53895,-230.63052 C 125.87288,-230.63052 120.58731,-232.57064 116.68221,-236.45088 C 112.80197,-240.3311 110.86185,-245.57937 110.86185,-252.19568 C 110.86185,-259.03582 112.70247,-264.45819 116.38373,-268.46283 C 120.08984,-272.49227 125.07694,-274.507 131.34503,-274.50705 C 136.96637,-274.507 141.40625,-272.69125 144.66469,-269.05979 C 147.94792,-265.45313 149.58956,-260.54065 149.5896,-254.32235 M 142.72457,-256.33709 C 142.67479,-260.09293 141.61767,-263.09016 139.55322,-265.32879 C 137.51358,-267.56736 134.80239,-268.68665 131.41965,-268.68669 C 127.58914,-268.68665 124.51729,-267.60467 122.20409,-265.44072 C 119.91573,-263.27671 118.59744,-260.22973 118.24923,-256.29978 L 142.72457,-256.33709 M 185.07139,-267.08236 C 184.30028,-267.53005 183.45459,-267.8534 182.53431,-268.05242 C 181.63884,-268.27624 180.64391,-268.38817 179.54951,-268.38821 C 175.66925,-268.38817 172.68446,-267.11964 170.59512,-264.58259 C 168.53062,-262.07036 167.49838,-258.45129 167.49839,-253.72539 L 167.49839,-231.71251 L 160.59605,-231.71251 L 160.59605,-273.49968 L 167.49839,-273.49968 L 167.49839,-267.00774 C 168.94103,-269.54478 170.81896,-271.42271 173.1322,-272.64155 C 175.44539,-273.88517 178.25607,-274.507 181.56425,-274.50705 C 182.03681,-274.507 182.55915,-274.46969 183.13127,-274.39512 C 183.70332,-274.34533 184.33759,-274.25827 185.03408,-274.13395 L 185.07139,-267.08236 M 213.50159,-289.76682 L 213.50159,-284.0584 L 206.93503,-284.0584 C 204.47255,-284.05835 202.7563,-283.56088 201.78625,-282.566 C 200.84105,-281.57102 200.36846,-279.78014 200.36848,-277.19336 L 200.36848,-273.49968 L 211.6734,-273.49968 L 211.6734,-268.16435 L 200.36848,-268.16435 L 200.36848,-231.71251 L 193.46613,-231.71251 L 193.46613,-268.16435 L 186.89958,-268.16435 L 186.89958,-273.49968 L 193.46613,-273.49968 L 193.46613,-276.40985 C 193.46612,-281.06111 194.54811,-284.44388 196.7121,-286.55817 C 198.87606,-288.69721 202.30858,-289.76677 207.00965,-289.76682 L 213.50159,-289.76682 M 235.40253,-268.68669 C 231.72126,-268.68665 228.81109,-267.244 226.672,-264.35873 C 224.53288,-261.49827 223.46333,-257.56829 223.46334,-252.56878 C 223.46333,-247.56923 224.52045,-243.62681 226.63469,-240.74152 C 228.77378,-237.88108 231.69639,-236.45087 235.40253,-236.45088 C 239.05888,-236.45087 241.95662,-237.89352 244.09576,-240.77883 C 246.23483,-243.66412 247.30438,-247.5941 247.30441,-252.56878 C 247.30438,-257.51855 246.23483,-261.43609 244.09576,-264.32142 C 241.95662,-267.23157 239.05888,-268.68665 235.40253,-268.68669 M 235.40253,-274.50705 C 241.3721,-274.507 246.06071,-272.56689 249.46839,-268.68669 C 252.876,-264.80642 254.57982,-259.43379 254.57986,-252.56878 C 254.57982,-245.72861 252.876,-240.35598 249.46839,-236.45088 C 246.06071,-232.57064 241.3721,-230.63052 235.40253,-230.63052 C 229.40805,-230.63052 224.707,-232.57064 221.29936,-236.45088 C 217.91659,-240.35598 216.2252,-245.72861 216.22521,-252.56878 C 216.2252,-259.43379 217.91659,-264.80642 221.29936,-268.68669 C 224.707,-272.56689 229.40805,-274.507 235.40253,-274.50705 M 290.13626,-267.08236 C 289.36516,-267.53005 288.51946,-267.8534 287.59918,-268.05242 C 286.70371,-268.27624 285.70878,-268.38817 284.61438,-268.38821 C 280.73412,-268.38817 277.74933,-267.11964 275.65999,-264.58259 C 273.59549,-262.07036 272.56325,-258.45129 272.56326,-253.72539 L 272.56326,-231.71251 L 265.66092,-231.71251 L 265.66092,-273.49968 L 272.56326,-273.49968 L 272.56326,-267.00774 C 274.0059,-269.54478 275.88383,-271.42271 278.19707,-272.64155 C 280.51026,-273.88517 283.32095,-274.507 286.62912,-274.50705 C 287.10169,-274.507 287.62403,-274.46969 288.19614,-274.39512 C 288.7682,-274.34533 289.40247,-274.25827 290.09895,-274.13395 L 290.13626,-267.08236 M 328.60284,-265.47803 C 330.31905,-268.56229 332.3711,-270.83819 334.75898,-272.30576 C 337.14677,-273.77324 339.95745,-274.507 343.19104,-274.50705 C 347.54381,-274.507 350.9017,-272.9773 353.26473,-269.91792 C 355.62763,-266.88334 356.80911,-262.55539 356.80917,-256.93405 L 356.80917,-231.71251 L 349.90683,-231.71251 L 349.90683,-256.71019 C 349.90677,-260.71476 349.19788,-263.68712 347.78016,-265.62727 C 346.36233,-267.56736 344.19835,-268.53741 341.28823,-268.53745 C 337.73129,-268.53741 334.92061,-267.35593 332.85617,-264.993 C 330.79165,-262.63001 329.7594,-259.40892 329.75945,-255.32972 L 329.75945,-231.71251 L 322.8571,-231.71251 L 322.8571,-256.71019 C 322.85707,-260.73964 322.14818,-263.712 320.73043,-265.62727 C 319.31262,-267.56736 317.12377,-268.53741 314.16388,-268.53745 C 310.65672,-268.53741 307.87091,-267.3435 305.80644,-264.95569 C 303.74194,-262.5927 302.7097,-259.38404 302.70972,-255.32972 L 302.70972,-231.71251 L 295.80737,-231.71251 L 295.80737,-273.49968 L 302.70972,-273.49968 L 302.70972,-267.00774 C 304.27672,-269.56965 306.15465,-271.46002 308.34352,-272.67886 C 310.53235,-273.89761 313.13161,-274.507 316.14131,-274.50705 C 319.17582,-274.507 321.75021,-273.73593 323.86447,-272.19383 C 326.00354,-270.65164 327.58299,-268.41305 328.60284,-265.47803 M 386.73177,-268.68669 C 383.0505,-268.68665 380.14033,-267.244 378.00124,-264.35873 C 375.86212,-261.49827 374.79257,-257.56829 374.79258,-252.56878 C 374.79257,-247.56923 375.84969,-243.62681 377.96393,-240.74152 C 380.10302,-237.88108 383.02563,-236.45087 386.73177,-236.45088 C 390.38812,-236.45087 393.28586,-237.89352 395.425,-240.77883 C 397.56407,-243.66412 398.63362,-247.5941 398.63365,-252.56878 C 398.63362,-257.51855 397.56407,-261.43609 395.425,-264.32142 C 393.28586,-267.23157 390.38812,-268.68665 386.73177,-268.68669 M 386.73177,-274.50705 C 392.70134,-274.507 397.38995,-272.56689 400.79763,-268.68669 C 404.20523,-264.80642 405.90905,-259.43379 405.9091,-252.56878 C 405.90905,-245.72861 404.20523,-240.35598 400.79763,-236.45088 C 397.38995,-232.57064 392.70134,-230.63052 386.73177,-230.63052 C 380.73729,-230.63052 376.03623,-232.57064 372.6286,-236.45088 C 369.24583,-240.35598 367.55444,-245.72861 367.55445,-252.56878 C 367.55444,-259.43379 369.24583,-264.80642 372.6286,-268.68669 C 376.03623,-272.56689 380.73729,-274.507 386.73177,-274.50705 M 416.54245,-248.20352 L 416.54245,-273.49968 L 423.40749,-273.49968 L 423.40749,-248.46469 C 423.40747,-244.50982 424.17855,-241.53746 425.72071,-239.5476 C 427.26283,-237.58261 429.57605,-236.60011 432.66036,-236.60012 C 436.36646,-236.60011 439.28907,-237.78159 441.4282,-240.14456 C 443.59215,-242.50752 444.67414,-245.72861 444.67417,-249.80784 L 444.67417,-273.49968 L 451.53921,-273.49968 L 451.53921,-231.71251 L 444.67417,-231.71251 L 444.67417,-238.12982 C 443.00763,-235.59274 441.06751,-233.70237 438.85382,-232.45871 C 436.66494,-231.23992 434.11543,-230.63052 431.20527,-230.63052 C 426.40471,-230.63052 422.76077,-232.12292 420.27345,-235.10772 C 417.78611,-238.09251 416.54245,-242.45777 416.54245,-248.20352 M 433.81697,-274.50705 L 433.81697,-274.50705 M 492.39362,-272.26845 L 492.39362,-265.77651 C 490.45347,-266.77141 488.43873,-267.51761 486.34941,-268.01511 C 484.26002,-268.51254 482.09605,-268.76127 479.85747,-268.76131 C 476.44981,-268.76127 473.88786,-268.23893 472.17162,-267.19429 C 470.48022,-266.14958 469.63453,-264.58256 469.63454,-262.49323 C 469.63453,-260.90131 470.24392,-259.64521 471.46273,-258.72493 C 472.68151,-257.82946 475.13153,-256.97133 478.81279,-256.15054 L 481.16332,-255.6282 C 486.03846,-254.5835 489.49585,-253.10354 491.53549,-251.18831 C 493.59994,-249.29792 494.63218,-246.64892 494.63222,-243.24129 C 494.63218,-239.36105 493.09004,-236.28919 490.00578,-234.02573 C 486.94634,-231.76226 482.73032,-230.63052 477.3577,-230.63052 C 475.11909,-230.63052 472.781,-230.85438 470.34343,-231.3021 C 467.93071,-231.72495 465.3812,-232.37165 462.69488,-233.24222 L 462.69488,-240.33111 C 465.23196,-239.01282 467.73172,-238.01789 470.19419,-237.34631 C 472.65663,-236.6996 475.09422,-236.37625 477.50694,-236.37626 C 480.74045,-236.37625 483.22778,-236.92346 484.96894,-238.01789 C 486.71004,-239.13719 487.58061,-240.7042 487.58064,-242.71895 C 487.58061,-244.58444 486.94634,-246.01465 485.67783,-247.0096 C 484.43414,-248.00451 481.68564,-248.96214 477.43232,-249.88246 L 475.04449,-250.44211 C 470.79114,-251.33753 467.71929,-252.70557 465.82892,-254.54621 C 463.93855,-256.41169 462.99336,-258.9612 462.99336,-262.19476 C 462.99336,-266.1247 464.38626,-269.15925 467.17208,-271.29839 C 469.95788,-273.43745 473.91273,-274.507 479.03665,-274.50705 C 481.57371,-274.507 483.96154,-274.32045 486.20017,-273.9474 C 488.43873,-273.57425 490.50322,-273.01461 492.39362,-272.26845"
       style="font-size:76.41082001px;font-style:normal;font-variant:normal;font-weight:normal;font-stretch:normal;fill:url(#linearGradient3248);fill-opacity:1;stroke:none;stroke-width:1px;stroke-linecap:butt;stroke-linejoin:miter;stroke-opacity:1;font-family:Lohit Gujarati;-inkscape-font-specification:Lohit Gujarati"
       transform="scale(1.1339399,-0.881881)" />
  </g>
  <rect
     ry="68.346703"
     y="-803.22668"
     x="-133.35791"
     height="184.88524"
     width="1241.3727"
     id="rect6051"
     style="fill:url(#linearGradient3242);fill-opacity:1"
     transform="scale(1,-1)" />
  <g
     id="g3234"
     transform="matrix(-0.5689916,-0.3718884,0.3718884,-0.5689916,163.78076,844.70309)">
    <path
       sodipodi:type="star"
       style="opacity:0.22790701;fill:#ffffff;fill-opacity:1;fill-rule:nonzero;stroke:#ffffff;stroke-width:1.70000005;stroke-linecap:round;stroke-linejoin:round;marker:none;marker-start:none;marker-mid:none;marker-end:none;stroke-miterlimit:4;stroke-dasharray:none;stroke-dashoffset:0;stroke-opacity:1;visibility:visible;display:block;overflow:visible"
       id="path3320"
       sodipodi:sides="5"
       sodipodi:cx="141.42136"
       sodipodi:cy="350.13498"
       sodipodi:r1="78.688225"
       sodipodi:r2="45.665279"
       sodipodi:arg1="1.0612041"
       sodipodi:arg2="1.6895226"
       inkscape:flatsided="false"
       inkscape:rounded="0"
       inkscape:randomized="0"
       d="M 179.80715,418.82535 L 136.01242,395.47879 L 87.954791,407.86853 L 96.625376,359.00278 L 69.991407,317.1259 L 119.14486,310.27177 L 150.74179,272.0007 L 172.4497,316.63036 L 218.61165,334.85441 L 182.87443,369.29119 L 179.80715,418.82535 z"
       transform="matrix(0.61918,-0.2560053,0.2560053,0.61918,-54.25005,513.04807)" />
    <path
       transform="matrix(0.5386293,1.6017762e-2,-1.6017762e-2,0.5386293,1.2739842,431.73805)"
       d="M 179.80715,418.82535 L 136.01242,395.47879 L 87.954791,407.86853 L 96.625376,359.00278 L 69.991407,317.1259 L 119.14486,310.27177 L 150.74179,272.0007 L 172.4497,316.63036 L 218.61165,334.85441 L 182.87443,369.29119 L 179.80715,418.82535 z"
       inkscape:randomized="0"
       inkscape:rounded="0"
       inkscape:flatsided="false"
       sodipodi:arg2="1.6895226"
       sodipodi:arg1="1.0612041"
       sodipodi:r2="45.665279"
       sodipodi:r1="78.688225"
       sodipodi:cy="350.13498"
       sodipodi:cx="141.42136"
       sodipodi:sides="5"
       id="path3322"
       style="opacity:0.22790701;fill:#ffffff;fill-opacity:1;fill-rule:nonzero;stroke:#ffffff;stroke-width:1.70000005;stroke-linecap:round;stroke-linejoin:round;marker:none;marker-start:none;marker-mid:none;marker-end:none;stroke-miterlimit:4;stroke-dasharray:none;stroke-dashoffset:0;stroke-opacity:1;visibility:visible;display:block;overflow:visible"
       sodipodi:type="star" />
    <path
       sodipodi:type="star"
       style="opacity:0.22790701;fill:#ffffff;fill-opacity:1;fill-rule:nonzero;stroke:#ffffff;stroke-width:1.70000005;stroke-linecap:round;stroke-linejoin:round;marker:none;marker-start:none;marker-mid:none;marker-end:none;stroke-miterlimit:4;stroke-dasharray:none;stroke-dashoffset:0;stroke-opacity:1;visibility:visible;display:block;overflow:visible"
       id="path3324"
       sodipodi:sides="5"
       sodipodi:cx="141.42136"
       sodipodi:cy="350.13498"
       sodipodi:r1="78.688225"
       sodipodi:r2="45.665279"
       sodipodi:arg1="1.0612041"
       sodipodi:arg2="1.6895226"
       inkscape:flatsided="false"
       inkscape:rounded="0"
       inkscape:randomized="0"
       d="M 179.80715,418.82535 L 136.01242,395.47879 L 87.954791,407.86853 L 96.625376,359.00278 L 69.991407,317.1259 L 119.14486,310.27177 L 150.74179,272.0007 L 172.4497,316.63036 L 218.61165,334.85441 L 182.87443,369.29119 L 179.80715,418.82535 z"
       transform="matrix(0.3865484,-0.1970619,0.1970619,0.3865484,9.9541995,456.30955)" />
    <path
       transform="matrix(0.2737005,6.830928e-2,-6.830928e-2,0.2737005,66.193288,406.91088)"
       d="M 179.80715,418.82535 L 136.01242,395.47879 L 87.954791,407.86853 L 96.625376,359.00278 L 69.991407,317.1259 L 119.14486,310.27177 L 150.74179,272.0007 L 172.4497,316.63036 L 218.61165,334.85441 L 182.87443,369.29119 L 179.80715,418.82535 z"
       inkscape:randomized="0"
       inkscape:rounded="0"
       inkscape:flatsided="false"
       sodipodi:arg2="1.6895226"
       sodipodi:arg1="1.0612041"
       sodipodi:r2="45.665279"
       sodipodi:r1="78.688225"
       sodipodi:cy="350.13498"
       sodipodi:cx="141.42136"
       sodipodi:sides="5"
       id="path3326"
       style="opacity:0.22790701;fill:#ffffff;fill-opacity:1;fill-rule:nonzero;stroke:#ffffff;stroke-width:1.70000005;stroke-linecap:round;stroke-linejoin:round;marker:none;marker-start:none;marker-mid:none;marker-end:none;stroke-miterlimit:4;stroke-dasharray:none;stroke-dashoffset:0;stroke-opacity:1;visibility:visible;display:block;overflow:visible"
       sodipodi:type="star" />
    <path
       sodipodi:type="star"
       style="opacity:0.22790701;fill:#ffffff;fill-opacity:1;fill-rule:nonzero;stroke:#ffffff;stroke-width:1.70000005;stroke-linecap:round;stroke-linejoin:round;marker:none;marker-start:none;marker-mid:none;marker-end:none;stroke-miterlimit:4;stroke-dasharray:none;stroke-dashoffset:0;stroke-opacity:1;visibility:visible;display:block;overflow:visible"
       id="path3328"
       sodipodi:sides="5"
       sodipodi:cx="141.42136"
       sodipodi:cy="350.13498"
       sodipodi:r1="78.688225"
       sodipodi:r2="45.665279"
       sodipodi:arg1="1.0612041"
       sodipodi:arg2="1.6895226"
       inkscape:flatsided="false"
       inkscape:rounded="0"
       inkscape:randomized="0"
       d="M 179.80715,418.82535 L 136.01242,395.47879 L 87.954791,407.86853 L 96.625376,359.00278 L 69.991407,317.1259 L 119.14486,310.27177 L 150.74179,272.0007 L 172.4497,316.63036 L 218.61165,334.85441 L 182.87443,369.29119 L 179.80715,418.82535 z"
       transform="matrix(0.2054764,1.2482009e-2,-1.2482009e-2,0.2054764,96.575936,402.6891)" />
    <path
       transform="matrix(0.9586287,6.499926e-2,-6.499926e-2,0.9586287,-59.955145,434.97636)"
       d="M 179.80715,418.82535 L 136.01242,395.47879 L 87.954791,407.86853 L 96.625376,359.00278 L 69.991407,317.1259 L 119.14486,310.27177 L 150.74179,272.0007 L 172.4497,316.63036 L 218.61165,334.85441 L 182.87443,369.29119 L 179.80715,418.82535 z"
       inkscape:randomized="0"
       inkscape:rounded="0"
       inkscape:flatsided="false"
       sodipodi:arg2="1.6895226"
       sodipodi:arg1="1.0612041"
       sodipodi:r2="45.665279"
       sodipodi:r1="78.688225"
       sodipodi:cy="350.13498"
       sodipodi:cx="141.42136"
       sodipodi:sides="5"
       id="path3332"
       style="opacity:0.22790701;fill:#ffffff;fill-opacity:1;fill-rule:nonzero;stroke:#ffffff;stroke-width:1.70000005;stroke-linecap:round;stroke-linejoin:round;marker:none;marker-start:none;marker-mid:none;marker-end:none;stroke-miterlimit:4;stroke-dasharray:none;stroke-dashoffset:0;stroke-opacity:1;visibility:visible;display:block;overflow:visible"
       sodipodi:type="star" />
  </g>
</svg>
