<?xml version="1.0" encoding="UTF-8" standalone="no"?>
<!-- Created with Inkscape (http://www.inkscape.org/) -->

<svg
   xmlns:dc="http://purl.org/dc/elements/1.1/"
   xmlns:cc="http://creativecommons.org/ns#"
   xmlns:rdf="http://www.w3.org/1999/02/22-rdf-syntax-ns#"
   xmlns:svg="http://www.w3.org/2000/svg"
   xmlns="http://www.w3.org/2000/svg"
   xmlns:xlink="http://www.w3.org/1999/xlink"
   xmlns:sodipodi="http://sodipodi.sourceforge.net/DTD/sodipodi-0.dtd"
   xmlns:inkscape="http://www.inkscape.org/namespaces/inkscape"
   width="512"
   height="192"
   id="svg1901"
   sodipodi:version="0.32"
   inkscape:version="0.47 r22583"
   sodipodi:docname="arrows_hold.svg"
   version="1.1">
  <defs
     id="defs1903">
    <linearGradient
       id="linearGradient5162">
      <stop
         id="stop5164"
         offset="0"
         style="stop-color:#ffff00;stop-opacity:0;" />
      <stop
         style="stop-color:#ffff00;stop-opacity:1;"
         offset="0.5"
         id="stop5166" />
      <stop
         id="stop5168"
         offset="1"
         style="stop-color:#ffff00;stop-opacity:0;" />
    </linearGradient>
    <linearGradient
       id="linearGradient5133">
      <stop
         id="stop5135"
         offset="0"
         style="stop-color:#ff0000;stop-opacity:0;" />
      <stop
         style="stop-color:#ff0000;stop-opacity:1;"
         offset="0.5"
         id="stop5137" />
      <stop
         id="stop5139"
         offset="1"
         style="stop-color:#ff0000;stop-opacity:0;" />
    </linearGradient>
    <linearGradient
       id="linearGradient5080">
      <stop
         style="stop-color:#00ff00;stop-opacity:0;"
         offset="0"
         id="stop5082" />
      <stop
         id="stop5090"
         offset="0.5"
         style="stop-color:#00ff00;stop-opacity:1;" />
      <stop
         style="stop-color:#00ff00;stop-opacity:0;"
         offset="1"
         id="stop5084" />
    </linearGradient>
    <linearGradient
       id="linearGradient3627">
      <stop
         id="stop3629"
         offset="0"
         style="stop-color:#ffff00;stop-opacity:1;" />
      <stop
         id="stop3631"
         offset="1"
         style="stop-color:#ffff80;stop-opacity:1;" />
    </linearGradient>
    <linearGradient
       id="linearGradient3619">
      <stop
         style="stop-color:#ffff00;stop-opacity:1;"
         offset="0"
         id="stop3621" />
      <stop
         style="stop-color:#ffff80;stop-opacity:1;"
         offset="1"
         id="stop3623" />
    </linearGradient>
    <linearGradient
       id="linearGradient3609">
      <stop
         style="stop-color:#ff0000;stop-opacity:1;"
         offset="0"
         id="stop3611" />
      <stop
         style="stop-color:#800000;stop-opacity:1;"
         offset="1"
         id="stop3613" />
    </linearGradient>
    <inkscape:perspective
       sodipodi:type="inkscape:persp3d"
       inkscape:vp_x="0 : 526.18109 : 1"
       inkscape:vp_y="0 : 1000 : 0"
       inkscape:vp_z="744.09448 : 526.18109 : 1"
       inkscape:persp3d-origin="372.04724 : 350.78739 : 1"
       id="perspective7" />
    <inkscape:perspective
       id="perspective3609"
       inkscape:persp3d-origin="0.5 : 0.33333333 : 1"
       inkscape:vp_z="1 : 0.5 : 1"
       inkscape:vp_y="0 : 1000 : 0"
       inkscape:vp_x="0 : 0.5 : 1"
       sodipodi:type="inkscape:persp3d" />
    <inkscape:perspective
       id="perspective3631"
       inkscape:persp3d-origin="0.5 : 0.33333333 : 1"
       inkscape:vp_z="1 : 0.5 : 1"
       inkscape:vp_y="0 : 1000 : 0"
       inkscape:vp_x="0 : 0.5 : 1"
       sodipodi:type="inkscape:persp3d" />
    <inkscape:perspective
       id="perspective2823"
       inkscape:persp3d-origin="0.5 : 0.33333333 : 1"
       inkscape:vp_z="1 : 0.5 : 1"
       inkscape:vp_y="0 : 1000 : 0"
       inkscape:vp_x="0 : 0.5 : 1"
       sodipodi:type="inkscape:persp3d" />
    <inkscape:perspective
       id="perspective2845"
       inkscape:persp3d-origin="0.5 : 0.33333333 : 1"
       inkscape:vp_z="1 : 0.5 : 1"
       inkscape:vp_y="0 : 1000 : 0"
       inkscape:vp_x="0 : 0.5 : 1"
       sodipodi:type="inkscape:persp3d" />
    <inkscape:perspective
       id="perspective2845-3"
       inkscape:persp3d-origin="0.5 : 0.33333333 : 1"
       inkscape:vp_z="1 : 0.5 : 1"
       inkscape:vp_y="0 : 1000 : 0"
       inkscape:vp_x="0 : 0.5 : 1"
       sodipodi:type="inkscape:persp3d" />
    <inkscape:perspective
       id="perspective2845-0"
       inkscape:persp3d-origin="0.5 : 0.33333333 : 1"
       inkscape:vp_z="1 : 0.5 : 1"
       inkscape:vp_y="0 : 1000 : 0"
       inkscape:vp_x="0 : 0.5 : 1"
       sodipodi:type="inkscape:persp3d" />
    <inkscape:perspective
       id="perspective2885"
       inkscape:persp3d-origin="0.5 : 0.33333333 : 1"
       inkscape:vp_z="1 : 0.5 : 1"
       inkscape:vp_y="0 : 1000 : 0"
       inkscape:vp_x="0 : 0.5 : 1"
       sodipodi:type="inkscape:persp3d" />
    <inkscape:perspective
       id="perspective2885-6"
       inkscape:persp3d-origin="0.5 : 0.33333333 : 1"
       inkscape:vp_z="1 : 0.5 : 1"
       inkscape:vp_y="0 : 1000 : 0"
       inkscape:vp_x="0 : 0.5 : 1"
       sodipodi:type="inkscape:persp3d" />
    <inkscape:perspective
       id="perspective2885-4"
       inkscape:persp3d-origin="0.5 : 0.33333333 : 1"
       inkscape:vp_z="1 : 0.5 : 1"
       inkscape:vp_y="0 : 1000 : 0"
       inkscape:vp_x="0 : 0.5 : 1"
       sodipodi:type="inkscape:persp3d" />
    <linearGradient
       inkscape:collect="always"
       xlink:href="#linearGradient5080"
       id="linearGradient5088"
       x1="-0.75"
       y1="110.88067"
       x2="64.75"
       y2="110.88067"
       gradientUnits="userSpaceOnUse"
       gradientTransform="matrix(1,0,0,1.0220971,160.26987,307.37129)" />
    <inkscape:perspective
       id="perspective5100"
       inkscape:persp3d-origin="0.5 : 0.33333333 : 1"
       inkscape:vp_z="1 : 0.5 : 1"
       inkscape:vp_y="0 : 1000 : 0"
       inkscape:vp_x="0 : 0.5 : 1"
       sodipodi:type="inkscape:persp3d" />
    <linearGradient
       inkscape:collect="always"
       xlink:href="#linearGradient5080-8"
       id="linearGradient5088-2"
       x1="-0.75"
       y1="110.88067"
       x2="64.75"
       y2="110.88067"
       gradientUnits="userSpaceOnUse" />
    <linearGradient
       id="linearGradient5080-8">
      <stop
         style="stop-color:#00ff00;stop-opacity:0;"
         offset="0"
         id="stop5082-7" />
      <stop
         id="stop5090-6"
         offset="0.5"
         style="stop-color:#00ff00;stop-opacity:1;" />
      <stop
         style="stop-color:#00ff00;stop-opacity:0;"
         offset="1"
         id="stop5084-8" />
    </linearGradient>
    <linearGradient
       gradientTransform="matrix(1,0,0,0.93686547,224.26988,324.75971)"
       y2="110.88067"
       x2="64.75"
       y1="110.88067"
       x1="-0.75"
       gradientUnits="userSpaceOnUse"
       id="linearGradient5110"
       xlink:href="#linearGradient5133"
       inkscape:collect="always" />
    <inkscape:perspective
       id="perspective5100-0"
       inkscape:persp3d-origin="0.5 : 0.33333333 : 1"
       inkscape:vp_z="1 : 0.5 : 1"
       inkscape:vp_y="0 : 1000 : 0"
       inkscape:vp_x="0 : 0.5 : 1"
       sodipodi:type="inkscape:persp3d" />
    <linearGradient
       inkscape:collect="always"
       xlink:href="#linearGradient5080-2"
       id="linearGradient5088-7"
       x1="-0.75"
       y1="110.88067"
       x2="64.75"
       y2="110.88067"
       gradientUnits="userSpaceOnUse" />
    <linearGradient
       id="linearGradient5080-2">
      <stop
         style="stop-color:#00ff00;stop-opacity:0;"
         offset="0"
         id="stop5082-3" />
      <stop
         id="stop5090-3"
         offset="0.5"
         style="stop-color:#00ff00;stop-opacity:1;" />
      <stop
         style="stop-color:#00ff00;stop-opacity:0;"
         offset="1"
         id="stop5084-2" />
    </linearGradient>
    <linearGradient
       gradientTransform="matrix(1,0,0,1.0820749,288.26986,297.04201)"
       y2="110.88067"
       x2="64.75"
       y1="110.88067"
       x1="-0.75"
       gradientUnits="userSpaceOnUse"
       id="linearGradient5110-8"
       xlink:href="#linearGradient5162"
       inkscape:collect="always" />
    <inkscape:perspective
       id="perspective5100-8"
       inkscape:persp3d-origin="0.5 : 0.33333333 : 1"
       inkscape:vp_z="1 : 0.5 : 1"
       inkscape:vp_y="0 : 1000 : 0"
       inkscape:vp_x="0 : 0.5 : 1"
       sodipodi:type="inkscape:persp3d" />
    <linearGradient
       inkscape:collect="always"
       xlink:href="#linearGradient5080-0"
       id="linearGradient5088-3"
       x1="-0.75"
       y1="110.88067"
       x2="64.75"
       y2="110.88067"
       gradientUnits="userSpaceOnUse" />
    <linearGradient
       id="linearGradient5080-0">
      <stop
         style="stop-color:#0000ff;stop-opacity:0;"
         offset="0"
         id="stop5082-0" />
      <stop
         id="stop5090-2"
         offset="0.5"
         style="stop-color:#0000ff;stop-opacity:1;" />
      <stop
         style="stop-color:#0000ff;stop-opacity:0;"
         offset="1"
         id="stop5084-9" />
    </linearGradient>
    <linearGradient
       gradientTransform="matrix(1,0,0,1.0410374,352.26987,304.87528)"
       y2="110.88067"
       x2="64.75"
       y1="110.88067"
       x1="-0.75"
       gradientUnits="userSpaceOnUse"
       id="linearGradient5110-6"
       xlink:href="#linearGradient5080-0"
       inkscape:collect="always"
       spreadMethod="pad" />
  </defs>
  <sodipodi:namedview
     id="base"
     pagecolor="#ffffff"
     bordercolor="#666666"
     borderopacity="1.0"
     inkscape:pageopacity="0.0"
     inkscape:pageshadow="2"
     inkscape:zoom="1.979899"
     inkscape:cx="81.063052"
     inkscape:cy="87.074303"
     inkscape:document-units="px"
     inkscape:current-layer="layer1"
     inkscape:window-width="1212"
     inkscape:window-height="826"
     inkscape:window-x="166"
     inkscape:window-y="22"
     showgrid="false"
     inkscape:window-maximized="0" />
  <metadata
     id="metadata1906">
    <rdf:RDF>
      <cc:Work
         rdf:about="">
        <dc:format>image/svg+xml</dc:format>
        <dc:type
           rdf:resource="http://purl.org/dc/dcmitype/StillImage" />
        <dc:title />
      </cc:Work>
    </rdf:RDF>
  </metadata>
  <g
     inkscape:label="Taso 1"
     inkscape:groupmode="layer"
     id="layer1"
     transform="translate(-160.26987,-311.5892)">
    <rect
       style="fill:url(#linearGradient5110-6);fill-opacity:1;fill-rule:nonzero;stroke:none"
       id="rect2858-5"
       width="64"
       height="166.56598"
       x="352.26987"
       y="337.02322"
       ry="18.590704" />
    <rect
       style="fill:url(#linearGradient5110-8);fill-opacity:1;fill-rule:nonzero;stroke:none"
       id="rect2858-7"
       width="64"
       height="173.13199"
       x="288.26987"
       y="330.45721"
       ry="19.323547" />
    <rect
       style="fill:url(#linearGradient5110);fill-opacity:1;fill-rule:nonzero;stroke:none"
       id="rect2858-4"
       width="64"
       height="149.89848"
       x="224.26987"
       y="353.69073"
       ry="16.730415" />
    <rect
       style="fill:url(#linearGradient5088);fill-opacity:1;fill-rule:nonzero;stroke:none"
       id="rect2858"
       width="64"
       height="163.53552"
       x="160.26987"
       y="338.93433"
       ry="18.252472" />
    <path
       style="opacity:0.9;fill:#00ff00;fill-opacity:1;fill-rule:nonzero;stroke:#000000;stroke-width:1.5;stroke-linejoin:round;stroke-miterlimit:4;stroke-opacity:1;stroke-dasharray:none"
       d="m 162.01987,343.97556 c 0.44358,2.61005 2.33393,4.28743 3.40424,5.6404 l 20.21644,23.35409 c 1.39386,1.61029 4.25963,0.91843 6.42029,-1.54095 2.16065,-2.45939 2.76749,-5.71784 1.37364,-7.32812 l -12.00444,-13.86863 35.65498,0 c 3.00705,0 5.43485,-2.78404 5.43485,-6.23232 0,-3.44829 -2.4278,-6.23234 -5.43485,-6.23234 l -35.62512,0 12.75098,-14.65622 c 1.39761,-1.60602 0.78129,-4.89638 -1.37364,-7.36237 -2.15492,-2.46598 -5.02269,-3.14697 -6.42028,-1.54095 l -20.93312,23.97536 c -1.99766,2.16065 -3.09973,3.02752 -3.46397,5.79205 z"
       id="rect2823-7"
       sodipodi:nodetypes="cccscccscccsccc" />
    <path
       style="opacity:0.9;fill:#ff0000;fill-opacity:1;fill-rule:nonzero;stroke:#000000;stroke-width:1.5;stroke-linejoin:round;stroke-miterlimit:4;stroke-opacity:1;stroke-dasharray:none"
       d="m 255.88351,373.8392 c -2.61005,-0.44358 -4.28743,-2.33393 -5.6404,-3.40424 l -23.35409,-20.21644 c -1.61029,-1.39386 -0.91843,-4.25963 1.54095,-6.42029 2.45938,-2.16065 5.71784,-2.76749 7.32812,-1.37364 l 13.86863,12.00444 0,-35.65498 c 0,-3.00705 2.78404,-5.43485 6.23232,-5.43485 3.44828,0 6.23233,2.4278 6.23233,5.43485 l 0,35.62512 14.65623,-12.75098 c 1.60601,-1.39761 4.89638,-0.78129 7.36237,1.37364 2.46598,2.15492 3.14697,5.02269 1.54095,6.42028 l -23.97536,20.93312 c -2.16066,1.99766 -3.02752,3.09973 -5.79205,3.46397 z"
       id="rect2823-7-2"
       sodipodi:nodetypes="cccscccscccsccc" />
    <path
       style="opacity:0.9;fill:#ffff00;fill-opacity:1;fill-rule:nonzero;stroke:#000000;stroke-width:1.5;stroke-linejoin:round;stroke-miterlimit:4;stroke-opacity:1;stroke-dasharray:none"
       d="m 319.88351,313.3392 c -2.61006,0.44358 -4.28743,2.33393 -5.6404,3.40424 l -23.35409,20.21644 c -1.61029,1.39386 -0.91843,4.25963 1.54095,6.42029 2.45938,2.16065 5.71784,2.76749 7.32812,1.37364 l 13.86863,-12.00444 0,35.65498 c 0,3.00705 2.78404,5.43485 6.23232,5.43485 3.44828,0 6.23233,-2.4278 6.23233,-5.43485 l 0,-35.62512 14.65623,12.75098 c 1.60601,1.39761 4.89638,0.78129 7.36237,-1.37364 2.46598,-2.15492 3.14697,-5.02269 1.54095,-6.42028 l -23.97536,-20.93312 c -2.16066,-1.99766 -3.02752,-3.09973 -5.79205,-3.46397 z"
       id="rect2823-7-2-9"
       sodipodi:nodetypes="cccscccscccsccc" />
    <path
       style="opacity:0.9;fill:#0000ff;fill-opacity:1;fill-rule:nonzero;stroke:#000000;stroke-width:1.5;stroke-linejoin:round;stroke-miterlimit:4;stroke-opacity:1;stroke-dasharray:none"
       d="m 414.51987,343.20285 c -0.44358,-2.61006 -2.33393,-4.28743 -3.40425,-5.6404 l -20.21643,-23.35409 c -1.39386,-1.61029 -4.25963,-0.91843 -6.42029,1.54095 -2.16065,2.45938 -2.76749,5.71783 -1.37364,7.32811 l 12.00444,13.86864 -35.65498,0 c -3.00705,0 -5.43485,2.78404 -5.43485,6.23232 0,3.44828 2.4278,6.23233 5.43485,6.23233 l 35.62512,0 -12.75098,14.65623 c -1.39761,1.60601 -0.78129,4.89638 1.37364,7.36237 2.15492,2.46597 5.02269,3.14696 6.42028,1.54095 l 20.93312,-23.97537 c 1.99766,-2.16065 3.09973,-3.02752 3.46397,-5.79204 z"
       id="rect2823-7-2-92"
       sodipodi:nodetypes="cccscccscccsccc" />
    <path
       style="opacity:0.90000000000000002;fill:#ff6000;fill-opacity:1;fill-rule:nonzero;stroke:#000000;stroke-width:1.50000000000000000;stroke-miterlimit:4;stroke-opacity:1;stroke-dasharray:none;stroke-linejoin:round"
       d="m 425.57754,321.46922 c -1.6047,2.26182 -1.44695,4.90443 -1.65632,6.69936 l -2.32405,32.27266 c -0.16032,2.22516 2.47482,3.83538 5.89688,3.61411 3.42206,-0.22127 6.28508,-2.18531 6.44539,-4.41047 l 1.38081,-19.16417 26.40961,26.40962 c 2.22732,2.22732 6.08773,1.96345 8.64187,-0.59069 2.55414,-2.55414 2.81801,-6.41455 0.59069,-8.64187 l -26.3875,-26.3875 20.3005,-1.41121 c 2.22478,-0.15437 4.20544,-3.04805 4.43584,-6.47076 0.23041,-3.42269 -1.38934,-6.05125 -3.61411,-5.89688 l -33.26368,2.25339 c -3.08006,0.12073 -4.53845,-0.0535 -6.85593,1.72441 z"
       id="rect2823-7-2-7"
       sodipodi:nodetypes="cccscccscccsccc" />
    <path
       style="opacity:0.90000000000000002;fill:#ff00ff;fill-opacity:1;fill-rule:nonzero;stroke:#000000;stroke-width:1.50000000000000000;stroke-miterlimit:4;stroke-opacity:1;stroke-dasharray:none;stroke-linejoin:round"
       d="m 534.38985,320.89687 c -2.26182,-1.60471 -4.90444,-1.44695 -6.69936,-1.65632 l -32.27266,-2.32406 c -2.22517,-0.16031 -3.83538,2.47483 -3.61412,5.89689 0.22127,3.42205 2.18532,6.28507 4.41048,6.44538 l 19.16416,1.38081 -26.40962,26.40962 c -2.22731,2.22731 -1.96345,6.08772 0.59069,8.64186 2.55414,2.55414 6.41456,2.81801 8.64187,0.5907 l 26.3875,-26.3875 1.41122,20.3005 c 0.15436,2.22477 3.04804,4.20544 6.47075,4.43584 3.4227,0.2304 6.05126,-1.38935 5.89688,-3.61412 l -2.25338,-33.26368 c -0.12073,-3.08006 0.0535,-4.53845 -1.72441,-6.85592 z"
       id="rect2823-7-2-7-6"
       sodipodi:nodetypes="cccscccscccsccc" />
    <path
       style="opacity:0.90000000000000002;fill:#00ffff;fill-opacity:1;fill-rule:nonzero;stroke:#000000;stroke-width:1.50000000000000000;stroke-miterlimit:4;stroke-opacity:1;stroke-dasharray:none;stroke-linejoin:round"
       d="m 554.14989,366.28152 c 2.26182,1.60471 4.90444,1.44695 6.69936,1.65632 l 32.27266,2.32406 c 2.22517,0.16031 3.83538,-2.47483 3.61412,-5.89689 -0.22127,-3.42205 -2.18532,-6.28507 -4.41048,-6.44538 l -19.16416,-1.38081 26.40962,-26.40962 c 2.22731,-2.22731 1.96345,-6.08772 -0.59069,-8.64186 -2.55414,-2.55414 -6.41456,-2.81801 -8.64187,-0.5907 l -26.3875,26.3875 -1.41122,-20.3005 c -0.15437,-2.22477 -3.04804,-4.20544 -6.47075,-4.43584 -3.4227,-0.2304 -6.05126,1.38935 -5.89688,3.61412 l 2.25338,33.26368 c 0.12073,3.08006 -0.0535,4.53845 1.72441,6.85592 z"
       id="rect2823-7-2-7-0"
       sodipodi:nodetypes="cccscccscccsccc" />
    <path
       style="opacity:0.90000000000000002;fill:#8000ff;fill-opacity:1;fill-rule:nonzero;stroke:#000000;stroke-width:1.50000000000000000;stroke-miterlimit:4;stroke-opacity:1;stroke-dasharray:none;stroke-linejoin:round"
       d="m 662.9622,365.70917 c 1.6047,-2.26182 1.44695,-4.90443 1.65632,-6.69936 l 2.32405,-32.27266 c 0.16032,-2.22516 -2.47482,-3.83538 -5.89688,-3.61411 -3.42206,0.22127 -6.28508,2.18531 -6.44539,4.41047 l -1.38081,19.16417 -26.40961,-26.40962 c -2.22732,-2.22732 -6.08773,-1.96345 -8.64187,0.59069 -2.55414,2.55414 -2.81801,6.41455 -0.59069,8.64187 l 26.3875,26.3875 -20.3005,1.41121 c -2.22478,0.15437 -4.20544,3.04805 -4.43584,6.47076 -0.23041,3.42269 1.38934,6.05125 3.61411,5.89688 l 33.26368,-2.25339 c 3.08006,-0.12073 4.53845,0.0535 6.85593,-1.72441 z"
       id="rect2823-7-2-7-3"
       sodipodi:nodetypes="cccscccscccsccc" />
  </g>
</svg>
