<?xml version="1.0" encoding="UTF-8" standalone="no"?>
<!-- Created with Inkscape (http://www.inkscape.org/) -->
<svg
   xmlns:dc="http://purl.org/dc/elements/1.1/"
   xmlns:cc="http://creativecommons.org/ns#"
   xmlns:rdf="http://www.w3.org/1999/02/22-rdf-syntax-ns#"
   xmlns:svg="http://www.w3.org/2000/svg"
   xmlns="http://www.w3.org/2000/svg"
   xmlns:xlink="http://www.w3.org/1999/xlink"
   xmlns:sodipodi="http://sodipodi.sourceforge.net/DTD/sodipodi-0.dtd"
   xmlns:inkscape="http://www.inkscape.org/namespaces/inkscape"
   width="64"
   height="128"
   id="svg2463"
   sodipodi:version="0.32"
   inkscape:version="0.46"
   version="1.0"
   sodipodi:docname="button_l.svg"
   inkscape:output_extension="org.inkscape.output.svg.inkscape">
  <defs
     id="defs2465">
    <linearGradient
       id="linearGradient3262">
      <stop
         style="stop-color:#f5f5f5;stop-opacity:0.22680412;"
         offset="0"
         id="stop3264" />
      <stop
         style="stop-color:#f5f5f5;stop-opacity:0.96078432;"
         offset="1"
         id="stop3266" />
    </linearGradient>
    <linearGradient
       id="linearGradient3751"
       inkscape:collect="always">
      <stop
         id="stop3753"
         offset="0"
         style="stop-color:black;stop-opacity:1;" />
      <stop
         id="stop3755"
         offset="1"
         style="stop-color:black;stop-opacity:0;" />
    </linearGradient>
    <inkscape:perspective
       sodipodi:type="inkscape:persp3d"
       inkscape:vp_x="0 : 526.18109 : 1"
       inkscape:vp_y="0 : 1000 : 0"
       inkscape:vp_z="744.09448 : 526.18109 : 1"
       inkscape:persp3d-origin="372.04724 : 350.78739 : 1"
       id="perspective2471" />
    <linearGradient
       inkscape:collect="always"
       xlink:href="#linearGradient3751"
       id="linearGradient3272"
       gradientUnits="userSpaceOnUse"
       gradientTransform="matrix(0.3868046,0,0,0.3868046,40.335717,481.59837)"
       x1="665.12128"
       y1="684.16162"
       x2="381.28015"
       y2="449.80624" />
    <linearGradient
       inkscape:collect="always"
       xlink:href="#linearGradient3751"
       id="linearGradient2406"
       gradientUnits="userSpaceOnUse"
       gradientTransform="matrix(0.3868046,0,0,0.3868046,43.114888,485.8841)"
       x1="665.12128"
       y1="684.16162"
       x2="381.28015"
       y2="449.80624" />
  </defs>
  <sodipodi:namedview
     id="base"
     pagecolor="#f5f5f5"
     bordercolor="#666666"
     borderopacity="1.0"
     gridtolerance="10000"
     guidetolerance="10"
     objecttolerance="10"
     inkscape:pageopacity="0"
     inkscape:pageshadow="2"
     inkscape:zoom="5.6"
     inkscape:cx="-11.941559"
     inkscape:cy="59.231703"
     inkscape:document-units="px"
     inkscape:current-layer="layer1"
     showgrid="false"
     inkscape:window-width="1539"
     inkscape:window-height="961"
     inkscape:window-x="95"
     inkscape:window-y="101" />
  <metadata
     id="metadata2468">
    <rdf:RDF>
      <cc:Work
         rdf:about="">
        <dc:format>image/svg+xml</dc:format>
        <dc:type
           rdf:resource="http://purl.org/dc/dcmitype/StillImage" />
      </cc:Work>
    </rdf:RDF>
  </metadata>
  <g
     inkscape:label="Layer 1"
     inkscape:groupmode="layer"
     id="layer1"
     transform="translate(-110.35967,-771.51188)">
    <path
       style="opacity:1;fill:#ffffff;fill-opacity:1;stroke:#000000;stroke-width:2;stroke-miterlimit:3.29999995000000013;stroke-dasharray:none;stroke-opacity:1"
       d="M 16.625,1.65625 C 12.949166,1.65625 10,1.5432783 10,31.316965 L 10,77.9375 C 5.953684,82.854218 3.53125,89.140688 3.53125,96 C 3.53125,111.71475 16.281808,124.46875 32,124.46875 C 47.718191,124.46875 60.468748,111.71475 60.46875,96 C 60.46875,89.140688 58.046316,82.854218 54,77.9375 L 54,31.316965 C 54,1.5286903 51.050836,1.65625 47.375,1.65625 L 16.625,1.65625 z"
       transform="translate(110.35967,771.51188)"
       id="rect2389"
       sodipodi:nodetypes="cccssscczz" />
    <path
       style="fill:#000000;fill-opacity:1;fill-rule:evenodd;stroke:#000000;stroke-width:0.06804083px;stroke-linecap:butt;stroke-linejoin:miter;stroke-opacity:1"
       d="M 145.82521,851.47425 L 144.45057,851.47425 L 144.17565,852.16158 L 144.45057,852.91761 L 144.31311,853.7424 L 143.62581,853.33001 L 143.07595,852.29903 L 141.90751,852.02411 L 141.42639,851.54299 L 140.39542,851.06186 L 139.22698,849.13737 L 139.29572,848.24386 L 142.18244,846.04444 L 143.55706,846.66303 L 143.76326,847.14417 L 143.76326,847.69401 L 144.10692,848.17513 L 144.79423,848.38133 L 145.27535,847.96893 L 145.34408,847.48781 L 145.13789,847.07543 L 144.7255,846.86923 L 144.45057,846.52557 L 145.06916,846.25065 L 144.9317,845.56332 L 144.9317,845.15094 L 144.51932,844.73854 L 144.31311,844.11995 L 143.48834,843.91377 L 142.80102,843.7763 L 141.35765,844.80728 L 137.71489,846.25065 L 136.8901,847.07543 L 136.27151,847.55655 L 136.13404,848.65625 L 136.40899,849.2061 L 137.09631,851.06186 L 137.98981,852.78016 L 138.95205,854.01732 L 137.43996,856.49167 L 135.72166,860.20317 L 134.69068,861.85272 L 132.97241,863.98341 L 132.90367,864.94565 L 132.01017,865.77044 L 133.38479,867.00761 L 133.04114,868.45098 L 133.1786,871.68135 L 133.79717,875.39286 L 134.41577,878.69199 L 135.10307,879.79169 L 136.06533,881.7849 L 137.57742,884.05306 L 137.98981,885.49641 L 138.4022,886.52739 L 137.16502,888.24569 L 134.96561,889.13919 L 134.75943,889.82651 L 138.95205,889.68906 L 138.33347,890.78876 L 139.08951,891.47608 L 141.08274,891.68227 L 142.66356,890.30764 L 143.21342,888.38316 L 144.10692,886.73359 L 145.20662,885.77135 L 145.55028,884.67164 L 144.38186,884.6029 L 145.13789,883.84685 L 143.62581,884.32798 L 144.7255,883.22826 L 143.90073,883.02208 L 143.28213,882.26603 L 142.25117,880.13535 L 139.84556,878.14214 L 139.36445,878.00467 L 139.84556,877.59228 L 139.77683,876.42385 L 140.25796,875.39286 L 139.84556,875.4616 L 140.60161,874.1557 L 140.60161,872.8498 L 141.08274,872.16248 L 141.08274,871.26896 L 142.1137,869.89432 L 142.18244,868.72589 L 141.97624,867.76366 L 142.45737,866.66394 L 143.0072,865.77044 L 143.0072,865.22058 L 143.62581,865.15184 L 144.17565,864.60199 L 144.65677,863.22736 L 145.75648,861.99019 L 147.06237,861.50907 L 147.88715,862.19639 L 149.88037,862.81497 L 151.4612,863.63975 L 152.21723,864.60199 L 153.52314,864.73945 L 157.64704,866.52648 L 159.77771,867.28252 L 161.49601,868.58843 L 161.90839,868.45098 L 161.90839,868.03858 L 160.94616,867.28252 L 162.8019,867.76366 L 163.0081,867.41999 L 162.59571,867.00761 L 163.28303,867.00761 L 163.35176,866.59522 L 162.11459,866.32028 L 163.07683,866.04535 L 163.07683,865.56424 L 162.73317,865.49551 L 161.70219,865.56424 L 160.87743,865.22058 L 160.32757,864.94565 L 161.15235,864.25833 L 161.35855,863.77722 L 161.22108,863.43356 L 160.46504,863.57102 L 158.8842,864.3958 L 158.67802,864.80819 L 158.12816,864.67073 L 156.13494,863.57102 L 156.0662,862.81497 L 154.89777,862.19639 L 152.90456,861.1654 L 152.42345,861.50907 L 152.49216,861.02794 L 151.39247,859.99697 L 150.43021,859.72205 L 149.53671,858.69107 L 149.26179,858.34741 L 150.1553,858.966 L 150.01784,858.27868 L 150.70515,858.62233 L 150.49895,857.59136 L 151.4612,858.48486 L 151.04882,857.86628 L 152.01105,858.27868 L 151.18628,857.11025 L 151.80485,857.31643 L 151.52993,856.21674 L 152.01105,856.62912 L 151.32373,855.59816 L 152.01105,855.80435 L 151.39247,854.97957 L 152.21723,854.91083 L 151.32373,854.36098 L 151.87358,854.08606 L 151.25501,854.01732 L 152.07977,853.26127 L 151.32373,853.33001 L 151.39247,852.84889 L 151.4612,851.47425 L 151.04882,852.4365 L 150.56768,851.06186 L 150.63642,852.16158 L 150.36149,852.2303 L 149.67417,852.2303 L 148.91813,851.1306 L 148.16207,851.1306 L 147.26856,850.37454 L 146.85617,850.78693 L 145.82521,851.47425 z"
       id="path1939" />
  </g>
</svg>
