<?xml version="1.0" encoding="UTF-8" standalone="no"?>
<!-- Created with Inkscape (http://www.inkscape.org/) -->

<svg
   xmlns:dc="http://purl.org/dc/elements/1.1/"
   xmlns:cc="http://creativecommons.org/ns#"
   xmlns:rdf="http://www.w3.org/1999/02/22-rdf-syntax-ns#"
   xmlns:svg="http://www.w3.org/2000/svg"
   xmlns="http://www.w3.org/2000/svg"
   xmlns:xlink="http://www.w3.org/1999/xlink"
   xmlns:sodipodi="http://sodipodi.sourceforge.net/DTD/sodipodi-0.dtd"
   xmlns:inkscape="http://www.inkscape.org/namespaces/inkscape"
   width="128"
   height="128"
   id="svg1901"
   sodipodi:version="0.32"
   inkscape:version="0.47 r22583"
   sodipodi:docname="flame_godmode.svg"
   version="1.1">
  <defs
     id="defs1903">
    <linearGradient
       id="linearGradient3605">
      <stop
         style="stop-color:#ff0000;stop-opacity:0.88235295;"
         offset="0"
         id="stop3607" />
      <stop
         id="stop3613"
         offset="0.5"
         style="stop-color:#ffff00;stop-opacity:0.78431374;" />
      <stop
         style="stop-color:#ffff00;stop-opacity:0.3764706;"
         offset="1"
         id="stop3609" />
    </linearGradient>
    <inkscape:perspective
       sodipodi:type="inkscape:persp3d"
       inkscape:vp_x="0 : 526.18109 : 1"
       inkscape:vp_y="0 : 1000 : 0"
       inkscape:vp_z="744.09448 : 526.18109 : 1"
       inkscape:persp3d-origin="372.04724 : 350.78739 : 1"
       id="perspective7" />
    <inkscape:perspective
       id="perspective2821"
       inkscape:persp3d-origin="0.5 : 0.33333333 : 1"
       inkscape:vp_z="1 : 0.5 : 1"
       inkscape:vp_y="0 : 1000 : 0"
       inkscape:vp_x="0 : 0.5 : 1"
       sodipodi:type="inkscape:persp3d" />
    <linearGradient
       inkscape:collect="always"
       xlink:href="#linearGradient3605-4"
       id="linearGradient3611"
       x1="164.57143"
       y1="451.79074"
       x2="164.57143"
       y2="323.79074"
       gradientUnits="userSpaceOnUse"
       gradientTransform="matrix(0.85622228,0,0,0.89173546,15.722622,45.629923)" />
    <inkscape:perspective
       id="perspective3623"
       inkscape:persp3d-origin="0.5 : 0.33333333 : 1"
       inkscape:vp_z="1 : 0.5 : 1"
       inkscape:vp_y="0 : 1000 : 0"
       inkscape:vp_x="0 : 0.5 : 1"
       sodipodi:type="inkscape:persp3d" />
    <linearGradient
       inkscape:collect="always"
       xlink:href="#linearGradient3605-4"
       id="linearGradient3611-4"
       x1="164.57143"
       y1="451.79074"
       x2="164.57143"
       y2="323.79074"
       gradientUnits="userSpaceOnUse" />
    <linearGradient
       id="linearGradient3605-4">
      <stop
         style="stop-color:#0000ff;stop-opacity:0.88235295;"
         offset="0"
         id="stop3607-1" />
      <stop
         id="stop3613-9"
         offset="0.5"
         style="stop-color:#00ffff;stop-opacity:0.78431374;" />
      <stop
         style="stop-color:#000080;stop-opacity:0.3764706;"
         offset="1"
         id="stop3609-4" />
    </linearGradient>
    <linearGradient
       gradientTransform="matrix(-1,0,0,1,329.14286,-1.0238602e-5)"
       y2="323.79074"
       x2="164.57143"
       y1="451.79074"
       x1="164.57143"
       gradientUnits="userSpaceOnUse"
       id="linearGradient3633"
       xlink:href="#linearGradient3605-4"
       inkscape:collect="always" />
  </defs>
  <sodipodi:namedview
     id="base"
     pagecolor="#ffffff"
     bordercolor="#666666"
     borderopacity="1.0"
     inkscape:pageopacity="0.0"
     inkscape:pageshadow="2"
     inkscape:zoom="3.959798"
     inkscape:cx="49.089497"
     inkscape:cy="62.215768"
     inkscape:document-units="px"
     inkscape:current-layer="layer1"
     inkscape:window-width="1091"
     inkscape:window-height="814"
     inkscape:window-x="63"
     inkscape:window-y="34"
     showgrid="false"
     inkscape:window-maximized="0" />
  <metadata
     id="metadata1906">
    <rdf:RDF>
      <cc:Work
         rdf:about="">
        <dc:format>image/svg+xml</dc:format>
        <dc:type
           rdf:resource="http://purl.org/dc/dcmitype/StillImage" />
        <dc:title />
      </cc:Work>
    </rdf:RDF>
  </metadata>
  <g
     inkscape:label="Taso 1"
     inkscape:groupmode="layer"
     id="layer1"
     transform="translate(-100.57143,-323.79074)">
    <path
       style="fill:url(#linearGradient3611);fill-opacity:1.0"
       d="m 122.24398,447.1606 c -7.95197,-1.94359 -8.91307,-5.42115 -12.25169,-10.98281 -8.96932,-14.94165 -4.04735,-29.95503 21.27137,-38.08357 8.30228,-2.66545 21.63112,-20.43252 14.78976,-18.42366 -7.71422,2.26517 -5.45056,-18.41135 0.34156,-15.21866 10.98935,6.0575 22.05996,23.23705 5.07058,25.54588 -7.38926,1.00418 2.30588,11.55827 6.61695,14.33266 9.04627,5.82173 13.5999,3.5121 17.38546,-7.70561 3.85882,-11.43477 8.52967,-36.86726 -10.93874,-31.49329 -12.91901,3.56611 -13.67925,-16.91029 -23.01203,-15.39499 -13.91875,2.2599 -8.0196,-11.77663 -4.93145,-10.1546 0.96919,0.50907 11.63205,3.70474 13.50951,7.1015 4.69754,8.49894 16.52599,8.40083 29.79178,14.30594 12.58207,5.60075 10.64235,22.44631 10.64235,28.09598 0,5.21872 -9.02442,18.19797 -15.91614,23.77917 -8.45684,6.8487 -3.22194,7.80592 0.66677,10.22052 7.82169,4.85668 15.84408,3.06043 21.78237,-6.13115 2.26814,-3.51071 6.6087,-9.73595 6.02569,-14.98848 -0.93883,-8.45819 -7.15845,-25.57985 -1.17714,-20.70977 10.36937,8.44292 12.4761,42.68208 5.29158,49.78793 -4.10539,4.06046 -12.23234,10.34272 -18.09124,11.03031 -1.56114,0.1832 -10.97023,0.42664 -14.247,-2.26062 -6.05238,-4.9635 -15.60348,9.13219 -27.69131,-1.80223 -10.6416,-9.62619 -10.34299,-1.43196 -3.83535,3.08712 2.01994,1.4027 -5.65274,2.29783 -4.08678,2.29783 3.74138,0 18.697,3.89035 15.97319,5.35657 -2.76413,1.4879 -30.79366,5.35678 -32.98005,-1.59197 z M 101.83412,407.221 c 0,-2.44448 6.55688,-10.02925 8.61629,-15.38513 3.42284,-8.90179 16.57504,-31.61588 7.35313,-32.36226 -11.67757,-0.94514 -1.9159,-12.38957 3.40532,-9.222 8.27556,4.92614 5.8126,32.44445 1.51261,41.76818 -0.89897,1.9493 2.04606,8.07338 -2.75549,11.08794 -4.80156,3.01455 -12.15768,3.75328 -12.48934,4.84203 -1.32248,4.34131 -5.64252,3.78774 -5.64252,-0.72876 z m 5.70098,-62.26047 c -1.07724,-7.93504 13.27748,1.81584 13.51145,-15.35675 0.0694,-5.09108 9.01807,0.59357 2.50566,11.58388 -5.83088,9.84014 -13.02246,10.69404 -16.01711,3.77287 z"
       id="path2831"
       sodipodi:nodetypes="csssssssssssssssssssssssssccssssssccssc" />
    <path
       style="fill:url(#linearGradient3633);fill-opacity:1"
       d="m 204.73433,450.28004 c 9.28726,-2.17955 10.40976,-6.07932 14.309,-12.31622 10.47546,-16.75569 4.72699,-33.59183 -24.84328,-42.70724 -9.69641,-2.98906 -13.46565,-14.41725 -17.27326,-20.66045 -4.74499,-7.7802 -7.20163,-8.18591 -13.96636,-4.60561 -12.83471,6.79293 -12.19686,13.59749 7.6454,16.18665 8.63008,1.12608 7.67618,17.3249 2.6412,20.43613 -10.56534,6.52854 -26.25289,-0.42486 -30.67412,-13.00451 -4.5068,-12.82305 -9.96198,-41.34326 12.77559,-35.31684 15.08838,3.99906 23.17709,-8.1526 21.86216,-18.68008 -0.85077,-6.81129 -6.56074,-13.20642 -10.16746,-11.38746 -1.13194,0.57088 -3.85215,4.15453 -6.04486,7.96369 -5.48636,9.53079 -8.09316,10.83677 -23.58656,17.45881 -14.69486,6.28072 -12.42941,25.17148 -12.42941,31.50707 0,5.85232 10.5398,20.40737 18.58878,26.66617 9.87693,7.6802 3.76297,8.75363 -0.77873,11.46138 -9.13511,5.44631 -18.50463,3.43199 -25.44009,-6.87552 -2.64901,-3.93695 -7.71843,-10.91798 -7.03752,-16.80822 1.09647,-9.48508 8.3605,-28.68547 1.37479,-23.22412 -12.110603,9.46798 -14.57109,47.86406 -6.18014,55.83262 4.79478,4.55343 14.28641,11.59842 21.12914,12.36948 1.82329,0.20545 12.81236,0.47844 16.63937,-2.53507 7.06871,-5.56612 17.87213,-8.14938 35.62427,-2.27359 16.21662,5.36755 21.18445,-1.63646 13.58405,3.43127 -2.35913,1.573 -5.78572,2.86001 -7.61463,2.86001 -4.36964,0 -6.49951,2.94669 -3.31831,4.59091 3.22828,1.66854 15.31843,1.47597 23.18098,-0.36926 z m 23.8371,-44.7886 c 0,-2.74126 -7.65792,-11.24689 -10.06314,-17.25302 -3.99761,-9.98256 -14.63923,-21.5776 -3.86876,-22.4146 13.63848,-1.0599 -1.30172,-14.46018 -7.51649,-10.90804 -9.66519,5.52422 -7.96843,23.07317 -2.94639,33.52888 1.04994,2.18596 -2.38963,9.05356 3.21821,12.43411 5.60783,3.38055 14.1992,4.20897 14.58656,5.42991 1.54455,4.86838 6.59001,4.2476 6.59001,-0.81724 z m -21.70047,-61.8899 c 1.25814,-8.89841 -8.42837,-19.76998 -17.54997,-19.76998 -5.94653,0 -1.68406,-1.31675 5.92192,11.00789 6.81,11.03481 8.13055,16.52355 11.62805,8.76209 z"
       id="path2831-3"
       sodipodi:nodetypes="csssssssssssssssssssssssssccssssssccssc" />
  </g>
</svg>
