# Fret_tap object

v  -0.0000000066 -0.1499983668 0.1526451111
v  -0.1060660183 -0.1060643867 0.1526451111
v  -0.1499999911 0.0000016412 0.1526451111
v  -0.1060659960 0.1060676649 0.1526451260
v  0.0000000018 0.1500016153 0.1526451260
v  0.1060659960 0.1060676649 0.1526451260
v  0.1499999911 0.0000016734 0.1526451111
v  0.1060660630 -0.1060643345 0.1526451111
v  -0.0000000046 -0.1060643941 0.2587111294
v  -0.0749999955 -0.0749983713 0.2587111294
v  -0.1060660183 0.0000016281 0.2587111294
v  -0.0749999806 0.0750016347 0.2587111294
v  0.0000000013 0.1060676426 0.2587111294
v  0.0749999881 0.0750016347 0.2587111294
v  0.1060660183 0.0000016508 0.2587111294
v  0.0750000328 -0.0749983415 0.2587111294
v  0.0000000000 0.0000016149 0.3026450872
v  0.0000000000 0.0000016323 0.1034809500
v  0.0000000000 0.1181867570 0.1019213125
v  -0.0452275090 0.1091904789 0.1019213125
v  -0.0835694894 0.0835712776 0.1019213051
v  -0.1091888398 0.0452292934 0.1019213051
v  -0.1181851178 0.0000016325 0.1019213125
v  -0.1091888398 -0.0452257246 0.1019213051
v  -0.0835696384 -0.0835676938 0.1019213125
v  -0.0452275090 -0.1091872007 0.1019213051
v  0.0000000000 -0.1181834787 0.1019213051
v  0.0452275090 -0.1091872007 0.1019213051
v  0.0835696384 -0.0835676938 0.1019213125
v  0.1091888398 -0.0452257246 0.1019213051
v  0.1181851178 0.0000016325 0.1019213125
v  0.1091888398 0.0452292934 0.1019213051
v  0.0835694894 0.0835712776 0.1019213051
v  0.0452273563 0.1091904789 0.1019213125
# 34 vertices

vt  0.0000000000 0.5000000000 0.0000000000
vt  0.1250000000 0.5000000000 0.0000000000
vt  0.2500000000 0.5000000000 0.0000000000
vt  0.3750000000 0.5000000000 0.0000000000
vt  0.5000000000 0.5000000000 0.0000000000
vt  0.6250000000 0.5000000000 0.0000000000
vt  0.7500000000 0.5000000000 0.0000000000
vt  0.8749999404 0.5000000000 0.0000000000
vt  0.9999999404 0.5000000000 0.0000000000
vt  0.0000000000 0.2500000000 0.0000000000
vt  0.1250000000 0.2500000000 0.0000000000
vt  0.2500000000 0.2500000000 0.0000000000
vt  0.3750000000 0.2500000000 0.0000000000
vt  0.5000000000 0.2500000000 0.0000000000
vt  0.6250000000 0.2500000000 0.0000000000
vt  0.7500000000 0.2500000000 0.0000000000
vt  0.8749999404 0.2500000000 0.0000000000
vt  0.9999999404 0.2500000000 0.0000000000
vt  0.0000000000 0.0000000000 0.0000000000
vt  0.1250000000 0.0000000000 0.0000000000
vt  0.2500000000 0.0000000000 0.0000000000
vt  0.3750000000 0.0000000000 0.0000000000
vt  0.5000000000 0.0000000000 0.0000000000
vt  0.6250000000 0.0000000000 0.0000000000
vt  0.7500000000 0.0000000000 0.0000000000
vt  0.8749999404 0.0000000000 0.0000000000
vt  0.0000000000 1.0000000000 0.0000000000
vt  0.0625000000 1.0000000000 0.0000000000
vt  0.1250000000 1.0000000000 0.0000000000
vt  0.1875000000 1.0000000000 0.0000000000
vt  0.2500000000 1.0000000000 0.0000000000
vt  0.3125000000 1.0000000000 0.0000000000
vt  0.3750000000 1.0000000000 0.0000000000
vt  0.4374999702 1.0000000000 0.0000000000
vt  0.4999999702 1.0000000000 0.0000000000
vt  0.5624999404 1.0000000000 0.0000000000
vt  0.6249999404 1.0000000000 0.0000000000
vt  0.6874999404 1.0000000000 0.0000000000
vt  0.7500000000 1.0000000000 0.0000000000
vt  0.8125000000 1.0000000000 0.0000000000
vt  0.8750000000 1.0000000000 0.0000000000
vt  0.9375000596 1.0000000000 0.0000000000
vt  0.0000000000 0.9227918386 0.0000000000
vt  0.9761041403 0.9227918386 0.0000000000
vt  0.0386040956 0.9227918386 0.0000000000
vt  0.0625000000 0.9227918386 0.0000000000
vt  0.1011040956 0.9227918386 0.0000000000
vt  0.1250000000 0.9227918386 0.0000000000
vt  0.1636040956 0.9227918386 0.0000000000
vt  0.1875000000 0.9227918386 0.0000000000
vt  0.2261041105 0.9227918386 0.0000000000
vt  0.2500000000 0.9227918386 0.0000000000
vt  0.2886041105 0.9227918386 0.0000000000
vt  0.3125000000 0.9227918386 0.0000000000
vt  0.3511041105 0.9227918386 0.0000000000
vt  0.3750000000 0.9227918386 0.0000000000
vt  0.4136040807 0.9227918386 0.0000000000
vt  0.4375000000 0.9227918386 0.0000000000
vt  0.4761040807 0.9227918386 0.0000000000
vt  0.4999999702 0.9227918386 0.0000000000
vt  0.5386040211 0.9227918386 0.0000000000
vt  0.5624999404 0.9227918386 0.0000000000
vt  0.6011040807 0.9227918386 0.0000000000
vt  0.6250000000 0.9227918386 0.0000000000
vt  0.6636040211 0.9227918386 0.0000000000
vt  0.6874999404 0.9227918386 0.0000000000
vt  0.7261040807 0.9227918386 0.0000000000
vt  0.7500000000 0.9227918386 0.0000000000
vt  0.7886041403 0.9227918386 0.0000000000
vt  0.8125000000 0.9227918386 0.0000000000
vt  0.8511041403 0.9227918386 0.0000000000
vt  0.8750000596 0.9227918386 0.0000000000
vt  0.9136041403 0.9227918386 0.0000000000
vt  0.9375000596 0.9227918386 0.0000000000
# 74 texture vertices

vn  -0.0006326789 -0.0045822668 0.0018980372
vn  -0.0036875238 -0.0027927805 0.0018980370
vn  -0.0045822668 0.0006326793 0.0018980372
vn  -0.0027927801 0.0036875235 0.0018980375
vn  0.0006326789 0.0045822668 0.0018980376
vn  0.0036875233 0.0027927808 0.0018980375
vn  0.0045822673 -0.0006326777 0.0018980372
vn  0.0027927812 -0.0036875231 0.0018980368
vn  0.0004025514 -0.0037669437 0.0032631406
vn  -0.0023789846 -0.0029482779 0.0032631408
vn  -0.0037669435 -0.0004025510 0.0032631408
vn  -0.0029482776 0.0023789846 0.0032631413
vn  -0.0004025509 0.0037669432 0.0032631410
vn  0.0023789844 0.0029482779 0.0032631410
vn  0.0037669435 0.0004025517 0.0032631408
vn  0.0029482783 -0.0023789839 0.0032631406
vn  0.0000000000 -0.0000000002 0.0049999999
vn  -0.0000000000 0.0000000001 0.0049999999
vn  0.0000000000 0.0000659771 0.0049995645
vn  -0.0000252484 0.0000609549 0.0049995645
vn  -0.0000466531 0.0000466528 0.0049995645
vn  -0.0000609551 0.0000252485 0.0049995645
vn  -0.0000659771 0.0000000000 0.0049995645
vn  -0.0000609552 -0.0000252483 0.0049995645
vn  -0.0000466531 -0.0000466526 0.0049995645
vn  -0.0000252482 -0.0000609550 0.0049995645
vn  -0.0000000000 -0.0000659772 0.0049995645
vn  0.0000252482 -0.0000609550 0.0049995645
vn  0.0000466531 -0.0000466526 0.0049995645
vn  0.0000609552 -0.0000252483 0.0049995645
vn  0.0000659771 0.0000000000 0.0049995645
vn  0.0000609551 0.0000252485 0.0049995645
vn  0.0000466530 0.0000466528 0.0049995645
vn  0.0000252484 0.0000609549 0.0049995645
# 34 vertex normals

g Fret_tap
f 10/11/10 2/2/2 1/1/1
f 1/1/1 9/10/9 10/11/10
f 11/12/11 3/3/3 2/2/2
f 2/2/2 10/11/10 11/12/11
f 12/13/12 4/4/4 3/3/3
f 3/3/3 11/12/11 12/13/12
f 13/14/13 5/5/5 4/4/4
f 4/4/4 12/13/12 13/14/13
f 14/15/14 6/6/6 5/5/5
f 5/5/5 13/14/13 14/15/14
f 15/16/15 7/7/7 6/6/6
f 6/6/6 14/15/14 15/16/15
f 16/17/16 8/8/8 7/7/7
f 7/7/7 15/16/15 16/17/16
f 9/18/9 1/9/1 8/8/8
f 8/8/8 16/17/16 9/18/9
f 17/19/17 10/11/10 9/10/9
f 17/20/17 11/12/11 10/11/10
f 17/21/17 12/13/12 11/12/11
f 17/22/17 13/14/13 12/13/12
f 17/23/17 14/15/14 13/14/13
f 17/24/17 15/16/15 14/15/14
f 17/25/17 16/17/16 15/16/15
f 17/26/17 9/18/9 16/17/16
f 18/27/18 19/43/19 20/45/20
f 18/28/18 20/46/20 21/47/21
f 18/29/18 21/48/21 22/49/22
f 18/30/18 22/50/22 23/51/23
f 18/31/18 23/52/23 24/53/24
f 18/32/18 24/54/24 25/55/25
f 18/33/18 25/56/25 26/57/26
f 18/34/18 26/58/26 27/59/27
f 18/35/18 27/60/27 28/61/28
f 18/36/18 28/62/28 29/63/29
f 18/37/18 29/64/29 30/65/30
f 18/38/18 30/66/30 31/67/31
f 18/39/18 31/68/31 32/69/32
f 18/40/18 32/70/32 33/71/33
f 18/41/18 33/72/33 34/73/34
f 18/42/18 34/74/34 19/44/19
# 40 faces

g
