v -0.000000 -0.149998 0.152645
v -0.106066 -0.106064 0.152645
v -0.150000 0.000002 0.152645
v -0.106066 0.106068 0.152645
v 0.000000 0.150002 0.152645
v 0.106066 0.106068 0.152645
v 0.150000 0.000002 0.152645
v 0.106066 -0.106064 0.152645
v -0.000000 -0.106064 0.258711
v -0.075000 -0.074998 0.258711
v -0.106066 0.000002 0.258711
v -0.075000 0.075002 0.258711
v 0.000000 0.106068 0.258711
v 0.075000 0.075002 0.258711
v 0.106066 0.000002 0.258711
v 0.075000 -0.074998 0.258711
v 0.000000 0.000002 0.302645

vt 0.125000 0.500000
vt 0.000000 0.500000
vt 0.125000 0.250000
vt 0.000000 0.250000
vt 0.250000 0.250000
vt 0.250000 0.500000
vt 0.375000 0.250000
vt 0.375000 0.500000
vt 0.500000 0.250000
vt 0.500000 0.500000
vt 0.625000 0.250000
vt 0.625000 0.500000
vt 0.750000 0.250000
vt 0.750000 0.500000
vt 0.875000 0.250000
vt 0.875000 0.500000
vt 1.000000 0.250000
vt 1.000000 0.500000
vt 0.000000 0.000000
vt 0.125000 0.000000
vt 0.250000 0.000000
vt 0.375000 0.000000
vt 0.500000 0.000000
vt 0.625000 0.000000
vt 0.750000 0.000000
vt 0.875000 0.000000

vn -0.357407 -0.862856 0.357407
vn -0.862856 -0.357407 0.357407
vn -0.862856 0.357407 0.357407
vn -0.357407 0.862856 0.357407
vn 0.357406 0.862856 0.357407
vn 0.357407 0.862856 0.357407
vn 0.862856 0.357407 0.357407
vn 0.862856 -0.357406 0.357407
vn 0.357407 -0.862856 0.357407
vn -0.156558 -0.377964 0.912487
vn -0.377964 -0.156558 0.912487
vn -0.377964 0.156558 0.912487
vn -0.156558 0.377964 0.912487
vn 0.156558 0.377964 0.912487
vn 0.377964 0.156558 0.912487
vn 0.377964 -0.156558 0.912487
vn 0.156558 -0.377964 0.912487

g Fret_tap
f 2/1/1 1/2/1 10/3/1
f 1/2/1 9/4/1 10/3/1
f 11/5/2 3/6/2 2/1/2
f 2/1/2 10/3/2 11/5/2
f 12/7/3 4/8/3 3/6/3
f 3/6/3 11/5/3 12/7/3
f 13/9/4 5/10/4 4/8/4
f 4/8/4 12/7/4 13/9/4
f 14/11/5 6/12/5 5/10/5
f 5/10/6 13/9/6 14/11/6
f 15/13/7 7/14/7 6/12/7
f 6/12/7 14/11/7 15/13/7
f 16/15/8 8/16/8 7/14/8
f 7/14/8 15/13/8 16/15/8
f 9/17/9 1/18/9 8/16/9
f 8/16/9 16/15/9 9/17/9
f 17/19/10 10/3/10 9/4/10
f 17/20/11 11/5/11 10/3/11
f 17/21/12 12/7/12 11/5/12
f 17/22/13 13/9/13 12/7/13
f 17/23/14 14/11/14 13/9/14
f 17/24/15 15/13/15 14/11/15
f 17/25/16 16/15/16 15/13/16
f 17/26/17 9/17/17 16/15/17

