<?xml version="1.0" encoding="UTF-8" standalone="no"?>
<!-- Created with Inkscape (http://www.inkscape.org/) -->
<svg
   xmlns:dc="http://purl.org/dc/elements/1.1/"
   xmlns:cc="http://creativecommons.org/ns#"
   xmlns:rdf="http://www.w3.org/1999/02/22-rdf-syntax-ns#"
   xmlns:svg="http://www.w3.org/2000/svg"
   xmlns="http://www.w3.org/2000/svg"
   xmlns:xlink="http://www.w3.org/1999/xlink"
   xmlns:sodipodi="http://sodipodi.sourceforge.net/DTD/sodipodi-0.dtd"
   xmlns:inkscape="http://www.inkscape.org/namespaces/inkscape"
   version="1.0"
   width="250"
   height="520"
   id="svg2"
   sodipodi:version="0.32"
   inkscape:version="0.46"
   sodipodi:docname="guitarneck.svg"
   sodipodi:docbase="/home/skyostil/proj/keyboardhero/trunk/data"
   inkscape:output_extension="org.inkscape.output.svg.inkscape"
   sodipodi:modified="true">
  <metadata
     id="metadata3009">
    <rdf:RDF>
      <cc:Work
         rdf:about="">
        <dc:format>image/svg+xml</dc:format>
        <dc:type
           rdf:resource="http://purl.org/dc/dcmitype/StillImage" />
      </cc:Work>
    </rdf:RDF>
  </metadata>
  <sodipodi:namedview
     inkscape:window-height="1127"
     inkscape:window-width="1920"
     inkscape:pageshadow="2"
     inkscape:pageopacity="0.0"
     borderopacity="1.0"
     bordercolor="#666666"
     pagecolor="#ffffff"
     id="base"
     inkscape:zoom="1.0051974"
     inkscape:cx="-195.3858"
     inkscape:cy="241.73887"
     inkscape:window-x="0"
     inkscape:window-y="25"
     inkscape:current-layer="layer1"
     showgrid="true"
     showguides="false">
    <inkscape:grid
       type="xygrid"
       id="grid3223"
       visible="true"
       enabled="true" />
  </sodipodi:namedview>
  <defs
     id="defs4">
    <inkscape:perspective
       sodipodi:type="inkscape:persp3d"
       inkscape:vp_x="0 : 526.18109 : 1"
       inkscape:vp_y="0 : 1000 : 0"
       inkscape:vp_z="744.09448 : 526.18109 : 1"
       inkscape:persp3d-origin="372.04724 : 350.78739 : 1"
       id="perspective25" />
    <linearGradient
       id="linearGradient3591">
      <stop
         style="stop-color:#000000;stop-opacity:0;"
         offset="0"
         id="stop3593" />
      <stop
         id="stop3599"
         offset="0.1021521"
         style="stop-color:#2a0000;stop-opacity:1;" />
      <stop
         style="stop-color:#440000;stop-opacity:1;"
         offset="0.8938309"
         id="stop3601" />
      <stop
         style="stop-color:#000000;stop-opacity:0;"
         offset="1"
         id="stop3595" />
    </linearGradient>
    <linearGradient
       id="linearGradient3016">
      <stop
         style="stop-color:#4b0000;stop-opacity:1;"
         offset="0"
         id="stop3018" />
      <stop
         id="stop3024"
         offset="0.5"
         style="stop-color:#840000;stop-opacity:1;" />
      <stop
         style="stop-color:#4b0000;stop-opacity:1;"
         offset="1"
         id="stop3020" />
    </linearGradient>
    <linearGradient
       inkscape:collect="always"
       xlink:href="#linearGradient3016"
       id="linearGradient3022"
       x1="-196.5988"
       y1="-0.14184041"
       x2="198.1898"
       y2="-0.14184041"
       gradientUnits="userSpaceOnUse" />
    <linearGradient
       inkscape:collect="always"
       xlink:href="#linearGradient3016"
       id="linearGradient3030"
       gradientUnits="userSpaceOnUse"
       x1="-196.5988"
       y1="-0.14184041"
       x2="198.1898"
       y2="-0.14184041" />
    <linearGradient
       inkscape:collect="always"
       xlink:href="#linearGradient3016"
       id="linearGradient3034"
       gradientUnits="userSpaceOnUse"
       x1="-196.5988"
       y1="-0.14184041"
       x2="198.1898"
       y2="-0.14184041"
       gradientTransform="translate(-10.04059,46.9656)" />
    <linearGradient
       inkscape:collect="always"
       xlink:href="#linearGradient3016"
       id="linearGradient2407"
       gradientUnits="userSpaceOnUse"
       gradientTransform="translate(-10.04059,46.9656)"
       x1="-196.5988"
       y1="-0.14184041"
       x2="198.1898"
       y2="-0.14184041" />
  </defs>
  <g
     id="layer1"
     transform="matrix(0.398383,0,0,0.255506,-14.110139,-87.32308)">
    <g
       id="g2402"
       transform="matrix(1.2885345,0,0,-1.9897288,375.03536,1725.0516)">
      <g
         transform="matrix(0.9754363,0,0,1,-8.5040986,133.06924)"
         id="g3036">
        <path
           id="path2056"
           style="fill:url(#linearGradient2407);fill-opacity:1"
           d="M -206.63939,73.35264 C -201.66452,34.31659 -193.60045,-2.84245 -181.17064,-39.99111 C -139.16904,-125.77751 -123.86811,-141.25483 -80.10814,-225.80361 C -52.28081,-272.95131 -3.80416,-370.29233 5.20436,-415.58486 C 11.07647,-450.72999 6.42959,-452.87557 29.11954,-456.74557 C 54.87357,-455.5021 73.22307,-454.08054 77.23842,-447.64261 C 104.62315,-395.68394 152.46363,-365.75899 165.89204,-255.47001 C 179.32045,-145.18104 156.30946,-169.24191 134.03717,-222.37547 C 103.45582,-245.48156 50.33975,-251.97767 16.18247,-216.13213 C -2.61886,-180.63645 -11.41203,-135.9016 -9.60814,-96.05361 C 2.49664,9.04876 71.53551,92.47254 119.07936,183.07139 C 140.22162,220.01367 167.47816,282.30241 180.94543,322.35263 C 189.59076,436.65156 206.02015,354.65436 119.64186,319.47763 C 76.36924,314.84107 22.92025,352.06734 18.42757,397.37942 C 13.00163,451.3671 29.50855,496.62589 57.07936,541.03121 C 67.94744,561.28639 60.62909,559.53873 33.48561,558.97764 C 3.11693,563.81478 2.48192,549.75215 6.85615,529.7321 C 8.56991,480.10818 -42.03483,455.58025 -85.3001,458.62496 C -129.85656,470.055 -159.97697,493.76918 -175.07689,559.60264 C -183.22074,564.89858 -184.16895,558.0931 -196.03224,559.6696 C -195.7369,526.91195 -184.1451,493.02577 -172.03225,463.19193 C -137.19793,390.46477 -96.94361,322.31467 -60.94296,250.2187 C -37.32424,208.50825 -21.43778,145.52798 -28.58135,97.183 C -45.64707,46.31667 -116.43978,29.18058 -174.97868,96.09371 C -184.80433,120.82908 -197.2186,128.51598 -206.63939,73.35264 z M -188.81795,-468.00897 L -165.1885,-466.5804 L -176.61707,-407.442 L -188.81795,-468.00897 z" />
        <path
           id="path2058"
           style="fill:#590000;fill-opacity:1;stroke:none"
           d="M 233.73789,352.7678 C 228.81746,297.90709 210.02556,245.79581 193.89294,193.35509 C 181.5727,151.35196 153.38715,102.30551 144.35976,53.03148 C 135.33236,3.75745 141.39382,-49.19479 153.32835,-95.46631 C 165.26289,-141.73783 180.97639,-174.41404 178.43414,-215.41806 C 180.87898,-264.25168 140.49236,-349.09953 133.91654,-365.83746 C 127.09832,-383.1924 174.77,-474.72573 145.43485,-464.03017 C 111.83179,-473.2908 124.28897,-421.23159 113.80673,-401.41834 C 96.66217,-411.56654 71.38361,-489.67109 56.59385,-456.01679 C 72.63945,-427.66601 123.13982,-379.9446 101.59397,-345.53932 C 85.77419,-317.50366 72.55774,-272.75085 62.93656,-254.71505 C 17.08547,-247.5647 2.29375,-197.17184 -9.78499,-161.23221 C -26.40799,-76.97026 9.94607,7.01687 53.40847,77.43698 C 95.79004,146.11322 141.61516,214.49619 163.32833,293.10592 C 169.07934,307.68381 189.11771,379.12061 165.5915,333.51651 C 145.89767,296.9814 95.35213,302.33772 64.39638,319.71579 C 27.45429,338.88021 5.46118,380.30658 11.50777,421.70824 C 10.97281,469.66919 38.42409,511.72121 58.22226,553.66061 C 105.95291,576.94222 48.04024,514.19365 45.63301,492.93586 C 27.90389,455.89107 17.12254,409.32948 33.72227,370.48502 C 51.2994,337.81541 91.87579,317.11807 128.36997,324.89137 C 166.2671,339.88643 167.64482,385.22489 164.09334,419.63479 C 161.32826,466.69858 137.10564,508.03936 123.72227,552.42302 C 153.60483,582.34462 161.05218,534.61412 170.72231,511.15825 C 182.39033,472.14816 197.64471,433.14596 194.37724,391.59278 C 196.99688,327.08157 173.51165,265.49562 148.45667,207.22067 C 103.04296,106.96999 20.71694,22.79043 2.21521,-88.73221 C -3.17969,-127.29224 4.74331,-171.77244 17.07383,-195.10495 C 29.7097,-219.01523 43.35865,-233.42471 59.44571,-240.16661 C 56.24705,-227.97993 38.95916,-97.02702 42.03685,-82.38623 C 49.38821,-126.83412 71.6292,-231.91931 79.84395,-240.46135 C 106.23865,-237.86015 141.79266,-219.46515 142.69367,-190.90715 C 144.51049,-128.07934 111.49941,-92.22063 115.01947,-6.42071 C 118.53954,80.80779 168.31397,174.10504 201.07091,262.7678 C 222.8477,322.76833 226.56873,387.11183 229.89125,450.27343 C 232.55956,418.71232 233.37972,384.8156 233.73789,352.7678 z M 159.29654,-192.98221 C 153.83678,-218.03025 119.70916,-252.00436 83.7847,-255.12015 C 94.63528,-277.3869 112.16365,-315.63566 122.89573,-342.0777 C 139.68003,-307.46917 161.85988,-274.62421 160.43359,-233.48456 C 160.32437,-219.98305 160.49606,-206.44458 159.29654,-192.98221 z M 5.90069,-461.94649 C -4.36468,-467.78012 0.31952,-386.31206 -18.46011,-356.13846 C -37.23974,-325.96486 -48.03936,-284.24783 -63.4095,-261.18877 C -78.77964,-238.1297 -100.13008,-174.9929 -114.43354,-226.2174 C -137.02276,-285.27688 -162.7519,-345.93959 -157.69332,-410.77026 C -156.91674,-418.05067 -159.3502,-455.47019 -160.11568,-463.64928 C -160.89777,-472.00588 -162.2696,-474.53875 -172.45602,-467.05364 C -175.85947,-440.46967 -186.3475,-450.2527 -181.90787,-469.80364 C -194.56924,-475.90473 -196.11659,-470.20436 -198.75723,-462.14373 C -204.55211,-444.45462 -191.40126,-386.24466 -189.77488,-363.23221 C -183.87957,-297.6849 -143.5139,-242.14483 -127.28106,-179.23221 C -120.26985,-140.28165 -162.46631,-106.29509 -175.03954,-69.26346 C -187.61278,-32.23183 -197.9054,-5.73274 -206.88564,41.26779 C -215.86589,88.26832 -205.90401,149.10002 -207.90817,211.18414 C -209.91232,273.26826 -204.09009,346.59449 -214.06631,413.43541 C -222.28519,451.88448 -234.07486,489.29334 -245.04456,527.19729 C -263.43802,563.22946 -237.09837,583.5723 -227.66656,539.76779 C -208.71612,474.16111 -188.12094,399.52059 -183.70246,337.94631 C -179.28399,276.37202 -178.29863,224.10457 -178.04158,177.23861 C -177.78453,130.37265 -175.16719,89.43214 -137.16489,68.07512 C -109.60589,81.62892 -117.57172,138.54503 -113.39183,169.76779 C -115.31572,195.21584 -107.77338,198.15216 -106.12221,170.69028 C -97.18981,133.97053 -107.34892,95.62854 -102.55897,58.68189 C -67.67559,44.74025 -34.30695,78.92326 -32.62285,112.92678 C -27.49699,157.4895 -40.98308,200.62229 -62.32915,239.26108 C -97.3403,309.19708 -134.43939,377.67225 -169.96173,447.2995 C -184.73264,481.35312 -198.39739,516.22782 -200.45353,553.76779 C -182.11396,582.02424 -183.98336,533.30016 -178.20973,516.06233 C -163.47208,443.19222 -115.23796,383.87492 -85.07794,317.3303 C -58.48146,265.99057 -26.86662,215.51159 -19.13564,157.11757 C -16.43585,120.47864 -15.74357,72.34096 -48.71591,48.4569 C -84.35238,27.82993 -132.02393,38.1985 -160.90994,65.31844 C -171.84413,79.79329 -196.99314,133.9394 -199.15429,86.26779 C -196.11435,21.94583 -172.32593,-38.78723 -143.82985,-95.71161 C -124.86342,-134.39686 -98.90935,-169.35743 -77.9828,-207.09532 C -42.45847,-260.41376 -18.78776,-319.77533 10.44152,-376.37238 C 14.35427,-391.44288 27.08221,-486.60803 5.90069,-461.94649 z M 14.80304,515.76779 C 10.36542,477.11076 -25.81044,445.63998 -65.14972,449.10895 C -120.29686,443.90435 -166.78873,492.79397 -173.51621,546.12493 C -181.15238,595.38711 -158.46835,555.06383 -154.20715,520.65761 C -139.86626,474.55351 -85.06463,453.51234 -41.16527,469.17789 C -3.77734,478.70087 3.11463,520.91862 0.72226,553.76779 C 26.03963,584.28288 14.83892,530.76568 14.80303,515.76779 L 14.80304,515.76779 z M -238.70279,-474.08935 C -265.22551,-471.93652 -247.62261,-402.96151 -251.26708,-372.54824 C -254.92787,-341.99883 -250.1433,-265.57613 -239.71252,-224.98054 C -235.70616,-260.46157 -242.03222,-285.42445 -239.18421,-316.23221 C -236.3362,-347.03996 -237.22347,-420.54492 -228.73436,-463.37507 C -232.05717,-463.37507 -232.52283,-474.08935 -238.70279,-474.08935 z" />
      </g>
    </g>
    <path
       style="fill:none;fill-rule:evenodd;stroke:#eaee74;stroke-width:31.34361251;stroke-linecap:butt;stroke-linejoin:miter;stroke-miterlimit:4;stroke-dasharray:none;stroke-opacity:1"
       d="M 35.418527,341.76528 L 662.95534,341.76528"
       id="path2417"
       sodipodi:nodetypes="cc" />
    <path
       sodipodi:nodetypes="cc"
       id="path3191"
       d="M 35.418527,1359.3539 L 662.95534,1359.3539"
       style="fill:none;fill-rule:evenodd;stroke:#eaee74;stroke-width:31.34361251;stroke-linecap:butt;stroke-linejoin:miter;stroke-miterlimit:4;stroke-dasharray:none;stroke-opacity:1" />
    <path
       sodipodi:nodetypes="cc"
       id="path3193"
       d="M 98.172209,2376.9425 L 98.172209,341.76528"
       style="fill:none;fill-rule:evenodd;stroke:#eaee74;stroke-width:9.40308379999999921;stroke-linecap:butt;stroke-linejoin:miter;stroke-miterlimit:4;stroke-dasharray:none;stroke-opacity:1" />
    <path
       style="fill:none;fill-rule:evenodd;stroke:#eaee74;stroke-width:9.40308379999999921;stroke-linecap:butt;stroke-linejoin:miter;stroke-miterlimit:4;stroke-dasharray:none;stroke-opacity:1"
       d="M 223.67957,2376.9425 L 223.67957,341.76528"
       id="path3195"
       sodipodi:nodetypes="cc" />
    <path
       sodipodi:nodetypes="cc"
       id="path3197"
       d="M 349.18694,2376.9425 L 349.18694,341.76528"
       style="fill:none;fill-rule:evenodd;stroke:#eaee74;stroke-width:9.40308379999999921;stroke-linecap:butt;stroke-linejoin:miter;stroke-miterlimit:4;stroke-dasharray:none;stroke-opacity:1" />
    <path
       style="fill:none;fill-rule:evenodd;stroke:#eaee74;stroke-width:9.40308379999999921;stroke-linecap:butt;stroke-linejoin:miter;stroke-miterlimit:4;stroke-dasharray:none;stroke-opacity:1"
       d="M 474.6943,2376.9425 L 474.6943,341.76528"
       id="path3199"
       sodipodi:nodetypes="cc" />
    <path
       sodipodi:nodetypes="cc"
       id="path3201"
       d="M 600.20166,2376.9425 L 600.20166,341.76528"
       style="fill:none;fill-rule:evenodd;stroke:#eaee74;stroke-width:9.40308379999999921;stroke-linecap:butt;stroke-linejoin:miter;stroke-miterlimit:4;stroke-dasharray:none;stroke-opacity:1" />
    <path
       style="fill:none;fill-rule:evenodd;stroke:#eaee74;stroke-width:31.34361251;stroke-linecap:butt;stroke-linejoin:miter;stroke-miterlimit:4;stroke-dasharray:none;stroke-opacity:1"
       d="M 35.418527,2376.9425 L 662.95534,2376.9425"
       id="path3229"
       sodipodi:nodetypes="cc" />
  </g>
</svg>
