<?xml version="1.0" encoding="UTF-8" standalone="no"?>
<!-- Created with Sodipodi ("http://www.sodipodi.com/") -->

<svg
   xmlns:dc="http://purl.org/dc/elements/1.1/"
   xmlns:cc="http://creativecommons.org/ns#"
   xmlns:rdf="http://www.w3.org/1999/02/22-rdf-syntax-ns#"
   xmlns:svg="http://www.w3.org/2000/svg"
   xmlns="http://www.w3.org/2000/svg"
   xmlns:xlink="http://www.w3.org/1999/xlink"
   xmlns:sodipodi="http://sodipodi.sourceforge.net/DTD/sodipodi-0.dtd"
   xmlns:inkscape="http://www.inkscape.org/namespaces/inkscape"
   version="1.0"
   x="0"
   y="0"
   width="64"
   height="64"
   id="svg559"
   sodipodi:version="0.32"
   inkscape:version="0.47pre4 r22446"
   sodipodi:docname="icon.svg"
   inkscape:output_extension="org.inkscape.output.svg.inkscape"
   inkscape:export-filename="/media/Datos/Desarrollo Performous/performous/themes/default/icon.bmp.png"
   inkscape:export-xdpi="45"
   inkscape:export-ydpi="45">
  <metadata
     id="metadata35">
    <rdf:RDF>
      <cc:Work
         rdf:about="">
        <dc:format>image/svg+xml</dc:format>
        <dc:type
           rdf:resource="http://purl.org/dc/dcmitype/StillImage" />
        <dc:title></dc:title>
      </cc:Work>
    </rdf:RDF>
  </metadata>
  <sodipodi:namedview
     inkscape:window-height="726"
     inkscape:window-width="1280"
     inkscape:pageshadow="2"
     inkscape:pageopacity="0.0"
     guidetolerance="10.0"
     gridtolerance="10.0"
     objecttolerance="10.0"
     borderopacity="1.0"
     bordercolor="#666666"
     pagecolor="#ffffff"
     id="base"
     inkscape:zoom="4"
     inkscape:cx="1.1330869"
     inkscape:cy="28.600819"
     inkscape:window-x="0"
     inkscape:window-y="25"
     inkscape:current-layer="svg559"
     width="64px"
     height="64px"
     showgrid="false"
     inkscape:window-maximized="1" />
  <defs
     id="defs561">
    <linearGradient
       id="linearGradient3928">
      <stop
         id="stop3936"
         offset="0"
         style="stop-color:#f5f5f5;stop-opacity:0.96078432;" />
      <stop
         style="stop-color:#0300da;stop-opacity:0.96078432;"
         offset="1"
         id="stop3932" />
    </linearGradient>
    <inkscape:perspective
       sodipodi:type="inkscape:persp3d"
       inkscape:vp_x="0 : 32 : 1"
       inkscape:vp_y="0 : 1000 : 0"
       inkscape:vp_z="64 : 32 : 1"
       inkscape:persp3d-origin="32 : 21.333333 : 1"
       id="perspective15" />
    <radialGradient
       inkscape:collect="always"
       xlink:href="#linearGradient3928"
       id="radialGradient3940"
       cx="29.106733"
       cy="32.03397"
       fx="29.106733"
       fy="32.03397"
       r="33.97723"
       gradientTransform="matrix(-0.8888687,3.3173007,-3.5172311,-0.9424392,162.12621,-50.628114)"
       gradientUnits="userSpaceOnUse" />
    <inkscape:perspective
       id="perspective3728"
       inkscape:persp3d-origin="0.5 : 0.33333333 : 1"
       inkscape:vp_z="1 : 0.5 : 1"
       inkscape:vp_y="0 : 1000 : 0"
       inkscape:vp_x="0 : 0.5 : 1"
       sodipodi:type="inkscape:persp3d" />
    <inkscape:perspective
       id="perspective2940"
       inkscape:persp3d-origin="0.5 : 0.33333333 : 1"
       inkscape:vp_z="1 : 0.5 : 1"
       inkscape:vp_y="0 : 1000 : 0"
       inkscape:vp_x="0 : 0.5 : 1"
       sodipodi:type="inkscape:persp3d" />
    <linearGradient
       id="linearGradient3751-4">
      <stop
         id="stop3753-1"
         offset="0"
         style="stop-color:black;stop-opacity:1;" />
      <stop
         id="stop3755-8"
         offset="1"
         style="stop-color:black;stop-opacity:0;" />
    </linearGradient>
    <filter
       color-interpolation-filters="sRGB"
       inkscape:collect="always"
       id="filter4102">
      <feGaussianBlur
         inkscape:collect="always"
         stdDeviation="10.689196"
         id="feGaussianBlur4104" />
    </filter>
    <linearGradient
       id="linearGradient3629-3">
      <stop
         style="stop-color:#00cbff;stop-opacity:0;"
         offset="0"
         id="stop3631-1" />
      <stop
         style="stop-color:#000000;stop-opacity:1;"
         offset="1"
         id="stop3633-4" />
    </linearGradient>
    <inkscape:perspective
       id="perspective2929"
       inkscape:persp3d-origin="0.5 : 0.33333333 : 1"
       inkscape:vp_z="1 : 0.5 : 1"
       inkscape:vp_y="0 : 1000 : 0"
       inkscape:vp_x="0 : 0.5 : 1"
       sodipodi:type="inkscape:persp3d" />
    <radialGradient
       inkscape:collect="always"
       xlink:href="#linearGradient3629-3-0"
       id="radialGradient2891-5"
       gradientUnits="userSpaceOnUse"
       gradientTransform="matrix(0.05477685,-0.10676682,0.22811602,0.1170352,-255.53225,43.674372)"
       cx="727.25122"
       cy="757.60583"
       fx="727.25122"
       fy="757.60583"
       r="500" />
    <linearGradient
       id="linearGradient3629-3-0">
      <stop
         style="stop-color:#00cbff;stop-opacity:0;"
         offset="0"
         id="stop3631-1-8" />
      <stop
         style="stop-color:#000000;stop-opacity:1;"
         offset="1"
         id="stop3633-4-1" />
    </linearGradient>
    <linearGradient
       inkscape:collect="always"
       xlink:href="#linearGradient3751-4"
       id="linearGradient2962"
       gradientUnits="userSpaceOnUse"
       gradientTransform="matrix(0.11428445,0,0,0.11428445,-52.148437,-21.272026)"
       x1="665.12128"
       y1="684.16162"
       x2="381.28015"
       y2="449.80624" />
    <radialGradient
       inkscape:collect="always"
       xlink:href="#linearGradient3629-3"
       id="radialGradient2964"
       gradientUnits="userSpaceOnUse"
       gradientTransform="matrix(0.05252013,-0.10236819,0.21871798,0.11221352,-175.4916,48.347202)"
       cx="727.25122"
       cy="757.60583"
       fx="727.25122"
       fy="757.60583"
       r="500" />
    <inkscape:perspective
       id="perspective3012"
       inkscape:persp3d-origin="0.5 : 0.33333333 : 1"
       inkscape:vp_z="1 : 0.5 : 1"
       inkscape:vp_y="0 : 1000 : 0"
       inkscape:vp_x="0 : 0.5 : 1"
       sodipodi:type="inkscape:persp3d" />
    <radialGradient
       inkscape:collect="always"
       xlink:href="#linearGradient3629-3-3"
       id="radialGradient2964-4"
       gradientUnits="userSpaceOnUse"
       gradientTransform="matrix(0.05252013,-0.10236819,0.21871798,0.11221352,-175.4916,48.347202)"
       cx="727.25122"
       cy="757.60583"
       fx="727.25122"
       fy="757.60583"
       r="500" />
    <linearGradient
       id="linearGradient3629-3-3">
      <stop
         style="stop-color:#00cbff;stop-opacity:0;"
         offset="0"
         id="stop3631-1-0" />
      <stop
         style="stop-color:#000000;stop-opacity:1;"
         offset="1"
         id="stop3633-4-0" />
    </linearGradient>
  </defs>
  <path
     style="fill:#ffffff;fill-opacity:1;stroke:none"
     d="M 0,0 0,64 64,64 64,0 0,0 z"
     id="rect2855-2"
     inkscape:export-xdpi="45"
     inkscape:export-ydpi="45"
     inkscape:export-filename="/media/Datos/Desarrollo Performous/performous/themes/default/icon.bmp.png" />
  <path
     style="fill:url(#radialGradient2964);fill-opacity:1;stroke:none"
     d="M 0,2.3833172e-4 0,64.000238 l 64,0 0,-63.99999966828 -64,0 z"
     id="rect2855" />
  <g
     transform="matrix(0.12634444,0,0,0.12634444,-126.69342,-24.043345)"
     id="g3873" />
  <path
     style="fill:#ffffff;fill-opacity:1;fill-rule:evenodd;stroke:none;filter:url(#filter4102)"
     d="m 1077.7371,-298.93512 c -14.23,4.82045 -25.272,17.07679 -40.5625,19.34375 -16.5396,6.42255 -33.9604,17.15883 -39.93749,34.84375 -3.86066,17.63507 7.05159,33.79585 13.44299,49.33403 2.7177,5.64987 5.7418,11.14072 9.182,16.35347 -16.9148,28.10647 -26.15445,60.97532 -49.84374,84.593754 -3.28446,4.2066 -4.0471,9.91279 -6.4375,14.312499 -11.90138,8.64494 -9.39804,29.48494 3.78125,35.5 -2.72141,10.24779 -1.31106,21.30932 -0.96875,31.84375 2.27202,23.897498 7.39731,47.574508 11.28125,71.218748 4.97381,20.41324 16.81036,38.03645 27.31309,55.932019 4.4837,7.81451 9.859,15.88888 11.1869,24.81798 -2.7356,7.05561 -11.8355,7.18003 -17.81249,10.0625 -13.11105,5.4779 -20.96481,23.52862 -11.90625,35.71875 8.26796,10.29454 22.63164,7.05398 33.84374,6.34375 5.2536,13.03691 20.5815,18.31912 33.8438,18.71875 11.3657,1.56086 22.7532,-3.18566 30.125,-11.75 9.8881,-7.66249 14.7608,-19.86674 16.75,-31.90625 2.9958,-9.27484 10.9675,-15.48299 17.3437,-22.34375 4.6177,-7.30332 6.2147,-16.08603 9.8125,-23.84375 1.2552,-4.57951 -1.4877,-8.88193 -3.9687,-12.1875 -2.3199,-8.333359 -11.1141,-12.670189 -18.3438,-15.937499 -3.4927,-0.12192 -6.8339,-1.61823 -6.875,-5.46875 -6.0446,-14.60448 -15.6884,-27.98608 -29.6562,-35.75 -3.7601,-5.49339 3.1073,-10.22909 3.125,-15.78125 -0.232,-6.91335 4.6326,-12.62164 3.9687,-19.6875 -0.1981,-6.0760976 4.5862,-10.8420476 4.7188,-17.0624976 0.8877,-6.01123 7.438,-8.8790404 8.625,-14.9062504 3.355,-8.92733 1.8213,-18.80448 1.8125,-27.9375 2.5027,-7.35007 9.0666,-11.79115 14.1562,-17.0625 5.7728,-7.3577 6.6055,-17.60552 13.8125,-23.968749 10.9809,8.551139 27.9266,6.467869 36.9375,17.843749 6.1472,10.97305 20.2319,10.05515 30.5938,13.65625 17.6551,7.4915 35.0859,15.63863 53.125,22 8.8467,6.21187 17.8572,16.61076 29.9062,13.75 6.4171,-0.85646 10.792,-6.15862 15.6875,-9.5 9.4496,-4.63876 12.9044,-15.83731 16,-25.0625 0.3388,-7.95067 -3.0522,-15.55504 -6.1562,-22.5625 -3.1316,-5.00263 -9.4789,-6.960989 -13.9688,-9.687499 -0.3591,-12.61942 -13.8318,-24.152184 -26.3437,-19.125004 -8.3682,1.38541 -15.4892,7.083084 -23.2813,9.375004 -3.5422,-0.56964 -4.2323,-3.7164 -4.8125,-6.468754 -5.7202,-10.58512 -18.964,-12.19175 -28.117,-18.48735 -3.2994,-1.63505 -7.1201,-3.14924 -9.9142,-5.26265 4.3321,-6.25041 2.5588,-14.59267 0.062,-20.9375 1.7038,-6.32883 -0.2261,-13.88561 4.6562,-19.09375 2.4662,-6.0895 -2.3302,-11.72068 -2.6875,-17.5 3.6575,-7.75845 -0.2648,-17.53211 -7.5312,-21.625 -0.02,-10.68903 -2.7035,-21.0945 -5.5625,-31.34375 -7.0238,-1.9202 -12.8088,3.28339 -17.9375,7.15625 -5.0543,-1.03242 -10.1395,0.97113 -14.4688,3.1875 -7.8617,-0.92057 -12.4799,-9.36199 -20.7187,-8.5 -2.5583,0.18376 -4.8286,0.86061 -2.6875,-2.46875 2.2773,-7.12236 0.2685,-14.82375 -2.1875,-21.40625 0.347,-13.82765 -6.6884,-27.53577 -17.0938,-36.28125 -7.6106,-4.2492 -16.7613,-4.89974 -25.3125,-5 z m -4.625,63.5625 c 2.3451,6.8718 8.3358,11.94203 14.8125,14.75 -3.0028,1.86643 -5.5166,6.64448 -9.1875,3.15625 -5.2429,-2.51528 -11.7944,-6.36906 -13.6875,-11.8125 2.7029,-1.55258 5.7886,-5.62007 8.0625,-6.09375 z"
     id="path1939-0"
     transform="matrix(0.12113924,0,0,0.12113924,-98.203661,37.96207)" />
  <path
     id="path1939-09"
     d="m 36.543619,13.078687 -1.647329,0 -0.329464,0.82366 0.329464,0.906021 -0.164723,0.988383 -0.823651,-0.494196 -0.658928,-1.235476 -1.400217,-0.329465 -0.576548,-0.576557 -1.235495,-0.576557 -1.400208,-2.306239 0.08236,-1.0707536 3.459362,-2.6356935 1.647302,0.7412897 0.247093,0.5765571 0,0.6589277 0.411826,0.576558 0.82367,0.2470927 0.576547,-0.494196 0.08236,-0.576557 L 35.719957,7.8072996 35.22576,7.5601963 34.896287,7.148371 35.637585,6.8189066 35.472854,5.9952559 l 0,-0.494196 -0.494185,-0.4941961 -0.247103,-0.7412887 -0.988382,-0.2470937 -0.823651,-0.1647317 -1.729692,1.2354848 -4.365375,1.7296721 -0.988382,0.988393 -0.74128,0.5765571 -0.164742,1.3178468 0.329474,0.6589275 0.82366,2.223869 1.070735,2.059136 1.153124,1.482579 -1.812034,2.965158 -2.059155,4.447736 -1.235485,1.976775 -2.059127,2.553332 -0.08236,1.153115 -1.070763,0.988392 1.64732,1.48258 -0.411826,1.729672 0.164723,3.871178 0.74129,4.447738 0.741298,3.95355 0.823632,1.317846 1.153144,2.3886 1.812033,2.718064 0.494187,1.729672 0.494205,1.235486 -1.482588,2.059137 -2.635703,1.070753 -0.247084,0.82366 5.024294,-0.164732 -0.74129,1.317847 0.906012,0.823651 2.388601,0.247102 1.894413,-1.64732 0.658938,-2.30623 1.070735,-1.976774 1.317856,-1.153115 0.411825,-1.317847 -1.400208,-0.08236 0.906022,-0.906021 -1.812044,0.576566 1.317847,-1.317856 -0.988382,-0.247094 -0.741299,-0.906021 -1.235486,-2.553333 -2.882787,-2.3886 -0.576547,-0.164731 0.576547,-0.494188 -0.08236,-1.400217 0.576557,-1.235486 -0.494196,0.08236 0.906022,-1.56495 0,-1.564939 0.576548,-0.823661 0,-1.070754 1.235485,-1.64731 0.08236,-1.400209 -0.247103,-1.153114 0.576566,-1.317856 0.65891,-1.070744 0,-0.658928 0.741299,-0.08236 0.65891,-0.658928 0.576576,-1.647311 1.317837,-1.482578 1.564949,-0.576559 0.988374,0.823651 2.388619,0.74129 1.894395,0.988392 0.906012,1.153115 1.564949,0.164732 4.941951,2.141497 2.553314,0.906031 2.059146,1.564941 0.494196,-0.164732 0,-0.494197 -1.153124,-0.906012 2.223868,0.576558 0.247112,-0.411835 -0.494205,-0.494186 0.82366,0 0.08236,-0.494197 -1.482588,-0.329463 1.153115,-0.329465 0,-0.576557 -0.411825,-0.08236 -1.235496,0.08236 -0.988373,-0.411825 -0.658919,-0.329465 0.988383,-0.82365 0.247084,-0.576557 -0.164723,-0.411835 -0.906012,0.164731 -1.894423,0.988392 -0.247084,0.494188 -0.658928,-0.164733 -2.3886,-1.317847 -0.08236,-0.906021 -1.400227,-0.74129 -2.388599,-1.235485 -0.576549,0.411834 0.08236,-0.576557 -1.317847,-1.235485 -1.153115,-0.329464 -1.070762,-1.235485 -0.329446,-0.411826 1.070744,0.74129 -0.164722,-0.823651 0.823641,0.411826 -0.247094,-1.235486 1.153116,1.070753 -0.494188,-0.74129 1.153115,0.494197 -0.988373,-1.400218 0.741271,0.247094 -0.329445,-1.317847 0.576547,0.494196 -0.823651,-1.235486 0.823651,0.247094 -0.741289,-0.988384 0.988373,-0.08236 -1.070735,-0.658927 0.658929,-0.329465 -0.74129,-0.08236 0.988373,-0.906021 -0.906012,0.08236 0.08236,-0.576557 0.08236,-1.647311 -0.494188,1.153124 -0.576557,-1.647311 0.08236,1.317847 -0.329455,0.08236 -0.823659,0 -0.906021,-1.317847 -0.906013,0 -1.070763,-0.906021 -0.494205,0.494196 -1.235457,0.823651 z"
     style="fill:#000000;fill-opacity:1;fill-rule:evenodd;stroke:#000000;stroke-width:0.0815377px;stroke-linecap:butt;stroke-linejoin:miter;stroke-opacity:1" />
  <path
     style="opacity:0.22790701;fill:url(#linearGradient2962);fill-opacity:1;fill-rule:evenodd;stroke:none"
     d="m 0,40.539564 0,0.02996 0.4494382,0.35955 L 0,40.809224 l 0,8.928839 0.659176,0.269663 4.9138577,1.737828 4.4344573,1.558052 2.067415,0.509363 3.385768,0.958802 4.374532,1.078651 2.127341,0.659177 1.64794,0.4794 0.449438,0.808989 -1.64794,0.419476 0.539326,0.329588 4.853932,-0.05992 0.509364,0.509363 1.677902,0.329588 2.606742,0.08989 0.35955,-0.629214 -1.498127,-0.898876 -0.779026,-0.779027 0.2397,-0.449438 -0.838951,-0.539326 -1.468165,-0.02996 0.05992,-0.359551 -1.288389,0.239701 0.08989,-0.509364 -1.228464,-0.11985 -1.588015,-0.35955 -3.625468,-0.988764 -5.123596,-0.928839 -0.719101,-0.08989 0.08989,-0.179775 -1.378277,-0.539326 -0.599251,-0.509363 -0.419476,0.02996 -0.539326,-0.599253 -1.468165,-0.629213 -0.209737,-0.329588 -0.9887639,-0.419476 -0.329588,-0.629213 -1.228465,-0.569289 -1.318352,-0.449438 -0.659176,-0.509363 -0.3595506,-0.419476 -0.5992509,-0.269663 0.659176,-0.02996 0.029963,-0.239701 -0.9588015,-0.659176 -0.059925,-0.569288 1.0187266,-0.239701 1.7677904,0.329588 3.0861429,0.269663 2.816479,0.389513 1.977528,0.479401 1.737828,0.05992 6.951311,0.838952 3.385768,0.35955 3.53558,0.599251 0.329588,-0.05992 -0.449438,-0.179775 -2.007491,-0.359551 2.756555,0.209738 -0.119851,-0.149813 -0.958801,-0.209738 0.808989,0 -0.359551,-0.179775 -1.797753,-0.11985 0.838952,-0.149813 -0.539326,-0.209738 -0.479401,-0.02996 -1.168539,0.02996 -1.378277,-0.179775 -0.958802,-0.11985 0.209738,-0.329588 -0.299626,-0.209738 -0.539325,-0.179775 -0.749064,0.05992 -0.988764,0.389513 0.2397,0.209738 -0.838951,-0.05992 -3.625468,-0.539326 -0.928839,-0.359551 -2.097378,-0.269663 -3.535581,-0.4794 -0.209738,0.149812 -0.449438,-0.2397 -2.4569289,-0.479401 -1.468165,-0.11985 -2.2471918,-0.479403 -0.7191011,-0.179775 1.7677899,0.299626 -0.9288386,-0.329589 1.1985016,0.179776 -1.3782769,-0.509364 2.1573039,0.419476 -1.198502,-0.269663 1.617977,0.179775 -2.3071159,-0.539325 0.9588019,0.08989 -1.5580529,-0.509363 1.0486889,0.179775 -1.9775278,-0.4794 1.0486891,0.08989 L 3.7153558,42.127579 4.6441947,42.097617 2.9363296,41.857916 3.2958801,41.708103 2.4868914,41.678141 2.6067416,41.31859 1.7977528,41.348553 1.3183521,41.138815 0,40.539564 z"
     id="path2864-6" />
  <path
     sodipodi:nodetypes="cssc"
     id="path3759-3"
     d="m 32.845465,4.8615191 c -3.224887,-1.1920012 -4.561162,3.1681745 -3.895361,5.7731329 0.779141,3.048469 1.018742,6.7863 -0.384381,9.535663 -1.005419,1.970081 -5.655129,2.707676 -5.596461,5.476539"
     style="fill:none;stroke:#ffffff;stroke-width:0.19428355;stroke-linecap:round;stroke-linejoin:round;stroke-miterlimit:4;stroke-opacity:1;stroke-dasharray:none" />
</svg>
