<?xml version="1.0" encoding="UTF-8" standalone="no"?>
<!-- Created with Inkscape (http://www.inkscape.org/) -->

<svg
   xmlns:dc="http://purl.org/dc/elements/1.1/"
   xmlns:cc="http://creativecommons.org/ns#"
   xmlns:rdf="http://www.w3.org/1999/02/22-rdf-syntax-ns#"
   xmlns:svg="http://www.w3.org/2000/svg"
   xmlns="http://www.w3.org/2000/svg"
   xmlns:xlink="http://www.w3.org/1999/xlink"
   xmlns:sodipodi="http://sodipodi.sourceforge.net/DTD/sodipodi-0.dtd"
   xmlns:inkscape="http://www.inkscape.org/namespaces/inkscape"
   width="64"
   height="64"
   id="svg3048"
   version="1.1"
   inkscape:version="0.48.1 r9760"
   sodipodi:docname="icon.svg"
   inkscape:export-filename="./icon.png"
   inkscape:export-xdpi="90"
   inkscape:export-ydpi="90">
  <defs
     id="defs3050">
    <linearGradient
       inkscape:collect="always"
       xlink:href="#linearGradient4351"
       id="linearGradient3047"
       gradientUnits="userSpaceOnUse"
       gradientTransform="matrix(1.4301676,0,0,1.4301681,-13.203293,980.42008)"
       x1="30.445436"
       y1="49.898205"
       x2="30.47093"
       y2="40.705814" />
    <linearGradient
       inkscape:collect="always"
       id="linearGradient4351">
      <stop
         style="stop-color:#ffffff;stop-opacity:1;"
         offset="0"
         id="stop4353" />
      <stop
         style="stop-color:#ffffff;stop-opacity:0;"
         offset="1"
         id="stop4355" />
    </linearGradient>
    <radialGradient
       inkscape:collect="always"
       xlink:href="#linearGradient3629-3"
       id="radialGradient3049"
       gradientUnits="userSpaceOnUse"
       gradientTransform="matrix(0.07511259,-0.14640373,0.31280336,0.16048423,-266.7139,1057.1493)"
       cx="727.25122"
       cy="757.60583"
       fx="727.25122"
       fy="757.60583"
       r="500" />
    <linearGradient
       id="linearGradient3629-3">
      <stop
         style="stop-color:#00cbff;stop-opacity:0;"
         offset="0"
         id="stop3631-1" />
      <stop
         style="stop-color:#0000ce;stop-opacity:1;"
         offset="1"
         id="stop3633-4" />
    </linearGradient>
    <filter
       color-interpolation-filters="sRGB"
       inkscape:collect="always"
       id="filter4102">
      <feGaussianBlur
         inkscape:collect="always"
         stdDeviation="10.689196"
         id="feGaussianBlur4104" />
    </filter>
    <radialGradient
       inkscape:collect="always"
       xlink:href="#linearGradient3629-3-2"
       id="radialGradient3049-9"
       gradientUnits="userSpaceOnUse"
       gradientTransform="matrix(0.07511259,-0.14640373,0.31280336,0.16048423,-266.7139,1057.1493)"
       cx="727.25122"
       cy="757.60583"
       fx="727.25122"
       fy="757.60583"
       r="500" />
    <linearGradient
       id="linearGradient3629-3-2">
      <stop
         style="stop-color:#00cbff;stop-opacity:0;"
         offset="0"
         id="stop3631-1-6" />
      <stop
         style="stop-color:#0000ce;stop-opacity:1;"
         offset="1"
         id="stop3633-4-6" />
    </linearGradient>
  </defs>
  <sodipodi:namedview
     id="base"
     pagecolor="#ffffff"
     bordercolor="#666666"
     borderopacity="1.0"
     inkscape:pageopacity="0.0"
     inkscape:pageshadow="2"
     inkscape:zoom="5.6"
     inkscape:cx="7.5884659"
     inkscape:cy="34.870974"
     inkscape:document-units="px"
     inkscape:current-layer="layer1"
     showgrid="false"
     inkscape:window-width="1280"
     inkscape:window-height="739"
     inkscape:window-x="0"
     inkscape:window-y="26"
     inkscape:window-maximized="1" />
  <metadata
     id="metadata3053">
    <rdf:RDF>
      <cc:Work
         rdf:about="">
        <dc:format>image/svg+xml</dc:format>
        <dc:type
           rdf:resource="http://purl.org/dc/dcmitype/StillImage" />
        <dc:title />
      </cc:Work>
    </rdf:RDF>
  </metadata>
  <g
     inkscape:label="Capa 1"
     inkscape:groupmode="layer"
     id="layer1"
     transform="translate(0,-988.36218)">
    <path
       inkscape:connector-curvature="0"
       style="fill:#ffffff;fill-opacity:1;stroke:none"
       d="M 14.301675,988.36218 C 6.378546,988.36218 0,994.74078 0,1002.6639 l 0,35.3966 c 0,7.9231 6.378546,14.3017 14.301675,14.3017 l 35.396648,0 c 7.92312,0 14.30168,-6.3786 14.30168,-14.3017 l 0,-35.3966 c 0,-7.92312 -6.37856,-14.30172 -14.30168,-14.30172 l -35.396648,0 z"
       id="rect2855-8" />
    <path
       style="fill:url(#radialGradient3049);fill-opacity:1;stroke:none"
       d="m 14.302022,988.36218 c -7.923129,0 -14.301676,6.3786 -14.301676,14.30172 l 0,35.3966 c 0,7.9232 6.378547,14.3017 14.301676,14.3017 l 35.396647,0 c 7.923134,0 14.301674,-6.3785 14.301674,-14.3017 l 0,-35.3966 c 0,-7.92312 -6.37854,-14.30172 -14.301674,-14.30172 l -35.396647,0 z"
       id="rect2855"
       inkscape:connector-curvature="0" />
    <path
       style="opacity:0.3;fill:#ffffff;fill-opacity:1;stroke:none"
       d="m 14.301689,988.36218 c -7.923129,0 -14.301676,6.3786 -14.301676,14.30172 l 0,12.0802 c 15.525165,13.2075 48.417309,11.8647 64,0 l 0,-12.0802 c 0,-7.92312 -6.37855,-14.30172 -14.301677,-14.30172 z"
       id="rect2855-83"
       inkscape:connector-curvature="0"
       sodipodi:nodetypes="ssccsss" />
    <path
       transform="matrix(0.17178694,0,0,0.17320543,-154.13045,1042.417)"
       id="path1939-0"
       d="m 1077.7371,-298.93512 c -14.23,4.82045 -25.272,17.07679 -40.5625,19.34375 -16.5396,6.42255 -33.9604,17.15883 -39.93749,34.84375 -3.86066,17.63507 7.05159,33.79585 13.44299,49.33403 2.7177,5.64987 5.7418,11.14072 9.182,16.35347 -16.9148,28.10647 -26.15445,60.97532 -49.84374,84.593754 -3.28446,4.2066 -4.0471,9.91279 -6.4375,14.312499 -11.90138,8.64494 -9.39804,29.48494 3.78125,35.5 -2.72141,10.24779 -1.31106,21.30932 -0.96875,31.84375 2.27202,23.897498 6.36544,37.255804 10.24938,60.900044 10.29506,4.495497 61.15696,6.42352 86.74486,7.518841 4.5352,-12.415552 8.2368,-21.837815 5.9433,-4.793887 -4.8546,5.451249 3.1073,-10.22909 3.125,-15.78125 -0.232,-6.91335 4.6326,-12.62164 3.9687,-19.6875 -0.1981,-6.0760976 4.5862,-10.8420476 4.7188,-17.0624976 0.8877,-6.01123 7.438,-8.8790404 8.625,-14.9062504 3.355,-8.92733 1.8213,-18.80448 1.8125,-27.9375 2.5027,-7.35007 9.0666,-11.79115 14.1562,-17.0625 5.7728,-7.3577 6.6055,-17.60552 13.8125,-23.968749 10.9809,8.551139 27.9266,6.467869 36.9375,17.843749 6.1472,10.97305 20.2319,10.05515 30.5938,13.65625 17.6551,7.4915 35.0859,15.63863 53.125,22 8.8467,6.21187 17.8572,16.61076 29.9062,13.75 7.8178,-32.066599 11.212,-99.257783 -14.7812,-85.937503 -8.3682,1.38541 -15.4892,7.083084 -23.2813,9.375004 -3.5422,-0.56964 -4.2323,-3.7164 -4.8125,-6.468754 -5.7202,-10.58512 -18.964,-12.19175 -28.117,-18.48735 -3.2994,-1.63505 -7.1201,-3.14924 -9.9142,-5.26265 4.3321,-6.25041 2.5588,-14.59267 0.062,-20.9375 1.7038,-6.32883 -0.2261,-13.88561 4.6562,-19.09375 2.4662,-6.0895 -2.3302,-11.72068 -2.6875,-17.5 3.6575,-7.75845 -0.2648,-17.53211 -7.5312,-21.625 -0.02,-10.68903 -2.7035,-21.0945 -5.5625,-31.34375 -7.0238,-1.9202 -12.8088,3.28339 -17.9375,7.15625 -5.0543,-1.03242 -10.1395,0.97113 -14.4688,3.1875 -7.8617,-0.92057 -12.4799,-9.36199 -20.7187,-8.5 -2.5583,0.18376 -4.8286,0.86061 -2.6875,-2.46875 2.2773,-7.12236 0.2685,-14.82375 -2.1875,-21.40625 0.347,-13.82765 -6.6884,-27.53577 -17.0938,-36.28125 -7.6106,-4.2492 -16.7613,-4.89974 -25.3125,-5 z m -4.625,63.5625 c 2.3451,6.8718 8.3358,11.94203 14.8125,14.75 -3.0028,1.86643 -5.5166,6.64448 -9.1875,3.15625 -5.2429,-2.51528 -11.7944,-6.36906 -13.6875,-11.8125 2.7029,-1.55258 5.7886,-5.62007 8.0625,-6.09375 z"
       style="fill:#ffffff;fill-opacity:1;fill-rule:evenodd;stroke:none;filter:url(#filter4102)"
       inkscape:connector-curvature="0"
       sodipodi:nodetypes="cccccccccccccccccccccccccccccccccccccccccccccc" />
    <path
       style="fill:#000000;fill-opacity:1;fill-rule:evenodd;stroke:#000000;stroke-width:0.11655536px;stroke-linecap:butt;stroke-linejoin:miter;stroke-opacity:1"
       d="m 31.299203,993.35908 -2.455689,1.7878 -6.250837,2.4581 -1.384115,1.4301 -1.071573,0.8045 -0.223242,1.87712 0.446485,0.9832 1.205521,3.1732 1.51806,2.9497 1.652008,2.1006 -2.589634,4.2458 -2.946823,6.3464 -1.785953,2.8603 -2.902176,3.6201 -0.133958,1.6536 -1.518061,1.4302 2.32174,2.1006 -0.580436,2.5028 0.223246,5.4972 1.071569,6.391 0.892977,4.6481 9.286967,0 -0.625087,-0.1788 0.803678,-0.7151 -0.13396,-2.0112 0.848328,-1.743 -0.71438,0.089 1.294816,-2.2346 0,-2.2347 0.848329,-1.162 0,-1.5195 1.741305,-2.3687 0.13396,-2.0112 -0.357192,-1.6536 0.80368,-1.8771 0.937624,-1.5196 0,-0.9385 1.071573,-0.1341 0.937627,-0.9386 0.848328,-2.3687 1.875251,-2.1006 2.232441,-0.8491 1.384116,1.2067 3.437962,1.0279 2.72358,1.4302 1.294815,1.6536 2.232443,0.2235 7.054517,3.0838 3.61656,1.2961 2.94682,2.2346 0.62509,-0.1788 0,-0.8491 -1.56271,-1.2067 1.56271,0.4022 0,-3.3519 -0.26789,0 -1.38412,-0.5811 -0.93763,-0.4916 1.38412,-1.162 0.35719,-0.8491 -0.22325,-0.5811 -1.29481,0.2235 -2.72358,1.4302 -0.35719,0.7151 -0.93763,-0.2235 -3.39331,-1.9218 -0.13396,-1.2961 -2.0092,-1.0279 -3.393312,-1.7877 -0.848328,0.581 0.13396,-0.8045 -1.875252,-1.7877 -1.652009,-0.4469 -1.518061,-1.7877 -0.491136,-0.581 1.51806,1.0726 -0.223245,-1.2067 1.205518,0.6257 -0.35719,-1.7877 1.65201,1.5195 -0.714382,-1.0279 1.652004,0.6704 -1.428762,-1.9665 1.071575,0.3575 -0.491139,-1.9217 0.848326,0.715 -1.205518,-1.743 1.205518,0.3576 -1.071569,-1.4302 1.428762,-0.1341 -1.562711,-0.9385 0.937626,-0.447 -1.026922,-0.1341 1.384115,-1.2961 -1.294819,0.1341 0.13396,-0.8491 0.13396,-2.324 -0.714384,1.6089 -0.84833,-2.324 0.133961,1.8771 -0.491139,0.1341 -1.16087,0 -1.294818,-1.9218 -1.294815,0 -1.518062,-1.2961 -0.714381,0.7151 -1.785954,1.2067 -2.321739,0 -0.491136,1.162 0.491136,1.2961 -0.267893,1.3854 -1.16087,-0.6703 -0.937627,-1.7878 -2.009198,-0.4469 -0.803681,-0.8491 -1.785953,-0.8045 -2.009197,-3.3073 0.133959,-1.5195 4.956023,-3.79892 2.321741,1.0726 0.357188,0.8045 0,0.98322 0.625088,0.8045 1.160867,0.3575 0.80368,-0.7151 0.133958,-0.80442 -0.357189,-0.7151 -0.714385,-0.3575 -0.446486,-0.581 1.026923,-0.4916 -0.223243,-1.1621 0,-0.715 -0.714434,-0.7151 -0.357189,-1.0726 -1.384113,-0.3129 -1.205517,-0.2682 z"
       id="path1939-09"
       inkscape:connector-curvature="0" />
    <path
       style="fill:none;stroke:#ffffff;stroke-width:0.27772158;stroke-linecap:round;stroke-linejoin:round;stroke-miterlimit:4;stroke-opacity:1;stroke-dasharray:none"
       d="m 31.212342,994.95748 c -4.607603,-1.7048 -6.516821,4.531 -5.565548,8.25652 1.113206,4.3598 1.455542,9.7055 -0.54919,13.6376 -1.436505,2.8175 -8.07984,3.8724 -7.996017,7.8324"
       id="path3759-3"
       sodipodi:nodetypes="cssc"
       inkscape:connector-curvature="0" />
    <path
       style="opacity:0.8;fill:url(#linearGradient3047);fill-opacity:1;stroke:none"
       d="m 3.46e-4,1038.0605 c 0,7.9232 6.378547,14.3017 14.301676,14.3017 l 35.396647,0 c 7.923134,0 14.301674,-6.3785 14.301674,-14.3017 -59.814553,0.1908 -2.06552,-0.035 -63.999997,0 z"
       id="rect2855-9"
       inkscape:connector-curvature="0"
       sodipodi:nodetypes="csscc" />
    <path
       style="fill:none;stroke:#000000;stroke-width:1;stroke-miterlimit:4;stroke-opacity:0.17699116;stroke-dasharray:none"
       d="m 14.578146,988.86204 c -7.7993597,0 -14.07826626,6.27896 -14.07826626,14.07836 l 0,34.8436 c 0,7.7994 6.27890656,14.0783 14.07826626,14.0783 l 34.843709,0 c 7.799365,0 14.078265,-6.2789 14.078265,-14.0783 l 0,-34.8436 c 0,-7.79939 -6.2789,-14.07835 -14.078265,-14.07835 l -34.843709,0 z"
       id="rect2855-4"
       inkscape:connector-curvature="0" />
    <path
       style="fill:none;stroke:#ffffff;stroke-width:0.99999189000000011;stroke-miterlimit:4;stroke-opacity:0.40789473;stroke-dasharray:none"
       d="m 15.131283,989.86217 c -7.5517331,0 -13.631287,6.07961 -13.631287,13.63133 l 0,33.7373 c 0,7.5519 6.0795539,13.6314 13.631287,13.6314 l 33.737435,0 c 7.551739,0 13.631286,-6.0795 13.631286,-13.6314 l 0,-33.7373 c 0,-7.55171 -6.079547,-13.63132 -13.631286,-13.63132 l -33.737435,0 z"
       id="rect2855-4-8"
       inkscape:connector-curvature="0" />
  </g>
</svg>
