<?xml version="1.0" encoding="UTF-8" standalone="no"?>
<!-- Created with Inkscape (http://www.inkscape.org/) -->
<svg
   xmlns:dc="http://purl.org/dc/elements/1.1/"
   xmlns:cc="http://creativecommons.org/ns#"
   xmlns:rdf="http://www.w3.org/1999/02/22-rdf-syntax-ns#"
   xmlns:svg="http://www.w3.org/2000/svg"
   xmlns="http://www.w3.org/2000/svg"
   xmlns:xlink="http://www.w3.org/1999/xlink"
   xmlns:sodipodi="http://sodipodi.sourceforge.net/DTD/sodipodi-0.dtd"
   xmlns:inkscape="http://www.inkscape.org/namespaces/inkscape"
   width="256"
   height="256"
   id="svg2"
   sodipodi:version="0.32"
   inkscape:version="0.46"
   sodipodi:docbase="/home/yoda/UltraStar/sf/svn/UltraStar-ng/themes/lima"
   sodipodi:docname="instrument_cover.svg"
   inkscape:output_extension="org.inkscape.output.svg.inkscape"
   version="1.0">
  <defs
     id="defs4">
    <inkscape:perspective
       sodipodi:type="inkscape:persp3d"
       inkscape:vp_x="0 : 128 : 1"
       inkscape:vp_y="0 : 1000 : 0"
       inkscape:vp_z="256 : 128 : 1"
       inkscape:persp3d-origin="128 : 85.333333 : 1"
       id="perspective17" />
    <linearGradient
       id="linearGradient3751"
       inkscape:collect="always">
      <stop
         id="stop3753"
         offset="0"
         style="stop-color:black;stop-opacity:1;" />
      <stop
         id="stop3755"
         offset="1"
         style="stop-color:black;stop-opacity:0;" />
    </linearGradient>
    <linearGradient
       inkscape:collect="always"
       xlink:href="#linearGradient3751"
       id="linearGradient3484"
       gradientUnits="userSpaceOnUse"
       gradientTransform="matrix(0.336682,0,0,0.336682,-81.3739,-51.8729)"
       x1="665.12128"
       y1="684.16162"
       x2="381.28015"
       y2="449.80624" />
  </defs>
  <sodipodi:namedview
     id="base"
     pagecolor="#ffffff"
     bordercolor="#666666"
     borderopacity="1.0"
     inkscape:pageopacity="0.0"
     inkscape:pageshadow="2"
     inkscape:zoom="1.1191406"
     inkscape:cx="14.555935"
     inkscape:cy="70.174855"
     inkscape:document-units="px"
     inkscape:current-layer="layer1"
     inkscape:window-width="1144"
     inkscape:window-height="785"
     inkscape:window-x="136"
     inkscape:window-y="25"
     showguides="true"
     inkscape:guide-bbox="true"
     width="256px"
     height="256px"
     borderlayer="false"
     showgrid="false" />
  <metadata
     id="metadata7">
    <rdf:RDF>
      <cc:Work
         rdf:about="">
        <dc:format>image/svg+xml</dc:format>
        <dc:type
           rdf:resource="http://purl.org/dc/dcmitype/StillImage" />
      </cc:Work>
    </rdf:RDF>
  </metadata>
  <g
     inkscape:label="Capa 1"
     inkscape:groupmode="layer"
     id="layer1">
    <rect
       style="opacity:1;color:#000000;fill:#ffffff;fill-opacity:0.31313129000000001;fill-rule:nonzero;stroke:#7f7f7f;stroke-width:10.01399999999999935;stroke-linecap:butt;stroke-linejoin:miter;marker:none;marker-start:none;marker-mid:none;marker-end:none;stroke-miterlimit:4;stroke-dasharray:none;stroke-dashoffset:0;stroke-opacity:1;visibility:visible;display:block;overflow:visible"
       id="rect1906"
       width="246.30026"
       height="246.30028"
       x="4.8498545"
       y="4.0691833"
       inkscape:export-filename="/home/jesusda/docs/curro/yo/ultrastar-ng/base/theme-pod/images/no_cover.png"
       inkscape:export-xdpi="89.889648"
       inkscape:export-ydpi="89.889648" />
    <path
       style="opacity:1;fill:#000000"
       d="M 58.770328,163.09224 C 58.667128,162.65922 58.907858,162.33165 59.307738,162.36094 C 59.434798,162.37025 59.574458,162.348 59.618058,162.31152 C 59.694038,162.24796 59.829758,161.81959 59.812288,161.69848 C 59.807698,161.66652 59.445558,161.17684 59.007558,160.61029 C 58.018918,159.33152 57.142328,158.12101 56.257978,156.81331 C 54.862308,154.74948 53.121888,151.92373 52.493388,150.70105 C 50.938678,147.67664 50.096268,144.43182 50.053408,141.30298 C 50.036648,140.07945 50.240718,137.67269 50.439578,136.74815 C 51.072318,133.80685 52.501678,131.51856 55.213028,129.10627 C 56.848878,127.65088 59.707728,125.65418 61.460679,124.74276 C 64.699589,123.05877 68.687829,121.57213 75.295889,119.58561 C 79.031989,118.46246 80.109249,118.09709 81.533518,117.46998 C 85.251458,115.833 88.061728,113.30253 90.734398,109.18512 C 92.220188,106.89615 95.58264,101.90071 96.00588,101.35347 C 99.706114,96.569272 103.24812,93.685062 106.69671,92.648042 C 107.38444,92.441242 108.70449,92.191802 109.36335,92.144162 C 110.59661,92.054942 111.74608,92.304302 112.56925,92.839612 C 112.87777,93.040212 112.98277,93.138632 113.24499,93.473072 C 113.54455,93.855002 113.5553,93.863932 113.54953,93.726172 C 113.5462,93.647662 113.53301,93.570012 113.52015,93.553672 C 113.44391,93.456872 113.61169,93.490912 113.95377,93.641702 L 114.34528,93.814232 L 114.46227,93.668322 C 114.74427,93.316632 115.00274,93.267602 115.29798,93.509782 C 115.46435,93.646222 115.52066,93.804662 115.58644,94.321242 C 115.65145,94.832082 115.60704,95.009962 115.36351,95.213702 C 115.14349,95.397772 114.95905,95.404422 114.75741,95.235522 C 114.47673,95.000492 114.28011,95.069532 113.99662,95.502612 C 113.91874,95.621572 113.84915,95.724132 113.84193,95.730572 C 113.83472,95.736972 113.8141,95.653152 113.79613,95.544242 L 113.76344,95.346252 L 113.67952,95.609182 C 113.48243,96.226632 113.25611,96.509322 112.01811,97.684432 C 110.93379,98.713662 110.02775,99.651912 109.34329,100.45434 C 109.0697,100.77508 108.70186,101.201 108.52586,101.40083 C 108.14215,101.83647 107.97341,102.09504 107.76869,102.56111 C 107.47203,103.23645 107.3167,103.93972 107.23502,104.97749 C 107.10044,106.68748 107.39935,108.3843 108.09103,109.83702 C 108.26106,110.1941 108.37502,110.35902 108.8245,110.8984 C 109.43796,111.63452 109.64138,111.7968 110.37206,112.13261 C 110.91408,112.38174 111.4216,112.50659 112.02905,112.5403 C 112.59557,112.5717 113.54735,112.46486 113.67851,112.35515 C 113.73321,112.30938 115.76025,110.70188 118.18303,108.78291 C 129.71064,99.652452 137.30277,93.611082 148.72464,84.479686 C 150.78275,82.834326 155.51767,79.027246 158.79746,76.380746 C 160.9399,74.652006 165.48814,70.940126 170.04023,67.205426 L 172.24178,65.399246 L 172.26712,65.032246 C 172.30082,64.544096 172.29364,64.041716 172.24537,63.522316 C 172.18613,62.884306 172.2295,62.469246 172.38404,62.196926 C 172.6843,61.667746 173.12277,61.343016 174.00519,60.996336 C 174.6511,60.742556 175.84567,60.172536 175.8507,60.115666 C 175.85926,60.019876 175.62915,59.541326 175.54117,59.471726 C 175.48669,59.428656 175.33294,59.412176 175.17154,59.432126 C 174.92968,59.461986 174.87768,59.448556 174.75541,59.324496 C 174.60107,59.167886 174.42067,58.742976 174.25718,58.151076 C 174.1289,57.686426 174.14582,57.658196 174.80414,57.237596 C 175.31485,56.911296 175.56057,56.805246 175.96207,56.737746 C 176.29779,56.681286 176.49433,56.725426 176.69067,56.901356 C 176.88819,57.078286 177.21261,57.657786 177.28067,57.955236 C 177.34645,58.242796 177.25304,58.577466 177.06258,58.736846 C 176.90197,58.871176 176.90367,58.879016 177.1761,59.278366 C 177.32228,59.492626 177.3262,59.494576 177.48008,59.430806 C 178.11809,59.166316 179.97791,58.342496 179.97739,58.324566 C 179.97699,58.312306 179.9301,58.187966 179.87308,58.048326 C 179.74558,57.736006 179.60802,57.645016 179.35061,57.702486 C 179.25029,57.724896 179.1239,57.733156 179.06969,57.720886 C 178.83664,57.668226 178.61855,57.242606 178.39869,56.411086 L 178.28648,55.986716 L 178.73853,55.650416 C 179.51038,55.076226 180.23088,54.855456 180.65406,55.063516 C 180.86948,55.169456 180.90102,55.202466 181.1103,55.541226 C 181.36164,55.948006 181.45471,56.199806 181.44361,56.442676 C 181.43374,56.656466 181.26706,56.996976 181.14374,57.055166 C 181.02689,57.110296 181.04283,57.169806 181.26275,57.501136 L 181.42578,57.746836 L 182.68024,57.222856 C 183.37018,56.934676 183.94045,56.685746 183.94751,56.669676 C 183.97736,56.602066 183.75633,56.127836 183.66364,56.060526 C 183.60819,56.020226 183.48964,56.003596 183.40022,56.023526 C 183.14,56.081546 182.97057,56.046086 182.85646,55.909716 C 182.72381,55.751196 182.4873,55.148736 182.376,54.685756 L 182.2905,54.330296 L 182.56463,54.108406 C 183.19141,53.601156 183.56084,53.416706 184.12517,53.329406 C 184.39408,53.287796 184.49479,53.300356 184.66769,53.396906 C 184.85371,53.500776 184.9074,53.559466 185.10073,53.870236 C 185.40138,54.353526 185.48826,54.725216 185.37467,55.042146 C 185.31177,55.217846 185.24979,55.307726 185.15638,55.358636 C 185.01223,55.437266 185.0151,55.447956 185.29949,55.885506 L 185.43777,56.098246 L 186.7906,55.552686 C 187.53462,55.252656 188.14265,54.995256 188.14167,54.980716 C 188.13455,54.873636 187.88131,54.374256 187.80777,54.322316 C 187.75748,54.286746 187.58987,54.274786 187.43527,54.295756 C 187.19445,54.328396 187.13573,54.315196 187.02534,54.203586 C 186.87557,54.052236 186.6936,53.615736 186.5375,53.033786 C 186.40484,52.539326 186.41405,52.523206 187.0708,52.100476 C 187.80594,51.627286 188.43232,51.467776 188.80619,51.658566 C 188.95825,51.736166 189.02304,51.807616 189.22552,52.120756 C 189.53721,52.602986 189.61945,52.896536 189.53597,53.228576 C 189.4845,53.433156 189.43663,53.513396 189.31703,53.595666 C 189.14473,53.714176 189.14421,53.711866 189.45642,54.181306 L 189.62487,54.434506 L 190.93198,53.929256 C 191.65092,53.651366 192.24464,53.412956 192.25137,53.399446 C 192.26861,53.365086 191.97998,52.685726 191.91375,52.604806 C 191.8839,52.568256 191.78873,52.544396 191.70232,52.551766 C 191.2613,52.589426 191.16699,52.574326 191.06242,52.449316 C 190.93975,52.302716 190.73871,51.796786 190.58293,51.242486 L 190.47241,50.849356 L 190.9457,50.494796 C 191.45327,50.114536 191.82322,49.945436 192.33595,49.859226 C 192.64477,49.807286 192.8174,49.847566 193.01361,50.017366 C 193.19728,50.176276 193.54555,50.764776 193.6008,51.009696 C 193.68663,51.389546 193.56651,51.802406 193.33797,51.913026 C 193.21407,51.972986 193.20427,51.939846 193.51655,52.518646 C 193.61589,52.702836 193.70505,52.853366 193.71452,52.853216 C 193.72406,52.853036 194.07187,52.693996 194.48741,52.499806 C 194.90302,52.305596 195.49067,52.040846 195.79341,51.911456 C 196.09608,51.782086 196.34265,51.668586 196.34122,51.659266 C 196.32652,51.563636 196.08674,51.075506 196.01235,50.989866 C 195.93495,50.900826 195.86192,50.885826 195.63959,50.913376 C 195.1795,50.970386 195.07036,50.835756 194.75906,49.826916 C 194.56095,49.184926 194.56422,49.172816 195.01804,48.867966 C 195.17218,48.764396 195.37898,48.625136 195.4776,48.558506 C 195.85507,48.303356 196.57537,48.134786 196.86662,48.233426 C 197.07028,48.302396 197.29385,48.546816 197.52031,48.948096 C 197.81795,49.475256 197.80887,49.952476 197.49627,50.213966 L 197.33259,50.350906 L 197.58895,50.749546 C 197.72997,50.968786 197.85544,51.148576 197.86785,51.149046 C 197.88026,51.149476 198.09235,51.101986 198.33918,51.043456 C 199.09312,50.864696 199.56497,50.832726 200.07365,50.925926 C 201.47599,51.182866 202.5912,51.933186 203.22151,53.043846 C 203.33267,53.239816 203.4784,53.531736 203.54528,53.692556 C 203.69237,54.046406 203.89387,54.867156 203.94371,55.315386 C 204.03998,56.181576 203.79655,57.095986 203.26024,57.882546 C 202.72961,58.660716 201.86567,59.546176 201.3626,59.827306 C 200.31081,60.415126 198.88117,60.725576 197.92278,60.574266 C 197.63592,60.528946 197.11345,60.351246 196.5533,60.108466 C 195.85245,59.804716 195.30406,59.858676 194.69962,60.290886 C 194.30093,60.575936 194.13503,60.774766 192.2065,63.277946 C 190.20494,65.875896 188.95747,67.459706 187.95101,68.680596 C 187.25408,69.526056 187.18452,69.597236 186.43253,70.234206 C 185.86565,70.714346 185.59962,70.915446 185.48466,70.950636 C 185.36683,70.986676 185.19192,70.951766 184.81896,70.817816 C 184.07625,70.551076 183.03589,70.258956 182.51408,70.170626 C 181.94478,70.074256 181.47489,70.066476 180.79332,70.142206 C 179.78137,70.254626 179.59881,70.310556 178.92044,70.716026 C 178.58328,70.917526 178.13481,71.176446 177.92391,71.291376 C 177.5245,71.508956 175.7765,72.979196 144.45791,99.440242 C 141.7804,101.70246 135.55236,106.95977 130.61778,111.12316 C 125.68322,115.28654 120.51428,119.65458 119.13122,120.82993 C 117.74819,122.00525 115.77741,123.66935 114.75179,124.52787 L 112.88694,126.08886 L 112.92444,126.22481 C 112.94506,126.29959 112.93735,126.46122 112.90732,126.58399 C 112.61212,127.79043 113.44106,129.85247 114.82805,131.36193 C 116.46245,133.1406 118.38837,134.05971 120.43144,134.03609 C 120.95972,134.02998 121.61714,133.83895 123.01558,133.28523 C 123.80484,132.9727 125.37782,132.2244 126.09317,131.82115 C 126.97181,131.32585 127.52409,131.18011 128.2758,131.24524 C 129.14166,131.32025 129.73399,131.65099 130.27395,132.36093 C 130.77806,133.02376 130.92398,133.61245 130.83456,134.62282 C 130.80354,134.9743 130.72457,135.43418 130.65925,135.64474 C 130.39531,136.49556 129.29889,138.19761 128.19282,139.47367 C 127.66484,140.08279 125.84409,141.60531 125.10095,142.05911 C 123.58852,142.98266 122.62301,143.42961 118.44846,145.13866 C 118.1928,145.24333 117.48466,145.45685 116.87481,145.61314 C 115.18321,146.04668 114.23,146.382 113.01781,146.96992 C 111.06387,147.91761 109.45996,149.20264 108.10198,150.9084 C 107.16464,152.0858 106.45328,153.32124 105.75889,154.97776 C 105.52977,155.52436 105.22642,156.18639 105.08479,156.44891 C 104.7479,157.07336 104.38683,157.803 103.42145,159.81013 C 101.877,163.02122 101.082,164.51033 99.996014,166.22634 C 98.0006,169.3794 95.77381,171.8721 93.194468,173.84002 C 91.429408,175.18668 90.190188,175.97602 88.824378,176.62362 C 86.282818,177.82864 84.122378,178.2117 80.902478,178.02828 C 79.524899,177.9498 79.451229,177.93707 78.276089,177.57456 C 75.611769,176.75255 74.241179,176.13293 72.490779,174.95899 C 70.314699,173.49957 67.989859,171.34852 65.937939,168.89595 C 65.311459,168.14717 63.970749,166.56801 62.958599,165.3867 L 61.118269,163.2389 L 60.752679,163.30066 L 60.387098,163.36242 L 60.349488,163.63057 C 60.308018,163.92608 60.208868,164.04246 59.949268,164.10035 C 59.653128,164.1664 59.465038,164.0637 59.120228,163.64761 C 58.899348,163.38107 58.802518,163.22738 58.770328,163.09224 z"
       id="path3250"
       sodipodi:nodetypes="csssssssssssssssssssscccsssssscccssssssssssssscccssssssssssssssssssscccsssscccsssscccssssscccsssssssssscccsssscccsssssssssssssssscccssssssssssssssssssssssscccssssssssssssssssssssssssscccccssc" />
    <rect
       style="opacity:1;color:#000000;fill:#0000ff;fill-opacity:0.22608696;fill-rule:nonzero;stroke:none;stroke-width:10.60000038000000089;stroke-linecap:butt;stroke-linejoin:miter;marker:none;marker-start:none;marker-mid:none;marker-end:none;stroke-miterlimit:4;stroke-dasharray:none;stroke-dashoffset:0;stroke-opacity:1;visibility:visible;display:block;overflow:visible"
       id="rect1913"
       width="291.42856"
       height="45.714287"
       x="-16.285721"
       y="181.50516" />
    <path
       style="font-size:39.83382034000000260px;font-family:Goblin;stroke:none;stroke-opacity:1;fill:#000000;fill-opacity:1"
       d="M 58.72672,219.00823 L 44.00299,198.17717 L 44.00299,218.61923 L 40.30747,218.61923 L 40.30747,190.12482 L 41.86348,190.12482 L 56.19821,209.82778 L 56.19821,190.12482 L 59.89373,190.12482 L 59.89373,219.00823 L 58.72672,219.00823 M 64.3867,204.1289 C 64.3867,200.0055 65.41756,196.55635 67.47927,193.78144 C 69.55394,191.00659 72.34827,189.61915 75.86227,189.61912 C 79.8171,189.61915 82.84483,190.89637 84.94547,193.45079 C 87.05902,196.00526 88.11581,199.56463 88.11583,204.1289 C 88.11581,208.8099 87.05902,212.47949 84.94547,215.13766 C 82.83187,217.78288 79.80414,219.10548 75.86227,219.10548 C 72.27047,219.10548 69.45669,217.70508 67.42092,214.90426 C 65.39811,212.10345 64.3867,208.51167 64.3867,204.1289 M 68.47123,204.1289 C 68.47122,207.39653 69.11307,210.12603 70.39679,212.3174 C 71.69345,214.50878 73.51528,215.60447 75.86227,215.60447 C 78.52043,215.60447 80.54324,214.59955 81.9307,212.5897 C 83.33109,210.57986 84.03129,207.7596 84.03131,204.1289 C 84.03129,196.78975 81.30828,193.12017 75.86227,193.12014 C 73.45044,193.12017 71.61565,194.10564 70.35789,196.07656 C 69.10011,198.04752 68.47122,200.73163 68.47123,204.1289 M 122.75647,191.17513 L 121.45332,194.5011 C 120.20849,193.59345 118.25052,193.13962 115.57938,193.13959 C 113.07679,193.13962 111.06695,194.21585 109.54985,196.36831 C 108.0457,198.52081 107.29363,201.29569 107.29364,204.69296 C 107.29363,207.93465 108.06515,210.5669 109.6082,212.5897 C 111.1642,214.59955 113.16756,215.60447 115.61828,215.60447 C 118.28942,215.60447 120.34464,214.6579 121.78397,212.76475 L 123.92348,215.74062 C 121.66725,217.98386 118.7627,219.10548 115.20983,219.10548 C 111.48837,219.10548 108.55789,217.76343 106.41838,215.07931 C 104.27887,212.3952 103.20911,208.85529 103.20912,204.45955 C 103.20911,200.20648 104.35019,196.67305 106.63233,193.85925 C 108.91447,191.04549 111.8644,189.6386 115.48213,189.63857 C 118.58117,189.6386 121.00594,190.15079 122.75647,191.17513 M 127.01605,204.1289 C 127.01604,200.0055 128.0469,196.55635 130.10861,193.78144 C 132.18328,191.00659 134.97761,189.61915 138.49161,189.61912 C 142.44645,189.61915 145.47418,190.89637 147.57481,193.45079 C 149.68836,196.00526 150.74515,199.56463 150.74518,204.1289 C 150.74515,208.8099 149.68836,212.47949 147.57481,215.13766 C 145.46121,217.78288 142.43348,219.10548 138.49161,219.10548 C 134.89981,219.10548 132.08603,217.70508 130.05026,214.90426 C 128.02745,212.10345 127.01604,208.51167 127.01605,204.1289 M 131.10057,204.1289 C 131.10056,207.39653 131.74242,210.12603 133.02613,212.3174 C 134.32279,214.50878 136.14462,215.60447 138.49161,215.60447 C 141.14977,215.60447 143.17258,214.59955 144.56004,212.5897 C 145.96043,210.57986 146.66063,207.7596 146.66065,204.1289 C 146.66063,196.78975 143.93762,193.12017 138.49161,193.12014 C 136.07979,193.12017 134.24499,194.10564 132.98723,196.07656 C 131.72945,198.04752 131.10056,200.73163 131.10057,204.1289 M 165.13826,219.00823 L 163.1738,219.00823 L 152.55404,190.12482 L 156.87197,190.12482 L 164.20466,211.11149 L 171.26505,190.12482 L 175.44682,190.12482 L 165.13826,219.00823 M 182.52665,193.62584 L 182.52665,201.54204 L 191.94051,201.54204 L 191.94051,204.84856 L 182.52665,204.84856 L 182.52665,215.11821 L 195.44153,215.11821 L 195.44153,218.61923 L 178.63663,218.61923 L 178.63663,190.12482 L 195.65548,190.12482 L 195.65548,193.62584 L 182.52665,193.62584 M 215.76689,218.61923 L 208.1619,206.38511 C 207.29312,206.38513 205.91864,206.32029 204.03848,206.19061 L 204.03848,218.61923 L 200.14846,218.61923 L 200.14846,190.12482 C 200.29109,190.12485 201.29601,190.07947 203.16322,189.98867 C 205.04339,189.88497 206.41138,189.8331 207.26719,189.83307 C 214.11362,189.8331 217.53683,192.55611 217.53685,198.00212 C 217.53683,199.79155 216.98575,201.4059 215.88359,202.84519 C 214.7814,204.27155 213.47176,205.15977 211.95467,205.50986 L 220.22097,218.61923 L 215.76689,218.61923 M 204.03848,193.62584 L 204.03848,202.8841 C 204.97207,203.01378 205.87974,203.07861 206.76149,203.0786 C 209.09549,203.07861 210.79413,202.70258 211.85742,201.95049 C 212.92068,201.19844 213.45231,199.85638 213.45233,197.92432 C 213.45231,196.32943 212.88178,195.18188 211.74072,194.48165 C 210.59963,193.78147 208.79726,193.43137 206.33359,193.43134 C 205.94458,193.43137 205.17954,193.4962 204.03848,193.62584"
       id="text1909" />
  </g>
</svg>
