<?xml version="1.0" encoding="UTF-8" standalone="no"?>
<svg
   xmlns:dc="http://purl.org/dc/elements/1.1/"
   xmlns:cc="http://creativecommons.org/ns#"
   xmlns:rdf="http://www.w3.org/1999/02/22-rdf-syntax-ns#"
   xmlns:svg="http://www.w3.org/2000/svg"
   xmlns="http://www.w3.org/2000/svg"
   xmlns:sodipodi="http://sodipodi.sourceforge.net/DTD/sodipodi-0.dtd"
   xmlns:inkscape="http://www.inkscape.org/namespaces/inkscape"
   width="1000"
   height="700"
   id="svg5215"
   sodipodi:version="0.32"
   inkscape:version="0.47pre4 r22446"
   inkscape:output_extension="org.inkscape.output.svg.inkscape"
   sodipodi:docname="instrumenthelp.svg"
   version="1.0">
  <metadata
     id="metadata5462">
    <rdf:RDF>
      <cc:Work
         rdf:about="">
        <dc:format>image/svg+xml</dc:format>
        <dc:type
           rdf:resource="http://purl.org/dc/dcmitype/StillImage" />
      </cc:Work>
    </rdf:RDF>
  </metadata>
  <defs
     id="defs5460">
    <inkscape:perspective
       sodipodi:type="inkscape:persp3d"
       inkscape:vp_x="0 : 765.35431 : 1"
       inkscape:vp_y="0 : 1000 : 0"
       inkscape:vp_z="1530.7086 : 765.35431 : 1"
       inkscape:persp3d-origin="765.35431 : 510.23621 : 1"
       id="perspective5464" />
  </defs>
  <sodipodi:namedview
     inkscape:window-height="848"
     inkscape:window-width="1121"
     inkscape:pageshadow="2"
     inkscape:pageopacity="0.0"
     guidetolerance="10.0"
     gridtolerance="10.0"
     objecttolerance="10.0"
     borderopacity="1.0"
     bordercolor="#666666"
     pagecolor="#ffffff"
     id="base"
     showgrid="false"
     showguides="true"
     inkscape:guide-bbox="true"
     inkscape:zoom="1.207284"
     inkscape:cx="664.33512"
     inkscape:cy="317.90967"
     inkscape:window-x="15"
     inkscape:window-y="0"
     inkscape:current-layer="svg5215"
     inkscape:window-maximized="0" />
  <!-- EMR_SETMAPMODE -->
  <!-- EMR_SETWINDOWEXTEX -->
  <!-- EMR_SETVIEWPORTEXTEX -->
  <!-- EMR_SETBKMODE -->
  <!-- EMR_STRETCHDIBITS -->
  <!-- EMR_SETBKCOLOR -->
  <path
     style="fill:#c00000;fill-opacity:1;fill-rule:nonzero;stroke:none"
     id="path5221"
     d="" />
  <!-- EMR_SETBKCOLOR -->
  <path
     style="fill:#c00000;fill-opacity:1;fill-rule:nonzero;stroke:none"
     id="path5239"
     d="" />
  <!-- EMR_SETBKCOLOR -->
  <path
     style="fill:#c00000;fill-opacity:1;fill-rule:nonzero;stroke:none"
     id="path5339"
     d="" />
  <!-- EMR_SETBKCOLOR -->
  <g
     id="g6678"
     transform="matrix(-0.5733385,-9.4920755e-2,6.4234436e-2,-0.8472365,906.86031,1482.3356)"
     style="opacity:0.9">
    <g
       id="g2919"
       transform="translate(-520.43821,59.690285)">
      <path
         style="fill:#5f4343;fill-opacity:1;stroke:none"
         d="m 1520.754,975.60048 c -91.3221,35.38732 -287.6594,165.49742 -363,228.28132 -1.1415,1.1415 -2.2813,2.296 -2.2813,3.4375 1.1416,2.283 1.125,6.8438 1.125,6.8438 0,0 2.2813,2.2812 2.2813,2.2812 57.0762,50.2271 179.2161,126.7028 242,166.6562 2.283,1.1416 5.7317,3.4264 9.1562,-2.2812 110.728,-148.3983 245.4062,-343.5938 245.4062,-343.5938 10e-5,10e-5 1.158,-1.1397 -1.125,-2.2812 -55.9346,-31.9627 -129,-59.34382 -129,-59.34382 0,0 -2.2794,0 -4.5624,0 z m 2.1874,1.0313 c 0.8918,0.056 1.3438,0.5 1.3438,0.5 0,0 65.2787,26.16232 128.0625,58.12502 2.2831,1.1414 1.125,2.2813 1.125,2.2813 0,-10e-5 -240.0129,334.1692 -243.4375,337.5937 -3.4245,4.5662 -4.5772,2.2813 -5.7187,2.2813 -71.9161,-44.5196 -243.1545,-166.138 -245.4375,-169.5626 -1.1416,-1.1414 0,-3.4062 0,-3.4062 93.3121,-67.8759 237.2795,-171.6109 361.9687,-227.31252 0.8561,-0.4281 1.5587,-0.5334 2.0937,-0.5 z"
         id="path5217" />
      <path
         transform="matrix(-1.7225489,0.19298701,-0.13059748,-1.1656764,1755.7005,1552.9114)"
         id="path2917"
         d="M 85.297081,500.8407 C 72.406572,489.9957 55.509153,475.29159 45.767424,466.44204 38.460906,459.80468 26.420394,448.27881 25.88033,447.40497 c -0.296189,-0.47925 15.394509,-26.28264 96.1936,-158.19065 43.14146,-70.43028 64.35284,-104.7607 65.60429,-106.17989 0.50762,-0.57566 1.23583,-0.97101 1.61825,-0.87855 2.3117,0.55891 55.12816,67.08109 97.78919,123.1652 27.00989,35.50843 33.11909,44.00628 32.61418,45.36606 -0.45506,1.2255 -7.48232,7.2277 -34.97522,29.8734 -62.39911,51.39771 -112.6815,87.81472 -154.9143,112.19668 -8.62325,4.97839 -32.299417,17.28648 -33.149573,17.23285 -0.290513,-0.0183 -5.404164,-4.13555 -11.363666,-9.14937 z"
         style="fill:#f9f9f9" />
    </g>
    <path
       id="path5223"
       d="M 726.50097,1255.8195 C 724.21793,1259.2441 713.94419,1264.9517 713.94419,1264.9517 C 713.94419,1264.9517 712.80267,1267.2348 710.51962,1266.0932 C 708.23658,1264.9517 693.39675,1253.5365 693.39675,1253.5365 C 693.39675,1253.5365 689.97218,1268.3763 689.97218,1268.3763 C 689.97218,1268.3763 710.51962,1284.3576 710.51962,1284.3576 C 710.51962,1284.3576 712.80267,1284.3576 715.08571,1283.2161 C 718.51031,1280.9331 735.63319,1268.3763 735.63319,1268.3763 C 735.63319,1268.3763 737.91623,1267.2348 735.63319,1264.9517 C 733.35014,1261.5271 728.78402,1253.5365 727.64249,1253.5365 C 726.50097,1253.5365 729.92554,1252.3949 726.50097,1255.8195"
       style="fill:#5f4343;fill-opacity:1;stroke:none;stroke-width:5;stroke-linejoin:round;stroke-miterlimit:4;stroke-dasharray:10, 5, 2.50000000000000000, 5;stroke-dashoffset:0;stroke-opacity:1" />
    <path
       id="path5225"
       d="M 736.77471,1221.5738 C 736.77471,1221.5738 733.35014,1237.5551 733.35014,1237.5551 C 733.35014,1237.5551 752.75606,1251.2534 752.75606,1251.2534 C 752.75606,1251.2534 755.0391,1252.3949 757.32215,1251.2534 C 758.46367,1250.1119 775.58654,1237.5551 775.58654,1237.5551 C 776.72807,1236.4136 775.58654,1235.2721 775.58654,1234.1305 C 774.44502,1232.989 769.87893,1223.8568 768.73741,1222.7153 C 768.73741,1223.8568 756.18063,1235.2721 752.75606,1234.1305 C 749.33149,1231.8475 736.77471,1221.5738 736.77471,1221.5738"
       style="fill:#5f4343;fill-opacity:1;stroke:none;stroke-width:5;stroke-linejoin:round;stroke-miterlimit:4;stroke-dasharray:10, 5, 2.50000000000000000, 5;stroke-dashoffset:0;stroke-opacity:1" />
    <path
       id="path5227"
       d="M 760.74672,1206.7339 C 760.74672,1206.7339 757.32215,1215.8662 757.32215,1215.8662 C 757.32215,1215.8662 768.73741,1222.7153 768.73741,1222.7153 C 768.73741,1222.7153 775.58654,1235.2721 775.58654,1234.1305 C 774.44502,1232.989 776.72807,1236.4136 779.01111,1235.2721 C 781.29419,1234.1305 796.13398,1222.7153 797.27554,1220.4322 C 798.41706,1219.2907 791.56789,1207.8755 790.42637,1206.7339 C 791.56789,1209.017 780.15263,1219.2907 776.72807,1218.1492 C 773.3035,1215.8662 760.74672,1206.7339 760.74672,1206.7339"
       style="fill:#5f4343;fill-opacity:1;stroke:none;stroke-width:5;stroke-linejoin:round;stroke-miterlimit:4;stroke-dasharray:10, 5, 2.50000000000000000, 5;stroke-dashoffset:0;stroke-opacity:1" />
    <path
       id="path5229"
       d="M 782.43571,1191.8941 C 782.43571,1191.8941 780.15263,1199.8848 780.15263,1199.8848 C 780.15263,1199.8848 790.42637,1206.7339 790.42637,1206.7339 C 790.42637,1206.7339 797.27554,1219.2907 797.27554,1219.2907 C 797.27554,1219.2907 798.41706,1220.4322 800.70011,1218.1492 C 802.98315,1217.0077 816.68146,1206.7339 816.68146,1206.7339 C 817.82298,1206.7339 817.82298,1204.4509 816.68146,1203.3094 C 816.68146,1201.0263 813.25689,1195.3187 812.11533,1193.0356 C 813.25689,1195.3187 800.70011,1203.3094 798.41706,1202.1678 C 797.27554,1201.0263 782.43571,1191.8941 782.43571,1191.8941"
       style="fill:#5f4343;fill-opacity:1;stroke:none;stroke-width:5;stroke-linejoin:round;stroke-miterlimit:4;stroke-dasharray:10, 5, 2.50000000000000000, 5;stroke-dashoffset:0;stroke-opacity:1" />
    <path
       id="path5231"
       d="M 802.98315,1177.0543 C 802.98315,1177.0543 800.70011,1185.045 800.70011,1185.045 C 800.70011,1185.045 812.11533,1193.0356 812.11533,1193.0356 C 812.11533,1193.0356 816.68146,1203.3094 816.68146,1203.3094 C 816.68146,1203.3094 818.9645,1204.4509 821.24755,1203.3094 C 822.38907,1202.1678 834.94585,1194.1772 836.08737,1191.8941 C 837.2289,1190.7526 832.6628,1181.6204 831.52128,1178.1958 C 831.52128,1180.4789 821.24755,1189.6111 817.82298,1187.328 C 814.39841,1185.045 802.98315,1177.0543 802.98315,1177.0543"
       style="fill:#5f4343;fill-opacity:1;stroke:none;stroke-width:5;stroke-linejoin:round;stroke-miterlimit:4;stroke-dasharray:10, 5, 2.50000000000000000, 5;stroke-dashoffset:0;stroke-opacity:1" />
    <path
       id="path5233"
       d="M 833.80433,1156.5068 C 833.80433,1156.5068 829.23824,1170.2052 829.23824,1170.2052 C 829.23824,1170.2052 847.50263,1180.4789 847.50263,1180.4789 C 847.50263,1180.4789 850.9272,1181.6204 853.21025,1180.4789 C 854.35177,1179.3373 864.6255,1171.3467 864.6255,1171.3467 C 864.6255,1171.3467 864.6255,1170.2052 864.6255,1169.0636 C 865.76703,1170.2052 865.76703,1169.0636 866.90855,1169.0636 C 868.05007,1169.0636 880.60685,1159.9314 880.60685,1159.9314 C 880.60685,1159.9314 880.60685,1158.7899 880.60685,1157.6484 C 880.60685,1158.7899 881.74838,1158.7899 882.8899,1157.6484 C 882.8899,1157.6484 894.30516,1149.6577 894.30516,1149.6577 C 894.30516,1149.6577 895.44668,1148.5162 894.30516,1147.3746 C 896.5882,1148.5162 896.5882,1148.5162 896.5882,1147.3746 C 897.72973,1147.3746 908.00343,1139.384 909.14495,1139.384 C 909.14495,1138.2425 909.14495,1137.1009 909.14495,1135.9594 C 908.00343,1135.9594 905.72038,1129.1102 904.57886,1126.8272 C 905.72038,1129.1102 898.87125,1134.8179 896.5882,1132.5348 C 893.1636,1131.3933 881.74838,1124.5441 881.74838,1124.5441 C 881.74838,1124.5441 880.60685,1130.2518 880.60685,1130.2518 C 880.60685,1130.2518 890.88056,1135.9594 890.88056,1135.9594 C 890.88056,1135.9594 892.02208,1138.2425 890.88056,1138.2425 C 889.73903,1139.384 885.17294,1145.0916 881.74838,1143.9501 C 879.46533,1142.8085 866.90855,1134.8179 866.90855,1134.8179 C 866.90855,1134.8179 865.76703,1140.5255 865.76703,1140.5255 C 865.76703,1140.5255 876.04073,1146.2331 876.04073,1146.2331 C 876.04073,1146.2331 877.18229,1148.5162 876.04073,1149.6577 C 874.89921,1150.7992 869.19159,1154.2238 869.19159,1154.2238 C 869.19159,1154.2238 866.90855,1155.3653 864.6255,1154.2238 C 863.48398,1153.0823 850.9272,1146.2331 850.9272,1145.0916 C 850.9272,1143.9501 848.64415,1151.9408 848.64415,1151.9408 C 848.64415,1151.9408 860.05938,1157.6484 860.05938,1157.6484 C 860.05938,1157.6484 861.20094,1158.7899 860.05938,1159.9314 C 858.91786,1161.0729 852.06872,1165.639 852.06872,1165.639 C 852.06872,1165.639 849.78568,1166.7806 847.50263,1165.639 C 845.21959,1163.356 833.80433,1156.5068 833.80433,1156.5068"
       style="fill:#5f4343;fill-opacity:1;stroke:none;stroke-width:5;stroke-linejoin:round;stroke-miterlimit:4;stroke-dasharray:10, 5, 2.50000000000000000, 5;stroke-dashoffset:0;stroke-opacity:1" />
    <path
       id="path5235"
       d="M 904.57886,1109.7043 C 904.57886,1109.7043 900.01277,1121.1196 900.01277,1121.1196 C 900.01277,1121.1196 917.13564,1129.1102 918.27717,1130.2518 C 918.27717,1130.2518 920.56021,1130.2518 921.70173,1130.2518 C 922.84326,1129.1102 929.69242,1124.5441 929.69242,1124.5441 C 929.69242,1124.5441 929.69242,1122.2611 929.69242,1122.2611 C 930.83395,1122.2611 930.83395,1122.2611 930.83395,1122.2611 C 930.83395,1122.2611 941.10765,1115.4119 941.10765,1115.4119 C 941.10765,1115.4119 941.10765,1114.2704 941.10765,1114.2704 C 942.24921,1114.2704 942.24921,1114.2704 943.39073,1114.2704 C 943.39073,1113.1289 952.52291,1107.4213 952.52291,1107.4213 C 952.52291,1107.4213 952.52291,1106.2798 952.52291,1106.2798 C 951.38139,1105.1382 953.66443,1107.4213 953.66443,1106.2798 C 954.80596,1106.2798 961.65512,1100.5721 962.79665,1100.5721 C 962.79665,1099.4306 960.5136,1090.2984 960.5136,1090.2984 C 960.5136,1089.1569 955.94748,1093.723 955.94748,1093.723 C 955.94748,1093.723 954.80596,1093.723 952.52291,1093.723 C 950.23986,1092.5814 941.10765,1086.8738 941.10765,1086.8738 C 941.10765,1086.8738 938.82461,1090.2984 938.82461,1090.2984 C 938.82461,1090.2984 950.23986,1096.006 950.23986,1096.006 C 950.23986,1096.006 951.38139,1097.1475 950.23986,1098.2891 C 949.09834,1099.4306 945.67377,1101.7136 945.67377,1101.7136 C 945.67377,1101.7136 943.39073,1101.7136 942.24921,1101.7136 C 941.10765,1100.5721 929.69242,1093.723 929.69242,1093.723 C 929.69242,1093.723 927.40938,1097.1475 927.40938,1097.1475 C 927.40938,1097.1475 938.82461,1103.9967 938.82461,1103.9967 C 938.82461,1103.9967 939.96613,1105.1382 938.82461,1106.2798 C 937.68308,1107.4213 934.25852,1109.7043 934.25852,1109.7043 C 934.25852,1109.7043 933.11699,1110.8458 930.83395,1109.7043 C 929.69242,1108.5628 917.13564,1101.7136 917.13564,1101.7136 C 917.13564,1101.7136 915.99412,1106.2798 915.99412,1106.2798 C 915.99412,1106.2798 926.26786,1110.8458 926.26786,1110.8458 C 926.26786,1110.8458 928.5509,1111.9874 926.26786,1113.1289 C 925.1263,1115.4119 921.70173,1117.695 921.70173,1117.695 C 921.70173,1117.695 920.56021,1118.8365 918.27717,1117.695 C 917.13564,1116.5535 904.57886,1109.7043 904.57886,1109.7043"
       style="fill:#5f4343;fill-opacity:1;stroke:none;stroke-width:5;stroke-linejoin:round;stroke-miterlimit:4;stroke-dasharray:10, 5, 2.50000000000000000, 5;stroke-dashoffset:0;stroke-opacity:1" />
    <path
       id="path5237"
       d="M 954.80596,1077.7416 C 954.80596,1077.7416 951.38139,1084.5908 951.38139,1084.5908 C 951.38139,1084.5908 960.5136,1089.1569 960.5136,1089.1569 C 960.5136,1089.1569 960.5136,1090.2984 960.5136,1090.2984 C 960.5136,1090.2984 961.65512,1092.5814 961.65512,1092.5814 C 961.65512,1092.5814 967.36274,1094.8645 966.22121,1094.8645 C 966.22121,1093.723 968.50426,1096.006 970.78731,1094.8645 C 971.92883,1093.723 975.35343,1090.2984 975.35343,1090.2984 C 975.35343,1090.2984 975.35343,1090.2984 975.35343,1089.1569 C 976.49495,1089.1569 977.63647,1089.1569 977.63647,1089.1569 C 978.778,1089.1569 984.48561,1084.5908 984.48561,1084.5908 C 984.48561,1084.5908 984.48561,1083.4492 984.48561,1082.3077 C 985.62713,1083.4492 986.76865,1083.4492 986.76865,1082.3077 C 986.76865,1082.3077 992.4763,1077.7416 992.4763,1077.7416 C 992.4763,1076.6001 992.4763,1068.6094 992.4763,1068.6094 C 992.4763,1068.6094 989.0517,1072.034 989.0517,1072.034 C 989.0517,1072.034 986.76865,1072.034 985.62713,1072.034 C 984.48561,1070.8925 974.21191,1065.1848 974.21191,1065.1848 C 974.21191,1065.1848 973.07035,1068.6094 973.07035,1068.6094 C 973.07035,1068.6094 982.20256,1073.1755 982.20256,1073.1755 C 982.20256,1073.1755 983.34409,1074.3171 982.20256,1075.4586 C 982.20256,1075.4586 978.778,1077.7416 978.778,1077.7416 C 978.778,1077.7416 978.778,1077.7416 976.49495,1077.7416 C 974.21191,1076.6001 965.07969,1070.8925 965.07969,1070.8925 C 965.07969,1070.8925 962.79665,1074.3171 962.79665,1074.3171 C 962.79665,1074.3171 973.07035,1078.8831 973.07035,1078.8831 C 973.07035,1078.8831 975.35343,1080.0247 974.21191,1081.1662 C 973.07035,1082.3077 970.78731,1083.4492 970.78731,1083.4492 C 970.78731,1083.4492 968.50426,1084.5908 967.36274,1083.4492 C 965.07969,1083.4492 954.80596,1077.7416 954.80596,1077.7416"
       style="fill:#5f4343;fill-opacity:1;stroke:none;stroke-width:5;stroke-linejoin:round;stroke-miterlimit:4;stroke-dasharray:10, 5, 2.50000000000000000, 5;stroke-dashoffset:0;stroke-opacity:1" />
    <path
       id="path5241"
       d="M 989.0625,1102.8438 C 989.0625,1103.9852 976.5,1115.4062 976.5,1115.4062 C 976.50002,1115.4063 974.20406,1116.5478 973.0625,1115.4062 C 970.77944,1113.1233 959.375,1107.4062 959.375,1107.4062 C 959.37501,1107.4063 957.09375,1112 957.09375,1112 C 957.09376,1112 968.5,1117.6875 968.5,1117.6875 C 968.49999,1117.6876 969.64152,1118.8271 968.5,1119.9688 C 968.49999,1121.1102 965.09375,1123.4062 965.09375,1123.4062 C 965.09373,1123.4063 963.92457,1124.5478 960.5,1123.4062 C 958.21695,1122.2648 946.8125,1116.5625 946.8125,1116.5625 C 946.81249,1116.5625 945.6875,1119.9688 945.6875,1119.9688 C 945.6875,1119.9687 957.09375,1125.6875 957.09375,1125.6875 C 957.09376,1125.6875 958.21875,1126.842 958.21875,1129.125 C 957.07722,1130.2666 952.53125,1132.5312 952.53125,1132.5312 C 952.53127,1132.5313 952.53305,1134.8144 950.25,1132.5312 C 947.96695,1131.3898 935.40625,1124.5312 935.40625,1124.5312 C 935.40627,1124.5313 933.125,1129.125 933.125,1129.125 C 933.12499,1129.125 944.53125,1135.9688 944.53125,1135.9688 C 944.53127,1135.9688 946.82903,1137.1084 945.6875,1138.25 C 943.40446,1140.5329 941.09375,1142.8125 941.09375,1142.8125 C 941.09373,1142.8125 939.97055,1143.9541 937.6875,1142.8125 C 934.26291,1141.671 922.84375,1134.8125 922.84375,1134.8125 C 922.84375,1134.8125 920.5625,1139.375 920.5625,1139.375 C 920.56253,1139.375 933.125,1145.0938 933.125,1145.0938 C 933.12499,1145.0938 934.26653,1147.3897 933.125,1148.5312 C 931.98347,1149.6727 927.40625,1153.0938 927.40625,1153.0938 C 927.40627,1153.0938 925.14152,1154.2352 924,1153.0938 C 922.85846,1151.9523 909.15625,1143.9375 909.15625,1143.9375 C 909.15624,1143.9375 906.875,1149.6562 906.875,1149.6562 C 906.87497,1149.6562 919.40625,1156.5 919.40625,1156.5 C 919.40624,1156.5 920.54777,1157.6398 919.40625,1158.7812 C 918.26472,1159.9227 914.84375,1163.3438 914.84375,1163.3438 C 914.84375,1163.3438 912.58085,1165.6267 909.15625,1163.3438 C 904.59015,1162.2023 894.3125,1155.375 894.3125,1155.375 C 894.31248,1155.3749 892.03125,1161.0625 892.03125,1161.0625 C 892.03124,1161.0625 904.59375,1167.9375 904.59375,1167.9375 C 904.59375,1167.9375 905.73527,1170.2023 904.59375,1171.3438 C 903.45223,1172.4853 900,1175.9062 900,1175.9062 C 900.00001,1175.9062 897.73707,1178.1892 894.3125,1175.9062 C 890.88788,1174.7646 878.3125,1166.7812 878.3125,1166.7812 C 878.31252,1166.7812 877.1875,1173.625 877.1875,1173.625 C 877.18748,1173.6249 888.59375,1180.4688 888.59375,1180.4688 C 888.59373,1180.4688 890.8768,1181.6232 888.59375,1183.9062 C 887.45221,1185.0478 882.875,1188.4688 882.875,1188.4688 C 882.87501,1188.4688 879.45585,1190.7519 876.03125,1188.4688 C 872.6067,1187.3273 862.34375,1179.3438 862.34375,1179.3438 C 862.34374,1179.3438 860.0625,1186.1875 860.0625,1186.1875 C 860.06249,1186.1875 871.46875,1194.1875 871.46875,1194.1875 C 871.46872,1194.1875 873.76653,1195.3273 872.625,1196.4688 C 871.48349,1198.7518 864.625,1203.3125 864.625,1203.3125 C 864.62501,1203.3125 862.33085,1205.5955 858.90625,1203.3125 C 855.48169,1201.0294 844.0625,1194.1875 844.0625,1194.1875 C 844.06253,1194.1875 841.78125,1201.0312 841.78125,1201.0312 C 841.78126,1201.0313 854.34375,1209.0312 854.34375,1209.0312 C 854.34377,1209.0313 855.48527,1210.1544 854.34375,1212.4375 C 852.06072,1213.5789 846.375,1219.2812 846.375,1219.2812 C 846.37503,1219.2813 844.08082,1221.5643 840.65625,1219.2812 C 838.37323,1218.1398 824.6875,1209.0312 824.6875,1209.0312 C 824.68749,1209.0313 822.375,1215.875 822.375,1215.875 C 822.37497,1215.875 833.8125,1223.8438 833.8125,1223.8438 C 833.81251,1223.8437 836.07902,1226.1397 834.9375,1227.2812 C 832.65444,1229.5643 825.8125,1235.2812 825.8125,1235.2812 C 825.81248,1235.2813 822.39152,1237.5643 821.25,1235.2812 C 818.96694,1234.1397 802.96875,1223.8438 802.96875,1223.8438 C 802.96875,1223.8437 800.6875,1231.8438 800.6875,1231.8438 C 800.68748,1231.8437 813.25,1239.8438 813.25,1239.8438 C 813.24999,1239.8437 815.53304,1242.1232 813.25,1244.4062 C 810.96691,1246.6893 802.96875,1253.5312 802.96875,1253.5312 C 802.96875,1253.5313 799.56429,1254.6728 797.28125,1253.5312 C 794.9982,1251.2482 781.28125,1240.9688 781.28125,1240.9688 C 781.28125,1240.9687 777.875,1251.25 777.875,1251.25 C 777.87502,1251.25 790.4375,1259.25 790.4375,1259.25 C 790.43748,1259.25 792.70582,1261.5294 789.28125,1263.8125 C 786.9982,1266.0955 780.15625,1271.8125 780.15625,1271.8125 C 780.15623,1271.8125 776.73707,1274.079 773.3125,1272.9375 C 771.02942,1270.6544 757.3125,1259.25 757.3125,1259.25 C 757.31251,1259.25 753.90625,1270.6562 753.90625,1270.6562 C 753.90625,1270.6562 764.15625,1278.6562 764.15625,1278.6562 C 764.15627,1278.6562 768.73707,1280.9192 765.3125,1284.3438 C 761.88787,1287.7684 752.75,1293.5 752.75,1293.5 C 752.75002,1293.5001 750.47237,1295.7683 745.90625,1292.3438 C 741.34019,1288.9192 731.0625,1279.7812 731.0625,1279.7812 C 731.06248,1279.7812 727.65625,1294.625 727.65625,1294.625 C 727.65622,1294.625 726.4982,1295.7648 728.78125,1296.9062 C 729.92279,1298.0477 749.34375,1312.9062 749.34375,1312.9062 C 749.34376,1312.9063 752.74821,1314.033 755.03125,1311.75 C 753.88971,1315.1745 755.04597,1315.171 756.1875,1316.3125 C 757.32905,1317.4541 777.875,1333.4375 777.875,1333.4375 C 777.87502,1333.4375 781.29598,1333.4392 782.4375,1331.1562 C 784.72053,1330.0147 781.27946,1334.5919 783.5625,1336.875 C 786.98709,1339.158 806.40625,1354 806.40625,1354 C 806.40626,1354 808.68387,1356.2701 813.25,1350.5625 C 810.96691,1356.2702 813.24821,1357.4044 815.53125,1359.6875 C 817.81431,1360.8291 837.21875,1375.6875 837.21875,1375.6875 C 837.21877,1375.6875 841.80888,1377.9742 846.375,1371.125 C 841.80891,1380.2572 845.23348,1380.2334 846.375,1381.375 C 847.51655,1381.375 869.20222,1397.375 870.34375,1397.375 C 870.34374,1398.5164 872.6232,1399.6581 874.90625,1397.375 C 877.18931,1395.0919 904.59375,1364.25 904.59375,1364.25 C 904.59375,1364.25 904.57902,1360.8456 903.4375,1358.5625 C 905.72056,1359.7042 906.85848,1359.7041 908,1358.5625 C 909.14153,1356.2796 922.84375,1339.1562 922.84375,1339.1562 C 922.84375,1339.1563 923.98527,1335.7353 922.84375,1334.5938 C 925.12679,1334.5937 926.27946,1336.8621 928.5625,1333.4375 C 930.84555,1330.0129 950.25,1307.1875 950.25,1307.1875 C 950.24999,1307.1875 951.39153,1303.7666 950.25,1302.625 C 952.53304,1303.7667 953.67097,1301.4688 954.8125,1301.4688 C 954.81249,1300.3273 1029,1207.875 1029,1207.875 C 1029,1207.875 1030.1415,1206.7205 1029,1204.4375 C 1030.1415,1205.579 1031.2959,1204.454 1032.4375,1203.3125 C 1033.579,1202.1709 1042.7188,1189.625 1042.7188,1189.625 C 1042.7188,1189.625 1043.8438,1188.454 1043.8438,1187.3125 C 1044.9853,1187.3125 1044.9834,1187.329 1046.125,1186.1875 C 1047.2664,1185.046 1051.8438,1179.3438 1051.8438,1179.3438 C 1051.8438,1179.3438 1052.9852,1178.1892 1051.8438,1175.9062 C 1054.1268,1175.9062 1054.1084,1175.9229 1055.25,1174.7812 C 1056.3914,1173.6397 1059.8125,1169.0625 1059.8125,1169.0625 C 1059.8125,1169.0625 1062.0955,1167.9081 1059.8125,1165.625 C 1062.0955,1166.7666 1063.2647,1164.4852 1064.4062,1163.3438 C 1064.4062,1163.3438 1071.25,1154.2188 1071.25,1154.2188 C 1071.25,1154.2188 1072.375,1153.0809 1072.375,1149.6562 C 1071.2334,1147.3731 1071.25,1143.9394 1071.25,1141.6562 C 1070.1085,1145.0809 1064.4062,1151.9375 1064.4062,1151.9375 C 1064.4062,1151.9375 1064.3934,1153.079 1060.9688,1151.9375 C 1058.6857,1151.9375 1047.2665,1148.5166 1046.125,1147.375 C 1046.1249,1146.2335 1050.6875,1141.6562 1050.6875,1141.6562 C 1050.6875,1141.6563 1050.6875,1134.8144 1050.6875,1132.5312 C 1049.5459,1134.8144 1032.4375,1153.0938 1032.4375,1153.0938 C 1032.4375,1153.0938 1031.2995,1154.2352 1027.875,1153.0938 C 1025.5919,1151.9523 1014.1562,1149.6562 1014.1562,1149.6562 C 1014.1563,1149.6562 1013.0146,1148.5312 1014.1562,1148.5312 C 1014.1563,1147.3896 1030.1562,1131.4062 1030.1562,1131.4062 C 1030.1562,1131.4062 1029,1125.6894 1029,1123.4062 C 1029,1125.6894 1014.1562,1138.25 1014.1562,1138.25 C 1014.1563,1138.2499 1013.033,1140.5165 1010.75,1139.375 C 1008.4669,1138.2335 998.1875,1134.8125 998.1875,1134.8125 C 998.18751,1134.8125 997.04598,1133.6728 998.1875,1132.5312 C 999.32904,1130.2483 1010.75,1121.125 1010.75,1121.125 C 1010.75,1121.125 1009.6104,1115.4227 1008.4688,1114.2812 C 1008.4688,1116.5644 1001.5938,1122.25 1001.5938,1122.25 C 1001.5937,1122.25 1000.4706,1122.25 998.1875,1122.25 C 995.90447,1121.1085 985.625,1116.5625 985.625,1116.5625 C 985.62499,1116.5625 983.34196,1115.4227 985.625,1114.2812 C 986.76651,1113.1398 990.1875,1110.8438 990.1875,1110.8438 C 990.18751,1110.8437 989.0625,1105.1268 989.0625,1102.8438 z M 980.21875,1118.3125 C 981.21702,1118.3314 982.1875,1118.8438 982.1875,1118.8438 C 982.18748,1118.8436 990.1857,1122.2482 992.46875,1124.5312 C 994.75178,1125.673 994.75,1126.8125 994.75,1126.8125 C 994.75001,1126.8126 992.47055,1129.1084 990.1875,1130.25 C 989.04596,1131.3915 986.78125,1130.25 986.78125,1130.25 C 986.78122,1130.25 976.50179,1125.6728 974.21875,1124.5312 C 973.07719,1124.5314 974.21875,1122.25 974.21875,1122.25 C 974.21875,1122.25 977.63972,1121.1269 978.78125,1118.8438 C 979.06663,1118.5583 979.40669,1118.3973 979.78125,1118.3438 C 979.92171,1118.3237 980.07614,1118.3098 980.21875,1118.3125 z M 969.65625,1127.4688 C 969.79887,1127.4569 969.95162,1127.4604 970.09375,1127.4688 C 971.0413,1127.5244 971.9375,1127.9688 971.9375,1127.9688 C 971.9375,1127.9686 982.20222,1132.546 983.34375,1133.6875 C 984.48524,1134.8291 984.5,1135.9688 984.5,1135.9688 C 984.50001,1135.9688 981.04777,1138.2483 979.90625,1140.5312 C 978.76476,1141.6728 976.5,1140.5312 976.5,1140.5312 C 976.50002,1140.5312 965.07902,1134.8125 963.9375,1134.8125 C 961.65445,1133.6709 963.9375,1131.4062 963.9375,1131.4062 C 963.9375,1131.4062 966.21695,1129.1103 968.5,1127.9688 C 968.82105,1127.6477 969.22839,1127.5043 969.65625,1127.4688 z M 958.25,1136.5938 C 958.39262,1136.5819 958.54537,1136.5854 958.6875,1136.5938 C 959.63506,1136.6494 960.5,1137.0938 960.5,1137.0938 C 960.49999,1137.0936 970.79598,1141.671 971.9375,1142.8125 C 974.22058,1143.9541 973.0625,1145.0938 973.0625,1145.0938 C 973.06248,1145.0938 969.64152,1148.5148 968.5,1149.6562 C 967.35847,1151.9394 965.09375,1149.6562 965.09375,1149.6562 C 965.09373,1149.6562 952.51652,1143.9375 951.375,1143.9375 C 950.23345,1142.7959 951.375,1141.6562 951.375,1141.6562 C 951.37498,1141.6564 954.81071,1138.2354 957.09375,1137.0938 C 957.41482,1136.7727 957.82214,1136.6293 958.25,1136.5938 z M 993.21875,1136.5938 C 993.41487,1136.5819 993.59731,1136.5854 993.78125,1136.5938 C 995.0075,1136.6494 995.90625,1137.0938 995.90625,1137.0938 C 995.90624,1137.0936 1003.8879,1140.5148 1007.3125,1141.6562 C 1010.7371,1142.7979 1008.4687,1145.0938 1008.4688,1145.0938 C 1008.4688,1145.0938 1006.1895,1147.3897 1003.9062,1148.5312 C 1002.7649,1149.6728 1000.4687,1148.5312 1000.4688,1148.5312 C 1000.4688,1148.5312 991.34558,1145.079 989.0625,1143.9375 C 985.63793,1142.7959 987.90625,1140.5312 987.90625,1140.5312 C 987.90627,1140.5312 990.20222,1139.3769 991.34375,1137.0938 C 991.98586,1136.7727 992.6304,1136.6293 993.21875,1136.5938 z M 984.5,1146.2188 C 984.50001,1146.2186 994.74821,1149.6544 997.03125,1151.9375 C 999.31427,1153.079 998.1875,1154.2188 998.1875,1154.2188 C 998.18751,1154.2188 997.03304,1156.5147 994.75,1157.6562 C 992.46696,1159.9393 990.1875,1158.7812 990.1875,1158.7812 C 990.18751,1158.7812 978.78305,1154.2352 976.5,1153.0938 C 974.21698,1151.9522 976.5,1150.8125 976.5,1150.8125 C 976.50002,1150.8125 978.77946,1148.5166 981.0625,1147.375 C 982.20402,1146.2335 984.5,1146.2188 984.5,1146.2188 z M 945.6875,1146.875 C 945.83012,1146.8631 945.98287,1146.8666 946.125,1146.875 C 947.07255,1146.9307 947.96875,1147.375 947.96875,1147.375 C 947.96872,1147.375 958.21696,1151.9523 960.5,1153.0938 C 962.78304,1154.2352 961.65625,1155.375 961.65625,1155.375 C 961.65628,1155.3749 958.23531,1159.921 957.09375,1161.0625 C 954.81072,1162.2041 952.53125,1161.0625 952.53125,1161.0625 C 952.53127,1161.0625 941.09554,1155.3602 938.8125,1154.2188 C 937.671,1154.2188 938.8125,1151.9375 938.8125,1151.9375 C 938.81253,1151.9375 943.38973,1148.5166 944.53125,1147.375 C 944.85231,1147.0539 945.25964,1146.9106 945.6875,1146.875 z M 1042.9375,1151.4375 C 1043.1218,1151.4256 1043.3077,1151.4291 1043.5,1151.4375 C 1044.782,1151.4932 1046.125,1151.9375 1046.125,1151.9375 C 1046.1249,1151.9375 1056.4045,1155.375 1058.6875,1155.375 C 1059.8291,1155.3749 1059.8125,1157.6562 1059.8125,1157.6562 C 1059.8125,1157.6562 1058.6893,1159.9356 1056.4062,1162.2188 C 1055.2648,1163.3602 1052.9688,1162.2188 1052.9688,1162.2188 C 1052.9688,1162.2188 1042.7059,1158.7977 1039.2812,1157.6562 C 1036.9982,1157.6562 1038.125,1155.375 1038.125,1155.375 C 1038.125,1155.3749 1040.4209,1154.2205 1041.5625,1151.9375 C 1041.8836,1151.6164 1042.3847,1151.4731 1042.9375,1151.4375 z M 1011.0312,1152.8125 C 1011.602,1152.8125 1011.875,1153.0938 1011.875,1153.0938 C 1011.875,1153.0938 1022.1545,1156.5147 1024.4375,1157.6562 C 1026.7205,1157.6562 1026.7188,1159.9375 1026.7188,1159.9375 C 1026.7186,1159.9375 1024.4394,1162.2023 1022.1562,1163.3438 C 1019.8732,1165.6267 1017.5937,1163.3438 1017.5938,1163.3438 C 1017.5938,1163.3438 1006.173,1159.9375 1005.0312,1159.9375 C 1002.7482,1158.796 1003.9063,1157.6562 1003.9062,1157.6562 C 1003.9063,1157.6562 1006.1857,1155.3602 1008.4688,1154.2188 C 1009.6103,1153.0772 1010.4606,1152.8125 1011.0312,1152.8125 z M 970.9375,1156.625 C 971.98288,1156.5576 973.0625,1157.6562 973.0625,1157.6562 C 973.06248,1157.6562 984.49821,1162.2188 986.78125,1162.2188 C 989.06427,1163.3602 986.78125,1165.625 986.78125,1165.625 C 986.78122,1165.625 984.47055,1169.0771 982.1875,1170.2188 C 981.04596,1171.3601 978.78125,1170.2188 978.78125,1170.2188 C 978.78123,1170.2186 967.3768,1165.6415 965.09375,1164.5 C 962.81069,1163.3584 965.09375,1162.2188 965.09375,1162.2188 C 965.09373,1162.2188 967.37321,1158.7977 969.65625,1157.6562 C 970.01299,1156.9429 970.46233,1156.6557 970.9375,1156.625 z M 932.78125,1157.125 C 933.76064,1157.1439 934.25,1157.6562 934.25,1157.6562 C 934.24998,1157.6562 945.6857,1162.2023 947.96875,1163.3438 C 950.25176,1164.4852 949.09375,1166.7812 949.09375,1166.7812 C 949.09376,1166.7812 945.68929,1170.2023 943.40625,1171.3438 C 942.26471,1173.6267 938.8125,1171.3438 938.8125,1171.3438 C 938.81253,1171.3438 927.40808,1166.7666 925.125,1165.625 C 922.84198,1164.4835 925.125,1162.2188 925.125,1162.2188 C 925.12502,1162.2188 928.5607,1159.9392 930.84375,1157.6562 C 931.41452,1157.3709 931.91568,1157.2098 932.34375,1157.1562 C 932.50428,1157.1362 932.64134,1157.1223 932.78125,1157.125 z M 1035.0312,1161.6875 C 1036.0295,1161.7064 1037,1162.2188 1037,1162.2188 C 1037,1162.2188 1047.2795,1164.4835 1049.5625,1165.625 C 1051.8456,1166.7666 1050.6875,1169.0625 1050.6875,1169.0625 C 1050.6875,1169.0625 1049.5477,1170.217 1048.4062,1172.5 C 1047.2648,1173.6415 1043.8438,1173.625 1043.8438,1173.625 C 1043.8438,1173.6249 1032.4393,1169.0625 1030.1562,1169.0625 C 1027.8733,1167.921 1030.1562,1166.7812 1030.1562,1166.7812 C 1030.1562,1166.7812 1032.421,1163.3602 1033.5625,1162.2188 C 1033.8479,1161.9333 1034.2192,1161.7723 1034.5938,1161.7188 C 1034.7342,1161.6987 1034.8886,1161.6848 1035.0312,1161.6875 z M 999.84375,1162.8438 C 999.99823,1162.8319 1000.1475,1162.8354 1000.2812,1162.8438 C 1001.1731,1162.8994 1001.5937,1163.3438 1001.5938,1163.3438 C 1001.5937,1163.3438 1010.7317,1165.6396 1014.1562,1166.7812 C 1017.5808,1167.9228 1016.4375,1170.2188 1016.4375,1170.2188 C 1016.4375,1170.2186 1014.1581,1171.342 1011.875,1173.625 C 1010.7335,1175.908 1007.3125,1174.7812 1007.3125,1174.7812 C 1007.3125,1174.7812 997.03304,1171.3438 994.75,1171.3438 C 991.32544,1170.2022 994.75,1167.9375 994.75,1167.9375 C 994.75001,1167.9375 995.90446,1165.6267 998.1875,1163.3438 C 998.82962,1163.0227 999.38032,1162.8793 999.84375,1162.8438 z M 960.21875,1167.625 C 961.07489,1167.625 961.65625,1167.9375 961.65625,1167.9375 C 961.65628,1167.9375 971.93567,1172.4835 974.21875,1173.625 C 977.64331,1174.7664 975.34375,1177.0625 975.34375,1177.0625 C 975.34373,1177.0625 973.06429,1179.3419 970.78125,1181.625 C 968.49822,1182.7665 966.21875,1181.625 966.21875,1181.625 C 966.21877,1181.625 953.67277,1175.9062 952.53125,1175.9062 C 950.24822,1174.7647 952.53125,1172.5 952.53125,1172.5 C 952.53127,1172.5 954.81071,1171.3456 957.09375,1169.0625 C 958.2353,1167.921 959.36261,1167.625 960.21875,1167.625 z M 919.03125,1168.5625 C 919.2303,1168.5506 919.40981,1168.5541 919.59375,1168.5625 C 920.81999,1168.6182 921.6875,1169.0625 921.6875,1169.0625 C 921.68751,1169.0625 933.10847,1174.7646 934.25,1175.9062 C 936.53302,1177.0478 935.40625,1179.3438 935.40625,1179.3438 C 935.40627,1179.3438 930.82903,1182.7481 929.6875,1185.0312 C 927.40444,1186.1728 925.125,1185.0312 925.125,1185.0312 C 925.12502,1185.0312 913.72055,1179.3455 911.4375,1177.0625 C 909.15441,1175.921 911.4375,1174.7812 911.4375,1174.7812 C 911.43749,1174.7812 915.98348,1171.3456 917.125,1169.0625 C 917.76711,1168.7414 918.43411,1168.5981 919.03125,1168.5625 z M 1026,1172.1875 C 1026.9988,1172.1875 1027.875,1172.5 1027.875,1172.5 C 1027.875,1172.5 1038.1233,1174.7646 1040.4062,1175.9062 C 1043.831,1177.0478 1042.7188,1179.3438 1042.7188,1179.3438 C 1042.7188,1179.3438 1035.8455,1186.1858 1033.5625,1188.4688 C 1031.2794,1191.8933 1029,1189.625 1029,1189.625 C 1029,1189.625 1018.7371,1186.1727 1015.3125,1185.0312 C 1013.0294,1185.0312 1014.1563,1182.75 1014.1562,1182.75 C 1014.1563,1182.7501 1021.0294,1175.9081 1023.3125,1173.625 C 1023.8833,1172.4835 1025.0012,1172.1875 1026,1172.1875 z M 989.34375,1173.3438 C 989.91452,1173.3438 990.1875,1173.625 990.1875,1173.625 C 990.18751,1173.6249 1002.7649,1178.2023 1003.9062,1179.3438 C 1006.1894,1179.3438 1005.0313,1181.625 1005.0312,1181.625 C 1005.0312,1181.625 1002.7517,1185.046 1000.4688,1186.1875 C 999.32716,1188.4705 995.90625,1186.1875 995.90625,1186.1875 C 995.90624,1186.1875 985.61207,1182.75 982.1875,1182.75 C 979.90444,1181.6086 982.1875,1179.3438 982.1875,1179.3438 C 982.18748,1179.3438 984.49821,1177.0644 986.78125,1174.7812 C 987.92276,1173.6398 988.77298,1173.3437 989.34375,1173.3438 z M 945.90625,1179.9688 C 946.0905,1179.9569 946.27645,1179.9604 946.46875,1179.9688 C 947.75073,1180.0244 949.09375,1180.4688 949.09375,1180.4688 C 949.09376,1180.4688 960.4982,1185.046 962.78125,1186.1875 C 965.06431,1187.329 962.78125,1189.625 962.78125,1189.625 C 962.78127,1189.625 959.36027,1193.0294 958.21875,1195.3125 C 955.9357,1196.454 953.65625,1195.3125 953.65625,1195.3125 C 953.65625,1195.3125 941.09554,1189.6104 938.8125,1188.4688 C 936.52948,1187.3272 938.8125,1185.0312 938.8125,1185.0312 C 938.81253,1185.0312 942.24821,1182.7517 944.53125,1180.4688 C 944.85231,1180.1477 945.35349,1180.0043 945.90625,1179.9688 z M 904.375,1180.5938 C 905.79131,1180.5262 906.875,1181.625 906.875,1181.625 C 906.87497,1181.625 918.27946,1187.3273 920.5625,1188.4688 C 922.84558,1189.6103 920.5625,1191.9062 920.5625,1191.9062 C 920.56253,1191.9064 918.26832,1195.3108 914.84375,1197.5938 C 912.5607,1199.8768 909.15625,1197.5938 909.15625,1197.5938 C 909.15624,1197.5938 898.8768,1191.8915 896.59375,1190.75 C 893.16915,1188.4669 895.4375,1187.3125 895.4375,1187.3125 C 895.43752,1187.3125 898.85668,1183.9081 902.28125,1181.625 C 902.99469,1180.9115 903.73122,1180.6244 904.375,1180.5938 z M 976.5625,1186.3125 C 978.31603,1186.2451 979.90625,1187.3125 979.90625,1187.3125 C 979.90628,1187.3125 990.1857,1189.6085 992.46875,1190.75 C 994.75178,1193.033 993.625,1195.3125 993.625,1195.3125 C 993.62502,1195.3125 991.34558,1197.5919 989.0625,1199.875 C 986.77945,1201.0165 983.34375,1199.875 983.34375,1199.875 C 983.34372,1199.875 973.06429,1196.454 970.78125,1195.3125 C 967.3567,1194.171 969.65625,1191.9062 969.65625,1191.9062 C 969.65628,1191.9064 973.07719,1189.5956 974.21875,1187.3125 C 974.9322,1186.5991 975.76544,1186.3432 976.5625,1186.3125 z M 1010.75,1188.4688 C 1011.8915,1188.4688 1025.5773,1190.7612 1026.7188,1196.4688 C 1029.0017,1203.3178 966.22775,1278.6362 954.8125,1284.3438 C 951.38792,1286.6268 949.09375,1284.3438 949.09375,1284.3438 C 949.09376,1284.3438 937.67456,1279.7831 934.25,1277.5 C 929.68388,1276.3585 933.125,1272.9375 933.125,1272.9375 C 933.12499,1272.9375 1005.0459,1193.0477 1006.1875,1191.9062 C 1007.329,1190.7649 1008.4669,1188.4688 1010.75,1188.4688 z M 931.5625,1192.5312 C 931.75862,1192.5194 931.94106,1192.5229 932.125,1192.5312 C 933.35125,1192.5871 934.25,1193.0312 934.25,1193.0312 C 934.24998,1193.0312 945.66918,1197.6084 949.09375,1198.75 C 951.37681,1201.033 950.25,1202.1562 950.25,1202.1562 C 950.24999,1202.1562 945.68929,1206.7481 943.40625,1209.0312 C 942.26471,1210.1729 938.8125,1209.0312 938.8125,1209.0312 C 938.81253,1209.0314 925.14152,1202.1562 924,1202.1562 C 921.71693,1201.0148 924,1198.75 924,1198.75 C 923.99998,1198.75 927.40446,1195.3144 929.6875,1193.0312 C 930.3296,1192.7103 930.97414,1192.5668 931.5625,1192.5312 z M 887.875,1194.3125 C 889.25759,1194.2451 890.875,1195.3125 890.875,1195.3125 C 890.87501,1195.3125 901.15445,1199.8733 903.4375,1202.1562 C 906.86209,1203.2979 905.71875,1205.5938 905.71875,1205.5938 C 905.71873,1205.5936 901.15804,1210.1544 898.875,1212.4375 C 896.59192,1214.7204 893.15625,1212.4375 893.15625,1212.4375 C 893.15628,1212.4374 881.73707,1205.579 878.3125,1204.4375 C 876.02944,1203.296 878.3125,1201.0312 878.3125,1201.0312 C 878.31252,1201.0314 884.02945,1197.5955 886.3125,1195.3125 C 886.66923,1194.599 887.24655,1194.3432 887.875,1194.3125 z M 963.71875,1198.875 C 965.13506,1198.8076 966.21875,1199.875 966.21875,1199.875 C 966.21877,1199.875 977.63793,1203.296 981.0625,1204.4375 C 983.34555,1205.579 982.1875,1207.875 982.1875,1207.875 C 982.18748,1207.875 977.64152,1212.4523 976.5,1213.5938 C 974.21698,1214.7351 970.78125,1213.5938 970.78125,1213.5938 C 970.78127,1213.5936 960.51835,1210.1727 957.09375,1209.0312 C 953.66919,1207.8899 955.9375,1205.5938 955.9375,1205.5938 C 955.93747,1205.5936 960.51473,1202.158 961.65625,1199.875 C 962.36971,1199.1615 963.07497,1198.9057 963.71875,1198.875 z M 916.9375,1205.7188 C 918.35381,1205.6512 919.40625,1206.7188 919.40625,1206.7188 C 919.40624,1206.7188 931.96695,1212.4375 934.25,1212.4375 C 936.53302,1213.5789 934.25,1217 934.25,1217 C 934.24998,1217 929.70402,1221.5772 928.5625,1222.7188 C 926.27946,1225.0016 922.84375,1223.8438 922.84375,1223.8438 C 922.84375,1223.8436 911.4246,1218.158 908,1215.875 C 904.57544,1214.7334 908,1212.4375 908,1212.4375 C 908.00001,1212.4374 912.5607,1209.0019 914.84375,1206.7188 C 915.5572,1206.0052 916.29372,1205.7494 916.9375,1205.7188 z M 870.75,1208 C 872.13259,1207.9326 873.75,1209.0312 873.75,1209.0312 C 873.75,1209.0314 886.31071,1215.8585 888.59375,1217 C 889.73525,1218.1415 888.59375,1220.4375 888.59375,1220.4375 C 888.59373,1220.4374 882.8768,1226.1397 880.59375,1227.2812 C 878.31069,1229.5644 876.03125,1228.4375 876.03125,1228.4375 C 876.03127,1228.4375 862.32902,1220.4227 861.1875,1219.2812 C 858.90443,1218.1399 861.1875,1215.875 861.1875,1215.875 C 861.18751,1215.875 866.90446,1211.3142 869.1875,1209.0312 C 869.54423,1208.3179 870.12155,1208.0307 870.75,1208 z M 950.5625,1213.0625 C 951.56077,1213.0814 952.53125,1213.5938 952.53125,1213.5938 C 952.53127,1213.5936 966.21695,1218.1398 968.5,1219.2812 C 970.78304,1220.4229 968.5,1222.7188 968.5,1222.7188 C 968.49999,1222.7186 965.06429,1226.1545 962.78125,1228.4375 C 960.49822,1230.7205 958.21875,1229.5625 958.21875,1229.5625 C 958.21878,1229.5624 944.53304,1223.8602 942.25,1222.7188 C 939.96692,1221.5771 942.25,1220.4375 942.25,1220.4375 C 942.25,1220.4374 946.81071,1215.8768 949.09375,1213.5938 C 949.37913,1213.3083 949.75044,1213.1473 950.125,1213.0938 C 950.26546,1213.0737 950.41989,1213.0598 950.5625,1213.0625 z M 901.21875,1220.5625 C 902.97228,1220.4951 904.59375,1221.5625 904.59375,1221.5625 C 904.59375,1221.5624 915.9982,1227.296 918.28125,1228.4375 C 920.5643,1230.7205 918.28125,1233 918.28125,1233 C 918.28126,1233 913.70403,1237.5607 912.5625,1239.8438 C 910.27943,1240.9851 906.875,1239.8438 906.875,1239.8438 C 906.87497,1239.8436 893.15804,1232.9852 890.875,1231.8438 C 888.59196,1229.5605 892.03125,1228.4375 892.03125,1228.4375 C 892.03124,1228.4375 896.59195,1223.8455 898.875,1221.5625 C 899.58844,1220.849 900.42169,1220.5932 901.21875,1220.5625 z M 853.09375,1223.5312 C 853.50677,1223.5421 853.91568,1223.6297 854.34375,1223.8438 C 857.76834,1226.1267 869.1875,1233 869.1875,1233 C 869.1875,1233 871.48527,1234.1231 870.34375,1236.4062 C 868.06069,1238.6894 862.34375,1243.25 862.34375,1243.25 C 862.34374,1243.25 861.19113,1246.6893 856.625,1244.4062 C 853.20042,1243.2648 840.65625,1235.2812 840.65625,1235.2812 C 840.65627,1235.2814 839.51473,1234.1267 840.65625,1231.8438 C 842.93932,1230.702 849.78125,1225 849.78125,1225 C 849.78123,1225 851.30399,1223.4842 853.09375,1223.5312 z M 935.5625,1228.0625 C 936.26703,1228.0291 936.97405,1228.1521 937.6875,1228.4375 C 945.67816,1231.8621 954.79778,1234.1231 953.65625,1236.4062 C 952.51473,1238.6894 946.81609,1247.8143 942.25,1245.5312 C 941.10844,1245.5314 922.84196,1239.8308 925.125,1236.4062 C 926.12388,1235.4076 930.63077,1228.2966 935.5625,1228.0625 z M 882.9375,1236.5312 C 884.69103,1236.4639 886.3125,1237.5625 886.3125,1237.5625 C 886.31252,1237.5625 897.73169,1243.2647 901.15625,1244.4062 C 903.43929,1245.5479 901.15625,1248.9688 901.15625,1248.9688 C 901.15624,1248.9686 896.59554,1254.671 894.3125,1255.8125 C 892.0294,1258.0956 888.59375,1256.9688 888.59375,1256.9688 C 888.59373,1256.9686 874.90805,1250.1103 872.625,1248.9688 C 870.34197,1247.8271 872.625,1244.4062 872.625,1244.4062 C 872.62501,1244.4064 878.31071,1239.8456 880.59375,1237.5625 C 881.3072,1236.8491 882.14044,1236.5619 882.9375,1236.5312 z M 831.9375,1241.125 C 833.32009,1241.0576 834.9375,1242.125 834.9375,1242.125 C 834.93749,1242.125 848.65445,1248.967 850.9375,1251.25 C 852.07903,1252.3915 849.78125,1254.6875 849.78125,1254.6875 C 849.78122,1254.6875 842.9393,1261.5148 840.65625,1262.6562 C 838.37323,1264.9395 834.9375,1262.6562 834.9375,1262.6562 C 834.93749,1262.6564 823.51832,1255.8143 820.09375,1253.5312 C 816.66919,1251.2483 820.09375,1248.9688 820.09375,1248.9688 C 820.09375,1248.9686 828.09192,1243.2665 830.375,1242.125 C 830.73172,1241.4116 831.30905,1241.1557 831.9375,1241.125 z M 919.84375,1244.125 C 920.84258,1244.125 921.6875,1244.4062 921.6875,1244.4062 C 921.68751,1244.4064 935.40446,1250.1085 937.6875,1251.25 C 938.829,1252.3915 938.8125,1255.8125 938.8125,1255.8125 C 938.81253,1255.8125 933.12679,1261.5148 930.84375,1262.6562 C 929.70225,1264.9395 925.125,1262.6562 925.125,1262.6562 C 925.12502,1262.6564 911.43933,1256.954 909.15625,1255.8125 C 906.8732,1254.671 909.15625,1253.5312 909.15625,1253.5312 C 909.15624,1253.5314 914.84196,1247.8143 917.125,1245.5312 C 917.69577,1244.3898 918.84492,1244.125 919.84375,1244.125 z M 864.03125,1253.6562 C 865.8185,1253.5889 866.90625,1254.6875 866.90625,1254.6875 C 866.90623,1254.6875 880.59195,1261.5148 882.875,1262.6562 C 885.15805,1263.798 882.875,1267.25 882.875,1267.25 C 882.87501,1267.2501 877.18933,1272.9357 874.90625,1275.2188 C 872.62318,1277.5018 869.1875,1276.375 869.1875,1276.375 C 869.1875,1276.3751 855.50179,1268.3915 853.21875,1267.25 C 849.79416,1264.967 853.21875,1262.6562 853.21875,1262.6562 C 853.21873,1262.6564 858.90442,1258.1121 861.1875,1254.6875 C 862.25768,1253.974 863.21886,1253.6869 864.03125,1253.6562 z M 810.75,1258.2188 C 812.16633,1258.1512 813.25,1259.25 813.25,1259.25 C 813.24999,1259.25 826.96692,1267.2335 829.25,1268.375 C 830.39154,1270.658 829.25,1272.9375 829.25,1272.9375 C 829.25002,1272.9375 820.09554,1280.921 817.8125,1282.0625 C 815.52943,1284.3455 813.25,1282.0625 813.25,1282.0625 C 813.24999,1282.0625 798.42277,1272.954 797.28125,1271.8125 C 794.9982,1270.6709 797.28125,1268.375 797.28125,1268.375 C 797.28128,1268.375 806.40446,1261.533 808.6875,1259.25 C 809.40096,1258.5365 810.10622,1258.2494 810.75,1258.2188 z M 900.96875,1262.1562 C 901.20943,1262.1444 901.4534,1262.1479 901.6875,1262.1562 C 903.24818,1262.2121 904.59375,1262.6562 904.59375,1262.6562 C 904.59375,1262.6564 917.1232,1268.3897 919.40625,1269.5312 C 922.83081,1270.6728 921.6875,1272.9375 921.6875,1272.9375 C 921.68751,1272.9375 917.12679,1277.5129 914.84375,1280.9375 C 911.41918,1284.362 906.875,1282.0625 906.875,1282.0625 C 906.87497,1282.0625 894.2996,1276.3603 890.875,1275.2188 C 888.59196,1274.0772 890.875,1270.6562 890.875,1270.6562 C 890.87501,1270.6562 896.59195,1264.9394 898.875,1262.6562 C 899.5171,1262.3353 900.24671,1262.1918 900.96875,1262.1562 z M 844.125,1273.0625 C 845.87854,1272.9951 847.5,1274.0938 847.5,1274.0938 C 847.50001,1274.0938 861.20223,1280.9357 862.34375,1283.2188 C 864.62678,1284.3602 863.46875,1286.6562 863.46875,1286.6562 C 863.46872,1286.6562 854.36027,1294.6397 853.21875,1295.7812 C 850.93568,1298.0643 848.65625,1295.7812 848.65625,1295.7812 C 848.65623,1295.7812 832.65804,1287.7978 830.375,1286.6562 C 828.09192,1284.3732 831.53125,1283.2188 831.53125,1283.2188 C 831.53123,1283.2188 838.35668,1276.3768 841.78125,1274.0938 C 842.4947,1273.3802 843.32794,1273.0932 844.125,1273.0625 z M 787.3125,1278.125 C 788.31077,1278.1439 789.28125,1278.6562 789.28125,1278.6562 C 789.28125,1278.6562 802.9982,1287.796 805.28125,1288.9375 C 808.70584,1291.2206 805.28125,1293.5 805.28125,1293.5 C 805.28128,1293.5001 785.86207,1311.763 782.4375,1315.1875 C 779.01288,1318.6121 775.59375,1315.1875 775.59375,1315.1875 C 775.59374,1315.1875 760.73528,1306.033 759.59375,1303.75 C 757.31074,1302.6085 759.59375,1300.3438 759.59375,1300.3438 C 759.59378,1300.3438 784.73348,1279.7978 785.875,1278.6562 C 786.16038,1278.3709 786.50044,1278.2098 786.875,1278.1562 C 787.01546,1278.1362 787.16989,1278.1223 787.3125,1278.125 z M 883.1875,1280.6562 C 884.32902,1280.6562 885.1875,1280.9375 885.1875,1280.9375 C 885.18753,1280.9375 896.57543,1286.6397 900,1287.7812 C 904.5661,1290.0644 902.28125,1292.3438 902.28125,1292.3438 C 902.28123,1292.3438 895.43933,1300.342 893.15625,1302.625 C 892.01476,1304.9082 887.46875,1302.625 887.46875,1302.625 C 887.46875,1302.6251 873.76832,1295.7666 870.34375,1294.625 C 866.91917,1293.4835 870.34375,1290.0625 870.34375,1290.0625 C 870.34374,1290.0625 877.18571,1284.3455 879.46875,1282.0625 C 880.61027,1280.921 882.04598,1280.6563 883.1875,1280.6562 z M 926.5625,1284.0625 C 927.70403,1284.0625 928.5625,1284.3438 928.5625,1284.3438 C 928.5625,1284.3438 939.96513,1290.0607 944.53125,1292.3438 C 947.95584,1294.6267 945.6875,1296.9062 945.6875,1296.9062 C 945.6875,1296.9062 931.97055,1314.046 929.6875,1315.1875 C 927.40444,1317.4706 922.84375,1316.3125 922.84375,1316.3125 C 922.84375,1316.3125 911.44112,1311.7519 906.875,1309.4688 C 902.30888,1308.3272 906.875,1303.75 906.875,1303.75 C 906.87497,1303.7501 920.5607,1287.783 922.84375,1285.5 C 923.98527,1284.3585 925.42097,1284.0625 926.5625,1284.0625 z M 821.8125,1293.625 C 823.59976,1293.5575 824.6875,1294.625 824.6875,1294.625 C 824.68749,1294.625 839.4982,1303.7648 841.78125,1304.9062 C 844.0643,1307.1893 841.78125,1308.3438 841.78125,1308.3438 C 841.78126,1308.3436 814.40808,1333.4356 812.125,1335.7188 C 808.7004,1338.0016 805.28125,1336.875 805.28125,1336.875 C 805.28128,1336.875 790.4393,1327.7206 788.15625,1325.4375 C 785.87322,1323.1545 789.28125,1319.75 789.28125,1319.75 C 789.28125,1319.75 815.54418,1298.0496 818.96875,1294.625 C 820.03894,1293.9115 821.00011,1293.6557 821.8125,1293.625 z M 862.65625,1301.875 C 863.89783,1301.8976 864.625,1302.625 864.625,1302.625 C 864.62501,1302.6251 878.32543,1309.4669 881.75,1311.75 C 885.17459,1314.033 882.875,1315.1875 882.875,1315.1875 C 882.87501,1315.1875 845.22058,1353.9983 842.9375,1356.2812 C 839.51292,1358.5644 834.9375,1356.2812 834.9375,1356.2812 C 834.93749,1356.2814 823.51832,1349.4394 820.09375,1347.1562 C 815.52766,1344.8734 818.96875,1341.4375 818.96875,1341.4375 C 818.96877,1341.4374 856.6232,1307.1745 858.90625,1303.75 C 860.40452,1302.2518 861.69058,1301.8574 862.65625,1301.875 z M 897.15625,1315.3125 C 898.9435,1315.2451 900,1316.3125 900,1316.3125 C 900.00001,1316.3125 913.70044,1322.0295 917.125,1324.3125 C 920.54959,1325.454 918.28125,1328.875 918.28125,1328.875 C 918.28126,1328.875 911.43933,1336.8567 909.15625,1340.2812 C 906.8732,1342.5644 902.28125,1339.1562 902.28125,1339.1562 C 902.28123,1339.1564 888.61207,1333.4392 885.1875,1331.1562 C 881.76297,1328.8733 885.1875,1327.75 885.1875,1327.75 C 885.18753,1327.75 890.8879,1319.7371 894.3125,1316.3125 C 895.38267,1315.5991 896.34386,1315.3432 897.15625,1315.3125 z M 877.03125,1338.4062 C 877.95679,1338.4289 878.3125,1339.1562 878.3125,1339.1562 C 878.31252,1339.1564 893.16915,1345.9983 896.59375,1348.2812 C 901.15984,1351.706 897.71875,1355.125 897.71875,1355.125 C 897.71874,1355.125 878.31433,1374.5441 876.03125,1377.9688 C 873.74823,1381.3933 868.0625,1379.0938 868.0625,1379.0938 C 868.06252,1379.0936 855.50359,1371.1267 850.9375,1368.8438 C 846.37142,1366.5606 850.9375,1363.125 850.9375,1363.125 C 850.93751,1363.125 871.46695,1343.7058 873.75,1340.2812 C 875.24826,1338.7831 876.31138,1338.3887 877.03125,1338.4062 z"
       style="fill:#5f4343;fill-opacity:1;stroke:none;stroke-width:5;stroke-linejoin:round;stroke-miterlimit:4;stroke-dasharray:10, 5, 2.50000000000000000, 5;stroke-dashoffset:0;stroke-opacity:1" />
    <path
       id="path5329"
       d="M 1000.4688,1077.75 C 1000.4688,1077.75 998.1875,1080.0312 998.1875,1080.0312 C 998.18751,1080.0313 1010.75,1086.875 1010.75,1086.875 C 1010.75,1086.875 1010.7352,1088.0148 1009.5938,1089.1562 C 1008.4522,1089.1563 1007.3125,1091.4375 1007.3125,1091.4375 C 1007.3125,1091.4375 1006.1729,1092.579 1005.0312,1091.4375 C 1003.8897,1090.296 991.34375,1083.4375 991.34375,1083.4375 C 991.34375,1083.4375 990.1875,1086.875 990.1875,1086.875 C 990.18751,1086.875 1000.4688,1092.5938 1000.4688,1092.5938 C 1000.4688,1092.5937 1002.7352,1093.7335 1001.5938,1094.875 C 1000.4522,1096.0165 998.1875,1097.1562 998.1875,1097.1562 C 998.18751,1097.1563 997.03304,1099.4393 994.75,1097.1562 C 992.46696,1096.0148 982.1875,1091.4375 982.1875,1091.4375 C 982.18748,1091.4375 977.625,1096 977.625,1096 C 977.625,1096 989.0625,1102.8438 989.0625,1102.8438 C 989.0625,1102.8437 990.1875,1105.125 990.1875,1105.125 C 990.18751,1105.125 994.75,1107.4062 994.75,1107.4062 C 994.75001,1107.4063 997.04598,1107.4227 998.1875,1106.2812 C 998.18751,1107.4228 999.32719,1108.5625 1000.4688,1108.5625 C 1002.7518,1109.7041 1008.4688,1111.9835 1008.4688,1113.125 C 1010.7519,1115.408 1014.1562,1116.5625 1014.1562,1116.5625 C 1014.1563,1116.5625 1016.4523,1117.704 1017.5938,1116.5625 C 1017.5938,1116.5625 1017.5771,1117.7023 1018.7188,1118.8438 C 1021.0018,1119.9853 1034.7188,1126.8125 1034.7188,1126.8125 C 1034.7188,1126.8126 1035.8585,1126.8125 1037,1126.8125 C 1038.1416,1125.6711 1041.5625,1121.125 1041.5625,1121.125 C 1041.5625,1121.125 1041.5625,1121.1102 1041.5625,1119.9688 C 1042.704,1119.9687 1042.7023,1119.9854 1043.8438,1118.8438 C 1044.9853,1118.8437 1046.125,1116.5625 1046.125,1116.5625 C 1046.1249,1117.704 1044.9834,1118.8271 1046.125,1119.9688 C 1047.2664,1121.1102 1059.8125,1126.8125 1059.8125,1126.8125 C 1059.8125,1126.8126 1062.1085,1129.1103 1063.25,1127.9688 C 1063.2499,1127.9687 1063.2647,1127.954 1064.4062,1126.8125 C 1066.6892,1124.5295 1067.8125,1125.6875 1067.8125,1125.6875 C 1067.8125,1125.6875 1078.092,1129.125 1080.375,1129.125 C 1082.6581,1130.2666 1080.375,1132.5312 1080.375,1132.5312 C 1080.375,1132.5313 1080.3768,1133.6709 1078.0938,1134.8125 C 1076.9522,1137.0955 1075.8125,1135.9688 1075.8125,1135.9688 C 1074.671,1135.9688 1060.9688,1131.4062 1060.9688,1131.4062 C 1060.9688,1131.4062 1057.5312,1135.9523 1057.5312,1137.0938 C 1058.6727,1137.0937 1070.1085,1141.6562 1071.25,1141.6562 C 1071.25,1143.9394 1071.25,1146.2188 1071.25,1146.2188 C 1071.25,1146.2187 1075.8125,1147.375 1075.8125,1147.375 C 1075.8125,1147.375 1076.9522,1148.5166 1078.0938,1147.375 C 1078.0938,1146.2335 1081.5,1141.6562 1081.5,1141.6562 C 1081.4999,1141.6563 1082.6416,1140.5165 1081.5,1139.375 C 1082.6415,1140.5165 1083.796,1138.25 1084.9375,1138.25 C 1084.9375,1137.1083 1088.375,1133.6875 1088.375,1133.6875 C 1088.375,1133.6875 1088.375,1132.533 1088.375,1130.25 C 1089.5165,1130.25 1089.5148,1131.3915 1090.6562,1130.25 C 1090.6562,1129.1084 1094.0625,1124.5312 1094.0625,1124.5312 C 1094.0625,1124.5313 1094.0625,1124.533 1094.0625,1122.25 C 1094.0625,1119.967 1094.0625,1115.4062 1094.0625,1115.4062 C 1094.0625,1115.4063 1091.7812,1118.8438 1091.7812,1118.8438 C 1091.7813,1118.8437 1090.658,1119.9854 1088.375,1118.8438 C 1086.0919,1118.8437 1074.6562,1115.4062 1074.6562,1115.4062 C 1074.6562,1115.4063 1073.5312,1117.6875 1073.5312,1117.6875 C 1073.5312,1117.6876 1087.2188,1121.125 1087.2188,1121.125 C 1087.2187,1121.125 1088.3602,1122.2648 1087.2188,1123.4062 C 1086.0771,1124.5478 1086.0938,1126.8125 1086.0938,1126.8125 C 1086.0938,1126.8126 1084.9393,1127.954 1082.6562,1126.8125 C 1079.2316,1126.8126 1070.0938,1123.4062 1070.0938,1123.4062 C 1070.0938,1123.4063 1067.8125,1122.25 1067.8125,1122.25 C 1067.8125,1122.25 1067.8125,1113.125 1067.8125,1113.125 C 1067.8125,1113.125 1065.5477,1117.6875 1064.4062,1117.6875 C 1062.1231,1117.6876 1049.5477,1114.2665 1048.4062,1113.125 C 1047.2647,1113.125 1051.8438,1108.5625 1051.8438,1108.5625 C 1051.8438,1108.5626 1052.9835,1108.5625 1054.125,1108.5625 C 1055.2665,1108.5626 1056.4062,1106.2812 1056.4062,1106.2812 C 1056.4062,1106.2813 1056.4062,1099.4375 1056.4062,1099.4375 C 1056.4062,1099.4376 1052.9688,1102.8438 1052.9688,1102.8438 C 1052.9688,1102.8437 1052.9705,1103.9852 1050.6875,1102.8438 C 1049.5459,1101.7021 1039.2812,1098.2812 1039.2812,1098.2812 C 1039.2812,1098.2813 1038.125,1097.1562 1038.125,1097.1562 C 1038.125,1097.1563 1039.2812,1096 1039.2812,1096 C 1039.2812,1096 1038.125,1090.3125 1038.125,1090.3125 C 1038.125,1090.3126 1034.7188,1093.7188 1034.7188,1093.7188 C 1034.7188,1093.7187 1033.579,1094.8602 1032.4375,1093.7188 C 1032.4375,1092.5771 1019.875,1086.875 1019.875,1086.875 C 1019.875,1086.875 1018.7188,1082.3125 1018.7188,1082.3125 C 1018.7188,1082.3125 1015.3125,1084.5938 1015.3125,1084.5938 C 1015.3125,1084.5937 1014.1581,1085.7352 1011.875,1084.5938 C 1010.7335,1083.4521 1000.4688,1077.75 1000.4688,1077.75 z M 1018.7188,1089.1562 C 1018.7188,1089.1564 1026.7334,1093.7335 1027.875,1094.875 C 1030.158,1096.0165 1030.1562,1097.1562 1030.1562,1097.1562 C 1030.1562,1097.1564 1027.8603,1098.296 1026.7188,1099.4375 C 1025.5771,1101.7206 1023.3125,1100.5625 1023.3125,1100.5625 C 1023.3125,1100.5625 1016.456,1096.0165 1013.0312,1094.875 C 1010.7483,1093.7335 1011.875,1092.5938 1011.875,1092.5938 C 1011.875,1092.5936 1014.171,1091.454 1015.3125,1090.3125 C 1016.454,1089.1711 1018.7187,1089.1562 1018.7188,1089.1562 z M 1007.8125,1095.5 C 1007.9641,1095.4881 1008.1162,1095.4916 1008.25,1095.5 C 1009.1418,1095.5557 1009.5937,1096 1009.5938,1096 C 1009.5938,1096 1018.7335,1100.5773 1019.875,1101.7188 C 1022.1581,1102.8602 1021,1104 1021,1104 C 1021,1104 1019.8767,1105.1232 1017.5938,1107.4062 C 1016.4523,1108.5479 1014.1563,1107.4062 1014.1562,1107.4062 C 1014.1563,1107.4064 1003.8915,1102.8603 1002.75,1101.7188 C 1000.467,1099.4356 1002.75,1099.4375 1002.75,1099.4375 C 1002.75,1099.4376 1003.9044,1097.1415 1006.1875,1096 C 1006.8296,1095.6789 1007.3578,1095.5356 1007.8125,1095.5 z M 1036.625,1099.4375 C 1036.8569,1099.4197 1037,1099.4375 1037,1099.4375 C 1037,1099.4376 1044.9981,1102.8585 1047.2812,1104 C 1048.4228,1105.1415 1048.4062,1107.4062 1048.4062,1107.4062 C 1048.4062,1107.4064 1047.2665,1107.421 1046.125,1108.5625 C 1043.8418,1110.8456 1041.5625,1109.7188 1041.5625,1109.7188 C 1041.5625,1109.7186 1032.4393,1106.2666 1030.1562,1105.125 C 1027.8733,1103.9835 1030.1562,1102.8438 1030.1562,1102.8438 C 1030.1562,1102.8436 1032.421,1101.704 1033.5625,1100.5625 C 1034.4186,1099.7063 1035.9294,1099.491 1036.625,1099.4375 z M 1026.7188,1106.9062 C 1026.8584,1106.8944 1027.0141,1106.8979 1027.1562,1106.9062 C 1028.1039,1106.9621 1029,1107.4062 1029,1107.4062 C 1029,1107.4064 1038.1398,1110.8584 1039.2812,1112 C 1041.5644,1113.1415 1040.4062,1114.2812 1040.4062,1114.2812 C 1040.4064,1114.2814 1038.1416,1115.4209 1037,1116.5625 C 1035.8585,1118.8455 1033.5625,1116.5625 1033.5625,1116.5625 C 1033.5625,1116.5625 1025.5809,1113.1415 1022.1562,1112 C 1019.8732,1110.8584 1022.1563,1109.7188 1022.1562,1109.7188 C 1022.1562,1109.7186 1024.4523,1108.5477 1025.5938,1107.4062 C 1025.9147,1107.0853 1026.2997,1106.9418 1026.7188,1106.9062 z"
       style="fill:#5f4343;fill-opacity:1;stroke:none;stroke-width:5;stroke-linejoin:round;stroke-miterlimit:4;stroke-dasharray:10, 5, 2.50000000000000000, 5;stroke-dashoffset:0;stroke-opacity:1" />
    <path
       id="path5341"
       d="M 1032.4375,1053.7812 C 1032.4375,1053.7812 1032.4375,1056.0625 1032.4375,1056.0625 C 1032.4375,1056.0625 1041.5625,1060.625 1041.5625,1060.625 C 1041.5625,1060.625 1042.7188,1061.7647 1042.7188,1062.9062 C 1041.5773,1062.9062 1040.4062,1064.0312 1040.4062,1064.0312 C 1040.4063,1064.0312 1040.408,1064.0312 1038.125,1064.0312 C 1035.8419,1062.8897 1026.7188,1058.3438 1026.7188,1058.3438 C 1026.7187,1058.3438 1025.5938,1060.625 1025.5938,1060.625 C 1025.5938,1060.625 1034.7188,1065.1875 1034.7188,1065.1875 C 1034.7188,1065.1875 1036.9852,1066.3272 1035.8438,1067.4688 C 1034.7022,1068.6103 1033.5625,1069.75 1033.5625,1069.75 C 1033.5625,1069.75 1032.4393,1070.8915 1030.1562,1069.75 C 1029.0147,1068.6084 1018.7188,1064.0312 1018.7188,1064.0312 C 1018.7188,1064.0312 1018.7188,1066.3125 1018.7188,1066.3125 C 1018.7188,1066.3125 1027.875,1070.9062 1027.875,1070.9062 C 1027.875,1070.9063 1030.1415,1072.046 1029,1073.1875 C 1027.8585,1074.3291 1026.7188,1075.4688 1026.7188,1075.4688 C 1026.7187,1075.4687 1024.454,1075.4688 1023.3125,1075.4688 C 1021.0294,1074.3272 1011.875,1068.625 1011.875,1068.625 C 1011.875,1068.625 1008.4688,1075.4688 1008.4688,1075.4688 C 1008.4688,1075.4687 1016.4357,1080.0148 1018.7188,1081.1562 C 1019.8603,1082.2977 1023.3125,1084.5938 1023.3125,1084.5938 C 1023.3125,1084.5937 1024.4375,1083.4375 1024.4375,1083.4375 C 1024.4375,1083.4375 1025.5773,1082.296 1026.7188,1083.4375 C 1027.8603,1084.5791 1038.125,1089.1562 1038.125,1089.1562 C 1038.125,1089.1563 1039.2665,1090.296 1038.125,1091.4375 C 1040.408,1092.579 1041.5625,1092.5938 1041.5625,1092.5938 C 1041.5625,1092.5937 1042.7023,1093.7206 1043.8438,1091.4375 C 1043.8438,1093.7206 1043.8585,1093.7188 1045,1093.7188 C 1046.1415,1094.8602 1055.2648,1098.296 1056.4062,1099.4375 C 1056.4062,1099.4376 1059.8125,1101.7188 1059.8125,1101.7188 C 1059.8125,1101.7187 1060.6858,1102.5643 1061.6562,1101.3125 C 1061.4246,1102.1574 1062.0938,1102.8438 1062.0938,1102.8438 C 1062.0938,1102.8437 1076.9375,1110.8438 1076.9375,1110.8438 C 1076.9375,1110.8437 1079.4304,1110.018 1080.1562,1109.0625 C 1079.5754,1110.8414 1081.5,1110.8438 1081.5,1110.8438 C 1081.4999,1110.8437 1091.7812,1114.2812 1091.7812,1114.2812 C 1091.7813,1114.2813 1094.0625,1114.2648 1094.0625,1115.4062 C 1094.0625,1117.6894 1094.0625,1118.8438 1094.0625,1118.8438 C 1094.0625,1118.8437 1096.3438,1119.9688 1096.3438,1119.9688 C 1096.3437,1119.9687 1097.4835,1121.1269 1098.625,1118.8438 C 1099.7665,1117.7022 1106.625,1108.5625 1106.625,1108.5625 C 1106.625,1108.5626 1107.7812,1107.4227 1107.7812,1106.2812 C 1107.7813,1107.4228 1108.9209,1106.2666 1110.0625,1105.125 C 1110.0626,1105.125 1112.3438,1101.7188 1112.3438,1101.7188 C 1112.3437,1101.7187 1112.3438,1100.579 1112.3438,1099.4375 C 1113.4852,1100.5791 1114.625,1099.4375 1114.625,1099.4375 C 1115.7665,1098.2961 1116.9062,1097.1415 1116.9062,1096 C 1116.9063,1093.717 1116.9062,1088 1116.9062,1088 C 1116.9063,1088 1114.625,1089.1562 1114.625,1089.1562 C 1114.625,1089.1563 1114.6269,1090.2977 1112.3438,1089.1562 C 1111.2022,1089.1563 1082.6562,1080.0312 1082.6562,1080.0312 C 1082.6562,1080.0313 1082.6562,1078.875 1082.6562,1078.875 C 1082.6562,1077.7335 1082.6562,1077.75 1082.6562,1077.75 C 1082.6562,1077.75 1082.6562,1073.1875 1082.6562,1073.1875 C 1082.6562,1073.1875 1080.375,1074.3125 1080.375,1074.3125 C 1080.375,1074.3125 1079.2352,1075.4688 1078.0938,1075.4688 C 1076.9522,1074.3272 1050.6875,1064.0312 1050.6875,1064.0312 C 1050.6875,1064.0312 1049.5459,1062.9062 1050.6875,1062.9062 C 1050.6875,1061.7647 1049.5625,1062.9062 1049.5625,1062.9062 C 1049.5625,1062.9062 1048.4062,1057.1875 1048.4062,1057.1875 C 1048.4062,1057.1875 1046.125,1058.3438 1046.125,1058.3438 C 1046.1249,1058.3438 1046.1268,1059.4852 1043.8438,1058.3438 C 1042.7023,1058.3438 1032.4375,1053.7812 1032.4375,1053.7812 z M 1046.9375,1064.6562 C 1047.0806,1064.6477 1047.2142,1064.6667 1047.3438,1064.6875 C 1048.8581,1064.9311 1050.4031,1065.6631 1051.7812,1066.4375 C 1054.0768,1067.7274 1059.8903,1067.7895 1059.125,1070.1875 C 1058.6976,1071.5268 1055.9436,1073.617 1054.25,1072.875 C 1051.2792,1071.5734 1048.3283,1069.7044 1045.125,1068.9375 C 1041.4162,1068.0495 1044.7914,1064.7845 1046.9375,1064.6562 z M 1040.1875,1069.25 C 1040.2942,1069.2383 1040.399,1069.242 1040.5,1069.25 C 1042.6854,1069.4229 1045.0292,1070.9122 1047.1875,1071.9688 C 1048.976,1072.8444 1054.2359,1073.8177 1051.6875,1076.75 C 1048.9933,1079.8501 1046.7402,1077.7523 1044.25,1076.5 C 1041.7597,1075.2477 1036.6028,1075.379 1036.5,1073.0938 C 1036.4387,1071.7296 1038.5875,1069.426 1040.1875,1069.25 z M 1064.7188,1072.6562 C 1067.8538,1072.4752 1070.4716,1075.5591 1073.5625,1075.9375 C 1078.3257,1076.5206 1075.2715,1081.5861 1072.5312,1081.4375 C 1069.4167,1081.2686 1066.5798,1078.736 1063.4375,1078.4062 C 1058.4544,1077.8834 1061.413,1073.5795 1064.2812,1072.6875 C 1064.2812,1072.6875 1064.7188,1072.6563 1064.7188,1072.6562 z M 1033.5312,1075.2188 C 1033.9371,1075.2372 1034.3634,1075.3483 1034.7188,1075.4688 C 1037.6052,1076.447 1040.2727,1078.3375 1043.2188,1079.1875 C 1047.6088,1080.4541 1043.8868,1085.476 1041.5,1085.0938 C 1038.0318,1084.5384 1034.7618,1081.7592 1031.25,1080.5625 C 1027.3332,1079.2277 1030.7056,1076.5798 1032.4375,1075.4688 C 1032.7401,1075.2746 1033.1254,1075.2003 1033.5312,1075.2188 z M 1058.5312,1078.5938 C 1061.2431,1078.4773 1063.8563,1080.9915 1066.6875,1081.5 C 1069.2121,1081.9534 1071.8397,1082.9808 1069.5312,1085.6562 C 1067.0912,1088.4842 1064.0534,1087.8965 1061.25,1086.1562 C 1058.8788,1084.6843 1054.0345,1084.3182 1053.8438,1081.875 C 1053.7282,1080.3948 1056.8482,1078.6661 1058.5312,1078.5938 z M 1081.125,1080 C 1082.7411,1079.9288 1084.6119,1080.8546 1086.1875,1081.75 C 1088.522,1083.0767 1093.7949,1083.0483 1093.5938,1085.375 C 1093.4739,1086.7617 1091.3872,1088.7499 1089.5,1088.4062 C 1086.134,1087.7934 1082.9708,1085.98 1079.5938,1085.375 C 1075.9372,1084.7199 1077.9385,1081.4415 1079.625,1080.4375 C 1080.0906,1080.1603 1080.5863,1080.0237 1081.125,1080 z M 1051,1084.0625 C 1054.52,1083.8592 1057.5985,1086.8446 1061.0312,1087.5312 C 1065.4744,1088.4199 1063.5474,1093.9165 1060,1093.0938 C 1056.4414,1092.2683 1053.1891,1089.7704 1049.5,1089.3125 C 1045.141,1088.7714 1048.0964,1084.7954 1050.5625,1084.0938 C 1050.5625,1084.0938 1051,1084.0625 1051,1084.0625 z M 1075.375,1086.375 C 1078.859,1086.6064 1082.5193,1088.5826 1086.0938,1089.1562 C 1090.3415,1089.838 1087.6549,1094.8492 1084.875,1094.2188 C 1081.5269,1093.4595 1078.1091,1091.6481 1074.625,1091.5312 C 1069.9762,1091.3754 1073.2637,1086.2348 1075.375,1086.375 z M 1101.625,1087.9062 C 1101.784,1087.9158 1101.9266,1087.9533 1102.0625,1088 C 1105.545,1089.1963 1110.8043,1089.8557 1112.4688,1092.4062 C 1113.9916,1094.7399 1108.2768,1096.8072 1105.5625,1095.5625 C 1102.8148,1094.3025 1099.1738,1095.0439 1096.8438,1093.3125 C 1094.5688,1091.6221 1099.24,1087.7634 1101.625,1087.9062 z M 1070.2812,1092.5 C 1070.6217,1092.4654 1070.9381,1092.5006 1071.25,1092.5938 C 1074.4228,1093.542 1077.4933,1095.3882 1080.75,1095.7812 C 1083.6426,1096.1303 1082.4163,1097.5185 1081.0938,1099.1562 C 1079.3577,1101.3061 1076.8637,1100.5169 1074.4375,1099.7812 C 1071.5005,1098.8909 1067.051,1098.5129 1065.7188,1096.6562 C 1065.0837,1095.7712 1067.8984,1092.7422 1070.2812,1092.5 z M 1093.4375,1094.5312 C 1093.4375,1094.5312 1093.6639,1094.5797 1093.75,1094.625 C 1093.8566,1094.6809 1094.0625,1094.875 1094.0625,1094.875 C 1096.7274,1096.9719 1100.6947,1096.3002 1104.0312,1096.8125 C 1107.7458,1097.3828 1107.0195,1101.1943 1104.3125,1102.875 C 1101.8428,1104.4084 1100.5714,1108.4469 1097.8438,1108.875 C 1094.4016,1109.4153 1090.7891,1106.7976 1087.25,1106.0625 C 1083.0466,1105.1894 1084.9835,1102.164 1087.3125,1100.4688 C 1089.5963,1098.8066 1091.2198,1096.0895 1093.4375,1094.5312 z"
       style="fill:#5f4343;fill-opacity:1;stroke:none;stroke-width:5;stroke-linejoin:round;stroke-miterlimit:4;stroke-dasharray:10, 5, 2.50000000000000000, 5;stroke-dashoffset:0;stroke-opacity:1" />
  </g>
  <path
     style="fill:#c00000;fill-opacity:1;fill-rule:nonzero;stroke:none"
     id="path5365"
     d="" />
  <!-- EMR_SETBKCOLOR -->
  <path
     style="fill:#e00a0e;fill-opacity:1;fill-rule:nonzero;stroke:#ffffff;stroke-width:0.03543307px;stroke-linejoin:round;stroke-dasharray:none;stroke-opacity:1"
     id="path5379"
     d="" />
  <path
     style="fill:none;stroke:#ffffff;stroke-width:0.03543307px;stroke-linejoin:round;stroke-dasharray:none;stroke-opacity:1"
     d=""
     id="path5393" />
  <!-- EMR_SETBKCOLOR -->
  <path
     style="fill:none;stroke:#ffffff;stroke-width:1.41732287px;stroke-linejoin:round;stroke-dasharray:none;stroke-opacity:1"
     d=""
     id="path5397" />
  <!-- EMR_SETBKCOLOR -->
  <!-- EMR_SETBKCOLOR -->
  <!-- EMR_SETBKCOLOR -->
  <!-- EMR_SETBKCOLOR -->
  <path
     style="fill:#ffffff;fill-opacity:1;fill-rule:nonzero;stroke:#ffffff;stroke-width:0.88582677px;stroke-linejoin:round;stroke-dasharray:none;stroke-opacity:1"
     id="path5413"
     d="" />
  <path
     style="fill:none;stroke:#ffffff;stroke-width:0.88582677px;stroke-linejoin:round;stroke-dasharray:none;stroke-opacity:1"
     d=""
     id="path5423" />
  <!-- EMR_SETBKCOLOR -->
  <path
     style="fill:none;stroke:none"
     d=""
     id="path5433" />
  <!-- EMR_SETBKCOLOR -->
  <path
     style="fill:#ffffff;fill-opacity:1;fill-rule:nonzero;stroke:#ffffff;stroke-width:0.10629921px;stroke-linejoin:round;stroke-dasharray:none;stroke-opacity:1"
     id="path5439"
     d="" />
  <path
     style="fill:none;stroke:#ffffff;stroke-width:0.10629921px;stroke-linejoin:round;stroke-dasharray:none;stroke-opacity:1"
     d=""
     id="path5445" />
  <!-- EMR_SETBKCOLOR -->
  <path
     style="fill:#ffffff;fill-opacity:1;fill-rule:nonzero;stroke:#ffffff;stroke-width:0.10629921px;stroke-linejoin:round;stroke-dasharray:none;stroke-opacity:1"
     id="path5451"
     d="" />
  <path
     style="fill:none;stroke:#ffffff;stroke-width:0.10629921px;stroke-linejoin:round;stroke-dasharray:none;stroke-opacity:1"
     d=""
     id="path5457" />
  <path
     style="fill:#82dd82;fill-opacity:1;fill-rule:evenodd;stroke:none;stroke-width:1.982;stroke-linecap:butt;stroke-linejoin:miter;stroke-opacity:1;stroke-miterlimit:4;stroke-dasharray:none;stroke-dashoffset:0"
     d="M 562.95051,377.3435 L 554.74139,363.85709 C 554.74139,363.85709 547.7158,368.28089 545.35953,370.89349 C 544.67257,371.65518 543.60043,373.82531 543.60043,373.82531 L 551.22319,384.67309 C 551.22319,384.67309 553.57724,385.23182 554.74139,384.3799 C 556.73008,382.92459 562.95051,377.3435 562.95051,377.3435 z"
     id="path2421"
     sodipodi:nodetypes="ccsccsc" />
  <path
     id="path3193"
     d="M 548.12942,387.15598 L 539.40545,376.06875 C 539.40545,376.06875 535.14085,378.30405 533.76938,379.79701 C 532.22795,381.47498 530.13049,386.46356 530.13049,386.46356 L 537.79506,393.49252 C 537.79506,393.49252 540.665,393.86156 541.76151,393.39852 C 544.22599,392.35779 548.12942,387.15598 548.12942,387.15598 z"
     style="fill:#dd8282;fill-opacity:1;fill-rule:evenodd;stroke:none;stroke-width:1.982;stroke-linecap:butt;stroke-linejoin:miter;stroke-opacity:1;stroke-miterlimit:4;stroke-dasharray:none;stroke-dashoffset:0"
     inkscape:transform-center-y="6.743208"
     sodipodi:nodetypes="ccsccsc" />
  <path
     sodipodi:nodetypes="ccsccsc"
     id="path3195"
     d="M 534.80495,398.45267 L 526.30264,387.31173 C 526.30264,387.31173 523.38161,387.63096 521.02534,390.24356 C 520.33838,391.00526 517.50714,394.05494 517.50714,394.05494 L 525.12991,403.43679 C 525.12991,403.43679 528.3635,404.58189 529.52765,403.72997 C 531.51634,402.27466 534.80495,398.45267 534.80495,398.45267 z"
     style="fill:#f2fa66;fill-opacity:1;fill-rule:evenodd;stroke:none;stroke-width:1.982;stroke-linecap:butt;stroke-linejoin:miter;stroke-opacity:1;stroke-miterlimit:4;stroke-dasharray:none;stroke-dashoffset:0" />
  <path
     style="fill:#6766fa;fill-opacity:1;fill-rule:evenodd;stroke:none;stroke-width:1.982;stroke-linecap:butt;stroke-linejoin:miter;stroke-opacity:1;stroke-miterlimit:4;stroke-dasharray:none;stroke-dashoffset:0"
     d="M 522.09443,408.82181 L 514.72635,397.57314 C 514.72635,397.57314 510.5691,398.06256 508.49843,400.55458 C 507.89474,401.28113 505.19346,405.40337 505.19346,405.40337 L 511.89225,415.75048 C 511.89225,415.75048 516.53742,414.04621 517.56045,413.23362 C 519.30809,411.84546 522.09443,408.82181 522.09443,408.82181 z"
     id="path3197"
     sodipodi:nodetypes="ccsccsc" />
  <path
     sodipodi:nodetypes="csscssc"
     id="path3199"
     d="M 502.98724,423.07519 C 502.98724,423.07519 496.83395,415.20979 496.27511,414.68446 C 494.14737,412.68428 493.11919,413.57877 489.05173,416.93467 C 486.89704,418.71241 488.00237,419.9495 488.00237,419.9495 C 488.00237,419.9495 494.29625,429.69861 495.53623,429.91524 C 496.64067,430.10819 501.05318,425.94313 501.81163,425.23539 C 503.10729,424.02635 502.98724,423.07519 502.98724,423.07519 z"
     style="fill:#faab66;fill-opacity:1;fill-rule:evenodd;stroke:none;stroke-width:1.982;stroke-linecap:butt;stroke-linejoin:miter;stroke-opacity:1;stroke-miterlimit:4;stroke-dasharray:none;stroke-dashoffset:0" />
  <path
     sodipodi:nodetypes="ccsccss"
     id="path3201"
     d="M 554.45074,344.23114 C 554.75318,342.65794 543.71617,328.19949 543.71617,328.19949 C 543.71617,328.19949 537.36802,333.32217 535.23895,336.34751 C 534.61823,337.22954 533.64947,339.74251 533.64947,339.74251 L 542.61033,351.88943 C 542.61033,351.88943 546.81051,350.67063 547.8624,349.68412 C 549.65934,347.99889 554.07109,346.20592 554.45074,344.23114 z"
     style="fill:#82dd82;fill-opacity:1;fill-rule:evenodd;stroke:none;stroke-width:1.982;stroke-linecap:butt;stroke-linejoin:miter;stroke-opacity:1;stroke-miterlimit:4;stroke-dasharray:none;stroke-dashoffset:0" />
  <path
     sodipodi:nodetypes="ccsccsc"
     inkscape:transform-center-y="7.7231055"
     style="fill:#dd8282;fill-opacity:1;fill-rule:evenodd;stroke:none;stroke-width:1.982;stroke-linecap:butt;stroke-linejoin:miter;stroke-opacity:1;stroke-miterlimit:4;stroke-dasharray:none;stroke-dashoffset:0"
     d="M 537.95297,355.76777 L 529.26018,342.70612 C 529.26018,342.70612 524.64819,345.05194 523.12832,346.68922 C 521.42012,348.52939 518.96756,354.11882 518.96756,354.11882 L 526.73322,362.50136 C 526.73322,362.50136 529.74819,363.05927 530.92874,362.58351 C 533.58208,361.51419 537.95297,355.76777 537.95297,355.76777 z"
     id="path3203"
     inkscape:transform-center-x="0.41226172" />
  <path
     style="fill:#f2fa66;fill-opacity:1;fill-rule:evenodd;stroke:none;stroke-width:1.982;stroke-linecap:butt;stroke-linejoin:miter;stroke-opacity:1;stroke-miterlimit:4;stroke-dasharray:none;stroke-dashoffset:0"
     d="M 524.85399,369.21955 L 515.43459,356.4223 C 515.43459,356.4223 512.1985,356.78899 509.58807,359.79 C 508.82701,360.66493 505.69038,364.168 505.69038,364.168 L 514.13536,374.94465 C 514.13536,374.94465 517.71775,376.25999 519.00746,375.28142 C 521.21066,373.60975 524.85399,369.21955 524.85399,369.21955 z"
     id="path3205"
     sodipodi:nodetypes="ccsccsc" />
  <path
     sodipodi:nodetypes="ccsccsc"
     id="path3207"
     d="M 511.52154,379.78796 L 503.79194,367.51295 C 503.79194,367.51295 499.43071,368.04703 497.25845,370.76643 C 496.62513,371.55926 493.79132,376.05761 493.79132,376.05761 L 500.81879,387.34878 C 500.81879,387.34878 505.69187,385.48902 506.7651,384.60228 C 508.59849,383.08747 511.52154,379.78796 511.52154,379.78796 z"
     style="fill:#6766fa;fill-opacity:1;fill-rule:evenodd;stroke:none;stroke-width:1.982;stroke-linecap:butt;stroke-linejoin:miter;stroke-opacity:1;stroke-miterlimit:4;stroke-dasharray:none;stroke-dashoffset:0" />
  <path
     style="fill:#faab66;fill-opacity:1;fill-rule:evenodd;stroke:none;stroke-width:1.982;stroke-linecap:butt;stroke-linejoin:miter;stroke-opacity:1;stroke-miterlimit:4;stroke-dasharray:none;stroke-dashoffset:0"
     d="M 499.46263,389.43666 C 499.46263,389.43666 492.64108,381.27101 492.02154,380.72562 C 489.66272,378.6491 488.52289,379.57772 484.01369,383.06173 C 481.625,384.90734 482.85036,386.19165 482.85036,386.19165 C 482.85036,386.19165 489.82778,396.31292 491.20242,396.53781 C 492.4268,396.73812 497.31852,392.41408 498.15935,391.67932 C 499.59571,390.42413 499.46263,389.43666 499.46263,389.43666 z"
     id="path3209"
     sodipodi:nodetypes="csscssc" />
  <path
     style="fill:#000000;fill-opacity:1;fill-rule:evenodd;stroke:none;stroke-width:1.982;stroke-linecap:butt;stroke-linejoin:miter;stroke-opacity:1;stroke-miterlimit:4;stroke-dasharray:none;stroke-dashoffset:0"
     d="M 399.72127,412.6398 C 400.02373,411.0666 390.02326,406.14448 390.02326,406.14448 C 390.02326,406.14448 376.84689,422.66298 376.84689,422.66298 L 381.45421,425.8955 C 381.45421,425.8955 385.65439,429.44486 386.70628,428.45835 C 388.50322,426.77312 399.34162,414.61458 399.72127,412.6398 z"
     id="path3223"
     sodipodi:nodetypes="ccccss" />
  <path
     sodipodi:nodetypes="ccccss"
     id="path3225"
     d="M 408.42921,426.66348 C 408.6933,425.40935 400.16866,420.03437 400.16866,420.03437 C 397.42961,421.74627 387.4573,433.38643 389.07827,432.37332 L 393.72311,436.40139 C 393.72311,436.40139 396.97589,439.43818 397.89436,438.65176 C 399.46336,437.30833 408.09772,428.23773 408.42921,426.66348 z"
     style="fill:#000000;fill-opacity:1;fill-rule:evenodd;stroke:none;stroke-width:1.982;stroke-linecap:butt;stroke-linejoin:miter;stroke-opacity:1;stroke-miterlimit:4;stroke-dasharray:none;stroke-dashoffset:0" />
  <text
     xml:space="preserve"
     style="font-size:8.49492264000000041px;font-style:normal;font-variant:normal;font-weight:normal;font-stretch:normal;fill:#ffffff;fill-opacity:1;stroke:none;stroke-width:1.98199999;stroke-linecap:butt;stroke-linejoin:miter;stroke-opacity:1;font-family:Verdana;-inkscape-font-specification:Verdana;stroke-miterlimit:4;stroke-dasharray:none;stroke-dashoffset:0"
     x="67.450569"
     y="-561.42053"
     id="text3227"
     transform="matrix(-0.6328411,0.7742817,-0.7742817,-0.6328411,0,0)"
     inkscape:transform-center-x="160.30374"
     inkscape:transform-center-y="104.4831"><tspan
       sodipodi:role="line"
       id="tspan3229"
       x="67.450569"
       y="-561.42053">PICK</tspan></text>
  <text
     inkscape:transform-center-y="100.81871"
     inkscape:transform-center-x="143.0233"
     transform="matrix(-0.6612382,0.7410299,-0.8090256,-0.6056635,0,0)"
     id="text3231"
     y="-576.71527"
     x="97.806961"
     style="font-size:6.65984917000000021px;font-style:normal;font-variant:normal;font-weight:normal;font-stretch:normal;fill:#ffffff;fill-opacity:1;stroke:none;stroke-width:1.982;stroke-linecap:butt;stroke-linejoin:miter;stroke-opacity:1;font-family:Verdana;-inkscape-font-specification:Verdana;stroke-miterlimit:4;stroke-dasharray:none;stroke-dashoffset:0"
     xml:space="preserve"><tspan
       y="-576.71527"
       x="97.806961"
       id="tspan3233"
       sodipodi:role="line">PICK</tspan></text>
  <text
     xml:space="preserve"
     style="font-size:28px;font-style:normal;font-variant:normal;font-weight:normal;font-stretch:normal;text-align:center;text-anchor:middle;opacity:0.94999999999999996;fill:#ffffff;fill-opacity:0.94999999999999996;fill-rule:nonzero;stroke:#000000;stroke-width:0.9;stroke-linecap:butt;stroke-linejoin:miter;stroke-miterlimit:4;stroke-opacity:1;stroke-dasharray:none;stroke-dashoffset:0;font-family:Verdana;-inkscape-font-specification:Verdana"
     x="687.93378"
     y="439.11121"
     id="text3235"><tspan
       sodipodi:role="line"
       x="687.93378"
       y="439.11121"
       id="tspan3239"
       style="fill:#ffffff;fill-opacity:1;fill-rule:nonzero;stroke:#000000;stroke-width:0.9;stroke-miterlimit:4;stroke-opacity:1;stroke-dasharray:none">Choose your level</tspan></text>
  <text
     xml:space="preserve"
     style="font-size:28px;font-style:normal;font-variant:normal;font-weight:normal;font-stretch:normal;opacity:0.94999999999999996;fill:#ffffff;fill-opacity:0.94999999999999996;stroke:#000000;stroke-width:0.9;stroke-linecap:butt;stroke-linejoin:miter;stroke-miterlimit:4;stroke-opacity:1;stroke-dasharray:none;stroke-dashoffset:0;font-family:Verdana;-inkscape-font-specification:Verdana;fill-rule:nonzero"
     x="483.65076"
     y="490.91895"
     id="text3241"><tspan
       sodipodi:role="line"
       x="483.65076"
       y="490.91895"
       id="tspan3245"
       style="stroke-width:0.9;stroke-miterlimit:4;stroke-dasharray:none;fill-rule:nonzero">Switch instruments</tspan></text>
  <path
     style="fill:none;fill-rule:evenodd;stroke:#000000;stroke-width:1.982;stroke-linecap:butt;stroke-linejoin:miter;stroke-miterlimit:4;stroke-dasharray:none;stroke-dashoffset:0;stroke-opacity:1"
     d="M 494.78718,421.83095 C 528.57898,458.73243 526.9205,463.29328 526.9205,463.29328"
     id="path3253" />
  <path
     style="fill:none;fill-rule:evenodd;stroke:#000000;stroke-width:1.982;stroke-linecap:butt;stroke-linejoin:miter;stroke-miterlimit:4;stroke-dasharray:none;stroke-dashoffset:0;stroke-opacity:1"
     d="M 514.6891,408.35569 L 561.95616,414.98967"
     id="path3255" />
  <path
     style="fill:none;fill-rule:evenodd;stroke:#000000;stroke-width:1.982;stroke-linecap:butt;stroke-linejoin:miter;stroke-miterlimit:4;stroke-dasharray:none;stroke-dashoffset:0;stroke-opacity:1"
     d="M 527.33512,397.99011 L 561.74885,414.98967 L 539.35919,385.13679"
     id="path3257" />
  <path
     style="fill:none;fill-rule:evenodd;stroke:#000000;stroke-width:1.982;stroke-linecap:butt;stroke-linejoin:miter;stroke-miterlimit:4;stroke-dasharray:none;stroke-dashoffset:0;stroke-opacity:1"
     d="M 553.04176,376.22239 L 561.54153,414.36773"
     id="path3259" />
  <text
     xml:space="preserve"
     style="font-size:48.68118668000000326px;font-style:normal;font-variant:normal;font-weight:bold;font-stretch:normal;fill:#ffffff;fill-opacity:1;stroke:#000000;stroke-width:1.01400001;stroke-linecap:butt;stroke-linejoin:miter;stroke-opacity:1;font-family:Verdana;-inkscape-font-specification:Verdana Bold;stroke-miterlimit:4;stroke-dasharray:none"
     x="370.76126"
     y="214.77103"
     id="text3263"
     transform="scale(0.8921337,1.1209082)"><tspan
       sodipodi:role="line"
       id="tspan3265"
       x="370.76126"
       y="214.77103"
       style="stroke-width:1.01400001;stroke-miterlimit:4;stroke-dasharray:none">PICK UP YOUR</tspan><tspan
       sodipodi:role="line"
       x="370.76126"
       y="275.6225"
       id="tspan3267"
       style="stroke-width:1.01400001;stroke-miterlimit:4;stroke-dasharray:none">INSTRUMENTS</tspan></text>
</svg>
