<?xml version="1.0" encoding="UTF-8" standalone="no"?>
<!-- Created with Sodipodi ("http://www.sodipodi.com/") -->

<svg
   xmlns:dc="http://purl.org/dc/elements/1.1/"
   xmlns:cc="http://creativecommons.org/ns#"
   xmlns:rdf="http://www.w3.org/1999/02/22-rdf-syntax-ns#"
   xmlns:svg="http://www.w3.org/2000/svg"
   xmlns="http://www.w3.org/2000/svg"
   xmlns:xlink="http://www.w3.org/1999/xlink"
   xmlns:sodipodi="http://sodipodi.sourceforge.net/DTD/sodipodi-0.dtd"
   xmlns:inkscape="http://www.inkscape.org/namespaces/inkscape"
   version="1.0"
   x="0"
   y="0"
   width="1000"
   height="800"
   id="svg559"
   sodipodi:version="0.32"
   inkscape:version="0.47pre4 r22446"
   sodipodi:docname="intro_top.svg"
   inkscape:output_extension="org.inkscape.output.svg.inkscape">
  <metadata
     id="metadata35">
    <rdf:RDF>
      <cc:Work
         rdf:about="">
        <dc:format>image/svg+xml</dc:format>
        <dc:type
           rdf:resource="http://purl.org/dc/dcmitype/StillImage" />
        <dc:title />
      </cc:Work>
    </rdf:RDF>
  </metadata>
  <sodipodi:namedview
     inkscape:window-height="726"
     inkscape:window-width="1280"
     inkscape:pageshadow="2"
     inkscape:pageopacity="0.0"
     guidetolerance="10.0"
     gridtolerance="10.0"
     objecttolerance="10.0"
     borderopacity="1.0"
     bordercolor="#666666"
     pagecolor="#ffffff"
     id="base"
     inkscape:zoom="0.61522534"
     inkscape:cx="420.47913"
     inkscape:cy="402.92628"
     inkscape:window-x="0"
     inkscape:window-y="25"
     inkscape:current-layer="svg559"
     showgrid="false"
     showguides="true"
     inkscape:guide-bbox="true"
     inkscape:window-maximized="1" />
  <defs
     id="defs561">
    <linearGradient
       id="linearGradient4557">
      <stop
         style="stop-color:#ffffff;stop-opacity:1;"
         offset="0"
         id="stop4559" />
      <stop
         style="stop-color:#0300da;stop-opacity:1;"
         offset="1"
         id="stop4561" />
    </linearGradient>
    <linearGradient
       id="linearGradient3945">
      <stop
         style="stop-color:#ffffff;stop-opacity:1;"
         offset="0"
         id="stop3947" />
      <stop
         style="stop-color:#ffffff;stop-opacity:0;"
         offset="1"
         id="stop3949" />
    </linearGradient>
    <inkscape:perspective
       sodipodi:type="inkscape:persp3d"
       inkscape:vp_x="0 : 400 : 1"
       inkscape:vp_y="0 : 1000 : 0"
       inkscape:vp_z="1000 : 400 : 1"
       inkscape:persp3d-origin="500 : 266.66667 : 1"
       id="perspective62" />
    <linearGradient
       id="linearGradient6053">
      <stop
         style="stop-color:#000000;stop-opacity:1;"
         offset="0"
         id="stop6055" />
      <stop
         style="stop-color:#5f5f5f;stop-opacity:1;"
         offset="1"
         id="stop6057" />
    </linearGradient>
    <linearGradient
       id="linearGradient6499"
       inkscape:collect="always">
      <stop
         id="stop6501"
         offset="0"
         style="stop-color:white;stop-opacity:1;" />
      <stop
         id="stop6503"
         offset="1"
         style="stop-color:white;stop-opacity:0;" />
    </linearGradient>
    <linearGradient
       inkscape:collect="always"
       xlink:href="#linearGradient6499"
       id="linearGradient3245"
       gradientUnits="userSpaceOnUse"
       gradientTransform="matrix(0.8327515,0,0,-0.6476426,-48.09403,12.672202)"
       x1="311.95688"
       y1="-116.67703"
       x2="311.95688"
       y2="-276.41519" />
    <linearGradient
       inkscape:collect="always"
       xlink:href="#linearGradient6499"
       id="linearGradient4108"
       gradientUnits="userSpaceOnUse"
       gradientTransform="matrix(1.3544445,0,0,1.7332213,31.621862,51.58815)"
       x1="44.868057"
       y1="260.4765"
       x2="358.07056"
       y2="260.4765" />
    <linearGradient
       inkscape:collect="always"
       xlink:href="#linearGradient6499"
       id="linearGradient4121"
       gradientUnits="userSpaceOnUse"
       gradientTransform="matrix(1.2483528,0,0,1.0242885,40.754503,133.62899)"
       x1="44.868057"
       y1="260.4765"
       x2="358.07056"
       y2="260.4765" />
    <linearGradient
       inkscape:collect="always"
       xlink:href="#linearGradient6499"
       id="linearGradient4127"
       gradientUnits="userSpaceOnUse"
       gradientTransform="matrix(1.2483528,0,0,1.0242885,40.754503,340.11416)"
       x1="44.868057"
       y1="260.4765"
       x2="358.07056"
       y2="260.4765" />
    <linearGradient
       inkscape:collect="always"
       xlink:href="#linearGradient6499"
       id="linearGradient4133"
       gradientUnits="userSpaceOnUse"
       gradientTransform="matrix(1.2483528,0,0,1.0242885,39.887975,233.1463)"
       x1="44.868057"
       y1="260.4765"
       x2="358.07056"
       y2="260.4765" />
    <filter
       inkscape:collect="always"
       id="filter4397"
       x="-0.14167116"
       width="1.2833423"
       y="-0.10407921"
       height="1.2081584">
      <feGaussianBlur
         inkscape:collect="always"
         stdDeviation="2.8834025"
         id="feGaussianBlur4399" />
    </filter>
    <filter
       inkscape:collect="always"
       id="filter4445"
       x="-0.13414668"
       width="1.2682934"
       y="-0.10855241"
       height="1.2171048">
      <feGaussianBlur
         inkscape:collect="always"
         stdDeviation="3.5790177"
         id="feGaussianBlur4447" />
    </filter>
    <filter
       inkscape:collect="always"
       id="filter4489"
       x="-0.15104939"
       width="1.3020988"
       y="-0.099538981"
       height="1.199078">
      <feGaussianBlur
         inkscape:collect="always"
         stdDeviation="2.6848123"
         id="feGaussianBlur4491" />
    </filter>
    <filter
       inkscape:collect="always"
       id="filter4529"
       x="-0.16248027"
       width="1.3249605"
       y="-0.095128714"
       height="1.1902574">
      <feGaussianBlur
         inkscape:collect="always"
         stdDeviation="2.6354387"
         id="feGaussianBlur4531" />
    </filter>
  </defs>
  <text
     xml:space="preserve"
     style="font-size:24.89476013px;font-style:normal;font-weight:normal;fill:#000000;fill-opacity:1;stroke:none;stroke-width:1px;stroke-linecap:butt;stroke-linejoin:miter;stroke-opacity:1;font-family:Bitstream Vera Sans"
     x="266.96185"
     y="759.88806"
     id="text2508"><tspan
       sodipodi:role="line"
       id="tspan2510"
       x="266.96185"
       y="759.88806" /></text>
  <g
     id="g2859"
     transform="translate(-106.66625,0)">
    <path
       style="font-size:72px;font-style:normal;font-weight:bold;fill:#000000;fill-opacity:1;stroke:none;filter:url(#filter4489);font-family:Trebuchet MS"
       d="m 260.62306,411.55911 0,23.65532 -11.41073,0 0,-64.25116 c 7.60714,-0.32178 12.05439,-0.4827 13.34177,-0.48277 10.15259,7e-5 17.56955,1.56539 22.25091,4.69596 4.71054,3.10143 7.06583,7.9583 7.06588,14.57061 -5e-5,14.7462 -8.68975,22.11928 -26.06913,22.11925 -1.28737,3e-5 -3.01361,-0.10238 -5.1787,-0.30721 m 0,-30.72117 0,20.58319 c 1.93103,0.20484 3.45244,0.30724 4.56429,0.30721 5.20794,3e-5 9.01151,-0.86309 11.41072,-2.58936 2.39915,-1.75546 3.59872,-4.5935 3.59876,-8.51416 -4e-5,-6.67083 -5.36891,-10.00627 -16.10667,-10.00633 -1.1996,6e-5 -2.3553,0.0732 -3.4671,0.21945"
       id="path4143" />
    <path
       id="text5379"
       d="m 260.62306,411.55911 0,23.65532 -11.41073,0 0,-64.25116 c 7.60714,-0.32178 12.05439,-0.4827 13.34177,-0.48277 10.15259,7e-5 17.56955,1.56539 22.25091,4.69596 4.71054,3.10143 7.06583,7.9583 7.06588,14.57061 -5e-5,14.7462 -8.68975,22.11928 -26.06913,22.11925 -1.28737,3e-5 -3.01361,-0.10238 -5.1787,-0.30721 m 0,-30.72117 0,20.58319 c 1.93103,0.20484 3.45244,0.30724 4.56429,0.30721 5.20794,3e-5 9.01151,-0.86309 11.41072,-2.58936 2.39915,-1.75546 3.59872,-4.5935 3.59876,-8.51416 -4e-5,-6.67083 -5.36891,-10.00627 -16.10667,-10.00633 -1.1996,6e-5 -2.3553,0.0732 -3.4671,0.21945"
       style="font-size:72px;font-style:normal;font-weight:bold;fill:#c7e5ff;fill-opacity:1;stroke:none;font-family:Trebuchet MS" />
  </g>
  <g
     id="g2863"
     transform="translate(-94.205574,0)">
    <path
       id="text6375"
       d="m 284.36335,476.15859 -4.69596,9.4358 c -2.54551,-2.54542 -6.64167,-3.81815 -12.28847,-3.81821 -5.3543,6e-5 -9.74303,2.25294 -13.16623,6.75865 -3.42323,4.47657 -5.13483,10.15267 -5.13482,17.02832 -1e-5,6.87572 1.57993,12.33238 4.73984,16.37 3.18913,4.03765 7.43157,6.05647 12.72735,6.05646 6.05642,10e-6 10.79625,-2.16509 14.21951,-6.49533 l 5.31038,9.21635 c -4.65211,4.94465 -11.46928,7.41698 -20.45153,7.41698 -8.98231,0 -15.9604,-2.95509 -20.93429,-8.86527 -4.97391,-5.91015 -7.46086,-13.9708 -7.46086,-24.18195 0,-9.50889 2.75027,-17.45251 8.25083,-23.83086 5.5298,-6.4075 12.59566,-9.61128 21.19762,-9.61134 7.37305,6e-5 13.26858,1.50686 17.68663,4.5204"
       style="font-size:72px;font-style:normal;font-weight:bold;fill:#000000;fill-opacity:1;stroke:none;filter:url(#filter4397);font-family:Trebuchet MS" />
    <path
       style="font-size:72px;font-style:normal;font-weight:bold;fill:#c7e5ff;fill-opacity:1;stroke:none;font-family:Trebuchet MS"
       d="m 284.66204,475.8599 -4.69596,9.4358 c -2.54551,-2.54542 -6.64167,-3.81815 -12.28847,-3.81821 -5.3543,6e-5 -9.74303,2.25294 -13.16623,6.75865 -3.42323,4.47657 -5.13483,10.15267 -5.13482,17.02832 -1e-5,6.87572 1.57993,12.33238 4.73984,16.37 3.18913,4.03765 7.43157,6.05647 12.72735,6.05646 6.05642,10e-6 10.79625,-2.16509 14.21951,-6.49533 l 5.31038,9.21635 c -4.65211,4.94465 -11.46928,7.41698 -20.45153,7.41698 -8.98231,0 -15.9604,-2.95509 -20.93429,-8.86527 -4.97391,-5.91015 -7.46086,-13.9708 -7.46086,-24.18195 0,-9.50889 2.75027,-17.45251 8.25083,-23.83086 5.5298,-6.4075 12.59566,-9.61128 21.19762,-9.61134 7.37305,6e-5 13.26858,1.50686 17.68663,4.5204"
       id="path4225" />
  </g>
  <g
     id="g2855"
     transform="translate(-103.71263,0)">
    <path
       style="font-size:72px;font-style:normal;font-weight:bold;fill:#000000;fill-opacity:1;stroke:none;filter:url(#filter4529);font-family:Trebuchet MS"
       d="m 246.14021,330.25668 4.21319,-10.22576 c 4.50577,3.1599 8.93839,4.73984 13.29789,4.73983 6.70011,10e-6 10.05018,-2.34065 10.05021,-7.02199 -3e-5,-2.19434 -0.79,-4.2863 -2.36992,-6.27589 -1.57998,-1.98954 -4.84226,-4.21317 -9.78689,-6.67089 -4.9154,-2.48691 -8.23622,-4.52037 -9.96244,-6.10035 -1.69698,-1.60916 -3.01361,-3.51095 -3.94986,-5.70536 -0.90702,-2.19432 -1.36052,-4.62276 -1.36052,-7.28531 0,-4.97385 1.81401,-9.09925 5.44205,-12.37624 3.65726,-3.27687 8.33858,-4.91533 14.04396,-4.91539 7.43157,6e-5 12.88824,1.38983 16.37,4.1693 l -3.4671,9.83078 c -4.00842,-2.86726 -8.23623,-4.3009 -12.68346,-4.30097 -2.63326,7e-5 -4.68135,0.70226 -6.14424,2.1066 -1.43367,1.3752 -2.15049,3.17457 -2.15048,5.39815 -10e-6,3.68659 4.0815,7.51942 12.24458,11.4985 4.30094,2.10664 7.40231,4.05231 9.30414,5.83703 1.90174,1.75552 3.35003,3.81822 4.34485,6.18812 0.99474,2.34069 1.49212,4.95929 1.49217,7.85585 -5e-5,5.20797 -2.06275,9.49431 -6.18812,12.859 -4.0962,3.3647 -9.59675,5.04706 -16.50166,5.04706 -5.99796,0 -11.41075,-1.5507 -16.23835,-4.65207"
       id="path4135" />
    <path
       id="text6407"
       d="m 246.14021,330.25668 4.21319,-10.22576 c 4.50577,3.1599 8.93839,4.73984 13.29789,4.73983 6.70011,10e-6 10.05018,-2.34065 10.05021,-7.02199 -3e-5,-2.19434 -0.79,-4.2863 -2.36992,-6.27589 -1.57998,-1.98954 -4.84226,-4.21317 -9.78689,-6.67089 -4.9154,-2.48691 -8.23622,-4.52037 -9.96244,-6.10035 -1.69698,-1.60916 -3.01361,-3.51095 -3.94986,-5.70536 -0.90702,-2.19432 -1.36052,-4.62276 -1.36052,-7.28531 0,-4.97385 1.81401,-9.09925 5.44205,-12.37624 3.65726,-3.27687 8.33858,-4.91533 14.04396,-4.91539 7.43157,6e-5 12.88824,1.38983 16.37,4.1693 l -3.4671,9.83078 c -4.00842,-2.86726 -8.23623,-4.3009 -12.68346,-4.30097 -2.63326,7e-5 -4.68135,0.70226 -6.14424,2.1066 -1.43367,1.3752 -2.15049,3.17457 -2.15048,5.39815 -10e-6,3.68659 4.0815,7.51942 12.24458,11.4985 4.30094,2.10664 7.40231,4.05231 9.30414,5.83703 1.90174,1.75552 3.35003,3.81822 4.34485,6.18812 0.99474,2.34069 1.49212,4.95929 1.49217,7.85585 -5e-5,5.20797 -2.06275,9.49431 -6.18812,12.859 -4.0962,3.3647 -9.59675,5.04706 -16.50166,5.04706 -5.99796,0 -11.41075,-1.5507 -16.23835,-4.65207"
       style="font-size:72px;font-style:normal;font-weight:bold;fill:#c7e5ff;fill-opacity:1;stroke:none;font-family:Trebuchet MS" />
  </g>
  <g
     id="g4549"
     transform="translate(-101.44804,0)">
    <path
       id="text6433"
       d="m 310.17193,654.99746 c -1.93111,0.26331 -3.89141,0.39498 -5.8809,0.39499 -5.4421,-1e-5 -10.45989,-1.11182 -15.05339,-3.33544 -4.56433,-2.19438 -8.11921,-5.28113 -10.66464,-9.26024 -1.08258,0.20481 -2.82345,0.30721 -5.2226,0.30721 -8.45566,0 -15.11191,-3.1599 -19.96876,-9.47968 -4.82763,-6.31977 -7.24143,-14.45357 -7.24143,-24.40139 0,-9.42113 2.47232,-17.26234 7.41697,-23.52365 4.94463,-6.29047 11.54237,-9.43574 19.79322,-9.4358 9.27483,6e-5 16.41385,2.91126 21.41706,8.7336 5.03236,5.79318 7.54857,13.86847 7.54862,24.22585 -5e-5,15.36061 -5.03247,25.61561 -15.09726,30.76507 3.1891,3.51099 8.48485,5.26647 15.88725,5.26649 2.72094,-2e-5 5.07624,-0.29259 7.06586,-0.87776 l 0,10.62075 m -52.18212,-45.77455 c -10e-6,6.72942 1.34586,12.36164 4.03765,16.89664 2.69173,4.53504 6.46604,6.80256 11.32294,6.80255 5.61755,10e-6 9.87462,-2.07732 12.77124,-6.23201 2.89652,-4.15466 4.3448,-9.97704 4.34485,-17.46718 -5e-5,-15.185 -5.70541,-22.77751 -17.11609,-22.77757 -5.03244,6e-5 -8.85064,2.0335 -11.45461,6.10035 -2.604,4.06695 -3.90599,9.62601 -3.90598,16.67722"
       style="font-size:72px;font-style:normal;font-weight:bold;fill:#000000;fill-opacity:1;stroke:none;filter:url(#filter4445);font-family:Trebuchet MS" />
    <path
       style="font-size:72px;font-style:normal;font-weight:bold;fill:#c7e5ff;fill-opacity:1;stroke:none;font-family:Trebuchet MS"
       d="m 310.17193,654.99746 c -1.93111,0.26331 -3.89141,0.39498 -5.8809,0.39499 -5.4421,-1e-5 -10.45989,-1.11182 -15.05339,-3.33544 -4.56433,-2.19438 -8.11921,-5.28113 -10.66464,-9.26024 -1.08258,0.20481 -2.82345,0.30721 -5.2226,0.30721 -8.45566,0 -15.11191,-3.1599 -19.96876,-9.47968 -4.82763,-6.31977 -7.24143,-14.45357 -7.24143,-24.40139 0,-9.42113 2.47232,-17.26234 7.41697,-23.52365 4.94463,-6.29047 11.54237,-9.43574 19.79322,-9.4358 9.27483,6e-5 16.41385,2.91126 21.41706,8.7336 5.03236,5.79318 7.54857,13.86847 7.54862,24.22585 -5e-5,15.36061 -5.03247,25.61561 -15.09726,30.76507 3.1891,3.51099 8.48485,5.26647 15.88725,5.26649 2.72094,-2e-5 5.07624,-0.29259 7.06586,-0.87776 l 0,10.62075 m -52.18212,-45.77455 c -10e-6,6.72942 1.34586,12.36164 4.03765,16.89664 2.69173,4.53504 6.46604,6.80256 11.32294,6.80255 5.61755,10e-6 9.87462,-2.07732 12.77124,-6.23201 2.89652,-4.15466 4.3448,-9.97704 4.34485,-17.46718 -5e-5,-15.185 -5.70541,-22.77751 -17.11609,-22.77757 -5.03244,6e-5 -8.85064,2.0335 -11.45461,6.10035 -2.604,4.06695 -3.90599,9.62601 -3.90598,16.67722"
       id="path4203" />
  </g>
  <text
     xml:space="preserve"
     style="font-size:40px;font-style:normal;font-weight:normal;fill:#000000;fill-opacity:1;stroke:none;font-family:Bitstream Vera Sans"
     x="188.65744"
     y="328.91348"
     id="text4533"><tspan
       sodipodi:role="line"
       id="tspan4535"
       x="188.65744"
       y="328.91348">ing</tspan></text>
  <text
     id="text4537"
     y="433.33768"
     x="187.80676"
     style="font-size:40px;font-style:normal;font-weight:normal;fill:#000000;fill-opacity:1;stroke:none;font-family:Bitstream Vera Sans"
     xml:space="preserve"><tspan
       y="433.33768"
       x="187.80676"
       id="tspan4539"
       sodipodi:role="line">ractice</tspan></text>
  <text
     xml:space="preserve"
     style="font-size:40px;font-style:normal;font-weight:normal;fill:#000000;fill-opacity:1;stroke:none;font-family:Bitstream Vera Sans"
     x="210.15088"
     y="634.51984"
     id="text4541"><tspan
       sodipodi:role="line"
       id="tspan4543"
       x="210.15088"
       y="634.51984">uit</tspan></text>
  <text
     id="text4553"
     y="532.72748"
     x="199.50809"
     style="font-size:40px;font-style:normal;font-weight:normal;fill:#000000;fill-opacity:1;stroke:none;font-family:Bitstream Vera Sans"
     xml:space="preserve"><tspan
       y="532.72748"
       x="199.50809"
       id="tspan4555"
       sodipodi:role="line">onfigure</tspan></text>
</svg>
