<?xml version="1.0" encoding="UTF-8" standalone="no"?>
<!-- Created with Sodipodi ("http://www.sodipodi.com/") -->

<svg
   xmlns:dc="http://purl.org/dc/elements/1.1/"
   xmlns:cc="http://creativecommons.org/ns#"
   xmlns:rdf="http://www.w3.org/1999/02/22-rdf-syntax-ns#"
   xmlns:svg="http://www.w3.org/2000/svg"
   xmlns="http://www.w3.org/2000/svg"
   xmlns:xlink="http://www.w3.org/1999/xlink"
   xmlns:sodipodi="http://sodipodi.sourceforge.net/DTD/sodipodi-0.dtd"
   xmlns:inkscape="http://www.inkscape.org/namespaces/inkscape"
   version="1.0"
   x="0"
   y="0"
   width="1000"
   height="800"
   id="svg559"
   sodipodi:version="0.32"
   inkscape:version="0.47pre4 r22446"
   sodipodi:docname="intro_quit.svg"
   inkscape:output_extension="org.inkscape.output.svg.inkscape">
  <metadata
     id="metadata35">
    <rdf:RDF>
      <cc:Work
         rdf:about="">
        <dc:format>image/svg+xml</dc:format>
        <dc:type
           rdf:resource="http://purl.org/dc/dcmitype/StillImage" />
        <dc:title />
      </cc:Work>
    </rdf:RDF>
  </metadata>
  <sodipodi:namedview
     inkscape:window-height="726"
     inkscape:window-width="1280"
     inkscape:pageshadow="2"
     inkscape:pageopacity="0.0"
     guidetolerance="10.0"
     gridtolerance="10.0"
     objecttolerance="10.0"
     borderopacity="1.0"
     bordercolor="#666666"
     pagecolor="#ffffff"
     id="base"
     inkscape:zoom="0.87006002"
     inkscape:cx="573.64705"
     inkscape:cy="284.71991"
     inkscape:window-x="0"
     inkscape:window-y="25"
     inkscape:current-layer="svg559"
     showgrid="false"
     showguides="true"
     inkscape:guide-bbox="true"
     inkscape:window-maximized="1" />
  <defs
     id="defs561">
    <linearGradient
       id="linearGradient4557">
      <stop
         style="stop-color:#ffffff;stop-opacity:1;"
         offset="0"
         id="stop4559" />
      <stop
         style="stop-color:#0300da;stop-opacity:1;"
         offset="1"
         id="stop4561" />
    </linearGradient>
    <linearGradient
       id="linearGradient3945">
      <stop
         style="stop-color:#ffffff;stop-opacity:1;"
         offset="0"
         id="stop3947" />
      <stop
         style="stop-color:#ffffff;stop-opacity:0;"
         offset="1"
         id="stop3949" />
    </linearGradient>
    <inkscape:perspective
       sodipodi:type="inkscape:persp3d"
       inkscape:vp_x="0 : 400 : 1"
       inkscape:vp_y="0 : 1000 : 0"
       inkscape:vp_z="1000 : 400 : 1"
       inkscape:persp3d-origin="500 : 266.66667 : 1"
       id="perspective62" />
    <linearGradient
       id="linearGradient6053">
      <stop
         style="stop-color:#000000;stop-opacity:1;"
         offset="0"
         id="stop6055" />
      <stop
         style="stop-color:#5f5f5f;stop-opacity:1;"
         offset="1"
         id="stop6057" />
    </linearGradient>
    <linearGradient
       id="linearGradient6499"
       inkscape:collect="always">
      <stop
         id="stop6501"
         offset="0"
         style="stop-color:white;stop-opacity:1;" />
      <stop
         id="stop6503"
         offset="1"
         style="stop-color:white;stop-opacity:0;" />
    </linearGradient>
    <linearGradient
       inkscape:collect="always"
       xlink:href="#linearGradient6499"
       id="linearGradient3245"
       gradientUnits="userSpaceOnUse"
       gradientTransform="matrix(0.8327515,0,0,-0.6476426,-48.09403,12.672202)"
       x1="311.95688"
       y1="-116.67703"
       x2="311.95688"
       y2="-276.41519" />
    <linearGradient
       inkscape:collect="always"
       xlink:href="#linearGradient6499"
       id="linearGradient4108"
       gradientUnits="userSpaceOnUse"
       gradientTransform="matrix(1.3544445,0,0,2.1795864,31.621862,47.089759)"
       x1="44.868057"
       y1="260.4765"
       x2="358.07056"
       y2="260.4765" />
    <linearGradient
       inkscape:collect="always"
       xlink:href="#linearGradient6499"
       id="linearGradient4121"
       gradientUnits="userSpaceOnUse"
       gradientTransform="matrix(1.2483528,0,0,1.0242885,40.754503,133.62899)"
       x1="44.868057"
       y1="260.4765"
       x2="358.07056"
       y2="260.4765" />
    <linearGradient
       inkscape:collect="always"
       xlink:href="#linearGradient6499"
       id="linearGradient4127"
       gradientUnits="userSpaceOnUse"
       gradientTransform="matrix(1.2483528,0,0,1.0242885,40.754503,340.11416)"
       x1="44.868057"
       y1="260.4765"
       x2="358.07056"
       y2="260.4765" />
    <linearGradient
       inkscape:collect="always"
       xlink:href="#linearGradient6499"
       id="linearGradient4133"
       gradientUnits="userSpaceOnUse"
       gradientTransform="matrix(1.2483528,0,0,1.0242885,39.887975,233.1463)"
       x1="44.868057"
       y1="260.4765"
       x2="358.07056"
       y2="260.4765" />
    <filter
       inkscape:collect="always"
       id="filter4397"
       x="-0.14167116"
       width="1.2833423"
       y="-0.10407921"
       height="1.2081584">
      <feGaussianBlur
         inkscape:collect="always"
         stdDeviation="2.8834025"
         id="feGaussianBlur4399" />
    </filter>
    <filter
       inkscape:collect="always"
       id="filter4445"
       x="-0.13414668"
       width="1.2682934"
       y="-0.10855241"
       height="1.2171048">
      <feGaussianBlur
         inkscape:collect="always"
         stdDeviation="3.5790177"
         id="feGaussianBlur4447" />
    </filter>
    <filter
       inkscape:collect="always"
       id="filter4489"
       x="-0.15104939"
       width="1.3020988"
       y="-0.099538981"
       height="1.199078">
      <feGaussianBlur
         inkscape:collect="always"
         stdDeviation="2.6848123"
         id="feGaussianBlur4491" />
    </filter>
    <filter
       inkscape:collect="always"
       id="filter4529"
       x="-0.16248027"
       width="1.3249605"
       y="-0.095128714"
       height="1.1902574">
      <feGaussianBlur
         inkscape:collect="always"
         stdDeviation="2.6354387"
         id="feGaussianBlur4531" />
    </filter>
  </defs>
  <rect
     y="567.11798"
     x="177.56271"
     height="95.40773"
     width="337.48822"
     id="rect6405"
     style="fill:url(#linearGradient4108);fill-opacity:1;fill-rule:nonzero;stroke:none;stroke-width:2.29999995;marker:none;visibility:visible;display:inline;overflow:visible" />
  <text
     xml:space="preserve"
     style="font-size:24.89476013px;font-style:normal;font-weight:normal;fill:#000000;fill-opacity:1;stroke:none;stroke-width:1px;stroke-linecap:butt;stroke-linejoin:miter;stroke-opacity:1;font-family:Bitstream Vera Sans"
     x="266.96185"
     y="759.88806"
     id="text2508"><tspan
       sodipodi:role="line"
       id="tspan2510"
       x="266.96185"
       y="759.88806" /></text>
  <path
     id="path4143"
     d="M 260.62306,411.55911 L 260.62306,435.21443 L 249.21233,435.21443 L 249.21233,370.96327 C 256.81947,370.64149 261.26672,370.48057 262.5541,370.4805 C 272.70669,370.48057 280.12365,372.04589 284.80501,375.17646 C 289.51555,378.27789 291.87084,383.13476 291.87089,389.74707 C 291.87084,404.49327 283.18114,411.86635 265.80176,411.86632 C 264.51439,411.86635 262.78815,411.76394 260.62306,411.55911 M 260.62306,380.83794 L 260.62306,401.42113 C 262.55409,401.62597 264.0755,401.72837 265.18735,401.72834 C 270.39529,401.72837 274.19886,400.86525 276.59807,399.13898 C 278.99722,397.38352 280.19679,394.54548 280.19683,390.62482 C 280.19679,383.95399 274.82792,380.61855 264.09016,380.61849 C 262.89056,380.61855 261.73486,380.69169 260.62306,380.83794"
     style="font-size:72px;font-style:normal;font-weight:bold;fill:#000000;fill-opacity:1;stroke:none;stroke-width:3.12088203000000020;stroke-linecap:butt;stroke-linejoin:bevel;stroke-miterlimit:4;stroke-opacity:1;font-family:Trebuchet MS;filter:url(#filter4489)" />
  <path
     style="font-size:72px;font-style:normal;font-weight:bold;fill:#c7e5ff;fill-opacity:1;stroke:none;stroke-width:3.12088203000000020;stroke-linecap:butt;stroke-linejoin:bevel;stroke-miterlimit:4;stroke-opacity:1;font-family:Trebuchet MS"
     d="M 260.62306,411.55911 L 260.62306,435.21443 L 249.21233,435.21443 L 249.21233,370.96327 C 256.81947,370.64149 261.26672,370.48057 262.5541,370.4805 C 272.70669,370.48057 280.12365,372.04589 284.80501,375.17646 C 289.51555,378.27789 291.87084,383.13476 291.87089,389.74707 C 291.87084,404.49327 283.18114,411.86635 265.80176,411.86632 C 264.51439,411.86635 262.78815,411.76394 260.62306,411.55911 M 260.62306,380.83794 L 260.62306,401.42113 C 262.55409,401.62597 264.0755,401.72837 265.18735,401.72834 C 270.39529,401.72837 274.19886,400.86525 276.59807,399.13898 C 278.99722,397.38352 280.19679,394.54548 280.19683,390.62482 C 280.19679,383.95399 274.82792,380.61855 264.09016,380.61849 C 262.89056,380.61855 261.73486,380.69169 260.62306,380.83794"
     id="text5379" />
  <path
     style="font-size:72px;font-style:normal;font-weight:bold;fill:#000000;fill-opacity:1;stroke:none;filter:url(#filter4397);font-family:Trebuchet MS"
     d="m 284.36335,476.15859 -4.69596,9.4358 c -2.54551,-2.54542 -6.64167,-3.81815 -12.28847,-3.81821 -5.3543,6e-5 -9.74303,2.25294 -13.16623,6.75865 -3.42323,4.47657 -5.13483,10.15267 -5.13482,17.02832 -1e-5,6.87572 1.57993,12.33238 4.73984,16.37 3.18913,4.03765 7.43157,6.05647 12.72735,6.05646 6.05642,10e-6 10.79625,-2.16509 14.21951,-6.49533 l 5.31038,9.21635 c -4.65211,4.94465 -11.46928,7.41698 -20.45153,7.41698 -8.98231,0 -15.9604,-2.95509 -20.93429,-8.86527 -4.97391,-5.91015 -7.46086,-13.9708 -7.46086,-24.18195 0,-9.50889 2.75027,-17.45251 8.25083,-23.83086 5.5298,-6.4075 12.59566,-9.61128 21.19762,-9.61134 7.37305,6e-5 13.26858,1.50686 17.68663,4.5204"
     id="text6375" />
  <path
     id="path4225"
     d="m 286.66204,473.8599 -4.69596,9.4358 c -2.54551,-2.54542 -6.64167,-3.81815 -12.28847,-3.81821 -5.3543,6e-5 -9.74303,2.25294 -13.16623,6.75865 -3.42323,4.47657 -5.13483,10.15267 -5.13482,17.02832 -1e-5,6.87572 1.57993,12.33238 4.73984,16.37 3.18913,4.03765 7.43157,6.05647 12.72735,6.05646 6.05642,10e-6 10.79625,-2.16509 14.21951,-6.49533 l 5.31038,9.21635 c -4.65211,4.94465 -11.46928,7.41698 -20.45153,7.41698 -8.98231,0 -15.9604,-2.95509 -20.93429,-8.86527 -4.97391,-5.91015 -7.46086,-13.9708 -7.46086,-24.18195 0,-9.50889 2.75027,-17.45251 8.25083,-23.83086 5.5298,-6.4075 12.59566,-9.61128 21.19762,-9.61134 7.37305,6e-5 13.26858,1.50686 17.68663,4.5204"
     style="font-size:72px;font-style:normal;font-weight:bold;fill:#c7e5ff;fill-opacity:1;stroke:none;font-family:Trebuchet MS" />
  <path
     id="path4135"
     d="M 246.14021,330.25668 L 250.3534,320.03092 C 254.85917,323.19082 259.29179,324.77076 263.65129,324.77075 C 270.3514,324.77076 273.70147,322.4301 273.7015,317.74876 C 273.70147,315.55442 272.9115,313.46246 271.33158,311.47287 C 269.7516,309.48333 266.48932,307.2597 261.54469,304.80198 C 256.62929,302.31507 253.30847,300.28161 251.58225,298.70163 C 249.88527,297.09247 248.56864,295.19068 247.63239,292.99627 C 246.72537,290.80195 246.27187,288.37351 246.27187,285.71096 C 246.27187,280.73711 248.08588,276.61171 251.71392,273.33472 C 255.37118,270.05785 260.0525,268.41939 265.75788,268.41933 C 273.18945,268.41939 278.64612,269.80916 282.12788,272.58863 L 278.66078,282.41941 C 274.65236,279.55215 270.42455,278.11851 265.97732,278.11844 C 263.34406,278.11851 261.29597,278.8207 259.83308,280.22504 C 258.39941,281.60024 257.68259,283.39961 257.6826,285.62319 C 257.68259,289.30978 261.7641,293.14261 269.92718,297.12169 C 274.22812,299.22833 277.32949,301.174 279.23132,302.95872 C 281.13306,304.71424 282.58135,306.77694 283.57617,309.14684 C 284.57091,311.48753 285.06829,314.10613 285.06834,317.00269 C 285.06829,322.21066 283.00559,326.497 278.88022,329.86169 C 274.78402,333.22639 269.28347,334.90875 262.37856,334.90875 C 256.3806,334.90875 250.96781,333.35805 246.14021,330.25668"
     style="font-size:72px;font-style:normal;font-weight:bold;fill:#000000;fill-opacity:1;stroke:none;stroke-width:3.12088203000000020;stroke-linecap:butt;stroke-linejoin:bevel;stroke-miterlimit:4;stroke-opacity:1;font-family:Trebuchet MS;filter:url(#filter4529);opacity:1" />
  <path
     style="font-size:72px;font-style:normal;font-weight:bold;fill:#c7e5ff;fill-opacity:1;stroke:none;stroke-width:3.12088203000000020;stroke-linecap:butt;stroke-linejoin:bevel;stroke-miterlimit:4;stroke-opacity:1;font-family:Trebuchet MS"
     d="M 246.14021,330.25668 L 250.3534,320.03092 C 254.85917,323.19082 259.29179,324.77076 263.65129,324.77075 C 270.3514,324.77076 273.70147,322.4301 273.7015,317.74876 C 273.70147,315.55442 272.9115,313.46246 271.33158,311.47287 C 269.7516,309.48333 266.48932,307.2597 261.54469,304.80198 C 256.62929,302.31507 253.30847,300.28161 251.58225,298.70163 C 249.88527,297.09247 248.56864,295.19068 247.63239,292.99627 C 246.72537,290.80195 246.27187,288.37351 246.27187,285.71096 C 246.27187,280.73711 248.08588,276.61171 251.71392,273.33472 C 255.37118,270.05785 260.0525,268.41939 265.75788,268.41933 C 273.18945,268.41939 278.64612,269.80916 282.12788,272.58863 L 278.66078,282.41941 C 274.65236,279.55215 270.42455,278.11851 265.97732,278.11844 C 263.34406,278.11851 261.29597,278.8207 259.83308,280.22504 C 258.39941,281.60024 257.68259,283.39961 257.6826,285.62319 C 257.68259,289.30978 261.7641,293.14261 269.92718,297.12169 C 274.22812,299.22833 277.32949,301.174 279.23132,302.95872 C 281.13306,304.71424 282.58135,306.77694 283.57617,309.14684 C 284.57091,311.48753 285.06829,314.10613 285.06834,317.00269 C 285.06829,322.21066 283.00559,326.497 278.88022,329.86169 C 274.78402,333.22639 269.28347,334.90875 262.37856,334.90875 C 256.3806,334.90875 250.96781,333.35805 246.14021,330.25668"
     id="text6407" />
  <g
     id="g4549"
     transform="translate(-3.448038,0)">
    <path
       id="text6433"
       d="M 310.17193,654.99746 C 308.24082,655.26077 306.28052,655.39244 304.29103,655.39245 C 298.84893,655.39244 293.83114,654.28063 289.23764,652.05701 C 284.67331,649.86263 281.11843,646.77588 278.573,642.79677 C 277.49042,643.00158 275.74955,643.10398 273.3504,643.10398 C 264.89474,643.10398 258.23849,639.94408 253.38164,633.6243 C 248.55401,627.30453 246.14021,619.17073 246.14021,609.22291 C 246.14021,599.80178 248.61253,591.96057 253.55718,585.69926 C 258.50181,579.40879 265.09955,576.26352 273.3504,576.26346 C 282.62523,576.26352 289.76425,579.17472 294.76746,584.99706 C 299.79982,590.79024 302.31603,598.86553 302.31608,609.22291 C 302.31603,624.58352 297.28361,634.83852 287.21882,639.98798 C 290.40792,643.49897 295.70367,645.25445 303.10607,645.25447 C 305.82701,645.25445 308.18231,644.96188 310.17193,644.37671 L 310.17193,654.99746 M 257.98981,609.22291 C 257.9898,615.95233 259.33567,621.58455 262.02746,626.11955 C 264.71919,630.65459 268.4935,632.92211 273.3504,632.9221 C 278.96795,632.92211 283.22502,630.84478 286.12164,626.69009 C 289.01816,622.53543 290.46644,616.71305 290.46649,609.22291 C 290.46644,594.03791 284.76108,586.4454 273.3504,586.44534 C 268.31796,586.4454 264.49976,588.47884 261.89579,592.54569 C 259.29179,596.61264 257.9898,602.1717 257.98981,609.22291"
       style="font-size:72px;font-style:normal;font-weight:bold;fill:#000000;fill-opacity:1;stroke:none;stroke-width:3.12088203;stroke-linecap:butt;stroke-linejoin:bevel;stroke-miterlimit:4;stroke-opacity:1;filter:url(#filter4445);font-family:Trebuchet MS" />
    <path
       style="font-size:72px;font-style:normal;font-weight:bold;fill:#c7e5ff;fill-opacity:1;stroke:none;stroke-width:3.12088203;stroke-linecap:butt;stroke-linejoin:bevel;stroke-miterlimit:4;stroke-opacity:1;font-family:Trebuchet MS"
       d="M 310.17193,654.99746 C 308.24082,655.26077 306.28052,655.39244 304.29103,655.39245 C 298.84893,655.39244 293.83114,654.28063 289.23764,652.05701 C 284.67331,649.86263 281.11843,646.77588 278.573,642.79677 C 277.49042,643.00158 275.74955,643.10398 273.3504,643.10398 C 264.89474,643.10398 258.23849,639.94408 253.38164,633.6243 C 248.55401,627.30453 246.14021,619.17073 246.14021,609.22291 C 246.14021,599.80178 248.61253,591.96057 253.55718,585.69926 C 258.50181,579.40879 265.09955,576.26352 273.3504,576.26346 C 282.62523,576.26352 289.76425,579.17472 294.76746,584.99706 C 299.79982,590.79024 302.31603,598.86553 302.31608,609.22291 C 302.31603,624.58352 297.28361,634.83852 287.21882,639.98798 C 290.40792,643.49897 295.70367,645.25445 303.10607,645.25447 C 305.82701,645.25445 308.18231,644.96188 310.17193,644.37671 L 310.17193,654.99746 M 257.98981,609.22291 C 257.9898,615.95233 259.33567,621.58455 262.02746,626.11955 C 264.71919,630.65459 268.4935,632.92211 273.3504,632.9221 C 278.96795,632.92211 283.22502,630.84478 286.12164,626.69009 C 289.01816,622.53543 290.46644,616.71305 290.46649,609.22291 C 290.46644,594.03791 284.76108,586.4454 273.3504,586.44534 C 268.31796,586.4454 264.49976,588.47884 261.89579,592.54569 C 259.29179,596.61264 257.9898,602.1717 257.98981,609.22291"
       id="path4203" />
  </g>
  <text
     xml:space="preserve"
     style="font-size:40px;font-style:normal;font-weight:normal;fill:#000000;fill-opacity:1;stroke:none;font-family:Bitstream Vera Sans"
     x="292.65744"
     y="328.46463"
     id="text4533"><tspan
       sodipodi:role="line"
       id="tspan4535"
       x="292.65744"
       y="328.46463">ing</tspan></text>
  <text
     id="text4537"
     y="429.24072"
     x="293.80676"
     style="font-size:40px;font-style:normal;font-weight:normal;fill:#000000;fill-opacity:1;stroke:none;font-family:Bitstream Vera Sans"
     xml:space="preserve"><tspan
       y="429.24072"
       x="293.80676"
       id="tspan4539"
       sodipodi:role="line">ractice</tspan></text>
  <text
     xml:space="preserve"
     style="font-size:40px;font-style:normal;font-weight:normal;fill:#000000;fill-opacity:1;stroke:none;font-family:Bitstream Vera Sans"
     x="304.15088"
     y="634.51984"
     id="text4541"><tspan
       sodipodi:role="line"
       id="tspan4543"
       x="304.15088"
       y="634.51984">uit</tspan></text>
  <text
     id="text4553"
     y="527.63062"
     x="291.50809"
     style="font-size:40px;font-style:normal;font-weight:normal;fill:#000000;fill-opacity:1;stroke:none;font-family:Bitstream Vera Sans"
     xml:space="preserve"><tspan
       y="527.63062"
       x="291.50809"
       id="tspan4555"
       sodipodi:role="line">onfigure</tspan></text>
</svg>
