<?xml version="1.0" encoding="UTF-8" standalone="no"?>
<!-- Created with Sodipodi ("http://www.sodipodi.com/") -->

<svg
   xmlns:dc="http://purl.org/dc/elements/1.1/"
   xmlns:cc="http://creativecommons.org/ns#"
   xmlns:rdf="http://www.w3.org/1999/02/22-rdf-syntax-ns#"
   xmlns:svg="http://www.w3.org/2000/svg"
   xmlns="http://www.w3.org/2000/svg"
   xmlns:xlink="http://www.w3.org/1999/xlink"
   xmlns:sodipodi="http://sodipodi.sourceforge.net/DTD/sodipodi-0.dtd"
   xmlns:inkscape="http://www.inkscape.org/namespaces/inkscape"
   version="1.0"
   x="0"
   y="0"
   width="1000"
   height="800"
   id="svg559"
   sodipodi:version="0.32"
   inkscape:version="0.47pre4 r22446"
   sodipodi:docname="intro_sing.svg"
   inkscape:output_extension="org.inkscape.output.svg.inkscape">
  <metadata
     id="metadata35">
    <rdf:RDF>
      <cc:Work
         rdf:about="">
        <dc:format>image/svg+xml</dc:format>
        <dc:type
           rdf:resource="http://purl.org/dc/dcmitype/StillImage" />
        <dc:title />
      </cc:Work>
    </rdf:RDF>
  </metadata>
  <sodipodi:namedview
     inkscape:window-height="726"
     inkscape:window-width="1280"
     inkscape:pageshadow="2"
     inkscape:pageopacity="0.0"
     guidetolerance="10.0"
     gridtolerance="10.0"
     objecttolerance="10.0"
     borderopacity="1.0"
     bordercolor="#666666"
     pagecolor="#ffffff"
     id="base"
     inkscape:zoom="0.43503001"
     inkscape:cx="134.29335"
     inkscape:cy="407.61507"
     inkscape:window-x="0"
     inkscape:window-y="25"
     inkscape:current-layer="g3955"
     showgrid="false"
     showguides="true"
     inkscape:guide-bbox="true"
     inkscape:window-maximized="1" />
  <defs
     id="defs561">
    <linearGradient
       id="linearGradient4557">
      <stop
         style="stop-color:#ffffff;stop-opacity:1;"
         offset="0"
         id="stop4559" />
      <stop
         style="stop-color:#0300da;stop-opacity:1;"
         offset="1"
         id="stop4561" />
    </linearGradient>
    <linearGradient
       id="linearGradient3945">
      <stop
         style="stop-color:#ffffff;stop-opacity:1;"
         offset="0"
         id="stop3947" />
      <stop
         style="stop-color:#ffffff;stop-opacity:0;"
         offset="1"
         id="stop3949" />
    </linearGradient>
    <inkscape:perspective
       sodipodi:type="inkscape:persp3d"
       inkscape:vp_x="0 : 400 : 1"
       inkscape:vp_y="0 : 1000 : 0"
       inkscape:vp_z="1000 : 400 : 1"
       inkscape:persp3d-origin="500 : 266.66667 : 1"
       id="perspective62" />
    <linearGradient
       id="linearGradient6053">
      <stop
         style="stop-color:#000000;stop-opacity:1;"
         offset="0"
         id="stop6055" />
      <stop
         style="stop-color:#5f5f5f;stop-opacity:1;"
         offset="1"
         id="stop6057" />
    </linearGradient>
    <linearGradient
       id="linearGradient6499"
       inkscape:collect="always">
      <stop
         id="stop6501"
         offset="0"
         style="stop-color:white;stop-opacity:1;" />
      <stop
         id="stop6503"
         offset="1"
         style="stop-color:white;stop-opacity:0;" />
    </linearGradient>
    <linearGradient
       inkscape:collect="always"
       xlink:href="#linearGradient6499"
       id="linearGradient3245"
       gradientUnits="userSpaceOnUse"
       gradientTransform="matrix(0.8327515,0,0,-0.6476426,-48.09403,12.672202)"
       x1="311.95688"
       y1="-116.67703"
       x2="311.95688"
       y2="-276.41519" />
    <linearGradient
       inkscape:collect="always"
       xlink:href="#linearGradient6499"
       id="linearGradient4108"
       gradientUnits="userSpaceOnUse"
       gradientTransform="matrix(1.3544445,0,0,1.7332213,31.621862,51.58815)"
       x1="44.868057"
       y1="260.4765"
       x2="358.07056"
       y2="260.4765" />
    <linearGradient
       inkscape:collect="always"
       xlink:href="#linearGradient6499"
       id="linearGradient4121"
       gradientUnits="userSpaceOnUse"
       gradientTransform="matrix(1.2483528,0,0,1.0242885,40.754503,133.62899)"
       x1="44.868057"
       y1="260.4765"
       x2="358.07056"
       y2="260.4765" />
    <linearGradient
       inkscape:collect="always"
       xlink:href="#linearGradient6499"
       id="linearGradient4127"
       gradientUnits="userSpaceOnUse"
       gradientTransform="matrix(1.2483528,0,0,1.0242885,40.754503,340.11416)"
       x1="44.868057"
       y1="260.4765"
       x2="358.07056"
       y2="260.4765" />
    <linearGradient
       inkscape:collect="always"
       xlink:href="#linearGradient6499"
       id="linearGradient4133"
       gradientUnits="userSpaceOnUse"
       gradientTransform="matrix(1.2483528,0,0,1.0242885,39.887975,233.1463)"
       x1="44.868057"
       y1="260.4765"
       x2="358.07056"
       y2="260.4765" />
    <inkscape:perspective
       id="perspective2871"
       inkscape:persp3d-origin="0.5 : 0.33333333 : 1"
       inkscape:vp_z="1 : 0.5 : 1"
       inkscape:vp_y="0 : 1000 : 0"
       inkscape:vp_x="0 : 0.5 : 1"
       sodipodi:type="inkscape:persp3d" />
    <linearGradient
       inkscape:collect="always"
       xlink:href="#linearGradient3751"
       id="linearGradient2518"
       gradientUnits="userSpaceOnUse"
       gradientTransform="matrix(0.9434139,0,0,0.9434139,62.279262,39.359798)"
       x1="665.12128"
       y1="684.16162"
       x2="381.28015"
       y2="449.80624" />
    <linearGradient
       id="linearGradient3751">
      <stop
         id="stop3753"
         offset="0"
         style="stop-color:black;stop-opacity:1;" />
      <stop
         id="stop3755"
         offset="1"
         style="stop-color:black;stop-opacity:0;" />
    </linearGradient>
    <inkscape:perspective
       id="perspective2871-4"
       inkscape:persp3d-origin="0.5 : 0.33333333 : 1"
       inkscape:vp_z="1 : 0.5 : 1"
       inkscape:vp_y="0 : 1000 : 0"
       inkscape:vp_x="0 : 0.5 : 1"
       sodipodi:type="inkscape:persp3d" />
    <linearGradient
       inkscape:collect="always"
       xlink:href="#linearGradient6499-1"
       id="linearGradient4108-1"
       gradientUnits="userSpaceOnUse"
       gradientTransform="matrix(1.3544445,0,0,1.7332213,31.621862,-148.41185)"
       x1="44.868057"
       y1="260.4765"
       x2="358.07056"
       y2="260.4765" />
    <linearGradient
       id="linearGradient6499-1">
      <stop
         id="stop6501-3"
         offset="0"
         style="stop-color:#000000;stop-opacity:1;" />
      <stop
         id="stop6503-0"
         offset="1"
         style="stop-color:white;stop-opacity:0;" />
    </linearGradient>
    <inkscape:perspective
       id="perspective2849"
       inkscape:persp3d-origin="0.5 : 0.33333333 : 1"
       inkscape:vp_z="1 : 0.5 : 1"
       inkscape:vp_y="0 : 1000 : 0"
       inkscape:vp_x="0 : 0.5 : 1"
       sodipodi:type="inkscape:persp3d" />
    <inkscape:perspective
       id="perspective2854"
       inkscape:persp3d-origin="0.5 : 0.33333333 : 1"
       inkscape:vp_z="1 : 0.5 : 1"
       inkscape:vp_y="0 : 1000 : 0"
       inkscape:vp_x="0 : 0.5 : 1"
       sodipodi:type="inkscape:persp3d" />
    <linearGradient
       y2="260.4765"
       x2="358.07056"
       y1="260.4765"
       x1="44.868057"
       gradientTransform="matrix(1.3544445,0,0,1.8513768,-45.940851,-180.28458)"
       gradientUnits="userSpaceOnUse"
       id="linearGradient2880"
       xlink:href="#linearGradient6499-1-4"
       inkscape:collect="always" />
    <linearGradient
       id="linearGradient6499-1-4">
      <stop
         id="stop6501-3-4"
         offset="0"
         style="stop-color:#ffffff;stop-opacity:1;" />
      <stop
         id="stop6503-0-4"
         offset="1"
         style="stop-color:white;stop-opacity:0;" />
    </linearGradient>
    <linearGradient
       y2="260.4765"
       x2="358.07056"
       y1="260.4765"
       x1="44.868057"
       gradientTransform="matrix(1.3544445,0,0,1.8513768,-45.940837,-180.2845)"
       gradientUnits="userSpaceOnUse"
       id="linearGradient2863"
       xlink:href="#linearGradient6499-1-4"
       inkscape:collect="always" />
    <inkscape:perspective
       id="perspective4038"
       inkscape:persp3d-origin="0.5 : 0.33333333 : 1"
       inkscape:vp_z="1 : 0.5 : 1"
       inkscape:vp_y="0 : 1000 : 0"
       inkscape:vp_x="0 : 0.5 : 1"
       sodipodi:type="inkscape:persp3d" />
    <filter
       inkscape:collect="always"
       id="filter4102">
      <feGaussianBlur
         inkscape:collect="always"
         stdDeviation="10.689196"
         id="feGaussianBlur4104" />
    </filter>
  </defs>
  <text
     xml:space="preserve"
     style="font-size:24.89476013px;font-style:normal;font-weight:normal;fill:#000000;fill-opacity:1;stroke:none;stroke-width:1px;stroke-linecap:butt;stroke-linejoin:miter;stroke-opacity:1;font-family:Goblin"
     x="266.96185"
     y="759.88806"
     id="text2508"><tspan
       sodipodi:role="line"
       id="tspan2510"
       x="266.96185"
       y="759.88806" /></text>
  <g
     id="g3955"
     transform="translate(-24.96631,-76.016045)">
    <path
       style="fill:#ffffff;fill-opacity:1;fill-rule:evenodd;stroke:none;stroke-width:0.67309087999999995px;stroke-linecap:butt;stroke-linejoin:miter;stroke-opacity:1;filter:url(#filter4102)"
       d="M 761.625,229.65625 C 747.39502,234.4767 736.35298,246.73304 721.0625,249 c -16.53957,6.42255 -33.9604,17.15883 -39.9375,34.84375 -3.86066,17.63507 7.05157,33.79585 13.44299,49.33403 2.71774,5.64987 5.74176,11.14072 9.18201,16.35347 -16.91479,28.10647 -26.15446,60.97532 -49.84375,84.59375 -3.28446,4.2066 -4.0471,9.91279 -6.4375,14.3125 -11.90138,8.64494 -9.39804,29.48494 3.78125,35.5 -2.72141,10.24779 -1.31106,21.30932 -0.96875,31.84375 2.27202,23.8975 7.39731,47.57451 11.28125,71.21875 4.97381,20.41324 16.81036,38.03645 27.3131,55.93202 4.48373,7.81451 9.85903,15.88888 11.1869,24.81798 -2.73561,7.05561 -11.83548,7.18003 -17.8125,10.0625 -13.11105,5.4779 -20.96481,23.52862 -11.90625,35.71875 8.26796,10.29454 22.63166,7.05398 33.84375,6.34375 5.2536,13.03691 20.58152,18.31912 33.84375,18.71875 11.36573,1.56086 22.75328,-3.18566 30.125,-11.75 9.88814,-7.66249 14.76083,-19.86674 16.75,-31.90625 2.99585,-9.27484 10.9675,-15.48299 17.34375,-22.34375 4.6177,-7.30332 6.21465,-16.08603 9.8125,-23.84375 1.25519,-4.57951 -1.48771,-8.88193 -3.96875,-12.1875 -2.31983,-8.33336 -11.11403,-12.67019 -18.34375,-15.9375 -3.49267,-0.12192 -6.83388,-1.61823 -6.875,-5.46875 -6.04457,-14.60448 -15.68837,-27.98608 -29.65625,-35.75 -3.76008,-5.49339 3.10736,-10.22909 3.125,-15.78125 -0.23194,-6.91335 4.63268,-12.62164 3.96875,-19.6875 -0.19814,-6.0761 4.58616,-10.84205 4.71875,-17.0625 0.88773,-6.01123 7.438,-8.87904 8.625,-14.90625 3.35505,-8.92733 1.82137,-18.80448 1.8125,-27.9375 2.5027,-7.35007 9.06665,-11.79115 14.15625,-17.0625 5.77283,-7.3577 6.60551,-17.60552 13.8125,-23.96875 10.98089,8.55114 27.92664,6.46787 36.9375,17.84375 6.14715,10.97305 20.23191,10.05515 30.59375,13.65625 17.6551,7.4915 35.08597,15.63863 53.125,22 8.84674,6.21187 17.85724,16.61076 29.90625,13.75 6.41713,-0.85646 10.79198,-6.15862 15.6875,-9.5 9.44961,-4.63876 12.90439,-15.83731 16,-25.0625 0.33879,-7.95067 -3.0522,-15.55504 -6.15625,-22.5625 -3.13159,-5.00263 -9.47891,-6.96099 -13.96875,-9.6875 -0.35907,-12.61942 -13.8318,-24.15218 -26.34375,-19.125 -8.36812,1.38541 -15.48913,7.08308 -23.28125,9.375 -3.54222,-0.56964 -4.23235,-3.7164 -4.8125,-6.46875 -5.72019,-10.58512 -18.96404,-12.19175 -28.11704,-18.48735 -3.29936,-1.63505 -7.12007,-3.14924 -9.91421,-5.26265 4.33219,-6.25041 2.55889,-14.59267 0.0625,-20.9375 1.70387,-6.32883 -0.22601,-13.88561 4.65625,-19.09375 2.46623,-6.0895 -2.33021,-11.72068 -2.6875,-17.5 3.65753,-7.75845 -0.26479,-17.53211 -7.53125,-21.625 -0.0204,-10.68903 -2.70341,-21.0945 -5.5625,-31.34375 -7.0238,-1.9202 -12.80876,3.28339 -17.9375,7.15625 -5.05428,-1.03242 -10.13943,0.97113 -14.46875,3.1875 -7.86171,-0.92057 -12.47989,-9.36199 -20.71875,-8.5 -2.55825,0.18376 -4.82854,0.86061 -2.6875,-2.46875 2.27733,-7.12236 0.26858,-14.82375 -2.1875,-21.40625 0.34703,-13.82765 -6.6884,-27.53577 -17.09375,-36.28125 -7.61061,-4.2492 -16.76131,-4.89974 -25.3125,-5 z M 757,293.21875 c 2.34511,6.8718 8.33581,11.94203 14.8125,14.75 -3.00278,1.86643 -5.51663,6.64448 -9.1875,3.15625 -5.2429,-2.51528 -11.79439,-6.36906 -13.6875,-11.8125 2.70289,-1.55258 5.78855,-5.62007 8.0625,-6.09375 z"
       id="path1939-0" />
    <path
       id="path1939"
       d="m 794.42889,322.92369 -13.59856,0 -2.71967,6.79924 2.71967,7.47917 -1.35984,8.15909 -6.79918,-4.07955 -5.43934,-10.19886 -11.55882,-2.71971 -4.75942,-4.75946 -10.19888,-4.75948 -11.55869,-19.03788 0.67991,-8.83902 28.55686,-21.75758 13.59837,6.11931 2.03984,4.75948 0,5.4394 3.39959,4.75946 6.79928,2.03978 4.75943,-4.07955 0.67992,-4.75947 -2.03975,-4.07954 -4.07951,-2.03977 -2.71977,-3.39963 6.11936,-2.71969 -1.35984,-6.79925 0,-4.07956 -4.07951,-4.07954 -2.03985,-6.11931 -8.15902,-2.03977 -6.79928,-1.35986 -14.27847,10.19887 -36.03596,14.27842 -8.15911,8.15909 -6.11927,4.75947 -1.35994,10.87879 2.71977,5.4394 6.79928,18.35795 8.83894,16.99811 9.51895,12.23864 -14.9583,24.47729 -16.99814,36.71591 -10.19887,16.31818 -16.99806,21.07767 -0.67992,9.51895 -8.83903,8.15908 13.59847,12.23866 -3.3996,14.27839 1.35984,31.95646 6.11926,36.71592 6.11936,32.63638 6.79918,10.87879 9.51906,19.7178 14.9583,22.43751 4.0795,14.27837 4.0796,10.19888 -12.23871,16.99811 -21.75758,8.83902 -2.03976,6.7993 41.4754,-1.35985 -6.11926,10.87876 7.47911,6.79923 19.71782,2.03981 15.63831,-13.59852 5.43944,-19.03784 8.83893,-16.31821 10.8788,-9.51893 3.39959,-10.87882 -11.55861,-0.67991 7.4791,-7.47918 -14.9583,4.75948 10.87879,-10.8788 -8.15911,-2.03977 -6.11937,-7.47917 -10.19886,-21.07766 -23.79734,-19.71781 -4.75943,-1.35984 4.75943,-4.07955 -0.67992,-11.55872 4.75952,-10.19886 -4.0796,0.67992 7.47919,-12.91856 0,-12.91857 4.75944,-6.79924 0,-8.83902 10.19886,-13.5985 0.68002,-11.5587 -2.03985,-9.51895 4.75952,-10.87879 5.43935,-8.83902 0,-5.43939 6.11936,-0.67992 5.43935,-5.4394 4.75952,-13.59848 10.87878,-12.23865 12.91856,-4.75947 8.15901,6.79924 19.71792,6.11933 15.63821,8.15908 7.47911,9.51895 12.91854,1.35985 40.79558,17.67803 21.07757,7.47918 16.99814,12.91856 4.07961,-1.35986 0,-4.07954 -9.51896,-7.47916 18.35789,4.75946 2.03986,-3.39963 -4.0796,-4.07952 6.79928,0 0.67991,-4.07956 -12.23863,-2.7197 9.51886,-2.7197 0,-4.75947 -3.39959,-0.67991 -10.19887,0.67991 -8.15902,-3.39962 -5.43944,-2.71969 8.15911,-6.79925 2.03976,-4.75947 -1.35984,-3.39963 -7.4791,1.35986 -15.63841,8.15908 -2.03966,4.07955 -5.43944,-1.35984 -19.71783,-10.87879 -0.67991,-7.47917 -11.55871,-6.11933 -19.71782,-10.19887 -4.75944,3.39963 0.67993,-4.75947 -10.87879,-10.19887 -9.51896,-2.7197 -8.83903,-10.19886 -2.71966,-3.39963 8.83902,6.11933 -1.35983,-6.79926 6.79918,3.39963 -2.03976,-10.19887 9.51895,8.83903 -4.0795,-6.11932 9.51885,4.07953 -8.15902,-11.5587 6.11927,2.03977 -2.71967,-10.87879 4.75942,4.07954 -6.79918,-10.19887 6.79918,2.03977 -6.11926,-8.15908 8.15902,-0.67993 -8.83894,-5.4394 5.43935,-2.71968 -6.11926,-0.67994 8.15902,-7.47916 -7.47911,0.67992 0.67992,-4.75947 0.67991,-13.59848 -4.0795,9.51894 -4.75952,-13.5985 0.67991,10.8788 -2.71967,0.67992 -6.79928,0 -7.47919,-10.87879 -7.47911,0 -8.83904,-7.47917 -4.0796,4.07954 -10.19877,6.79926 z"
       style="fill:#000000;fill-opacity:1;fill-rule:evenodd;stroke:#000000;stroke-width:0.67309088px;stroke-linecap:butt;stroke-linejoin:miter;stroke-opacity:1" />
    <path
       style="opacity:0.22790701;fill:url(#linearGradient2518);fill-opacity:1;fill-rule:evenodd;stroke:none"
       d="m 435.88424,549.14748 -13.60762,0 3.65489,2.67368 9.73545,2.94103 6.29079,3.2084 -10.62954,-1.60421 -15.00754,-4.01048 -14.11696,-1.06948 -9.22613,-1.87156 -14.66914,-1.87157 -29.42027,-7.48627 -7.60882,-3.47577 8.17166,-8.55573 19.34621,2.4063 6.50466,1.87156 5.10103,2.13893 7.86535,1.87158 8.71676,0.80209 0.93671,-1.6042 -3.78299,-1.87156 -5.867,-1.60421 -5.99511,-0.80209 -5.90973,-1.33684 3.5729,-1.06946 -7.73713,-2.67367 -3.82574,-1.60421 -7.90807,-1.6042 -7.77986,-2.4063 -10.07745,-0.8021 -8.07911,-0.53473 -4.7234,4.01051 -22.66986,5.6147 -0.51293,3.20839 -1.65994,1.87157 8.8414,4.27787 7.82259,2.13894 24.01998,7.2189 24.78574,6.68417 21.00277,4.8126 7.98646,9.62519 17.42278,14.43782 5.09755,6.41679 2.75723,8.28838 8.24657,3.74313 -1.19343,3.20841 25.085,4.81261 9.9885,5.61469 31.32954,12.56625 40.55567,14.4378 36.72993,12.83361 17.00589,4.27786 28.01675,7.75364 36.0102,8.82311 17.4726,5.61468 13.64685,4.01051 3.69394,6.68416 -13.4829,3.47577 4.33537,2.67369 40.22783,-0.53473 4.07876,4.27785 13.86045,2.67367 21.64389,0.8021 2.896,-5.34734 -12.41061,-7.48625 -6.45833,-6.41682 1.95919,-3.74312 -6.80031,-4.27787 -12.20401,-0.26737 0.4702,-2.94105 -10.50491,1.87158 0.68387,-4.27787 -10.07745,-0.8021 -13.13732,-2.94103 -29.97245,-8.28838 -42.30467,-7.75363 -6.03793,-0.53473 0.9369,-1.60421 -11.52022,-4.54523 -4.80188,-4.0105 -3.44459,0.26737 -4.63084,-5.07997 -12.11514,-5.07998 -1.61371,-2.67367 -8.28921,-3.47576 -2.54703,-5.34733 -10.15934,-4.54523 -10.96803,-3.74315 -5.43953,-4.27786 -2.8462,-3.47577 -5.10113,-2.13893 5.48586,-0.26737 0.34189,-2.13893 -7.98996,-5.34733 -0.59143,-4.81261 8.46374,-1.87157 14.54084,2.67366 25.46982,2.40631 23.30025,3.20839 16.41106,3.74315 14.20244,0.53473 57.40127,6.95153 28.10571,2.94104 29.12451,5.07998 2.80712,-0.53475 -3.82582,-1.60419 -16.53937,-2.94104 22.83373,1.87156 -1.14709,-1.33682 -7.90798,-1.6042 6.80371,0 -3.14534,-1.60421 -14.79745,-1.06946 6.97476,-1.06947 -4.46349,-1.87158 -4.03942,-0.26736 -9.5681,0.26736 -11.35267,-1.33682 -7.99364,-1.06948 1.78825,-2.67366 -2.42231,-1.87156 -4.54895,-1.33685 -6.20889,0.53474 -7.99714,3.20839 1.78466,1.60421 -6.71823,-0.53473 -29.93321,-4.27787 -7.69429,-2.94103 -17.30515,-2.40631 -29.29554,-4.0105 -1.57446,1.33684 -3.7831,-1.87157 -20.45056,-4.01051 -12.07579,-1.06945 -18.4095,-4.01052 -5.90964,-1.33682 14.58357,2.4063 -7.73703,-2.67368 9.99188,1.33684 -11.60569,-4.01049 17.81459,3.47576 -9.82095,-2.4063 13.35111,1.60419 -19.00432,-4.54522 8.03628,0.8021 -12.92363,-4.27788 8.58845,1.60421 -16.36832,-4.01051 8.71667,0.80211 -13.77506,-3.20841 7.52693,-0.26737 -13.94592,-2.13893 2.8924,-1.06946 -6.76096,-0.26737 1.15048,-2.94104 -6.84644,0.26736 -3.7831,-1.87155 -12.07229,-5.34735 4.84462,3.74314 -17.51533,-5.34733 10.88247,4.27787 -2.08392,0.26737 -6.80371,0 -17.68636,-4.27787 -7.4842,0 -15.85879,-2.94103 -0.25661,1.60418 -3.82922,2.67367 z"
       id="path2864" />
    <path
       sodipodi:nodetypes="cssc"
       id="path3759"
       d="m 763.90087,255.09122 c -26.62135,-9.8399 -37.65223,26.15318 -32.15617,47.65699 6.43181,25.16505 8.4097,56.02071 -3.17298,78.7166 -8.29967,16.26295 -46.68286,22.35178 -46.1986,45.20859"
       style="fill:none;stroke:#ffffff;stroke-width:1.60380363;stroke-linecap:round;stroke-linejoin:round;stroke-miterlimit:4;stroke-opacity:1;stroke-dasharray:none" />
  </g>
</svg>
