<?xml version="1.0" encoding="UTF-8" standalone="no"?>
<!-- Created with Inkscape (http://www.inkscape.org/) -->
<svg
   xmlns:dc="http://purl.org/dc/elements/1.1/"
   xmlns:cc="http://web.resource.org/cc/"
   xmlns:rdf="http://www.w3.org/1999/02/22-rdf-syntax-ns#"
   xmlns:svg="http://www.w3.org/2000/svg"
   xmlns="http://www.w3.org/2000/svg"
   xmlns:xlink="http://www.w3.org/1999/xlink"
   xmlns:sodipodi="http://sodipodi.sourceforge.net/DTD/sodipodi-0.dtd"
   xmlns:inkscape="http://www.inkscape.org/namespaces/inkscape"
   width="256"
   height="256"
   id="svg2"
   sodipodi:version="0.32"
   inkscape:version="0.45.1"
   sodipodi:docbase="/home/yoda/UltraStar/sf/svn/UltraStar-ng/themes/default"
   sodipodi:docname="no_cover.svg"
   inkscape:output_extension="org.inkscape.output.svg.inkscape"
   version="1.0">
  <defs
     id="defs4">
    <linearGradient
       id="linearGradient3751"
       inkscape:collect="always">
      <stop
         id="stop3753"
         offset="0"
         style="stop-color:black;stop-opacity:1;" />
      <stop
         id="stop3755"
         offset="1"
         style="stop-color:black;stop-opacity:0;" />
    </linearGradient>
    <linearGradient
       inkscape:collect="always"
       xlink:href="#linearGradient3751"
       id="linearGradient3484"
       gradientUnits="userSpaceOnUse"
       gradientTransform="matrix(0.336682,0,0,0.336682,-81.3739,-51.8729)"
       x1="665.12128"
       y1="684.16162"
       x2="381.28015"
       y2="449.80624" />
  </defs>
  <sodipodi:namedview
     id="base"
     pagecolor="#ffffff"
     bordercolor="#666666"
     borderopacity="1.0"
     inkscape:pageopacity="0.0"
     inkscape:pageshadow="2"
     inkscape:zoom="1.1191406"
     inkscape:cx="128"
     inkscape:cy="70.174855"
     inkscape:document-units="px"
     inkscape:current-layer="layer1"
     inkscape:window-width="1144"
     inkscape:window-height="785"
     inkscape:window-x="184"
     inkscape:window-y="68"
     showguides="true"
     inkscape:guide-bbox="true"
     width="256px"
     height="256px"
     borderlayer="false" />
  <metadata
     id="metadata7">
    <rdf:RDF>
      <cc:Work
         rdf:about="">
        <dc:format>image/svg+xml</dc:format>
        <dc:type
           rdf:resource="http://purl.org/dc/dcmitype/StillImage" />
      </cc:Work>
    </rdf:RDF>
  </metadata>
  <g
     inkscape:label="Capa 1"
     inkscape:groupmode="layer"
     id="layer1">
    <rect
       style="opacity:1;color:#000000;fill:#ffffff;fill-opacity:0.31313129;fill-rule:nonzero;stroke:#000000;stroke-width:10.01399994;stroke-linecap:butt;stroke-linejoin:miter;marker:none;marker-start:none;marker-mid:none;marker-end:none;stroke-miterlimit:4;stroke-dasharray:none;stroke-dashoffset:0;stroke-opacity:1;visibility:visible;display:block;overflow:visible"
       id="rect1906"
       width="246.30026"
       height="246.30028"
       x="4.8498545"
       y="4.0691833"
       inkscape:export-filename="/home/jesusda/docs/curro/yo/ultrastar-ng/base/theme-pod/images/no_cover.png"
       inkscape:export-xdpi="89.889648"
       inkscape:export-ydpi="89.889648" />
    <rect
       style="opacity:1;color:#000000;fill:#000000;fill-opacity:0.08585857;fill-rule:nonzero;stroke:none;stroke-width:10.60000038;stroke-linecap:butt;stroke-linejoin:miter;marker:none;marker-start:none;marker-mid:none;marker-end:none;stroke-miterlimit:4;stroke-dasharray:none;stroke-dashoffset:0;stroke-opacity:1;visibility:visible;display:block;overflow:visible"
       id="rect1913"
       width="291.42856"
       height="45.714287"
       x="-16.285721"
       y="181.50516" />
    <path
       style="font-size:39.83382034px;font-family:Trebuchet MS"
       d="M 58.72672,219.00823 L 44.00299,198.17717 L 44.00299,218.61923 L 40.30747,218.61923 L 40.30747,190.12482 L 41.86348,190.12482 L 56.19821,209.82778 L 56.19821,190.12482 L 59.89373,190.12482 L 59.89373,219.00823 L 58.72672,219.00823 M 64.3867,204.1289 C 64.3867,200.0055 65.41756,196.55635 67.47927,193.78144 C 69.55394,191.00659 72.34827,189.61915 75.86227,189.61912 C 79.8171,189.61915 82.84483,190.89637 84.94547,193.45079 C 87.05902,196.00526 88.11581,199.56463 88.11583,204.1289 C 88.11581,208.8099 87.05902,212.47949 84.94547,215.13766 C 82.83187,217.78288 79.80414,219.10548 75.86227,219.10548 C 72.27047,219.10548 69.45669,217.70508 67.42092,214.90426 C 65.39811,212.10345 64.3867,208.51167 64.3867,204.1289 M 68.47123,204.1289 C 68.47122,207.39653 69.11307,210.12603 70.39679,212.3174 C 71.69345,214.50878 73.51528,215.60447 75.86227,215.60447 C 78.52043,215.60447 80.54324,214.59955 81.9307,212.5897 C 83.33109,210.57986 84.03129,207.7596 84.03131,204.1289 C 84.03129,196.78975 81.30828,193.12017 75.86227,193.12014 C 73.45044,193.12017 71.61565,194.10564 70.35789,196.07656 C 69.10011,198.04752 68.47122,200.73163 68.47123,204.1289 M 122.75647,191.17513 L 121.45332,194.5011 C 120.20849,193.59345 118.25052,193.13962 115.57938,193.13959 C 113.07679,193.13962 111.06695,194.21585 109.54985,196.36831 C 108.0457,198.52081 107.29363,201.29569 107.29364,204.69296 C 107.29363,207.93465 108.06515,210.5669 109.6082,212.5897 C 111.1642,214.59955 113.16756,215.60447 115.61828,215.60447 C 118.28942,215.60447 120.34464,214.6579 121.78397,212.76475 L 123.92348,215.74062 C 121.66725,217.98386 118.7627,219.10548 115.20983,219.10548 C 111.48837,219.10548 108.55789,217.76343 106.41838,215.07931 C 104.27887,212.3952 103.20911,208.85529 103.20912,204.45955 C 103.20911,200.20648 104.35019,196.67305 106.63233,193.85925 C 108.91447,191.04549 111.8644,189.6386 115.48213,189.63857 C 118.58117,189.6386 121.00594,190.15079 122.75647,191.17513 M 127.01605,204.1289 C 127.01604,200.0055 128.0469,196.55635 130.10861,193.78144 C 132.18328,191.00659 134.97761,189.61915 138.49161,189.61912 C 142.44645,189.61915 145.47418,190.89637 147.57481,193.45079 C 149.68836,196.00526 150.74515,199.56463 150.74518,204.1289 C 150.74515,208.8099 149.68836,212.47949 147.57481,215.13766 C 145.46121,217.78288 142.43348,219.10548 138.49161,219.10548 C 134.89981,219.10548 132.08603,217.70508 130.05026,214.90426 C 128.02745,212.10345 127.01604,208.51167 127.01605,204.1289 M 131.10057,204.1289 C 131.10056,207.39653 131.74242,210.12603 133.02613,212.3174 C 134.32279,214.50878 136.14462,215.60447 138.49161,215.60447 C 141.14977,215.60447 143.17258,214.59955 144.56004,212.5897 C 145.96043,210.57986 146.66063,207.7596 146.66065,204.1289 C 146.66063,196.78975 143.93762,193.12017 138.49161,193.12014 C 136.07979,193.12017 134.24499,194.10564 132.98723,196.07656 C 131.72945,198.04752 131.10056,200.73163 131.10057,204.1289 M 165.13826,219.00823 L 163.1738,219.00823 L 152.55404,190.12482 L 156.87197,190.12482 L 164.20466,211.11149 L 171.26505,190.12482 L 175.44682,190.12482 L 165.13826,219.00823 M 182.52665,193.62584 L 182.52665,201.54204 L 191.94051,201.54204 L 191.94051,204.84856 L 182.52665,204.84856 L 182.52665,215.11821 L 195.44153,215.11821 L 195.44153,218.61923 L 178.63663,218.61923 L 178.63663,190.12482 L 195.65548,190.12482 L 195.65548,193.62584 L 182.52665,193.62584 M 215.76689,218.61923 L 208.1619,206.38511 C 207.29312,206.38513 205.91864,206.32029 204.03848,206.19061 L 204.03848,218.61923 L 200.14846,218.61923 L 200.14846,190.12482 C 200.29109,190.12485 201.29601,190.07947 203.16322,189.98867 C 205.04339,189.88497 206.41138,189.8331 207.26719,189.83307 C 214.11362,189.8331 217.53683,192.55611 217.53685,198.00212 C 217.53683,199.79155 216.98575,201.4059 215.88359,202.84519 C 214.7814,204.27155 213.47176,205.15977 211.95467,205.50986 L 220.22097,218.61923 L 215.76689,218.61923 M 204.03848,193.62584 L 204.03848,202.8841 C 204.97207,203.01378 205.87974,203.07861 206.76149,203.0786 C 209.09549,203.07861 210.79413,202.70258 211.85742,201.95049 C 212.92068,201.19844 213.45231,199.85638 213.45233,197.92432 C 213.45231,196.32943 212.88178,195.18188 211.74072,194.48165 C 210.59963,193.78147 208.79726,193.43137 206.33359,193.43134 C 205.94458,193.43137 205.17954,193.4962 204.03848,193.62584"
       id="text1909" />
  </g>
</svg>
