<?xml version="1.0" encoding="UTF-8" standalone="no"?>
<!-- Created with Sodipodi ("http://www.sodipodi.com/") -->

<svg
   xmlns:dc="http://purl.org/dc/elements/1.1/"
   xmlns:cc="http://creativecommons.org/ns#"
   xmlns:rdf="http://www.w3.org/1999/02/22-rdf-syntax-ns#"
   xmlns:svg="http://www.w3.org/2000/svg"
   xmlns="http://www.w3.org/2000/svg"
   xmlns:xlink="http://www.w3.org/1999/xlink"
   xmlns:sodipodi="http://sodipodi.sourceforge.net/DTD/sodipodi-0.dtd"
   xmlns:inkscape="http://www.inkscape.org/namespaces/inkscape"
   version="1.0"
   x="0"
   y="0"
   width="1000"
   height="800"
   id="svg559"
   sodipodi:version="0.32"
   inkscape:version="0.48.1 r9760"
   sodipodi:docname="practice_bg.svg"
   inkscape:output_extension="org.inkscape.output.svg.inkscape">
  <metadata
     id="metadata35">
    <rdf:RDF>
      <cc:Work
         rdf:about="">
        <dc:format>image/svg+xml</dc:format>
        <dc:type
           rdf:resource="http://purl.org/dc/dcmitype/StillImage" />
      </cc:Work>
    </rdf:RDF>
  </metadata>
  <sodipodi:namedview
     inkscape:window-height="725"
     inkscape:window-width="1280"
     inkscape:pageshadow="2"
     inkscape:pageopacity="0.0"
     guidetolerance="10.0"
     gridtolerance="10.0"
     objecttolerance="10.0"
     borderopacity="1.0"
     bordercolor="#666666"
     pagecolor="#ffffff"
     id="base"
     inkscape:zoom="0.43503001"
     inkscape:cx="437.45687"
     inkscape:cy="359.05944"
     inkscape:window-x="0"
     inkscape:window-y="25"
     inkscape:current-layer="svg559"
     showgrid="false"
     showguides="true"
     inkscape:guide-bbox="true"
     inkscape:window-maximized="1" />
  <defs
     id="defs561">
    <linearGradient
       id="linearGradient4557">
      <stop
         style="stop-color:#ffffff;stop-opacity:1;"
         offset="0"
         id="stop4559" />
      <stop
         style="stop-color:#0300da;stop-opacity:1;"
         offset="1"
         id="stop4561" />
    </linearGradient>
    <linearGradient
       id="linearGradient3751"
       inkscape:collect="always">
      <stop
         id="stop3753"
         offset="0"
         style="stop-color:black;stop-opacity:1;" />
      <stop
         id="stop3755"
         offset="1"
         style="stop-color:black;stop-opacity:0;" />
    </linearGradient>
    <linearGradient
       inkscape:collect="always"
       xlink:href="#linearGradient3751"
       id="linearGradient2518"
       gradientUnits="userSpaceOnUse"
       gradientTransform="matrix(0.9434139,0,0,0.9434139,62.279262,39.359798)"
       x1="665.12128"
       y1="684.16162"
       x2="381.28015"
       y2="449.80624" />
    <linearGradient
       id="linearGradient3945">
      <stop
         style="stop-color:#ffffff;stop-opacity:1;"
         offset="0"
         id="stop3947" />
      <stop
         style="stop-color:#ffffff;stop-opacity:0;"
         offset="1"
         id="stop3949" />
    </linearGradient>
    <inkscape:perspective
       sodipodi:type="inkscape:persp3d"
       inkscape:vp_x="0 : 400 : 1"
       inkscape:vp_y="0 : 1000 : 0"
       inkscape:vp_z="1000 : 400 : 1"
       inkscape:persp3d-origin="500 : 266.66667 : 1"
       id="perspective62" />
    <linearGradient
       id="linearGradient6053">
      <stop
         style="stop-color:#000000;stop-opacity:1;"
         offset="0"
         id="stop6055" />
      <stop
         style="stop-color:#5f5f5f;stop-opacity:1;"
         offset="1"
         id="stop6057" />
    </linearGradient>
    <linearGradient
       id="linearGradient6499"
       inkscape:collect="always">
      <stop
         id="stop6501"
         offset="0"
         style="stop-color:white;stop-opacity:1;" />
      <stop
         id="stop6503"
         offset="1"
         style="stop-color:white;stop-opacity:0;" />
    </linearGradient>
    <linearGradient
       inkscape:collect="always"
       xlink:href="#linearGradient6499"
       id="linearGradient3245"
       gradientUnits="userSpaceOnUse"
       gradientTransform="matrix(0.8327515,0,0,-0.6476426,-48.09403,12.672202)"
       x1="311.95688"
       y1="-116.67703"
       x2="311.95688"
       y2="-276.41519" />
    <filter
       inkscape:collect="always"
       id="filter3869"
       x="-0.019231318"
       width="1.0384626"
       y="-0.12226724"
       height="1.2445345">
      <feGaussianBlur
         inkscape:collect="always"
         stdDeviation="3.4581674"
         id="feGaussianBlur3871" />
    </filter>
    <linearGradient
       inkscape:collect="always"
       xlink:href="#linearGradient6499"
       id="linearGradient4108"
       gradientUnits="userSpaceOnUse"
       gradientTransform="matrix(1.2483528,0,0,1.0242885,40.754503,32.226123)"
       x1="44.868057"
       y1="260.4765"
       x2="358.07056"
       y2="260.4765" />
    <linearGradient
       inkscape:collect="always"
       xlink:href="#linearGradient6499"
       id="linearGradient4121"
       gradientUnits="userSpaceOnUse"
       gradientTransform="matrix(1.2483528,0,0,1.0242885,40.754503,133.62899)"
       x1="44.868057"
       y1="260.4765"
       x2="358.07056"
       y2="260.4765" />
    <linearGradient
       inkscape:collect="always"
       xlink:href="#linearGradient6499"
       id="linearGradient4127"
       gradientUnits="userSpaceOnUse"
       gradientTransform="matrix(1.2483528,0,0,1.0242885,40.754503,340.11416)"
       x1="44.868057"
       y1="260.4765"
       x2="358.07056"
       y2="260.4765" />
    <linearGradient
       inkscape:collect="always"
       xlink:href="#linearGradient6499"
       id="linearGradient4133"
       gradientUnits="userSpaceOnUse"
       gradientTransform="matrix(1.2483528,0,0,1.0242885,426.06823,341.18482)"
       x1="44.868057"
       y1="260.4765"
       x2="358.07056"
       y2="260.4765" />
    <radialGradient
       inkscape:collect="always"
       xlink:href="#linearGradient4557"
       id="radialGradient4563"
       cx="754.52362"
       cy="248.26866"
       fx="754.52362"
       fy="248.26866"
       r="648.54285"
       gradientTransform="matrix(-0.6867835,-1.4236353,1.4876169,-0.7176493,903.38936,1551.3895)"
       gradientUnits="userSpaceOnUse" />
    <filter
       inkscape:collect="always"
       id="filter5083">
      <feGaussianBlur
         inkscape:collect="always"
         stdDeviation="2.8444007"
         id="feGaussianBlur5085" />
    </filter>
    <inkscape:perspective
       id="perspective3678"
       inkscape:persp3d-origin="0.5 : 0.33333333 : 1"
       inkscape:vp_z="1 : 0.5 : 1"
       inkscape:vp_y="0 : 1000 : 0"
       inkscape:vp_x="0 : 0.5 : 1"
       sodipodi:type="inkscape:persp3d" />
    <inkscape:perspective
       id="perspective2860"
       inkscape:persp3d-origin="0.5 : 0.33333333 : 1"
       inkscape:vp_z="1 : 0.5 : 1"
       inkscape:vp_y="0 : 1000 : 0"
       inkscape:vp_x="0 : 0.5 : 1"
       sodipodi:type="inkscape:persp3d" />
    <linearGradient
       inkscape:collect="always"
       xlink:href="#linearGradient3694"
       id="linearGradient3692"
       x1="-340.13901"
       y1="580.56818"
       x2="-587.59583"
       y2="385.5177"
       gradientUnits="userSpaceOnUse"
       gradientTransform="translate(681.47733,-205.59316)" />
    <linearGradient
       inkscape:collect="always"
       id="linearGradient3694">
      <stop
         style="stop-color:black;stop-opacity:0.227"
         offset="0"
         id="stop3696" />
      <stop
         style="stop-color:black;stop-opacity:0;"
         offset="1"
         id="stop3698" />
    </linearGradient>
    <linearGradient
       inkscape:collect="always"
       xlink:href="#linearGradient3694"
       id="linearGradient2933"
       gradientUnits="userSpaceOnUse"
       gradientTransform="translate(982.98897,55.807426)"
       x1="-340.13901"
       y1="580.56818"
       x2="-587.59583"
       y2="385.5177" />
    <inkscape:perspective
       id="perspective3779"
       inkscape:persp3d-origin="0.5 : 0.33333333 : 1"
       inkscape:vp_z="1 : 0.5 : 1"
       inkscape:vp_y="0 : 1000 : 0"
       inkscape:vp_x="0 : 0.5 : 1"
       sodipodi:type="inkscape:persp3d" />
    <radialGradient
       r="500"
       fy="757.60583"
       fx="727.25122"
       cy="757.60583"
       cx="727.25122"
       gradientTransform="matrix(0.43355171,-0.84504566,1.805509,0.92631863,-980.8803,538.04792)"
       gradientUnits="userSpaceOnUse"
       id="radialGradient3750"
       xlink:href="#linearGradient3629-3"
       inkscape:collect="always" />
    <linearGradient
       id="linearGradient3629-3">
      <stop
         style="stop-color:#00cbff;stop-opacity:0;"
         offset="0"
         id="stop3631-1" />
      <stop
         style="stop-color:#000000;stop-opacity:1;"
         offset="1"
         id="stop3633-4" />
    </linearGradient>
    <radialGradient
       r="500"
       fy="757.60583"
       fx="727.25122"
       cy="757.60583"
       cx="727.25122"
       gradientTransform="matrix(0.43355171,-0.84504566,1.805509,0.92631863,-980.88026,538.04793)"
       gradientUnits="userSpaceOnUse"
       id="radialGradient3788"
       xlink:href="#linearGradient3629-3"
       inkscape:collect="always" />
    <inkscape:perspective
       id="perspective3661"
       inkscape:persp3d-origin="0.5 : 0.33333333 : 1"
       inkscape:vp_z="1 : 0.5 : 1"
       inkscape:vp_y="0 : 1000 : 0"
       inkscape:vp_x="0 : 0.5 : 1"
       sodipodi:type="inkscape:persp3d" />
    <radialGradient
       r="500"
       fy="757.60583"
       fx="727.25122"
       cy="757.60583"
       cx="727.25122"
       gradientTransform="matrix(0.43355171,-0.84504566,1.805509,0.92631863,-980.88026,538.04793)"
       gradientUnits="userSpaceOnUse"
       id="radialGradient3788-1"
       xlink:href="#linearGradient3629-3-6"
       inkscape:collect="always" />
    <linearGradient
       id="linearGradient3629-3-6">
      <stop
         style="stop-color:#00cbff;stop-opacity:0;"
         offset="0"
         id="stop3631-1-5" />
      <stop
         style="stop-color:#000000;stop-opacity:1;"
         offset="1"
         id="stop3633-4-7" />
    </linearGradient>
  </defs>
  <rect
     style="fill:#ffffff;fill-opacity:1;stroke:none"
     id="rect2855-8"
     width="1000"
     height="800"
     x="0"
     y="0" />
  <rect
     style="fill:url(#radialGradient3788);fill-opacity:1;stroke:none"
     id="rect2855"
     width="1000"
     height="800"
     x="0"
     y="0" />
  <text
     xml:space="preserve"
     style="font-size:24.89476013px;font-style:normal;font-weight:normal;fill:#000000;fill-opacity:1;stroke:none;stroke-width:1px;stroke-linecap:butt;stroke-linejoin:miter;stroke-opacity:1;font-family:Goblin"
     x="266.96185"
     y="759.88806"
     id="text2508"><tspan
       sodipodi:role="line"
       id="tspan2510"
       x="266.96185"
       y="759.88806" /></text>
  <g
     id="g3955"
     transform="translate(18.488319,-59.198001)"
     style="opacity:0.6;filter:url(#filter5083)">
    <path
       style="fill:#000000;fill-opacity:1"
       d="m 710.75817,261.47303 c -24.8619,0.81505 -49.2611,8.55033 -68.6512,25.43509 -33.8487,27.20416 -45.3156,80.90572 -24.3753,120.11021 12.6486,25.44898 45.9923,30.70952 68.6512,17.78104 21.7012,-12.30047 26.2646,-41.57536 20.4894,-64.64756 -5.42,-25.10698 -34.3199,-39.60578 -56.0514,-29.43879 -9.4388,4.41596 -8.627,3.35172 -20.1361,12.83532 -1.6287,-17.11896 8.237,-32.05555 13.3063,-37.44613 19.2759,-20.49767 47.9999,-30.24403 75.01,-25.90612 29.7625,4.20493 48.5551,33.48396 55.4626,61.93918 9.4136,38.70202 11.1575,79.75225 4.9457,119.16817 -10.6592,64.75378 -54.6412,117.90361 -106.6861,151.66858 -23.5615,16.4422 -50.0202,27.00568 -75.5987,39.21245 -13.3021,6.51851 -0.6729,12.80562 7.7718,8.00736 63.476,-21.20757 125.7437,-53.00609 173.3355,-102.91797 38.2144,-39.44239 62.3285,-94.42174 61.4682,-151.07981 0,-9.45372 -0.4354,-18.99189 -1.5309,-28.37899 -4.0265,-44.97399 -28.8894,-90.38854 -70.653,-106.68612 -17.7612,-6.73739 -37.4209,-10.28987 -56.758,-9.65591 z m 184.64,37.09285 c -6.183,0.28246 -12.2184,2.88239 -16.4857,7.65409 -5.1736,5.33804 -7.476,13.22873 -6.8298,20.72489 0.4843,9.59273 6.8037,18.45696 15.3082,21.90246 8.5809,3.35825 19.019,2.00507 25.9061,-4.59245 5.3847,-4.83818 8.3959,-12.25578 8.2429,-19.66511 0.046,-5.66577 -1.4875,-11.39715 -4.828,-15.89694 -4.3366,-6.10149 -11.3437,-9.96642 -18.6053,-10.12694 -0.8819,-0.0563 -1.8251,-0.0403 -2.7084,0 z m 0,117.16634 c -6.1814,0.27232 -12.3099,2.88445 -16.4857,7.77184 -5.0365,5.41748 -7.497,13.22312 -6.8298,20.7249 0.4799,9.59774 6.7987,18.33779 15.3082,21.78469 8.5809,3.35803 19.019,2.00507 25.9061,-4.59245 5.3908,-4.84198 8.3958,-12.24996 8.2429,-19.66511 0.01,-3.5795 -0.5871,-7.09786 -2.0019,-10.36245 -3.8241,-8.66819 -12.2991,-15.27689 -21.5492,-15.54367 -0.879,-0.0541 -1.7075,-0.15665 -2.5906,-0.11775 z"
       id="path2885-1" />
    <path
       style="fill:url(#linearGradient2933);fill-opacity:1"
       d="m 348.97101,512.55804 c -24.13417,0.31885 -41.62643,3.34489 -45.94006,9.95021 -9.55792,10.64226 26.92567,31.65031 82.87192,46.9871 35.3722,9.95564 73.413,12.01356 84.528,6.95594 10.718,-4.81194 -10.8583,-16.26428 -37.2348,-25.29012 -27.8383,-9.82185 -69.68415,-15.49377 -82.33755,-11.51645 -5.49573,1.72752 -5.63418,1.31119 -8.67537,5.02118 -16.91428,-6.69694 -20.38554,-12.54013 -20.12958,-14.64893 0.97337,-8.01868 20.99477,-11.83146 51.8783,-10.13447 33.5171,1.64497 78.4531,13.09892 110.7685,24.2306 43.9708,15.14023 82.3688,31.19908 111.3518,46.61858 47.1599,25.33168 50.6356,46.12389 28.7398,59.33274 -8.8802,6.43219 -25.9067,10.56462 -40.5858,15.33991 -7.4816,2.55004 10.7615,5.00956 14.9217,3.13248 44.5397,-8.2964 78.4143,-20.73598 81.4394,-40.26151 2.996,-15.42986 -21.9814,-36.93778 -73.432,-59.10241 -8.4413,-3.69829 -17.3934,-7.42962 -26.8707,-11.10186 -44.1841,-17.59382 -109.5979,-35.35998 -165.9138,-41.7356 -23.777,-2.63566 -46.60876,-4.02539 -65.37976,-3.77739 z m 217.76046,14.51072 c -5.9308,0.1105 -9.6447,1.12759 -9.6513,2.99428 -0.4073,2.08824 4.336,5.17508 11.6756,8.10758 9.0496,3.75267 23.284,7.22036 34.865,8.56824 11.5795,1.31375 20.8093,0.78438 21.8055,-1.79657 1.0646,-1.89269 -2.5474,-4.79446 -9.3163,-7.69299 -5.0133,-2.21645 -11.6641,-4.45856 -19.0224,-6.21888 -9.7847,-2.3869 -20.2428,-3.89886 -27.6477,-3.96166 -0.9321,-0.022 -1.8611,-0.0158 -2.7084,0 z m 104.6186,45.83546 c -5.9383,0.10653 -9.7343,1.1284 -9.5462,3.04035 -0.1992,2.11931 4.3101,5.17288 11.6756,8.10758 9.0498,3.75463 23.1727,7.17374 34.7599,8.52217 11.5793,1.31366 20.8093,0.78438 21.8055,-1.79657 1.0673,-1.89418 -2.5423,-4.79218 -9.3163,-7.69299 -3.1881,-1.4003 -6.9248,-2.77668 -11.2545,-4.05379 -11.564,-3.391 -25.94,-5.97632 -35.4282,-6.08068 -0.9275,-0.0212 -1.8475,-0.0613 -2.6959,-0.0461 z"
       id="path2885-9" />
  </g>
  <g
     id="g4892"
     transform="matrix(0.99721358,0,0,1,1.6801378,-0.03097843)">
    <g
       transform="matrix(1.2468256,0,0,1.1986102,1.2039301,52.246604)"
       id="g2836">
      <path
         style="fill:none;stroke:#141414;stroke-width:4;stroke-linecap:square;stroke-linejoin:miter;stroke-miterlimit:4;stroke-opacity:0.61153846;stroke-dasharray:none"
         d="m 0,165 800,0"
         id="path2327"
         sodipodi:nodetypes="cc" />
      <path
         style="fill:none;stroke:#141414;stroke-width:4;stroke-linecap:square;stroke-linejoin:miter;stroke-miterlimit:4;stroke-opacity:0.61153846;stroke-dasharray:none"
         d="m 0,140 800,0"
         id="path3298"
         sodipodi:nodetypes="cc" />
      <path
         style="fill:none;stroke:#141414;stroke-width:4;stroke-linecap:square;stroke-linejoin:miter;stroke-miterlimit:4;stroke-opacity:0.61153846;stroke-dasharray:none"
         d="m 0,190 800,0"
         id="path3302"
         sodipodi:nodetypes="cc" />
      <path
         style="fill:none;stroke:#141414;stroke-width:4;stroke-linecap:square;stroke-linejoin:miter;stroke-miterlimit:4;stroke-opacity:0.61153846;stroke-dasharray:none"
         d="m 0,240 800,0"
         id="path3306"
         sodipodi:nodetypes="cc" />
      <path
         style="fill:none;stroke:#141414;stroke-width:4;stroke-linecap:square;stroke-linejoin:miter;stroke-miterlimit:4;stroke-opacity:0.61153846;stroke-dasharray:none"
         d="m 0,215 800,0"
         id="path3304"
         sodipodi:nodetypes="cc" />
    </g>
    <g
       transform="matrix(1.2468256,0,0,1.1986102,0.760128,231.91957)"
       id="g2209">
      <path
         style="fill:none;stroke:#141414;stroke-width:4;stroke-linecap:square;stroke-linejoin:miter;stroke-miterlimit:4;stroke-opacity:0.61153846;stroke-dasharray:none"
         d="m 0,165 800,0"
         id="path2211"
         sodipodi:nodetypes="cc" />
      <path
         style="fill:none;stroke:#141414;stroke-width:4;stroke-linecap:square;stroke-linejoin:miter;stroke-miterlimit:4;stroke-opacity:0.61153846;stroke-dasharray:none"
         d="m 0,140 800,0"
         id="path2213"
         sodipodi:nodetypes="cc" />
      <path
         style="fill:none;stroke:#141414;stroke-width:4;stroke-linecap:square;stroke-linejoin:miter;stroke-miterlimit:4;stroke-opacity:0.61153846;stroke-dasharray:none"
         d="m 0,190 800,0"
         id="path2215"
         sodipodi:nodetypes="cc" />
      <path
         style="fill:none;stroke:#141414;stroke-width:4;stroke-linecap:square;stroke-linejoin:miter;stroke-miterlimit:4;stroke-opacity:0.61153846;stroke-dasharray:none"
         d="m 0,240 800,0"
         id="path2217"
         sodipodi:nodetypes="cc" />
      <path
         style="fill:none;stroke:#141414;stroke-width:4;stroke-linecap:square;stroke-linejoin:miter;stroke-miterlimit:4;stroke-opacity:0.61153846;stroke-dasharray:none"
         d="m 0,215 800,0"
         id="path2219"
         sodipodi:nodetypes="cc" />
    </g>
    <g
       transform="matrix(5.0734563,0,0,5.3232265,22.200477,397.25206)"
       id="g2411">
      <g
         transform="translate(-230.9546,-533.6597)"
         style="fill:#000000;fill-opacity:1"
         id="g2883">
        <path
           d="m 248.25999,536.802 c 0.008,0.36938 -0.14955,0.73865 -0.43121,0.97985 -0.36025,0.32891 -0.90945,0.39628 -1.3583,0.22886 -0.44485,-0.17177 -0.7737,-0.61188 -0.79903,-1.09011 -0.0338,-0.37371 0.0854,-0.76581 0.35602,-1.03193 0.2551,-0.27187 0.63497,-0.4047 1.004,-0.38222 0.37984,0.008 0.74658,0.19956 0.97342,0.50374 0.17473,0.22433 0.25749,0.50935 0.2551,0.79181 z"
           style="fill:#000000;fill-opacity:1"
           id="path2885" />
      </g>
      <g
         transform="translate(-230.9546,-533.6597)"
         style="fill:#000000;fill-opacity:1"
         id="g2887">
        <path
           d="m 248.25999,542.64502 c 0.008,0.36967 -0.14923,0.73944 -0.43121,0.98083 -0.36025,0.32891 -0.90945,0.39628 -1.3583,0.22887 -0.44511,-0.17184 -0.77393,-0.61235 -0.79903,-1.09083 -0.0349,-0.37399 0.0921,-0.76081 0.35555,-1.03089 0.24963,-0.27846 0.6336,-0.4051 1.00145,-0.3835 0.48385,0.0133 0.92314,0.34301 1.12317,0.77515 0.074,0.16275 0.10881,0.34192 0.10837,0.52037 z"
           style="fill:#000000;fill-opacity:1"
           id="path2889" />
      </g>
      <g
         transform="translate(-230.9546,-533.6597)"
         style="fill:#000000;fill-opacity:1"
         id="g2891">
        <path
           d="m 243.979,540.86798 c 0.045,2.8246 -1.2154,5.57017 -3.21431,7.53651 -2.48942,2.48828 -5.74678,4.07085 -9.06707,5.12812 -0.44172,0.23921 -1.10792,-0.0762 -0.41212,-0.40117 1.33796,-0.60855 2.72769,-1.13094 3.96014,-1.95064 2.72235,-1.6833 5.01959,-4.33406 5.57715,-7.56226 0.32492,-1.96502 0.23445,-4.01059 -0.25795,-5.94002 -0.36132,-1.41859 -1.34451,-2.88302 -2.90132,-3.09265 -1.41284,-0.21626 -2.91467,0.27318 -3.92295,1.29506 -0.26516,0.26874 -0.78141,1.0131 -0.69622,1.86654 0.60202,-0.47279 0.56093,-0.42015 1.05465,-0.6403 1.13673,-0.50686 2.64449,0.21388 2.928,1.46555 0.30209,1.15023 0.0685,2.61366 -1.06664,3.22688 -1.18524,0.64453 -2.93424,0.37778 -3.59586,-0.89094 -1.09534,-1.95448 -0.49303,-4.62673 1.27752,-5.98295 1.80312,-1.49647 4.43407,-1.55482 6.55761,-0.78709 2.18456,0.81249 3.48666,3.07621 3.69728,5.31832 0.0573,0.46798 0.0821,0.93974 0.0821,1.41104 z"
           style="fill:#000000;fill-opacity:1"
           id="path2893" />
      </g>
    </g>
    <g
       inkscape:label="Calque 1"
       id="layer1"
       transform="matrix(1.2842911,0,0,1.3475176,-322.83945,-416.05452)">
      <path
         style="fill:#000000"
         d="m 293.69923,599.2555 c -5.0833,-2.30755 -8.26176,-7.06977 -8.26692,-12.38618 -0.003,-3.04786 0.70465,-4.55839 3.39626,-7.25 4.12078,-4.12078 7.32215,-4.34612 11.52327,-0.81111 2.481,2.08762 3.07673,3.35498 3.07673,6.54546 0,4.57716 -3.45488,8.84457 -7.20454,8.89892 l -2.29546,0.0333 2.36078,1.96673 c 4.40817,3.67237 13.74161,1.83025 17.97132,-3.54695 2.68695,-3.4159 2.8725,-10.4474 0.58017,-21.98632 l -1.58928,-8 -8.1615,-0.0292 c -6.83293,-0.0244 -8.97541,-0.45585 -13.16149,-2.65039 -6.67455,-3.49912 -12.03482,-9.03283 -15.80893,-16.32046 -2.7541,-5.31803 -3.10958,-6.96613 -3.12752,-14.5 -0.017,-7.12783 0.40892,-9.42312 2.63829,-14.21836 3.69503,-7.94778 8.10406,-14.1647 15.55273,-21.92998 l 6.37727,-6.64834 -1.26075,-4.35166 c -0.69341,-2.39341 -1.25638,-9.52666 -1.25104,-15.85166 0.008,-9.66271 0.38331,-12.45859 2.34822,-17.5 2.41156,-6.18742 8.57143,-13.5 11.37193,-13.5 2.3357,0 6.35748,7.58778 8.22735,15.52231 3.64909,15.48447 -1.4259,36.48399 -10.97239,45.402 -3.04169,2.84145 -3.13291,4.02388 -0.97359,12.62017 l 1.62158,6.45552 3.91826,0 c 13.55768,0 23.53603,17.26888 18.39611,31.83696 -1.95613,5.54426 -5.12113,9.61309 -9.17655,11.79707 -3.88166,2.09042 -3.87522,2.04461 -1.88097,13.36597 0.8235,4.675 1.49048,10.3 1.48218,12.5 -0.0463,12.29085 -13.67914,19.99824 -25.71152,14.53618 z m 18.32225,-40.29576 c 0.26449,-0.26448 -0.9617,-7.51428 -2.72486,-16.11065 -2.15086,-10.48662 -3.63233,-15.62977 -4.5021,-15.62977 -0.713,0 -2.87307,1.38438 -4.80017,3.07639 -6.00998,5.27683 -5.77153,13.04837 0.56393,18.3793 3.26839,2.75017 3.66914,3.76974 1.12029,2.8502 -7.21634,-2.60341 -11.80118,-10.0042 -10.90186,-17.5976 0.71989,-6.07833 4.67165,-13.02449 8.7669,-15.4099 3.07673,-1.79216 3.08517,-1.82092 2.4339,-8.29839 -0.35945,-3.575 -1.00248,-6.84997 -1.42896,-7.27772 -1.18105,-1.18455 -9.63542,6.73915 -14.54996,13.63666 -5.57826,7.82905 -8.02781,15.12796 -7.2581,21.62696 1.60495,13.55125 12.49382,22.4315 26.49409,21.60685 3.46831,-0.20429 6.52241,-0.58784 6.7869,-0.85233 z m 10.79335,-8.74776 c 2.9889,-7.46999 1.47145,-15.15439 -3.92889,-19.89594 -3.35374,-2.94462 -7.9877,-4.89972 -9.06349,-3.82394 -0.28213,0.28214 0.86382,7.3714 2.54657,15.75391 1.68275,8.38251 3.05955,15.43636 3.05955,15.67521 0,0.23886 1.29882,-0.49055 2.88626,-1.62091 1.58744,-1.13036 3.61244,-3.87011 4.5,-6.08833 z M 304.9704,479.46932 c 8.1183,-8.85025 12.55342,-22.40329 9.07069,-27.71861 -4.87006,-7.43266 -13.9101,3.14073 -15.2864,17.87923 -0.65342,6.99729 0.20528,13.58938 1.77018,13.58938 0.55311,0 2.5536,-1.6875 4.44553,-3.75 z"
         id="path2221" />
    </g>
  </g>
</svg>
