<?xml version="1.0" encoding="UTF-8" standalone="no"?>
<!-- Created with Sodipodi ("http://www.sodipodi.com/") -->
<svg
   xmlns:dc="http://purl.org/dc/elements/1.1/"
   xmlns:cc="http://web.resource.org/cc/"
   xmlns:rdf="http://www.w3.org/1999/02/22-rdf-syntax-ns#"
   xmlns:svg="http://www.w3.org/2000/svg"
   xmlns="http://www.w3.org/2000/svg"
   xmlns:xlink="http://www.w3.org/1999/xlink"
   xmlns:sodipodi="http://sodipodi.sourceforge.net/DTD/sodipodi-0.dtd"
   xmlns:inkscape="http://www.inkscape.org/namespaces/inkscape"
   version="1.0"
   x="0"
   y="0"
   width="800.000000"
   height="600.000000"
   id="svg559"
   sodipodi:version="0.32"
   inkscape:version="0.45.1"
   sodipodi:docname="practice_bg.svg"
   sodipodi:docbase="/home/yoda/UltraStar/sf/UltraStar-ng/themes/default"
   inkscape:output_extension="org.inkscape.output.svg.inkscape">
  <metadata
     id="metadata35">
    <rdf:RDF>
      <cc:Work
         rdf:about="">
        <dc:format>image/svg+xml</dc:format>
        <dc:type
           rdf:resource="http://purl.org/dc/dcmitype/StillImage" />
      </cc:Work>
    </rdf:RDF>
  </metadata>
  <sodipodi:namedview
     inkscape:window-height="968"
     inkscape:window-width="1376"
     inkscape:pageshadow="2"
     inkscape:pageopacity="0.0"
     guidetolerance="10.0"
     gridtolerance="10.0"
     objecttolerance="10.0"
     borderopacity="1.0"
     bordercolor="#666666"
     pagecolor="#ffffff"
     id="base"
     inkscape:zoom="1.26"
     inkscape:cx="400"
     inkscape:cy="313.27933"
     inkscape:window-x="0"
     inkscape:window-y="0"
     inkscape:current-layer="svg559" />
  <defs
     id="defs561">
    <linearGradient
       id="linearGradient2399"
       inkscape:collect="always">
      <stop
         id="stop2401"
         offset="0"
         style="stop-color:#ffffff;stop-opacity:1;" />
      <stop
         id="stop2403"
         offset="1"
         style="stop-color:#ffffff;stop-opacity:0;" />
    </linearGradient>
    <linearGradient
       inkscape:collect="always"
       xlink:href="#linearGradient2399"
       id="linearGradient4053"
       gradientUnits="userSpaceOnUse"
       x1="16.4375"
       y1="49.110714"
       x2="17.402376"
       y2="43.420425" />
    <linearGradient
       inkscape:collect="always"
       xlink:href="#linearGradient2371"
       id="linearGradient4051"
       gradientUnits="userSpaceOnUse"
       x1="18.328718"
       y1="15.323075"
       x2="14.40625"
       y2="14.046875" />
    <linearGradient
       inkscape:collect="always"
       xlink:href="#linearGradient2371"
       id="linearGradient4049"
       gradientUnits="userSpaceOnUse"
       x1="18.328718"
       y1="15.323075"
       x2="14.40625"
       y2="14.046875" />
    <linearGradient
       inkscape:collect="always"
       xlink:href="#linearGradient2371"
       id="linearGradient4047"
       gradientUnits="userSpaceOnUse"
       x1="18.328718"
       y1="15.323075"
       x2="14.40625"
       y2="14.046875" />
    <linearGradient
       inkscape:collect="always"
       xlink:href="#linearGradient2371"
       id="linearGradient4045"
       gradientUnits="userSpaceOnUse"
       x1="18.328718"
       y1="15.323075"
       x2="14.40625"
       y2="14.046875" />
    <linearGradient
       id="linearGradient2371">
      <stop
         id="stop2373"
         offset="0"
         style="stop-color:#000000;stop-opacity:1;" />
      <stop
         id="stop2375"
         offset="1"
         style="stop-color:#000000;stop-opacity:0.48453608;" />
    </linearGradient>
    <linearGradient
       inkscape:collect="always"
       xlink:href="#linearGradient2371"
       id="linearGradient4043"
       gradientUnits="userSpaceOnUse"
       x1="18.328718"
       y1="15.323075"
       x2="14.40625"
       y2="14.046875" />
    <linearGradient
       inkscape:collect="always"
       xlink:href="#linearGradient2355"
       id="linearGradient4041"
       gradientUnits="userSpaceOnUse"
       x1="25.160467"
       y1="15.803662"
       x2="33.96875"
       y2="20.4375" />
    <linearGradient
       id="linearGradient2407">
      <stop
         id="stop2409"
         offset="0"
         style="stop-color:#d5d5d5;stop-opacity:1;" />
      <stop
         id="stop2411"
         offset="1"
         style="stop-color:#747474;stop-opacity:1;" />
    </linearGradient>
    <radialGradient
       inkscape:collect="always"
       xlink:href="#linearGradient2407"
       id="radialGradient4039"
       gradientUnits="userSpaceOnUse"
       gradientTransform="matrix(0.435326,0,0,0.435326,18.91658,12.49341)"
       cx="33.499996"
       cy="20.538168"
       fx="33.499996"
       fy="20.538168"
       r="2.2697367" />
    <linearGradient
       inkscape:collect="always"
       xlink:href="#linearGradient2355"
       id="linearGradient4037"
       gradientUnits="userSpaceOnUse"
       x1="25.160467"
       y1="15.803662"
       x2="33.96875"
       y2="20.4375" />
    <linearGradient
       inkscape:collect="always"
       xlink:href="#linearGradient2355"
       id="linearGradient4035"
       gradientUnits="userSpaceOnUse"
       x1="25.160467"
       y1="15.803662"
       x2="33.96875"
       y2="20.4375" />
    <linearGradient
       inkscape:collect="always"
       xlink:href="#linearGradient2355"
       id="linearGradient4033"
       gradientUnits="userSpaceOnUse"
       x1="25.160467"
       y1="15.803662"
       x2="33.96875"
       y2="20.4375" />
    <linearGradient
       id="linearGradient2355"
       inkscape:collect="always">
      <stop
         id="stop2357"
         offset="0"
         style="stop-color:#000000;stop-opacity:1;" />
      <stop
         id="stop2359"
         offset="1"
         style="stop-color:#000000;stop-opacity:0;" />
    </linearGradient>
    <linearGradient
       inkscape:collect="always"
       xlink:href="#linearGradient2355"
       id="linearGradient4031"
       gradientUnits="userSpaceOnUse"
       x1="25.160467"
       y1="15.803662"
       x2="33.96875"
       y2="20.4375" />
    <linearGradient
       id="linearGradient2337"
       inkscape:collect="always">
      <stop
         id="stop2339"
         offset="0"
         style="stop-color:#ffffff;stop-opacity:1;" />
      <stop
         id="stop2341"
         offset="1"
         style="stop-color:#ffffff;stop-opacity:0;" />
    </linearGradient>
    <radialGradient
       inkscape:collect="always"
       xlink:href="#linearGradient2337"
       id="radialGradient4029"
       gradientUnits="userSpaceOnUse"
       gradientTransform="matrix(2.530751,0,0,2.296006,-31.03641,-6.699856)"
       cx="20.275276"
       cy="5.7119732"
       fx="20.275276"
       fy="5.7119732"
       r="12.494026" />
    <linearGradient
       id="linearGradient2345">
      <stop
         id="stop2347"
         offset="0"
         style="stop-color:#d5d5d5;stop-opacity:1;" />
      <stop
         id="stop2349"
         offset="1"
         style="stop-color:#a0a0a0;stop-opacity:1;" />
    </linearGradient>
    <radialGradient
       inkscape:collect="always"
       xlink:href="#linearGradient2345"
       id="radialGradient4027"
       gradientUnits="userSpaceOnUse"
       gradientTransform="matrix(1.491918,-8.445108e-2,-5.874412e-2,3.986724,-9.646804,-20.27595)"
       cx="19.557497"
       cy="6.644074"
       fx="19.557497"
       fy="6.644074"
       r="10.98921" />
    <linearGradient
       id="linearGradient2252"
       inkscape:collect="always">
      <stop
         id="stop2254"
         offset="0"
         style="stop-color:#c6c6c6;stop-opacity:1;" />
      <stop
         id="stop2256"
         offset="1"
         style="stop-color:#c6c6c6;stop-opacity:0;" />
    </linearGradient>
    <linearGradient
       inkscape:collect="always"
       xlink:href="#linearGradient2252"
       id="linearGradient4025"
       gradientUnits="userSpaceOnUse"
       x1="41.25"
       y1="36.689548"
       x2="48.25"
       y2="35.689548" />
    <linearGradient
       id="linearGradient2232">
      <stop
         id="stop2234"
         offset="0"
         style="stop-color:#b0b0b0;stop-opacity:1;" />
      <stop
         id="stop2236"
         offset="1"
         style="stop-color:#747474;stop-opacity:1;" />
    </linearGradient>
    <radialGradient
       inkscape:collect="always"
       xlink:href="#linearGradient2232"
       id="radialGradient4023"
       gradientUnits="userSpaceOnUse"
       gradientTransform="matrix(1,0,0,0.52514,0,22.02165)"
       cx="15.4375"
       cy="42.090427"
       fx="15.4375"
       fy="42.090427"
       r="11.1875" />
    <linearGradient
       id="linearGradient2242"
       inkscape:collect="always">
      <stop
         id="stop2244"
         offset="0"
         style="stop-color:#000000;stop-opacity:1;" />
      <stop
         id="stop2246"
         offset="1"
         style="stop-color:#000000;stop-opacity:0;" />
    </linearGradient>
    <radialGradient
       inkscape:collect="always"
       xlink:href="#linearGradient2242"
       id="radialGradient4021"
       gradientUnits="userSpaceOnUse"
       gradientTransform="matrix(1,0,0,0.425856,0,23.53992)"
       cx="25.1875"
       cy="41"
       fx="25.1875"
       fy="41"
       r="16.4375" />
    <linearGradient
       inkscape:collect="always"
       id="linearGradient2822">
      <stop
         style="stop-color:#4d4d4d;stop-opacity:1;"
         offset="0"
         id="stop2824" />
      <stop
         style="stop-color:#4d4d4d;stop-opacity:0;"
         offset="1"
         id="stop2826" />
    </linearGradient>
    <linearGradient
       inkscape:collect="always"
       xlink:href="#linearGradient2822"
       id="linearGradient2828"
       x1="-9.7558135"
       y1="56.015691"
       x2="152.04807"
       y2="56.015691"
       gradientUnits="userSpaceOnUse" />
    <linearGradient
       id="linearGradient6499"
       inkscape:collect="always">
      <stop
         id="stop6501"
         offset="0"
         style="stop-color:white;stop-opacity:1;" />
      <stop
         id="stop6503"
         offset="1"
         style="stop-color:white;stop-opacity:0;" />
    </linearGradient>
    <linearGradient
       inkscape:collect="always"
       xlink:href="#linearGradient6499"
       id="linearGradient5410"
       gradientUnits="userSpaceOnUse"
       gradientTransform="matrix(0.755727,0,0,0.755727,219.75996,52.251196)"
       x1="370.92285"
       y1="100.34026"
       x2="372.94315"
       y2="219.56401" />
    <linearGradient
       inkscape:collect="always"
       xlink:href="#linearGradient2822"
       id="linearGradient2707"
       gradientUnits="userSpaceOnUse"
       x1="-9.7558135"
       y1="56.015691"
       x2="152.04807"
       y2="56.015691" />
  </defs>
  <g
     id="g5406"
     transform="matrix(0.5901729,0,0,0.5901729,-155.77461,8.3573592)">
    <path
       id="text5554"
       d="M 523.94004,90.108206 L 510.54946,97.145914 L 510.54946,114.40951 L 503.20478,114.40951 L 503.20478,127.75285 L 510.54946,127.75285 L 510.54946,159.0919 C 510.54946,166.00282 511.72643,170.9367 514.06836,173.87581 C 516.48577,176.81493 520.1206,178.29209 524.95551,178.29209 C 526.91972,178.2921 528.7253,178.03659 530.3873,177.55998 C 532.04929,177.08336 533.6469,176.42637 535.15782,175.55258 L 536.74017,161.94949 C 534.1716,163.93539 531.52459,164.9488 528.80503,164.94878 C 527.21853,164.9488 525.99909,164.50007 525.1681,163.62626 C 524.3371,162.67306 523.94004,161.04131 523.94004,158.73765 L 523.94004,127.75285 L 535.93721,127.75285 L 535.93721,114.40951 L 523.94004,114.40951 L 523.94004,90.108206 z M 333.75658,94.429982 L 326.05761,98.964344 L 326.05761,177.04042 L 333.75658,177.04042 L 333.75658,94.429982 z M 358.88451,94.429982 L 351.30366,98.964344 L 351.30366,117.55054 L 345.18695,117.55054 L 345.18695,124.11591 L 351.30366,124.11591 L 351.30366,165.70451 C 351.30366,169.93506 352.10246,173.10668 353.68888,175.22195 C 355.27538,177.26166 357.7522,178.29209 361.15169,178.29209 C 362.88925,178.29209 364.48686,178.12194 365.92221,177.81976 C 367.35757,177.59312 368.72362,177.19607 370.0079,176.5917 L 370.69274,169.43591 C 369.40846,170.04029 368.18902,170.46096 367.0558,170.68759 C 365.99816,170.91424 364.77872,171.04183 363.41887,171.04183 C 361.90802,171.04183 360.7736,170.57863 360.0181,169.67208 C 359.26267,168.69 358.88451,167.09237 358.88451,164.90155 L 358.88451,124.11591 L 370.33853,124.11591 L 370.33853,117.55054 L 358.88451,117.55054 L 358.88451,94.429982 z M 688.73576,96.720817 C 686.74374,96.720817 684.8418,97.161179 683.02057,98.043339 C 681.22776,98.897084 679.6396,100.13391 678.27362,101.72751 C 676.90772,103.32111 675.83504,105.24179 675.03821,107.48993 C 674.24144,109.70957 673.83373,112.17354 673.83373,114.9055 C 673.8338,116.95442 674.11962,118.7721 674.66034,120.33727 C 675.20107,121.90243 675.93639,123.22346 676.90387,124.30484 C 677.87143,125.38623 679.05678,126.21542 680.42276,126.78457 C 681.78874,127.32526 683.26422,127.58752 684.88624,127.58753 C 686.50833,127.58752 688.00746,127.36281 689.37337,126.87904 C 690.73934,126.3668 691.95742,125.57031 693.0103,124.51739 C 694.09167,123.46447 695.00995,122.12467 695.74981,120.50259 C 696.51823,118.88055 697.08027,116.95987 697.4502,114.74014 L 697.94618,111.92982 L 688.47594,111.92982 L 687.76745,116.22802 L 692.70332,116.22802 C 692.70332,116.22802 692.68451,116.28432 692.65609,116.36972 C 692.65602,116.42662 692.65609,116.45935 692.65609,116.48776 C 692.17228,118.65058 691.32919,120.32773 690.10551,121.49448 C 688.88184,122.63278 687.29368,123.19487 685.35857,123.19487 C 684.36259,123.19487 683.44915,123.0168 682.59548,122.67531 C 681.77022,122.30536 681.04881,121.7996 680.42276,121.11662 C 679.79672,120.40518 679.28124,119.50085 678.91131,118.44797 C 678.56979,117.39501 678.41532,116.16303 678.41532,114.74014 C 678.41532,112.71971 678.65882,110.88805 679.17105,109.23755 C 679.71177,107.55855 680.43319,106.11095 681.34377,104.91569 C 682.25442,103.72051 683.29437,102.80714 684.46114,102.1526 C 685.65632,101.46965 686.92594,101.13713 688.26343,101.13706 C 689.74314,101.13713 690.96122,101.50721 691.90037,102.24707 C 692.86792,102.987 693.65955,104.02212 694.28559,105.38802 L 698.56021,103.52236 C 697.79186,101.38804 696.61134,99.710927 695.01774,98.515669 C 693.42414,97.320487 691.32533,96.720817 688.73576,96.720817 z M 647.9265,97.193147 L 642.63641,127.09158 L 647.02907,127.09158 L 650.24091,108.69433 C 650.26933,108.49519 650.30205,108.17658 650.35896,107.74967 C 650.44436,107.32284 650.51464,106.90129 650.57154,106.47438 C 650.62845,106.01913 650.70357,105.59267 650.76048,105.22275 C 650.81738,104.82433 650.85011,104.56209 650.87852,104.41979 C 651.02082,104.84662 651.2316,105.38999 651.5162,106.07294 C 651.82923,106.75589 652.11028,107.39312 652.3664,107.96226 L 661.08084,127.09158 L 665.16652,127.09158 L 670.48019,97.193147 L 666.06395,97.193147 L 662.87569,115.56676 C 662.8472,115.76597 662.79573,116.06093 662.71041,116.48776 C 662.65343,116.88618 662.57838,117.33138 662.52148,117.78671 C 662.46457,118.21354 662.41303,118.61634 662.35612,119.01476 C 662.29922,119.38469 662.2665,119.62819 662.23808,119.77049 C 662.09578,119.37207 661.885,118.84752 661.6004,118.16457 C 661.31579,117.48162 661.02998,116.84439 660.77386,116.27525 L 652.24828,97.193147 L 647.9265,97.193147 z M 478.00597,113.11065 C 475.36191,113.11072 472.92764,113.53582 470.66129,114.40951 C 468.39494,115.20393 466.41916,116.4106 464.75717,117.99922 C 463.17067,119.50856 461.93234,121.3722 461.02577,123.59635 C 460.1192,125.8206 459.65601,128.32619 459.65601,131.10638 C 459.65601,135.95201 460.70534,139.83384 462.82062,142.77292 C 465.0114,145.63264 468.26813,148.17687 472.57418,150.40104 C 474.68946,151.51316 476.4336,152.4643 477.79346,153.25863 C 479.15324,153.97358 480.24511,154.69283 481.07611,155.40773 C 481.90711,156.12267 482.47436,156.84193 482.7765,157.55683 C 483.15421,158.19234 483.34329,158.95024 483.34329,159.82401 C 483.34329,161.41275 482.81867,162.67306 481.76103,163.62626 C 480.77888,164.50007 479.22382,164.9488 477.10854,164.94878 C 472.50027,164.9488 467.73103,163.12382 462.82062,159.46976 L 458.07367,171.49055 C 460.86888,173.79419 463.76641,175.50321 466.78818,176.61532 C 469.80996,177.72742 473.17068,178.29209 476.87238,178.29209 C 482.53829,178.2921 487.20355,176.6217 490.82975,173.2854 C 494.53138,169.9491 496.37958,165.05388 496.37958,158.61957 C 496.37958,153.69458 495.16007,149.81275 492.74265,146.95304 C 490.40072,144.09338 487.04001,141.54916 482.65845,139.32492 C 480.61867,138.29229 478.95962,137.41845 477.67534,136.70349 C 476.39106,135.90917 475.3607,135.18992 474.6052,134.55439 C 473.84977,133.91895 473.32507,133.31564 473.02293,132.75954 C 472.79629,132.1241 472.6923,131.4671 472.6923,130.75214 C 472.6923,129.48121 473.13191,128.42917 474.0384,127.63476 C 474.94497,126.84046 476.16449,126.45399 477.67534,126.45394 C 479.86619,126.45399 481.84196,126.72451 483.57946,127.28052 C 485.3926,127.83661 487.57627,128.8264 490.14483,130.25619 L 494.79732,118.82583 C 492.15318,116.91943 489.4637,115.48091 486.74406,114.52763 C 484.1,113.57444 481.17889,113.11072 478.00597,113.11065 z M 565.90647,113.11065 C 562.28034,113.11072 559.00471,113.61313 556.05844,114.64568 C 553.11216,115.67846 550.27614,117.19422 547.55651,119.18004 L 552.9883,129.42962 C 554.87693,128.07926 556.72506,127.12812 558.53813,126.57202 C 560.35119,125.93658 562.51605,125.62741 565.00904,125.62736 C 567.65318,125.62741 569.50131,126.3617 570.55895,127.87093 C 571.61651,129.30082 572.14121,131.14942 572.14121,133.37357 L 572.14121,138.12048 C 570.85693,137.24673 569.5335,136.62837 568.17365,136.23116 C 566.81387,135.83402 564.81913,135.61717 562.17506,135.61713 C 559.531,135.61717 557.07308,136.14319 554.80673,137.17582 C 552.61595,138.12908 550.68272,139.52895 549.02073,141.35593 C 547.43431,143.10355 546.1959,145.27635 545.28933,147.89769 C 544.38276,150.43967 543.91957,153.29307 543.91957,156.47047 C 543.91957,163.22252 545.55973,168.54286 548.80814,172.4352 C 552.05664,176.32755 556.2776,178.29209 561.49022,178.29209 C 563.45436,178.2921 565.38758,177.80472 567.27622,176.85148 C 569.16486,175.89826 570.78143,174.52202 572.14121,172.69499 L 572.14121,176.96957 L 585.50814,176.96957 L 585.50814,133.96398 C 585.50814,127.05312 583.953,121.84871 580.85573,118.3535 C 577.83388,114.85834 572.85666,113.11072 565.90647,113.11065 z M 621.5941,113.11065 C 619.40332,113.11072 617.32356,113.71402 615.35935,114.9055 C 613.39522,116.09705 611.84008,117.35738 610.70695,118.70771 L 610.70695,114.40951 L 597.34002,114.40951 L 597.34002,176.96957 L 610.70695,176.96957 L 610.70695,132.28721 C 613.04879,128.71265 615.92743,126.92631 619.32692,126.92627 C 620.91342,126.92631 622.29829,127.19684 623.50707,127.75285 C 624.79135,128.30895 626.0108,129.06684 627.14401,130.02003 L 630.99345,116.32249 C 629.5581,115.21043 628.13061,114.4139 626.69526,113.93718 C 625.2599,113.3812 623.55831,113.11072 621.5941,113.11065 z M 402.38604,116.29883 C 399.96862,116.29891 397.74232,116.95118 395.70261,118.23538 C 393.73841,119.44417 392.16438,120.9142 390.95567,122.65169 L 390.95567,117.55054 L 383.2567,117.55054 L 383.2567,177.04042 L 390.95567,177.04042 L 390.95567,130.46874 C 392.01331,128.6557 393.37936,127.10061 395.04136,125.8163 C 396.70335,124.45653 398.46638,123.78533 400.35502,123.78528 C 401.86595,123.78533 403.1469,123.93186 404.20454,124.23399 C 405.33768,124.53622 406.42955,124.97581 407.48719,125.58013 L 409.65991,117.55054 C 408.82891,117.17283 407.84103,116.85618 406.70789,116.62946 C 405.57468,116.4029 404.1236,116.29891 402.38604,116.29883 z M 434.55167,116.29883 C 431.45432,116.29891 428.57576,116.82361 425.93169,117.88117 C 423.28756,118.93881 420.76826,120.40886 418.35077,122.29744 L 421.84601,128.20156 C 423.96129,126.61515 425.97961,125.39567 427.86824,124.56462 C 429.75688,123.73367 431.7941,123.33662 433.98487,123.33657 C 440.10407,123.33662 443.17172,126.80131 443.17172,133.75143 L 443.17172,142.13528 C 441.88743,141.30432 440.3323,140.65203 438.51923,140.19873 C 436.70617,139.66995 434.68785,139.41942 432.49707,139.41938 C 430.00408,139.41942 427.6738,139.79755 425.48294,140.55297 C 423.36766,141.30846 421.51953,142.48541 419.93311,144.07183 C 418.34669,145.65831 417.1082,147.69553 416.20171,150.18849 C 415.29514,152.60596 414.83195,155.46091 414.83195,158.78489 C 414.83195,162.18444 415.21004,165.14808 415.96554,167.64106 C 416.72097,170.05852 417.77037,172.0532 419.13015,173.63964 C 420.48993,175.2261 422.08754,176.40304 423.90068,177.1585 C 425.71374,177.91395 427.66586,178.29209 429.78114,178.29209 C 432.65192,178.29209 435.19487,177.68235 437.38564,176.47362 C 439.5765,175.2649 441.50972,173.79489 443.17172,172.05734 L 443.17172,177.04042 L 450.87068,177.04042 L 450.87068,132.94847 C 450.87061,126.67826 449.40064,122.3533 446.45437,119.93579 C 443.58366,117.51842 439.61322,116.29891 434.55167,116.29883 z M 274.45567,117.55054 L 274.45567,158.33617 C 274.45567,164.98418 275.77917,169.98502 278.42323,173.30901 C 281.06729,176.633 284.91017,178.29209 289.97165,178.29209 C 292.9935,178.29209 295.57899,177.68235 297.69427,176.47362 C 299.80948,175.18935 301.51115,173.71934 302.79543,172.05734 L 302.79543,177.04042 L 310.4944,177.04042 L 310.4944,117.55054 L 302.79543,117.55054 L 302.79543,164.35837 C 301.51115,166.17147 299.95601,167.78801 298.14295,169.22337 C 296.40545,170.58318 294.32569,171.25438 291.9082,171.25438 C 288.50871,171.25438 286.05079,170.20505 284.53986,168.08977 C 283.02901,165.89897 282.27268,162.3492 282.27268,157.43875 L 282.27268,117.55054 L 274.45567,117.55054 z M 432.40261,146.22092 C 435.04667,146.22095 437.12643,146.45256 438.63735,146.9058 C 440.22378,147.3591 441.73629,147.98776 443.17172,148.81874 L 443.17172,165.37388 C 441.73629,167.11144 439.9496,168.58145 437.83439,169.79016 C 435.79461,170.92336 433.56839,171.49055 431.1509,171.49055 C 428.28019,171.49056 426.11534,170.3136 424.67998,167.97169 C 423.24463,165.6298 422.53092,162.45817 422.53092,158.45426 C 422.53092,154.60146 423.32973,151.61891 424.91615,149.50361 C 426.50265,147.31283 429.00304,146.22095 432.40261,146.22092 z M 563.96992,147.54345 C 566.0097,147.54348 567.60731,147.814 568.74044,148.37002 C 569.94915,148.84667 571.08357,149.56592 572.14121,150.51912 L 572.14121,160.5325 C 571.31022,162.04179 570.1758,163.30211 568.74044,164.33476 C 567.38066,165.288 565.91062,165.77537 564.3242,165.77536 C 562.13335,165.77538 560.43175,164.94018 559.22304,163.27202 C 558.08983,161.60387 557.52266,159.25289 557.52266,156.23431 C 557.52266,153.61296 558.13238,151.51745 559.34109,149.92871 C 560.5498,148.34003 562.08128,147.54348 563.96992,147.54345 z "
       style="font-size:149.94555664px;font-style:normal;font-variant:normal;font-weight:normal;font-stretch:normal;text-align:start;line-height:125%;writing-mode:lr-tb;text-anchor:start;fill:#ffffff;fill-opacity:1;stroke:none;stroke-width:1px;stroke-linecap:butt;stroke-linejoin:miter;stroke-opacity:1;font-family:Interstate-LightCondensed" />
    <path
       id="text5584"
       d="M 289.97165,182.87368 C 284.91017,182.87368 281.06729,183.80423 278.42323,185.66043 C 275.77917,187.51661 274.45567,190.28465 274.45567,193.99704 L 274.45567,216.78693 L 282.27268,216.78693 L 282.27268,194.5166 C 282.27268,191.77449 283.02901,189.78864 284.53986,188.56525 C 286.05079,187.38403 288.50871,186.79401 291.9082,186.79402 C 294.32569,186.79402 296.40545,187.16825 298.14295,187.92761 C 299.95601,188.72914 301.51115,189.63102 302.79543,190.6435 L 302.79543,216.78693 L 310.4944,216.78693 L 310.4944,183.55856 L 302.79543,183.55856 L 302.79543,186.3453 C 301.51115,185.4172 299.80948,184.60636 297.69427,183.88919 C 295.57899,183.21421 292.9935,182.87368 289.97165,182.87368 z M 361.15169,182.87368 C 357.7522,182.87368 355.27538,183.43505 353.68888,184.57407 C 352.10246,185.75529 351.30366,187.52534 351.30366,189.88778 L 351.30366,213.10276 L 345.18695,213.10276 L 345.18695,216.78693 L 351.30366,216.78693 L 351.30366,227.15456 L 358.88451,229.68153 L 358.88451,216.78693 L 370.33853,216.78693 L 370.33853,213.10276 L 358.88451,213.10276 L 358.88451,190.33649 C 358.88451,189.11309 359.26267,188.21624 360.0181,187.66783 C 360.7736,187.16159 361.90802,186.91209 363.41887,186.9121 C 364.77872,186.9121 365.99816,186.97446 367.0558,187.10103 C 368.18902,187.22759 369.40846,187.47204 370.69274,187.80953 L 370.0079,183.81834 C 368.72362,183.48086 367.35757,183.2364 365.92221,183.10985 C 364.48686,182.9411 362.88925,182.87368 361.15169,182.87368 z M 429.78114,182.87368 C 427.66586,182.87368 425.71374,183.06585 423.90068,183.48771 C 422.08754,183.90957 420.48993,184.56198 419.13015,185.44788 C 417.7703,186.33379 416.72097,187.47507 415.96554,188.82503 C 415.21012,190.21717 414.83195,191.86249 414.83195,193.76088 C 414.83195,195.61706 415.29514,197.20505 416.20171,198.55502 C 417.10828,199.94715 418.34669,201.09348 419.93311,201.97941 C 421.51953,202.8653 423.36766,203.51769 425.48294,203.93957 C 427.6738,204.36141 430.00408,204.5772 432.49707,204.57722 C 434.68785,204.5772 436.70617,204.4238 438.51923,204.12851 C 440.3323,203.87537 441.88743,203.50617 443.17172,203.04215 L 443.17172,207.74183 C 443.17164,211.62293 440.10407,213.55145 433.98487,213.55148 C 431.7941,213.55145 429.75688,213.33062 427.86824,212.8666 C 425.97961,212.40253 423.96129,211.72148 421.84601,210.83558 L 418.35077,214.11827 C 420.76826,215.1729 423.28756,216.00737 425.93169,216.598 C 428.57576,217.18857 431.45432,217.47178 434.55167,217.47181 C 439.61322,217.47178 443.58366,216.81434 446.45437,215.46441 C 449.40064,214.11443 450.87061,211.66836 450.87068,208.16692 L 450.87068,183.55856 L 443.17172,183.55856 L 443.17172,186.3453 C 441.50965,185.37502 439.5765,184.56418 437.38564,183.88919 C 435.19487,183.21421 432.65185,182.87368 429.78114,182.87368 z M 476.87238,182.87368 C 473.17068,182.87368 469.80996,183.17371 466.78818,183.79473 C 463.76633,184.41575 460.86888,185.36591 458.07367,186.65232 L 462.82062,193.38301 C 467.73103,191.3425 472.50027,190.31287 477.10854,190.31287 C 479.22382,190.31286 480.77888,190.55702 481.76103,191.04498 C 482.81859,191.57728 483.34329,192.28328 483.34329,193.17046 C 483.34329,193.6584 483.15421,194.09087 482.7765,194.44575 C 482.47436,194.84497 481.90711,195.25095 481.07611,195.65019 C 480.24511,196.04941 479.15324,196.43178 477.79346,196.83102 C 476.4336,197.27459 474.68946,197.8159 472.57418,198.43694 C 468.26813,199.67897 465.0114,201.09097 462.82062,202.6879 C 460.70534,204.32914 459.65601,206.50015 459.65601,209.20605 C 459.65601,210.75857 460.1192,212.1677 461.02577,213.40978 C 461.93226,214.65179 463.17067,215.6843 464.75717,216.52715 C 466.41916,217.41429 468.39494,218.09093 470.66129,218.53455 C 472.92764,219.02246 475.36191,219.26662 478.00597,219.26666 C 481.17889,219.26662 484.1,218.99598 486.74406,218.4637 C 489.4637,217.93136 492.15318,217.14302 494.79732,216.07844 L 490.14483,209.67838 C 487.57627,210.4768 485.3926,211.0446 483.57946,211.35515 C 481.84196,211.66563 479.86619,211.80384 477.67534,211.80386 C 476.16449,211.80384 474.94497,211.58616 474.0384,211.1426 C 473.13191,210.69898 472.6923,210.12831 472.6923,209.41859 C 472.6923,209.01934 472.79629,208.63985 473.02293,208.285 C 473.32507,207.97447 473.84977,207.64796 474.6052,207.29311 C 475.3607,206.93822 476.39106,206.53223 477.67534,206.08867 C 478.95962,205.68943 480.61867,205.20109 482.65845,204.62445 C 487.04001,203.38239 490.40072,201.97039 492.74265,200.37349 C 495.16007,198.77656 496.37958,196.60556 496.37958,193.85534 C 496.37958,190.26228 494.53145,187.52348 490.82975,185.66043 C 487.20355,183.79736 482.53829,182.87368 476.87238,182.87368 z M 524.95551,182.87368 C 520.1206,182.87368 516.48577,183.68852 514.06836,185.3298 C 511.72643,186.97106 510.54946,189.71273 510.54946,193.57194 L 510.54946,211.07175 L 503.20478,211.07175 L 503.20478,218.53455 L 510.54946,218.53455 L 510.54946,228.17007 L 523.94004,232.11402 L 523.94004,218.53455 L 535.93721,218.53455 L 535.93721,211.07175 L 523.94004,211.07175 L 523.94004,193.78449 C 523.94004,192.49808 524.3371,191.57727 525.1681,191.04498 C 525.99909,190.55703 527.21853,190.31287 528.80503,190.31287 C 531.52459,190.31286 534.1716,190.88066 536.74017,191.98964 L 535.15782,184.38514 C 533.6469,183.89719 532.04929,183.54132 530.3873,183.27516 C 528.7253,183.00901 526.91972,182.87368 524.95551,182.87368 z M 561.49022,182.87368 C 556.2776,182.87368 552.05664,183.95918 548.80814,186.13276 C 545.55973,188.30633 543.91957,191.26567 543.91957,195.03617 C 543.91957,196.8105 544.38276,198.4108 545.28933,199.83031 C 546.19582,201.29412 547.43431,202.51495 549.02073,203.49086 C 550.68272,204.51109 552.61595,205.29656 554.80673,205.82889 C 557.07308,206.40553 559.531,206.67906 562.17506,206.67908 C 564.8192,206.67906 566.81387,206.57023 568.17365,206.34845 C 569.5335,206.12664 570.85693,205.77363 572.14121,205.28571 L 572.14121,207.95437 C 572.14121,209.19639 571.61659,210.20241 570.55895,211.0009 C 569.50131,211.84369 567.6531,212.27616 565.00904,212.27619 C 562.51605,212.27616 560.35127,212.08785 558.53813,211.73301 C 556.72506,211.42247 554.87693,210.90478 552.9883,210.15071 L 547.55651,215.86589 C 550.27614,216.97482 553.11216,217.81616 556.05844,218.39285 C 559.00464,218.96948 562.28034,219.26662 565.90647,219.26666 C 572.85666,219.26662 577.83388,218.28997 580.85573,216.33822 C 583.953,214.3864 585.50814,211.48292 585.50814,207.62374 L 585.50814,183.60579 L 572.14121,183.60579 L 572.14121,185.99106 C 570.78143,184.9708 569.16486,184.18533 567.27622,183.65303 C 565.38758,183.12072 563.45436,182.87368 561.49022,182.87368 z M 326.05761,183.55856 L 326.05761,227.15456 L 333.75658,229.68153 L 333.75658,183.55856 L 326.05761,183.55856 z M 383.2567,183.55856 L 383.2567,216.78693 L 390.95567,216.78693 L 390.95567,213.92934 C 392.16446,214.8996 393.73841,215.73406 395.70261,216.40907 C 397.74232,217.1262 399.96862,217.47178 402.38604,217.47181 C 404.1236,217.47178 405.57468,217.40941 406.70789,217.28288 C 407.84103,217.15629 408.82891,216.99783 409.65991,216.78693 L 407.48719,212.2998 C 406.42955,212.63727 405.33768,212.88675 404.20454,213.05553 C 403.1469,213.22425 401.86595,213.29167 400.35502,213.2917 C 398.46638,213.29167 396.70335,212.91742 395.04136,212.15811 C 393.37936,211.44091 392.01331,210.57273 390.95567,209.56029 L 390.95567,183.55856 L 383.2567,183.55856 z M 597.34002,183.60579 L 597.34002,218.53455 L 610.70695,218.53455 L 610.70695,216.12567 C 611.84008,216.87974 613.39522,217.60936 615.35935,218.27477 C 617.32356,218.94012 619.40332,219.26662 621.5941,219.26666 C 623.55831,219.26662 625.2599,219.10481 626.69526,218.79433 C 628.13061,218.52814 629.5581,218.09279 630.99345,217.47181 L 627.14401,209.82007 C 626.0108,210.35235 624.79128,210.7612 623.50707,211.07175 C 622.29829,211.38223 620.91334,211.54405 619.32692,211.54408 C 615.92743,211.54405 613.04879,210.54089 610.70695,208.54479 L 610.70695,183.60579 L 597.34002,183.60579 z M 431.1509,186.65232 C 433.56839,186.65232 435.79461,186.9878 437.83439,187.62059 C 439.9496,188.29557 441.73629,189.10642 443.17172,190.07671 L 443.17172,199.31075 C 441.73629,199.77478 440.22378,200.14397 438.63735,200.3971 C 437.12643,200.6502 435.04667,200.77494 432.40261,200.77497 C 429.00304,200.77495 426.50265,200.15627 424.91615,198.93288 C 423.32973,197.75166 422.53092,196.10129 422.53092,193.94981 C 422.53092,191.71394 423.24463,189.92026 424.67998,188.61249 C 426.11541,187.30471 428.28019,186.65231 431.1509,186.65232 z M 564.3242,189.84054 C 565.91062,189.84053 567.38066,190.11119 568.74044,190.6435 C 570.1758,191.22015 571.31022,191.92616 572.14121,192.76898 L 572.14121,198.36609 C 571.08357,198.89838 569.94915,199.30436 568.74044,199.57053 C 567.60731,199.88102 566.00962,200.04284 563.96992,200.04286 C 562.08128,200.04284 560.54987,199.58388 559.34109,198.69672 C 558.13238,197.80953 557.52266,196.64168 557.52266,195.17786 C 557.52266,193.49222 558.08983,192.18905 559.22304,191.25753 C 560.43175,190.326 562.13335,189.84054 564.3242,189.84054 z M 684.88624,211.16621 C 683.26422,211.16621 681.78874,211.31298 680.42276,211.61493 C 679.05678,211.93275 677.87143,212.40443 676.90387,213.0083 C 675.93639,213.61217 675.20099,214.35423 674.66034,215.22825 C 674.11962,216.10226 673.8338,217.10697 673.83373,218.25115 C 673.83373,219.77671 674.24144,221.16812 675.03821,222.40765 C 675.83497,223.66305 676.90772,224.72957 678.27362,225.61949 C 679.6396,226.50939 681.22776,227.19737 683.02057,227.67413 C 684.8418,228.16674 686.74374,228.40622 688.73576,228.40624 C 691.32533,228.40622 693.42414,228.08176 695.01774,227.41434 C 696.61134,226.74689 697.79179,225.81944 698.56021,224.6276 L 694.28559,223.56486 C 693.65955,224.32763 692.86792,224.92292 691.90037,225.33609 C 690.96122,225.74926 689.74314,225.95012 688.26343,225.95012 C 686.92594,225.95012 685.65632,225.76471 684.46114,225.38333 C 683.29437,225.01781 682.25442,224.49206 681.34377,223.82464 C 680.43319,223.1572 679.71177,222.35334 679.17105,221.41576 C 678.65882,220.49405 678.41532,219.47389 678.41532,218.34562 C 678.41532,217.55105 678.56979,216.85533 678.91131,216.26737 C 679.28124,215.67939 679.79672,215.20043 680.42276,214.80315 C 681.04881,214.42176 681.77022,214.11231 682.59548,213.90572 C 683.44915,213.71503 684.36259,213.62233 685.35857,213.62233 C 687.29368,213.62233 688.88184,213.95494 690.10551,214.5906 C 691.32919,215.24214 692.17228,216.1696 692.65609,217.37734 C 692.65609,217.39323 692.65602,217.41642 692.65609,217.44819 C 692.68451,217.49587 692.70332,217.51904 692.70332,217.51904 L 687.76745,217.51904 L 688.47594,219.92792 L 697.94618,219.92792 L 697.4502,218.34562 C 697.08027,217.10609 696.51823,216.03958 695.74981,215.13378 C 695.00995,214.22797 694.09167,213.47819 693.0103,212.89022 C 691.95742,212.30224 690.73934,211.85374 689.37337,211.56769 C 688.00746,211.29754 686.50833,211.16621 684.88624,211.16621 z M 642.63641,211.44961 L 647.9265,228.14645 L 652.24828,228.14645 L 660.77386,217.49543 C 661.02998,217.1776 661.31579,216.81407 661.6004,216.43269 C 661.885,216.05129 662.09578,215.75773 662.23808,215.53526 C 662.2665,215.61471 662.29922,215.75377 662.35612,215.96036 C 662.41303,216.18284 662.46457,216.40686 662.52148,216.64523 C 662.57838,216.89949 662.65343,217.15486 662.71041,217.37734 C 662.79573,217.61571 662.84727,217.78567 662.87569,217.89691 L 666.06395,228.14645 L 670.48019,228.14645 L 665.16652,211.44961 L 661.08084,211.44961 L 652.3664,222.14787 C 652.11028,222.46569 651.82923,222.80559 651.5162,223.187 C 651.2316,223.56837 651.02082,223.86966 650.87852,224.10804 C 650.85011,224.02857 650.81738,223.8818 650.76048,223.65933 C 650.70357,223.45272 650.62845,223.2287 650.57154,222.97445 C 650.51464,222.73607 650.44436,222.50432 650.35896,222.26595 C 650.30205,222.02757 650.26933,221.834 650.24091,221.72278 L 647.02907,211.44961 L 642.63641,211.44961 z "
       style="font-size:112.0508728px;font-style:normal;font-variant:normal;font-weight:normal;font-stretch:normal;text-align:start;line-height:125%;writing-mode:lr-tb;text-anchor:start;fill:url(#linearGradient5410);fill-opacity:1;stroke:none;stroke-width:1px;stroke-linecap:butt;stroke-linejoin:miter;stroke-opacity:1;font-family:Interstate-LightCondensed" />
  </g>
  <g
     transform="matrix(1.2105926,0,0,1.2105926,-308.78476,-443.43448)"
     id="layer1"
     inkscape:label="Calque 1">
    <path
       id="path2221"
       d="M 293.69923,599.2555 C 288.61593,596.94795 285.43747,592.18573 285.43231,586.86932 C 285.42935,583.82146 286.13696,582.31093 288.82857,579.61932 C 292.94935,575.49854 296.15072,575.2732 300.35184,578.80821 C 302.83284,580.89583 303.42857,582.16319 303.42857,585.35367 C 303.42857,589.93083 299.97369,594.19824 296.22403,594.25259 L 293.92857,594.28586 L 296.28935,596.25259 C 300.69752,599.92496 310.03096,598.08284 314.26067,592.70564 C 316.94762,589.28974 317.13317,582.25824 314.84084,570.71932 L 313.25156,562.71932 L 305.09006,562.69017 C 298.25713,562.66577 296.11465,562.23432 291.92857,560.03978 C 285.25402,556.54066 279.89375,551.00695 276.11964,543.71932 C 273.36554,538.40129 273.01006,536.75319 272.99212,529.21932 C 272.97514,522.09149 273.40104,519.7962 275.63041,515.00096 C 279.32544,507.05318 283.73447,500.83626 291.18314,493.07098 L 297.56041,486.42264 L 296.29966,482.07098 C 295.60625,479.67757 295.04328,472.54432 295.04862,466.21932 C 295.05677,456.55661 295.43193,453.76073 297.39684,448.71932 C 299.8084,442.5319 305.96827,435.21932 308.76877,435.21932 C 311.10447,435.21932 315.12625,442.8071 316.99612,450.74163 C 320.64521,466.2261 315.57022,487.22562 306.02373,496.14363 C 302.98204,498.98508 302.89082,500.16751 305.05014,508.7638 L 306.67172,515.21932 L 310.58998,515.21932 C 324.14766,515.21932 334.12601,532.4882 328.98609,547.05628 C 327.02996,552.60054 323.86496,556.66937 319.80954,558.85335 C 315.92788,560.94377 315.93432,560.89796 317.92857,572.21932 C 318.75207,576.89432 319.41905,582.51932 319.41075,584.71932 C 319.36441,597.01017 305.73161,604.71756 293.69923,599.2555 z M 312.02148,558.95974 C 312.28597,558.69526 311.05978,551.44546 309.29662,542.84909 C 307.14576,532.36247 305.66429,527.21932 304.79452,527.21932 C 304.08152,527.21932 301.92145,528.6037 299.99435,530.29571 C 293.98437,535.57254 294.22282,543.34408 300.55828,548.67501 C 303.82667,551.42518 304.22742,552.44475 301.67857,551.52521 C 294.46223,548.9218 289.87739,541.52101 290.77671,533.92761 C 291.4966,527.84928 295.44836,520.90312 299.54361,518.51771 C 302.62034,516.72555 302.62878,516.69679 301.97751,510.21932 C 301.61806,506.64432 300.97503,503.36935 300.54855,502.9416 C 299.3675,501.75705 290.91313,509.68075 285.99859,516.57826 C 280.42033,524.40731 277.97078,531.70622 278.74049,538.20522 C 280.34544,551.75647 291.23431,560.63672 305.23458,559.81207 C 308.70289,559.60778 311.75699,559.22423 312.02148,558.95974 z M 322.81483,550.21198 C 325.80373,542.74199 324.28628,535.05759 318.88594,530.31604 C 315.5322,527.37142 310.89824,525.41632 309.82245,526.4921 C 309.54032,526.77424 310.68627,533.8635 312.36902,542.24601 C 314.05177,550.62852 315.42857,557.68237 315.42857,557.92122 C 315.42857,558.16008 316.72739,557.43067 318.31483,556.30031 C 319.90227,555.16995 321.92727,552.4302 322.81483,550.21198 z M 304.9704,479.46932 C 313.0887,470.61907 317.52382,457.06603 314.04109,451.75071 C 309.17103,444.31805 300.13099,454.89144 298.75469,469.62994 C 298.10127,476.62723 298.95997,483.21932 300.52487,483.21932 C 301.07798,483.21932 303.07847,481.53182 304.9704,479.46932 z "
       style="fill:#000000" />
  </g>
  <path
     style="fill:none;fill-opacity:1;fill-rule:evenodd;stroke:#141414;stroke-width:4;stroke-linecap:square;stroke-linejoin:miter;stroke-miterlimit:4;stroke-dasharray:none;stroke-opacity:1"
     d="M 0,165 L 800,165"
     id="path2327"
     sodipodi:nodetypes="cc" />
  <path
     style="fill:none;fill-opacity:1;fill-rule:evenodd;stroke:#141414;stroke-width:4;stroke-linecap:square;stroke-linejoin:miter;stroke-miterlimit:4;stroke-dasharray:none;stroke-opacity:1"
     d="M 0,140 L 800,140"
     id="path3298"
     sodipodi:nodetypes="cc" />
  <path
     style="fill:none;fill-opacity:1;fill-rule:evenodd;stroke:#141414;stroke-width:4;stroke-linecap:square;stroke-linejoin:miter;stroke-miterlimit:4;stroke-dasharray:none;stroke-opacity:1"
     d="M 0,190 L 800,190"
     id="path3302"
     sodipodi:nodetypes="cc" />
  <path
     style="fill:none;fill-opacity:1;fill-rule:evenodd;stroke:#141414;stroke-width:4;stroke-linecap:square;stroke-linejoin:miter;stroke-miterlimit:4;stroke-dasharray:none;stroke-opacity:1"
     d="M 0,240 L 800,240"
     id="path3306"
     sodipodi:nodetypes="cc" />
  <path
     style="fill:none;fill-opacity:1;fill-rule:evenodd;stroke:#141414;stroke-width:4;stroke-linecap:square;stroke-linejoin:miter;stroke-miterlimit:4;stroke-dasharray:none;stroke-opacity:1"
     d="M 0,215 L 800,215"
     id="path3304"
     sodipodi:nodetypes="cc" />
  <text
     xml:space="preserve"
     style="font-size:97.09479523px;font-style:normal;font-weight:normal;fill:#b3b3b3;fill-opacity:1;stroke:none;stroke-width:1px;stroke-linecap:butt;stroke-linejoin:miter;stroke-opacity:1;font-family:Monotype Corsiva"
     x="435.78079"
     y="66.949532"
     id="text2042"
     transform="scale(0.8643172,1.1569826)"><tspan
       sodipodi:role="line"
       id="tspan2044"
       x="435.78079"
       y="66.949532"
       style="fill:#b3b3b3;fill-opacity:1;stroke:none;stroke-opacity:1;font-family:Monotype Corsiva">Practice</tspan></text>
  <g
     inkscape:label="Layer 1"
     id="g2674"
     transform="matrix(-2.319813,0,0,2.1016448,432.23708,442.59289)">
    <path
       transform="matrix(1.106464,0,0,1.044643,-2.681557,-2.517857)"
       d="M 41.625 41 A 16.4375 7 0 1 1  8.75,41 A 16.4375 7 0 1 1  41.625 41 z"
       sodipodi:ry="7"
       sodipodi:rx="16.4375"
       sodipodi:cy="41"
       sodipodi:cx="25.1875"
       id="path2240"
       style="opacity:0.49431817;color:#000000;fill:url(#radialGradient4021);fill-opacity:1;fill-rule:evenodd;stroke:none;stroke-width:2;stroke-linecap:butt;stroke-linejoin:miter;marker:none;marker-start:none;marker-mid:none;marker-end:none;stroke-miterlimit:4;stroke-dasharray:none;stroke-dashoffset:0;stroke-opacity:1;visibility:visible;display:inline;overflow:visible"
       sodipodi:type="arc" />
    <path
       transform="translate(8.75,-7)"
       d="M 27.625 46.375 A 11.1875 5.875 0 1 1  5.25,46.375 A 11.1875 5.875 0 1 1  27.625 46.375 z"
       sodipodi:ry="5.875"
       sodipodi:rx="11.1875"
       sodipodi:cy="46.375"
       sodipodi:cx="16.4375"
       id="path2222"
       style="opacity:1;color:#000000;fill:url(#radialGradient4023);fill-opacity:1;fill-rule:evenodd;stroke:#424242;stroke-width:1;stroke-linecap:butt;stroke-linejoin:miter;marker:none;marker-start:none;marker-mid:none;marker-end:none;stroke-miterlimit:4;stroke-dasharray:none;stroke-dashoffset:0;stroke-opacity:1;visibility:visible;display:inline;overflow:visible"
       sodipodi:type="arc" />
    <path
       sodipodi:type="arc"
       style="opacity:1;color:#000000;fill:#424242;fill-opacity:1;fill-rule:evenodd;stroke:none;stroke-width:2;stroke-linecap:butt;stroke-linejoin:miter;marker:none;marker-start:none;marker-mid:none;marker-end:none;stroke-miterlimit:4;stroke-dasharray:none;stroke-dashoffset:0;stroke-opacity:1;visibility:visible;display:inline;overflow:visible"
       id="path2260"
       sodipodi:cx="33.5"
       sodipodi:cy="22.125"
       sodipodi:rx="1.875"
       sodipodi:ry="1.875"
       d="M 35.375 22.125 A 1.875 1.875 0 1 1  31.625,22.125 A 1.875 1.875 0 1 1  35.375 22.125 z"
       transform="matrix(2.066667,0,0,1.266667,-43.98333,9.475)" />
    <path
       sodipodi:nodetypes="cszzc"
       id="path2250"
       d="M 20.25,31.375 C 20.25,31.375 20.985875,34.77724 23.25,34.5 C 29.375,33.75 28.721362,34.010493 33.125,35.375 C 37.5625,36.75 35.21875,38.96875 39.75,39.375 C 44.28125,39.78125 43.875,35.75 47.75,35.5"
       style="opacity:1;color:#000000;fill:none;fill-opacity:1;fill-rule:evenodd;stroke:url(#linearGradient4025);stroke-width:1;stroke-linecap:butt;stroke-linejoin:miter;marker:none;marker-start:none;marker-mid:none;marker-end:none;stroke-miterlimit:4;stroke-dasharray:none;stroke-dashoffset:0;stroke-opacity:1;visibility:visible;display:inline;overflow:visible" />
    <rect
       transform="matrix(0.970732,0.240164,-0.264014,0.964519,0,0)"
       ry="3.1610134"
       rx="2.9004805"
       y="-4.0142608"
       x="16.028919"
       height="30.692028"
       width="22.136791"
       id="rect1343"
       style="opacity:1;color:#000000;fill:url(#radialGradient4027);fill-opacity:1;fill-rule:evenodd;stroke:#7c7c7c;stroke-width:1.00015199;stroke-linecap:butt;stroke-linejoin:miter;marker:none;marker-start:none;marker-mid:none;marker-end:none;stroke-miterlimit:4;stroke-dasharray:none;stroke-dashoffset:0;stroke-opacity:1;visibility:visible;display:inline;overflow:visible" />
    <rect
       style="opacity:0.30681817;color:#000000;fill:none;fill-opacity:1;fill-rule:evenodd;stroke:#ffffff;stroke-width:1.00015211;stroke-linecap:butt;stroke-linejoin:miter;marker:none;marker-start:none;marker-mid:none;marker-end:none;stroke-miterlimit:4;stroke-dasharray:none;stroke-dashoffset:0;stroke-opacity:1;visibility:visible;display:inline;overflow:visible"
       id="rect2353"
       width="19.862064"
       height="28.524395"
       x="17.210075"
       y="-3.006144"
       rx="2.3485057"
       ry="2.559458"
       transform="matrix(0.970732,0.240164,-0.264014,0.964519,0,0)" />
    <path
       sodipodi:nodetypes="cccsccsssssssssssssssssssssssscccsccssssssssssssssssssssssssssssssccccsccssssssssssssssssssssssssssssssccccccccssssssssscccsssssssssssssssssssssssssccccssccccsccssssssssssssssssssssssssssscccsssssssssssssssssssssssccccssccccsccssssssssssssssssssssssssssscccssssssssssssssssssssssssscccccssssssssssssssssssssssscccccssssssssssssssssssssssssccc"
       id="rect2302"
       d="M 20.09375,1.96875 C 17.872662,2.3212044 15.943233,4.0082576 15.3125,6.3125 L 10.46875,24.15625 C 13.325696,25.560355 17.10636,24.625 20.6875,24.625 C 21.177508,24.625 21.675568,24.623475 22.15625,24.59375 C 21.221109,24.366187 19.84375,24.03125 19.84375,24.03125 C 19.623887,23.971706 19.422566,23.896056 19.28125,23.78125 C 19.276518,23.777187 19.254589,23.75417 19.25,23.75 C 19.236674,23.737161 19.203065,23.703734 19.1875,23.6875 C 19.181844,23.681964 19.161865,23.661817 19.15625,23.65625 C 19.148027,23.640392 19.131304,23.606164 19.125,23.59375 C 19.115328,23.569412 19.100273,23.521815 19.09375,23.5 C 19.093946,23.496901 19.093689,23.471487 19.09375,23.46875 C 19.087919,23.457968 19.068124,23.417192 19.0625,23.40625 C 19.062571,23.40011 19.062547,23.378998 19.0625,23.375 C 19.06273,23.357135 19.062467,23.324025 19.0625,23.3125 C 19.062394,23.306455 19.062183,23.28488 19.0625,23.28125 C 19.062391,23.278084 19.062511,23.252775 19.0625,23.25 C 19.07062,23.213775 19.087162,23.156517 19.09375,23.125 C 19.099008,23.114735 19.119154,23.073755 19.125,23.0625 C 19.125001,23.059641 19.125263,23.034326 19.125,23.03125 C 19.132615,23.006679 19.147324,22.959774 19.15625,22.9375 C 19.164323,22.921039 19.182401,22.885033 19.1875,22.875 C 19.212265,22.829849 19.250755,22.757324 19.28125,22.71875 C 19.28767,22.712265 19.308241,22.691762 19.3125,22.6875 C 19.323749,22.681989 19.364715,22.66125 19.375,22.65625 C 19.403556,22.639098 19.464338,22.608552 19.5,22.59375 C 19.510877,22.593904 19.551519,22.593435 19.5625,22.59375 C 19.562319,22.592004 19.562446,22.569516 19.5625,22.5625 C 19.569512,22.562442 19.591979,22.562294 19.59375,22.5625 C 19.768583,22.52983 19.990234,22.555664 20.21875,22.59375 L 26.15625,23.96875 C 27.346545,23.677607 28.483477,23.278522 29.5625,22.8125 C 29.410097,22.726366 29.245035,22.671654 29.09375,22.625 C 29.056381,22.61418 29.005859,22.601562 28.96875,22.59375 C 28.96875,22.59375 20.75,20.59375 20.75,20.59375 C 20.530137,20.534206 20.305787,20.458556 20.15625,20.34375 C 20.151246,20.339687 20.129848,20.31667 20.125,20.3125 C 20.12048,20.308108 20.0981,20.285757 20.09375,20.28125 C 20.089575,20.276626 20.066495,20.254744 20.0625,20.25 C 20.057083,20.239373 20.036232,20.198414 20.03125,20.1875 C 20.025548,20.181998 20.005651,20.161786 20,20.15625 C 20.000313,20.153059 19.999908,20.12776 20,20.125 C 19.99427,20.114116 19.974252,20.073532 19.96875,20.0625 C 19.968921,20.059401 19.968692,20.033987 19.96875,20.03125 C 19.968719,20.020468 19.968531,19.979692 19.96875,19.96875 C 19.968021,19.94722 19.967081,19.89805 19.96875,19.875 C 19.968792,19.871465 19.968889,19.847713 19.96875,19.84375 C 19.968042,19.830743 19.967903,19.79231 19.96875,19.78125 C 19.968606,19.777816 19.968772,19.75283 19.96875,19.75 C 19.974494,19.738851 19.99467,19.697882 20,19.6875 C 20.008789,19.659668 20.021637,19.619155 20.03125,19.59375 C 20.036554,19.583113 20.056967,19.541976 20.0625,19.53125 C 20.079623,19.494921 20.106877,19.437683 20.125,19.40625 C 20.13942,19.385289 20.16988,19.33593 20.1875,19.3125 C 20.192078,19.307626 20.214081,19.285911 20.21875,19.28125 C 20.225167,19.274765 20.245742,19.254262 20.25,19.25 C 20.261293,19.244488 20.302246,19.22375 20.3125,19.21875 C 20.328392,19.210493 20.362434,19.19361 20.375,19.1875 C 20.383514,19.183691 20.420935,19.164467 20.4375,19.15625 C 20.440657,19.156494 20.466002,19.156179 20.46875,19.15625 C 20.47303,19.152009 20.493483,19.13144 20.5,19.125 C 20.50278,19.125058 20.527996,19.124835 20.53125,19.125 C 20.538403,19.11798 20.561169,19.095502 20.5625,19.09375 C 20.565755,19.09391 20.59097,19.093692 20.59375,19.09375 C 20.600109,19.093874 20.621997,19.093871 20.625,19.09375 C 20.769148,19.087955 20.947022,19.126587 21.125,19.15625 L 29.4375,21.09375 C 30.056885,21.266602 30.624819,21.702545 31.0625,22.125 C 31.576262,21.851747 32.053779,21.530124 32.53125,21.21875 C 32.385605,21.023752 31.200805,19.519263 30.125,19.1875 C 30.087631,19.17668 30.037109,19.164062 30,19.15625 C 30,19.15625 21.78125,17.15625 21.78125,17.15625 C 21.561387,17.096706 21.337037,17.021056 21.1875,16.90625 C 21.182496,16.902187 21.161098,16.87917 21.15625,16.875 C 21.15173,16.870608 21.12935,16.848257 21.125,16.84375 C 21.120825,16.839126 21.097745,16.817244 21.09375,16.8125 C 21.088333,16.801873 21.067482,16.760914 21.0625,16.75 C 21.056798,16.744498 21.036901,16.724286 21.03125,16.71875 C 21.031563,16.715559 21.031158,16.69026 21.03125,16.6875 C 21.02552,16.676616 21.005502,16.636032 21,16.625 C 21.000171,16.621901 20.999942,16.596487 21,16.59375 C 20.999969,16.582968 20.999781,16.542192 21,16.53125 C 20.999271,16.50972 20.998331,16.46055 21,16.4375 C 21.000042,16.433965 21.000139,16.410213 21,16.40625 C 20.999292,16.393243 20.999153,16.35481 21,16.34375 C 20.999856,16.340316 21.000022,16.31533 21,16.3125 C 21.005744,16.301351 21.02592,16.260382 21.03125,16.25 C 21.040039,16.222168 21.052887,16.181655 21.0625,16.15625 C 21.067804,16.145613 21.088217,16.104476 21.09375,16.09375 C 21.110873,16.057421 21.138127,16.000183 21.15625,15.96875 C 21.17067,15.947789 21.20113,15.89843 21.21875,15.875 C 21.223328,15.870126 21.245331,15.848411 21.25,15.84375 C 21.256417,15.837265 21.276992,15.816763 21.28125,15.8125 C 21.292543,15.806988 21.333496,15.78625 21.34375,15.78125 C 21.359642,15.772993 21.393684,15.75611 21.40625,15.75 C 21.41174,15.744272 21.431987,15.724434 21.4375,15.71875 C 21.448429,15.718922 21.488979,15.718414 21.5,15.71875 C 21.50428,15.714509 21.524733,15.69394 21.53125,15.6875 C 21.53403,15.687558 21.559246,15.687336 21.5625,15.6875 C 21.569653,15.680479 21.592419,15.658003 21.59375,15.65625 C 21.597005,15.65641 21.62222,15.656192 21.625,15.65625 C 21.631359,15.656374 21.653247,15.65637 21.65625,15.65625 C 21.800398,15.650455 21.978272,15.689087 22.15625,15.71875 L 30.46875,17.65625 C 31.8125,18.03125 32.9375,19.65625 32.9375,19.65625 L 32.53125,21.21875 C 32.715417,21.098649 32.91532,21.000499 33.09375,20.875 L 35.6875,11.34375 C 36.528911,8.2698323 34.727126,5.1972501 31.65625,4.4375 L 22.375,2.125 C 21.77522,1.9766113 21.181753,1.9275559 20.59375,1.96875 C 20.590201,1.9689986 20.568585,1.9688282 20.5625,1.96875 C 20.549604,1.9684951 20.512451,1.9693517 20.5,1.96875 C 20.493725,1.9685317 20.475181,1.968773 20.46875,1.96875 C 20.465703,1.968688 20.44411,1.9687787 20.4375,1.96875 C 20.40749,1.9695903 20.34244,1.967511 20.3125,1.96875 C 20.303236,1.9691283 20.266205,1.9689911 20.25,1.96875 C 20.246173,1.9686986 20.222855,1.9685175 20.21875,1.96875 C 20.208132,1.9685699 20.16686,1.9688883 20.15625,1.96875 C 20.145621,1.9685611 20.10437,1.9688977 20.09375,1.96875 z M 15.59375,7.1875 L 20.5,8.15625 C 20.69043,8.2148438 20.89146,8.3014441 21.03125,8.4375 C 21.03578,8.4421471 21.058106,8.4639893 21.0625,8.46875 C 21.066755,8.473626 21.08964,8.495007 21.09375,8.5 C 21.09909,8.5105888 21.120017,8.5516368 21.125,8.5625 C 21.130679,8.5679894 21.150614,8.5882289 21.15625,8.59375 C 21.166339,8.618365 21.179778,8.6651367 21.1875,8.6875 C 21.19627,8.7160534 21.212338,8.7770606 21.21875,8.8125 C 21.218672,8.8186214 21.218698,8.8397544 21.21875,8.84375 C 21.218499,8.8614809 21.218788,8.8944986 21.21875,8.90625 C 21.219104,8.9346107 21.220748,9.0014688 21.21875,9.03125 C 21.218893,9.0346823 21.218733,9.0596721 21.21875,9.0625 C 21.213026,9.0736106 21.192968,9.1141663 21.1875,9.125 C 21.180262,9.1525056 21.164842,9.1934845 21.15625,9.21875 C 21.156534,9.2218273 21.156216,9.2471194 21.15625,9.25 C 21.150586,9.2614818 21.13041,9.3024108 21.125,9.3125 C 21.117875,9.3269531 21.101397,9.3614686 21.09375,9.375 C 21.088157,9.3804857 21.068124,9.4008203 21.0625,9.40625 C 21.057238,9.4173435 21.036629,9.4578747 21.03125,9.46875 C 21.026708,9.4741922 21.004652,9.4947697 21,9.5 C 20.99524,9.5050208 20.973615,9.5264362 20.96875,9.53125 C 20.963783,9.5358592 20.942567,9.5580929 20.9375,9.5625 C 20.926879,9.5678443 20.885828,9.5888438 20.875,9.59375 C 20.869499,9.599424 20.849272,9.6193728 20.84375,9.625 C 20.822682,9.6337196 20.771738,9.6491388 20.75,9.65625 C 20.725775,9.664946 20.681453,9.6814662 20.65625,9.6875 C 20.491012,9.7225536 20.302734,9.7070312 20.125,9.65625 L 15.1875,8.59375 L 15.59375,7.1875 z M 23.40625,8.78125 C 23.409505,8.7814104 23.43472,8.7811922 23.4375,8.78125 C 23.443859,8.7813735 23.465747,8.7813707 23.46875,8.78125 C 23.612898,8.7754546 23.790772,8.8140869 23.96875,8.84375 L 32.28125,10.78125 C 33.625,11.15625 34.5,12.53125 34.5,12.53125 L 34.15625,14.0625 C 34.010605,13.867502 33.013305,12.644263 31.9375,12.3125 C 31.900131,12.30168 31.849609,12.289063 31.8125,12.28125 C 31.8125,12.28125 23.59375,10.28125 23.59375,10.28125 C 23.373887,10.221706 23.149537,10.146056 23,10.03125 C 22.994996,10.027187 22.973598,10.00417 22.96875,10 C 22.96423,9.9956081 22.94185,9.9732567 22.9375,9.96875 C 22.933325,9.964126 22.910245,9.9422438 22.90625,9.9375 C 22.900833,9.9268731 22.879982,9.885914 22.875,9.875 C 22.869298,9.8694981 22.849401,9.8492857 22.84375,9.84375 C 22.844063,9.8405594 22.843658,9.8152595 22.84375,9.8125 C 22.83802,9.8016155 22.818002,9.7610315 22.8125,9.75 C 22.812671,9.7469013 22.812442,9.7214874 22.8125,9.71875 C 22.812469,9.7079678 22.812281,9.6671921 22.8125,9.65625 C 22.811771,9.6347204 22.810831,9.5855497 22.8125,9.5625 C 22.812542,9.5589646 22.812639,9.5352132 22.8125,9.53125 C 22.811792,9.5182428 22.811653,9.4798098 22.8125,9.46875 C 22.812356,9.4653157 22.812522,9.4403304 22.8125,9.4375 C 22.818244,9.4263513 22.83842,9.3853818 22.84375,9.375 C 22.852539,9.347168 22.865387,9.3066552 22.875,9.28125 C 22.880304,9.2706125 22.900717,9.2294764 22.90625,9.21875 C 22.923373,9.1824211 22.950627,9.1251826 22.96875,9.09375 C 22.98317,9.0727891 23.01363,9.0234301 23.03125,9 C 23.035828,8.9951258 23.057831,8.9734113 23.0625,8.96875 C 23.068917,8.9622649 23.089492,8.9417626 23.09375,8.9375 C 23.105043,8.9319882 23.145996,8.9112495 23.15625,8.90625 C 23.172142,8.8979933 23.206184,8.8811106 23.21875,8.875 C 23.22424,8.8692724 23.244487,8.8494344 23.25,8.84375 C 23.260929,8.8439218 23.301479,8.8434137 23.3125,8.84375 C 23.31678,8.8395087 23.337233,8.8189403 23.34375,8.8125 C 23.34653,8.812558 23.371746,8.8123355 23.375,8.8125 C 23.382153,8.8054795 23.404919,8.7830026 23.40625,8.78125 z M 14.6875,10.5625 L 19.59375,11.53125 C 19.78418,11.589844 19.98521,11.676444 20.125,11.8125 C 20.12953,11.817147 20.151856,11.838989 20.15625,11.84375 C 20.160505,11.848626 20.18339,11.870007 20.1875,11.875 C 20.19284,11.885589 20.213767,11.926637 20.21875,11.9375 C 20.224429,11.942989 20.244364,11.963229 20.25,11.96875 C 20.24982,11.970333 20.249942,11.992927 20.25,12 C 20.255657,12.01087 20.275788,12.051496 20.28125,12.0625 C 20.288266,12.085343 20.305742,12.129373 20.3125,12.15625 C 20.312673,12.159712 20.312461,12.183497 20.3125,12.1875 C 20.312071,12.205343 20.312171,12.238477 20.3125,12.25 C 20.312424,12.273503 20.314863,12.318849 20.3125,12.34375 C 20.307243,12.386045 20.293457,12.453613 20.28125,12.5 C 20.281337,12.502663 20.280939,12.528474 20.28125,12.53125 C 20.268545,12.561289 20.232748,12.628396 20.21875,12.65625 C 20.211894,12.671171 20.194889,12.70476 20.1875,12.71875 C 20.182197,12.729764 20.161678,12.770461 20.15625,12.78125 C 20.150671,12.786763 20.130608,12.807042 20.125,12.8125 C 20.089571,12.857753 20.04207,12.905418 20,12.9375 C 19.994489,12.943151 19.974283,12.963147 19.96875,12.96875 C 19.952897,12.976963 19.919231,12.993522 19.90625,13 C 19.897482,13.004048 19.860273,13.023066 19.84375,13.03125 C 19.840605,13.030989 19.815244,13.031326 19.8125,13.03125 C 19.801591,13.036982 19.760968,13.056932 19.75,13.0625 C 19.584762,13.097554 19.396484,13.082031 19.21875,13.03125 L 14.28125,11.96875 L 14.6875,10.5625 z M 22.5,12.21875 C 22.503255,12.21891 22.52847,12.218692 22.53125,12.21875 C 22.537609,12.218874 22.559497,12.218871 22.5625,12.21875 C 22.706648,12.212955 22.884522,12.251587 23.0625,12.28125 L 31.375,14.21875 C 32.71875,14.59375 33.46875,15.875 33.46875,15.875 L 33.15625,17.3125 C 33.010605,17.117502 32.107055,16.081763 31.03125,15.75 C 30.993881,15.73918 30.943359,15.726562 30.90625,15.71875 C 30.90625,15.71875 22.6875,13.71875 22.6875,13.71875 C 22.467637,13.659206 22.243287,13.583556 22.09375,13.46875 C 22.088746,13.464687 22.067348,13.44167 22.0625,13.4375 C 22.05798,13.433108 22.0356,13.410757 22.03125,13.40625 C 22.027075,13.401626 22.003995,13.379744 22,13.375 C 21.994583,13.364373 21.973732,13.323414 21.96875,13.3125 C 21.963048,13.306998 21.943151,13.286786 21.9375,13.28125 C 21.937813,13.278059 21.937408,13.25276 21.9375,13.25 C 21.93177,13.239116 21.911752,13.198531 21.90625,13.1875 C 21.906421,13.184401 21.906192,13.158987 21.90625,13.15625 C 21.906219,13.145468 21.906031,13.104692 21.90625,13.09375 C 21.905521,13.07222 21.904581,13.02305 21.90625,13 C 21.906292,12.996465 21.906389,12.972713 21.90625,12.96875 C 21.905542,12.955743 21.905403,12.91731 21.90625,12.90625 C 21.906106,12.902816 21.906272,12.87783 21.90625,12.875 C 21.911994,12.863851 21.93217,12.822882 21.9375,12.8125 C 21.946289,12.784668 21.959137,12.744155 21.96875,12.71875 C 21.974054,12.708113 21.994467,12.666976 22,12.65625 C 22.017123,12.619921 22.044377,12.562683 22.0625,12.53125 C 22.07692,12.510289 22.10738,12.46093 22.125,12.4375 C 22.129578,12.432626 22.151581,12.410911 22.15625,12.40625 C 22.162667,12.399765 22.183242,12.379263 22.1875,12.375 C 22.198793,12.369488 22.239746,12.34875 22.25,12.34375 C 22.265892,12.335493 22.299934,12.318611 22.3125,12.3125 C 22.321014,12.308691 22.358435,12.289467 22.375,12.28125 C 22.378157,12.281494 22.403502,12.281179 22.40625,12.28125 C 22.41053,12.277009 22.430983,12.25644 22.4375,12.25 C 22.44028,12.250058 22.465496,12.249836 22.46875,12.25 C 22.475903,12.24298 22.498669,12.220503 22.5,12.21875 z M 13.75,13.9375 L 18.65625,14.9375 C 18.795105,14.980224 18.940881,15.047047 19.0625,15.125 C 19.073548,15.130277 19.114073,15.150845 19.125,15.15625 C 19.130531,15.161813 19.150753,15.181903 19.15625,15.1875 C 19.161572,15.192185 19.182327,15.213923 19.1875,15.21875 C 19.200672,15.231805 19.234191,15.265062 19.25,15.28125 C 19.255646,15.286763 19.275644,15.306956 19.28125,15.3125 C 19.28107,15.315942 19.281306,15.340904 19.28125,15.34375 C 19.286785,15.354802 19.306942,15.39585 19.3125,15.40625 C 19.318227,15.411706 19.338071,15.432011 19.34375,15.4375 C 19.354782,15.469447 19.369249,15.527045 19.375,15.5625 C 19.37503,15.573222 19.375203,15.61413 19.375,15.625 C 19.375658,15.648047 19.376586,15.69432 19.375,15.71875 C 19.375084,15.72196 19.375001,15.747197 19.375,15.75 C 19.367191,15.786566 19.350818,15.845106 19.34375,15.875 C 19.34398,15.878131 19.343724,15.903491 19.34375,15.90625 C 19.329563,15.937766 19.295094,16.002488 19.28125,16.03125 C 19.273177,16.047569 19.255262,16.082863 19.25,16.09375 C 19.244615,16.104306 19.2269,16.140139 19.21875,16.15625 C 19.213606,16.167306 19.192664,16.208497 19.1875,16.21875 C 19.162244,16.248235 19.120353,16.289362 19.09375,16.3125 C 19.088228,16.318127 19.068046,16.338172 19.0625,16.34375 C 19.056989,16.349401 19.036783,16.369397 19.03125,16.375 C 19.015397,16.383213 18.981731,16.399772 18.96875,16.40625 C 18.959982,16.410298 18.922773,16.429316 18.90625,16.4375 C 18.903105,16.437239 18.877744,16.437576 18.875,16.4375 C 18.695666,16.490752 18.479492,16.494141 18.28125,16.4375 L 13.34375,15.3125 L 13.75,13.9375 z M 12.875,17.28125 L 17.78125,18.34375 C 18.003418,18.41211 18.236362,18.539845 18.375,18.71875 C 18.380646,18.724263 18.400644,18.744456 18.40625,18.75 C 18.414424,18.76577 18.430828,18.799319 18.4375,18.8125 C 18.447383,18.837267 18.461734,18.883407 18.46875,18.90625 C 18.474518,18.917047 18.494446,18.957811 18.5,18.96875 C 18.499999,18.979491 18.500229,19.020363 18.5,19.03125 C 18.499941,19.037359 18.499936,19.058512 18.5,19.0625 C 18.499931,19.080118 18.500412,19.113018 18.5,19.125 C 18.500071,19.128218 18.500012,19.15344 18.5,19.15625 C 18.500161,19.159315 18.499976,19.184756 18.5,19.1875 C 18.496498,19.199308 18.473579,19.237179 18.46875,19.25 C 18.467422,19.25381 18.469764,19.277879 18.46875,19.28125 C 18.469037,19.284007 18.468696,19.309847 18.46875,19.3125 C 18.460305,19.34459 18.447526,19.40444 18.4375,19.4375 C 18.405986,19.516863 18.356787,19.599683 18.3125,19.65625 C 18.307958,19.661692 18.285902,19.68227 18.28125,19.6875 C 18.27649,19.692521 18.254865,19.713936 18.25,19.71875 C 18.245033,19.723359 18.223817,19.745593 18.21875,19.75 C 18.213228,19.755627 18.193046,19.775672 18.1875,19.78125 C 18.176906,19.786661 18.135789,19.807516 18.125,19.8125 C 18.119509,19.818196 18.099261,19.838099 18.09375,19.84375 C 18.06897,19.853473 18.021425,19.867986 18,19.875 C 17.989091,19.874873 17.948468,19.875291 17.9375,19.875 C 17.772262,19.910054 17.583984,19.894531 17.40625,19.84375 L 12.46875,18.6875 L 12.875,17.28125 z M 11.90625,20.65625 L 16.8125,21.71875 C 17.00293,21.777344 17.20396,21.863944 17.34375,22 C 17.34828,22.004647 17.370606,22.026489 17.375,22.03125 C 17.379255,22.036126 17.40214,22.057507 17.40625,22.0625 C 17.41159,22.073089 17.432517,22.114137 17.4375,22.125 C 17.443179,22.130489 17.463114,22.150729 17.46875,22.15625 C 17.478839,22.180865 17.492278,22.227637 17.5,22.25 C 17.50877,22.278553 17.524838,22.33956 17.53125,22.375 C 17.531771,22.380537 17.531146,22.398259 17.53125,22.40625 C 17.530999,22.423981 17.531288,22.456999 17.53125,22.46875 C 17.531604,22.497111 17.533248,22.563969 17.53125,22.59375 C 17.530255,22.597408 17.532541,22.621075 17.53125,22.625 C 17.526525,22.637499 17.503702,22.676109 17.5,22.6875 C 17.492762,22.715006 17.477342,22.755985 17.46875,22.78125 C 17.460852,22.802717 17.446798,22.850706 17.4375,22.875 C 17.430375,22.889453 17.413897,22.923969 17.40625,22.9375 C 17.400657,22.942986 17.380624,22.96332 17.375,22.96875 C 17.369738,22.979844 17.349129,23.020375 17.34375,23.03125 C 17.339208,23.036692 17.317152,23.05727 17.3125,23.0625 C 17.30774,23.067521 17.286115,23.088936 17.28125,23.09375 C 17.276283,23.098359 17.255067,23.120593 17.25,23.125 C 17.239379,23.130344 17.198328,23.151344 17.1875,23.15625 C 17.181999,23.161924 17.161772,23.181873 17.15625,23.1875 C 17.135182,23.196219 17.084238,23.211639 17.0625,23.21875 C 17.038275,23.227446 16.993953,23.243966 16.96875,23.25 C 16.803512,23.285054 16.615234,23.269531 16.4375,23.21875 L 11.5,22.0625 L 11.90625,20.65625 z "
       style="opacity:0.44318183;color:#000000;fill:url(#radialGradient4029);fill-opacity:1;fill-rule:evenodd;stroke:none;stroke-width:1.00015175;stroke-linecap:butt;stroke-linejoin:miter;marker:none;marker-start:none;marker-mid:none;marker-end:none;stroke-miterlimit:4;stroke-dasharray:none;stroke-dashoffset:0;stroke-opacity:1;visibility:visible;display:inline;overflow:visible" />
    <path
       sodipodi:nodetypes="cccccczc"
       id="path2284"
       d="M 22.28125,15.84375 L 30.59375,17.78125 C 31.9375,18.15625 33.0625,19.78125 33.0625,19.78125 L 32.65625,21.375 C 32.65625,21.375 31.3125,19.53125 30.125,19.28125 C 30.125,19.28125 21.90625,17.28125 21.90625,17.28125 C 21.421036,17.149843 20.971366,16.960466 21.15625,16.375 C 21.34375,15.78125 21.71875,15.75 22.28125,15.84375 z "
       style="opacity:1;color:#000000;fill:url(#linearGradient4031);fill-opacity:1;fill-rule:evenodd;stroke:none;stroke-width:1;stroke-linecap:butt;stroke-linejoin:miter;marker:none;marker-start:none;marker-mid:none;marker-end:none;stroke-miterlimit:4;stroke-dasharray:none;stroke-dashoffset:0;stroke-opacity:1;visibility:visible;display:inline;overflow:visible" />
    <path
       sodipodi:nodetypes="ccccccccccsccc"
       id="path1345"
       d="M 31.5,19 L 31.375,34.375 L 31.375,34.40625 L 31.375,34.4375 C 31.462702,35.84074 30.279231,37.074596 29.125,36.84375 L 18.65625,34.6875 C 18.1875,34.5625 16.9375,34.0625 17.34375,32.625 L 15.40625,32.125 C 14.727493,34.561693 16.65625,36.28125 18.09375,36.59375 L 28.75,38.78125 C 31.324613,39.296173 33.497942,36.947282 33.375,34.375 C 33.37399,34.353864 33.376323,34.333663 33.375,34.3125 L 33.5,19 L 31.5,19 z "
       style="opacity:1;color:#000000;fill:#747474;fill-opacity:1;fill-rule:evenodd;stroke:#424242;stroke-width:1;stroke-linecap:butt;stroke-linejoin:miter;marker:none;marker-start:none;marker-mid:none;marker-end:none;stroke-miterlimit:4;stroke-dasharray:none;stroke-dashoffset:0;stroke-opacity:1;visibility:visible;display:inline;overflow:visible" />
    <path
       style="opacity:1;color:#000000;fill:url(#linearGradient4033);fill-opacity:1;fill-rule:evenodd;stroke:none;stroke-width:1;stroke-linecap:butt;stroke-linejoin:miter;marker:none;marker-start:none;marker-mid:none;marker-end:none;stroke-miterlimit:4;stroke-dasharray:none;stroke-dashoffset:0;stroke-opacity:1;visibility:visible;display:inline;overflow:visible"
       d="M 21.25,19.28125 L 29.5625,21.21875 C 30.90625,21.59375 32.03125,23.21875 32.03125,23.21875 L 31.625,24.8125 C 31.625,24.8125 30.28125,22.96875 29.09375,22.71875 C 29.09375,22.71875 20.875,20.71875 20.875,20.71875 C 20.389786,20.587343 19.940116,20.397966 20.125,19.8125 C 20.3125,19.21875 20.6875,19.1875 21.25,19.28125 z "
       id="path2286"
       sodipodi:nodetypes="cccccczc" />
    <path
       sodipodi:nodetypes="cccccczc"
       id="path2280"
       d="M 24.09375,8.9687499 L 32.40625,10.90625 C 33.75,11.28125 34.46875,12.40625 34.46875,12.40625 L 34.0625,14 C 34.0625,14 33.125,12.65625 31.9375,12.40625 C 31.9375,12.40625 23.71875,10.40625 23.71875,10.40625 C 23.233536,10.274843 22.783866,10.085466 22.96875,9.4999999 C 23.15625,8.9062499 23.53125,8.8749999 24.09375,8.9687499 z "
       style="opacity:1;color:#000000;fill:url(#linearGradient4035);fill-opacity:1;fill-rule:evenodd;stroke:none;stroke-width:1;stroke-linecap:butt;stroke-linejoin:miter;marker:none;marker-start:none;marker-mid:none;marker-end:none;stroke-miterlimit:4;stroke-dasharray:none;stroke-dashoffset:0;stroke-opacity:1;visibility:visible;display:inline;overflow:visible" />
    <path
       style="opacity:1;color:#000000;fill:url(#linearGradient4037);fill-opacity:1;fill-rule:evenodd;stroke:none;stroke-width:1;stroke-linecap:butt;stroke-linejoin:miter;marker:none;marker-start:none;marker-mid:none;marker-end:none;stroke-miterlimit:4;stroke-dasharray:none;stroke-dashoffset:0;stroke-opacity:1;visibility:visible;display:inline;overflow:visible"
       d="M 23.1875,12.40625 L 31.5,14.34375 C 32.84375,14.71875 33.5625,15.90625 33.5625,15.90625 L 33.125,17.40625 C 33.125,17.40625 32.21875,16.09375 31.03125,15.84375 C 31.03125,15.84375 22.8125,13.84375 22.8125,13.84375 C 22.327286,13.712343 21.877616,13.522966 22.0625,12.9375 C 22.25,12.34375 22.625,12.3125 23.1875,12.40625 z "
       id="path2282"
       sodipodi:nodetypes="cccccczc" />
    <path
       transform="matrix(1.266667,0,0,1.266667,-10.30833,-8.15)"
       d="M 35.375 22.125 A 1.875 1.875 0 1 1  31.625,22.125 A 1.875 1.875 0 1 1  35.375 22.125 z"
       sodipodi:ry="1.875"
       sodipodi:rx="1.875"
       sodipodi:cy="22.125"
       sodipodi:cx="33.5"
       id="path2220"
       style="opacity:1;color:#000000;fill:url(#radialGradient4039);fill-opacity:1;fill-rule:evenodd;stroke:#424242;stroke-width:0.78947347;stroke-linecap:butt;stroke-linejoin:miter;marker:none;marker-start:none;marker-mid:none;marker-end:none;stroke-miterlimit:4;stroke-dasharray:none;stroke-dashoffset:0;stroke-opacity:1;visibility:visible;display:inline;overflow:visible"
       sodipodi:type="arc" />
    <path
       sodipodi:nodetypes="cccccczc"
       id="path2288"
       d="M 20.34375,22.71875 L 28.65625,24.65625 C 30,25.03125 31.125,26.65625 31.125,26.65625 L 30.71875,28.25 C 30.71875,28.25 29.375,26.40625 28.1875,26.15625 C 28.1875,26.15625 19.96875,24.15625 19.96875,24.15625 C 19.483536,24.024843 19.096366,23.835466 19.21875,23.25 C 19.342601,22.657518 19.78125,22.625 20.34375,22.71875 z "
       style="opacity:1;color:#000000;fill:url(#linearGradient4041);fill-opacity:1;fill-rule:evenodd;stroke:none;stroke-width:1;stroke-linecap:butt;stroke-linejoin:miter;marker:none;marker-start:none;marker-mid:none;marker-end:none;stroke-miterlimit:4;stroke-dasharray:none;stroke-dashoffset:0;stroke-opacity:1;visibility:visible;display:inline;overflow:visible" />
    <path
       sodipodi:nodetypes="cccczc"
       id="path2292"
       d="M 16.5625,23.34375 L 11.625,22.1875 L 12.03125,20.78125 L 16.9375,21.84375 C 17.34375,21.96875 17.78125,22.21875 17.625,22.8125 C 17.470582,23.399287 17,23.46875 16.5625,23.34375 z "
       style="opacity:1;color:#000000;fill:url(#linearGradient4043);fill-opacity:1;fill-rule:evenodd;stroke:none;stroke-width:1;stroke-linecap:butt;stroke-linejoin:miter;marker:none;marker-start:none;marker-mid:none;marker-end:none;stroke-miterlimit:4;stroke-dasharray:none;stroke-dashoffset:0;stroke-opacity:1;visibility:visible;display:inline;overflow:visible" />
    <path
       style="opacity:1;color:#000000;fill:url(#linearGradient4045);fill-opacity:1;fill-rule:evenodd;stroke:none;stroke-width:1;stroke-linecap:butt;stroke-linejoin:miter;marker:none;marker-start:none;marker-mid:none;marker-end:none;stroke-miterlimit:4;stroke-dasharray:none;stroke-dashoffset:0;stroke-opacity:1;visibility:visible;display:inline;overflow:visible"
       d="M 17.53125,19.976562 L 12.59375,18.820312 L 13,17.414062 L 17.90625,18.476562 C 18.3125,18.601562 18.75,18.851562 18.59375,19.445312 C 18.439332,20.0321 17.96875,20.101562 17.53125,19.976562 z "
       id="path2294"
       sodipodi:nodetypes="cccczc" />
    <path
       sodipodi:nodetypes="cccczc"
       id="path2296"
       d="M 18.40625,16.546875 L 13.46875,15.453125 L 13.875,14.046875 L 18.78125,15.046875 C 19.1875,15.171875 19.625,15.421875 19.46875,16.015625 C 19.314332,16.602412 18.84375,16.671875 18.40625,16.546875 z "
       style="opacity:1;color:#000000;fill:url(#linearGradient4047);fill-opacity:1;fill-rule:evenodd;stroke:none;stroke-width:1;stroke-linecap:butt;stroke-linejoin:miter;marker:none;marker-start:none;marker-mid:none;marker-end:none;stroke-miterlimit:4;stroke-dasharray:none;stroke-dashoffset:0;stroke-opacity:1;visibility:visible;display:inline;overflow:visible" />
    <path
       style="opacity:1;color:#000000;fill:url(#linearGradient4049);fill-opacity:1;fill-rule:evenodd;stroke:none;stroke-width:1;stroke-linecap:butt;stroke-linejoin:miter;marker:none;marker-start:none;marker-mid:none;marker-end:none;stroke-miterlimit:4;stroke-dasharray:none;stroke-dashoffset:0;stroke-opacity:1;visibility:visible;display:inline;overflow:visible"
       d="M 19.34375,13.148438 L 14.40625,12.085938 L 14.8125,10.679688 L 19.71875,11.648438 C 20.125,11.773438 20.5625,12.023438 20.40625,12.617188 C 20.251832,13.203974 19.78125,13.273438 19.34375,13.148438 z "
       id="path2298"
       sodipodi:nodetypes="cccczc" />
    <path
       sodipodi:nodetypes="cccczc"
       id="path2300"
       d="M 20.25,9.78125 L 15.3125,8.71875 L 15.71875,7.3125 L 20.625,8.28125 C 21.03125,8.40625 21.46875,8.65625 21.3125,9.25 C 21.158082,9.836787 20.6875,9.90625 20.25,9.78125 z "
       style="opacity:1;color:#000000;fill:url(#linearGradient4051);fill-opacity:1;fill-rule:evenodd;stroke:none;stroke-width:1;stroke-linecap:butt;stroke-linejoin:miter;marker:none;marker-start:none;marker-mid:none;marker-end:none;stroke-miterlimit:4;stroke-dasharray:none;stroke-dashoffset:0;stroke-opacity:1;visibility:visible;display:inline;overflow:visible" />
    <path
       sodipodi:type="arc"
       style="opacity:0.29545456;color:#000000;fill:none;fill-opacity:1;fill-rule:evenodd;stroke:url(#linearGradient4053);stroke-width:1.16238523;stroke-linecap:butt;stroke-linejoin:miter;marker:none;marker-start:none;marker-mid:none;marker-end:none;stroke-miterlimit:4;stroke-dasharray:none;stroke-dashoffset:0;stroke-opacity:1;visibility:visible;display:inline;overflow:visible"
       id="path2389"
       sodipodi:cx="16.4375"
       sodipodi:cy="46.375"
       sodipodi:rx="11.1875"
       sodipodi:ry="5.875"
       d="M 27.625 46.375 A 11.1875 5.875 0 1 1  5.25,46.375 A 11.1875 5.875 0 1 1  27.625 46.375 z"
       transform="matrix(0.916296,0,0,0.807726,10.12589,1.916708)" />
  </g>
  <path
     sodipodi:type="star"
     style="opacity:1;fill:url(#linearGradient2828);fill-opacity:1;stroke:#3ab5e0;stroke-width:7.53000021;stroke-linecap:square;stroke-linejoin:round;stroke-miterlimit:4;stroke-dasharray:none;stroke-opacity:1"
     id="path1933"
     sodipodi:sides="5"
     sodipodi:cx="71.428574"
     sodipodi:cy="63.492062"
     sodipodi:r1="81.111732"
     sodipodi:r2="26.182138"
     sodipodi:arg1="0.93120909"
     sodipodi:arg2="1.5595276"
     inkscape:flatsided="false"
     inkscape:rounded="0"
     inkscape:randomized="0"
     d="M 119.84127,128.57143 L 71.723607,89.672538 L 24.494766,129.6459 L 46.620631,71.862867 L -5.9908133,39.29802 L 55.801389,42.485028 L 70.514569,-17.614521 L 86.578385,42.138195 L 148.28307,37.559479 L 96.418856,71.30168 L 119.84127,128.57143 z "
     transform="matrix(0.638999,0.25955,-0.249138,0.613366,107.72946,-7.4400794e-2)" />
  <text
     xml:space="preserve"
     style="font-size:48.33817673px;font-style:normal;font-weight:normal;fill:#000000;fill-opacity:1;stroke:none;stroke-width:1px;stroke-linecap:butt;stroke-linejoin:miter;stroke-opacity:1;font-family:Monotype Corsiva"
     x="1.0147585"
     y="66.180244"
     id="text1984"
     transform="scale(0.9985091,1.0014931)"><tspan
       sodipodi:role="line"
       id="tspan1986"
       x="1.0147585"
       y="66.180244">Ultra</tspan></text>
  <text
     xml:space="preserve"
     style="font-size:48.33816528px;font-style:normal;font-weight:normal;fill:#cccccc;fill-opacity:1;stroke:none;stroke-width:1px;stroke-linecap:butt;stroke-linejoin:miter;stroke-opacity:1;font-family:Monotype Corsiva"
     x="1.9885134"
     y="64.712349"
     id="text1988"
     transform="scale(0.9985091,1.0014931)"><tspan
       sodipodi:role="line"
       id="tspan1990"
       x="1.9885134"
       y="64.712349">Ultra</tspan></text>
  <text
     xml:space="preserve"
     style="font-size:48.33817291px;font-style:normal;font-weight:normal;fill:#000000;fill-opacity:1;stroke:none;stroke-width:1px;stroke-linecap:butt;stroke-linejoin:miter;stroke-opacity:1;font-family:Monotype Corsiva"
     x="164.2618"
     y="101.58302"
     id="text1996"
     transform="scale(0.9985091,1.0014931)"><tspan
       sodipodi:role="line"
       id="tspan1998"
       x="164.2618"
       y="101.58302">NG</tspan></text>
  <text
     xml:space="preserve"
     style="font-size:48.33815765px;font-style:normal;font-weight:normal;fill:#cccccc;fill-opacity:1;stroke:none;stroke-width:1px;stroke-linecap:butt;stroke-linejoin:miter;stroke-opacity:1;font-family:Monotype Corsiva"
     x="165.23558"
     y="100.11518"
     id="text2000"
     transform="scale(0.9985091,1.0014931)"><tspan
       sodipodi:role="line"
       id="tspan2002"
       x="165.23558"
       y="100.11518">NG</tspan></text>
  <path
     sodipodi:type="star"
     style="opacity:1;fill:url(#linearGradient2707);fill-opacity:1;stroke:#3ab5e0;stroke-width:7.53000021;stroke-linecap:square;stroke-linejoin:round;stroke-miterlimit:4;stroke-dasharray:none;stroke-opacity:1"
     id="path2705"
     sodipodi:sides="5"
     sodipodi:cx="71.428574"
     sodipodi:cy="63.492062"
     sodipodi:r1="81.111732"
     sodipodi:r2="46.162781"
     sodipodi:arg1="0.93120909"
     sodipodi:arg2="1.5377736"
     inkscape:flatsided="false"
     inkscape:rounded="0"
     inkscape:randomized="0"
     d="M 119.84127,128.57143 L 72.952717,109.62967 L 24.494766,129.6459 L 28.020083,79.198915 L -5.9908133,39.29802 L 43.076507,27.061818 L 70.514569,-17.614521 L 97.314524,25.27008 L 148.28307,37.559479 L 115.77904,76.299821 L 119.84127,128.57143 z "
     transform="matrix(0.9690577,0.393614,-0.3778239,0.9301847,465.22169,288.70921)" />
</svg>
