<?xml version="1.0" encoding="UTF-8" standalone="no"?>
<!-- Created with Sodipodi ("http://www.sodipodi.com/") -->
<svg
   xmlns:dc="http://purl.org/dc/elements/1.1/"
   xmlns:cc="http://creativecommons.org/ns#"
   xmlns:rdf="http://www.w3.org/1999/02/22-rdf-syntax-ns#"
   xmlns:svg="http://www.w3.org/2000/svg"
   xmlns="http://www.w3.org/2000/svg"
   xmlns:xlink="http://www.w3.org/1999/xlink"
   xmlns:sodipodi="http://sodipodi.sourceforge.net/DTD/sodipodi-0.dtd"
   xmlns:inkscape="http://www.inkscape.org/namespaces/inkscape"
   version="1.0"
   x="0"
   y="0"
   width="1000"
   height="800"
   id="svg559"
   sodipodi:version="0.32"
   inkscape:version="0.46"
   sodipodi:docname="practice_bg.svg"
   sodipodi:docbase="/home/jesusda/downloads/testcoming/game-ultrastar-ng/UltraStar-ng-0.1.0/themes/default"
   inkscape:output_extension="org.inkscape.output.svg.inkscape">
  <metadata
     id="metadata35">
    <rdf:RDF>
      <cc:Work
         rdf:about="">
        <dc:format>image/svg+xml</dc:format>
        <dc:type
           rdf:resource="http://purl.org/dc/dcmitype/StillImage" />
      </cc:Work>
    </rdf:RDF>
  </metadata>
  <sodipodi:namedview
     inkscape:window-height="725"
     inkscape:window-width="1280"
     inkscape:pageshadow="2"
     inkscape:pageopacity="0.0"
     guidetolerance="10.0"
     gridtolerance="10.0"
     objecttolerance="10.0"
     borderopacity="1.0"
     bordercolor="#666666"
     pagecolor="#ffffff"
     id="base"
     inkscape:zoom="0.30761267"
     inkscape:cx="611.94145"
     inkscape:cy="536.56213"
     inkscape:window-x="0"
     inkscape:window-y="25"
     inkscape:current-layer="svg559"
     showgrid="false"
     showguides="true"
     inkscape:guide-bbox="true" />
  <defs
     id="defs561">
    <linearGradient
       id="linearGradient4557">
      <stop
         style="stop-color:#ffffff;stop-opacity:1;"
         offset="0"
         id="stop4559" />
      <stop
         style="stop-color:#0300da;stop-opacity:1;"
         offset="1"
         id="stop4561" />
    </linearGradient>
    <linearGradient
       id="linearGradient3751"
       inkscape:collect="always">
      <stop
         id="stop3753"
         offset="0"
         style="stop-color:black;stop-opacity:1;" />
      <stop
         id="stop3755"
         offset="1"
         style="stop-color:black;stop-opacity:0;" />
    </linearGradient>
    <linearGradient
       inkscape:collect="always"
       xlink:href="#linearGradient3751"
       id="linearGradient2518"
       gradientUnits="userSpaceOnUse"
       gradientTransform="matrix(0.9434139,0,0,0.9434139,62.279262,39.359798)"
       x1="665.12128"
       y1="684.16162"
       x2="381.28015"
       y2="449.80624" />
    <linearGradient
       id="linearGradient3945">
      <stop
         style="stop-color:#ffffff;stop-opacity:1;"
         offset="0"
         id="stop3947" />
      <stop
         style="stop-color:#ffffff;stop-opacity:0;"
         offset="1"
         id="stop3949" />
    </linearGradient>
    <inkscape:perspective
       sodipodi:type="inkscape:persp3d"
       inkscape:vp_x="0 : 400 : 1"
       inkscape:vp_y="0 : 1000 : 0"
       inkscape:vp_z="1000 : 400 : 1"
       inkscape:persp3d-origin="500 : 266.66667 : 1"
       id="perspective62" />
    <linearGradient
       id="linearGradient6053">
      <stop
         style="stop-color:#000000;stop-opacity:1;"
         offset="0"
         id="stop6055" />
      <stop
         style="stop-color:#5f5f5f;stop-opacity:1;"
         offset="1"
         id="stop6057" />
    </linearGradient>
    <linearGradient
       id="linearGradient6499"
       inkscape:collect="always">
      <stop
         id="stop6501"
         offset="0"
         style="stop-color:white;stop-opacity:1;" />
      <stop
         id="stop6503"
         offset="1"
         style="stop-color:white;stop-opacity:0;" />
    </linearGradient>
    <linearGradient
       inkscape:collect="always"
       xlink:href="#linearGradient6499"
       id="linearGradient3245"
       gradientUnits="userSpaceOnUse"
       gradientTransform="matrix(0.8327515,0,0,-0.6476426,-48.09403,12.672202)"
       x1="311.95688"
       y1="-116.67703"
       x2="311.95688"
       y2="-276.41519" />
    <filter
       inkscape:collect="always"
       id="filter3540"
       x="-0.036694595"
       width="1.0733892"
       y="-0.23329378"
       height="1.4665876">
      <feGaussianBlur
         inkscape:collect="always"
         stdDeviation="6.5984066"
         id="feGaussianBlur3542" />
    </filter>
    <filter
       inkscape:collect="always"
       id="filter3869"
       x="-0.019231318"
       width="1.0384626"
       y="-0.12226724"
       height="1.2445345">
      <feGaussianBlur
         inkscape:collect="always"
         stdDeviation="3.4581674"
         id="feGaussianBlur3871" />
    </filter>
    <linearGradient
       inkscape:collect="always"
       xlink:href="#linearGradient6499"
       id="linearGradient4108"
       gradientUnits="userSpaceOnUse"
       gradientTransform="matrix(1.2483528,0,0,1.0242885,40.754503,32.226123)"
       x1="44.868057"
       y1="260.4765"
       x2="358.07056"
       y2="260.4765" />
    <linearGradient
       inkscape:collect="always"
       xlink:href="#linearGradient6499"
       id="linearGradient4121"
       gradientUnits="userSpaceOnUse"
       gradientTransform="matrix(1.2483528,0,0,1.0242885,40.754503,133.62899)"
       x1="44.868057"
       y1="260.4765"
       x2="358.07056"
       y2="260.4765" />
    <linearGradient
       inkscape:collect="always"
       xlink:href="#linearGradient6499"
       id="linearGradient4127"
       gradientUnits="userSpaceOnUse"
       gradientTransform="matrix(1.2483528,0,0,1.0242885,40.754503,340.11416)"
       x1="44.868057"
       y1="260.4765"
       x2="358.07056"
       y2="260.4765" />
    <linearGradient
       inkscape:collect="always"
       xlink:href="#linearGradient6499"
       id="linearGradient4133"
       gradientUnits="userSpaceOnUse"
       gradientTransform="matrix(1.2483528,0,0,1.0242885,426.06823,341.18482)"
       x1="44.868057"
       y1="260.4765"
       x2="358.07056"
       y2="260.4765" />
    <filter
       inkscape:collect="always"
       id="filter4397"
       x="-0.14167116"
       width="1.2833423"
       y="-0.10407921"
       height="1.2081584">
      <feGaussianBlur
         inkscape:collect="always"
         stdDeviation="2.8834025"
         id="feGaussianBlur4399" />
    </filter>
    <filter
       inkscape:collect="always"
       id="filter4445"
       x="-0.13414668"
       width="1.2682934"
       y="-0.10855241"
       height="1.2171048">
      <feGaussianBlur
         inkscape:collect="always"
         stdDeviation="3.5790177"
         id="feGaussianBlur4447" />
    </filter>
    <filter
       inkscape:collect="always"
       id="filter4489"
       x="-0.15104939"
       width="1.3020988"
       y="-0.099538981"
       height="1.199078">
      <feGaussianBlur
         inkscape:collect="always"
         stdDeviation="2.6848123"
         id="feGaussianBlur4491" />
    </filter>
    <filter
       inkscape:collect="always"
       id="filter4529"
       x="-0.16248027"
       width="1.3249605"
       y="-0.095128714"
       height="1.1902574">
      <feGaussianBlur
         inkscape:collect="always"
         stdDeviation="2.6354387"
         id="feGaussianBlur4531" />
    </filter>
    <radialGradient
       inkscape:collect="always"
       xlink:href="#linearGradient4557"
       id="radialGradient4563"
       cx="754.52362"
       cy="248.26866"
       fx="754.52362"
       fy="248.26866"
       r="648.54285"
       gradientTransform="matrix(-0.6867835,-1.4236353,1.4876169,-0.7176493,903.38936,1551.3895)"
       gradientUnits="userSpaceOnUse" />
    <filter
       inkscape:collect="always"
       id="filter5083">
      <feGaussianBlur
         inkscape:collect="always"
         stdDeviation="2.8444007"
         id="feGaussianBlur5085" />
    </filter>
  </defs>
  <rect
     style="opacity:1;fill:url(#radialGradient4563);fill-opacity:1.0;stroke:none;stroke-width:10.01399993999999971;stroke-miterlimit:4;stroke-dasharray:none;stroke-opacity:1"
     id="rect4231"
     width="1297.0857"
     height="1042.5737"
     x="-56.077015"
     y="-14.202133" />
  <text
     xml:space="preserve"
     style="font-size:24.89476013px;font-style:normal;font-weight:normal;fill:#000000;fill-opacity:1;stroke:none;stroke-width:1px;stroke-linecap:butt;stroke-linejoin:miter;stroke-opacity:1;font-family:Bitstream Vera Sans"
     x="266.96185"
     y="759.88806"
     id="text2508"><tspan
       sodipodi:role="line"
       id="tspan2510"
       x="266.96185"
       y="759.88806" /></text>
  <g
     id="g3873">
    <path
       id="text3236"
       d="M 74.487864,100.57517 C 74.487812,103.3639 73.841652,105.86918 72.549383,108.09103 C 71.279686,110.29028 69.443233,112.13806 67.040017,113.63441 C 64.659385,115.08546 61.995393,116.16239 59.048036,116.86521 C 56.123277,117.56807 52.892479,117.91949 49.355632,117.91947 L 44.458418,117.91947 L 41.431668,131.01272 C 41.34096,131.39815 41.261607,131.76091 41.193609,132.10099 C 41.148245,132.44108 41.125573,132.70181 41.125592,132.88318 C 41.125573,133.90344 41.54501,134.65162 42.383904,135.12774 C 43.222758,135.60386 44.866497,135.96662 47.315127,136.21601 L 46.736983,138.69862 L 20.516482,138.69862 L 21.094625,136.21601 C 21.661433,136.19334 22.500307,136.11399 23.611249,135.97795 C 24.744861,135.81925 25.583735,135.6492 26.127873,135.46782 C 27.012088,135.17309 27.68092,134.73098 28.134371,134.14149 C 28.610483,133.55202 28.93923,132.86052 29.120615,132.06698 L 36.908546,98.330615 C 37.021893,97.854537 37.101246,97.457773 37.146605,97.14032 C 37.191935,96.822949 37.214607,96.584891 37.214622,96.426142 C 37.214607,95.47395 36.727154,94.737101 35.75226,94.215594 C 34.800011,93.671504 33.235625,93.240731 31.059096,92.923274 L 31.637239,90.440658 L 57.789724,90.440658 C 63.41241,90.440707 67.595443,91.268244 70.338835,92.923274 C 73.104804,94.578395 74.487812,97.129025 74.487864,100.57517 M 60.272339,106.25458 C 60.771091,104.55419 61.020486,102.69507 61.020525,100.6772 C 61.020486,98.22863 60.36299,96.403512 59.048036,95.201839 C 57.733008,93.97758 55.590478,93.365429 52.620442,93.365384 L 50.137826,93.365384 L 45.172595,114.89272 L 47.383143,114.89272 C 49.831723,114.89274 51.928908,114.52999 53.674703,113.80445 C 55.443109,113.05629 56.871461,112.0247 57.959766,110.70968 C 59.002654,109.44007 59.773511,107.95503 60.272339,106.25458 M 90.199759,139.8209 C 87.479069,139.8209 85.087145,139.44681 83.02398,138.69862 C 80.983465,137.97311 79.294381,136.95286 77.956723,135.63786 C 76.641726,134.32288 75.655482,132.7925 74.99799,131.04673 C 74.340491,129.30097 74.011743,127.37383 74.011745,125.26529 C 74.011743,122.58998 74.510533,119.994 75.508116,117.47736 C 76.505692,114.96076 77.990725,112.69354 79.963221,110.67568 C 81.822338,108.74856 84.180254,107.18417 87.036975,105.98251 C 89.893665,104.78091 93.04511,104.1801 96.491319,104.18006 C 100.54963,104.1801 103.63306,104.82626 105.74161,106.11855 C 107.87277,107.4109 108.93837,109.34938 108.93841,111.93399 C 108.93837,114.40529 108.02014,116.53648 106.18372,118.32757 C 104.34723,120.09603 101.85328,121.41102 98.701867,122.27255 C 96.207891,123.02075 94.076698,123.55355 92.308282,123.87095 C 90.562497,124.18837 88.419968,124.48311 85.880688,124.75517 C 85.926018,125.75276 86.062052,126.87504 86.288789,128.122 C 86.515497,129.36899 86.855581,130.43458 87.309042,131.31879 C 87.853161,132.33905 88.624018,133.15525 89.621616,133.7674 C 90.619177,134.35688 91.888824,134.65162 93.43056,134.65162 C 96.105866,134.65162 98.373092,134.1415 100.23225,133.12124 C 102.11402,132.07832 103.90512,130.43458 105.60558,128.19002 L 108.08819,130.26453 C 106.04765,133.16659 103.42901,135.4905 100.23225,137.23626 C 97.058101,138.95935 93.713942,139.8209 90.199759,139.8209 M 97.885665,112.88622 C 97.885638,110.95911 97.534218,109.48541 96.831403,108.46513 C 96.128538,107.42223 95.15363,106.90077 93.906678,106.90074 C 92.160891,106.90077 90.505816,108.32912 88.941447,111.1858 C 87.399716,114.01986 86.413472,117.61342 85.982713,121.96648 C 87.320363,121.80779 88.64669,121.60374 89.9617,121.35432 C 91.276673,121.10495 92.319597,120.81021 93.090476,120.4701 C 94.790874,119.72194 96.015177,118.75837 96.763386,117.57939 C 97.511546,116.40045 97.885638,114.83606 97.885665,112.88622 M 148.0141,111.25382 C 148.01406,112.2741 147.86669,113.26034 147.57199,114.21255 C 147.27721,115.16481 146.8351,115.98101 146.24566,116.66116 C 145.58813,117.43204 144.89662,118.01018 144.17114,118.39559 C 143.4456,118.75837 142.42535,118.93974 141.11038,118.93972 C 139.40993,118.93974 138.07227,118.52031 137.09739,117.68141 C 136.12246,116.84256 135.635,115.90166 135.63503,114.85871 C 135.635,113.88383 135.77104,113.04496 136.04313,112.34209 C 136.33784,111.63927 136.79129,110.57368 137.40347,109.1453 C 135.8844,109.78015 134.58074,110.56234 133.4925,111.49188 C 132.4042,112.3988 131.36128,113.44172 130.36372,114.62065 L 124.99039,138.69862 L 113.7336,138.69862 L 118.42676,117.78344 C 118.56279,117.14864 118.73283,116.3211 118.93689,115.30082 C 119.1636,114.28059 119.27696,113.43038 119.27697,112.75019 C 119.27696,111.43522 119.01623,110.53967 118.49478,110.06352 C 117.99598,109.58743 117.02107,109.34938 115.57005,109.34935 C 114.84453,109.34938 114.09635,109.46274 113.3255,109.68943 C 112.57731,109.91618 111.93115,110.13157 111.38701,110.33559 L 112.1352,107.27483 C 113.97165,106.52668 115.72875,105.89186 117.40651,105.37036 C 119.08425,104.82626 120.67131,104.55419 122.16769,104.55416 C 124.843,104.55419 126.83816,105.08699 128.15317,106.15255 C 129.49082,107.19551 130.37504,108.66921 130.80583,110.57365 L 131.04389,110.57365 C 133.28842,108.19309 135.19289,106.53802 136.75731,105.60842 C 138.32167,104.65622 139.99941,104.1801 141.79055,104.18006 C 143.71766,104.1801 145.23671,104.79225 146.34768,106.01652 C 147.45859,107.21818 148.01406,108.96395 148.0141,111.25382 M 168.62321,109.1793 C 167.48957,114.77938 166.50333,119.64258 165.66447,123.76892 C 164.84825,127.87262 163.86201,132.16901 162.70574,136.65812 C 162.13892,138.85733 161.19802,141.01119 159.88304,143.11972 C 158.59071,145.25091 157.06033,147.08736 155.2919,148.62909 C 153.43277,150.26148 151.41493,151.53113 149.2384,152.43803 C 147.08453,153.34491 144.86265,153.79835 142.57275,153.79837 C 140.50957,153.79835 138.84316,153.5943 137.57351,153.18622 C 136.2812,152.7781 135.27228,152.25664 134.54676,151.62183 C 133.84393,150.98699 133.36781,150.28415 133.1184,149.51331 C 132.86902,148.74244 132.74432,147.98292 132.74431,147.23474 C 132.74432,145.91974 133.22044,144.75212 134.17266,143.73187 C 135.10224,142.73429 136.36055,142.2355 137.9476,142.2355 C 139.17191,142.2355 140.23751,142.55291 141.14439,143.18774 C 142.02862,143.84523 142.78814,144.62742 143.42296,145.53432 C 144.05778,146.41853 144.62459,147.40477 145.12338,148.49305 C 145.5995,149.58131 145.97359,150.43152 146.24566,151.04368 C 147.19789,150.00075 148.09345,148.42503 148.93232,146.31651 C 149.7712,144.23066 150.55339,141.44197 151.2789,137.95044 L 157.36641,109.1793 L 150.76878,109.1793 L 151.58498,105.67644 L 158.1146,105.67644 L 158.69274,103.05779 C 159.16885,100.92663 160.0304,98.840781 161.27738,96.800235 C 162.54702,94.737101 164.07739,92.900647 165.86852,91.290869 C 167.5916,89.703858 169.57542,88.411539 171.82,87.413908 C 174.0872,86.41638 176.35443,85.91759 178.62168,85.917537 C 180.59414,85.91759 182.22654,86.110304 183.5189,86.49568 C 184.83385,86.858489 185.86544,87.368615 186.61367,88.02606 C 187.29379,88.638262 187.74724,89.329766 187.974,90.100574 C 188.22336,90.848807 188.34806,91.596992 188.3481,92.345131 C 188.34806,92.843967 188.24603,93.399437 188.04202,94.011544 C 187.8606,94.62374 187.56586,95.17921 187.1578,95.677957 C 186.65897,96.244807 186.12617,96.686916 185.5594,97.004286 C 185.01523,97.321739 184.21037,97.480445 183.14481,97.480404 C 181.92047,97.480445 180.86621,97.163033 179.98202,96.528168 C 179.09777,95.870714 178.34959,95.099857 177.73746,94.215594 C 177.07994,93.286076 176.52447,92.288496 176.07105,91.222852 C 175.61758,90.157303 175.24349,89.307093 174.94877,88.67222 C 174.01918,89.737866 173.18031,91.290917 172.43215,93.331375 C 171.68394,95.371924 170.91308,98.183285 170.11958,101.76547 L 169.26937,105.67644 L 177.8735,105.67644 L 177.0573,109.1793 L 168.62321,109.1793 M 216.06497,118.32757 C 216.06493,121.1843 215.5208,123.91631 214.43257,126.5236 C 213.34426,129.13093 211.80254,131.39815 209.80742,133.32529 C 207.65352,135.38847 205.12556,136.98687 202.22354,138.12048 C 199.34413,139.23142 196.102,139.78689 192.49713,139.78689 C 187.66792,139.78689 183.76829,138.50591 180.79823,135.94394 C 177.82815,133.35931 176.34312,129.8451 176.34312,125.40133 C 176.34312,122.38593 176.89859,119.5859 178.00954,117.00124 C 179.14315,114.41663 180.71887,112.16074 182.73671,110.23357 C 184.73186,108.3518 187.18046,106.86676 190.08253,105.77846 C 192.98456,104.66755 196.12467,104.11208 199.50287,104.11205 C 204.62677,104.11208 208.66244,105.37039 211.60987,107.88698 C 214.5799,110.38096 216.06493,113.86116 216.06497,118.32757 M 204.094,114.48462 C 204.09397,111.83199 203.64053,109.88217 202.73367,108.63517 C 201.84942,107.38823 200.5571,106.76474 198.85671,106.76471 C 197.11092,106.76474 195.51252,107.46758 194.06152,108.87323 C 192.61047,110.25627 191.43151,112.29677 190.52464,114.99475 C 189.73109,117.23932 189.16429,119.67659 188.82422,122.30656 C 188.48412,124.91389 188.31408,127.24913 188.31409,129.3123 C 188.31408,132.05565 188.76752,134.05081 189.67443,135.29778 C 190.5813,136.52209 191.89629,137.13424 193.61941,137.13424 C 195.47851,137.13424 197.08824,136.37472 198.4486,134.85567 C 199.80892,133.33663 200.88585,131.46617 201.6794,129.24428 C 202.47291,127.06775 203.07372,124.66449 203.48185,122.03449 C 203.88992,119.38185 204.09397,116.86523 204.094,114.48462 M 256.02487,111.25382 C 256.02483,112.2741 255.87746,113.26034 255.58276,114.21255 C 255.28798,115.16481 254.84587,115.98101 254.25643,116.66116 C 253.5989,117.43204 252.90739,118.01018 252.18192,118.39559 C 251.45637,118.75837 250.43612,118.93974 249.12116,118.93972 C 247.42071,118.93974 246.08304,118.52031 245.10816,117.68141 C 244.13323,116.84256 243.64577,115.90166 243.6458,114.85871 C 243.64577,113.88383 243.78181,113.04496 244.0539,112.34209 C 244.34861,111.63927 244.80206,110.57368 245.41424,109.1453 C 243.89517,109.78015 242.59151,110.56234 241.50327,111.49188 C 240.41498,112.3988 239.37205,113.44172 238.37449,114.62065 L 233.00116,138.69862 L 221.74437,138.69862 L 226.43753,117.78344 C 226.57356,117.14864 226.7436,116.3211 226.94766,115.30082 C 227.17437,114.28059 227.28773,113.43038 227.28774,112.75019 C 227.28773,111.43522 227.027,110.53967 226.50555,110.06352 C 226.00675,109.58743 225.03184,109.34938 223.58082,109.34935 C 222.85531,109.34938 222.10712,109.46274 221.33627,109.68943 C 220.58808,109.91618 219.94192,110.13157 219.39779,110.33559 L 220.14597,107.27483 C 221.98242,106.52668 223.73953,105.89186 225.41728,105.37036 C 227.09502,104.82626 228.68208,104.55419 230.17846,104.55416 C 232.85378,104.55419 234.84894,105.08699 236.16394,106.15255 C 237.50159,107.19551 238.38581,108.66921 238.8166,110.57365 L 239.05466,110.57365 C 241.29919,108.19309 243.20367,106.53802 244.76808,105.60842 C 246.33244,104.65622 248.01019,104.1801 249.80133,104.18006 C 251.72844,104.1801 253.24748,104.79225 254.35846,106.01652 C 255.46936,107.21818 256.02483,108.96395 256.02487,111.25382 M 324.34781,133.49533 L 323.59962,136.55609 C 321.355,137.44031 319.56389,138.12048 318.22629,138.5966 C 316.88856,139.05004 315.33551,139.27677 313.56714,139.27677 C 310.86908,139.27677 308.77189,138.60793 307.27558,137.27027 C 305.77915,135.90994 305.03097,134.23219 305.03102,132.23702 C 305.03097,131.69289 305.05364,131.00139 305.09904,130.16251 C 305.167,129.30097 305.35972,128.23537 305.67718,126.96571 L 308.12579,117.91947 C 308.37513,116.94458 308.55651,116.0717 308.66992,115.30082 C 308.8059,114.50732 308.87392,113.86116 308.87397,113.36234 C 308.87392,112.2741 308.60185,111.42389 308.05777,110.81171 C 307.51358,110.19959 306.62936,109.89351 305.40511,109.89348 C 304.54352,109.89351 303.44391,110.27894 302.10629,111.04977 C 300.79126,111.82065 299.45359,112.85224 298.0933,114.14454 L 292.48191,138.69862 L 281.22512,138.69862 L 285.9863,117.95348 C 286.23566,116.81989 286.41704,115.90166 286.53043,115.1988 C 286.66643,114.49598 286.73445,113.88383 286.73448,113.36234 C 286.73445,112.2741 286.46238,111.42389 285.91828,110.81171 C 285.37412,110.19959 284.47856,109.89351 283.23161,109.89348 C 282.52875,109.89351 281.55384,110.17691 280.30689,110.74369 C 279.05989,111.31053 277.4955,112.44414 275.61372,114.14454 L 270.00233,138.69862 L 258.74554,138.69862 L 263.57474,117.78344 C 263.71077,117.14864 263.88081,116.30976 264.08487,115.26681 C 264.31158,114.22391 264.42494,113.38504 264.42495,112.75019 C 264.42494,111.4579 264.17555,110.57368 263.67677,110.09753 C 263.17797,109.59877 262.19172,109.34938 260.71803,109.34935 C 259.99251,109.34938 259.24433,109.46274 258.47348,109.68943 C 257.72529,109.91618 257.07913,110.13157 256.53499,110.33559 L 257.28318,107.27483 C 259.11963,106.52668 260.87673,105.89186 262.55449,105.37036 C 264.23223,104.82626 265.81929,104.55419 267.31567,104.55416 C 270.08167,104.55419 272.07683,105.121 273.30115,106.25458 C 274.52544,107.36555 275.38698,108.80524 275.88579,110.57365 L 276.12385,110.57365 C 278.39106,108.48783 280.57893,106.90077 282.68748,105.81247 C 284.79597,104.72423 287.2219,104.1801 289.96528,104.18006 C 292.30049,104.1801 294.2163,104.80359 295.71271,106.05053 C 297.20904,107.29754 298.03658,108.83925 298.19532,110.67568 L 298.43338,110.67568 C 300.85927,108.58986 303.11516,106.99146 305.20106,105.88049 C 307.28686,104.74691 309.66745,104.1801 312.34283,104.18006 C 314.8594,104.1801 316.83188,104.8716 318.2603,106.25458 C 319.68859,107.63762 320.40277,109.31537 320.40283,111.28783 C 320.40277,111.80932 320.35742,112.54617 320.2668,113.49838 C 320.19871,114.42796 320.01734,115.42554 319.72266,116.49112 L 317.13802,126.04749 C 316.91124,126.84103 316.70719,127.74792 316.52587,128.76816 C 316.34443,129.78842 316.25374,130.55928 316.2538,131.08073 C 316.25374,132.39573 316.53714,133.29129 317.10401,133.7674 C 317.69343,134.24352 318.71368,134.48158 320.16477,134.48158 C 320.84487,134.48158 321.61573,134.36822 322.47734,134.14149 C 323.33882,133.8921 323.96231,133.67672 324.34781,133.49533 M 367.33447,118.32757 C 367.33443,121.1843 366.7903,123.91631 365.70207,126.5236 C 364.61376,129.13093 363.07204,131.39815 361.07692,133.32529 C 358.92302,135.38847 356.39506,136.98687 353.49304,138.12048 C 350.61363,139.23142 347.3715,139.78689 343.76663,139.78689 C 338.93742,139.78689 335.03779,138.50591 332.06773,135.94394 C 329.09765,133.35931 327.61262,129.8451 327.61262,125.40133 C 327.61262,122.38593 328.16809,119.5859 329.27904,117.00124 C 330.41265,114.41663 331.98837,112.16074 334.00621,110.23357 C 336.00136,108.3518 338.44996,106.86676 341.35203,105.77846 C 344.25406,104.66755 347.39417,104.11208 350.77237,104.11205 C 355.89627,104.11208 359.93194,105.37039 362.87937,107.88698 C 365.8494,110.38096 367.33443,113.86116 367.33447,118.32757 M 355.3635,114.48462 C 355.36347,111.83199 354.91003,109.88217 354.00317,108.63517 C 353.11892,107.38823 351.8266,106.76474 350.12621,106.76471 C 348.38042,106.76474 346.78202,107.46758 345.33102,108.87323 C 343.87997,110.25627 342.70101,112.29677 341.79414,114.99475 C 341.00059,117.23932 340.43379,119.67659 340.09372,122.30656 C 339.75362,124.91389 339.58358,127.24913 339.58359,129.3123 C 339.58358,132.05565 340.03702,134.05081 340.94393,135.29778 C 341.8508,136.52209 343.1658,137.13424 344.88891,137.13424 C 346.74801,137.13424 348.35774,136.37472 349.7181,134.85567 C 351.07842,133.33663 352.15535,131.46617 352.94891,129.24428 C 353.74241,127.06775 354.34322,124.66449 354.75135,122.03449 C 355.15942,119.38185 355.36347,116.86523 355.3635,114.48462 M 396.98981,133.29128 L 396.75176,133.29128 C 394.37114,135.46783 392.10391,137.07756 389.95007,138.12048 C 387.79618,139.16341 385.30223,139.68487 382.46821,139.68487 C 379.95158,139.68487 378.00177,138.99336 376.61876,137.61035 C 375.25842,136.22735 374.57825,134.5496 374.57826,132.57711 C 374.57825,131.87427 374.61226,131.1601 374.68028,130.43457 C 374.77097,129.70907 374.98635,128.68882 375.32644,127.37382 L 377.87708,117.81745 C 378.03577,117.18264 378.21715,116.3211 378.42121,115.23281 C 378.64792,114.12189 378.76129,113.30569 378.7613,112.7842 C 378.76129,111.53725 378.50055,110.66437 377.9791,110.16555 C 377.4803,109.64412 376.49406,109.38338 375.02037,109.38336 C 374.29485,109.38338 373.54666,109.49675 372.77581,109.72344 C 372.02762,109.95019 371.38146,110.16558 370.83733,110.3696 L 371.58552,107.30884 C 373.42197,106.56069 375.17907,105.92586 376.85682,105.40437 C 378.53456,104.86027 380.12162,104.5882 381.618,104.58817 C 384.31599,104.5882 386.3905,105.26837 387.84155,106.62867 C 389.31523,107.96637 390.05207,109.63278 390.05209,111.62791 C 390.05207,112.03604 390.00673,112.78422 389.91606,113.87247 C 389.82535,114.96076 389.64397,115.96968 389.37193,116.89922 L 386.88931,125.94546 C 386.66257,126.739 386.48119,127.60055 386.34518,128.5301 C 386.20913,129.437 386.14111,130.0945 386.14112,130.50259 C 386.14111,131.5682 386.3905,132.41841 386.88931,133.05322 C 387.38808,133.66538 388.24963,133.97146 389.47395,133.97145 C 390.35815,133.97146 391.52577,133.6087 392.97682,132.88318 C 394.45049,132.135 395.90152,131.08074 397.3299,129.7204 L 402.94129,105.16631 L 413.78998,104.69019 L 414.19808,105.16631 L 409.36888,126.0815 C 409.21014,126.739 409.01742,127.61189 408.79074,128.70014 C 408.58665,129.78842 408.48463,130.59329 408.48466,131.11474 C 408.48463,132.42974 408.76803,133.3253 409.33488,133.80141 C 409.92431,134.27753 410.94457,134.51559 412.39563,134.51559 C 413.07576,134.51559 413.84662,134.40223 414.70821,134.1755 C 415.56971,133.92611 416.1932,133.71073 416.57867,133.52934 L 415.83049,136.5901 C 413.58589,137.47432 411.79478,138.15449 410.45715,138.63061 C 409.11945,139.08405 407.5664,139.31077 405.798,139.31078 C 403.30401,139.31077 401.30885,138.7553 399.81251,137.64436 C 398.31611,136.51075 397.37522,135.05973 396.98981,133.29128 M 432.22254,139.8209 C 429.36582,139.8209 426.99657,139.58284 425.11478,139.10672 C 423.25565,138.65328 421.78195,138.0638 420.69369,137.33829 C 419.58274,136.61278 418.82322,135.84192 418.41512,135.02571 C 418.00702,134.18684 417.80297,133.40465 417.80297,132.67913 C 417.80297,131.36415 418.29042,130.2192 419.26533,129.24428 C 420.26291,128.24671 421.5779,127.74792 423.21031,127.74791 C 424.57064,127.74792 425.70425,128.09934 426.61115,128.80217 C 427.54071,129.50502 428.31156,130.38924 428.92373,131.45483 C 429.49052,132.42974 429.96664,133.50667 430.35208,134.68563 C 430.7375,135.86459 431.00956,136.73747 431.16828,137.30428 C 433.73024,137.30428 435.66871,136.76014 436.98373,135.67187 C 438.2987,134.56094 438.95619,133.05323 438.95621,131.14875 C 438.95619,130.30989 438.75214,129.60705 438.34406,129.04023 C 437.95861,128.47343 437.43715,127.97464 436.77967,127.54386 C 436.12216,127.13577 435.28329,126.739 434.26305,126.35356 C 433.24278,125.96815 432.23387,125.60539 431.2363,125.26529 C 428.49294,124.33574 426.3164,123.05476 424.70668,121.42234 C 423.11962,119.76728 422.32609,117.71544 422.32609,115.26681 C 422.32609,113.81581 422.65483,112.45548 423.31234,111.1858 C 423.9925,109.89351 425.04676,108.70322 426.47512,107.61492 C 427.88079,106.57202 429.66056,105.74449 431.81444,105.1323 C 433.96829,104.49751 436.48492,104.1801 439.36432,104.18006 C 441.08739,104.1801 442.68578,104.28212 444.1595,104.48614 C 445.63318,104.69023 447.00485,105.06432 448.27452,105.60842 C 449.47612,106.15259 450.40569,106.86676 451.06322,107.75095 C 451.74335,108.61253 452.08343,109.66679 452.08347,110.91373 C 452.08343,112.16074 451.60732,113.23767 450.65512,114.14454 C 449.72552,115.02878 448.50122,115.47089 446.9822,115.47086 C 445.66718,115.47089 444.56758,115.1308 443.68339,114.45061 C 442.82181,113.77047 442.11897,112.9656 441.57486,112.03601 C 441.03071,111.0838 440.59993,110.1089 440.28254,109.11129 C 439.96511,108.09107 439.70438,107.24086 439.50035,106.56066 C 437.91327,106.65138 436.46224,107.22952 435.14727,108.29509 C 433.85493,109.33804 433.20877,110.6417 433.20879,112.20605 C 433.20877,113.15832 433.35614,113.9065 433.6509,114.45061 C 433.96829,114.99477 434.38773,115.44822 434.90921,115.81095 C 435.49867,116.21907 436.23552,116.6045 437.11976,116.96724 C 438.02663,117.30734 439.14891,117.70411 440.48659,118.15753 C 443.57,119.24582 445.89391,120.54948 447.45832,122.0685 C 449.02268,123.58756 449.80487,125.59405 449.8049,128.08799 C 449.80487,129.72041 449.41944,131.28479 448.64862,132.78116 C 447.9004,134.27753 446.82347,135.52451 445.41782,136.52208 C 443.8534,137.61035 442.05096,138.42656 440.01048,138.97069 C 437.96995,139.5375 435.37397,139.8209 432.22254,139.8209"
       style="font-size:69.64926909999999793px;font-style:italic;font-variant:normal;font-weight:bold;font-stretch:normal;fill:#000000;fill-opacity:1;stroke:none;stroke-width:1px;stroke-linecap:butt;stroke-linejoin:miter;stroke-opacity:1;filter:url(#filter3869);font-family:Georgia;-inkscape-font-specification:Georgia Bold Italic;opacity:1"
       transform="matrix(0.8191171,0,0,1.0292651,21.130469,31.087293)" />
    <path
       id="text2462"
       d="M 82.144747,134.60581 C 82.144704,137.47614 81.615423,140.05474 80.556904,142.34162 C 79.516874,144.60522 78.012603,146.50709 76.044089,148.04722 C 74.094071,149.54073 71.911951,150.64918 69.49772,151.37257 C 67.102,152.096 64.455598,152.45771 61.558507,152.45769 L 57.547116,152.45769 L 55.067853,165.93411 C 54.993552,166.33083 54.928553,166.7042 54.872855,167.05423 C 54.835697,167.40427 54.817125,167.67263 54.817141,167.85931 C 54.817125,168.90943 55.160694,169.67951 55.847846,170.16955 C 56.534965,170.65961 57.88138,171.03298 59.887094,171.28967 L 59.413527,173.84494 L 37.935868,173.84494 L 38.409435,171.28967 C 38.873717,171.26634 39.560853,171.18467 40.470845,171.04465 C 41.399405,170.8813 42.086541,170.70628 42.532254,170.51959 C 43.25653,170.21622 43.804381,169.76118 44.17581,169.15445 C 44.565801,168.54772 44.835085,167.83598 44.98366,167.01922 L 51.362887,132.29556 C 51.455731,131.80556 51.520731,131.39718 51.557885,131.07043 C 51.595016,130.74377 51.613587,130.49875 51.613599,130.33536 C 51.613587,129.35529 51.214305,128.59688 50.415753,128.06011 C 49.63575,127.5001 48.354334,127.05673 46.571503,126.72998 L 47.04507,124.1747 L 68.467015,124.1747 C 73.072654,124.17476 76.499047,125.02651 78.746206,126.72998 C 81.011858,128.43354 82.144704,131.0588 82.144747,134.60581 M 70.500568,140.45142 C 70.909104,138.70127 71.113388,136.78774 71.113419,134.71082 C 71.113388,132.19059 70.574822,130.31206 69.49772,129.07522 C 68.420558,127.81513 66.665576,127.18506 64.232768,127.18502 L 62.199216,127.18502 L 58.13211,149.34236 L 59.942808,149.34236 C 61.948482,149.34238 63.666321,148.96901 65.096332,148.22224 C 66.544863,147.45218 67.714851,146.39041 68.6063,145.0369 C 69.460548,143.73013 70.09197,142.20163 70.500568,140.45142 M 95.01463,175.00006 C 92.786061,175.00006 90.826796,174.61502 89.136824,173.84494 C 87.465403,173.09819 86.081846,172.04809 84.986148,170.69461 C 83.909011,169.34114 83.101162,167.76597 82.562599,165.96912 C 82.02403,164.17226 81.754748,162.18872 81.754749,160.01848 C 81.754748,157.26487 82.163315,154.59293 82.980452,152.00263 C 83.797583,149.41239 85.014,147.07881 86.629704,145.0019 C 88.152539,143.01839 90.083952,141.40821 92.423934,140.17139 C 94.763899,138.93462 97.345299,138.31623 100.16815,138.3162 C 103.49238,138.31623 106.01807,138.9813 107.74522,140.31141 C 109.49089,141.64158 110.36374,143.63679 110.36377,146.29704 C 110.36374,148.84066 109.61161,151.03422 108.10736,152.87773 C 106.60307,154.69794 104.56023,156.05141 101.97885,156.93816 C 99.935986,157.70826 98.190297,158.25664 96.741755,158.58334 C 95.31175,158.91005 93.556765,159.21342 91.476801,159.49342 C 91.513929,160.52021 91.625361,161.67534 91.811085,162.9588 C 91.996783,164.24227 92.275356,165.33906 92.646787,166.24914 C 93.092485,167.29926 93.723908,168.13934 94.541063,168.76941 C 95.358183,169.37614 96.398166,169.67951 97.661028,169.6795 C 99.852424,169.67951 101.70954,169.15445 103.23241,168.10433 C 104.7738,167.0309 106.24092,165.33906 107.6338,163.0288 L 109.66735,165.16403 C 107.99591,168.15101 105.85093,170.54293 103.23241,172.33979 C 100.63241,174.1133 97.89315,175.00006 95.01463,175.00006 M 101.31028,147.27714 C 101.31026,145.29362 101.02241,143.77681 100.44672,142.72666 C 99.870988,141.65325 99.072424,141.11652 98.051024,141.1165 C 96.621028,141.11652 95.265325,142.58668 93.983925,145.52695 C 92.721063,148.44395 91.913212,152.14267 91.560372,156.62312 C 92.656065,156.45979 93.742481,156.24976 94.819628,155.99305 C 95.896748,155.73639 96.751023,155.43302 97.382464,155.08297 C 98.775286,154.3129 99.77813,153.32113 100.39101,152.10764 C 101.00384,150.89421 101.31026,149.28404 101.31028,147.27714 M 142.37133,145.59697 C 142.3713,146.64711 142.25059,147.6622 142.00919,148.64228 C 141.76774,149.62241 141.4056,150.4625 140.92278,151.16255 C 140.38418,151.95599 139.81775,152.55105 139.2235,152.94774 C 138.6292,153.32113 137.79349,153.50781 136.71639,153.50779 C 135.32352,153.50781 134.22781,153.07611 133.42927,152.21266 C 132.63069,151.34926 132.23141,150.38083 132.23143,149.30735 C 132.23141,148.30394 132.34283,147.44052 132.56571,146.71708 C 132.80711,145.9937 133.17854,144.89691 133.67999,143.42673 C 132.43569,144.08016 131.36785,144.88525 130.47644,145.84199 C 129.585,146.77544 128.73072,147.84889 127.9136,149.06233 L 123.51222,173.84494 L 114.29159,173.84494 L 118.13585,152.31767 C 118.24726,151.66429 118.38655,150.81253 118.55369,149.7624 C 118.7394,148.71232 118.83226,147.83723 118.83227,147.13712 C 118.83226,145.78367 118.61869,144.86192 118.19156,144.37183 C 117.78298,143.88181 116.98441,143.63679 115.79586,143.63675 C 115.20158,143.63679 114.58873,143.75347 113.95731,143.9868 C 113.34446,144.22018 112.81517,144.44187 112.36947,144.65186 L 112.98231,141.50153 C 114.48659,140.73148 115.92586,140.07808 117.30013,139.54132 C 118.6744,138.9813 119.97438,138.70127 121.2001,138.70124 C 123.3915,138.70127 125.02576,139.24966 126.10291,140.34641 C 127.1986,141.41988 127.92288,142.93671 128.27575,144.89689 L 128.47074,144.89689 C 130.30928,142.44666 131.86926,140.74315 133.15071,139.78635 C 134.4321,138.80628 135.80637,138.31623 137.27353,138.3162 C 138.85205,138.31623 140.09633,138.94629 141.00635,140.2064 C 141.91631,141.44322 142.3713,143.24008 142.37133,145.59697 M 159.25261,143.46174 C 158.32403,149.2257 157.51618,154.23123 156.82906,158.47833 C 156.16048,162.70211 155.35263,167.12424 154.40551,171.74472 C 153.94122,174.00829 153.17051,176.22519 152.09339,178.39542 C 151.03482,180.58897 149.78126,182.47917 148.33271,184.06602 C 146.80986,185.74618 145.15702,187.05298 143.37418,187.98643 C 141.60991,188.91985 139.78994,189.38657 137.91423,189.38658 C 136.22426,189.38657 134.85927,189.17655 133.81928,188.75651 C 132.76072,188.33645 131.9343,187.79974 131.34001,187.14634 C 130.76431,186.49293 130.37431,185.76952 130.17002,184.97611 C 129.96575,184.18269 129.86361,183.40094 129.86359,182.63087 C 129.86361,181.27739 130.25361,180.07559 131.03359,179.02549 C 131.79501,177.99871 132.82572,177.48532 134.1257,177.48532 C 135.12855,177.48532 136.0014,177.81203 136.74425,178.46542 C 137.46853,179.14216 138.09066,179.94724 138.61065,180.88068 C 139.13066,181.79077 139.59494,182.80588 140.0035,183.92601 C 140.3935,185.04611 140.69992,185.92121 140.92278,186.55128 C 141.70277,185.47782 142.43634,183.85598 143.12347,181.68577 C 143.81061,179.53887 144.45131,176.66857 145.0456,173.07486 L 150.03198,143.46174 L 144.62774,143.46174 L 145.29631,139.85636 L 150.64483,139.85636 L 151.1184,137.16107 C 151.50839,134.96755 152.21409,132.82065 153.23552,130.7204 C 154.2755,128.59688 155.52906,126.70668 156.9962,125.04979 C 158.4076,123.41634 160.03259,122.0862 161.87115,121.05937 C 163.72826,120.03266 165.58538,119.51927 167.44253,119.51921 C 169.05821,119.51927 170.39534,119.71762 171.45393,120.11428 C 172.53103,120.4877 173.37602,121.01276 173.9889,121.68944 C 174.54601,122.31955 174.91743,123.0313 175.10318,123.82467 C 175.30743,124.59479 175.40957,125.36488 175.4096,126.13491 C 175.40957,126.64835 175.326,127.22007 175.15889,127.85009 C 175.01029,128.4802 174.76886,129.05193 174.43461,129.56527 C 174.02601,130.14871 173.58959,130.60376 173.12534,130.93042 C 172.6796,131.25716 172.02032,131.42051 171.1475,131.42047 C 170.14462,131.42051 169.28106,131.09381 168.55681,130.44036 C 167.8325,129.76367 167.21965,128.97025 166.71825,128.06011 C 166.17966,127.10339 165.72467,126.07661 165.35327,124.97979 C 164.98182,123.88306 164.6754,123.00796 164.43399,122.35451 C 163.67254,123.45134 162.98541,125.04985 162.37258,127.15001 C 161.75971,129.25028 161.12829,132.14392 160.47831,135.83093 L 159.78189,139.85636 L 166.82968,139.85636 L 166.16111,143.46174 L 159.25261,143.46174 M 198.11296,152.87773 C 198.11293,155.81806 197.66721,158.63001 196.77583,161.31362 C 195.88438,163.99724 194.62153,166.33083 192.98729,168.31436 C 191.22299,170.43792 189.15231,172.08308 186.7752,173.24988 C 184.41664,174.39333 181.76095,174.96505 178.80814,174.96505 C 174.85245,174.96505 171.6582,173.64659 169.22537,171.00964 C 166.79254,168.34936 165.57612,164.73233 165.57612,160.1585 C 165.57612,157.05485 166.03111,154.17288 166.9411,151.51258 C 167.86966,148.85233 169.16036,146.53042 170.81321,144.54685 C 172.44748,142.61001 174.45317,141.08152 176.8303,139.96137 C 179.20741,138.81795 181.77952,138.24622 184.54665,138.24618 C 188.74374,138.24622 192.04942,139.54135 194.46371,142.13159 C 196.89651,144.69856 198.11293,148.2806 198.11296,152.87773 M 188.30734,148.92231 C 188.30731,146.19205 187.93589,144.18517 187.19306,142.90168 C 186.46876,141.61824 185.4102,140.97651 184.01738,140.97648 C 182.58737,140.97651 181.2781,141.69992 180.08955,143.1467 C 178.90098,144.57022 177.93527,146.67043 177.19244,149.44737 C 176.54243,151.75764 176.07815,154.26623 175.79959,156.97317 C 175.52102,159.65679 175.38173,162.06038 175.38174,164.18392 C 175.38173,167.00756 175.75316,169.06111 176.49602,170.34457 C 177.23885,171.6047 178.31598,172.23477 179.72742,172.23477 C 181.25024,172.23477 182.5688,171.45303 183.68309,169.88952 C 184.79735,168.32603 185.67948,166.40083 186.3295,164.11391 C 186.97947,161.87369 187.47161,159.4001 187.80591,156.69313 C 188.14017,153.96287 188.30731,151.3726 188.30734,148.92231 M 230.8448,145.59697 C 230.84477,146.64711 230.72405,147.6622 230.48266,148.64228 C 230.24121,149.62241 229.87906,150.4625 229.39625,151.16255 C 228.85765,151.95599 228.29122,152.55105 227.69697,152.94774 C 227.10266,153.32113 226.26696,153.50781 225.18986,153.50779 C 223.79698,153.50781 222.70128,153.07611 221.90274,152.21266 C 221.10416,151.34926 220.70488,150.38083 220.70489,149.30735 C 220.70488,148.30394 220.8163,147.44052 221.03918,146.71708 C 221.28058,145.9937 221.65201,144.89691 222.15345,143.42673 C 220.90916,144.08016 219.84131,144.88525 218.94991,145.84199 C 218.05847,146.77544 217.20419,147.84889 216.38707,149.06233 L 211.98569,173.84494 L 202.76506,173.84494 L 206.6093,152.31767 C 206.72073,151.66429 206.86001,150.81253 207.02716,149.7624 C 207.21287,148.71232 207.30573,147.83723 207.30573,147.13712 C 207.30573,145.78367 207.09216,144.86192 206.66502,144.37183 C 206.25645,143.88181 205.45788,143.63679 204.26933,143.63675 C 203.67505,143.63679 203.0622,143.75347 202.43078,143.9868 C 201.81793,144.22018 201.28864,144.44187 200.84293,144.65186 L 201.45578,141.50153 C 202.96005,140.73148 204.39933,140.07808 205.7736,139.54132 C 207.14787,138.9813 208.44785,138.70127 209.67357,138.70124 C 211.86496,138.70127 213.49923,139.24966 214.57638,140.34641 C 215.67207,141.41988 216.39634,142.93671 216.74922,144.89689 L 216.94421,144.89689 C 218.78275,142.44666 220.34273,140.74315 221.62417,139.78635 C 222.90557,138.80628 224.27983,138.31623 225.74699,138.3162 C 227.32552,138.31623 228.56979,138.94629 229.47982,140.2064 C 230.38978,141.44322 230.84477,143.24008 230.8448,145.59697 M 286.80929,168.48937 L 286.19644,171.63971 C 284.35783,172.54981 282.8907,173.24988 281.79504,173.73993 C 280.6993,174.20665 279.42717,174.44001 277.97865,174.44001 C 275.76863,174.44001 274.05079,173.7516 272.82513,172.37478 C 271.59939,170.97464 270.98654,169.24779 270.98657,167.19424 C 270.98654,166.63419 271.00511,165.92245 271.04229,165.05902 C 271.09796,164.17226 271.25581,163.07549 271.51586,161.76867 L 273.52156,152.45769 C 273.72579,151.45427 273.87436,150.55584 273.96726,149.7624 C 274.07865,148.94567 274.13436,148.2806 274.13441,147.76719 C 274.13436,146.64711 273.91151,145.772 273.46584,145.14191 C 273.02009,144.51188 272.29581,144.19684 271.29301,144.19682 C 270.58725,144.19684 269.68655,144.59355 268.59089,145.38694 C 267.51371,146.18038 266.41801,147.24217 265.30377,148.57228 L 260.70739,173.84494 L 251.48676,173.84494 L 255.38672,152.49269 C 255.59097,151.32592 255.73955,150.38083 255.83243,149.65739 C 255.94383,148.934 255.99954,148.30394 255.99957,147.76719 C 255.99954,146.64711 255.77669,145.772 255.33101,145.14191 C 254.88527,144.51188 254.15171,144.19684 253.13031,144.19682 C 252.55458,144.19684 251.75602,144.48854 250.73462,145.07191 C 249.71318,145.65533 248.43176,146.82212 246.89037,148.57228 L 242.29399,173.84494 L 233.07336,173.84494 L 237.02903,152.31767 C 237.14046,151.66429 237.27974,150.80087 237.44689,149.72739 C 237.63259,148.65397 237.72544,147.79055 237.72545,147.13712 C 237.72544,145.80701 237.52116,144.89691 237.1126,144.40684 C 236.70403,143.89348 235.89618,143.63679 234.68905,143.63675 C 234.09477,143.63679 233.48192,143.75347 232.85049,143.9868 C 232.23765,144.22018 231.70837,144.44187 231.26265,144.65186 L 231.87551,141.50153 C 233.37977,140.73148 234.81905,140.07808 236.19332,139.54132 C 237.56759,138.9813 238.86758,138.70127 240.09329,138.70124 C 242.35897,138.70127 243.99324,139.28467 244.9961,140.45142 C 245.99893,141.59491 246.70464,143.07673 247.11323,144.89689 L 247.30822,144.89689 C 249.16533,142.75003 250.95745,141.11652 252.6846,139.99637 C 254.4117,138.87629 256.39883,138.31623 258.64598,138.3162 C 260.55878,138.31623 262.12805,138.95796 263.35379,140.24139 C 264.57946,141.5249 265.25731,143.11173 265.38734,145.0019 L 265.58234,145.0019 C 267.56943,142.85504 269.41727,141.20986 271.12586,140.06638 C 272.83437,138.89963 274.78436,138.31623 276.97581,138.3162 C 279.03717,138.31623 280.65286,139.02798 281.8229,140.45142 C 282.99284,141.87494 283.57784,143.60178 283.57789,145.63196 C 283.57784,146.16871 283.54069,146.92713 283.46646,147.9072 C 283.41069,148.864 283.26212,149.89078 283.02075,150.98753 L 280.90363,160.82357 C 280.71786,161.64033 280.55072,162.57377 280.4022,163.62386 C 280.25358,164.67398 280.1793,165.4674 280.17935,166.00411 C 280.1793,167.35759 280.41144,168.27936 280.87577,168.76941 C 281.35857,169.25946 282.19428,169.50449 283.38289,169.50448 C 283.93997,169.50449 284.57139,169.38781 285.27716,169.15445 C 285.98281,168.89776 286.49352,168.67607 286.80929,168.48937 M 322.02041,152.87773 C 322.02037,155.81806 321.57467,158.63001 320.68328,161.31362 C 319.79182,163.99724 318.52898,166.33083 316.89474,168.31436 C 315.13044,170.43792 313.05975,172.08308 310.68266,173.24988 C 308.32409,174.39333 305.6684,174.96505 302.71559,174.96505 C 298.75989,174.96505 295.56564,173.64659 293.13281,171.00964 C 290.69998,168.34936 289.48356,164.73233 289.48356,160.1585 C 289.48356,157.05485 289.93855,154.17288 290.84855,151.51258 C 291.77711,148.85233 293.06781,146.53042 294.72066,144.54685 C 296.35492,142.61001 298.36061,141.08152 300.73775,139.96137 C 303.11485,138.81795 305.68697,138.24622 308.45411,138.24618 C 312.65118,138.24622 315.95686,139.54135 318.37116,142.13159 C 320.80395,144.69856 322.02037,148.2806 322.02041,152.87773 M 312.21478,148.92231 C 312.21475,146.19205 311.84333,144.18517 311.10051,142.90168 C 310.37621,141.61824 309.31764,140.97651 307.92482,140.97648 C 306.49482,140.97651 305.18555,141.69992 303.99701,143.1467 C 302.80843,144.57022 301.84272,146.67043 301.09988,149.44737 C 300.44988,151.75764 299.9856,154.26623 299.70704,156.97317 C 299.42846,159.65679 299.28918,162.06038 299.28919,164.18392 C 299.28918,167.00756 299.6606,169.06111 300.40346,170.34457 C 301.1463,171.6047 302.22343,172.23477 303.63486,172.23477 C 305.15769,172.23477 306.47624,171.45303 307.59054,169.88952 C 308.70479,168.32603 309.58693,166.40083 310.23694,164.11391 C 310.88691,161.87369 311.37905,159.4001 311.71336,156.69313 C 312.04762,153.96287 312.21475,151.3726 312.21478,148.92231 M 346.31159,168.27935 L 346.1166,168.27935 C 344.1666,170.51959 342.30948,172.17644 340.54522,173.24988 C 338.78093,174.32333 336.7381,174.86004 334.41671,174.86004 C 332.35529,174.86004 330.75816,174.14831 329.62532,172.72482 C 328.51104,171.30134 327.95391,169.5745 327.95391,167.54428 C 327.95391,166.82088 327.98177,166.0858 328.03748,165.33905 C 328.11176,164.59231 328.28819,163.5422 328.56676,162.18871 L 330.65602,152.35268 C 330.78602,151.69929 330.93459,150.81253 331.10174,149.6924 C 331.28745,148.54896 331.38029,147.70888 331.3803,147.17213 C 331.38029,145.88869 331.16673,144.99026 330.73959,144.47685 C 330.33103,143.94015 329.52317,143.67179 328.31605,143.67176 C 327.72177,143.67179 327.10892,143.78846 326.47749,144.02179 C 325.86464,144.25519 325.33536,144.47687 324.88965,144.68687 L 325.5025,141.53653 C 327.00677,140.76649 328.44605,140.11309 329.82032,139.57633 C 331.19459,139.01631 332.49457,138.73627 333.72029,138.73623 C 335.93026,138.73627 337.62952,139.43634 338.8181,140.83646 C 340.02521,142.2133 340.62878,143.92848 340.62879,145.98201 C 340.62878,146.40207 340.59163,147.17215 340.51736,148.29225 C 340.44306,149.41239 340.29449,150.45083 340.07166,151.40757 L 338.0381,160.71856 C 337.85237,161.53532 337.7038,162.42208 337.59239,163.37884 C 337.48095,164.31228 337.42524,164.98901 337.42525,165.40905 C 337.42524,166.50584 337.62952,167.38093 338.0381,168.03433 C 338.44666,168.6644 339.15236,168.97943 340.15523,168.97942 C 340.87949,168.97943 341.83591,168.60606 343.02449,167.85931 C 344.23159,167.08924 345.42015,166.00412 346.59017,164.60396 L 351.18655,139.3313 L 360.0729,138.84125 L 360.40718,139.3313 L 356.45151,160.85857 C 356.32148,161.53532 356.16362,162.43375 355.97794,163.55386 C 355.81076,164.67398 355.72719,165.5024 355.72723,166.03912 C 355.72719,167.3926 355.95933,168.31437 356.42365,168.80441 C 356.90646,169.29447 357.74218,169.53949 358.93076,169.53949 C 359.48786,169.53949 360.11929,169.42281 360.82504,169.18945 C 361.5307,168.93276 362.04141,168.71108 362.35716,168.52438 L 361.74431,171.67471 C 359.90572,172.5848 358.4386,173.28488 357.34292,173.77493 C 356.24719,174.24165 354.97506,174.475 353.52653,174.475 C 351.48366,174.475 349.8494,173.90328 348.62372,172.75983 C 347.39799,171.59303 346.62729,170.09956 346.31159,168.27935 M 375.17134,175.00006 C 372.83136,175.00006 370.89066,174.75503 369.34926,174.26498 C 367.8264,173.79827 366.61928,173.19154 365.72786,172.4448 C 364.81786,171.69805 364.19573,170.90463 363.86145,170.06455 C 363.52717,169.20113 363.36002,168.39604 363.36002,167.64929 C 363.36002,166.29582 363.75931,165.11736 364.55787,164.11391 C 365.375,163.08715 366.45214,162.57377 367.78927,162.57376 C 368.90354,162.57377 369.8321,162.93547 370.57495,163.65887 C 371.33637,164.38228 371.9678,165.29238 372.46922,166.38915 C 372.93349,167.3926 373.32349,168.50105 373.63922,169.7145 C 373.95491,170.92797 374.17777,171.8264 374.30778,172.40979 C 376.40632,172.40979 377.99416,171.84973 379.0713,170.72961 C 380.14842,169.58617 380.68699,168.03433 380.68701,166.07413 C 380.68699,165.21071 380.51985,164.48729 380.18558,163.90389 C 379.86985,163.32051 379.44272,162.80712 378.90416,162.36373 C 378.36558,161.9437 377.67845,161.53532 376.84275,161.1386 C 376.00703,160.7419 375.18062,160.36853 374.3635,160.01848 C 372.11636,159.06173 370.33352,157.74325 369.01497,156.06307 C 367.71498,154.35958 367.06499,152.24769 367.06499,149.72739 C 367.06499,148.23394 367.33427,146.83379 367.87284,145.52695 C 368.42997,144.19684 369.29354,142.97172 370.46353,141.85157 C 371.61494,140.77816 373.07278,139.92639 374.83706,139.2963 C 376.60132,138.64293 378.66273,138.31623 381.02129,138.3162 C 382.43269,138.31623 383.74196,138.42124 384.94911,138.63122 C 386.15621,138.84128 387.27978,139.22633 388.31979,139.78635 C 389.30405,140.34644 390.06547,141.08152 390.60406,141.99158 C 391.16117,142.87838 391.43973,143.96349 391.43977,145.24692 C 391.43973,146.53042 391.04974,147.63888 390.26977,148.57228 C 389.50833,149.4824 388.50548,149.93744 387.26123,149.93742 C 386.18407,149.93744 385.28337,149.58741 384.55911,148.88731 C 383.85339,148.18726 383.27768,147.35884 382.83199,146.40205 C 382.38625,145.42197 382.03341,144.41853 381.77342,143.39173 C 381.5134,142.34165 381.29984,141.46656 381.13271,140.76645 C 379.83271,140.85983 378.64415,141.45489 377.56703,142.55164 C 376.50846,143.62512 375.97918,144.96693 375.97919,146.57707 C 375.97918,147.55719 376.09989,148.32728 376.34134,148.88731 C 376.60132,149.44739 376.94488,149.91411 377.37204,150.28746 C 377.85488,150.70753 378.45844,151.10423 379.18274,151.47759 C 379.92557,151.82764 380.84484,152.23602 381.94057,152.70271 C 384.46624,153.82285 386.36979,155.16465 387.65123,156.72813 C 388.93262,158.29165 389.57333,160.35687 389.57335,162.92379 C 389.57333,164.60398 389.25761,166.21415 388.62622,167.7543 C 388.01334,169.29447 387.13121,170.57794 385.97981,171.6047 C 384.69838,172.72482 383.22197,173.56491 381.55057,174.12497 C 379.87914,174.70837 377.75273,175.00006 375.17134,175.00006"
       style="font-size:63.95185852px;font-style:italic;font-variant:normal;font-weight:bold;font-stretch:normal;fill:#c7e5ff;fill-opacity:1;stroke:none;stroke-width:1px;stroke-linecap:butt;stroke-linejoin:miter;stroke-opacity:1;font-family:Georgia;-inkscape-font-specification:Georgia Bold Italic" />
  </g>
  <g
     id="g3955"
     transform="translate(18.488319,-59.198001)"
     style="opacity:0.6;filter:url(#filter5083)">
    <path
       id="path1939"
       d="M 794.42889,322.92369 L 780.83033,322.92369 L 778.11066,329.72293 L 780.83033,337.2021 L 779.47049,345.36119 L 772.67131,341.28164 L 767.23197,331.08278 L 755.67315,328.36307 L 750.91373,323.60361 L 740.71485,318.84413 L 729.15616,299.80625 L 729.83607,290.96723 L 758.39293,269.20965 L 771.9913,275.32896 L 774.03114,280.08844 L 774.03114,285.52784 L 777.43073,290.2873 L 784.23001,292.32708 L 788.98944,288.24753 L 789.66936,283.48806 L 787.62961,279.40852 L 783.5501,277.36875 L 780.83033,273.96912 L 786.94969,271.24943 L 785.58985,264.45018 L 785.58985,260.37062 L 781.51034,256.29108 L 779.47049,250.17177 L 771.31147,248.132 L 764.51219,246.77214 L 750.23372,256.97101 L 714.19776,271.24943 L 706.03865,279.40852 L 699.91938,284.16799 L 698.55944,295.04678 L 701.27921,300.48618 L 708.07849,318.84413 L 716.91743,335.84224 L 726.43638,348.08088 L 711.47808,372.55817 L 694.47994,409.27408 L 684.28107,425.59226 L 667.28301,446.66993 L 666.60309,456.18888 L 657.76406,464.34796 L 671.36253,476.58662 L 667.96293,490.86501 L 669.32277,522.82147 L 675.44203,559.53739 L 681.56139,592.17377 L 688.36057,603.05256 L 697.87963,622.77036 L 712.83793,645.20787 L 716.91743,659.48624 L 720.99703,669.68512 L 708.75832,686.68323 L 687.00074,695.52225 L 684.96098,702.32155 L 726.43638,700.9617 L 720.31712,711.84046 L 727.79623,718.63969 L 747.51405,720.6795 L 763.15236,707.08098 L 768.5918,688.04314 L 777.43073,671.72493 L 788.30953,662.206 L 791.70912,651.32718 L 780.15051,650.64727 L 787.62961,643.16809 L 772.67131,647.92757 L 783.5501,637.04877 L 775.39099,635.009 L 769.27162,627.52983 L 759.07276,606.45217 L 735.27542,586.73436 L 730.51599,585.37452 L 735.27542,581.29497 L 734.5955,569.73625 L 739.35502,559.53739 L 735.27542,560.21731 L 742.75461,547.29875 L 742.75461,534.38018 L 747.51405,527.58094 L 747.51405,518.74192 L 757.71291,505.14342 L 758.39293,493.58472 L 756.35308,484.06577 L 761.1126,473.18698 L 766.55195,464.34796 L 766.55195,458.90857 L 772.67131,458.22865 L 778.11066,452.78925 L 782.87018,439.19077 L 793.74896,426.95212 L 806.66752,422.19265 L 814.82653,428.99189 L 834.54445,435.11122 L 850.18266,443.2703 L 857.66177,452.78925 L 870.58031,454.1491 L 911.37589,471.82713 L 932.45346,479.30631 L 949.4516,492.22487 L 953.53121,490.86501 L 953.53121,486.78547 L 944.01225,479.30631 L 962.37014,484.06577 L 964.41,480.66614 L 960.3304,476.58662 L 967.12968,476.58662 L 967.80959,472.50706 L 955.57096,469.78736 L 965.08982,467.06766 L 965.08982,462.30819 L 961.69023,461.62828 L 951.49136,462.30819 L 943.33234,458.90857 L 937.8929,456.18888 L 946.05201,449.38963 L 948.09177,444.63016 L 946.73193,441.23053 L 939.25283,442.59039 L 923.61442,450.74947 L 921.57476,454.82902 L 916.13532,453.46918 L 896.41749,442.59039 L 895.73758,435.11122 L 884.17887,428.99189 L 864.46105,418.79302 L 859.70161,422.19265 L 860.38154,417.43318 L 849.50275,407.23431 L 839.98379,404.51461 L 831.14476,394.31575 L 828.4251,390.91612 L 837.26412,397.03545 L 835.90429,390.23619 L 842.70347,393.63582 L 840.66371,383.43695 L 850.18266,392.27598 L 846.10316,386.15666 L 855.62201,390.23619 L 847.46299,378.67749 L 853.58226,380.71726 L 850.86259,369.83847 L 855.62201,373.91801 L 848.82283,363.71914 L 855.62201,365.75891 L 849.50275,357.59983 L 857.66177,356.9199 L 848.82283,351.4805 L 854.26218,348.76082 L 848.14292,348.08088 L 856.30194,340.60172 L 848.82283,341.28164 L 849.50275,336.52217 L 850.18266,322.92369 L 846.10316,332.44263 L 841.34364,318.84413 L 842.02355,329.72293 L 839.30388,330.40285 L 832.5046,330.40285 L 825.02541,319.52406 L 817.5463,319.52406 L 808.70726,312.04489 L 804.62766,316.12443 L 794.42889,322.92369 z"
       style="fill:#000000;fill-opacity:1;fill-rule:evenodd;stroke:#000000;stroke-width:0.67309087999999995px;stroke-linecap:butt;stroke-linejoin:miter;stroke-opacity:1" />
    <path
       style="opacity:0.22790700999999999;fill:url(#linearGradient2518);fill-opacity:1;fill-rule:evenodd;stroke:none;stroke-width:0.44754832999999999px;stroke-linecap:butt;stroke-linejoin:miter;stroke-opacity:1"
       d="M 435.88424,549.14748 L 422.27662,549.14748 L 425.93151,551.82116 L 435.66696,554.76219 L 441.95775,557.97059 L 431.32821,556.36638 L 416.32067,552.3559 L 402.20371,551.28642 L 392.97758,549.41486 L 378.30844,547.54329 L 348.88817,540.05702 L 341.27935,536.58125 L 349.45101,528.02552 L 368.79722,530.43182 L 375.30188,532.30338 L 380.40291,534.44231 L 388.26826,536.31389 L 396.98502,537.11598 L 397.92173,535.51178 L 394.13874,533.64022 L 388.27174,532.03601 L 382.27663,531.23392 L 376.3669,529.89708 L 379.9398,528.82762 L 372.20267,526.15395 L 368.37693,524.54974 L 360.46886,522.94554 L 352.689,520.53924 L 342.61155,519.73714 L 334.53244,519.20241 L 329.80904,523.21292 L 307.13918,528.82762 L 306.62625,532.03601 L 304.96631,533.90758 L 313.80771,538.18545 L 321.6303,540.32439 L 345.65028,547.54329 L 370.43602,554.22746 L 391.43879,559.04006 L 399.42525,568.66525 L 416.84803,583.10307 L 421.94558,589.51986 L 424.70281,597.80824 L 432.94938,601.55137 L 431.75595,604.75978 L 456.84095,609.57239 L 466.82945,615.18708 L 498.15899,627.75333 L 538.71466,642.19113 L 575.44459,655.02474 L 592.45048,659.3026 L 620.46723,667.05624 L 656.47743,675.87935 L 673.95003,681.49403 L 687.59688,685.50454 L 691.29082,692.1887 L 677.80792,695.66447 L 682.14329,698.33816 L 722.37112,697.80343 L 726.44988,702.08128 L 740.31033,704.75495 L 761.95422,705.55705 L 764.85022,700.20971 L 752.43961,692.72346 L 745.98128,686.30664 L 747.94047,682.56352 L 741.14016,678.28565 L 728.93615,678.01828 L 729.40635,675.07723 L 718.90144,676.94881 L 719.58531,672.67094 L 709.50786,671.86884 L 696.37054,668.92781 L 666.39809,660.63943 L 624.09342,652.8858 L 618.05549,652.35107 L 618.99239,650.74686 L 607.47217,646.20163 L 602.67029,642.19113 L 599.2257,642.4585 L 594.59486,637.37853 L 582.47972,632.29855 L 580.86601,629.62488 L 572.5768,626.14912 L 570.02977,620.80179 L 559.87043,616.25656 L 548.9024,612.51341 L 543.46287,608.23555 L 540.61667,604.75978 L 535.51554,602.62085 L 541.0014,602.35348 L 541.34329,600.21455 L 533.35333,594.86722 L 532.7619,590.05461 L 541.22564,588.18304 L 555.76648,590.8567 L 581.2363,593.26301 L 604.53655,596.4714 L 620.94761,600.21455 L 635.15005,600.74928 L 692.55132,607.70081 L 720.65703,610.64185 L 749.78154,615.72183 L 752.58866,615.18708 L 748.76284,613.58289 L 732.22347,610.64185 L 755.0572,612.51341 L 753.91011,611.17659 L 746.00213,609.57239 L 752.80584,609.57239 L 749.6605,607.96818 L 734.86305,606.89872 L 741.83781,605.82925 L 737.37432,603.95767 L 733.3349,603.69031 L 723.7668,603.95767 L 712.41413,602.62085 L 704.42049,601.55137 L 706.20874,598.87771 L 703.78643,597.00615 L 699.23748,595.6693 L 693.02859,596.20404 L 685.03145,599.41243 L 686.81611,601.01664 L 680.09788,600.48191 L 650.16467,596.20404 L 642.47038,593.26301 L 625.16523,590.8567 L 595.86969,586.8462 L 594.29523,588.18304 L 590.51213,586.31147 L 570.06157,582.30096 L 557.98578,581.23151 L 539.57628,577.22099 L 533.66664,575.88417 L 548.25021,578.29047 L 540.51318,575.61679 L 550.50506,576.95363 L 538.89937,572.94314 L 556.71396,576.4189 L 546.89301,574.0126 L 560.24412,575.61679 L 541.2398,571.07157 L 549.27608,571.87367 L 536.35245,567.59579 L 544.9409,569.2 L 528.57258,565.18949 L 537.28925,565.9916 L 523.51419,562.78319 L 531.04112,562.51582 L 517.0952,560.37689 L 519.9876,559.30743 L 513.22664,559.04006 L 514.37712,556.09902 L 507.53068,556.36638 L 503.74758,554.49483 L 491.67529,549.14748 L 496.51991,552.89062 L 479.00458,547.54329 L 489.88705,551.82116 L 487.80313,552.08853 L 480.99942,552.08853 L 463.31306,547.81066 L 455.82886,547.81066 L 439.97007,544.86963 L 439.71346,546.47381 L 435.88424,549.14748 z"
       id="path2864" />
    <path
       sodipodi:nodetypes="cssc"
       id="path3759"
       d="M 763.90087,255.09122 C 737.27952,245.25132 726.24864,281.2444 731.7447,302.74821 C 738.17651,327.91326 740.1544,358.76892 728.57172,381.46481 C 720.27205,397.72776 681.88886,403.81659 682.37312,426.6734"
       style="fill:none;fill-opacity:0.75000000000000000;fill-rule:evenodd;stroke:#ffffff;stroke-width:1.60380363000000004;stroke-linecap:round;stroke-linejoin:round;stroke-miterlimit:4;stroke-dasharray:none;stroke-opacity:1" />
  </g>
  <g
     id="g4087"
     transform="translate(9.4333253,-20.40528)"
     style="opacity:0.80000000000000004;">
    <path
       transform="matrix(0.6171045,-0.2551458,0.2551458,0.6171045,-48.77856,487.49674)"
       d="M 179.80715,418.82535 L 136.01242,395.47879 L 87.954791,407.86853 L 96.625376,359.00278 L 69.991407,317.1259 L 119.14486,310.27177 L 150.74179,272.0007 L 172.4497,316.63036 L 218.61165,334.85441 L 182.87443,369.29119 L 179.80715,418.82535 z"
       inkscape:randomized="0"
       inkscape:rounded="0"
       inkscape:flatsided="false"
       sodipodi:arg2="1.6895226"
       sodipodi:arg1="1.0612041"
       sodipodi:r2="45.665279"
       sodipodi:r1="78.688225"
       sodipodi:cy="350.13498"
       sodipodi:cx="141.42136"
       sodipodi:sides="5"
       id="path5574"
       style="opacity:0.22790700999999999;fill:#ffffff;fill-opacity:1;fill-rule:nonzero;stroke:#ffffff;stroke-width:1.70000005000000010;stroke-linecap:round;stroke-linejoin:round;marker:none;marker-start:none;marker-mid:none;marker-end:none;stroke-miterlimit:4;stroke-dasharray:none;stroke-dashoffset:0;stroke-opacity:1;visibility:visible;display:block;overflow:visible"
       sodipodi:type="star" />
    <path
       sodipodi:type="star"
       style="opacity:0.22790700999999999;fill:#ffffff;fill-opacity:1;fill-rule:nonzero;stroke:#ffffff;stroke-width:1.70000005000000010;stroke-linecap:round;stroke-linejoin:round;marker:none;marker-start:none;marker-mid:none;marker-end:none;stroke-miterlimit:4;stroke-dasharray:none;stroke-dashoffset:0;stroke-opacity:1;visibility:visible;display:block;overflow:visible"
       id="path5576"
       sodipodi:sides="5"
       sodipodi:cx="141.42136"
       sodipodi:cy="350.13498"
       sodipodi:r1="78.688225"
       sodipodi:r2="45.665279"
       sodipodi:arg1="1.0612041"
       sodipodi:arg2="1.6895226"
       inkscape:flatsided="false"
       inkscape:rounded="0"
       inkscape:randomized="0"
       d="M 179.80715,418.82535 L 136.01242,395.47879 L 87.954791,407.86853 L 96.625376,359.00278 L 69.991407,317.1259 L 119.14486,310.27177 L 150.74179,272.0007 L 172.4497,316.63036 L 218.61165,334.85441 L 182.87443,369.29119 L 179.80715,418.82535 z"
       transform="matrix(0.5368229,1.5964048e-2,-1.5964048e-2,0.5368229,6.5592731,406.45942)" />
    <path
       transform="matrix(0.3852517,-0.1964008,0.1964008,0.3852517,15.210382,430.94873)"
       d="M 179.80715,418.82535 L 136.01242,395.47879 L 87.954791,407.86853 L 96.625376,359.00278 L 69.991407,317.1259 L 119.14486,310.27177 L 150.74179,272.0007 L 172.4497,316.63036 L 218.61165,334.85441 L 182.87443,369.29119 L 179.80715,418.82535 z"
       inkscape:randomized="0"
       inkscape:rounded="0"
       inkscape:flatsided="false"
       sodipodi:arg2="1.6895226"
       sodipodi:arg1="1.0612041"
       sodipodi:r2="45.665279"
       sodipodi:r1="78.688225"
       sodipodi:cy="350.13498"
       sodipodi:cx="141.42136"
       sodipodi:sides="5"
       id="path5578"
       style="opacity:0.22790700999999999;fill:#ffffff;fill-opacity:1;fill-rule:nonzero;stroke:#ffffff;stroke-width:1.70000005000000010;stroke-linecap:round;stroke-linejoin:round;marker:none;marker-start:none;marker-mid:none;marker-end:none;stroke-miterlimit:4;stroke-dasharray:none;stroke-dashoffset:0;stroke-opacity:1;visibility:visible;display:block;overflow:visible"
       sodipodi:type="star" />
    <path
       sodipodi:type="star"
       style="opacity:0.22790700999999999;fill:#ffffff;fill-opacity:1;fill-rule:nonzero;stroke:#ffffff;stroke-width:1.70000005000000010;stroke-linecap:round;stroke-linejoin:round;marker:none;marker-start:none;marker-mid:none;marker-end:none;stroke-miterlimit:4;stroke-dasharray:none;stroke-dashoffset:0;stroke-opacity:1;visibility:visible;display:block;overflow:visible"
       id="path5580"
       sodipodi:sides="5"
       sodipodi:cx="141.42136"
       sodipodi:cy="350.13498"
       sodipodi:r1="78.688225"
       sodipodi:r2="45.665279"
       sodipodi:arg1="1.0612041"
       sodipodi:arg2="1.6895226"
       inkscape:flatsided="false"
       inkscape:rounded="0"
       inkscape:randomized="0"
       d="M 179.80715,418.82535 L 136.01242,395.47879 L 87.954791,407.86853 L 96.625376,359.00278 L 69.991407,317.1259 L 119.14486,310.27177 L 150.74179,272.0007 L 172.4497,316.63036 L 218.61165,334.85441 L 182.87443,369.29119 L 179.80715,418.82535 z"
       transform="matrix(0.2727826,6.8080206e-2,-6.8080206e-2,0.2727826,71.260436,381.71532)" />
    <path
       transform="matrix(0.2047873,1.2440148e-2,-1.2440148e-2,0.2047873,101.54119,377.50775)"
       d="M 179.80715,418.82535 L 136.01242,395.47879 L 87.954791,407.86853 L 96.625376,359.00278 L 69.991407,317.1259 L 119.14486,310.27177 L 150.74179,272.0007 L 172.4497,316.63036 L 218.61165,334.85441 L 182.87443,369.29119 L 179.80715,418.82535 z"
       inkscape:randomized="0"
       inkscape:rounded="0"
       inkscape:flatsided="false"
       sodipodi:arg2="1.6895226"
       sodipodi:arg1="1.0612041"
       sodipodi:r2="45.665279"
       sodipodi:r1="78.688225"
       sodipodi:cy="350.13498"
       sodipodi:cx="141.42136"
       sodipodi:sides="5"
       id="path5582"
       style="opacity:0.22790700999999999;fill:#ffffff;fill-opacity:1;fill-rule:nonzero;stroke:#ffffff;stroke-width:1.70000005000000010;stroke-linecap:round;stroke-linejoin:round;marker:none;marker-start:none;marker-mid:none;marker-end:none;stroke-miterlimit:4;stroke-dasharray:none;stroke-dashoffset:0;stroke-opacity:1;visibility:visible;display:block;overflow:visible"
       sodipodi:type="star" />
    <path
       sodipodi:type="star"
       style="opacity:0.22790700999999999;fill:#ffffff;fill-opacity:1;fill-rule:nonzero;stroke:#ffffff;stroke-width:1.70000005000000010;stroke-linecap:round;stroke-linejoin:round;marker:none;marker-start:none;marker-mid:none;marker-end:none;stroke-miterlimit:4;stroke-dasharray:none;stroke-dashoffset:0;stroke-opacity:1;visibility:visible;display:block;overflow:visible"
       id="path6523"
       sodipodi:sides="5"
       sodipodi:cx="141.42136"
       sodipodi:cy="350.13498"
       sodipodi:r1="78.688225"
       sodipodi:r2="45.665279"
       sodipodi:arg1="1.0612041"
       sodipodi:arg2="1.6895226"
       inkscape:flatsided="false"
       inkscape:rounded="0"
       inkscape:randomized="0"
       d="M 179.80715,418.82535 L 136.01242,395.47879 L 87.954791,407.86853 L 96.625376,359.00278 L 69.991407,317.1259 L 119.14486,310.27177 L 150.74179,272.0007 L 172.4497,316.63036 L 218.61165,334.85441 L 182.87443,369.29119 L 179.80715,418.82535 z"
       transform="matrix(0.9554143,6.4781284e-2,-6.4781284e-2,0.9554143,-54.464507,409.68654)" />
  </g>
  <g
     id="g4892">
    <g
       transform="matrix(1.2468256,0,0,1.1986102,1.2039301,52.246604)"
       id="g2836">
      <path
         style="fill:none;fill-opacity:1;fill-rule:evenodd;stroke:#141414;stroke-width:4;stroke-linecap:square;stroke-linejoin:miter;stroke-miterlimit:4;stroke-dasharray:none;stroke-opacity:0.61153846"
         d="M 0,165 L 800,165"
         id="path2327"
         sodipodi:nodetypes="cc" />
      <path
         style="fill:none;fill-opacity:1;fill-rule:evenodd;stroke:#141414;stroke-width:4;stroke-linecap:square;stroke-linejoin:miter;stroke-miterlimit:4;stroke-dasharray:none;stroke-opacity:0.61153846"
         d="M 0,140 L 800,140"
         id="path3298"
         sodipodi:nodetypes="cc" />
      <path
         style="fill:none;fill-opacity:1;fill-rule:evenodd;stroke:#141414;stroke-width:4;stroke-linecap:square;stroke-linejoin:miter;stroke-miterlimit:4;stroke-dasharray:none;stroke-opacity:0.61153846"
         d="M 0,190 L 800,190"
         id="path3302"
         sodipodi:nodetypes="cc" />
      <path
         style="fill:none;fill-opacity:1;fill-rule:evenodd;stroke:#141414;stroke-width:4;stroke-linecap:square;stroke-linejoin:miter;stroke-miterlimit:4;stroke-dasharray:none;stroke-opacity:0.61153846"
         d="M 0,240 L 800,240"
         id="path3306"
         sodipodi:nodetypes="cc" />
      <path
         style="fill:none;fill-opacity:1;fill-rule:evenodd;stroke:#141414;stroke-width:4;stroke-linecap:square;stroke-linejoin:miter;stroke-miterlimit:4;stroke-dasharray:none;stroke-opacity:0.61153846"
         d="M 0,215 L 800,215"
         id="path3304"
         sodipodi:nodetypes="cc" />
    </g>
    <g
       transform="matrix(1.2468256,0,0,1.1986102,0.760128,231.91957)"
       id="g2209">
      <path
         style="fill:none;fill-opacity:1;fill-rule:evenodd;stroke:#141414;stroke-width:4;stroke-linecap:square;stroke-linejoin:miter;stroke-miterlimit:4;stroke-dasharray:none;stroke-opacity:0.61153846"
         d="M 0,165 L 800,165"
         id="path2211"
         sodipodi:nodetypes="cc" />
      <path
         style="fill:none;fill-opacity:1;fill-rule:evenodd;stroke:#141414;stroke-width:4;stroke-linecap:square;stroke-linejoin:miter;stroke-miterlimit:4;stroke-dasharray:none;stroke-opacity:0.61153846"
         d="M 0,140 L 800,140"
         id="path2213"
         sodipodi:nodetypes="cc" />
      <path
         style="fill:none;fill-opacity:1;fill-rule:evenodd;stroke:#141414;stroke-width:4;stroke-linecap:square;stroke-linejoin:miter;stroke-miterlimit:4;stroke-dasharray:none;stroke-opacity:0.61153846"
         d="M 0,190 L 800,190"
         id="path2215"
         sodipodi:nodetypes="cc" />
      <path
         style="fill:none;fill-opacity:1;fill-rule:evenodd;stroke:#141414;stroke-width:4;stroke-linecap:square;stroke-linejoin:miter;stroke-miterlimit:4;stroke-dasharray:none;stroke-opacity:0.61153846"
         d="M 0,240 L 800,240"
         id="path2217"
         sodipodi:nodetypes="cc" />
      <path
         style="fill:none;fill-opacity:1;fill-rule:evenodd;stroke:#141414;stroke-width:4;stroke-linecap:square;stroke-linejoin:miter;stroke-miterlimit:4;stroke-dasharray:none;stroke-opacity:0.61153846"
         d="M 0,215 L 800,215"
         id="path2219"
         sodipodi:nodetypes="cc" />
    </g>
    <g
       transform="matrix(5.0734563,0,0,5.3232265,22.200477,397.25206)"
       id="g2411">
      <g
         transform="translate(-230.9546,-533.6597)"
         style="fill:#000000;fill-opacity:1"
         id="g2883">
        <path
           d="M 248.25999,536.802 C 248.26766,537.17138 248.11044,537.54065 247.82878,537.78185 C 247.46853,538.11076 246.91933,538.17813 246.47048,538.01071 C 246.02563,537.83894 245.69678,537.39883 245.67145,536.9206 C 245.63767,536.54689 245.75685,536.15479 246.02747,535.88867 C 246.28257,535.6168 246.66244,535.48397 247.03147,535.50645 C 247.41131,535.51452 247.77805,535.70601 248.00489,536.01019 C 248.17962,536.23452 248.26238,536.51954 248.25999,536.802 z "
           style="fill:#000000;fill-opacity:1"
           id="path2885" />
      </g>
      <g
         transform="translate(-230.9546,-533.6597)"
         style="fill:#000000;fill-opacity:1"
         id="g2887">
        <path
           d="M 248.25999,542.64502 C 248.26772,543.01469 248.11076,543.38446 247.82878,543.62585 C 247.46853,543.95476 246.91933,544.02213 246.47048,543.85472 C 246.02537,543.68288 245.69655,543.24237 245.67145,542.76389 C 245.63651,542.3899 245.76354,542.00308 246.027,541.733 C 246.27663,541.45454 246.6606,541.3279 247.02845,541.3495 C 247.5123,541.36282 247.95159,541.69251 248.15162,542.12465 C 248.22565,542.2874 248.26043,542.46657 248.25999,542.64502 z "
           style="fill:#000000;fill-opacity:1"
           id="path2889" />
      </g>
      <g
         transform="translate(-230.9546,-533.6597)"
         style="fill:#000000;fill-opacity:1"
         id="g2891">
        <path
           d="M 243.979,540.86798 C 244.02398,543.69258 242.7636,546.43815 240.76469,548.40449 C 238.27527,550.89277 235.01791,552.47534 231.69762,553.53261 C 231.2559,553.77182 230.5897,553.45643 231.2855,553.13144 C 232.62346,552.52289 234.01319,552.0005 235.24564,551.1808 C 237.96799,549.4975 240.26523,546.84674 240.82279,543.61854 C 241.14771,541.65352 241.05724,539.60795 240.56484,537.67852 C 240.20352,536.25993 239.22033,534.7955 237.66352,534.58587 C 236.25068,534.36961 234.74885,534.85905 233.74057,535.88093 C 233.47541,536.14967 232.95916,536.89403 233.04435,537.74747 C 233.64637,537.27468 233.60528,537.32732 234.099,537.10717 C 235.23573,536.60031 236.74349,537.32105 237.027,538.57272 C 237.32909,539.72295 237.09551,541.18638 235.96036,541.7996 C 234.77512,542.44413 233.02612,542.17738 232.3645,540.90866 C 231.26916,538.95418 231.87147,536.28193 233.64202,534.92571 C 235.44514,533.42924 238.07609,533.37089 240.19963,534.13862 C 242.38419,534.95111 243.68629,537.21483 243.89691,539.45694 C 243.95419,539.92492 243.97896,540.39668 243.979,540.86798 z "
           style="fill:#000000;fill-opacity:1"
           id="path2893" />
      </g>
    </g>
    <g
       inkscape:label="Calque 1"
       id="layer1"
       transform="matrix(1.2842911,0,0,1.3475176,-322.83945,-416.05452)">
      <path
         style="fill:#000000"
         d="M 293.69923,599.2555 C 288.61593,596.94795 285.43747,592.18573 285.43231,586.86932 C 285.42935,583.82146 286.13696,582.31093 288.82857,579.61932 C 292.94935,575.49854 296.15072,575.2732 300.35184,578.80821 C 302.83284,580.89583 303.42857,582.16319 303.42857,585.35367 C 303.42857,589.93083 299.97369,594.19824 296.22403,594.25259 L 293.92857,594.28586 L 296.28935,596.25259 C 300.69752,599.92496 310.03096,598.08284 314.26067,592.70564 C 316.94762,589.28974 317.13317,582.25824 314.84084,570.71932 L 313.25156,562.71932 L 305.09006,562.69017 C 298.25713,562.66577 296.11465,562.23432 291.92857,560.03978 C 285.25402,556.54066 279.89375,551.00695 276.11964,543.71932 C 273.36554,538.40129 273.01006,536.75319 272.99212,529.21932 C 272.97514,522.09149 273.40104,519.7962 275.63041,515.00096 C 279.32544,507.05318 283.73447,500.83626 291.18314,493.07098 L 297.56041,486.42264 L 296.29966,482.07098 C 295.60625,479.67757 295.04328,472.54432 295.04862,466.21932 C 295.05677,456.55661 295.43193,453.76073 297.39684,448.71932 C 299.8084,442.5319 305.96827,435.21932 308.76877,435.21932 C 311.10447,435.21932 315.12625,442.8071 316.99612,450.74163 C 320.64521,466.2261 315.57022,487.22562 306.02373,496.14363 C 302.98204,498.98508 302.89082,500.16751 305.05014,508.7638 L 306.67172,515.21932 L 310.58998,515.21932 C 324.14766,515.21932 334.12601,532.4882 328.98609,547.05628 C 327.02996,552.60054 323.86496,556.66937 319.80954,558.85335 C 315.92788,560.94377 315.93432,560.89796 317.92857,572.21932 C 318.75207,576.89432 319.41905,582.51932 319.41075,584.71932 C 319.36441,597.01017 305.73161,604.71756 293.69923,599.2555 z M 312.02148,558.95974 C 312.28597,558.69526 311.05978,551.44546 309.29662,542.84909 C 307.14576,532.36247 305.66429,527.21932 304.79452,527.21932 C 304.08152,527.21932 301.92145,528.6037 299.99435,530.29571 C 293.98437,535.57254 294.22282,543.34408 300.55828,548.67501 C 303.82667,551.42518 304.22742,552.44475 301.67857,551.52521 C 294.46223,548.9218 289.87739,541.52101 290.77671,533.92761 C 291.4966,527.84928 295.44836,520.90312 299.54361,518.51771 C 302.62034,516.72555 302.62878,516.69679 301.97751,510.21932 C 301.61806,506.64432 300.97503,503.36935 300.54855,502.9416 C 299.3675,501.75705 290.91313,509.68075 285.99859,516.57826 C 280.42033,524.40731 277.97078,531.70622 278.74049,538.20522 C 280.34544,551.75647 291.23431,560.63672 305.23458,559.81207 C 308.70289,559.60778 311.75699,559.22423 312.02148,558.95974 z M 322.81483,550.21198 C 325.80373,542.74199 324.28628,535.05759 318.88594,530.31604 C 315.5322,527.37142 310.89824,525.41632 309.82245,526.4921 C 309.54032,526.77424 310.68627,533.8635 312.36902,542.24601 C 314.05177,550.62852 315.42857,557.68237 315.42857,557.92122 C 315.42857,558.16008 316.72739,557.43067 318.31483,556.30031 C 319.90227,555.16995 321.92727,552.4302 322.81483,550.21198 z M 304.9704,479.46932 C 313.0887,470.61907 317.52382,457.06603 314.04109,451.75071 C 309.17103,444.31805 300.13099,454.89144 298.75469,469.62994 C 298.10127,476.62723 298.95997,483.21932 300.52487,483.21932 C 301.07798,483.21932 303.07847,481.53182 304.9704,479.46932 z "
         id="path2221" />
    </g>
  </g>
</svg>
