<?xml version="1.0" encoding="UTF-8" standalone="no"?>
<!-- Created with Inkscape (http://www.inkscape.org/) -->
<svg
   xmlns:dc="http://purl.org/dc/elements/1.1/"
   xmlns:cc="http://creativecommons.org/ns#"
   xmlns:rdf="http://www.w3.org/1999/02/22-rdf-syntax-ns#"
   xmlns:svg="http://www.w3.org/2000/svg"
   xmlns="http://www.w3.org/2000/svg"
   xmlns:xlink="http://www.w3.org/1999/xlink"
   xmlns:sodipodi="http://sodipodi.sourceforge.net/DTD/sodipodi-0.dtd"
   xmlns:inkscape="http://www.inkscape.org/namespaces/inkscape"
   version="1.0"
   width="1000"
   height="230"
   id="svg3465"
   sodipodi:version="0.32"
   inkscape:version="0.46"
   sodipodi:docname="sing_bg_bottom.svg"
   sodipodi:docbase="/root/USNG/trunk/themes/lima"
   inkscape:output_extension="org.inkscape.output.svg.inkscape">
  <metadata
     id="metadata30">
    <rdf:RDF>
      <cc:Work
         rdf:about="">
        <dc:format>image/svg+xml</dc:format>
        <dc:type
           rdf:resource="http://purl.org/dc/dcmitype/StillImage" />
      </cc:Work>
    </rdf:RDF>
  </metadata>
  <sodipodi:namedview
     inkscape:cy="115"
     inkscape:cx="434.23317"
     inkscape:zoom="0.30370236"
     inkscape:window-height="726"
     inkscape:window-width="960"
     inkscape:pageshadow="2"
     inkscape:pageopacity="0.0"
     guidetolerance="10.0"
     gridtolerance="10.0"
     objecttolerance="10.0"
     borderopacity="1.0"
     bordercolor="#666666"
     pagecolor="#ffffff"
     id="base"
     inkscape:window-x="21"
     inkscape:window-y="92"
     inkscape:current-layer="svg3465"
     showgrid="false">
    <inkscape:grid
       type="xygrid"
       id="grid2419"
       visible="true"
       enabled="true" />
  </sodipodi:namedview>
  <defs
     id="defs3467">
    <linearGradient
       id="linearGradient6239">
      <stop
         style="stop-color:#414141;stop-opacity:1;"
         offset="0"
         id="stop6241" />
      <stop
         style="stop-color:#151515;stop-opacity:1;"
         offset="1"
         id="stop6243" />
    </linearGradient>
    <inkscape:perspective
       sodipodi:type="inkscape:persp3d"
       inkscape:vp_x="0 : 400 : 1"
       inkscape:vp_y="0 : 1000 : 0"
       inkscape:vp_z="1000 : 400 : 1"
       inkscape:persp3d-origin="500 : 266.66667 : 1"
       id="perspective57" />
    <linearGradient
       id="linearGradient3667">
      <stop
         style="stop-color:#000000;stop-opacity:1;"
         offset="0"
         id="stop3669" />
      <stop
         style="stop-color:#000000;stop-opacity:0;"
         offset="1"
         id="stop3671" />
    </linearGradient>
    <linearGradient
       inkscape:collect="always"
       xlink:href="#linearGradient3667"
       id="linearGradient2549"
       gradientUnits="userSpaceOnUse"
       gradientTransform="matrix(1.2504205,0,0,1.1424679,-3.6234642e-2,-3.1313995)"
       x1="365.07416"
       y1="121.63737"
       x2="365.07416"
       y2="151.1951" />
    <linearGradient
       inkscape:collect="always"
       xlink:href="#linearGradient3667"
       id="linearGradient5768"
       x1="551.00964"
       y1="660.33606"
       x2="551.00964"
       y2="605.34015"
       gradientUnits="userSpaceOnUse"
       gradientTransform="matrix(1.0140491,0,0,0.8428048,-5.1350533,117.20059)" />
    <linearGradient
       inkscape:collect="always"
       xlink:href="#linearGradient3667"
       id="linearGradient3212"
       gradientUnits="userSpaceOnUse"
       gradientTransform="matrix(1.25042,0,0,1.5212915,-9.8590088e-8,-230.00001)"
       x1="367.8764"
       y1="131.46725"
       x2="367.8764"
       y2="151.18733" />
    <radialGradient
       inkscape:collect="always"
       xlink:href="#linearGradient6239"
       id="radialGradient6281"
       cx="-52.682827"
       cy="22.638672"
       fx="-52.682827"
       fy="22.638672"
       r="139.13554"
       gradientTransform="matrix(0.5485002,4.7588748e-2,-3.8008734e-2,0.486111,-22.925821,11.758401)"
       gradientUnits="userSpaceOnUse"
       spreadMethod="reflect" />
    <radialGradient
       inkscape:collect="always"
       xlink:href="#linearGradient6239"
       id="radialGradient6283"
       cx="54.552696"
       cy="61.81908"
       fx="54.552696"
       fy="61.81908"
       r="85.972984"
       gradientTransform="matrix(0.8491493,-0.5169578,0.3359319,0.5286533,-12.537687,75.354409)"
       gradientUnits="userSpaceOnUse"
       spreadMethod="reflect" />
    <radialGradient
       inkscape:collect="always"
       xlink:href="#linearGradient6239"
       id="radialGradient6285"
       cx="-108.65945"
       cy="46.669819"
       fx="-108.65945"
       fy="46.669819"
       r="85.972984"
       gradientTransform="matrix(1,0,0,1.2958795,0,-0.2762501)"
       gradientUnits="userSpaceOnUse"
       spreadMethod="reflect" />
    <radialGradient
       inkscape:collect="always"
       xlink:href="#linearGradient6239"
       id="radialGradient6287"
       cx="-0.00043312719"
       cy="0.93365741"
       fx="-0.00043312719"
       fy="0.93365741"
       r="85.972984"
       gradientTransform="matrix(0.7054225,-0.6154847,1,0.8642415,-0.933785,0.1264853)"
       gradientUnits="userSpaceOnUse"
       spreadMethod="reflect" />
    <radialGradient
       inkscape:collect="always"
       xlink:href="#linearGradient6239"
       id="radialGradient6289"
       cx="-55.975525"
       cy="110.75415"
       fx="-55.975525"
       fy="110.75415"
       r="139.13554"
       gradientTransform="matrix(0.4023117,1.7847586e-8,-2.8882931e-8,0.8902338,-33.455913,0.1024879)"
       gradientUnits="userSpaceOnUse"
       spreadMethod="reflect" />
    <radialGradient
       inkscape:collect="always"
       xlink:href="#linearGradient6239"
       id="radialGradient6291"
       cx="-84.775795"
       cy="102.82321"
       fx="-84.775795"
       fy="102.82321"
       r="139.13554"
       gradientTransform="matrix(0.609306,0,-1.7525848e-8,0.8902338,-33.121388,0.102488)"
       gradientUnits="userSpaceOnUse"
       spreadMethod="reflect" />
    <radialGradient
       inkscape:collect="always"
       xlink:href="#linearGradient6239"
       id="radialGradient6293"
       cx="121.82938"
       cy="29.891867"
       fx="121.82938"
       fy="29.891867"
       r="85.972984"
       gradientTransform="matrix(1,0,0,1.2958795,0,-0.2762501)"
       gradientUnits="userSpaceOnUse"
       spreadMethod="reflect" />
    <radialGradient
       inkscape:collect="always"
       xlink:href="#linearGradient6239"
       id="radialGradient6295"
       cx="-54.119453"
       cy="-33.586506"
       fx="-54.119453"
       fy="-33.586506"
       r="85.972984"
       gradientTransform="matrix(1,0,0,1.2958795,0,-0.2762501)"
       gradientUnits="userSpaceOnUse"
       spreadMethod="reflect" />
    <radialGradient
       inkscape:collect="always"
       xlink:href="#linearGradient6239"
       id="radialGradient6297"
       cx="73.08477"
       cy="-64.148376"
       fx="73.08477"
       fy="-64.148376"
       r="139.13554"
       gradientTransform="matrix(1.2783381,0.4169453,-0.272318,0.846931,-30.398528,-33.221331)"
       gradientUnits="userSpaceOnUse"
       spreadMethod="reflect" />
    <filter
       inkscape:collect="always"
       id="filter6415">
      <feGaussianBlur
         inkscape:collect="always"
         stdDeviation="5.5378501"
         id="feGaussianBlur6417" />
    </filter>
    <filter
       inkscape:collect="always"
       id="filter6435">
      <feGaussianBlur
         inkscape:collect="always"
         stdDeviation="5.8924159"
         id="feGaussianBlur6437" />
    </filter>
    <filter
       inkscape:collect="always"
       id="filter6439">
      <feGaussianBlur
         inkscape:collect="always"
         stdDeviation="6.8900544"
         id="feGaussianBlur6441" />
    </filter>
    <radialGradient
       inkscape:collect="always"
       xlink:href="#linearGradient6239"
       id="radialGradient6443"
       gradientUnits="userSpaceOnUse"
       gradientTransform="matrix(1,0,0,0.8902338,0,0.1024869)"
       spreadMethod="reflect"
       cx="0.00033175375"
       cy="0.93368369"
       fx="0.00033175375"
       fy="0.93368369"
       r="139.13554" />
    <radialGradient
       inkscape:collect="always"
       xlink:href="#linearGradient6239"
       id="radialGradient6445"
       gradientUnits="userSpaceOnUse"
       gradientTransform="matrix(1,0,0,0.8902338,0,0.1024869)"
       spreadMethod="reflect"
       cx="0.00033175375"
       cy="0.93368369"
       fx="0.00033175375"
       fy="0.93368369"
       r="139.13554" />
    <radialGradient
       inkscape:collect="always"
       xlink:href="#linearGradient6239"
       id="radialGradient6447"
       gradientUnits="userSpaceOnUse"
       gradientTransform="matrix(1,0,0,1.2958795,0,-0.2762501)"
       spreadMethod="reflect"
       cx="-0.00043312719"
       cy="0.93365741"
       fx="-0.00043312719"
       fy="0.93365741"
       r="85.972984" />
    <radialGradient
       inkscape:collect="always"
       xlink:href="#linearGradient6239"
       id="radialGradient6449"
       gradientUnits="userSpaceOnUse"
       gradientTransform="matrix(1,0,0,1.2958795,0,-0.2762501)"
       spreadMethod="reflect"
       cx="-0.00043312719"
       cy="0.93365741"
       fx="-0.00043312719"
       fy="0.93365741"
       r="85.972984" />
    <radialGradient
       inkscape:collect="always"
       xlink:href="#linearGradient6239"
       id="radialGradient6451"
       gradientUnits="userSpaceOnUse"
       gradientTransform="matrix(1,0,0,1.2958795,0,-0.2762501)"
       spreadMethod="reflect"
       cx="-0.00043312719"
       cy="0.93365741"
       fx="-0.00043312719"
       fy="0.93365741"
       r="85.972984" />
    <radialGradient
       inkscape:collect="always"
       xlink:href="#linearGradient6239"
       id="radialGradient6453"
       gradientUnits="userSpaceOnUse"
       gradientTransform="matrix(1,0,0,1.2958795,0,-0.2762501)"
       spreadMethod="reflect"
       cx="-0.00043312719"
       cy="0.93365741"
       fx="-0.00043312719"
       fy="0.93365741"
       r="85.972984" />
    <radialGradient
       inkscape:collect="always"
       xlink:href="#linearGradient6239"
       id="radialGradient6455"
       gradientUnits="userSpaceOnUse"
       gradientTransform="matrix(1,0,0,1.2958795,0,-0.2762501)"
       spreadMethod="reflect"
       cx="-0.00043312719"
       cy="0.93365741"
       fx="-0.00043312719"
       fy="0.93365741"
       r="85.972984" />
    <radialGradient
       inkscape:collect="always"
       xlink:href="#linearGradient6239"
       id="radialGradient6457"
       gradientUnits="userSpaceOnUse"
       gradientTransform="matrix(1,0,0,1.2958795,0,-0.2762501)"
       spreadMethod="reflect"
       cx="-0.00043312719"
       cy="0.93365741"
       fx="-0.00043312719"
       fy="0.93365741"
       r="85.972984" />
    <radialGradient
       inkscape:collect="always"
       xlink:href="#linearGradient6239"
       id="radialGradient6459"
       gradientUnits="userSpaceOnUse"
       gradientTransform="matrix(1,0,0,0.8902338,0,0.1024869)"
       spreadMethod="reflect"
       cx="0.00033175375"
       cy="0.93368369"
       fx="0.00033175375"
       fy="0.93368369"
       r="139.13554" />
    <radialGradient
       inkscape:collect="always"
       xlink:href="#linearGradient6239"
       id="radialGradient6461"
       gradientUnits="userSpaceOnUse"
       gradientTransform="matrix(1,0,0,0.8902338,0,0.1024869)"
       spreadMethod="reflect"
       cx="0.00033175375"
       cy="0.93368369"
       fx="0.00033175375"
       fy="0.93368369"
       r="139.13554" />
    <radialGradient
       inkscape:collect="always"
       xlink:href="#linearGradient6239"
       id="radialGradient6463"
       gradientUnits="userSpaceOnUse"
       gradientTransform="matrix(1,0,0,0.8902338,0,0.1024869)"
       spreadMethod="reflect"
       cx="0.00033175375"
       cy="0.93368369"
       fx="0.00033175375"
       fy="0.93368369"
       r="139.13554" />
    <radialGradient
       inkscape:collect="always"
       xlink:href="#linearGradient6239"
       id="radialGradient6465"
       gradientUnits="userSpaceOnUse"
       gradientTransform="matrix(1,0,0,0.8902338,0,0.1024869)"
       spreadMethod="reflect"
       cx="0.00033175375"
       cy="0.93368369"
       fx="0.00033175375"
       fy="0.93368369"
       r="139.13554" />
    <radialGradient
       inkscape:collect="always"
       xlink:href="#linearGradient6239"
       id="radialGradient6467"
       gradientUnits="userSpaceOnUse"
       gradientTransform="matrix(1,0,0,1.2958795,0,-0.2762501)"
       spreadMethod="reflect"
       cx="-0.00043312719"
       cy="0.93365741"
       fx="-0.00043312719"
       fy="0.93365741"
       r="85.972984" />
    <radialGradient
       inkscape:collect="always"
       xlink:href="#linearGradient6239"
       id="radialGradient6469"
       gradientUnits="userSpaceOnUse"
       gradientTransform="matrix(1,0,0,1.2958795,0,-0.2762501)"
       spreadMethod="reflect"
       cx="-0.00043312719"
       cy="0.93365741"
       fx="-0.00043312719"
       fy="0.93365741"
       r="85.972984" />
    <radialGradient
       inkscape:collect="always"
       xlink:href="#linearGradient6239"
       id="radialGradient6471"
       gradientUnits="userSpaceOnUse"
       gradientTransform="matrix(1,0,0,1.2958795,0,-0.2762501)"
       spreadMethod="reflect"
       cx="-0.00043312719"
       cy="0.93365741"
       fx="-0.00043312719"
       fy="0.93365741"
       r="85.972984" />
    <radialGradient
       inkscape:collect="always"
       xlink:href="#linearGradient6239"
       id="radialGradient6473"
       gradientUnits="userSpaceOnUse"
       gradientTransform="matrix(1,0,0,1.2958795,0,-0.2762501)"
       spreadMethod="reflect"
       cx="-0.00043312719"
       cy="0.93365741"
       fx="-0.00043312719"
       fy="0.93365741"
       r="85.972984" />
    <radialGradient
       inkscape:collect="always"
       xlink:href="#linearGradient6239"
       id="radialGradient6475"
       gradientUnits="userSpaceOnUse"
       gradientTransform="matrix(1,0,0,0.8902338,0,0.1024869)"
       spreadMethod="reflect"
       cx="0.00033175375"
       cy="0.93368369"
       fx="0.00033175375"
       fy="0.93368369"
       r="139.13554" />
    <radialGradient
       inkscape:collect="always"
       xlink:href="#linearGradient6239"
       id="radialGradient6477"
       gradientUnits="userSpaceOnUse"
       gradientTransform="matrix(1,0,0,0.8902338,0,0.1024869)"
       spreadMethod="reflect"
       cx="0.00033175375"
       cy="0.93368369"
       fx="0.00033175375"
       fy="0.93368369"
       r="139.13554" />
    <filter
       inkscape:collect="always"
       id="filter6529">
      <feGaussianBlur
         inkscape:collect="always"
         stdDeviation="4.8307749"
         id="feGaussianBlur6531" />
    </filter>
    <filter
       inkscape:collect="always"
       id="filter6557">
      <feGaussianBlur
         inkscape:collect="always"
         stdDeviation="6.374635"
         id="feGaussianBlur6559" />
    </filter>
    <filter
       inkscape:collect="always"
       id="filter6593">
      <feGaussianBlur
         inkscape:collect="always"
         stdDeviation="3.9535839"
         id="feGaussianBlur6595" />
    </filter>
    <filter
       inkscape:collect="always"
       id="filter6609">
      <feGaussianBlur
         inkscape:collect="always"
         stdDeviation="3.7116756"
         id="feGaussianBlur6611" />
    </filter>
    <filter
       inkscape:collect="always"
       id="filter6693">
      <feGaussianBlur
         inkscape:collect="always"
         stdDeviation="4.3837536"
         id="feGaussianBlur6695" />
    </filter>
    <filter
       inkscape:collect="always"
       id="filter6781">
      <feGaussianBlur
         inkscape:collect="always"
         stdDeviation="5.8770044"
         id="feGaussianBlur6783" />
    </filter>
  </defs>
  <rect
     id="rect3210"
     style="fill:url(#linearGradient3212);fill-opacity:1;fill-rule:nonzero;stroke:none;stroke-width:17;stroke-linecap:butt;stroke-linejoin:round;stroke-miterlimit:4;stroke-dasharray:none;stroke-opacity:1"
     y="-230"
     x="0"
     height="230"
     width="1000.336"
     transform="scale(1,-1)" />
  <g
     id="layer1"
     inkscape:label="Layer 1"
     transform="matrix(0.8066215,0,0,0.8008797,451.66415,145.2047)"
     style="fill:url(#radialGradient6297);fill-opacity:1;filter:url(#filter6439)">
    <g
       inkscape:export-ydpi="90"
       inkscape:export-xdpi="90"
       inkscape:export-filename="H:\new\rect2273.png"
       style="fill:url(#radialGradient6477);fill-opacity:1.0"
       transform="matrix(0.7844778,0,0,0.7844778,-1023.124,-443.46103)"
       id="yleiso1">
      <path
         sodipodi:nodetypes="ccccccccccccccccccccccccccccccccccccsscccccccccccccccccccccccccc"
         id="path2504"
         d="M 1181.224,723.79257 C 1199.0901,718.60987 1185.0396,697.72457 1187.3691,684.83127 C 1184.688,666.26335 1171.3704,651.43231 1166.9813,633.26001 C 1160.1207,617.38632 1158.849,599.92929 1153.3602,583.77252 C 1148.7636,571.05526 1143.9694,558.30454 1136.8115,547.14829 C 1128.5489,534.23416 1123.5923,519.2203 1129.3182,503.92685 C 1132.0217,485.7828 1137.0229,468.14408 1139.758,449.9947 C 1147.1751,438.85268 1133.8906,413.77294 1144.9766,408.88718 C 1142.6569,431.31121 1149.9781,411.49517 1156.9042,420.49538 C 1163.9095,414.90467 1162.3914,422.35289 1165.1341,424.4142 C 1171.0661,408.35972 1174.8698,420.56041 1167.9972,429.41733 C 1158.1154,441.97928 1151.3706,461.5574 1152.7012,478.30944 C 1151.2265,485.96869 1154.1129,504.61879 1156.3028,486.18395 C 1158.9392,478.09567 1160.2787,493.25406 1162.4626,493.72715 C 1149.4183,507.35899 1182.8488,491.53847 1169.1093,504.67272 C 1166.0703,513.41577 1149.4599,518.83806 1158.526,528.3426 C 1168.2568,540.01484 1174.4634,555.0484 1186.5999,564.4929 C 1190.7679,563.86303 1203.8036,554.27654 1201.5915,549.09252 C 1197.8442,536.68637 1191.1228,521.94383 1205.0553,510.09744 C 1216.4312,504.07671 1232.7978,494.0759 1243.5494,504.55673 C 1246.6613,520.95199 1254.265,537.76964 1250.3939,554.72426 C 1248.4661,561.95805 1240.3264,580.70989 1254.9838,573.2705 C 1271.4972,566.56068 1275.1832,552.0784 1276.7458,535.84879 C 1279.4894,520.74532 1287.8045,503.8597 1279.1376,489.28238 C 1273.8191,481.68486 1274.1639,470.71136 1281.5231,482.34879 C 1286.0476,477.77342 1287.1139,449.21899 1289.5758,468.75447 C 1291.0788,472.96237 1296.3003,457.53592 1296.8529,471.34617 C 1308.9366,483.16143 1297.2902,498.12169 1298.4281,512.20436 C 1298.4145,519.98988 1293.6444,543.41817 1305.982,528.27346 C 1317.9778,518.59866 1320.579,502.46967 1329.3504,490.31893 C 1337.7237,474.96976 1345.9566,457.63035 1345.2772,439.88738 C 1347.1841,429.39723 1338.239,408.68409 1351.9681,419.34584 C 1351.7099,408.58687 1372.1739,403.35257 1358.9283,415.91499 C 1352.3722,431.19226 1379.9442,395.69031 1370.6096,417.32897 C 1363.9548,422.72554 1365.2976,432.86515 1376.385,420.28147 C 1382.8759,422.22298 1366.3058,440.99887 1364.4973,449.02262 C 1353.2056,469.14576 1350.0496,492.5316 1342.1625,513.96454 C 1336.3527,529.75235 1328.4691,543.59904 1319.8074,557.94366 C 1310.2192,573.82279 1300.026,589.53545 1288.6205,604.10045 C 1279.6747,615.09562 1303.4822,605.24803 1309.6406,610.88682 C 1322.1586,603.01307 1339.0256,609.81366 1341.3848,624.79192 C 1349.9202,631.66381 1338.4258,651.99891 1346.2108,653.04492 C 1353.1707,644.68823 1376.9006,642.82214 1362.6019,629.38502 C 1357.722,615.77507 1349.112,596.42578 1365.5608,586.80732 C 1384.541,575.74506 1394.6894,599.25542 1400.1051,611.32032 C 1398.9907,617.63272 1389.1106,635.48514 1401.404,634.41192 C 1413.3743,639.52316 1418.5455,631.84517 1411.1806,621.42007 C 1405.5681,613.80634 1409.1866,605.72051 1413.6207,617.53459 C 1418.9418,625.96867 1410.3211,591.87473 1418.5981,610.56244 C 1419.8123,609.90142 1423.3305,600.47095 1423.688,611.9527 C 1425.0173,622.38725 1428.2675,619.37152 1430.9161,612.17672 C 1434.0491,621.97072 1430.2978,634.12309 1434.7731,643.22177 C 1449.9279,660.26567 1469.4341,673.70517 1481.0786,693.61147 C 1483.1005,704.21417 1478.731,717.48727 1471.0841,724.34877 C 1374.4648,724.20307 1277.8372,724.75587 1181.224,723.79257 z M 1455.1965,693.09877 C 1449.7389,685.43527 1439.2771,687.73167 1451.6474,693.45447 C 1452.1444,694.17817 1455.238,694.94177 1455.1965,693.09877 z M 1318.1514,671.71397 C 1326.34,655.59568 1302.2616,649.4392 1304.2731,633.07932 C 1303.9936,626.0403 1303.0497,612.64652 1295.8858,625.46256 C 1287.107,632.2499 1304.5643,642.48038 1298.2368,652.57004 C 1300.012,661.49008 1290.9202,673.70597 1306.224,672.69467 C 1310.013,673.91017 1315.3324,675.81437 1318.1514,671.71397 z"
         style="fill:url(#radialGradient6475);fill-opacity:1.0" />
    </g>
  </g>
  <g
     id="g2670"
     inkscape:label="Layer 1"
     transform="matrix(1,0,0,0.8832743,320.27471,120.95505)"
     style="fill:url(#radialGradient6295);fill-opacity:1;filter:url(#filter6435)">
    <g
       inkscape:export-ydpi="90"
       inkscape:export-xdpi="90"
       inkscape:export-filename="H:\new\rect2273.png"
       style="fill:url(#radialGradient6473);fill-opacity:1.0"
       transform="matrix(0.6938009,0,0,0.6938009,-870.0051,-393.95863)"
       id="yleiso2">
      <path
         sodipodi:nodetypes="cccccccccccccccccccccccccccssccc"
         id="path2270"
         d="M 1326.7136,723.79257 C 1308.8475,718.60987 1322.898,697.72457 1320.5685,684.83127 C 1323.2496,666.26335 1336.5672,651.43231 1340.9563,633.26001 C 1347.8169,617.38632 1347.0159,604.07478 1352.5047,587.91801 C 1361.2467,575.89167 1367.4228,568.66827 1371.1261,556.13019 C 1376.625,539.07057 1380.8907,527.51129 1375.1648,512.21784 C 1372.4613,494.07379 1367.4601,476.43507 1364.725,458.28569 C 1357.3079,447.14367 1370.5924,422.06393 1359.5064,417.17817 C 1361.8261,439.6022 1354.5049,419.78616 1347.5788,428.78637 C 1340.5735,423.19566 1342.0916,430.64388 1339.3489,432.70519 C 1333.4169,416.65071 1329.6132,428.8514 1336.4858,437.70832 C 1346.3676,450.27027 1353.1124,469.84839 1351.7818,486.60043 C 1355.3852,518.74824 1355.8198,515.10521 1345.957,536.63359 C 1336.2262,548.30583 1330.7105,562.64847 1318.574,572.09297 C 1314.406,571.4631 1283.4065,595.73147 1306.3461,549.09252 C 1310.0934,536.68637 1316.8148,521.94383 1302.8823,510.09744 C 1291.5064,504.07671 1275.1398,494.0759 1264.3882,504.55673 C 1261.2763,520.95199 1253.6726,537.76964 1257.5437,554.72426 C 1259.4715,561.95805 1267.6112,580.70989 1252.9538,573.2705 C 1230.0238,552.25689 1236.3043,558.74018 1201.9556,528.27346 C 1189.9598,518.59866 1187.3586,502.46967 1178.5872,490.31893 C 1170.2139,474.96976 1161.981,457.63035 1162.6604,439.88738 C 1160.7535,429.39723 1169.6986,408.68409 1155.9695,419.34584 C 1156.2277,408.58687 1135.7637,403.35257 1149.0093,415.91499 C 1155.5654,431.19226 1127.9934,395.69031 1137.328,417.32897 C 1143.9828,422.72554 1142.64,432.86515 1131.5526,420.28147 C 1125.0617,422.22298 1141.6318,440.99887 1143.4403,449.02262 C 1154.732,469.14576 1157.888,492.5316 1165.7751,513.96454 C 1171.5849,529.75235 1179.4685,543.59904 1188.1302,557.94366 C 1197.7184,573.82279 1207.9116,589.53545 1219.3171,604.10045 C 1230.9206,658.44183 1215.0079,686.0741 1203.8726,715.91823 C 1236.4598,732.80965 1210.5013,732.69947 1326.7136,723.79257 z"
         style="fill:url(#radialGradient6471);fill-opacity:1.0" />
    </g>
  </g>
  <g
     id="g2674"
     inkscape:label="Layer 1"
     transform="matrix(-1,0,0,0.8711992,487.08999,112.44614)"
     style="fill:url(#radialGradient6293);fill-opacity:1;filter:url(#filter6593)">
    <g
       inkscape:export-ydpi="90"
       inkscape:export-xdpi="90"
       inkscape:export-filename="H:\new\rect2273.png"
       style="fill:url(#radialGradient6469);fill-opacity:1.0"
       transform="matrix(0.6938009,0,0,0.6938009,-870.0051,-393.95863)"
       id="g2676">
      <path
         sodipodi:nodetypes="cccccccccccccccccccccccccccssccc"
         id="path2678"
         d="M 1326.7136,723.79257 C 1308.8475,718.60987 1322.898,697.72457 1320.5685,684.83127 C 1323.2496,666.26335 1336.5672,651.43231 1340.9563,633.26001 C 1347.8169,617.38632 1347.0159,604.07478 1352.5047,587.91801 C 1361.2467,575.89167 1367.4228,568.66827 1371.1261,556.13019 C 1376.625,539.07057 1380.8907,527.51129 1375.1648,512.21784 C 1372.4613,494.07379 1367.4601,476.43507 1364.725,458.28569 C 1357.3079,447.14367 1370.5924,422.06393 1359.5064,417.17817 C 1361.8261,439.6022 1354.5049,419.78616 1347.5788,428.78637 C 1340.5735,423.19566 1342.0916,430.64388 1339.3489,432.70519 C 1333.4169,416.65071 1329.6132,428.8514 1336.4858,437.70832 C 1346.3676,450.27027 1353.1124,469.84839 1351.7818,486.60043 C 1355.3852,518.74824 1355.8198,515.10521 1345.957,536.63359 C 1336.2262,548.30583 1330.7105,562.64847 1318.574,572.09297 C 1314.406,571.4631 1283.4065,595.73147 1306.3461,549.09252 C 1310.0934,536.68637 1316.8148,521.94383 1302.8823,510.09744 C 1291.5064,504.07671 1275.1398,494.0759 1264.3882,504.55673 C 1261.2763,520.95199 1253.6726,537.76964 1257.5437,554.72426 C 1259.4715,561.95805 1267.6112,580.70989 1252.9538,573.2705 C 1230.0238,552.25689 1236.3043,558.74018 1201.9556,528.27346 C 1189.9598,518.59866 1187.3586,502.46967 1178.5872,490.31893 C 1170.2139,474.96976 1161.981,457.63035 1162.6604,439.88738 C 1160.7535,429.39723 1169.6986,408.68409 1155.9695,419.34584 C 1156.2277,408.58687 1135.7637,403.35257 1149.0093,415.91499 C 1155.5654,431.19226 1127.9934,395.69031 1137.328,417.32897 C 1143.9828,422.72554 1142.64,432.86515 1131.5526,420.28147 C 1125.0617,422.22298 1141.6318,440.99887 1143.4403,449.02262 C 1154.732,469.14576 1157.888,492.5316 1165.7751,513.96454 C 1171.5849,529.75235 1179.4685,543.59904 1188.1302,557.94366 C 1197.7184,573.82279 1207.9116,589.53545 1219.3171,604.10045 C 1230.9206,658.44183 1215.0079,686.0741 1203.8726,715.91823 C 1236.4598,732.80965 1210.5013,732.69947 1326.7136,723.79257 z"
         style="fill:url(#radialGradient6467);fill-opacity:1.0" />
    </g>
  </g>
  <g
     id="g2680"
     inkscape:label="Layer 1"
     transform="matrix(0.8624259,0,0,0.8624259,266.15497,141.15386)"
     style="fill:url(#radialGradient6291);fill-opacity:1;filter:url(#filter6609)">
    <g
       inkscape:export-ydpi="90"
       inkscape:export-xdpi="90"
       inkscape:export-filename="H:\new\rect2273.png"
       style="fill:url(#radialGradient6465);fill-opacity:1.0"
       transform="matrix(0.7844778,0,0,0.7844778,-1023.124,-443.46103)"
       id="g2682">
      <path
         sodipodi:nodetypes="ccccccccccccccccccccccccccccccccccccsscccccccccccccccccccccccccc"
         id="path2684"
         d="M 1181.224,723.79257 C 1199.0901,718.60987 1185.0396,697.72457 1187.3691,684.83127 C 1184.688,666.26335 1171.3704,651.43231 1166.9813,633.26001 C 1160.1207,617.38632 1158.849,599.92929 1153.3602,583.77252 C 1148.7636,571.05526 1143.9694,558.30454 1136.8115,547.14829 C 1128.5489,534.23416 1123.5923,519.2203 1129.3182,503.92685 C 1132.0217,485.7828 1137.0229,468.14408 1139.758,449.9947 C 1147.1751,438.85268 1133.8906,413.77294 1144.9766,408.88718 C 1142.6569,431.31121 1149.9781,411.49517 1156.9042,420.49538 C 1163.9095,414.90467 1162.3914,422.35289 1165.1341,424.4142 C 1171.0661,408.35972 1174.8698,420.56041 1167.9972,429.41733 C 1158.1154,441.97928 1151.3706,461.5574 1152.7012,478.30944 C 1151.2265,485.96869 1154.1129,504.61879 1156.3028,486.18395 C 1158.9392,478.09567 1160.2787,493.25406 1162.4626,493.72715 C 1149.4183,507.35899 1182.8488,491.53847 1169.1093,504.67272 C 1166.0703,513.41577 1149.4599,518.83806 1158.526,528.3426 C 1168.2568,540.01484 1174.4634,555.0484 1186.5999,564.4929 C 1190.7679,563.86303 1203.8036,554.27654 1201.5915,549.09252 C 1197.8442,536.68637 1191.1228,521.94383 1205.0553,510.09744 C 1216.4312,504.07671 1232.7978,494.0759 1243.5494,504.55673 C 1246.6613,520.95199 1254.265,537.76964 1250.3939,554.72426 C 1248.4661,561.95805 1240.3264,580.70989 1254.9838,573.2705 C 1271.4972,566.56068 1275.1832,552.0784 1276.7458,535.84879 C 1279.4894,520.74532 1287.8045,503.8597 1279.1376,489.28238 C 1273.8191,481.68486 1274.1639,470.71136 1281.5231,482.34879 C 1286.0476,477.77342 1287.1139,449.21899 1289.5758,468.75447 C 1291.0788,472.96237 1296.3003,457.53592 1296.8529,471.34617 C 1308.9366,483.16143 1297.2902,498.12169 1298.4281,512.20436 C 1298.4145,519.98988 1293.6444,543.41817 1305.982,528.27346 C 1317.9778,518.59866 1320.579,502.46967 1329.3504,490.31893 C 1337.7237,474.96976 1345.9566,457.63035 1345.2772,439.88738 C 1347.1841,429.39723 1338.239,408.68409 1351.9681,419.34584 C 1351.7099,408.58687 1372.1739,403.35257 1358.9283,415.91499 C 1352.3722,431.19226 1379.9442,395.69031 1370.6096,417.32897 C 1363.9548,422.72554 1365.2976,432.86515 1376.385,420.28147 C 1382.8759,422.22298 1366.3058,440.99887 1364.4973,449.02262 C 1353.2056,469.14576 1350.0496,492.5316 1342.1625,513.96454 C 1336.3527,529.75235 1328.4691,543.59904 1319.8074,557.94366 C 1310.2192,573.82279 1300.026,589.53545 1288.6205,604.10045 C 1279.6747,615.09562 1303.4822,605.24803 1309.6406,610.88682 C 1322.1586,603.01307 1339.0256,609.81366 1341.3848,624.79192 C 1349.9202,631.66381 1338.4258,651.99891 1346.2108,653.04492 C 1353.1707,644.68823 1376.9006,642.82214 1362.6019,629.38502 C 1357.722,615.77507 1349.112,596.42578 1365.5608,586.80732 C 1384.541,575.74506 1394.6894,599.25542 1400.1051,611.32032 C 1398.9907,617.63272 1389.1106,635.48514 1401.404,634.41192 C 1413.3743,639.52316 1418.5455,631.84517 1411.1806,621.42007 C 1405.5681,613.80634 1409.1866,605.72051 1413.6207,617.53459 C 1418.9418,625.96867 1410.3211,591.87473 1418.5981,610.56244 C 1419.8123,609.90142 1423.3305,600.47095 1423.688,611.9527 C 1425.0173,622.38725 1428.2675,619.37152 1430.9161,612.17672 C 1434.0491,621.97072 1430.2978,634.12309 1434.7731,643.22177 C 1449.9279,660.26567 1469.4341,673.70517 1481.0786,693.61147 C 1483.1005,704.21417 1478.731,717.48727 1471.0841,724.34877 C 1374.4648,724.20307 1277.8372,724.75587 1181.224,723.79257 z M 1455.1965,693.09877 C 1449.7389,685.43527 1439.2771,687.73167 1451.6474,693.45447 C 1452.1444,694.17817 1455.238,694.94177 1455.1965,693.09877 z M 1318.1514,671.71397 C 1326.34,655.59568 1302.2616,649.4392 1304.2731,633.07932 C 1303.9936,626.0403 1303.0497,612.64652 1295.8858,625.46256 C 1287.107,632.2499 1304.5643,642.48038 1298.2368,652.57004 C 1300.012,661.49008 1290.9202,673.70597 1306.224,672.69467 C 1310.013,673.91017 1315.3324,675.81437 1318.1514,671.71397 z"
         style="fill:url(#radialGradient6463);fill-opacity:1.0" />
    </g>
  </g>
  <g
     id="g2686"
     inkscape:label="Layer 1"
     transform="matrix(1,0,0,0.8551852,53.906246,135.77945)"
     style="fill:url(#radialGradient6289);fill-opacity:1;filter:url(#filter6781)">
    <g
       inkscape:export-ydpi="90"
       inkscape:export-xdpi="90"
       inkscape:export-filename="H:\new\rect2273.png"
       style="fill:url(#radialGradient6461);fill-opacity:1.0"
       transform="matrix(0.7844778,0,0,0.7844778,-1023.124,-443.46103)"
       id="g2688">
      <path
         sodipodi:nodetypes="ccccccccccccccccccccccccccccccccccccsscccccccccccccccccccccccccc"
         id="path2690"
         d="M 1181.224,723.79257 C 1199.0901,718.60987 1185.0396,697.72457 1187.3691,684.83127 C 1184.688,666.26335 1171.3704,651.43231 1166.9813,633.26001 C 1160.1207,617.38632 1158.849,599.92929 1153.3602,583.77252 C 1148.7636,571.05526 1143.9694,558.30454 1136.8115,547.14829 C 1128.5489,534.23416 1123.5923,519.2203 1129.3182,503.92685 C 1132.0217,485.7828 1137.0229,468.14408 1139.758,449.9947 C 1147.1751,438.85268 1133.8906,413.77294 1144.9766,408.88718 C 1142.6569,431.31121 1149.9781,411.49517 1156.9042,420.49538 C 1163.9095,414.90467 1162.3914,422.35289 1165.1341,424.4142 C 1171.0661,408.35972 1174.8698,420.56041 1167.9972,429.41733 C 1158.1154,441.97928 1151.3706,461.5574 1152.7012,478.30944 C 1151.2265,485.96869 1154.1129,504.61879 1156.3028,486.18395 C 1158.9392,478.09567 1160.2787,493.25406 1162.4626,493.72715 C 1149.4183,507.35899 1182.8488,491.53847 1169.1093,504.67272 C 1166.0703,513.41577 1149.4599,518.83806 1158.526,528.3426 C 1168.2568,540.01484 1174.4634,555.0484 1186.5999,564.4929 C 1190.7679,563.86303 1203.8036,554.27654 1201.5915,549.09252 C 1197.8442,536.68637 1191.1228,521.94383 1205.0553,510.09744 C 1216.4312,504.07671 1232.7978,494.0759 1243.5494,504.55673 C 1246.6613,520.95199 1254.265,537.76964 1250.3939,554.72426 C 1248.4661,561.95805 1240.3264,580.70989 1254.9838,573.2705 C 1271.4972,566.56068 1275.1832,552.0784 1276.7458,535.84879 C 1279.4894,520.74532 1287.8045,503.8597 1279.1376,489.28238 C 1273.8191,481.68486 1274.1639,470.71136 1281.5231,482.34879 C 1286.0476,477.77342 1287.1139,449.21899 1289.5758,468.75447 C 1291.0788,472.96237 1296.3003,457.53592 1296.8529,471.34617 C 1308.9366,483.16143 1297.2902,498.12169 1298.4281,512.20436 C 1298.4145,519.98988 1293.6444,543.41817 1305.982,528.27346 C 1317.9778,518.59866 1320.579,502.46967 1329.3504,490.31893 C 1337.7237,474.96976 1345.9566,457.63035 1345.2772,439.88738 C 1347.1841,429.39723 1338.239,408.68409 1351.9681,419.34584 C 1351.7099,408.58687 1372.1739,403.35257 1358.9283,415.91499 C 1352.3722,431.19226 1379.9442,395.69031 1370.6096,417.32897 C 1363.9548,422.72554 1365.2976,432.86515 1376.385,420.28147 C 1382.8759,422.22298 1366.3058,440.99887 1364.4973,449.02262 C 1353.2056,469.14576 1350.0496,492.5316 1342.1625,513.96454 C 1336.3527,529.75235 1328.4691,543.59904 1319.8074,557.94366 C 1310.2192,573.82279 1300.026,589.53545 1288.6205,604.10045 C 1279.6747,615.09562 1303.4822,605.24803 1309.6406,610.88682 C 1322.1586,603.01307 1339.0256,609.81366 1341.3848,624.79192 C 1349.9202,631.66381 1338.4258,651.99891 1346.2108,653.04492 C 1353.1707,644.68823 1376.9006,642.82214 1362.6019,629.38502 C 1357.722,615.77507 1349.112,596.42578 1365.5608,586.80732 C 1384.541,575.74506 1394.6894,599.25542 1400.1051,611.32032 C 1398.9907,617.63272 1389.1106,635.48514 1401.404,634.41192 C 1413.3743,639.52316 1418.5455,631.84517 1411.1806,621.42007 C 1405.5681,613.80634 1409.1866,605.72051 1413.6207,617.53459 C 1418.9418,625.96867 1410.3211,591.87473 1418.5981,610.56244 C 1419.8123,609.90142 1423.3305,600.47095 1423.688,611.9527 C 1425.0173,622.38725 1428.2675,619.37152 1430.9161,612.17672 C 1434.0491,621.97072 1430.2978,634.12309 1434.7731,643.22177 C 1449.9279,660.26567 1469.4341,673.70517 1481.0786,693.61147 C 1483.1005,704.21417 1478.731,717.48727 1471.0841,724.34877 C 1374.4648,724.20307 1277.8372,724.75587 1181.224,723.79257 z M 1455.1965,693.09877 C 1449.7389,685.43527 1439.2771,687.73167 1451.6474,693.45447 C 1452.1444,694.17817 1455.238,694.94177 1455.1965,693.09877 z M 1318.1514,671.71397 C 1326.34,655.59568 1302.2616,649.4392 1304.2731,633.07932 C 1303.9936,626.0403 1303.0497,612.64652 1295.8858,625.46256 C 1287.107,632.2499 1304.5643,642.48038 1298.2368,652.57004 C 1300.012,661.49008 1290.9202,673.70597 1306.224,672.69467 C 1310.013,673.91017 1315.3324,675.81437 1318.1514,671.71397 z"
         style="fill:url(#radialGradient6459);fill-opacity:1.0" />
    </g>
  </g>
  <g
     id="g2692"
     inkscape:label="Layer 1"
     transform="matrix(-0.7704983,0,0,0.8872993,563.32327,145.61496)"
     style="fill:url(#radialGradient6287);fill-opacity:1;filter:url(#filter6529)">
    <g
       inkscape:export-ydpi="90"
       inkscape:export-xdpi="90"
       inkscape:export-filename="H:\new\rect2273.png"
       style="fill:url(#radialGradient6457);fill-opacity:1.0"
       transform="matrix(0.6938009,0,0,0.6938009,-870.0051,-393.95863)"
       id="g2694">
      <path
         sodipodi:nodetypes="cccccccccccccccccccccccccccssccc"
         id="path2696"
         d="M 1326.7136,723.79257 C 1308.8475,718.60987 1322.898,697.72457 1320.5685,684.83127 C 1323.2496,666.26335 1336.5672,651.43231 1340.9563,633.26001 C 1347.8169,617.38632 1347.0159,604.07478 1352.5047,587.91801 C 1361.2467,575.89167 1367.4228,568.66827 1371.1261,556.13019 C 1376.625,539.07057 1380.8907,527.51129 1375.1648,512.21784 C 1372.4613,494.07379 1367.4601,476.43507 1364.725,458.28569 C 1357.3079,447.14367 1370.5924,422.06393 1359.5064,417.17817 C 1361.8261,439.6022 1354.5049,419.78616 1347.5788,428.78637 C 1340.5735,423.19566 1342.0916,430.64388 1339.3489,432.70519 C 1333.4169,416.65071 1329.6132,428.8514 1336.4858,437.70832 C 1346.3676,450.27027 1353.1124,469.84839 1351.7818,486.60043 C 1355.3852,518.74824 1355.8198,515.10521 1345.957,536.63359 C 1336.2262,548.30583 1330.7105,562.64847 1318.574,572.09297 C 1314.406,571.4631 1283.4065,595.73147 1306.3461,549.09252 C 1310.0934,536.68637 1316.8148,521.94383 1302.8823,510.09744 C 1291.5064,504.07671 1275.1398,494.0759 1264.3882,504.55673 C 1261.2763,520.95199 1253.6726,537.76964 1257.5437,554.72426 C 1259.4715,561.95805 1267.6112,580.70989 1252.9538,573.2705 C 1230.0238,552.25689 1236.3043,558.74018 1201.9556,528.27346 C 1189.9598,518.59866 1187.3586,502.46967 1178.5872,490.31893 C 1170.2139,474.96976 1161.981,457.63035 1162.6604,439.88738 C 1160.7535,429.39723 1169.6986,408.68409 1155.9695,419.34584 C 1156.2277,408.58687 1135.7637,403.35257 1149.0093,415.91499 C 1155.5654,431.19226 1127.9934,395.69031 1137.328,417.32897 C 1143.9828,422.72554 1142.64,432.86515 1131.5526,420.28147 C 1125.0617,422.22298 1141.6318,440.99887 1143.4403,449.02262 C 1154.732,469.14576 1157.888,492.5316 1165.7751,513.96454 C 1171.5849,529.75235 1179.4685,543.59904 1188.1302,557.94366 C 1197.7184,573.82279 1207.9116,589.53545 1219.3171,604.10045 C 1230.9206,658.44183 1215.0079,686.0741 1203.8726,715.91823 C 1236.4598,732.80965 1210.5013,732.69947 1326.7136,723.79257 z"
         style="fill:url(#radialGradient6455);fill-opacity:1.0" />
    </g>
  </g>
  <g
     id="g2698"
     inkscape:label="Layer 1"
     transform="matrix(-1,0,0,1,643.14381,132.95368)"
     style="fill:url(#radialGradient6285);fill-opacity:1;filter:url(#filter6415)">
    <g
       inkscape:export-ydpi="90"
       inkscape:export-xdpi="90"
       inkscape:export-filename="H:\new\rect2273.png"
       style="fill:url(#radialGradient6453);fill-opacity:1.0"
       transform="matrix(0.6938009,0,0,0.6938009,-870.0051,-393.95863)"
       id="g2700">
      <path
         sodipodi:nodetypes="cccccccccccccccccccccccccccssccc"
         id="path2702"
         d="M 1326.7136,723.79257 C 1308.8475,718.60987 1322.898,697.72457 1320.5685,684.83127 C 1323.2496,666.26335 1336.5672,651.43231 1340.9563,633.26001 C 1347.8169,617.38632 1347.0159,604.07478 1352.5047,587.91801 C 1361.2467,575.89167 1367.4228,568.66827 1371.1261,556.13019 C 1376.625,539.07057 1380.8907,527.51129 1375.1648,512.21784 C 1372.4613,494.07379 1367.4601,476.43507 1364.725,458.28569 C 1357.3079,447.14367 1370.5924,422.06393 1359.5064,417.17817 C 1361.8261,439.6022 1354.5049,419.78616 1347.5788,428.78637 C 1340.5735,423.19566 1342.0916,430.64388 1339.3489,432.70519 C 1333.4169,416.65071 1329.6132,428.8514 1336.4858,437.70832 C 1346.3676,450.27027 1353.1124,469.84839 1351.7818,486.60043 C 1355.3852,518.74824 1355.8198,515.10521 1345.957,536.63359 C 1336.2262,548.30583 1330.7105,562.64847 1318.574,572.09297 C 1314.406,571.4631 1283.4065,595.73147 1306.3461,549.09252 C 1310.0934,536.68637 1316.8148,521.94383 1302.8823,510.09744 C 1291.5064,504.07671 1275.1398,494.0759 1264.3882,504.55673 C 1261.2763,520.95199 1253.6726,537.76964 1257.5437,554.72426 C 1259.4715,561.95805 1267.6112,580.70989 1252.9538,573.2705 C 1230.0238,552.25689 1236.3043,558.74018 1201.9556,528.27346 C 1189.9598,518.59866 1187.3586,502.46967 1178.5872,490.31893 C 1170.2139,474.96976 1161.981,457.63035 1162.6604,439.88738 C 1160.7535,429.39723 1169.6986,408.68409 1155.9695,419.34584 C 1156.2277,408.58687 1135.7637,403.35257 1149.0093,415.91499 C 1155.5654,431.19226 1127.9934,395.69031 1137.328,417.32897 C 1143.9828,422.72554 1142.64,432.86515 1131.5526,420.28147 C 1125.0617,422.22298 1141.6318,440.99887 1143.4403,449.02262 C 1154.732,469.14576 1157.888,492.5316 1165.7751,513.96454 C 1171.5849,529.75235 1179.4685,543.59904 1188.1302,557.94366 C 1197.7184,573.82279 1207.9116,589.53545 1219.3171,604.10045 C 1230.9206,658.44183 1215.0079,686.0741 1203.8726,715.91823 C 1236.4598,732.80965 1210.5013,732.69947 1326.7136,723.79257 z"
         style="fill:url(#radialGradient6451);fill-opacity:1.0" />
    </g>
  </g>
  <g
     id="g2704"
     inkscape:label="Layer 1"
     transform="matrix(1.0260797,0,0,1.0483003,955.70074,136.49604)"
     style="fill:url(#radialGradient6283);fill-opacity:1;filter:url(#filter6693)">
    <g
       inkscape:export-ydpi="90"
       inkscape:export-xdpi="90"
       inkscape:export-filename="H:\new\rect2273.png"
       style="fill:url(#radialGradient6449);fill-opacity:1.0"
       transform="matrix(0.6938009,0,0,0.6938009,-870.0051,-393.95863)"
       id="g2706">
      <path
         sodipodi:nodetypes="cccccccccccccccccccccccccccssccc"
         id="path2708"
         d="M 1326.7136,723.79257 C 1308.8475,718.60987 1322.898,697.72457 1320.5685,684.83127 C 1323.2496,666.26335 1336.5672,651.43231 1340.9563,633.26001 C 1347.8169,617.38632 1347.0159,604.07478 1352.5047,587.91801 C 1361.2467,575.89167 1367.4228,568.66827 1371.1261,556.13019 C 1376.625,539.07057 1380.8907,527.51129 1375.1648,512.21784 C 1372.4613,494.07379 1367.4601,476.43507 1364.725,458.28569 C 1357.3079,447.14367 1370.5924,422.06393 1359.5064,417.17817 C 1361.8261,439.6022 1354.5049,419.78616 1347.5788,428.78637 C 1340.5735,423.19566 1342.0916,430.64388 1339.3489,432.70519 C 1333.4169,416.65071 1329.6132,428.8514 1336.4858,437.70832 C 1346.3676,450.27027 1353.1124,469.84839 1351.7818,486.60043 C 1355.3852,518.74824 1355.8198,515.10521 1345.957,536.63359 C 1336.2262,548.30583 1330.7105,562.64847 1318.574,572.09297 C 1314.406,571.4631 1283.4065,595.73147 1306.3461,549.09252 C 1310.0934,536.68637 1316.8148,521.94383 1302.8823,510.09744 C 1291.5064,504.07671 1275.1398,494.0759 1264.3882,504.55673 C 1261.2763,520.95199 1253.6726,537.76964 1257.5437,554.72426 C 1259.4715,561.95805 1267.6112,580.70989 1252.9538,573.2705 C 1230.0238,552.25689 1236.3043,558.74018 1201.9556,528.27346 C 1189.9598,518.59866 1187.3586,502.46967 1178.5872,490.31893 C 1170.2139,474.96976 1161.981,457.63035 1162.6604,439.88738 C 1160.7535,429.39723 1169.6986,408.68409 1155.9695,419.34584 C 1156.2277,408.58687 1135.7637,403.35257 1149.0093,415.91499 C 1155.5654,431.19226 1127.9934,395.69031 1137.328,417.32897 C 1143.9828,422.72554 1142.64,432.86515 1131.5526,420.28147 C 1125.0617,422.22298 1141.6318,440.99887 1143.4403,449.02262 C 1154.732,469.14576 1157.888,492.5316 1165.7751,513.96454 C 1171.5849,529.75235 1179.4685,543.59904 1188.1302,557.94366 C 1197.7184,573.82279 1207.9116,589.53545 1219.3171,604.10045 C 1230.9206,658.44183 1215.0079,686.0741 1203.8726,715.91823 C 1236.4598,732.80965 1210.5013,732.69947 1326.7136,723.79257 z"
         style="fill:url(#radialGradient6447);fill-opacity:1.0" />
    </g>
  </g>
  <g
     id="g2710"
     inkscape:label="Layer 1"
     transform="matrix(1,0,0,0.9493148,799.19772,126.72296)"
     style="fill:url(#radialGradient6281);fill-opacity:1;filter:url(#filter6557)">
    <g
       inkscape:export-ydpi="90"
       inkscape:export-xdpi="90"
       inkscape:export-filename="H:\new\rect2273.png"
       style="fill:url(#radialGradient6445);fill-opacity:1.0"
       transform="matrix(0.7844778,0,0,0.7844778,-1023.124,-443.46103)"
       id="g2712">
      <path
         sodipodi:nodetypes="ccccccccccccccccccccccccccccccccccccsscccccccccccccccccccccccccc"
         id="path2714"
         d="M 1181.224,723.79257 C 1199.0901,718.60987 1185.0396,697.72457 1187.3691,684.83127 C 1184.688,666.26335 1171.3704,651.43231 1166.9813,633.26001 C 1160.1207,617.38632 1158.849,599.92929 1153.3602,583.77252 C 1148.7636,571.05526 1143.9694,558.30454 1136.8115,547.14829 C 1128.5489,534.23416 1123.5923,519.2203 1129.3182,503.92685 C 1132.0217,485.7828 1137.0229,468.14408 1139.758,449.9947 C 1147.1751,438.85268 1133.8906,413.77294 1144.9766,408.88718 C 1142.6569,431.31121 1149.9781,411.49517 1156.9042,420.49538 C 1163.9095,414.90467 1162.3914,422.35289 1165.1341,424.4142 C 1171.0661,408.35972 1174.8698,420.56041 1167.9972,429.41733 C 1158.1154,441.97928 1151.3706,461.5574 1152.7012,478.30944 C 1151.2265,485.96869 1154.1129,504.61879 1156.3028,486.18395 C 1158.9392,478.09567 1160.2787,493.25406 1162.4626,493.72715 C 1149.4183,507.35899 1182.8488,491.53847 1169.1093,504.67272 C 1166.0703,513.41577 1149.4599,518.83806 1158.526,528.3426 C 1168.2568,540.01484 1174.4634,555.0484 1186.5999,564.4929 C 1190.7679,563.86303 1203.8036,554.27654 1201.5915,549.09252 C 1197.8442,536.68637 1191.1228,521.94383 1205.0553,510.09744 C 1216.4312,504.07671 1232.7978,494.0759 1243.5494,504.55673 C 1246.6613,520.95199 1254.265,537.76964 1250.3939,554.72426 C 1248.4661,561.95805 1240.3264,580.70989 1254.9838,573.2705 C 1271.4972,566.56068 1275.1832,552.0784 1276.7458,535.84879 C 1279.4894,520.74532 1287.8045,503.8597 1279.1376,489.28238 C 1273.8191,481.68486 1274.1639,470.71136 1281.5231,482.34879 C 1286.0476,477.77342 1287.1139,449.21899 1289.5758,468.75447 C 1291.0788,472.96237 1296.3003,457.53592 1296.8529,471.34617 C 1308.9366,483.16143 1297.2902,498.12169 1298.4281,512.20436 C 1298.4145,519.98988 1293.6444,543.41817 1305.982,528.27346 C 1317.9778,518.59866 1320.579,502.46967 1329.3504,490.31893 C 1337.7237,474.96976 1345.9566,457.63035 1345.2772,439.88738 C 1347.1841,429.39723 1338.239,408.68409 1351.9681,419.34584 C 1351.7099,408.58687 1372.1739,403.35257 1358.9283,415.91499 C 1352.3722,431.19226 1379.9442,395.69031 1370.6096,417.32897 C 1363.9548,422.72554 1365.2976,432.86515 1376.385,420.28147 C 1382.8759,422.22298 1366.3058,440.99887 1364.4973,449.02262 C 1353.2056,469.14576 1350.0496,492.5316 1342.1625,513.96454 C 1336.3527,529.75235 1328.4691,543.59904 1319.8074,557.94366 C 1310.2192,573.82279 1300.026,589.53545 1288.6205,604.10045 C 1279.6747,615.09562 1303.4822,605.24803 1309.6406,610.88682 C 1322.1586,603.01307 1339.0256,609.81366 1341.3848,624.79192 C 1349.9202,631.66381 1338.4258,651.99891 1346.2108,653.04492 C 1353.1707,644.68823 1376.9006,642.82214 1362.6019,629.38502 C 1357.722,615.77507 1349.112,596.42578 1365.5608,586.80732 C 1384.541,575.74506 1394.6894,599.25542 1400.1051,611.32032 C 1398.9907,617.63272 1389.1106,635.48514 1401.404,634.41192 C 1413.3743,639.52316 1418.5455,631.84517 1411.1806,621.42007 C 1405.5681,613.80634 1409.1866,605.72051 1413.6207,617.53459 C 1418.9418,625.96867 1410.3211,591.87473 1418.5981,610.56244 C 1419.8123,609.90142 1423.3305,600.47095 1423.688,611.9527 C 1425.0173,622.38725 1428.2675,619.37152 1430.9161,612.17672 C 1434.0491,621.97072 1430.2978,634.12309 1434.7731,643.22177 C 1449.9279,660.26567 1469.4341,673.70517 1481.0786,693.61147 C 1483.1005,704.21417 1478.731,717.48727 1471.0841,724.34877 C 1374.4648,724.20307 1277.8372,724.75587 1181.224,723.79257 z M 1455.1965,693.09877 C 1449.7389,685.43527 1439.2771,687.73167 1451.6474,693.45447 C 1452.1444,694.17817 1455.238,694.94177 1455.1965,693.09877 z M 1318.1514,671.71397 C 1326.34,655.59568 1302.2616,649.4392 1304.2731,633.07932 C 1303.9936,626.0403 1303.0497,612.64652 1295.8858,625.46256 C 1287.107,632.2499 1304.5643,642.48038 1298.2368,652.57004 C 1300.012,661.49008 1290.9202,673.70597 1306.224,672.69467 C 1310.013,673.91017 1315.3324,675.81437 1318.1514,671.71397 z"
         style="fill:url(#radialGradient6443);fill-opacity:1.0" />
    </g>
  </g>
</svg>
